<?xml version="1.0" encoding="utf-8"?>
<!-- Generator: Adobe Illustrator 27.0.1, SVG Export Plug-In . SVG Version: 6.00 Build 0)  -->
<svg version="1.1" id="Слой_1" xmlns="http://www.w3.org/2000/svg" xmlns:xlink="http://www.w3.org/1999/xlink" x="0px" y="0px"
	 viewBox="0 0 128 168" style="enable-background:new 0 0 128 168;" xml:space="preserve">
<style type="text/css">
	.st0{fill:#D8D8D8;}
	.st1{fill:#AAAAAA;}
	.st2{fill:#FFFFFF;}
	.st3{fill:#C4332B;}
	.st4{fill:#27223F;}
	.st5{fill:#222221;}
	.st6{fill:#D8CA34;}
	.st7{fill:#46580D;}
	.st8{fill:#BDAD2F;}
	.st9{fill:#CDC034;}
	.st10{fill:#B3181E;}
	.st11{fill:#413933;}
	.st12{fill:#B8B8CC;}
	.st13{fill:#A21417;}
	.st14{fill:#978A29;}
	.st15{fill:#651D20;}
	.st16{fill:#F1E33A;}
	.st17{fill:#CDCFDC;}
	.st18{fill:#EEEFF3;fill-opacity:0.98;}
	.st19{fill:#3D476C;}
	.st20{fill:#DFDDE6;}
	.st21{fill:#F6F4F8;}
	.st22{fill:#252C50;}
	.st23{fill:#0D0E28;}
	.st24{fill:#575C81;}
	.st25{fill:#2D325F;}
	.st26{fill:#9FA5BA;}
	.st27{fill:#848046;}
	.st28{fill:#232229;}
	.st29{fill:#362B25;}
	.st30{fill:#5A5A59;}
	.st31{fill:#6A7116;}
</style>
<g>
	<path class="st0" d="M107,161.7H19.2c-6.9,0-12.4-5.6-12.4-12.4V18.8c0-6.9,5.6-12.4,12.4-12.4H107c6.9,0,12.4,5.6,12.4,12.4v130.5
		C119.4,156.1,113.9,161.7,107,161.7z"/>
	<path class="st1" d="M106,157.8H20.2c-5.5,0-9.9-4.4-9.9-9.9V19.8c0-5.5,4.4-9.9,9.9-9.9H106c5.5,0,9.9,4.4,9.9,9.9v128.1
		C115.9,153.4,111.5,157.8,106,157.8z"/>
	<path class="st2" d="M105.7,154.8H20.5c-4.4,0-8-3.6-8-8V20.9c0-4.4,3.6-8,8-8h85.2c4.4,0,8,3.6,8,8v125.9
		C113.7,151.2,110.1,154.8,105.7,154.8z"/>
</g>
<g>
	<path class="st3" d="M21.6,29.4l5.7-9c0.3-0.4,0.2-0.6-0.4-0.5c-1.9,0.4-2.5-0.4-1.8-2.2c0.1-0.3,0.4-0.5,0.7-0.5h6.7
		c1,0.1,0.9,1.6,0.7,2.3c-0.1,0.3-0.4,0.4-0.7,0.4c-2.2-0.3-5.2,6-6.4,8.1c-0.2,0.4-0.3,0.9-0.1,1.3l4.9,11.9
		c0.1,0.3,0.4,0.4,0.7,0.4c1.7-0.1,2.2,0.7,1.6,2.3c-0.1,0.3-0.4,0.5-0.7,0.5H26c-0.3,0-0.6-0.2-0.7-0.4c-0.8-1.6-0.2-2.5,1.7-2.5
		c0.2,0,0.3-0.2,0.4-0.3v-0.1L24,32.7c-0.2-0.4-0.4-0.4-0.6-0.1c-1.8,2.4-2.4,5.2-1.8,8.5c0.1,0.3,0.3,0.5,0.6,0.6
		c1.3,0.3,1.7,1,1.2,2.4c-0.1,0.3-0.4,0.5-0.7,0.5h-5.9c-0.3,0-0.6-0.2-0.7-0.5c-0.6-1.7,0-2.5,1.8-2.3c0.3,0,0.5-0.1,0.5-0.4l0,0
		v-21c0-0.2-0.2-0.4-0.4-0.4c0,0,0,0-0.1,0c-1.9,0.2-2.5-0.6-1.8-2.3c0.1-0.3,0.4-0.5,0.7-0.5h5.9c0.3,0,0.6,0.2,0.7,0.5
		c0.5,1.4,0.1,2.2-1.4,2.4c-0.3,0-0.5,0.3-0.5,0.5l0.1,8.7C21.3,29.6,21.4,29.7,21.6,29.4z"/>
	<path class="st4" d="M101.2,81.1h-0.7c0-1-0.1-1.9-0.4-2.6l0.1-1.9v-0.5l-0.1-8.3c0-0.1-0.1-0.4-0.4-0.9l-0.5-1
		c0.5,0.1,0.8-0.1,0.8-0.5c0.3-11.3,0.3-22.5,0-33.8c0-0.3-0.2-0.6-0.4-0.8l-0.5-0.2L99,30.1l1.3-1.5c0.5-0.6,0.1-1-1-1
		c0.9-0.5,1.2-1.3,1-2.1c-0.1-0.3-0.3-0.5-0.7-0.5c-4.2-0.3-8.3-0.2-12.3,0.5c-0.1-0.2-0.5-0.2-1,0H48c-0.2,0-0.4,0.2-0.4,0.4l0,0
		c0.1,0.9,2.8,2.7,3.6,3.5c0.2,0.2,0.3,0.5,0.3,0.8c-0.3,1.8,0.7,2.5,3.1,1.9c2.6,1.5,3.2,0.7,1.8-2.4c-0.3-0.7-0.5-0.8-0.7-0.2
		c-0.1,0.2,0,0.5,0.1,0.7c0.6,1.1,0.2,1.6-1.1,1.7c-1.5-2-1.2-3.7,0.9-5.3c0.3-0.2,0.6-0.2,0.8,0.1l2.2,2.9c0.2,0.2,0.1,0.5-0.1,0.8
		c-0.3,0.4-0.5,0.8-0.6,1.3c-0.1,0.3,0.1,0.6,0.4,0.7c2,0.8,2.7,0.2,2-1.6c-0.1-0.3-0.1-0.6,0-0.9c2.1-3.9,3.7-3.7,4.8,0.7
		c0.1,0.3-0.1,0.6-0.3,0.7c-1.4,0.8-1.2,1.6,0.5,2.4c-0.2,1.2,0.4,1.6,1.7,1.2l3,1.7c-0.9,0.9-5.3,1.8-3.5,3l-0.8,0.5l-0.9-0.2
		c-0.6-1.5-1-1.3-1,0.5c-1-1.8-2.6-2.6-4.8-2.5c1.4-1,3-1.6,4.8-1.8c0.3,0,0.6-0.2,0.8-0.5c0.8-1.1,0.4-1.2-1.2-0.5
		c-1.4,0.7-7.7,0.7-8.2,2.3l-2.3,0.3c-0.3,0-0.5,0.2-0.5,0.4l0,0l0.6,3c-0.5,0.5-0.5,1.1-0.2,1.8l-2,4.3c-0.4,0.9-0.2,1.3,0.6,1.1
		c1.5-0.4,2.9-0.3,4.4,0l-3.4,1.6c-0.9-0.4-1.7-1.1-2.3-1.9c-0.2-0.2-0.2-0.6-0.1-0.8c1.1-2.3,2.3-4.2,1.9-6.9
		C51.1,34.9,49,30,45.8,25.6c-0.2-0.3-0.5-0.4-0.8-0.4c-4.3-0.1-8.6-0.2-12.8-0.3c-0.9,0-1.2-0.2-0.9-0.5c0.2-0.2,0.5-0.3,0.9-0.3
		h67.9c0.6,0,1.1,0.5,1.1,1.1L101.2,81.1z M63.7,33.8c-0.9-1.5-1.2-2.7-0.7-3.5c0.2-0.4,0.3-0.7,0.2-0.9c-0.1-0.4-0.4-0.4-0.7-0.2
		c-0.2,0.1-0.4,0.5-0.4,0.8c-0.1,1.4-0.7,2.6-1.7,3.6c-0.2,0.2-0.1,0.3,0.1,0.3l3,0.1C63.8,34,63.8,33.9,63.7,33.8z M59.6,34.2
		c0-0.3-1.7-0.5-3.7-0.4l0,0c-4.8,0.2-4.9,1.3,0,1.1l0,0C57.9,34.8,59.6,34.5,59.6,34.2z"/>
	<path class="st2" d="M99.3,27.5L94.1,33c-0.2,0.2-0.3,0.5-0.3,0.9l0.1,3.5c-3.1-0.4-4-3.4-5.3-5.8c-0.1-0.2-0.3-0.3-0.5-0.2
		c0,0-0.1,0-0.1,0.1c-5.7,4.9-5.1,12.9-0.1,18c0.1,0.1,0.3,0.1,0.5,0l0.1-0.1c0.8-1.8,3.2-5.9,5.5-5.5l-0.1,16.3L90.1,57
		c-0.3-0.2-0.6-0.4-0.9-0.4H86l-2.5,0.2L83,56.3c0.9-2.1,0.8-4.2-0.2-6.2l-2.4-8.8c-0.5-1.7-0.2-3.3,0.7-4.9l6.3-11
		c4.1-0.6,8.2-0.8,12.3-0.5c0.3,0,0.6,0.2,0.7,0.5C100.5,26.3,100.1,27,99.3,27.5z"/>
	<path class="st5" d="M87.3,25.4l-6.3,11c-0.9,1.6-1.1,3.2-0.7,4.9l2.4,8.8h-0.5c-0.6-3.2-1.7-6.3-3.3-9.1l-1.7,0.1l-0.8,0.2l-4-0.3
		h-1.7c-0.1-0.6-0.5-0.9-1-1l-1.5-0.2h-1l-0.8-0.6c-1.8-1.2,2.6-2.1,3.5-3l6,0.6c0.3,0,0.3-0.3,0.3-0.5c-0.3-0.9-0.3-4.4-0.8-4.3
		c-0.3,0-0.5,0.3-0.5,0.6c0,4-4.7,4.6-6.3,1.1c-0.1-0.3-0.4-0.5-0.7-0.5c-0.6,0.1-1,0.4-1.1,1.2c-1.3,0.4-1.9,0-1.7-1.2
		c1.7,0.1,2.2-0.6,1.4-2.1c-0.2-0.3-0.1-0.6,0.1-0.8l2.6-2.2c0.2-0.2,0.5-0.1,0.6,0c0,0,0,0.1,0.1,0.1l1.6,3
		c0.2,0.3,0.1,0.6-0.1,0.9c-0.3,0.3-0.6,0.6-1,0.7c-0.4,0.1-0.6,0.4-0.6,0.6c-0.1,1.5,5.2,3.3,3-0.6c-0.1-0.2-0.1-0.6,0.2-0.7
		c0.9-0.6,1.6-1.4,2.2-2.4c0.5-0.8,0.9-0.8,1.2,0l1.4,3c0.1,0.3,0.1,0.6-0.1,0.8c-1.4,1.8-0.9,2.5,1.6,2.3c0.9-0.1,1-0.5,0.4-1.1
		c-1-1.1-0.8-1.9,0.5-2.4c0.3-0.1,0.6-0.3,0.8-0.5c0.5-0.6,1.2-1.1,2-1.4c0.3-0.1,0.6-0.3,0.7-0.6l2.4-4.6
		C86.8,25.2,87.2,25.2,87.3,25.4z M68.7,32c0.5,1,0.8,0.8,1-0.6c0-0.3-0.1-0.6-0.4-0.7c-0.3,0-0.5,0.1-0.6,0.3
		C68.5,31.3,68.5,31.6,68.7,32z M79.6,38.1C79.7,38.1,79.7,38,79.6,38.1c0.1-0.2,0.1-0.2,0-0.2l0,0c-1.9-0.3-3.8-0.1-5.6,0.5
		c-0.4,0.2-0.4,0.2,0,0.2l4.9,0.1c0.1,0,0.2-0.1,0.3-0.1l0.1-0.1C79.3,38.3,79.4,38.1,79.6,38.1z M72,39.1c-0.1-0.3-0.6-0.4-1.2-0.2
		c-0.6,0.1-1.1,0.5-1,0.7l0,0c0.1,0.3,0.6,0.4,1.2,0.2C71.6,39.7,72.1,39.3,72,39.1L72,39.1z"/>
	<path class="st6" d="M86.3,25.4L83.8,30c-0.1,0.3-0.4,0.5-0.7,0.6c-1.2,0.3-1.7,1.4-2.8,1.9c-1.4,0.5-1.5,1.3-0.5,2.4
		c0.6,0.6,0.4,1-0.4,1.1c-2.5,0.2-3-0.5-1.6-2.3c0.2-0.2,0.2-0.5,0.1-0.8l-1.4-3c-0.4-0.8-0.8-0.8-1.2,0c-0.5,0.9-1.3,1.7-2.2,2.4
		c-0.2,0.2-0.3,0.5-0.2,0.7c2.1,3.9-3.2,2.2-3,0.6c0-0.2,0.3-0.5,0.6-0.6c0.7-0.3,1.4-0.8,1.1-1.6l-1.6-3c-0.1-0.2-0.4-0.3-0.6-0.2
		c0,0-0.1,0-0.1,0.1l-2.6,2.2c-0.2,0.2-0.3,0.5-0.1,0.8c0.8,1.5,0.3,2.2-1.4,2.1c-1.7-0.8-1.9-1.6-0.5-2.4c0.3-0.2,0.4-0.5,0.3-0.7
		c-1.1-4.3-2.7-4.6-4.8-0.7c-0.1,0.3-0.1,0.6,0,0.9c0.7,1.8,0.1,2.4-2,1.6c-0.3-0.1-0.5-0.4-0.4-0.7c0.1-0.5,0.3-0.9,0.6-1.3
		c0.2-0.3,0.3-0.6,0.1-0.8l-2.2-2.9c-0.2-0.2-0.5-0.2-0.8-0.1c-2.1,1.6-2.4,3.3-0.9,5.3c0,0-0.1,0.1-0.1,0.3
		c-2.3,0.5-3.3-0.1-3.1-1.9c0.1-0.3,0-0.6-0.3-0.8c-0.6-0.7-4.9-3.3-3.2-3.9L86.3,25.4z"/>
	<path class="st7" d="M99.3,27.5c1.2,0.1,1.5,0.4,1,1c-0.7-0.9-5.8,5.1-5.3,5.3c0.2,0.1,0.4,0,0.6-0.2l3.4-3.5l0.1,0.5L96,34.2
		c-0.2,0.3-0.4,0.6-0.4,0.8v26.3c0,0.2,0.1,0.5,0.4,0.8l2.6,2.9c-2.5-0.8-4.1-2.5-4.7-4.9c0-4.8,0.1-18.3,0.1-22.8l-0.1-3.5
		c0-0.4,0.1-0.7,0.3-0.9L99.3,27.5z"/>
	<path class="st8" d="M100.3,28.6L99,30.1l-3.4,3.5c-0.2,0.2-0.4,0.3-0.6,0.2C94.5,33.7,99.6,27.7,100.3,28.6z"/>
	<path class="st9" d="M54.5,32c0.1-0.1,0.1-0.2,0.1-0.3c1.3,0,1.7-0.6,1.1-1.7c-0.1-0.2-0.2-0.5-0.1-0.7c0.1-0.5,0.4-0.5,0.7,0.2
		C57.7,32.7,57.1,33.5,54.5,32z"/>
	<path class="st9" d="M63.7,33.8c0.1,0.2,0,0.2-0.2,0.2l-3-0.1c-0.3,0-0.3-0.1-0.1-0.3c1-1,1.6-2.2,1.7-3.6c0-0.4,0.2-0.7,0.4-0.8
		c0.4-0.3,0.6-0.2,0.7,0.2c0.1,0.2,0,0.5-0.2,0.9C62.6,31.1,62.8,32.3,63.7,33.8z"/>
	<path class="st8" d="M68.6,31c0.2-0.3,0.4-0.4,0.6-0.3c0.3,0,0.4,0.3,0.4,0.7c-0.2,1.4-0.5,1.6-1,0.6C68.5,31.6,68.5,31.3,68.6,31z
		"/>
	<path class="st10" d="M99.1,30.6l0.5,0.2c0.3,0.1,0.4,0.4,0.4,0.8c0.3,11.3,0.3,22.5,0,33.8c0,0.4-0.3,0.6-0.8,0.5
		c-0.5-0.5-2.7-3.1-3.2-3.7c-0.2-0.3-0.4-0.6-0.4-0.8V35.1c0-0.2,0.1-0.5,0.4-0.8L99.1,30.6z"/>
	<path class="st11" d="M94,37.3v0.8h-2.2c-0.8-1.2-1.5-1-2,0.8c-0.3,1.7,0,3.2,0.9,4.6c0.2,0.3,0.5,0.4,0.7,0.2l0,0
		c0.2-0.2,0.3-0.4,0.3-0.8l0.5-0.3l1.7,0.3v1c-2.3-0.4-4.7,3.7-5.5,5.5c-0.1,0.2-0.3,0.2-0.5,0.2c0,0-0.1,0-0.1-0.1
		c-5.1-5.2-5.7-13.1,0.1-18c0.2-0.1,0.4-0.1,0.6,0.1c0,0,0,0,0.1,0.1C90,33.9,90.9,36.9,94,37.3z M87.8,34.5l1,1.5
		c1.4,1.8,1.5,1.7,0.3-0.3c0.6-1.2,0.3-1.9-0.7-2C88.8,31.2,84.9,34.3,87.8,34.5z M87.3,38.1c0.2,1.2,0.6,1.7,1.3,1.6
		c0.2,0,0.3-0.2,0.2-0.4c0-0.1,0-0.1-0.1-0.2c-0.4-0.5-0.7-1-0.9-1.6L86.6,35c-0.1-0.2-0.2-0.3-0.4-0.2c-0.1,0-0.2,0.1-0.2,0.1
		c-0.2,0.1-0.2,0.5,0,0.8L87.3,38.1z M85,37.3c0,1.1-0.4,3.4-0.1,4.3c0.1,0.3,0.1,0.6,0.1,1c-0.1,0.4,0,0.7,0.2,0.9
		c0.2,0.1,0.4,0,0.5-0.2c0-0.1,0.1-0.1,0.1-0.2c0.2-0.9,0.6-6.4-0.3-6.3C85.2,36.8,85,37,85,37.3z M87.7,44.1
		c-1.2-2.2-2.8,3.9-0.1,0.8C87.8,44.6,87.9,44.3,87.7,44.1z M88.2,46.8l1.6-1.9c0.1-0.2,0.1-0.4,0-0.5c-0.1,0-0.1-0.1-0.2-0.1
		c-0.6,0-0.7,0.2-0.9,1c-0.1,0.6-0.5,1-1.2,1.2c-0.3,0.1-0.5,0.3-0.4,0.6c0.1,0.8,0.3,0.9,0.5,0.5C87.7,47.5,87.9,47.2,88.2,46.8z"
		/>
	<path class="st6" d="M70,36.3l-3-1.7c0.2-0.7,0.5-1.1,1.1-1.2c0.3,0,0.6,0.2,0.7,0.5c1.6,3.5,6.3,2.9,6.3-1.1
		c0-0.4,0.2-0.6,0.5-0.6c0.5,0,0.5,3.5,0.8,4.3c0.1,0.2,0,0.4-0.1,0.4c0,0-0.1,0-0.2,0L70,36.3z"/>
	<path class="st12" d="M88.3,33.8l-0.5,0.7C84.9,34.3,88.8,31.2,88.3,33.8z"/>
	<path class="st13" d="M55.9,33.7c4.9-0.1,4.9,1,0,1.2C51.1,35,51,33.9,55.9,33.7z"/>
	<path class="st14" d="M88.3,33.8c1,0.1,1.3,0.7,0.7,2l-0.3,0.3l-1-1.5L88.3,33.8z"/>
	<path class="st15" d="M59,37.5L55.3,37c0.5-1.6,6.8-1.6,8.2-2.3c1.5-0.8,1.9-0.6,1.2,0.5c-0.2,0.2-0.5,0.4-0.8,0.5
		C62,35.9,60.4,36.5,59,37.5z"/>
	<path class="st16" d="M87.8,37.6l-0.5,0.5L86,35.7c-0.4-0.6,0.1-1.2,0.6-0.7L87.8,37.6z"/>
	<path class="st16" d="M89,35.8c1.2,2,1.1,2.1-0.3,0.3L89,35.8z"/>
	<path class="st17" d="M84.9,41.6c-0.3-0.9,0.1-3.2,0.1-4.3c0-0.3,0.2-0.5,0.4-0.5c1-0.1,0.5,5.4,0.3,6.3c0,0.2-0.3,0.4-0.5,0.4
		c-0.2-0.1-0.3-0.4-0.2-0.9C85,42.2,85,41.9,84.9,41.6z"/>
	<path class="st2" d="M55.3,37l3.8,0.5c2.1-0.1,3.7,0.7,4.8,2.5c0.5,2.9,2,6.1,2.3,8.9c0.3,2.6,0.6,2.5,1.1-0.3
		c0.3-1.8,2.8-5.7,3.7-7.6h1.7l-5.2,9.9c-0.3,0.6-0.9,1-1.6,1c-2,0.1-3,0.7-3.2,1.8l-0.8,3L60,55.3c-0.5-0.4-1-0.2-1,0.4l-0.2,0.1
		c-0.9-1.1-1.6-1.1-2.2,0c-0.7-0.6-2.8-2.1-2.5-3.1c0.1-0.2,0.3-0.3,0.6-0.2h0.1c1.5,0.8,3.7-0.5,1.9-0.7c-2-0.2-2.3-0.6-1.1-1.2
		c0.3-0.1,0.6-0.1,0.9,0c2,1,6.2-0.6,3-2.5c-0.3-0.2-0.6-0.2-0.9,0c-1,0.8,1.9,3.1-2.3,1L55.9,48c-1.5-0.4-3-0.4-4.4,0
		c-0.9,0.2-1.1-0.1-0.6-1.1l2-4.3c0.1-0.6,0.5-0.9,1.2-0.8c0.4,0.1,0.8,0.3,1,0.6c0.2,0.2,0.2,0.5,0.2,0.9c-0.2,1.1,0.2,1.8,1.3,2
		c0.2,0.1,0.5-0.1,0.8-0.3c0.5-0.4,1-1.3,1.8-1.2c3-0.3-0.3-3.5-2.4-2.5c-0.3,0.1-0.6,0.1-0.8,0c-0.7-0.3-1.3-0.4-2-0.3l-1-0.2
		l-0.6-3c0-0.2,0.2-0.4,0.5-0.5l0,0L55.3,37z M54.6,39.6c2.7,0.3-0.2-1.3-0.5-0.6C54,39.2,54.2,39.5,54.6,39.6
		C54.5,39.6,54.5,39.6,54.6,39.6z M61.6,40.8c-0.6-0.5-7-4-5.6-0.6c0.1,0.2,0.3,0.2,0.4,0.1c0,0,0.1,0,0.1-0.1
		c1.1-1.1,3.6,0.4,4.8,0.9C62.3,41.5,62.4,41.4,61.6,40.8z"/>
	<path class="st14" d="M91.8,38.1l0.5,4.5l-0.5,0.3c-0.9-1-0.9-4.2-2-4C90.3,37.1,91,36.8,91.8,38.1z"/>
	<path class="st13" d="M79.3,38.4c-0.1,0.1-0.3,0.3-0.4,0.2H74c-0.5,0-0.5-0.1,0-0.2c1.8-0.7,3.7-0.8,5.6-0.5c0.1,0,0.1,0.1,0.1,0.1
		l0,0c0,0.1-0.1,0.1-0.1,0.1C79.4,38.1,79.3,38.3,79.3,38.4z"/>
	<path class="st9" d="M87.8,37.6c0.2,0.6,0.5,1.1,0.9,1.6c0.1,0.2,0.1,0.5-0.1,0.6c-0.7,0.1-1.1-0.4-1.3-1.6L87.8,37.6z"/>
	<path class="st2" d="M91.8,38.1H94v4.8l-1.7-0.3L91.8,38.1z"/>
	<path class="st18" d="M64.8,39.6c-0.1,0.5-0.4,0.7-1,0.5C63.8,38.2,64.2,38.1,64.8,39.6z"/>
	<path class="st19" d="M54.1,39c0.2-0.8,3.1,0.9,0.5,0.6C54.3,39.5,54.1,39.3,54.1,39L54.1,39z"/>
	<path class="st19" d="M61.6,40.8c0.8,0.7,0.7,0.8-0.2,0.4c-1.2-0.5-3.7-2-4.8-0.9c-0.1,0.1-0.4,0.2-0.5,0L56,40.2
		C54.6,36.8,61,40.3,61.6,40.8z"/>
	<path class="st13" d="M70.8,38.8c1.5-0.4,1.8,0.6,0.2,1C69.5,40.1,69.2,39.2,70.8,38.8z"/>
	<path class="st6" d="M89.8,38.8c1-0.2,1.1,3.1,2,4c0,0.6-0.5,1.3-1,0.6l0,0C89.8,42,89.5,40.5,89.8,38.8z"/>
	<path class="st17" d="M66.5,39.3l0.8,0.6l-1.8,3.5c-0.2,0.3-0.3,0.3-0.5,0c-0.6-1.3-0.4-2.5,0.7-3.6L66.5,39.3z"/>
	<path class="st19" d="M64.8,39.6l0.9,0.2c-1.1,1.1-1.3,2.3-0.7,3.6c0.2,0.3,0.3,0.3,0.5,0l1.8-3.5h1c-0.1,0.2-3.1,6.4-2.2,7.2
		c0.2,0.1,0.4,0.1,0.6-0.1c0,0,0,0,0-0.1l2.9-5.3c0.3-0.4,0.2-0.9,0.2-1.4c0.5,0,0.9,0.4,1,1c-0.9,1.9-3.4,5.8-3.7,7.6
		c-0.4,2.8-0.8,2.9-1.1,0.3c-0.3-2.8-1.8-6-2.3-8.9C64.4,40.2,64.7,40.1,64.8,39.6z"/>
	<path class="st20" d="M68.3,39.9l1.5,0.2c0,0.5,0,1-0.2,1.4l-2.9,5.3c-0.1,0.2-0.4,0.3-0.6,0.2c0,0,0,0-0.1,0
		C65.1,46.2,68.2,40.1,68.3,39.9z"/>
	<path class="st12" d="M53,40.8l1,0.2v0.8c-0.7-0.1-1.1,0.1-1.2,0.8C52.5,41.8,52.5,41.3,53,40.8z"/>
	<path class="st19" d="M76.5,41.4l-6.1,12c-0.1,0.3-0.1,0.6,0,0.9c0.3,0.6,0.7,1.1,1.3,1.5c0.6,1.3-3.5,1.1-5.1,0.9
		c1.2-2.3,1.2-2.7-0.1-1.3c-0.7,0.7-1.5,0.4-1.8-0.4c-1.2-0.5-1.3-0.9-0.5-1.1c0.2-0.1,0.5,0.1,0.7,0.4c0.3,0.6,0.8,0.7,1.5,0.2
		c0.3-0.2,0.4-0.5,0.4-0.8c-0.1-1.1-0.4-1.2-1-0.3c-0.1,0.2-0.3,0.2-0.5,0.1c0,0,0,0-0.1-0.1c-0.7-0.8-1.3-0.7-1.8,0.5h-0.7
		c0.1-1.1,1.2-1.8,3.2-1.8c0.6,0,1.2-0.4,1.6-1l5.2-9.9L76.5,41.4z M73.5,41.8c-0.5,0.9-7.2,11.5-4.7,13.8c0.8,0.8,1.1,0.6,0.8-0.5
		c-1-3.3,3.3-9.7,5-12.6c0.2-0.3,0.2-0.6,0.1-0.9C74.4,40.8,74,40.9,73.5,41.8z"/>
	<path class="st19" d="M54,41c0.7-0.1,1.3,0,1.8,0.3c0.3,0.1,0.6,0.1,0.8,0c2.2-1,5.4,2.2,2.4,2.5c-0.4,0-0.7,0.2-0.9,0.3L57.2,45
		c-0.3,0.2-0.6,0.4-0.8,0.3c-1.1-0.3-1.5-0.9-1.3-2c0.2-0.9-0.5-1.3-1.2-1.5V41H54z M58,43.8c1.9-1.2-3.4-1.7-0.9,0
		C57.4,44,57.7,44,58,43.8z"/>
	<path class="st21" d="M77.3,41.1c1.7,2.5-7.8,11.4-4.5,14l-0.2,0.5l-0.7,0.2c-0.8-0.6-1.6-1.4-1.3-2.4l6.1-12L77.3,41.1z"/>
	<path class="st22" d="M77.3,41.1L79,41c-1.7,4.2-5.9,10.1-6.2,14.1C69.5,52.5,78.9,43.6,77.3,41.1z"/>
	<path class="st21" d="M79,41c1.6,2.8,2.7,5.9,3.3,9.1c0.7,1.7,0.8,3.4,0.5,5.2c-0.1,0.3-0.3,0.6-0.6,0.6c-2.2,0.5-0.8-4.1-0.7-5.1
		c0-0.4,0-0.4-0.2-0.1c-0.9,1.4-1.2,3-1,4.6l-0.8,0.5c-2.8-0.7,1.4-6.4,0.9-8.3c-0.1-0.4-0.2-0.4-0.3,0c-1.1,2.9-2.7,5.1-2.4,8.3H77
		c-4.3-1.3,4.4-10.9,2.6-12.3c-0.1-0.1-0.4,0-0.5,0.2c0,0.1-0.1,0.1-0.1,0.2c-1.2,4-4.6,7.6-3.8,11.8l-0.8,0.1L72.6,55
		C73.1,51.1,77.3,45.2,79,41z"/>
	<path class="st21" d="M73.5,41.8c0.5-0.9,0.9-0.9,1.2-0.1c0.1,0.3,0.1,0.6-0.1,0.9c-1.7,2.9-6,9.3-5,12.6c0.3,1.1,0.1,1.2-0.8,0.5
		C66.3,53.3,72.9,42.6,73.5,41.8z"/>
	<path class="st21" d="M57.1,43.8c-2.5-1.7,2.8-1.2,0.9,0C57.7,44,57.4,44,57.1,43.8z"/>
	<path class="st23" d="M77,55.9c1.4,1.1-1.3,1-1.8-0.1c-0.8-4.2,2.6-7.9,3.8-11.8c0.1-0.3,0.3-0.5,0.5-0.4h0.1
		C81.4,45,72.7,54.6,77,55.9z"/>
	<path class="st9" d="M87.6,44.9c-2.7,3.1-1.1-3,0.1-0.8C87.9,44.3,87.8,44.6,87.6,44.9z"/>
	<path class="st14" d="M87.6,47.6c-0.3,0.4-0.4,0.3-0.5-0.5c0-0.3,0.1-0.5,0.4-0.6c0.7-0.2,1.1-0.6,1.2-1.2c0.1-0.4,0.2-0.8,0.4-0.9
		c0.2-0.1,0.3-0.2,0.5-0.1c0.2,0,0.4,0.5,0.2,0.7l-1.6,1.9C87.9,47.2,87.7,47.5,87.6,47.6z"/>
	<path class="st23" d="M79.5,55.9c1,0.6,0,1.2-0.7,0.7l-1.1-0.7c-0.3-3.2,1.3-5.4,2.4-8.3c0.1-0.4,0.2-0.4,0.3,0
		C80.9,49.5,76.7,55.2,79.5,55.9z"/>
	<path class="st24" d="M56.3,55.9l0.5,0.2l-1,2c-0.1,0.2-0.4,0.4-0.8,0.5c-0.5,0.1-0.7,0.4-0.8,1L53.8,59c0.5-0.7,3.6-2.9,1.3-3
		c-0.1-1.3-1.1-1.9-1.7-0.8c-0.6,1.5-1.3,1.6-2.1,0.1c1.2-1.3,1.7-2.9,1.3-4.8l3.5-1.3c4.2,2,1.2-0.2,2.3-1c0.2-0.2,0.6-0.2,0.9,0
		c3.2,1.9-1,3.5-3,2.5c-0.3-0.2-0.6-0.2-0.9,0c-1.2,0.6-0.9,1,1.1,1.2c1.8,0.1-0.4,1.5-1.9,0.7c-0.2-0.1-0.5-0.1-0.6,0.1
		c0,0,0,0,0,0.1C53.5,53.7,55.6,55.2,56.3,55.9z"/>
	<path class="st18" d="M55.9,48l0.1,1.3l-3.5,1.3v-1L55.9,48z"/>
	<path class="st3" d="M31.4,58L25,66.2c-0.1,0.2-0.4,0.2-0.5,0.1c0,0,0,0-0.1-0.1l-6.3-7.8c-0.2-0.2-0.2-0.5,0-0.8l6.2-7.6
		c0.1-0.2,0.4-0.2,0.6,0l0,0l6.4,7.3C31.5,57.5,31.6,57.8,31.4,58z"/>
	<path class="st23" d="M82.3,50.1h0.5c1.1,2.1,1.1,4.1,0.2,6.2c-1.5,1-2.4,0.7-2.7-1c-0.2-1.6,0.1-3.2,1-4.6
		c0.2-0.3,0.3-0.3,0.2,0.1c-0.1,1-1.5,5.6,0.7,5.1c0.3-0.1,0.5-0.3,0.6-0.6C83.1,53.5,82.9,51.8,82.3,50.1z"/>
	<path class="st21" d="M64.7,55.1h-1c-1-0.3-1.2-0.7-0.5-1.2c0.6-1.1,1.2-1.3,1.8-0.5c0.1,0.2,0.4,0.2,0.5,0.1c0,0,0,0,0.1-0.1
		c0.6-0.9,1-0.8,1,0.3c0,0.3-0.1,0.6-0.4,0.8c-0.7,0.5-1.2,0.4-1.5-0.2c-0.2-0.3-0.4-0.4-0.7-0.4C63.4,54.2,63.6,54.5,64.7,55.1z"/>
	<path class="st24" d="M62.6,53.8h0.7c-0.7,0.5-0.5,0.9,0.5,1.2l0.7,1.2c-1,0.2-1.7,0.7-2.2,1.6l-0.5-1L62.6,53.8z"/>
	<path class="st25" d="M51,55.6c0,1,0.4,1.7,1.2,1.9c0.3,0.1,0.6-0.1,0.8-0.4c0.4-0.6,1.1-0.9,1.9-0.7l-2.2,2.2
		c-0.2,0.2-0.5,0.2-0.7,0l-3.4-3c-0.2-0.2-0.6-0.2-0.9-0.1c-1.2,0.6-1.6,1.4-1.2,2.6c0.1,0.2,0.3,0.5,0.6,0.7l4.4,2.6
		c4.1,7.4,3.7,14,4.4,21.4c0.1,1.6-0.3,2.7-0.4,4.3l-3.2,0.8L51.8,84c0.2-8.3-2.1-15.8-7-22.3c-1.2-1.6-3.2-1.4-1.4,0.6
		c1.3,1.4,2.3,3,3.2,4.7L46,67.4l-3.8-5.5c-0.2-0.2-0.4-0.3-0.6-0.3l-0.3,0.1l-0.2-1l4.1-2.5c0.2-0.1,0.4-0.4,0.4-0.8c0-2,1-3,3-3
		c0.3,0,0.6,0.1,0.9,0.4C49.8,55.3,50.4,55.5,51,55.6z M48.8,60.8c-2.1-1.3-2.7-0.8-1.8,1.6c0.4,0.9,1,1.4,2,1.5
		c0.3,0,0.6-0.2,0.7-0.5C50.1,62.2,49.8,61.4,48.8,60.8z M51.2,67.8c0.6-0.2,0.8-1.1,0.5-2l0,0c-0.7-2.2-2.8-1.5-2.1,0.7l0,0
		C49.9,67.4,50.6,68,51.2,67.8z M51.7,69c-1.3,1-1.1,1.8,0.6,2.5c0.3,0.1,0.6,0,0.7-0.3c0.6-1.1,0.4-1.8-0.4-2.3
		C52.3,68.8,51.9,68.8,51.7,69z M53.6,72.8c-2.7-2.1-0.8,6.7,0.3,0.8C53.9,73.3,53.8,73,53.6,72.8z M53.6,76.3
		c-0.4-0.1-0.8,0.1-1,0.5c0,0.1,0,0.1,0,0.2C52.3,81,56.3,77.1,53.6,76.3z M54.2,81.9c1.7-1.9-1.4-3.1-1.2-0.8
		C53.1,82.4,53.5,82.7,54.2,81.9z M53.1,84.5c0.4,1.3,0.9,1.3,1.5-0.2c0.4-0.9-0.7-1.6-1.3-0.7C53,83.8,53,84.2,53.1,84.5z"/>
	<path class="st12" d="M55.1,56.1l-0.2,0.2c-0.8-0.1-1.4,0.1-1.9,0.7c-0.2,0.3-0.5,0.4-0.8,0.4c-0.8-0.2-1.2-0.8-1.2-1.9l0.3-0.2
		c0.8,1.5,1.5,1.5,2.1-0.1c0.1-0.3,0.4-0.6,0.7-0.6C54.6,54.7,55,55.1,55.1,56.1z"/>
	<path class="st26" d="M58.5,55.9l1.5,2c-0.3,1.4-0.8,1.9-1.4,1.4C58.4,59,58.2,59,58,59.2l0,0c-0.6,0.7-1.2,0.7-1.9-0.2
		c0.8-0.7,1.3-1.5,1.6-2.5c0.1-0.3,0-0.6-0.3-0.7c-0.2,0-0.4,0.1-0.6,0.2l-0.5-0.2C56.9,54.8,57.6,54.8,58.5,55.9z"/>
	<path class="st17" d="M66.7,56.8l-1,0.1l-1.2-0.6l-0.7-1.2h1c0.3,0.8,1.3,1.1,1.8,0.4C67.9,54.1,68,54.5,66.7,56.8z"/>
	<path class="st11" d="M61.7,56.8l0.5,1c-1.1,1.2-2.3,2.2-3.7,2.8c-1.3,1-1.7,2.1-1.3,3.2c0.4,0.8,1.1,1.2,2,1.2
		c0.3,0.2,0.2,0.3-0.1,0.5l0,0c-1.8,0.3-1.7,1,0.4,2c-0.7,2.3-0.1,2.5,1.8,0.5l0.5-0.3c2.2,0.4,6-3.9,7.2-5.5
		c0.2-0.2,0.5-0.4,0.8-0.4c1.1,0.1,6.3-0.8,5.7,1.1l-3.7,5.5l-0.2-0.5l2.3-4.4c0.1-0.3,0.1-0.5-0.2-0.7l0,0
		c-1.8-0.8-3.4-0.4-4.9,1.1c-2.2,2.3-4.7,4.1-7.5,5.4c-0.2,0.1-0.6,0.2-1,0.2c-1.8-0.1-1.7,2.9-1.8,4.3L55.8,62
		c1.5-1.7,1.3-1.9-0.5-0.7c-0.7-0.4-0.9-1-0.7-1.8l1.5-0.8c0.7,0.9,1.4,0.9,1.9,0.2c0.1-0.2,0.4-0.2,0.6-0.1l0,0
		c0.6,0.5,1.1,0.1,1.4-1.4c2-0.2-0.7-1.9-1.3-2c0-0.6,0.5-0.8,1-0.4L61.7,56.8z"/>
	<path class="st22" d="M72.8,55.1l1.8,0.8c-0.7,1.3-1.4,1.2-2-0.2L72.8,55.1z"/>
	<path class="st20" d="M54.8,56.3l0.2-0.2c2.3,0.1-0.8,2.3-1.3,3l-1.3,0.6c-0.3,0.1-0.6,0.1-0.8-0.2l-3.1-3
		c-0.2-0.2-0.6-0.3-0.8-0.1c-0.3,0.2-0.4,0.6-0.3,1c0,0.2,0.2,0.5,0.5,0.7l3.9,2.7l-0.3,0.5l-4.4-2.6c-0.3-0.2-0.6-0.4-0.6-0.7
		c-0.4-1.2,0-2,1.2-2.6c0.3-0.2,0.6-0.1,0.9,0.1l3.4,3c0.2,0.2,0.5,0.2,0.7,0L54.8,56.3z"/>
	<path class="st26" d="M80.3,55.3c0.3,1.7,1.2,2,2.7,1l0.5,0.5l-1.8,1.5l-0.2-0.1L78.7,58l-11.5-0.3l-0.8-0.2l-0.8-0.7l1-0.1
		c1.6,0.1,5.7,0.3,5.1-0.9l0.7-0.2c0.6,1.5,1.3,1.6,2,0.2l0.8-0.1c0.5,1.1,3.2,1.2,1.8,0.1h0.7l1.1,0.7c0.3,0.2,0.6,0.2,0.9,0.1
		c0.4-0.2,0.3-0.5-0.2-0.8L80.3,55.3z"/>
	<path class="st12" d="M56.1,59.1l-1.5,0.8l-0.3-0.2c0-0.5,0.3-0.9,0.8-1c0.4-0.1,0.7-0.3,0.8-0.5l1-2c0.2-0.1,0.4-0.2,0.5-0.2
		c0.2,0,0.4,0.3,0.3,0.6v0.1C57.4,57.6,56.9,58.4,56.1,59.1z"/>
	<path class="st12" d="M58.5,55.9l0.2-0.1c0.5,0.1,3.3,1.8,1.3,2L58.5,55.9z"/>
	<path class="st19" d="M53.8,59l0.5,0.5c-0.8,0.9-0.8,1.8-0.3,2.7c2.2,3.5,2.9,7.6,2.5,11.8c-0.3-2.8-1.9-12.6-4.7-13.3L47.9,58
		c-0.3-0.2-0.5-0.5-0.5-0.7c-0.1-0.5,0-0.8,0.3-1c0.2-0.2,0.5-0.1,0.8,0.1l3.1,3c0.2,0.2,0.6,0.3,0.8,0.2L53.8,59z"/>
	<path class="st13" d="M64.5,56.3l1.2,0.6l0.8,0.7c-1.7,1.9-5.9,6.2-8.5,6.2c0.6-0.9,0.8-2,0.5-3.1c1.4-0.6,2.6-1.6,3.7-2.8
		C62.8,57,63.5,56.5,64.5,56.3z"/>
	<path class="st25" d="M38.3,62.6l-1.5,0.7c0.4-1.8,0.2-3.4-0.7-4.8c-0.3-0.5-0.5-0.4-0.8,0.1L33,63.8c-0.2,0.4-0.3,0.4-0.3-0.1
		c0-0.9,0.3-1.7,1-2.4c0.2-0.2,0.3-0.5,0.3-0.8c-0.2-1.4,0.3-2.6,1.6-3.4c1.4-0.9,1.9-0.5,1.7,1.1C37.1,59.7,37.4,61.1,38.3,62.6z"
		/>
	<path class="st19" d="M86,56.6c-0.3,0.3-0.4,0.5-0.5,0.8c-1.8-1-2.1,1.7-3.7,2.4v-1.5l1.8-1.5L86,56.6z"/>
	<path class="st5" d="M86,56.6h3.2c0.3,0,0.6,0.1,0.9,0.4l3.8,3.2c0.6,2.4,2.1,4.1,4.7,4.9l0.7,0.8l0.5,1c0.3,0.5,0.4,0.8,0.4,0.9
		l0.1,8.3l-2,0.5c-0.7,0-0.8-0.2-0.5-0.8L86.6,62.1c-0.2-0.2-0.5-0.3-0.7-0.1l0,0l-0.3,0.3L84.3,62c0.4-0.6,4.9-4.5,3-4.5
		c-0.4,0-0.7,0.1-0.9,0.3l-4.6,4.9l-0.1-0.2l3.8-5.2C85.6,57.1,85.8,56.9,86,56.6z"/>
	<path class="st17" d="M85.5,57.4l-3.8,5.2c-0.7,0.2-1.2,0-1.5-0.8v-0.5l1.5-1.5C83.4,59.2,83.7,56.4,85.5,57.4z"/>
	<path class="st17" d="M67.3,57.8c-2.2,2.7-4.7,5-7.5,7L59.3,65c-0.9,0-1.6-0.3-2-1.2l0.8-0.1c2.6-0.1,6.8-4.3,8.5-6.2L67.3,57.8z"
		/>
	<path class="st9" d="M84.3,62l-1.5,1.8l-1,1c-0.8,0.2-1.1,0-1-0.7l0.2-0.3l0.8-1l4.6-4.9c0.2-0.2,0.5-0.3,0.9-0.3
		C89.2,57.5,84.6,61.4,84.3,62z"/>
	<path class="st11" d="M67.3,57.8l11.5,0.3l-0.2,0.4c-0.8-0.1-1.6-0.1-2.3,0.3c-0.2,0.1-0.3,0.3-0.2,0.5c0,0,0,0.1,0.1,0.1
		c0.7,0.8,0.5,1.4-0.5,1.7c-0.3,0.1-0.6,0-0.8-0.3c-0.2-0.4-0.3-0.8-0.1-1.3c0.1-0.3,0-0.6-0.2-0.8c-0.6-0.4-1.3-0.3-1.9,0.1
		l-1.2,0.5c-0.8-1.2-1.6-1.2-2.3,0L67.6,59l-6.1,5.6l-1.7,0.2C62.6,62.8,65.1,60.4,67.3,57.8z"/>
	<path class="st5" d="M78.8,58.1l2.8,0.2c-0.4,0.2-0.8,0.3-1.2,0.4c-0.3,0-0.5,0.2-0.5,0.5c0.1,1.3,0.7,1.5,1.9,0.7l-1.5,1.5
		c-1.8-0.1-2.3-1-1.8-2.8L78.8,58.1z"/>
	<path class="st9" d="M81.5,58.3l0.2,0.1v1.5c-1.2,0.8-1.9,0.6-1.9-0.7c0-0.3,0.2-0.5,0.5-0.5C80.8,58.6,81.2,58.5,81.5,58.3z"/>
	<path class="st9" d="M71.3,59.3c-0.5,0.9-0.4,1.5,0.4,1.8c0.3,0.1,0.6,0,0.9-0.2c0.5-0.6,0.5-1.3-0.1-2c0.7-0.4,1.3-0.5,1.9-0.1
		c0.2,0.1,0.3,0.4,0.2,0.8c-0.2,0.5-0.1,1,0.1,1.3c0.1,0.3,0.5,0.4,0.8,0.3c1-0.3,1.2-0.9,0.5-1.7c-0.1-0.2-0.1-0.4,0-0.5
		c0,0,0.1,0,0.1-0.1c0.7-0.3,1.5-0.4,2.3-0.3c-0.6,1.8,0,2.8,1.8,2.8v0.5l-0.5,1c-0.9,0.4-1.4,1.1-1.7,2l-0.8-1
		c1.9-0.3-0.3-4.4-0.8-0.8h-1c0.6-1.9-4.6-1.1-5.7-1.1c-0.3,0-0.6,0.1-0.8,0.4c-1.2,1.6-5,5.9-7.2,5.5c0.5-1,0.3-1.9-0.5-2.5
		l0.2-0.8l6.1-5.6c-0.4,1.3-0.1,2.8,1.2,2.4c0.8-0.4,0.9-1.1,0.2-2C69.7,58.2,70.5,58.2,71.3,59.3z M66.1,63.9
		c0.2,0.1,0.5,0,0.6-0.3c0,0,0,0,0-0.1c0.2-1,0.1-1.7-0.6-1.9c-0.3-0.1-0.6,0-0.8,0.3C64.8,62.9,65,63.5,66.1,63.9z M62.8,65
		c-0.1,0.8,0.3,1.1,1.4,0.9c0.3-0.1,0.5-0.3,0.5-0.6c0.1-1.4-0.4-1.8-1.4-1.1C63.1,64.4,62.9,64.7,62.8,65z"/>
	<path class="st5" d="M72.5,58.9c0.5,0.8,0.5,1.5,0.1,2c-0.2,0.3-0.5,0.3-0.9,0.2c-0.8-0.3-0.9-0.9-0.4-1.8L72.5,58.9z"/>
	<path class="st5" d="M69,59.3c0.7,0.9,0.6,1.6-0.2,2c-1.2,0.5-1.6-1.2-1.2-2.4L69,59.3z"/>
	<path class="st27" d="M54.3,59.6l0.3,0.2c-0.2,0.8,0,1.4,0.7,1.8l0.5,0.7l2.7,11.8l0.2,0.8l0.4,8c-0.6,0.6-0.7,1.3-0.3,2.2
		c0,1.9-0.7,2.7-2.3,2.2c0.4-4.4,0.4-8.8,0-13.2C57,70,56.3,65.9,54,62.3C53.4,61.4,53.5,60.5,54.3,59.6z"/>
	<path class="st2" d="M51.7,83.9L51,83.8l-0.8-7c-0.5-3.6-1.7-7-3.7-10c-0.8-1.7-1.9-3.3-3.2-4.7c-1.8-2,0.1-2.2,1.4-0.6
		C49.6,68.1,51.9,75.6,51.7,83.9z"/>
	<path class="st2" d="M48.8,60.8c1,0.6,1.3,1.5,0.9,2.6c-0.1,0.3-0.4,0.5-0.7,0.5c-1-0.1-1.6-0.6-2-1.5C46.1,60,46.7,59.4,48.8,60.8
		z"/>
	<path class="st28" d="M41,60.8l0.2,1c0.5,1.4,1.3,2.7,2.3,3.8L43,66c-0.3-0.2-0.7-0.2-1.1-0.1c-6,2.3-11.4,4.7-16.2,7.2l-0.2,5.2
		c0,0.3,0.2,0.5,0.5,0.5c0.9,0,1.7-0.4,2.3-1c-0.5,1.4-1.5,2.3-2.9,2.8c-0.5,0.2-0.4,0.6-0.3,0.9c0.1,0.2,0.5,0.2,0.8,0l0,0l2.5-2.1
		c0.2-0.2,0.4-0.4,0.5-0.8c0.4-1,1.1-1.6,2.2-1.8c0.8-0.1,1.4-0.7,1.6-1.4c0.5-1.7,1.5-2.9,3-3.5c-1.6,3.4-4.1,5.3-6.5,8
		c-0.8,0.9-1.8,1.7-2.8,2.3c-1.6,0.9-1.6,2.7,0.6,1.1c4.3-3.1,7.8-7.1,10.4-11.9c0.2-0.3,0.2-0.6,0.1-0.9c-0.3-1-0.8-0.7-1.5,0.9
		c-0.1-0.3-0.3-0.4-0.5-0.5c-1.4-0.4-2.3,0.4-2.8,2.4c-0.4,1.7-1.5,2.8-3.1,3.3L32,73c0.2-0.3,0.3-0.7,0.2-0.9
		c-0.2-0.5-0.6-0.7-1.2-0.6l10.8-3.9l1.5,0.7c-1.2,0.4-1.1,0.9,0.5,1.5C41.7,76.7,33.5,85.7,27.7,89c0.1-2.8-1-3.9-3.3-3.2
		c0-1.7-0.3-17.5,0.3-17.6c0.3-0.1,0.6,0.4,0.9,1.4c0.1,0.2,0.2,0.3,0.4,0.2c0,0,0,0,0.1,0l3.4-2.2c0.2-0.2,0.3-0.5,0.2-0.7
		c-1.9-3.3-1.6-3.4,0.9-0.4c0.2,0.2,0.5,0.3,0.7,0.1l5.5-3.3l1.5-0.7L41,60.8z M38.5,71.5l-0.7,1.3c-0.7,0.5-1,1.2-1,2
		c-1.4,0.9-2.5,2.1-3.2,3.7c-0.1,0.3-0.3,0.5-0.6,0.7s-2.9,2.6-1.2,2.7c0.3,0,0.5-0.2,0.7-0.6c0.8-2,1.2-2,1.2,0
		c0,0.4-0.1,0.7-0.4,0.9l-0.9,0.7c-0.3,0.2-0.5,0.5-0.5,0.7c-0.1,0.5,0.2,0.6,0.8,0.2c2-1,2.6-2.4,1.7-4.1c-0.2-0.3-0.2-0.7,0-0.9
		l1.3-1.8c0.2-0.2,0.5-0.3,0.8-0.2c0.8,0.2,0.7,0.6-0.3,1.1c-0.3,0.1-0.4,0.5-0.2,0.7c0.4,0.9,1.6,0.6,1.8-0.4
		c0.8-2.7,3.6-4,4.5-7.3c0.1-0.3,0-0.6-0.2-0.9C40.1,68,38.9,68.5,38.5,71.5z M28,84.9v1c-0.9,1.7,2.7,0.9,2.7-1.2l-0.2-1l0.1-0.7
		c0-0.3-0.2-0.4-0.4-0.4c-1,0.2-1.8,0.6-2.4,1.3c-0.2,0.3-0.3,0.6-0.2,0.8C27.7,84.7,27.8,84.8,28,84.9z"/>
	<path class="st21" d="M51.8,60.8c2.8,0.7,4.3,10.5,4.7,13.3c0.4,4.4,0.4,8.8,0,13.2l-1-0.3c0.1-1.6,0.5-2.7,0.4-4.3
		c-0.7-7.5-0.4-14-4.4-21.4L51.8,60.8z"/>
	<path class="st8" d="M55.8,62.3l-0.5-0.7C57.1,60.4,57.3,60.7,55.8,62.3z"/>
	<path class="st8" d="M58.5,60.6c0.3,1.1,0.1,2.2-0.5,3.1l-0.8,0.1C56.8,62.7,57.3,61.6,58.5,60.6z"/>
	<path class="st16" d="M46,67.4l3.8,9.7L49,80.6c-0.5-5.5-2.3-10.5-5.5-15c-1-1.1-1.8-2.4-2.3-3.8l0.3-0.1c0.2-0.1,0.4,0,0.6,0.3
		L46,67.4z"/>
	<path class="st29" d="M66.1,63.9c-1.1-0.4-1.3-1-0.8-1.9c0.8-1,1.8,0.3,1.4,1.6C66.7,63.9,66.4,64,66.1,63.9
		C66.2,63.9,66.1,63.9,66.1,63.9z"/>
	<path class="st5" d="M77.3,63.9l-0.8-0.8C77,59.5,79.2,63.5,77.3,63.9z"/>
	<path class="st24" d="M80.2,61.8c0.3,0.7,0.8,1,1.5,0.8l0.1,0.2l-0.8,1c-0.2-0.7-0.6-1.1-1.2-1.1L80.2,61.8z"/>
	<path class="st17" d="M97.7,75.8L97,76c-2.3-2.9-7.1-8.5-9.5-11.3l-2-2.5l0.3-0.3c0.2-0.2,0.5-0.1,0.7,0.1l0,0L97.7,75.8z"/>
	<path class="st10" d="M84.3,62l1.2,0.2l2,2.5c0.7,2.5,2.3,4.3,4.7,5.5L97,76c-0.7,0.8-1.6,1.5-2.7,1.9c-0.3,0.1-0.6,0-0.8-0.2
		L83.1,65.5C83,65.4,82.9,65,83,64.7c0-0.3,0-0.6-0.2-0.9L84.3,62z"/>
	<path class="st10" d="M71.6,68.1c-1,1.8-1.7,3.8-1.9,5.8c0,0.3-0.3,0.5-0.6,0.5l-10.3,0.4L58.6,74c0.1-1.5-0.1-4.4,1.8-4.3
		c0.4,0,0.7,0,1-0.2c2.9-1.4,5.4-3.2,7.5-5.4c1.5-1.5,3.1-2,4.9-1.1c0.2,0.1,0.3,0.4,0.2,0.7l0,0L71.6,68.1z"/>
	<path class="st26" d="M79.8,62.8c0.7,0,1.1,0.4,1.2,1.1l-0.2,0.3c-1,0.7-1.7,1.7-2,3c-0.9,0.7-0.8,1.4,0.1,2.2c0,0.3,0,0.5-0.2,0.7
		c-0.1,0.3-0.5,0.1-0.7-0.1l-1.5-2c-0.2-0.3-0.2-0.6-0.1-0.9c0.2-0.3,0.5-0.5,1-0.6c0.1,0,0.2-0.2,0.2-0.3l0,0l-0.1-0.3l0.5-1
		C78.3,63.9,78.9,63.2,79.8,62.8z"/>
	<path class="st9" d="M75.5,63h1l0.8,0.8l0.8,1l-0.5,1c-1.7-1.4-2.5-1.3-2.7,0.2c0,0.3,0.2,0.5,0.5,0.6c0.7,0.3,1,0.7,0.8,1.2
		c-0.3,1,0,2,0.7,2.7l11.9,13c-0.4,0.5-0.8,0.4-1.2-0.1c-3.7-4.2-10.7-9.9-12.7-14.9c-0.1-0.3-0.4-0.6-0.6-0.6
		c-0.7-0.2-1.1,0.1-1.2,0.8c0,0.3,0.1,0.6,0.4,0.8c2,1.6,3.1,3.6,3,6.3c-1.9-1.4-1.7-4.2-3.4-4.8c-0.3-0.1-0.6,0-0.9,0.2
		c-0.6,0.6-0.5,1.7,0.5,1.7c0.9,0.1,1.4,0.7,1.3,1.7l-0.5,0.2l-0.9-0.6c-0.4-0.2-0.9,0.5-1.3,0.5c-0.3,0-0.5-0.3-0.5-0.7l0,0
		l1.1-5.5L75.5,63z"/>
	<path class="st28" d="M63.3,64.2c1-0.7,1.5-0.4,1.4,1.1c0,0.3-0.2,0.6-0.5,0.6c-1,0.2-1.5-0.1-1.4-0.9
		C62.9,64.7,63.1,64.4,63.3,64.2z"/>
	<path class="st29" d="M82.7,63.8c0.2,0.3,0.3,0.6,0.2,0.9c-0.1,0.4,0,0.7,0.2,0.9l10.5,12.2c0.2,0.2,0.5,0.3,0.8,0.2
		c1.1-0.4,2-1.1,2.7-1.9l0.7-0.2c-0.3,0.6-0.1,0.8,0.5,0.8c-1.4,1.3-3,2.3-4.8,3c-3.4-4.9-7.2-9.5-11.2-13.8l-0.5-1L82.7,63.8z"/>
	<path class="st14" d="M80.8,64.1c-0.1,0.7,0.2,0.9,1,0.7l0.5,1l-0.8,0.7c-0.8-0.1-1.5,0.5-2,1.9c-0.6-0.1-0.9-0.5-0.8-1.2
		C79.1,65.8,79.8,64.8,80.8,64.1z"/>
	<path class="st2" d="M50.2,64.6c1.4-0.4,2.4,2.8,1.1,3.2C49.9,68.2,48.8,65,50.2,64.6z"/>
	<path class="st8" d="M61.5,64.6l-0.2,0.8c-1.5,0.5-1.7,1.1-0.7,2l-1,0.3c-2.1-1-2.2-1.7-0.4-2c0.2,0,0.3-0.2,0.3-0.3l0,0
		c0-0.1-0.1-0.2-0.2-0.2l0.5-0.2L61.5,64.6z"/>
	<path class="st5" d="M77.5,65.9l0.1,0.3c0,0.2-0.1,0.3-0.2,0.3l0,0c-0.7,0.2-1.5,0.7-0.9,1.5l1.4,1.9c0.2,0.2,0.5,0.3,0.6,0.2
		c0,0,0,0,0.1-0.1c0.1-0.2,0.2-0.4,0.2-0.7l0.7-1c0.5-1.4,1.2-2,2-1.9l10.3,12.1c-0.4,0.5-0.8,0.8-1.3,1.1c-0.3,0.1-0.6,0-0.8-0.2
		c-0.8-0.9-3.1-3.1-3.7-2.4c-0.1,0.1-0.1,0.3,0.1,0.5c0.1,0,0.1,0.1,0.2,0.1c1.3,0.3,2.2,1.1,2.8,2.4c-0.6,0.4-0.8,0.8-0.7,1.3
		c0.1,0.3,0.4,0.5,0.7,0.4c0.7-0.1,1-0.6,0.7-1.7l1.1,0.5c0.2,0.1,0.5,0,0.6-0.2l0,0c0.2-0.5,0.6-0.8,1.1-1.1l1,0.3l-4.2,4.3
		l-0.5-0.2L77,70.6c-0.7-0.7-0.9-1.8-0.7-2.7c0.1-0.5-0.1-0.9-0.8-1.2c-0.3-0.1-0.5-0.4-0.5-0.6C75,64.6,75.9,64.5,77.5,65.9z
		 M82.7,70.8c0.5,1.2,0.2,1.8-0.8,1.9c-0.4,0.1-0.7,0.2-0.9,0.3c-0.4,0.4-0.2,0.7,0.6,0.8c1.1,0,1.9,2.6,2.8,2.7
		c0.2,0,0.2-0.2,0.1-0.5c0-0.1,0-0.1-0.1-0.1c-1.4-1.8-0.2-5.2-1.7-5.7c-1.5-1-2.4-0.8-2.9,0.5c-0.1,0.3,0,0.6,0.3,0.7l0,0
		C81.1,71.8,81.9,71.6,82.7,70.8z M85.8,74.6c-0.4,0.7-0.4,1.1,0.1,1.2c0.3,0.1,0.7-0.1,0.8-0.4c0.1-0.4,0-0.7-0.4-1.1
		C85.1,72.1,84.9,72.2,85.8,74.6z"/>
	<path class="st11" d="M87.6,64.8l4.7,5.5C89.9,69.1,88.3,67.3,87.6,64.8z"/>
	<path class="st29" d="M61.2,65.3c0.9,0.6,1.1,1.4,0.5,2.5l-0.5,0.3C60.1,67.1,58.9,66.1,61.2,65.3z"/>
	<path class="st22" d="M43.6,65.6c3.2,4.5,5,9.5,5.5,15l1,8.2c-2.1,2.9-0.7,7.2,2,9c0.3,0.2,0.5,0.5,0.4,0.8c0,0.9-0.5,1.2-1.2,0.9
		c-0.3-0.1-0.5-0.3-0.6-0.7c-0.5-1.3-1.2-2.5-2.1-3.5c-3.5-3.8-7.1-7.6-10.8-11.4l-0.6-1.1c2-2.4,9.7-12.2,6.6-13.8l-0.5-0.8
		l-1.5-0.7c0.9-0.3,1.3-0.8,1.2-1.6L43.6,65.6z M39.9,82.8l6.5,7.3c0.9,1,1.5,0.9,1.5-0.5c0.3-5-0.2-9.8-1.5-14.4
		c-0.5-1.7-1-1.7-1.6-0.1c-0.9,2.5-2.6,4.8-5,7.2C39.7,82.4,39.7,82.6,39.9,82.8z"/>
	<path class="st18" d="M43,66c0.1,0.8-0.3,1.3-1.2,1.6L31,71.5l-5.3,1.6c4.9-2.5,10.3-4.9,16.2-7.2C42.4,65.8,42.7,65.8,43,66z"/>
	<path class="st9" d="M82.3,65.8c4.1,4.3,7.8,8.9,11.2,13.8l-1-0.3l-0.7-0.7L81.5,66.4L82.3,65.8z"/>
	<path class="st30" d="M46.6,66.8c2,3,3.2,6.4,3.7,10L49.9,77L46,67.4L46.6,66.8z"/>
	<path class="st27" d="M78.7,67.1c-0.1,0.7,0.1,1.2,0.8,1.2l-0.7,1C77.9,68.5,77.9,67.7,78.7,67.1z"/>
	<path class="st6" d="M60.5,67.3l0.8,0.8c-1.9,2-2.5,1.8-1.8-0.5L60.5,67.3z"/>
	<path class="st22" d="M88.8,83.6l0.5,0.2c-3.6,3.7-6.4,7.9-8.3,12.7c-0.1,0.3-0.1,0.6,0.1,0.9l1.8,2.9c-0.4,0.7-0.3,1.1,0.2,1.4
		l-0.5,0.8c-3.3-4.6-5.4-9.8-6.3-15.5l-0.8-4.3v-3.5c2-3.2,0.9-7.6-2-9.8c-0.3-0.2-0.4-0.5-0.4-0.8c0.1-0.7,0.5-1,1.2-0.8
		c0.3,0.1,0.5,0.3,0.6,0.6c1.9,5,8.9,10.7,12.7,14.9C88,84,88.4,84.1,88.8,83.6z M85.5,84.5l-7.2-8c-0.3-0.3-0.4-0.3-0.5,0.2
		c-0.7,5.9-0.1,11.5,1.9,17c0.2,0.6,0.4,0.6,0.7,0c1.1-3.3,2.8-6.1,5.1-8.4C85.7,85.1,85.7,84.7,85.5,84.5z"/>
	<path class="st5" d="M71.6,68.1l0.2,0.5l-1.1,5.5c-0.1,0.3,0.1,0.6,0.4,0.7l0,0c0.4,0,0.9-0.7,1.3-0.5l0.9,0.6v1.8
		c-2.3-0.1-2.3,0.3,0,1l0.1,0.2c-1.1,1.6-2.6,2.3-4.6,2c-1.9,0.2-1,2-3,2.5l-1,0.1c-0.6,0.1-0.9-0.2-0.8-0.8
		c0.1-1.6-0.5-2.1-1.8-1.7c-0.3,0.1-0.5,0.3-0.6,0.7c-0.3,1.4,0.3,2,1.6,1.8l0.7,1.2c-0.1,1.2,0.6,1.7,2,1.4l0.7,7.8H55.9
		c-0.3,0-0.6,0.2-0.6,0.6c-0.2,3.4-1.4,6.6-3.5,9.4l-0.2-1c2.1-2.8,2.9-5.8,2.7-9.3c-0.1-0.7-0.4-1.2-0.9-1.7c0.1-1-0.4-1.3-1.2-0.8
		h-0.4c-0.5-0.8-0.4-1.6,0.2-2.3l3.2-0.8l1,0.3c1.6,0.4,2.4-0.3,2.3-2.2c1,0.2,2.6,0,2.7-1.1c0.1-1.4-0.7-1.8-2.4-1.2l-0.4-8
		l10.3-0.4c0.3,0,0.5-0.2,0.6-0.5C69.9,71.8,70.5,69.9,71.6,68.1z M64.1,85.6c0-0.4-0.4-0.6-0.7-0.6l-1.2,0.1
		c-0.4,0-0.6,0.4-0.6,0.7l0,0l0.2,1.4c0,0.4,0.4,0.6,0.7,0.6l1.2-0.1c0.4,0,0.6-0.4,0.6-0.7l0,0L64.1,85.6z"/>
	<path class="st14" d="M43.3,68.3l0.5,0.8l-0.1,0.8C42.2,69.2,42,68.7,43.3,68.3z"/>
	<path class="st2" d="M52.5,69c0.8,0.5,1,1.3,0.4,2.3c-0.1,0.3-0.4,0.4-0.7,0.3c-1.7-0.7-1.9-1.6-0.6-2.5
		C51.9,68.8,52.3,68.8,52.5,69z"/>
	<path class="st14" d="M36.8,74.8c0.1,0.9,0.5,1.3,1.3,1.1c0.3,0,0.4-0.3,0.4-0.6c0-0.7,0.3-1.2,0.9-1.4c0.4-0.1,0.7-0.3,0.8-0.5
		l0.9-2c0.1-0.3,0-0.6-0.2-0.8c-0.7-0.5-1.2-0.1-1.4,1h-1c0.4-3,1.5-3.5,3.5-1.5c0.2,0.2,0.3,0.6,0.2,0.9c-0.9,3.3-3.7,4.6-4.5,7.3
		c-0.1,0.4-0.3,0.6-0.5,0.8c-0.7,0.5-1.8-0.4-1.1-1.1c0.9-0.5,1-0.9,0.3-1.1c-0.3-0.1-0.7,0-0.8,0.2l-1.3,1.8
		c-0.2,0.2-0.1,0.6,0,0.9c0.9,1.7,0.3,3-1.7,4.1c-0.6,0.3-0.9,0.2-0.8-0.2c0-0.2,0.2-0.5,0.5-0.7l0.9-0.7c0.2-0.2,0.4-0.5,0.4-0.9
		c0-2-0.4-2-1.2,0C32.3,81.7,32,82,31.7,82c-1.7,0,0.9-2.5,1.2-2.7s0.5-0.4,0.6-0.7C34.3,76.9,35.3,75.7,36.8,74.8z"/>
	<path class="st13" d="M43.8,69.1c3.1,1.5-4.6,11.4-6.6,13.8l-5.5,5c-1.2,0.6-5.3,2.8-3.8,3.2l-0.3,0.3c-0.5-0.3-1.1-0.3-1.7-0.2
		c-0.2,0-0.5-0.1-0.5-0.3l0,0c-0.1-1.7,0.2-2.8,2.2-1.8c5.9-3.3,13.9-12.2,16.1-19.2L43.8,69.1z"/>
	<path class="st8" d="M35.8,71.9l0.3-0.5c0.7-1.6,1.2-1.9,1.5-0.9c0.1,0.3,0,0.6-0.1,0.9c-2.6,4.8-6.1,8.7-10.4,11.9
		c-2.1,1.6-2.2-0.2-0.6-1.1c1.1-0.6,2-1.4,2.8-2.3C31.7,77.1,34.2,75.3,35.8,71.9z"/>
	<path class="st8" d="M82.8,70.3l-0.1,0.5c-0.8,0.8-1.6,1-2.5,0.7c-0.3-0.1-0.4-0.4-0.3-0.7l0,0C80.4,69.5,81.3,69.3,82.8,70.3z"/>
	<path class="st29" d="M36.8,74.8c0.9-0.3,1.5-1,1.9-2c1.1,0.1,1.4-0.3,0.8-1.2c0.2-1.2,0.6-1.5,1.4-1c0.3,0.2,0.4,0.5,0.2,0.8
		l-0.9,2c-0.1,0.2-0.4,0.4-0.8,0.5c-0.7,0.2-1,0.7-0.9,1.4c0,0.3-0.2,0.6-0.4,0.6C37.3,76.1,36.8,75.7,36.8,74.8z"/>
	<path class="st14" d="M82.8,70.3c1.5,0.4,0.3,3.9,1.7,5.7c0.1,0.2,0.2,0.4,0,0.6c0,0-0.1,0-0.1,0.1c-0.9-0.1-1.7-2.7-2.8-2.7
		c-1.5-0.1-0.6-1.2,0.3-1.1c1-0.1,1.3-0.8,0.8-1.9L82.8,70.3z"/>
	<path class="st26" d="M36.1,71.3l-0.3,0.5c-1.5,0.7-2.5,1.8-3,3.5c-0.2,0.8-0.9,1.3-1.6,1.4c-1.1,0.2-1.9,0.8-2.2,1.8
		c-0.1,0.4-0.3,0.7-0.5,0.8L26,81.4c-0.3,0.2-0.6,0.2-0.8,0c-0.4,0-0.2-0.7,0.2-0.8c1.4-0.5,2.4-1.4,2.9-2.8l1.3-1.3
		c1.6-0.5,2.7-1.6,3.1-3.3c0.5-2,1.5-2.9,2.8-2.4C35.8,70.9,36,71.1,36.1,71.3z"/>
	<path class="st11" d="M76.5,75.8c0,1.3-0.3,2.4-1,3.5l-0.4-0.2c0.2-1.6-0.2-3.1-1.1-4.5c0.1-1-0.3-1.6-1.3-1.7
		c-1.5,0-0.9-2.3,0.4-1.9C74.8,71.6,74.6,74.4,76.5,75.8z"/>
	<path class="st10" d="M31,71.5c0.6-0.1,1,0.1,1.2,0.6c0.1,0.2,0,0.6-0.2,0.9l-2.4,3.6c-1,0.9-2.1,2.4-3.6,2.3
		c-0.3,0-0.5-0.2-0.5-0.5l0,0l0.2-5.2L31,71.5z"/>
	<path class="st8" d="M38.5,71.5h1c0.6,0.9,0.3,1.3-0.8,1.2h-0.8L38.5,71.5z"/>
	<path class="st2" d="M53.9,73.6c-1.1,5.9-3-3-0.3-0.8C53.8,73,53.9,73.3,53.9,73.6z"/>
	<path class="st14" d="M37.8,72.8h0.8c-0.3,1-1,1.7-1.9,2C36.8,74,37.1,73.3,37.8,72.8z"/>
	<path class="st27" d="M86.3,74.3l-0.5,0.3C84.9,72.2,85.1,72.1,86.3,74.3z"/>
	<path class="st2" d="M39.9,82.8c-0.1-0.2-0.1-0.4,0-0.6c2.4-2.3,4-4.7,5-7.2c0.6-1.6,1.1-1.6,1.6,0.1c1.3,4.6,1.8,9.4,1.5,14.4
		c-0.1,1.4-0.6,1.5-1.5,0.5L39.9,82.8z M44.9,78.7l-2.3,3.6c-0.2,0.3-0.1,0.6,0.1,0.8l3.2,3.4c0.3,0.3,0.4,0.2,0.4-0.2l-0.7-7.5
		C45.5,78.1,45.3,78.1,44.9,78.7z"/>
	<path class="st8" d="M86.3,74.3c0.4,0.3,0.6,0.7,0.4,1.1c-0.1,0.3-0.4,0.5-0.8,0.4c-0.5-0.1-0.6-0.5-0.1-1.2L86.3,74.3z"/>
	<path class="st17" d="M74,74.6c0.9,1.4,1.3,2.9,1.1,4.5l-0.6,1.5l-0.7-1l-0.2-1.8l-0.1-0.2c0-0.6,0-2.2,0-2.8L74,74.6z"/>
	<path class="st2" d="M53.6,76.3c2.7,0.8-1.3,4.8-1,0.7c0-0.4,0.4-0.7,0.8-0.7C53.5,76.2,53.5,76.2,53.6,76.3z"/>
	<path class="st13" d="M100.2,76.1v0.5c-0.1,0.7-0.5,1.1-1,1.2s-0.8,0.2-0.9,0.3C91.1,82.5,85.7,88.7,82,96.4
		c-0.2,0.3-0.2,0.7,0,0.9l1.3,2.4l-0.5,0.6L81,97.5c-0.2-0.3-0.2-0.6-0.1-0.9c1.9-4.8,4.7-9,8.3-12.7l4.2-4.3c1.8-0.7,3.3-1.7,4.8-3
		L100.2,76.1z"/>
	<path class="st27" d="M73.5,76.6v1C71.2,76.8,71.2,76.5,73.5,76.6z"/>
	<path class="st2" d="M85.5,84.5c0.2,0.2,0.2,0.6,0,0.8c-2.3,2.3-4,5.1-5.1,8.4c-0.2,0.6-0.4,0.6-0.7,0c-2-5.5-2.6-11.1-1.9-17
		c0-0.4,0.2-0.5,0.5-0.2L85.5,84.5z M80.6,88.4l2.3-3.6c0.2-0.2,0.1-0.6-0.2-0.8l-3-3.1c-0.2-0.3-0.4-0.2-0.4,0.2
		c-0.1,2.6,0.1,5,0.7,7.2C80.1,88.8,80.3,88.8,80.6,88.4z"/>
	<path class="st28" d="M100.2,76.6l-0.1,1.9c-1,0.1-1.7,0.4-2.1,1.1c-0.2,0.2-0.2,0.6-0.1,0.9c0.6,2.4,1.5,2.6,2.6,0.6h0.7v15.8
		l-1.5,1l-3.8,2c-0.2,0.1-0.3,0.4-0.2,0.7l0,0c2.5,4.2,2.3,4.4-0.7,0.7c-0.2-0.2-0.5-0.3-0.8-0.2l-5.6,3.4l-1.2,0.5l-2.2,1.3
		l-0.8-0.8l-2-2.7l0.5-0.8c5.6-2.1,11.1-4.5,16.5-7.4c1.6-5.7,0.6-7-3-3.8c0.3-1.4,4.7-4.4,2.4-4c-0.3,0.1-0.6,0.2-0.8,0.5
		c-0.9,1.1-2,1.6-3.4,1.7c1.4-1.4,3-2.6,4.7-3.6c1.1-0.7,1.2-2.5-0.5-1.2c-2.4,1.8-4.7,3.7-6.7,5.9L91.6,90v-0.7l5.7-5.3
		c0.9-0.8,0.2-2.2-0.7-2.9c-0.3-0.2-0.5,0.1-0.8,0.9c-1.3,0.1-1.7,0.8-1.2,2l0.5,0.8l-0.8,1c-0.7,0.3-1.1-0.2-1.1-1.5
		c-3,0.8-3.6,2.4-1.7,4.9c-0.9,0.3-1.5,0.8-1.9,1.6c-0.5,1-1.9,0.3-0.8-0.5c0.8-0.3,1-0.7,0.4-1.3c-0.2-0.2-0.6-0.2-0.8,0l0,0l-2,2
		c-0.5,0.5-0.4,0.8,0.4,1c1.9,0.4,2.2,0.9,0.8,1.5c-0.3,0.1-0.6,0.1-0.9-0.1L86,93c-0.3-0.2-0.6-0.1-0.8,0.1c-0.8,0.9-1.4,2-1.6,3.2
		c-0.5,0.5-0.6,1-0.2,1.5c0.3,1.3,1.2,1.8,2.7,1.5v0.2l-3,0.8l-1.1-3c-0.1-0.3-0.1-0.6,0-0.9c3.7-7.7,9.1-13.9,16.3-18.4
		c0.2-0.1,0.5-0.2,0.9-0.3C99.8,77.6,100.1,77.2,100.2,76.6z"/>
	<path class="st14" d="M50.2,76.8l0.8,7l-0.6,5.5L50,88.8l-1-8.2l0.8-3.5L50.2,76.8z"/>
	<path class="st27" d="M91.8,78.6l0.7,0.7c-0.5,0.2-0.9,0.6-1.1,1.1c-0.1,0.2-0.4,0.4-0.6,0.3l0,0l-1.1-0.5L89,80
		c-0.5-1.3-1.4-2.1-2.8-2.4c-0.2-0.1-0.4-0.2-0.3-0.4c0-0.1,0-0.1,0.1-0.1c0.6-0.7,2.9,1.5,3.7,2.4c0.2,0.2,0.5,0.3,0.8,0.2
		C91,79.4,91.5,79,91.8,78.6z"/>
	<path class="st25" d="M73.6,77.8l0.2,1.8c-0.5,1-0.4,1.9,0.2,2.8c-0.6,8.9,1.8,16.9,7.2,23.9c0.3,0.4,1.5,1,1.6,0.1
		c0-0.3-0.1-0.6-0.4-0.9c-5.4-6.2-7.9-13.4-7.3-21.7l0.4-1l0.8,4.3c0,7.1,2.4,13.2,7.2,18.4c0.3,0.3,0.6,0.4,0.8,0.4
		c0.2-0.1,0.3-0.2,0.3-0.5l0.8,0.8l-5.3,3.5h-0.7c-1.5-1.4-3.3-2.4-5.3-3c-3.8-7.8-4.4-16.5-4.1-25.1c0-0.4-0.7-1-1-1.3v-0.5
		C71,80.1,72.5,79.4,73.6,77.8z M70.9,83.5c0,0.5,0.4,0.8,1.1,0.7c0.3,0,0.5-0.3,0.6-0.6c0.2-1.4-0.2-1.7-1.3-0.9
		C71.1,82.9,70.9,83.2,70.9,83.5z M72.2,87.4c0.4-0.3,0.6-0.7,0.5-1.2c0-0.3-0.3-0.5-0.6-0.5c-1.4,0-1.6,0.5-0.7,1.5
		C71.6,87.5,71.9,87.6,72.2,87.4z M72.2,94.9c0.2,0.3,0.9,0.2,0.9-0.2c0.5-1,0.3-1.9-0.4-2.8c-0.2-0.2-0.2-0.5-0.1-0.8
		c0.5-0.8,0.5-1.6-0.1-2.3c-0.2-0.2-0.5-0.3-0.7-0.1l0,0c-1.1,0.8-1.1,1.6-0.1,2.4c0.2,0.2,0.3,0.5,0.1,0.7
		C71.3,93.1,71.4,94,72.2,94.9z M72.8,96c-0.6,1.2-0.5,2.1,0.3,2.7c0.2,0.2,0.6,0.1,0.8-0.1c1.2-1.1,1-2-0.8-2.8
		C73.1,95.8,72.9,95.9,72.8,96z M74.6,99.8c-0.3-0.1-0.6,0-0.7,0.3c0,0.1,0,0.1,0,0.2c-0.1,1.7,0.4,2.5,1.5,2.5
		c0.3,0,0.6-0.2,0.7-0.5C76.4,101.2,75.9,100.4,74.6,99.8z M76.4,103.6c-0.1,0-0.3,0.1-0.3,0.2c-0.5,1.9,0.1,2.9,1.8,3.1
		c0.3,0,0.6-0.2,0.6-0.4C78.9,105,78.1,104.1,76.4,103.6z"/>
	<path class="st25" d="M44.9,78.7c0.4-0.7,0.6-0.6,0.7,0.2l0.7,7.5c0,0.4-0.1,0.5-0.4,0.2l-3.2-3.4c-0.2-0.2-0.2-0.6-0.1-0.8
		L44.9,78.7z"/>
	<path class="st14" d="M100.2,78.5c0.3,0.7,0.4,1.6,0.4,2.6c-1.1,2-2,1.8-2.6-0.6c-0.1-0.3-0.1-0.7,0.1-0.9
		C98.4,78.9,99.1,78.5,100.2,78.5z"/>
	<path class="st9" d="M75.1,79.1l0.4,0.2v3.5l-0.4,1L74.5,82v-1.5L75.1,79.1z"/>
	<path class="st26" d="M73.8,79.6l0.7,1v1.5c-0.4-0.7-0.5-0.6-0.5,0.2C73.4,81.4,73.4,80.5,73.8,79.6z"/>
	<path class="st2" d="M53,81.1c-0.1-2.3,3-1.2,1.2,0.8C53.5,82.7,53.1,82.4,53,81.1z"/>
	<path class="st6" d="M64.2,81.6l-0.7,0.8c-1.4,0.2-1.9-0.4-1.6-1.8c0.1-0.3,0.3-0.6,0.6-0.7C63.8,79.4,64.4,80,64.2,81.6z"/>
	<path class="st27" d="M69,79.8v0.5c-0.5,0.3,0,9.7-0.3,11.5c-1,1-1.3,2.3-1,3.8c0-0.9-0.2-1.8-0.7-2.5v-0.3L66.2,85
		c1.1-0.9,1.1-1.8-0.2-2.7C67.9,81.8,67.1,80,69,79.8z"/>
	<path class="st9" d="M89,80l0.8,0.1c0.3,1,0,1.6-0.7,1.7c-0.3,0-0.6-0.2-0.7-0.4C88.2,80.8,88.4,80.4,89,80z"/>
	<path class="st21" d="M69,80.3l0.5,0.4c0.3,0.2,0.4,0.5,0.4,0.7c-0.3,8.7,0.2,17.3,4.1,25.1l-0.5,0.1c-2-1.3-2.6-4.9-3.5-7l-1.2-7
		l-0.1-0.8C69,90,68.5,80.5,69,80.3z"/>
	<path class="st25" d="M80.6,88.4c-0.3,0.4-0.5,0.4-0.6-0.2c-0.6-2.2-0.8-4.6-0.7-7.2c0-0.4,0.2-0.4,0.4-0.2l3,3.1
		c0.3,0.3,0.3,0.6,0.2,0.8L80.6,88.4z"/>
	<path class="st7" d="M96.8,80.7c0.2,1.6-0.3,2.8-1.6,3.6l-0.5-0.8c0.9-0.3,1.3-0.9,1.2-2C96.3,80.9,96.6,80.6,96.8,80.7z"/>
	<path class="st8" d="M96.8,80.7c0.9,0.8,1.6,2,0.7,2.9l-5.7,5.3l-0.1-0.2c-1.8-2.5-1.3-4.1,1.7-4.9c-0.3,0.8-0.8,1.4-1.3,1.7
		c-0.3,0.2-0.4,0.5-0.4,0.7c0.3,1.3,0.6,1.3,1.1-0.1c0.1-0.3,0.3-0.4,0.6-0.5c0.4,0,0.7-0.2,1-0.5l0.8-1
		C96.5,83.6,97.1,82.4,96.8,80.7z"/>
	<path class="st31" d="M64.2,81.6c-0.1,0.6,0.2,0.9,0.8,0.8l-0.8,1.2l-0.7-1.2L64.2,81.6z"/>
	<path class="st2" d="M74.5,82.1l0.6,1.8c-0.5,8.3,1.9,15.5,7.3,21.7c0.3,0.3,0.4,0.6,0.4,0.9c-0.1,0.9-1.2,0.3-1.6-0.1
		c-5.4-7-7.8-15-7.2-23.9C73.9,81.5,74.1,81.4,74.5,82.1z"/>
	<path class="st8" d="M96,81.6c0.1,1-0.3,1.7-1.2,2C94.3,82.4,94.7,81.7,96,81.6z"/>
	<path class="st9" d="M30.5,83.6L28,84.9c-0.2-0.1-0.3-0.2-0.4-0.3c-0.1-0.2,0-0.5,0.2-0.8c0.6-0.7,1.4-1.1,2.4-1.3
		c0.3,0,0.4,0.2,0.4,0.4L30.5,83.6z"/>
	<path class="st6" d="M65,82.4l1-0.1c1.3,0.9,1.3,1.8,0.2,2.7c-1.4,0.3-2.1-0.2-2-1.4L65,82.4z"/>
	<path class="st2" d="M71.3,82.7c1.1-0.8,1.5-0.5,1.3,0.9c-0.1,0.3-0.3,0.5-0.6,0.6C70.8,84.5,70.6,83.3,71.3,82.7z"/>
	<path class="st6" d="M58.8,85.1c-0.4-0.9-0.3-1.7,0.3-2.2c1.8-0.6,2.6-0.2,2.4,1.2c0,0.3-0.2,0.6-0.5,0.8
		C60.4,85.1,59.6,85.2,58.8,85.1z"/>
	<path class="st5" d="M37.2,82.8l0.6,1.1c3,4.6,6,8.1,9,10.7c0.7,0.7,1.1,1.3,1,1.9L47,97.3l-0.5,1.3l-0.5,1l-1.8,2.1l-0.5-0.5
		c-3.3-4.8-7.1-9.1-11.3-13L31.6,88L37.2,82.8z M34.3,88c1.3-0.6,1.8,0.7,2.8,1.3c0.3,0.2,0.6,0.2,0.9,0.1c0.4-0.2,0.6-0.5,0.5-0.9
		c0-0.2-0.2-0.3-0.4-0.2c0,0-0.1,0-0.1,0.1c-0.7,0.6-1.2,0.4-1.5-0.5c-0.1-0.3,0-0.6,0.3-0.8c1-0.7,1-1.1-0.1-1.2
		c-0.2,0-0.5,0.1-0.7,0.4l-0.4,0.5c-0.6,0.3-1.9-0.1-1.8,1C33.8,88.1,34.1,88.2,34.3,88z M44.5,97.3c1.3,0.1,1.6-1.1,0.6-1.5
		c-0.5-0.1-0.9,0.2-1.1,0.7c-1.2,0-1.6-0.6-1.2-1.7c0.1-0.4,0.4-0.6,0.7-0.5c0.3,0.1,1,0.5,1.2,0l0,0c0.1-0.7-0.2-1-1-0.9
		c-0.3,0-0.5-0.1-0.7-0.3L40.4,90c-0.2-0.2-0.4-0.3-0.7-0.2c-1.2,0.1-1.1,0.4,0.3,0.8c0.3,0.1,0.6,0.3,0.8,0.5
		C42.1,93.1,41.4,98.4,44.5,97.3z M39.5,93.6c0.8,0,0.8-2-0.1-1.8C38.6,91.8,38.6,93.6,39.5,93.6z M43.8,99.1
		c-0.1,0.8,0.8,0.8,1,0.2c0-0.4-0.1-0.7-0.4-0.7C44.1,98.6,43.8,98.7,43.8,99.1L43.8,99.1z"/>
	<path class="st2" d="M53.2,83.6c0.6-0.9,1.8-0.2,1.3,0.7c-0.6,1.5-1.1,1.5-1.5,0.2C53,84.2,53,83.8,53.2,83.6z"/>
	<path class="st7" d="M30.5,83.6l0.2,1L28,85.8v-1L30.5,83.6z"/>
	<path class="st9" d="M94.8,88.8c-2.5,2.5-4.4,5.3-6,8.4c-0.3,0.6-0.9,0.8-1.2,0.3c-0.1-0.3-0.1-0.6,0.1-0.9l4.5-6.8
		c2.1-2.2,4.3-4.2,6.7-5.9c1.7-1.2,1.6,0.6,0.5,1.2C97.8,86.2,96.2,87.4,94.8,88.8z"/>
	<path class="st9" d="M37.8,83.9c3.7,3.8,7.3,7.6,10.8,11.4c0.9,1,1.7,2.2,2.1,3.5c0.1,0.3,0.4,0.6,0.6,0.7c1.2,0.6,1.6-1,0.8-1.7
		c-2-1.4-3.1-3.4-3-6.1c1.1,1.1,1.9,2.4,2.4,3.8c0.1,0.3,0.3,0.6,0.5,0.8c0.9,0.5,1.4,0.2,1.7-0.8c0.1-0.3-0.1-0.5-0.4-0.6
		c-0.8-0.3-1.4-0.8-1.8-1.6l0.5-0.5c0.8,0.8,1.7,0.7,2.6-0.3c0.3,3.4-0.6,6.5-2.7,9.3l-1.2,1.5l-0.1-0.5c0.6-1.8,0-2.6-2-2.3L49,100
		c1.8-0.4-0.8-3.2-1.2-3.5c0.1-0.6-0.3-1.3-1-1.9C43.8,92,40.8,88.4,37.8,83.9z"/>
	<path class="st12" d="M51.1,83.8l0.7,0.1l0.5,3.9c-0.6,0.7-0.7,1.5-0.2,2.3v2.8l-0.5,0.5c-0.6-1.2-1-2.6-1.1-4L51.1,83.8z"/>
	<path class="st7" d="M93.5,83.9c0,1.2,0.3,1.7,1.1,1.5c-0.3,0.3-0.6,0.4-1,0.5c-0.3,0-0.6,0.2-0.6,0.5c-0.4,1.3-0.8,1.3-1.1,0.1
		c-0.1-0.3,0.1-0.5,0.4-0.7C92.7,85.3,93.1,84.7,93.5,83.9z"/>
	<path class="st14" d="M30.7,84.6c0.1,2.2-3.5,2.9-2.7,1.2L30.7,84.6z"/>
	<path class="st6" d="M62.2,85.2l1.2-0.1c0.4,0,0.7,0.2,0.7,0.6l0.2,1.4c0,0.4-0.2,0.7-0.6,0.7l-1.2,0.1c-0.4,0-0.7-0.2-0.7-0.6
		l-0.2-1.4C61.6,85.5,61.9,85.2,62.2,85.2z"/>
	<path class="st27" d="M27.6,89c-1.5-0.8-2.2-0.4-2.2,1.1l-0.2,1.8l-0.9,1v-7C26.6,85.1,27.8,86.2,27.6,89z"/>
	<path class="st2" d="M71.3,87.3c-0.9-1-0.7-1.5,0.7-1.5c0.3,0,0.6,0.2,0.6,0.5c0.1,0.5-0.1,0.9-0.5,1.2
		C71.9,87.6,71.6,87.5,71.3,87.3z"/>
	<path class="st14" d="M37.1,89.4c-1-0.6-1.4-1.9-2.8-1.3c-0.2,0.1-0.4,0-0.5-0.1c0-0.6,0.3-1,0.8-0.9c0.4,0,0.7-0.1,0.9-0.2
		l0.4-0.5c0.2-0.3,0.5-0.4,0.7-0.4c1.1,0.1,1.2,0.5,0.1,1.2c-0.3,0.2-0.4,0.5-0.3,0.8c0.3,0.9,0.8,1.1,1.5,0.5
		c0.2-0.1,0.4-0.1,0.5,0c0,0,0,0.1,0.1,0.1c0.1,0.4-0.1,0.8-0.5,0.9C37.7,89.6,37.4,89.6,37.1,89.4z"/>
	<path class="st12" d="M96.5,90.6c-0.8-0.3-1.4-0.9-1.8-1.8c1.4-0.1,2.5-0.6,3.4-1.7c0.2-0.3,0.5-0.5,0.8-0.5
		C101.2,86.1,96.8,89.1,96.5,90.6z"/>
	<path class="st16" d="M76.2,87.1c1,6.8,4,12.9,8.3,18.2c0,0.3-0.1,0.5-0.3,0.5c-0.2,0.1-0.5-0.1-0.8-0.4
		C78.7,100.3,76.3,94.2,76.2,87.1z"/>
	<path class="st29" d="M31.8,87.8l0.8,0.2c-0.5,0-0.6,0.3-0.2,0.7c3.6,4.2,7.2,8.5,10.8,12.7c0.1,0.2,0.4,0.2,0.5,0.1
		c0.1-0.1,0.2-0.3,0.2-0.5l0.5,0.5c-0.1,1-0.6,1.8-1.5,2.2c0-0.5,0.1-1.4-0.3-1.7L31.8,89.5c-0.2-0.2-0.5-0.3-0.8-0.2
		c-1,0.4-1.4,1.1-1.2,2.2c0,0.3,0.2,0.6,0.4,0.8c1.5,1.5,2.7,3.1,3.6,4.9L28,91C26.5,90.5,30.6,88.4,31.8,87.8z"/>
	<path class="st9" d="M32.5,88c4.2,3.9,8,8.3,11.3,13c0,0.4-0.2,0.6-0.6,0.5c0,0-0.1,0-0.1-0.1c-3.6-4.2-7.2-8.5-10.8-12.7
		C32,88.3,32,88.1,32.5,88z"/>
	<path class="st14" d="M91.7,88.8l0.1,0.2v0.7c-2.6,2.5-4.5,5.5-5.5,9c-1.4,0.3-2.3-0.2-2.7-1.5c2.5,0.7,3.2-2.3,2-3.1
		c-0.2-0.1-0.4,0-0.5,0.2v0.1c-0.1,0.7-0.6,1.1-1.2,1.2c0.3-1.2,0.8-2.2,1.6-3.2c0.2-0.2,0.5-0.3,0.8-0.1l0.7,0.4
		c0.3,0.2,0.6,0.2,0.9,0.1c1.4-0.6,1.2-1.1-0.8-1.5c-0.8-0.1-0.9-0.5-0.4-1l2-2c0.2-0.2,0.6-0.2,0.8,0l0,0c0.5,0.5,0.4,1-0.4,1.3
		c-0.3,0.1-0.5,0.4-0.4,0.7c0.2,0.5,0.9,0.3,1.2-0.2C90.2,89.6,90.8,89.1,91.7,88.8z"/>
	<path class="st2" d="M72.2,94.9c-0.8-0.9-0.9-1.8-0.3-2.9c0.1-0.2,0.1-0.5-0.1-0.7c-1-0.8-0.9-1.6,0.1-2.4c0.2-0.2,0.6-0.1,0.7,0.1
		l0,0c0.5,0.7,0.5,1.5,0.1,2.3c-0.1,0.2-0.1,0.6,0.1,0.8c0.8,0.9,0.9,1.8,0.4,2.8C73,95,72.7,95.1,72.4,95
		C72.3,95,72.3,94.9,72.2,94.9z"/>
	<path class="st11" d="M50.1,88.8l0.4,0.5c0.2,2.1,0.7,4.7,2.9,5.6c0.3,0.1,0.4,0.4,0.4,0.6c-0.3,1.4-1.9,1.3-2.2,0
		c-0.4-1.5-1.2-2.7-2.4-3.8C49,90.7,49.4,89.7,50.1,88.8z"/>
	<path class="st25" d="M94.8,88.8c0.3,0.8,0.9,1.4,1.8,1.8c-0.8,1.6-2,2.9-3.5,4c-0.1-1.4,0.5-2.4,1.8-3c0.5-0.2,0.5-0.6,0.2-0.9
		c-0.2-0.2-0.6-0.1-0.9,0.1c-1.1,0.7-1.8,1.8-2.2,3c-0.1,0.3-0.3,0.6-0.5,0.8c-2.4,2.2-2.1,2.5,0.8,0.9l0.8,1L86.3,99v-0.2
		c1.1-3.5,2.9-6.5,5.5-9l0.5,0.1l-4.5,6.8c-0.2,0.3-0.3,0.7-0.1,0.9c0.4,0.6,0.9,0.2,1.2-0.3C90.3,94.1,92.3,91.3,94.8,88.8z"/>
	<path class="st10" d="M99.5,94.4L93,96.6l-0.8-1l0.8-1c1.5-1.1,2.6-2.4,3.5-4C100.1,87.4,101.2,88.7,99.5,94.4z"/>
	<path class="st10" d="M42.8,103.8l-0.8,1l-1.7,0.2l-1.1-1.2c-1.1-2.8-2.9-4.9-5.5-6.5c-0.9-1.8-2.1-3.5-3.6-4.9
		c-0.3-0.3-0.4-0.5-0.4-0.8c-0.2-1.2,0.9-2.8,2-2l10.7,12.7c0.2,0.2,0.3,0.5,0.3,0.9L42.8,103.8z"/>
	<path class="st27" d="M44,96.6l0.5,0.7c-3.1,1.2-2.4-4.1-3.8-6.1c-0.2-0.2-0.5-0.4-0.8-0.5c-1.4-0.4-1.5-0.6-0.3-0.8
		c0.3,0,0.6,0,0.7,0.2l2.6,3.1c0.2,0.2,0.5,0.4,0.7,0.3c0.8-0.1,1.1,0.2,1,0.9c0,0.2-0.3,0.3-0.5,0.2l0,0c-0.5-0.2-1.1-0.5-1.3,0.3
		C42.4,96,42.8,96.6,44,96.6z"/>
	<path class="st27" d="M53.7,90.8C53,91,52.6,90.7,52.5,90C53.4,89.5,53.8,89.8,53.7,90.8z"/>
	<path class="st5" d="M25.5,90.1v0.7c0,0.2,0.3,0.4,0.6,0.4c0.6-0.1,1.1-0.1,1.7,0.2c0,1.3,9.7,12.1,11.2,14c0.4,0.6,1.4,1,1.4-0.2
		l1.7-0.2l-4,4c-0.3,0.3-0.4,0.6-0.4,0.8c0.5,1.8,5.3-3.7,5.9-4.6c-0.2,1.3-0.7,2.3-1.7,3l-1.3,1.5l-0.2,1l-4.1,0.2
		c-0.2,0-0.6-0.1-0.9-0.4l-3.1-2.5c-0.4-1.1-1.1-1.5-2.2-1.2c-0.7-1.8-1.8-3.2-3.5-4.4C25.1,98.5,24.9,94.2,25.5,90.1z"/>
	<path class="st29" d="M52.1,90.1h0.4c0.1,0.7,0.5,0.9,1.2,0.8c0.5,0.5,0.8,1,0.9,1.7c-0.9,1-1.8,1.1-2.6,0.3L52.1,90.1L52.1,90.1z"
		/>
	<path class="st26" d="M93.1,94.6l-0.8,1c-2.9,1.5-3.2,1.2-0.8-0.9c0.2-0.2,0.4-0.5,0.5-0.8c0.3-1.3,1.1-2.3,2.2-3
		c0.3-0.2,0.7-0.2,0.9-0.1c0.3,0.2,0.3,0.8-0.2,0.9C93.6,92.2,93,93.2,93.1,94.6z"/>
	<path class="st17" d="M28,91l5.8,6.3l5.5,6.5l1.1,1.2c0,1.3-1,0.8-1.4,0.2c-1.5-1.9-11.2-12.7-11.2-14L28,91z"/>
	<path class="st28" d="M25.2,91.8c-0.3,3.5,0.1,7,1.3,10.3c-0.8-1.2-1.2-0.1-1.2,0.6c-0.1,11.4-0.2,22.6-0.1,33.8
		c0,0.7,0.3,0.8,0.9,0.5c2.6-1.8,3.9-4,3.9-6.6c1.5,3.9-2.8,6.3-5,8.9c-0.2,0.2-0.2,0.4-0.2,0.5c0.4,0.3,0.8,0,1.2-0.4
		c1.7-2.1,3.6-3.9,5.7-5.6c-1.3,1.7-6.6,6.8-6.5,8.4c0,0.3,0.3,0.5,0.6,0.5l11.5-0.1c0.3,0,0.6-0.2,0.7-0.5c1.9-3.4,7.5-11,7.2-14.4
		c2.3,0.2,4.6-0.1,6.8-0.8l1-0.5c0.6,0,2.1,0,2.7,0c0.1,0.7,0.4,0.9,1,0.7h1.5c0.2,0.4,0.4,0.6,0.8,0.7c0.3,0.1,0.6-0.1,0.8-0.4
		c0.6-0.8,0.9-1.8,1-2.8l0.4-0.5l0.3,1.8l-0.7,1.7c-0.1,0.3-0.1,0.6,0.2,0.7c0.9,0.5,1.1,0,0.8-1.5l1.5,2.3c-2,0.4-3.5,1.3-4.8,2.7
		l-2.5-0.5c-0.9-0.9-5-0.7-6.8-1.4c1-0.1,7.7-1.1,7.8-2.2c0-0.2-0.3-0.4-0.5-0.4c-3,1.1-6.1,1.5-9.3,1.4c-0.3,0-0.7,0.1-0.9,0.3
		c-0.8,0.8-0.2,1.1,1.7,0.8c1.4,1.1,2,2.6,1.9,4.5c0,0.4,0.1,0.5,0.4,0.3c0.6-0.4,0.8-1,0.6-1.8c-0.1-0.3,0-0.6,0.2-0.8
		c0.6-0.5,1-0.5,1.3,0.1v3c0,0.2-0.3,0.5-0.6,0.6c-0.6,0.1-1,0.5-1,1.2c0,0.3-0.2,0.6-0.4,0.7c-1.6,0.6-2.5-2.7-2.4-3.8
		c0-0.3,0.2-0.6,0.4-0.8c2-2.2-4.5-2.5-1.8,0.6c0.1,0.2,0.1,0.4,0,0.5c0,0-0.1,0-0.1,0.1c-3.1,1.5-5.3,3.9-6.8,7
		c-0.1,0.3,0,0.6,0.2,0.7c0.1,0,37.5-0.1,37.7-0.1c1.1,0,1.2-0.3,0.3-1l-3.5-2.6c-0.2-0.2-0.4-0.5-0.3-0.8l0.1-1.4
		c0-0.3-0.2-0.5-0.5-0.6c-2.5-0.4-3,0.1-1.6,1.4c0.3,0.3,0.4,0.6,0.3,0.8c-0.1,0.4-0.3,0.7-0.7,0.9c-0.3,0.2-0.5,0.4-0.6,0.7
		c-1,2.2-1.9,2.2-2.8,0c-0.2-0.6-1-0.8-1.2-1.4c-0.1-0.2-0.1-0.6,0.1-0.8c1-1.3,0.6-2-1.1-2.2c-0.7,0-1.1,0.4-1.2,0.9
		c0,0.2,0.1,0.5,0.4,0.8c0.7,0.9,0.5,1.6-0.7,2.1c-0.3,0.1-0.5,0.3-0.5,0.6c-0.2,0.7-1.2,1.7-1.8,0.9l-1.6-2.9
		c-0.1-0.2-0.1-0.5,0.1-0.8l1.3-1.4l0.7-0.2l0.6,1c-0.6,0.6-0.7,1.1-0.4,1.6c0.1,0.2,0.4,0.3,0.6,0.1c0,0,0.1,0,0.1-0.1
		c0.5-0.6,0.6-1.3,0.3-2.2c0.1-0.4,0.3-0.7,0.6-1c0.2-0.2,0.2-0.4,0-0.5l-2.4-0.8c3.4-1.4,6.9-2,10.4-1.7c0.5,0,2-0.5,0.6-1.2
		c0.3-1.2,0.2-2.4-0.3-3.6c-0.1-0.3-0.1-0.7-0.1-0.9c0.3-1.2,3-6,1.3-6.4c-0.2,0-0.5,0.1-0.8,0.3c-0.5,0.4-1.1,0.3-1.9-0.2v-0.4
		c1.2-0.2,1.6-0.7,1.4-1.5c0-0.2-0.2-0.3-0.5-0.2c0,0-0.1,0-0.1,0.1c-1.5,0.9-2.9,0.9-4.2-0.2c-0.3-0.2-0.6-0.3-0.8-0.2
		c-1.2,0.6,1.4,1.5,0.2,2.2c-0.3,0.1-0.6,0.1-0.8-0.2c-1.6-1.6-1.1-2.5,1.4-2.8c1,0.6,2.1,0.8,3.2,0.5l2-0.5c-0.1,1,0.7,2.2,2.3,3.4
		c0.3,0.2,0.4,0.6,0.2,0.9c-1.3,2.2-2.4,4.3-1.9,7c0.9,5.4,3,10.3,6.3,14.7c0.2,0.3,0.5,0.4,0.8,0.4h12.9c0.3,0,0.6,0.2,0.6,0.5l0,0
		c0,0.4-0.3,0.6-0.8,0.6c-22-0.5-44.5-0.5-67.5-0.1c-0.8,0-1.4-0.6-1.4-1.4l0,0V92.4L25.2,91.8z M67.5,133.7c0.9,1,1.4,1.8,1.5,2.4
		c-0.3,1.6-0.2,2.2,0.5,2c0.2-0.1,0.3-0.4,0.2-0.7l-0.3-1.3c0.8-0.4,0.9-0.8,0.2-1.3c0.7-1,1.7-1.2,2.8-0.9c0.3,0.1,0.7,0.1,0.8-0.1
		c0.1-0.2,0.2-0.3,0.1-0.5s-0.4-0.4-0.8-0.5C70.8,132.6,69.1,132.9,67.5,133.7z"/>
	<path class="st8" d="M39.3,91.8c0.8-0.1,0.9,1.7,0.2,1.8C38.7,93.7,38.5,91.9,39.3,91.8z"/>
	<path class="st9" d="M68.7,91.8l0.1,0.8c-0.2,2.6,0.1,5.1,0.9,7.5l2,6.5l-0.7,0.2c-0.5-2.2-1.9,0.6-2.2,1.2l-0.5-0.3l1.3-3
		c0.1-0.3,0.1-0.6,0-0.9c-1.1-2.7-1.7-5.4-1.8-8.3C67.4,94.1,67.8,92.8,68.7,91.8z"/>
	<path class="st30" d="M68.8,92.6l1.2,7l-0.3,0.5C68.9,97.6,68.6,95.1,68.8,92.6z"/>
	<path class="st10" d="M67,92.8l0.1,0.2c0.5,2.4-0.1,4-1.9,4.7c-3.5,1.5-6.3,3.5-8.9,6.4c-0.2,0.2-0.5,0.4-0.8,0.4
		c-0.8-0.1-2.9,0.2-3.3-0.3c-0.3-0.4-0.3-0.9,0-1.4c2.1-2.8,3.2-6,3.5-9.4c0-0.3,0.3-0.6,0.6-0.6L67,92.8z"/>
	<path class="st11" d="M67.1,93.1c0.4,0.7,0.7,1.6,0.7,2.5c0.2,2.9,0.8,5.6,1.8,8.3c0.1,0.3,0.1,0.6,0,0.9l-1.3,3
		c-0.1,0.6,0.1,1.2,0.5,1.8c-0.5,0.5-0.9,0.4-1-0.2c-0.1-0.4-0.2-0.6-0.4-0.8c-1.7-1.2-1.7-0.4-0.8,0.6c0.8,0.9,1.5,1.8,2.2,2.8
		c0.1,0.1,0,0.2,0,0.3c-0.1,0.2-0.4,0.3-0.6,0l-3-3.1c-1.9-0.1-2.4,0.5-1.5,1.8l-0.3,1.2h-0.5c-0.8-1.1-1.9-1.6-3.2-1.6v-1
		c2.1-2.7,4.9-5,8.1-6.2c1.2-0.4,1.3-1.1,0.2-2l-1.7-1.7c-0.5-0.5,0.4-0.8,0.3-1.3c0-0.2-0.2-0.4-0.4-0.3c-0.1,0-0.1,0-0.2,0
		c-3.7,1.3-6.7,3.5-9.1,6.6c-0.2,0.3-0.5,0.4-0.8,0.4l-6.2-0.1c-0.3,0-0.6,0.1-0.9,0.2c-0.9,0.6-1.4,0.2-1.4-1.3l0.8-0.5
		c1,1,1.9,0.9,2.5-0.2l1.2-1.5l0.2,1c-0.3,0.5-0.3,1,0,1.4c0.4,0.5,2.5,0.2,3.3,0.3c0.3,0,0.6-0.1,0.8-0.4c2.6-2.8,5.4-4.9,8.9-6.4
		C66.9,97.1,67.6,95.5,67.1,93.1z M66.7,106.1l-1.2-0.7c-0.3-0.2-0.6-0.1-0.8,0l-3.6,3.5c-0.3,0.3-0.4,0.6-0.3,0.9
		c0,0.7,0.9,1,1.3,0.5l2-1.9c0.2-0.2,0.5-0.3,0.9-0.3c1,0,1.7-0.5,2.1-1.5c0.7-0.5,1.1-1.2,1.3-1.9c0-0.2-0.1-0.4-0.3-0.5
		C67.1,104.2,66.7,104.9,66.7,106.1z"/>
	<path class="st29" d="M83.6,97.3c-0.4-0.6-0.3-1.1,0.2-1.5c0.7-0.1,1.1-0.5,1.2-1.2c0-0.2,0.3-0.4,0.5-0.4C86.7,95,86,98,83.6,97.3
		z"/>
	<path class="st20" d="M99.5,94.4c-5.4,2.9-10.9,5.4-16.5,7.4c-0.6-0.3-0.6-0.8-0.2-1.4l0.5-0.6l3-0.8
		C89.6,97.8,96.2,95.5,99.5,94.4z"/>
	<path class="st9" d="M44.5,97.3L44,96.6c0.3-0.6,0.6-0.8,1.1-0.7C46.1,96.2,45.8,97.4,44.5,97.3z"/>
	<path class="st2" d="M72.8,96c0.1-0.1,0.2-0.2,0.4-0.1c1.7,0.8,2,1.7,0.8,2.8c-0.2,0.2-0.6,0.2-0.8,0.1
		C72.3,98.1,72.2,97.2,72.8,96z"/>
	<path class="st19" d="M47.8,96.5c0.5,0.3,3,3.1,1.2,3.5l-1-1.5c-0.1-0.7-0.4-1.1-1-1.3L47.8,96.5z"/>
	<path class="st24" d="M101.2,96.8v2.4c0,0.4-0.2,0.7-0.4,0.8c-0.3,0.1-0.5,0-0.6-0.3c-0.1-0.2-0.1-0.5,0.1-0.9
		c0.1-0.4,0-0.8-0.5-1.1L101.2,96.8z"/>
	<path class="st15" d="M33.8,97.3c2.5,1.6,4.4,3.7,5.5,6.5L33.8,97.3z"/>
	<path class="st9" d="M47,97.3c0.6,0.2,1,0.6,1,1.3l-0.5,0.5l-1-0.5L47,97.3z"/>
	<path class="st9" d="M67.8,101.6c-0.7,0.8-1.5,1.3-2.5,1.5c-1.9,0.2-3.2,1.2-4,3l-2.5,1.5l-0.8-0.2c0-0.6-0.3-1-0.7-1.1
		c-0.3-0.1-0.6,0-0.9,0.3c-0.7,0.7-0.6,1.3,0.3,1.9l-0.2,0.7l-2.5-0.5c2.4-2-2.6-3.7-1.2-0.2c-0.6,0.7-1.3,0.8-2,0.2
		c0.6-0.9,0.5-1.7-0.2-2.2c-0.3-0.2-0.6-0.2-0.9,0c-0.8,0.5-0.8,1.2-0.1,1.9c-0.4,0.7-1.1,0.9-1.9,0.6c-0.4-0.1-0.6-0.4-0.5-0.7
		l0.2-0.7c0.1-0.3,0-0.6-0.2-0.7c-1.7-0.9-1.6-1.9,0.4-2.8c0,1.5,0.5,2,1.4,1.3c0.2-0.2,0.6-0.3,0.9-0.2l6.2,0.1
		c0.3,0,0.6-0.1,0.8-0.4c2.4-3.1,5.4-5.3,9.1-6.6c0.2-0.1,0.4,0,0.5,0.2c0,0.3-0.1,0.6-0.3,0.8c-0.2,0.2-0.2,0.5,0,0.6L67.8,101.6z
		 M65.1,100.1c-2.6-0.9-1.2,3.2,0.4,1.4c0.3-0.4,0.3-0.9-0.1-1.2C65.3,100.2,65.2,100.1,65.1,100.1z M62.3,103.5
		c1.1-0.7,0-2.5-1.1-1.8C60.1,102.4,61.2,104.2,62.3,103.5z M59.5,103.6c-0.3-0.1-0.5,0-0.6,0.3c0,0,0,0,0,0.1
		C58,107.7,62.9,104.8,59.5,103.6z"/>
	<path class="st8" d="M44.3,98.6c0.3,0.1,0.5,0.3,0.4,0.6c0,0.3-0.3,0.5-0.6,0.5C43.4,99.5,43.7,98.6,44.3,98.6z"/>
	<path class="st29" d="M46.6,98.6l1,0.5l1.2,1.4c1.9-0.3,2.6,0.5,2,2.3l-2.7-1.2l-1.1-1c0-0.7-0.3-1-1-1L46.6,98.6z"/>
	<path class="st12" d="M48.1,98.6l1,1.5l-0.2,0.5l-1.2-1.4L48.1,98.6z"/>
	<path class="st8" d="M46,99.5c0.7,0,1,0.3,1,1l-0.2,0.2l-1,1.2c-0.9,0.2-1.2,0.8-1,1.7l-1.3,1.3c-0.6,0.9-5.4,6.4-5.9,4.6
		c-0.1-0.2,0.1-0.5,0.4-0.8l4-4l0.8-1c0.9-0.4,1.4-1.2,1.5-2.2L46,99.5z"/>
	<path class="st19" d="M70.1,99.6c0.9,2.2,1.4,5.7,3.5,7c1.4,1.7,3.8,1.9,4.7,3.6c0.2,0.3,0.1,0.5-0.3,0.4c-1.5-0.3-2.9-0.9-4.2-1.8
		c0.1-0.8-0.2-1.1-1-1l-1-1.2l-2-6.5L70.1,99.6z"/>
	<path class="st2" d="M74.6,99.8c1.3,0.6,1.8,1.4,1.5,2.5c-0.1,0.3-0.4,0.5-0.7,0.5c-1.1,0-1.6-0.8-1.5-2.5
		C73.9,100,74.2,99.8,74.6,99.8C74.4,99.7,74.5,99.7,74.6,99.8z"/>
	<path class="st5" d="M65.1,100.1c0.5,0.2,0.7,0.7,0.5,1.1c0,0.1-0.1,0.2-0.2,0.3C63.8,103.3,62.5,99.2,65.1,100.1z"/>
	<path class="st12" d="M47,100.6l1.1,1l-0.5,0.3c-0.6-0.1-0.9-0.4-0.8-1L47,100.6z"/>
	<path class="st24" d="M46.7,100.8c-0.1,0.6,0.2,1,0.8,1l0.8,1.7l-0.8,0.5c-2,0.9-2.1,1.8-0.4,2.8c0.2,0.1,0.3,0.4,0.2,0.7l-0.2,0.7
		c-0.1,0.3,0.1,0.6,0.5,0.7c0.9,0.3,1.5,0.1,1.9-0.6l1.2,0.2c0.8,0.6,1.5,0.5,2-0.2l1.2,0.2l2.5,0.5h2l1,0.8v1
		c-0.3-0.1-0.6,0-0.8,0.2c-0.1,0.2-0.1,0.6,0.2,0.6l2.4,0.9c0.4,0.1,0.6,0.4,0.7,0.6c0.2,0.8-0.4,0.9-1,0.5
		c-1.2-0.8-1.9-0.6-2.2,0.8c0,0.2,0.1,0.3,0.3,0.4h0.1l1.5-0.1c0.6-0.1,0.9-0.1,0.9-0.1c0.7-0.5,1.1-1.1,1.1-2h0.5
		c0.2,2.2-1,3.7-3.2,3.3c-2.5-0.5-0.8,1.1-0.6,1.8c0.6,2.3,1.2,4.6,1.8,6.9l-0.4,0.5c0.2-1.1-0.4-1.4-0.9-0.5l-1.6,3h-1.5
		c0.6-0.8,4.1-6.5,2.8-7.1c-0.2-0.1-0.5,0.1-0.7,0.4l-3.2,6h-1c0,0,5.9-11.8,3-9.3l-4.7,9.3l-1,0.5c-2.3-0.7-4.5-0.7-6.6,0.2
		c-0.3,0.2-0.3,0.3-0.3,0.5c-0.5-3.3-1.6-7.3-3.2-12.1c-0.4-1.2-0.3-2.6,0.2-4.2c0.6,0,0.7,0.6,0.6,1.2c-0.3,1.2-0.3,2.4,0.1,3.6
		c0.1,0.3,0.3,0.3,0.4,0c1-1.7,1-3.4-0.1-4.9c-0.1-0.2-0.1-0.5,0.1-0.6c0,0,0,0,0.1,0c1.5-0.6,1.8,0.7,1.6,1.9
		c-0.5,2.4-0.9,4.8-1.3,7.2l1.8,4.8c-0.1,0.7,0,1.1,0.3,1.3c0.2,0.1,0.4,0,0.6-0.2V126c1.4-3.7,3.1-7.2,5.1-10.6
		c1.4-2.3,1-3.7-1.2-4.2c-0.8-0.2,0.5,2.9,0.2,3.7c-0.5,1.1-2.1,4.2-4.8,9.2c0.5-3.5,1.7-6.8,3.6-9.8c0.2-0.3,0.3-0.6,0.2-0.9
		c-0.1-0.6-0.5-1.1-1.1-1.4c-0.3-0.1-0.5-0.4-0.4-0.7c0-1.2-0.3-1.3-1-0.3c-0.2,0.2-0.1,0.5,0.1,0.7c0.5,0.4,0.8,0.9,1,1.6
		c0.1,0.3,0,0.6-0.1,0.9c-0.4,0.7-2.9,6.8-3.4,6l1.9-6.8c0.1-0.3,0.1-0.7,0-1c-0.8-1.9-2.2-2.5-4.1-1.5l-2.2-0.3l0.2-1
		c1,0.3,1.8-0.1,2.3-1.2l0.9-0.5c0,0.6,0.3,1,0.8,1.2c0.3,0.1,0.6,0,0.8-0.3c0.6-0.8,0.2-1.2-1.3-1.2c0.1-0.6,0.5-0.9,1.1-1.1
		c0.2,0,0.3-0.2,0.2-0.3l0,0c-0.2-0.4-0.2-0.8,0.1-1.1l1.5-1.6c0.2-0.2,0.3-0.6,0.2-0.9c-0.2-0.7-0.6-0.8-1.4-0.5L46.7,100.8z
		 M53.2,111.7c0.7,4.7-2.7,9.1-5,12.9c-0.2,0.3-0.2,0.6-0.2,0.9c0.5,2.2,6.1-9.5,6.4-10.1c0.8-1.6,0.5-2.9-0.9-4
		C53.3,111.3,53.2,111.4,53.2,111.7z M56.3,114.5c-1.5,3.6-3.3,7-5.4,10.3c-0.6,1,0.1,2,1,0.7c2.9-4.8,4.8-8.4,5.6-10.7
		c0.5-1.3,0-2.3-1.3-2.9c-0.4-0.1-0.5,0-0.3,0.3l0.5,1.4C56.4,113.9,56.4,114.3,56.3,114.5z"/>
	<path class="st10" d="M26.5,102.1c1.7,1.2,2.8,2.7,3.5,4.4v23.8c0,2.7-1.3,4.9-3.9,6.6c-0.6,0.4-0.9,0.2-0.9-0.5
		c-0.1-11.1,0-22.4,0.1-33.8C25.4,102,25.8,100.9,26.5,102.1z"/>
	<path class="st6" d="M48.1,101.6l2.7,1.2l0.1,0.5c-0.7,1.1-1.5,1.2-2.5,0.2l-0.8-1.7L48.1,101.6z"/>
	<path class="st28" d="M61.3,101.7c1.1-0.6,2.1,1,1,1.7C61.2,104.1,60.2,102.4,61.3,101.7z"/>
	<path class="st12" d="M67.8,101.6c1.1,0.9,1,1.6-0.2,2c-3.2,1.2-6,3.6-8.1,6.2l-1-0.8v-0.2l0.3-0.5c0.1,0,0.2,0.1,0.2,0.2
		c0.1,0.1,0.1,0.1,0.2,0.1l2-2.5l4-3C66.3,102.8,67.1,102.3,67.8,101.6z"/>
	<path class="st26" d="M44,107.5l-0.3,0.3l-0.9,0.5l-1-0.2c1-0.7,1.5-1.7,1.7-3l1.3-1.3c0.9-0.2,1.2-0.8,1-1.7
		c0.8-0.4,1.2-0.2,1.4,0.5c0.1,0.3,0,0.6-0.2,0.9l-1.5,1.6c-0.3,0.3-0.3,0.7-0.1,1.1c0.1,0.1,0,0.3-0.2,0.3l0,0
		C44.5,106.6,44.1,106.9,44,107.5z"/>
	<path class="st3" d="M100.5,102.1c0.1-0.1,0.3-0.2,0.5-0.1c0,0,0,0,0.1,0.1l6.4,8.1c0.2,0.2,0.2,0.5,0,0.8l-6.2,7.5
		c-0.1,0.2-0.4,0.2-0.6,0.1l0,0l-6.4-7.5c-0.2-0.2-0.2-0.5,0-0.8L100.5,102.1z"/>
	<path class="st30" d="M45.8,102.1c0.2,1-0.1,1.5-1,1.7C44.6,102.9,44.9,102.3,45.8,102.1z"/>
	<path class="st30" d="M65.3,103.1l-4,3C62.1,104.3,63.4,103.3,65.3,103.1z"/>
	<path class="st22" d="M87.5,104.8l1.2-0.5c-0.5,1.5-0.1,3,1,4.7c0.3,0.4,0.4,0.3,0.5-0.1c0.3-1.7,1.1-3.2,2.3-4.7
		c0.5-0.7,0.6-0.6,0.3,0.2c-0.2,0.6-2.5,4.4-0.7,4.3c0.3,0,0.5,0.2,0.5,0.4l0,0c-0.1,0.5-0.3,0.6-0.8,0.2c-0.3-0.2-0.6-0.2-0.8-0.1
		c-0.6,0.5-1.1,1.8-2.2,1.4c-0.2-0.1-0.4-0.4-0.4-0.8L87.5,104.8z"/>
	<path class="st29" d="M59.5,103.6c3.4,1.1-1.5,4.1-0.7,0.4C58.9,103.7,59.1,103.6,59.5,103.6C59.4,103.6,59.4,103.6,59.5,103.6z"/>
	<path class="st2" d="M76.4,103.6c1.8,0.4,2.5,1.4,2.2,2.9c-0.1,0.3-0.3,0.5-0.6,0.4c-1.7-0.2-2.3-1.3-1.8-3.1
		C76.1,103.7,76.2,103.6,76.4,103.6z"/>
	<path class="st8" d="M67.1,106.6l-0.3-0.5c-0.1-1.2,0.3-1.8,1.2-1.9c0.2,0,0.4,0.2,0.4,0.5C68.2,105.4,67.8,106.1,67.1,106.6z"/>
	<path class="st13" d="M66.7,106.1l0.3,0.5c-0.3,1-1,1.5-2.1,1.5c-0.3,0-0.7,0.1-0.9,0.3l-2,1.9c-0.3,0.2-0.6,0.3-0.8,0.2
		c-0.7-0.3-0.6-1.1-0.2-1.6l3.6-3.5c0.2-0.2,0.5-0.2,0.8,0L66.7,106.1z"/>
	<path class="st29" d="M50.8,108.5l-1.2-0.2c-0.7-0.8-0.7-1.4,0.1-1.9c0.3-0.2,0.6-0.2,0.9,0C51.3,106.9,51.4,107.6,50.8,108.5z"/>
	<path class="st29" d="M58.1,107.3l-0.5,1h-0.8c-0.9-0.6-1-1.2-0.3-1.9c0.3-0.2,0.6-0.4,0.9-0.3C57.8,106.3,58,106.7,58.1,107.3z"/>
	<path class="st30" d="M61.3,106.1l-2,2.5c0,0.1-0.1,0-0.2,0c0-0.2,0-0.2-0.2-0.3v-0.8L61.3,106.1z"/>
	<path class="st25" d="M71.1,106.8l-0.3,0.7c-0.6,0.8-1.3,1-2,0.5C69.1,107.4,70.5,104.6,71.1,106.8z"/>
	<path class="st31" d="M32.3,107.8c-0.4,5.3-0.4,10.6,0,15.8c-0.7,0.6-0.6,1,0.2,1.2l-0.3,0.1c-0.2,0-0.3,0.2-0.3,0.4l-0.1,4.4v0.5
		c0.3,1.3,0.3,2.5,0,3.8c-2.2,1.6-4.1,3.5-5.7,5.6c-0.2,0.3-0.5,0.4-0.8,0.5c-0.2,0-0.3-0.1-0.4-0.1c-0.1-0.1,0-0.3,0.2-0.5
		c2.2-2.6,6.5-5,5-8.9v-23.8C31.1,106.3,31.9,106.7,32.3,107.8z"/>
	<path class="st29" d="M54,108.6l-1.2-0.2C51.4,104.9,56.4,106.6,54,108.6z"/>
	<path class="st24" d="M71.7,106.6l1,1.2c-0.7,0.9-1.5,1.6-2.5,2.1c-0.3,0.2-0.5,0.4-0.6,0.7c0,0.8,0.6,1,1,0.3
		c0.6-1.2,1.6-1.9,3-2.1l0.5,1c-0.2,0.8,0,1.4,0.8,1.9c-1.8,0.9-2.5,2.4-2,4.5l-2,0.5c-0.3-1.1-1.2-1.4-2.5-1c0.5-1.3,1.3-1.6,2.4-1
		c0.3,0.2,0.7,0.2,0.9,0.1c0.6-0.2,0.5-0.6-0.2-1c-1.7-1.2-2.6-2.6-2.9-4.1c1.3-0.3,2-1,2-2.3l0.3-0.7L71.7,106.6z M71.4,112.7
		c2.9,0.4-0.5-1.8-0.5-0.5C70.9,112.4,71.1,112.7,71.4,112.7z"/>
	<path class="st18" d="M73.5,106.6l0.5-0.1c2,0.7,3.8,1.7,5.3,3c0.1,1.3-0.4,2.2-1.5,2.6c-0.3,0.1-0.6,0-0.9-0.2l-2.7-2.1l-0.5-1
		c1.3,0.9,2.7,1.5,4.2,1.8c0.4,0.1,0.5-0.1,0.3-0.4C77.4,108.5,74.9,108.3,73.5,106.6z"/>
	<path class="st8" d="M58.1,107.3l0.8,0.2v0.8l-0.3,0.5l-1-0.5L58.1,107.3z"/>
	<path class="st6" d="M44,107.5c1.5,0,2,0.4,1.3,1.2c-0.2,0.3-0.5,0.4-0.8,0.3c-0.5-0.2-0.8-0.6-0.8-1.2L44,107.5z"/>
	<path class="st20" d="M70.8,107.5c0,1.3-0.6,2-2,2.3l-0.1-0.2c-0.4-0.6-0.5-1.2-0.5-1.8l0.5,0.3C69.5,108.5,70.1,108.3,70.8,107.5z
		"/>
	<path class="st2" d="M32.3,107.8l3.1,2.5c0.3,0.3,0.6,0.4,0.9,0.4l4.1-0.2l2.2,0.3l-0.2,0.8c-0.6,1.6-0.6,3-0.2,4.2
		c1.6,4.7,2.7,8.8,3.2,12.1c0.3,3.4-5.3,11.1-7.2,14.4c-0.2,0.3-0.4,0.5-0.7,0.5L26,142.9c-0.3,0-0.6-0.2-0.6-0.5
		c-0.1-1.6,5.3-6.8,6.5-8.4c0.3-1.2,0.3-2.5,0-3.8l1.9,0.7c0.3,0.1,0.5,0.3,0.7,0.6l2.6,4.3c0.1,0.2,0.4,0.3,0.7,0.2l0,0
		c1.7-1.2,2.8-2.8,3.1-4.8c1.3-2.4,1.3-4.9,0.1-7.5c-0.5-2.2-1.4-3.9-2.7-5c-0.4-0.3-1-0.3-1.4,0.2c-1.8,3-3.3,4.6-4.5,4.9
		C31.8,118.3,31.8,113.1,32.3,107.8z"/>
	<path class="st20" d="M72.8,107.8c0.8-0.1,1.1,0.3,1,1c-1.4,0.2-2.4,0.9-3,2.1c-0.2,0.3-0.5,0.5-0.7,0.4c-0.3-0.1-0.4-0.3-0.3-0.7
		c0-0.3,0.2-0.5,0.6-0.7C71.3,109.4,72.1,108.7,72.8,107.8z"/>
	<path class="st20" d="M41.8,108.1l1,0.2c-0.5,1.1-1.3,1.5-2.3,1.2L41.8,108.1z"/>
	<path class="st2" d="M68.7,109.6l0.1,0.2c0.2,1.5,1.2,2.8,2.9,4.1c0.7,0.5,0.7,0.8,0.2,1c-0.2,0.1-0.6,0-0.9-0.1
		c-1.2-0.6-2-0.3-2.4,1l-0.7,0.5c-2.5,0.3-3,1.2-1.4,2.8c0.2,0.2,0.6,0.3,0.8,0.2c1.2-0.7-1.4-1.7-0.2-2.2c0.2-0.1,0.5,0,0.8,0.2
		c1.4,1.1,2.8,1.2,4.2,0.2c0.2-0.1,0.4-0.1,0.5,0.1c0,0,0,0.1,0.1,0.1c0.2,0.8-0.3,1.4-1.4,1.5c-0.6-0.4-1.5-0.3-1.5,0.5
		c-0.1,1,0.4,1,1.5-0.1c0.8,0.5,1.4,0.6,1.9,0.2c0.3-0.2,0.6-0.4,0.8-0.3c1.7,0.4-1.1,5.2-1.3,6.4c-0.1,0.3,0,0.6,0.1,0.9
		c0.4,1.2,0.5,2.4,0.3,3.6l-9.7-1l-1.5-2.3l-0.2-1l-0.3-1.8c-0.6-2.3-1.2-4.6-1.8-6.9c-0.2-0.7-1.9-2.3,0.6-1.8
		c2.2,0.4,3.4-1.1,3.2-3.3l0.3-1.2l0.5-0.3l1.9,1.6c0.3,0.2,0.5,0.3,0.6,0c0.1-0.2,0-0.4-0.2-0.6l-2.1-2l0.8-0.5l3,3.1
		c0.3,0.3,0.4,0.2,0.6,0c0.1-0.1,0.1-0.2,0-0.3c-0.7-1-1.4-1.9-2.2-2.8c-0.9-1-0.8-1.8,0.8-0.6c0.2,0.2,0.4,0.4,0.4,0.8
		C67.9,110,68.2,110,68.7,109.6z M68.1,122.9c-3.9,1.1-4,2.4-0.1,3.7c0.8,0.3,2,0.1,3.6-0.4c0.3-0.1,0.3-0.2,0-0.4
		c-0.9-0.5-1.3-1.2-1.1-2.1c0.1-0.3,0-0.6-0.3-0.8l-1.7-1.6c-0.3-0.3-0.5-0.3-0.6,0.1c-0.1,0.3,0.1,0.5,0.6,0.6
		c0.2,0,0.2,0.3,0.2,0.5C68.6,122.6,68.4,122.8,68.1,122.9z M70.9,127.8c-2.9,0-4.1-0.7-6.8-1.4c-0.3-0.1-0.4,0-0.1,0.2
		c0.7,0.6,8.4,3.5,7.5,1.4C71.3,127.9,71.1,127.8,70.9,127.8z"/>
	<path class="st27" d="M56.8,108.4h0.8l1,0.5v0.2h-2L56.8,108.4z"/>
	<path class="st26" d="M65,109.3l-0.8,0.5l-0.2,1l-0.5,0.3C62.6,109.8,63.1,109.2,65,109.3z"/>
	<path class="st19" d="M79.3,109.6H80c-0.2,3.3-1.9,4-5,2.2c-0.7-0.5-1-1.1-0.8-1.9l2.7,2.1c0.3,0.2,0.6,0.3,0.9,0.2
		C78.9,111.7,79.4,110.9,79.3,109.6z"/>
	<path class="st19" d="M64.3,109.8l2.1,2c0.2,0.2,0.3,0.4,0.2,0.6c-0.1,0.3-0.3,0.2-0.6,0l-1.9-1.6L64.3,109.8z"/>
	<path class="st21" d="M44.7,120.1l-0.8-0.1c0.4-2.4,0.8-4.8,1.3-7.2c0.2-1.2-0.1-2.5-1.6-1.9c-0.2,0.1-0.3,0.3-0.2,0.5v0.1
		c1,1.6,1.1,3.2,0.1,4.9c-0.2,0.3-0.3,0.3-0.4,0c-0.4-1.2-0.5-2.4-0.1-3.6c0.1-0.4,0.1-0.7-0.1-0.9c-0.1-0.2-0.3-0.3-0.5-0.3
		l0.2-0.8c2-0.9,3.3-0.4,4.1,1.5c0.1,0.3,0.1,0.6,0,1L44.7,120.1z"/>
	<path class="st20" d="M45.9,124l-0.1,0.8L44,120l0.8,0.1c0.5,0.8,3-5.3,3.4-6c0.5-0.9-0.3-1.8-0.9-2.5c-0.2-0.2-0.3-0.5-0.1-0.7
		c0.7-0.9,1-0.8,1,0.3c0,0.3,0.2,0.5,0.4,0.7c0.8,0.4,1.5,1.5,0.9,2.3C47.5,117.2,46.3,120.5,45.9,124z"/>
	<path class="st17" d="M59.5,110.8c1.4,0,2.5,0.5,3.2,1.6c0,0.9-0.4,1.5-1.1,2c-0.1,0-0.4,0.1-0.9,0.1l-1.5,0.1
		c-0.3,0-0.4-0.2-0.4-0.4c0.3-1.4,1-1.6,2.2-0.8c0.3,0.2,0.7,0.3,0.9,0.1c0.2-0.1,0.2-0.3,0.1-0.6c-0.1-0.2-0.3-0.5-0.7-0.6
		l-2.4-0.9c-0.2-0.1-0.5-0.5-0.2-0.6C58.9,110.8,59.2,110.7,59.5,110.8z"/>
	<path class="st18" d="M45.7,124.8l0.1-0.8c2.7-5,4.4-8.1,4.8-9.2c0.3-0.8-1-3.9-0.2-3.7c2.2,0.5,2.6,1.9,1.2,4.2
		c-2,3.4-3.7,6.9-5.1,10.6c-0.1,0.3-0.3,0.4-0.6,0.3h-0.1C45.7,125.9,45.6,125.5,45.7,124.8z"/>
	<path class="st18" d="M48.3,124.7c2.3-3.9,5.7-8.3,5-12.9c-0.1-0.3,0.1-0.4,0.3-0.2c1.4,1.1,1.7,2.4,0.9,4
		c-0.3,0.5-5.9,12.3-6.4,10.1C48,125.3,48.1,125,48.3,124.7z"/>
	<path class="st18" d="M56.3,113.6l-0.5-1.4c-0.1-0.4,0-0.5,0.3-0.3c1.4,0.6,1.8,1.5,1.3,2.9c-0.8,2.3-2.7,5.9-5.6,10.7
		c-0.2,0.3-0.5,0.6-0.8,0.6c-0.6,0.1-0.4-0.9-0.2-1.3c2.1-3.3,3.9-6.7,5.4-10.3C56.4,114.3,56.4,113.9,56.3,113.6z"/>
	<path class="st12" d="M70.9,112.2c0-1.2,3.5,1,0.5,0.5C71.1,112.7,70.9,112.4,70.9,112.2z"/>
	<path class="st21" d="M68.5,115.8c1.4-0.4,2.2-0.1,2.5,1c-1.1,0.3-2.2,0.1-3.2-0.5L68.5,115.8z"/>
	<path class="st20" d="M54.8,126.5h-1.7l4.7-9.3c0.1-0.3,0.5-0.4,0.7-0.3C59.2,117.3,55,125.8,54.8,126.5z"/>
	<path class="st5" d="M40.8,123.5h-0.5c-0.4-1.3-1-2.4-1.9-3.4c-0.2-0.2-0.5-0.2-0.7,0l0,0l-2.1,2.3c-0.1,0.3-0.1,0.5,0.1,0.6
		c0.3,0.1,0.7,0.1,1.1,0c1.3,2.8,2.5-1.5,3,0.8l-0.6,3.8l-0.7-0.7c-0.2-1.6-1.1-2.2-2.8-1.8c-1-1.6-1.6-1.7-1.8-0.2l-0.2,0.5
		l-1.2-0.6c-0.9-0.2-1-0.6-0.2-1.2c1.1-0.2,2.6-1.9,4.5-4.9c0.3-0.4,0.8-0.6,1.2-0.3l0.1,0.1C39.4,119.6,40.3,121.3,40.8,123.5z"/>
	<path class="st19" d="M71.3,119.1v0.4c-1.2,1.1-1.7,1.1-1.5,0.1c0-0.3,0.3-0.6,0.5-0.7C70.6,118.8,70.9,118.9,71.3,119.1z"/>
	<path class="st9" d="M40.3,123.6l-0.5,0.2c-0.6-2.3-1.8,2.1-3-0.8c1.6-0.4,2-1,1.3-1.9c-0.1-0.2-0.4-0.2-0.6-0.1l-0.1,0.1
		c-0.4,0.6-0.6,1.2-0.7,1.9c-0.4,0.1-0.7,0.1-1.1,0c-0.2-0.1-0.3-0.3-0.2-0.5c0-0.1,0-0.1,0.1-0.1l2.1-2.3c0.2-0.2,0.5-0.2,0.7,0
		l0,0C39.3,121.1,39.9,122.3,40.3,123.6z"/>
	<path class="st17" d="M56.8,127.3c-0.6,0.2-1-0.1-1-0.7l3.2-6c0.2-0.3,0.5-0.5,0.7-0.4C60.9,120.8,57.3,126.5,56.8,127.3z"/>
	<path class="st5" d="M36.8,123.1c0.1-0.7,0.3-1.3,0.7-1.9c0.1-0.2,0.4-0.2,0.6-0.1l0.1,0.1C38.8,122.1,38.3,122.7,36.8,123.1z"/>
	<path class="st19" d="M68.6,122.4c0-0.2,0-0.3-0.2-0.5c-0.4-0.1-0.6-0.3-0.6-0.6c0.1-0.4,0.3-0.4,0.6-0.1l1.7,1.6
		c0.2,0.2,0.3,0.5,0.3,0.8c-0.2,0.9,0.2,1.6,1.1,2.1c0.3,0.1,0.3,0.3,0,0.4c-1.6,0.6-2.8,0.7-3.6,0.4c-3.9-1.3-3.8-2.5,0.1-3.7
		C68.4,122.8,68.6,122.6,68.6,122.4z M67.9,124c-1.1,0.8-0.9,1,0.7,0.6C69.3,124.2,68.6,123.5,67.9,124z"/>
	<path class="st3" d="M98.6,147.7c1.8-0.1,2.4,0.7,1.8,2.3c-0.1,0.3-0.4,0.5-0.7,0.5h-6.6c-0.3,0-0.6-0.2-0.7-0.5
		c-0.6-1.7,0-2.5,1.7-2.4c0.3,0,0.6-0.1,0.8-0.4l4.7-7.8c0.2-0.3,0.2-0.6,0-0.9l-5-12.1c-0.1-0.3-0.4-0.4-0.7-0.4
		c-1.6,0.1-2.2-0.7-1.6-2.4c0.1-0.3,0.4-0.5,0.7-0.5h6.7c0.3,0,0.6,0.2,0.7,0.5c0.5,1.7-0.1,2.5-1.8,2.4c-0.2,0-0.3,0.1-0.4,0.3v0.1
		l3.6,8.3c0.1,0.2,0.5,0.3,0.5,0.1c1.9-2.4,2.5-5.2,1.8-8.2c-0.1-0.3-0.3-0.5-0.6-0.5c-1.3-0.2-1.7-1-1.2-2.4
		c0.1-0.3,0.4-0.5,0.7-0.5h5.9c0.3,0,0.6,0.2,0.7,0.5c0.6,1.7,0,2.5-1.8,2.3c-0.2,0-0.5,0.1-0.5,0.4c0,0,0,20.6,0,20.7
		c0,0.3,0.2,0.5,0.5,0.5c2.1,0,2.6,0.9,1.5,2.5c-0.2,0.3-0.5,0.4-0.8,0.4l-5.5-0.1c-1-0.1-0.9-1.6-0.7-2.3c0.1-0.2,0.4-0.4,0.7-0.4
		c2,0.2,1.3-7.8,1.3-9.1c0.1-1.2-0.2-1.3-0.8-0.3l-5.2,8.7C98.1,147.6,98.2,147.7,98.6,147.7z"/>
	<path class="st17" d="M40.3,123.6l0.5,7.2l-0.1,0.2c-1.1-0.9-1.6-2-1.5-3.5l0.6-3.8L40.3,123.6z"/>
	<path class="st11" d="M40.3,123.6h0.5c1.2,2.4,1.3,4.9,0,7.3L40.3,123.6z"/>
	<path class="st21" d="M68.8,123.9c0.1,0.1,0.1,0.2,0.2,0.3c0,0.2-0.1,0.3-0.3,0.4c-1.6,0.4-1.9,0.2-0.7-0.6
		C68.2,123.8,68.6,123.8,68.8,123.9z"/>
	<path class="st6" d="M35.8,125.1c0,0.4,0,3.2,0,3.7c-1.1-0.8-1.4-1.8-1.1-3.1c0.1-0.7,0-0.9-0.6-0.9
		C34.2,123.4,34.8,123.5,35.8,125.1z"/>
	<path class="st17" d="M60.8,124.8c-0.1,1-0.4,2-1,2.8c-0.2,0.3-0.5,0.4-0.8,0.4c-0.4-0.1-0.6-0.3-0.8-0.7l1.6-3
		c0.2-0.4,0.5-0.6,0.7-0.5C60.8,123.9,60.9,124.3,60.8,124.8z"/>
	<path class="st21" d="M32.5,124.8l1.2,0.6c0.4,1.3,0.3,2.6-0.5,3.7l-1.5,0.5l0.1-4.4C31.8,124.7,32.2,124.8,32.5,124.8z"/>
	<path class="st14" d="M34,124.9c0.5-0.2,0.7,0.3,0.6,0.9c-0.3,1.3,0.1,2.3,1.1,3.1L38,133l-0.5,0.6c-0.9-1-1.5-2-1.9-3.3
		c-0.1-0.3-0.3-0.4-0.6-0.4c-0.7,0-1.3-0.3-1.7-0.8c0.8-1.2,0.9-2.4,0.5-3.7L34,124.9z"/>
	<path class="st8" d="M38.5,126.9l-0.7-0.3c-0.5-1-1.2-1.2-2-0.8v-0.7C37.4,124.6,38.3,125.2,38.5,126.9z"/>
	<path class="st5" d="M37.8,126.6l-0.5,0.5c-1.3,0.5,1,4.4,1.5,5c0.1,0.6-0.1,0.9-0.7,1l-2.2-4.2v-3
		C36.6,125.3,37.3,125.6,37.8,126.6z"/>
	<path class="st20" d="M61.6,126.1c0.2,1,0.9,3.4-0.6,2.5c-0.2-0.1-0.3-0.4-0.2-0.7L61.6,126.1z"/>
	<path class="st25" d="M64.1,126.5c2.7,0.6,3.9,1.4,6.8,1.4c0.3,0,0.5,0.1,0.6,0.3c0.9,2.1-6.7-0.8-7.5-1.4
		C63.7,126.5,63.7,126.4,64.1,126.5z"/>
	<path class="st11" d="M37.8,126.6l0.7,0.3l0.7,0.7c-0.1,1.5,0.4,2.6,1.5,3.5c-0.3,2-1.4,3.6-3.1,4.8c-0.2,0.2-0.5,0.1-0.7-0.1l0,0
		l-2.6-4.3c-0.2-0.3-0.4-0.6-0.7-0.6l-1.9-0.7v-0.5l1.5-0.5c0.4,0.6,1,0.8,1.7,0.8c0.3,0,0.6,0.2,0.6,0.4c0.4,1.2,1.1,2.3,1.9,3.3
		c-0.4,1.2,0,1.3,0.9,0.4c1.1-1,1.3-1.9,0.6-2.7l-1.8-4.3L37.8,126.6z"/>
	<path class="st13" d="M52.1,127c-2.2,0.7-4.5,0.9-6.8,0.8c0-0.2,0-0.3,0.3-0.5C47.6,126.4,49.8,126.3,52.1,127z"/>
	<path class="st16" d="M37.3,127l1.8,4.3l-0.3,0.8C38.2,131.4,36,127.6,37.3,127z"/>
	<path class="st13" d="M49.3,130.1H48c-1.9,0.3-2.5,0-1.7-0.8c0.2-0.2,0.5-0.3,0.9-0.3c3.2,0.1,6.3-0.3,9.3-1.4
		c0.2-0.1,0.4,0,0.5,0.2C57.2,129.1,50.3,130,49.3,130.1z"/>
	<path class="st15" d="M63.3,129.4l9.7,1c1.3,0.7-0.1,1.2-0.6,1.2c-3.6-0.2-7,0.3-10.4,1.7c-0.4,0.6-0.2,1.2,0.5,1.8l-0.7,0.2
		l-1.6-1.5c-0.3-0.2-0.6-0.3-0.9-0.2c-0.4,0.1-0.7,0.4-0.8,0.9l-1-0.2c0.8-0.6,1.1-1.3,1-2.3C59.7,130.6,61.3,129.7,63.3,129.4z"/>
	<path class="st9" d="M48,130.1h1.2c1.7,0.7,5.8,0.5,6.8,1.4l-0.3,0.5c-0.8-0.6-1.7-0.6-2.6-0.2c-0.2,0.1-0.1,0.1,0,0.2
		c0.1,0,0.2,0.1,0.3,0.2h-1.2c-0.3-0.6-0.7-0.6-1.3-0.1c-0.2,0.2-0.3,0.5-0.2,0.8c0.2,0.8,0,1.4-0.6,1.8c-0.3,0.2-0.4,0.1-0.4-0.3
		C50.1,132.7,49.4,131.2,48,130.1z"/>
	<path class="st12" d="M39.1,131.3c0.7,0.8,0.5,1.7-0.6,2.7c-1,0.9-1.3,0.8-0.9-0.4L38,133c0.6,0,0.8-0.4,0.7-1L39.1,131.3z"/>
	<path class="st6" d="M52.3,132.3h1.2c1.2,0.1,2,0.7,2.4,1.8c0.1,0.3-0.1,0.4-0.3,0.4c-0.9,0-1.4,0.3-1.7,1c-0.1,0.2,0,0.6,0.3,0.8
		c0.4,0.5,0.7,1.1,0.9,1.8c0.6,3.2,5.5-1.4,3.5-3.5c0.1-0.5,0.4-0.8,0.8-0.9c0.3-0.1,0.7,0,0.9,0.2l1.6,1.5l-1.3,1.4
		c-0.2,0.2-0.2,0.5-0.1,0.8l1.6,2.9c0.2,0.3,0.5,0.4,0.7,0.3c0.6-0.2,1-0.6,1.1-1.2c0.1-0.3,0.3-0.5,0.5-0.6
		c1.2-0.4,1.5-1.1,0.7-2.1c-0.2-0.3-0.4-0.6-0.4-0.8c0-0.5,0.6-0.9,1.2-0.9c1.8,0.1,2.1,0.9,1.1,2.2c-0.2,0.3-0.3,0.6-0.1,0.8
		c0.2,0.3,0.4,0.5,0.6,0.7c0.3,0.2,0.5,0.4,0.6,0.7c0.9,2.2,1.8,2.2,2.8,0c0.1-0.3,0.3-0.5,0.6-0.7c0.4-0.2,0.6-0.5,0.7-0.9
		c0.1-0.3-0.1-0.6-0.3-0.8c-1.4-1.4-0.9-1.9,1.6-1.4c0.3,0,0.5,0.3,0.5,0.6l-0.1,1.4c0,0.3,0.1,0.6,0.3,0.8l3.5,2.6
		c0.9,0.7,0.8,1-0.3,1L40,142.1c-0.4,0-0.6-0.4-0.5-0.7c1.5-3.2,3.7-5.5,6.8-7c0.2-0.1,0.3-0.3,0.2-0.5c0,0,0-0.1-0.1-0.1
		c-2.7-3.1,3.8-2.8,1.8-0.6c-0.2,0.3-0.4,0.6-0.4,0.8c0,1,0.9,4.4,2.4,3.8c0.2-0.1,0.4-0.4,0.4-0.7c0-0.7,0.4-1.1,1-1.2
		c0.3-0.1,0.6-0.3,0.6-0.6L52.3,132.3z"/>
	<path class="st5" d="M55.7,132.1l1.8,2.3l1,0.2c2,2.1-2.9,6.7-3.5,3.5c-0.1-0.7-0.4-1.3-0.9-1.8c-0.2-0.3-0.3-0.6-0.3-0.8
		c0.2-0.7,0.8-1.1,1.7-1c0.3,0,0.4-0.2,0.4-0.4c-0.4-1-1.2-1.6-2.4-1.8c-0.1-0.1-0.2-0.2-0.3-0.2c-0.2-0.1-0.2-0.1,0-0.2
		C54,131.4,54.9,131.5,55.7,132.1z M57,135.9c0.1-0.5-0.1-0.7-0.6-0.6c-0.3,0.1-0.5,0.3-0.6,0.6c-0.1,0.7,0.1,0.9,0.6,0.7
		C56.7,136.5,56.9,136.2,57,135.9z"/>
	<path class="st6" d="M56,131.5l2.5,0.5c0.1,1-0.2,1.7-1,2.3l-1.8-2.3L56,131.5z"/>
	<path class="st15" d="M69.8,134.8l-2.2-1.1c1.6-0.8,3.3-1.1,5.2-0.9c0.4,0,0.7,0.2,0.8,0.5c0.2,0.6-0.4,0.8-0.9,0.6
		C71.5,133.5,70.5,133.8,69.8,134.8z"/>
	<path class="st6" d="M61.9,133.3l2.4,0.8c0.1,0,0.2,0.2,0.1,0.4c0,0,0,0.1-0.1,0.1c-0.3,0.3-0.5,0.6-0.6,1l-0.7,0.5l-0.6-1
		C61.7,134.4,61.5,133.8,61.9,133.3z"/>
	<path class="st6" d="M67.5,133.7l2.2,1.1c0.7,0.5,0.6,0.9-0.2,1.3H69C68.9,135.5,68.4,134.7,67.5,133.7z"/>
	<path class="st8" d="M56.4,136.6c-0.5,0.2-0.7,0-0.6-0.7c0.1-0.3,0.3-0.6,0.6-0.6c0.5-0.1,0.7,0.1,0.6,0.6
		C56.9,136.2,56.7,136.5,56.4,136.6z"/>
	<path class="st8" d="M63.7,135.6c0.3,0.9,0.2,1.6-0.3,2.2c-0.2,0.2-0.5,0.2-0.6,0l-0.1-0.1c-0.3-0.5-0.2-1.1,0.4-1.6L63.7,135.6z"
		/>
	<path class="st14" d="M69.1,136.1h0.5l0.3,1.3c0.1,0.3,0,0.6-0.2,0.7C68.9,138.3,68.7,137.6,69.1,136.1z"/>
</g>
</svg>
