<?xml version="1.0" encoding="UTF-8" standalone="no"?>
<svg xmlns="http://www.w3.org/2000/svg" version="1.2" baseProfile="tiny" viewBox="0 0 128 168">
<g stroke-width="0.00" fill="none" stroke-linecap="butt">
<path stroke="#e7e7e7" stroke-opacity="0.553" vector-effect="non-scaling-stroke" d="
  M 112.00 152.21
  Q 114.01 149.85 114.54 146.75"
/>
<path stroke="#e7e7e7" stroke-opacity="0.553" vector-effect="non-scaling-stroke" d="
  M 114.50 21.04
  Q 111.98 11.53 101.75 12.71"
/>
<path stroke="#d6d7d7" stroke-opacity="0.596" vector-effect="non-scaling-stroke" d="
  M 101.75 12.71
  Q 63.24 12.73 24.74 12.81
  C 19.98 12.82 16.79 13.80 14.71 18.00"
/>
<path stroke="#d6d7d7" stroke-opacity="0.596" vector-effect="non-scaling-stroke" d="
  M 114.50 21.04
  L 114.46 28.50"
/>
<path stroke="#f9f7f6" stroke-opacity="0.953" vector-effect="non-scaling-stroke" d="
  M 114.46 28.50
  Q 113.94 52.25 114.46 76.00"
/>
<path stroke="#d6d7d7" stroke-opacity="0.596" vector-effect="non-scaling-stroke" d="
  M 114.46 76.00
  L 114.54 100.75"
/>
<path stroke="#e7e7e7" stroke-opacity="0.553" vector-effect="non-scaling-stroke" d="
  M 114.54 100.75
  L 114.54 121.25"
/>
<path stroke="#d6d7d7" stroke-opacity="0.596" vector-effect="non-scaling-stroke" d="
  M 114.54 121.25
  L 114.54 146.75"
/>
<path stroke="#d6d7d7" stroke-opacity="0.596" vector-effect="non-scaling-stroke" d="
  M 112.00 152.21
  C 107.86 156.75 100.31 155.28 94.91 155.28
  Q 58.48 155.23 22.06 155.25
  Q 19.80 155.25 17.00 152.96"
/>
<path stroke="#f9fafb" stroke-opacity="0.988" vector-effect="non-scaling-stroke" d="
  M 17.00 152.96
  Q 14.00 148.78 14.00 147.25
  Q 14.00 84.52 14.00 21.79
  C 14.00 20.50 14.61 19.33 14.71 18.00"
/>
<path stroke="#e29996" vector-effect="non-scaling-stroke" d="
  M 21.31 20.78
  L 27.29 20.91
  Q 27.87 20.92 27.45 21.33
  L 20.78 27.84
  A 0.69 0.59 -39.0 0 0 20.64 28.62
  Q 21.25 29.65 22.33 30.32
  A 0.87 0.75 -42.8 0 0 23.19 30.29
  C 29.41 26.40 34.94 35.14 28.81 39.77
  Q 24.14 43.30 20.34 37.26
  A 1.20 0.93 73.1 0 0 19.58 36.72
  Q 18.34 36.55 17.28 37.44
  A 0.73 0.68 59.4 0 0 17.10 38.25
  C 21.09 48.21 34.30 45.29 34.87 35.20
  Q 35.25 28.44 28.23 25.87
  A 0.31 0.30 33.8 0 1 28.12 25.36
  C 29.82 23.79 35.28 19.10 34.68 17.71
  A 0.84 0.72 -10.0 0 0 33.94 17.27
  L 18.00 17.27
  A 0.57 0.50 0.5 0 0 17.43 17.76
  L 17.30 23.49
  A 0.76 0.65 11.4 0 0 17.82 24.15
  Q 21.59 25.41 20.90 21.30
  A 0.45 0.41 85.9 0 1 21.31 20.78"
/>
<path stroke="#e29996" vector-effect="non-scaling-stroke" d="
  M 63.78 44.76
  L 58.22 51.38
  A 0.61 0.58 46.4 0 0 58.22 52.13
  L 63.71 59.10
  A 0.36 0.36 -43.9 0 0 64.29 59.10
  L 69.76 51.91
  A 0.61 0.59 43.0 0 0 69.72 51.16
  L 64.21 44.77
  A 0.29 0.28 45.1 0 0 63.78 44.76"
/>
<path stroke="#e29996" vector-effect="non-scaling-stroke" d="
  M 32.80 57.82
  A 0.47 0.47 43.5 0 0 32.78 57.21
  L 26.28 49.83
  A 0.41 0.40 44.2 0 0 25.66 49.83
  L 19.37 57.32
  A 0.61 0.59 45.9 0 0 19.37 58.08
  L 25.72 66.13
  A 0.37 0.36 45.5 0 0 26.30 66.14
  L 32.80 57.82"
/>
<path stroke="#e29996" vector-effect="non-scaling-stroke" d="
  M 63.78 76.76
  L 58.22 83.38
  A 0.61 0.58 46.4 0 0 58.22 84.13
  L 63.71 91.10
  A 0.36 0.36 -43.5 0 0 64.29 91.10
  L 69.76 83.91
  A 0.61 0.59 43.0 0 0 69.72 83.16
  L 64.21 76.77
  A 0.29 0.28 45.1 0 0 63.78 76.76"
/>
<path stroke="#e29996" vector-effect="non-scaling-stroke" d="
  M 101.75 101.74
  L 95.29 110.06
  A 0.58 0.57 -47.2 0 0 95.31 110.79
  L 101.71 118.14
  A 0.42 0.41 44.6 0 0 102.34 118.14
  L 108.69 110.63
  A 0.61 0.58 46.4 0 0 108.69 109.88
  L 102.29 101.75
  A 0.34 0.34 45.5 0 0 101.75 101.74"
/>
<path stroke="#e29996" vector-effect="non-scaling-stroke" d="
  M 63.85 108.83
  L 58.22 116.08
  A 0.64 0.58 44.1 0 0 58.27 116.84
  L 63.72 123.13
  A 0.41 0.40 44.2 0 0 64.34 123.13
  L 69.78 116.62
  A 0.61 0.58 46.0 0 0 69.77 115.87
  L 64.28 108.84
  A 0.28 0.27 45.1 0 0 63.85 108.83"
/>
<path stroke="#e29996" vector-effect="non-scaling-stroke" d="
  M 100.62 146.80
  L 107.15 140.31
  A 0.81 0.59 -37.2 0 0 107.38 139.54
  Q 106.82 138.19 105.50 137.66
  A 1.18 0.90 -43.6 0 0 104.59 137.76
  C 99.52 140.59 94.64 135.41 97.18 130.43
  C 99.63 125.62 105.30 126.01 107.72 130.94
  A 0.81 0.73 73.5 0 0 108.44 131.38
  Q 109.65 131.32 110.66 130.59
  A 0.67 0.66 61.2 0 0 110.88 129.81
  C 108.42 123.76 101.90 121.47 96.70 125.67
  C 90.64 130.57 92.26 139.68 99.75 142.09
  A 0.30 0.30 -58.1 0 1 99.86 142.59
  L 93.47 148.96
  Q 91.67 150.75 94.01 150.74
  L 109.88 150.69
  A 0.62 0.61 5.7 0 0 110.49 150.20
  Q 111.07 147.33 110.64 144.46
  A 0.81 0.79 -86.8 0 0 110.08 143.81
  Q 106.42 142.78 107.23 146.57
  A 0.45 0.41 83.0 0 1 106.85 147.11
  L 100.81 147.22
  Q 100.19 147.23 100.62 146.80"
/>
</g>
<path fill="#020101" fill-opacity="0.035" d="
  M 7.44 153.06
  Q 4.68 147.33 5.00 141.59
  Q 5.26 136.99 5.26 136.87
  Q 5.23 79.78 5.26 22.69
  C 5.26 20.96 6.43 14.84 8.29 14.50
  A 0.78 0.69 0.5 0 0 8.89 13.98
  Q 9.43 11.75 11.39 10.40
  A 0.33 0.27 51.2 0 0 11.39 9.95
  Q 11.24 9.78 11.24 9.53
  A 0.25 0.25 76.1 0 1 11.37 9.31
  Q 12.55 8.69 13.13 7.72
  A 0.66 0.64 21.8 0 1 13.84 7.43
  Q 15.25 7.76 15.79 6.19
  A 0.83 0.70 -81.7 0 1 16.41 5.64
  Q 18.41 5.39 20.21 5.98
  A 1.88 1.66 44.4 0 0 21.17 6.03
  C 23.32 5.52 27.75 5.74 29.30 4.96
  A 0.77 0.67 50.0 0 1 30.07 5.08
  Q 30.59 5.49 31.14 5.05
  A 0.78 0.36 -38.8 0 1 31.93 4.85
  Q 32.04 4.97 32.07 5.17
  A 0.37 0.30 85.8 0 0 32.38 5.50
  L 105.50 5.50
  Q 105.97 5.50 106.43 5.76
  Q 108.40 6.90 110.77 6.52
  A 0.65 0.54 72.6 0 1 111.38 6.92
  L 111.94 8.19
  A 1.36 0.64 11.7 0 0 112.70 8.76
  C 115.84 9.92 115.95 12.43 118.43 14.38
  A 1.45 1.39 -79.0 0 1 118.94 15.17
  L 119.16 16.03
  A 0.53 0.49 -11.2 0 0 119.74 16.39
  Q 120.75 16.25 120.18 16.90
  A 1.00 0.77 -32.4 0 0 119.93 17.59
  Q 120.09 19.11 120.96 20.35
  A 1.70 1.41 32.0 0 1 121.26 21.25
  Q 121.10 32.76 121.41 44.25
  Q 121.48 46.74 122.17 44.93
  Q 122.33 44.52 122.34 44.97
  C 122.49 52.66 121.93 60.71 122.63 68.32
  Q 122.75 69.59 121.85 70.43
  A 1.18 0.93 -26.0 0 0 121.46 71.24
  Q 121.78 97.20 121.21 109.75
  Q 121.13 111.42 121.94 111.59
  A 0.61 0.46 7.3 0 1 122.43 112.07
  Q 122.39 118.32 122.15 124.56
  Q 122.12 125.32 121.84 124.51
  Q 121.76 124.30 121.72 124.53
  Q 121.13 127.79 121.67 131.04
  Q 121.75 131.52 121.79 131.03
  C 121.82 130.57 122.26 128.86 122.35 130.70
  C 122.44 132.50 122.76 140.34 121.89 140.19
  A 0.38 0.32 6.8 0 0 121.45 140.48
  C 121.37 143.20 121.69 145.30 121.01 148.08
  Q 120.55 149.94 120.37 151.85
  A 1.04 0.78 -18.6 0 1 119.89 152.55
  Q 119.17 153.00 119.21 153.97
  A 1.06 0.95 69.5 0 1 118.89 154.79
  L 116.18 157.25
  A 1.55 1.48 -67.8 0 1 115.33 157.63
  Q 113.74 157.78 112.70 158.97
  Q 112.40 159.31 112.90 159.40
  Q 114.26 159.65 112.25 161.01
  Q 109.75 162.71 108.31 162.71
  L 66.80 162.92
  A 0.95 0.86 71.8 0 1 66.05 162.49
  L 65.88 162.23
  A 0.23 0.22 -41.0 0 0 65.52 162.21
  C 64.17 163.77 62.93 163.25 61.19 163.27
  Q 43.73 163.38 26.28 162.98
  C 23.82 162.93 21.74 162.13 19.18 161.99
  C 16.09 161.83 15.05 160.99 12.53 159.73
  C 9.83 158.39 8.76 155.81 7.44 153.06
  Z
  M 112.91 11.28
  L 113.00 11.12
  A 0.26 0.24 21.9 0 0 112.83 10.75
  Q 112.11 10.61 111.58 10.07
  A 1.16 1.06 65.5 0 0 110.76 9.72
  Q 109.13 9.73 109.43 8.03
  A 0.40 0.40 5.5 0 0 109.04 7.56
  Q 107.31 7.53 106.03 6.40
  A 1.40 1.25 63.1 0 0 105.16 6.06
  Q 66.36 5.96 27.56 6.04
  C 25.08 6.04 22.41 6.92 19.62 6.77
  A 0.54 0.32 7.8 0 0 19.13 6.98
  L 19.01 7.27
  A 1.05 0.32 -71.9 0 1 18.54 7.94
  C 17.09 8.45 15.82 8.59 14.68 9.75
  C 12.82 11.66 10.65 13.08 9.47 15.45
  Q 7.08 20.23 7.07 25.75
  Q 6.99 83.44 7.00 141.13
  C 7.00 144.04 7.79 146.61 8.22 149.51
  Q 8.37 150.51 8.95 151.53
  C 10.45 154.12 14.15 158.35 17.32 158.84
  A 0.94 0.82 79.6 0 1 17.96 159.35
  Q 18.28 160.00 19.16 159.80
  A 0.91 0.39 -19.8 0 1 19.84 159.84
  Q 20.01 159.96 20.06 160.18
  A 0.67 0.45 79.2 0 0 20.55 160.68
  L 65.25 160.73
  A 1.35 0.90 59.2 0 1 66.07 161.12
  Q 66.62 161.66 67.23 161.12
  A 1.40 0.91 -57.1 0 1 68.05 160.75
  L 107.95 160.74
  A 0.54 0.46 -86.6 0 0 108.42 160.25
  Q 108.49 159.58 109.25 159.78
  Q 111.63 158.98 113.18 157.18
  A 1.60 1.44 11.1 0 1 113.98 156.70
  C 116.18 156.15 116.75 154.04 117.68 152.81
  Q 118.67 151.50 119.30 149.97
  A 1.93 1.11 64.2 0 0 119.37 149.02
  Q 119.16 147.82 119.90 146.80
  A 0.93 0.86 -37.8 0 0 120.04 145.96
  C 119.47 144.39 119.81 142.42 119.72 141.10
  Q 119.28 134.78 119.60 128.44
  A 0.18 0.18 -4.5 0 1 119.74 128.28
  L 119.87 128.25
  A 0.28 0.27 -12.3 0 0 120.09 127.92
  C 119.41 124.46 119.88 120.14 119.83 117.73
  Q 119.49 101.64 119.78 71.69
  Q 119.83 66.35 119.91 63.34
  Q 120.01 59.63 119.93 56.77
  Q 119.85 53.48 119.90 50.19
  C 120.02 42.77 119.78 36.71 119.76 27.91
  Q 119.74 22.04 118.54 16.24
  Q 117.80 12.67 116.31 12.67
  Q 114.46 12.67 112.96 11.55
  A 0.20 0.20 -55.9 0 1 112.91 11.28
  Z"
/>
<path fill="#010001" fill-opacity="0.106" d="
  M 112.96 11.55
  Q 114.46 12.67 116.31 12.67
  Q 117.80 12.67 118.54 16.24
  Q 119.74 22.04 119.76 27.91
  C 119.78 36.71 120.02 42.77 119.90 50.19
  Q 119.85 53.48 119.93 56.77
  Q 120.01 59.63 119.91 63.34
  Q 119.83 66.35 119.78 71.69
  Q 119.49 101.64 119.83 117.73
  C 119.88 120.14 119.41 124.46 120.09 127.92
  A 0.28 0.27 -12.3 0 1 119.87 128.25
  L 119.74 128.28
  A 0.18 0.18 -4.5 0 0 119.60 128.44
  Q 119.28 134.78 119.72 141.10
  C 119.81 142.42 119.47 144.39 120.04 145.96
  A 0.93 0.86 -37.8 0 1 119.90 146.80
  Q 119.16 147.82 119.37 149.02
  A 1.93 1.11 64.2 0 1 119.30 149.97
  Q 118.67 151.50 117.68 152.81
  C 116.75 154.04 116.18 156.15 113.98 156.70
  A 1.60 1.44 11.1 0 0 113.18 157.18
  Q 111.63 158.98 109.25 159.78
  Q 108.49 159.58 108.42 160.25
  A 0.54 0.46 -86.6 0 1 107.95 160.74
  L 68.05 160.75
  A 1.40 0.91 -57.1 0 0 67.23 161.12
  Q 66.62 161.66 66.07 161.12
  A 1.35 0.90 59.2 0 0 65.25 160.73
  L 20.55 160.68
  A 0.67 0.45 79.2 0 1 20.06 160.18
  Q 20.01 159.96 19.84 159.84
  A 0.91 0.39 -19.8 0 0 19.16 159.80
  Q 18.28 160.00 17.96 159.35
  A 0.94 0.82 79.6 0 0 17.32 158.84
  C 14.15 158.35 10.45 154.12 8.95 151.53
  Q 8.37 150.51 8.22 149.51
  C 7.79 146.61 7.00 144.04 7.00 141.13
  Q 6.99 83.44 7.07 25.75
  Q 7.08 20.23 9.47 15.45
  C 10.65 13.08 12.82 11.66 14.68 9.75
  C 15.82 8.59 17.09 8.45 18.54 7.94
  A 1.05 0.32 -71.9 0 0 19.01 7.27
  L 19.13 6.98
  A 0.54 0.32 7.8 0 1 19.62 6.77
  C 22.41 6.92 25.08 6.04 27.56 6.04
  Q 66.36 5.96 105.16 6.06
  A 1.40 1.25 63.1 0 1 106.03 6.40
  Q 107.31 7.53 109.04 7.56
  A 0.40 0.40 5.5 0 1 109.43 8.03
  Q 109.13 9.73 110.76 9.72
  A 1.16 1.06 65.5 0 1 111.58 10.07
  Q 112.11 10.61 112.83 10.75
  A 0.26 0.24 21.9 0 1 113.00 11.12
  L 112.91 11.28
  A 0.20 0.20 -55.9 0 0 112.96 11.55
  Z
  M 13.96 19.50
  L 13.71 21.00
  Q 12.69 21.07 12.12 19.62
  Q 11.68 18.50 11.53 19.70
  C 11.30 21.49 11.00 23.29 11.00 25.11
  Q 11.00 84.22 11.00 143.33
  C 11.00 145.12 11.98 147.13 11.85 148.68
  Q 11.71 150.37 12.81 151.66
  Q 17.44 157.07 22.74 158.07
  C 30.00 159.43 38.14 158.41 45.58 158.59
  C 49.58 158.69 55.35 158.36 60.27 158.91
  Q 60.60 158.95 61.17 158.70
  C 62.77 158.02 68.51 158.69 70.42 158.77
  C 70.79 158.78 80.40 158.86 80.65 158.73
  A 1.99 1.14 -44.3 0 1 81.57 158.49
  C 85.07 158.64 102.99 159.55 105.08 157.87
  Q 105.50 157.53 105.94 157.43
  Q 112.03 156.03 115.26 150.60
  A 1.05 0.90 -44.3 0 0 115.34 149.71
  C 114.57 148.00 113.77 152.01 112.00 152.21
  Q 114.01 149.85 114.54 146.75
  L 115.50 148.55
  A 0.42 0.33 57.3 0 0 116.05 148.74
  Q 116.25 148.56 116.21 148.29
  A 0.46 0.40 81.6 0 1 116.53 147.79
  Q 117.24 147.64 117.02 146.89
  A 1.70 1.06 56.9 0 1 117.00 145.95
  Q 117.49 144.66 117.49 143.93
  Q 117.51 84.38 117.50 24.80
  A 1.62 1.35 30.8 0 0 117.19 23.91
  Q 115.94 22.25 115.97 20.27
  A 0.82 0.56 -83.1 0 0 115.59 19.53
  C 114.80 19.23 115.63 22.23 114.50 21.04
  Q 111.98 11.53 101.75 12.71
  L 21.07 12.56
  A 0.64 0.43 -9.0 0 1 20.55 12.32
  Q 20.47 12.17 20.46 11.98
  A 0.60 0.47 -0.5 0 1 21.06 11.50
  Q 62.89 11.50 104.73 11.50
  C 105.43 11.50 105.82 11.06 104.75 10.75
  Q 103.95 10.51 103.11 10.51
  Q 63.72 10.48 24.50 10.74
  Q 17.18 10.79 13.28 16.02
  Q 11.79 18.03 13.96 19.50
  Z"
/>
<path fill="#030504" fill-opacity="0.192" d="
  M 101.75 12.71
  Q 63.24 12.73 24.74 12.81
  C 19.98 12.82 16.79 13.80 14.71 18.00
  L 13.96 19.50
  Q 11.79 18.03 13.28 16.02
  Q 17.18 10.79 24.50 10.74
  Q 63.72 10.48 103.11 10.51
  Q 103.95 10.51 104.75 10.75
  C 105.82 11.06 105.43 11.50 104.73 11.50
  Q 62.89 11.50 21.06 11.50
  A 0.60 0.47 -0.5 0 0 20.46 11.98
  Q 20.47 12.17 20.55 12.32
  A 0.64 0.43 -9.0 0 0 21.07 12.56
  L 101.75 12.71
  Z"
/>
<path fill="#ffffff" d="
  M 101.75 12.71
  Q 111.98 11.53 114.50 21.04
  L 114.46 28.50
  Q 113.94 52.25 114.46 76.00
  L 114.54 100.75
  L 114.54 121.25
  L 114.54 146.75
  Q 114.01 149.85 112.00 152.21
  C 107.86 156.75 100.31 155.28 94.91 155.28
  Q 58.48 155.23 22.06 155.25
  Q 19.80 155.25 17.00 152.96
  Q 14.00 148.78 14.00 147.25
  Q 14.00 84.52 14.00 21.79
  C 14.00 20.50 14.61 19.33 14.71 18.00
  C 16.79 13.80 19.98 12.82 24.74 12.81
  Q 63.24 12.73 101.75 12.71
  Z
  M 21.31 20.78
  L 27.29 20.91
  Q 27.87 20.92 27.45 21.33
  L 20.78 27.84
  A 0.69 0.59 -39.0 0 0 20.64 28.62
  Q 21.25 29.65 22.33 30.32
  A 0.87 0.75 -42.8 0 0 23.19 30.29
  C 29.41 26.40 34.94 35.14 28.81 39.77
  Q 24.14 43.30 20.34 37.26
  A 1.20 0.93 73.1 0 0 19.58 36.72
  Q 18.34 36.55 17.28 37.44
  A 0.73 0.68 59.4 0 0 17.10 38.25
  C 21.09 48.21 34.30 45.29 34.87 35.20
  Q 35.25 28.44 28.23 25.87
  A 0.31 0.30 33.8 0 1 28.12 25.36
  C 29.82 23.79 35.28 19.10 34.68 17.71
  A 0.84 0.72 -10.0 0 0 33.94 17.27
  L 18.00 17.27
  A 0.57 0.50 0.5 0 0 17.43 17.76
  L 17.30 23.49
  A 0.76 0.65 11.4 0 0 17.82 24.15
  Q 21.59 25.41 20.90 21.30
  A 0.45 0.41 85.9 0 1 21.31 20.78
  Z
  M 63.78 44.76
  L 58.22 51.38
  A 0.61 0.58 46.4 0 0 58.22 52.13
  L 63.71 59.10
  A 0.36 0.36 -43.9 0 0 64.29 59.10
  L 69.76 51.91
  A 0.61 0.59 43.0 0 0 69.72 51.16
  L 64.21 44.77
  A 0.29 0.28 45.1 0 0 63.78 44.76
  Z
  M 32.80 57.82
  A 0.47 0.47 43.5 0 0 32.78 57.21
  L 26.28 49.83
  A 0.41 0.40 44.2 0 0 25.66 49.83
  L 19.37 57.32
  A 0.61 0.59 45.9 0 0 19.37 58.08
  L 25.72 66.13
  A 0.37 0.36 45.5 0 0 26.30 66.14
  L 32.80 57.82
  Z
  M 63.78 76.76
  L 58.22 83.38
  A 0.61 0.58 46.4 0 0 58.22 84.13
  L 63.71 91.10
  A 0.36 0.36 -43.5 0 0 64.29 91.10
  L 69.76 83.91
  A 0.61 0.59 43.0 0 0 69.72 83.16
  L 64.21 76.77
  A 0.29 0.28 45.1 0 0 63.78 76.76
  Z
  M 101.75 101.74
  L 95.29 110.06
  A 0.58 0.57 -47.2 0 0 95.31 110.79
  L 101.71 118.14
  A 0.42 0.41 44.6 0 0 102.34 118.14
  L 108.69 110.63
  A 0.61 0.58 46.4 0 0 108.69 109.88
  L 102.29 101.75
  A 0.34 0.34 45.5 0 0 101.75 101.74
  Z
  M 63.85 108.83
  L 58.22 116.08
  A 0.64 0.58 44.1 0 0 58.27 116.84
  L 63.72 123.13
  A 0.41 0.40 44.2 0 0 64.34 123.13
  L 69.78 116.62
  A 0.61 0.58 46.0 0 0 69.77 115.87
  L 64.28 108.84
  A 0.28 0.27 45.1 0 0 63.85 108.83
  Z
  M 100.62 146.80
  L 107.15 140.31
  A 0.81 0.59 -37.2 0 0 107.38 139.54
  Q 106.82 138.19 105.50 137.66
  A 1.18 0.90 -43.6 0 0 104.59 137.76
  C 99.52 140.59 94.64 135.41 97.18 130.43
  C 99.63 125.62 105.30 126.01 107.72 130.94
  A 0.81 0.73 73.5 0 0 108.44 131.38
  Q 109.65 131.32 110.66 130.59
  A 0.67 0.66 61.2 0 0 110.88 129.81
  C 108.42 123.76 101.90 121.47 96.70 125.67
  C 90.64 130.57 92.26 139.68 99.75 142.09
  A 0.30 0.30 -58.1 0 1 99.86 142.59
  L 93.47 148.96
  Q 91.67 150.75 94.01 150.74
  L 109.88 150.69
  A 0.62 0.61 5.7 0 0 110.49 150.20
  Q 111.07 147.33 110.64 144.46
  A 0.81 0.79 -86.8 0 0 110.08 143.81
  Q 106.42 142.78 107.23 146.57
  A 0.45 0.41 83.0 0 1 106.85 147.11
  L 100.81 147.22
  Q 100.19 147.23 100.62 146.80
  Z"
/>
<path fill="#c4332c" d="
  M 20.90 21.30
  Q 21.59 25.41 17.82 24.15
  A 0.76 0.65 11.4 0 1 17.30 23.49
  L 17.43 17.76
  A 0.57 0.50 0.5 0 1 18.00 17.27
  L 33.94 17.27
  A 0.84 0.72 -10.0 0 1 34.68 17.71
  C 35.28 19.10 29.82 23.79 28.12 25.36
  A 0.31 0.30 33.8 0 0 28.23 25.87
  Q 35.25 28.44 34.87 35.20
  C 34.30 45.29 21.09 48.21 17.10 38.25
  A 0.73 0.68 59.4 0 1 17.28 37.44
  Q 18.34 36.55 19.58 36.72
  A 1.20 0.93 73.1 0 1 20.34 37.26
  Q 24.14 43.30 28.81 39.77
  C 34.94 35.14 29.41 26.40 23.19 30.29
  A 0.87 0.75 -42.8 0 1 22.33 30.32
  Q 21.25 29.65 20.64 28.62
  A 0.69 0.59 -39.0 0 1 20.78 27.84
  L 27.45 21.33
  Q 27.87 20.92 27.29 20.91
  L 21.31 20.78
  A 0.45 0.41 85.9 0 0 20.90 21.30
  Z"
/>
<path fill="#f2f4f6" fill-opacity="0.973" d="
  M 14.71 18.00
  C 14.61 19.33 14.00 20.50 14.00 21.79
  Q 14.00 84.52 14.00 147.25
  Q 14.00 148.78 17.00 152.96
  Q 13.60 150.10 13.56 146.69
  Q 13.12 110.00 13.71 21.00
  L 13.96 19.50
  L 14.71 18.00
  Z"
/>
<path fill="#030504" fill-opacity="0.192" d="
  M 13.71 21.00
  Q 13.12 110.00 13.56 146.69
  Q 13.60 150.10 17.00 152.96
  Q 19.80 155.25 22.06 155.25
  Q 58.48 155.23 94.91 155.28
  C 100.31 155.28 107.86 156.75 112.00 152.21
  C 113.77 152.01 114.57 148.00 115.34 149.71
  A 1.05 0.90 -44.3 0 1 115.26 150.60
  Q 112.03 156.03 105.94 157.43
  Q 105.50 157.53 105.08 157.87
  C 102.99 159.55 85.07 158.64 81.57 158.49
  A 1.99 1.14 -44.3 0 0 80.65 158.73
  C 80.40 158.86 70.79 158.78 70.42 158.77
  C 68.51 158.69 62.77 158.02 61.17 158.70
  Q 60.60 158.95 60.27 158.91
  C 55.35 158.36 49.58 158.69 45.58 158.59
  C 38.14 158.41 30.00 159.43 22.74 158.07
  Q 17.44 157.07 12.81 151.66
  Q 11.71 150.37 11.85 148.68
  C 11.98 147.13 11.00 145.12 11.00 143.33
  Q 11.00 84.22 11.00 25.11
  C 11.00 23.29 11.30 21.49 11.53 19.70
  Q 11.68 18.50 12.12 19.62
  Q 12.69 21.07 13.71 21.00
  Z"
/>
<path fill="#030504" fill-opacity="0.192" d="
  M 114.54 146.75
  L 114.54 121.25
  L 114.88 141.70
  Q 114.89 142.21 114.89 141.69
  L 114.95 100.05
  Q 114.95 99.60 114.80 100.04
  L 114.54 100.75
  L 114.46 76.00
  L 114.46 28.50
  L 114.50 21.04
  C 115.63 22.23 114.80 19.23 115.59 19.53
  A 0.82 0.56 -83.1 0 1 115.97 20.27
  Q 115.94 22.25 117.19 23.91
  A 1.62 1.35 30.8 0 1 117.50 24.80
  Q 117.51 84.38 117.49 143.93
  Q 117.49 144.66 117.00 145.95
  A 1.70 1.06 56.9 0 0 117.02 146.89
  Q 117.24 147.64 116.53 147.79
  A 0.46 0.40 81.6 0 0 116.21 148.29
  Q 116.25 148.56 116.05 148.74
  A 0.42 0.33 57.3 0 1 115.50 148.55
  L 114.54 146.75
  Z"
/>
<path fill="#f3efed" fill-opacity="0.906" d="
  M 114.46 28.50
  L 114.46 76.00
  Q 113.94 52.25 114.46 28.50
  Z"
/>
<path fill="#c4332c" d="
  M 63.78 44.76
  A 0.29 0.28 45.1 0 1 64.21 44.77
  L 69.72 51.16
  A 0.61 0.59 43.0 0 1 69.76 51.91
  L 64.29 59.10
  A 0.36 0.36 -41.6 0 1 63.71 59.10
  L 58.22 52.13
  A 0.61 0.58 46.4 0 1 58.22 51.38
  L 63.78 44.76
  Z"
/>
<path fill="#c4332c" d="
  M 32.80 57.82
  L 26.30 66.14
  A 0.37 0.36 45.5 0 1 25.72 66.13
  L 19.37 58.08
  A 0.61 0.59 45.9 0 1 19.37 57.32
  L 25.66 49.83
  A 0.41 0.40 44.2 0 1 26.28 49.83
  L 32.78 57.21
  A 0.47 0.47 43.5 0 1 32.80 57.82
  Z"
/>
<path fill="#c4332c" d="
  M 63.78 76.76
  A 0.29 0.28 45.1 0 1 64.21 76.77
  L 69.72 83.16
  A 0.61 0.59 43.0 0 1 69.76 83.91
  L 64.29 91.10
  A 0.36 0.36 -45.5 0 1 63.71 91.10
  L 58.22 84.13
  A 0.61 0.58 46.4 0 1 58.22 83.38
  L 63.78 76.76
  Z"
/>
<path fill="#010001" fill-opacity="0.106" d="
  M 114.54 121.25
  L 114.54 100.75
  L 114.80 100.04
  Q 114.95 99.60 114.95 100.05
  L 114.89 141.69
  Q 114.89 142.21 114.88 141.70
  L 114.54 121.25
  Z"
/>
<path fill="#c4332c" d="
  M 101.75 101.74
  A 0.34 0.34 45.5 0 1 102.29 101.75
  L 108.69 109.88
  A 0.61 0.58 46.4 0 1 108.69 110.63
  L 102.34 118.14
  A 0.42 0.41 44.6 0 1 101.71 118.14
  L 95.31 110.79
  A 0.58 0.57 -47.2 0 1 95.29 110.06
  L 101.75 101.74
  Z"
/>
<path fill="#c4332c" d="
  M 63.85 108.83
  A 0.28 0.27 45.1 0 1 64.28 108.84
  L 69.77 115.87
  A 0.61 0.58 46.0 0 1 69.78 116.62
  L 64.34 123.13
  A 0.41 0.40 44.2 0 1 63.72 123.13
  L 58.27 116.84
  A 0.64 0.58 44.1 0 1 58.22 116.08
  L 63.85 108.83
  Z"
/>
<path fill="#c4332c" d="
  M 100.81 147.22
  L 106.85 147.11
  A 0.45 0.41 83.0 0 0 107.23 146.57
  Q 106.42 142.78 110.08 143.81
  A 0.81 0.79 -86.8 0 1 110.64 144.46
  Q 111.07 147.33 110.49 150.20
  A 0.62 0.61 5.7 0 1 109.88 150.69
  L 94.01 150.74
  Q 91.67 150.75 93.47 148.96
  L 99.86 142.59
  A 0.30 0.30 -58.1 0 0 99.75 142.09
  C 92.26 139.68 90.64 130.57 96.70 125.67
  C 101.90 121.47 108.42 123.76 110.88 129.81
  A 0.67 0.66 61.2 0 1 110.66 130.59
  Q 109.65 131.32 108.44 131.38
  A 0.81 0.73 73.5 0 1 107.72 130.94
  C 105.30 126.01 99.63 125.62 97.18 130.43
  C 94.64 135.41 99.52 140.59 104.59 137.76
  A 1.18 0.90 -43.6 0 1 105.50 137.66
  Q 106.82 138.19 107.38 139.54
  A 0.81 0.59 -37.2 0 1 107.15 140.31
  L 100.62 146.80
  Q 100.19 147.23 100.81 147.22
  Z"
/>
</svg>
