<?xml version="1.0" encoding="UTF-8" standalone="no"?>
<svg xmlns="http://www.w3.org/2000/svg" version="1.2" baseProfile="tiny" viewBox="0 0 128 168">
<g stroke-width="0.00" fill="none" stroke-linecap="butt">
<path stroke="#e0e0e0" stroke-opacity="0.569" vector-effect="non-scaling-stroke" d="
  M 13.76 147.50
  Q 14.85 152.35 19.89 155.10"
/>
<path stroke="#e0e0e0" stroke-opacity="0.569" vector-effect="non-scaling-stroke" d="
  M 111.25 153.14
  Q 114.48 149.76 114.49 146.93
  Q 114.52 85.44 114.49 23.95
  C 114.49 15.20 110.19 12.76 101.73 12.75
  Q 61.77 12.74 21.81 12.77
  Q 19.35 12.77 16.46 15.50"
/>
<path stroke="#cccbcb" stroke-opacity="0.627" vector-effect="non-scaling-stroke" d="
  M 111.25 153.14
  Q 108.29 155.23 105.00 155.25
  Q 73.56 155.43 19.89 155.10"
/>
<path stroke="#f9fafa" stroke-opacity="0.988" vector-effect="non-scaling-stroke" d="
  M 13.76 147.50
  Q 14.18 84.12 14.00 20.75
  Q 14.00 19.51 16.46 15.50"
/>
<path stroke="#e29996" vector-effect="non-scaling-stroke" d="
  M 21.32 21.29
  L 29.13 21.40
  A 0.33 0.31 -75.4 0 1 29.39 21.88
  Q 23.91 32.18 21.88 43.71
  A 0.46 0.42 -85.5 0 0 22.30 44.24
  L 25.14 44.17
  A 0.68 0.60 -85.8 0 0 25.72 43.60
  Q 27.71 31.51 34.22 21.16
  A 1.00 0.68 -48.7 0 0 34.33 20.26
  L 33.01 17.92
  A 1.04 0.72 -9.7 0 0 32.17 17.53
  L 17.89 17.57
  A 0.54 0.51 -0.6 0 0 17.36 18.08
  L 17.28 24.00
  A 0.71 0.67 8.7 0 0 17.79 24.65
  Q 21.50 25.78 20.90 21.80
  A 0.44 0.42 85.9 0 1 21.32 21.29"
/>
<path stroke="#e29996" vector-effect="non-scaling-stroke" d="
  M 47.68 44.84
  C 45.88 46.78 43.69 49.38 42.20 51.55
  A 0.67 0.61 43.3 0 0 42.26 52.32
  L 47.69 59.10
  A 0.38 0.36 43.9 0 0 48.27 59.11
  L 53.76 51.92
  A 0.62 0.59 43.5 0 0 53.72 51.16
  L 48.32 44.87
  A 0.44 0.42 46.3 0 0 47.68 44.84"
/>
<path stroke="#e29996" vector-effect="non-scaling-stroke" d="
  M 79.78 44.76
  L 74.22 51.38
  A 0.60 0.57 46.4 0 0 74.22 52.13
  L 79.71 59.10
  A 0.37 0.37 0.0 0 0 80.29 59.10
  L 85.78 51.93
  A 0.60 0.58 43.0 0 0 85.74 51.18
  L 80.22 44.77
  A 0.30 0.28 44.5 0 0 79.78 44.76"
/>
<path stroke="#e29996" vector-effect="non-scaling-stroke" d="
  M 32.81 57.82
  A 0.48 0.47 43.0 0 0 32.78 57.21
  L 26.28 49.83
  A 0.41 0.40 44.2 0 0 25.66 49.83
  L 19.36 57.33
  A 0.62 0.58 46.8 0 0 19.36 58.09
  L 25.70 66.12
  A 0.37 0.37 -43.6 0 0 26.28 66.12
  L 32.81 57.82"
/>
<path stroke="#e29996" vector-effect="non-scaling-stroke" d="
  M 63.77 60.76
  L 58.22 67.38
  A 0.61 0.58 46.4 0 0 58.22 68.13
  L 63.71 75.10
  A 0.37 0.37 -45.4 0 0 64.29 75.10
  L 69.78 67.93
  A 0.60 0.58 43.0 0 0 69.74 67.18
  L 64.22 60.77
  A 0.31 0.29 45.1 0 0 63.77 60.76"
/>
<path stroke="#e29996" vector-effect="non-scaling-stroke" d="
  M 47.69 76.86
  C 46.05 78.81 43.54 81.30 42.22 83.51
  A 0.73 0.65 42.6 0 0 42.30 84.30
  L 47.70 91.10
  A 0.37 0.36 44.2 0 0 48.28 91.10
  L 53.77 83.93
  A 0.60 0.60 43.8 0 0 53.75 83.18
  L 48.31 76.87
  A 0.42 0.40 44.7 0 0 47.69 76.86"
/>
<path stroke="#e29996" vector-effect="non-scaling-stroke" d="
  M 79.78 76.76
  L 74.21 83.39
  A 0.60 0.57 46.4 0 0 74.21 84.14
  L 79.71 91.10
  A 0.37 0.37 0.0 0 0 80.29 91.10
  L 85.78 83.93
  A 0.60 0.58 43.0 0 0 85.74 83.18
  L 80.22 76.77
  A 0.29 0.29 45.7 0 0 79.78 76.76"
/>
<path stroke="#e29996" vector-effect="non-scaling-stroke" d="
  M 101.75 101.74
  L 95.25 110.11
  A 0.58 0.57 43.7 0 0 95.27 110.84
  L 101.70 118.15
  A 0.42 0.41 43.8 0 0 102.33 118.15
  L 108.69 110.62
  A 0.60 0.58 46.0 0 0 108.69 109.88
  L 102.29 101.75
  A 0.34 0.34 45.5 0 0 101.75 101.74"
/>
<path stroke="#e29996" vector-effect="non-scaling-stroke" d="
  M 47.75 108.93
  C 45.90 111.11 43.85 113.74 42.24 116.10
  A 0.68 0.62 42.4 0 0 42.31 116.88
  L 47.72 123.14
  A 0.41 0.40 43.8 0 0 48.34 123.13
  L 53.78 116.62
  A 0.61 0.58 46.0 0 0 53.77 115.87
  L 48.36 108.97
  A 0.41 0.38 46.5 0 0 47.75 108.93"
/>
<path stroke="#e29996" vector-effect="non-scaling-stroke" d="
  M 79.83 108.85
  L 74.22 116.09
  A 0.63 0.56 44.5 0 0 74.27 116.84
  L 79.72 123.18
  A 0.41 0.40 -45.5 0 0 80.33 123.16
  L 85.82 116.73
  A 0.77 0.73 -47.1 0 0 85.81 115.71
  Q 82.57 112.47 80.36 108.88
  A 0.33 0.32 -41.5 0 0 79.83 108.85"
/>
<path stroke="#e29996" vector-effect="non-scaling-stroke" d="
  M 98.78 146.24
  Q 103.83 135.84 106.10 124.47
  A 0.52 0.42 -82.3 0 0 105.72 123.85
  L 102.85 123.82
  A 0.69 0.53 -83.5 0 0 102.29 124.40
  Q 100.30 136.50 93.78 146.84
  A 1.11 1.01 -39.6 0 0 93.65 147.74
  Q 94.09 149.14 95.13 150.17
  A 1.27 1.14 -20.3 0 0 95.99 150.51
  L 109.98 150.48
  A 0.58 0.50 0.5 0 0 110.56 149.99
  L 110.64 143.95
  A 0.76 0.63 9.6 0 0 110.09 143.31
  Q 106.41 142.27 107.22 146.08
  A 0.44 0.40 82.9 0 1 106.85 146.61
  L 99.07 146.71
  A 0.33 0.32 -77.4 0 1 98.78 146.24"
/>
</g>
<path fill="#010101" fill-opacity="0.137" d="
  M 112.28 9.53
  C 114.55 9.02 117.49 14.39 118.17 16.10
  A 0.64 0.49 76.5 0 0 118.67 16.51
  L 118.86 16.51
  A 0.24 0.19 -4.2 0 1 119.09 16.67
  C 119.63 19.16 120.48 21.27 120.48 23.84
  Q 120.51 82.12 120.39 140.40
  A 0.59 0.14 -42.0 0 1 120.13 140.78
  Q 120.00 140.90 120.07 141.17
  Q 121.03 144.82 119.66 148.18
  A 1.86 1.01 -21.2 0 1 119.05 148.90
  Q 117.93 149.73 118.37 151.08
  A 1.24 0.97 -45.9 0 1 118.28 151.95
  L 116.69 155.06
  A 1.74 0.81 -75.1 0 1 116.09 155.78
  C 113.24 157.41 109.98 160.01 106.24 159.75
  A 1.41 1.37 28.3 0 0 105.34 160.01
  Q 103.89 161.06 103.25 161.06
  Q 85.66 160.88 68.06 160.65
  A 1.78 1.05 -48.9 0 0 67.16 160.95
  Q 66.25 161.54 65.24 160.98
  Q 64.74 160.70 64.32 160.70
  L 20.57 160.67
  A 0.77 0.56 76.5 0 1 19.98 160.17
  Q 19.72 159.49 18.70 159.65
  A 0.77 0.72 67.8 0 1 17.99 159.32
  Q 17.33 158.38 15.91 158.69
  A 1.06 0.91 -28.1 0 1 15.05 158.50
  C 9.34 153.59 7.08 148.06 7.06 140.22
  Q 6.94 90.33 7.02 40.43
  C 7.03 38.11 8.21 35.59 7.56 32.96
  Q 6.30 27.91 7.53 23.24
  C 8.09 21.12 7.66 19.05 8.68 16.99
  C 9.21 15.92 10.66 15.22 10.98 13.78
  A 1.73 0.88 89.5 0 1 11.40 12.93
  L 15.38 9.11
  Q 15.47 9.01 16.23 8.68
  L 19.35 7.33
  Q 20.01 7.05 20.25 7.05
  C 22.69 7.02 24.72 6.04 27.03 6.04
  Q 66.11 5.99 105.20 6.02
  A 0.55 0.41 3.7 0 1 105.77 6.50
  L 105.71 6.83
  A 0.32 0.24 -80.6 0 0 105.89 7.18
  C 106.22 7.22 109.85 7.12 109.85 7.78
  A 0.36 0.33 84.8 0 0 110.25 8.14
  Q 111.67 7.84 111.80 9.20
  A 0.39 0.39 -9.9 0 0 112.28 9.53
  Z
  M 16.46 15.50
  Q 13.55 18.44 13.51 21.32
  Q 13.09 56.84 13.76 147.50
  Q 14.85 152.35 19.89 155.10
  C 17.17 156.15 20.31 156.07 20.60 156.64
  A 0.88 0.65 73.4 0 0 21.25 157.13
  Q 62.83 157.47 104.42 157.07
  C 107.39 157.04 109.65 155.71 112.26 154.57
  A 0.39 0.34 83.1 0 0 112.48 154.25
  L 112.49 154.02
  A 0.42 0.35 10.7 0 1 113.00 153.73
  Q 113.57 153.88 113.56 153.23
  A 1.04 0.90 71.6 0 1 113.89 152.43
  Q 115.10 151.40 115.19 149.95
  Q 115.30 148.30 114.53 149.76
  Q 113.05 152.61 111.25 153.14
  Q 114.48 149.76 114.49 146.93
  Q 114.52 85.44 114.49 23.95
  C 114.49 15.20 110.19 12.76 101.73 12.75
  Q 61.77 12.74 21.81 12.77
  Q 19.35 12.77 16.46 15.50
  Z
  M 115.01 41.67
  A 0.12 0.12 0.0 0 0 114.89 41.55
  L 114.87 41.55
  A 0.12 0.12 0.0 0 0 114.75 41.67
  L 114.75 97.09
  A 0.12 0.12 0.0 0 0 114.87 97.21
  L 114.89 97.21
  A 0.12 0.12 0.0 0 0 115.01 97.09
  L 115.01 41.67
  Z
  M 114.80 129.06
  L 114.80 145.43
  Q 114.80 146.13 114.84 145.43
  Q 115.26 137.24 114.84 129.06
  Q 114.80 128.38 114.80 129.06
  Z"
/>
<path fill="#ffffff" d="
  M 111.25 153.14
  Q 108.29 155.23 105.00 155.25
  Q 73.56 155.43 19.89 155.10
  Q 14.85 152.35 13.76 147.50
  Q 14.18 84.12 14.00 20.75
  Q 14.00 19.51 16.46 15.50
  Q 19.35 12.77 21.81 12.77
  Q 61.77 12.74 101.73 12.75
  C 110.19 12.76 114.49 15.20 114.49 23.95
  Q 114.52 85.44 114.49 146.93
  Q 114.48 149.76 111.25 153.14
  Z
  M 21.32 21.29
  L 29.13 21.40
  A 0.33 0.31 -75.4 0 1 29.39 21.88
  Q 23.91 32.18 21.88 43.71
  A 0.46 0.42 -85.5 0 0 22.30 44.24
  L 25.14 44.17
  A 0.68 0.60 -85.8 0 0 25.72 43.60
  Q 27.71 31.51 34.22 21.16
  A 1.00 0.68 -48.7 0 0 34.33 20.26
  L 33.01 17.92
  A 1.04 0.72 -9.7 0 0 32.17 17.53
  L 17.89 17.57
  A 0.54 0.51 -0.6 0 0 17.36 18.08
  L 17.28 24.00
  A 0.71 0.67 8.7 0 0 17.79 24.65
  Q 21.50 25.78 20.90 21.80
  A 0.44 0.42 85.9 0 1 21.32 21.29
  Z
  M 47.68 44.84
  C 45.88 46.78 43.69 49.38 42.20 51.55
  A 0.67 0.61 43.3 0 0 42.26 52.32
  L 47.69 59.10
  A 0.38 0.36 43.9 0 0 48.27 59.11
  L 53.76 51.92
  A 0.62 0.59 43.5 0 0 53.72 51.16
  L 48.32 44.87
  A 0.44 0.42 46.3 0 0 47.68 44.84
  Z
  M 79.78 44.76
  L 74.22 51.38
  A 0.60 0.57 46.4 0 0 74.22 52.13
  L 79.71 59.10
  A 0.37 0.37 0.0 0 0 80.29 59.10
  L 85.78 51.93
  A 0.60 0.58 43.0 0 0 85.74 51.18
  L 80.22 44.77
  A 0.30 0.28 44.5 0 0 79.78 44.76
  Z
  M 32.81 57.82
  A 0.48 0.47 43.0 0 0 32.78 57.21
  L 26.28 49.83
  A 0.41 0.40 44.2 0 0 25.66 49.83
  L 19.36 57.33
  A 0.62 0.58 46.8 0 0 19.36 58.09
  L 25.70 66.12
  A 0.37 0.37 -43.6 0 0 26.28 66.12
  L 32.81 57.82
  Z
  M 63.77 60.76
  L 58.22 67.38
  A 0.61 0.58 46.4 0 0 58.22 68.13
  L 63.71 75.10
  A 0.37 0.37 -45.4 0 0 64.29 75.10
  L 69.78 67.93
  A 0.60 0.58 43.0 0 0 69.74 67.18
  L 64.22 60.77
  A 0.31 0.29 45.1 0 0 63.77 60.76
  Z
  M 47.69 76.86
  C 46.05 78.81 43.54 81.30 42.22 83.51
  A 0.73 0.65 42.6 0 0 42.30 84.30
  L 47.70 91.10
  A 0.37 0.36 44.2 0 0 48.28 91.10
  L 53.77 83.93
  A 0.60 0.60 43.8 0 0 53.75 83.18
  L 48.31 76.87
  A 0.42 0.40 44.7 0 0 47.69 76.86
  Z
  M 79.78 76.76
  L 74.21 83.39
  A 0.60 0.57 46.4 0 0 74.21 84.14
  L 79.71 91.10
  A 0.37 0.37 0.0 0 0 80.29 91.10
  L 85.78 83.93
  A 0.60 0.58 43.0 0 0 85.74 83.18
  L 80.22 76.77
  A 0.29 0.29 45.7 0 0 79.78 76.76
  Z
  M 101.75 101.74
  L 95.25 110.11
  A 0.58 0.57 43.7 0 0 95.27 110.84
  L 101.70 118.15
  A 0.42 0.41 43.8 0 0 102.33 118.15
  L 108.69 110.62
  A 0.60 0.58 46.0 0 0 108.69 109.88
  L 102.29 101.75
  A 0.34 0.34 45.5 0 0 101.75 101.74
  Z
  M 47.75 108.93
  C 45.90 111.11 43.85 113.74 42.24 116.10
  A 0.68 0.62 42.4 0 0 42.31 116.88
  L 47.72 123.14
  A 0.41 0.40 43.8 0 0 48.34 123.13
  L 53.78 116.62
  A 0.61 0.58 46.0 0 0 53.77 115.87
  L 48.36 108.97
  A 0.41 0.38 46.5 0 0 47.75 108.93
  Z
  M 79.83 108.85
  L 74.22 116.09
  A 0.63 0.56 44.5 0 0 74.27 116.84
  L 79.72 123.18
  A 0.41 0.40 -45.5 0 0 80.33 123.16
  L 85.82 116.73
  A 0.77 0.73 -47.1 0 0 85.81 115.71
  Q 82.57 112.47 80.36 108.88
  A 0.33 0.32 -41.5 0 0 79.83 108.85
  Z
  M 98.78 146.24
  Q 103.83 135.84 106.10 124.47
  A 0.52 0.42 -82.3 0 0 105.72 123.85
  L 102.85 123.82
  A 0.69 0.53 -83.5 0 0 102.29 124.40
  Q 100.30 136.50 93.78 146.84
  A 1.11 1.01 -39.6 0 0 93.65 147.74
  Q 94.09 149.14 95.13 150.17
  A 1.27 1.14 -20.3 0 0 95.99 150.51
  L 109.98 150.48
  A 0.58 0.50 0.5 0 0 110.56 149.99
  L 110.64 143.95
  A 0.76 0.63 9.6 0 0 110.09 143.31
  Q 106.41 142.27 107.22 146.08
  A 0.44 0.40 82.9 0 1 106.85 146.61
  L 99.07 146.71
  A 0.33 0.32 -77.4 0 1 98.78 146.24
  Z"
/>
<path fill="#f2f4f5" fill-opacity="0.973" d="
  M 16.46 15.50
  Q 14.00 19.51 14.00 20.75
  Q 14.18 84.12 13.76 147.50
  Q 13.09 56.84 13.51 21.32
  Q 13.55 18.44 16.46 15.50
  Z"
/>
<path fill="#c4332c" d="
  M 20.90 21.80
  Q 21.50 25.78 17.79 24.65
  A 0.71 0.67 8.7 0 1 17.28 24.00
  L 17.36 18.08
  A 0.54 0.51 -0.6 0 1 17.89 17.57
  L 32.17 17.53
  A 1.04 0.72 -9.7 0 1 33.01 17.92
  L 34.33 20.26
  A 1.00 0.68 -48.7 0 1 34.22 21.16
  Q 27.71 31.51 25.72 43.60
  A 0.68 0.60 -85.8 0 1 25.14 44.17
  L 22.30 44.24
  A 0.46 0.42 -85.5 0 1 21.88 43.71
  Q 23.91 32.18 29.39 21.88
  A 0.33 0.31 -75.4 0 0 29.13 21.40
  L 21.32 21.29
  A 0.44 0.42 85.9 0 0 20.90 21.80
  Z"
/>
<path fill="#c4332c" d="
  M 42.20 51.55
  C 43.69 49.38 45.88 46.78 47.68 44.84
  A 0.44 0.42 46.3 0 1 48.32 44.87
  L 53.72 51.16
  A 0.62 0.59 43.5 0 1 53.76 51.92
  L 48.27 59.11
  A 0.38 0.36 43.9 0 1 47.69 59.10
  L 42.26 52.32
  A 0.67 0.61 43.3 0 1 42.20 51.55
  Z"
/>
<path fill="#c4332c" d="
  M 79.78 44.76
  A 0.30 0.28 44.5 0 1 80.22 44.77
  L 85.74 51.18
  A 0.60 0.58 43.0 0 1 85.78 51.93
  L 80.29 59.10
  A 0.37 0.37 0.0 0 1 79.71 59.10
  L 74.22 52.13
  A 0.60 0.57 46.4 0 1 74.22 51.38
  L 79.78 44.76
  Z"
/>
<path fill="#c4332c" d="
  M 32.81 57.82
  L 26.28 66.12
  A 0.37 0.37 -41.8 0 1 25.70 66.12
  L 19.36 58.09
  A 0.62 0.58 46.8 0 1 19.36 57.33
  L 25.66 49.83
  A 0.41 0.40 44.2 0 1 26.28 49.83
  L 32.78 57.21
  A 0.48 0.47 43.0 0 1 32.81 57.82
  Z"
/>
<path fill="#c4332c" d="
  M 63.77 60.76
  A 0.31 0.29 45.1 0 1 64.22 60.77
  L 69.74 67.18
  A 0.60 0.58 43.0 0 1 69.78 67.93
  L 64.29 75.10
  A 0.37 0.37 -47.0 0 1 63.71 75.10
  L 58.22 68.13
  A 0.61 0.58 46.4 0 1 58.22 67.38
  L 63.77 60.76
  Z"
/>
<path fill="#c4332c" d="
  M 42.22 83.51
  C 43.54 81.30 46.05 78.81 47.69 76.86
  A 0.42 0.40 44.7 0 1 48.31 76.87
  L 53.75 83.18
  A 0.60 0.60 43.8 0 1 53.77 83.93
  L 48.28 91.10
  A 0.37 0.36 44.2 0 1 47.70 91.10
  L 42.30 84.30
  A 0.73 0.65 42.6 0 1 42.22 83.51
  Z"
/>
<path fill="#c4332c" d="
  M 79.78 76.76
  A 0.29 0.29 45.7 0 1 80.22 76.77
  L 85.74 83.18
  A 0.60 0.58 43.0 0 1 85.78 83.93
  L 80.29 91.10
  A 0.37 0.37 -0.0 0 1 79.71 91.10
  L 74.21 84.14
  A 0.60 0.57 46.4 0 1 74.21 83.39
  L 79.78 76.76
  Z"
/>
<path fill="#c4332c" d="
  M 101.75 101.74
  A 0.34 0.34 45.5 0 1 102.29 101.75
  L 108.69 109.88
  A 0.60 0.58 46.0 0 1 108.69 110.62
  L 102.33 118.15
  A 0.42 0.41 43.8 0 1 101.70 118.15
  L 95.27 110.84
  A 0.58 0.57 43.7 0 1 95.25 110.11
  L 101.75 101.74
  Z"
/>
<path fill="#c4332c" d="
  M 42.24 116.10
  C 43.85 113.74 45.90 111.11 47.75 108.93
  A 0.41 0.38 46.5 0 1 48.36 108.97
  L 53.77 115.87
  A 0.61 0.58 46.0 0 1 53.78 116.62
  L 48.34 123.13
  A 0.41 0.40 43.8 0 1 47.72 123.14
  L 42.31 116.88
  A 0.68 0.62 42.4 0 1 42.24 116.10
  Z"
/>
<path fill="#c4332c" d="
  M 79.83 108.85
  A 0.33 0.32 -41.5 0 1 80.36 108.88
  Q 82.57 112.47 85.81 115.71
  A 0.77 0.73 -47.1 0 1 85.82 116.73
  L 80.33 123.16
  A 0.41 0.40 -45.5 0 1 79.72 123.18
  L 74.27 116.84
  A 0.63 0.56 44.5 0 1 74.22 116.09
  L 79.83 108.85
  Z"
/>
<path fill="#c4332c" d="
  M 99.07 146.71
  L 106.85 146.61
  A 0.44 0.40 82.9 0 0 107.22 146.08
  Q 106.41 142.27 110.09 143.31
  A 0.76 0.63 9.6 0 1 110.64 143.95
  L 110.56 149.99
  A 0.58 0.50 0.5 0 1 109.98 150.48
  L 95.99 150.51
  A 1.27 1.14 -20.3 0 1 95.13 150.17
  Q 94.09 149.14 93.65 147.74
  A 1.11 1.01 -39.6 0 1 93.78 146.84
  Q 100.30 136.50 102.29 124.40
  A 0.69 0.53 -83.5 0 1 102.85 123.82
  L 105.72 123.85
  A 0.52 0.42 -82.3 0 1 106.10 124.47
  Q 103.83 135.84 98.78 146.24
  A 0.33 0.32 -77.4 0 0 99.07 146.71
  Z"
/>
<path fill="#020101" fill-opacity="0.255" d="
  M 19.89 155.10
  Q 73.56 155.43 105.00 155.25
  Q 108.29 155.23 111.25 153.14
  Q 113.05 152.61 114.53 149.76
  Q 115.30 148.30 115.19 149.95
  Q 115.10 151.40 113.89 152.43
  A 1.04 0.90 71.6 0 0 113.56 153.23
  Q 113.57 153.88 113.00 153.73
  A 0.42 0.35 10.7 0 0 112.49 154.02
  L 112.48 154.25
  A 0.39 0.34 83.1 0 1 112.26 154.57
  C 109.65 155.71 107.39 157.04 104.42 157.07
  Q 62.83 157.47 21.25 157.13
  A 0.88 0.65 73.4 0 1 20.60 156.64
  C 20.31 156.07 17.17 156.15 19.89 155.10
  Z"
/>
</svg>
