<?xml version="1.0" encoding="utf-8"?>
<!-- Generator: Adobe Illustrator 27.0.1, SVG Export Plug-In . SVG Version: 6.00 Build 0)  -->
<svg version="1.1" id="Слой_1" xmlns="http://www.w3.org/2000/svg" xmlns:xlink="http://www.w3.org/1999/xlink" x="0px" y="0px"
	 viewBox="0 0 128 168" style="enable-background:new 0 0 128 168;" xml:space="preserve">
<style type="text/css">
	.st0{fill:#D8D8D8;}
	.st1{fill:#AAAAAA;}
	.st2{fill:#FFFFFF;}
	.st3{fill:#C4332C;}
</style>
<g>
	<path class="st0" d="M107.9,161.6H20.1c-6.9,0-12.4-5.6-12.4-12.4V18.8c0-6.9,5.6-12.4,12.4-12.4h87.8c6.9,0,12.4,5.6,12.4,12.4
		v130.5C120.4,156.1,114.8,161.6,107.9,161.6z"/>
	<path class="st1" d="M106.9,157.8H21.1c-5.5,0-9.9-4.4-9.9-9.9V19.8c0-5.5,4.4-9.9,9.9-9.9h85.8c5.5,0,9.9,4.4,9.9,9.9v128.1
		C116.8,153.3,112.4,157.8,106.9,157.8z"/>
	<path class="st2" d="M106.6,154.8H21.4c-4.4,0-8-3.6-8-8V20.9c0-4.4,3.6-8,8-8h85.2c4.4,0,8,3.6,8,8v125.9
		C114.6,151.1,111,154.8,106.6,154.8z"/>
</g>
<g>
	<path class="st3" d="M30.9,39.9c-0.4-2.7,0.6-3.6,3.1-2.8c0.3,0.1,0.5,0.4,0.5,0.7v5.6c0,0.3-0.3,0.5-0.6,0.5H18
		c-0.4,0-0.7-0.3-0.7-0.7C17,33.7,24.1,32,29.7,26.5c5.1-4.9-3.7-6.2-6.6-5.8c-1.8,0.3-2.5,1.3-2.2,3.1c0.3,1.7-0.7,2.5-2.8,2.3
		c-0.3,0-0.6-0.2-0.6-0.5C15,16,30.3,14.3,33.8,21.3c4.1,8.2-10.8,11.2-12.5,18.6c0,0.3,0.1,0.6,0.4,0.5c0,0,8.7,0,8.7,0
		C30.7,40.4,30.9,40.3,30.9,39.9C30.9,40,30.9,40,30.9,39.9z"/>
	<path class="st3" d="M63.8,44.8c0.1-0.1,0.3-0.1,0.4,0l0,0l5.5,6.4c0.2,0.2,0.2,0.5,0,0.8l-5.5,7.2c-0.1,0.2-0.4,0.2-0.5,0.1
		c0,0,0,0-0.1-0.1l-5.5-7c-0.2-0.2-0.2-0.5,0-0.8L63.8,44.8z"/>
	<path class="st3" d="M32.8,57.8l-6.5,8.3c-0.1,0.2-0.3,0.2-0.5,0.1c0,0,0,0-0.1-0.1l-6.3-8c-0.2-0.2-0.2-0.5,0-0.8l6.3-7.5
		c0.1-0.2,0.4-0.2,0.6,0c0,0,0,0,0.1,0l6.5,7.4C32.9,57.4,32.9,57.6,32.8,57.8z"/>
	<path class="st3" d="M101.8,101.7c0.1-0.1,0.3-0.2,0.5-0.1c0,0,0,0,0.1,0.1l6.4,8.1c0.2,0.2,0.2,0.5,0,0.8l-6.4,7.5
		c-0.1,0.2-0.4,0.2-0.6,0l0,0l-6.4-7.4c-0.2-0.2-0.2-0.5,0-0.7L101.8,101.7z"/>
	<path class="st3" d="M63.8,108.8c0.1-0.1,0.3-0.1,0.4,0c0,0,0,0,0,0.1l5.5,7c0.2,0.2,0.2,0.5,0,0.8l-5.4,6.5
		c-0.1,0.2-0.4,0.2-0.6,0l0,0l-5.5-6.3c-0.2-0.2-0.2-0.5,0-0.8L63.8,108.8z"/>
	<path class="st3" d="M107,128c0.1-0.3-0.1-0.4-0.3-0.4c0,0-9,0-9,0c-0.3,0-0.6,0.2-0.6,0.5l-0.1,2.4c0,0.3-0.2,0.5-0.5,0.5h-2.4
		c-0.3,0-0.5-0.2-0.5-0.5l0,0l0.1-5.9c0-0.3,0.2-0.5,0.5-0.5h16c0.3,0,0.5,0.2,0.6,0.6c0.2,7.4-4.1,10.6-10.1,15
		c-11.2,8.2,7.4,11,6.6,3.9c0-0.4,0.1-0.7,0.3-0.9c0.7-0.6,1.5-0.9,2.5-0.7c0.3,0,0.5,0.3,0.6,0.6c1.9,14.8-24.9,8-15-3.2
		C99,135.5,104.4,133.9,107,128z"/>
</g>
</svg>
