<?xml version="1.0" encoding="utf-8"?>
<!-- Generator: Adobe Illustrator 27.0.1, SVG Export Plug-In . SVG Version: 6.00 Build 0)  -->
<svg version="1.1" id="Слой_1" xmlns="http://www.w3.org/2000/svg" xmlns:xlink="http://www.w3.org/1999/xlink" x="0px" y="0px"
	 viewBox="0 0 128 168" style="enable-background:new 0 0 128 168;" xml:space="preserve">
<style type="text/css">
	.st0{fill:#D8D8D8;}
	.st1{fill:#AAAAAA;}
	.st2{fill:#FFFFFF;}
	.st3{fill:#C4332C;}
</style>
<g>
	<path class="st0" d="M107.9,161.7H20.1c-6.9,0-12.4-5.6-12.4-12.4V18.8c0-6.9,5.6-12.4,12.4-12.4h87.8c6.9,0,12.4,5.6,12.4,12.4
		v130.5C120.3,156.1,114.8,161.7,107.9,161.7z"/>
	<path class="st1" d="M106.9,157.8H21.1c-5.5,0-9.9-4.4-9.9-9.9V19.8c0-5.5,4.4-9.9,9.9-9.9h85.8c5.5,0,9.9,4.4,9.9,9.9v128.1
		C116.8,153.4,112.4,157.8,106.9,157.8z"/>
	<path class="st2" d="M106.6,154.8H21.4c-4.4,0-8-3.6-8-8V20.9c0-4.4,3.6-8,8-8h85.2c4.4,0,8,3.6,8,8v125.9
		C114.6,151.2,111,154.8,106.6,154.8z"/>
</g>
<g>
	<path class="st3" d="M19.9,29.4c-3.6-4.5-1.9-9.8,3.3-11.7c7.2-2.5,14.1,5.3,8.4,11.7c-0.2,0.2-0.2,0.5,0,0.7l0,0
		c9,7.3-2.6,19-11.4,12.5c-4.3-3.2-4.2-8.8-0.4-12.5C20.1,29.9,20.1,29.6,19.9,29.4z M30.2,24.5c-0.2-4.9-8.6-4.9-8.8,0
		C21.6,29.4,30,29.4,30.2,24.5z M31.2,36.3c-0.4-6.1-10.5-5.7-10.6,0.3c0,2.4,2.4,4.4,5.4,4.3C28.9,40.9,31.3,38.8,31.2,36.3z"/>
	<path class="st2" d="M25.9,20.8c5.8,0.2,5.8,7.2,0,7.4C20.1,28,20.1,21,25.9,20.8z"/>
	<path class="st2" d="M25.8,31.8c7,0,7.2,8.8,0.2,9.2C19,41,18.8,32.2,25.8,31.8z"/>
	<path class="st3" d="M42.2,51.5c1.3-2.2,3.9-4.8,5.5-6.7c0.1-0.2,0.4-0.2,0.6,0l0,0l5.4,6.3c0.2,0.2,0.2,0.5,0,0.8l-5.5,7.2
		c-0.1,0.2-0.3,0.2-0.5,0.1c0,0,0,0-0.1-0.1l-5.4-6.8C42.1,52.1,42,51.8,42.2,51.5z"/>
	<path class="st3" d="M79.8,44.8c0.1-0.1,0.3-0.1,0.4,0l0,0l5.5,6.4c0.2,0.2,0.2,0.5,0,0.8l-5.5,7.2c-0.1,0.2-0.4,0.2-0.5,0.1
		c0,0,0,0-0.1-0.1l-5.5-7c-0.2-0.2-0.2-0.5,0-0.8L79.8,44.8z"/>
	<path class="st3" d="M33,57.6l-6.7,8.5c-0.1,0.2-0.4,0.2-0.5,0.1c0,0,0,0-0.1-0.1l-6.3-8c-0.2-0.2-0.2-0.6,0-0.8l6.3-7.5
		c0.1-0.2,0.4-0.2,0.6,0l0,0l6.7,7.5C33,57.5,33,57.6,33,57.6z"/>
	<path class="st3" d="M63.8,60.8c0.1-0.1,0.3-0.1,0.4,0l0,0l5.5,6.4c0.2,0.2,0.2,0.5,0,0.8l-5.5,7.2c-0.1,0.2-0.4,0.2-0.5,0.1
		c0,0,0,0-0.1-0.1l-5.5-7c-0.2-0.2-0.2-0.5,0-0.8L63.8,60.8z"/>
	<path class="st3" d="M42.2,83.5c1.3-2.2,3.8-4.7,5.5-6.7c0.1-0.2,0.4-0.2,0.6,0c0,0,0,0,0.1,0.1l5.4,6.3c0.2,0.2,0.2,0.5,0,0.8
		l-5.5,7c-0.1,0.2-0.4,0.2-0.5,0.1c0,0,0,0-0.1-0.1l-5.4-6.8C42.1,84.1,42.1,83.7,42.2,83.5z"/>
	<path class="st3" d="M79.8,76.8c0.1-0.1,0.3-0.1,0.4,0l0,0l5.5,6.4c0.2,0.2,0.2,0.5,0,0.8l-5.5,7.2c-0.1,0.2-0.4,0.2-0.5,0.1
		c0,0,0,0-0.1-0.1l-5.5-7c-0.2-0.2-0.2-0.5,0-0.8L79.8,76.8z"/>
	<path class="st3" d="M63.8,92.8c0.1-0.1,0.3-0.1,0.4,0c0,0,0,0,0.1,0.1l5.5,7c0.2,0.2,0.2,0.5,0,0.8l-5.4,6.5
		c-0.2,0.2-0.4,0.2-0.6,0l0,0l-5.4-6.3c-0.2-0.2-0.2-0.5,0-0.8L63.8,92.8z"/>
	<path class="st3" d="M101.7,101.7c0.1-0.2,0.3-0.2,0.5-0.1c0,0,0.1,0,0.1,0.1l6.4,8.1c0.2,0.2,0.2,0.5,0,0.7l-6.4,7.5
		c-0.2,0.2-0.4,0.2-0.6,0l0,0l-6.4-7.3c-0.2-0.2-0.2-0.5,0-0.7L101.7,101.7z"/>
	<path class="st3" d="M42.2,116.1c1.6-2.4,3.7-5,5.5-7.2c0.1-0.2,0.4-0.2,0.6,0c0,0,0,0,0.1,0.1l5.4,6.9c0.2,0.2,0.2,0.5,0,0.8
		l-5.4,6.5c-0.2,0.2-0.4,0.2-0.6,0l0,0l-5.4-6.3C42.1,116.6,42.1,116.3,42.2,116.1z"/>
	<path class="st3" d="M79.8,108.8c0.1-0.1,0.3-0.1,0.4,0c0,0,0,0,0.1,0.1l5.5,7c0.2,0.2,0.2,0.5,0,0.8l-5.4,6.5
		c-0.1,0.2-0.4,0.2-0.6,0l0,0l-5.5-6.3c-0.2-0.2-0.2-0.5,0-0.8L79.8,108.8z"/>
	<path class="st3" d="M96.4,137.9c-5.2-4.7-3.7-11.4,2.6-13.8c8.5-3.2,16.5,6.8,9.1,13.7c-0.2,0.2-0.2,0.5-0.1,0.7
		c2.7,3.6,2.7,6.7,0.2,9.4c-6.8,7.3-18.9-1.7-11.8-9.4C96.6,138.4,96.6,138.1,96.4,137.9L96.4,137.9z M107.5,131.6
		c0-2.5-2.4-4.5-5.4-4.5c-7,0.3-7.1,8.9,0.1,9.1C105.2,136.2,107.5,134.1,107.5,131.6z M106.4,143.5c-0.2-4.9-8.4-4.9-8.6,0l0,0
		C98,148.4,106.3,148.4,106.4,143.5L106.4,143.5z"/>
	<path class="st2" d="M102.1,127c7,0.1,7.1,8.9,0.1,9.2C95.1,136.1,95.1,127.3,102.1,127z"/>
	<path class="st2" d="M102.1,139.8c5.7,0.1,5.7,7.2,0,7.4C96.4,147.1,96.4,140,102.1,139.8z"/>
</g>
</svg>
