<?xml version="1.0" encoding="utf-8"?>
<!-- Generator: Adobe Illustrator 27.0.1, SVG Export Plug-In . SVG Version: 6.00 Build 0)  -->
<svg version="1.1" id="Слой_1" xmlns="http://www.w3.org/2000/svg" xmlns:xlink="http://www.w3.org/1999/xlink" x="0px" y="0px"
	 viewBox="0 0 128 168" style="enable-background:new 0 0 128 168;" xml:space="preserve">
<style type="text/css">
	.st0{fill:#D8D8D8;}
	.st1{fill:#AAAAAA;}
	.st2{fill:#FFFFFF;}
	.st3{fill:#C4332C;}
</style>
<g>
	<path class="st0" d="M106.9,161.6H19.1c-6.9,0-12.4-5.6-12.4-12.4V18.7c0-6.9,5.6-12.4,12.4-12.4h87.8c6.9,0,12.4,5.6,12.4,12.4
		v130.5C119.3,156,113.7,161.6,106.9,161.6z"/>
	<path class="st1" d="M105.9,157.8H20.1c-5.5,0-9.9-4.4-9.9-9.9V19.7c0-5.5,4.4-9.9,9.9-9.9h85.8c5.5,0,9.9,4.4,9.9,9.9v128.1
		C115.8,153.3,111.4,157.8,105.9,157.8z"/>
	<path class="st2" d="M105.6,154.7H20.4c-4.4,0-8-3.6-8-8V20.9c0-4.4,3.6-8,8-8h85.2c4.4,0,8,3.6,8,8v125.9
		C113.5,151.1,110,154.7,105.6,154.7z"/>
</g>
<g>
	<path class="st3" d="M22.2,21.3l0.2,2.4c0,0.2,0.2,0.4,0.5,0.3H23c3.6-1.2,7-0.1,9.3,3.1c8.6,12.1-8.3,25.3-14.9,11.6
		c-0.1-0.3-0.1-0.6,0.2-0.8c0.9-0.6,2.1-1.2,3-0.4c5.1,8.4,12.9,0,10.1-6.7c-1.6-3.9-5.6-5.4-8.9-2c-0.2,0.2-0.5,0.3-0.8,0.3
		c-0.7-0.2-1.3-0.5-1.8-1.1c-0.2-0.2-0.3-0.5-0.3-0.9v-9.4c0-0.3,0.2-0.5,0.5-0.5h11.8c0.3,0,0.6,0.2,0.6,0.5c0.2,0.9,0.2,1.7,0,2.6
		c-0.1,0.3-0.3,0.5-0.6,0.5L23,20.9C22.5,20.8,22.2,21,22.2,21.3L22.2,21.3z"/>
	<path class="st3" d="M42.2,51.5c1.3-2.2,3.9-4.8,5.5-6.7c0.1-0.2,0.4-0.2,0.6,0c0,0,0,0,0.1,0.1l5.4,6.3c0.2,0.2,0.2,0.5,0,0.8
		l-5.5,7.2c-0.1,0.2-0.3,0.2-0.5,0.1c0,0,0,0-0.1-0.1l-5.4-6.8C42.1,52.1,42,51.8,42.2,51.5z"/>
	<path class="st3" d="M79.8,44.8c0.1-0.1,0.3-0.1,0.4,0l0,0l5.5,6.4c0.2,0.2,0.2,0.5,0,0.8l-5.5,7.2c-0.1,0.2-0.4,0.2-0.5,0.1
		c0,0,0,0-0.1-0.1l-5.5-6.9c-0.2-0.2-0.2-0.6,0-0.8L79.8,44.8z"/>
	<path class="st3" d="M33,57.6l-6.7,8.5c-0.1,0.2-0.4,0.2-0.5,0.1c0,0,0,0-0.1-0.1l-6.3-8c-0.2-0.2-0.2-0.5,0-0.8l6.3-7.5
		c0.1-0.2,0.4-0.2,0.6,0l0,0l6.7,7.5C33,57.5,33,57.5,33,57.6z"/>
	<path class="st3" d="M62.8,76.8c0.1-0.1,0.3-0.1,0.4,0l0,0l5.5,6.4c0.2,0.2,0.2,0.5,0,0.8l-5.4,7c-0.1,0.2-0.4,0.2-0.5,0.1
		c0,0,0,0-0.1-0.1l-5.5-6.9c-0.2-0.2-0.2-0.5,0-0.8L62.8,76.8z"/>
	<path class="st3" d="M101.7,101.7c0.1-0.2,0.3-0.2,0.5-0.1c0,0,0.1,0,0.1,0.1l6.4,8.1c0.2,0.2,0.2,0.5,0,0.8l-6.4,7.5
		c-0.1,0.2-0.4,0.2-0.6,0l0,0l-6.4-7.3c-0.2-0.2-0.2-0.5,0-0.7L101.7,101.7z"/>
	<path class="st3" d="M42.2,116.1c1.6-2.4,3.7-5,5.5-7.2c0.1-0.2,0.4-0.2,0.6,0c0,0,0,0,0.1,0.1l5.4,6.9c0.2,0.2,0.2,0.5,0,0.8
		l-5.4,6.5c-0.1,0.2-0.4,0.2-0.6,0.1c0,0,0,0-0.1,0l-5.4-6.3C42.1,116.6,42.1,116.3,42.2,116.1z"/>
	<path class="st3" d="M79.8,108.8c0.1-0.1,0.3-0.1,0.4,0c0,0,0,0,0.1,0l5.5,7c0.2,0.2,0.2,0.5,0,0.8l-5.5,6.5
		c-0.1,0.2-0.4,0.2-0.6,0l0,0l-5.4-6.3c-0.2-0.2-0.2-0.5,0-0.8L79.8,108.8z"/>
	<path class="st3" d="M105.8,146.7l-0.1-2.4c0-0.2-0.2-0.4-0.5-0.3h-0.1c-10.8,3.8-15.4-12.5-8-18.4c5-3.9,11.2-1.7,13.6,3.8
		c0.1,0.3,0,0.7-0.2,0.8l-2.1,1c-0.2,0.1-0.6,0-0.7-0.3c-1.4-2.8-3.6-4-6.7-3.5c-0.3,0.1-0.6,0.2-0.9,0.4c-7.5,7.1,0.4,18,6.2,11.5
		c0.2-0.2,0.5-0.4,0.8-0.3c1,0.3,2.2,0.8,2.2,2c0,0,0,9.4,0,9.4c0,0.3-0.2,0.5-0.5,0.5c-0.1,0-11.8,0-11.8,0c-0.3,0-0.6-0.2-0.6-0.5
		c-0.2-0.9-0.2-1.7,0-2.6c0.1-0.3,0.3-0.5,0.6-0.5l8.2-0.1C105.5,147.2,105.8,147,105.8,146.7L105.8,146.7z"/>
</g>
</svg>
