<?xml version="1.0" encoding="utf-8"?>
<!-- Generator: Adobe Illustrator 27.0.1, SVG Export Plug-In . SVG Version: 6.00 Build 0)  -->
<svg version="1.1" id="Слой_1" xmlns="http://www.w3.org/2000/svg" xmlns:xlink="http://www.w3.org/1999/xlink" x="0px" y="0px"
	 viewBox="0 0 128 168" style="enable-background:new 0 0 128 168;" xml:space="preserve">
<style type="text/css">
	.st0{fill:#D8D8D8;}
	.st1{fill:#AAAAAA;}
	.st2{fill:#FFFFFF;}
	.st3{fill:#C4332C;}
</style>
<g>
	<path class="st0" d="M108,162.5H20.1c-6.9,0-12.4-5.6-12.4-12.4V19.6c0-6.9,5.6-12.4,12.4-12.4H108c6.9,0,12.4,5.6,12.4,12.4v130.5
		C120.4,156.9,114.8,162.5,108,162.5z"/>
	<path class="st1" d="M107,158.6H21.2c-5.5,0-9.9-4.4-9.9-9.9V20.6c0-5.5,4.4-9.9,9.9-9.9H107c5.5,0,9.9,4.4,9.9,9.9v128.1
		C116.9,154.2,112.4,158.6,107,158.6z"/>
	<path class="st2" d="M106.7,155.6H21.5c-4.4,0-8-3.6-8-8V21.7c0-4.4,3.6-8,8-8h85.2c4.4,0,8,3.6,8,8v125.9
		C114.6,152,111.1,155.6,106.7,155.6z"/>
</g>
<g>
	<path class="st3" d="M20.9,21.8c0.4,2.7-0.6,3.6-3.1,2.9c-0.3-0.1-0.5-0.4-0.5-0.6l0.1-5.9c0-0.3,0.2-0.5,0.5-0.5h14.3
		c0.4,0,0.7,0.1,0.8,0.4l1.3,2.3c0.1,0.2,0.1,0.6-0.1,0.9c-4.3,6.9-7.2,14.4-8.5,22.4c-0.1,0.3-0.3,0.6-0.6,0.6l-2.8,0.1
		c-0.2,0-0.4-0.3-0.4-0.5c1.4-7.7,3.9-15,7.5-21.8c0.1-0.3,0-0.4-0.2-0.4c0,0-7.8-0.1-7.8-0.1C21.1,21.3,20.9,21.5,20.9,21.8
		C20.9,21.7,20.9,21.8,20.9,21.8z"/>
	<path class="st3" d="M42.2,51.5c1.5-2.2,3.7-4.8,5.5-6.7c0.2-0.2,0.4-0.2,0.6,0l0,0l5.4,6.3c0.2,0.2,0.2,0.5,0,0.8l-5.5,7.2
		c-0.1,0.2-0.4,0.2-0.5,0.1c0,0,0,0-0.1-0.1l-5.4-6.8C42.1,52.1,42,51.8,42.2,51.5z"/>
	<path class="st3" d="M79.8,44.8c0.1-0.1,0.3-0.1,0.4,0l0,0l5.5,6.4c0.2,0.2,0.2,0.5,0,0.8l-5.5,7.2c-0.1,0.2-0.4,0.2-0.5,0.1
		c0,0,0,0-0.1-0.1l-5.5-7c-0.2-0.2-0.2-0.5,0-0.8L79.8,44.8z"/>
	<path class="st3" d="M32.8,57.8l-6.5,8.3c-0.1,0.2-0.4,0.2-0.5,0.1c0,0,0,0-0.1-0.1l-6.3-8c-0.2-0.2-0.2-0.6,0-0.8l6.3-7.5
		c0.1-0.2,0.4-0.2,0.6,0c0,0,0,0,0.1,0l6.5,7.4C32.9,57.4,32.9,57.6,32.8,57.8z"/>
	<path class="st3" d="M63.8,60.8c0.1-0.1,0.3-0.1,0.4,0l0,0l5.5,6.4c0.2,0.2,0.2,0.5,0,0.8l-5.5,7.2c-0.1,0.2-0.4,0.2-0.5,0.1
		c0,0,0,0-0.1-0.1l-5.5-7c-0.2-0.2-0.2-0.5,0-0.8L63.8,60.8z"/>
	<path class="st3" d="M42.2,83.5c1.3-2.2,3.8-4.7,5.5-6.7c0.1-0.2,0.4-0.2,0.6,0l0,0l5.4,6.3c0.2,0.2,0.2,0.5,0,0.8l-5.5,7.2
		c-0.1,0.2-0.3,0.2-0.5,0.1c0,0,0,0-0.1-0.1l-5.4-6.8C42.1,84.1,42.1,83.7,42.2,83.5z"/>
	<path class="st3" d="M79.8,76.8c0.1-0.1,0.3-0.1,0.4,0l0,0l5.5,6.4c0.2,0.2,0.2,0.5,0,0.8l-5.5,7.2c-0.1,0.2-0.4,0.2-0.5,0.1
		c0,0,0,0-0.1-0.1l-5.5-7c-0.2-0.2-0.2-0.5,0-0.8L79.8,76.8z"/>
	<path class="st3" d="M101.8,101.7c0.1-0.1,0.3-0.2,0.5-0.1c0,0,0,0,0.1,0.1l6.4,8.1c0.2,0.2,0.2,0.5,0,0.7l-6.4,7.5
		c-0.1,0.2-0.4,0.2-0.6,0l0,0l-6.4-7.3c-0.2-0.2-0.2-0.5,0-0.7L101.8,101.7z"/>
	<path class="st3" d="M42.2,116.1c1.6-2.4,3.7-5,5.5-7.2c0.1-0.2,0.4-0.2,0.6,0c0,0,0,0,0.1,0.1l5.4,6.9c0.2,0.2,0.2,0.5,0,0.8
		l-5.4,6.5c-0.1,0.2-0.4,0.2-0.6,0.1c0,0,0,0-0.1,0l-5.4-6.3C42.1,116.6,42.1,116.3,42.2,116.1z"/>
	<path class="st3" d="M79.8,108.8c0.1-0.1,0.3-0.2,0.5-0.1l0.1,0.1c1.5,2.4,3.3,4.7,5.4,6.8c0.3,0.3,0.3,0.7,0,1l-5.5,6.4
		c-0.1,0.2-0.4,0.2-0.6,0.1l0,0l-5.5-6.3c-0.2-0.2-0.2-0.5,0-0.8L79.8,108.8z"/>
	<path class="st3" d="M99.1,146.7l7.8-0.1c0.2,0,0.4-0.3,0.4-0.6c-0.5-2.5,0.4-3.5,2.9-2.8c0.3,0.1,0.6,0.4,0.6,0.6l-0.1,6
		c0,0.3-0.3,0.5-0.6,0.5h-14c-0.3,0-0.6-0.1-0.9-0.3c-0.8-0.9-1.8-2.1-1.4-3.3c4.3-6.9,7.2-14.4,8.5-22.4c0.1-0.3,0.3-0.6,0.6-0.6
		h2.9c0.2,0,0.4,0.3,0.4,0.6c-1.5,7.6-4,14.8-7.3,21.8c-0.1,0.2,0,0.4,0.1,0.4C99,146.7,99,146.7,99.1,146.7z"/>
</g>
</svg>
