<?xml version="1.0" encoding="UTF-8" standalone="no"?>
<svg xmlns="http://www.w3.org/2000/svg" version="1.2" baseProfile="tiny" viewBox="0 0 128 168">
<g stroke-width="0.00" fill="none" stroke-linecap="butt">
<path stroke="#e7e7e7" stroke-opacity="0.553" vector-effect="non-scaling-stroke" d="
  M 114.43 27.27
  Q 116.41 17.26 107.80 12.87"
/>
<path stroke="#d0d0d0" stroke-opacity="0.616" vector-effect="non-scaling-stroke" d="
  M 107.80 12.87
  Q 37.19 12.50 21.82 12.77
  Q 18.19 12.83 15.46 16.75"
/>
<path stroke="#d7d7d7" stroke-opacity="0.596" vector-effect="non-scaling-stroke" d="
  M 114.43 27.27
  Q 114.58 27.86 114.46 28.50"
/>
<path stroke="#f9f7f6" stroke-opacity="0.953" vector-effect="non-scaling-stroke" d="
  M 114.46 28.50
  Q 113.94 52.25 114.46 76.00"
/>
<path stroke="#d7d7d7" stroke-opacity="0.596" vector-effect="non-scaling-stroke" d="
  M 114.46 76.00
  Q 114.53 108.77 114.50 141.55
  C 114.50 149.69 112.80 155.26 103.80 155.46"
/>
<path stroke="#909191" stroke-opacity="0.949" vector-effect="non-scaling-stroke" d="
  M 103.80 155.46
  L 82.24 155.35"
/>
<path stroke="#d7d7d7" stroke-opacity="0.596" vector-effect="non-scaling-stroke" d="
  M 82.24 155.35
  Q 52.75 155.18 23.25 155.20
  Q 19.70 155.21 17.00 152.96"
/>
<path stroke="#f9fafb" stroke-opacity="0.988" vector-effect="non-scaling-stroke" d="
  M 17.00 152.96
  Q 14.00 148.78 14.00 147.25
  Q 14.00 85.03 14.00 22.82
  C 14.00 20.52 14.70 18.82 15.46 16.75"
/>
<path stroke="#e29996" vector-effect="non-scaling-stroke" d="
  M 30.44 40.45
  L 21.74 40.45
  A 0.42 0.41 -83.8 0 1 21.34 39.94
  C 22.98 32.50 37.88 29.53 33.81 21.32
  C 30.32 14.27 14.97 15.98 17.52 25.61
  A 0.71 0.70 -5.7 0 0 18.16 26.13
  Q 21.32 26.31 20.92 23.79
  Q 20.49 21.16 23.12 20.72
  C 26.00 20.25 34.82 21.53 29.71 26.48
  C 24.06 31.97 16.97 33.70 17.22 43.27
  A 0.71 0.71 89.6 0 0 17.93 43.97
  L 33.85 43.93
  A 0.55 0.51 0.5 0 0 34.40 43.43
  L 34.44 37.81
  A 0.75 0.69 9.9 0 0 33.92 37.14
  Q 30.23 35.96 30.85 39.95
  A 0.43 0.42 85.3 0 1 30.44 40.45"
/>
<path stroke="#e29996" vector-effect="non-scaling-stroke" d="
  M 63.78 44.76
  L 58.20 51.39
  A 0.61 0.58 46.0 0 0 58.21 52.14
  L 63.71 59.10
  A 0.37 0.37 -44.8 0 0 64.29 59.10
  L 69.76 51.91
  A 0.61 0.59 43.0 0 0 69.72 51.16
  L 64.21 44.77
  A 0.29 0.28 45.1 0 0 63.78 44.76"
/>
<path stroke="#e29996" vector-effect="non-scaling-stroke" d="
  M 32.80 57.82
  A 0.47 0.47 43.5 0 0 32.78 57.21
  L 26.28 49.83
  A 0.41 0.40 44.2 0 0 25.66 49.83
  L 19.37 57.32
  A 0.61 0.59 45.9 0 0 19.37 58.08
  L 25.72 66.13
  A 0.37 0.36 45.5 0 0 26.30 66.14
  L 32.80 57.82"
/>
<path stroke="#e29996" vector-effect="non-scaling-stroke" d="
  M 101.75 101.74
  L 95.29 110.06
  A 0.58 0.57 -47.2 0 0 95.31 110.79
  L 101.71 118.16
  A 0.42 0.41 44.6 0 0 102.34 118.16
  L 108.69 110.63
  A 0.61 0.58 46.4 0 0 108.69 109.88
  L 102.29 101.75
  A 0.34 0.34 45.5 0 0 101.75 101.74"
/>
<path stroke="#e29996" vector-effect="non-scaling-stroke" d="
  M 63.85 108.82
  L 58.22 116.09
  A 0.63 0.56 44.5 0 0 58.27 116.84
  L 63.72 123.13
  A 0.42 0.41 45.1 0 0 64.35 123.14
  L 69.78 116.62
  A 0.61 0.58 46.0 0 0 69.77 115.87
  L 64.27 108.84
  A 0.27 0.26 46.4 0 0 63.85 108.82"
/>
<path stroke="#e29996" vector-effect="non-scaling-stroke" d="
  M 106.99 128.01
  C 104.44 133.91 98.98 135.47 95.58 139.31
  C 85.68 150.50 112.51 157.30 110.57 142.52
  A 0.72 0.67 -89.8 0 0 110.01 141.91
  Q 108.64 141.69 107.55 142.65
  A 1.11 0.83 70.6 0 0 107.28 143.51
  C 108.07 150.56 89.49 147.85 100.67 139.60
  C 106.68 135.17 110.99 131.95 110.76 124.58
  A 0.57 0.56 88.9 0 0 110.20 124.03
  L 94.15 124.07
  A 0.54 0.51 0.0 0 0 93.61 124.58
  L 93.53 130.45
  A 0.53 0.52 90.0 0 0 94.05 130.98
  L 96.48 130.98
  A 0.56 0.49 -88.7 0 0 96.96 130.45
  L 97.09 128.09
  A 0.57 0.55 1.6 0 1 97.66 127.57
  L 106.69 127.54
  A 0.33 0.33 -77.8 0 1 106.99 128.01"
/>
</g>
<path fill="#000001" fill-opacity="0.106" d="
  M 112.96 11.55
  Q 114.47 12.67 116.31 12.67
  Q 117.77 12.67 118.53 16.24
  Q 119.86 22.48 119.74 28.80
  C 119.64 33.84 119.93 37.97 119.88 42.58
  C 119.87 44.29 120.22 48.21 119.88 51.03
  Q 119.60 53.35 119.62 54.64
  Q 119.66 59.06 119.69 63.50
  C 119.70 64.86 120.02 67.37 119.72 69.30
  C 119.21 72.52 119.37 77.05 119.69 80.27
  C 120.50 88.33 119.66 95.68 119.97 103.37
  C 120.36 113.05 119.93 122.66 119.88 132.35
  A 0.67 0.09 -51.4 0 1 119.59 132.83
  Q 119.48 132.97 119.49 133.25
  Q 119.97 142.06 118.59 150.76
  A 2.03 1.33 -31.1 0 1 118.18 151.61
  L 116.77 153.34
  A 1.46 0.61 81.2 0 0 116.55 154.24
  Q 116.55 154.84 115.91 154.80
  A 1.07 0.83 17.4 0 0 115.10 155.10
  Q 113.30 157.28 110.84 158.69
  C 108.82 159.85 106.71 159.21 104.44 160.42
  Q 103.96 160.68 103.51 160.68
  L 68.07 160.94
  Q 67.65 160.94 67.13 161.17
  Q 65.89 161.70 64.60 161.01
  Q 64.12 160.75 63.68 160.75
  L 20.55 160.69
  A 0.63 0.45 81.8 0 1 20.07 160.19
  Q 20.02 159.97 19.85 159.84
  A 0.95 0.37 -18.4 0 0 19.14 159.80
  Q 18.27 159.99 17.96 159.34
  A 0.93 0.83 79.7 0 0 17.32 158.84
  C 14.15 158.35 10.45 154.12 8.95 151.53
  Q 8.28 150.37 8.19 149.52
  C 7.96 147.17 7.25 145.08 7.25 142.80
  Q 7.25 83.93 7.25 25.06
  A 0.75 0.56 -13.9 0 1 7.73 24.48
  C 7.97 24.38 8.25 23.94 8.23 23.68
  Q 7.99 19.91 9.08 16.27
  Q 9.60 14.52 11.11 13.09
  L 15.37 9.05
  A 1.19 0.83 19.0 0 1 16.22 8.81
  Q 16.98 8.89 17.23 8.26
  A 0.64 0.57 -76.4 0 1 17.82 7.85
  Q 18.75 7.91 19.21 7.12
  A 0.71 0.62 -68.3 0 1 19.89 6.77
  Q 21.71 7.12 23.15 6.29
  Q 23.62 6.02 24.06 6.02
  L 105.17 6.06
  A 1.40 1.21 62.4 0 1 106.03 6.40
  Q 107.31 7.53 109.04 7.56
  A 0.40 0.40 5.5 0 1 109.43 8.03
  Q 109.13 9.73 110.76 9.72
  A 1.16 1.06 65.5 0 1 111.58 10.07
  Q 112.11 10.61 112.83 10.75
  A 0.26 0.24 21.9 0 1 113.00 11.12
  L 112.91 11.28
  A 0.20 0.20 -55.9 0 0 112.96 11.55
  Z
  M 14.00 19.04
  L 13.46 21.50
  Q 12.05 21.24 12.12 19.77
  Q 12.14 19.25 11.82 19.63
  Q 10.79 20.83 11.48 22.57
  Q 11.60 22.89 11.33 23.01
  A 0.51 0.37 -14.1 0 0 11.00 23.40
  Q 10.99 83.45 11.00 143.51
  C 11.00 144.99 11.99 147.15 11.90 148.12
  Q 11.60 151.26 13.97 153.33
  Q 20.70 159.23 29.50 158.84
  C 36.07 158.54 42.66 158.64 49.24 158.51
  C 52.84 158.45 57.11 159.19 60.67 158.82
  Q 65.11 158.36 72.06 158.79
  C 77.87 159.14 88.20 158.51 99.25 158.86
  Q 108.65 159.16 114.97 151.77
  Q 115.72 150.89 115.74 149.71
  A 0.86 0.82 -14.8 0 1 116.18 149.00
  L 116.97 148.53
  A 0.95 0.78 77.9 0 0 117.37 147.75
  L 117.47 24.80
  A 1.70 1.35 32.8 0 0 117.17 23.91
  Q 115.87 22.07 115.94 19.85
  A 0.39 0.27 -85.7 0 0 115.72 19.47
  Q 115.59 19.45 115.45 19.51
  A 0.80 0.57 83.7 0 0 115.06 20.20
  L 114.89 43.94
  Q 114.89 44.12 114.88 43.93
  L 114.43 27.27
  Q 116.41 17.26 107.80 12.87
  C 106.92 11.78 105.45 12.49 104.63 12.49
  Q 62.72 12.51 20.81 12.49
  A 0.31 0.26 -1.9 0 1 20.50 12.25
  L 20.49 11.99
  A 0.57 0.46 -1.4 0 1 21.07 11.50
  L 106.00 11.50
  Q 106.45 11.50 106.93 11.76
  Q 107.87 12.28 108.54 12.10
  Q 110.34 11.61 108.51 11.29
  Q 104.65 10.59 100.75 10.59
  Q 61.12 10.50 21.49 10.50
  Q 18.76 10.50 16.85 12.45
  C 15.55 13.78 10.94 17.05 14.00 19.04
  Z"
/>
<path fill="#000102" fill-opacity="0.227" d="
  M 107.80 12.87
  Q 37.19 12.50 21.82 12.77
  Q 18.19 12.83 15.46 16.75
  L 14.00 19.04
  C 10.94 17.05 15.55 13.78 16.85 12.45
  Q 18.76 10.50 21.49 10.50
  Q 61.12 10.50 100.75 10.59
  Q 104.65 10.59 108.51 11.29
  Q 110.34 11.61 108.54 12.10
  Q 107.87 12.28 106.93 11.76
  Q 106.45 11.50 106.00 11.50
  L 21.07 11.50
  A 0.57 0.46 -1.4 0 0 20.49 11.99
  L 20.50 12.25
  A 0.31 0.26 -1.9 0 0 20.81 12.49
  Q 62.72 12.51 104.63 12.49
  C 105.45 12.49 106.92 11.78 107.80 12.87
  Z"
/>
<path fill="#ffffff" d="
  M 107.80 12.87
  Q 116.41 17.26 114.43 27.27
  Q 114.58 27.86 114.46 28.50
  Q 113.94 52.25 114.46 76.00
  Q 114.53 108.77 114.50 141.55
  C 114.50 149.69 112.80 155.26 103.80 155.46
  L 82.24 155.35
  Q 52.75 155.18 23.25 155.20
  Q 19.70 155.21 17.00 152.96
  Q 14.00 148.78 14.00 147.25
  Q 14.00 85.03 14.00 22.82
  C 14.00 20.52 14.70 18.82 15.46 16.75
  Q 18.19 12.83 21.82 12.77
  Q 37.19 12.50 107.80 12.87
  Z
  M 30.44 40.45
  L 21.74 40.45
  A 0.42 0.41 -83.8 0 1 21.34 39.94
  C 22.98 32.50 37.88 29.53 33.81 21.32
  C 30.32 14.27 14.97 15.98 17.52 25.61
  A 0.71 0.70 -5.7 0 0 18.16 26.13
  Q 21.32 26.31 20.92 23.79
  Q 20.49 21.16 23.12 20.72
  C 26.00 20.25 34.82 21.53 29.71 26.48
  C 24.06 31.97 16.97 33.70 17.22 43.27
  A 0.71 0.71 89.6 0 0 17.93 43.97
  L 33.85 43.93
  A 0.55 0.51 0.5 0 0 34.40 43.43
  L 34.44 37.81
  A 0.75 0.69 9.9 0 0 33.92 37.14
  Q 30.23 35.96 30.85 39.95
  A 0.43 0.42 85.3 0 1 30.44 40.45
  Z
  M 63.78 44.76
  L 58.20 51.39
  A 0.61 0.58 46.0 0 0 58.21 52.14
  L 63.71 59.10
  A 0.37 0.37 -44.8 0 0 64.29 59.10
  L 69.76 51.91
  A 0.61 0.59 43.0 0 0 69.72 51.16
  L 64.21 44.77
  A 0.29 0.28 45.1 0 0 63.78 44.76
  Z
  M 32.80 57.82
  A 0.47 0.47 43.5 0 0 32.78 57.21
  L 26.28 49.83
  A 0.41 0.40 44.2 0 0 25.66 49.83
  L 19.37 57.32
  A 0.61 0.59 45.9 0 0 19.37 58.08
  L 25.72 66.13
  A 0.37 0.36 45.5 0 0 26.30 66.14
  L 32.80 57.82
  Z
  M 101.75 101.74
  L 95.29 110.06
  A 0.58 0.57 -47.2 0 0 95.31 110.79
  L 101.71 118.16
  A 0.42 0.41 44.6 0 0 102.34 118.16
  L 108.69 110.63
  A 0.61 0.58 46.4 0 0 108.69 109.88
  L 102.29 101.75
  A 0.34 0.34 45.5 0 0 101.75 101.74
  Z
  M 63.85 108.82
  L 58.22 116.09
  A 0.63 0.56 44.5 0 0 58.27 116.84
  L 63.72 123.13
  A 0.42 0.41 45.1 0 0 64.35 123.14
  L 69.78 116.62
  A 0.61 0.58 46.0 0 0 69.77 115.87
  L 64.27 108.84
  A 0.27 0.26 46.4 0 0 63.85 108.82
  Z
  M 106.99 128.01
  C 104.44 133.91 98.98 135.47 95.58 139.31
  C 85.68 150.50 112.51 157.30 110.57 142.52
  A 0.72 0.67 -89.8 0 0 110.01 141.91
  Q 108.64 141.69 107.55 142.65
  A 1.11 0.83 70.6 0 0 107.28 143.51
  C 108.07 150.56 89.49 147.85 100.67 139.60
  C 106.68 135.17 110.99 131.95 110.76 124.58
  A 0.57 0.56 88.9 0 0 110.20 124.03
  L 94.15 124.07
  A 0.54 0.51 0.0 0 0 93.61 124.58
  L 93.53 130.45
  A 0.53 0.52 90.0 0 0 94.05 130.98
  L 96.48 130.98
  A 0.56 0.49 -88.7 0 0 96.96 130.45
  L 97.09 128.09
  A 0.57 0.55 1.6 0 1 97.66 127.57
  L 106.69 127.54
  A 0.33 0.33 -77.8 0 1 106.99 128.01
  Z"
/>
<path fill="#f2f4f6" fill-opacity="0.973" d="
  M 15.46 16.75
  C 14.70 18.82 14.00 20.52 14.00 22.82
  Q 14.00 85.03 14.00 147.25
  Q 14.00 148.78 17.00 152.96
  Q 13.57 150.07 13.56 146.69
  Q 13.48 84.09 13.46 21.50
  L 14.00 19.04
  L 15.46 16.75
  Z"
/>
<path fill="#c4332c" d="
  M 30.85 39.95
  Q 30.23 35.96 33.92 37.14
  A 0.75 0.69 9.9 0 1 34.44 37.81
  L 34.40 43.43
  A 0.55 0.51 0.5 0 1 33.85 43.93
  L 17.93 43.97
  A 0.71 0.71 89.6 0 1 17.22 43.27
  C 16.97 33.70 24.06 31.97 29.71 26.48
  C 34.82 21.53 26.00 20.25 23.12 20.72
  Q 20.49 21.16 20.92 23.79
  Q 21.32 26.31 18.16 26.13
  A 0.71 0.70 -5.7 0 1 17.52 25.61
  C 14.97 15.98 30.32 14.27 33.81 21.32
  C 37.88 29.53 22.98 32.50 21.34 39.94
  A 0.42 0.41 -83.8 0 0 21.74 40.45
  L 30.44 40.45
  A 0.43 0.42 85.3 0 0 30.85 39.95
  Z"
/>
<path fill="#020403" fill-opacity="0.188" d="
  M 13.46 21.50
  Q 13.48 84.09 13.56 146.69
  Q 13.57 150.07 17.00 152.96
  Q 19.70 155.21 23.25 155.20
  Q 52.75 155.18 82.24 155.35
  Q 93.02 156.21 103.80 155.46
  C 112.80 155.26 114.50 149.69 114.50 141.55
  Q 114.53 108.77 114.46 76.00
  L 114.46 28.50
  Q 114.58 27.86 114.43 27.27
  L 114.88 43.93
  Q 114.89 44.12 114.89 43.94
  L 115.06 20.20
  A 0.80 0.57 83.7 0 1 115.45 19.51
  Q 115.59 19.45 115.72 19.47
  A 0.39 0.27 -85.7 0 1 115.94 19.85
  Q 115.87 22.07 117.17 23.91
  A 1.70 1.35 32.8 0 1 117.47 24.80
  L 117.37 147.75
  A 0.95 0.78 77.9 0 1 116.97 148.53
  L 116.18 149.00
  A 0.86 0.82 -14.8 0 0 115.74 149.71
  Q 115.72 150.89 114.97 151.77
  Q 108.65 159.16 99.25 158.86
  C 88.20 158.51 77.87 159.14 72.06 158.79
  Q 65.11 158.36 60.67 158.82
  C 57.11 159.19 52.84 158.45 49.24 158.51
  C 42.66 158.64 36.07 158.54 29.50 158.84
  Q 20.70 159.23 13.97 153.33
  Q 11.60 151.26 11.90 148.12
  C 11.99 147.15 11.00 144.99 11.00 143.51
  Q 10.99 83.45 11.00 23.40
  A 0.51 0.37 -14.1 0 1 11.33 23.01
  Q 11.60 22.89 11.48 22.57
  Q 10.79 20.83 11.82 19.63
  Q 12.14 19.25 12.12 19.77
  Q 12.05 21.24 13.46 21.50
  Z"
/>
<path fill="#f3efed" fill-opacity="0.906" d="
  M 114.46 28.50
  L 114.46 76.00
  Q 113.94 52.25 114.46 28.50
  Z"
/>
<path fill="#c4332c" d="
  M 63.78 44.76
  A 0.29 0.28 45.1 0 1 64.21 44.77
  L 69.72 51.16
  A 0.61 0.59 43.0 0 1 69.76 51.91
  L 64.29 59.10
  A 0.37 0.37 -46.4 0 1 63.71 59.10
  L 58.21 52.14
  A 0.61 0.58 46.0 0 1 58.20 51.39
  L 63.78 44.76
  Z"
/>
<path fill="#c4332c" d="
  M 32.80 57.82
  L 26.30 66.14
  A 0.37 0.36 45.5 0 1 25.72 66.13
  L 19.37 58.08
  A 0.61 0.59 45.9 0 1 19.37 57.32
  L 25.66 49.83
  A 0.41 0.40 44.2 0 1 26.28 49.83
  L 32.78 57.21
  A 0.47 0.47 43.5 0 1 32.80 57.82
  Z"
/>
<path fill="#c4332c" d="
  M 101.75 101.74
  A 0.34 0.34 45.5 0 1 102.29 101.75
  L 108.69 109.88
  A 0.61 0.58 46.4 0 1 108.69 110.63
  L 102.34 118.16
  A 0.42 0.41 44.6 0 1 101.71 118.16
  L 95.31 110.79
  A 0.58 0.57 -47.2 0 1 95.29 110.06
  L 101.75 101.74
  Z"
/>
<path fill="#c4332c" d="
  M 63.85 108.82
  A 0.27 0.26 46.4 0 1 64.27 108.84
  L 69.77 115.87
  A 0.61 0.58 46.0 0 1 69.78 116.62
  L 64.35 123.14
  A 0.42 0.41 45.1 0 1 63.72 123.13
  L 58.27 116.84
  A 0.63 0.56 44.5 0 1 58.22 116.09
  L 63.85 108.82
  Z"
/>
<path fill="#c4332c" d="
  M 106.99 128.01
  A 0.33 0.33 -77.8 0 0 106.69 127.54
  L 97.66 127.57
  A 0.57 0.55 1.6 0 0 97.09 128.09
  L 96.96 130.45
  A 0.56 0.49 -88.7 0 1 96.48 130.98
  L 94.05 130.98
  A 0.53 0.52 -90.0 0 1 93.53 130.45
  L 93.61 124.58
  A 0.54 0.51 0.0 0 1 94.15 124.07
  L 110.20 124.03
  A 0.57 0.56 88.9 0 1 110.76 124.58
  C 110.99 131.95 106.68 135.17 100.67 139.60
  C 89.49 147.85 108.07 150.56 107.28 143.51
  A 1.11 0.83 70.6 0 1 107.55 142.65
  Q 108.64 141.69 110.01 141.91
  A 0.72 0.67 -89.8 0 1 110.57 142.52
  C 112.51 157.30 85.68 150.50 95.58 139.31
  C 98.98 135.47 104.44 133.91 106.99 128.01
  Z"
/>
<path fill="#141716" fill-opacity="0.894" d="
  M 82.24 155.35
  L 103.80 155.46
  Q 93.02 156.21 82.24 155.35
  Z"
/>
</svg>
