<?xml version="1.0" encoding="UTF-8" standalone="no"?>
<svg xmlns="http://www.w3.org/2000/svg" version="1.2" baseProfile="tiny" viewBox="0 0 128 168">
<g stroke-width="0.00" fill="none" stroke-linecap="butt">
<path stroke="#e6e6e6" stroke-opacity="0.557" vector-effect="non-scaling-stroke" d="
  M 13.75 147.71
  L 15.29 151.25"
/>
<path stroke="#e6e6e6" stroke-opacity="0.557" vector-effect="non-scaling-stroke" d="
  M 114.50 21.04
  Q 112.70 12.75 104.50 12.75
  Q 64.71 12.74 24.92 12.77
  C 19.86 12.77 16.48 13.92 14.46 18.50"
/>
<path stroke="#d6d6d6" stroke-opacity="0.600" vector-effect="non-scaling-stroke" d="
  M 114.50 21.04
  Q 114.52 82.61 114.49 144.17
  C 114.48 152.06 110.57 155.23 102.67 155.24
  Q 62.36 155.27 22.07 155.23
  Q 18.45 155.23 15.29 151.25"
/>
<path stroke="#d6d6d6" stroke-opacity="0.600" vector-effect="non-scaling-stroke" d="
  M 13.75 147.71
  L 13.79 147.50"
/>
<path stroke="#f9fafb" stroke-opacity="0.988" vector-effect="non-scaling-stroke" d="
  M 13.79 147.50
  Q 14.16 84.84 14.00 22.17
  C 14.00 20.93 14.48 19.83 14.46 18.50"
/>
<path stroke="#e29996" vector-effect="non-scaling-stroke" d="
  M 27.19 40.72
  Q 24.89 41.03 25.73 43.75
  A 0.70 0.69 -8.4 0 0 26.40 44.24
  L 32.37 44.23
  A 0.69 0.68 7.4 0 0 33.02 43.74
  Q 33.69 41.32 31.86 40.64
  A 1.07 0.83 7.8 0 1 31.24 40.01
  Q 30.58 37.14 33.54 37.70
  A 0.65 0.62 17.2 0 0 34.25 37.35
  Q 35.80 33.70 31.85 34.09
  A 0.46 0.45 -3.5 0 1 31.34 33.65
  L 31.26 18.05
  A 0.77 0.66 -82.7 0 0 30.81 17.36
  C 29.22 16.80 28.32 17.22 27.43 18.66
  Q 22.64 26.43 17.74 34.14
  C 17.07 35.18 17.19 36.07 17.27 37.24
  A 0.55 0.52 -1.7 0 0 17.82 37.73
  L 27.19 37.77
  A 0.54 0.50 -0.0 0 1 27.73 38.27
  L 27.73 40.19
  A 0.62 0.52 -4.3 0 1 27.19 40.72"
/>
<path stroke="#e29996" vector-effect="non-scaling-stroke" d="
  M 47.66 44.86
  C 45.81 46.89 43.97 49.21 42.18 51.40
  A 0.62 0.56 46.5 0 0 42.20 52.15
  L 47.71 59.10
  A 0.37 0.37 0.0 0 0 48.29 59.10
  L 53.75 51.91
  A 0.62 0.60 43.9 0 0 53.72 51.15
  L 48.30 44.89
  A 0.44 0.42 46.3 0 0 47.66 44.86"
/>
<path stroke="#e29996" vector-effect="non-scaling-stroke" d="
  M 79.79 44.76
  L 74.21 51.39
  A 0.62 0.58 46.8 0 0 74.21 52.15
  L 79.71 59.10
  A 0.37 0.37 0.0 0 0 80.29 59.10
  L 85.76 51.91
  A 0.61 0.59 43.0 0 0 85.72 51.16
  L 80.22 44.77
  A 0.29 0.28 45.1 0 0 79.79 44.76"
/>
<path stroke="#e29996" vector-effect="non-scaling-stroke" d="
  M 32.98 57.62
  A 0.18 0.18 -47.8 0 0 32.97 57.39
  L 26.30 49.84
  A 0.43 0.40 44.7 0 0 25.67 49.82
  L 19.37 57.33
  A 0.60 0.59 46.3 0 0 19.36 58.09
  L 25.71 66.14
  A 0.38 0.37 44.6 0 0 26.30 66.14
  L 32.98 57.62"
/>
<path stroke="#e29996" vector-effect="non-scaling-stroke" d="
  M 101.73 101.75
  L 95.21 110.01
  A 0.66 0.65 -46.5 0 0 95.23 110.85
  L 101.70 118.17
  A 0.41 0.40 44.2 0 0 102.32 118.17
  L 108.69 110.63
  A 0.61 0.58 46.4 0 0 108.69 109.88
  L 102.30 101.75
  A 0.37 0.36 44.6 0 0 101.73 101.75"
/>
<path stroke="#e29996" vector-effect="non-scaling-stroke" d="
  M 47.75 108.93
  C 45.89 111.13 43.87 113.73 42.22 116.09
  A 0.66 0.61 41.9 0 0 42.29 116.86
  L 47.72 123.14
  A 0.41 0.40 43.8 0 0 48.34 123.13
  L 53.78 116.62
  A 0.61 0.58 46.0 0 0 53.77 115.87
  L 48.36 108.97
  A 0.41 0.38 46.5 0 0 47.75 108.93"
/>
<path stroke="#e29996" vector-effect="non-scaling-stroke" d="
  M 79.86 108.82
  L 74.22 116.09
  A 0.63 0.56 44.5 0 0 74.27 116.84
  L 79.72 123.13
  A 0.42 0.41 44.6 0 0 80.35 123.13
  L 85.79 116.61
  A 0.62 0.58 46.8 0 0 85.79 115.85
  L 80.27 108.83
  A 0.26 0.25 45.2 0 0 79.86 108.82"
/>
<path stroke="#e29996" vector-effect="non-scaling-stroke" d="
  M 100.81 127.28
  L 101.71 127.22
  A 0.55 0.52 -1.8 0 0 102.23 126.70
  L 102.23 124.29
  A 0.54 0.52 0.6 0 0 101.70 123.77
  L 95.82 123.76
  A 0.76 0.75 -79.1 0 0 95.12 124.24
  Q 94.12 126.76 96.26 127.36
  A 0.83 0.70 5.0 0 1 96.85 127.96
  Q 97.31 130.93 94.27 130.31
  A 0.57 0.55 14.4 0 0 93.62 130.68
  Q 92.37 134.42 96.20 133.84
  A 0.43 0.42 -4.7 0 1 96.70 134.25
  L 96.75 149.95
  A 0.73 0.65 -82.5 0 0 97.21 150.63
  Q 98.27 150.95 99.31 150.70
  A 1.41 1.11 -76.2 0 0 100.04 150.13
  Q 105.26 141.80 110.48 133.50
  Q 111.28 132.22 110.54 130.67
  A 0.84 0.77 -11.6 0 0 109.80 130.23
  L 101.04 130.23
  A 0.67 0.51 -1.8 0 1 100.38 129.76
  L 100.23 127.82
  A 0.60 0.50 -3.5 0 1 100.81 127.28"
/>
<path stroke="#e29996" vector-effect="non-scaling-stroke" d="
  M 27.18 25.44
  L 22.01 33.72
  Q 21.71 34.20 22.25 34.20
  L 27.13 34.16
  A 0.55 0.54 89.5 0 0 27.66 33.61
  L 27.62 25.55
  Q 27.62 24.75 27.18 25.44"
/>
<path stroke="#e29996" vector-effect="non-scaling-stroke" d="
  M 100.74 142.67
  L 105.99 134.37
  Q 106.29 133.89 105.74 133.88
  L 100.78 133.78
  A 0.54 0.49 -89.5 0 0 100.28 134.32
  L 100.25 142.52
  Q 100.25 143.45 100.74 142.67"
/>
</g>
<path fill="#010000" fill-opacity="0.110" d="
  M 112.30 9.62
  C 114.77 9.45 116.82 13.58 118.52 15.60
  A 1.46 1.34 -67.5 0 1 118.84 16.48
  C 118.89 19.06 120.22 21.24 120.20 23.58
  Q 120.12 34.84 120.35 46.11
  Q 120.39 47.86 120.18 53.88
  C 120.06 57.36 120.44 60.99 120.30 64.28
  Q 119.97 71.78 120.20 79.27
  C 120.89 101.53 120.07 123.89 120.35 146.18
  Q 120.36 146.64 120.10 147.11
  C 119.26 148.69 119.27 152.56 117.51 153.12
  A 1.03 0.80 -4.0 0 0 116.86 153.70
  L 116.67 154.34
  Q 116.50 154.88 116.20 155.18
  Q 113.72 157.53 110.50 158.80
  A 1.46 0.83 -8.6 0 0 109.75 159.39
  L 109.39 160.13
  A 0.92 0.65 -74.9 0 1 108.76 160.65
  Q 97.42 161.39 86.08 160.82
  C 82.65 160.64 77.89 160.61 74.03 160.65
  Q 47.30 160.89 20.57 160.66
  A 0.74 0.58 77.4 0 1 19.98 160.17
  Q 19.73 159.51 18.75 159.64
  A 0.88 0.88 65.9 0 1 17.97 159.34
  Q 17.16 158.40 15.75 158.64
  A 1.13 0.93 -25.2 0 1 14.89 158.42
  C 9.31 153.46 7.07 148.01 7.06 140.23
  Q 6.92 81.59 7.05 22.94
  Q 7.06 19.44 9.73 14.93
  C 11.01 12.76 13.36 11.31 15.17 9.40
  Q 15.30 9.27 16.01 8.91
  L 19.35 7.22
  A 1.41 0.70 -38.3 0 1 20.21 7.04
  Q 21.92 7.41 23.14 6.36
  A 1.47 1.12 -59.3 0 1 24.00 6.01
  L 105.18 6.02
  A 0.57 0.41 3.6 0 1 105.77 6.50
  L 105.71 6.83
  A 0.32 0.24 -80.6 0 0 105.89 7.18
  C 106.22 7.22 109.85 7.12 109.85 7.78
  A 0.36 0.32 84.8 0 0 110.24 8.14
  Q 111.67 7.84 111.80 9.20
  A 0.47 0.47 84.9 0 0 112.30 9.62
  Z
  M 14.46 18.50
  L 13.71 20.50
  Q 13.16 21.55 12.02 20.87
  Q 11.51 20.57 11.55 21.16
  C 11.69 23.19 11.01 25.12 11.01 26.95
  Q 10.99 84.92 11.01 142.89
  C 11.01 144.85 11.99 146.94 11.77 149.26
  A 0.70 0.65 -77.0 0 0 12.17 149.96
  Q 13.72 150.59 12.52 149.12
  A 0.86 0.63 -57.3 0 1 12.47 148.32
  Q 12.70 147.78 12.32 147.32
  A 0.85 0.60 42.7 0 1 12.15 146.53
  C 13.18 144.47 12.86 147.95 13.75 147.71
  L 15.29 151.25
  Q 15.20 153.52 14.63 151.77
  A 0.69 0.65 86.5 0 0 14.14 151.31
  C 11.46 150.75 13.96 152.61 14.31 153.12
  Q 17.39 157.64 22.91 157.29
  A 1.13 0.83 60.6 0 1 23.70 157.65
  C 24.86 158.84 76.19 158.56 87.66 158.75
  C 90.33 158.80 94.05 158.41 97.26 158.69
  Q 103.80 159.27 109.57 156.51
  Q 109.98 156.32 110.31 155.89
  Q 111.43 154.40 113.18 153.80
  A 1.37 0.68 -72.2 0 0 113.80 153.16
  L 115.27 150.39
  A 0.67 0.53 -55.9 0 0 115.22 149.66
  Q 114.04 148.50 115.99 148.66
  A 0.55 0.52 6.3 0 0 116.57 148.22
  C 117.54 142.22 117.04 134.84 117.12 130.40
  Q 117.41 115.55 117.39 100.69
  Q 117.34 64.22 117.22 27.75
  Q 117.21 24.22 116.19 22.20
  A 1.40 1.32 -53.6 0 1 116.08 21.28
  Q 116.32 20.17 115.77 19.77
  Q 115.33 19.46 115.34 20.08
  Q 115.34 21.45 114.50 21.04
  Q 112.70 12.75 104.50 12.75
  Q 64.71 12.74 24.92 12.77
  C 19.86 12.77 16.48 13.92 14.46 18.50
  Z"
/>
<path fill="#ffffff" d="
  M 114.50 21.04
  Q 114.52 82.61 114.49 144.17
  C 114.48 152.06 110.57 155.23 102.67 155.24
  Q 62.36 155.27 22.07 155.23
  Q 18.45 155.23 15.29 151.25
  L 13.75 147.71
  L 13.79 147.50
  Q 14.16 84.84 14.00 22.17
  C 14.00 20.93 14.48 19.83 14.46 18.50
  C 16.48 13.92 19.86 12.77 24.92 12.77
  Q 64.71 12.74 104.50 12.75
  Q 112.70 12.75 114.50 21.04
  Z
  M 27.19 40.72
  Q 24.89 41.03 25.73 43.75
  A 0.70 0.69 -8.4 0 0 26.40 44.24
  L 32.37 44.23
  A 0.69 0.68 7.4 0 0 33.02 43.74
  Q 33.69 41.32 31.86 40.64
  A 1.07 0.83 7.8 0 1 31.24 40.01
  Q 30.58 37.14 33.54 37.70
  A 0.65 0.62 17.2 0 0 34.25 37.35
  Q 35.80 33.70 31.85 34.09
  A 0.46 0.45 -3.5 0 1 31.34 33.65
  L 31.26 18.05
  A 0.77 0.66 -82.7 0 0 30.81 17.36
  C 29.22 16.80 28.32 17.22 27.43 18.66
  Q 22.64 26.43 17.74 34.14
  C 17.07 35.18 17.19 36.07 17.27 37.24
  A 0.55 0.52 -1.7 0 0 17.82 37.73
  L 27.19 37.77
  A 0.54 0.50 -0.0 0 1 27.73 38.27
  L 27.73 40.19
  A 0.62 0.52 -4.3 0 1 27.19 40.72
  Z
  M 47.66 44.86
  C 45.81 46.89 43.97 49.21 42.18 51.40
  A 0.62 0.56 46.5 0 0 42.20 52.15
  L 47.71 59.10
  A 0.37 0.37 0.0 0 0 48.29 59.10
  L 53.75 51.91
  A 0.62 0.60 43.9 0 0 53.72 51.15
  L 48.30 44.89
  A 0.44 0.42 46.3 0 0 47.66 44.86
  Z
  M 79.79 44.76
  L 74.21 51.39
  A 0.62 0.58 46.8 0 0 74.21 52.15
  L 79.71 59.10
  A 0.37 0.37 0.0 0 0 80.29 59.10
  L 85.76 51.91
  A 0.61 0.59 43.0 0 0 85.72 51.16
  L 80.22 44.77
  A 0.29 0.28 45.1 0 0 79.79 44.76
  Z
  M 32.98 57.62
  A 0.18 0.18 -47.8 0 0 32.97 57.39
  L 26.30 49.84
  A 0.43 0.40 44.7 0 0 25.67 49.82
  L 19.37 57.33
  A 0.60 0.59 46.3 0 0 19.36 58.09
  L 25.71 66.14
  A 0.38 0.37 44.6 0 0 26.30 66.14
  L 32.98 57.62
  Z
  M 101.73 101.75
  L 95.21 110.01
  A 0.66 0.65 -46.5 0 0 95.23 110.85
  L 101.70 118.17
  A 0.41 0.40 44.2 0 0 102.32 118.17
  L 108.69 110.63
  A 0.61 0.58 46.4 0 0 108.69 109.88
  L 102.30 101.75
  A 0.37 0.36 44.6 0 0 101.73 101.75
  Z
  M 47.75 108.93
  C 45.89 111.13 43.87 113.73 42.22 116.09
  A 0.66 0.61 41.9 0 0 42.29 116.86
  L 47.72 123.14
  A 0.41 0.40 43.8 0 0 48.34 123.13
  L 53.78 116.62
  A 0.61 0.58 46.0 0 0 53.77 115.87
  L 48.36 108.97
  A 0.41 0.38 46.5 0 0 47.75 108.93
  Z
  M 79.86 108.82
  L 74.22 116.09
  A 0.63 0.56 44.5 0 0 74.27 116.84
  L 79.72 123.13
  A 0.42 0.41 44.6 0 0 80.35 123.13
  L 85.79 116.61
  A 0.62 0.58 46.8 0 0 85.79 115.85
  L 80.27 108.83
  A 0.26 0.25 45.2 0 0 79.86 108.82
  Z
  M 100.81 127.28
  L 101.71 127.22
  A 0.55 0.52 -1.8 0 0 102.23 126.70
  L 102.23 124.29
  A 0.54 0.52 0.6 0 0 101.70 123.77
  L 95.82 123.76
  A 0.76 0.75 -79.1 0 0 95.12 124.24
  Q 94.12 126.76 96.26 127.36
  A 0.83 0.70 5.0 0 1 96.85 127.96
  Q 97.31 130.93 94.27 130.31
  A 0.57 0.55 14.4 0 0 93.62 130.68
  Q 92.37 134.42 96.20 133.84
  A 0.43 0.42 -4.7 0 1 96.70 134.25
  L 96.75 149.95
  A 0.73 0.65 -82.5 0 0 97.21 150.63
  Q 98.27 150.95 99.31 150.70
  A 1.41 1.11 -76.2 0 0 100.04 150.13
  Q 105.26 141.80 110.48 133.50
  Q 111.28 132.22 110.54 130.67
  A 0.84 0.77 -11.6 0 0 109.80 130.23
  L 101.04 130.23
  A 0.67 0.51 -1.8 0 1 100.38 129.76
  L 100.23 127.82
  A 0.60 0.50 -3.5 0 1 100.81 127.28
  Z"
/>
<path fill="#c4332c" d="
  M 27.73 40.19
  L 27.73 38.27
  A 0.54 0.50 -0.0 0 0 27.19 37.77
  L 17.82 37.73
  A 0.55 0.52 -1.7 0 1 17.27 37.24
  C 17.19 36.07 17.07 35.18 17.74 34.14
  Q 22.64 26.43 27.43 18.66
  C 28.32 17.22 29.22 16.80 30.81 17.36
  A 0.77 0.66 -82.7 0 1 31.26 18.05
  L 31.34 33.65
  A 0.46 0.45 -3.5 0 0 31.85 34.09
  Q 35.80 33.70 34.25 37.35
  A 0.65 0.62 17.2 0 1 33.54 37.70
  Q 30.58 37.14 31.24 40.01
  A 1.07 0.83 7.8 0 0 31.86 40.64
  Q 33.69 41.32 33.02 43.74
  A 0.69 0.68 7.4 0 1 32.37 44.23
  L 26.40 44.24
  A 0.70 0.69 -8.4 0 1 25.73 43.75
  Q 24.89 41.03 27.19 40.72
  A 0.62 0.52 -4.3 0 0 27.73 40.19
  Z
  M 27.18 25.44
  L 22.01 33.72
  Q 21.71 34.20 22.25 34.20
  L 27.13 34.16
  A 0.55 0.54 89.5 0 0 27.66 33.61
  L 27.62 25.55
  Q 27.62 24.75 27.18 25.44
  Z"
/>
<path fill="#f2f4f6" fill-opacity="0.973" d="
  M 14.46 18.50
  C 14.48 19.83 14.00 20.93 14.00 22.17
  Q 14.16 84.84 13.79 147.50
  Q 13.13 84.00 13.71 20.50
  L 14.46 18.50
  Z"
/>
<path fill="#020302" fill-opacity="0.196" d="
  M 15.29 151.25
  Q 18.45 155.23 22.07 155.23
  Q 62.36 155.27 102.67 155.24
  C 110.57 155.23 114.48 152.06 114.49 144.17
  Q 114.52 82.61 114.50 21.04
  Q 115.34 21.45 115.34 20.08
  Q 115.33 19.46 115.77 19.77
  Q 116.32 20.17 116.08 21.28
  A 1.40 1.32 -53.6 0 0 116.19 22.20
  Q 117.21 24.22 117.22 27.75
  Q 117.34 64.22 117.39 100.69
  Q 117.41 115.55 117.12 130.40
  C 117.04 134.84 117.54 142.22 116.57 148.22
  A 0.55 0.52 6.3 0 1 115.99 148.66
  Q 114.04 148.50 115.22 149.66
  A 0.67 0.53 -55.9 0 1 115.27 150.39
  L 113.80 153.16
  A 1.37 0.68 -72.2 0 1 113.18 153.80
  Q 111.43 154.40 110.31 155.89
  Q 109.98 156.32 109.57 156.51
  Q 103.80 159.27 97.26 158.69
  C 94.05 158.41 90.33 158.80 87.66 158.75
  C 76.19 158.56 24.86 158.84 23.70 157.65
  A 1.13 0.83 60.6 0 0 22.91 157.29
  Q 17.39 157.64 14.31 153.12
  C 13.96 152.61 11.46 150.75 14.14 151.31
  A 0.69 0.65 86.5 0 1 14.63 151.77
  Q 15.20 153.52 15.29 151.25
  Z"
/>
<path fill="#020302" fill-opacity="0.196" d="
  M 13.71 20.50
  Q 13.13 84.00 13.79 147.50
  L 13.75 147.71
  C 12.86 147.95 13.18 144.47 12.15 146.53
  A 0.85 0.60 42.7 0 0 12.32 147.32
  Q 12.70 147.78 12.47 148.32
  A 0.86 0.63 -57.3 0 0 12.52 149.12
  Q 13.72 150.59 12.17 149.96
  A 0.70 0.65 -77.0 0 1 11.77 149.26
  C 11.99 146.94 11.01 144.85 11.01 142.89
  Q 10.99 84.92 11.01 26.95
  C 11.01 25.12 11.69 23.19 11.55 21.16
  Q 11.51 20.57 12.02 20.87
  Q 13.16 21.55 13.71 20.50
  Z"
/>
<path fill="#ffffff" d="
  M 27.18 25.44
  Q 27.62 24.75 27.62 25.55
  L 27.66 33.61
  A 0.55 0.54 89.5 0 1 27.13 34.16
  L 22.25 34.20
  Q 21.71 34.20 22.01 33.72
  L 27.18 25.44
  Z"
/>
<path fill="#c4332c" d="
  M 42.18 51.40
  C 43.97 49.21 45.81 46.89 47.66 44.86
  A 0.44 0.42 46.3 0 1 48.30 44.89
  L 53.72 51.15
  A 0.62 0.60 43.9 0 1 53.75 51.91
  L 48.29 59.10
  A 0.37 0.37 -90.0 0 1 47.71 59.10
  L 42.20 52.15
  A 0.62 0.56 46.5 0 1 42.18 51.40
  Z"
/>
<path fill="#c4332c" d="
  M 79.79 44.76
  A 0.29 0.28 45.1 0 1 80.22 44.77
  L 85.72 51.16
  A 0.61 0.59 43.0 0 1 85.76 51.91
  L 80.29 59.10
  A 0.37 0.37 0.0 0 1 79.71 59.10
  L 74.21 52.15
  A 0.62 0.58 46.8 0 1 74.21 51.39
  L 79.79 44.76
  Z"
/>
<path fill="#c4332c" d="
  M 32.98 57.62
  L 26.30 66.14
  A 0.38 0.37 44.6 0 1 25.71 66.14
  L 19.36 58.09
  A 0.60 0.59 46.3 0 1 19.37 57.33
  L 25.67 49.82
  A 0.43 0.40 44.7 0 1 26.30 49.84
  L 32.97 57.39
  A 0.18 0.18 -47.8 0 1 32.98 57.62
  Z"
/>
<path fill="#c4332c" d="
  M 101.73 101.75
  A 0.37 0.36 44.6 0 1 102.30 101.75
  L 108.69 109.88
  A 0.61 0.58 46.4 0 1 108.69 110.63
  L 102.32 118.17
  A 0.41 0.40 44.2 0 1 101.70 118.17
  L 95.23 110.85
  A 0.66 0.65 -46.5 0 1 95.21 110.01
  L 101.73 101.75
  Z"
/>
<path fill="#c4332c" d="
  M 42.22 116.09
  C 43.87 113.73 45.89 111.13 47.75 108.93
  A 0.41 0.38 46.5 0 1 48.36 108.97
  L 53.77 115.87
  A 0.61 0.58 46.0 0 1 53.78 116.62
  L 48.34 123.13
  A 0.41 0.40 43.8 0 1 47.72 123.14
  L 42.29 116.86
  A 0.66 0.61 41.9 0 1 42.22 116.09
  Z"
/>
<path fill="#c4332c" d="
  M 79.86 108.82
  A 0.26 0.25 45.2 0 1 80.27 108.83
  L 85.79 115.85
  A 0.62 0.58 46.8 0 1 85.79 116.61
  L 80.35 123.13
  A 0.42 0.41 44.6 0 1 79.72 123.13
  L 74.27 116.84
  A 0.63 0.56 44.5 0 1 74.22 116.09
  L 79.86 108.82
  Z"
/>
<path fill="#c4332c" d="
  M 100.23 127.82
  L 100.38 129.76
  A 0.67 0.51 -1.8 0 0 101.04 130.23
  L 109.80 130.23
  A 0.84 0.77 -11.6 0 1 110.54 130.67
  Q 111.28 132.22 110.48 133.50
  Q 105.26 141.80 100.04 150.13
  A 1.41 1.11 -76.2 0 1 99.31 150.70
  Q 98.27 150.95 97.21 150.63
  A 0.73 0.65 -82.5 0 1 96.75 149.95
  L 96.70 134.25
  A 0.43 0.42 -4.7 0 0 96.20 133.84
  Q 92.37 134.42 93.62 130.68
  A 0.57 0.55 14.4 0 1 94.27 130.31
  Q 97.31 130.93 96.85 127.96
  A 0.83 0.70 5.0 0 0 96.26 127.36
  Q 94.12 126.76 95.12 124.24
  A 0.76 0.75 -79.1 0 1 95.82 123.76
  L 101.70 123.77
  A 0.54 0.52 0.6 0 1 102.23 124.29
  L 102.23 126.70
  A 0.55 0.52 -1.8 0 1 101.71 127.22
  L 100.81 127.28
  A 0.60 0.50 -3.5 0 0 100.23 127.82
  Z
  M 100.74 142.67
  L 105.99 134.37
  Q 106.29 133.89 105.74 133.88
  L 100.78 133.78
  A 0.54 0.49 -89.5 0 0 100.28 134.32
  L 100.25 142.52
  Q 100.25 143.45 100.74 142.67
  Z"
/>
<path fill="#ffffff" d="
  M 100.74 142.67
  Q 100.25 143.45 100.25 142.52
  L 100.28 134.32
  A 0.54 0.49 -89.5 0 1 100.78 133.78
  L 105.74 133.88
  Q 106.29 133.89 105.99 134.37
  L 100.74 142.67
  Z"
/>
</svg>
