<?xml version="1.0" encoding="utf-8"?>
<!-- Generator: Adobe Illustrator 27.0.1, SVG Export Plug-In . SVG Version: 6.00 Build 0)  -->
<svg version="1.1" id="Слой_1" xmlns="http://www.w3.org/2000/svg" xmlns:xlink="http://www.w3.org/1999/xlink" x="0px" y="0px"
	 viewBox="0 0 128 168" style="enable-background:new 0 0 128 168;" xml:space="preserve">
<style type="text/css">
	.st0{fill:#D8D8D8;}
	.st1{fill:#AAAAAA;}
	.st2{fill:#FFFFFF;}
	.st3{fill:#C4332C;}
</style>
<g>
	<path class="st0" d="M108,162H20.1c-6.9,0-12.4-5.6-12.4-12.4V19.1c0-6.9,5.6-12.4,12.4-12.4H108c6.9,0,12.4,5.6,12.4,12.4v130.5
		C120.4,156.4,114.8,162,108,162z"/>
	<path class="st1" d="M107,158.1H21.2c-5.5,0-9.9-4.4-9.9-9.9V20.1c0-5.5,4.4-9.9,9.9-9.9H107c5.5,0,9.9,4.4,9.9,9.9v128.1
		C116.9,153.7,112.4,158.1,107,158.1z"/>
	<path class="st2" d="M106.7,155.1H21.5c-4.4,0-8-3.6-8-8V21.2c0-4.4,3.6-8,8-8h85.2c4.4,0,8,3.6,8,8v125.9
		C114.6,151.5,111.1,155.1,106.7,155.1z"/>
</g>
<g>
	<path class="st3" d="M27.7,40.2v-1.9c0-0.3-0.2-0.5-0.5-0.5h-9.4c-0.3,0-0.5-0.2-0.5-0.5c-0.1-1.2-0.2-2.1,0.5-3.1
		c3.3-5.1,6.5-10.3,9.7-15.5c0.9-1.4,1.8-1.9,3.4-1.3c0.3,0.1,0.4,0.4,0.5,0.7l0.1,15.6c0,0.2,0.2,0.4,0.5,0.4
		c2.6-0.3,3.4,0.8,2.4,3.3c-0.1,0.3-0.4,0.4-0.7,0.4c-2-0.4-2.7,0.4-2.3,2.3c0.1,0.3,0.3,0.5,0.6,0.6c1.2,0.5,1.6,1.5,1.2,3.1
		c-0.1,0.3-0.3,0.5-0.7,0.5h-6c-0.3,0-0.6-0.2-0.7-0.5c-0.6-1.8-0.1-2.8,1.5-3C27.5,40.7,27.7,40.5,27.7,40.2z M27.2,25.4L22,33.7
		c-0.2,0.3-0.1,0.5,0.2,0.5h4.9c0.3,0,0.5-0.3,0.5-0.5v-8.1C27.6,25,27.5,25,27.2,25.4z"/>
	<path class="st2" d="M27.2,25.4c0.3-0.5,0.4-0.4,0.4,0.1v8.1c0,0.3-0.2,0.5-0.5,0.5h-4.9c-0.4,0-0.4-0.2-0.2-0.5L27.2,25.4z"/>
	<path class="st3" d="M42.2,51.4c1.8-2.2,3.6-4.5,5.5-6.5c0.2-0.2,0.4-0.2,0.6,0l0,0l5.4,6.3c0.2,0.2,0.2,0.5,0,0.8l-5.5,7.2
		c-0.1,0.2-0.4,0.2-0.5,0.1c0,0,0,0-0.1-0.1l-5.5-6.9C42,51.9,42,51.6,42.2,51.4z"/>
	<path class="st3" d="M79.8,44.8c0.1-0.1,0.3-0.1,0.4,0l0,0l5.5,6.4c0.2,0.2,0.2,0.5,0,0.8l-5.5,7.2c-0.1,0.2-0.4,0.2-0.5,0.1
		c0,0,0,0-0.1-0.1l-5.5-6.9c-0.2-0.2-0.2-0.6,0-0.8L79.8,44.8z"/>
	<path class="st3" d="M33,57.6l-6.7,8.5c-0.1,0.2-0.4,0.2-0.5,0.1c0,0,0,0-0.1-0.1l-6.3-8c-0.2-0.2-0.2-0.5,0-0.8l6.3-7.5
		c0.1-0.2,0.4-0.2,0.6,0l0,0l6.7,7.5C33,57.5,33,57.6,33,57.6z"/>
	<path class="st3" d="M101.7,101.7c0.1-0.2,0.4-0.2,0.5-0.1c0,0,0,0,0.1,0.1l6.4,8.1c0.2,0.2,0.2,0.5,0,0.8l-6.4,7.5
		c-0.1,0.2-0.4,0.2-0.6,0c0,0,0,0-0.1,0l-6.5-7.3c-0.2-0.2-0.2-0.6,0-0.8L101.7,101.7z"/>
	<path class="st3" d="M42.2,116.1c1.6-2.4,3.7-5,5.5-7.2c0.1-0.2,0.4-0.2,0.6,0c0,0,0,0,0.1,0.1l5.4,6.9c0.2,0.2,0.2,0.5,0,0.8
		l-5.4,6.5c-0.1,0.2-0.4,0.2-0.6,0.1c0,0,0,0-0.1,0l-5.4-6.3C42.1,116.6,42.1,116.3,42.2,116.1z"/>
	<path class="st3" d="M79.9,108.8c0.1-0.1,0.2-0.1,0.4,0c0,0,0,0,0.1,0.1l5.5,7c0.2,0.2,0.2,0.6,0,0.8l-5.4,6.5
		c-0.1,0.2-0.4,0.2-0.6,0l0,0l-5.5-6.3c-0.2-0.2-0.2-0.5,0-0.8L79.9,108.8z"/>
	<path class="st3" d="M100.2,127.8l0.1,1.9c0,0.3,0.3,0.5,0.7,0.5h8.8c0.3,0,0.6,0.2,0.7,0.4c0.5,1,0.5,2-0.1,2.8
		c-3.5,5.5-7,11.1-10.4,16.6c-0.2,0.3-0.4,0.5-0.7,0.6c-0.7,0.2-1.4,0.1-2.1-0.1c-0.3-0.1-0.5-0.4-0.5-0.7l-0.1-15.7
		c0-0.2-0.2-0.4-0.4-0.4c0,0,0,0-0.1,0c-2.6,0.4-3.4-0.7-2.6-3.2c0.1-0.3,0.4-0.4,0.6-0.4c2,0.4,2.9-0.4,2.6-2.3
		c0-0.3-0.3-0.5-0.6-0.6c-1.4-0.4-1.8-1.4-1.1-3.1c0.1-0.3,0.4-0.5,0.7-0.5h5.9c0.3,0,0.5,0.2,0.5,0.5v2.4c0,0.3-0.2,0.5-0.5,0.5
		l-0.9,0.1C100.5,127.3,100.2,127.5,100.2,127.8L100.2,127.8z M100.7,142.7l5.2-8.3c0.2-0.3,0.1-0.5-0.2-0.5l-5-0.1
		c-0.3,0-0.5,0.2-0.5,0.5l0,0v8.2C100.2,143.1,100.4,143.2,100.7,142.7z"/>
	<path class="st2" d="M100.7,142.7c-0.3,0.5-0.5,0.5-0.5-0.1v-8.2c0-0.3,0.2-0.5,0.5-0.5l5,0.1c0.4,0,0.5,0.2,0.2,0.5L100.7,142.7z"
		/>
</g>
</svg>
