<?xml version="1.0" encoding="utf-8"?>
<!-- Generator: Adobe Illustrator 27.0.1, SVG Export Plug-In . SVG Version: 6.00 Build 0)  -->
<svg version="1.1" id="Слой_1" xmlns="http://www.w3.org/2000/svg" xmlns:xlink="http://www.w3.org/1999/xlink" x="0px" y="0px"
	 viewBox="0 0 128 168" style="enable-background:new 0 0 128 168;" xml:space="preserve">
<style type="text/css">
	.st0{fill:#D8D8D8;}
	.st1{fill:#AAAAAA;}
	.st2{fill:#FFFFFF;}
	.st3{fill:#C4332C;}
</style>
<g>
	<path class="st0" d="M107.9,161.7H20.1c-6.9,0-12.4-5.6-12.4-12.4V18.8c0-6.9,5.6-12.4,12.4-12.4h87.8c6.9,0,12.4,5.6,12.4,12.4
		v130.5C120.3,156.1,114.8,161.7,107.9,161.7z"/>
	<path class="st1" d="M106.9,157.8H21.1c-5.5,0-9.9-4.4-9.9-9.9V19.8c0-5.5,4.4-9.9,9.9-9.9h85.8c5.5,0,9.9,4.4,9.9,9.9v128.1
		C116.8,153.4,112.4,157.8,106.9,157.8z"/>
	<path class="st2" d="M106.6,154.8H21.4c-4.4,0-8-3.6-8-8V20.9c0-4.4,3.6-8,8-8h85.2c4.4,0,8,3.6,8,8v125.9
		C114.6,151.2,111,154.8,106.6,154.8z"/>
</g>
<g>
	<path class="st3" d="M30.2,35c-4.3,2-7.8,1.5-10.5-1.5C10.2,23,27.4,9.2,32.8,22.6c2.4,5.8,2.3,11.5-0.3,17.1
		c-2.4,5.3-8.1,6.1-12.6,2.5c-2.4-1.9-2.2-3.2,0.5-3.9c0.3-0.1,0.6,0,0.8,0.3c3.8,4.5,8.9,1.8,9.4-3.4c0-0.2-0.1-0.3-0.3-0.3
		C30.3,35,30.3,35,30.2,35z M26.2,32.8c2.8-0.2,4.8-3.1,4.6-6.4c-1-7.8-10.5-7-10.2,0.9C20.9,30.5,23.4,33,26.2,32.8z"/>
	<path class="st2" d="M25.2,20.8c2.8-0.2,5.3,2.3,5.6,5.6c0.4,7.9-9.3,8.8-10.2,0.9C20.3,23.9,22.4,21.1,25.2,20.8z"/>
	<path class="st3" d="M42.2,51.5c1.5-2.2,3.7-4.8,5.5-6.7c0.2-0.2,0.4-0.2,0.6,0l0,0l5.4,6.3c0.2,0.2,0.2,0.5,0,0.8l-5.5,7.2
		c-0.1,0.2-0.4,0.2-0.5,0.1c0,0,0,0-0.1-0.1l-5.4-6.8C42.1,52.1,42,51.8,42.2,51.5z"/>
	<path class="st3" d="M79.8,44.8c0.1-0.1,0.3-0.1,0.4,0l0,0l5.5,6.4c0.2,0.2,0.2,0.5,0,0.8l-5.5,7.2c-0.1,0.2-0.4,0.2-0.5,0.1
		c0,0,0,0-0.1-0.1l-5.5-7c-0.2-0.2-0.2-0.5,0-0.8L79.8,44.8z"/>
	<path class="st3" d="M33,57.6l-6.7,8.5c-0.1,0.2-0.4,0.2-0.5,0.1c0,0,0,0-0.1-0.1l-6.3-8c-0.2-0.2-0.2-0.5,0-0.8l6.3-7.5
		c0.1-0.2,0.4-0.2,0.6,0l0,0l6.7,7.5C33,57.5,33,57.5,33,57.6z"/>
	<path class="st3" d="M63.8,55.4c0.1-0.1,0.3-0.1,0.4,0l0,0l5.6,6.5c0.2,0.2,0.2,0.5,0,0.8l-5.5,7.2c-0.1,0.1-0.3,0.1-0.5,0
		c0,0,0,0-0.1-0.1l-5.5-7.1c-0.2-0.2-0.2-0.5,0-0.8L63.8,55.4z"/>
	<path class="st3" d="M42.2,72.8c1.5-2.2,3.7-4.6,5.4-6.6c0.1-0.2,0.4-0.2,0.6,0l0,0l5.5,6.5c0.2,0.2,0.2,0.5,0,0.8l-5.5,7
		c-0.1,0.2-0.4,0.2-0.5,0.1c0,0,0,0-0.1-0.1l-5.4-6.8C42.1,73.4,42.1,73.1,42.2,72.8z"/>
	<path class="st3" d="M79.7,66.1c0.1-0.1,0.3-0.1,0.4,0l0,0l5.6,6.5c0.2,0.2,0.2,0.5,0,0.8l-5.5,7c-0.1,0.2-0.4,0.2-0.5,0
		c0,0,0,0-0.1-0.1l-5.4-6.8c-0.2-0.2-0.2-0.5,0-0.7L79.7,66.1z"/>
	<path class="st3" d="M42.2,94.4c2.1-2.1,3.6-4.5,5.5-6.8c0.1-0.2,0.4-0.2,0.6,0c0,0,0,0,0.1,0.1l5.4,7c0.2,0.2,0.2,0.5,0,0.8
		l-5.4,6.5c-0.1,0.2-0.4,0.2-0.6,0.1c0,0,0,0-0.1-0.1l-5.5-6.4C42,95.1,42,94.7,42.2,94.4z"/>
	<path class="st3" d="M79.7,87.5c0.1-0.2,0.4-0.2,0.5-0.1c0,0,0.1,0,0.1,0.1l5.4,6.9c0.2,0.2,0.2,0.5,0,0.8l-5.4,6.6
		c-0.1,0.2-0.4,0.2-0.6,0.1l0,0l-5.5-6.5c-0.2-0.2-0.2-0.5,0-0.8L79.7,87.5z"/>
	<path class="st3" d="M101.8,101.7c0.1-0.1,0.3-0.2,0.5-0.1c0,0,0,0,0.1,0.1l6.4,8.1c0.2,0.2,0.2,0.5,0,0.8l-6.4,7.5
		c-0.1,0.2-0.4,0.2-0.6,0l0,0l-6.4-7.3c-0.2-0.2-0.2-0.5,0-0.7L101.8,101.7z"/>
	<path class="st3" d="M42.2,116.1c1.6-2.4,3.7-5,5.5-7.2c0.1-0.2,0.4-0.2,0.6,0c0,0,0,0,0.1,0.1l5.4,6.9c0.2,0.2,0.2,0.5,0,0.8
		l-5.4,6.5c-0.1,0.2-0.4,0.2-0.6,0.1c0,0,0,0-0.1,0l-5.4-6.3C42.1,116.6,42.1,116.3,42.2,116.1z"/>
	<path class="st3" d="M79.8,108.8c0.1-0.1,0.3-0.2,0.4,0c0,0,0,0,0.1,0.1l5.5,7c0.2,0.2,0.2,0.5,0,0.8l-5.4,6.5
		c-0.1,0.2-0.4,0.2-0.6,0l0,0l-5.5-6.3c-0.2-0.2-0.2-0.5,0-0.8L79.8,108.8z"/>
	<path class="st3" d="M97.8,132.7c4.6-1.8,8.2-1.1,10.9,2.1c8.7,10.4-8.1,23.5-13.5,10.5c-2.3-5.4-3-18.3,4.2-21.1
		c4.1-1.6,7.5-0.5,10.3,3.3c0.2,0.2,0.2,0.6,0,0.8c-0.5,0.6-1.1,1-1.8,1.2c-0.3,0.1-0.6,0-0.9-0.2c-4.8-3.9-8-2.9-9.5,3.1
		C97.3,132.8,97.5,132.9,97.8,132.7z M102.8,147.1c2.8-0.2,4.8-3.1,4.6-6.3l0,0c-0.3-3.3-2.7-5.7-5.5-5.5l0,0
		c-2.8,0.2-4.8,3.1-4.6,6.3l0,0C97.5,144.9,100,147.3,102.8,147.1L102.8,147.1z"/>
	<path class="st2" d="M101.8,135.3c2.8-0.2,5.3,2.2,5.6,5.5c0.4,7.8-9.3,8.6-10.2,0.8C96.9,138.4,99,135.5,101.8,135.3z"/>
</g>
</svg>
