<?xml version="1.0" encoding="utf-8"?>
<!-- Generator: Adobe Illustrator 27.0.1, SVG Export Plug-In . SVG Version: 6.00 Build 0)  -->
<svg version="1.1" id="Слой_1" xmlns="http://www.w3.org/2000/svg" xmlns:xlink="http://www.w3.org/1999/xlink" x="0px" y="0px"
	 viewBox="0 0 128 168" style="enable-background:new 0 0 128 168;" xml:space="preserve">
<style type="text/css">
	.st0{fill:#D8D8D8;}
	.st1{fill:#AAAAAA;}
	.st2{fill:#FFFFFF;}
	.st3{fill:#C4332C;}
</style>
<g>
	<path class="st0" d="M107.9,161.7H20.1c-6.9,0-12.4-5.6-12.4-12.4V18.8c0-6.9,5.6-12.4,12.4-12.4h87.8c6.9,0,12.4,5.6,12.4,12.4
		v130.5C120.3,156.1,114.8,161.7,107.9,161.7z"/>
	<path class="st1" d="M106.9,157.8H21.1c-5.5,0-9.9-4.4-9.9-9.9V19.8c0-5.5,4.4-9.9,9.9-9.9h85.8c5.5,0,9.9,4.4,9.9,9.9v128.1
		C116.8,153.4,112.4,157.8,106.9,157.8z"/>
	<path class="st2" d="M106.6,154.8H21.4c-4.4,0-8-3.6-8-8V20.9c0-4.4,3.6-8,8-8h85.2c4.4,0,8,3.6,8,8v125.9
		C114.6,151.2,111,154.8,106.6,154.8z"/>
</g>
<g>
	<path class="st3" d="M23,40.7c1.3,0.6,1.7,1.7,1.1,3.2c-0.1,0.3-0.4,0.5-0.7,0.5l-5.7-0.1c-0.3,0-0.6-0.2-0.7-0.5
		c-0.7-2-0.1-3,1.8-3.1c0.3,0,0.5-0.2,0.6-0.5L23.5,18c0.1-0.3,0.3-0.6,0.6-0.7c1.1-0.4,2.1-0.4,3.2-0.1c0.3,0.1,0.5,0.3,0.6,0.6
		l4.2,22.4c0.1,0.3,0.3,0.5,0.6,0.5c1.9,0.1,2.5,1.2,1.7,3.2c-0.1,0.3-0.4,0.5-0.7,0.5l-5.8-0.1c-0.3,0-0.6-0.2-0.6-0.5l-0.1-2.1
		c0-0.3,0.2-0.5,0.5-0.6c1-0.4,1.3-1.1,0.7-2.3c-0.1-0.3-0.4-0.5-0.7-0.5h-4.2c-0.6,0-0.7,1.3-0.9,1.8C22.7,40.4,22.8,40.6,23,40.7z
		 M25.8,25.3c-0.4-0.2-1.7,8-1.9,9c-0.1,0.3,0.1,0.6,0.4,0.6c1,0.3,2,0.3,3,0c0.3-0.1,0.4-0.3,0.4-0.6l-1.5-8.4
		C26,25.5,25.9,25.4,25.8,25.3z"/>
	<path class="st2" d="M23.9,34.2c0.2-1,1.5-9.1,1.9-9c0.1,0.1,0.2,0.3,0.3,0.5l1.5,8.4c0.1,0.3-0.1,0.6-0.4,0.6c-1,0.3-2,0.3-3,0
		C24,34.8,23.8,34.5,23.9,34.2z"/>
	<path class="st3" d="M32.8,57.8l-6.5,8.3c-0.1,0.2-0.4,0.2-0.5,0.1c0,0,0,0-0.1-0.1l-6.3-8c-0.2-0.2-0.2-0.5,0-0.8l6.3-7.5
		c0.1-0.2,0.4-0.2,0.6-0.1l0,0l6.5,7.4C32.9,57.4,32.9,57.6,32.8,57.8z"/>
	<path class="st3" d="M63.7,74.9c0-0.2,0.2-0.5,0.4-0.2l0,0l7.6,8.9c0.2,0.2,0.2,0.5,0,0.8l-7.4,9.5c-0.1,0.2-0.4,0.2-0.5,0.1
		c0,0,0,0-0.1-0.1l-7.5-9.5c-0.2-0.2-0.2-0.5,0-0.8C58.9,80.8,61.4,77.9,63.7,74.9z"/>
	<path class="st3" d="M101.7,101.7c0.1-0.2,0.3-0.2,0.5-0.1c0,0,0.1,0,0.1,0.1l6.4,8.1c0.2,0.2,0.2,0.5,0,0.8l-6.4,7.5
		c-0.1,0.2-0.4,0.2-0.6,0l0,0l-6.4-7.3c-0.2-0.2-0.2-0.5,0-0.7L101.7,101.7z"/>
	<path class="st3" d="M100.3,129.7h3.9c0.3,0,0.6-0.2,0.8-0.4c0.7-1.2,0.5-2-0.6-2.4c-0.3-0.1-0.5-0.4-0.5-0.6v-2.1
		c0-0.3,0.3-0.5,0.6-0.5h5.9c0.3,0,0.6,0.2,0.7,0.5c0.7,2,0.1,3-1.8,3.1c-0.3,0-0.5,0.2-0.6,0.5l-4.1,22.2c-0.1,0.3-0.3,0.6-0.6,0.7
		c-1.1,0.4-2.1,0.4-3.2,0.1c-0.3-0.1-0.5-0.3-0.6-0.6L96,127.8c-0.1-0.3-0.3-0.5-0.6-0.5c-1.9-0.1-2.5-1.1-1.7-3.2
		c0.1-0.3,0.4-0.5,0.7-0.5l5.8,0.1c0.3,0,0.6,0.2,0.6,0.5l0.1,2.1c0,0.3-0.2,0.5-0.5,0.6c-1.1,0.4-1.3,1.2-0.6,2.4
		C99.7,129.5,100,129.7,100.3,129.7z M102.6,141.2l1.5-7.4c0.1-0.3-0.1-0.6-0.4-0.6c-1-0.3-2-0.3-3,0c-0.3,0.1-0.4,0.4-0.4,0.6
		l1.4,7.4C102,142.7,102.3,142.7,102.6,141.2z"/>
	<path class="st2" d="M102.6,141.2c-0.3,1.5-0.6,1.5-0.9,0l-1.4-7.4c-0.1-0.3,0.1-0.6,0.4-0.6c1-0.3,2-0.3,3,0
		c0.3,0.1,0.4,0.4,0.4,0.6L102.6,141.2z"/>
</g>
</svg>
