<?xml version="1.0" encoding="utf-8"?>
<!-- Generator: Adobe Illustrator 27.0.1, SVG Export Plug-In . SVG Version: 6.00 Build 0)  -->
<svg version="1.1" id="Слой_1" xmlns="http://www.w3.org/2000/svg" xmlns:xlink="http://www.w3.org/1999/xlink" x="0px" y="0px"
	 viewBox="0 0 128 168" style="enable-background:new 0 0 128 168;" xml:space="preserve">
<style type="text/css">
	.st0{fill:#D8D8D8;}
	.st1{fill:#AAAAAA;}
	.st2{fill:#FFFFFF;}
	.st3{fill:#C4332C;}
</style>
<g>
	<path class="st0" d="M107.9,161.7H20.1c-6.9,0-12.4-5.6-12.4-12.4V18.8c0-6.9,5.6-12.4,12.4-12.4h87.8c6.9,0,12.4,5.6,12.4,12.4
		v130.5C120.3,156.1,114.8,161.7,107.9,161.7z"/>
	<path class="st1" d="M106.9,157.8H21.1c-5.5,0-9.9-4.4-9.9-9.9V19.8c0-5.5,4.4-9.9,9.9-9.9h85.8c5.5,0,9.9,4.4,9.9,9.9v128.1
		C116.8,153.4,112.4,157.8,106.9,157.8z"/>
	<path class="st2" d="M106.6,154.8H21.4c-4.4,0-8-3.6-8-8V20.9c0-4.4,3.6-8,8-8h85.2c4.4,0,8,3.6,8,8v125.9
		C114.6,151.2,111,154.8,106.6,154.8z"/>
</g>
<g>
	<path class="st3" d="M35,38.9c0,3.4-2.9,6-6.3,5.8c-3.2,0-5.8-2.6-5.8-5.8v-16c0.2-7.7,11.9-7.7,12.1,0l0,0V38.9z M31.2,22.8
		c0-3.1-4.7-3.1-4.7,0c0,0,0,16.1,0,16.1c0,1.3,1,2.3,2.3,2.3c1.3,0.1,2.4-1,2.4-2.3l0,0V22.8z"/>
	<path class="st3" d="M17.3,17.3H20c0.3,0,0.5,0.2,0.5,0.5v25.9c0,0.3-0.2,0.5-0.5,0.5h-2.7c-0.3,0-0.5-0.2-0.5-0.5V17.8
		C16.8,17.5,17,17.3,17.3,17.3z"/>
	<path class="st2" d="M28.8,20.5c1.3-0.1,2.4,1,2.4,2.3c0,0,0,16.1,0,16.1c0,1.3-1.1,2.4-2.4,2.3c-1.3,0-2.3-1-2.3-2.3V22.8
		C26.5,21.6,27.5,20.5,28.8,20.5z"/>
	<path class="st3" d="M42.2,51.6c1.5-2.2,3.7-4.7,5.5-6.7c0.2-0.2,0.4-0.2,0.6,0l0,0l5.4,6.3c0.2,0.2,0.2,0.5,0,0.8l-5.5,7.2
		c-0.1,0.2-0.3,0.2-0.5,0.1c0,0,0,0-0.1-0.1l-5.4-6.8C42.1,52.1,42,51.8,42.2,51.6z"/>
	<path class="st3" d="M79.8,44.8c0.1-0.1,0.3-0.1,0.4,0l0,0l5.5,6.4c0.2,0.2,0.2,0.5,0,0.8l-5.5,7.2c-0.1,0.2-0.4,0.2-0.5,0.1
		c0,0,0,0-0.1-0.1l-5.5-7c-0.2-0.2-0.2-0.5,0-0.8L79.8,44.8z"/>
	<path class="st3" d="M33,57.6l-6.7,8.5c-0.1,0.2-0.4,0.2-0.5,0.1c0,0,0,0-0.1-0.1l-6.3-8c-0.2-0.2-0.2-0.5,0-0.8l6.3-7.5
		c0.1-0.2,0.4-0.2,0.6,0l0,0l6.7,7.5C33,57.5,33,57.5,33,57.6z"/>
	<path class="st3" d="M63.8,55.4c0.1-0.1,0.3-0.1,0.4,0l0,0l5.6,6.5c0.2,0.2,0.2,0.5,0,0.8l-5.5,7.2c-0.1,0.1-0.3,0.1-0.5,0
		c0,0,0,0-0.1-0.1l-5.5-7.1c-0.2-0.2-0.2-0.5,0-0.8L63.8,55.4z"/>
	<path class="st3" d="M42.2,72.8c1.4-2.1,3.7-4.7,5.4-6.5c0.2-0.2,0.5-0.2,0.7,0l0,0l5.4,6.5c0.2,0.2,0.2,0.5,0,0.8l-5.5,6.8
		c-0.1,0.2-0.4,0.2-0.5,0.1c0,0,0,0-0.1-0.1l-5.4-6.8C42.1,73.4,42.1,73.1,42.2,72.8z"/>
	<path class="st3" d="M79.7,66.1c0.1-0.1,0.3-0.1,0.4,0l0,0l5.6,6.6c0.2,0.2,0.2,0.5,0,0.8l-5.5,7c-0.1,0.2-0.4,0.2-0.5,0.1
		c0,0,0,0-0.1-0.1l-5.5-7c-0.2-0.2-0.2-0.5,0-0.8L79.7,66.1z"/>
	<path class="st3" d="M42.2,94.4c2.1-2.1,3.5-4.5,5.4-6.8c0.1-0.2,0.4-0.2,0.5,0c0,0,0,0,0.1,0.1l5.4,6.8c0.2,0.2,0.2,0.5,0,0.8
		l-5.4,6.6c-0.1,0.2-0.4,0.2-0.6,0c0,0,0,0-0.1-0.1L42,95.4C42,95.1,42,94.7,42.2,94.4z"/>
	<path class="st3" d="M79.7,87.5c0.1-0.1,0.3-0.2,0.5-0.1c0,0,0,0,0.1,0.1l5.5,7.1c0.2,0.2,0.2,0.5,0,0.8l-5.3,6.5
		c-0.2,0.2-0.4,0.2-0.6,0.1l0,0l-5.6-6.5c-0.2-0.2-0.2-0.5,0-0.8L79.7,87.5z"/>
	<path class="st3" d="M63.8,98.1c0.1-0.1,0.3-0.2,0.4-0.1c0,0,0,0,0.1,0.1l5.5,7.2c0.2,0.2,0.2,0.5,0,0.8l-5.4,6.3
		c-0.1,0.2-0.4,0.2-0.6,0.1l0,0l-5.5-6.3c-0.2-0.2-0.2-0.5,0-0.8L63.8,98.1z"/>
	<path class="st3" d="M101.7,101.7c0.1-0.2,0.3-0.2,0.5-0.1c0,0,0.1,0,0.1,0.1l6.4,8.1c0.2,0.2,0.2,0.5,0,0.8l-6.4,7.5
		c-0.1,0.2-0.4,0.2-0.6,0l0,0l-6.4-7.3c-0.2-0.2-0.2-0.5,0-0.7L101.7,101.7z"/>
	<path class="st3" d="M42.2,116.1c1.6-2.3,3.7-5,5.5-7.2c0.1-0.2,0.4-0.2,0.5,0c0,0,0,0,0.1,0.1l5.4,6.9c0.2,0.2,0.2,0.5,0,0.8
		l-5.4,6.5c-0.2,0.2-0.4,0.2-0.6,0l0,0l-5.4-6.3C42.1,116.6,42.1,116.3,42.2,116.1z"/>
	<path class="st3" d="M79.8,108.8c0.1-0.1,0.3-0.1,0.4,0c0,0,0,0,0.1,0.1l5.5,7c0.2,0.2,0.2,0.5,0,0.8l-5.4,6.5
		c-0.1,0.2-0.4,0.2-0.6,0c0,0,0,0-0.1-0.1l-5.5-6.3c-0.2-0.2-0.2-0.5,0-0.8L79.8,108.8z"/>
	<path class="st3" d="M105.2,145.1c0,3.2-2.6,5.8-5.8,5.8c-3.4,0.2-6.3-2.4-6.3-5.8l0,0v-16c0-3.2,2.6-5.8,5.8-5.8
		c3.4-0.2,6.3,2.4,6.3,5.8l0,0V145.1z M101.5,129.1c0-3.1-4.7-3.1-4.7,0c0,0,0,16.1,0,16.1c0,1.3,1,2.3,2.3,2.3
		c1.3,0.1,2.4-1,2.4-2.3C101.5,145.2,101.5,129.1,101.5,129.1z"/>
	<path class="st3" d="M108,123.7h2.7c0.3,0,0.5,0.2,0.5,0.5v25.9c0,0.3-0.2,0.5-0.5,0.5H108c-0.3,0-0.5-0.2-0.5-0.5v-25.9
		C107.5,124,107.7,123.7,108,123.7z"/>
	<path class="st2" d="M99.1,126.8c1.3-0.1,2.4,1,2.4,2.3c0,0,0,16.1,0,16.1c0,1.3-1.1,2.4-2.4,2.3c-1.3,0-2.3-1-2.3-2.3v-16.1
		C96.8,127.8,97.8,126.8,99.1,126.8z"/>
</g>
</svg>
