<?xml version="1.0" encoding="utf-8"?>
<!-- Generator: Adobe Illustrator 27.0.1, SVG Export Plug-In . SVG Version: 6.00 Build 0)  -->
<svg version="1.1" id="Слой_1" xmlns="http://www.w3.org/2000/svg" xmlns:xlink="http://www.w3.org/1999/xlink" x="0px" y="0px"
	 viewBox="0 0 128 168" style="enable-background:new 0 0 128 168;" xml:space="preserve">
<style type="text/css">
	.st0{fill:#D8D8D8;}
	.st1{fill:#AAAAAA;}
	.st2{fill:#FFFFFF;}
	.st3{fill:#C4332C;}
</style>
<g>
	<path class="st0" d="M107.9,161.6H20.1c-6.9,0-12.4-5.6-12.4-12.4V18.7c0-6.9,5.6-12.4,12.4-12.4h87.8c6.9,0,12.4,5.6,12.4,12.4
		v130.5C120.3,156.1,114.8,161.6,107.9,161.6z"/>
	<path class="st1" d="M106.9,157.8H21.1c-5.5,0-9.9-4.4-9.9-9.9V19.8c0-5.5,4.4-9.9,9.9-9.9h85.8c5.5,0,9.9,4.4,9.9,9.9v128.1
		C116.8,153.3,112.4,157.8,106.9,157.8z"/>
	<path class="st2" d="M106.6,154.7H21.4c-4.4,0-8-3.6-8-8V20.9c0-4.4,3.6-8,8-8h85.2c4.4,0,8,3.6,8,8v125.9
		C114.6,151.1,111,154.7,106.6,154.7z"/>
</g>
<g>
	<path class="st3" d="M20.9,21.3c0.5,2.7-0.6,3.7-3.1,2.9c-0.3-0.1-0.5-0.4-0.5-0.7l0.1-5.7c0-0.3,0.3-0.5,0.6-0.5h15.9
		c0.3,0,0.6,0.2,0.7,0.4c0.6,1.4-4.9,6.1-6.6,7.7c-0.2,0.2-0.1,0.4,0.1,0.5c4.7,1.7,6.9,4.8,6.6,9.3c-0.6,10.1-13.8,13-17.8,3
		c-0.1-0.3,0-0.6,0.2-0.8c0.7-0.6,1.5-0.8,2.3-0.7c0.3,0,0.6,0.2,0.8,0.5c2.5,4,5.4,4.9,8.5,2.5c6.1-4.6,0.6-13.4-5.6-9.5
		c-0.3,0.2-0.6,0.2-0.9,0c-0.7-0.4-1.3-1-1.7-1.7c-0.1-0.2-0.1-0.6,0.1-0.8l6.7-6.5c0.3-0.3,0.2-0.4-0.2-0.4l-6-0.1
		C21.1,20.8,20.9,21,20.9,21.3C20.9,21.2,20.9,21.3,20.9,21.3z"/>
	<path class="st3" d="M63.8,44.8c0.1-0.1,0.3-0.1,0.4,0l0,0l5.5,6.4c0.2,0.2,0.2,0.5,0,0.8l-5.5,7.2c-0.1,0.2-0.3,0.2-0.5,0.1
		c0,0-0.1,0-0.1-0.1l-5.5-7c-0.2-0.2-0.2-0.5,0-0.8L63.8,44.8z"/>
	<path class="st3" d="M32.8,57.8l-6.5,8.3c-0.1,0.2-0.3,0.2-0.5,0.1c0,0,0,0-0.1-0.1l-6.3-8c-0.2-0.2-0.2-0.5,0-0.8l6.3-7.5
		c0.1-0.2,0.4-0.2,0.6,0c0,0,0,0,0.1,0l6.5,7.4C32.9,57.4,32.9,57.6,32.8,57.8z"/>
	<path class="st3" d="M63.8,76.8c0.1-0.1,0.3-0.1,0.4,0l0,0l5.5,6.4c0.2,0.2,0.2,0.5,0,0.8l-5.5,7.2c-0.1,0.2-0.3,0.2-0.5,0.1
		c0,0-0.1,0-0.1-0.1l-5.5-7c-0.2-0.2-0.2-0.5,0-0.8L63.8,76.8z"/>
	<path class="st3" d="M101.8,101.7c0.1-0.1,0.3-0.2,0.5-0.1c0,0,0,0,0.1,0.1l6.4,8.1c0.2,0.2,0.2,0.5,0,0.8l-6.4,7.5
		c-0.1,0.2-0.4,0.2-0.6,0l0,0l-6.4-7.3c-0.2-0.2-0.2-0.5,0-0.7L101.8,101.7z"/>
	<path class="st3" d="M63.8,108.8c0.1-0.1,0.3-0.1,0.4,0l0,0l5.5,7c0.2,0.2,0.2,0.5,0,0.8l-5.4,6.5c-0.1,0.2-0.4,0.2-0.6,0
		c0,0,0,0-0.1,0l-5.5-6.3c-0.2-0.2-0.2-0.5,0-0.8L63.8,108.8z"/>
	<path class="st3" d="M100.8,147.2l6-0.1c0.2,0,0.4-0.3,0.4-0.6c-0.5-2.5,0.4-3.4,2.8-2.8c0.3,0.1,0.5,0.3,0.6,0.7
		c0.3,1.9,0.2,3.8-0.2,5.7c-0.1,0.3-0.3,0.5-0.6,0.5c0,0-15.8,0.1-15.8,0.1c-1.6,0-1.7-0.6-0.5-1.8l6.4-6.4c0.2-0.2,0.1-0.4-0.1-0.5
		c-7.5-2.4-9.1-11.5-3.1-16.4c5.2-4.2,11.7-1.9,14.2,4.1c0.1,0.3,0,0.6-0.2,0.8c-0.8,0.5-2.2,1.3-2.9,0.4c-2.4-4.9-8.1-5.3-10.5-0.5
		c-2.5,5,2.3,10.2,7.4,7.3c0.3-0.2,0.6-0.2,0.9-0.1c0.9,0.4,1.5,1,1.9,1.9c0.1,0.2,0,0.5-0.2,0.8l-6.5,6.5
		C100.3,147.1,100.4,147.2,100.8,147.2z"/>
</g>
</svg>
