<?xml version="1.0" encoding="utf-8"?>
<!-- Generator: Adobe Illustrator 27.0.1, SVG Export Plug-In . SVG Version: 6.00 Build 0)  -->
<svg version="1.1" id="Слой_1" xmlns="http://www.w3.org/2000/svg" xmlns:xlink="http://www.w3.org/1999/xlink" x="0px" y="0px"
	 viewBox="0 0 128 168" style="enable-background:new 0 0 128 168;" xml:space="preserve">
<style type="text/css">
	.st0{fill:#D8D8D8;}
	.st1{fill:#AAAAAA;}
	.st2{fill:#FFFFFF;}
	.st3{fill:#C4332C;}
	.st4{fill:#020101;fill-opacity:3.900000e-02;}
</style>
<g>
	<path class="st0" d="M107.9,161.7H20.1c-6.9,0-12.4-5.6-12.4-12.4V18.8c0-6.9,5.6-12.4,12.4-12.4h87.8c6.9,0,12.4,5.6,12.4,12.4
		v130.5C120.3,156.1,114.8,161.7,107.9,161.7z"/>
	<path class="st1" d="M106.9,157.8H21.1c-5.5,0-9.9-4.4-9.9-9.9V19.8c0-5.5,4.4-9.9,9.9-9.9h85.8c5.5,0,9.9,4.4,9.9,9.9v128.1
		C116.8,153.4,112.4,157.8,106.9,157.8z"/>
	<path class="st2" d="M106.6,154.8H21.4c-4.4,0-8-3.6-8-8V20.9c0-4.4,3.6-8,8-8h85.2c4.4,0,8,3.6,8,8v125.9
		C114.6,151.2,111,154.8,106.6,154.8z"/>
</g>
<g>
	<path class="st3" d="M21.8,25.7C32,20,38.4,34.9,31.5,42.1c-3.5,3.7-10.1,3-12.2-2.1c-2.4-5.7-3.4-16.5,1.6-21.2
		c3.6-3.4,9.7-1.8,12.4,2.3c0.6,0.9-1.5,1.9-2.2,2.1c-0.3,0.1-0.6,0-0.8-0.3c-3.2-4.3-8.3-2.5-8.9,2.6
		C21.3,25.8,21.4,25.9,21.8,25.7z M26.3,40.9c6.5-0.6,5.8-12.8-0.6-12.8l0,0c-2.7,0.1-4.8,3.1-4.6,6.6C21.2,38.2,23.5,41,26.3,40.9
		L26.3,40.9z"/>
	<path class="st2" d="M25.7,28c2.7-0.1,5,2.6,5.2,6.2c0.1,8.5-9.2,8.9-9.8,0.4C20.9,31.1,23,28.1,25.7,28z"/>
	<path class="st3" d="M42.2,51.5c1.5-2.2,3.7-4.8,5.5-6.7c0.2-0.2,0.4-0.2,0.6,0l0,0l5.4,6.3c0.2,0.2,0.2,0.5,0,0.8l-5.5,7.2
		c-0.1,0.2-0.4,0.2-0.5,0.1c0,0,0,0-0.1-0.1l-5.4-6.8C42.1,52.1,42,51.8,42.2,51.5z"/>
	<path class="st3" d="M79.8,44.8c0.1-0.1,0.3-0.1,0.4,0l0,0l5.5,6.4c0.2,0.2,0.2,0.5,0,0.8l-5.5,7.2c-0.1,0.2-0.4,0.2-0.5,0.1
		c0,0,0,0-0.1-0.1l-5.5-7c-0.2-0.2-0.2-0.5,0-0.8L79.8,44.8z"/>
	<path class="st3" d="M32.8,57.8l-6.5,8.3c-0.1,0.2-0.4,0.2-0.5,0.1c0,0,0,0-0.1-0.1l-6.3-8c-0.2-0.2-0.2-0.6,0-0.8l6.3-7.5
		c0.1-0.2,0.4-0.2,0.6,0c0,0,0,0,0.1,0l6.5,7.4C32.9,57.4,32.9,57.6,32.8,57.8z"/>
	<path class="st3" d="M42.2,83.5c1.3-2.2,3.8-4.7,5.4-6.6c0.1-0.2,0.4-0.2,0.6,0l0,0l5.5,6.3c0.2,0.2,0.2,0.5,0,0.8l-5.5,7.2
		c-0.1,0.2-0.3,0.2-0.5,0.1c0,0,0,0-0.1-0.1l-5.4-6.8C42.1,84.1,42.1,83.7,42.2,83.5z"/>
	<path class="st3" d="M79.8,76.8c0.1-0.1,0.3-0.1,0.4,0l0,0l5.5,6.4c0.2,0.2,0.2,0.5,0,0.8l-5.5,7.2c-0.1,0.2-0.4,0.2-0.5,0.1
		c0,0,0,0-0.1-0.1l-5.5-7c-0.2-0.2-0.2-0.5,0-0.8L79.8,76.8z"/>
	<path class="st3" d="M101.8,101.7c0.1-0.1,0.3-0.2,0.5-0.1c0,0,0,0,0.1,0.1l6.4,8.1c0.2,0.2,0.2,0.5,0,0.7l-6.4,7.5
		c-0.1,0.2-0.4,0.2-0.6,0l0,0l-6.4-7.3c-0.2-0.2-0.2-0.5,0-0.7L101.8,101.7z"/>
	<path class="st3" d="M42.2,116.1c1.6-2.4,3.7-5,5.5-7.2c0.1-0.2,0.4-0.2,0.6,0c0,0,0,0,0.1,0.1l5.4,6.9c0.2,0.2,0.2,0.5,0,0.8
		l-5.4,6.5c-0.1,0.2-0.4,0.2-0.6,0.1c0,0,0,0-0.1,0l-5.4-6.3C42.1,116.6,42.1,116.3,42.2,116.1z"/>
	<path class="st3" d="M79.8,108.8c0.1-0.1,0.3-0.1,0.4,0c0,0,0,0,0.1,0.1l5.5,7c0.2,0.2,0.2,0.5,0,0.8l-5.5,6.5
		c-0.1,0.2-0.4,0.2-0.6,0c0,0,0,0-0.1,0l-5.5-6.3c-0.2-0.2-0.2-0.5,0-0.8L79.8,108.8z"/>
	<path class="st3" d="M106.2,142.3c-12.4,6.6-18-15.4-6.1-18.5c12.1-3.2,12.8,20,6.9,25.4c-3.6,3.3-9.6,1.7-12.3-2.3
		c-0.7-0.9,1.4-1.9,2.2-2.1c0.3-0.1,0.6,0.1,0.8,0.3c3,4.3,8.4,2.5,8.9-2.6C106.7,142.2,106.5,142.1,106.2,142.3z M104.3,127.9
		c-1.4-1.3-2.8-1.4-4.3-0.2c-7.7,6.2,1.8,18.2,6.5,8.9C107.9,133.8,106.3,129.9,104.3,127.9z"/>
	<path class="st4" d="M114.8,125.1c0.3,5.2,0.3,10.4,0,15.6c0,0.5,0,0.5,0,0V125.1C114.8,124.6,114.8,124.6,114.8,125.1z"/>
	<path class="st2" d="M104.3,127.9c2.1,2,3.7,5.9,2.2,8.7c-4.7,9.3-14.3-2.7-6.5-8.9C101.5,126.5,102.9,126.6,104.3,127.9z"/>
</g>
</svg>
