<?xml version="1.0" encoding="utf-8"?>
<!-- Generator: Adobe Illustrator 27.0.1, SVG Export Plug-In . SVG Version: 6.00 Build 0)  -->
<svg version="1.1" id="Слой_1" xmlns="http://www.w3.org/2000/svg" xmlns:xlink="http://www.w3.org/1999/xlink" x="0px" y="0px"
	 viewBox="0 0 128 168" style="enable-background:new 0 0 128 168;" xml:space="preserve">
<style type="text/css">
	.st0{fill:#D8D8D8;}
	.st1{fill:#AAAAAA;}
	.st2{fill:#FFFFFF;}
	.st3{fill:#C4332C;}
	.st4{fill:#22232D;}
	.st5{fill:#B3181E;}
	.st6{fill:#80782A;}
	.st7{fill:#DDCE2D;}
	.st8{fill:#9A902C;}
	.st9{fill:#39353A;}
	.st10{fill:#B1A629;}
	.st11{fill:#0A0919;}
	.st12{fill:#4D4924;}
	.st13{fill:#C5B52C;}
	.st14{fill:#B7B9CA;}
	.st15{fill:#CBC8D8;}
	.st16{fill:#3F4127;}
	.st17{fill:#3D446E;}
	.st18{fill:#F5DE32;}
	.st19{fill:#222221;}
	.st20{fill:#282A43;}
	.st21{fill:#D7C934;}
	.st22{fill:#2D2E4E;}
	.st23{fill:#9594A3;}
	.st24{fill:#616789;}
	.st25{fill:#D5D6DE;}
	.st26{fill:#F2F3F6;fill-opacity:0.969;}
	.st27{fill:#621A20;}
</style>
<g>
	<path class="st0" d="M108,161.2H20.1c-6.9,0-12.4-5.6-12.4-12.4V18.3c0-6.9,5.6-12.4,12.4-12.4H108c6.9,0,12.4,5.6,12.4,12.4v130.5
		C120.4,155.6,114.8,161.2,108,161.2z"/>
	<path class="st1" d="M107,157.3H21.2c-5.5,0-9.9-4.4-9.9-9.9V19.3c0-5.5,4.4-9.9,9.9-9.9H107c5.5,0,9.9,4.4,9.9,9.9v128.1
		C116.9,152.9,112.4,157.3,107,157.3z"/>
	<path class="st2" d="M106.7,154.3H21.5c-4.4,0-8-3.6-8-8V20.4c0-4.4,3.6-8,8-8h85.2c4.4,0,8,3.6,8,8v125.9
		C114.6,150.7,111.1,154.3,106.7,154.3z"/>
</g>
<g>
	<path class="st3" d="M31.8,21.6c-0.1,6.5,2.4,20.8-5.6,22.7c-5.5,1.3-9.2-3.2-9-8.6c0-0.3,0.2-0.6,0.5-0.7c0.9-0.4,1.8-0.4,2.7,0
		c0.3,0.1,0.4,0.4,0.4,0.7c-0.8,6.1,7.4,7.3,7.5,0.7c0.1-5,0.1-9.9,0-14.9c0-0.2-0.2-0.4-0.4-0.4c0,0,0,0-0.1,0
		c-2.4,0.4-3.2-0.7-2.4-3.2c0.1-0.3,0.4-0.5,0.7-0.5l7.7-0.1c0.3,0,0.6,0.2,0.7,0.5c0.8,2.3,0.1,3.4-2.1,3.4
		C32,21.1,31.8,21.3,31.8,21.6L31.8,21.6z"/>
	<path class="st4" d="M100.3,100.7c-0.1-2.7-0.5-5.4-1.3-8.1c-0.1-0.3-0.1-0.6,0.1-0.9c1.8-3.8,1.8-7.5,0.1-11.3
		C99,80.2,99,79.9,99,79.5l1.7-7.6c0.3-1.3-0.1-2.9-1.2-4.8c-0.5-0.8-0.9-0.9-1.2-0.1c-0.1,0.3-0.1,0.6,0,0.9
		c1,4.1,0.7,8.3-0.9,12.4L97,81.2l-0.2-14.5l1.3-0.5c1.1-0.2,2.1-0.8,2.8-1.6c0.2-0.3,0.2-0.4-0.2-0.5c-1.4-0.3-2.4,0.2-3.2,1.6
		L97.2,66c-0.4-0.6-1-0.8-1.7-0.7l-0.3-1.4c-0.1-0.3-0.3-0.5-0.5-0.6c-0.8-0.3-0.9-0.6-0.2-1c0.3-0.2,0.5-0.5,0.6-0.7
		c0.3-0.9,0.3-1.8,0.2-2.7c1-0.3,1.5-1.2,1.7-2.5c0.4-3.7,0.1-6.9-1.2-9.7c-4.5-2.3-7.7-5.6-9.5-10.1c-0.6-1.4-0.3-1.7,0.9-0.9
		c2.5,1.7,5.3,2.8,8.3,3.2c1.4,0.2,1.9-0.2,1.5-1.3c-0.6-1.9-0.3-3.3,1-4c0.1,1.9,0.5,4,1.4,6.2c-1.4,0.6-2.8,0.7-4.4,0.4
		c-0.4-0.1-0.5,0-0.3,0.3c0.2,0.4,4.8,1.1,5.6,1.3c0.3,0.1,0.6-0.1,0.7-0.4c0.2-0.5,0.1-1-0.2-1.4l-1.2-6c0-1.6,0.5-2.9,1.6-3.9
		c0.6-0.6,0.4-1.2,0.1-1.8c0.3-0.9,0.4-1.8,0.3-2.7c0-0.3-0.3-0.5-0.6-0.5L90,25c-0.3,0-0.6,0.2-0.8,0.4L81,37.2L80.5,38
		c-0.8,0.8-1.8,3.5-2.8,3.3l-1-0.3c0.7-0.9,0.7-1.6,0.2-2.2c-0.2-0.3-0.5-0.1-0.7,0.1l-2.7,4.6l-2.5-8c0-0.3-0.3-0.5-0.6-0.5
		c-5.1-0.8-10.2-0.7-15.2,0.6h-0.7l-8.7-10.1C45.6,25.1,45.3,25,45,25c-1,0-10.3,0.4-9.8-0.6c0.1-0.2,0.4-0.4,0.8-0.4l65.9,0.1
		c0.3,0,0.5,0.2,0.5,0.5l0.1,74.1c0,0.4-0.1,0.7-0.4,0.8L100.3,100.7z M58.5,26L57,25.5c-1.5-0.1-3,0-4.5,0.5l-2-0.5
		c-0.9-0.3-1.6-0.2-2.2,0.3c-0.2,0.2-0.2,0.5,0,0.7l6.1,7.1c0.2,0.2,0.5,0.4,0.8,0.3c8.5-1.6,16.8-1.1,24.9,1.7
		c0.3,0.1,0.6,0,0.8-0.2l6.4-9.3c0.1-0.2,0.1-0.4-0.1-0.6h-0.1c-0.5-0.1-0.9-0.1-1.3,0.2l-2-0.2l-6,0.2l-1.5-0.2l-2.5,0.2l-1.5-0.2
		C69.1,25.2,66,25.4,63,26l-1.5-0.5C60.3,25.2,59.3,25.3,58.5,26z M72.7,37.1c0.7-0.7,1.4-1.4,0.4-1.8C72,35,71.7,35.5,72,36.9
		c0.1,0.2,0.3,0.4,0.5,0.3C72.6,37.2,72.6,37.2,72.7,37.1z M76.1,36.7c0.1-0.1,0-0.3-0.1-0.4l-0.7-0.4c-0.1-0.1-0.3,0-0.4,0.1
		l-2.2,4c-0.1,0.1,0,0.3,0.1,0.4l0,0l0.7,0.4c0.1,0.1,0.3,0,0.4-0.1L76.1,36.7z M79,37.8c0.2-0.7,0-1-0.7-0.9
		c-0.3,0-0.5,0.3-0.6,0.6c-0.1,0.7,0.1,1,0.6,0.9C78.6,38.4,78.9,38.2,79,37.8z M89.8,39c0.8-0.2,1.6,0,2.2,0.6
		c0.2,0.2,0.5,0.3,0.8,0.2c1.3-0.3,1.1-0.6-0.5-0.8c-0.3,0-0.6-0.2-0.8-0.5c-0.5-0.5-1.2-0.7-1.9-0.6c-0.8-1-1.3-1.3-1.5-0.6
		c-0.1,0.3,0,0.6,0.1,0.9c2.6,4.8,6.5,7.6,12,8.2c0.6,0,1-0.7,0.1-0.7c-2-0.2-8.5-2.3-9-4.5c-0.1-0.3-0.3-0.5-0.6-0.6
		C89.9,40.5,89.6,39.9,89.8,39z M97,42.2c-1,0.2-2.2-0.4-3-0.9c-1.7-1-0.4,0.9,1.3,2.1c0.4,0.4,1,0.5,1.6,0.5c1.3-0.1,1.6-0.6,1-1.5
		C97.6,42.2,97.3,42.1,97,42.2z M99.5,44.1c3.5,1-0.6-3.3-0.5-0.6C99,43.7,99.2,44,99.5,44.1z M98.5,47.2c-0.2-0.3-0.4-0.3-0.6,0
		c-0.1,0.2-0.1,0.5,0,0.7C99,50.6,99,53.3,98,56c-0.1,0.3,0,0.7,0.2,0.8c0.5,0.3,0.8,0.1,1.2-0.6C101,52.9,100.7,49.9,98.5,47.2z
		 M100.2,57.2c-1.4,0.2-2.5,0.8-3.4,1.9c-0.2,0.3-0.2,0.4,0.2,0.4c1.3,0,2.6-0.4,3.7-1.2C101.6,57.6,101.1,57.1,100.2,57.2z
		 M101.2,59.9c-0.1-0.3-0.5-0.4-0.8-0.3l0,0l-3.3,1.3c-0.3,0.1-0.4,0.5-0.3,0.8l0,0v0.1c0.1,0.3,0.5,0.4,0.8,0.3l0,0l3.3-1.3
		C101.2,60.6,101.3,60.3,101.2,59.9C101.2,60,101.2,60,101.2,59.9L101.2,59.9z M100.9,61.9c-0.1-0.2-0.4-0.3-0.6-0.2l0,0l-3.4,1.5
		c-0.2,0.1-0.3,0.4-0.2,0.6l0.1,0.3c0.1,0.2,0.4,0.3,0.6,0.2l0,0l3.4-1.5c0.2-0.1,0.3-0.4,0.2-0.6L100.9,61.9z"/>
	<path class="st2" d="M101.2,28.2c-2.1,1.4-4,3.2-5.6,5.2c-0.2,0.3-0.4,0.6-0.4,0.9l0.2,4.5c-3-0.4-5.8-1.5-8.3-3.2
		c-1.2-0.8-1.5-0.5-0.9,0.9c1.8,4.5,5,7.8,9.5,10.1c-0.8,2.1-0.9,4.1-0.3,5.9c-2.3,0.6-1.4,2.7-3.2,3.8c-1-0.9-1.8-2-2.2-3.2
		c0.9-0.6,1-1.3,0.3-2c-0.8-1.4-1.9-1.9-3.3-1.4c-0.6,0.2-1.2-0.1-1.5-0.7L81,37.2l8.3-11.8c0.2-0.3,0.5-0.4,0.8-0.4H101
		c0.3,0,0.5,0.2,0.6,0.5C101.6,26.5,101.5,27.4,101.2,28.2z"/>
	<path class="st5" d="M61.5,25.5l1.2,4.8c0.1,0.3,0.4,0.5,0.7,0.5l8.4,0.3c0.3,0,0.5-0.2,0.6-0.5l1.3-4.9l2.5-0.2l-1.4,5.7
		c-0.1,0.3,0.1,0.6,0.4,0.7l4.1,1.2c0.3,0.1,0.6,0,0.8-0.3l5.7-7.2c0.4-0.3,0.8-0.4,1.3-0.2c0.2,0.1,0.3,0.3,0.2,0.5
		c0,0,0,0.1-0.1,0.1l-6.4,9.3c-0.2,0.2-0.5,0.3-0.8,0.2c-8-2.6-16.3-3.1-24.8-1.5c-0.3,0.1-0.6-0.1-0.8-0.3l-6.1-7.1
		c-0.2-0.2-0.2-0.6,0-0.7c0.6-0.5,1.3-0.6,2.2-0.3c1.1,2.2,2.6,4.2,4.4,5.9c0.2,0.2,0.6,0.3,0.9,0.3l3.7-0.4c0.4,0,0.7-0.4,0.6-0.9
		c0-0.1,0-0.1,0-0.2L58.5,26C59.3,25.3,60.3,25.2,61.5,25.5z"/>
	<path class="st2" d="M50.5,25.5l2,0.5c1.1,1.4,3.3,5.3,5.3,3.7c0.2-0.2,0.3-0.5,0.1-0.7c-0.6-1.1-0.9-2.2-1-3.5l1.5,0.5l1.5,4.2
		c0.2,0.4,0,0.8-0.4,1c-0.1,0-0.1,0-0.2,0l-3.7,0.4c-0.3,0-0.6-0.1-0.9-0.3C53.1,29.7,51.6,27.7,50.5,25.5z"/>
	<path class="st5" d="M57,25.5c0.1,1.2,0.4,2.4,1,3.5c0.1,0.3,0.1,0.6-0.1,0.7c-2.1,1.6-4.2-2.3-5.3-3.7C54,25.6,55.5,25.4,57,25.5z
		"/>
	<path class="st2" d="M61.5,25.5L63,26l0.9,2.9c0.1,0.3,0.4,0.5,0.7,0.5l6,0.2c0.3,0,0.5-0.2,0.6-0.6l1-3.6l1.5,0.2l-1.3,4.9
		c-0.1,0.3-0.3,0.5-0.6,0.5l-8.4-0.3c-0.4,0-0.6-0.2-0.7-0.5L61.5,25.5z"/>
	<path class="st5" d="M72.2,25.5l-1,3.6c-0.1,0.3-0.3,0.6-0.6,0.6l-6-0.2c-0.3,0-0.6-0.2-0.7-0.5L63,26C66,25.4,69.1,25.2,72.2,25.5
		z"/>
	<path class="st2" d="M76.2,25.5l1.5,0.2L76.4,30c-0.1,0.3,0,0.6,0.3,0.8c0.7,0.5,1.4,0.7,2.3,0.7c0.3,0,0.6-0.1,0.8-0.4l3.9-5.6
		l2,0.2L80,32.9c-0.2,0.3-0.5,0.4-0.8,0.3L75.1,32c-0.3-0.1-0.5-0.4-0.4-0.7L76.2,25.5z"/>
	<path class="st5" d="M83.8,25.5l-3.9,5.6c-0.8,0.9-2.3,0.1-3.1-0.3c-0.3-0.2-0.4-0.5-0.3-0.8l1.3-4.2L83.8,25.5z"/>
	<path class="st6" d="M101.2,28.2c0.3,0.5,0.5,1.4-0.1,1.8c-1.1,1-1.6,2.3-1.6,3.9c-0.3-0.5-0.9-0.7-1.5-0.5c-1.3,0.7-1.6,2-1,4
		c0.4,1.1-0.1,1.5-1.5,1.3l-0.2-4.5c0-0.3,0.1-0.6,0.4-0.9C97.2,31.4,99.1,29.7,101.2,28.2z"/>
	<path class="st7" d="M98,33.5c0.7-0.2,1.2-0.1,1.5,0.5l1.2,6c-0.6,0-1.1-0.1-1.3-0.3C98.5,37.5,98.1,35.5,98,33.5z"/>
	<path class="st2" d="M73.5,43.5l0.8,0.8c-2.1,2.3-2.9,5-2.2,8c-3,3.2-8.5,5.7-12.1,2.6c-3.4-3.1-5-6.9-4.8-11.4
		c0-0.3,0.2-0.6,0.5-0.6c0.9-0.1,1.8-0.1,2.8,0.2c-1.3,2.1-1.1,2.5,0.8,1.2c0.4,0.5,0.5,1.2,0.3,1.9c-0.1,0.4-0.1,0.7,0.1,0.9
		l1.7,1.4c0.5,0.4,0.6,0.4,0.2-0.2l-0.6-1c1.6,0.2,4.7,1.5,4.8-1.3c0-0.8-0.9-0.8-0.8,0c0.2,0.5,0,0.8-0.5,1c-0.2,0.1-0.6,0-0.9-0.2
		c-0.9-0.7-1.9-0.6-2.8,0.3l-0.4-0.3c-0.1-0.1-0.2-0.4-0.2-0.8L60,38.6c0-0.3-0.2-0.6-0.5-0.8c-1-0.7-2.1-0.9-3.2-0.7
		c-0.4,0.1-0.7,0-0.9-0.1c-0.5-0.4-0.5-0.9,0-1.5c5-1.2,10.1-1.4,15.2-0.6c0.3,0,0.6,0.3,0.6,0.6L73.5,43.5z M70.7,38.5
		c0-1.6-5.6-1.4-6.5-0.8c-1.3,0.9-0.7,1,1.8,0.3c1.4-0.4,2.7-0.2,4,0.7C70.4,38.9,70.7,38.9,70.7,38.5z M66.2,42.2
		c2.7,1.3,6.4-1.3,3.5-2v-0.5c0-0.2-0.3-0.4-0.5-0.4c-1.9,0.4-4.1-1-5.1,1.6c-0.1,0.3-0.1,0.7,0.1,0.9l2.2,2.6
		c0.2,0.2,0.3,0.2,0.2-0.2L66.2,42.2z M59.8,51.5c0.8,1.3,2,1.7,3.6,1.2c0.4-0.1,0.6-0.4,0.7-0.6C64.2,51.7,60.7,51.8,59.8,51.5
		c1.5-0.6,2.9-0.8,4.4-0.4c0.3,0.1,0.7,0,0.8-0.2c0.3-0.4,0.3-1.1-0.4-1.1c-0.1,0-4.9,0-4.9,0c-0.3,0-0.6,0.2-0.7,0.5
		C59,50.8,59.2,51.2,59.8,51.5z"/>
	<path class="st8" d="M72.7,37.1c-0.2,0.2-0.4,0.1-0.6,0c0-0.1-0.1-0.1-0.1-0.2c-0.4-1.4,0-2,1.1-1.7c0.3,0.1,0.6,0.4,0.5,0.6
		C73.5,36.2,73.2,36.7,72.7,37.1z"/>
	<path class="st9" d="M54.5,35.5h0.7c-0.6,0.9-0.2,1.9,0.9,1.6c1.2-0.2,2.3,0,3.2,0.7c0.3,0.2,0.5,0.5,0.5,0.8l0.2,7.3
		c0,0.4,0.1,0.7,0.2,0.8l0.4,0.3l0.2,0.2l0.5,0.9c0.3,0.6,0.3,0.7-0.2,0.2L59.7,47c-0.2-0.2-0.2-0.5-0.1-0.9
		c0.2-0.7,0.1-1.4-0.3-1.9L59,42.5c0.5-1.9-0.4-2.6-2.5-2.1c-0.3,0.1-0.6,0.3-0.8,0.5c-0.4,0.7-0.3,1,0.4,0.9c0.3,0,0.6-0.2,0.8-0.4
		c0.9-0.8,1.4-0.4,1.6,1.1V43c-0.9-0.3-1.9-0.4-2.8-0.2c-0.3,0-0.5,0.3-0.5,0.6C55,48,56.6,51.8,60,54.8c3.6,3.1,9.1,0.6,12.1-2.6
		c1-0.1,1.2,0.3,0.7,1.2l-7,3.6c-0.3,0.1-0.4,0.4-0.3,0.7l0,0c0.2,0.4,0.5,0.7,0.8,1l-0.3,1c-0.7,0-1.1,0.4-1.2,1
		c-0.3-0.7-0.4-1.4-0.2-2.2c0.1-0.4-0.1-0.4-0.3-0.3c-0.6,0.4-1,1-1.2,1.7c-0.6,0.2-1,0-1.2-0.5c-0.1-0.2-0.5-0.5-0.6-0.2l-1,0.9
		L56,58l0.5-1c0.6,0,1.2-0.1,1.7,0.3c1.2,0.7,2.4,0.9,3.8,0.6c0.3,0,0.4-0.6,0.2-0.5c-1.3-1.6-3.3-0.7-5.2-1.5c0.3-1,0-1.3-0.9-1
		c2.4-1.2-0.2-2.8-1.1-3.2c-0.2-0.9-0.6-1.4-1.2-1.5c-1.2,0,0.7,1.8,1.1,2c0.7,0.4,1,0.9,0.8,1.3c-0.1,0.2-0.2,0.3-0.4,0.2
		c-0.1,0-0.1-0.1-0.2-0.1l-3.1-3c-0.2-0.2-0.2-0.4,0.1-0.5c2.2-0.6-3.7-3-2.2,1.4h-0.7c-1.7-3.1,2.2-4.7,4.3-2.6
		c0.1,0.1,0.4,0.2,0.5,0l0.1-0.1c0.5-1.1,0.5-2.2,0.1-3.2v-1.5c0.3-0.5,0.2-1-0.3-1.5C54.5,40.4,54.7,38,54.5,35.5z M57,39.4
		l2.3,0.1c0.4,0,0.5-0.1,0.2-0.5c-1-1-2.2-1.5-3.6-1.3c-0.3,0-0.6,0.3-0.6,0.6c-0.3,1.2,0,1.6,0.8,1.1C56.3,39.4,56.6,39.4,57,39.4z
		"/>
	<path class="st10" d="M75.4,35.9l0.7,0.4c0.1,0.1,0.2,0.2,0.1,0.4l-2.2,4c-0.1,0.1-0.2,0.2-0.4,0.1l-0.7-0.4
		c-0.1-0.1-0.2-0.2-0.1-0.4l2.2-4C75.1,35.9,75.3,35.9,75.4,35.9z"/>
	<path class="st10" d="M78.3,38.5c-0.6,0.1-0.8-0.2-0.6-0.9c0.1-0.3,0.3-0.5,0.6-0.6c0.6-0.1,0.9,0.2,0.7,0.9
		C78.9,38.2,78.6,38.4,78.3,38.5z"/>
	<path class="st10" d="M89.5,38l0.2,1c-0.2,0.9,0.1,1.5,0.9,1.7c0.3,0.1,0.5,0.3,0.6,0.6c0.5,2.2,7.1,4.3,9,4.5
		c0.9,0.1,0.5,0.7-0.1,0.7c-5.4-0.7-9.4-3.4-12-8.2c-0.2-0.3-0.2-0.7-0.1-0.9C88.2,36.8,88.7,37,89.5,38z"/>
	<path class="st11" d="M64.2,37.7c0.8-0.6,6.4-0.8,6.5,0.8c0,0.4-0.2,0.4-0.6,0.1c-1.3-0.8-2.6-1-4-0.7
		C63.5,38.7,62.9,38.6,64.2,37.7z"/>
	<path class="st12" d="M81,37.2l4.5,11.7c0.2,0.6,0.9,0.9,1.5,0.7c1.4-0.5,2.6,0,3.3,1.4c-1.4,0.5-1.4,1.2-0.3,2
		c0.5,1.2,1.2,2.3,2.2,3.2c-1.4-0.3-2.6-0.9-3.8-1.8L88.3,54l0.4-0.3c0.3-0.3,0.3-0.4-0.2-0.6c-0.9-0.2-1.7,0.1-2.2,0.9l-1,2
		l-0.4-0.2c0.6-0.7,0.2-1.2-1.1-1.6l0.5-1.2c0.8-0.2,1.4-0.6,1.8-1.3c0.2-0.4,0.1-0.5-0.3-0.4C85,51.4,84.5,52,84.3,53
		c-1,0.2-1.7,0.7-2,1.7l-1-0.5c1.4-1.4,5.3-5.6,3.1-5.2l-0.1,0.1l-5.1,5.6l-1-0.2c1-1.2,6.3-6.9,5.6-8.1c-0.1-0.2-0.3-0.2-0.5-0.1
		l-0.1,0.1l-4.7,5.9c-0.3,0.3-0.4,1-0.6,1.4c-0.1,0.2-0.4,0.4-0.7,0.3c-1-0.3-1.7,0.1-2,1.2l-2.5-1.8c0.5-0.9,0.3-1.3-0.7-1.2
		c-0.6-3,0.1-5.7,2.2-8l2.4-3.2l1,0.3c-0.7,1.3-1.5,2.6-2.3,3.9c-0.7,1.1-0.4,3.1,0.8,0.8c0.8-1.6,2.2-3.4,4.2-5.5
		C81,39.8,81,39,80.4,38L81,37.2z M76.2,49.6c-0.1,1.7,0.1,2.5,0.7,2.4c2.8-2.4,4.9-4.8,6.1-7c0.4-0.7,0.2-1.3-0.5-1.8l-0.5-1
		c0.2-0.5,0.1-0.9-0.1-1.2c-0.1-0.3-0.5-0.1-0.7,0.1C79,43.7,77.3,46.5,76.2,49.6z"/>
	<path class="st2" d="M56.1,39.5c-0.8,0.5-1.1,0.1-0.8-1.1c0.1-0.3,0.3-0.5,0.6-0.6c1.4-0.2,2.6,0.2,3.6,1.3
		c0.3,0.3,0.2,0.5-0.2,0.5L57,39.4C56.6,39.4,56.3,39.4,56.1,39.5z"/>
	<path class="st13" d="M80.5,38c0.7,1,0.6,1.8-0.1,2.5c-2,2-3.4,3.9-4.2,5.5c-1.2,2.3-1.4,0.3-0.8-0.8c0.8-1.3,1.5-2.6,2.3-3.9
		C78.8,41.4,79.7,38.8,80.5,38z"/>
	<path class="st8" d="M89.5,38c0.8-0.1,1.4,0.1,1.9,0.6c0.3,0.2,0.6,0.4,0.8,0.5c1.6,0.2,1.8,0.5,0.5,0.8c-0.3,0.1-0.6,0-0.8-0.2
		c-0.7-0.6-1.4-0.8-2.2-0.6L89.5,38z"/>
	<path class="st10" d="M76.7,41l-2.4,3.2l-0.8-0.8l2.7-4.6c0.1-0.2,0.4-0.3,0.6-0.2c0,0,0.1,0,0.1,0.1C77.4,39.4,77.4,40.1,76.7,41z
		"/>
	<path class="st11" d="M69.8,40.2l-1.2,0.5c-0.3,0.1-0.5,0.4-0.6,0.5c0,0.7,0.3,1,1,0.6c0.4-0.2,0.6-0.4,0.6-0.7L69.8,40.2
		c2.9,0.7-0.8,3.3-3.5,2c0.8-1,0.7-1.5-0.2-1.5c-0.3,0-0.6,0.2-0.7,0.5c-0.3,0.7,0,1,0.9,1l0.4,2.1c0.1,0.3,0,0.4-0.2,0.2l-2.2-2.6
		C64,41.7,64,41.4,64.1,41c1-2.6,3.2-1.2,5.1-1.6c0.2,0,0.5,0.1,0.5,0.3c0,0,0,0,0,0.1L69.8,40.2z"/>
	<path class="st6" d="M99.4,39.7c0.3,0.2,0.7,0.3,1.3,0.3c0.3,0.4,0.4,0.9,0.2,1.4c-0.1,0.3-0.4,0.4-0.7,0.4
		c-0.8-0.1-5.4-0.9-5.6-1.3c-0.2-0.3-0.1-0.4,0.3-0.3C96.5,40.4,98,40.3,99.4,39.7z"/>
	<path class="st2" d="M69.8,40.2l-0.1,1c0,0.3-0.3,0.5-0.6,0.7c-0.7,0.3-1,0.1-1-0.6c0-0.2,0.2-0.4,0.6-0.5L69.8,40.2z"/>
	<path class="st14" d="M59,42.5h-0.5c-0.2-1.5-0.8-1.9-1.6-1.1c-0.3,0.3-0.6,0.4-0.8,0.4c-0.7,0.1-0.8-0.2-0.4-0.9
		c0.2-0.3,0.5-0.5,0.8-0.5C58.6,39.9,59.4,40.6,59,42.5z"/>
	<path class="st15" d="M66.2,42.2c-0.9,0-1.2-0.3-0.9-1c0.1-0.3,0.4-0.5,0.7-0.5C66.9,40.7,67,41.2,66.2,42.2z"/>
	<path class="st10" d="M82,42.2l-5.8,7.4c1.1-3.1,2.8-5.9,5-8.5c0.2-0.2,0.5-0.3,0.6-0.1c0,0,0.1,0,0.1,0.1
		C82.1,41.4,82.1,41.8,82,42.2z"/>
	<path class="st7" d="M93.9,41.3c0.8,0.5,2.1,1.1,3,0.9c0.3-0.1,0.6,0,0.8,0.2c0.6,0.8,0.3,1.3-1,1.5c-1.3,0.4-3.8-2.5-3.7-2.7
		C93.1,40.9,93.4,40.9,93.9,41.3z"/>
	<path class="st16" d="M82,42.2l0.5,1c-2.2,2.7-4.1,5.7-5.6,8.8c-0.6,0.1-0.9-0.7-0.7-2.4L82,42.2z"/>
	<path class="st17" d="M58.5,42.5H59l0.3,1.7c-1.9,1.3-2.1,0.9-0.8-1.2V42.5z"/>
	<path class="st18" d="M99,43.4c-0.1-2.6,4.1,1.6,0.5,0.6C99.2,44,99,43.7,99,43.4z"/>
	<path class="st6" d="M54,42.7c0.5,0.5,0.6,1,0.3,1.5L53.5,44l-0.2-0.5L54,42.7z"/>
	<path class="st19" d="M53.2,43.5l0.2,0.5c-0.2,0.6-0.1,1.2,0.3,1.8c-1.2,1.1-2.3,1-3.2-0.1c-0.2-0.3-0.3-0.6-0.2-0.9
		C50.6,43.4,51.6,43,53.2,43.5z M52.5,45.6c-0.4-1.1-0.7-1.5-1.2-1.4c-0.3,0.1-0.4,0.4-0.3,0.7l0,0c0.2,0.6,0.7,0.8,1.2,0.8
		C52.5,45.8,52.5,45.7,52.5,45.6L52.5,45.6z"/>
	<path class="st10" d="M82.5,43.2c0.7,0.5,0.8,1.1,0.5,1.8c-1.2,2.3-3.3,4.6-6.1,7C78.4,48.9,80.3,45.9,82.5,43.2z"/>
	<path class="st18" d="M52.5,45.6c0,0.1,0,0.2-0.1,0.2c-0.6,0-1-0.3-1.2-0.8c-0.1-0.3,0-0.7,0.2-0.8l0,0
		C51.8,44,52.2,44.5,52.5,45.6z"/>
	<path class="st10" d="M53.5,44l0.8,0.3v1.5h-0.5C53.4,45.1,53.3,44.6,53.5,44z"/>
	<path class="st20" d="M61,47.3L60.8,47c0.9-0.9,1.9-1,2.8-0.3c0.3,0.2,0.6,0.3,0.9,0.2c0.5-0.1,0.7-0.4,0.5-1
		c-0.1-0.3,0-0.6,0.3-0.5c0.1,0,0.2,0,0.3,0.1c0.1,0.1,0.2,0.3,0.2,0.5C65.7,48.8,62.6,47.5,61,47.3z"/>
	<path class="st10" d="M78.3,54.5L77.5,55c-0.8-0.3-1.5-0.2-2.2,0.2c0.3-1.1,1-1.5,2-1.2c0.7,0.2,0.7-0.5,0.9-0.9
		c0.1-0.3,0.3-0.6,0.4-0.8l4.7-5.9c0.2-0.3,0.5-0.2,0.6,0C84.6,47.6,79.2,53.3,78.3,54.5z"/>
	<path class="st6" d="M95.8,46.6c1.2,2.7,1.6,5.9,1.2,9.7c-0.2,1.3-0.7,2.2-1.7,2.5l-0.2-3c1.3-0.8,1.5-1.9,0.4-3.3
		C94.9,50.6,95,48.7,95.8,46.6z"/>
	<path class="st7" d="M98.5,47.2c2.2,2.6,2.5,5.6,0.9,9c-0.3,0.7-0.7,0.8-1.2,0.6C98,56.7,97.9,56.3,98,56c1-2.7,0.9-5.4-0.1-8.1
		c-0.1-0.3-0.1-0.5,0-0.7C98.1,46.9,98.3,46.9,98.5,47.2z"/>
	<path class="st8" d="M81.2,54.2c-0.6,0.5-1.3,0.7-2,0.5l5.1-5.6c0.2-0.2,0.4-0.2,0.6-0.1l0.1,0.1C85.4,49.9,82.8,52.5,81.2,54.2z"
		/>
	<path class="st8" d="M55,52.2l0.1-0.5c0.9,0.4,3.5,2,1.1,3.2L50,51.5c-1.5-4.4,4.4-2,2.2-1.4c-0.3,0.1-0.4,0.3-0.1,0.5l3.2,3.1
		c0.2,0.1,0.4,0.2,0.5,0l0.1-0.1C55.9,53.1,55.6,52.7,55,52.2z"/>
	<path class="st3" d="M32.6,58l-6.2,8c-0.2,0.4-0.7,0.3-0.9,0l-6.1-7.9c-0.2-0.2-0.2-0.5,0-0.8l6.3-7.5c0.1-0.2,0.4-0.2,0.6,0
		c0,0,0,0,0.1,0l6.2,7.1C32.8,57.3,32.8,57.7,32.6,58z"/>
	<path class="st20" d="M60,51.5h-0.2c-0.6-0.3-0.8-0.7-0.7-1.2c0.1-0.3,0.4-0.5,0.7-0.5h4.9c0.3,0,0.6,0.2,0.6,0.5l0,0
		c0,0.2,0,0.4-0.2,0.6c-0.1,0.2-0.5,0.3-0.8,0.2C62.8,50.7,61.3,50.9,60,51.5z"/>
	<path class="st6" d="M55,51.7v0.5c-0.4-0.2-2.3-2-1.1-2C54.5,50.4,54.9,50.8,55,51.7z"/>
	<path class="st8" d="M84.2,53c0.2-1,0.7-1.6,1.5-1.7c0.4-0.1,0.5,0.1,0.3,0.4C85.7,52.4,85.1,52.8,84.2,53z"/>
	<path class="st6" d="M90.3,51c0.7,0.7,0.6,1.4-0.3,2C88.8,52.2,88.9,51.5,90.3,51z"/>
	<path class="st19" d="M49.2,51.5h0.7l6.2,3.5c0.9-0.3,1.1,0,0.9,1l-0.8,0.8c-2.8,0-4-2-6.1-3.6C50,53,49.9,53,49.8,53l-0.2,0.1
		c-0.1,0-0.2,0.3,0,0.5c0,0.1,0.1,0.1,0.1,0.2c1.8,1.8,4,3.3,6.4,4.3l4.3,2.2c-0.4,0.8-2.8,4-0.6,4.2v0.7c-1.2,0.6-2.1,0.1-2.5-1.5
		l0.5-1.7c1.2-0.1,1.4-0.8,0.3-1.1l-1.7-0.5c-0.5-0.2-1.9-0.7-2.4-0.9l-6.2-4.9c-0.3-0.2-0.6-0.3-0.8-0.2c-0.3,0.2-0.5,0.4-0.5,0.8
		l-0.2,0.1l-2,0.1c-2.3,2.1-4,4.6-5.2,7.4l-1-1l2.7-3.7c0.2-0.3,0.2-0.6,0.1-0.8c-0.9-1.2-3,2.7-3.8,3.9c-1,0.6-1.7,0.3-2-0.8
		c1.9,0.4,2.7-2.1,1.6-1.7c-0.5,0.2-0.7,1.1-1.4,1.2l-1-0.8C36,58,49.2,52.3,49.2,51.5z"/>
	<path class="st17" d="M59.8,51.5H60c0.8,0.2,4.3,0.1,4.2,0.6c-0.1,0.3-0.3,0.5-0.7,0.6C61.8,53.2,60.6,52.8,59.8,51.5z"/>
	<path class="st20" d="M95.5,52.5c1,1.4,0.9,2.5-0.4,3.3c-1.7,0.9-2.5,2.5-2.4,4.8l-0.5,0.8c0.2-0.6-0.5-1.5-1.1-0.9
		C78.3,72.9,77.6,95.2,94,105.4c1,0.6,1.8,0.4,1.8-0.9c0,0.8,0.3,1.2,1,1.3c-3,4.6-10.4,6.8-17.2,9.2c-1.6-2.3-3.6-3.9-6.2-4.8
		l-1.3-1h-0.8l-1.2-0.8l-2-0.2l-0.3-0.3l2.5-4.5L71,104l0.5,1l0.5,0.2v0.5c-2.4,0.5-2.4,0.9-0.1,1.2l0.8,0.5
		c0.8,0.8,1.4,0.7,1.8-0.2h0.2l0.5,0.5c-0.8,0.2-0.9,0.6-0.2,0.9c2.3,1.3,4.4,3,6,5c0.1,0.2,0.4,0.2,0.6,0.1c0,0,0.1,0,0.1-0.1
		c0.3-0.4,0.2-0.7-0.2-0.7c-0.2,0-0.5-0.2-0.7-0.5l-0.4-0.5l0.5-0.5c1.1,1,1.6,0.8,1.4-0.7c0-0.3,0.2-0.5,0.4-0.6
		c1.4-0.3,2.1-1.1,2.2-2.4c0-0.3,0.2-0.6,0.5-0.8c1.4-0.9,2-2.2,1.9-3.9c0-0.3-0.2-0.6-0.5-0.8c-2.6-1.7-0.1,3.1-3.1,3.3
		c-0.2,0-0.4,0.2-0.4,0.4c0,0,0,0,0,0.1c0.3,1.7-0.4,2.5-2.2,2.3l0.8-3.2c1.5-1,2.6-2.4,3.3-4.1c0.1-0.2,0.1-0.6-0.1-0.9l-1.9-3.7
		c-0.3-0.6-0.8-0.6-1.3-0.3c0.3-1.9-0.3-3.2-1.8-4L80,91c0.2-1.9,0.1-3.9-0.5-5.8l-0.5-1l0.3-4.5c0.5-0.8,0.6-1.8,0.2-2.8
		c0.2-1.2,1.8-5.8-1.7-4c-0.7-0.1-1.1-0.6-1-1.3c0.3-1.9-0.4-2.8-2.3-2.8c-0.3,0-0.6,0.1-0.9,0.3c-2.5,2-5,5.5-7.8,7L65.3,76
		l20-20.2l1-2h2l0.2,0.5l-0.9,0.8c-0.2,0.2-0.2,0.5,0,0.7c0,0,0,0,0.1,0.1l2.4,1.8c0.3,0.2,0.6,0.3,0.9,0.2c0.7-0.3,1.2-0.8,1.3-1.7
		C94.1,55.2,93.2,53,95.5,52.5z M88.6,59.4c0.2-0.2-0.2-0.9-0.9-1.6l0,0C86,56.2,85.4,57,87,58.6l0,0C87.6,59.3,88.3,59.6,88.6,59.4
		z M86.4,61c-0.1-0.6-2-3.1-2.5-2c-0.1,0.3,0,0.7,0.2,0.9l1.9,1.4C86.4,61.5,86.5,61.4,86.4,61z M83.5,61.5c-0.7-0.9-1.1-1-1.3-0.3
		c-0.1,0.3,0,0.6,0.3,0.8l1.7,1.4c0.3,0.1,0.5,0.1,0.6-0.1c0.1-0.5,0-0.9-0.4-1.2C83.9,61.9,83.7,61.7,83.5,61.5z M80.1,62.9
		c-0.9,0.6,2.1,2.8,2.7,3.1c0.2,0.1,0.4,0.2,0.6,0c0.6-0.4-2.1-2.8-2.4-3.1C80.6,62.8,80.3,62.8,80.1,62.9z M81.6,68.5
		c1.7,0.2-2.7-3.4-2.7-3.5c-0.4-0.4-0.6-0.4-0.7,0c0,0.5,0.5,1.3,1.6,2.6C80.3,68.1,80.9,68.4,81.6,68.5z M81,71.8
		c1-0.6-3.2-3.9-4-4.7c-0.8-0.8-2-0.4-1,0.7l4.2,3.7C80.5,71.9,80.8,71.9,81,71.8z M89.4,105c-1.2-0.6-5.1,5.9-5.8,7.1
		c-0.2,0.3-0.1,0.4,0.2,0.4c2.1-0.4,4.2-5,5.7-6.8C89.7,105.5,89.7,105.2,89.4,105C89.5,105,89.4,105,89.4,105z M91.2,106.2
		c-1.1-0.7-2.7,2.6-3.8,4c-0.2,0.2-0.2,0.5,0,0.6c0,0,0.1,0,0.1,0.1c1.2,0.5,3.4-2.8,3.9-3.9C91.5,106.6,91.4,106.3,91.2,106.2z
		 M92.7,108.4c2.7-3.2-3.8,0.8-0.8,0.4C92.1,108.9,92.4,108.7,92.7,108.4z"/>
	<path class="st10" d="M56.2,56.7l0.2,0.2L56,58c-2.4-1-4.5-2.4-6.4-4.3c-0.2-0.2-0.2-0.4-0.2-0.5l0.1-0.1l0.2-0.1
		c0.1,0,0.3,0,0.4,0.1C52.2,54.7,53.5,56.7,56.2,56.7z"/>
	<path class="st8" d="M84.2,53l-0.5,1.2l-1.5,0.5C82.6,53.7,83.2,53.2,84.2,53z"/>
	<path class="st10" d="M88.3,54h-2c0.6-0.8,1.3-1.1,2.2-0.9c0.5,0.1,0.5,0.3,0.2,0.6L88.3,54z"/>
	<path class="st2" d="M72.8,53.5l2.5,1.8c-1.7,1.7-3.8,2.7-6.2,3l-2.7,0.5c-0.4-0.5-1.3-1.1-0.5-1.7l0,0L72.8,53.5z"/>
	<path class="st10" d="M54,59.5L53.2,60L53,59.7c-0.8-0.5-5.6-5.1-6-4.5h-0.5c0.2-0.8,0.6-1.1,1.3-0.6L54,59.5z"/>
	<path class="st19" d="M81.2,54.2l1,0.5l1.5-0.5c1.3,0.3,1.7,0.9,1.1,1.6c-9,8.8-18,17.5-27.2,26.1c-0.3,0.3-0.7,0.9-1.2,1.6
		L55.8,84c-2.5,0.2-3.4-0.7-2.6-2.9c0.4-1.2-0.2-1.6-1.8-1c-3.7,1.2-0.6-3.2-3.3-3l-0.5-1.5c0.3,0,0.3,0,0.4-0.3
		c0-4.6,0.9-12-0.8-16.2L47,55.2c0.4-0.6,5.2,4,6,4.5l-1,0.5l-0.7,0.3c-0.4-2.8-1.3-1.2-1.3-0.1c0,5.2,0,10.4,0,15.6
		c0,0.4,0.1,0.7,0.3,0.9c0.6,0.6,1,0,0.9-1.7c0.5,0.2,0.9,0.4,1.3,0.7l-0.2,2.3c0.4,0.7,0.9,1.1,1.7,1.2c0.4,0.3,0.6,0.6,0.7,1
		c0.3,0.5-0.6,0.9-0.3,1.2c0.2,0.1,0.5,0,0.7-0.2l19.1-18.7c0.6-0.2,0.7-0.7,0.1-1.5c2.6-1.1,4.9-2.7,6.8-4.8
		c0.5-0.6,0.4-0.7-0.4-0.3c-0.1,0.1-0.2,0.1-0.3,0.2c-2.4,2.3-5.1,4-8.3,5c-0.2,0.1-0.5,0.2-0.8,0.5l-0.7,0.5h-0.2L66,62.2L64.8,62
		v-1.2c0.1-0.7,0.5-1,1.2-1c4,0.4,7.6-0.7,10.8-3.2l0.7-1.5l0.8-0.5l1,0.2C80,54.9,80.7,54.8,81.2,54.2z"/>
	<path class="st2" d="M88.5,54.5c1.1,0.9,2.4,1.5,3.8,1.8c-0.1,0.9-0.5,1.4-1.3,1.7c-0.3,0.1-0.6,0-0.9-0.2L87.7,56
		c-0.2-0.2-0.3-0.5-0.1-0.6C87.6,55.4,88.5,54.5,88.5,54.5z"/>
	<path class="st12" d="M77.5,55l-0.7,1.5c-0.5-0.4-1.1-0.4-1.6,0c-1.7,1.4-3.6,2.2-5.8,2.5c-0.3,0-0.6-0.1-0.6-0.3
		c-0.1-0.2,0-0.4,0.2-0.5c2.4-0.3,4.5-1.3,6.2-3C76,54.8,76.7,54.8,77.5,55z"/>
	<path class="st20" d="M46.2,55.3l-0.6,2c-0.1,0.2-0.3,0.4-0.7,0.4c-2.1,0.1-0.2,2.8-2.2,3.3c-0.4,0.1-0.7,0.3-0.8,0.5
		c-0.3,0.4-0.4,1-0.3,1.5c0,0.3-0.1,0.6-0.3,0.8c-1.4,1.2-0.9,1.6,1.7,1.4l0.2,0.1c-1.3,1.1,1.4,4.3,2.1,5.6c0.2,0.3,0.3,0.3,0.5,0
		c0.6-0.9,0.7-1.8,0.5-2.9c-0.1,2.6,0.3,5.1,1.2,7.5L48,77l1,5.8l0.5,1.7c-0.7,1.9-0.8,3.8-0.5,5.8l-0.8,2L48,94.5
		c-2.3,2.6,2.9,5.6,4.7,6.5c0.2,0.2,0.4,0.4,0.1,0.7l-9.5,10l0.4,1.6c-1.3,0.2-2.5,0.7-3.5,1.5L39,114l-0.3-0.3l-3-2.2
		c-0.2-0.1-0.4,0-0.5,0.1v0.1c-0.4,1.4-1.2,2.7-2.2,3.7h-0.7L32,113l0.7-0.5c0.2,0.1,0.3,0.3,0.4,0.5c0.1,0.3,0.3,0.3,0.4,0.1
		c1.8-3.1,2.1-6.3,0.9-9.5c-0.4-1-1.3-1.3-2.2-0.7c-0.4,0-0.9-0.2-1.5-0.6l0.5-1.2c0.4,0,1.2,0,1.6,0c0.7,0.5,1.2,0.4,1.7-0.2
		c7.2-9.9,7.1-19.7-0.3-29.5c-0.2-1.1-1-1.5-2.2-1.2V65h0.2c13,12.3,14.2,25.9,3.5,40.6c-0.4,1.5-0.3,2.2,0.4,2.3
		c0.4,0,0.9-0.2,1.5-0.7c13.1-11.7,12.6-35.5-3.4-44.7c-1-0.6-1.9,0.5-2,1.5l-0.7-1.5c0.5-1.4,1.5-2.5,2.7-3.3l1,0.8L35,60.2
		c0.3,1.1,0.9,1.4,2,0.8l1,0.7l1,1c2.6-1.8,4.3-4.2,5.2-7.4H46.2z M50.4,102.7c0.2-0.3-0.5-1.2-1.5-2.2l0,0c-1.1-1-2.1-1.5-2.4-1.3
		l0,0c-0.2,0.3,0.5,1.2,1.5,2.2l0,0C49.1,102.4,50.2,102.9,50.4,102.7L50.4,102.7z M45.8,101.4c-2.6,0.7,4.5,5.2,2.4,2.1
		C47.2,102,46.4,101.3,45.8,101.4z M45,104.7c-1.3-1-1.7-0.9-1.3,0.3c0.3,0.9,1,1.5,1.9,1.6c1,0.1,1.3-0.1,0.8-0.6
		C45.9,105.6,45.5,105.1,45,104.7z M44.5,108.6c0.2-0.3-0.2-1-0.9-1.6l0,0c-0.7-0.6-1.5-0.9-1.7-0.7l0,0c-0.2,0.3,0.2,1,0.9,1.6l0,0
		C43.5,108.5,44.3,108.8,44.5,108.6L44.5,108.6z M41,108.5c-0.2-0.2-0.4-0.3-0.7-0.4c-0.4-0.1-0.5,0-0.4,0.4c0.3,1.1,1,1.7,2,1.9
		c0.3,0,0.4-0.2,0.4-0.5c-0.1-0.4-0.3-0.7-0.6-0.9C41.5,108.9,41.2,108.7,41,108.5z M40.9,112.6c0.7-1.2-3.8-3.8-4.5-2.6
		c-0.3,0.5,0.5,1.5,1.7,2.2C39.4,113,40.6,113.1,40.9,112.6z"/>
	<path class="st2" d="M46.2,55.3l0.2-0.1h0.5l0.2,3.8h-0.5c-3.3-0.9-0.2,3.6-2.9,3.3c-0.3,0-0.6,0.1-0.6,0.4
		c-0.2,0.8-0.3,1.7-0.2,2.5c-2.6,0.2-3.1-0.3-1.7-1.4c0.2-0.2,0.4-0.5,0.3-0.8c0.1-1,0-1.7,1.1-2c2-0.5,0-3.2,2.2-3.3
		c0.3,0,0.6-0.2,0.7-0.4L46.2,55.3z"/>
	<path class="st18" d="M44.2,55.3c-0.9,3.1-2.6,5.6-5.2,7.4C40.2,59.9,41.9,57.5,44.2,55.3z"/>
	<path class="st2" d="M95.1,55.7l0.2,3c0.2,1.1,0.2,2.7-0.8,3.4c-0.7,0.4-0.6,0.8,0.2,1c0.2,0.1,0.4,0.3,0.5,0.6l0.3,1.4v0.5
		c-2.4,0.1-2.8-3.5-2.8-5.2C92.6,58.2,93.4,56.7,95.1,55.7z"/>
	<path class="st2" d="M57,56c1.9,0.8,3.9-0.1,5.2,1.5c0.1,0.2,0.1,0.5-0.1,0.6c-1.4,0.3-2.7,0.1-3.8-0.6c-0.5-0.4-1.1-0.3-1.7-0.3
		L56.4,57L57,56z"/>
	<path class="st10" d="M74.2,61.3L71,63l-0.5-0.5l0.7-0.5c0.3-0.3,0.6-0.4,0.8-0.5c3.2-1,5.9-2.7,8.3-5c0.1-0.1,0.2-0.2,0.3-0.2
		c0.8-0.3,0.9-0.2,0.4,0.3C79.1,58.6,76.8,60.2,74.2,61.3z"/>
	<path class="st15" d="M84.8,55.8l0.4,0.2l-20,20.2L56.5,84l-0.1-0.5c0.4-0.8,0.8-1.3,1.2-1.6C66.8,73.3,75.9,64.6,84.8,55.8z"/>
	<path class="st8" d="M76.8,56.5C73.6,59,70,60.1,66,59.7l0.3-1l2.7-0.5c-0.5,0.3-0.1,0.9,0.4,0.8c2.2-0.3,4.1-1.1,5.8-2.5
		C75.7,56.1,76.3,56.1,76.8,56.5z"/>
	<path class="st18" d="M38,61.7L37,61c0.7-1.2,2.9-5,3.8-3.9c0.2,0.2,0.1,0.6-0.1,0.8L38,61.7z"/>
	<path class="st2" d="M86,57c0.5-0.6,3,1.8,2.5,2.3C88,60,85.5,57.6,86,57z"/>
	<path class="st2" d="M100.2,57.2c0.9-0.1,1.5,0.4,0.5,1.1c-1.1,0.8-2.3,1.2-3.7,1.2c-0.4,0-0.4-0.1-0.2-0.4
		C97.7,58.1,98.8,57.4,100.2,57.2z"/>
	<path class="st21" d="M64.8,60.7v1.2c-0.7,1.7-1.7,2.8-3.2,3.5c-0.3,0.2-0.4,0.1-0.3-0.3c0.3-1.1,0.9-2.1,1.9-2.9
		c1.3-0.7,1.3-1.5,0-2.2c0.2-0.8,0.6-1.3,1.2-1.7c0.3-0.2,0.4-0.1,0.3,0.3C64.4,59.3,64.5,60,64.8,60.7z"/>
	<path class="st10" d="M35,60.2l0.2-0.5c0.7-0.1,0.9-1.1,1.4-1.2C37.8,58.2,36.9,60.7,35,60.2z"/>
	<path class="st2" d="M83.8,59c0.5-1.1,2.4,1.4,2.5,2c0.1,0.4,0,0.5-0.4,0.3L84,59.9C83.8,59.7,83.7,59.3,83.8,59z"/>
	<path class="st22" d="M46.8,59l-0.5,7.2c0.1-3.5-0.9-3.8-3-1H43c-0.1-0.8-0.1-1.6,0.2-2.5c0.1-0.3,0.3-0.4,0.6-0.4
		C46.5,62.6,43.4,58.1,46.8,59z"/>
	<path class="st10" d="M46.8,59h0.5c1.6,4.2,0.8,11.6,0.8,16.2c0,0.3-0.2,0.3-0.4,0.3c-0.9-2.4-1.3-4.9-1.2-7.5v-1.8L46.8,59z"/>
	<path class="st23" d="M51.2,60.5c-0.5,4.9-0.5,9.8,0,14.7c0,1.7-0.3,2.3-0.9,1.7C50.1,76.7,50,76.4,50,76c0-5.2,0-10.4,0-15.6
		C50,59.3,50.8,57.8,51.2,60.5z"/>
	<path class="st21" d="M63,60v2c-0.8-0.1-1.2-0.5-1.1-1.3c0-0.2,0-0.4-0.2-0.5c-0.1-0.1-1.5,3.6-2,4.3c-2.2-0.2,0.2-3.4,0.6-4.2
		l1-0.9c0.1-0.1,0.4-0.1,0.5,0.1l0.1,0.1C62,60,62.4,60.2,63,60z"/>
	<path class="st12" d="M54,59.5l1.5,0.7c-0.6,0.7-1.4,0.9-2.2,0.8H53l0.2-0.9L54,59.5z"/>
	<path class="st2" d="M97.1,60.9l3.3-1.3c0.3-0.1,0.6,0,0.8,0.3V60c0.1,0.3,0,0.6-0.3,0.8L97.6,62c-0.3,0.1-0.6,0-0.8-0.3v-0.1
		C96.7,61.3,96.8,61,97.1,60.9z"/>
	<path class="st14" d="M53,59.7l0.3,0.3L53,61c-0.7,0.1-1-0.1-1-0.7L53,59.7z"/>
	<path class="st12" d="M63,60c1.4,0.8,1.4,1.5,0,2.2C63,62.2,63,60.1,63,60z"/>
	<path class="st5" d="M92.2,61.2l-0.5,1.2C80.1,74.3,81.5,93.6,95,103.3l0.8,1.2c0.1,1.3-0.8,1.5-1.8,0.9
		c-16.5-10.2-15.7-32.5-2.9-45.1C91.7,59.7,92.4,60.5,92.2,61.2z"/>
	<path class="st24" d="M52,60.2c0,0.6,0.4,0.9,1,0.7l0.2,0.1c-0.1,0.8-1.1,1-1.1,1.7c0,0,0.1,7.6,0.1,7.6l0.2,0.4
		c-0.6,0.4-0.7,0.8-0.4,1.2c0.2,0.2,0.5,0.2,0.7,0l0,0c0.5-0.4,1-0.6,1.6-0.6l0.8,0.8L55,72.3l-1,0.5c-1.7-0.6-2.2-0.1-1.5,1.5
		l0.5,1L52.5,76c-0.3-0.3-0.8-0.5-1.3-0.7c-0.5-4.9-0.5-9.8,0-14.7L52,60.2z"/>
	<path class="st14" d="M55.5,60.2l0.8,0.3c-0.2,0.2-5.1,3-1.8,2.6c0.2,0,0.5,0.1,0.5,0.4c0.1,0.3,0.3,0.6,0.7,0.8
		c0.2,0.1,0.3,0.4,0.1,0.6l0,0c-0.9,1.5-0.9,2.9,0,4.2c0.5,0.6,0.3,0.9-0.6,0.9c-0.2-0.5-0.5-0.9-1-1.1c-0.2-0.1-0.5,0-0.7,0.3
		c-0.3,0.5-0.7,0.9-1.3,1l-0.1-7.6c0-0.2,0.2-0.5,0.5-0.8c0.3-0.2,0.5-0.5,0.6-0.9C54.1,61.1,54.9,60.9,55.5,60.2z"/>
	<path class="st9" d="M63,62l0.1,0.2c-0.9,0.8-1.5,1.8-1.9,2.9c-0.1,0.3,0,0.4,0.3,0.3c1.5-0.7,2.6-1.9,3.2-3.5l1.2,0.2
		c-0.9,0.1-1,0.2-0.3,0.4c1.2,0.3,2.5,0.5,3.7,0.6c-0.8,1.1-1.9,1.4-3.2,1C63,64.8,62.9,65.7,66,67l0.5,1l0.5,0.2L55.8,79.6
		c-0.2,0.2-0.4,0.1-0.6,0l0,0c-0.4-0.5-0.8-0.5-1.3-0.1c-0.8-0.1-1.3-0.5-1.7-1.2c2-2.2,3.7-4.8,5-7.5c0.2-0.5,0.1-0.7-0.4-0.5
		c-0.2,0.1-0.4,0.3-0.5,0.6c-0.2,0.5-0.6,0.9-1.1,1.2l-0.8-0.8l0.8-1.2c0.9,0,1.1-0.2,0.6-0.9c-1-1.3-1-2.7,0-4.2
		c0.1-0.2,0.1-0.5-0.1-0.6l0,0c-0.7-0.3-0.6-1.2-1.2-1.2c-3.3,0.4,1.7-2.4,1.8-2.6l1.7,0.5c1.1,0.3,0.9,1-0.3,1.1
		c-3-0.2-3.3,0.4-1,1.9c0.1,0.7,0.1,1.4-0.3,2.1c-0.2,0.3-0.2,0.7-0.2,0.9c0.3,2.1,1.6,3,3.9,2.8c-1.5,2.4-1.4,2.7,0.4,0.8
		c0.3-0.3,0.3-0.6,0.2-0.8c-0.1-0.1-0.3-0.2-0.6-0.1c1.4-0.6,2.2-1.6,2.4-3c0.1-0.3-0.1-0.4-0.4-0.2c-1.4,0.7-2.2,0.3-2.6-1.3v-0.7
		c0.5-0.6,1.9-4.3,2-4.3c0.1,0.1,0.2,0.3,0.2,0.5C61.8,61.5,62.2,61.9,63,62z M63.3,68.5c0.7,0.3,0.9,0.8,0.7,1.5
		c-0.3,0-0.6,0-0.7-0.2c-0.7-1.1-1.1-1.2-1.2-0.1c0,0.4-0.1,0.7-0.3,0.9c-1.4,1.6-4.8,2.7-3.8,5.2c-1,0.3-1.9,0.7-2.6,1.5
		c-0.9,0.9-0.8,1.2,0.4,0.7c1-0.4,1.9-1.1,2.8-2.2c1.3-3.1,4.5-3.7,5.3-5.8c0.7-0.2,3.3-2.3,1-2C64.3,66.3,63.8,66.5,63.3,68.5z"/>
	<path class="st22" d="M92.7,60.5c0,1.7,0.4,5.3,2.8,5.2c0.6,0.7,1.2,0.8,1.8,0.2l0.3-0.2l0.5,0.5l-1.3,0.5L96,67.2h-0.4
		c-0.7-0.7-1.4-0.6-2,0.3c-6.7,9.9-6.4,19.7,1.1,29.2c-0.5,1.2,0,1.6,1.3,1.4c0.5,1.5,0.3,2.8-0.7,3.8C84,92.2,82.1,76.4,91.8,64.8
		c0.6-0.7,0.7-1.7-0.1-2.3l0.5-1.2L92.7,60.5z"/>
	<path class="st2" d="M84.3,62.1c0.4,0.3,0.6,0.7,0.4,1.2c-0.1,0.2-0.3,0.3-0.5,0.2c0,0-0.1,0-0.1-0.1L82.4,62
		c-0.3-0.2-0.4-0.5-0.3-0.8c0.2-0.7,0.7-0.6,1.3,0.3C83.7,61.7,83.9,61.9,84.3,62.1z"/>
	<path class="st17" d="M74.2,61.3c0.6,0.7,0.6,1.2-0.1,1.5c-2.9,1.1-5.3,3-7.2,5.5L66.5,68c0.7-0.6,0.6-1.2-0.2-1.8
		c1.9-0.7,3.4-1.8,4.8-3.2L74.2,61.3z"/>
	<path class="st2" d="M96.9,63.2l3.4-1.5c0.2-0.1,0.5,0,0.6,0.2l0.1,0.3c0.1,0.2,0,0.5-0.2,0.6l-3.4,1.5c-0.2,0.1-0.5,0-0.6-0.2
		l-0.1-0.3C96.6,63.6,96.7,63.3,96.9,63.2z"/>
	<path class="st5" d="M35.7,105.3c8.1-7.1,10.7-16,7.8-26.6c-1.6-6-4.7-10.7-9.5-14.2c-0.7-0.5-1.3-0.4-1.8,0.3H32l0.2-1
		c0.1-0.7,0.5-1.2,1.1-1.6c0.3-0.1,0.6-0.1,0.9,0.1c16,9.2,16.5,33,3.4,44.7c-0.6,0.5-1,0.7-1.5,0.7
		C35.4,107.5,35.3,106.8,35.7,105.3z"/>
	<path class="st14" d="M57.8,62l-0.5,1.7L56.8,64C54.4,62.5,54.8,61.8,57.8,62z"/>
	<path class="st10" d="M70.2,62.5l-0.8,0.8c-1.3-0.1-2.5-0.3-3.7-0.6c-0.7-0.2-0.6-0.3,0.3-0.4L70.2,62.5z"/>
	<path class="st10" d="M31.5,62.2l0.7,1.5l-0.2,1c0,2.7,0,32.8,0,36.3h-0.8c-0.4-12.7-0.2-25.5-0.3-38.2L31.5,62.2z"/>
	<path class="st25" d="M70.2,62.5h0.2L71,63c-1.3,1.5-2.9,2.6-4.8,3.2c0-0.1,0-1.3,0-1.4l0.1-0.5c1.3,0.4,2.4,0.1,3.2-1L70.2,62.5z"
		/>
	<path class="st15" d="M74.2,62.8L55.1,81.5c-0.3,0.4-1.3,0.2-0.6-0.3c0.2-0.2,0.3-0.5,0.2-0.7c-0.1-0.4-0.3-0.7-0.7-1
		c0.4-0.4,0.9-0.4,1.3,0.1c0.2,0.2,0.4,0.2,0.6,0.1l0,0L67,68.3C68.9,65.7,71.3,63.9,74.2,62.8z"/>
	<path class="st2" d="M91.8,62.5c0.8,0.6,0.7,1.6,0.1,2.3C82.1,76.4,84,92.2,95.3,102l-0.3,1.3C81.5,93.6,80.1,74.3,91.8,62.5z"/>
	<path class="st19" d="M31,62.7c0.1,12.7-0.2,25.5,0.3,38.2l-0.5,1.2h-0.5l-0.8-0.5c0.2-2.2-0.9-3.8-0.6-5.7c0.6-4.5,2.4-8,0.1-12.9
		c-0.1-0.3-0.2-0.6-0.1-0.9c0.9-4.4,2.3-6.8,0.5-12c-0.1-0.2-0.1-0.5,0-0.9l0.5-4.8L31,62.7z"/>
	<path class="st2" d="M82.7,66.1c-0.5-0.4-3.6-2.5-2.7-3.1c0.2-0.2,0.6-0.1,0.8,0.1c0.4,0.3,3,2.7,2.4,3.1
		C83.1,66.2,82.9,66.2,82.7,66.1z"/>
	<path class="st5" d="M46.3,66.2V68c0.2,1.1,0.1,2.1-0.5,2.9c-0.2,0.3-0.4,0.3-0.5,0c-0.7-1.3-3.4-4.5-2.1-5.6
		C45.4,62.4,46.4,62.7,46.3,66.2z"/>
	<path class="st21" d="M57.2,63.7c0.4,1.6,1.3,2.1,2.5,1.5c0.4,1.6,1.2,2,2.6,1.3c0.3-0.2,0.4-0.1,0.4,0.2c-0.3,1.4-1.1,2.4-2.4,3
		c-2.3,0.3-3.7-0.6-4-2.7c0-0.3,0-0.6,0.2-0.9c0.3-0.7,0.4-1.4,0.3-2.1L57.2,63.7z"/>
	<path class="st26" d="M66.3,64.2l-0.1,0.5c-1.7,0.6-1.7,1-0.2,1.3v1C62.9,65.7,63,64.8,66.3,64.2z"/>
	<path class="st2" d="M98,66.2l-0.5-0.5c0.7-1.3,1.8-1.9,3.2-1.6c0.3,0.1,0.4,0.2,0.2,0.5C100.1,65.5,99.2,66,98,66.2z"/>
	<path class="st2" d="M35.7,105.3c10.7-14.7,9.5-28.2-3.5-40.6c0.5-0.7,1.1-0.8,1.8-0.3C46.9,74,48.6,95.1,35.7,105.3z"/>
	<path class="st7" d="M29.7,64.5l-0.5,4.8c0,0.4,0,0.8,0,0.9c1.8,5.3,0.5,7.6-0.5,12c-0.1,0.3,0,0.6,0.1,0.9
		c2.4,4.9,0.6,8.4-0.1,12.9c-0.3,1.9,0.8,3.5,0.6,5.7h-0.7c-2.5-5.5-1-8.5,0.2-13.5c0.1-0.3,0-0.6-0.1-0.9c-2.3-4.7-1-7,0.1-11.6
		c0.1-0.2,0-0.6,0-1l-1.4-7.5L29.7,64.5z"/>
	<path class="st17" d="M66.2,64.7V66H66C64.5,65.8,64.5,65.3,66.2,64.7z"/>
	<path class="st2" d="M78.9,65.1c0,0,4.4,3.7,2.7,3.5c-0.7-0.1-1.3-0.4-1.7-0.9c-1.1-1.2-1.7-2.1-1.6-2.6
		C78.3,64.7,78.5,64.7,78.9,65.1z"/>
	<path class="st24" d="M95.5,65.2c0.8-0.1,1.3,0.1,1.7,0.7c-0.5,0.5-1.1,0.4-1.8-0.2L95.5,65.2z"/>
	<path class="st14" d="M66,66h0.2l0.1,0.2c0.8,0.6,0.9,1.2,0.2,1.8L66,67V66z"/>
	<path class="st7" d="M100.3,100.7c-0.4,1.1-1,1.9-2,2.5l-0.3-0.8c1.8-4.9-1.1-8.7,0.4-14c1-3.3,0.5-5.2-1-8c1.7-4.1,2-8.3,0.9-12.4
		c-0.3-1,0.6-2.3,1.2-0.8c1.1,1.9,1.5,3.5,1.2,4.8L99,79.5c-0.1,0.3,0,0.6,0.1,0.9c1.7,3.7,1.7,7.5-0.1,11.3
		c-0.1,0.3-0.2,0.6-0.1,0.9C99.8,95.4,100.2,98.1,100.3,100.7z"/>
	<path class="st25" d="M65,68l-1.7,0.5C63.8,66.5,64.3,66.3,65,68z"/>
	<path class="st2" d="M77.1,67.2c0.8,0.7,4.9,4,4,4.7c-0.2,0.1-0.5,0-0.8-0.2L76.1,68c-0.3-0.3-0.5-0.6-0.4-0.8
		c0-0.2,0.2-0.3,0.6-0.3C76.5,66.7,76.8,66.9,77.1,67.2z"/>
	<path class="st5" d="M95.5,67.2l-0.9,29.6c-7.5-9.6-7.8-19.3-1.1-29.2C94.2,66.7,94.8,66.6,95.5,67.2z"/>
	<path class="st6" d="M96.8,66.8C97,75.1,97,93.5,97,102c0,0.4,0.2,0.7,0.4,0.7c0.2,0,0.3-0.1,0.5-0.2l0.3,0.8
		c-0.1,1.1-0.7,1.9-1.5,2.5c-0.7,0-1-0.5-1-1.3l-0.8-1.2l0.3-1.3c1-1,1.2-2.2,0.7-3.8v-31L96.8,66.8z"/>
	<path class="st4" d="M27.5,67.2l1.4,7.5c0.1,0.4,0.1,0.7,0,1c-1.1,4.6-2.4,6.9-0.1,11.6c0.1,0.3,0.2,0.6,0.1,0.9
		c-1.2,5-2.7,8-0.2,13.5c0,0.4-0.2,0.7-0.6,0.9c-3.9,1.4,0.8,2.5,2.1-0.3h0.5c0.6,0.4,1.1,0.5,1.5,0.6c1.3,1.3,1.5,2.5,0.6,3.6
		c-0.2,0.2-0.3,0.5-0.2,0.8c0.2,0.9,0.2,1.7-0.1,2.5L32,110c-2,0-0.8,9.2-0.5,11.2h0.9c0,0.2,0,0.5,0.3,0.5
		c4.4,2.3,7.4,5.7,8.9,10.2c0.3,0.8,0.1,1-0.7,0.5c-2.9-1.8-6.1-3.1-9.5-3.8c-0.2-0.1-0.4,0.1-0.5,0.3v0.1l-0.1,4.8
		c0,0.3-0.2,0.4-0.4,0.4c-0.2-0.1-0.4-0.3-0.5-0.5c-0.2-1.3-1.4-7.7-2.6-5.5c-0.1,0.2-0.1,0.6,0,1l1.1,4.5l-0.5,2.4
		c-0.1,0.3-0.3,0.5-0.6,0.8c-0.9,0.7-1,1.6-0.1,2.4c-0.8,1-1,2.1-0.7,3.3c0.1,0.3,0.4,0.5,0.7,0.5l11.2-0.1c0.3,0,0.6-0.2,0.8-0.4
		l7.8-11.4c0.2-0.3,0.3-0.7,0.3-0.9L47,129c0.4-0.7,0.8-0.4,1.4,0.8c2.8-1.3,4.7-3.4,5.8-6.5h0.5l1.2,5.2c-0.9,0.7-1.5,1.7-2,2.8
		c-0.1,0.3,0,0.5,0.2,0.6c0,0,0,0,0.1,0c0.9,0.2,1.7-2.2,2-3.1h0.2l0.2,0.7c-0.2,2.2,0.6,3.3,2.5,3.4c1.5-0.1,17.8,1,13.3-2.6
		l-0.2-0.2c1-0.9,1-1.6,0-2.3v-0.5c0.7-0.4,1-1,1-1.8c0.6-6.5-3.5-17.3-12-13.3c-2.3,1.1-3.9,2-5,2.8c-1,0-1.2-0.4-0.7-1l8-3.5
		c0.8-0.6,1.6-0.6,2.5-0.2c1.6,1.2,3.3,1.3,5.1,0.2c0.9-0.2,1.2-0.6,1-1.2l1.3,1c0.1,1-2.2,1.1-1.2,1.6c0.2,0.1,0.5,0,0.8-0.2
		c2.1-1.5,4.7,2.4,6.4,3.6c1,2.3,0.4,3.8-1.7,4.5c-0.3,0.1-0.6,0.1-0.9-0.1l-2.1-1c0-1.6-0.6-2.7-2-3.4c-0.3-0.2-0.4-0.1-0.1,0.2
		c0.8,1,1.4,2.2,1.6,3.6l0.3,2.8c0,0.8,0.1,1.6,0.5,2.2c-0.9,2.6-1.2,5.3-0.9,8c0,0.3,0.2,0.6,0.4,0.9l8.4,9.7
		c0.2,0.2,0.5,0.4,0.8,0.4c2.7,0,5.4,0.1,8.1,0c1.5,0,1.4,1.1,0,1.1c-21.7-0.2-43.4-0.2-65.1-0.1c-0.6,0-1-0.5-1-1l0,0V69
		c0-0.2,0.2-0.5,0.5-0.7L27.5,67.2z M31,104.3l-0.9-0.4c-0.3-0.1-0.6,0-0.8,0.2c-0.4,0.4-1,0.7-1.6,0.9c-0.4,0.1-0.7,0.2-0.8,0.4
		c-2,2.6,3.9-0.6,4.1-0.7C31.3,104.5,31.3,104.4,31,104.3z M26.7,107.7c-1,0.8-0.8,1.1,0.4,0.9c1.5-0.3,2.9-0.9,4.1-1.9
		c0.3-0.2,0.2-0.4-0.1-0.4C29.4,106.2,27.9,106.6,26.7,107.7z M26.8,110.4c0,1.4,3.7-0.7,4.1-0.9c3.4-2.1-3-0.7-3.6,0.2
		C27,109.9,26.8,110.1,26.8,110.4z M28.4,111.9c-1.3,3-1.1,5.8,0.4,8.4c1.1,1.9,1.3-0.3,1-1.1c-1-2.3-1-4.7,0-7.1
		c0.1-0.3,0.1-0.6-0.1-0.8C29.3,110.8,28.8,111,28.4,111.9z M72.3,114l0.2-0.1c0.1,0,0.2-0.2,0.1-0.4l0,0c-0.4-0.9-1-1.3-1.9-1.4
		c-0.4,0-0.5,0.2-0.3,0.5l1.1,1.7c0.1,0.1,0.2,0.1,0.2,0.1l0.1-0.1C72.2,114.1,72.3,114,72.3,114z M77,116.7v0.3l-2.5-1.7
		c-0.2-0.1-0.4-0.1-0.4,0c-0.1,0.2,1.9,2.2,2.2,2.8c0.1,0.3,0.4,0.5,0.7,0.5c1.3,0.1,2-0.5,2.1-1.7c0-0.3-0.1-0.6-0.4-0.8
		C77.9,115.7,77.3,115.9,77,116.7z M36.8,126.5l-0.8,1.2l-6.9-1.3c-0.2-0.1-0.4-0.3-0.5-0.5l-0.1-0.4c0.7-0.5,0.9-1.1,0.6-1.6
		c-0.1-0.2-0.5-0.4-0.8-0.3c-1.5,0.2-1.6,0.9-0.2,1.9c-1.1,1.2-1,1.6,0.2,1.3c0.3-0.1,0.6,0,0.8,0.2c0.9,0.8,1.9,1.2,3.1,1
		c0.3,0,0.6,0,0.9,0.1l5.1,1.7c0.4,0.5,0.9,0.8,1.5,0.9c0.5,0.1,0.6,0,0.3-0.4l-2.8-4.3c-1.7-1.8-5.2-4.8-7.4-4.1
		c-0.3,0.1-0.6,0-0.8-0.2c-0.8-0.9-1.4-0.9-1.9-0.1c-0.1,0.2,0,0.4,0.1,0.5h0.1C31.1,122.6,34.2,124,36.8,126.5z M35,126.8
		c0.8-0.6-3.4-2.5-4-2.7c-0.3-0.1-0.6,0-0.8,0.2c-0.2,0.4-0.3,0.8-0.1,1.2c0.1,0.3,0.4,0.4,0.7,0.4c1.1,0,2.3,0.3,3.4,0.8
		C34.5,127,34.8,127,35,126.8z M55.2,126c0.1-0.1,0-0.3-0.1-0.4l-0.5-0.3c-0.1-0.1-0.3,0-0.4,0.1l-2.9,5.1c-0.1,0.1,0,0.3,0.1,0.4
		l0.5,0.3c0.1,0.1,0.3,0,0.4-0.1L55.2,126z M42.8,142.2c0.9,0.2,1.6,0.1,2.2-0.5c2,0.8,4,0.8,6,0.2h1.3c0.9,0.5,1.8,0.5,2.7,0h1.3
		l9.5,0.3c0.5,0,0.9-0.1,1.4-0.3c1,0.5,1.9,0.4,2.8-0.3l1.8,0.5c1.5,0.3,2.9,0.1,4.2-0.5c0.5,0.5,1.2,0.7,2,0.5
		c1.4,0.4,2.1,0.3,2.3-0.5c0.1-0.3,0-0.6-0.3-0.9l-6-6.6c-0.2-0.2-0.5-0.3-0.8-0.3c-8.5,1.4-16.8,0.7-25-2c-0.3-0.1-0.6,0-0.8,0.2
		c-2.1,2.9-4.2,5.8-6.1,8.8C40.2,142.7,41.4,142.7,42.8,142.2z"/>
	<path class="st27" d="M95.5,67.2H96v31c-1.3,0.2-1.8-0.3-1.3-1.4L95.5,67.2z"/>
	<path class="st14" d="M65,68c2.3-0.3-0.3,1.9-1,2c0.2-0.7,0-1.2-0.7-1.5L65,68z"/>
	<path class="st23" d="M55.2,70l-2.8,0.7l-0.2-0.4c0.6-0.2,1-0.5,1.3-1c0.2-0.3,0.5-0.4,0.7-0.3C54.7,69.1,55,69.5,55.2,70z"/>
	<path class="st25" d="M64,70c-0.8,2.1-4,2.6-5.3,5.8H58c-1-2.5,2.4-3.5,3.8-5.2c0.2-0.2,0.3-0.5,0.3-0.9c0.1-1,0.5-1,1.2,0.1
		C63.4,70,63.7,70,64,70z"/>
	<path class="st21" d="M76.7,71.7L75,72.8c-0.3,0.2-0.5,0.4-0.6,0.7c-0.3,0.9-0.9,1.5-1.7,1.8c-0.3,0.1-0.5,0.3-0.5,0.6
		c-0.2,1.4-0.7,1.6-1.4,0.6c-0.1-0.2-0.4-0.2-0.6-0.1l0,0l-0.9,0.8l-3.5-1c2.8-1.5,5.3-5,7.8-7c0.3-0.2,0.6-0.3,0.9-0.3
		C76.3,68.9,77,69.9,76.7,71.7z"/>
	<path class="st23" d="M60.2,69.7c0.7-0.3,0.9,0.4,0.4,0.9C58.9,72.4,58.7,72.1,60.2,69.7z"/>
	<path class="st27" d="M32,70c1.2-0.3,1.9,0.2,2.2,1.2c-0.8-0.8-1.2-0.5-1.2,0.9c-0.3,9.6-0.3,19.2-0.2,28.8H32V70z"/>
	<path class="st15" d="M55.2,70l-0.8,1.2c-0.6,0-1.2,0.2-1.6,0.6c-0.2,0.2-0.6,0.2-0.7,0l0,0c-0.3-0.4-0.2-0.8,0.4-1.2L55.2,70z"/>
	<path class="st8" d="M52.2,78.3l0.2-2.3l0.5-0.7c1.4-0.6,2.1-1.6,2-3l0.2-0.2c0.5-0.3,0.9-0.7,1.1-1.2c0.1-0.3,0.3-0.5,0.5-0.6
		c0.5-0.2,0.6-0.1,0.4,0.5C55.9,73.5,54.3,76,52.2,78.3z"/>
	<path class="st5" d="M34.2,71.2c7.4,9.7,7.4,19.5,0.3,29.5c-0.5,0.7-1,0.7-1.7,0.2c-0.1-9.6,0-19.2,0.2-28.8
		C33,70.7,33.4,70.4,34.2,71.2z"/>
	<path class="st10" d="M76.7,71.7c0,0.7,0.3,1.2,1,1.3l-2.2,1c-0.2,0.1-0.3,0.4-0.2,0.7c1.2,3.2-3.7,3-5.5,3.5l-0.5-1l0.9-0.8
		c0.2-0.2,0.5-0.1,0.6,0.1l0,0c0.7,1,1.2,0.8,1.4-0.6c0-0.3,0.3-0.5,0.5-0.6c0.9-0.3,1.4-0.9,1.7-1.8c0.1-0.3,0.3-0.6,0.6-0.7
		L76.7,71.7z"/>
	<path class="st15" d="M54,72.7c-0.1,0.9-0.7,1.4-1.5,1.5C51.8,72.6,52.3,72.1,54,72.7z"/>
	<path class="st9" d="M55,72.3c0.1,1.4-0.5,2.4-2,3l-0.5-1c0.9-0.1,1.4-0.7,1.5-1.5L55,72.3z"/>
	<path class="st21" d="M79.5,77c-0.6,0.5-1.2,0.5-1.6-0.1c-0.2-0.2-0.3-0.2-0.3,0.1c-0.1,1.2-0.7,2.1-1.8,2.5
		c-0.3,0.1-0.5,0.3-0.8,0.6l-1.9,2.2c-0.1,0.2-0.2,0.3-0.2,0.4c0.1,0.3,0.3,0.5,0.7,0.3l0.1-0.1l4-3.5c0.3-0.3,0.7-0.5,0.8-0.5
		c0.5-0.1,0.8,0.2,0.7,0.8L79,84.2c-0.7,1.1-1.7,1.7-3,1.8c0.3-1.4-0.1-2-1.3-2L72,84.2l-0.1-1c0.2-0.8-0.1-5.2-1.9-3.3
		c-0.2,0.2-0.5,0.3-0.8,0.2c-0.8-0.5-0.6-1.1,0.5-1.8c1.8-0.4,6.7-0.3,5.5-3.5c-0.1-0.3,0-0.6,0.2-0.7l2.2-1
		C81.3,71.2,79.7,75.8,79.5,77z"/>
	<path class="st23" d="M58,75.7h0.7c-0.9,1-1.8,1.7-2.8,2.2c-1.2,0.5-1.4,0.3-0.4-0.7C56.2,76.5,57,76,58,75.7z"/>
	<path class="st19" d="M65.2,76.2l0.5,0.1l3.5,1l0.5,1c-1.2,0.7-1.4,1.3-0.5,1.8c0.2,0.1,0.5,0.1,0.8-0.2c1.8-1.8,2.1,2.5,1.9,3.3
		l-9,8.5l-2.7-0.9c-0.3-0.1-0.4-0.3-0.4-0.6c0.6-2.6-0.7-3.8-3.7-3.5l0.3-2.7L65.2,76.2z"/>
	<path class="st8" d="M79.5,77c0.4,1,0.3,1.9-0.2,2.8c0-0.6-0.2-0.9-0.7-0.8c-0.1,0-0.4,0.2-0.8,0.5l-4,3.5
		c-0.2,0.2-0.5,0.2-0.7,0.1L73,83c0-0.2-0.1-0.5,0.2-0.7l1.9-2.2c0.2-0.3,0.5-0.5,0.8-0.6c1-0.4,1.6-1.3,1.8-2.5
		c0-0.3,0.1-0.3,0.3-0.1C78.3,77.5,78.9,77.5,79.5,77z"/>
	<path class="st21" d="M48,77c2.7-0.2-0.3,4.2,3.3,3c1.6-0.5,2.2-0.2,1.8,1c-0.8,2.2,0.1,3.2,2.6,2.9c0.3,0.4,0.3,0.9-0.3,1.2
		c-1.3,0.7-1,1.2,0.7,1.6c3-0.3,4.2,0.9,3.7,3.5c-0.1,0.2,0.1,0.5,0.4,0.6l2.7,0.9L62.2,92c-2.6,1.7-5,3.8-7.2,6.1
		c-0.2,0.2-0.5,0.4-0.8,0.3c-2.6-0.3-3-1.6-1.4-3.9c0.1-0.3,0.1-0.5-0.1-0.6c-0.4-0.1-0.7,0.1-0.8,0.5c-0.1,0.3-0.4,0.5-0.6,0.4
		l-1.9-0.4h-1.2l0.2-2.2c1.7-1.2,3.1-2.6,4.4-4.3c0.1-0.1,0.1-0.3,0.1-0.5c0-0.3-0.1-0.7-0.4-0.3L49,90.2c-0.3-2-0.2-3.9,0.5-5.8
		c1.1-0.7,1.9-1.6,2.5-2.7c0.1-0.3,0.1-0.5,0-0.7c-0.5-0.5-2.5,1.3-3,1.6L48,77z"/>
	<path class="st19" d="M97.4,80.5c1.5,2.8,2,4.7,1,8c-1.6,5.3,1.4,9.1-0.4,14c-0.5,0.3-0.8,0.2-0.9-0.5l0,0V81.2L97.4,80.5z"/>
	<path class="st8" d="M49.5,84.5L49,82.8c0.6-0.3,2.5-2.2,3-1.6c0.1,0.1,0.1,0.4,0,0.7C51.5,82.9,50.6,83.8,49.5,84.5z"/>
	<path class="st15" d="M72,83.2l0.1,1l-28.7,27.4l9.5-10c0.1-0.1,0.2-0.3,0.1-0.5l-0.2-0.2l0.3-0.3l0.2,0.1c0.1,0.1,0.3,0,0.4-0.1
		l8.6-8.8l0.8-0.3L72,83.2z"/>
	<path class="st6" d="M56.5,83.5l0.1,0.5l-0.3,2.7c-1.7-0.3-2-0.8-0.7-1.6c0.5-0.3,0.6-0.7,0.3-1.2L56.5,83.5z"/>
	<path class="st19" d="M74.8,84c0.2,0.7,0,1.2-0.5,1.7c-0.4,0.1-0.6,0.2-0.8,0.3c-8.7,8.7-15,14.9-18.9,18.6c-0.6,0.5-0.6,0.9,0,1.2
		l-3.8,2.5c-1.5,0.8-2.6,1.8-3.4,3.2c-0.2,0.4-0.1,0.4,0.2,0.2l3.8-3.1c2.7-1.6,5.7-2.6,8.8-3.1c1.3-0.2,2.7,0.7,3.2-1.4
		c1.4-0.9,1.8-4.1,2.5-4c1.5,1.5,3.3,2.4,5.5,2.7c0.3,0,0.6-0.1,0.7-0.4c1.7-3.5-2.8-6.2-5.7-2.8c-0.7-0.4-1.4-0.2-2,0.5l-0.5-0.2
		c0.4-0.4,6-4.1,5-4.9c-0.2-0.2-0.2-0.3,0.1-0.4c1.6-0.4,2.6-1.4,3-3.1l1.5-1.8c1.2-0.7,2.1-1.7,2.7-3c0.1,0.1,0.5,1.1,0.6,1.2
		c0.1,0.1,0.3,0.2,0.5,0.1c3.6-0.8,0.7,3.6,2.9,3l0.3,1.3l0.5,16.5l0.2,2.8l-0.5,0.5c-1.4-0.8-2.4-2-2.8-3.4
		c0.4-6.3,0.4-12.6,0.1-18.9c0-0.3-0.2-0.6-0.5-0.7c-0.7-0.2-0.9,0.2-0.6,1L76,90.2c-0.2-0.4-0.7-0.3-0.9,0
		c-1.5,2.2-2.8,4.5-3.9,6.9l1,0.8l1.2,4.2c0.1,0.3-0.1,0.6-0.4,0.7l-2,1.2l-0.8-0.5l-1.2-0.3l-1.5-0.9c-2.1,0.1-3.3,1.3-3.5,3.7
		l-1,1.5c-1.5-0.5-2.7-0.3-3.8,0.7c-3.6,0.2-6.4,1.6-8.5,4.5c0.8,1.4,0.5,1.7-1,0.9c-0.9,0.5-2.4,1.8-4.3,3.8
		c-1.1,1.2-1.4,2.2-0.8,3.2l-0.5,0.2c-0.7-0.9-1-1.9-0.8-3l4.1-4.2c0.3-0.3,0.3-0.5-0.1-0.6c-1.2-0.3-4.2,3.6-4.8,4.6
		c-3.9,1-5.1-0.4-3.8-4L39,114c-0.1,2.9,0.3,3.5,1.2,1.8c0.5,0.1,0.8,0.5,0.9,1c0.1,0.2,0.2,0.3,0.3,0.1l2.8-3
		c0.3-0.3,0.3-0.6,0.2-0.8c-0.2-0.2-0.4-0.2-0.8,0.2l-0.4-1.6L72,84.2L74.8,84z"/>
	<path class="st22" d="M74.8,84c1.5-0.2,1.6,1.1,1.2,2.5c-0.6,1.2-1.5,2.2-2.7,3c-1.1-0.5-1.8,0-2,1.5c-1.6,1.2-3,2.6-4.4,4
		c-2.4,2.7-5.1,4.5-7.4,7.2l-1,1.8c-1,1.2-2.2,1.7-3.8,1.7L74,86.4c0.2-0.2,0.2-0.5,0.2-0.8C74.8,85.2,74.9,84.7,74.8,84z"/>
	<path class="st6" d="M79,84.2l0.5,1c-0.8,1-1.8,1.8-3,2.3l-0.5-1V86C77.3,85.9,78.3,85.3,79,84.2z"/>
	<path class="st13" d="M79.5,85.2c0.6,1.9,0.7,3.8,0.5,5.8c-2.2,0.5,0.7-3.8-2.9-3c-0.2,0-0.4,0-0.5-0.1l-0.1-0.2
		C77.7,87,78.7,86.2,79.5,85.2z"/>
	<path class="st25" d="M74.2,85.7c0,0.3,0,0.5-0.2,0.8l-19.3,19.3h-0.2c-0.5-0.2-0.5-0.6,0-1.2c3.9-3.7,10.3-9.9,18.9-18.6
		C73.6,85.9,73.9,85.8,74.2,85.7z"/>
	<path class="st6" d="M48.3,92.2l0.8-2l3.3-3.1c0.3-0.2,0.4-0.2,0.4,0.1c0,0.3,0,0.5-0.1,0.7C51.4,89.7,50,91.1,48.3,92.2z"/>
	<path class="st23" d="M73.2,89.5l-1.5,1.8L71.2,91C71.5,89.4,72.2,88.9,73.2,89.5z"/>
	<path class="st25" d="M77.7,108.6c-0.2-0.1-0.3-0.1-0.4-0.1c-0.7-0.4-1.1-0.9-1.1-1.7c0-0.3-0.2-0.5-0.4-0.5c-0.5,0-0.8,0.4-1,1
		h-0.2l-0.6-0.5c1.2-1.6,0.7-1.8-1.5-0.5l-0.5-0.5v-0.5c1.3-0.5,2.4-1.2,3.2-2.2c1.5-0.5,1.4-0.8-0.2-1c-0.2-0.9,3.2-2.2,0-1.8V99
		c0.3-0.1,0.6,0,0.8,0.1c0.2,0.1,0.3,0.1,0.3-0.1v-5L76,92.7c0.5-0.9,0.7-1.8,0.8-2.8c-0.3-0.8-0.1-1.1,0.6-1
		c0.3,0.1,0.5,0.3,0.5,0.7C78.2,95.9,78.1,102.2,77.7,108.6z M75.7,105.1c0.5,0.2,1-0.5,0.5-0.9c0,0,0,0-0.1-0.1
		c-0.8-0.4-1.1-0.1-1.1,0.9c0,0,0,0.1,0.1,0.1C75.3,105.1,75.6,105.1,75.7,105.1z"/>
	<path class="st8" d="M76,90.2L74.3,94L74,94.3l-2.8,2.9c1.1-2.4,2.4-4.8,3.9-6.9C75.4,89.9,75.8,89.8,76,90.2z"/>
	<path class="st4" d="M76.7,90c0,1-0.3,1.9-0.8,2.8L74.3,94l1.8-3.8L76.7,90z"/>
	<path class="st14" d="M71.2,91l0.5,0.3c-0.4,1.7-1.4,2.8-3,3.1c-0.3,0.1-0.3,0.2-0.1,0.4c1,0.9-4.6,4.5-5,4.9
		c-1.3,0.3-2.3,1.1-2.8,2.3l-1,0.3l-0.5-0.1c2.2-2.8,5-4.6,7.4-7.2C68.2,93.5,69.7,92.2,71.2,91z"/>
	<path class="st16" d="M62.2,92l-8.6,8.8c-0.1,0.1-0.3,0.2-0.4,0.1l-0.2-0.1l-3.8-6.2l1.9,0.4c0.2,0,0.5-0.1,0.6-0.4
		c0-0.5,1.2-0.8,1-0.1c0,0.1,0,0.1-0.1,0.2C51,97,51.5,98.3,54,98.6c0.3,0,0.6-0.1,0.8-0.3C57.2,95.8,59.6,93.8,62.2,92z"/>
	<path class="st10" d="M80.3,92.2c1.5,0.8,2.1,2.1,1.8,4v9l-0.8,3.2l-0.5,0.3L80.3,92.2z"/>
	<path class="st14" d="M76,92.7l0.2,1.2c-0.9,0-1.2,0.3-0.7,0.9c0.1,0.2,0.2,0.5,0,0.8l-0.4,1C75,96.8,75.3,97,75.5,97
		c0.3,0,0.4,0.1,0.5,0.2c0.1,0.2-0.2,0.4-0.5,0.6c-0.7,0.6-0.5,1.6-0.5,2.4c-0.9,0.9-0.9,1.5,0,1.8v1l-3.5,2.1l-0.5-1l1.9-1.1
		c0.3-0.2,0.5-0.5,0.4-0.7L72.2,98c1-1.1,1.6-2.3,1.8-3.7l0.3-0.3L76,92.7z"/>
	<path class="st24" d="M76.2,94v4.9c0,0.2-0.1,0.3-0.3,0.1c-0.2-0.1-0.5-0.1-0.8-0.1c0-0.5,0.1-0.8,0.4-0.9c0.7-0.4,0.7-0.8,0-0.8
		c-0.2,0-0.4-0.3-0.4-0.5l0.4-1c0.1-0.3,0.1-0.6,0-0.8C75,94.3,75.3,94,76.2,94z"/>
	<path class="st9" d="M74,94.3c-0.2,1.4-0.8,2.6-1.8,3.7l-1-0.8L74,94.3z"/>
	<path class="st2" d="M48,94.5h1.2l3.8,6.2l-0.3,0.3C51,100.1,45.7,97.1,48,94.5z"/>
	<path class="st5" d="M82,105.2v-9c0.5-0.3,0.9-0.3,1.3,0.3l1.9,3.7c0.2,0.3,0.2,0.6,0.1,0.9C84.6,102.9,83.5,104.2,82,105.2z"/>
	<path class="st21" d="M65.8,100l0.5-0.5c2.9-3.4,7.3-0.7,5.7,2.8c-0.1,0.3-0.4,0.4-0.7,0.4C69.1,102.4,67.2,101.5,65.8,100z"/>
	<path class="st23" d="M66.3,99.5l-0.5,0.5c-0.8,0-1.2,3.1-2.5,4c-1.2-0.2-1.9-0.9-2.2-2l3.2-2C64.9,99.3,65.6,99.1,66.3,99.5z"/>
	<path class="st2" d="M46.6,99.2c0.5-0.6,4.4,2.9,3.9,3.4C50,103.3,46,99.8,46.6,99.2z"/>
	<path class="st24" d="M63.8,99.7l0.5,0.2l-3.2,2C61.5,100.8,62.4,100,63.8,99.7z"/>
	<path class="st17" d="M75,102c-0.9-0.3-0.8-0.8,0-1.8C78.2,99.8,74.8,101.1,75,102z"/>
	<path class="st2" d="M48.2,103.5c2.1,3.1-5-1.4-2.4-2.1C46.4,101.3,47.2,102,48.2,103.5z"/>
	<path class="st2" d="M28.8,101.7h0.7l0.8,0.5c-1.3,2.9-6,1.8-2.1,0.3C28.5,102.5,28.8,102.2,28.8,101.7z"/>
	<path class="st3" d="M101.3,102.3c0.3-0.4,0.9-0.5,1.3-0.1c0.1,0,0.1,0.1,0.1,0.1l5.9,7.5c0.2,0.2,0.2,0.5,0,0.8l-6.4,7.5
		c-0.1,0.2-0.4,0.2-0.6,0l0,0l-6.5-7.4c-0.2-0.2-0.2-0.6,0-0.8L101.3,102.3z"/>
	<path class="st6" d="M61,102c0.3,1.1,1,1.8,2.2,2c-0.5,2.1-1.9,1.2-3.2,1.4c-3.1,0.5-6,1.6-8.8,3.1l-0.5-0.3l3.8-2.5
		c1.6,0.1,3-0.5,4-1.7c1.9,0.2,2.4-0.3,1.5-1.7L61,102z"/>
	<path class="st21" d="M67.5,102.3c-0.8,1.6-1.8,2.8-3,3.8L64,106C64.2,103.6,65.4,102.4,67.5,102.3z"/>
	<path class="st22" d="M75,102c1.6,0.2,1.7,0.5,0.2,1H75V102z"/>
	<path class="st26" d="M81,111.5l-0.2-2.8l0.5-0.3c1.8,0.2,2.6-0.6,2.2-2.3c0-0.2,0.1-0.4,0.3-0.5c0,0,0,0,0.1,0
		c3-0.2,0.5-5,3.1-3.3c0.3,0.2,0.4,0.5,0.5,0.8c0.1,1.7-0.5,3-1.9,3.9c-0.3,0.2-0.4,0.4-0.5,0.8c-0.1,1.3-0.9,2.1-2.2,2.4
		c-0.3,0.1-0.4,0.3-0.4,0.6C82.6,112.3,82.1,112.5,81,111.5z"/>
	<path class="st25" d="M59.5,102.2l0.5,0.1c0.9,1.4,0.5,1.9-1.5,1.7L59.5,102.2z"/>
	<path class="st2" d="M32.8,112.5l-0.3-2.7c0.3-0.8,0.3-1.6,0.1-2.5c-0.1-0.3,0-0.6,0.2-0.8c0.9-1.1,0.7-2.3-0.6-3.6
		c0.9-0.6,1.8-0.3,2.2,0.7c1.2,3.3,0.9,6.4-0.9,9.5c-0.1,0.2-0.3,0.2-0.4-0.1C33,112.8,32.9,112.6,32.8,112.5z"/>
	<path class="st16" d="M67.5,102.3l1.5,0.9c-0.4,0.4-3.3,4.4-1.3,4.8l0.3,0.3c0.5,1.1,1.2,1.2,2,0.2l1.2,0.8l-0.5,0.7
		c-1.6-0.5-3.2-0.5-4.7-0.1c-0.7-0.8-1.5-0.8-2.6-0.1c-2.9-1.8-13.5,1.4-8,4.2c-0.5,0.7-0.3,1,0.7,1c1.8,4.7-1.9,5.7-1.5,8.2h-0.5
		c0.4-1.5-0.4-1.6-1.1-0.8l-4.8,7.3c-0.5-1.2-1-1.4-1.4-0.8l-3-8.2l0.5-0.2l5.1-7c1.5,0.8,1.8,0.5,1-0.9c2.7-1.8,5.6-3.3,8.5-4.5
		c1.1-1,2.4-1.2,3.8-0.7c-0.2,0.6,0,1,0.5,1.1c0.2,0.1,0.4-0.1,0.5-0.3c0-0.8,0.2-1.6,0.6-2.3C65.7,105.1,66.7,103.9,67.5,102.3z
		 M66.6,105.6c0.2-0.4,0.1-0.5-0.3-0.2c-1.8,1.2-1.8,2.2-0.1,3.2c0.3,0.1,0.3,0.1,0.2-0.2C66.1,107.6,66.2,106.7,66.6,105.6z
		 M50.9,115c-0.5-1.3-4,4-5.7,6.1c-0.2,0.2-0.3,0.6-0.2,0.9c0.5,3.2,1.2-0.1,1.4-0.4c1.4-1.9,2.9-3.8,4.3-5.7
		C51,115.6,51,115.3,50.9,115z M54.9,119.6c1.4-0.7,1.7-1.8,0.9-3.3c-0.2-0.3-0.4-0.5-0.7-0.6c-2.3-0.6-2.6,2.6-1,3.8
		C54.3,119.7,54.6,119.8,54.9,119.6z M51,117.2c-1.5,2.3-3.5,4.3-4.9,6.6c-0.2,0.3-0.2,0.6-0.1,0.9c0.4,1.8,0.7,2,1,0.4
		c0.1-0.3,0.2-0.6,0.4-0.9c1.1-1.2,5.7-7.1,4.3-7.5C51.5,116.7,51.2,116.9,51,117.2z M51.7,120.1c-1.2,2.2-2.7,4.3-4.4,6.2
		c-0.7,0.8-0.4,2.5,0.7,1.3c1.7-2.1,3.2-4.2,4.7-6.3C53.3,120.4,53,117.8,51.7,120.1z"/>
	<path class="st17" d="M75,103l0.2,0.1c-0.9,1-2,1.8-3.2,2.2l-0.5-0.2L75,103z"/>
	<path class="st7" d="M69,103.2l1.2,0.3l-2.5,4.5C65.7,107.6,68.6,103.6,69,103.2z"/>
	<path class="st2" d="M31,104.3c0.3,0.1,0.3,0.3,0,0.4c-0.2,0.1-6,3.3-4.1,0.7c0.2-0.2,0.5-0.4,0.8-0.4c0.6-0.1,1.1-0.4,1.6-0.9
		c0.2-0.2,0.5-0.3,0.8-0.2L31,104.3z"/>
	<path class="st2" d="M45,104.7c0.5,0.4,1,0.9,1.4,1.4c0.5,0.5,0.2,0.8-0.8,0.6c-0.9-0.1-1.6-0.7-1.9-1.6
		C43.3,103.9,43.7,103.8,45,104.7z"/>
	<path class="st17" d="M75.3,105.1c-0.1,0-0.2,0-0.2-0.1l0,0c-0.1-1,0.3-1.3,1.1-0.9c0.2,0.1,0.4,0.4,0.2,0.7c0,0,0,0,0,0.1
		c-0.2,0.2-0.3,0.3-0.6,0.2C75.6,105.1,75.4,105.1,75.3,105.1z"/>
	<path class="st7" d="M83.6,112.1c0.7-1.1,4.6-7.6,5.8-7.1c0.2,0.1,0.3,0.4,0.2,0.6c0,0,0,0.1-0.1,0.1c-1.5,1.8-3.5,6.4-5.7,6.8
		C83.5,112.5,83.4,112.4,83.6,112.1z"/>
	<path class="st13" d="M66.6,105.6c-0.4,1.1-0.5,2-0.2,2.7c0.1,0.3,0,0.4-0.2,0.2c-1.7-1-1.7-2,0.1-3.2
		C66.6,105.1,66.7,105.2,66.6,105.6z"/>
	<path class="st12" d="M74,106.7l-1.2,0.8L72,107l0.5-0.8C74.6,104.9,75.1,105.1,74,106.7z"/>
	<path class="st10" d="M72,105.7l0.5,0.5L72,107C69.6,106.7,69.6,106.2,72,105.7z"/>
	<path class="st2" d="M26.7,107.7c1.2-1.1,2.7-1.5,4.3-1.4c0.4,0,0.4,0.2,0.1,0.4c-1.2,1-2.6,1.7-4.1,1.9
		C25.9,108.8,25.7,108.5,26.7,107.7z"/>
	<path class="st8" d="M64,106l0.5,0.1c-0.4,0.7-0.6,1.4-0.6,2.2c0,0.2-0.2,0.6-0.5,0.5c-0.5-0.1-0.6-0.5-0.5-1.1L64,106z"/>
	<path class="st7" d="M87.3,110.1c1.2-1.4,2.7-4.6,3.8-4c0.2,0.1,0.3,0.5,0.2,0.7c-0.6,1.1-2.8,4.4-3.9,3.9
		C87.2,110.6,87.1,110.4,87.3,110.1C87.2,110.2,87.3,110.2,87.3,110.1z"/>
	<path class="st2" d="M41.9,106.4c0.5-0.6,3.1,1.6,2.6,2.2C44,109.2,41.4,107,41.9,106.4z"/>
	<path class="st17" d="M77.3,108.5c-0.1,0.7-0.4,1-0.8,0.7c-0.1-0.1-0.2-0.3-0.5-0.8c-0.2-0.3-0.4-0.5-0.8-0.6l-0.5-0.5
		c0.2-0.6,0.5-0.9,1-1c0.2,0,0.4,0.2,0.5,0.5l0,0C76.2,107.6,76.6,108.1,77.3,108.5z"/>
	<path class="st21" d="M74,106.7l0.6,0.5c-0.4,1-1.1,1-1.8,0.2L74,106.7z"/>
	<path class="st13" d="M91.8,108.9c-3,0.3,3.5-3.6,0.8-0.4C92.4,108.7,92.1,108.9,91.8,108.9z"/>
	<path class="st10" d="M75.2,107.7c0.4,0.1,0.7,0.3,0.8,0.6c0.2,0.5,0.4,0.8,0.5,0.8c0.4,0.3,0.6,0.1,0.8-0.7c0.1,0,0.3,0,0.4,0.1
		c0.4,1.4,1.3,2.6,2.8,3.4l0.4,0.5c0.2,0.3,0.4,0.4,0.7,0.5c0.4,0.1,0.5,0.3,0.2,0.7c-0.1,0.2-0.4,0.2-0.5,0.1c0,0-0.1,0-0.1-0.1
		c-1.7-2.1-3.7-3.7-6-5C74.4,108.3,74.5,107.9,75.2,107.7z"/>
	<path class="st2" d="M41.8,109.1c0.3,0.2,0.5,0.5,0.6,0.9c0.1,0.3-0.2,0.4-0.5,0.4c-1-0.2-1.7-0.8-2-1.9c-0.1-0.4,0-0.5,0.4-0.4
		C40.9,108.3,41.2,108.8,41.8,109.1z"/>
	<path class="st8" d="M59.1,108.2c-3,1.1-5.8,2.6-8.5,4.5C52.7,109.8,55.5,108.3,59.1,108.2z"/>
	<path class="st2" d="M27.4,109.6c0.9-0.6,2-1,3.1-1.2c1.8-0.2,2,0.1,0.5,1c-0.4,0.2-4.2,2.3-4.1,0.9
		C26.8,110.1,27,109.9,27.4,109.6z"/>
	<path class="st8" d="M50.7,108.2l0.5,0.3l-3.8,3.1c-0.3,0.3-0.4,0.2-0.2-0.2C48.1,110.1,49.2,109,50.7,108.2z"/>
	<path class="st10" d="M68,108.3l2,0.2C69.2,109.4,68.5,109.4,68,108.3z"/>
	<path class="st2" d="M63.5,109.8v0.7l-8,3.5C50,111.2,60.6,108,63.5,109.8z"/>
	<path class="st10" d="M66.1,109.9l-0.1,0.4c-0.9-0.4-1.7-0.3-2.5,0.2v-0.7C64.5,109,65.4,109.1,66.1,109.9z"/>
	<path class="st2" d="M70.8,110l0.3,0.5c-1.8,1.1-3.5,1-5.1-0.2l0.1-0.4C67.5,109.4,69.1,109.5,70.8,110z"/>
	<path class="st18" d="M71.2,109.3H72c0.2,0.6-0.1,1.1-1,1.2l-0.3-0.5L71.2,109.3z"/>
	<path class="st6" d="M32.5,109.7l0.3,2.7L32,113v-3L32.5,109.7z"/>
	<path class="st2" d="M36.4,110c0.7-1.1,5.1,1.5,4.5,2.6C40.2,113.7,35.8,111.1,36.4,110z"/>
	<path class="st10" d="M32,110v3l0.2,2.5l-0.8,5.8C31.2,119.3,30,110,32,110z"/>
	<path class="st10" d="M73.3,110.2c2.6,0.9,4.7,2.5,6.2,4.8l-0.2,0.2c-1.7-1.2-4.3-5.1-6.4-3.6c-0.3,0.2-0.6,0.2-0.8,0.2
		C71.1,111.4,73.4,111.2,73.3,110.2z"/>
	<path class="st7" d="M28.4,111.9c0.4-0.9,0.8-1.1,1.3-0.6c0.2,0.2,0.2,0.5,0.1,0.8c-1.1,2.4-1.1,4.8,0,7.1c0.4,0.8,0.1,3-1,1.1
		C27.3,117.8,27.2,115,28.4,111.9z"/>
	<path class="st2" d="M38.8,113.7c-1.4,3.6-0.1,5,3.8,4l0.8,0.1c-0.2,1.1,0,2.1,0.8,3l3,8.2l0.2,1.2c0,0.2-0.1,0.6-0.3,0.9
		l-7.8,11.4c-0.2,0.3-0.5,0.4-0.8,0.4L27.2,143c-0.3,0-0.6-0.2-0.7-0.5c-0.4-1.2-0.1-2.3,0.7-3.3l4.9-4.4c0.2-0.2,0.4-0.5,0.4-0.9
		l0.2-5c2.9,0.7,5.7,1.9,8.3,3.5c0.7,0.5,1,0.3,0.7-0.5c-1.6-4.5-4.6-7.9-8.9-10.2c-0.1-0.1-0.2-0.2-0.3-0.3v-0.2l0.5-5.8
		c1.1-1,1.8-2.3,2.2-3.7c0.1-0.2,0.4-0.3,0.6-0.3L38.8,113.7z"/>
	<path class="st2" d="M73.2,125.5h-0.7c-0.5-0.9-1.1-1.2-1.8-0.7l-0.5-0.1l-0.2-0.5c0.8-0.5,1-1,0.6-1.6c-0.2-0.2-0.3-0.2-0.4,0.1
		c-0.1,0.3-0.4,0.6-0.8,0.7c-0.7-0.7-0.9-1.5-0.7-2.6c0.4-1.7-0.3-2.2-2.1-1.5c-1,0.4-2.1,0.6-3.2,0.6c-0.5,0-0.8,0.6-0.7,1.4
		c0,0.2,0.1,0.3,0.1,0.5c0.7,1.9,0.5-0.8,1.1-1.3c0.2-0.2,0.5-0.1,0.7,0.1c0.9,0.9,1.5,0.9,1.9-0.1c0.1-0.3,0.4-0.5,0.7-0.5
		c1.1,0.1,0.8,5.4,0.8,8.2c0,0.3,0.1,0.7,0.3,0.9c1,1.2,2.3,1.5,3.9,0.9c1.5,1,0.6,2-0.7,2.2c-4.3,0.8-8.2,0.5-12.6,0.4
		c-1.9,0-2.7-1.2-2.5-3.4c0.1-0.3,0.4-0.5,0.8-0.3c2.1,1.7,4.4,1.9,6.9,0.9c0.3-0.1,0.8-0.7,0.3-1c-0.2-0.1-0.6-0.1-0.9,0.1
		c-1.1,0.5-2.2,1-3.4,0.5c-1.2-0.7-2.5-1-3.9-0.9H56l-0.3-0.3l-1.2-5.2c-0.4-2.5,3.4-3.6,1.5-8.2c1-0.8,2.7-1.7,5-2.8
		C69.7,108.2,73.8,119,73.2,125.5z M69.3,116.5c-2.6-2.8-4.7-2.6-6.4,0.5c-0.2,0.3-0.1,0.6,0.2,0.8c0.1,0,0.2,0.1,0.3,0.1h5.5
		C70,117.8,70.2,117.4,69.3,116.5z M60.2,125H60c-1.1-0.2-1.9,0.1-2.3,1c-0.1,0.3-0.1,0.6,0.1,0.9c2.3,2.8,4.6,2.7,6.7-0.3
		c0.2-0.3,0.2-0.6,0.1-0.9c-0.6-1.2-1.6-2.2-2.8-2.9c-0.3-0.2-0.4-0.1-0.2,0.2C62.5,124.6,62.1,125.2,60.2,125z"/>
	<path class="st8" d="M72,114.3c-0.1,0.1-0.3,0.3-0.3,0.1l0,0l-1.1-1.7c-0.2-0.3-0.1-0.5,0.3-0.5c0.9,0,1.5,0.5,1.9,1.4
		c0.1,0.2,0,0.3-0.1,0.4l0,0l-0.2,0.1C72.3,114,72.2,114.1,72,114.3z"/>
	<path class="st6" d="M40.3,115.7v-1c1-0.8,2.2-1.3,3.5-1.5c0.3-0.3,0.6-0.4,0.8-0.2c0.1,0.2,0.1,0.5-0.2,0.8l-2.8,3
		c-0.2,0.2-0.3,0.2-0.3-0.1C41.1,116.2,40.8,115.9,40.3,115.7z"/>
	<path class="st10" d="M43.2,117.8l-0.8-0.1c0.6-1,3.5-4.9,4.8-4.6c0.3,0.1,0.4,0.3,0.1,0.6L43.2,117.8z"/>
	<path class="st10" d="M49.6,113.5l-5.1,7c-0.5-1-0.3-2.1,0.8-3.2C47.3,115.3,48.7,114.1,49.6,113.5z"/>
	<path class="st8" d="M39,114l1.2,0.8v1C39.4,117.5,38.9,116.9,39,114z"/>
	<path class="st22" d="M69.3,116.5c0.8,0.9,0.7,1.3-0.5,1.3h-5.5c-0.4,0-0.7-0.6-0.4-0.9C64.7,113.9,66.8,113.7,69.3,116.5z
		 M67,115.6c-1-0.9-1.8-0.7-2.4,0.6c-0.1,0.1,0,0.3,0.2,0.4h0.1l2.9,0.1c0.3,0,0.4-0.2,0.4-0.4c-0.1-0.2-0.2-0.3-0.3-0.3
		C67.3,115.8,67,115.6,67,115.6z"/>
	<path class="st10" d="M45.2,121.1c1.7-2.1,5.3-7.4,5.7-6.1c0.1,0.3,0,0.6-0.2,0.9c-1.5,1.9-2.9,3.8-4.3,5.7c-0.2,0.3-1,3.6-1.4,0.4
		C44.9,121.6,45,121.3,45.2,121.1z"/>
	<path class="st15" d="M67.8,116c0.5,0.2,0.3,0.6-0.1,0.6l-2.9-0.1c-0.3,0-0.3-0.2-0.3-0.4c0.6-1.3,1.4-1.5,2.4-0.6
		C67,115.6,67.3,115.8,67.8,116z"/>
	<path class="st6" d="M74.5,118.7L74,119c-0.2-1.3-0.7-2.5-1.6-3.6c-0.2-0.3-0.2-0.3,0.1-0.2C73.9,116,74.5,117.1,74.5,118.7z"/>
	<path class="st10" d="M77,117c0,0.7,0.2,1,0.6,0.9c0.8-0.3,0.5-1.5-0.5-1.2c0.3-0.8,0.8-1,1.6-0.5c0.3,0.2,0.4,0.5,0.4,0.8
		c-0.2,1.2-0.9,1.8-2.1,1.7c-0.3,0-0.5-0.2-0.7-0.5c-0.3-0.6-2.3-2.6-2.2-2.8c0.1-0.1,0.3-0.1,0.4,0L77,117z"/>
	<path class="st6" d="M32.3,115.5H33l-0.5,5.8h-0.9L32.3,115.5z"/>
	<path class="st6" d="M54,119.5c-1.6-1.2-1.3-4.4,1-3.8c0.3,0.1,0.6,0.3,0.7,0.6c0.8,1.5,0.5,2.6-0.9,3.3
		C54.6,119.8,54.3,119.7,54,119.5z"/>
	<path class="st10" d="M46.2,123.8c1.3-2.3,3.4-4.3,4.9-6.6c0.2-0.3,0.5-0.5,0.8-0.4c1.3,0.4-3.3,6.2-4.3,7.5
		c-0.2,0.2-0.4,0.5-0.4,0.9c-0.3,1.5-0.6,1.4-1-0.4C46,124.4,46,124.1,46.2,123.8z"/>
	<path class="st19" d="M77,116.7c0.5-0.1,0.9,0.1,0.9,0.4c0.1,0.3-0.1,0.7-0.4,0.8c-0.3,0.1-0.5-0.2-0.6-0.9L77,116.7z"/>
	<path class="st10" d="M51.7,120.1c1.3-2.4,1.7,0.2,1,1.1c-1.5,2.1-3.1,4.3-4.7,6.3c-1.1,1.2-1.4-0.5-0.7-1.3
		C49,124.4,50.4,122.4,51.7,120.1z"/>
	<path class="st22" d="M69.5,123.5l0.5,0.7l0.2,0.5c-0.8,0.2-1.1,0.6-0.9,1.1c0.1,0.5,0.3,0.5,0.6,0.1l0.9-1.1
		c0.7-0.5,1.3-0.2,1.8,0.7l-0.8,1.7l-1.8,0.4c-2.5,1.1,1.7,2.3,2.3,2.4l0.2,0.2c-1.6,0.6-2.9,0.3-3.9-0.9c-0.2-0.2-0.3-0.6-0.3-0.9
		c0-2.8,0.2-8.1-0.8-8.2c-0.3,0-0.5,0.2-0.7,0.5c-0.4,1-1.1,1-1.9,0.1c-0.2-0.2-0.5-0.3-0.7-0.1c-0.6,0.5-0.4,3.2-1.1,1.3
		c-0.3-0.8-0.2-1.6,0.3-1.9c0.1-0.1,0.2-0.1,0.3-0.1c1.1,0,2.1-0.2,3.2-0.6c1.8-0.7,2.5-0.2,2.1,1.5C68.6,122,68.8,122.9,69.5,123.5
		z"/>
	<path class="st6" d="M75.8,121.2c-0.5,0.5-0.4,0.7,0.4,0.8c0.6,0.1,0.8,0.3,0.8,0.8c0,0.2-0.2,0.4-0.5,0.3h-0.1
		c-1-0.4-1.3-0.1-1.1,0.8h-0.5c-0.4-0.7-0.5-1.4-0.5-2.2L75.8,121.2z"/>
	<path class="st8" d="M37.2,126.2l-0.3,0.3h-0.2c-2.6-2.5-5.7-3.9-9.3-4.3c-0.2,0-0.3-0.3-0.3-0.5c0.5-0.8,1.1-0.8,1.9,0.1
		c0.2,0.2,0.5,0.3,0.8,0.2C32,121.4,35.6,124.4,37.2,126.2z"/>
	<path class="st12" d="M75.8,121.2c3.6-0.5,3.1,4.4-0.5,2.8c-0.3-0.9,0.1-1.2,1.1-0.8c0.2,0.1,0.5,0,0.6-0.2v-0.1
		c0.1-0.5-0.2-0.8-0.8-0.8c-0.4,0-0.6-0.2-0.7-0.3C75.4,121.6,75.5,121.4,75.8,121.2z"/>
	<path class="st10" d="M54.2,123.2c-1.1,3.1-3.1,5.3-5.8,6.5l4.8-7.3C53.8,121.6,54.8,121.7,54.2,123.2z"/>
	<path class="st23" d="M70,124.2l-0.5-0.7c0.4-0.1,0.6-0.4,0.8-0.7c0.1-0.3,0.2-0.4,0.4-0.1C71,123.3,70.8,123.8,70,124.2z"/>
	<path class="st17" d="M60,125c-0.8,0.6-0.9,1.3-0.4,2c0.2,0.3,0.4,0.3,0.4-0.1l0.2-1.9c1.8,0.2,2.2-0.5,1.3-2
		c-0.2-0.3-0.1-0.3,0.2-0.2c1.3,0.7,2.2,1.7,2.8,2.9c0.1,0.3,0.1,0.6-0.1,0.9c-2.1,3-4.3,3.1-6.7,0.3c-0.2-0.2-0.3-0.6-0.1-0.9
		C58.1,125.1,58.9,124.8,60,125z M62.8,126.4c0.2-3.3-1.6,1.7-0.2,0.5C62.7,126.8,62.8,126.6,62.8,126.4z"/>
	<path class="st7" d="M28.5,125.5H28c-1.4-1-1.4-1.7,0.2-1.9c0.3-0.1,0.7,0.1,0.8,0.3C29.3,124.4,29.1,125,28.5,125.5z"/>
	<path class="st3" d="M100.3,146.9c2.3-0.3,3.1,0.8,2.4,3.3c-0.1,0.3-0.4,0.5-0.7,0.5h-7.8c-0.3,0-0.6-0.2-0.7-0.5
		c-0.8-2.4-0.1-3.4,2.2-3.2c0.3,0,0.5-0.2,0.5-0.4l0,0c0-4.5-1-16.4,1.3-19.8c4.8-6.9,13.7-1.9,13.3,5.7c0,0.3-0.2,0.6-0.5,0.7
		c-0.8,0.4-1.7,0.4-2.7,0.1c-0.3-0.1-0.4-0.4-0.4-0.6c0.9-6.3-7.4-7.6-7.5-0.7c0,4.9,0,9.7,0,14.6C99.8,146.7,100,146.9,100.3,146.9
		z"/>
	<path class="st13" d="M31,124.1c0.6,0.2,4.9,2.1,4,2.7c-0.2,0.2-0.6,0.2-0.9,0c-1.1-0.6-2.2-0.8-3.4-0.8c-0.9,0-1-1-0.6-1.6
		C30.3,124.1,30.7,124,31,124.1z"/>
	<path class="st23" d="M70.2,124.7l0.5,0.1l-0.9,1.1c-0.3,0.4-0.5,0.3-0.6-0.1C69.2,125.3,69.5,124.9,70.2,124.7z"/>
	<path class="st14" d="M60,125h0.2l-0.2,1.9c0,0.4-0.2,0.4-0.4,0.1C59.1,126.4,59.2,125.7,60,125z"/>
	<path class="st13" d="M54.6,125.3l0.5,0.3c0.1,0.1,0.2,0.2,0.1,0.4l-2.9,5.1c-0.1,0.1-0.2,0.2-0.4,0.1l-0.5-0.3
		c-0.1-0.1-0.2-0.2-0.1-0.4l2.9-5.1C54.3,125.3,54.4,125.3,54.6,125.3z"/>
	<path class="st8" d="M28,125.5h0.5l0.1,0.4c0.1,0.3,0.3,0.5,0.5,0.5l6.9,1.3c0.5,1.1,1.2,1.5,2.3,1.3v1l-5.1-1.7
		c-0.4-0.1-0.7-0.2-0.9-0.1c-1.2,0.2-2.2-0.2-3.1-1c-0.2-0.2-0.5-0.3-0.8-0.2C27,127.1,26.9,126.7,28,125.5z"/>
	<path class="st14" d="M62.5,127c-1.3,1.2,0.5-3.8,0.2-0.5C62.8,126.6,62.7,126.8,62.5,127z"/>
	<path class="st24" d="M72.5,125.5h0.7c0,0.8-0.3,1.4-1,1.8h-0.5L72.5,125.5z"/>
	<path class="st21" d="M37.2,126.2l2.8,4.3c0.2,0.4,0.1,0.5-0.3,0.4c-0.6-0.1-1.1-0.5-1.5-0.9v-1l-1.3-2.5L37.2,126.2z"/>
	<path class="st16" d="M36.8,126.5H37l1.3,2.5c-1.1,0.2-1.8-0.2-2.3-1.3L36.8,126.5z"/>
	<path class="st23" d="M71.8,127.2h0.5v0.5c-0.8,1.7-1.6,1.6-2.3-0.1L71.8,127.2z"/>
	<path class="st21" d="M30,133.7c-0.4,1-0.9,1-1.5,0l-1.1-4.5c-0.1-0.4-0.1-0.7,0-1C28.6,126,29.9,132.5,30,133.7z"/>
	<path class="st2" d="M69.9,127.6c0.8,1.7,1.5,1.8,2.3,0.1c1,0.6,1,1.4,0,2.3C71.6,129.9,67.4,128.7,69.9,127.6z"/>
	<path class="st6" d="M32.8,129l-0.2,5c0,0.3-0.2,0.7-0.4,0.9l-4.9,4.4c-0.8-0.9-0.8-1.7,0.1-2.4c0.3-0.2,0.5-0.5,0.6-0.8l0.5-2.4
		c0.6,1,1.1,1,1.5,0c0.2,0.3,0.7,0.8,0.9,0.3c0-0.1,0-0.1,0-0.2L31,129c0-0.2,0.3-0.4,0.5-0.4L32.8,129z"/>
	<path class="st21" d="M56,128.5l0.3,0.3c-0.4,0.9-1.1,3.4-2,3.1c-0.2-0.1-0.4-0.3-0.3-0.6c0,0,0,0,0-0.1
		C54.4,130.2,55.1,129.2,56,128.5z"/>
	<path class="st17" d="M56.5,128.8c1.4,0,2.7,0.3,3.9,0.9c0.3,0.2,0.7,0.3,0.9,0.2c0.9-0.1,1.7-0.3,2.5-0.7c0.4-0.2,0.7-0.2,0.9-0.1
		c0.4,0.2,0,0.8-0.3,1c-2.5,1.1-4.8,0.8-6.9-0.9c-0.3-0.3-0.7,0-0.8,0.3L56.5,128.8z"/>
	<path class="st5" d="M78,142.2l-3.9-5.6c-0.2-0.2-0.5-0.4-0.8-0.5c-1.5-0.3-3-0.1-4.6,0.5c-0.3,0.1-0.4,0.4-0.3,0.7l1.6,4.4
		c-0.8,0.7-1.8,0.8-2.8,0.3l-1.7-4.8c-0.1-0.3-0.4-0.5-0.7-0.5l-7.9-0.4c-0.3,0-0.6,0.2-0.7,0.5L55,142c-0.9,0.5-1.7,0.5-2.7,0
		l1.4-5.7c0.1-0.3-0.1-0.6-0.4-0.7l0,0l-4.5-1.1c-0.3-0.1-0.6,0.1-0.8,0.4l-5.2,7.3c-1.4,0.5-2.5,0.5-1.4-1.2c2-3,4-6,6.1-8.8
		c0.2-0.2,0.5-0.3,0.8-0.2c8.2,2.8,16.5,3.4,25,2c0.3-0.1,0.6,0.1,0.8,0.3l6,6.6c0.2,0.3,0.3,0.6,0.3,0.9
		C80.1,142.5,79.4,142.6,78,142.2z"/>
	<path class="st2" d="M52.3,142H51l0.9-4.3c0.1-0.3,0-0.7-0.2-0.8c-0.8-0.6-2.2-1.3-3.1-0.4l-3.7,5.2c-0.6,0.5-1.3,0.7-2.2,0.5
		l5.2-7.3c0.2-0.3,0.5-0.4,0.8-0.4l4.5,1.1c0.3,0.1,0.5,0.4,0.4,0.7l0,0L52.3,142z"/>
	<path class="st5" d="M51,142c-2,0.6-4,0.5-6-0.2l3.7-5.2c0.2-0.3,0.5-0.4,0.8-0.4c0.9,0,1.6,0.2,2.3,0.8c0.2,0.2,0.3,0.5,0.2,0.8
		L51,142z"/>
	<path class="st2" d="M78,142.2c-0.8,0.2-1.5,0-2-0.5c-1.2-1.7-2.8-5-5.3-4.1c-0.3,0.1-0.4,0.4-0.3,0.7l1.3,3.9l-1.8-0.5l-1.6-4.4
		c-0.1-0.3,0-0.6,0.3-0.7c1.6-0.6,3.1-0.8,4.6-0.5c0.4,0.1,0.7,0.2,0.8,0.5L78,142.2z"/>
	<path class="st2" d="M67.2,142c-0.5,0.2-0.9,0.3-1.4,0.3l-1.2-3.5c-0.1-0.3-0.4-0.5-0.6-0.6l-6.2-0.2c-0.3,0-0.5,0.2-0.6,0.5
		l-0.9,3.6H55l1.2-5.2c0.1-0.3,0.3-0.5,0.7-0.5l7.9,0.4c0.3,0,0.6,0.2,0.7,0.5L67.2,142z"/>
	<path class="st5" d="M76,141.7c-1.3,0.6-2.8,0.8-4.2,0.5l-1.3-3.9c-0.1-0.3,0-0.6,0.3-0.7C73.2,136.8,74.8,140,76,141.7z"/>
	<path class="st5" d="M65.8,142.3l-9.5-0.3l0.9-3.6c0.1-0.3,0.3-0.5,0.6-0.5l6.2,0.2c0.3,0,0.5,0.2,0.6,0.6L65.8,142.3z"/>
</g>
</svg>
