<?xml version="1.0" encoding="utf-8"?>
<!-- Generator: Adobe Illustrator 27.0.1, SVG Export Plug-In . SVG Version: 6.00 Build 0)  -->
<svg version="1.1" id="Слой_1" xmlns="http://www.w3.org/2000/svg" xmlns:xlink="http://www.w3.org/1999/xlink" x="0px" y="0px"
	 viewBox="0 0 128 168" style="enable-background:new 0 0 128 168;" xml:space="preserve">
<style type="text/css">
	.st0{fill:#D8D8D8;}
	.st1{fill:#AAAAAA;}
	.st2{fill:#FFFFFF;}
	.st3{fill:#C4332C;}
	.st4{fill:#2D3260;}
	.st5{fill:#060908;}
	.st6{fill:#BEBECE;}
	.st7{fill:#B3181E;}
	.st8{fill:#D9CB34;}
	.st9{fill:#B0B1C1;}
	.st10{fill:#2D314B;}
	.st11{fill:#16161F;}
	.st12{fill:#64688B;}
	.st13{fill:#CFD0DC;}
	.st14{fill:#222220;}
	.st15{fill:#43455D;}
	.st16{fill:#9699B0;}
	.st17{fill:#888AA4;}
	.st18{fill:#F2F3F5;fill-opacity:0.969;}
	.st19{fill:#4A4826;}
	.st20{fill:#E2D14A;}
	.st21{fill:#71261C;}
	.st22{fill:#9B912C;}
	.st23{fill:#363522;}
	.st24{fill:#E5D635;}
	.st25{fill:#ACA62F;}
	.st26{fill:#C2B432;}
</style>
<g>
	<path class="st0" d="M107.9,161.6H20c-6.9,0-12.4-5.6-12.4-12.4V18.6c0-6.9,5.6-12.4,12.4-12.4h87.8c6.9,0,12.4,5.6,12.4,12.4
		v130.5C120.3,156,114.7,161.6,107.9,161.6z"/>
	<path class="st1" d="M106.9,157.7H21.1c-5.5,0-9.9-4.4-9.9-9.9V19.7c0-5.5,4.4-9.9,9.9-9.9h85.8c5.5,0,9.9,4.4,9.9,9.9v128.1
		C116.8,153.3,112.3,157.7,106.9,157.7z"/>
	<path class="st2" d="M106.6,154.6H21.4c-4.4,0-8-3.6-8-8V20.8c0-4.4,3.6-8,8-8h85.2c4.4,0,8,3.6,8,8v125.9
		C114.5,151.1,111,154.6,106.6,154.6z"/>
</g>
<g>
	<path class="st3" d="M18.2,36.1c-3.1-1.9-0.5-2.5,0.5-4.4c-0.1-3.7-0.7-9,1.3-11.8c2.5-3.5,8.8-3.3,11.1,0.3
		c2.1,3.4,1.1,14.1,1.1,18.3c0,1.2-1,2.9,1.5,2.5c1.2,0,0.8,2,0.7,2.7c-1.2,1.5-3.4-0.5-4.9-0.2C22.8,47.4,19.2,41.9,18.2,36.1z
		 M26.6,20.9c-6-1.1-4.4,7.9-4.3,11.2c1.6,1.8,4.6,2.6,5.9,5.1c0.3,0.5,0.5,0.5,0.5-0.2V23.5C28.8,22.1,28,21.2,26.6,20.9z
		 M26.7,39.9c-0.8-1.3-2-2.4-3.8-3.5c-0.2-0.1-0.5-0.1-0.5,0.2C20.7,40.2,28.1,43.2,26.7,39.9z"/>
	<path class="st2" d="M26.6,20.9c1.4,0.3,2.2,1.1,2.2,2.6V37c0,0.6-0.2,0.7-0.5,0.2c-1.3-2.6-4.3-3.3-5.9-5.1
		C22.2,28.8,20.6,19.8,26.6,20.9z"/>
	<path class="st4" d="M71.5,24.2c-1.8-0.3-2.2,0.1-1.1,1.1c-1.3-0.7-2.1,0-3.2,0.1c-5.2-1-5.8,0.1-1.8,3.4c0.1,2.4-1,3.7-3.5,4
		c0-1,2.6-1,2.9-3.2c0.1-0.7-2-2-2.4-2.4c-0.5-0.5,0.2-1.5-0.8-1.8c-0.9-0.1,0,2.5-0.1,2.8c-0.1,0.9-1.1,1.6-0.2,2.5
		c0.2,0.2,0.3,0.5,0.2,0.8c-0.1,0.5-0.4,1.6-0.4,2.1l-0.7,0.8l-0.9-0.1c0.3-2.7,1.5-6.8,0-9.1c-8-0.5-17.1,0.6-24.5-0.6
		C35.3,23.5,70.8,24.6,71.5,24.2z"/>
	<path class="st5" d="M102.3,27.7h-0.8c-0.1-0.5,0.5-2.7-0.4-2.7c-0.6,0.3-4.6-0.6-4.6,0.6C93,42.8,107,46,94.2,45.1
		c-2-3.3-4.1-5.5-0.4-8.8c-4.4,1.1-7.1,1-7.3-4.3c0-0.3,0.1-0.6,0.4-0.8c2.8-2.2,2.3-2.6-1.4-1.1c-2.5,0.4-4.2-2-4.4-4.4
		c0-0.3-0.2-0.6-0.5-0.6C80,25,77.5,24.6,78,25.6c3.7,4.6,15.1,18.1,14.9,19.6c-0.2,1,6.6,9.2,7.7,10.7l-0.7,0.3
		c-7.7-9.9-15.4-19.7-23.3-29.5c-2.9-4.2-6.9,0-8.7,2.9l-1.3-1.5c-1.4-1.6-0.2-2.7,0.4-1.5l0,0c0.2,3.3,2.8-1,3.5-1.6
		c-1.1-1-0.8-1.4,1.1-1.1l29.4-0.2C102.8,23.7,102.3,26.5,102.3,27.7z M91.4,34c1,0.2,3.2,0.7,3.8-0.6c0,0,0.6-7.8,0.6-7.8
		c0.6-1.1-12.7-0.2-12.9-0.5c-1.1,0.4,1.4,4,2.2,3.3c0.6-1.8,2.2-0.8,3.6-0.9c2-1.3,3.5,1.5,1.7,2.6c-0.2,0.2-0.3,0.5-0.3,0.8
		c0.5,3.1-3.6,0.2-2.4,2c0.4,0.6,3.5,5.8,3,1.6c0-0.3,0.2-0.6,0.5-0.6C91.3,34,91.3,34,91.4,34z M93,40c0.5,1.9,3.8,6.5,5.4,3.9l0,0
		c-0.2,0-2.7-9-3.3-6.3l0,0C95.6,40,94.1,39.2,93,40C93,39.9,93,39.9,93,40z"/>
	<path class="st6" d="M70.4,25.3c-0.7,0.7-3.4,4.9-3.5,1.6c0-0.3-0.1-0.5-0.4-0.6c-0.9-0.1-0.9,0.6,0,2l-1,0.5
		c-4-3.3-3.4-4.4,1.8-3.4C68.3,25.4,69.1,24.5,70.4,25.3z"/>
	<path class="st7" d="M99.8,56.2c2.6,2,2,5.8,0.9,8.5c-13-17-20.1-28-27.9-37.5c0.2-0.8-0.1-1.1-0.8-1.2l-1.2,0.5
		c1.6-2.2,4.1-2,5.7,0.3C84.4,36.5,92.1,46.3,99.8,56.2z"/>
	<path class="st8" d="M94.2,45.2h-1.5c0.3-1.7-12.1-15.1-14.9-20.1c0,0,0.1,0,0.1-0.1c4.7-1.4,2.1,4.2,6.4,5.1c3-0.4,6.4-2.3,2.4,1
		c-0.3,0.2-0.4,0.5-0.4,0.8c0.2,4.6,2.5,6,6.7,4.3c0.3-0.1,0.6-0.1,0.5,0.3C89.8,39.4,92.5,42.2,94.2,45.2z"/>
	<path class="st8" d="M91.4,34c-0.4-0.1-0.8,0.3-0.7,0.6c0.4,4.2-2.6-1-3-1.6c-1-1.8,2.8,1.1,2.4-2c0-0.3,0.1-0.6,0.3-0.8
		c0.3-0.3,1-0.7,0.8-1.2c-0.1-2.5-1.8-1.4-3.4-1.4c-1.7-1.1-2.1,0.7-3.3,1c0,0,0,0-0.1,0c-0.7-0.8-2.4-2.3-1.8-3.4
		c0.3,0.3,13.5-0.6,13,0.5l0,0L95,33.5C94.6,34.7,92.6,34.2,91.4,34z"/>
	<path class="st2" d="M101.5,27.7c-0.4,0.3,0.6,28.9-0.5,28.6c-1.6-1.3-8.3-9.9-8.2-11c0.7-0.3,7.8,0.7,7.2-0.6
		c-3.2-5.8-5.6-13.5-2.8-19.5c0.4,0.2,4.7-0.5,4.5,0.5l0,0L101.5,27.7z"/>
	<path class="st9" d="M62,32.7h-0.7c0.1-0.5,0.6-1.7,0.1-2.1c-0.8-0.8,0.1-1.6,0.2-2.5c0.1-0.4-0.8-2.9,0.1-2.9c1,0,0.3,1.5,0.8,1.8
		c0.4,0.5,2.5,1.6,2.4,2.4C64.6,31.7,62,31.7,62,32.7z M62.1,29.9c-0.4,2.4,3.7-2.4,0.6-0.7C62.3,29.3,62.1,29.6,62.1,29.9z"/>
	<path class="st6" d="M72,26c0.1,1.3-2.7,2.2-1.7,3c0.9-0.3,1.3-1.7,2.5-1.8l0.5,0.5C72.1,28.1,72,28.5,73,29
		c-1.1,0.3-2.5,0.6-3,1.8c-0.1,0.2-0.5,0.2-0.6,0L68,29.5C68.6,27.8,70.2,26.6,72,26z"/>
	<path class="st10" d="M72,26c0.7,0,0.9,0.4,0.8,1.2c-1.2,0.1-1.6,1.5-2.5,1.8C69.2,28.3,72.1,27.3,72,26z"/>
	<path class="st11" d="M73.2,27.7C80.4,36.9,88,48,100.7,64.8c1.3,5.1-7-9.7-8.2-9.2c-0.4-0.7-1.2-2.3-2-2.6c-0.5-0.5-3.6-8.3-4-4.1
		c0.3,0.5,0,4.1-0.3,3c-0.1-0.7,0.3-5.1-0.1-5.6c0,0-5.4-7.2-5.4-7.2c-1.6-2-1.8-1.9-0.8,0.3c0.5,2.7,0.5,5.4,0.1,8l-3.4,2.7
		c-0.2,1.2,3.2-0.1,3.8-0.7l0.8,0.2c-2.4,2-5.7,2-8.4,3c-1.9,1.6,13.1-1.4,9.1-3.1c-0.1-0.6,0.2-1.7-0.5-1.9c-0.6-0.4-0.6-0.7,0-1
		c0.8-0.1,0.2-3.8,0.4-4.3c0-0.5,0.1-0.5,0.2,0c0.7,2,0.1,4,0.3,6c0,0,1.9,3.5,1.9,3.5L84.1,52c-8.1,2.8-17.7,5-25.4,0l1.2-1.2
		l0.8,0.2c0.9,1,2.1,1.6,3.5,1.7l1-0.5c4.7,3.1,11.2-2.1,14.5-5.8c-0.1-6-0.3-10.8-5-15.2c0,0-0.7-1.5-0.7-1.5
		C73.3,29.1,71.1,28.3,73.2,27.7z"/>
	<path class="st4" d="M101.5,27.7h0.8l0.2,59.2l-1.2,0.2c-1.7,1.9-6.1,3.8-6.5,6.5c-1.6,0.6-2.9,1.5-4,2.8c3.2-7,13.5-8,10-17.5
		c0.9-1.5,1.4-3.8,0.2-5.4c0,0-11.3-10.7-11.3-10.7c1.4-1,5.3-2.3,1.8-3.4c0,0-2.8-2.2-2.8-2.2l0.3-0.5c0.3,0.4,1,0.7,1.2,0
		c0-0.1,0.4-3.7,0.4-3.8l0.9,0.5c-0.3,0-0.6,0-0.6,0.4c0,0,0,2.7,0,2.7c0.4,1.9,2,2.3,1.8-1.1l1.2,0.7c-0.9,2.3-0.1,3.4,2.3,3.5
		c0.2,0.3,6,9.2,4.7,5c1-2.3,1.1-4.6,0.5-7c0.4-0.6,0.3-1.1-0.2-1.5c0.2,0,0.4,0,0.4-0.3C101.6,55.8,101.5,27.7,101.5,27.7z"/>
	<path class="st2" d="M66.5,28.2c1.5,1.5,3.3,5.3,5.8,4.1c0.6-0.7,1.4-1.1,2.4-1.2c4.8,4.5,4.9,9.2,5,15.2
		c-8.7,10.8-19.5,7.8-19-6.4c0.5,0,2.4,0,2.9,0c2.3,1.5,0.8,7.7,5,4.7c2.3-1.1,2.4-1.3,0.2-0.7c-2.3-1.5-1.4-0.4-2.1,0.5
		C64,45.2,68.9,34,61.8,34l-0.6-0.5l0.1-0.8c2.6,0.1,4.4-1.2,4.2-4L66.5,28.2z M75.8,33.4c0.2-1-4.4,0.5-0.4,0.3
		C75.6,33.7,75.7,33.6,75.8,33.4z M73.2,34.8c1,0.1,0.6,1.1,1.2,1.2c4.5-0.2-4.1-3.1-5.3-0.7C67.9,37.1,72.6,34.1,73.2,34.8z
		 M71.2,40l0.2-0.2c4.5,0.2,5.3-0.7,2.6-2.8h-0.4c0-0.1,0-0.2,0-0.3c-1.4-1-4.9,0.4-4.5,2.2c0,0,2.8,3.2,2.8,3.2
		c0.2,0.2,0.2,0.2,0.1-0.1L71.2,40z M69.5,49c3.7-3-3-2.1-4.3-2.2C61.8,47.2,67.5,51.8,69.5,49z"/>
	<path class="st12" d="M62.6,29.2c3.2-1.6-1,3.1-0.6,0.7C62.1,29.6,62.3,29.3,62.6,29.2z"/>
	<path class="st13" d="M73,29l1,0.8c-0.8,0.9-3,3.3-3.7,1.8c-0.1-0.9,1.4-1.3,1.6-2.2L73,29z"/>
	<path class="st10" d="M72,29.3c-0.2,0.9-1.7,1.4-1.6,2.2c0.7,1.6,2.8-0.8,3.7-1.8l0.7,1.5c-1.5-0.1-2,1.4-3.2,1.5
		c-1.7-0.4-2.9-1.4-3.7-2.9l0.2-0.2c0.3,0.2,1.4,1.9,1.9,1.4c0,0,0-0.1,0.1-0.1C70.4,30,71.1,29.5,72,29.3z"/>
	<path class="st12" d="M75.4,33.7c-4,0.2,0.5-1.3,0.4-0.3C75.7,33.6,75.6,33.7,75.4,33.7z"/>
	<path class="st6" d="M61.2,33.5l0.6,0.5c0,0.3-0.1,0.6,0.4,0.7c1.8,0.2,2.5,0.9,2.1,2.2c-1.1-1.7-2.1,0-3.6-0.2l-0.2-2.5L61.2,33.5
		z"/>
	<path class="st14" d="M61.8,34c7.1,0,2.2,11.2,5.1,10.5c0.8-0.7-0.4-2.2,2.1-0.5l-0.2,0.7c-4.2,2.8-2.7-2.8-4.8-4.5
		c1-1.4,1.1-2,0.2-1.7c-0.5,0.2-0.1,1.1-0.5,1.5h-2.2c0-2.7-0.2-2.7-0.7,0c-0.4,4.8,1.1,8.9,4.5,12.2l-1,0.5c-0.8-1.5-2-2-3.5-1.7
		L60,50.7c2.4-1.9,0.5-4.4,0-6.6c-0.1-0.5-0.3-0.6-0.6-0.1c-1.1,1.1-3.9,12-0.6,7.9l0.5,0.5c-1,4.9,24.3,4.2,24.9-0.3l0.1-0.2
		c0.6,0.9,1.5,0.9,2.2,1.6l2.5,3.1l-0.3,0.5c-1.7-1.5-4.5-6.2-6-1.5c-0.5,2.2,4.1,0.7,4,2.3c-0.7,0.5-2.7-0.5-2.9,0.2
		c0.3,1.6,2.4-0.1,2.4,1.5c-4,1.6-2.6-2.5-4-2.2l-0.3-1.6c-0.9-1-1.8,0.9-0.2,1.7c-2.8,0.1-0.6,2.3-2.2,3.8c0-0.9-1.8-2.7-1.7-1.8
		c0.4,0.8,0.3,1.3-0.4,1.7c-0.1-2.3-2.9-3.1-3.7-1.2c0.1,0.7,0.5,3.2-0.9,2.1c-0.3-2.8-0.7-2.7-1.2,0.3c-0.2,0-0.4-0.2-0.6-0.4
		c1.1-4.1-4.5-3.8-3-0.3l-0.8,0.5c-3.2-0.8-3.9-0.1-2.2,2c-1.4,2.1-10.1-1.4-12-2.3l0.3-0.8c2.7,1.6,4.5,0.1,0.6-0.7
		c-0.5-1-1.1-1.1-1.9-0.3c-0.4,0.2-1.7,0.9-1.8,1.4l-0.7-0.8c0.4-0.5,1.1-1,1-1.7c-0.7-9.7,2.3-17.9,9.1-24.8l0.9,0.1l0.2,2.5
		c1,1.2,2.2,1.2,3.6,0.2c0.6-2.4-1.4-1.5-2.5-2.6l0,0L61.8,34z M56,55.7c-4,3-1.6,3.4,0.9,5.2c0.1,0.5-0.2,1.5,0.4,1.7
		c0.4,0,3.4,1.8,3.6,0.8l0,0c0.3-1.9,1.6-1.6,3.1-1.9c1.5-0.8,0.3-3.2-1.3-2.9c-0.3,0-0.6-0.2-0.7-0.4c-0.4-1.1,0.3-4.2-2.1-3
		C58.4,54.7,57.1,54.9,56,55.7z M79.9,56.6c-0.1-0.4-0.5-0.7-0.9-0.7c-0.7,0.1-2.3,0-2.2,1.1l0,0c0,0.6,0.3,1.3,1,1.3
		c0.7-0.1,2.3,0,2.2-1.1l0,0L79.9,56.6z M66.8,56.7c-0.5-0.3-1.2-0.1-1.6,0.3C61.3,60.6,71.6,59.2,66.8,56.7z M73.4,57.2
		c-0.6-0.2-1.9-0.8-2.3,0.1C69.8,60.9,76.1,59,73.4,57.2z M75.4,57.9c0.6,0.1,1.1-0.9,0.3-1C74.8,56.6,74.6,57.8,75.4,57.9z
		 M67.2,60.2c-0.1-0.6-1.9,0-1.7,0.5C65.6,61.3,67.5,60.8,67.2,60.2z M62.3,62.8c-0.7,0-0.7,1,0,1.1C63.6,64.4,63,62.7,62.3,62.8z"
		/>
	<path class="st11" d="M73.8,34.7c-1.4,0.2-2.7,0.1-4.2,1.1C67.2,35.9,72.1,32.9,73.8,34.7z"/>
	<path class="st15" d="M73.2,34.8c2.1-0.1,4.1,1,1.2,1.1C73.7,35.8,74.3,34.9,73.2,34.8z"/>
	<path class="st2" d="M26.7,39.9c1.7,3.2-6,0.4-4.3-3.3c0-0.2,0.3-0.3,0.5-0.3C24.6,37.5,25.9,38.6,26.7,39.9z"/>
	<path class="st12" d="M64.3,37c-1.3,1.1-2.5,1-3.6-0.2C62.1,36.9,63.2,35.3,64.3,37z"/>
	<path class="st10" d="M73.8,37c-0.2,0.4-1.5,1.2-0.8,1.7c1.6,1.2,2.3,0.7,1.2-1.6c2.7,2.1,1.8,3-2.6,2.8c-0.4-0.4,0.4-1.7-0.3-1.7
		c-1.2,0.2-1.2,0.8,0.1,2l0.9,2c0.3,0.9-2.8-3.1-2.9-3.1c-0.4-1.8,3.1-3.3,4.5-2.2C73.8,36.7,73.8,36.8,73.8,37z"/>
	<path class="st16" d="M73.8,37h0.4c1.6,2.7-0.8,2.8-1.3,1.1c0,0,0,0,0-0.1L73.8,37z"/>
	<path class="st8" d="M98.1,44.4c-2.3,1-5.2-2.9-4.9-4.8c2.7,0.3,1.3-1.3,2.1-2.6c0.2,0,0.5,0,0.5,0.2
		C95.7,37.5,99.1,44.5,98.1,44.4L98.1,44.4z"/>
	<path class="st12" d="M80.8,39.2L80,39.5C78.9,37.3,79.2,37.2,80.8,39.2z"/>
	<path class="st17" d="M61.5,40h-0.7C61.3,37.2,61.5,37.2,61.5,40z"/>
	<path class="st16" d="M71.5,39.8L71.2,40c-1.3-1.1-1.3-1.8-0.1-2C71.7,38.2,71.2,39.4,71.5,39.8z"/>
	<path class="st17" d="M64,40.2L63.7,40c0.4-0.5,0-1.2,0.5-1.5C65,38.3,65,38.9,64,40.2z"/>
	<path class="st16" d="M80.8,39.2l5.4,7.2c0.5,0.4,0,5,0.1,5.6c0,0.5,0.1,0.5,0.2,0c0.6-1.2-0.2-2.8,0.2-3.9c1.3-1.7,3.3,4.5,3.9,5
		c-0.2,0.4-0.1,4.3-0.8,4.2c-0.7,0-2.8-3.1-3.2-3.6c-0.7-0.7-1.7-0.7-2.2-1.5c-0.1-0.2-1.9-3.5-1.9-3.5c-0.2-2,0.4-4.1-0.3-6
		c-0.1-0.6-0.2-0.2-0.2,0.1c0,0.2,0,3.7,0,3.8c-0.2,0.7-1.6,0.8-0.3,1.6c0.6,0.4,0.4,1.3,0.4,1.9c-0.4,0-1.2-0.1-1.6-0.2
		c0.2-1.1,0-1.8-0.4-2c0.4-2.6,0.4-5.2-0.1-8L80.8,39.2z"/>
	<path class="st4" d="M68.8,44.7L69,44C71.2,43.4,71.1,43.6,68.8,44.7z"/>
	<path class="st7" d="M60,50.7c-5.2,6.9-2.1-4.3-0.7-6.6c0.3-0.5,0.4-0.5,0.6,0.1C60.5,46.3,62.4,48.9,60,50.7z"/>
	<path class="st4" d="M69.5,49c1.5-2.8-6.8-0.2-2.6-0.1C67.7,48.8,68.6,48.9,69.5,49c-2,2.8-7.6-1.7-4.3-2.2
		C66.5,46.9,73.2,46,69.5,49z"/>
	<path class="st9" d="M80.1,47.5c0.5,0.2,0.6,0.9,0.4,2c-0.6,0.6-4.1,1.8-3.8,0.7C76.7,50.2,80.1,47.5,80.1,47.5z"/>
	<path class="st18" d="M69.5,49c-0.9-0.1-1.8-0.2-2.7-0.1C62.7,48.7,71,46.2,69.5,49z"/>
	<path class="st3" d="M32.6,58l-6.3,8c-0.1,0.2-0.4,0.2-0.5,0.1c-0.1-0.4-7.4-8.4-6.4-8.8c0.3,0,6.5-8.6,6.9-7.5c0,0,0,0,0.1,0
		C26.6,50.5,33.8,57.2,32.6,58z"/>
	<path class="st18" d="M81.2,49.7c6.6,0.9-10.1,5-8.3,3.1C75.7,51.8,78.9,51.6,81.2,49.7z"/>
	<path class="st18" d="M64.2,52.7c-1.4-0.1-2.6-0.7-3.5-1.7C62.3,50.7,63.5,51.2,64.2,52.7z"/>
	<path class="st8" d="M84.2,52.2c-0.2,4.4-26.4,5.1-24.9,0.3C67.4,56.9,76.2,54.5,84.2,52.2z"/>
	<path class="st19" d="M45,65.7l0.6,1C41.3,68.9,37.8,72,35,76l-3.7,3.5c-1.7,0.5-3.1,1.5-4.2,3l-0.3-0.7l0.5-0.8
		c0.2-0.1,5.5-4.2,3.5-4.1l1-1c0.8,0.4,1.3,0.1,1.5-0.8c2.3-2.3,6.4-3.9,7-7.2c-0.9-2.4-2.6-3.4-5.3-3.2c-1.2-0.7-2-2.3-3.5-2.5
		c0.1-0.8,0.5-1.3,1.3-1.5c0.9,1.7,3-1,4.4,0.5c0.3,0.2,0.6,0.2,0.9,0.1c2.3-0.7,1.1-2.4,1.1-4.1c0.9-1.5,0.5-2.6-1.2-3.2
		c-1.3-0.1-2.5,1.2-3.7,0.1c-0.7-0.5-1.9-0.1-1.2,0.8c-2-3,0.7-1.5,3-1.4c5-1.7,4.1,3.1,4.3,6.2c-1.5,4.1,2.9,0.4,3.3,2.1
		c0.2,2.1-3.1,2.3-3.6,3.6C41.5,69.9,42.1,66.4,45,65.7z M34.8,63c0.3,0.7,1,0.4,0.9-0.3C35.4,61.2,34.5,62.3,34.8,63z M37.9,62.5
		c-0.4-0.9-0.8-0.2-0.6,0.5c1.6,3.9,6.2-0.6,4-0.5C40.3,62.8,38.6,63.6,37.9,62.5z"/>
	<path class="st8" d="M88.8,57.2l2.8,2.2c-1.3,1.3-1.4-0.1-2.5-0.4c0,0-1.9,0-1.9,0c-0.8-3.5-4.5-0.5-4.5-3.4
		c0.3-1.1,1.6-2.7,2.6-1.9C85.3,53.7,88.8,57.2,88.8,57.2z"/>
	<path class="st16" d="M91.5,53.5c2,2,0.9,7.3-0.7,3.1C91,56.1,90.3,53.1,91.5,53.5z"/>
	<path class="st20" d="M32.8,60.7c0-0.2,2.5-1.3,2.6-1.4c0.7-0.5,3.3,1.5,3.3,0.2c-0.3-0.6-1.7-1.9-1.1-2.7c1.7-2.5-0.7-1-2.4-0.7
		c-1.6,0.2-3.8-2.5-1-1.7c1.3,1.1,2.4-0.2,3.7-0.1c2.5,0.7,1.2,2.3,1.2,4.1c1.1,1.5-0.2,3.7-2,3.1c-1.3-1.1-2.6,0.2-3.9,0.1
		C33,61.2,32.9,61,32.8,60.7z"/>
	<path class="st21" d="M33,55c1.9,2.4,6.6-1.8,4.6,1.6c-0.7,0.7,0.9,2.1,1.1,2.7c0.3,1.3-2.7-0.6-3.3-0.2c0,0-2.4,1.4-2.4,1.4
		C34.6,57.6,35.1,57.9,33,55z"/>
	<path class="st22" d="M59.8,55.3L59.5,56c-1.1-0.3-2.1-0.1-3,0.5L56,55.7C57.1,54.9,58.4,54.7,59.8,55.3z"/>
	<path class="st8" d="M56,55.7c1,2.1,3.3,1.7,3.8-0.4c3.1-1.5,0.9,3.2,2.8,3.4c1.7-0.3,2.8,2.2,1.3,2.9c0,0-2,0.3-2,0.3
		c-1.1,0.1-0.7,2.1-1.7,1.9c-0.1,0-3-1.1-3.1-1.1c-0.8-0.6,0.3-2.1-1.1-2.3C53.2,59.3,53.2,57.8,56,55.7z M59.2,61.2L60,61
		c1.8,1.2,1.1-1.8,0.9-2.5C58.2,56.2,56.8,61.5,59.2,61.2z"/>
	<path class="st22" d="M82.2,57.5h-0.5c-1.4-0.7-0.9-2.5,0.1-1.8C81.8,55.8,82.2,57.4,82.2,57.5z"/>
	<path class="st11" d="M59.5,56c-0.7,1.3-1.7,1.5-3,0.5C57.3,55.9,58.3,55.7,59.5,56z"/>
	<path class="st8" d="M77.5,56.1c1.1-0.2,2.5-0.6,2.5,1.1c0.3,1.1-1.6,1-2.2,1.1C76.8,58.5,76.3,56.3,77.5,56.1z"/>
	<path class="st23" d="M100.5,56c0.7,0.3,1.3,1,0.7,1.8l-1.4-1.5L100.5,56z"/>
	<path class="st17" d="M93.8,56.2l2.3,3.5C93.7,59.6,92.9,58.5,93.8,56.2z"/>
	<path class="st8" d="M66.8,56.7c4.9,2.6-5.5,3.9-1.5,0.3C65.6,56.6,66.3,56.4,66.8,56.7z"/>
	<path class="st24" d="M74,57.9c0.4,1.7-4.1,2.1-2.9-0.7C71.7,56.1,73.7,56.9,74,57.9z"/>
	<path class="st22" d="M74.9,57.3c0.1-0.5,1.4-0.6,1.2,0.2C76,58.1,74.8,58.1,74.9,57.3C74.9,57.4,74.9,57.3,74.9,57.3z"/>
	<path class="st8" d="M81.8,57.5c2.5-0.4-0.1,3.7,5,2.2c1.7,1.4-0.4,2.4-1.6,3c-1.4,0.8-1.3-1-1.9-1.6c-3.4-1.1-1.9,0.7-2.5,2.4
		c-0.7,0.5-2.6,1.1-2.8-0.1c0.2-2.4-4.3-2.3-3.3,1.3c-6.4,1.5-2.2-2.8-6.5-3.1c-1.6-2.8,3.6-4,3-0.7c-0.3,1.3,0.9,1.4,1.8,1.1
		c1.4,1.1,1-1.5,0.9-2.1c0.7-2,3.6-1,3.7,1.2c1.6,1.4,3.4-0.8,2.7-2.4C80.1,57.8,81,57.7,81.8,57.5z"/>
	<path class="st22" d="M86.7,58l0.5,1l-0.5,0.8h-0.5c0-1.5-2.1,0.2-2.4-1.5C84.3,57.6,85.8,58.5,86.7,58z"/>
	<path class="st19" d="M60,61c-0.6-2.8-0.8-2.8-0.8,0.2c-1.4,0.5-2.4-3.4,1-3.2C61.4,58,61.9,62.4,60,61z"/>
	<path class="st22" d="M79.6,61.2c-0.7,0.5-1.4,0.4-2.1-0.1c0.7-0.4,0.8-0.9,0.4-1.7C77.7,58.5,79.6,60.2,79.6,61.2z"/>
	<path class="st22" d="M60,61l-0.8,0.2C59.2,58.2,59.5,58.2,60,61z"/>
	<path class="st23" d="M87.2,59l1.8,0.1c1.1,0.3,1.2,1.7,2.5,0.4l1,0.5c-5.5,3.7-11.5,5.3-18,4.9c-0.9-3.7,3.5-3.7,3.3-1.3
		c0.2,1.3,2.1,0.6,2.8,0.1c0.5-1.7-0.6-3.5,2.5-2.4c0.7,0.6,0.4,2.4,1.9,1.6c1.2-0.6,3.2-1.5,1.6-3L87.2,59z M88.2,60.2
		c-0.6,0.6,0.6,0.9,1,0.5C90.1,60,88.5,59.7,88.2,60.2z M82.3,63c2.3,0.2-0.3-2-0.5-0.6C81.8,62.7,82,63,82.3,63z"/>
	<path class="st25" d="M53.2,61.2c-0.7,0-1.1-0.4-1.3-1c1.4-1.4,1.5,0.6,2.6,0.6c0.6-0.1,1.1,0.1,1.5,0.6
		C56.6,62.5,53.6,61.6,53.2,61.2z"/>
	<path class="st22" d="M89,60c1,0.2-0.3,1.1-0.8,0.8C87.3,60.4,88.6,59.8,89,60z"/>
	<path class="st22" d="M66.2,60c1.1-0.3,1.4,0.6,0.3,1C65.3,61.3,65,60.4,66.2,60z"/>
	<path class="st26" d="M73,62l-1.2,0.3C72.3,59.3,72.7,59.1,73,62z"/>
	<path class="st22" d="M92.5,60c1.9,0.4-2.3,2.5-2.8,2.9c-6,2.9-13.1,3.9-19.8,4.1c-0.5,0-1,0.4-1.4,0.7c-0.7-0.5-1.2-0.5-1.5,0.1
		c-1.3-0.1-0.8-1.2-1.5-1.5c-5.2-0.8-11-1.4-15.2-4.7l0.3-0.5c3,1,11.9,5.6,14.5,3.3c1.7,0.4,2.4-0.2,2.2-2l0.8-0.5
		c2.8,0.1,1.8,1.8,2.8,3.1C78.5,65.6,86,64.4,92.5,60z"/>
	<path class="st19" d="M52,60.2c0.1,0.6,0.6,0.9,1.3,1L53,62l-2.5-1L52,60.2z"/>
	<path class="st4" d="M49.5,60.7c1.4,1.7,3.6,2.8,5.7,3.3c0,0.2-0.2,2.9-0.2,3c-0.9,0.6-1.2,1.4-0.7,2.5l-1.1,4.2L52,74
		c-1-3.5-4.7-5.4-7.1-8.3L49.5,60.7z"/>
	<path class="st22" d="M35,62.1c0.4-0.6,1.1,1.1,0.4,1.3C34.8,63.5,34.5,62.5,35,62.1z"/>
	<path class="st20" d="M38.6,63c1.2,0.2,2.4-0.7,3.4-0.4l0,0c0.3,0.8-2.9,3.8-4.6,0.4c-0.4-0.5,0.3-1.5,0.6-0.5
		C38,62.8,38.3,63,38.6,63z"/>
	<path class="st8" d="M67.2,62.2c0.2,1.8-0.5,2.5-2.2,2C63.3,62.1,64.1,61.4,67.2,62.2z"/>
	<path class="st22" d="M81.8,62.4c0.2-1.4,2.8,0.8,0.5,0.6C82,63,81.8,62.7,81.8,62.4C81.8,62.5,81.8,62.4,81.8,62.4z"/>
	<path class="st20" d="M31.5,62.2c1,0.2,1.7,0.7,2.2,1.5L33,64.3c-1-0.1-1.7-0.5-2.3-1.3L31.5,62.2z"/>
	<path class="st14" d="M89.7,62.8l11.2,10.8c1.2,1.6,0.7,3.9-0.2,5.4c-2-1.8-10.3-10.7-12.2-10.8c-0.6-0.2-3-2.7-3.5-3.2L89.7,62.8z
		"/>
	<path class="st22" d="M63,63.4c0.4,1-1.3,0.6-1.2-0.2C62,62.5,62.9,62.8,63,63.4z"/>
	<path class="st15" d="M30.7,63c0.6,0.7,1.3,1.2,2.3,1.3c0.3,0.5,0.2,0.9-0.3,1.2c-1-0.8-1.6-0.6-1.8,0.5c-2.2,1.7,0.3,2-0.3,3
		c-0.3,0.2-0.8,0.3-0.6,0.8c0.5,0.8-0.8,1.2-0.7,1.8c0.3,0.9,1.6-0.6,2-0.8c0.6-0.5-0.9-1.3,0.1-1.8l0,0c1.6-1-1-1.1-0.3-2.5L33,68
		c0.2,2.4,1.5,1.4,0.8,0.3c-0.7-0.4-0.6-1.7-0.8-2.3l1.5-0.2c2,0.9,2.7,2.4,2.1,4.5c-0.1,0.3-0.2,0.3-0.4,0c-1-2.2-1.3-0.3-2.1,0.8
		c0,0-1.8,2.1-1.8,2.1c-0.5-0.6-0.4-1.2,0.2-1.7c0.6-0.6-0.9-0.7-0.7,0c-0.4,1.4-3.1,1.3,0.6,2c0.2,0.7,0.7,1.1,1.5,1l-0.7,0.7
		c-0.9-0.8-1.4-0.5-1.5,0.8c-4.6,4.5-1.4-2.1-2.9-4C27.8,68.9,29.9,65.8,30.7,63z M31,75.4c0.5-0.8-0.6-1.7-1.1-0.9
		C29.6,75.4,30.4,76.3,31,75.4L31,75.4z"/>
	<path class="st12" d="M33.7,63.7l1.3,1l-0.5,1L33,66l-0.3-0.5c0.5-0.4,0.6-0.8,0.3-1.2L33.7,63.7z"/>
	<path class="st14" d="M55.2,64c3.3,1.1,6.7,1.9,10.2,2.2c0.7,0.4,0.3,1.5,1.5,1.5l-2.4,7.6c0.8,2.7,3.1-5.1,3.9-7.8
		c4.7-1.7,10.4-0.7,15.3-2.7l0.8,0.2c-0.2,0.3-0.3,0.8-0.8,0.8c-1.3-0.3-2.5,1-3.4,1.8c0-2.3-2.2,0.4-2.5,1l-1.5,0.8
		c-0.9-0.4-7.1-2.1-5.3,1c-3,2.5-2.4,9.2,1.9,4.8l0.1,0.2l-1,7.1c-0.4,0.1-16.7-3-16.5-1.9c-0.2-0.5-0.8-2.3-1.3-2.6
		c-0.2-1.3-0.9-2.4-2-3.2L52,74c0.8-0.5,4.1,0.6,5,0.8c1,0.4,1.4-3.3,1.7-3.7c-0.1-1.9-2.9-2.3-4.3-1.5c-0.6-1.2-0.4-2,0.6-2.6
		c3.3,4.1,7.5,0.9,0.1-0.3L55.2,64z M60.8,76c1.8,0.9,2.9,0.4,3.2-1.4c0.2-1.3-2.4,1-3,1.2c0.6-2.3,1-6.5,3-7.3
		c1.2,1.6,2.4,0.4,1.3-0.4c-0.9-0.5-2.3-0.7-2.9,0.3C62,68.8,58.3,76.8,60.8,76z M63.8,72c-1.1,1.8,2.2,1.1,0.7,0.1
		c0-0.4,0.9-1.7,0.1-1.9C63.6,69.9,63.4,70.6,63.8,72z"/>
	<path class="st2" d="M35,64.8c9.3,0.5,3.9,7.2-1,9.7c-0.8,0-1.5-0.4-1.5-1.2l1.8-2.1c0.8-1.1,1-2.9,2.1-0.8c0.1,0.3,0.3,0.3,0.4,0
		c0.6-2.1-0.1-3.6-2.1-4.5L35,64.8z"/>
	<path class="st2" d="M32.7,65.5c0.4,0.5,0.6,1.9,0.3,2.5l-2-1.5C30.9,65.3,31.5,64.4,32.7,65.5z"/>
	<path class="st16" d="M83.8,65H85l2.8,2.8l-1.5,0.1C85.9,67.4,84.5,65.1,83.8,65z"/>
	<path class="st17" d="M84.5,65.3l1.8,2.5C85.6,69.1,84.2,69,83,69c-0.2-0.9-0.7-1.6-1.5-2C82.3,65.8,84.2,66.8,84.5,65.3z"/>
	<path class="st13" d="M31,66c0.3,0.7-0.3,1.4,0.5,1.9c1.3,0.6-0.7,1.1-0.4,1.8l0,0c0.2,0.3,0.6,0.7,0.2,1.1
		c-0.5,0.5-2.6,2.1-1.8,0.3c1.1-0.6-0.1-1.8,1.1-2.1C30.8,67.9,29,67.6,31,66z"/>
	<path class="st2" d="M55,66.7c7.6,1.1,3.1,4.4-0.1,0.3L55,66.7z"/>
	<path class="st25" d="M45.6,66.7c3.3,2.2,5.7,4.7,6.7,8.1c-0.8,0.4-1.8,0.7-2.3,1.6c-0.2,0.5-1.1,0.8-1,0.1c4-2.7,0.7-6.1-2-8.1
		c-3.2-3.3-9.7,6.3-12.1,7.6C37.7,72,41.3,68.9,45.6,66.7z"/>
	<path class="st12" d="M80.2,68l-1.5,2H78l-0.2-1C78,68.4,80.3,65.6,80.2,68z"/>
	<path class="st16" d="M81.5,67c0.8,0.4,1.3,1.1,1.5,2h-1l-1.2,0.7c0.1-1.8-0.9,0.6-1.7,0.5L78.8,70C79.4,69.2,80.7,67.5,81.5,67z"
		/>
	<path class="st8" d="M61,75.7L60.8,76c-2.5,0.8,1.3-7.1,1.6-7.8c0.4-1.1,3.3-0.8,3.3,0.4c-0.1,0.8-0.7,0.7-1.7-0.3
		C62.3,68.6,61.4,74,61,75.7z"/>
	<path class="st8" d="M68.5,67.7c-0.9,2.6-2.9,10.4-4,7.8l0,0C65.2,74.8,66.4,65.5,68.5,67.7z"/>
	<path class="st17" d="M33.2,67.5c0.1,0.6,0.9,0.9,0.7,1.5c-0.4,0.9-0.8,0.6-1-1L33.2,67.5z"/>
	<path class="st14" d="M52,75v0.7c-1.3,0.8-3.2,2.7-4.3,3.7c2.3-2.5-2.3-3.6,1.1-6.1c0.1-0.6-0.5-0.9-1.5-0.7
		c-1-0.2-0.8-2.2-1.7-2.2c-1,0.1-1.4,1.9-2.7,0.9c-0.3-0.2-0.6-0.1-0.8,0.1c-0.6,0.4-0.1,2-1,2.1c-1.9,0-2.3,0.6-1.2,1.8
		c0.5,1.3-1.5,2.9,1.1,2.7c1.4,0.8,0.8,3.6,2.8,0.8c0.1-0.2,0.4-0.3,0.7-0.2c2.4,1.4,0.7-1.5,3.2-1.5C33,96.9,44,104.5,34,94.2
		c0.1-0.5,4-1.4,3.1-2.2c-1.5-1.6,3.5-4.3-1.2-3.8c-0.7,0-0.4-3.1-1.7-2.1l0,0c-0.5,0.5-1,1.4-1.8,0.7c-2-1.5-0.7,2.7-2.6,2.8
		c-3.9-2-2-8.4,1.5-10.3c2.3-2.3,9-8.4,11.5-10.7c2.9-3.8,11.3,4.6,6.8,7.1c-1.1,0.6-0.3,1.8,0.4,0.6C50.5,75.8,51.2,75.3,52,75z
		 M37,76.4c-0.3,0.9,1.4,1.3,1.7,0.4c0.5-1.2,0.2-1.6-1.1-1.1C37.3,75.9,37.1,76.1,37,76.4z M32.3,83.6c0.1,0.6,0.3,0.7,0.7,0.2
		c-0.1-0.2,6.2-5.8,4.6-5.7c-1.2-0.1-2.4,0.4-2.6,1.7C34.6,82.2,31.9,79.9,32.3,83.6z M42,81.8c-0.1,0.2-5.4,4.7-4.7,5
		c1.9,1.1,2.1-1.3,3.2-2.2C41.9,84.7,43.6,81.1,42,81.8z M38.5,82.4c-0.7-1.2-3,0.1-2.3,1.3l0,0C36.9,84.9,39.2,83.6,38.5,82.4
		L38.5,82.4z M31.1,84.8c0.2-2.1-1.8-1.7-2-0.3C28.9,86.4,30.9,86.2,31.1,84.8z"/>
	<path class="st4" d="M86.2,67.8l1.5-0.1l0.8,0.5L88,69.7c-7.5,3.5-10.3,9.4-8.3,17.7c0.1,0.7,1,0.6,1.5,0.7l-1.8,2L78.8,90
		c0-0.6-0.4-1.4-0.8-1.8c-0.1-1.2-0.6-3.8-0.8-5c1-3.2,0.7-8.4-2.9-9.6l0,0c0,0.1-0.1,0.2-0.2,0.2L74,73.2l1.2-1.2
		c-0.5,0.9,0.6,1.2,1,1.5c0.5,0.5,2.8,4.6,2.6,1.5c0.5-0.4,1.1-1.2,1.3-1.8c0,0,4.2-4.2,4.2-4.2C85.1,69,85.8,68.5,86.2,67.8z"/>
	<path class="st17" d="M27.2,81l-0.5,0.8h-1.2c-0.3-3.8-0.4-7.5-0.3-11.3c0-0.8-0.9-2.7,1.1-2.4c0.3,0,0.5,0.3,0.5,0.6
		C26.8,70,26.4,81.1,27.2,81z"/>
	<path class="st22" d="M88.5,68.2c1.9,0.1,10.2,9,12.2,10.8c0.5,2.4,1.1,5.7-0.3,7.9c-3.3,2.4-6.2,5.1-9,8.1
		c-0.5,0.9-1.1,1.1-1.8,0.8c0.2-0.3,10.8-10.2,10.4-10.5c0,0,0-5,0-5c-2.3-3.9-6.5-6.9-9.9-10c-0.5-0.4-0.8-0.3-0.8,0.4
		C88.9,78,86,84.4,80.8,89.9c-0.6,0.5-0.3,1.2,0.2,1.4c-1.2,1-3.9,1.6-3.8,3.6c0.3,2.3,6.5,5.7,4.9,6.4
		C66.3,89.7,88.6,93.7,88.5,68.2z"/>
	<path class="st7" d="M53.2,73.7l1.1-4.2c1.4-0.8,4.2-0.4,4.3,1.5c0,0-1,3.2-1,3.2C57.4,75.4,53.8,73.6,53.2,73.7z"/>
	<path class="st2" d="M76.3,69.7L76,70.2c-1.5,0.8-3.2,1-5,0.5C69.2,67.7,75.4,69.3,76.3,69.7z"/>
	<path class="st16" d="M77.8,69l0.2,1l-2,0.2l0.3-0.5L77.8,69z"/>
	<path class="st15" d="M80.8,69.7c-0.7,0.3-0.9,0.7-0.5,1.3c-0.8,0.2-1.2,0-1.2-0.8C80,70.3,80.7,67.8,80.8,69.7z"/>
	<path class="st9" d="M82,69c-0.2,1-0.8,1.7-1.8,2C79.3,69.9,81.4,69.5,82,69z"/>
	<path class="st12" d="M82,69c0.5-0.1,1.7-0.1,2.2,0L80,73.2c0-0.1-0.2-1.1-0.2-1.2l0.5-1C81.2,70.7,81.8,70.1,82,69z"/>
	<path class="st7" d="M88,69.7c0.2,7.3-2.1,13.4-6.8,18.3c-0.5-0.1-1.4,0-1.5-0.7C77.8,79.1,80.5,73.2,88,69.7z"/>
	<path class="st22" d="M64.5,72h-0.7c-0.8-1.7,0.8-2.7,1-1.3l0,0L64.5,72z"/>
	<path class="st7" d="M78,70c0.3,0.9,0.9,1.6,1.8,2l0.2,1c-2-0.9-2.4-3.3-4.7-1c-2.2,1.4-2.1,5.7-5.6,4.6c-1.5-1.6,0-4.6,1.4-6
		C73.6,71.5,75.6,69.9,78,70z"/>
	<path class="st13" d="M78,70h0.8l0.3,0.3c0,0.7,0.4,1,1.2,0.8l-0.5,1C78.9,71.6,78.3,70.9,78,70z"/>
	<path class="st8" d="M48,76.7L47.7,77c-1.8-0.2-1.2,1.9-2.2,1.9c-2.3-1.8-2.8,3.5-3.9-0.5c-0.1-0.3-0.3-0.5-0.6-0.5
		c-2.6,0.1-0.6-1.4-1.1-2.7c-2-2.4,1.1-1.1,1.7-2.3l0,0c0.1-3.3,2.2-0.3,3.3-2.2c1.5-1.7,1.3,1.8,2.4,1.8C51.2,72.4,46,74.7,48,76.7
		z M46.1,75.1c-0.1-1-1.1-1.8-2.2-1.7c-1.1,0.1-2,1.1-1.9,2.1l0,0c0.1,1,1.1,1.8,2.2,1.7C45.3,77.1,46.2,76.1,46.1,75.1L46.1,75.1z"
		/>
	<path class="st14" d="M89.7,95.7c-1,0.9-6.1,5.5-7.2,6l-0.5-0.5c2.1-1.5-10.2-6-2.1-9.3c2,1.9-3.5,3.8,1.1,3.7c1,0.8,1,3.5,2.3,2
		c1.2-1.9,3,1.3,3.3-2.2c0-0.3,0.2-0.5,0.5-0.5c4,0.2-0.6-3.1,1.9-3c1.4,2.9,4.5-1,0.9-1c0,0-2.9-0.3-2.9-0.3
		c-0.7-0.2-0.2-2.5-1.5-1.8l0,0c-0.8,0.8-1.7,1-2.8,0.7c-0.2-0.1-0.5,0.1-0.5,0.3l0,0C82,90.5,81.6,91,81,91.2
		c-0.5-0.2-0.8-1.1-0.2-1.4c5.2-5.5,8.1-11.9,8.6-19.2c0-0.7,0.3-0.8,0.8-0.4c3.4,3.1,7.6,6.1,9.9,10c0,0,0,5,0,5
		C100.9,85.2,89.7,95.5,89.7,95.7z M91.7,75.5c-2,0.5,0.8,3.2,1.3,1.1c0.1-0.3,0.4-0.5,0.7-0.6c2.1-0.8-0.5-2.8-1.2-0.9
		C92.3,75.2,92,75.4,91.7,75.5z M94.6,76.8c-2.3-0.2,0.9,3.1,0.6,0.7C95.1,77.1,94.9,76.8,94.6,76.8z M92.7,80.8
		c0.6,4.1,1.1,0.4,2.7,0.5c0.4,0.1,1.4,0.9,1.6,0c0-0.9,2-4.7-0.6-2.9c-1.9,2.4-2.7,0.3-4.6-0.4c-2.4,1-2.3,1.8,0.4,2.2
		C92.5,80.3,92.7,80.5,92.7,80.8z M88.3,83.5c-1.1,0.7-3.2,1.4-2.3,3.2c0.1,0.2,0.5,0.4,0.6,0.1l4.6-4.6c1-2.1-2.5-1-2.5,0.6
		C88.7,83,88.5,83.3,88.3,83.5z M99.4,83.8c-0.1-1.6-2.3-1.5-2.4,0l0,0C97,85.4,99.4,85.4,99.4,83.8L99.4,83.8z M91.9,84.6
		c-0.4-0.6-1.2-0.7-1.8-0.3l0,0c-0.6,0.4-0.8,1.2-0.4,1.7l0,0c0.4,0.6,1.2,0.7,1.8,0.3l0,0C92.1,85.9,92.3,85.1,91.9,84.6L91.9,84.6
		z M95.1,84.5c-0.2,0.5-5.1,4.8-4.6,5.4c1.6,2.1,2.8-2.3,4.1-2.4C96.4,87.8,96.9,83.3,95.1,84.5z"/>
	<path class="st16" d="M32.5,73.2v0.2c-3.6-0.7-1-0.6-0.6-2c0-0.5,0.2-0.6,0.6-0.5C33.2,71.4,31.4,72.3,32.5,73.2z"/>
	<path class="st6" d="M80,73l0.1,0.2l-0.5,1c-1.3-0.3-1.3-1.6-2.2-2.2c-0.8-0.4-1.1-0.3-1,0.2c0,0.6,2,2.3,2.4,2.8
		c0.2,0.6-0.1,1.6-0.7,1l-1.9-2.5c-0.3-0.4-1.6-0.5-1-1.5C77.6,69.8,77.9,72.1,80,73z"/>
	<path class="st25" d="M64.5,72c1.5,1.1-1.8,1.7-0.7-0.1L64.5,72L64.5,72z"/>
	<path class="st12" d="M79.5,74.3L78.8,75c-0.5-0.4-4.2-4.2-1.4-3C78.2,72.6,78.3,74,79.5,74.3z"/>
	<path class="st14" d="M46.1,75.1c0.1,1-0.7,2-1.9,2.1c-1.1,0.1-2.1-0.6-2.2-1.7l0,0c-0.1-1,0.7-2,1.9-2.1
		C45,73.3,46,74.1,46.1,75.1L46.1,75.1z M43.2,74.9c-1.2,1.9,4.2,0.4,0.8-0.3C43.7,74.6,43.4,74.7,43.2,74.9z"/>
	<path class="st21" d="M74,73.2c0.3,0.9-0.1,2.1-1,2.5C72.9,75.6,74,73.3,74,73.2z"/>
	<path class="st13" d="M77.7,79.5L74,74.7l0.1-1c0.1,0,0.2-0.1,0.2-0.2c0.1-0.1,0.2-0.2,0.3-0.1l0,0C76.6,75,77.6,77,77.7,79.5z"/>
	<path class="st20" d="M30.3,75.7c-0.6-0.1-0.7-1.8,0.2-1.6C31.3,74.2,31.2,76,30.3,75.7L30.3,75.7z"/>
	<path class="st22" d="M60.8,76c0.5-0.3,3.4-2.7,3.2-1.4C63.7,76.4,62.6,76.8,60.8,76z"/>
	<path class="st26" d="M92.4,75c0.8-1.9,3.4,0.1,1.2,0.9c-1.1,0.6-1.5,2.6-2.6,0.6C90.3,75.3,92.1,75.6,92.4,75z"/>
	<path class="st8" d="M44,74.7c3.2,0.7-1.8,2.2-0.9,0.3C43.4,74.7,43.7,74.6,44,74.7z"/>
	<path class="st2" d="M33.3,75.2c-0.2,0.9-0.7,1.1-1.5,0.8C31.9,74.7,32.4,74.5,33.3,75.2z"/>
	<path class="st9" d="M52.3,74.7c1.1,0.8,1.7,1.9,2,3.2c-2.1,0.5-3.7,4.1-4,4L50,79.3c0.8-0.7,4.9-2.6,2.1-3.6V75L52.3,74.7z"/>
	<path class="st12" d="M74,74.7l3.8,4.8c0.3,1.4-0.6,2.4-0.6,3.7c0,0,0.5,2.8,0.5,2.8c-1.5,0-2.6,5.4-3.7,3.3
		c3.3-6.4,3.5-7.2-0.5-13.7L74,74.7z"/>
	<path class="st24" d="M37.7,75.7c3.1-1.1,0,3.6-0.6,0.7C37.1,76.1,37.3,75.9,37.7,75.7z"/>
	<path class="st6" d="M73.5,75.5l1.8,3.2c-0.8-0.1-1.1,0.1-1,0.8c0-1.2-1.2-1.1-1.3-0.2c0,1,0.9,8,0,8.7h-0.2L72,82.5l1.1-6.7
		L73.5,75.5z"/>
	<path class="st12" d="M52,75.7c2.8,0.9-1.2,2.9-2,3.6L49.5,79c0.3-0.5,3.7-2.6,2-3L52,75.7z"/>
	<path class="st17" d="M51.5,76c1.8,0.3-1.7,2.5-2,3l-0.3-1L51.5,76z"/>
	<path class="st25" d="M48,76.7c1.1,1,0.3,2.4-0.8,3.3c-5.3,5.6-7,12.8-7.5,20.3c-0.4,0.9-11.8-10.9-12.2-10.9
		c-0.8-0.2-0.3-6.3-0.5-6.9c1.1-1.5,2.5-2.4,4.2-3c-3.6,1.9-5.4,8.2-1.5,10.3c1,1.9,2.5,3.3,4.3,4.5c0.5,0,5.5,6.7,5.1,3.7
		C38.4,89.9,44.3,82.9,48,76.7z"/>
	<path class="st8" d="M95.2,77.4c0.4,1.6-1.4,0.8-1.4-0.2C94,76.3,95.1,76.7,95.2,77.4z"/>
	<path class="st24" d="M32.3,83.6c-0.4-3.7,2.4-1.4,2.8-3.8c0.2-1.2,1.5-1.8,2.6-1.7c1.5-0.1-4.8,5.6-4.7,5.8
		C32.6,84.3,32.3,84.2,32.3,83.6z"/>
	<path class="st4" d="M49.2,78l0.3,1l0.5,0.3l0.3,2.7l1,1.3c-0.9,4.4,1,6.2,2.8,9.5c0.1,0.3,0.1,0.6-0.2,0.8c-1.9,1-3.3-7.5-3.7-3
		c-0.3,0.8,3.2,4.3,3.5,4.9L53.2,96c-1.8-0.5-2.5-2.6-3.9-3.4c0,0,0,0-0.1,0c-1,0.9,2.2,2.8,2.6,4.1c-0.5,0.7-2.9-3.1-3.6-2
		c0,0.3-0.1,0.7,0,0.9c-1.4,0.6-2.3,1.9-3.2,3.1c-1.3,1.1-3.4,1.5-4.7,2.5l-0.6-1l0.3-1c6.8-3,12.3-12.5,7.2-19.2
		C47.5,79.7,48.8,78.4,49.2,78z"/>
	<path class="st12" d="M54.2,78l0.5,0.5l-3.5,4.8l-1-1.3C50.5,82,52.2,78.5,54.2,78z"/>
	<path class="st8" d="M92.2,80.2c-2.7-0.4-2.9-1.1-0.4-2.2c0.3-0.1,0.6,0,0.8,0.2c2.8,3.6,4.4-1.8,5.3,0.2c-0.2,0.5-0.6,3.4-1.3,3.4
		c-0.4-0.1-1.5-0.8-1.9-0.2c-1.2,1.9-1.8,1.5-1.9-0.8C92.7,80.5,92.5,80.3,92.2,80.2z"/>
	<path class="st13" d="M54.7,78.5c1.7,2.9,1.2,8.3,1,11.5c-1-2.4-1.3-4.9-0.7-7.5c-0.9-6-4,6.1,0,8.8c0.3,0.9-1,3.4-1.3,4.2
		c-0.3-0.6-3.9-4.1-3.5-4.9c0.4-4.5,1.8,4.1,3.7,3c0.2-0.1,0.3-0.5,0.2-0.8C50.3,86.9,49.9,84.1,54.7,78.5z"/>
	<path class="st12" d="M74.2,79.5c0.5,2.4,0.7,5.4-0.5,7.3l-0.2-0.1C73.6,86.5,72.2,75.2,74.2,79.5z"/>
	<path class="st13" d="M75.2,78.7c2.9,4.6,0.2,6.6-1.3,10.5l-0.7,0.2L73,88l0.5-1.3c0.1,0.1,0.4,0.1,0.4,0.1
		C75.5,84.8,73.1,78.3,75.2,78.7z"/>
	<path class="st23" d="M47.2,80l0.5,0.7c-5.2,4.7-5.9,11.2-7.7,16.7C40.4,90.8,42.8,85,47.2,80z"/>
	<path class="st7" d="M72,82.5l0.8,5.5c-0.4,0.3-0.8,0.6-1.3,0.5c-4.5-0.9-9-1.5-13.6-1.5c-0.8,0.1-1.5-2.5-1.9-3
		c0,0-0.5-3.5-0.5-3.5C55.2,79.3,71.6,82.7,72,82.5z"/>
	<path class="st7" d="M47.8,80.7c3.9,7-1,15.5-7.8,18.5v-1.8C41.9,91.8,42.6,85.4,47.8,80.7z"/>
	<path class="st12" d="M55.7,90L55,91.2c-3.8-2.4-1.1-14.7,0-8.8C54.4,85.1,54.7,87.6,55.7,90z"/>
	<path class="st8" d="M88.7,82.7c-0.1-1.6,3.6-2.7,2.5-0.6c0,0-4.6,4.6-4.6,4.6c-0.2,0.3-0.5,0.1-0.7-0.1
		C84.7,84.3,88.2,84.2,88.7,82.7z"/>
	<path class="st8" d="M42,81.8c0.5-0.4,0.7-0.3,0.6,0.3c0.1,1.8-1.8,1.9-2.7,3c-0.4,1.5-1.2,2.1-2.5,1.7c-0.3-0.1-0.3-0.5-0.1-0.5
		L42,81.8z"/>
	<path class="st14" d="M25.5,81.7h1.2c0.8,1-0.2,6.7,0.8,7.6c0.3,0.1,11.9,11.8,12.2,11c0.8,1.7,2,3.1,4.1,2.3l0.8,0.7l-6.5,2.5
		c-4.5-4.5-8.7-9.2-12.6-14.2L25.5,81.7z"/>
	<path class="st8" d="M36.8,82.2c1.5-0.8,2.6,1,1.1,1.9C36.4,84.9,35.3,83.1,36.8,82.2z"/>
	<path class="st8" d="M98.1,82.6c1.6,0,1.6,2.4,0,2.4C96.5,85,96.5,82.6,98.1,82.6z"/>
	<path class="st8" d="M30.7,85.6c-1.3,1.2-2.2-0.9-1.2-1.9c1-0.8,1.6-0.4,1.6,1.1C31.1,85.1,30.9,85.4,30.7,85.6z"/>
	<path class="st14" d="M56,84c0.4,0.5,0.8,3.1,1.7,3c4.6,0.1,9.2,0.6,13.6,1.5c0.5,0.2,0.9-0.2,1.3-0.5H73c0.1,1.2,1.4,5.4,2.9,4.8
		l0,0l2.9-2.8l0.8,0.1c-1.1,0.8-4.7,3.6-2.8,6c-0.8-0.1-1.6,0.2-2.2,0.8c0.1-0.8,0.7-2.4-0.4-2.6c-0.5,0-3-1-3.3-0.2
		c-0.4,0.9-2.7,5.8,0,5.4c2,0.6,3.5,1.2,3.6-2.1c0.4,2.2-1,4.4-0.7,6.4c0,0,1.7,1.6,1.7,1.6c-0.5-0.5-11-2.1-10-3.6
		c-0.2-0.4,4-8.9,2.8-8.9c-0.5,0-2.8-0.9-3.3-0.5c-0.4,0.5,1.3,0.9,1.6,1.2c0.9,0.2-2.3,7.6-2.3,8.1c-6,0.8-13.1-0.2-19.4,1.4
		c-1.4-2.2,3.1,0.1,3.5-2.6l0.2,0.1l3.2-1.3c1.1-0.3,6.1,1.3,5.4-1.2c2.2-3.1,2.7-8.8-2.5-5.6v-1.2C55.7,90.6,55.8,85,56,84z
		 M62.7,92.6c-0.6,1.1-3.1,6.8-2.6,8.4C60.7,101.9,65.9,89.4,62.7,92.6z M64.3,95c-2.7,3.8,1,3.4,0.2,0C67.8,95.4,62.7,91.3,64.3,95
		z M63.5,100.2c0.8-0.7-1-1.5-1.3-0.6C61.9,100.4,63.2,100.8,63.5,100.2z M73,101.2c0.4-1.1-2.7-1.4-3.2-1.7
		c-0.4-0.1-0.8,0.2-0.9,0.6c-0.4,1.1,2.7,1.4,3.2,1.7C72.5,101.9,72.9,101.6,73,101.2z"/>
	<path class="st8" d="M90.1,84.3c1.4-0.9,2.7,1,1.3,2C90,87.2,88.7,85.2,90.1,84.3z"/>
	<path class="st8" d="M95.1,84.5c0.4-0.5,0.7-0.4,0.9,0.2c0.7,2.2-1,2.3-2.3,3.2c-0.4,0.6-2.2,3.7-3.3,1.9c-0.1-0.2-0.1-0.6,0.2-0.8
		L95.1,84.5z"/>
	<path class="st8" d="M34.3,94c-0.3-1.4,1.2-2.1,1.4-3.3c-0.5-1.7-1.5-2.2-3-1.5c-0.9,0.8-1.2,2.6-2.4,0.4c1.3-0.6,0.2-3.9,2.1-2.6
		c1,1,1.5-1,2.4-0.9c1,0.4,0.3,2,1.2,2.1c4.6-0.5-0.3,2.1,1.2,3.8c0.2,0.2,0.2,0.4,0.1,0.6C37.3,92.7,34.4,93.9,34.3,94z"/>
	<path class="st16" d="M77.7,86l0.2,2.2c-0.2,0.5-3.4,2.8-2.5,3.4c0.1,0.2,0.5,0.1,0.7-0.2l0,0l2.4-2.6l0.2,1
		c-0.5,0.2-3,3.6-3.6,2.8l0,0c-0.9-0.9-1.5-2.1-1.9-3.3l0.7-0.2C74.9,91.1,76.3,86.1,77.7,86z"/>
	<path class="st17" d="M102.5,87l0.2,12.2c0.1,1-1.5,0.9-1.4,0c0,0,0-10.3,0-10.3c-0.1-0.5,1-1.4-0.1-1.7L102.5,87z"/>
	<path class="st12" d="M78,88.2l0.5,0.7c-0.4,0.3-2.5,3.2-3.1,2.8l0,0c-0.1-0.1-0.1-0.2-0.2-0.3C75.1,90.9,77.7,88.6,78,88.2z"/>
	<path class="st8" d="M89.8,91L89,92c-2.5-0.1,2.1,3.3-1.9,3c-0.9,0.2-0.4,1.7-1.2,2.2c-0.2,0.2-0.5,0.2-0.8,0
		c-1.1-1-1.6,0.8-2.5,0.9c-0.5-0.2-0.9-0.9-1.2-2.1c0-0.2-0.2-0.3-0.4-0.3c-2.1,0.1-2.4-0.5-1-1.7c0.7-0.5,0.4-1.4-0.1-2
		c0.8-0.7,2-0.9,2.2-2.1c0.1-0.2,0.3-0.4,0.5-0.3c1.5,0.8,2.4-1,3.5-0.7l0,0c0.6,0.5,0.1,1.6,0.8,1.8C86.9,90.7,89.8,91,89.8,91z
		 M86.2,93.1c-0.1-2.6-3.9-2.6-4,0l0,0C82.2,95.7,86.2,95.7,86.2,93.1L86.2,93.1z"/>
	<path class="st23" d="M34.3,94L34,94.2c-1.8-1.1-3.3-2.6-4.3-4.5l0.5-0.2c1.1,2.3,1.5,0.4,2.4-0.4c1.5-0.7,2.5-0.2,3,1.5
		C35.5,91.8,33.9,92.6,34.3,94z M33.2,90.7c-0.2,2.6,2.5-0.6,0.6-0.6C33.4,90.2,33.2,90.4,33.2,90.7z"/>
	<path class="st20" d="M33.7,90.2c2,0-0.8,3.2-0.6,0.6C33.2,90.4,33.4,90.2,33.7,90.2z"/>
	<path class="st13" d="M97.2,90.5l0.3,0.5c-0.4,1-1.4,2.4-2.3,3l-0.5-0.3C95,92.2,95.8,91.2,97.2,90.5z"/>
	<path class="st23" d="M86.2,93.1c0,2.6-4,2.6-4,0l0,0C82.2,90.5,86.2,90.5,86.2,93.1z M84.8,93.8c0.3-0.3,0.3-0.9-0.1-1.2l0,0
		c-0.9-0.9-2,0.3-1.1,1.1l0,0C83.9,94.1,84.5,94.1,84.8,93.8z"/>
	<path class="st20" d="M89.8,91c3.7-0.1,0.4,3.9-0.8,1L89.8,91z"/>
	<path class="st15" d="M97.5,91c2.5-0.8,1.5,2.8,1.5,4c-0.4,0.8-2.1,3.3-2.6,4.1c-0.2,0.3-0.2,0.6,0,0.8c1.3,1.9,1,2.2-0.9,0.8
		c-0.3-0.2-0.4-0.1-0.4,0.2c0.2,1.9,4,3.4,2,4.3c-0.2-0.9-0.8-1.2-1.8-1c-0.5-2.1-3.6-1.8-3.8-4.2c0.6,0,0.9-0.4,1-1l3-3.3
		c1.9,0.5,3.5-3.1,1.5-3.8L97.5,91z"/>
	<path class="st4" d="M25.5,91.5c3.9,5,8.1,9.7,12.6,14.2c-1.9,1-3,1.9-3.3,2.7h-2.6c-0.4-0.2-4.5-7-5.1-6.3c0,0,0,0-0.1,0
		c-0.2,0.2-0.2,0.5,0,0.9c-0.8,2.5-0.8,5,0.1,7.4l-0.4,1h-1.2V91.5z"/>
	<path class="st7" d="M57.5,98c-2.1-0.4-5.1-1.3-5.5,1.2l-3.2,1.3c0.8-1.1,0.5-1.5-0.8-1.2L47.8,99c1.7-1.1-2-1.1-0.3-2.1
		c0.7,0,0.6-0.8,0.8-1.2l2.5,2c-4,3.3,2-0.2,2.6-1.7c0.5-0.2,1.6-3,1.8-3.5C60.6,89.3,59.7,95,57.5,98z"/>
	<path class="st26" d="M75.5,105.2l2.3,1.5v1c-6.1-4-16-5.4-23.5-4.5l-4.9-0.4c-4.4,1.8-9.5,2.4-13.6,5.8l-0.9-0.2
		c0.5-2.2,7.7-4.3,9.8-5.2c6.3-1.9,13.5-0.7,19.7-1.6c0-0.5,3.2-7.9,2.3-8.1c-0.4-0.3-2-0.7-1.6-1.2c0.3-0.4,2.8,0.5,3.2,0.5
		c0.2,0,0.4,0.3,0.3,0.5C64,105.8,63.7,101.3,75.5,105.2z"/>
	<path class="st25" d="M97,92c1.2,0.7,1.3,1.6,0.3,2.8c-0.1-0.9-0.7-1.4-1.5-1.3L97,92z"/>
	<path class="st8" d="M62.7,92.6c3.4-3.8-2.9,11.8-2.8,7.6l0,0C60.4,98.8,61.9,93.4,62.7,92.6z"/>
	<path class="st8" d="M83.6,92.5c0.7-0.7,2,0.5,1.3,1.3C84.1,94.5,82.8,93.3,83.6,92.5z"/>
	<path class="st6" d="M53.2,96l-1.8,2c-0.6,0-2.8-1.9-3.3-2.3c-0.4-3.1,3.2,1.6,3.7,1.1c0.1-0.2,0-0.4-0.2-0.5
		c-1.1-0.9-4-4.1-1.8-3.5c0,0,0,0,0,0.1C50.8,94.3,51.8,95.3,53.2,96z"/>
	<path class="st25" d="M64.5,95h-0.2C62.7,91.3,67.8,95.4,64.5,95z"/>
	<path class="st7" d="M74.5,96.7c-0.2,3.3-1.2,3.5-3.7,2.6c-2.7,0.5-0.6-5.9,0.7-5.7C73.5,93.9,75.7,94,74.5,96.7z"/>
	<path class="st12" d="M95.8,93.5c2.1-0.3,1.8,3-0.3,2.3L95.2,94L95.8,93.5z"/>
	<path class="st2" d="M94.8,93.7l0.5,0.3l0.3,1.7l-3,3.3c-2.4-4.6-1.3,3.4,1.3,3.5l-0.1,0.5c-2,2.1-9.6-1.6-3-6.5
		C91.8,95.2,93.2,94.3,94.8,93.7z"/>
	<path class="st22" d="M64.3,95h0.2C65.3,98.5,61.7,98.6,64.3,95z"/>
	<path class="st19" d="M91.5,95l-0.7,1.5c-6.7,4.8,1,8.6,3,6.5l1,1.3c0,1.2,0.6,1.7,1.8,1.5c-0.1,2.3-2.5,0.8-3.6,1.8
		c-0.2,0.2-0.5,0.2-0.7,0.1c-1.8-1.5-2.8-1.1-2.9,1.3c0,0.7-0.5,3.7-0.2,4.3c1.5,2.6,2.9-0.7,4.4,0.6c0.9,0.7,2.7,0.4,1.1-0.8
		l0.5-0.3c2.7,3.6-0.2,2.1-3,2.2c-5.3,2.4-4.1-5.4-3.9-7.6c0-0.2-0.2-0.5-0.4-0.5c-0.4-0.2-3.8,0.3-3-1c0.5-1.6,2.6-1.8,3-3.2
		c-0.7-4.3-2.4-0.4-4.5,0l-0.5-0.2c1.2-0.1,1.6-0.7,1.2-1.8l5.7-5C90.4,96.1,91,95.9,91.5,95z M90.7,104.4c0-2-5.7,1.1-4.4,1.6
		C87.3,106,90.9,105.7,90.7,104.4z M92.9,105.6c-0.3-1.9-1.6,0.7-0.5,0.7C92.6,106.2,92.9,105.9,92.9,105.6z"/>
	<path class="st4" d="M99,95c1.7,1.3-0.6,10.9-1.9,7.5c0,0,0,0,0-0.1c0.5-0.8,0.7-1.5,0.8-2.3c1.4-0.5,1.4-0.9,0-1.1
		c0.8-0.9,0.9-1.8,0.2-2.8L99,95z"/>
	<path class="st9" d="M48.2,95.7c-0.1,0.5-0.2,1.1-0.8,1.2c-1.7,0.7,1.7,1.1,0.3,2.1L46,98h-0.2C46.4,97,47.2,96.2,48.2,95.7z"/>
	<path class="st4" d="M76.7,96c1.4,2.4,3.6,4.1,5.8,5.8c0,0,0.3,0.8,0.3,0.8l0.5,0.2c-1.1,1.6-2.4,3-4,4.2l-1.5-0.2l-2.3-1.5
		l-1.7-1.6c-0.1-2.1,1-4.6,0.8-6.9C75.2,96.2,75.9,95.9,76.7,96z"/>
	<path class="st2" d="M57.5,98c0.7,2.5-4.4,0.9-5.5,1.2C52.4,96.7,55.4,97.6,57.5,98z"/>
	<path class="st12" d="M92.5,99c-0.1,0.6-0.4,1-1,1C90.9,97,91.2,96.7,92.5,99z"/>
	<path class="st16" d="M50.7,97.7l0.8,0.3C48.8,99.6,48.6,99.5,50.7,97.7z"/>
	<path class="st16" d="M45.8,98H46c1.7,2.6,1.4,2.9-1,0.7L45.8,98z"/>
	<path class="st12" d="M46,98c0.1,0.1,2,1,2,1.2c0,0,0.5,1.2,0.5,1.2c-0.5,2.7-4.8,0.4-3.5,2.6l-0.5,0.2l-0.8-0.7
		c1.2-0.4-0.5-1.8-0.8-2.5l2-1.3C47.4,100.9,47.7,100.7,46,98z"/>
	<path class="st16" d="M48.8,100.5l-0.2-0.1L48,99.3C49.3,99,49.5,99.4,48.8,100.5z"/>
	<path class="st25" d="M62.7,100.5c-0.8-0.1-0.4-1.4,0.3-1.2C64.4,99.3,63.6,100.8,62.7,100.5z"/>
	<path class="st17" d="M98,99c1.4,0.2,1.4,0.6,0,1.1C96.9,99.8,96.9,99.4,98,99z"/>
	<path class="st2" d="M69.9,99.5c0.5,0.4,4,0.6,3.1,1.9c-0.2,1.1-3-0.5-3.6-0.5C68.6,100.7,69,99.2,69.9,99.5z"/>
	<path class="st17" d="M43,100c3.2,3.2-1.4,3.6-2.7,1.2C41.1,100.6,42,100.2,43,100z"/>
	<path class="st25" d="M84,100.7c0.4,1.1,0,1.7-1.2,1.8l-0.3-0.8L84,100.7z"/>
	<path class="st3" d="M101.6,102c0.2-0.2,0.5-0.3,0.7-0.1c0.1,0,0.1,0.1,0.1,0.1c0,0.4,7.4,8.4,6.3,8.7c-0.3,0-6.6,8.6-7,7.5l0,0
		C92.3,107.6,94.5,112.8,101.6,102z"/>
	<path class="st10" d="M32.2,108.5c0.6,1.6,1.7,2.8,3.2,3.5c2,3.9,4.3,7.7,7.5,10.7c0.3,0.8,5.6,9.4,5.8,8c-1.4-2.4-0.4-5.3-1.6-7.8
		c-0.1-0.8-1.5-0.4-2-0.5c0.2-1.4-0.1-2.7-0.8-4c3.9,0.2,9.4-3.9,12.5-2.5c-3.2,1.7-7.1,3.7-8.7,7.1c0.6,4.9,0.6,10.3,3.4,11.9
		c0.7,1.6,3.9,7.6,5.5,4.6c0.7-0.8,0.4,1-0.3,1.3c-0.8-0.1-1.1,0.2-1,1c-1.3,1.4-27.8-38.5-28.7-38.6c-0.5-0.6,0.2-1.4,0.7-0.8
		C27.9,102.5,32.1,108.4,32.2,108.5z M50.3,118.4c0-0.1,0-0.2-0.1-0.2C47.4,118.1,49.6,121.2,50.3,118.4z"/>
	<path class="st18" d="M93.8,102.5c0.8,0.3,1.3,0.9,1.5,1.7l-0.5,0.1l-1-1.3V102.5z"/>
	<path class="st23" d="M54.2,103.2l0.1,0.5l-0.6,0.8c-3.5-0.6-3.6-0.3-0.2,0.8l0.8,0.8l-0.1,0.2c-1.1-0.4-4.2,0.2-3.9-1.5
		c0.1-1.3-2.4-1.1-2.6,0c-0.7,2.9,1.6,1.6,3,2.6c0,0,0.5,2.3,0.5,2.3L51,110c-5.2,1.4-1.1-4.3-3.7-2.7c-0.9,0.6-2.6,0.8-2.7-0.6
		c0.3-1.6-4.1-0.9-3.4,1.1c0.9,2.5-1.2,2.3-3.2,1.9c-0.6-1.7-0.9-1.6-1,0.3l-0.8-0.3l-0.5-1c4.1-3.4,9.1-4,13.6-5.8
		C49.3,102.9,54.2,103.2,54.2,103.2z M38.9,108.1c-0.5,0.6,0.2,0.9,0.8,0.7C40.7,108.3,39.3,107.5,38.9,108.1z M48.9,108.5
		c-0.1,1.3,2.3-0.3,0.7-0.6C49.2,108,48.9,108.2,48.9,108.5z"/>
	<path class="st22" d="M58,103l-0.5,1l-3.2-0.2l-0.1-0.5C55.4,102.6,56.7,102.6,58,103z"/>
	<path class="st19" d="M58,103c6.9,0.3,14.4,0.9,19.7,4.7l-0.9,0.8c-1.3-1.7-2.1-1.7-2.3,0L74,109c-3.3,0.2-2.2-1.7-3.2-3.3
		c-1.5-0.4-5-2.1-3.5,1.2l-0.2,0.2c-0.7-0.8-2.5-0.1-2.9-1.1c0,0-0.2-1.5-0.2-1.5c-0.8-1.7-3.5-1.3-2.8,0.9c1.3,1.3,3.6,0.2,2.5,3.6
		c0,0.2,0,0.3,0.3,0.3c1.7-0.3,2.6,0.2,2.8,1.6l-3.2-0.2c-3.3-4.7-5.3,2.2-0.3,0.7c0,0,3.2,0.5,3.2,0.5c1.3,1.6,2.1,1.6,2.4-0.1
		c0.9-1.7,3.1-1.4,3.1,0.8l-1.5,0.8c-0.9,0.2-1.8-0.9-1.9,1c-3.9-1.7-8.3-3-12.5-2.2c-0.3,0.1-14.1,1.7-12.2,3.7l-1.5-0.2
		c0.1-1.3-4.4-4.9-5.5-6c0.4-0.2,1.3-0.4,1.8-0.2c-1.3,0.7,3.8,4.1,4,4.6c2.2,0.7,3.7-1.4,1.5-2.9c-1-3-1.3-2.9-1,0.2
		c-2.4,0.2-1.8-4.9,1.2-3c0.3,0.1,0.4,0.4,0.4,0.8c-0.2,2.4,1.1,1.5,2.3,1.3c1.5-0.1,1.3,1.5,2.2,2c1.9-0.2,2.4-1.1,1.6-2.7
		c4.4-3.3,3.9,4.2,5.5,1.9c2.1-3.4,0-2.6-2.3-3.2c0-0.2,0-2.5,0.2-2.6c0.4,0.2,3-0.3,2.9,0.6c-1,6.4,7.9-1.3,1.1-0.6
		c-0.7-0.3,0.1-1.5-0.7-2L58,103z M65.3,106c0.3,0.1,0.6-0.1,0.7-0.5l0,0c0.3-0.8-0.8-1.2-1-0.3l0,0C64.9,105.6,65,105.9,65.3,106z"
		/>
	<path class="st7" d="M27,103.2c0.9,0.1,27.7,39.9,29,38.5l0.2,0.5c-1.6,1.3-2.9,1.3-4,0c-8.3-10.5-16.7-21.1-25.1-31.6
		C26.2,108.3,26.2,105.8,27,103.2z"/>
	<path class="st8" d="M54.3,103.7l3.2,0.2c0.4,0.4,0.6,1,0.4,1.6c0,0.2,0.1,0.4,0.3,0.4c2.5-0.4,3.2,0.4,1.9,2.5
		c-1.4,1.4-3.8,0.5-3-1.8c0.1-0.3-0.1-0.5-0.3-0.6c-0.1,0-2.5-0.1-2.6-0.1l-0.8-0.8l0.2-0.8L54.3,103.7z"/>
	<path class="st8" d="M67,107.2c-0.9,2.7,1.5,3.8,2.9,2.1c0.5-2-0.4-2.8-2.7-2.3c-1.5-3.3,2-1.6,3.5-1.2c0.9,1.7-0.1,3.6,3.2,3.3
		c0.4,1.9-0.2,3.3-2,4c0-2.2-2.3-2.5-3.1-0.8c-0.3,1.7-1.1,1.7-2.4,0.1c0.6-1.7-0.5-3.2-2.6-2.6c-0.3,0-0.3-0.1-0.3-0.3
		c1.1-3.5-1.2-2.3-2.5-3.6c-0.3-1.9,0.5-2.4,2.3-1.6c0.7,0.2,0.5,1.7,0.7,2.2C64.3,107.5,66.3,106.5,67,107.2z"/>
	<path class="st20" d="M86.1,105.6c0.6-0.7,4.2-2.9,4.6-1.2c0.1,0.3-0.1,0.6-0.4,0.7C89.5,105.5,86,106.5,86.1,105.6z"/>
	<path class="st8" d="M54.2,106.2l-0.1,2.3c0,0.2,0.3,0.4,0.6,0.4c2.7-0.4,3.3,0.5,1.7,2.9c-1.8,2.3-0.6-4.7-5.2-2.2l-0.5-2.3
		c-1.5-1-3.7,0.3-3-2.6c0.2-1.1,2.7-1.3,2.6,0C50,106.5,53.1,105.9,54.2,106.2z"/>
	<path class="st25" d="M53.7,104.5l-0.2,0.8C50.1,104.2,50.2,103.9,53.7,104.5z"/>
	<path class="st20" d="M94.8,104.3c1-0.3,2-0.3,2.3,0.9l-0.5,0.6C95.3,106,94.8,105.5,94.8,104.3z"/>
	<path class="st22" d="M65,105.2c0.2-0.8,1.2-0.5,1,0.3C65.7,106.3,64.8,106,65,105.2z"/>
	<path class="st20" d="M92.3,106.2c-0.8,0.2-0.3-1.8,0.3-1.2c0.2,0.2,0.3,0.4,0.2,0.6C92.9,105.9,92.6,106.2,92.3,106.2z"/>
	<path class="st8" d="M51,110c0.8,1.6,0.3,2.5-1.6,2.7c-0.9-0.4-0.4-2-2.2-2c-3.1,0.9-1.6-0.1-2.7-2.1c-3.7-1.8-3.4,4.4-0.2,2.8
		c2.4,1.5,0.6,3.6-1.5,2.9c-0.2-0.5-5.3-3.9-4-4.6c4.3,1.3,1-2.7,3.3-3.7c1.7-0.5,2.5-0.3,2.5,0.6c0.1,1.4,1.8,1.2,2.7,0.6
		C49.9,105.7,45.7,111.3,51,110z"/>
	<path class="st14" d="M77.8,106.8l1.5,0.2c-0.3,0.6-1.6,1.8-1.5,2.5c0.7,9.8-2.4,18-9.3,24.8h-0.7c-0.9-0.7-2-0.8-3.1-0.2
		c-3.6,1.9-1.9-7.5-2.4-9c-0.1-2.2-2.3,1.4-2.6-1l0.8-0.5c4.4-0.9,1.8,3.2,2.9,3.6c0.2,0.1,0.5-0.1,0.6-0.5l0,0
		c0.1-0.8,1.1-0.2,0.7,0.4c-0.5,1.1,0.2,1.5,2.1,1.2c0.1,0.2-0.8,1.9,0,1.6c1.1-0.5,1.3-1.3,0.8-2.5c-0.2-5.5-3.2-14.2-10.5-11.5
		c-3.9-1.4-8.4,0.5-11.6,2.3c-0.3,0-0.6,0-0.9,0.2c0-0.1-0.7-1.9-0.6-2c7.9-2.7,16.6-3.9,24.5-0.4c0.8,0.4,0.8-0.9,0.1-1.1
		c0.1-2,0.9-0.8,1.9-1c2-1.1,4.2-2,3.5-4.9l0.5-0.5c1.3,1.4,2.2,0.1,3.2-0.8L77.8,106.8z M67.5,117.7c-0.7-1.4-1.8-2-3.3-1.8
		c-0.5,0.1-0.5,0.2-0.1,0.4l3.3,1.7c-1.3,1.5,0.5,4.9,0.7,6.6c0.1,0.3,0.2,0.4,0.3,0.1c1.4-2.5,3.4-6.3,2.3-9.1
		C69.9,115.1,69,117.5,67.5,117.7z M64.6,129.7c0.7-2-1.8-0.2-0.7,0.4C64.2,130.2,64.5,130.1,64.6,129.7
		C64.6,129.8,64.6,129.8,64.6,129.7z M64.1,132.7c0.9,0.9,4.5,0.2,3.3-0.8C66.1,131.5,62.2,131.3,64.1,132.7z"/>
	<path class="st24" d="M95,107.3c-1.4,3.7-5.3,0-5,1.9l-0.7-0.3c0.5-4.5,2.1-0.8,3.6-1.4C93.5,107,94.2,106.9,95,107.3z"/>
	<path class="st11" d="M67.3,107c2.4-0.8,3.8,1.6,2.1,2.9c-2,0.6-2.8-0.3-2.3-2.7L67.3,107z M68.9,108.7c0.7-0.7-0.9-1-1-0.2
		C67.8,109.2,68.5,109.1,68.9,108.7L68.9,108.7z"/>
	<path class="st26" d="M76.8,108.5c-0.7,0.8-1.4,0.8-2.3,0C74.7,106.8,75.5,106.8,76.8,108.5z"/>
	<path class="st22" d="M39.8,108c0.9,0.4-0.6,1.4-1,0.7C38.5,108.2,39.3,107.7,39.8,108z"/>
	<path class="st26" d="M49.5,108c0.8,0,0.6,1-0.1,1.1C48.3,109.2,48.9,107.9,49.5,108z"/>
	<path class="st26" d="M68.1,109c-0.2-0.3-0.1-1,0.5-1C69.9,107.9,68.6,109.3,68.1,109L68.1,109z"/>
	<path class="st12" d="M34.8,108.5l0.9,0.2l0.5,1l-0.8,2.3c-1.6-0.7-2.6-1.9-3.2-3.5H34.8z"/>
	<path class="st21" d="M94.5,108.2c-1.3,1.6-1.2,3.1,0.5,4.5l-0.5,0.3c-1.7-1.7-5.7,1.8-3.9-1.7c0.2-0.2,0.2-0.5,0-0.8
		C88.3,106.3,92.7,110.7,94.5,108.2z"/>
	<path class="st22" d="M38,109.7l-1,0.3C37.1,108.1,37.4,108,38,109.7z"/>
	<path class="st20" d="M89.2,109l0.7,0.3c0,0.8,1.1,1.4,0.6,2.2c-1.8,3.7,2.1-0.2,4,1.7c1.7,1.2-0.3,1.6-1.1,0.8
		c-1.5-1.3-2.9,2-4.4-0.6C88.6,112.9,89.2,109.7,89.2,109z"/>
	<path class="st22" d="M44.2,111.5l-1,0.2C43,108.5,43.3,108.5,44.2,111.5z"/>
	<path class="st8" d="M63.5,111l-0.3,0.7C58,113.2,60.4,106.4,63.5,111z"/>
	<path class="st16" d="M36.2,109.7c1.6,0.7,6.2,4.8,6.3,6.3c-0.2,0.9-0.2,5.1-1.3,5c-2.3-2.8-4.2-5.8-5.8-9L36.2,109.7z"/>
	<path class="st14" d="M27.1,110.7c8.4,10.5,16.8,21,25.1,31.6c1,1.3,2.4,1.3,4,0c3.5,1.3,7.9,0.2,11.6,0.5c7.2,0.9,16.8-0.7,22.9,1
		c-20.9,0.8-42.1-0.1-63.1,0.3c-2,0-2.7-1.2-1.9-3.5l0.9,0.2c0.2,0.4-0.2,2.3,0.6,2.2c0,0,4.1-0.1,4.1-0.1
		c2.7-5.8,0.4-13.4-2.6-18.8c-1.5-1.8,6.1-0.6,6.5-0.9c0.7,0,0.8-0.3,0.4-0.8c-0.2-0.2-8.6-10.5-8.8-10.6L27.1,110.7z M33.8,129
		c0.6-0.2,1.5-0.7,1-1.4c-1.2-1.7-2-4.7-4.8-3.6c-0.2,0.1-0.3,0.4-0.2,0.7c0.3,0,2.5,9,3.2,6.7C33.2,130.8,32.9,129.1,33.8,129z
		 M40.7,137.8c-1.1,0.2-1,1.2-0.1,1c4.1-1.9,5.5,0.7,6.9,4.1c0.6,0.3,2.5,0.4,2.1-0.6c0,0,0,0,0-0.1c-1-1.1-16.1-21.4-14.8-17.3l0,0
		c3.4,2.6-0.8,8.1,0.8,7.1C39.3,129.2,43.7,134.9,40.7,137.8z M37.1,140.5c-0.7-1.4,0.8-2,1.1-3.1c0.2-4.1,5.1,1.7-0.1-5.1
		c-0.2-0.2-0.4-0.3-0.7-0.3c-0.6,0.2,0.9,1.9-0.6,2.4c-1.3,0-3-0.8-3.8,0.7c-0.1,0.4-1,7.8-0.1,7.8c0,0,12,0,12,0
		c1.3,0.1-1.3-2.8-1.3-3.1c-0.8-0.7-0.6,2.6-2.9,1.2C39.6,140.6,37.8,142.2,37.1,140.5z"/>
	<path class="st22" d="M63.5,111l3.2,0.2l-0.2,1l-3.2-0.5L63.5,111z"/>
	<path class="st17" d="M25.5,111.7h1.2L27,112c-0.8,9.3,0.3,19.4-0.5,28.9l-0.9-0.2C25,130.9,25,121.3,25.5,111.7z"/>
	<path class="st2" d="M27,112c0,0,8.3,10.4,8.3,10.4c1.6,1.6-6.1,0.5-6.4,0.8c-0.7,0-0.9,0.3-0.5,0.9c3.3,5.6,4.4,11.6,3.2,18.2
		c-0.1,0.3-0.3,0.6-0.6,0.6c-0.4-0.3-4.8,0.7-4.6-0.4c0.2-10.1,0.2-20.4,0.2-30.4L27,112z"/>
	<path class="st26" d="M68.7,114.7c0.7,0.2,0.7,1.3-0.1,1.1c-7.9-3.6-16.6-2.2-24.5,0.4c-1.9-2.1,11.9-3.7,12.2-3.7
		C60.4,111.7,64.8,113.1,68.7,114.7z"/>
	<path class="st2" d="M54.7,115.4c-3,1.4-6.1,2.3-9.3,2.7C48.2,116.4,51.2,115.5,54.7,115.4z"/>
	<path class="st2" d="M67.5,127.2l-0.8,1c-3.1,0.4-1.8-0.6-2.2-1.9c-0.6-0.5-0.6,1-1.2,0.8c-1-0.4,1.6-4.5-2.9-3.6
		c-4.1-1.3-1.7,4.4-1.9,1.1c0-0.7,0.6-0.6,1-0.6c0.3,2.7,2.5-1.3,2.6,1c0.5,1.5-1.2,10.9,2.4,9c1.1-0.6,2.1-0.5,3.1,0.2
		c-2.3,1.6-5.3,2.4-5.8,6h-1c-1.6-5.4-4.9-4.3-9.2-5.5c-2.6-1.5-3.6-8.2-3.1-12.8C56.9,111.8,67,113.6,67.5,127.2z M58.5,119.5
		c-3.9,3.1,4,2.2,4.6,2.1c1.3-0.1,0.7-2.3-0.6-1.8c-1.2,0.4-2.4,0.3-3.5-0.3c0.9-1.1,2.3-0.2,3.2-0.7
		C62.2,117.3,59.1,118.6,58.5,119.5z M56.8,128.7c-3.3-0.2-5.3-0.2-3.6,2.7c0.1,0.2,0.4,0.4,0.8,0.3c1.3-0.4,2.6,0.3,3.7,0.1
		c3-1.3,0-4.1-1.3-5.4c-0.2-0.2-0.3-0.2-0.2,0.1L56.8,128.7z M53.8,133.1c-0.9,0.2-0.7-2.1-1.4-0.8c-0.1,1.6,8.2,2.6,7.1,0.5
		C59.3,132.2,54.3,133.2,53.8,133.1z"/>
	<path class="st7" d="M67.5,118l0.1-0.2c1.5-0.3,2.4-2.7,3.3-2.2c1.4,1.2-1.5,9.4-2.6,9C67.9,122.9,66.2,119.5,67.5,118z"/>
	<path class="st13" d="M67.5,117.7l-0.1,0.2l-3.3-1.7C63.2,115,67.5,116.5,67.5,117.7z"/>
	<path class="st12" d="M42.5,116l1.5,0.2v0.2c-2.1-0.6-0.3,5.5-1,6.3l-1.7-1.7C42.3,121,42.4,116.9,42.5,116z"/>
	<path class="st16" d="M44,116.5c1.4,3.3,1.8,5.7,0.6,9.1l-1.5-2.8C43.8,122.1,42.2,115.4,44,116.5z"/>
	<path class="st13" d="M50.3,118.4c-1,2.8-3-0.2-0.2-0.2C50.3,118.2,50.4,118.3,50.3,118.4C50.4,118.4,50.4,118.4,50.3,118.4z"/>
	<path class="st12" d="M59,119.5l-0.5-0.1c0.6-0.9,3.6-2,3.7-0.7c0,0.3-0.4,0.3-0.6,0.3C60.7,118.8,59.8,119,59,119.5z"/>
	<path class="st4" d="M58.5,119.5c1.3,0.4,2.6,1,4,0.4c0.8-0.3,1.5,0.5,1.3,1.3C63.8,122.1,54.3,122.4,58.5,119.5z"/>
	<path class="st12" d="M45.3,122.2c0.5,0.1,1.8-0.3,2,0.5c1.1,2.6,0.4,5.6,1.6,8.1c-0.4,0.1-3.6-4.8-4.2-5.5L45.3,122.2z"/>
	<path class="st3" d="M109.3,135.8c-0.1,3.2,0.6,8.6-0.7,11.3c-2.1,4.4-8.9,4.7-11.5,1c-2.5-3.6-1.3-15.6-1.2-20.3
		c0-1.3-2-0.3-2.3-1.4c-0.2-4.8,1.7-2.2,4.6-1.8c4.9-3.3,11.8,0.2,11,6.3c-0.2,0.8,0.6,0.9,1.1,1.1c1.6,0.7,1.1,3.3-0.4,3.2
		C109.5,135.3,109.3,135.5,109.3,135.8z M105.6,131.4c0.7-2.6-1.8-5.8-4.4-4.3c-0.2,0.1-0.4,0.6-0.1,0.7c0.3,0.1,4.2,4.5,4.5,3.8
		C105.6,131.5,105.6,131.4,105.6,131.4z M104.8,135c-2.4-0.6-3.6-3-5.3-4.2c-0.2,0.6-0.7,12.7,0,14.3
		C105.8,152.5,107.3,138.5,104.8,135z"/>
	<path class="st17" d="M60.5,123.5l-0.8,0.5c-0.4,0-1-0.1-1,0.6l0,0C59,127.9,56.4,122.4,60.5,123.5z"/>
	<path class="st8" d="M33.2,129.5c-0.1,0.4,0,3-0.9,2c0.1-0.4-3.2-7.5-2.3-7.6c2.8-1.1,3.7,1.9,4.8,3.6
		C35.6,128.7,33.3,128.7,33.2,129.5z"/>
	<path class="st8" d="M41.4,137.2c1.5-3.6-2.2-7.7-5.7-5.3c-0.6,0.4-0.7,0.3-0.4-0.3c2.2-3.6,0.4-5.2-0.6-7.6l0,0
		c0.5-0.4,14.7,16.7,15,18.7c-5.3,1.5,0.1-6.2-9.7-4.3l0,0c-0.1-0.4,0.1-0.6,0.8-0.8C41,137.7,41.3,137.5,41.4,137.2z"/>
	<path class="st4" d="M56.2,128.8c0.6,2,2.7,0.8,0.5,0l-0.6-2.2c-0.1-0.3,0-0.4,0.2-0.1c1.3,1.4,4.2,3.9,1.3,5.4
		c-1.2,0.2-2.4-0.5-3.7-0.1c-0.3,0.1-0.6-0.1-0.8-0.3C51.7,128.9,52.8,128.1,56.2,128.8z M53.7,129.5c-0.3,2.1,2.8-0.8,0.6-0.6
		C54,129,53.8,129.3,53.7,129.5z"/>
	<path class="st2" d="M101.2,127.1c2.7-1.5,5.1,1.7,4.4,4.3c0,0.3-0.4,0.4-0.6,0.2l-4-3.8C100.8,127.6,100.9,127.1,101.2,127.1z"/>
	<path class="st16" d="M67.5,127.2c0.6,1.2,0.3,2-0.8,2.5c-0.3,0.1-0.4,0-0.3-0.3l0.3-1.3L67.5,127.2z"/>
	<path class="st16" d="M56.2,128.8c0.5-0.3,1.3,0.1,1.4,0.6C57.8,130.5,56.4,129.4,56.2,128.8z"/>
	<path class="st9" d="M64,130.1c-1.1-0.6,1.4-2.3,0.7-0.4C64.5,130,64.2,130.2,64,130.1L64,130.1z"/>
	<path class="st13" d="M54.3,129c2.2-0.2-0.9,2.6-0.6,0.6C53.8,129.3,54,129,54.3,129z"/>
	<path class="st2" d="M105.4,135.7c0.3,2.3,0.5,4.6,0.4,6.9c0.2,4.7-4.7,6.8-6.6,1.7c0-1.4-0.1-13.3,0.3-13.4
		c1.8,1.2,2.9,3.6,5.3,4.2C105.1,135.1,105.3,135.4,105.4,135.7z"/>
	<path class="st2" d="M64.1,132.7c-1.8-1.4,2-1.2,3.3-0.8C68.6,132.9,64.9,133.6,64.1,132.7z"/>
	<path class="st8" d="M37.8,141.1c1,0.5,2-0.5,3-0.2c2.3,1.5,2.1-1.9,2.9-1.2c0,0,1.6,2.6,1.6,2.6c0.2,0.3,0.1,0.5-0.3,0.5
		c-0.2-0.3-12.9,0.6-12.4-0.5l0,0c0.6-3.3-1.5-9.7,4.3-8c1.7-0.5-0.6-3.5,1.3-2.1c-0.1,0.1,3.4,4,2.2,3.6c-1.4-0.3-2.1,0.2-2.1,1.5
		C37.9,138.4,36.1,140.2,37.8,141.1z"/>
	<path class="st4" d="M53.8,133.1c0.6,0,5.4-0.8,5.8-0.3c0.9,2.2-5.9,0.8-6.9,0.1c-0.7-0.4,0.3-1.7,0.4-0.5
		C53.1,132.9,53.5,133.2,53.8,133.1z"/>
	<path class="st15" d="M67.8,134.2h0.7l-0.7,8c-0.8-0.1-1.4-0.6-1.8-1.3c1.4-1.5,1.1-2.5-1-3v-0.5c0.1-0.2,0.3-0.5,0.6-0.3
		c2.3,2.8,1.4-3.2-0.9-0.1c-1.1,0.6-1.6,1.5-1.5,2.8l-0.8,0.5h-0.5C62.4,136.5,65.5,136,67.8,134.2z"/>
	<path class="st6" d="M51.8,134.8l1.5,0.6c-0.9,4,3.8-1.5,3.7,1.6c-1.3,0-1.5,1.2-2.3,2C53.3,137.9,52.3,136.5,51.8,134.8z"/>
	<path class="st15" d="M61,140.2c-1.4,0.4-2.6,1.2-3.5,2.5l-0.8-0.4c2.3-2.5,5.8-3.8,0.2-5.2c0.1-3.1-4.7,2.4-3.7-1.6
		C57.2,134.8,59.8,136.4,61,140.2z"/>
	<path class="st6" d="M65,137.5l-0.3-0.5c2.5-3,2.9,2.7,1,0.2c-0.1-0.1-0.3-0.2-0.5-0.1l0,0L65,137.5z"/>
	<path class="st12" d="M57,137c-0.2,0.7-1,2.6-1.8,1.9C55.1,137.9,56.1,137.1,57,137z"/>
	<path class="st9" d="M57,137c3.7,1,4,2.3,0.8,4l-0.8-0.3c0.9-0.3,0.9-2.2,0.3-1.3c-0.9,1.4-1.8,1.2-2.5-0.4l0.5-0.5
		c-0.1,0.5,0.3,0.8,0.6,0.4C56.4,138.5,56.8,137.8,57,137z"/>
	<path class="st13" d="M64.8,137l0.3,0.5v0.5c-1.1,0.8-1,1.5,0.5,2l-0.5,0.5l-1.7-0.8C63.1,138.4,63.6,137.5,64.8,137z"/>
	<path class="st15" d="M65,138c0.7,0.7,0.9,1.4,0.5,2C64,139.5,63.9,138.8,65,138z"/>
	<path class="st18" d="M65,138c2,0.5,2.3,1.5,1,3h-0.7l-0.3-0.5C65.9,139.8,66,138.9,65,138z"/>
	<path class="st12" d="M63.2,139.7l1.7,0.8c0.7,1,1.1,2.2-0.7,1.7l-1.8-2L63.2,139.7z"/>
	<path class="st13" d="M61,140.2l-0.5,2.5c-1,0.2-2,0.2-3,0C58.4,141.5,59.6,140.7,61,140.2z"/>
	<path class="st10" d="M61,140.2h1c0.3,0.9,0.1,1.7-0.5,2.5h-1L61,140.2z"/>
	<path class="st18" d="M62,140.2h0.5l1.8,2v0.5h-2.8C62.1,142,62.3,141.2,62,140.2z"/>
	<path class="st16" d="M57,140.7l0.8,0.3l-1,1.2l-0.5-0.1C55.9,141.4,55.8,140.5,57,140.7z"/>
	<path class="st6" d="M65.2,141h0.7c0.4,0.7,1,1.2,1.8,1.3v0.5h-3.5v-0.5C65.5,142.5,65.8,142.1,65.2,141z"/>
</g>
</svg>
