<?xml version="1.0" encoding="UTF-8" standalone="no"?>
<svg xmlns="http://www.w3.org/2000/svg" version="1.2" baseProfile="tiny" viewBox="0 0 128 168">
<g stroke-width="0.00" fill="none" stroke-linecap="butt">
<path stroke="#dfdfdf" stroke-opacity="0.573" vector-effect="non-scaling-stroke" d="
  M 17.00 152.96
  Q 19.67 155.18 22.06 155.19
  Q 59.16 155.26 96.25 155.29"
/>
<path stroke="#dfdfdf" stroke-opacity="0.573" vector-effect="non-scaling-stroke" d="
  M 104.00 155.29
  C 112.22 155.26 114.43 150.29 114.45 142.77
  Q 114.57 108.38 114.46 74.00"
/>
<path stroke="#dfdfdf" stroke-opacity="0.573" vector-effect="non-scaling-stroke" d="
  M 114.46 43.50
  Q 114.52 33.99 114.51 24.49
  C 114.50 15.39 110.65 12.75 101.63 12.75
  Q 63.60 12.74 25.57 12.76
  C 20.00 12.76 16.80 13.78 14.11 18.49"
/>
<path stroke="#f9f7f6" stroke-opacity="0.949" vector-effect="non-scaling-stroke" d="
  M 114.46 43.50
  Q 113.94 58.75 114.46 74.00"
/>
<path stroke="#909192" stroke-opacity="0.957" vector-effect="non-scaling-stroke" d="
  M 104.00 155.29
  L 96.25 155.29"
/>
<path stroke="#f9fafa" stroke-opacity="0.988" vector-effect="non-scaling-stroke" d="
  M 17.00 152.96
  Q 14.00 148.78 14.00 147.25
  Q 13.92 82.88 14.11 18.49"
/>
<path stroke="#e29996" vector-effect="non-scaling-stroke" d="
  M 22.75 40.10
  L 23.07 38.88
  A 0.75 0.52 -80.0 0 1 23.63 38.32
  L 27.81 38.34
  A 0.85 0.76 76.1 0 1 28.53 38.83
  Q 29.38 40.62 27.81 41.17
  A 0.79 0.56 -13.0 0 0 27.26 41.78
  L 27.32 43.92
  A 0.59 0.52 0.1 0 0 27.90 44.43
  L 33.74 44.50
  A 0.71 0.69 -79.5 0 0 34.41 44.03
  Q 35.51 40.97 32.68 40.84
  A 0.63 0.60 -4.0 0 1 32.09 40.35
  L 27.90 17.97
  A 0.82 0.74 90.0 0 0 27.33 17.34
  Q 25.71 16.94 24.11 17.48
  A 0.92 0.84 87.2 0 0 23.55 18.16
  L 19.43 40.37
  A 0.62 0.58 4.6 0 1 18.84 40.84
  Q 16.06 40.89 17.05 43.90
  A 0.74 0.68 79.9 0 0 17.71 44.40
  L 23.45 44.47
  A 0.73 0.72 -79.1 0 0 24.14 43.99
  Q 25.03 41.67 23.03 40.75
  A 0.57 0.53 -70.4 0 1 22.75 40.10"
/>
<path stroke="#e29996" vector-effect="non-scaling-stroke" d="
  M 32.80 57.82
  A 0.47 0.47 43.5 0 0 32.78 57.21
  L 26.29 49.82
  A 0.41 0.41 43.7 0 0 25.67 49.83
  L 19.37 57.33
  A 0.60 0.59 46.3 0 0 19.36 58.09
  L 25.71 66.14
  A 0.38 0.37 44.6 0 0 26.30 66.14
  L 32.80 57.82"
/>
<path stroke="#e29996" vector-effect="non-scaling-stroke" d="
  M 63.69 74.94
  Q 60.19 79.37 56.27 83.69
  A 0.59 0.57 46.7 0 0 56.26 84.44
  L 63.72 93.93
  A 0.39 0.37 -44.7 0 0 64.32 93.92
  L 71.75 84.41
  A 0.60 0.59 43.4 0 0 71.72 83.66
  L 64.12 74.74
  A 0.29 0.20 47.7 0 0 63.77 74.66
  Q 63.66 74.77 63.69 74.94"
/>
<path stroke="#e29996" vector-effect="non-scaling-stroke" d="
  M 101.74 101.75
  L 95.25 110.11
  A 0.58 0.57 43.7 0 0 95.27 110.84
  L 101.69 118.15
  A 0.42 0.41 45.1 0 0 102.32 118.16
  L 108.69 110.63
  A 0.61 0.58 46.4 0 0 108.69 109.88
  L 102.30 101.75
  A 0.35 0.35 90.0 0 0 101.74 101.75"
/>
<path stroke="#e29996" vector-effect="non-scaling-stroke" d="
  M 99.55 129.27
  Q 98.59 127.54 100.20 126.87
  A 0.84 0.58 -15.1 0 0 100.74 126.23
  L 100.68 124.09
  A 0.59 0.53 0.1 0 0 100.10 123.57
  L 94.26 123.50
  A 0.71 0.69 -79.5 0 0 93.59 123.97
  Q 92.49 127.03 95.32 127.15
  A 0.66 0.60 -3.2 0 1 95.92 127.64
  L 100.12 150.03
  A 0.82 0.76 -89.3 0 0 100.69 150.66
  Q 102.30 151.07 103.89 150.52
  A 0.90 0.82 86.6 0 0 104.44 149.84
  L 108.55 127.63
  A 0.62 0.58 5.1 0 1 109.15 127.16
  Q 111.94 127.12 110.94 124.11
  A 0.75 0.69 80.1 0 0 110.27 123.60
  L 104.41 123.58
  A 0.60 0.55 0.5 0 0 103.81 124.12
  L 103.76 126.23
  A 0.84 0.60 14.9 0 0 104.30 126.88
  Q 105.93 127.52 104.92 129.30
  A 0.86 0.85 15.2 0 1 104.16 129.73
  L 100.31 129.71
  A 0.88 0.87 -14.7 0 1 99.55 129.27"
/>
<path stroke="#e29996" vector-effect="non-scaling-stroke" d="
  M 25.79 25.29
  C 25.40 25.12 24.08 33.29 23.88 34.24
  A 0.53 0.53 -76.4 0 0 24.26 34.87
  Q 25.73 35.27 27.26 34.86
  A 0.56 0.53 77.2 0 0 27.63 34.23
  L 26.08 25.80
  A 0.73 0.38 88.1 0 0 25.79 25.29"
/>
<path stroke="#e29996" vector-effect="non-scaling-stroke" d="
  M 102.63 141.19
  L 104.13 133.77
  A 0.56 0.54 -77.1 0 0 103.74 133.13
  Q 102.27 132.72 100.74 133.14
  A 0.57 0.53 77.3 0 0 100.37 133.78
  L 101.74 141.16
  Q 102.17 143.45 102.63 141.19"
/>
</g>
<path fill="#020101" fill-opacity="0.039" d="
  M 6.70 16.68
  Q 6.85 15.42 8.22 15.41
  A 0.61 0.51 2.0 0 0 8.81 14.95
  L 9.03 13.04
  A 1.02 0.99 78.4 0 1 9.50 12.30
  Q 11.18 11.25 11.06 9.10
  A 0.49 0.46 88.2 0 1 11.52 8.58
  L 12.45 8.58
  A 0.60 0.53 -82.5 0 0 12.98 8.12
  Q 13.18 7.21 14.49 7.36
  A 0.66 0.66 15.8 0 0 15.17 6.98
  Q 16.03 5.14 18.23 5.48
  A 0.65 0.64 16.3 0 0 18.91 5.11
  Q 19.44 3.91 19.67 5.10
  A 0.59 0.57 83.7 0 0 20.23 5.57
  L 105.50 5.52
  Q 105.96 5.52 106.43 5.78
  Q 108.41 6.91 110.78 6.49
  A 0.51 0.49 79.3 0 1 111.35 6.89
  Q 111.66 8.40 112.99 8.90
  Q 113.55 9.11 113.84 9.39
  Q 117.13 12.52 119.59 17.02
  Q 119.75 17.30 119.87 17.59
  Q 121.92 22.27 121.67 27.75
  Q 121.53 30.78 122.10 28.92
  Q 122.24 28.47 122.31 28.93
  Q 122.51 30.36 122.20 31.72
  Q 122.08 32.24 122.02 31.70
  Q 121.56 27.84 121.45 33.59
  Q 121.35 39.02 121.47 44.51
  Q 121.52 46.64 122.20 44.91
  Q 122.36 44.52 122.36 44.94
  Q 122.45 56.15 122.46 67.35
  C 122.46 68.34 123.12 69.36 121.93 70.29
  A 1.10 0.89 -22.9 0 0 121.51 71.07
  L 121.47 150.53
  A 1.03 0.23 -50.1 0 1 121.13 151.19
  Q 120.99 151.39 121.25 151.58
  A 0.28 0.25 42.1 0 1 121.30 151.99
  Q 119.88 153.26 119.38 155.00
  A 1.26 1.10 -9.2 0 1 118.80 155.70
  Q 118.02 156.12 117.48 156.82
  A 1.20 1.12 14.2 0 1 116.70 157.25
  Q 115.25 157.44 115.43 158.99
  A 0.85 0.71 71.8 0 1 115.12 159.77
  L 112.45 161.51
  A 1.88 1.18 16.9 0 1 111.53 161.76
  Q 109.87 161.77 108.58 162.74
  A 0.25 0.23 61.2 0 1 108.22 162.62
  Q 108.06 162.19 107.83 162.48
  A 0.76 0.51 -68.0 0 1 107.43 162.75
  Q 103.14 163.46 98.85 163.20
  Q 91.71 162.76 91.62 162.76
  Q 74.38 162.56 70.75 162.79
  Q 62.26 163.30 57.68 162.83
  Q 57.38 162.79 56.97 163.03
  A 1.82 1.11 -47.4 0 1 56.07 163.29
  Q 54.12 163.21 52.19 163.40
  Q 50.46 163.57 48.35 163.39
  C 40.87 162.76 33.15 163.00 25.64 162.96
  C 20.03 162.93 16.32 162.20 11.97 159.31
  Q 11.50 159.00 11.21 158.53
  Q 10.06 156.66 8.71 154.82
  Q 7.06 152.60 6.45 150.99
  Q 4.71 146.39 4.98 141.47
  Q 5.27 136.10 5.27 136.00
  Q 5.15 42.56 5.30 20.82
  Q 5.31 19.43 6.42 17.61
  Q 6.63 17.26 6.70 16.68
  Z
  M 8.01 145.30
  L 8.27 148.27
  A 1.17 1.03 19.3 0 0 8.70 149.03
  Q 9.60 149.75 9.32 151.08
  A 0.57 0.52 16.1 0 0 9.69 151.68
  Q 10.28 151.91 10.41 152.53
  A 1.26 0.16 79.2 0 0 10.71 153.46
  L 14.15 157.15
  A 1.24 0.55 -10.7 0 0 15.05 157.36
  Q 15.83 157.31 16.01 157.99
  A 0.55 0.50 79.3 0 0 16.55 158.40
  Q 17.68 158.27 18.23 159.01
  A 1.20 0.90 68.9 0 0 18.98 159.48
  C 20.88 159.67 22.18 160.46 24.04 160.50
  C 41.65 160.93 59.26 160.69 76.86 160.74
  Q 95.68 160.80 102.69 160.71
  C 103.97 160.70 105.05 159.95 106.40 159.87
  Q 110.82 159.62 113.97 156.40
  A 1.67 1.28 11.3 0 1 114.82 155.98
  Q 116.60 155.68 116.57 153.83
  A 0.76 0.74 76.4 0 1 116.98 153.14
  C 119.52 151.87 117.68 150.12 118.90 148.83
  A 1.57 1.08 -29.2 0 0 119.30 148.02
  L 120.10 138.07
  A 0.82 0.65 21.8 0 0 119.71 137.39
  Q 119.11 137.00 119.73 136.19
  A 0.35 0.32 -42.6 0 0 119.76 135.83
  L 119.65 135.64
  A 1.18 1.06 -54.5 0 1 119.56 134.83
  Q 119.99 133.02 119.70 130.00
  C 118.84 121.18 120.36 108.37 120.02 100.81
  Q 119.34 85.66 119.72 70.51
  C 119.90 63.34 119.63 56.08 119.52 48.91
  C 119.51 48.51 119.57 48.64 119.75 48.37
  A 0.60 0.54 44.0 0 0 119.70 47.69
  Q 119.17 47.03 119.68 46.33
  A 0.58 0.47 44.7 0 0 119.61 45.68
  Q 119.39 45.42 119.40 45.00
  Q 119.70 38.06 119.62 31.12
  C 119.54 23.83 120.46 15.91 114.20 10.54
  Q 113.40 9.85 110.45 9.54
  Q 109.10 9.40 109.40 7.98
  A 0.37 0.36 -84.3 0 0 109.04 7.53
  Q 107.30 7.55 106.03 6.41
  A 1.37 1.15 62.6 0 0 105.17 6.05
  L 23.53 6.01
  A 0.33 0.30 -78.8 0 0 23.24 6.22
  L 23.17 6.42
  A 0.81 0.68 1.4 0 1 22.58 6.89
  L 17.65 7.82
  A 0.94 0.63 -80.8 0 0 17.07 8.44
  Q 16.83 9.18 15.97 9.23
  A 1.42 1.28 20.7 0 0 15.12 9.56
  L 11.69 12.52
  Q 11.28 12.88 11.13 13.28
  Q 10.54 14.91 9.37 16.13
  Q 9.01 16.51 8.89 16.95
  Q 7.47 22.40 7.24 28.04
  Q 7.20 28.97 7.75 30.86
  C 8.39 33.02 7.25 35.56 7.25 37.38
  Q 7.25 90.57 7.25 143.75
  Q 7.25 144.19 7.53 144.51
  A 1.34 0.40 42.1 0 1 8.01 145.30
  Z"
/>
<path fill="#010101" fill-opacity="0.145" d="
  M 7.53 144.51
  Q 7.25 144.19 7.25 143.75
  Q 7.25 90.57 7.25 37.38
  C 7.25 35.56 8.39 33.02 7.75 30.86
  Q 7.20 28.97 7.24 28.04
  Q 7.47 22.40 8.89 16.95
  Q 9.01 16.51 9.37 16.13
  Q 10.54 14.91 11.13 13.28
  Q 11.28 12.88 11.69 12.52
  L 15.12 9.56
  A 1.42 1.28 20.7 0 1 15.97 9.23
  Q 16.83 9.18 17.07 8.44
  A 0.94 0.63 -80.8 0 1 17.65 7.82
  L 22.58 6.89
  A 0.81 0.68 1.4 0 0 23.17 6.42
  L 23.24 6.22
  A 0.33 0.30 -78.8 0 1 23.53 6.01
  L 105.17 6.05
  A 1.37 1.15 62.6 0 1 106.03 6.41
  Q 107.30 7.55 109.04 7.53
  A 0.37 0.36 -84.3 0 1 109.40 7.98
  Q 109.10 9.40 110.45 9.54
  Q 113.40 9.85 114.20 10.54
  C 120.46 15.91 119.54 23.83 119.62 31.12
  Q 119.70 38.06 119.40 45.00
  Q 119.39 45.42 119.61 45.68
  A 0.58 0.47 44.7 0 1 119.68 46.33
  Q 119.17 47.03 119.70 47.69
  A 0.60 0.54 44.0 0 1 119.75 48.37
  C 119.57 48.64 119.51 48.51 119.52 48.91
  C 119.63 56.08 119.90 63.34 119.72 70.51
  Q 119.34 85.66 120.02 100.81
  C 120.36 108.37 118.84 121.18 119.70 130.00
  Q 119.99 133.02 119.56 134.83
  A 1.18 1.06 -54.5 0 0 119.65 135.64
  L 119.76 135.83
  A 0.35 0.32 -42.6 0 1 119.73 136.19
  Q 119.11 137.00 119.71 137.39
  A 0.82 0.65 21.8 0 1 120.10 138.07
  L 119.30 148.02
  A 1.57 1.08 -29.2 0 1 118.90 148.83
  C 117.68 150.12 119.52 151.87 116.98 153.14
  A 0.76 0.74 76.4 0 0 116.57 153.83
  Q 116.60 155.68 114.82 155.98
  A 1.67 1.28 11.3 0 0 113.97 156.40
  Q 110.82 159.62 106.40 159.87
  C 105.05 159.95 103.97 160.70 102.69 160.71
  Q 95.68 160.80 76.86 160.74
  C 59.26 160.69 41.65 160.93 24.04 160.50
  C 22.18 160.46 20.88 159.67 18.98 159.48
  A 1.20 0.90 68.9 0 1 18.23 159.01
  Q 17.68 158.27 16.55 158.40
  A 0.55 0.50 79.3 0 1 16.01 157.99
  Q 15.83 157.31 15.05 157.36
  A 1.24 0.55 -10.7 0 1 14.15 157.15
  L 10.71 153.46
  A 1.26 0.16 79.2 0 1 10.41 152.53
  Q 10.28 151.91 9.69 151.68
  A 0.57 0.52 16.1 0 1 9.32 151.08
  Q 9.60 149.75 8.70 149.03
  A 1.17 1.03 19.3 0 1 8.27 148.27
  L 8.01 145.30
  A 1.34 0.40 42.1 0 0 7.53 144.51
  Z
  M 14.11 18.49
  C 13.79 20.32 13.51 21.91 13.51 23.85
  Q 13.48 85.27 13.52 146.68
  Q 13.52 150.01 17.00 152.96
  Q 19.67 155.18 22.06 155.19
  Q 59.16 155.26 96.25 155.29
  Q 100.10 156.19 104.00 155.29
  C 112.22 155.26 114.43 150.29 114.45 142.77
  Q 114.57 108.38 114.46 74.00
  Q 115.05 58.75 114.46 43.50
  Q 114.52 33.99 114.51 24.49
  C 114.50 15.39 110.65 12.75 101.63 12.75
  Q 63.60 12.74 25.57 12.76
  C 20.00 12.76 16.80 13.78 14.11 18.49
  Z"
/>
<path fill="#ffffff" d="
  M 114.46 43.50
  Q 113.94 58.75 114.46 74.00
  Q 114.57 108.38 114.45 142.77
  C 114.43 150.29 112.22 155.26 104.00 155.29
  L 96.25 155.29
  Q 59.16 155.26 22.06 155.19
  Q 19.67 155.18 17.00 152.96
  Q 14.00 148.78 14.00 147.25
  Q 13.92 82.88 14.11 18.49
  C 16.80 13.78 20.00 12.76 25.57 12.76
  Q 63.60 12.74 101.63 12.75
  C 110.65 12.75 114.50 15.39 114.51 24.49
  Q 114.52 33.99 114.46 43.50
  Z
  M 22.75 40.10
  L 23.07 38.88
  A 0.75 0.52 -80.0 0 1 23.63 38.32
  L 27.81 38.34
  A 0.85 0.76 76.1 0 1 28.53 38.83
  Q 29.38 40.62 27.81 41.17
  A 0.79 0.56 -13.0 0 0 27.26 41.78
  L 27.32 43.92
  A 0.59 0.52 0.1 0 0 27.90 44.43
  L 33.74 44.50
  A 0.71 0.69 -79.5 0 0 34.41 44.03
  Q 35.51 40.97 32.68 40.84
  A 0.63 0.60 -4.0 0 1 32.09 40.35
  L 27.90 17.97
  A 0.82 0.74 90.0 0 0 27.33 17.34
  Q 25.71 16.94 24.11 17.48
  A 0.92 0.84 87.2 0 0 23.55 18.16
  L 19.43 40.37
  A 0.62 0.58 4.6 0 1 18.84 40.84
  Q 16.06 40.89 17.05 43.90
  A 0.74 0.68 79.9 0 0 17.71 44.40
  L 23.45 44.47
  A 0.73 0.72 -79.1 0 0 24.14 43.99
  Q 25.03 41.67 23.03 40.75
  A 0.57 0.53 -70.4 0 1 22.75 40.10
  Z
  M 32.80 57.82
  A 0.47 0.47 43.5 0 0 32.78 57.21
  L 26.29 49.82
  A 0.41 0.41 43.7 0 0 25.67 49.83
  L 19.37 57.33
  A 0.60 0.59 46.3 0 0 19.36 58.09
  L 25.71 66.14
  A 0.38 0.37 44.6 0 0 26.30 66.14
  L 32.80 57.82
  Z
  M 63.69 74.94
  Q 60.19 79.37 56.27 83.69
  A 0.59 0.57 46.7 0 0 56.26 84.44
  L 63.72 93.93
  A 0.39 0.37 -44.7 0 0 64.32 93.92
  L 71.75 84.41
  A 0.60 0.59 43.4 0 0 71.72 83.66
  L 64.12 74.74
  A 0.29 0.20 47.7 0 0 63.77 74.66
  Q 63.66 74.77 63.69 74.94
  Z
  M 101.74 101.75
  L 95.25 110.11
  A 0.58 0.57 43.7 0 0 95.27 110.84
  L 101.69 118.15
  A 0.42 0.41 45.1 0 0 102.32 118.16
  L 108.69 110.63
  A 0.61 0.58 46.4 0 0 108.69 109.88
  L 102.30 101.75
  A 0.35 0.35 90.0 0 0 101.74 101.75
  Z
  M 99.55 129.27
  Q 98.59 127.54 100.20 126.87
  A 0.84 0.58 -15.1 0 0 100.74 126.23
  L 100.68 124.09
  A 0.59 0.53 0.1 0 0 100.10 123.57
  L 94.26 123.50
  A 0.71 0.69 -79.5 0 0 93.59 123.97
  Q 92.49 127.03 95.32 127.15
  A 0.66 0.60 -3.2 0 1 95.92 127.64
  L 100.12 150.03
  A 0.82 0.76 -89.3 0 0 100.69 150.66
  Q 102.30 151.07 103.89 150.52
  A 0.90 0.82 86.6 0 0 104.44 149.84
  L 108.55 127.63
  A 0.62 0.58 5.1 0 1 109.15 127.16
  Q 111.94 127.12 110.94 124.11
  A 0.75 0.69 80.1 0 0 110.27 123.60
  L 104.41 123.58
  A 0.60 0.55 0.5 0 0 103.81 124.12
  L 103.76 126.23
  A 0.84 0.60 14.9 0 0 104.30 126.88
  Q 105.93 127.52 104.92 129.30
  A 0.86 0.85 15.2 0 1 104.16 129.73
  L 100.31 129.71
  A 0.88 0.87 -14.7 0 1 99.55 129.27
  Z"
/>
<path fill="#c4332c" d="
  M 23.03 40.75
  Q 25.03 41.67 24.14 43.99
  A 0.73 0.72 -79.1 0 1 23.45 44.47
  L 17.71 44.40
  A 0.74 0.68 79.9 0 1 17.05 43.90
  Q 16.06 40.89 18.84 40.84
  A 0.62 0.58 4.6 0 0 19.43 40.37
  L 23.55 18.16
  A 0.92 0.84 87.2 0 1 24.11 17.48
  Q 25.71 16.94 27.33 17.34
  A 0.82 0.74 90.0 0 1 27.90 17.97
  L 32.09 40.35
  A 0.63 0.60 -4.0 0 0 32.68 40.84
  Q 35.51 40.97 34.41 44.03
  A 0.71 0.69 -79.5 0 1 33.74 44.50
  L 27.90 44.43
  A 0.59 0.52 0.1 0 1 27.32 43.92
  L 27.26 41.78
  A 0.79 0.56 -13.0 0 1 27.81 41.17
  Q 29.38 40.62 28.53 38.83
  A 0.85 0.76 76.1 0 0 27.81 38.34
  L 23.63 38.32
  A 0.75 0.52 -80.0 0 0 23.07 38.88
  L 22.75 40.10
  A 0.57 0.53 -70.4 0 0 23.03 40.75
  Z
  M 25.79 25.29
  C 25.40 25.12 24.08 33.29 23.88 34.24
  A 0.53 0.53 -76.4 0 0 24.26 34.87
  Q 25.73 35.27 27.26 34.86
  A 0.56 0.53 77.2 0 0 27.63 34.23
  L 26.08 25.80
  A 0.73 0.38 88.1 0 0 25.79 25.29
  Z"
/>
<path fill="#f2f4f5" fill-opacity="0.973" d="
  M 14.11 18.49
  Q 13.92 82.88 14.00 147.25
  Q 14.00 148.78 17.00 152.96
  Q 13.52 150.01 13.52 146.68
  Q 13.48 85.27 13.51 23.85
  C 13.51 21.91 13.79 20.32 14.11 18.49
  Z"
/>
<path fill="#ffffff" d="
  M 23.88 34.24
  C 24.08 33.29 25.40 25.12 25.79 25.29
  A 0.73 0.38 88.1 0 1 26.08 25.80
  L 27.63 34.23
  A 0.56 0.53 77.2 0 1 27.26 34.86
  Q 25.73 35.27 24.26 34.87
  A 0.53 0.53 -76.4 0 1 23.88 34.24
  Z"
/>
<path fill="#f3efed" fill-opacity="0.898" d="
  M 114.46 43.50
  Q 115.05 58.75 114.46 74.00
  Q 113.94 58.75 114.46 43.50
  Z"
/>
<path fill="#c4332c" d="
  M 32.80 57.82
  L 26.30 66.14
  A 0.38 0.37 44.6 0 1 25.71 66.14
  L 19.36 58.09
  A 0.60 0.59 46.3 0 1 19.37 57.33
  L 25.67 49.83
  A 0.41 0.41 43.7 0 1 26.29 49.82
  L 32.78 57.21
  A 0.47 0.47 43.5 0 1 32.80 57.82
  Z"
/>
<path fill="#c4332c" d="
  M 63.69 74.94
  Q 63.66 74.77 63.77 74.66
  A 0.29 0.20 47.7 0 1 64.12 74.74
  L 71.72 83.66
  A 0.60 0.59 43.4 0 1 71.75 84.41
  L 64.32 93.92
  A 0.39 0.37 -44.7 0 1 63.72 93.93
  L 56.26 84.44
  A 0.59 0.57 46.7 0 1 56.27 83.69
  Q 60.19 79.37 63.69 74.94
  Z"
/>
<path fill="#c4332c" d="
  M 101.74 101.75
  A 0.35 0.35 -90.0 0 1 102.30 101.75
  L 108.69 109.88
  A 0.61 0.58 46.4 0 1 108.69 110.63
  L 102.32 118.16
  A 0.42 0.41 45.1 0 1 101.69 118.15
  L 95.27 110.84
  A 0.58 0.57 43.7 0 1 95.25 110.11
  L 101.74 101.75
  Z"
/>
<path fill="#c4332c" d="
  M 100.31 129.71
  L 104.16 129.73
  A 0.86 0.85 15.2 0 0 104.92 129.30
  Q 105.93 127.52 104.30 126.88
  A 0.84 0.60 14.9 0 1 103.76 126.23
  L 103.81 124.12
  A 0.60 0.55 0.5 0 1 104.41 123.58
  L 110.27 123.60
  A 0.75 0.69 80.1 0 1 110.94 124.11
  Q 111.94 127.12 109.15 127.16
  A 0.62 0.58 5.1 0 0 108.55 127.63
  L 104.44 149.84
  A 0.90 0.82 86.6 0 1 103.89 150.52
  Q 102.30 151.07 100.69 150.66
  A 0.82 0.76 -89.3 0 1 100.12 150.03
  L 95.92 127.64
  A 0.66 0.60 -3.2 0 0 95.32 127.15
  Q 92.49 127.03 93.59 123.97
  A 0.71 0.69 -79.5 0 1 94.26 123.50
  L 100.10 123.57
  A 0.59 0.53 0.1 0 1 100.68 124.09
  L 100.74 126.23
  A 0.84 0.58 -15.1 0 1 100.20 126.87
  Q 98.59 127.54 99.55 129.27
  A 0.88 0.87 -14.7 0 0 100.31 129.71
  Z
  M 102.63 141.19
  L 104.13 133.77
  A 0.56 0.54 -77.1 0 0 103.74 133.13
  Q 102.27 132.72 100.74 133.14
  A 0.57 0.53 77.3 0 0 100.37 133.78
  L 101.74 141.16
  Q 102.17 143.45 102.63 141.19
  Z"
/>
<path fill="#ffffff" d="
  M 102.63 141.19
  Q 102.17 143.45 101.74 141.16
  L 100.37 133.78
  A 0.57 0.53 77.3 0 1 100.74 133.14
  Q 102.27 132.72 103.74 133.13
  A 0.56 0.54 -77.1 0 1 104.13 133.77
  L 102.63 141.19
  Z"
/>
<path fill="#16181a" fill-opacity="0.910" d="
  M 96.25 155.29
  L 104.00 155.29
  Q 100.10 156.19 96.25 155.29
  Z"
/>
</svg>
