<?xml version="1.0" encoding="UTF-8" standalone="no"?>
<svg xmlns="http://www.w3.org/2000/svg" version="1.2" baseProfile="tiny" viewBox="0 0 128 168">
<g stroke-width="0.00" fill="none" stroke-linecap="butt">
<path stroke="#e7e7e7" stroke-opacity="0.553" vector-effect="non-scaling-stroke" d="
  M 109.46 154.25
  Q 113.75 151.54 114.54 146.50"
/>
<path stroke="#e7e7e7" stroke-opacity="0.553" vector-effect="non-scaling-stroke" d="
  M 114.50 21.04
  Q 112.70 12.75 104.50 12.75
  Q 64.71 12.74 24.92 12.77
  C 19.86 12.77 16.50 13.94 14.46 18.50"
/>
<path stroke="#d6d7d7" stroke-opacity="0.596" vector-effect="non-scaling-stroke" d="
  M 114.50 21.04
  L 114.46 46.50"
/>
<path stroke="#f9f7f6" stroke-opacity="0.949" vector-effect="non-scaling-stroke" d="
  M 114.46 46.50
  Q 113.94 60.75 114.46 75.00"
/>
<path stroke="#d6d7d7" stroke-opacity="0.596" vector-effect="non-scaling-stroke" d="
  M 114.46 75.00
  L 114.54 146.50"
/>
<path stroke="#d2d2d2" stroke-opacity="0.608" vector-effect="non-scaling-stroke" d="
  M 109.46 154.25
  Q 106.84 155.36 104.00 155.29"
/>
<path stroke="#8f9091" stroke-opacity="0.957" vector-effect="non-scaling-stroke" d="
  M 104.00 155.29
  L 94.25 155.29"
/>
<path stroke="#d2d2d2" stroke-opacity="0.608" vector-effect="non-scaling-stroke" d="
  M 94.25 155.29
  L 87.00 155.29"
/>
<path stroke="#8f9091" stroke-opacity="0.957" vector-effect="non-scaling-stroke" d="
  M 87.00 155.29
  L 83.25 155.29"
/>
<path stroke="#d2d2d2" stroke-opacity="0.608" vector-effect="non-scaling-stroke" d="
  M 83.25 155.29
  Q 53.25 155.22 23.25 155.21
  Q 19.70 155.21 17.00 152.96"
/>
<path stroke="#f9fafa" stroke-opacity="0.988" vector-effect="non-scaling-stroke" d="
  M 17.00 152.96
  Q 14.00 148.78 14.00 147.25
  Q 14.00 84.71 14.00 22.17
  C 14.00 20.99 14.52 19.80 14.46 18.50"
/>
<path stroke="#e29996" vector-effect="non-scaling-stroke" d="
  M 22.71 40.21
  L 23.15 38.77
  A 0.70 0.66 -81.1 0 1 23.79 38.27
  L 27.66 38.26
  A 0.93 0.89 -14.7 0 1 28.45 38.70
  Q 29.47 40.44 27.80 41.16
  A 0.88 0.62 -16.2 0 0 27.26 41.83
  L 27.31 43.91
  A 0.60 0.54 -0.4 0 0 27.90 44.43
  L 33.74 44.50
  A 0.71 0.69 -79.5 0 0 34.41 44.03
  Q 35.51 40.97 32.68 40.84
  A 0.63 0.60 -4.0 0 1 32.09 40.35
  L 27.90 17.97
  A 0.82 0.74 90.0 0 0 27.33 17.34
  Q 25.71 16.94 24.11 17.48
  A 0.90 0.82 86.6 0 0 23.56 18.16
  L 19.43 40.37
  A 0.62 0.57 3.9 0 1 18.84 40.84
  Q 16.06 40.89 17.05 43.90
  A 0.74 0.68 79.9 0 0 17.71 44.40
  L 23.45 44.48
  A 0.76 0.71 -78.3 0 0 24.14 43.99
  Q 25.07 41.61 23.04 40.84
  A 0.54 0.51 18.9 0 1 22.71 40.21"
/>
<path stroke="#e29996" vector-effect="non-scaling-stroke" d="
  M 25.49 52.05
  Q 21.41 47.30 19.06 53.32
  A 1.41 1.35 47.3 0 0 19.04 54.26
  Q 21.10 60.45 25.63 65.64
  A 0.43 0.42 43.5 0 0 26.28 65.63
  Q 29.83 61.05 32.55 55.70
  Q 34.08 52.68 31.43 50.58
  Q 28.61 48.36 26.08 52.03
  A 0.38 0.37 42.1 0 1 25.49 52.05"
/>
<path stroke="#e29996" vector-effect="non-scaling-stroke" d="
  M 63.50 77.33
  Q 60.44 72.39 57.11 76.18
  Q 55.05 78.51 56.35 81.34
  Q 59.25 87.64 63.60 93.08
  A 0.39 0.39 43.8 0 0 64.22 93.07
  C 66.53 89.92 74.24 80.64 71.01 76.24
  Q 68.25 72.49 64.02 77.37
  A 0.32 0.32 -40.4 0 1 63.50 77.33"
/>
<path stroke="#e29996" vector-effect="non-scaling-stroke" d="
  M 95.93 116.69
  C 98.09 119.33 100.01 117.93 101.90 115.96
  A 0.44 0.43 53.5 0 1 102.61 116.07
  C 104.90 120.77 110.57 116.36 108.29 111.47
  Q 106.32 107.26 102.50 102.35
  A 0.41 0.40 46.3 0 0 101.87 102.33
  C 99.44 105.26 93.10 113.25 95.93 116.69"
/>
<path stroke="#e29996" vector-effect="non-scaling-stroke" d="
  M 99.55 129.27
  Q 98.59 127.54 100.20 126.87
  A 0.84 0.58 -15.1 0 0 100.74 126.23
  L 100.68 124.09
  A 0.59 0.53 0.1 0 0 100.10 123.57
  L 94.26 123.50
  A 0.71 0.69 -79.5 0 0 93.59 123.97
  Q 92.49 127.03 95.32 127.15
  A 0.63 0.59 -3.3 0 1 95.91 127.64
  L 100.12 150.01
  A 0.90 0.81 -87.8 0 0 100.68 150.68
  Q 102.54 151.27 104.04 150.27
  A 1.29 1.06 82.4 0 0 104.53 149.48
  L 108.57 127.64
  A 0.62 0.59 4.6 0 1 109.16 127.16
  Q 111.93 127.11 110.95 124.12
  A 0.77 0.70 79.5 0 0 110.27 123.60
  L 104.41 123.58
  A 0.60 0.55 0.5 0 0 103.81 124.12
  L 103.76 126.23
  A 0.84 0.60 14.9 0 0 104.30 126.88
  Q 105.93 127.52 104.92 129.30
  A 0.86 0.85 15.2 0 1 104.16 129.73
  L 100.31 129.71
  A 0.88 0.87 -14.7 0 1 99.55 129.27"
/>
<path stroke="#e29996" vector-effect="non-scaling-stroke" d="
  M 25.51 25.94
  L 23.88 34.23
  A 0.55 0.53 -76.5 0 0 24.26 34.87
  Q 25.74 35.27 27.22 34.86
  A 0.57 0.54 77.2 0 0 27.61 34.21
  L 25.96 25.93
  Q 25.73 24.80 25.51 25.94"
/>
<path stroke="#e29996" vector-effect="non-scaling-stroke" d="
  M 102.63 141.19
  L 104.13 133.77
  A 0.56 0.54 -77.1 0 0 103.74 133.13
  Q 102.27 132.72 100.74 133.14
  A 0.57 0.53 77.3 0 0 100.37 133.78
  L 101.74 141.16
  Q 102.17 143.45 102.63 141.19"
/>
</g>
<path fill="#010001" fill-opacity="0.106" d="
  M 22.48 161.05
  L 18.53 160.96
  A 0.40 0.37 -83.5 0 1 18.18 160.49
  Q 18.33 159.71 17.83 159.04
  A 0.93 0.70 -20.2 0 0 17.00 158.79
  Q 14.85 159.15 13.94 157.25
  Q 13.72 156.78 13.35 156.52
  Q 10.56 154.52 8.98 151.51
  Q 8.33 150.27 8.22 149.51
  C 7.79 146.61 6.99 144.03 6.99 141.12
  Q 7.01 88.06 7.20 35.00
  C 7.22 29.68 6.14 21.68 8.94 16.93
  Q 9.94 15.22 10.99 13.53
  C 12.05 11.82 13.73 10.80 15.03 9.18
  A 1.07 0.84 15.5 0 1 15.83 8.85
  Q 16.63 8.85 17.07 8.21
  A 0.87 0.83 -69.6 0 1 17.81 7.85
  Q 18.76 7.92 19.22 7.12
  A 0.69 0.64 -69.6 0 1 19.91 6.77
  Q 21.70 7.12 23.08 6.30
  A 1.98 1.26 -49.8 0 1 24.00 6.01
  L 105.17 6.06
  A 1.43 1.15 60.9 0 1 106.03 6.41
  Q 107.31 7.53 109.08 7.29
  A 0.72 0.62 71.4 0 1 109.74 7.68
  Q 110.14 8.43 111.09 8.28
  A 0.79 0.64 64.2 0 1 111.78 8.60
  Q 112.10 9.05 112.81 9.38
  C 117.29 11.44 120.50 18.51 120.51 23.23
  C 120.51 30.77 120.09 38.64 120.81 46.12
  C 120.98 47.79 120.42 49.46 120.45 50.95
  C 120.68 62.39 120.39 76.18 120.42 85.27
  Q 120.49 111.91 120.62 138.56
  C 120.62 140.31 119.87 143.10 120.44 145.54
  A 1.74 0.68 -61.8 0 1 120.33 146.47
  L 118.53 152.21
  A 0.93 0.79 -88.0 0 1 117.98 152.81
  Q 116.93 153.13 116.74 154.19
  A 1.69 1.01 84.3 0 1 116.34 155.04
  Q 113.05 158.12 108.95 159.97
  Q 108.65 160.11 108.43 160.40
  A 0.83 0.71 -64.9 0 1 107.70 160.73
  Q 105.03 160.24 102.74 161.79
  A 1.67 1.46 -58.3 0 1 101.83 162.07
  Q 92.15 161.95 82.53 162.07
  C 81.52 162.08 79.68 162.61 78.17 162.24
  Q 77.02 161.95 76.28 161.99
  Q 71.84 162.22 65.26 161.51
  C 64.80 161.46 63.54 161.95 62.82 161.96
  Q 42.75 162.22 22.69 161.71
  Q 22.43 161.71 22.60 161.47
  Q 22.66 161.38 22.68 161.27
  A 0.21 0.18 6.1 0 0 22.48 161.05
  Z
  M 107.29 11.89
  Q 107.84 12.13 109.00 11.71
  Q 109.66 11.48 108.97 11.34
  Q 106.98 10.96 105.25 10.95
  Q 64.52 10.74 23.80 10.77
  Q 23.55 10.77 23.32 10.80
  Q 21.22 11.17 23.50 11.48
  Q 23.74 11.51 24.01 11.51
  Q 65.22 11.44 106.43 11.56
  Q 106.56 11.56 107.29 11.89
  Z
  M 14.46 18.50
  L 14.00 19.54
  C 12.69 19.07 14.84 22.11 11.57 20.58
  A 0.34 0.33 12.9 0 0 11.09 20.88
  Q 10.91 81.93 11.03 143.12
  C 11.03 145.16 11.79 147.13 11.83 149.36
  A 0.73 0.66 -83.0 0 0 12.30 150.03
  Q 13.87 150.49 12.24 148.94
  A 2.42 0.84 -78.5 0 1 11.98 147.00
  Q 12.22 145.17 13.46 146.50
  Q 14.12 149.88 16.29 152.50
  Q 16.41 153.41 15.66 153.65
  A 0.30 0.27 -28.6 0 0 15.50 154.10
  Q 18.70 157.55 23.47 157.32
  A 1.70 0.94 -16.1 0 1 24.40 157.53
  L 24.94 157.89
  A 1.73 0.95 48.9 0 0 25.81 158.21
  L 103.08 158.06
  A 0.25 0.24 10.3 0 0 103.31 157.91
  L 103.37 157.75
  A 0.50 0.50 8.0 0 1 103.81 157.42
  Q 107.45 157.26 110.53 155.46
  A 1.01 0.86 -14.9 0 0 111.03 154.74
  C 111.20 152.98 109.55 156.33 109.46 154.25
  Q 113.75 151.54 114.54 146.50
  Q 114.84 148.63 116.16 147.58
  A 1.36 1.08 79.3 0 0 116.60 146.74
  C 116.94 144.00 117.29 141.22 117.28 138.41
  Q 117.16 108.46 117.11 78.50
  C 117.07 61.00 117.73 42.65 117.42 24.67
  A 1.56 1.34 29.8 0 0 117.11 23.79
  Q 115.94 22.20 115.97 20.23
  A 0.76 0.53 -85.0 0 0 115.56 19.51
  C 114.82 19.33 115.61 22.22 114.50 21.04
  Q 112.70 12.75 104.50 12.75
  Q 64.71 12.74 24.92 12.77
  C 19.86 12.77 16.50 13.94 14.46 18.50
  Z"
/>
<path fill="#010101" fill-opacity="0.216" d="
  M 106.43 11.56
  Q 65.22 11.44 24.01 11.51
  Q 23.74 11.51 23.50 11.48
  Q 21.22 11.17 23.32 10.80
  Q 23.55 10.77 23.80 10.77
  Q 64.52 10.74 105.25 10.95
  Q 106.98 10.96 108.97 11.34
  Q 109.66 11.48 109.00 11.71
  Q 107.84 12.13 107.29 11.89
  Q 106.56 11.56 106.43 11.56
  Z"
/>
<path fill="#ffffff" d="
  M 114.50 21.04
  L 114.46 46.50
  Q 113.94 60.75 114.46 75.00
  L 114.54 146.50
  Q 113.75 151.54 109.46 154.25
  Q 106.84 155.36 104.00 155.29
  L 94.25 155.29
  L 87.00 155.29
  L 83.25 155.29
  Q 53.25 155.22 23.25 155.21
  Q 19.70 155.21 17.00 152.96
  Q 14.00 148.78 14.00 147.25
  Q 14.00 84.71 14.00 22.17
  C 14.00 20.99 14.52 19.80 14.46 18.50
  C 16.50 13.94 19.86 12.77 24.92 12.77
  Q 64.71 12.74 104.50 12.75
  Q 112.70 12.75 114.50 21.04
  Z
  M 22.71 40.21
  L 23.15 38.77
  A 0.70 0.66 -81.1 0 1 23.79 38.27
  L 27.66 38.26
  A 0.93 0.89 -14.7 0 1 28.45 38.70
  Q 29.47 40.44 27.80 41.16
  A 0.88 0.62 -16.2 0 0 27.26 41.83
  L 27.31 43.91
  A 0.60 0.54 -0.4 0 0 27.90 44.43
  L 33.74 44.50
  A 0.71 0.69 -79.5 0 0 34.41 44.03
  Q 35.51 40.97 32.68 40.84
  A 0.63 0.60 -4.0 0 1 32.09 40.35
  L 27.90 17.97
  A 0.82 0.74 90.0 0 0 27.33 17.34
  Q 25.71 16.94 24.11 17.48
  A 0.90 0.82 86.6 0 0 23.56 18.16
  L 19.43 40.37
  A 0.62 0.57 3.9 0 1 18.84 40.84
  Q 16.06 40.89 17.05 43.90
  A 0.74 0.68 79.9 0 0 17.71 44.40
  L 23.45 44.48
  A 0.76 0.71 -78.3 0 0 24.14 43.99
  Q 25.07 41.61 23.04 40.84
  A 0.54 0.51 18.9 0 1 22.71 40.21
  Z
  M 25.49 52.05
  Q 21.41 47.30 19.06 53.32
  A 1.41 1.35 47.3 0 0 19.04 54.26
  Q 21.10 60.45 25.63 65.64
  A 0.43 0.42 43.5 0 0 26.28 65.63
  Q 29.83 61.05 32.55 55.70
  Q 34.08 52.68 31.43 50.58
  Q 28.61 48.36 26.08 52.03
  A 0.38 0.37 42.1 0 1 25.49 52.05
  Z
  M 63.50 77.33
  Q 60.44 72.39 57.11 76.18
  Q 55.05 78.51 56.35 81.34
  Q 59.25 87.64 63.60 93.08
  A 0.39 0.39 43.8 0 0 64.22 93.07
  C 66.53 89.92 74.24 80.64 71.01 76.24
  Q 68.25 72.49 64.02 77.37
  A 0.32 0.32 -40.4 0 1 63.50 77.33
  Z
  M 95.93 116.69
  C 98.09 119.33 100.01 117.93 101.90 115.96
  A 0.44 0.43 53.5 0 1 102.61 116.07
  C 104.90 120.77 110.57 116.36 108.29 111.47
  Q 106.32 107.26 102.50 102.35
  A 0.41 0.40 46.3 0 0 101.87 102.33
  C 99.44 105.26 93.10 113.25 95.93 116.69
  Z
  M 99.55 129.27
  Q 98.59 127.54 100.20 126.87
  A 0.84 0.58 -15.1 0 0 100.74 126.23
  L 100.68 124.09
  A 0.59 0.53 0.1 0 0 100.10 123.57
  L 94.26 123.50
  A 0.71 0.69 -79.5 0 0 93.59 123.97
  Q 92.49 127.03 95.32 127.15
  A 0.63 0.59 -3.3 0 1 95.91 127.64
  L 100.12 150.01
  A 0.90 0.81 -87.8 0 0 100.68 150.68
  Q 102.54 151.27 104.04 150.27
  A 1.29 1.06 82.4 0 0 104.53 149.48
  L 108.57 127.64
  A 0.62 0.59 4.6 0 1 109.16 127.16
  Q 111.93 127.11 110.95 124.12
  A 0.77 0.70 79.5 0 0 110.27 123.60
  L 104.41 123.58
  A 0.60 0.55 0.5 0 0 103.81 124.12
  L 103.76 126.23
  A 0.84 0.60 14.9 0 0 104.30 126.88
  Q 105.93 127.52 104.92 129.30
  A 0.86 0.85 15.2 0 1 104.16 129.73
  L 100.31 129.71
  A 0.88 0.87 -14.7 0 1 99.55 129.27
  Z"
/>
<path fill="#c4332c" d="
  M 23.04 40.84
  Q 25.07 41.61 24.14 43.99
  A 0.76 0.71 -78.3 0 1 23.45 44.48
  L 17.71 44.40
  A 0.74 0.68 79.9 0 1 17.05 43.90
  Q 16.06 40.89 18.84 40.84
  A 0.62 0.57 3.9 0 0 19.43 40.37
  L 23.56 18.16
  A 0.90 0.82 86.6 0 1 24.11 17.48
  Q 25.71 16.94 27.33 17.34
  A 0.82 0.74 90.0 0 1 27.90 17.97
  L 32.09 40.35
  A 0.63 0.60 -4.0 0 0 32.68 40.84
  Q 35.51 40.97 34.41 44.03
  A 0.71 0.69 -79.5 0 1 33.74 44.50
  L 27.90 44.43
  A 0.60 0.54 -0.4 0 1 27.31 43.91
  L 27.26 41.83
  A 0.88 0.62 -16.2 0 1 27.80 41.16
  Q 29.47 40.44 28.45 38.70
  A 0.93 0.89 -14.7 0 0 27.66 38.26
  L 23.79 38.27
  A 0.70 0.66 -81.1 0 0 23.15 38.77
  L 22.71 40.21
  A 0.54 0.51 18.9 0 0 23.04 40.84
  Z
  M 25.51 25.94
  L 23.88 34.23
  A 0.55 0.53 -76.5 0 0 24.26 34.87
  Q 25.74 35.27 27.22 34.86
  A 0.57 0.54 77.2 0 0 27.61 34.21
  L 25.96 25.93
  Q 25.73 24.80 25.51 25.94
  Z"
/>
<path fill="#f2f4f5" fill-opacity="0.973" d="
  M 14.46 18.50
  C 14.52 19.80 14.00 20.99 14.00 22.17
  Q 14.00 84.71 14.00 147.25
  Q 14.00 148.78 17.00 152.96
  L 16.29 152.50
  Q 14.12 149.88 13.46 146.50
  Q 13.48 84.12 13.74 21.75
  Q 13.75 20.65 14.00 19.54
  L 14.46 18.50
  Z"
/>
<path fill="#020504" fill-opacity="0.192" d="
  M 14.00 19.54
  Q 13.75 20.65 13.74 21.75
  Q 13.48 84.12 13.46 146.50
  Q 12.22 145.17 11.98 147.00
  A 2.42 0.84 -78.5 0 0 12.24 148.94
  Q 13.87 150.49 12.30 150.03
  A 0.73 0.66 -83.0 0 1 11.83 149.36
  C 11.79 147.13 11.03 145.16 11.03 143.12
  Q 10.91 81.93 11.09 20.88
  A 0.34 0.33 12.9 0 1 11.57 20.58
  C 14.84 22.11 12.69 19.07 14.00 19.54
  Z"
/>
<path fill="#020504" fill-opacity="0.192" d="
  M 114.54 146.50
  L 114.46 75.00
  Q 115.11 60.75 114.46 46.50
  L 114.50 21.04
  C 115.61 22.22 114.82 19.33 115.56 19.51
  A 0.76 0.53 -85.0 0 1 115.97 20.23
  Q 115.94 22.20 117.11 23.79
  A 1.56 1.34 29.8 0 1 117.42 24.67
  C 117.73 42.65 117.07 61.00 117.11 78.50
  Q 117.16 108.46 117.28 138.41
  C 117.29 141.22 116.94 144.00 116.60 146.74
  A 1.36 1.08 79.3 0 1 116.16 147.58
  Q 114.84 148.63 114.54 146.50
  Z"
/>
<path fill="#ffffff" d="
  M 25.51 25.94
  Q 25.73 24.80 25.96 25.93
  L 27.61 34.21
  A 0.57 0.54 77.2 0 1 27.22 34.86
  Q 25.74 35.27 24.26 34.87
  A 0.55 0.53 -76.5 0 1 23.88 34.23
  L 25.51 25.94
  Z"
/>
<path fill="#f3efed" fill-opacity="0.898" d="
  M 114.46 46.50
  Q 115.11 60.75 114.46 75.00
  Q 113.94 60.75 114.46 46.50
  Z"
/>
<path fill="#c4332c" d="
  M 26.08 52.03
  Q 28.61 48.36 31.43 50.58
  Q 34.08 52.68 32.55 55.70
  Q 29.83 61.05 26.28 65.63
  A 0.43 0.42 43.5 0 1 25.63 65.64
  Q 21.10 60.45 19.04 54.26
  A 1.41 1.35 47.3 0 1 19.06 53.32
  Q 21.41 47.30 25.49 52.05
  A 0.38 0.37 42.1 0 0 26.08 52.03
  Z"
/>
<path fill="#c4332c" d="
  M 63.50 77.33
  A 0.32 0.32 -40.4 0 0 64.02 77.37
  Q 68.25 72.49 71.01 76.24
  C 74.24 80.64 66.53 89.92 64.22 93.07
  A 0.39 0.39 43.8 0 1 63.60 93.08
  Q 59.25 87.64 56.35 81.34
  Q 55.05 78.51 57.11 76.18
  Q 60.44 72.39 63.50 77.33
  Z"
/>
<path fill="#c4332c" d="
  M 95.93 116.69
  C 93.10 113.25 99.44 105.26 101.87 102.33
  A 0.41 0.40 46.3 0 1 102.50 102.35
  Q 106.32 107.26 108.29 111.47
  C 110.57 116.36 104.90 120.77 102.61 116.07
  A 0.44 0.43 53.5 0 0 101.90 115.96
  C 100.01 117.93 98.09 119.33 95.93 116.69
  Z"
/>
<path fill="#c4332c" d="
  M 100.31 129.71
  L 104.16 129.73
  A 0.86 0.85 15.2 0 0 104.92 129.30
  Q 105.93 127.52 104.30 126.88
  A 0.84 0.60 14.9 0 1 103.76 126.23
  L 103.81 124.12
  A 0.60 0.55 0.5 0 1 104.41 123.58
  L 110.27 123.60
  A 0.77 0.70 79.5 0 1 110.95 124.12
  Q 111.93 127.11 109.16 127.16
  A 0.62 0.59 4.6 0 0 108.57 127.64
  L 104.53 149.48
  A 1.29 1.06 82.4 0 1 104.04 150.27
  Q 102.54 151.27 100.68 150.68
  A 0.90 0.81 -87.8 0 1 100.12 150.01
  L 95.91 127.64
  A 0.63 0.59 -3.3 0 0 95.32 127.15
  Q 92.49 127.03 93.59 123.97
  A 0.71 0.69 -79.5 0 1 94.26 123.50
  L 100.10 123.57
  A 0.59 0.53 0.1 0 1 100.68 124.09
  L 100.74 126.23
  A 0.84 0.58 -15.1 0 1 100.20 126.87
  Q 98.59 127.54 99.55 129.27
  A 0.88 0.87 -14.7 0 0 100.31 129.71
  Z
  M 102.63 141.19
  L 104.13 133.77
  A 0.56 0.54 -77.1 0 0 103.74 133.13
  Q 102.27 132.72 100.74 133.14
  A 0.57 0.53 77.3 0 0 100.37 133.78
  L 101.74 141.16
  Q 102.17 143.45 102.63 141.19
  Z"
/>
<path fill="#ffffff" d="
  M 102.63 141.19
  Q 102.17 143.45 101.74 141.16
  L 100.37 133.78
  A 0.57 0.53 77.3 0 1 100.74 133.14
  Q 102.27 132.72 103.74 133.13
  A 0.56 0.54 -77.1 0 1 104.13 133.77
  L 102.63 141.19
  Z"
/>
<path fill="#010101" fill-opacity="0.216" d="
  M 16.29 152.50
  L 17.00 152.96
  Q 19.70 155.21 23.25 155.21
  Q 53.25 155.22 83.25 155.29
  Q 85.13 156.35 87.00 155.29
  L 94.25 155.29
  Q 99.11 156.23 104.00 155.29
  Q 106.84 155.36 109.46 154.25
  C 109.55 156.33 111.20 152.98 111.03 154.74
  A 1.01 0.86 -14.9 0 1 110.53 155.46
  Q 107.45 157.26 103.81 157.42
  A 0.50 0.50 8.0 0 0 103.37 157.75
  L 103.31 157.91
  A 0.25 0.24 10.3 0 1 103.08 158.06
  L 25.81 158.21
  A 1.73 0.95 48.9 0 1 24.94 157.89
  L 24.40 157.53
  A 1.70 0.94 -16.1 0 0 23.47 157.32
  Q 18.70 157.55 15.50 154.10
  A 0.30 0.27 -28.6 0 1 15.66 153.65
  Q 16.41 153.41 16.29 152.50
  Z"
/>
<path fill="#141618" fill-opacity="0.910" d="
  M 83.25 155.29
  L 87.00 155.29
  Q 85.13 156.35 83.25 155.29
  Z"
/>
<path fill="#141618" fill-opacity="0.910" d="
  M 94.25 155.29
  L 104.00 155.29
  Q 99.11 156.23 94.25 155.29
  Z"
/>
</svg>
