<?xml version="1.0" encoding="UTF-8" standalone="no"?>
<svg xmlns="http://www.w3.org/2000/svg" version="1.2" baseProfile="tiny" viewBox="0 0 128 168">
<g stroke-width="0.00" fill="none" stroke-linecap="butt">
<path stroke="#e1e1e1" stroke-opacity="0.569" vector-effect="non-scaling-stroke" d="
  M 17.00 152.96
  Q 19.79 155.24 22.06 155.24
  Q 56.78 155.25 91.49 155.26
  C 92.58 155.26 93.97 155.64 95.25 155.54"
/>
<path stroke="#e1e1e1" stroke-opacity="0.569" vector-effect="non-scaling-stroke" d="
  M 101.21 155.50
  C 102.94 155.04 104.81 155.41 106.24 155.16
  C 115.57 153.52 114.75 145.28 114.38 137.00"
/>
<path stroke="#e1e1e1" stroke-opacity="0.569" vector-effect="non-scaling-stroke" d="
  M 114.31 24.50
  C 115.30 15.42 109.85 12.76 101.82 12.75
  Q 63.25 12.73 24.70 12.77
  C 19.53 12.77 16.54 14.15 14.10 18.49"
/>
<path stroke="#f9fafa" stroke-opacity="0.984" vector-effect="non-scaling-stroke" d="
  M 114.31 24.50
  Q 113.62 80.75 114.38 137.00"
/>
<path stroke="#a8a5a9" stroke-opacity="0.922" vector-effect="non-scaling-stroke" d="
  M 101.21 155.50
  L 95.25 155.54"
/>
<path stroke="#f9fafa" stroke-opacity="0.984" vector-effect="non-scaling-stroke" d="
  M 17.00 152.96
  Q 14.00 148.78 14.00 147.25
  Q 13.93 82.88 14.10 18.49"
/>
<path stroke="#e29996" vector-effect="non-scaling-stroke" d="
  M 22.81 20.80
  L 30.98 20.74
  A 0.67 0.62 6.7 0 0 31.62 20.27
  Q 31.97 19.01 31.67 17.72
  A 0.67 0.63 -6.7 0 0 31.03 17.24
  L 19.26 17.25
  A 0.50 0.49 -0.0 0 0 18.76 17.74
  L 18.78 27.18
  A 1.13 0.66 -81.6 0 0 19.13 28.06
  L 20.81 29.15
  A 0.75 0.55 -49.8 0 0 21.62 28.95
  C 25.24 25.26 29.42 27.12 30.84 31.49
  C 33.10 38.47 24.53 45.59 20.47 37.41
  A 0.64 0.50 64.9 0 0 19.77 37.05
  L 17.59 37.95
  A 0.56 0.46 65.7 0 0 17.40 38.68
  C 24.14 52.54 41.07 38.96 32.14 26.91
  C 29.88 23.86 26.55 22.81 23.02 24.01
  A 0.47 0.39 -12.6 0 1 22.41 23.70
  L 22.23 21.30
  A 0.58 0.47 -1.9 0 1 22.81 20.80"
/>
<path stroke="#e29996" vector-effect="non-scaling-stroke" d="
  M 53.56 50.34
  C 55.31 46.35 51.12 42.78 48.47 46.37
  A 0.68 0.58 -58.5 0 1 47.71 46.62
  Q 47.00 46.30 46.50 45.54
  A 0.98 0.84 70.8 0 0 45.75 45.10
  C 37.56 45.21 45.01 55.54 47.64 58.68
  A 0.40 0.39 -45.9 0 0 48.26 58.66
  Q 52.04 53.84 53.56 50.34"
/>
<path stroke="#e29996" vector-effect="non-scaling-stroke" d="
  M 84.42 45.34
  C 81.68 43.57 80.15 48.30 78.89 46.03
  A 1.64 0.81 72.8 0 0 78.23 45.33
  Q 75.99 44.33 74.65 46.18
  C 72.33 49.39 77.53 56.13 79.64 58.69
  A 0.40 0.39 -46.7 0 0 80.26 58.67
  C 82.05 56.31 88.85 48.20 84.42 45.34"
/>
<path stroke="#e29996" vector-effect="non-scaling-stroke" d="
  M 25.49 52.05
  Q 21.40 47.32 19.06 53.31
  A 1.42 1.38 47.5 0 0 19.03 54.27
  Q 21.14 60.59 25.60 65.62
  A 0.42 0.42 -46.6 0 0 26.24 65.60
  C 28.60 62.70 37.33 51.85 29.80 49.87
  A 1.16 0.81 27.5 0 0 28.87 49.99
  L 26.15 52.07
  A 0.52 0.44 -38.5 0 1 25.49 52.05"
/>
<path stroke="#e29996" vector-effect="non-scaling-stroke" d="
  M 67.56 77.44
  Q 65.13 76.17 63.86 78.14
  A 1.08 1.08 40.9 0 1 62.13 78.26
  Q 60.90 76.83 59.49 77.08
  C 52.89 78.25 61.16 88.86 62.67 90.62
  A 0.42 0.40 -45.9 0 0 63.31 90.60
  Q 66.59 86.39 68.81 81.81
  Q 70.24 78.83 67.56 77.44"
/>
<path stroke="#e29996" vector-effect="non-scaling-stroke" d="
  M 96.96 117.72
  Q 99.32 118.70 101.83 116.00
  A 0.49 0.49 53.2 0 1 102.63 116.12
  C 104.83 120.59 110.44 116.47 108.43 111.81
  Q 106.63 107.66 102.53 102.36
  A 0.41 0.41 47.5 0 0 101.90 102.33
  Q 97.11 107.65 95.13 113.75
  Q 94.21 116.58 96.96 117.72"
/>
<path stroke="#e29996" vector-effect="non-scaling-stroke" d="
  M 48.75 121.70
  Q 51.05 124.36 53.10 122.03
  Q 55.05 119.81 53.67 117.62
  L 48.44 109.29
  A 0.45 0.41 -43.5 0 0 47.73 109.30
  C 45.86 111.84 41.72 116.90 42.20 120.18
  Q 42.93 125.06 48.03 121.60
  A 0.55 0.54 52.5 0 1 48.75 121.70"
/>
<path stroke="#e29996" vector-effect="non-scaling-stroke" d="
  M 74.54 117.45
  C 72.43 121.67 76.98 125.31 79.69 121.54
  A 0.45 0.44 -51.4 0 1 80.34 121.46
  Q 84.15 124.66 85.59 121.01
  C 86.95 117.56 82.58 111.92 80.38 109.49
  A 0.43 0.43 -46.6 0 0 79.72 109.51
  Q 76.60 113.35 74.54 117.45"
/>
<path stroke="#e29996" vector-effect="non-scaling-stroke" d="
  M 105.19 147.20
  L 97.02 147.26
  A 0.67 0.62 6.7 0 0 96.38 147.73
  Q 96.03 148.99 96.33 150.28
  A 0.67 0.63 -6.7 0 0 96.97 150.76
  L 108.75 150.75
  A 0.50 0.50 0.0 0 0 109.25 150.25
  L 109.25 140.99
  A 1.54 1.20 -70.3 0 0 108.95 140.08
  Q 108.26 139.24 107.20 138.85
  A 0.85 0.76 -55.9 0 0 106.37 139.06
  Q 103.46 141.96 100.46 140.53
  C 91.76 136.40 100.17 119.57 107.75 130.78
  A 0.66 0.55 59.2 0 0 108.50 131.04
  L 110.42 130.09
  A 0.58 0.51 63.5 0 0 110.62 129.35
  C 104.70 117.38 90.88 125.76 93.60 136.79
  Q 95.84 145.87 105.08 144.07
  A 0.50 0.44 -7.1 0 1 105.67 144.47
  L 105.75 146.69
  A 0.57 0.49 -1.5 0 1 105.19 147.20"
/>
</g>
<path fill="#010001" fill-opacity="0.133" d="
  M 118.59 148.25
  C 118.04 149.44 119.14 151.34 117.98 151.81
  A 1.07 0.81 -7.1 0 0 117.38 152.40
  Q 116.79 154.37 115.02 155.08
  A 1.73 1.37 -0.2 0 0 114.29 155.66
  C 112.52 158.41 110.74 159.25 107.28 159.75
  C 105.49 160.00 103.87 160.73 102.12 160.73
  Q 61.35 160.80 20.57 160.70
  A 0.80 0.63 75.5 0 1 19.94 160.22
  Q 19.63 159.55 18.71 159.65
  A 0.82 0.77 68.0 0 1 17.98 159.31
  Q 17.34 158.42 15.98 158.66
  A 1.15 0.95 -25.9 0 1 15.10 158.45
  Q 10.28 154.41 7.99 148.53
  Q 7.26 146.64 7.26 143.94
  L 7.25 24.19
  A 0.97 0.58 -31.0 0 1 7.57 23.59
  Q 7.75 23.42 7.76 23.24
  Q 8.15 14.16 15.59 9.24
  Q 15.82 9.10 16.51 9.02
  Q 16.96 8.98 17.14 8.49
  A 0.61 0.54 -75.2 0 1 17.73 8.10
  Q 18.61 8.20 18.93 7.54
  A 0.94 0.70 -75.7 0 1 19.57 7.02
  C 22.27 6.72 24.94 6.01 27.58 6.01
  Q 66.38 6.03 105.18 6.02
  A 0.57 0.42 3.0 0 1 105.76 6.50
  L 105.71 6.87
  A 0.31 0.23 -82.8 0 0 105.91 7.22
  L 108.80 7.42
  A 0.86 0.71 77.6 0 1 109.45 7.93
  L 109.61 8.33
  A 0.51 0.41 -20.1 0 0 110.20 8.53
  Q 110.74 8.35 110.75 8.83
  Q 110.76 9.13 110.91 8.89
  Q 111.52 7.94 111.70 9.02
  A 0.60 0.58 86.3 0 0 112.25 9.52
  C 115.17 9.70 115.20 11.64 116.24 13.65
  Q 119.50 19.99 119.49 21.71
  C 119.46 36.41 119.80 51.14 119.44 65.85
  Q 119.36 69.13 119.45 72.42
  C 120.12 97.57 119.58 122.98 119.14 148.14
  A 0.30 0.19 -80.8 0 1 118.86 148.46
  Q 118.77 148.41 118.73 148.27
  Q 118.67 148.08 118.59 148.25
  Z
  M 14.10 18.49
  L 13.46 21.25
  Q 12.37 20.62 12.38 19.55
  Q 12.38 18.85 11.95 19.14
  C 11.89 19.18 11.00 23.45 11.00 23.78
  Q 11.00 83.36 11.00 142.94
  A 0.61 0.56 5.5 0 0 11.50 143.50
  Q 13.08 143.81 12.82 145.48
  A 0.75 0.58 25.1 0 0 13.15 146.12
  Q 13.37 146.27 13.46 146.50
  Q 14.09 150.40 17.00 152.96
  Q 19.79 155.24 22.06 155.24
  Q 56.78 155.25 91.49 155.26
  C 92.58 155.26 93.97 155.64 95.25 155.54
  Q 98.23 156.10 101.21 155.50
  C 102.94 155.04 104.81 155.41 106.24 155.16
  C 115.57 153.52 114.75 145.28 114.38 137.00
  L 114.31 24.50
  C 115.30 15.42 109.85 12.76 101.82 12.75
  Q 63.25 12.73 24.70 12.77
  C 19.53 12.77 16.54 14.15 14.10 18.49
  Z
  M 115.01 124.67
  A 0.12 0.12 0.0 0 0 114.89 124.55
  L 114.87 124.55
  A 0.12 0.12 0.0 0 0 114.75 124.67
  L 114.75 145.09
  A 0.12 0.12 0.0 0 0 114.87 145.21
  L 114.89 145.21
  A 0.12 0.12 0.0 0 0 115.01 145.09
  L 115.01 124.67
  Z
  M 106.96 156.27
  A 0.26 0.26 0.0 0 0 106.70 156.01
  L 25.00 156.01
  A 0.26 0.26 0.0 0 0 24.74 156.27
  L 24.74 156.49
  A 0.26 0.26 0.0 0 0 25.00 156.75
  L 106.70 156.75
  A 0.26 0.26 0.0 0 0 106.96 156.49
  L 106.96 156.27
  Z"
/>
<path fill="#ffffff" d="
  M 114.31 24.50
  Q 113.62 80.75 114.38 137.00
  C 114.75 145.28 115.57 153.52 106.24 155.16
  C 104.81 155.41 102.94 155.04 101.21 155.50
  L 95.25 155.54
  C 93.97 155.64 92.58 155.26 91.49 155.26
  Q 56.78 155.25 22.06 155.24
  Q 19.79 155.24 17.00 152.96
  Q 14.00 148.78 14.00 147.25
  Q 13.93 82.88 14.10 18.49
  C 16.54 14.15 19.53 12.77 24.70 12.77
  Q 63.25 12.73 101.82 12.75
  C 109.85 12.76 115.30 15.42 114.31 24.50
  Z
  M 22.81 20.80
  L 30.98 20.74
  A 0.67 0.62 6.7 0 0 31.62 20.27
  Q 31.97 19.01 31.67 17.72
  A 0.67 0.63 -6.7 0 0 31.03 17.24
  L 19.26 17.25
  A 0.50 0.49 -0.0 0 0 18.76 17.74
  L 18.78 27.18
  A 1.13 0.66 -81.6 0 0 19.13 28.06
  L 20.81 29.15
  A 0.75 0.55 -49.8 0 0 21.62 28.95
  C 25.24 25.26 29.42 27.12 30.84 31.49
  C 33.10 38.47 24.53 45.59 20.47 37.41
  A 0.64 0.50 64.9 0 0 19.77 37.05
  L 17.59 37.95
  A 0.56 0.46 65.7 0 0 17.40 38.68
  C 24.14 52.54 41.07 38.96 32.14 26.91
  C 29.88 23.86 26.55 22.81 23.02 24.01
  A 0.47 0.39 -12.6 0 1 22.41 23.70
  L 22.23 21.30
  A 0.58 0.47 -1.9 0 1 22.81 20.80
  Z
  M 53.56 50.34
  C 55.31 46.35 51.12 42.78 48.47 46.37
  A 0.68 0.58 -58.5 0 1 47.71 46.62
  Q 47.00 46.30 46.50 45.54
  A 0.98 0.84 70.8 0 0 45.75 45.10
  C 37.56 45.21 45.01 55.54 47.64 58.68
  A 0.40 0.39 -45.9 0 0 48.26 58.66
  Q 52.04 53.84 53.56 50.34
  Z
  M 84.42 45.34
  C 81.68 43.57 80.15 48.30 78.89 46.03
  A 1.64 0.81 72.8 0 0 78.23 45.33
  Q 75.99 44.33 74.65 46.18
  C 72.33 49.39 77.53 56.13 79.64 58.69
  A 0.40 0.39 -46.7 0 0 80.26 58.67
  C 82.05 56.31 88.85 48.20 84.42 45.34
  Z
  M 25.49 52.05
  Q 21.40 47.32 19.06 53.31
  A 1.42 1.38 47.5 0 0 19.03 54.27
  Q 21.14 60.59 25.60 65.62
  A 0.42 0.42 -46.6 0 0 26.24 65.60
  C 28.60 62.70 37.33 51.85 29.80 49.87
  A 1.16 0.81 27.5 0 0 28.87 49.99
  L 26.15 52.07
  A 0.52 0.44 -38.5 0 1 25.49 52.05
  Z
  M 67.56 77.44
  Q 65.13 76.17 63.86 78.14
  A 1.08 1.08 40.9 0 1 62.13 78.26
  Q 60.90 76.83 59.49 77.08
  C 52.89 78.25 61.16 88.86 62.67 90.62
  A 0.42 0.40 -45.9 0 0 63.31 90.60
  Q 66.59 86.39 68.81 81.81
  Q 70.24 78.83 67.56 77.44
  Z
  M 96.96 117.72
  Q 99.32 118.70 101.83 116.00
  A 0.49 0.49 53.2 0 1 102.63 116.12
  C 104.83 120.59 110.44 116.47 108.43 111.81
  Q 106.63 107.66 102.53 102.36
  A 0.41 0.41 47.5 0 0 101.90 102.33
  Q 97.11 107.65 95.13 113.75
  Q 94.21 116.58 96.96 117.72
  Z
  M 48.75 121.70
  Q 51.05 124.36 53.10 122.03
  Q 55.05 119.81 53.67 117.62
  L 48.44 109.29
  A 0.45 0.41 -43.5 0 0 47.73 109.30
  C 45.86 111.84 41.72 116.90 42.20 120.18
  Q 42.93 125.06 48.03 121.60
  A 0.55 0.54 52.5 0 1 48.75 121.70
  Z
  M 74.54 117.45
  C 72.43 121.67 76.98 125.31 79.69 121.54
  A 0.45 0.44 -51.4 0 1 80.34 121.46
  Q 84.15 124.66 85.59 121.01
  C 86.95 117.56 82.58 111.92 80.38 109.49
  A 0.43 0.43 -46.6 0 0 79.72 109.51
  Q 76.60 113.35 74.54 117.45
  Z
  M 105.19 147.20
  L 97.02 147.26
  A 0.67 0.62 6.7 0 0 96.38 147.73
  Q 96.03 148.99 96.33 150.28
  A 0.67 0.63 -6.7 0 0 96.97 150.76
  L 108.75 150.75
  A 0.50 0.50 0.0 0 0 109.25 150.25
  L 109.25 140.99
  A 1.54 1.20 -70.3 0 0 108.95 140.08
  Q 108.26 139.24 107.20 138.85
  A 0.85 0.76 -55.9 0 0 106.37 139.06
  Q 103.46 141.96 100.46 140.53
  C 91.76 136.40 100.17 119.57 107.75 130.78
  A 0.66 0.55 59.2 0 0 108.50 131.04
  L 110.42 130.09
  A 0.58 0.51 63.5 0 0 110.62 129.35
  C 104.70 117.38 90.88 125.76 93.60 136.79
  Q 95.84 145.87 105.08 144.07
  A 0.50 0.44 -7.1 0 1 105.67 144.47
  L 105.75 146.69
  A 0.57 0.49 -1.5 0 1 105.19 147.20
  Z"
/>
<path fill="#c4332c" d="
  M 22.23 21.30
  L 22.41 23.70
  A 0.47 0.39 -12.6 0 0 23.02 24.01
  C 26.55 22.81 29.88 23.86 32.14 26.91
  C 41.07 38.96 24.14 52.54 17.40 38.68
  A 0.56 0.46 65.7 0 1 17.59 37.95
  L 19.77 37.05
  A 0.64 0.50 64.9 0 1 20.47 37.41
  C 24.53 45.59 33.10 38.47 30.84 31.49
  C 29.42 27.12 25.24 25.26 21.62 28.95
  A 0.75 0.55 -49.8 0 1 20.81 29.15
  L 19.13 28.06
  A 1.13 0.66 -81.6 0 1 18.78 27.18
  L 18.76 17.74
  A 0.50 0.49 -0.0 0 1 19.26 17.25
  L 31.03 17.24
  A 0.67 0.63 -6.7 0 1 31.67 17.72
  Q 31.97 19.01 31.62 20.27
  A 0.67 0.62 6.7 0 1 30.98 20.74
  L 22.81 20.80
  A 0.58 0.47 -1.9 0 0 22.23 21.30
  Z"
/>
<path fill="#f3f5f5" fill-opacity="0.969" d="
  M 14.10 18.49
  Q 13.93 82.88 14.00 147.25
  Q 14.00 148.78 17.00 152.96
  Q 14.09 150.40 13.46 146.50
  L 13.46 21.25
  L 14.10 18.49
  Z"
/>
<path fill="#030605" fill-opacity="0.192" d="
  M 13.46 21.25
  L 13.46 146.50
  Q 13.37 146.27 13.15 146.12
  A 0.75 0.58 25.1 0 1 12.82 145.48
  Q 13.08 143.81 11.50 143.50
  A 0.61 0.56 5.5 0 1 11.00 142.94
  Q 11.00 83.36 11.00 23.78
  C 11.00 23.45 11.89 19.18 11.95 19.14
  Q 12.38 18.85 12.38 19.55
  Q 12.37 20.62 13.46 21.25
  Z"
/>
<path fill="#f3f5f5" fill-opacity="0.969" d="
  M 114.31 24.50
  L 114.38 137.00
  Q 113.62 80.75 114.31 24.50
  Z"
/>
<path fill="#c4332c" d="
  M 48.47 46.37
  C 51.12 42.78 55.31 46.35 53.56 50.34
  Q 52.04 53.84 48.26 58.66
  A 0.40 0.39 -45.9 0 1 47.64 58.68
  C 45.01 55.54 37.56 45.21 45.75 45.10
  A 0.98 0.84 70.8 0 1 46.50 45.54
  Q 47.00 46.30 47.71 46.62
  A 0.68 0.58 -58.5 0 0 48.47 46.37
  Z"
/>
<path fill="#c4332c" d="
  M 78.89 46.03
  C 80.15 48.30 81.68 43.57 84.42 45.34
  C 88.85 48.20 82.05 56.31 80.26 58.67
  A 0.40 0.39 -46.7 0 1 79.64 58.69
  C 77.53 56.13 72.33 49.39 74.65 46.18
  Q 75.99 44.33 78.23 45.33
  A 1.64 0.81 72.8 0 1 78.89 46.03
  Z"
/>
<path fill="#c4332c" d="
  M 26.15 52.07
  L 28.87 49.99
  A 1.16 0.81 27.5 0 1 29.80 49.87
  C 37.33 51.85 28.60 62.70 26.24 65.60
  A 0.42 0.42 -46.6 0 1 25.60 65.62
  Q 21.14 60.59 19.03 54.27
  A 1.42 1.38 47.5 0 1 19.06 53.31
  Q 21.40 47.32 25.49 52.05
  A 0.52 0.44 -38.5 0 0 26.15 52.07
  Z"
/>
<path fill="#c4332c" d="
  M 67.56 77.44
  Q 70.24 78.83 68.81 81.81
  Q 66.59 86.39 63.31 90.60
  A 0.42 0.40 -45.9 0 1 62.67 90.62
  C 61.16 88.86 52.89 78.25 59.49 77.08
  Q 60.90 76.83 62.13 78.26
  A 1.08 1.08 40.9 0 0 63.86 78.14
  Q 65.13 76.17 67.56 77.44
  Z"
/>
<path fill="#c4332c" d="
  M 96.96 117.72
  Q 94.21 116.58 95.13 113.75
  Q 97.11 107.65 101.90 102.33
  A 0.41 0.41 47.5 0 1 102.53 102.36
  Q 106.63 107.66 108.43 111.81
  C 110.44 116.47 104.83 120.59 102.63 116.12
  A 0.49 0.49 53.2 0 0 101.83 116.00
  Q 99.32 118.70 96.96 117.72
  Z"
/>
<path fill="#c4332c" d="
  M 48.03 121.60
  Q 42.93 125.06 42.20 120.18
  C 41.72 116.90 45.86 111.84 47.73 109.30
  A 0.45 0.41 -43.5 0 1 48.44 109.29
  L 53.67 117.62
  Q 55.05 119.81 53.10 122.03
  Q 51.05 124.36 48.75 121.70
  A 0.55 0.54 52.5 0 0 48.03 121.60
  Z"
/>
<path fill="#c4332c" d="
  M 79.69 121.54
  C 76.98 125.31 72.43 121.67 74.54 117.45
  Q 76.60 113.35 79.72 109.51
  A 0.43 0.43 -46.6 0 1 80.38 109.49
  C 82.58 111.92 86.95 117.56 85.59 121.01
  Q 84.15 124.66 80.34 121.46
  A 0.45 0.44 -51.4 0 0 79.69 121.54
  Z"
/>
<path fill="#c4332c" d="
  M 105.75 146.69
  L 105.67 144.47
  A 0.50 0.44 -7.1 0 0 105.08 144.07
  Q 95.84 145.87 93.60 136.79
  C 90.88 125.76 104.70 117.38 110.62 129.35
  A 0.58 0.51 63.5 0 1 110.42 130.09
  L 108.50 131.04
  A 0.66 0.55 59.2 0 1 107.75 130.78
  C 100.17 119.57 91.76 136.40 100.46 140.53
  Q 103.46 141.96 106.37 139.06
  A 0.85 0.76 -55.9 0 1 107.20 138.85
  Q 108.26 139.24 108.95 140.08
  A 1.54 1.20 -70.3 0 1 109.25 140.99
  L 109.25 150.25
  A 0.50 0.50 0.0 0 1 108.75 150.75
  L 96.97 150.76
  A 0.67 0.63 -6.7 0 1 96.33 150.28
  Q 96.03 148.99 96.38 147.73
  A 0.67 0.62 6.7 0 1 97.02 147.26
  L 105.19 147.20
  A 0.57 0.49 -1.5 0 0 105.75 146.69
  Z"
/>
<path fill="#413a43" fill-opacity="0.839" d="
  M 101.21 155.50
  Q 98.23 156.10 95.25 155.54
  L 101.21 155.50
  Z"
/>
<rect fill="#020102" fill-opacity="0.275" x="24.74" y="156.01" width="82.22" height="0.74" rx="0.26"/>
</svg>
