<?xml version="1.0" encoding="utf-8"?>
<!-- Generator: Adobe Illustrator 27.0.1, SVG Export Plug-In . SVG Version: 6.00 Build 0)  -->
<svg version="1.1" id="Слой_1" xmlns="http://www.w3.org/2000/svg" xmlns:xlink="http://www.w3.org/1999/xlink" x="0px" y="0px"
	 viewBox="0 0 128 168" style="enable-background:new 0 0 128 168;" xml:space="preserve">
<style type="text/css">
	.st0{fill:#D8D8D8;}
	.st1{fill:#AAAAAA;}
	.st2{fill:#FFFFFF;}
	.st3{fill:#C4332C;}
</style>
<g>
	<path class="st0" d="M107.9,161.7H20.1c-6.9,0-12.4-5.6-12.4-12.4V18.8c0-6.9,5.6-12.4,12.4-12.4h87.8c6.9,0,12.4,5.6,12.4,12.4
		v130.5C120.3,156.1,114.8,161.7,107.9,161.7z"/>
	<path class="st1" d="M106.9,157.8H21.1c-5.5,0-9.9-4.4-9.9-9.9V19.8c0-5.5,4.4-9.9,9.9-9.9h85.8c5.5,0,9.9,4.4,9.9,9.9v128.1
		C116.8,153.4,112.4,157.8,106.9,157.8z"/>
	<path class="st2" d="M106.6,154.8H21.4c-4.4,0-8-3.6-8-8V20.9c0-4.4,3.6-8,8-8h85.2c4.4,0,8,3.6,8,8v125.9
		C114.6,151.2,111,154.8,106.6,154.8z"/>
</g>
<g>
	<path class="st3" d="M31.6,29.9c4,4.5,4.2,8.5,0.6,11.8c-8.4,8-21.2-3.5-12.3-11.7c0.2-0.2,0.2-0.5,0.1-0.7
		c-3.6-4.3-2.2-9.5,2.8-11.5c7-2.9,14.7,4.9,8.9,11.3C31.5,29.4,31.5,29.7,31.6,29.9z M30.2,24.5c-0.2-4.9-8.6-4.9-8.8,0
		C21.6,29.4,30,29.4,30.2,24.5z M31.2,36.3c0-2.5-2.5-4.5-5.4-4.5c-7,0.3-7,8.9,0.1,9.1C28.9,40.9,31.2,38.8,31.2,36.3z"/>
	<path class="st2" d="M25.9,20.8c5.8,0.2,5.8,7.2,0,7.4C20.1,28,20.1,21,25.9,20.8z"/>
	<path class="st2" d="M25.8,31.8c7,0.1,7.1,8.9,0.1,9.2C19,40.9,18.8,32.1,25.8,31.8z"/>
	<path class="st3" d="M52.6,45.4c4,2.8-2,10.3-4.3,13.2c-0.1,0.2-0.4,0.2-0.6,0.1c0,0,0,0-0.1-0.1C46,56.7,36.8,44,46,45.2
		c0.3,0,0.5,0.2,0.7,0.5c0.3,0.4,0.6,0.8,1,0.9c0.3,0.1,0.6,0,0.8-0.3C49.7,44.7,51.1,44.4,52.6,45.4z"/>
	<path class="st3" d="M78.9,45.9c1.1,2.5,3.1-2.5,6-0.3c1.5,1.1,1.8,2.5,1,4.1c-1.6,3.3-3.4,6.2-5.6,9c-0.1,0.2-0.4,0.2-0.6,0.1
		c0,0,0,0-0.1-0.1c-1.6-1.9-11-14.7-1.4-13.3C78.5,45.4,78.7,45.6,78.9,45.9z"/>
	<path class="st3" d="M26.1,52.1l2.7-2.1c0.2-0.2,0.6-0.2,0.9-0.1c7.6,2-1.1,12.9-3.5,15.8c-0.1,0.2-0.4,0.2-0.6,0.1
		c0,0,0,0-0.1-0.1c-2.2-2.7-6.6-8.5-6.4-12c0.2-3.7,4-4.9,6.4-1.6C25.7,52.2,25.9,52.2,26.1,52.1L26.1,52.1z"/>
	<path class="st3" d="M64.7,62.4c1.2-1.6,2.4-1.9,3.7-1.1c4.5,2.8-2.4,11-4.1,13.3c-0.1,0.2-0.4,0.2-0.6,0.1c0,0,0,0-0.1-0.1
		c-1.8-2.1-6.2-8.1-5.6-10.9c0.4-2.4,3.8-3.9,5.2-1.4c0.2,0.4,0.8,0.6,1.2,0.4C64.5,62.6,64.6,62.5,64.7,62.4z"/>
	<path class="st3" d="M52.1,77.2c5,2.5-1.6,10.6-3.8,13.5c-0.1,0.2-0.4,0.2-0.6,0.1c0,0,0,0-0.1-0.1c-2.6-3.2-10.2-13.3-1.7-13.5
		c0.3,0,0.5,0.2,0.7,0.5c0.3,0.7,0.8,1,1.4,1.1c0.3,0,0.6-0.1,0.7-0.4C49.6,76.9,50.7,76.5,52.1,77.2z"/>
	<path class="st3" d="M83.3,77c7,1.1-1.7,11.9-3,13.6c-0.1,0.2-0.4,0.2-0.6,0.1c0,0,0,0-0.1-0.1C78,88.7,68.8,76,78,77.2
		c0.3,0,0.5,0.2,0.7,0.5c0.3,0.5,0.7,0.9,1.3,1c0.3,0.1,0.6-0.1,0.8-0.4C81.4,77.3,82.2,76.8,83.3,77z"/>
	<path class="st3" d="M63.7,105.5c-2.6,3.6-7.1,0.3-5.2-3.9c1.3-2.8,3.1-5.6,5.2-8.2c0.2-0.2,0.4-0.2,0.6-0.1l0,0
		c2.2,2.4,6.6,8.1,5.2,11.5c-1,2.4-2.7,2.6-5.2,0.4C64.2,105.3,63.9,105.3,63.7,105.5L63.7,105.5z"/>
	<path class="st3" d="M95.9,116.7c-2.8-3.5,3.7-11.7,5.9-14.3c0.1-0.2,0.4-0.2,0.6,0c0,0,0,0,0.1,0.1c2.7,3.5,4.7,6.7,5.9,9.5
		c2,4.6-3.6,8.8-5.8,4.2c-0.1-0.2-0.4-0.3-0.6-0.2l-0.1,0.1C100,117.9,98.1,119.4,95.9,116.7z"/>
	<path class="st3" d="M48,121.5c-0.6,0.3-1.2,0.7-1.7,1.2c-0.2,0.2-0.5,0.4-0.8,0.4c-8-0.5,0.2-11,2-13.3c0.3-0.4,0.9-0.5,1.3-0.2
		c0.1,0.1,0.1,0.1,0.2,0.2c2,2.8,8,10.3,3.3,12.9c-1.4,0.8-2.5,0.1-3.4-1C48.5,121.5,48.2,121.4,48,121.5z"/>
	<path class="st3" d="M75.9,122.8c-5.2-2.3,1.6-10.6,3.8-13.3c0.1-0.2,0.4-0.2,0.6-0.1l0,0c2.1,2.3,3.7,4.8,5,7.6
		c1.7,3.7-0.5,8.2-5,4.4c-0.2-0.2-0.5-0.1-0.6,0.1l0,0C78.6,123,77.4,123.4,75.9,122.8z"/>
	<path class="st3" d="M96.4,137.9c-2.1-1.9-3.2-4.1-3.1-6.6c0.4-9.9,16.3-10.5,17.6-0.5c0.3,2.7-0.6,5-2.8,7.1
		c-0.2,0.2-0.2,0.5-0.1,0.7c2.7,3.6,2.7,6.7,0.2,9.4c-6.8,7.3-18.9-1.7-11.8-9.4C96.6,138.4,96.6,138.1,96.4,137.9L96.4,137.9z
		 M107.5,131.6c0-2.5-2.4-4.6-5.4-4.5c-2.9,0-5.3,2.1-5.3,4.6l0,0c0,2.5,2.4,4.6,5.4,4.5l0,0C105.1,136.2,107.5,134.1,107.5,131.6
		L107.5,131.6z M106.4,143.5c-0.2-4.9-8.4-4.9-8.7,0l0,0C97.9,148.4,106.3,148.3,106.4,143.5L106.4,143.5z"/>
	<path class="st2" d="M102.1,127c7,0.2,7,9,0,9.2C95.1,136,95.1,127.2,102.1,127z"/>
	<path class="st2" d="M97.8,143.5c0.2-4.9,8.5-4.9,8.6,0C106.2,148.4,98,148.4,97.8,143.5z"/>
</g>
</svg>
