<?xml version="1.0" encoding="utf-8"?>
<!-- Generator: Adobe Illustrator 27.0.1, SVG Export Plug-In . SVG Version: 6.00 Build 0)  -->
<svg version="1.1" id="Слой_1" xmlns="http://www.w3.org/2000/svg" xmlns:xlink="http://www.w3.org/1999/xlink" x="0px" y="0px"
	 viewBox="0 0 128 168" style="enable-background:new 0 0 128 168;" xml:space="preserve">
<style type="text/css">
	.st0{fill:#D8D8D8;}
	.st1{fill:#AAAAAA;}
	.st2{fill:#FFFFFF;}
	.st3{fill:#C4332C;}
</style>
<g>
	<path class="st0" d="M107.9,161.7H20.1c-6.9,0-12.4-5.6-12.4-12.4V18.8c0-6.9,5.6-12.4,12.4-12.4h87.8c6.9,0,12.4,5.6,12.4,12.4
		v130.5C120.3,156.1,114.8,161.7,107.9,161.7z"/>
	<path class="st1" d="M106.9,157.8H21.1c-5.5,0-9.9-4.4-9.9-9.9V19.8c0-5.5,4.4-9.9,9.9-9.9h85.8c5.5,0,9.9,4.4,9.9,9.9v128.1
		C116.8,153.4,112.4,157.8,106.9,157.8z"/>
	<path class="st2" d="M106.6,154.8H21.4c-4.4,0-8-3.6-8-8V20.9c0-4.4,3.6-8,8-8h85.2c4.4,0,8,3.6,8,8v125.9
		C114.6,151.2,111,154.8,106.6,154.8z"/>
</g>
<g>
	<path class="st3" d="M30.9,39.9c-0.4-2.7,0.6-3.6,3.1-2.8c0.3,0.1,0.5,0.4,0.5,0.7v5.6c0,0.3-0.3,0.5-0.6,0.5H18
		c-0.4,0-0.7-0.3-0.7-0.7C17,34,23.9,31.9,29.6,26.6c5.4-5-3.5-6.4-6.5-5.9c-4.7,0.8,0.5,5.6-4.9,5.4c-0.3,0-0.6-0.2-0.6-0.5
		C15,16,30.2,14.3,33.8,21.2C38,29.3,23.2,32.6,21.4,40c-0.1,0.3,0.1,0.5,0.4,0.5h8.7C30.7,40.5,30.9,40.2,30.9,39.9z"/>
	<path class="st3" d="M64.9,46c0.7-1.1,1.6-1.4,2.8-1c5.5,1.9-0.8,10.3-3.5,13.6c-0.2,0.2-0.5,0.2-0.6,0
		c-1.8-2.1-10.7-14.1-1.7-13.5c0.3,0,0.5,0.2,0.7,0.5c0.3,0.8,0.9,1.1,1.6,0.9C64.5,46.5,64.7,46.3,64.9,46z"/>
	<path class="st3" d="M26.1,52c1.4-1.9,2.9-2.5,4.8-1.7c5.7,2.6-2.5,12.7-4.6,15.3c-0.2,0.2-0.5,0.2-0.6,0c-3-3.6-5.1-6.9-6.2-10
		c-1.5-4.2,3.2-8,6.2-3.6C25.7,52.2,26,52.2,26.1,52z"/>
	<path class="st3" d="M96,116.8c-3-3.5,3.4-11.5,5.9-14.5c0.1-0.2,0.4-0.2,0.6,0c2.6,3.3,4.5,6.4,5.9,9.2c2.3,5-3.5,9.1-5.5,4.9
		c-0.2-0.4-0.8-0.5-1.2-0.2C99.8,118.2,98,119.1,96,116.8z"/>
	<path class="st3" d="M59.9,122.8c-5.2-2.3,1.6-10.5,3.5-13.1c0.3-0.4,0.7-0.4,1.1-0.2c2.2,2.6,3.9,5.6,5.4,8.8
		c0.1,0.3,0.2,0.6,0.1,1c-0.7,4-2.6,4.8-5.7,2.2c-0.2-0.2-0.5-0.1-0.7,0.1C62.6,123,61.4,123.4,59.9,122.8z"/>
	<path class="st3" d="M106.5,127.9c-2.9-0.6-6-0.7-9.1-0.2c-0.3,0-0.4,0.3-0.4,0.6c0.4,2.6-0.6,3.4-3,2.6c-0.3-0.1-0.5-0.4-0.5-0.7
		l0.1-5.6c0-0.3,0.2-0.5,0.5-0.5h15.8c0.5,0,0.8,0.4,0.9,0.8c0.2,8.2-6.4,11.9-12,16.2c-1.5,1-2.4,3.4-1.2,4.8
		c2.6,2.1,10.2,3.2,9.6-2.3c-0.2-1.4,3-2.5,3.3-1c1.9,14.8-24.9,8-15-3.2c2.7-3.1,8.7-5.3,11.2-10.9
		C106.9,128.2,106.8,127.9,106.5,127.9z"/>
</g>
</svg>
