<?xml version="1.0" encoding="UTF-8" standalone="no"?>
<svg xmlns="http://www.w3.org/2000/svg" version="1.2" baseProfile="tiny" viewBox="0 0 128 168">
<g stroke-width="0.00" fill="none" stroke-linecap="butt">
<path stroke="#e7e7e7" stroke-opacity="0.553" vector-effect="non-scaling-stroke" d="
  M 114.43 148.25
  L 114.65 28.25"
/>
<path stroke="#e7e7e7" stroke-opacity="0.553" vector-effect="non-scaling-stroke" d="
  M 114.50 21.04
  Q 112.71 12.80 104.50 12.75
  Q 91.31 12.67 21.75 12.79"
/>
<path stroke="#d6d7d6" stroke-opacity="0.596" vector-effect="non-scaling-stroke" d="
  M 21.75 12.79
  Q 17.73 13.46 15.46 16.75"
/>
<path stroke="#d6d7d6" stroke-opacity="0.596" vector-effect="non-scaling-stroke" d="
  M 114.50 21.04
  L 114.65 28.25"
/>
<path stroke="#d6d7d6" stroke-opacity="0.596" vector-effect="non-scaling-stroke" d="
  M 114.43 148.25
  Q 111.43 155.30 104.05 155.40"
/>
<path stroke="#949495" stroke-opacity="0.945" vector-effect="non-scaling-stroke" d="
  M 104.05 155.40
  L 96.25 155.29"
/>
<path stroke="#d6d7d6" stroke-opacity="0.596" vector-effect="non-scaling-stroke" d="
  M 96.25 155.29
  L 96.00 155.29"
/>
<path stroke="#949495" stroke-opacity="0.945" vector-effect="non-scaling-stroke" d="
  M 96.00 155.29
  L 91.25 155.29"
/>
<path stroke="#d6d7d6" stroke-opacity="0.596" vector-effect="non-scaling-stroke" d="
  M 91.25 155.29
  Q 57.25 155.22 23.25 155.21
  Q 19.70 155.21 17.00 152.96"
/>
<path stroke="#f9fafa" stroke-opacity="0.988" vector-effect="non-scaling-stroke" d="
  M 17.00 152.96
  Q 14.00 148.78 14.00 147.25
  Q 14.00 84.59 14.00 21.92
  C 14.00 20.01 14.94 18.56 15.46 16.75"
/>
<path stroke="#e29996" vector-effect="non-scaling-stroke" d="
  M 21.36 25.45
  C 21.98 20.41 27.06 18.54 30.25 22.87
  A 0.76 0.68 62.1 0 0 31.03 23.16
  Q 32.28 22.81 33.18 21.87
  A 0.63 0.61 50.2 0 0 33.24 21.08
  C 30.53 17.07 24.45 15.42 20.83 18.81
  C 15.74 23.59 15.76 40.06 22.60 43.58
  C 27.36 46.03 31.87 43.08 33.79 38.53
  C 36.89 31.16 30.54 21.41 21.76 25.71
  Q 21.30 25.94 21.36 25.45"
/>
<path stroke="#e29996" vector-effect="non-scaling-stroke" d="
  M 51.24 45.02
  Q 49.61 44.81 48.48 46.36
  A 0.77 0.59 -59.8 0 1 47.72 46.67
  Q 47.01 46.42 46.61 45.56
  A 0.80 0.72 75.6 0 0 45.92 45.10
  C 37.45 45.35 45.00 55.47 47.64 58.68
  A 0.40 0.39 -45.9 0 0 48.26 58.66
  C 49.54 56.97 58.39 45.94 51.24 45.02"
/>
<path stroke="#e29996" vector-effect="non-scaling-stroke" d="
  M 84.42 45.33
  C 81.69 43.60 80.14 48.28 78.89 46.03
  A 1.64 0.81 72.8 0 0 78.23 45.33
  Q 75.99 44.33 74.65 46.18
  C 72.33 49.39 77.53 56.13 79.64 58.69
  A 0.40 0.39 -46.7 0 0 80.26 58.67
  C 82.04 56.33 88.87 48.14 84.42 45.33"
/>
<path stroke="#e29996" vector-effect="non-scaling-stroke" d="
  M 25.54 52.03
  C 23.16 48.69 19.38 49.94 19.17 53.62
  C 18.97 57.15 23.37 62.93 25.58 65.61
  A 0.41 0.41 0.0 0 0 26.22 65.61
  C 28.62 62.69 37.36 51.84 29.74 49.82
  A 1.16 0.81 27.5 0 0 28.81 49.94
  L 26.14 52.06
  A 0.45 0.38 -37.1 0 1 25.54 52.03"
/>
<path stroke="#e29996" vector-effect="non-scaling-stroke" d="
  M 52.56 77.44
  Q 50.05 76.15 48.69 78.30
  A 0.85 0.65 -65.8 0 1 47.94 78.71
  Q 47.09 78.55 46.63 77.65
  A 0.90 0.72 73.6 0 0 45.93 77.16
  C 37.43 77.00 45.01 87.53 47.62 90.66
  A 0.41 0.40 44.3 0 0 48.26 90.66
  Q 51.57 86.44 53.81 81.80
  Q 55.25 78.81 52.56 77.44"
/>
<path stroke="#e29996" vector-effect="non-scaling-stroke" d="
  M 85.35 78.19
  C 82.62 74.14 80.19 80.74 78.74 77.84
  A 1.19 0.83 77.0 0 0 78.08 77.24
  C 74.84 76.47 73.37 79.15 74.39 81.96
  Q 76.15 86.79 79.67 90.67
  A 0.41 0.40 40.5 0 0 80.31 90.63
  L 85.52 82.57
  Q 86.89 80.46 85.35 78.19"
/>
<path stroke="#e29996" vector-effect="non-scaling-stroke" d="
  M 95.75 111.96
  C 93.48 116.79 99.05 120.73 101.42 116.19
  A 0.71 0.71 -49.2 0 1 102.62 116.10
  Q 105.39 119.79 107.93 116.73
  Q 109.75 114.54 108.50 111.99
  Q 106.03 106.92 102.49 102.34
  A 0.40 0.40 -43.8 0 0 101.87 102.33
  Q 98.19 106.75 95.75 111.96"
/>
<path stroke="#e29996" vector-effect="non-scaling-stroke" d="
  M 48.75 121.70
  Q 51.05 124.36 53.10 122.03
  Q 55.05 119.81 53.67 117.62
  L 48.44 109.29
  A 0.45 0.41 -43.5 0 0 47.73 109.30
  C 45.86 111.84 41.72 116.90 42.20 120.18
  Q 42.93 125.06 48.03 121.60
  A 0.55 0.54 52.5 0 1 48.75 121.70"
/>
<path stroke="#e29996" vector-effect="non-scaling-stroke" d="
  M 74.91 122.07
  C 76.38 123.41 78.56 123.40 79.57 121.60
  A 0.43 0.42 -57.0 0 1 80.20 121.46
  C 82.15 122.90 84.20 124.01 85.61 121.17
  C 87.13 118.10 82.52 111.96 80.72 109.64
  A 0.80 0.80 -45.8 0 0 79.44 109.66
  C 77.60 112.21 71.86 119.28 74.91 122.07"
/>
<path stroke="#e29996" vector-effect="non-scaling-stroke" d="
  M 106.65 142.57
  C 106.16 147.65 100.79 149.40 97.76 145.14
  A 0.75 0.68 64.2 0 0 97.00 144.83
  Q 95.73 145.18 94.81 146.14
  A 0.63 0.59 50.3 0 0 94.76 146.92
  C 97.50 150.92 103.49 152.57 107.09 149.24
  C 112.18 144.54 112.34 127.53 105.24 124.30
  C 94.50 119.41 88.72 137.80 98.81 142.72
  Q 102.26 144.41 106.25 142.30
  Q 106.70 142.06 106.65 142.57"
/>
<path stroke="#e29996" vector-effect="non-scaling-stroke" d="
  M 26.2488 40.8544
  A 6.42 4.93 87.6 0 0 30.9057 34.2336
  A 6.42 4.93 87.6 0 0 25.7112 28.0256
  A 6.42 4.93 87.6 0 0 21.0543 34.6464
  A 6.42 4.93 87.6 0 0 26.2488 40.8544"
/>
<path stroke="#e29996" vector-effect="non-scaling-stroke" d="
  M 104.19 127.81
  Q 102.12 125.87 99.94 127.68
  Q 96.39 130.62 97.15 134.67
  C 99.38 146.39 112.93 136.00 104.19 127.81"
/>
</g>
<path fill="#010001" fill-opacity="0.106" d="
  M 119.93 91.47
  L 119.99 91.49
  A 0.07 0.06 5.7 0 1 120.05 91.55
  Q 120.50 104.18 119.92 119.25
  C 119.86 120.81 119.43 121.73 119.69 123.22
  Q 120.39 127.24 119.69 131.25
  A 0.44 0.35 -75.9 0 0 119.90 131.72
  L 120.05 131.78
  A 0.20 0.18 12.1 0 1 120.19 131.97
  C 120.02 134.53 120.54 136.90 120.15 139.42
  Q 119.49 143.53 119.66 147.72
  A 1.08 0.90 -24.2 0 1 119.27 148.52
  Q 117.95 149.60 118.55 151.70
  Q 118.95 153.10 116.58 154.79
  L 115.03 155.90
  A 1.36 0.98 -17.0 0 0 114.51 156.59
  Q 114.31 157.47 113.32 157.57
  A 1.59 1.19 14.3 0 0 112.45 157.93
  C 110.04 160.18 106.01 159.10 104.96 160.27
  A 1.24 0.78 -60.5 0 1 104.18 160.69
  Q 91.06 160.85 77.94 160.73
  C 60.13 160.56 42.04 160.94 24.05 160.39
  C 22.54 160.34 20.73 159.44 18.97 159.48
  A 0.90 0.78 71.3 0 1 18.25 159.06
  Q 17.71 158.23 16.54 158.40
  A 0.42 0.41 83.5 0 1 16.07 158.02
  Q 16.02 157.43 15.49 157.44
  Q 14.82 157.45 14.55 157.30
  C 8.71 154.11 7.00 146.19 7.00 140.09
  Q 7.00 83.11 7.00 26.13
  C 7.00 19.27 9.31 14.20 14.69 9.97
  A 0.91 0.83 75.4 0 0 15.00 9.38
  L 15.02 9.20
  A 0.29 0.26 -5.1 0 1 15.23 8.97
  Q 17.49 8.40 19.33 6.98
  A 1.22 1.13 28.8 0 1 20.21 6.76
  Q 21.68 6.96 22.90 6.28
  Q 23.37 6.02 23.81 6.02
  L 105.18 6.01
  A 0.57 0.44 2.6 0 1 105.76 6.50
  L 105.71 6.87
  A 0.31 0.24 -84.0 0 0 105.93 7.22
  L 109.34 7.38
  A 0.72 0.50 80.6 0 1 109.85 7.91
  Q 109.98 8.41 110.79 8.26
  A 1.31 0.84 48.1 0 1 111.63 8.49
  L 114.02 10.09
  Q 114.72 10.56 114.79 10.67
  L 118.75 16.84
  A 1.68 0.93 -72.7 0 1 118.94 17.76
  C 118.85 20.60 120.18 23.02 120.17 25.55
  Q 120.06 44.40 119.79 63.28
  A 0.22 0.16 -87.1 0 0 119.93 63.49
  L 120.01 63.50
  A 0.10 0.08 4.0 0 1 120.10 63.58
  L 119.82 91.32
  A 0.16 0.13 -85.6 0 0 119.93 91.47
  Z
  M 14.04 19.50
  L 13.71 21.00
  Q 12.64 21.30 12.34 20.40
  Q 12.07 19.57 11.76 20.39
  C 10.53 23.72 10.75 25.89 10.75 29.19
  Q 10.74 86.81 10.76 144.43
  Q 10.76 144.90 11.03 145.37
  C 12.37 147.77 10.91 150.58 13.55 152.26
  A 1.06 0.80 -80.1 0 1 13.93 153.00
  Q 13.97 153.71 14.72 154.28
  Q 21.33 159.30 28.94 158.77
  C 29.94 158.70 36.73 158.29 36.81 158.82
  Q 58.22 158.64 79.62 158.76
  C 81.63 158.77 84.64 158.43 87.16 158.69
  C 92.55 159.24 96.98 158.82 102.11 158.25
  C 104.66 157.97 107.04 156.86 109.58 156.20
  A 1.34 1.20 -78.4 0 0 110.32 155.65
  Q 111.24 154.27 112.78 153.62
  A 1.89 1.27 -74.6 0 0 113.49 153.01
  L 115.17 150.57
  A 0.87 0.66 -45.9 0 0 115.27 149.75
  L 114.43 148.25
  L 114.65 28.25
  Q 115.70 62.96 115.18 97.69
  Q 115.17 98.04 115.15 97.68
  L 114.81 92.05
  Q 114.76 91.37 114.77 92.07
  C 114.82 110.42 114.39 128.65 114.96 147.25
  A 0.64 0.55 -88.6 0 0 115.46 147.86
  C 117.48 148.07 117.03 138.79 117.05 137.33
  C 117.46 113.72 117.10 90.12 116.98 66.50
  C 116.93 54.57 117.52 38.35 117.09 24.23
  A 1.62 1.22 31.6 0 0 116.75 23.36
  Q 115.70 22.02 115.95 20.22
  A 0.55 0.42 -83.8 0 0 115.57 19.60
  C 114.98 19.57 115.29 22.33 114.50 21.04
  Q 112.71 12.80 104.50 12.75
  Q 91.31 12.67 21.75 12.79
  Q 20.34 13.11 20.46 12.00
  A 0.61 0.54 2.6 0 1 21.06 11.51
  Q 63.28 11.49 105.50 11.34
  Q 106.09 11.34 106.05 11.18
  A 0.97 0.96 -7.9 0 0 105.12 10.49
  Q 63.87 10.52 26.11 10.49
  C 20.16 10.48 16.56 11.36 13.05 15.86
  A 1.53 0.62 81.0 0 0 12.84 16.77
  L 12.84 18.21
  A 0.48 0.48 -86.7 0 0 13.26 18.69
  Q 13.95 18.75 14.04 19.50
  Z"
/>
<path fill="#030403" fill-opacity="0.192" d="
  M 21.75 12.79
  Q 17.73 13.46 15.46 16.75
  L 14.04 19.50
  Q 13.95 18.75 13.26 18.69
  A 0.48 0.48 -86.7 0 1 12.84 18.21
  L 12.84 16.77
  A 1.53 0.62 81.0 0 1 13.05 15.86
  C 16.56 11.36 20.16 10.48 26.11 10.49
  Q 63.87 10.52 105.12 10.49
  A 0.97 0.96 -7.9 0 1 106.05 11.18
  Q 106.09 11.34 105.50 11.34
  Q 63.28 11.49 21.06 11.51
  A 0.61 0.54 2.6 0 0 20.46 12.00
  Q 20.34 13.11 21.75 12.79
  Z"
/>
<path fill="#ffffff" d="
  M 21.75 12.79
  Q 91.31 12.67 104.50 12.75
  Q 112.71 12.80 114.50 21.04
  L 114.65 28.25
  L 114.43 148.25
  Q 111.43 155.30 104.05 155.40
  L 96.25 155.29
  L 96.00 155.29
  L 91.25 155.29
  Q 57.25 155.22 23.25 155.21
  Q 19.70 155.21 17.00 152.96
  Q 14.00 148.78 14.00 147.25
  Q 14.00 84.59 14.00 21.92
  C 14.00 20.01 14.94 18.56 15.46 16.75
  Q 17.73 13.46 21.75 12.79
  Z
  M 21.36 25.45
  C 21.98 20.41 27.06 18.54 30.25 22.87
  A 0.76 0.68 62.1 0 0 31.03 23.16
  Q 32.28 22.81 33.18 21.87
  A 0.63 0.61 50.2 0 0 33.24 21.08
  C 30.53 17.07 24.45 15.42 20.83 18.81
  C 15.74 23.59 15.76 40.06 22.60 43.58
  C 27.36 46.03 31.87 43.08 33.79 38.53
  C 36.89 31.16 30.54 21.41 21.76 25.71
  Q 21.30 25.94 21.36 25.45
  Z
  M 51.24 45.02
  Q 49.61 44.81 48.48 46.36
  A 0.77 0.59 -59.8 0 1 47.72 46.67
  Q 47.01 46.42 46.61 45.56
  A 0.80 0.72 75.6 0 0 45.92 45.10
  C 37.45 45.35 45.00 55.47 47.64 58.68
  A 0.40 0.39 -45.9 0 0 48.26 58.66
  C 49.54 56.97 58.39 45.94 51.24 45.02
  Z
  M 84.42 45.33
  C 81.69 43.60 80.14 48.28 78.89 46.03
  A 1.64 0.81 72.8 0 0 78.23 45.33
  Q 75.99 44.33 74.65 46.18
  C 72.33 49.39 77.53 56.13 79.64 58.69
  A 0.40 0.39 -46.7 0 0 80.26 58.67
  C 82.04 56.33 88.87 48.14 84.42 45.33
  Z
  M 25.54 52.03
  C 23.16 48.69 19.38 49.94 19.17 53.62
  C 18.97 57.15 23.37 62.93 25.58 65.61
  A 0.41 0.41 0.0 0 0 26.22 65.61
  C 28.62 62.69 37.36 51.84 29.74 49.82
  A 1.16 0.81 27.5 0 0 28.81 49.94
  L 26.14 52.06
  A 0.45 0.38 -37.1 0 1 25.54 52.03
  Z
  M 52.56 77.44
  Q 50.05 76.15 48.69 78.30
  A 0.85 0.65 -65.8 0 1 47.94 78.71
  Q 47.09 78.55 46.63 77.65
  A 0.90 0.72 73.6 0 0 45.93 77.16
  C 37.43 77.00 45.01 87.53 47.62 90.66
  A 0.41 0.40 44.3 0 0 48.26 90.66
  Q 51.57 86.44 53.81 81.80
  Q 55.25 78.81 52.56 77.44
  Z
  M 85.35 78.19
  C 82.62 74.14 80.19 80.74 78.74 77.84
  A 1.19 0.83 77.0 0 0 78.08 77.24
  C 74.84 76.47 73.37 79.15 74.39 81.96
  Q 76.15 86.79 79.67 90.67
  A 0.41 0.40 40.5 0 0 80.31 90.63
  L 85.52 82.57
  Q 86.89 80.46 85.35 78.19
  Z
  M 95.75 111.96
  C 93.48 116.79 99.05 120.73 101.42 116.19
  A 0.71 0.71 -49.2 0 1 102.62 116.10
  Q 105.39 119.79 107.93 116.73
  Q 109.75 114.54 108.50 111.99
  Q 106.03 106.92 102.49 102.34
  A 0.40 0.40 -43.8 0 0 101.87 102.33
  Q 98.19 106.75 95.75 111.96
  Z
  M 48.75 121.70
  Q 51.05 124.36 53.10 122.03
  Q 55.05 119.81 53.67 117.62
  L 48.44 109.29
  A 0.45 0.41 -43.5 0 0 47.73 109.30
  C 45.86 111.84 41.72 116.90 42.20 120.18
  Q 42.93 125.06 48.03 121.60
  A 0.55 0.54 52.5 0 1 48.75 121.70
  Z
  M 74.91 122.07
  C 76.38 123.41 78.56 123.40 79.57 121.60
  A 0.43 0.42 -57.0 0 1 80.20 121.46
  C 82.15 122.90 84.20 124.01 85.61 121.17
  C 87.13 118.10 82.52 111.96 80.72 109.64
  A 0.80 0.80 -45.8 0 0 79.44 109.66
  C 77.60 112.21 71.86 119.28 74.91 122.07
  Z
  M 106.65 142.57
  C 106.16 147.65 100.79 149.40 97.76 145.14
  A 0.75 0.68 64.2 0 0 97.00 144.83
  Q 95.73 145.18 94.81 146.14
  A 0.63 0.59 50.3 0 0 94.76 146.92
  C 97.50 150.92 103.49 152.57 107.09 149.24
  C 112.18 144.54 112.34 127.53 105.24 124.30
  C 94.50 119.41 88.72 137.80 98.81 142.72
  Q 102.26 144.41 106.25 142.30
  Q 106.70 142.06 106.65 142.57
  Z"
/>
<path fill="#f2f4f5" fill-opacity="0.973" d="
  M 15.46 16.75
  C 14.94 18.56 14.00 20.01 14.00 21.92
  Q 14.00 84.59 14.00 147.25
  Q 14.00 148.78 17.00 152.96
  Q 13.60 150.06 13.56 146.69
  Q 13.12 110.60 13.71 21.00
  L 14.04 19.50
  L 15.46 16.75
  Z"
/>
<path fill="#c4332c" d="
  M 21.76 25.71
  C 30.54 21.41 36.89 31.16 33.79 38.53
  C 31.87 43.08 27.36 46.03 22.60 43.58
  C 15.76 40.06 15.74 23.59 20.83 18.81
  C 24.45 15.42 30.53 17.07 33.24 21.08
  A 0.63 0.61 50.2 0 1 33.18 21.87
  Q 32.28 22.81 31.03 23.16
  A 0.76 0.68 62.1 0 1 30.25 22.87
  C 27.06 18.54 21.98 20.41 21.36 25.45
  Q 21.30 25.94 21.76 25.71
  Z
  M 26.2488 40.8544
  A 6.42 4.93 87.6 0 0 30.9057 34.2336
  A 6.42 4.93 87.6 0 0 25.7112 28.0256
  A 6.42 4.93 87.6 0 0 21.0543 34.6464
  A 6.42 4.93 87.6 0 0 26.2488 40.8544
  Z"
/>
<path fill="#030403" fill-opacity="0.192" d="
  M 13.71 21.00
  Q 13.12 110.60 13.56 146.69
  Q 13.60 150.06 17.00 152.96
  Q 19.70 155.21 23.25 155.21
  Q 57.25 155.22 91.25 155.29
  Q 93.63 156.39 96.00 155.29
  L 96.25 155.29
  Q 100.09 156.36 104.05 155.40
  Q 111.43 155.30 114.43 148.25
  L 115.27 149.75
  A 0.87 0.66 -45.9 0 1 115.17 150.57
  L 113.49 153.01
  A 1.89 1.27 -74.6 0 1 112.78 153.62
  Q 111.24 154.27 110.32 155.65
  A 1.34 1.20 -78.4 0 1 109.58 156.20
  C 107.04 156.86 104.66 157.97 102.11 158.25
  C 96.98 158.82 92.55 159.24 87.16 158.69
  C 84.64 158.43 81.63 158.77 79.62 158.76
  Q 58.22 158.64 36.81 158.82
  C 36.73 158.29 29.94 158.70 28.94 158.77
  Q 21.33 159.30 14.72 154.28
  Q 13.97 153.71 13.93 153.00
  A 1.06 0.80 -80.1 0 0 13.55 152.26
  C 10.91 150.58 12.37 147.77 11.03 145.37
  Q 10.76 144.90 10.76 144.43
  Q 10.74 86.81 10.75 29.19
  C 10.75 25.89 10.53 23.72 11.76 20.39
  Q 12.07 19.57 12.34 20.40
  Q 12.64 21.30 13.71 21.00
  Z"
/>
<path fill="#030403" fill-opacity="0.192" d="
  M 114.65 28.25
  L 114.50 21.04
  C 115.29 22.33 114.98 19.57 115.57 19.60
  A 0.55 0.42 -83.8 0 1 115.95 20.22
  Q 115.70 22.02 116.75 23.36
  A 1.62 1.22 31.6 0 1 117.09 24.23
  C 117.52 38.35 116.93 54.57 116.98 66.50
  C 117.10 90.12 117.46 113.72 117.05 137.33
  C 117.03 138.79 117.48 148.07 115.46 147.86
  A 0.64 0.55 -88.6 0 1 114.96 147.25
  C 114.39 128.65 114.82 110.42 114.77 92.07
  Q 114.76 91.37 114.81 92.05
  L 115.15 97.68
  Q 115.17 98.04 115.18 97.69
  Q 115.70 62.96 114.65 28.25
  Z"
/>
<ellipse fill="#ffffff" cx="0.00" cy="0.00" transform="translate(25.98,34.44) rotate(87.6)" rx="6.42" ry="4.93"/>
<path fill="#c4332c" d="
  M 51.24 45.02
  C 58.39 45.94 49.54 56.97 48.26 58.66
  A 0.40 0.39 -45.9 0 1 47.64 58.68
  C 45.00 55.47 37.45 45.35 45.92 45.10
  A 0.80 0.72 75.6 0 1 46.61 45.56
  Q 47.01 46.42 47.72 46.67
  A 0.77 0.59 -59.8 0 0 48.48 46.36
  Q 49.61 44.81 51.24 45.02
  Z"
/>
<path fill="#c4332c" d="
  M 78.89 46.03
  C 80.14 48.28 81.69 43.60 84.42 45.33
  C 88.87 48.14 82.04 56.33 80.26 58.67
  A 0.40 0.39 -46.7 0 1 79.64 58.69
  C 77.53 56.13 72.33 49.39 74.65 46.18
  Q 75.99 44.33 78.23 45.33
  A 1.64 0.81 72.8 0 1 78.89 46.03
  Z"
/>
<path fill="#c4332c" d="
  M 26.14 52.06
  L 28.81 49.94
  A 1.16 0.81 27.5 0 1 29.74 49.82
  C 37.36 51.84 28.62 62.69 26.22 65.61
  A 0.41 0.41 0.0 0 1 25.58 65.61
  C 23.37 62.93 18.97 57.15 19.17 53.62
  C 19.38 49.94 23.16 48.69 25.54 52.03
  A 0.45 0.38 -37.1 0 0 26.14 52.06
  Z"
/>
<path fill="#c4332c" d="
  M 52.56 77.44
  Q 55.25 78.81 53.81 81.80
  Q 51.57 86.44 48.26 90.66
  A 0.41 0.40 44.3 0 1 47.62 90.66
  C 45.01 87.53 37.43 77.00 45.93 77.16
  A 0.90 0.72 73.6 0 1 46.63 77.65
  Q 47.09 78.55 47.94 78.71
  A 0.85 0.65 -65.8 0 0 48.69 78.30
  Q 50.05 76.15 52.56 77.44
  Z"
/>
<path fill="#c4332c" d="
  M 78.74 77.84
  C 80.19 80.74 82.62 74.14 85.35 78.19
  Q 86.89 80.46 85.52 82.57
  L 80.31 90.63
  A 0.41 0.40 40.5 0 1 79.67 90.67
  Q 76.15 86.79 74.39 81.96
  C 73.37 79.15 74.84 76.47 78.08 77.24
  A 1.19 0.83 77.0 0 1 78.74 77.84
  Z"
/>
<path fill="#c4332c" d="
  M 101.42 116.19
  C 99.05 120.73 93.48 116.79 95.75 111.96
  Q 98.19 106.75 101.87 102.33
  A 0.40 0.40 -43.8 0 1 102.49 102.34
  Q 106.03 106.92 108.50 111.99
  Q 109.75 114.54 107.93 116.73
  Q 105.39 119.79 102.62 116.10
  A 0.71 0.71 -49.2 0 0 101.42 116.19
  Z"
/>
<path fill="#c4332c" d="
  M 48.03 121.60
  Q 42.93 125.06 42.20 120.18
  C 41.72 116.90 45.86 111.84 47.73 109.30
  A 0.45 0.41 -43.5 0 1 48.44 109.29
  L 53.67 117.62
  Q 55.05 119.81 53.10 122.03
  Q 51.05 124.36 48.75 121.70
  A 0.55 0.54 52.5 0 0 48.03 121.60
  Z"
/>
<path fill="#c4332c" d="
  M 74.91 122.07
  C 71.86 119.28 77.60 112.21 79.44 109.66
  A 0.80 0.80 -45.8 0 1 80.72 109.64
  C 82.52 111.96 87.13 118.10 85.61 121.17
  C 84.20 124.01 82.15 122.90 80.20 121.46
  A 0.43 0.42 -57.0 0 0 79.57 121.60
  C 78.56 123.40 76.38 123.41 74.91 122.07
  Z"
/>
<path fill="#c4332c" d="
  M 106.25 142.30
  Q 102.26 144.41 98.81 142.72
  C 88.72 137.80 94.50 119.41 105.24 124.30
  C 112.34 127.53 112.18 144.54 107.09 149.24
  C 103.49 152.57 97.50 150.92 94.76 146.92
  A 0.63 0.59 50.3 0 1 94.81 146.14
  Q 95.73 145.18 97.00 144.83
  A 0.75 0.68 64.2 0 1 97.76 145.14
  C 100.79 149.40 106.16 147.65 106.65 142.57
  Q 106.70 142.06 106.25 142.30
  Z
  M 104.19 127.81
  Q 102.12 125.87 99.94 127.68
  Q 96.39 130.62 97.15 134.67
  C 99.38 146.39 112.93 136.00 104.19 127.81
  Z"
/>
<path fill="#ffffff" d="
  M 104.19 127.81
  C 112.93 136.00 99.38 146.39 97.15 134.67
  Q 96.39 130.62 99.94 127.68
  Q 102.12 125.87 104.19 127.81
  Z"
/>
<path fill="#1b1b1d" fill-opacity="0.886" d="
  M 91.25 155.29
  L 96.00 155.29
  Q 93.63 156.39 91.25 155.29
  Z"
/>
<path fill="#1b1b1d" fill-opacity="0.886" d="
  M 96.25 155.29
  L 104.05 155.40
  Q 100.09 156.36 96.25 155.29
  Z"
/>
</svg>
