<?xml version="1.0" encoding="UTF-8" standalone="no"?>
<svg xmlns="http://www.w3.org/2000/svg" version="1.2" baseProfile="tiny" viewBox="0 0 128 168">
<g stroke-width="0.00" fill="none" stroke-linecap="butt">
<path stroke="#e5e5e5" stroke-opacity="0.557" vector-effect="non-scaling-stroke" d="
  M 109.67 13.69
  C 107.95 13.32 106.47 12.76 104.75 12.76
  Q 64.83 12.73 24.93 12.77
  C 19.85 12.77 16.49 13.91 14.46 18.50"
/>
<path stroke="#e5e5e5" stroke-opacity="0.557" vector-effect="non-scaling-stroke" d="
  M 17.00 152.96
  Q 19.64 155.16 22.06 155.19
  Q 40.88 155.43 100.23 155.18"
/>
<path stroke="#d6d6d6" stroke-opacity="0.596" vector-effect="non-scaling-stroke" d="
  M 100.23 155.18
  C 110.48 157.04 114.45 151.54 114.52 142.43
  Q 114.64 126.22 114.26 110.00"
/>
<path stroke="#d6d6d6" stroke-opacity="0.596" vector-effect="non-scaling-stroke" d="
  M 114.30 24.50
  Q 115.27 17.54 109.67 13.69"
/>
<path stroke="#f9fafb" stroke-opacity="0.984" vector-effect="non-scaling-stroke" d="
  M 114.30 24.50
  Q 113.66 67.25 114.26 110.00"
/>
<path stroke="#f9fafb" stroke-opacity="0.984" vector-effect="non-scaling-stroke" d="
  M 17.00 152.96
  Q 14.00 148.78 14.00 147.25
  Q 14.00 84.71 14.00 22.17
  C 14.00 20.99 14.52 19.80 14.46 18.50"
/>
<path stroke="#e29996" vector-effect="non-scaling-stroke" d="
  M 27.19 40.72
  Q 24.89 41.03 25.73 43.75
  A 0.70 0.69 -8.4 0 0 26.40 44.24
  L 32.37 44.23
  A 0.69 0.68 7.4 0 0 33.02 43.74
  Q 33.69 41.32 31.86 40.64
  A 1.07 0.83 7.8 0 1 31.24 40.01
  Q 30.58 37.14 33.54 37.70
  A 0.65 0.62 17.2 0 0 34.25 37.35
  Q 35.80 33.70 31.85 34.09
  A 0.46 0.45 -3.5 0 1 31.34 33.65
  L 31.26 18.05
  A 0.76 0.67 -82.6 0 0 30.80 17.36
  C 29.21 16.80 28.32 17.22 27.43 18.66
  Q 22.63 26.43 17.74 34.14
  C 17.08 35.19 17.19 36.07 17.27 37.24
  A 0.55 0.52 -1.7 0 0 17.82 37.73
  L 27.19 37.77
  A 0.54 0.50 -0.0 0 1 27.73 38.27
  L 27.73 40.19
  A 0.62 0.52 -4.3 0 1 27.19 40.72"
/>
<path stroke="#e29996" vector-effect="non-scaling-stroke" d="
  M 51.24 45.02
  Q 49.61 44.81 48.48 46.36
  A 0.74 0.59 -60.4 0 1 47.72 46.66
  Q 47.03 46.40 46.64 45.64
  A 0.93 0.77 74.5 0 0 45.94 45.15
  C 37.40 44.78 44.96 55.51 47.64 58.68
  A 0.40 0.40 43.8 0 0 48.26 58.67
  C 49.56 56.96 58.37 45.94 51.24 45.02"
/>
<path stroke="#e29996" vector-effect="non-scaling-stroke" d="
  M 84.56 45.44
  Q 82.25 43.79 80.48 46.36
  A 0.73 0.60 -61.2 0 1 79.72 46.66
  Q 79.03 46.40 78.64 45.64
  A 0.93 0.77 74.5 0 0 77.94 45.15
  C 69.42 44.79 76.99 55.53 79.64 58.69
  A 0.41 0.40 -46.7 0 0 80.27 58.66
  C 82.53 55.73 88.57 48.30 84.56 45.44"
/>
<path stroke="#e29996" vector-effect="non-scaling-stroke" d="
  M 25.50 52.06
  Q 21.42 47.30 19.05 53.32
  A 1.45 1.36 48.1 0 0 19.03 54.27
  Q 21.15 60.59 25.58 65.59
  A 0.44 0.44 -45.8 0 0 26.25 65.58
  Q 30.58 60.51 32.98 54.20
  A 1.29 1.28 44.7 0 0 32.97 53.26
  Q 30.48 46.92 26.13 52.06
  A 0.42 0.41 -44.6 0 1 25.50 52.06"
/>
<path stroke="#e29996" vector-effect="non-scaling-stroke" d="
  M 95.36 112.64
  C 94.10 116.88 97.87 120.25 101.61 116.23
  A 0.71 0.71 -36.5 0 1 102.77 116.40
  C 104.78 120.53 110.60 116.42 108.29 111.47
  Q 106.33 107.28 102.51 102.35
  A 0.42 0.41 46.6 0 0 101.87 102.33
  Q 96.57 108.58 95.36 112.64"
/>
<path stroke="#e29996" vector-effect="non-scaling-stroke" d="
  M 75.94 122.81
  Q 78.10 123.79 79.51 121.66
  A 0.73 0.59 -62.7 0 1 80.26 121.33
  Q 80.80 121.50 81.12 121.98
  Q 81.48 122.54 81.78 122.69
  Q 83.40 123.53 84.71 122.42
  C 88.40 119.31 82.63 112.13 80.43 109.28
  A 0.43 0.43 43.9 0 0 79.75 109.29
  C 77.72 112.01 70.71 120.45 75.94 122.81"
/>
<path stroke="#e29996" vector-effect="non-scaling-stroke" d="
  M 48.75 121.70
  Q 51.05 124.36 53.10 122.03
  Q 55.05 119.81 53.67 117.62
  L 48.44 109.29
  A 0.45 0.41 -43.5 0 0 47.73 109.30
  C 45.86 111.84 41.72 116.90 42.20 120.18
  Q 42.93 125.06 48.03 121.60
  A 0.55 0.54 52.5 0 1 48.75 121.70"
/>
<path stroke="#e29996" vector-effect="non-scaling-stroke" d="
  M 100.81 127.28
  L 101.71 127.22
  A 0.55 0.52 -1.8 0 0 102.23 126.70
  L 102.23 124.29
  A 0.54 0.52 0.6 0 0 101.70 123.77
  L 95.82 123.76
  A 0.76 0.75 10.9 0 0 95.12 124.23
  Q 94.11 126.76 96.27 127.36
  A 0.81 0.69 5.6 0 1 96.85 127.96
  Q 97.30 130.92 94.28 130.32
  A 0.57 0.56 15.3 0 0 93.63 130.68
  Q 92.29 134.51 96.20 133.84
  A 0.42 0.41 -5.3 0 1 96.69 134.24
  L 96.75 149.95
  A 0.71 0.64 -83.1 0 0 97.22 150.62
  Q 98.19 150.89 99.17 150.76
  A 1.15 1.04 -76.1 0 0 99.93 150.25
  L 110.80 132.80
  Q 112.41 130.21 109.55 130.22
  L 101.04 130.23
  A 0.67 0.51 -1.8 0 1 100.38 129.76
  L 100.23 127.82
  A 0.60 0.50 -3.5 0 1 100.81 127.28"
/>
<path stroke="#e29996" vector-effect="non-scaling-stroke" d="
  M 27.19 25.36
  L 22.01 33.72
  Q 21.71 34.20 22.25 34.20
  L 27.13 34.16
  A 0.55 0.54 89.5 0 0 27.66 33.61
  L 27.61 25.46
  Q 27.60 24.69 27.19 25.36"
/>
<path stroke="#e29996" vector-effect="non-scaling-stroke" d="
  M 100.74 142.67
  L 105.99 134.37
  Q 106.29 133.89 105.74 133.88
  L 100.78 133.78
  A 0.54 0.49 -89.5 0 0 100.28 134.32
  L 100.25 142.52
  Q 100.25 143.45 100.74 142.67"
/>
</g>
<path fill="#010001" fill-opacity="0.114" d="
  M 120.00 71.50
  L 120.10 71.53
  A 0.16 0.14 -82.8 0 1 120.20 71.68
  L 120.30 147.51
  A 1.07 0.96 -21.3 0 1 119.90 148.30
  Q 118.52 149.39 118.68 151.17
  A 0.85 0.84 -20.1 0 1 118.32 151.93
  Q 116.96 152.88 116.72 154.49
  Q 116.43 156.45 113.26 157.53
  Q 110.63 158.41 108.91 160.51
  A 1.11 1.02 -68.4 0 1 108.10 160.90
  C 97.43 160.97 86.29 161.50 75.68 160.56
  C 73.38 160.35 71.13 161.03 69.11 161.02
  Q 44.83 161.01 20.56 160.62
  A 0.94 0.63 69.8 0 1 19.91 160.15
  Q 19.60 159.59 18.71 159.67
  A 0.84 0.79 69.9 0 1 17.99 159.31
  Q 17.33 158.37 15.92 158.71
  A 0.97 0.87 -27.8 0 1 15.08 158.50
  Q 10.75 154.27 10.22 153.24
  Q 7.02 147.06 7.01 144.00
  Q 6.98 83.53 7.01 23.07
  Q 7.01 22.64 7.35 22.01
  Q 7.59 21.55 7.61 21.08
  Q 7.76 17.26 10.63 14.80
  A 1.12 1.06 70.6 0 0 11.00 13.97
  L 11.00 13.61
  A 0.85 0.79 -23.7 0 1 11.27 12.99
  Q 12.96 11.44 14.69 9.91
  C 16.06 8.69 17.98 8.43 19.38 7.03
  A 0.92 0.87 28.0 0 1 20.21 6.80
  Q 21.73 7.13 22.91 6.33
  A 1.85 1.20 -51.6 0 1 23.82 6.02
  L 105.19 6.02
  A 0.57 0.42 3.3 0 1 105.77 6.51
  L 105.71 6.84
  A 0.29 0.21 -82.4 0 0 105.89 7.18
  L 109.26 7.34
  A 0.78 0.58 76.7 0 1 109.83 7.82
  Q 110.06 8.38 110.98 8.29
  A 1.07 1.04 -24.3 0 1 111.81 8.59
  Q 112.77 9.59 114.01 10.10
  Q 114.51 10.31 114.80 10.66
  C 118.60 15.35 120.26 19.78 120.22 26.20
  Q 120.07 47.97 120.26 69.75
  Q 120.27 70.34 119.89 71.25
  A 0.20 0.18 -70.6 0 0 120.00 71.50
  Z
  M 109.67 13.69
  C 107.95 13.32 106.47 12.76 104.75 12.76
  Q 64.83 12.73 24.93 12.77
  C 19.85 12.77 16.49 13.91 14.46 18.50
  L 13.71 20.50
  Q 13.24 21.43 12.41 21.04
  A 0.58 0.49 -66.2 0 1 12.20 20.32
  Q 12.75 19.02 12.07 19.30
  A 1.73 1.72 -11.2 0 0 11.00 20.89
  L 11.00 142.94
  A 0.62 0.56 6.2 0 0 11.50 143.50
  Q 12.02 143.60 12.40 143.87
  A 1.06 0.73 -76.3 0 1 12.72 144.71
  Q 12.63 146.45 13.75 147.71
  Q 14.51 150.90 17.00 152.96
  Q 19.64 155.16 22.06 155.19
  Q 40.88 155.43 100.23 155.18
  Q 102.62 156.45 105.29 155.99
  A 1.84 1.54 47.9 0 1 106.22 156.12
  C 109.49 157.53 117.38 151.54 115.21 149.17
  Q 114.93 148.87 115.34 148.89
  C 116.67 148.93 117.40 147.84 117.40 146.54
  Q 117.60 86.29 117.46 26.04
  C 117.45 23.75 116.36 21.27 116.28 18.76
  A 2.04 1.61 -67.8 0 0 116.01 17.83
  C 113.92 14.63 110.36 10.51 106.19 10.51
  Q 65.24 10.49 24.28 10.51
  Q 24.00 10.51 23.73 10.58
  Q 20.82 11.32 24.00 11.33
  Q 64.75 11.51 105.50 11.49
  Q 108.57 11.49 109.67 13.69
  Z"
/>
<path fill="#020303" fill-opacity="0.192" d="
  M 100.23 155.18
  C 110.48 157.04 114.45 151.54 114.52 142.43
  Q 114.64 126.22 114.26 110.00
  Q 114.90 67.25 114.30 24.50
  Q 115.27 17.54 109.67 13.69
  Q 108.57 11.49 105.50 11.49
  Q 64.75 11.51 24.00 11.33
  Q 20.82 11.32 23.73 10.58
  Q 24.00 10.51 24.28 10.51
  Q 65.24 10.49 106.19 10.51
  C 110.36 10.51 113.92 14.63 116.01 17.83
  A 2.04 1.61 -67.8 0 1 116.28 18.76
  C 116.36 21.27 117.45 23.75 117.46 26.04
  Q 117.60 86.29 117.40 146.54
  C 117.40 147.84 116.67 148.93 115.34 148.89
  Q 114.93 148.87 115.21 149.17
  C 117.38 151.54 109.49 157.53 106.22 156.12
  A 1.84 1.54 47.9 0 0 105.29 155.99
  Q 102.62 156.45 100.23 155.18
  Z
  M 114.80 122.07
  L 114.80 136.68
  Q 114.80 137.38 114.84 136.68
  Q 115.25 129.38 114.84 122.07
  Q 114.80 121.37 114.80 122.07
  Z"
/>
<path fill="#ffffff" d="
  M 109.67 13.69
  Q 115.27 17.54 114.30 24.50
  Q 113.66 67.25 114.26 110.00
  Q 114.64 126.22 114.52 142.43
  C 114.45 151.54 110.48 157.04 100.23 155.18
  Q 40.88 155.43 22.06 155.19
  Q 19.64 155.16 17.00 152.96
  Q 14.00 148.78 14.00 147.25
  Q 14.00 84.71 14.00 22.17
  C 14.00 20.99 14.52 19.80 14.46 18.50
  C 16.49 13.91 19.85 12.77 24.93 12.77
  Q 64.83 12.73 104.75 12.76
  C 106.47 12.76 107.95 13.32 109.67 13.69
  Z
  M 27.19 40.72
  Q 24.89 41.03 25.73 43.75
  A 0.70 0.69 -8.4 0 0 26.40 44.24
  L 32.37 44.23
  A 0.69 0.68 7.4 0 0 33.02 43.74
  Q 33.69 41.32 31.86 40.64
  A 1.07 0.83 7.8 0 1 31.24 40.01
  Q 30.58 37.14 33.54 37.70
  A 0.65 0.62 17.2 0 0 34.25 37.35
  Q 35.80 33.70 31.85 34.09
  A 0.46 0.45 -3.5 0 1 31.34 33.65
  L 31.26 18.05
  A 0.76 0.67 -82.6 0 0 30.80 17.36
  C 29.21 16.80 28.32 17.22 27.43 18.66
  Q 22.63 26.43 17.74 34.14
  C 17.08 35.19 17.19 36.07 17.27 37.24
  A 0.55 0.52 -1.7 0 0 17.82 37.73
  L 27.19 37.77
  A 0.54 0.50 -0.0 0 1 27.73 38.27
  L 27.73 40.19
  A 0.62 0.52 -4.3 0 1 27.19 40.72
  Z
  M 51.24 45.02
  Q 49.61 44.81 48.48 46.36
  A 0.74 0.59 -60.4 0 1 47.72 46.66
  Q 47.03 46.40 46.64 45.64
  A 0.93 0.77 74.5 0 0 45.94 45.15
  C 37.40 44.78 44.96 55.51 47.64 58.68
  A 0.40 0.40 43.8 0 0 48.26 58.67
  C 49.56 56.96 58.37 45.94 51.24 45.02
  Z
  M 84.56 45.44
  Q 82.25 43.79 80.48 46.36
  A 0.73 0.60 -61.2 0 1 79.72 46.66
  Q 79.03 46.40 78.64 45.64
  A 0.93 0.77 74.5 0 0 77.94 45.15
  C 69.42 44.79 76.99 55.53 79.64 58.69
  A 0.41 0.40 -46.7 0 0 80.27 58.66
  C 82.53 55.73 88.57 48.30 84.56 45.44
  Z
  M 25.50 52.06
  Q 21.42 47.30 19.05 53.32
  A 1.45 1.36 48.1 0 0 19.03 54.27
  Q 21.15 60.59 25.58 65.59
  A 0.44 0.44 -45.8 0 0 26.25 65.58
  Q 30.58 60.51 32.98 54.20
  A 1.29 1.28 44.7 0 0 32.97 53.26
  Q 30.48 46.92 26.13 52.06
  A 0.42 0.41 -44.6 0 1 25.50 52.06
  Z
  M 95.36 112.64
  C 94.10 116.88 97.87 120.25 101.61 116.23
  A 0.71 0.71 -36.5 0 1 102.77 116.40
  C 104.78 120.53 110.60 116.42 108.29 111.47
  Q 106.33 107.28 102.51 102.35
  A 0.42 0.41 46.6 0 0 101.87 102.33
  Q 96.57 108.58 95.36 112.64
  Z
  M 75.94 122.81
  Q 78.10 123.79 79.51 121.66
  A 0.73 0.59 -62.7 0 1 80.26 121.33
  Q 80.80 121.50 81.12 121.98
  Q 81.48 122.54 81.78 122.69
  Q 83.40 123.53 84.71 122.42
  C 88.40 119.31 82.63 112.13 80.43 109.28
  A 0.43 0.43 43.9 0 0 79.75 109.29
  C 77.72 112.01 70.71 120.45 75.94 122.81
  Z
  M 48.75 121.70
  Q 51.05 124.36 53.10 122.03
  Q 55.05 119.81 53.67 117.62
  L 48.44 109.29
  A 0.45 0.41 -43.5 0 0 47.73 109.30
  C 45.86 111.84 41.72 116.90 42.20 120.18
  Q 42.93 125.06 48.03 121.60
  A 0.55 0.54 52.5 0 1 48.75 121.70
  Z
  M 100.81 127.28
  L 101.71 127.22
  A 0.55 0.52 -1.8 0 0 102.23 126.70
  L 102.23 124.29
  A 0.54 0.52 0.6 0 0 101.70 123.77
  L 95.82 123.76
  A 0.76 0.75 10.9 0 0 95.12 124.23
  Q 94.11 126.76 96.27 127.36
  A 0.81 0.69 5.6 0 1 96.85 127.96
  Q 97.30 130.92 94.28 130.32
  A 0.57 0.56 15.3 0 0 93.63 130.68
  Q 92.29 134.51 96.20 133.84
  A 0.42 0.41 -5.3 0 1 96.69 134.24
  L 96.75 149.95
  A 0.71 0.64 -83.1 0 0 97.22 150.62
  Q 98.19 150.89 99.17 150.76
  A 1.15 1.04 -76.1 0 0 99.93 150.25
  L 110.80 132.80
  Q 112.41 130.21 109.55 130.22
  L 101.04 130.23
  A 0.67 0.51 -1.8 0 1 100.38 129.76
  L 100.23 127.82
  A 0.60 0.50 -3.5 0 1 100.81 127.28
  Z"
/>
<path fill="#c4332c" d="
  M 27.73 40.19
  L 27.73 38.27
  A 0.54 0.50 -0.0 0 0 27.19 37.77
  L 17.82 37.73
  A 0.55 0.52 -1.7 0 1 17.27 37.24
  C 17.19 36.07 17.08 35.19 17.74 34.14
  Q 22.63 26.43 27.43 18.66
  C 28.32 17.22 29.21 16.80 30.80 17.36
  A 0.76 0.67 -82.6 0 1 31.26 18.05
  L 31.34 33.65
  A 0.46 0.45 -3.5 0 0 31.85 34.09
  Q 35.80 33.70 34.25 37.35
  A 0.65 0.62 17.2 0 1 33.54 37.70
  Q 30.58 37.14 31.24 40.01
  A 1.07 0.83 7.8 0 0 31.86 40.64
  Q 33.69 41.32 33.02 43.74
  A 0.69 0.68 7.4 0 1 32.37 44.23
  L 26.40 44.24
  A 0.70 0.69 -8.4 0 1 25.73 43.75
  Q 24.89 41.03 27.19 40.72
  A 0.62 0.52 -4.3 0 0 27.73 40.19
  Z
  M 27.19 25.36
  L 22.01 33.72
  Q 21.71 34.20 22.25 34.20
  L 27.13 34.16
  A 0.55 0.54 89.5 0 0 27.66 33.61
  L 27.61 25.46
  Q 27.60 24.69 27.19 25.36
  Z"
/>
<path fill="#f3f5f6" fill-opacity="0.965" d="
  M 14.46 18.50
  C 14.52 19.80 14.00 20.99 14.00 22.17
  Q 14.00 84.71 14.00 147.25
  Q 14.00 148.78 17.00 152.96
  Q 14.51 150.90 13.75 147.71
  Q 13.16 84.10 13.71 20.50
  L 14.46 18.50
  Z"
/>
<path fill="#020303" fill-opacity="0.192" d="
  M 13.71 20.50
  Q 13.16 84.10 13.75 147.71
  Q 12.63 146.45 12.72 144.71
  A 1.06 0.73 -76.3 0 0 12.40 143.87
  Q 12.02 143.60 11.50 143.50
  A 0.62 0.56 6.2 0 1 11.00 142.94
  L 11.00 20.89
  A 1.73 1.72 -11.2 0 1 12.07 19.30
  Q 12.75 19.02 12.20 20.32
  A 0.58 0.49 -66.2 0 0 12.41 21.04
  Q 13.24 21.43 13.71 20.50
  Z"
/>
<path fill="#f3f5f6" fill-opacity="0.965" d="
  M 114.30 24.50
  Q 114.90 67.25 114.26 110.00
  Q 113.66 67.25 114.30 24.50
  Z"
/>
<path fill="#ffffff" d="
  M 27.19 25.36
  Q 27.60 24.69 27.61 25.46
  L 27.66 33.61
  A 0.55 0.54 89.5 0 1 27.13 34.16
  L 22.25 34.20
  Q 21.71 34.20 22.01 33.72
  L 27.19 25.36
  Z"
/>
<path fill="#c4332c" d="
  M 51.24 45.02
  C 58.37 45.94 49.56 56.96 48.26 58.67
  A 0.40 0.40 43.8 0 1 47.64 58.68
  C 44.96 55.51 37.40 44.78 45.94 45.15
  A 0.93 0.77 74.5 0 1 46.64 45.64
  Q 47.03 46.40 47.72 46.66
  A 0.74 0.59 -60.4 0 0 48.48 46.36
  Q 49.61 44.81 51.24 45.02
  Z"
/>
<path fill="#c4332c" d="
  M 84.56 45.44
  C 88.57 48.30 82.53 55.73 80.27 58.66
  A 0.41 0.40 -46.7 0 1 79.64 58.69
  C 76.99 55.53 69.42 44.79 77.94 45.15
  A 0.93 0.77 74.5 0 1 78.64 45.64
  Q 79.03 46.40 79.72 46.66
  A 0.73 0.60 -61.2 0 0 80.48 46.36
  Q 82.25 43.79 84.56 45.44
  Z"
/>
<path fill="#c4332c" d="
  M 26.13 52.06
  Q 30.48 46.92 32.97 53.26
  A 1.29 1.28 44.7 0 1 32.98 54.20
  Q 30.58 60.51 26.25 65.58
  A 0.44 0.44 -45.8 0 1 25.58 65.59
  Q 21.15 60.59 19.03 54.27
  A 1.45 1.36 48.1 0 1 19.05 53.32
  Q 21.42 47.30 25.50 52.06
  A 0.42 0.41 -44.6 0 0 26.13 52.06
  Z"
/>
<path fill="#c4332c" d="
  M 101.61 116.23
  C 97.87 120.25 94.10 116.88 95.36 112.64
  Q 96.57 108.58 101.87 102.33
  A 0.42 0.41 46.6 0 1 102.51 102.35
  Q 106.33 107.28 108.29 111.47
  C 110.60 116.42 104.78 120.53 102.77 116.40
  A 0.71 0.71 -36.5 0 0 101.61 116.23
  Z"
/>
<path fill="#c4332c" d="
  M 75.94 122.81
  C 70.71 120.45 77.72 112.01 79.75 109.29
  A 0.43 0.43 43.9 0 1 80.43 109.28
  C 82.63 112.13 88.40 119.31 84.71 122.42
  Q 83.40 123.53 81.78 122.69
  Q 81.48 122.54 81.12 121.98
  Q 80.80 121.50 80.26 121.33
  A 0.73 0.59 -62.7 0 0 79.51 121.66
  Q 78.10 123.79 75.94 122.81
  Z"
/>
<path fill="#c4332c" d="
  M 48.03 121.60
  Q 42.93 125.06 42.20 120.18
  C 41.72 116.90 45.86 111.84 47.73 109.30
  A 0.45 0.41 -43.5 0 1 48.44 109.29
  L 53.67 117.62
  Q 55.05 119.81 53.10 122.03
  Q 51.05 124.36 48.75 121.70
  A 0.55 0.54 52.5 0 0 48.03 121.60
  Z"
/>
<path fill="#010001" fill-opacity="0.114" d="
  M 114.84 122.07
  Q 115.25 129.38 114.84 136.68
  Q 114.80 137.38 114.80 136.68
  L 114.80 122.07
  Q 114.80 121.37 114.84 122.07
  Z"
/>
<path fill="#c4332c" d="
  M 100.23 127.82
  L 100.38 129.76
  A 0.67 0.51 -1.8 0 0 101.04 130.23
  L 109.55 130.22
  Q 112.41 130.21 110.80 132.80
  L 99.93 150.25
  A 1.15 1.04 -76.1 0 1 99.17 150.76
  Q 98.19 150.89 97.22 150.62
  A 0.71 0.64 -83.1 0 1 96.75 149.95
  L 96.69 134.24
  A 0.42 0.41 -5.3 0 0 96.20 133.84
  Q 92.29 134.51 93.63 130.68
  A 0.57 0.56 15.3 0 1 94.28 130.32
  Q 97.30 130.92 96.85 127.96
  A 0.81 0.69 5.6 0 0 96.27 127.36
  Q 94.11 126.76 95.12 124.23
  A 0.76 0.75 10.9 0 1 95.82 123.76
  L 101.70 123.77
  A 0.54 0.52 0.6 0 1 102.23 124.29
  L 102.23 126.70
  A 0.55 0.52 -1.8 0 1 101.71 127.22
  L 100.81 127.28
  A 0.60 0.50 -3.5 0 0 100.23 127.82
  Z
  M 100.74 142.67
  L 105.99 134.37
  Q 106.29 133.89 105.74 133.88
  L 100.78 133.78
  A 0.54 0.49 -89.5 0 0 100.28 134.32
  L 100.25 142.52
  Q 100.25 143.45 100.74 142.67
  Z"
/>
<path fill="#ffffff" d="
  M 100.74 142.67
  Q 100.25 143.45 100.25 142.52
  L 100.28 134.32
  A 0.54 0.49 -89.5 0 1 100.78 133.78
  L 105.74 133.88
  Q 106.29 133.89 105.99 134.37
  L 100.74 142.67
  Z"
/>
</svg>
