<?xml version="1.0" encoding="utf-8"?>
<!-- Generator: Adobe Illustrator 27.0.1, SVG Export Plug-In . SVG Version: 6.00 Build 0)  -->
<svg version="1.1" id="Слой_1" xmlns="http://www.w3.org/2000/svg" xmlns:xlink="http://www.w3.org/1999/xlink" x="0px" y="0px"
	 viewBox="0 0 128 168" style="enable-background:new 0 0 128 168;" xml:space="preserve">
<style type="text/css">
	.st0{fill:#D8D8D8;}
	.st1{fill:#AAAAAA;}
	.st2{fill:#FFFFFF;}
	.st3{fill:#C4332C;}
	.st4{fill:#2C315E;}
	.st5{fill:#222221;}
	.st6{fill:#EAE9F1;}
	.st7{fill:#D8CA34;}
	.st8{fill:#D0D0DC;}
	.st9{fill:#B8BECD;}
	.st10{fill:#B3181E;}
	.st11{fill:#CFC332;}
	.st12{fill:#313024;}
	.st13{fill:#494E73;}
	.st14{fill:#5C6083;}
	.st15{fill:#3B3C47;}
	.st16{fill:#A3A6BB;}
	.st17{fill:#3A4068;}
	.st18{fill:#534E23;}
	.st19{fill:#9293AB;}
	.st20{fill:#918931;}
	.st21{fill:#E8DE3A;}
	.st22{fill:#B5A633;}
	.st23{fill:#671D2B;}
	.st24{fill:#454126;}
	.st25{fill:#635919;}
	.st26{fill:#501E20;}
	.st27{fill:#F6F5F8;}
</style>
<g>
	<path class="st0" d="M108.2,163.1H20.4c-6.9,0-12.4-5.6-12.4-12.4V20.2c0-6.9,5.6-12.4,12.4-12.4h87.8c6.9,0,12.4,5.6,12.4,12.4
		v130.5C120.6,157.6,115.1,163.1,108.2,163.1z"/>
	<path class="st1" d="M107.2,159.3H21.4c-5.5,0-9.9-4.4-9.9-9.9V21.3c0-5.5,4.4-9.9,9.9-9.9h85.8c5.5,0,9.9,4.4,9.9,9.9v128.1
		C117.1,154.8,112.7,159.3,107.2,159.3z"/>
	<path class="st2" d="M106.9,156.2H21.7c-4.4,0-8-3.6-8-8V22.4c0-4.4,3.6-8,8-8h85.2c4.4,0,8,3.6,8,8v125.9
		C114.9,152.7,111.3,156.2,106.9,156.2z"/>
</g>
<g>
	<path class="st3" d="M18.4,33.6c0.1-3.5-0.6-9.1,1-11.9c2.3-3.8,8.8-3.9,11.2-0.4c2.5,3.6,1.3,15.8,1.2,20.4c0,0.3,0.2,0.5,0.5,0.5
		c1.8,0.1,2.4,1,1.7,3c-0.1,0.3-0.4,0.5-0.7,0.5c-1.2,0-2.4-0.3-3.5-0.8c-0.3-0.1-0.6-0.1-0.9,0.1c-5.1,3.5-11.1-0.8-10.7-6.7
		c0-0.3-0.2-0.5-0.4-0.6c-1.7-0.5-2-3.6-0.1-3.6C18.1,34,18.4,33.8,18.4,33.6L18.4,33.6z M26.2,22.3c-6-1.1-4.3,7.8-4.3,11
		c0,0.3,0.2,0.6,0.4,0.7c2.1,1,3.9,2.4,5.5,4.2c0.2,0.3,0.4,0.2,0.4-0.1l0.1-13.4C28.4,23.4,27.7,22.6,26.2,22.3z M26,40.8
		c-0.6-0.9-1.7-2-3.3-3.1c-0.2-0.1-0.4-0.1-0.5,0.1c0,0,0,0.1-0.1,0.1c-0.6,2.3,0.3,3.9,2.6,4.6C26.7,43.2,27.2,42.6,26,40.8z"/>
	<path class="st2" d="M26.2,22.3c1.4,0.3,2.1,1.1,2.1,2.5l-0.1,13.4c0,0.3-0.1,0.4-0.4,0.1c-1.6-1.8-3.4-3.2-5.5-4.2
		c-0.3-0.1-0.4-0.4-0.4-0.7C21.9,30.1,20.3,21.2,26.2,22.3z"/>
	<path class="st4" d="M68.4,25.6c-1-0.1-1.3,0.3-0.8,1c-1.2-0.1-2.1,0.4-2.7,1.5l-2.4,2.8c-0.2,0.2-0.5,0.3-0.8,0.4
		c-2.2,0.1,1.4,2.3,1.6,2.5c0.2,0.2,0.4,0.5,0.4,0.9c0.3,2.7,0.3,4.9,0.2,6.5c-0.3,3.2,2.6,1.1,3.6,0.6c0.3-0.1,0.6,0,0.7,0.2l0,0
		c0.5,1.1,0.1,1.6-1.1,1.7c0.6-1.7,0.2-1.7-1-0.1c-2.5,0.7-3.5-0.3-3.1-2.8c0.6-0.7,0.4-1.3-0.7-1.9l-0.2-0.5
		c0.4-0.4,0.6-0.8,0.6-1.2s-0.2-0.5-0.5-0.2c-0.4,0.3-0.6,0.8-0.6,1.5l-2-0.5c2.5-2.1-1-1.8-1,0c0.1,5.8,1.9,14.7,10,13.7l0.5,0.5
		c0.5,1.2,0,1.7-1.5,1.3l-0.8-0.1c-0.5-0.4-1.4-0.7-2.7-0.7l-1.5-1.3l-2.4-2.8c-0.2-0.2-0.6-0.3-0.8-0.1l0,0l-1.8,1.6l-0.5,0.1
		l-0.5-0.8l2.5-1.9c0.3-0.2,0.3-0.5,0.2-0.8c-0.2-0.5-0.5-0.9-0.9-1.2c-0.2-0.2-0.3-0.4-0.2-0.7c0.4-1.3,0.2-1.4-0.4-0.6
		c-0.2,0.5-1.1,0.4-1-0.2c0-0.2,0.3-0.5,0.6-0.7c0.8-0.5,0.8-1,0.2-1.5c0.9-2.2,0.9-4.5-0.1-6.7l0.3-8.1c0-0.3-0.2-0.5-0.5-0.5
		c-4.7-0.2-27.4,0.5-22.7-1L68.4,25.6z M61.7,28.7l2.6-1.4c0.2-0.1,0.3-0.3,0.2-0.5c0,0,0-0.1-0.1-0.1c-0.3-0.2-0.6-0.2-1,0.1
		c-0.2,0.2-0.5,0.2-0.8,0.1c-0.8-0.4-1.5-0.3-2.2,0.3c-1.4-0.8-1.8-0.7-1.2,0.3c0.1,0.2,0.1,0.5-0.1,0.8c-0.5,0.5-0.4,1.1,0.1,1.6
		c0.6,0.6,0.5,1.9-0.3,4c-0.7,1.8-0.4,2.2,0.9,1c0.2-0.2,0.6-0.3,0.9-0.3l1.7,0.1c0.4,0,0.4-0.1,0.2-0.3c-0.6-0.7-1.4-1-2.3-1.1
		c-0.3,0-0.5-0.2-0.6-0.5C59.5,31.1,60.2,29.7,61.7,28.7z"/>
	<path class="st5" d="M102.1,26.9h-0.9c-2.9-0.9-5.9-0.8-8.8,0h-0.7c-2.6-0.7-5.3-0.8-8-0.3c-0.3,0.1-0.5,0.3-0.6,0.6
		c-0.4,1.1-1.3,1.7-2.7,1.7h-1.2c-0.7-0.3-1.3-0.8-1.6-1.5c-0.2-0.4-0.4-0.6-0.6-0.7c-0.3-0.1-0.6-0.1-1-0.1c-0.5-0.1-1-0.1-1.5,0.1
		c-0.2,0.1-0.3,0.4-0.3,0.6l12.4,20.5l6.2,10.8c0.3,0.5,0.1,1-0.3,1.3c0,0-0.1,0-0.1,0.1c-2.3,0.8-3.2,1.7-2.9,2.8v1.7L88,65.9
		l-3,4.8v1.5c-1.1,1.3-1.7,2.9-1.8,4.8c-1.8-0.1-3.4,0.2-5,1L78,70c0-0.2-0.2-0.4-0.5-0.5c-0.2-0.1-0.4-0.2-0.6-0.5v-0.2
		c1.9-1.2,1.7-1.6-0.8-1.2l-0.3-1.8c3.7-0.8,7.2-2,10.6-3.7c0.3-0.2,0.3-0.3,0-0.3l-2.7-0.4c-0.2,0-0.4-0.3-0.4-0.5l0,0
		c0.9-3.3-2.3,2.3-2.7-0.8c0-0.3-0.2-0.5-0.5-0.5c-1,0-1.9-0.3-2.7-0.7l0.2-0.9l1.8-1.6l1.2-0.2c1,1.5,2.4,2.7,4,3.5
		c0.6,0.9,1.4,1.4,2.4,1.4c0.3,0,0.5-0.2,0.5-0.4c0-0.9-0.4-1.6-1.2-2.1L86,58.1c0-0.9-0.4-1.6-1.2-2c0.3-0.9,0.1-1.6-0.7-2.2
		l-2.3-4.8l-1-1.7l-0.8-1L76.5,39l-4.6-9.1l-0.5-0.8l-0.5-0.7c-0.2-1.6-1.2-1.9-2.4-1.2l-0.8-0.5c-0.5-0.8-0.2-1.1,0.8-1
		c10.5-0.2,21-0.3,31.4-0.2C101.1,25.4,102.5,24.9,102.1,26.9z M81.5,58.5c-0.2,0.1-0.2,0.2-0.3,0.4c-0.1,0.3,0.3,0.4,0.6,0.4
		c1.2-0.1,1.3-0.4,0.5-0.8C82,58.3,81.7,58.3,81.5,58.5z"/>
	<path class="st6" d="M67.6,26.6l0.8,0.5c0.1,0.6,0.4,1.1,0.9,1.4c0.2,0.1,0.3,0.4,0.1,0.6c0,0,0,0,0,0.1c-1.2,1.3-1.6,1.3-1.1-0.1
		c0.1-0.3,0.1-0.7,0-0.9c-0.6-0.9-1.4-1-2.6,0l-0.8-0.1C65.5,27,66.4,26.5,67.6,26.6z"/>
	<path class="st7" d="M91.7,26.9c-1.1,6.1-0.5,12.2,1.9,18.3c0.4,1,0.1,1.4-0.7,1.2c-0.3,0-0.6-0.2-0.8-0.5L91,44.2
		c-0.2-0.2-0.2-0.6,0-0.8c1.4-2,0.9-2.9-1.6-2.6l-0.8-0.6c-0.2-1.1-0.8-2-1.8-2.6c-0.2-0.1-0.6-0.1-0.8,0.1
		c-1.2,1.1-1.7,0.8-1.4-0.9c0-0.3,0.3-0.5,0.6-0.5c1.6-0.1,2.3-1,1.9-2.5c-0.1-0.3-0.3-0.5-0.6-0.5l-2.2,0.2c-0.2,0-0.5,0.2-0.7,0.6
		c-0.5,0.8-0.9,0.7-1.4-0.2c-0.1-0.3-0.1-0.7,0.1-0.9c0.3-0.4,0.7-0.6,1.3-0.6c0.2,0,0.4-0.3,0.4-0.5c-0.3-0.9-0.7-1.7-1.4-2.2
		c-0.2-0.2-0.4-0.1-0.6,0.1c0,0,0,0,0,0.1c-0.9,1.5-1.4,1.2-1.6-0.8c1.3,0,2.2-0.6,2.7-1.7c0.1-0.3,0.4-0.5,0.6-0.6
		C86.4,26.1,89.1,26.2,91.7,26.9z"/>
	<path class="st2" d="M101.2,26.9v26.5l-0.5,0.5l-4.2-4c-0.2-0.2-0.6-0.3-0.9-0.1c-4.1,1.3-5.9,6.1-1.2,8.4c0.3,0.1,0.5,0.4,0.6,0.7
		c0.3,1.8,0.3,3.6-0.1,5.3l-2-1.3c-1-1.1-1.8-1.2-2.6-0.3c-0.2,0.3-0.7,0.3-1,0.3c-0.3-1,0.7-2,2.9-2.8c0.5-0.2,0.7-0.7,0.5-1.2
		c0-0.1,0-0.1-0.1-0.2l-6.2-10.8l1.2-0.6h6.9c0.3,0,0.4-0.3,0.4-0.6c-2.9-6.5-3.8-13.1-2.8-19.9C95.3,26,98.3,26,101.2,26.9z"/>
	<path class="st8" d="M60.4,27.2v0.2c-1.2,2.1-1,2.5,0.7,1.2l0.5,0.1c-1.5,1-2.1,2.4-2,4.1c0,0.3,0.3,0.5,0.6,0.5
		c0.9,0.1,1.7,0.4,2.3,1.1c0.2,0.3,0.2,0.4-0.2,0.3l-1.7-0.1c-0.3,0-0.6,0.1-0.9,0.3c-1.3,1.1-1.6,0.8-0.9-1c0.8-2.1,0.9-3.4,0.3-4
		c-0.5-0.6-0.6-1.1-0.1-1.6c0.2-0.2,0.2-0.5,0.1-0.8C58.6,26.5,59,26.4,60.4,27.2z"/>
	<path class="st9" d="M61.7,28.7l-0.5-0.1c0.9-0.9,0.7-1.3-0.7-1.2v-0.2c0.7-0.6,1.5-0.7,2.2-0.3c0.2,0.1,0.5,0.1,0.8-0.1
		c0.4-0.3,0.7-0.3,1-0.1c0.1,0.1,0.1,0.3,0,0.5l-0.1,0.1L61.7,28.7z"/>
	<path class="st8" d="M70.9,28.4c-0.9-0.2-1.6-0.6-2.2-1.3C69.9,26.5,70.6,26.9,70.9,28.4z"/>
	<path class="st10" d="M75.9,26.7l7.5,12.2c1.1,2.3,2.4,4.4,4.2,6.2c0.7,0.7,0.8,1.4,0.3,2.2l-1.2,0.6L74.2,27.4
		c-0.1-0.2-0.1-0.5,0.1-0.6h0.1C74.9,26.6,75.4,26.6,75.9,26.7z"/>
	<path class="st11" d="M75.9,26.7c0.3-0.1,0.7,0,1,0.1c0.2,0.1,0.5,0.3,0.6,0.7c0.3,0.7,0.9,1.2,1.6,1.5c-0.3,1.3,0.2,2.2,1.3,2.8
		c0.3,0.1,0.5,0.4,0.5,0.7c0.1,1.5,0.7,2.7,1.9,3.6c0.3,0.2,0.4,0.5,0.4,0.8c0.1,0.9,0.4,1.7,0.8,2.4l-0.7-0.2L75.9,26.7z"/>
	<path class="st12" d="M91.7,26.9h0.7c-1,6.8-0.1,13.4,2.8,19.9c0.1,0.2,0,0.4-0.2,0.5c-0.1,0-0.1,0-0.2,0h-6.9
		c0.5-0.8,0.4-1.5-0.3-2.2c0.1-1.2-0.3-2.1-1.3-2.8c-0.3-0.2-0.4-0.4-0.4-0.8c0-1.3-0.6-2.1-1.8-2.5c-0.5-0.7-0.7-1.5-0.8-2.4
		c0-0.3-0.2-0.6-0.4-0.8c-1.2-0.8-1.8-2-1.9-3.6c0-0.3-0.2-0.6-0.5-0.7c-1.2-0.6-1.6-1.5-1.3-2.8h1.2c0.1,2.1,0.7,2.3,1.6,0.8
		c0.1-0.2,0.4-0.3,0.6-0.2c0,0,0,0,0.1,0c0.7,0.6,1.2,1.3,1.4,2.2c0.1,0.2-0.2,0.4-0.4,0.4c-0.5,0-1,0.2-1.3,0.6
		c-0.2,0.2-0.2,0.6-0.1,0.9c0.4,0.9,0.9,1,1.4,0.2c0.2-0.3,0.5-0.6,0.7-0.6l2.2-0.2c0.3,0,0.6,0.2,0.6,0.5c0.3,1.5-0.3,2.4-1.9,2.5
		c-0.3,0-0.6,0.2-0.6,0.5c-0.3,1.7,0.2,2,1.4,0.9c0.2-0.2,0.6-0.3,0.8-0.1c0.9,0.6,1.5,1.4,1.8,2.6c-0.9-0.3-1.5-0.2-1.8,0.3
		c-0.2,0.2-0.1,0.6,0.1,0.9c0.9,1.3,1.7,1.1,2.5-0.6c2.4-0.3,2.9,0.6,1.6,2.6c-0.2,0.3-0.2,0.6,0,0.8l1.2,1.8
		c0.2,0.3,0.5,0.5,0.8,0.5c0.8,0.1,1.1-0.3,0.7-1.2C91.2,39.1,90.6,33,91.7,26.9z M88.8,44.3c-0.1,1.1,0.3,1.5,1.2,1.3
		c0.3-0.1,0.5-0.4,0.4-0.7c-0.1-0.7-0.5-1.1-1-1.1C89.1,43.7,88.8,44,88.8,44.3z"/>
	<path class="st13" d="M101.2,26.9h0.9v26.5h-0.9V26.9z"/>
	<path class="st14" d="M68.4,27.2l0.2-0.1c0.6,0.7,1.3,1.1,2.2,1.3l0.5,0.7c-1,0.3-1.9,0.9-2.5,1.8c-0.2,0.3-0.5,0.4-0.8,0.2
		c-1.3-0.6-2.1-1.5-2.5-3c1.1-0.9,2-0.9,2.6,0c0.1,0.2,0.2,0.6,0,0.9c-0.5,1.3-0.1,1.3,1.1,0.1c0.1-0.1,0.1-0.4,0-0.6
		c0,0,0,0-0.1-0.1C68.8,28.3,68.5,27.8,68.4,27.2z"/>
	<path class="st15" d="M60.5,27.4c1.4-0.1,1.6,0.3,0.7,1.2C59.5,29.9,59.2,29.5,60.5,27.4z"/>
	<path class="st2" d="M64.9,28.1l0.8,0.1c0.3,1.4,1.2,2.4,2.5,3c0.2,0.1,0.6,0,0.8-0.2c0.7-0.9,1.5-1.5,2.5-1.8L72,30l-1,0.5
		c-0.4,0.5-4.4,3.2-3.8,3.6c0.2,0.1,0.6,0.1,0.9-0.1c1.5-0.8,3-0.6,4.3,0.4c0.3,0.2,0.4,0.5,0.3,0.8c-0.1,0.4-0.4,0.5-0.8,0.1
		C69.7,33.8,68,34,66.7,36c-0.5,0.7-0.2,1.7,0.5,2.1l0.1,0.1c1,0.5,1.8,1.2,2.4,2c0.1,0.1,0.2,0.2,0.3,0.1l0,0l0.2-0.1
		c0.1-0.1,0.1-0.4-0.1-0.6l0,0c-0.9-1-0.6-1.5,1.1-1.7c0.7,0-0.3-0.5-0.2-0.8c0-0.4,0.2-0.5,0.6-0.2c1.1,0.7,1.6,1.7,1.4,3.1
		c-0.1,0.4,0,0.8,0.1,1l2.7,4.9c0.1,0.3,0.1,0.6,0,0.8c-2,2.2-4.3,3.9-7.1,5c-8.1,1-9.9-7.9-10-13.7h1l2,0.5h0.5l0.2,0.5
		c-0.9,0.7-0.6,1.3,0.7,1.9c-0.4,2.6,0.7,3.5,3.1,2.8l1,0.1c1.2-0.1,1.5-0.6,1.1-1.7c-0.1-0.3-0.4-0.4-0.7-0.2l0,0
		c-1.1,0.5-3.9,2.6-3.6-0.6c0.2-1.6,0.1-3.8-0.2-6.5c0-0.3-0.2-0.6-0.4-0.9c-0.2-0.2-3.9-2.4-1.6-2.5c0.3,0,0.6-0.1,0.8-0.4
		L64.9,28.1z M67.7,47.4c4.4-2.2-3.3-2-4.4-1.8c-0.3,0.1-0.4,0.3-0.3,0.6l0,0C63.9,49,65.5,49.4,67.7,47.4z"/>
	<path class="st16" d="M71.9,29.9l4.6,9.1c-2.1,2.6-1.6,4.7,1.7,6.3c0.3,0.2,0.5,0.5,0.4,0.7c-0.1,0.4-0.6,0.4-1.3-0.1
		c-1.8-1.9-3.3-3.6-3.4-6.4c-0.2-3,0.4-6-2.9-7.5c-0.3-0.1-0.3-0.2,0-0.3c1.2-0.4,1.2-0.8,0-1.3L71.9,29.9z"/>
	<path class="st17" d="M70.9,30.3c1.1,0.5,1.1,1,0,1.3c-0.3,0.1-0.3,0.2,0,0.3c3.3,1.5,2.7,4.5,2.9,7.5c0.2,2.8,1.6,4.5,3.4,6.4v0.7
		c-2.1,2.4-4.7,4.2-7.8,5.3L69.1,52l-0.5-0.5c2.7-1.1,5.1-2.8,7.1-5c0.2-0.2,0.2-0.5,0-0.8L73,40.9c-0.1-0.2-0.1-0.5-0.1-1
		c0.2-1.4-0.2-2.4-1.4-3.1c-0.7-0.5-0.8,0.4-0.3,0.7c0.2,0.2,0.2,0.3-0.1,0.3c-1.6,0.1-2,0.7-1.1,1.7c0.2,0.2,0.3,0.5,0.2,0.6l0,0
		L70,40.4c-0.1,0.1-0.2,0-0.3-0.1l0,0c-0.6-0.9-1.4-1.5-2.4-2c-0.8-0.4-1.1-1.3-0.7-2.1c0,0,0-0.1,0.1-0.1c1.3-2,3-2.3,5.1-0.8
		c0.5,0.3,0.7,0.3,0.8-0.1c0.1-0.3-0.1-0.6-0.3-0.8c-1.3-1-2.7-1.2-4.3-0.4c-0.3,0.2-0.7,0.2-0.9,0.1C66.5,33.6,70.5,30.9,70.9,30.3
		z"/>
	<path class="st5" d="M57.4,35.1c1,2.2,1.1,4.5,0.1,6.7c-1.6,1.6-2.5,3.3-2.9,5.3c-0.7,0.8-1,1.6-0.9,2.6c0,0.4,0.2,0.6,0.5,0.7
		c0.8,0.2,0.2-1.5,1.4-1.3l1,0.3l0.5,0.8v0.2L56.3,51L55,51.5c-0.3,0.1-0.4,0.3-0.4,0.6c0,0.6-0.4,1-1.1,1.1
		c-0.5-0.6-1.1-0.9-1.8-0.7c-0.2-0.1-0.5,0.6-0.2,0.6c0.7,0.9,1.6,1.3,2.7,1.3l0.8,0.5l3.2,2.1l-1,0.7c-2.4,1-4.4,0.5-6-1.5
		c0.9-2.3,0.6-2.6-1-0.9c-1.5-0.7-3-0.6-4.3,0.3c-0.2,0.1-0.3,0.4-0.2,0.6l0.1,0.1c0.2,0.1,0.4,0.2,0.6,0.2c0.4,0.5,0.3,0.8-0.2,1
		c-0.6,0-1.1-0.2-1.5-0.6c-0.6-0.7-1.3-0.7-1.3,0.3l-1.5-0.5l6.2-3.3c0.3-0.1,0.4-0.4,0.5-0.7C48.9,45.4,51.8,39.5,57.4,35.1z"/>
	<path class="st6" d="M59.7,37.8h-1C58.7,36,62.1,35.8,59.7,37.8z"/>
	<path class="st16" d="M62.2,38.3h-0.5c0-0.6,0.2-1.1,0.6-1.5c0.3-0.3,0.5-0.2,0.5,0.2C62.8,37.5,62.6,38,62.2,38.3z"/>
	<path class="st2" d="M26,40.8c1.2,1.8,0.8,2.4-1.3,1.7c-2.3-0.8-3.2-2.3-2.6-4.6c0.1-0.2,0.3-0.3,0.4-0.2c0,0,0.1,0,0.1,0.1
		C24.2,38.8,25.3,39.9,26,40.8z"/>
	<path class="st14" d="M62.4,38.9c1.1,0.6,1.3,1.2,0.7,1.9C61.7,40.2,61.5,39.6,62.4,38.9z"/>
	<path class="st7" d="M83.5,38.9l0.7,0.2c1.1,0.4,1.7,1.3,1.8,2.5c0,0.3,0.2,0.6,0.4,0.8c1,0.6,1.4,1.5,1.3,2.8
		C85.9,43.3,84.5,41.2,83.5,38.9z"/>
	<path class="st18" d="M76.5,39l3.7,7.1c-1.4,0.9-1.2,1.2,0.8,1l1,1.7c-0.9,0.1-1.3,0.7-1.3,1.8c-1.5,1.1-1.5,2.3,0.1,3.5v1.7
		L79.6,56c0-0.1,0-0.3,0-0.4c-0.1-0.1-0.3-0.1-0.5-0.1c-7.6,2-15.7,2.9-23-0.9c-0.3-0.2-0.8-0.1-1,0.1l-0.8-0.5L53.5,53
		c0.8-0.1,1.2-0.5,1.1-1.1c0-0.3,0.2-0.5,0.4-0.6l1.5-0.5c-0.4,1.7-0.2,2.2,0.8,1.7c0.3-0.2,0.5-0.5,0.5-0.8
		c0.1-0.6-0.1-1.1-0.5-1.5V50l0.5-0.1l4.5,1.6c0.4,0.9,1.1,1.2,2,1c1.2,0,2.1,0.3,2.7,0.7c0.9,3.6,1.2,3.6,0.8,0.1
		c1.5,0.4,2-0.1,1.5-1.3l0.3-0.2c-0.4,2.1,10-2.1,10.9-2.6c0.7-0.4,0.7-0.7,0-1.1l-3.2-1.7v-0.7c0.8,0.5,1.2,0.6,1.3,0.1
		c0.1-0.3-0.1-0.6-0.4-0.7C74.9,43.7,74.3,41.6,76.5,39z M78,51.5c-2.2-0.3,1.7,4.6,0.6,0.6C78.5,51.8,78.3,51.5,78,51.5z
		 M58.6,53.3C58,56,61.8,51.6,59,51.8c-0.2,0-0.4,0.2-0.4,0.5l0,0C58.6,52.7,58.6,53,58.6,53.3z M60.6,52.9
		c-0.5,2.9,3.1-0.8,0.6-0.5C60.9,52.4,60.7,52.6,60.6,52.9z M75.6,53.6c1.1,1.6,1.4,1.4,0.9-0.5c-0.1-0.3-0.3-0.5-0.6-0.6
		c-0.8-0.1-1.5,0-2.2,0.4c-0.4,0.2-0.4,0.4,0,0.5c0.3,0.1,0.7,0.2,1.1,0C75.2,53.3,75.5,53.4,75.6,53.6z M65.2,53.3
		c-1.3-0.1,0.8,5.7,0.4,0.5C65.6,53.6,65.4,53.4,65.2,53.3z M72.6,55.1c0.3-0.2,0.4-0.5,0.1-1.1c-0.1-0.3-0.5-0.4-0.7-0.3
		c-0.5,0.2-0.5,0.5-0.2,1.1C72,55.1,72.3,55.2,72.6,55.1z M70.4,54.4c-1.4-2.8-1.6,2.2-0.1,0.8C70.5,55,70.5,54.7,70.4,54.4z
		 M62.8,55c0.4,0.9,0.7,0.7,0.8-0.7c0-0.2-0.1-0.4-0.3-0.5c-0.2,0-0.4,0.1-0.5,0.2C62.6,54.3,62.6,54.7,62.8,55z"/>
	<path class="st11" d="M88.7,40.1l0.8,0.6c-0.8,1.7-1.6,1.9-2.5,0.6c-0.2-0.3-0.2-0.6-0.1-0.9C87.2,39.9,87.8,39.8,88.7,40.1z"/>
	<path class="st19" d="M56.6,49.4l-1-0.3l-1-2c0.4-2,1.4-3.7,2.9-5.3c0.6,0.5,0.6,1-0.2,1.5c-0.3,0.2-0.6,0.5-0.6,0.7
		c-0.2,0.6,0.8,0.7,1,0.2c0.6-0.9,0.8-0.7,0.4,0.6c-0.1,0.2,0,0.5,0.2,0.7c0.4,0.3,0.8,0.7,0.9,1.2c0.1,0.3,0,0.6-0.2,0.8L56.6,49.4
		z M58.5,46.8c-0.6-1-1.3-1.6-2.1-1.7c-0.3,0-0.6,0.1-0.7,0.3c-0.5,0.9,1.9,1.6,2.4,1.8C58.8,47.6,58.9,47.4,58.5,46.8z"/>
	<path class="st8" d="M67.2,43.7l-1-0.1C67.4,41.9,67.7,42,67.2,43.7z"/>
	<path class="st11" d="M89.3,43.8c0.5,0,0.9,0.4,1,1.1c0.1,0.3-0.1,0.6-0.4,0.7c-0.9,0.3-1.3-0.1-1.2-1.3
		C88.8,44,89.1,43.7,89.3,43.8z"/>
	<path class="st13" d="M58.5,46.8c0.4,0.6,0.2,0.8-0.4,0.5c-0.5-0.2-2.9-1-2.4-1.8c0.1-0.2,0.4-0.3,0.7-0.3
		C57.2,45.3,57.9,45.8,58.5,46.8z"/>
	<path class="st4" d="M67.7,47.4c0-0.4,0.1-0.8-0.6-0.8c-3.7-0.3-4.3,0.2-1.8,1.4c0.2,0.1,0.6,0.1,0.8-0.1
		C66.6,47.4,67.1,47.3,67.7,47.4c-2.2,2-3.7,1.7-4.8-1.1c-0.1-0.2,0-0.5,0.3-0.6c0,0,0,0,0.1,0C64.4,45.3,72.1,45.2,67.7,47.4z"/>
	<path class="st9" d="M80.1,46.1l0.8,1C79,47.4,78.7,47,80.1,46.1z"/>
	<path class="st6" d="M67.7,47.4c-0.5-0.1-1,0-1.5,0.4c-0.3,0.2-0.6,0.2-0.8,0.1c-2.5-1.2-1.9-1.6,1.8-1.4c0.3,0,0.6,0.2,0.6,0.4
		L67.7,47.4L67.7,47.4z"/>
	<path class="st2" d="M77.2,46.6l3.2,1.7c0.7,0.4,0.7,0.7,0,1.1c-1,0.4-11.4,4.6-11,2.5C72.4,50.8,75,49,77.2,46.6z"/>
	<path class="st14" d="M54.6,47.1l1,2c-1.2-0.1-0.6,1.5-1.4,1.3C53.1,49.9,54,47.8,54.6,47.1z"/>
	<path class="st2" d="M62.7,51.3l-0.5,0.3L57.7,50l1.8-1.6c0.2-0.2,0.6-0.2,0.8,0.1l0,0L62.7,51.3z"/>
	<path class="st19" d="M81.9,48.8l2.3,4.8c-1,0.4-1.8,1-2.3,1.8c-0.1,0.2-0.1,0.5,0.1,0.8l2.6,3.2c-1.6-0.8-3-2-4-3.5v-1.7
		c1-1.2,1-2.4-0.1-3.5C80.6,49.6,81,49,81.9,48.8z"/>
	<path class="st15" d="M100.7,53.9l-0.5,1.7c-0.7,1.2-1.7,2-2.9,2.5c-0.3,0.1-0.5,0.4-0.5,0.7l-0.1,2.8c0,0.2,0.3,0.4,0.5,0.4
		c0.3-0.1,0.6-0.3,0.9-0.6l0.1,1c-0.2,1,0.1,1.9,1,2.5l0.8,0.2L98.8,67c-0.2,0.3-0.3,0.6-0.2,0.8c0.4,0.9,1,1.7,1.8,2.3
		c0.4,0.4,0.6,0.9,0.5,1.4c-0.1,0.3,0.1,0.6,0.3,0.6l1,0.4l-0.1,10.2l-0.5-6.2c0-0.3-0.2-0.6-0.5-0.6h-0.7c0.6-1.5-2.7-1.1-1,0.2
		c-0.1,0.9-0.6,1.4-1.5,1.2c-1.3-1.4-1.4-2.8-0.3-4.2l1.2,0.5c1.7,1,2,0.8,1-0.7c-1,0-1.2-0.2-0.7-0.8c1-0.6,0.8-1.1-0.5-1.5
		c0.9-3.5-4.4,1.4-0.2,0.2l0.3,1.2l-1,1c-1.1,0.3-1.8,1-2,2.1c-0.1,0.4-0.3,0.6-0.5,0.8c-0.5,0.3-0.7,0.1-0.6-0.6
		c0.2-1.5,0.4-2.6,0.6-3.3c0.2-0.8,0.6-1.4,1.1-1.9c0.2-0.2,0.3-0.6,0.2-0.8c-0.3-0.5-1.1-0.5-1.7-0.5c-0.9-1.5-1.6-1.7-2.3-0.5
		l-1-0.8c0-0.4,0.7-0.6,0.2-1L90.3,65l-0.8-0.8v-1.7c0.4,0,0.7,0,1-0.3c0.7-0.9,1.6-0.8,2.6,0.3L92.8,63c-1.8-0.4-1.9,0.1-0.5,1.5
		l1.4,1.8c0.2,0.3,0.4,0.2,0.5-0.1l0.9-2.4c0.4-1.7,0.4-3.5,0.1-5.3c-0.1-0.3-0.3-0.6-0.6-0.7c-4.7-2.3-2.9-7.1,1.2-8.4
		c0.3-0.1,0.7-0.1,0.9,0.1L100.7,53.9z M97.1,52c-0.2-0.7-0.5-1.2-1-1.4c-0.3-0.1-0.6,0-0.8,0.3c-1.2,1.2-0.6,1.7,1.6,1.4
		C97,52.4,97.1,52.2,97.1,52C97.1,52.1,97.1,52,97.1,52z M93.9,55.1c-0.5-2.1-0.9-2.3-1.2-0.5c-0.1,0.3,0.1,0.6,0.3,0.8l2.6,2.2
		c0.2,0.2,0.6,0.2,0.8,0c0.9-0.7,1.6-1.5,2.7-2.2c1.3-0.9,1.1-1.6-0.7-2.2c-0.3-0.1-0.4,0.1-0.4,0.3c0.1,2.7-1,3.5-3.4,2.2
		C94.1,55.7,93.9,55.4,93.9,55.1z M98,65.1c-3.3-3.6,0.2,3.2,0.3,0.9C98.4,65.6,98.3,65.3,98,65.1z"/>
	<path class="st20" d="M57.2,50.3c0.4,0.4,0.6,0.9,0.5,1.5c0,0.3-0.2,0.6-0.5,0.8c-0.9,0.6-1.2,0-0.8-1.7L57.2,50.3z"/>
	<path class="st14" d="M80.6,50.6c1,1.1,1.1,2.3,0.1,3.5C79.2,52.9,79.1,51.8,80.6,50.6z"/>
	<path class="st21" d="M97.1,52c0,0.2-0.1,0.3-0.2,0.3l0,0c-2.2,0.3-2.8-0.2-1.6-1.4c0.2-0.3,0.6-0.4,0.8-0.3
		C96.6,50.8,96.9,51.3,97.1,52z"/>
	<path class="st3" d="M25.8,53.4c1.5-2.2,4.6-3.3,6.2-0.4c2.1,3.8-4,11.4-6.1,14c-0.1,0.2-0.4,0.2-0.6,0.1c0,0,0,0-0.1-0.1
		c-2.2-2.7-6.7-8.5-6.5-12.1c0.2-3.7,4-4.9,6.4-1.6C25.3,53.6,25.5,53.6,25.8,53.4C25.7,53.5,25.7,53.4,25.8,53.4z"/>
	<path class="st20" d="M62.7,51.3l1.5,1.3c-0.9,0.3-1.6-0.1-2-1L62.7,51.3z"/>
	<path class="st22" d="M78.6,52.1c1.1,4-2.8-0.9-0.6-0.6C78.3,51.5,78.5,51.8,78.6,52.1z"/>
	<path class="st22" d="M58.6,53.3c0.1-0.3,0.1-0.6,0-0.9c0-0.3,0.1-0.5,0.3-0.6l0,0C61.7,51.6,58,56,58.6,53.3z"/>
	<path class="st11" d="M53.4,53.2l0.8,1.2c-1.2,0.1-2.1-0.4-2.7-1.3c-0.1-0.2-0.1-0.4,0.1-0.5l0.1-0.1
		C52.3,52.3,52.9,52.6,53.4,53.2z"/>
	<path class="st22" d="M61.2,52.4c2.5-0.2-1.1,3.5-0.6,0.5C60.7,52.6,60.9,52.4,61.2,52.4z"/>
	<path class="st11" d="M74.9,53.4c-0.4,0.1-0.8,0.1-1.1,0c-0.4-0.2-0.4-0.3,0-0.5c0.7-0.4,1.4-0.5,2.2-0.4c0.3,0.1,0.5,0.3,0.6,0.6
		c0.5,1.9,0.2,2.1-0.9,0.5C75.5,53.4,75.2,53.3,74.9,53.4z"/>
	<path class="st21" d="M94.4,55.8c2.4,1.3,3.5,0.6,3.4-2.2c0-0.3,0.2-0.4,0.4-0.4c1.8,0.6,2,1.3,0.7,2.2c-1.1,0.7-1.7,1.5-2.7,2.2
		c-0.2,0.2-0.6,0.2-0.8,0L93,55.4c-0.2-0.2-0.3-0.5-0.3-0.8c0.3-1.8,0.7-1.7,1.2,0.5C93.9,55.4,94.1,55.7,94.4,55.8z"/>
	<path class="st22" d="M65.6,53.9c0.3,5.2-1.8-0.7-0.4-0.5C65.4,53.4,65.6,53.6,65.6,53.9z"/>
	<path class="st22" d="M66.9,53.3l0.8,0.1C68.1,56.9,67.8,56.9,66.9,53.3z"/>
	<path class="st22" d="M71.8,54.8c-0.4-0.5-0.3-0.9,0.2-1.1c0.3-0.1,0.6,0,0.7,0.3c0.3,0.5,0.3,0.9-0.1,1.1
		C72.3,55.2,72,55.1,71.8,54.8z"/>
	<path class="st19" d="M101.2,53.4h0.9c0.6,6.4,0.6,12.8,0.1,19.3l-1-0.4c-0.2-0.1-0.4-0.4-0.3-0.6c0.1-0.5-0.1-1-0.5-1.4
		c0.5-1.3,0.6-2.8,0.2-4.5c-0.1-0.5-0.3-0.6-0.8-0.5c0.7-1.6,0.9-3.3,0.5-5c0.7-1.4,0.8-2.8,0.4-4.3c0-0.2-0.3-0.2-0.5-0.2l0.5-1.7
		L101.2,53.4z"/>
	<path class="st22" d="M70.3,55.2c-1.5,1.4-1.3-3.7,0.1-0.8C70.5,54.7,70.5,55,70.3,55.2z"/>
	<path class="st14" d="M84.2,53.6c0.8,0.6,1.1,1.3,0.7,2.2c-0.3-0.4-0.7-0.5-1.1-0.4c-0.2,0.1-0.3,0.3-0.2,0.6c0,0,0,0.1,0.1,0.1
		l1.2,1.8c0.2,0.2,0.5,0.3,0.8,0.2l0.5-0.3l0.3,0.5l-1.8,1L82,56.2c-0.2-0.2-0.3-0.6-0.1-0.8C82.4,54.6,83.2,54,84.2,53.6z"/>
	<path class="st22" d="M62.8,54.1c0.2-0.3,0.9-0.3,0.8,0.3c-0.1,1.3-0.4,1.5-0.8,0.7C62.6,54.7,62.6,54.3,62.8,54.1z"/>
	<path class="st22" d="M51.2,56.1l-1-0.9C51.8,53.5,52.1,53.8,51.2,56.1z"/>
	<path class="st11" d="M50.2,55.2l1,0.9c1.6,2,3.6,2.5,6,1.5c0.8,0.5,1,1.1,0.6,1.8c-0.2,0.3-0.1,0.7,0.2,0.9
		c0.1,0.1,0.2,0.1,0.3,0.1c1.6,0.2,3.2,0,4.7-0.5c0.3-0.1,0.6,0,0.8,0.2c1.3,1.5,2.8,1.8,4.5,0.9l0.7-0.3c2,1,2.2,1.5,0.5,1.4
		c-0.3,0-0.5,0.2-0.6,0.5C68.4,65.2,69.4,66,72,65c0.5-0.2,0.5-0.8,0.5-1.2l0.8-0.1c2.3,1.2,2.9,0.5,1.8-2.2v-0.7l0.8-1.2l1.8-0.8
		c0.8,0.4,1.8,0.7,2.7,0.7c0.3,0,0.5,0.2,0.5,0.5c0.4,3.1,3.7-2.5,2.7,0.8c-0.1,0.2,0.1,0.5,0.3,0.5l2.7,0.4c0.4,0.1,0.4,0.2,0,0.3
		c-3.4,1.7-6.9,3-10.6,3.7c-1.3,0-2.5,0.2-3.7,0.8h-1c-4.4,0.1-8.7-0.3-13-1.3c-3.3-1.1-6.4-2.5-9.3-4.3l0.1-0.5
		c0.7-0.3,1.1-0.7,1.4-1.3c0.2-0.5,0.3-0.4,0.3,0.1c-0.1,1.6,0.4,2.3,1.5,2.2l1,0.5c0.8,0.9,1.8,1.3,3,1.1c0.3-0.1,0.5-0.3,0.6-0.6
		c0.5-2.3-0.5-3.3-2.9-3c-0.3,0-0.6-0.1-0.9-0.2l-5.3-3.4c-0.3-0.2-0.6-0.1-0.8,0.1l-0.5,0.6c-0.5,0-1.1-0.4-0.5-0.9
		C47.2,54.6,48.6,54.5,50.2,55.2z M77.6,60.2c-0.4-0.3-0.9,0-0.9,0.5c-0.3,3.1,0.8,3.9,3.2,2.4c0.2-0.1,0.3-0.4,0.2-0.7
		c-0.2-0.5-0.4-2-0.9-2.2c-0.4-0.1-0.7-0.1-1,0C78,60.3,77.8,60.3,77.6,60.2z M61.4,61.9h-1.9c-2-0.8-2.4-0.2-1.3,1.8
		c0.4,0.5,0.7,0.6,1.2,0.1c0.4-0.5,0.8-0.5,1.5-0.1c0.8,1.1,1.9,1.5,3.3,1c0.6-0.2,1-0.9,0.8-1.5C64.3,60.9,63.1,60.4,61.4,61.9z
		 M81.7,61.2c-0.5,0-0.7,0.2-0.5,0.7c0.1,0.3,0.4,0.5,0.7,0.4c0.5-0.1,0.7-0.3,0.6-0.6C82.4,61.5,82.1,61.3,81.7,61.2z M66.5,64.6
		c0.2,0.2,0.5,0.3,0.7,0.1c0.1,0,0.1-0.1,0.1-0.1c0.8-1.3,0.6-2-0.6-2.1c-0.3,0-0.6,0.1-0.7,0.4C65.9,63.4,66,63.9,66.5,64.6z"/>
	<path class="st11" d="M79.4,56.1l-1.8,1.6l-2.5,0.2c-1.3-0.8-2.5-0.7-3.4,0.3c-0.8,0.6-2,0.2-2.9,0.6l-1-0.2h-4.7
		c-0.4,0-0.7-0.1-0.8-0.2c-1.2-1.1-2.6-1.6-4.2-1.6l-3.2-2.1c0.2-0.3,0.7-0.3,1-0.1c7.2,3.8,15.3,2.9,23,0.9c0.2-0.1,0.4,0,0.5,0.1
		C79.4,55.8,79.4,55.9,79.4,56.1z"/>
	<path class="st5" d="M53.1,61.9c0.5-1.7,0.1-2.4-1.2-2.3c-0.3,0-0.3,0.2-0.1,0.4c0.3,0.4,0.4,0.8,0.3,1.3c-1.1,0.1-1.6-0.6-1.5-2.2
		c0-0.5-0.1-0.5-0.3-0.1c-0.3,0.6-0.7,1-1.4,1.3l-2.2-1.8l-0.5-1.2c0.5-0.2,0.6-0.5,0.2-1l0.5-0.6c0.2-0.2,0.5-0.3,0.8-0.1L53,59
		c0.3,0.2,0.6,0.3,0.9,0.2c2.4-0.3,3.4,0.7,2.9,3c-0.1,0.3-0.3,0.6-0.6,0.6C55,63.2,54,62.8,53.1,61.9z"/>
	<path class="st19" d="M84.9,55.8c0.8,0.4,1.2,1.1,1.2,2l-0.5,0.3c-0.3,0.1-0.6,0.1-0.8-0.2l-1.2-1.8c-0.1-0.2-0.1-0.5,0.1-0.7h0.1
		C84.2,55.3,84.6,55.5,84.9,55.8z"/>
	<path class="st2" d="M100.2,55.6c0.2,0,0.5,0,0.5,0.2c0.5,1.5,0.3,2.9-0.4,4.3c-1,0-1.7,0.4-2.2,1.2c-0.2,0.3-0.5,0.5-0.9,0.6
		c-0.2,0.1-0.6-0.2-0.5-0.4l0.1-2.8c0-0.3,0.2-0.5,0.5-0.7C98.5,57.6,99.5,56.8,100.2,55.6z"/>
	<path class="st7" d="M46.2,57.4l0.5,1.2l-0.3,0.5l-3-2c-0.1-1.1,0.7-0.9,1.3-0.3C45.1,57.2,45.6,57.4,46.2,57.4z"/>
	<path class="st23" d="M41.9,56.6l1.5,0.5l3,2c0.6,0.9,1.4,1.5,2.5,1.8c3,1.7,6.1,3.1,9.3,4.3L57.4,67c-6.2-1.8-12-4.7-17.4-8.7
		c0.5-0.5,0.8-0.8,0.9-1.1L41.9,56.6z"/>
	<path class="st5" d="M58.2,56.9c1.6,0,3,0.5,4.2,1.6c0.2,0.2,0.5,0.2,0.8,0.2h4.7l0.3,2.2c-1.8,0.9-3.3,0.7-4.5-0.9
		c-0.2-0.2-0.5-0.3-0.8-0.2c-1.6,0.5-3.1,0.7-4.7,0.5c-0.3,0-0.6-0.3-0.5-0.7c0-0.1,0-0.2,0.1-0.3c0.4-0.7,0.2-1.3-0.6-1.8
		L58.2,56.9z"/>
	<path class="st5" d="M40.9,57.1c-0.1,0.3-0.4,0.6-0.9,1.1c2.3,2.9,5.2,5,8.7,6.4l-0.5,1.2c-1.9,1.3-3.6,2.9-5,4.8
		c-5.8,6.4-5.2,11.8-5.8,20l-0.8,2.8l-1.2,0.2c-1.6-1.9-3.7-2.3-6-1l-1.8,1.5l-1,0.9c-0.9-0.4-1.4-1.1-1.5-2.2V69.9
		c0-0.3,0.2-0.6,0.4-0.7L26,69c0.4-0.2,0.6-0.3,0.8-0.5c1.9-2.5,3.2-5.2,5.8-6.9C35.3,59.8,38,58.4,40.9,57.1z M36.7,64.5
		c-0.1-0.1-0.4-0.1-0.5,0l-3.9,3.8c-0.1,0.1-0.1,0.4,0,0.5l3.9,4c0.1,0.1,0.4,0.1,0.5,0l3.9-3.8c0.1-0.1,0.1-0.4,0-0.5L36.7,64.5z
		 M42.6,67.5c0.3,0.2,0.6,0.2,0.8-0.2c0.2-0.3,0.1-0.5-0.3-0.5c-1.7,0-2.1,0.1-1.2,0.3C42.1,67.2,42.4,67.3,42.6,67.5z M36.8,75
		c1.5-0.6-3.9-2.2-0.7-0.1C36.3,75.1,36.6,75.1,36.8,75z M32.1,77.8c-0.1-0.1-0.3-0.1-0.4,0l0,0l-4,4c-0.1,0.1-0.1,0.3,0,0.4l0,0
		l4.1,4.1c0.1,0.1,0.3,0.1,0.4,0l0,0l4-4c0.1-0.1,0.1-0.3,0-0.4l0,0L32.1,77.8z M28.1,86.2c0.3-0.3,0.2-0.4-0.2-0.6
		c-1-0.2-1,1.4-0.8,2c0.1,0.3,0.2,0.3,0.4,0l0.3-0.9C27.7,86.6,27.8,86.4,28.1,86.2z M31.2,88.4c-0.2,0-0.3,0-0.5-0.2
		c-0.2-0.1-0.2-0.5-0.1-0.9c0.2-0.7-0.1-0.9-0.8-0.8c-0.3,0-0.5,0.3-0.4,0.6l0,0c0.4,2.1,1.3,2.5,2.9,1.4c0.2-0.2,0.3-0.5,0.1-0.7
		l0,0c-0.3-0.3-0.5-0.3-0.7,0C31.6,88.2,31.4,88.4,31.2,88.4z M36.1,88.3c0.2-0.1,0.2-0.2,0.3-0.3c0.1-0.2-0.3-0.4-0.6-0.4
		c-2.1-0.2-2.6,0.6-1.6,2.2c0.2,0.3,0.5,0.4,0.7,0.2c0.5-0.2,0.8-0.7,0.9-1.2C35.7,88.6,35.9,88.4,36.1,88.3z"/>
	<path class="st5" d="M75.2,57.9c-0.4,0.7-0.2,1.2,0.5,1.5l-0.8,1.2h-0.7c-0.6,0-1.3,1.5-1.7,0.2c-0.1-0.3-0.4-0.5-0.6-0.5
		c-0.7-0.1-1.2-0.4-1.8-0.8c-0.1-0.1-0.2-0.1-0.3,0c-0.1,0-0.1,0.1-0.1,0.1c-0.1,0.1,0,0.4,0.2,0.6c1.2,0.9,2,2.1,2.5,3.5
		c0,0.5,0,0.9-0.5,1.2c-2.5,1.1-3.5,0.3-3.1-2.4c0-0.3,0.3-0.5,0.6-0.5c1.7,0.1,1.5-0.4-0.5-1.4v-1.7c0.7-0.2,1.3-0.3,2.1-0.3
		c0.3,0,0.6-0.1,0.8-0.3C72.7,57.2,73.9,57.1,75.2,57.9z"/>
	<path class="st18" d="M77.7,57.7l-0.2,0.9l-1.8,0.8c-0.7-0.3-0.9-0.8-0.5-1.5L77.7,57.7z"/>
	<path class="st6" d="M40,58.2c5.4,3.9,11.2,6.8,17.4,8.7v0.2l-1,0.3c-2.7-0.5-5.3-1.4-7.7-2.8C45.2,63.3,42.3,61.1,40,58.2z"/>
	<path class="st20" d="M82.2,58.5c0.8,0.4,0.7,0.7-0.5,0.8c-0.3,0-0.5-0.1-0.5-0.3c0-0.2,0.1-0.4,0.3-0.5
		C81.7,58.3,82,58.3,82.2,58.5z"/>
	<path class="st16" d="M86.4,58.3c0.8,0.5,1.2,1.1,1.2,2c0,0.3-0.2,0.5-0.5,0.5c0,0,0,0-0.1,0c-1-0.1-1.9-0.5-2.4-1.4L86.4,58.3z"/>
	<path class="st22" d="M46.7,58.6l2.2,1.8l-0.1,0.5c-1.1-0.3-1.9-0.9-2.5-1.8L46.7,58.6z"/>
	<path class="st20" d="M67.9,58.7l1,0.2v1.7l-0.7,0.3L67.9,58.7z"/>
	<path class="st22" d="M53.1,61.9l-1-0.5c0.1-0.5,0-0.9-0.3-1.3c-0.2-0.2-0.2-0.4,0.1-0.4C53.3,59.5,53.6,60.2,53.1,61.9z"/>
	<path class="st22" d="M74.9,60.6v0.7c-1.5,0.3-1.7,0.7-0.4,1.2c0.2,0.1,0.3,0.3,0.2,0.5c0,0,0,0.1-0.1,0.1
		c-0.5,0.5-0.9,0.4-1.2-0.2c-0.1-0.3-0.4-0.5-0.7-0.4c-0.5,0.2-0.4,0.5,0.3,1.1l-0.8,0.1c-0.5-1.4-1.3-2.6-2.5-3.5
		c-0.2-0.2-0.3-0.4-0.2-0.6c0-0.1,0.1-0.1,0.1-0.1c0.1-0.1,0.2-0.1,0.3,0c0.5,0.4,1.1,0.7,1.8,0.8c0.3,0.1,0.5,0.3,0.6,0.5
		c0.2,0.6,0.5,0.8,0.9,0.3C73.6,60.5,74.3,60.6,74.9,60.6z"/>
	<path class="st5" d="M78.3,60.2c0.3-0.1,0.7-0.1,1,0c0.5,0.2,0.7,1.7,0.9,2.2c0.1,0.3,0,0.6-0.2,0.7c-2.5,1.5-3.6,0.7-3.2-2.4
		c0-0.4,0.3-0.7,0.5-0.6C77.7,60.1,77.7,60.4,78.3,60.2z"/>
	<path class="st12" d="M100.4,60.1c0.4,1.7,0.3,3.4-0.5,5l-0.8-0.2c1.3-1,0.7-5.3-1-2.5l-0.1-1C98.7,60.6,99.4,60.2,100.4,60.1z"/>
	<path class="st5" d="M60.9,63.6l0.5-1.8c1.7-1.4,2.9-1,3.6,1.3c0.2,0.6-0.2,1.3-0.8,1.5C62.8,65.1,61.7,64.8,60.9,63.6z"/>
	<path class="st18" d="M82.5,61.7c0.1,0.3-0.1,0.5-0.6,0.6c-0.3,0.1-0.6-0.1-0.7-0.4c-0.2-0.5,0-0.7,0.5-0.7
		C82.1,61.3,82.4,61.5,82.5,61.7z"/>
	<path class="st24" d="M59.5,61.9l-1.3,1.8C57.1,61.6,57.5,61,59.5,61.9z"/>
	<path class="st12" d="M74.9,61.3c1.1,2.7,0.6,3.5-1.8,2.2c-0.8-0.6-0.9-0.9-0.3-1.1c0.2-0.1,0.5,0.1,0.7,0.4
		c0.3,0.7,0.7,0.8,1.2,0.2c0.1-0.1,0.1-0.4,0-0.5c0,0-0.1,0-0.1-0.1C73.3,62,73.4,61.6,74.9,61.3z"/>
	<path class="st7" d="M99.2,64.9c-0.9-0.7-1.2-1.5-1-2.5C99.9,59.7,100.4,64,99.2,64.9z"/>
	<path class="st20" d="M59.5,61.9h1.9l-0.5,1.8c-0.6-0.4-1.1-0.4-1.5,0.1c-0.4,0.6-0.9,0.3-1.2-0.1L59.5,61.9z"/>
	<path class="st18" d="M66.5,64.6C66,64,65.9,63.4,66,62.9c0.1-0.3,0.4-0.5,0.7-0.4c1.2,0.1,1.4,0.8,0.6,2.1
		c-0.1,0.2-0.5,0.3-0.7,0.2C66.6,64.7,66.5,64.6,66.5,64.6z"/>
	<path class="st25" d="M93,62.9l2,1.3l-1,2.4c-0.1,0.3-0.3,0.4-0.5,0.1l-1.4-1.8c0.8-0.3,0.9-0.8,0.5-1.5L93,62.9z"/>
	<path class="st7" d="M92.7,63.4c0.4,0.7,0.3,1.2-0.5,1.5C90.7,63.6,90.9,63.1,92.7,63.4z"/>
	<path class="st22" d="M98.4,65.9c-0.1,2.3-3.6-4.5-0.3-0.9C98.3,65.3,98.4,65.6,98.4,65.9z"/>
	<path class="st11" d="M40.5,68.5c0.1,0.1,0.1,0.4,0,0.5l-3.9,3.8c-0.1,0.1-0.4,0.1-0.5,0l-3.9-4c-0.1-0.1-0.1-0.4,0-0.5l3.9-3.8
		c0.1-0.1,0.4-0.1,0.5,0L40.5,68.5z M35.8,66.1c-0.8,0.6-1.5,1.4-2,2.3c-0.1,0.2-0.1,0.5,0.2,0.8l1.7,1.7c0.2,0.2,0.5,0.3,0.8,0.2
		c3.4-1.5,3.5-3.2,0.2-5.1C36.4,65.9,36.1,65.9,35.8,66.1z"/>
	<path class="st4" d="M48.7,64.6c2.4,1.4,5,2.3,7.7,2.8c0,0.6-0.2,1.2-0.7,1.6c-0.2,0.2-0.5,0.3-0.9,0.1c-1.4-0.6-2.6-1.4-3.6-2.5
		c-0.2-0.3-0.6-0.3-0.8-0.2c-0.7,0.3,0.7,1.9,1,2.2c0.2,0.2,0.1,0.6-0.1,0.8L48.2,72c-0.4,0.3-0.9,0-1.3-0.7
		c-0.1-0.2-0.1-0.3-0.2-0.5c-0.2-0.8-0.6-1-1.1-0.6c-0.2,0.2-0.2,0.5-0.1,0.8c0.8,1.1,1.8,1.9,3.1,2.3l0.2,0.1c-0.1,0.6-0.5,0.9-1,1
		c-0.3,0.1-0.6,0.3-0.6,0.5c-0.4,1.8,2.8-1.4,3-1.5c-0.2,2.3,0.6,4.1,2.5,5.5c0.3,0.2,0.6,0.3,0.9,0.3H58c0.3,0,0.6,0.1,0.9,0.3
		c0.7,0.5,1.9-0.1,1.6-1.1c-0.4-1.6-1.5-9-2.9-9.3c0.5-0.8,0.4-1.5-0.2-2v-0.2l0.8-1.8c4.3,1,8.6,1.4,13,1.3l-0.5,1.5l-0.3,0.3
		l-1.8-0.3L66.1,68l-0.7-0.2c-0.2-0.1-0.5,0.1-0.7,0.4s-0.4,0.3-0.7,0.2c-0.2-0.1-0.4-0.4-0.4-0.7c0-0.8-0.4-1.2-1.2-1
		c-0.2,0-0.3,0.3-0.3,0.6c0.3,0.6,0.2,1.2-0.3,1.8c-0.2,0.3-0.3,0.6-0.2,0.8c1.2,2.3,3.8-2.6,3.1,0.8l-2.5,0.7
		c-0.2,0.1-0.4,0.3-0.3,0.5V72c0.6,1.3,1.3,1.2,2.1-0.1c0.2-0.3,0.3-0.3,0.5,0c0.7,1.2,0.3,1.7-1.1,1.4c-0.4-0.1-0.7,0-1,0.1
		c-1.3,0.7,0.1,1.3,0.9,1.2c1.7-0.2,1.8,0.2,0.4,1.3c-0.9-0.8-1.3-0.8-1.2,0.1c0.1,0.8,0.6,0.9,1.1,0.4c1,0.1,1.3,0.5,0.8,1.2
		c-0.1,0.2-0.4,0.2-0.7,0.1c-0.4-0.2-1-0.6-1.2,0v0.1c-0.8,2.5,0,4.1,2.6,4.8c0.3,0.8,0.9,1.1,1.8,1c0.1,1,0.5,1.2,1.2,0.7
		c1.8-0.2,2.4-1,1.9-2.5c-0.1-0.2,0-0.5,0.3-0.6c1.3-0.7-1.2-1.4-0.2-2.7c0.2-0.2,0.2-0.5,0-0.8c-0.5-0.7-0.4-1,0.3-1.2
		c0.4-0.1,0.6-0.3,0.7-0.5c0.2-0.9-1.6,0.1-2-1.1c2.1,0.1,2.6-0.5,1.5-1.6l0.5-0.7c0.8-0.3,0.9-0.7,0.5-1.3v-0.5
		c0.6-1.4,0.7-2.8,0.2-4.2c1.2-0.5,2.4-0.8,3.7-0.8l0.3,1.8c-0.6,0.9-0.3,1.3,0.8,1.2V69c-1.8,0-3.6,11.3-4.1,13.6
		c-0.2,1.1-1.8,2.6,0.4,3c0.3,0.1,0.7,0,0.9-0.2c0.5-0.4,0.7-1,0.6-1.7c0-0.4,0-0.7,0.2-0.9l3.5-4.9c1.5-0.8,3.2-1.1,5-1L83,78.1
		l-0.6,2.8c0,1-0.4,1.9-1.2,2.5c-1.3,1.5-3.2,7.5,1,6.8c2,3.5,2.3,3.1,1-1l0.8-0.5c4.1-0.6,4.7,5.4,2.2,3.8
		c-0.2-0.1-0.3-0.4-0.2-0.8c0.2-0.7,0-1.3-0.4-1.8c-0.2-0.2-0.5-0.3-0.7-0.1c0,0,0,0-0.1,0.1c-0.2,0.3,0.6,2.1,0.5,2.7
		c0,0.4,0.1,0.7,0.3,0.8c0.4,0.4,1.3-0.1,1.4,0.6c0,0,0,0,0,0.1c-0.2,1.6-0.9,2.9-2,3.9c-1.1,0.8-2.3-0.5-2.2-1.7
		c1,0.8,1.8,0.7,2.2-0.2c0.8-0.4,1-1.5,0.1-1.8L82.3,93c-2.2-1.7-2.4-1.5-0.5,0.5v1l-1.3,1c-1.5,0.3-2.6,1-3.5,2.1
		c0.5-2.1-0.3-4-2.4-5.7C69.4,90.9,64.5,89,60,86c-1.6-1-3.3-1.5-5.1-1.7c-1.8-0.1-0.9,1.1,0.3,1.1c1.5-0.1,3,0.3,4.3,1.1l0.8,0.4
		l-1.5,0.6c-1.7-0.4-2.2,0.2-1.6,1.8c0.1,0.2,0,0.6-0.1,0.8c-0.3,0.5-0.3,0.9,0,1.4c0.1,0.2,0.1,0.5,0,0.8c-0.4,0.5-0.3,1,0.1,1.5
		c0.1,0.1,0.1,0.3,0,0.4c0,0-0.1,0-0.1,0.1c-1.9,0.8-1.6,1.2,1,1.2c1.6,1.3-6.1,0.8-0.2,2.5c0.1,0.4,0.1,0.8-0.2,1
		c-0.2,0.1-0.5,0.1-0.8-0.2c-0.7-0.9-1.1-0.6-1.2,0.7l-0.2,0.8c-0.5,1.3-0.5,2.6,0,4c-1.1,0.8-2.4,1.2-3.8,1.2
		c0.5-0.8,0.4-1.4-0.2-2c0.5-0.6,0.4-1-0.2-1.2l0.2-0.4c1.3-0.7,3.2-11.5,3.6-13.6c0.4-1.6-0.1-2.2-1.4-1.6
		c-0.3,0.1-0.5,0.4-0.6,0.7c-0.8,2.2-2,4.2-3.7,6c-0.7,0.1-1.4,0.3-2,0.7c-0.3,0.2-0.6,0.2-0.9,0.2c-1.1-0.1-2,0.4-2.7,1.3L43,94.9
		l-0.3-0.5c1.1-2.5,0.5-3.8-1.6-3.9c-0.7-0.1-0.9-0.4-0.4-1l2.2,0.5c0.6,0.6,1.2,3.2,1.9,2.9c0.2-0.1,0.3-0.5,0.2-0.8
		c-0.3-1.5-0.2-2.9,0.4-4.3c2-1.4,2.8-3.4,2.2-6c-0.7-0.6-3.5-3.4-4.3-3.2c-0.3,0.1-0.4,0.3-0.1,0.6c0.9,1,0.9,2,0.2,3.2
		c-2.1,0.4-3.4-0.5-3.8-2.8l0.8-1.3c1,0.4,1.4,1.2,1.2,2.4c-0.1,0.3,0.1,0.6,0.3,0.8c0.7,0.4,1,0.1,0.7-0.9c-0.1-0.3-0.1-0.6,0-1
		c0.3-1.5-0.4-2.2-2.2-2.2c0.2-1.7,0.8-3.1,2.1-4.2c0.2-0.2,0.6-0.3,0.8-0.2c0.7,0.3,1.2,0.8,1.6,1.5c0.1,0.2,0.3,0.3,0.5,0.2
		c0,0,0.1,0,0.1-0.1c1.2-1.2-0.9-2.6-1.7-3.3c0.7-1.6,1.9-2.6,3.5-3.1c0.9-0.2,1.6,0.8,1.6,1.6c0,0.4,0.2,0.5,0.5,0.3l0.7-0.5
		c0.2-0.2,0.3-0.5,0.1-0.8l-2-2.8L48.7,64.6z M42.7,74.8c-3.5,1.2,3.5,3.8,4.2,4.2l1,1c0.8,1.1,1.8,1.4,2.8,1
		c0.4-0.2,0.4-0.3,0.1-0.6c-0.4-0.3-1-0.4-1.6-0.2v-0.9c1.3-0.3,1.4-0.6,0.2-1.1c-0.7-1.2-1.6-2.1-2.8-2.7c-0.4-0.2-0.7-0.2-0.9,0
		s-0.2,0.4,0,0.8c-1.3,0.4-2.1,0.1-2.2-1C46.1,74.9,42.1,72.5,42.7,74.8z M81.1,78.8c-2.1-0.3,1.2,5.2,0.6,0.6
		C81.6,79.1,81.4,78.9,81.1,78.8z M63.4,83.4c2.9,2.2,6.2,3.5,9.8,4c0.5,0,1-0.3,0.6-0.8c-0.1-0.2-0.5-0.2-0.9-0.2
		c-0.8,0.1-1.7,0-2.5-0.2c-0.3-0.1-0.4-0.4-0.3-0.7c0.4-1.4,0-1.6-1.1-0.5c-0.2,0.2-0.6,0.3-0.8,0.1l-4.2-2
		c-2.9-2.3-6.1-3.5-9.7-3.7c-0.3,0-0.6,0.2-0.6,0.4l0,0c0,0.3,0.2,0.4,0.5,0.4C57.7,80.6,60.8,81.7,63.4,83.4z M79.7,82.4
		c-0.7,0.1-1.3-0.1-1.8-0.7c-1.8-1.4,0,3.8,2.3,0.8c0.4-0.9,0.2-1.7-0.7-2.3c-0.2-0.2-0.6-0.1-0.8,0.1c-0.4,0.5-0.3,0.9,0.3,1.2
		c0.3,0.2,0.6,0.4,0.6,0.5L79.7,82.4z M73.1,88.4c-4.6-1.3-8.9-3.2-13-5.8c-1.6-1-3.6-1.1-5.4-1.2c-0.4,0-0.7,0.1-0.9,0.3
		c-0.4,0.3-0.5,0.7-0.2,1.1c0.1,0.2,0.4,0.4,0.8,0.5c7.1,1.6,10.8,6,18.7,7.3c0.3,0.1,0.7,0,0.9-0.2C75.7,89.4,74,88.6,73.1,88.4z
		 M50.7,82.3c-1.5-0.2-2,0.2-1.4,1c0.5,0.8,2.3,0.3,2-0.4C51.4,82.5,51.1,82.3,50.7,82.3z M77.7,83.6c-0.5-1.2-3.6,1.5-0.3,0.5
		C77.6,84,77.8,83.8,77.7,83.6L77.7,83.6z M49,84.9c-0.6,0.6-0.5,0.9,0.4,1c0.5,0,1-0.2,1.7-0.7c0.3-0.2,0.2-0.5,0-0.6
		C50.4,84.1,49.7,84.2,49,84.9z M77.1,85.2c-2.1,0.8-1.9,1.1,0.7,1.1c0.3,0,0.6-0.2,0.7-0.5C79.3,83.5,77.5,85.1,77.1,85.2z
		 M50.5,86.5c-3.2,1.1,2,1,0.8,0.1C51.1,86.4,50.8,86.4,50.5,86.5z M47.2,88.3c-0.6,0.8,0.1,2.5,1.2,2.3c0.5-0.1,0.6-0.5,0.3-1.3
		l0.8-0.3C51.4,89.6,48.9,85.2,47.2,88.3z M76.9,88.6c5.4-0.8-2.7-2.4-0.8-0.3C76.3,88.5,76.6,88.6,76.9,88.6z M77.9,90.3
		c0.9,0.4,0.9,0.8,0,1c-1.3,0.5-1.2,0.8,0.2,1.1c0.9,3.7,3.6,1.2,0.5-0.3l0.1-0.5c1.3-0.9,1.1-1.4-0.5-1.5c0-0.9-0.8-1.2-1.4-0.6
		C75.6,90.5,76,90.8,77.9,90.3z M46.8,90.8c0-0.6-0.2-0.9-0.6-0.8c-0.3,0-0.5,0.3-0.5,0.7C45.5,92.7,46.7,91.9,46.8,90.8z"/>
	<path class="st14" d="M89.4,64.6l0.8,0.8c-1.5,0.6,1.6,1.1,0,2.2H90c-0.4-0.9-1.1-1.5-2-1.8L89.4,64.6z"/>
	<path class="st2" d="M99.9,65.1c0.4-0.1,0.7,0,0.8,0.5c0.3,1.7,0.2,3.2-0.2,4.5c-0.8-0.6-1.4-1.4-1.8-2.3c-0.1-0.2,0-0.5,0.2-0.8
		L99.9,65.1z"/>
	<path class="st9" d="M90.2,65.3l1.4,1.5c0.4,0.4-0.2,0.6-0.2,1l-1.2-0.3C91.8,66.5,88.6,66,90.2,65.3z"/>
	<path class="st26" d="M36.7,66.1c3.2,1.9,3.1,3.6-0.2,5.1c-0.2,0.1-0.5,0-0.8-0.2L34,69.2c-0.2-0.2-0.3-0.5-0.2-0.8
		c0.5-0.9,1.2-1.7,2-2.3C36.1,65.9,36.4,65.9,36.7,66.1z"/>
	<path class="st27" d="M48.2,65.8l2,2.8c0.2,0.3,0.2,0.6-0.1,0.8l-0.7,0.5C49.2,70.1,49,70,49,69.6c0-0.6-0.3-1.1-0.7-1.4
		C48,68,47.7,67.9,47.4,68c-1.6,0.5-2.8,1.6-3.5,3.1l-0.7-0.5C44.6,68.7,46.2,67.1,48.2,65.8z"/>
	<path class="st19" d="M88,65.9c0.9,0.2,1.6,0.8,2,1.8l-0.3,0.5c-1.9-1.3-3.8,1.7-2.5,1.3L87,71c-0.3-0.9-0.7-0.9-1.2-0.2h-0.7
		L88,65.9z"/>
	<path class="st27" d="M56.4,67.4l1-0.3c0.7,0.5,0.7,1.2,0.2,2c-0.9,0.1-1.8,0.5-2.5,1.1c-0.6,0.1-1.1-0.1-1.4-0.4
		c-0.2-0.2-0.5-0.3-0.8-0.2c-1.8,0.8-3.2,2.1-4.3,3.8c-1.3-0.4-2.3-1.2-3.1-2.3c-0.2-0.3-0.2-0.6,0.1-0.8c0.5-0.5,0.9-0.3,1.1,0.6
		c0.2,0.8,0.9,1.6,1.5,1.2l3.1-2.6c0.2-0.2,0.3-0.5,0.1-0.8s-1.7-1.9-1-2.2c0.2-0.1,0.6,0,0.8,0.2c1,1.1,2.2,1.9,3.6,2.5
		c0.3,0.1,0.6,0.1,0.9-0.1C56.2,68.6,56.4,68.1,56.4,67.4z"/>
	<path class="st8" d="M71.2,66.4h1c0.4,1.5,0.3,2.9-0.2,4.2c-1.1-0.4-1.4-0.9-0.9-1.5c0.2-0.2,0.2-0.5,0.1-0.8l-0.4-0.6L71.2,66.4z"
		/>
	<path class="st12" d="M41.9,67.1c-1-0.2-0.6-0.3,1.2-0.3c0.4,0,0.5,0.1,0.3,0.5s-0.5,0.4-0.8,0.2C42.4,67.3,42.1,67.2,41.9,67.1z"
		/>
	<path class="st27" d="M66.2,67.9l-0.5,4c0.2-0.8-0.1-1.3-0.8-1.3c0.6-3.4-2,1.5-3.1-0.8c-0.1-0.2-0.1-0.6,0.2-0.8
		c0.5-0.6,0.5-1.2,0.3-1.8c-0.1-0.3,0-0.6,0.2-0.5c0.8-0.1,1.2,0.2,1.2,1c0,0.4,0.2,0.7,0.4,0.7c0.3,0.1,0.5,0,0.7-0.2
		c0.2-0.3,0.5-0.5,0.7-0.4L66.2,67.9z"/>
	<path class="st8" d="M76.9,68.7c-1.1,0.1-1.3-0.3-0.8-1.2C78.6,67.1,78.8,67.5,76.9,68.7z"/>
	<path class="st25" d="M68.7,67.8c-0.3,1.4-0.3,2.9,0,4.3l-0.2,0.8l0.2,1.5l-0.3,9.7c-0.7,0.5-1.2,0.3-1.2-0.7
		c0.1-0.8-0.3-1.2-1.2-1.3l-0.2-10.2l0.5-4L68.7,67.8z"/>
	<path class="st17" d="M89.6,68.1c0.5,0.7,1.2,1.3,2,1.6c0.3,0.1,0.5,0.4,0.5,0.7l-0.2,1.7l-0.5,0.5c-0.7-0.3-0.8-0.8-0.4-1.4
		c0.2-0.3,0.2-0.6,0-0.8c-1-1.4-2.3-1.7-3.8-1C85.8,69.9,87.7,66.8,89.6,68.1z"/>
	<path class="st6" d="M90,67.6h0.2l1.2,0.3l1,0.8l1.5,0.8c-0.4,1.1-1.1,2-2,2.7l0.2-1.7c0-0.3-0.2-0.5-0.5-0.7
		c-0.8-0.4-1.5-0.9-2-1.6L90,67.6z"/>
	<path class="st19" d="M94.7,69.1l-0.8,0.3l-1.5-0.8C93.1,67.4,93.8,67.6,94.7,69.1z"/>
	<path class="st8" d="M68.7,67.8l1.8,0.3c0.2,0.4,0.2,0.8-0.1,1.2c-0.2,0.3-0.3,0.6-0.2,0.8c0.3,0.7,0.8,1.1,1.8,0.9
		c0.4,0.6,0.3,1-0.5,1.3c-0.8-0.7-1.7-0.8-2.7-0.3C68.4,70.7,68.4,69.3,68.7,67.8z"/>
	<path class="st14" d="M70.7,67.9l0.4,0.6c0.2,0.2,0.1,0.5-0.1,0.8c-0.5,0.6-0.2,1.1,0.9,1.5v0.5c-0.9,0.1-1.5-0.2-1.8-0.9
		c-0.1-0.2,0-0.5,0.2-0.8c0.3-0.3,0.3-0.7,0.1-1.2L70.7,67.9z"/>
	<path class="st27" d="M91.4,72.6l-0.2,1.8c-0.5,3.1-1.5,5.8-1.4,9c0.3,9.1-3.4,16.4-10.9,21.7l-1.7-2.9c-0.2-0.3-0.2-0.6-0.1-0.8
		c0.4-0.6,0.9-0.7,1.6-0.6c-0.3,1.5,0.2,2.1,1.5,1.8c1.2-0.5,2.2-1.3,3.1-2.3c0.2-0.2,0.2-0.6,0-0.8c-0.4-0.4-1.6-1.6-1.8-1.9
		c-0.1-0.6,0-1.1,0.3-1.5l0.8,0.1c-0.1,1.2,1.1,2.4,2.2,1.7c1.1-1.1,1.8-2.4,2-3.9c0-0.2-0.1-0.4-0.4-0.4c-0.4,0-0.8-0.1-1.1-0.2
		C85.1,93.3,85,93,85,92.6c0.1-0.6-0.8-2.4-0.5-2.7c0.1-0.2,0.5-0.2,0.7,0c0,0,0.1,0,0.1,0.1c0.5,0.5,0.6,1.2,0.4,1.8
		c-0.1,0.3,0,0.6,0.2,0.8c2.5,1.7,1.9-4.4-2.2-3.8l-0.5-1.4l1-0.3c2.2,0.4,3.4,1.5,3.6,3.4c0,0.3,0.1,0.3,0.2,0.1
		c2.1-4.4-4.8-3.1-2.3-5.5h0.7c3.4,2.1,2.4-4.1,1-4.2c-0.3,0-0.6-0.2-0.8-0.4c-0.3-0.4-0.8-0.6-1.4-0.5c-0.2,0-0.4-0.2-0.4-0.4l0,0
		v-3.7c0-0.5,0.5-1.1,1-1c2.3,0.3,3.1,1.6,2.6,3.8c-0.1,0.3,0,0.7,0.2,0.8c1.3,1,1.9-3.6-1.1-5c-0.5-0.2-0.6-0.6-0.3-1.2
		c0.5-0.9,0.3-1.6-0.5-2.3l0.2-1.5c1.5-0.7,2.8-0.4,3.8,1c0.2,0.2,0.2,0.5,0,0.8C90.5,71.9,90.7,72.3,91.4,72.6z M89,70.6
		c-0.7-0.4-1.1-0.3-1.2,0.2c0,0.2,0.1,0.5,0.4,0.7c0.4,0.3,0.6,0.7,0.6,1.3c0,0.4,0.1,0.7,0.3,0.8c0.6,0.3,1.1,0.1,1.5-0.6
		C91.1,72.2,90.5,71.4,89,70.6z M88,79.4c0.2,0,0.2-0.1,0.1-0.2c-0.3-0.5-0.5-1.2-0.5-2c0-0.3-0.2-0.6-0.4-0.6c-1.5-0.4-1.9,0-1,1.3
		c0,0,0.2,0.3,0.4,0.9C86.8,79.2,87.2,79.5,88,79.4z"/>
	<path class="st10" d="M76.9,68.8c0.1,0.5,1.1,0.5,1.1,1l0.2,8l-3.5,4.9c-0.1,0.2-0.2,0.5-0.2,0.9c0.1,0.7-0.1,1.3-0.6,1.7
		c-0.2,0.2-0.6,0.3-0.9,0.2c-2.2-0.4-0.7-1.9-0.4-3C73,80.3,74.8,69,76.9,68.8z"/>
	<path class="st10" d="M57.7,69.1c1.5,0.3,2.5,7.7,2.9,9.3c0.2,1-0.7,1.5-1.6,1.1c-0.3-0.2-0.6-0.3-0.9-0.3h-4.4
		c-0.3,0-0.7-0.1-0.9-0.3c-1.9-1.4-2.7-3.2-2.5-5.5l3.4-2.3l1.5-0.9C55.9,69.6,56.7,69.2,57.7,69.1z"/>
	<path class="st13" d="M94.7,69.1h0.7l-3.5,5.2h-0.7l0.2-1.8l0.5-0.5c0.9-0.7,1.6-1.6,2-2.7L94.7,69.1z"/>
	<path class="st2" d="M95.4,69.2c0.5,0,0.8,0.2,1,0.5c0.1,0.2,0.1,0.5-0.2,0.8c-0.5,0.5-0.9,1.1-1.1,1.9c-0.2,0.7-0.4,1.8-0.6,3.3
		c-0.1,0.7,0.1,0.9,0.6,0.6c0.2-0.1,0.4-0.4,0.5-0.8c0.3-1.1,1-1.8,2-2.1c-1.1,1.4-1,2.8,0.3,4.2c-2.7,2.4-7.5,0.9-6.1-3.2
		L95.4,69.2z"/>
	<path class="st13" d="M55.2,70.2l-1.5,0.9c0.9-2.4-4.3,1.9-4.8,2.3l-0.2-0.1c1.1-1.7,2.5-2.9,4.3-3.8c0.2-0.1,0.6,0,0.8,0.2
		C54.1,70.1,54.6,70.2,55.2,70.2z"/>
	<path class="st2" d="M98.6,70.9l-0.2,0.2C94.2,72.3,99.5,67.4,98.6,70.9z"/>
	<path class="st17" d="M86.9,70.9c0.8,0.7,1,1.4,0.5,2.3h-0.7l-1-2.5C86.1,70,86.5,70,86.9,70.9z"/>
	<path class="st9" d="M53.7,71.1l-3.4,2.3c-0.2,0.2-3.4,3.3-3,1.5c0-0.2,0.3-0.4,0.6-0.5c0.5-0.1,0.8-0.4,1-1c1.2-1,2.5-1.8,3.8-2.7
		C53.6,70.1,54,70.2,53.7,71.1z"/>
	<path class="st4" d="M89,70.6c1.6,0.8,2.1,1.6,1.7,2.4c-0.4,1-2,1-1.8-0.2c0-0.6-0.2-1-0.6-1.3c-0.3-0.2-0.5-0.5-0.4-0.7
		C87.8,70.3,88.3,70.2,89,70.6z"/>
	<path class="st6" d="M43.2,70.6l0.7,0.5c0.7,0.7,2.9,2.1,1.7,3.3c-0.1,0.1-0.4,0.1-0.5-0.1c0,0,0-0.1-0.1-0.1
		c-0.4-0.7-0.9-1.2-1.6-1.5c-0.3-0.1-0.6-0.1-0.8,0.2c-1.2,1.1-1.9,2.5-2.1,4.2v1l-0.8,1.3L39,81.1c-1.6,3.7,3.7,1.8,2.7,4.5h-1
		c-0.9-0.8-1.6-0.6-2,0.4c-0.3,0.7-0.4,1.7-0.2,2.7c0.3,1.3,0.8,1.5,1.5,0.6h0.7c-0.5,0.6-0.4,1,0.4,1l-0.6,0.9
		c-0.8-0.1-1.1,0.1-1,0.8H39l-0.8-0.8l-0.8-0.7C38,82.4,37.3,77,43.2,70.6z"/>
	<path class="st16" d="M64.9,70.6c0.7,0,1,0.4,0.8,1.3L66,82.1l-0.5,0.3c-2.6-0.6-3.4-2.2-2.6-4.8c0.1-0.3,0.4-0.5,0.6-0.4
		c0,0,0,0,0.1,0l0.6,0.3c0.3,0.1,0.6,0.1,0.7-0.1c0.5-0.7,0.2-1.1-0.8-1.2v-0.5c1.4-1.1,1.3-1.5-0.4-1.3c-0.8,0.1-2.2-0.5-0.9-1.2
		c0.2-0.1,0.6-0.2,1-0.1c1.4,0.2,1.8-0.3,1.1-1.4c-0.2-0.3-0.3-0.3-0.5,0c-0.8,1.4-1.5,1.4-2.1,0.1c-0.1-0.2,0-0.5,0.2-0.6h0.1
		L64.9,70.6z M63.8,78.5c-0.2,0.3-0.3,0.5-0.1,0.8c0.2,0.2,0.6,0.3,0.8,0.1C65.3,78.9,64.4,78,63.8,78.5z"/>
	<path class="st8" d="M85,70.6h0.7l1,2.5c0,0.4-0.2,0.8-0.6,0.4l0,0L85,72.1V70.6z"/>
	<path class="st6" d="M98.6,70.9c1.3,0.5,1.5,1,0.5,1.5l-0.5-0.1l-0.3-1.2L98.6,70.9z"/>
	<path class="st14" d="M71.4,72.4l-0.5,0.7l-2.5-0.2l0.2-0.8C69.7,71.6,70.6,71.7,71.4,72.4z"/>
	<path class="st14" d="M84.9,72.1l1.1,1.4c0.2,0.2,0.4,0.3,0.5,0.2l0,0c0.1-0.1,0.1-0.3,0.1-0.5h0.7c-0.3,0.5-0.2,0.9,0.3,1.2
		c3,1.4,2.4,6,1.1,5c-0.2-0.2-0.3-0.5-0.2-0.8c0.5-2.2-0.3-3.5-2.6-3.8c-0.5-0.1-0.9,0.3-1,0.8v0.1v3.7c0,0.2,0.2,0.4,0.4,0.4
		c0.6,0,1,0.1,1.4,0.5c0.2,0.2,0.5,0.4,0.8,0.4c1.4,0.1,2.5,6.3-1,4.2c0.8-0.9,1.7-4.7,0.3-3.7c-0.3,0.2-0.6,0.3-0.8,0.2
		c-1.6-0.5-2.6-1.6-3.2-3.3l0.2-1.2C83.2,75,83.8,73.4,84.9,72.1z"/>
	<path class="st16" d="M98.7,72.3l0.5,0.1c-0.5,0.5-0.3,0.8,0.7,0.8l-1,0.7l-1.2-0.5L98.7,72.3z"/>
	<path class="st27" d="M70.9,73.1c1.1,1.1,0.6,1.6-1.5,1.6l-0.7-0.3l-0.2-1.5L70.9,73.1z"/>
	<path class="st9" d="M99.9,73.2c1,1.5,0.7,1.7-1,0.7L99.9,73.2z"/>
	<path class="st19" d="M43.5,75.4l-0.8-0.5C42.1,72.5,46.1,74.9,43.5,75.4z"/>
	<path class="st25" d="M36.1,74.9c-3.2-2.1,2.2-0.5,0.7,0.1C36.6,75.1,36.3,75.1,36.1,74.9z"/>
	<path class="st8" d="M68.7,74.4l0.7,0.3c0.4,1.3,2.2,0.2,2,1.1c0,0.2-0.3,0.4-0.7,0.5c-0.7,0.1-0.8,0.5-0.3,1.2
		c0.2,0.2,0.2,0.5,0,0.8c-1,1.3,1.5,2,0.2,2.7c-0.2,0.1-0.4,0.4-0.3,0.6c0.5,1.5-0.1,2.3-1.9,2.5L68.7,74.4z"/>
	<path class="st5" d="M91.2,74.4h0.7c-1.4,4.2,3.3,5.7,6.1,3.2c0.9,0.1,1.4-0.3,1.5-1.2l1-0.2c0.5,0,1.2-0.2,1.2,0.6l0.5,6.2v17.9
		c0,0.3-0.2,0.6-0.5,0.7c-1.9,0.8-3,3.3-4.2,5c-2.4,3.4-7.6,5.7-11.3,7.4l0.9-1.5c-2.2-2.8-5-4.9-8.5-6.2l0.3-1
		c7.5-5.4,11.1-12.6,10.9-21.7C89.7,80.2,90.7,77.5,91.2,74.4z M92.8,82.9c0.2,0,0.4-0.1,0.4-0.3c0.4-1.3,0.3-2-0.4-2.1
		c-0.3,0-0.5,0.2-0.6,0.5c-0.2,0.6-0.5,1.1-0.9,1.6C91,82.8,91.1,83,91.4,83L92.8,82.9z M100.1,85.1c0.4-0.2,0.6-0.8,0.5-1.7
		c-0.1-0.9-0.4-1-0.9-0.2c-0.3,0.5-0.4,1-0.2,1.5C99.5,85,99.8,85.2,100.1,85.1C100,85.1,100.1,85.1,100.1,85.1z M96.1,84.4
		c-0.8-0.2-1.2,0-1.4,0.5c-0.1,0.3-0.3,0.6-0.5,0.8l-2.7,2.6c-0.2,0.2-0.2,0.5,0,0.8l3.5,3.8c0.2,0.2,0.5,0.2,0.7,0.1l0,0l2.9-3.2
		C101,89,97,86.6,96.3,85c0.3-0.5,0.7-0.8,1.2-0.8c0.3,0,0.3-0.2,0.3-0.4C97.3,82.5,96.7,82.8,96.1,84.4z M98.4,99.1
		c-0.2,0.5-0.7,0.7-1.2,0.5c-0.1-0.1-0.3-0.2-0.4-0.3c-0.8-0.9-1-0.9-0.7,0c0.1,0.2,0.2,0.4,0.4,0.5l2.6,1.2c0.2,0.1,0.4,0,0.5-0.2
		c0-0.1,0-0.1,0-0.2c-0.1-2.5,0.3-7.1-4-5.8c-0.3,0.1-0.3,0.2,0,0.2C98.5,95,99.4,96.4,98.4,99.1z M94.7,103.4
		c2.8-0.6-1.7-3.9-2.9-4.9c-0.2-0.2-0.5-0.2-0.7,0l-3.3,3.1c-0.2,0.2-0.3,0.5-0.1,0.8c0.9,1.6,2.1,2.9,3.6,4c0.3,0.2,0.6,0.2,0.8,0
		l2-2.4C94.2,103.6,94.4,103.4,94.7,103.4z"/>
	<path class="st27" d="M42.7,74.8l0.8,0.5c0.1,1.1,0.9,1.4,2.2,1c0,1.1,0.5,2,1.2,2.7C46.1,78.6,39.1,76,42.7,74.8z"/>
	<path class="st16" d="M100.5,76.1l-1,0.2C97.8,75,101.1,74.6,100.5,76.1z"/>
	<path class="st8" d="M49.4,78.3l-0.8,0.1c-1.5-0.6-1.5-2.7-3-2c-0.1-0.4-0.1-0.6,0-0.8c0.2-0.2,0.5-0.2,0.9,0
		C47.8,76.3,48.7,77.2,49.4,78.3z"/>
	<path class="st6" d="M64,75.9v0.5c-0.5,0.5-1.1,0.4-1.1-0.4C62.7,75.1,63.1,75.1,64,75.9z"/>
	<path class="st13" d="M48.7,78.4l0.5,1v0.9c-0.4-1-0.9-1-1.3-0.2c-1-1-2.3-2.2-2.2-3.7C47.2,75.7,47.2,77.8,48.7,78.4z"/>
	<path class="st4" d="M88,79.4c-0.8,0-1.3-0.2-1.4-0.6c-0.2-0.6-0.3-0.9-0.4-0.9c-0.9-1.3-0.6-1.7,1-1.3c0.3,0.1,0.5,0.3,0.4,0.6
		c0,0.8,0.1,1.5,0.5,2C88.2,79.4,88.2,79.4,88,79.4z"/>
	<path class="st8" d="M40.5,77.1c1.7,0,2.5,0.8,2.2,2.2c-0.1,0.3-0.1,0.6,0,1c0.3,1,0,1.3-0.7,0.9c-0.2-0.1-0.4-0.4-0.3-0.8
		c0.2-1.1-0.2-1.9-1.2-2.4V77.1z"/>
	<path class="st11" d="M36.2,81.9c0.1,0.1,0.1,0.3,0,0.4l0,0l-4,4c-0.1,0.1-0.3,0.1-0.4,0l0,0l-4.1-4.1c-0.1-0.1-0.1-0.3,0-0.4l0,0
		l4-4c0.1-0.1,0.3-0.1,0.4,0l0,0L36.2,81.9z M30.8,80c-0.5,0.7-1,1.2-1.6,1.4c-0.2,0.1-0.5,0.4-0.2,0.5l2.5,2.5
		c0.2,0.2,0.5,0.1,0.8-0.1l2-1.9c0.2-0.2,0.2-0.5,0-0.7l-1.7-1.9C32.1,79.2,31.1,79.3,30.8,80z"/>
	<path class="st14" d="M64.7,78.5c0.3,0.3,0.3,0.6-0.1,0.9c-0.6,0.5-1.3-0.4-0.7-0.9C64,78.3,64.4,78.3,64.7,78.5z"/>
	<path class="st8" d="M83,78.1c0.5,1.7,1.6,2.8,3.2,3.3c0.2,0.1,0.5,0,0.8-0.2c1.4-1,0.5,2.8-0.3,3.7H86l0.5-1.8
		c0.1-0.3,0-0.5-0.2-0.6c0,0,0,0-0.1,0l-1.4-0.2l-2.4-1.4L83,78.1z"/>
	<path class="st19" d="M47.6,81.6l-0.9,0.5c-0.1-0.4-0.4-0.6-0.7-0.6c-0.2,0.1-0.5,0.3-0.6,0.7l-0.6,1.6l-1-0.5l-0.5-1.2
		c0.7-1.2,0.7-2.2-0.2-3.2c-0.3-0.3-0.3-0.5,0.1-0.6C44.1,78.3,46.9,81,47.6,81.6z"/>
	<path class="st27" d="M48.7,78.4l0.8-0.1c1.1,0.5,1,0.8-0.2,1.1L48.7,78.4z"/>
	<path class="st27" d="M81.7,79.4c0.6,4.6-2.6-0.9-0.6-0.6C81.4,78.9,81.6,79.1,81.7,79.4z"/>
	<path class="st26" d="M30.8,80c0.3-0.5,1.1-0.7,1.6-0.3c0.1,0.1,0.2,0.1,0.2,0.2l1.7,1.9c0.2,0.2,0.1,0.5,0,0.7l-2,1.9
		c-0.2,0.2-0.6,0.3-0.8,0.1L29,81.9c-0.1-0.1-0.1-0.3,0.1-0.4l0.1-0.1C29.8,81.2,30.4,80.7,30.8,80z"/>
	<path class="st27" d="M39.6,79.4c0.4,2.3,1.7,3.2,3.8,2.8l0.5,1.2L43,83.9c-1.7-0.5-3-1.4-4-2.8L39.6,79.4z"/>
	<path class="st8" d="M49.2,80.3c0.7-0.2,1.2-0.1,1.6,0.2c0.3,0.2,0.3,0.4-0.1,0.6c-1.1,0.4-2,0.1-2.8-1
		C48.3,79.3,48.7,79.4,49.2,80.3z"/>
	<path class="st9" d="M64,83.1l-0.5,0.3c-2.6-1.8-5.7-2.8-9.2-3.1c-0.8,0-0.6-1,0.1-0.9C57.9,79.6,61.1,80.9,64,83.1z"/>
	<path class="st2" d="M80.2,82.4h-0.5V82c0-0.2-0.3-0.4-0.6-0.5c-0.6-0.3-0.7-0.7-0.3-1.2c0.2-0.2,0.5-0.3,0.8-0.1
		C80.4,80.8,80.6,81.5,80.2,82.4z"/>
	<path class="st18" d="M92.8,82.9h-1.4c-0.3,0-0.4-0.1-0.1-0.4c0.4-0.4,0.7-1,0.9-1.6c0.1-0.3,0.4-0.5,0.6-0.5
		c0.7,0.1,0.9,0.8,0.4,2.1C93.2,82.8,93,82.9,92.8,82.9z"/>
	<path class="st16" d="M82.4,80.9l2.4,1.4l-0.4,4.6l-1,0.3l-0.8-0.1c0.4-1.4,0.1-2.7-0.8-3.7L81,83.3C82,82.8,82.4,81.9,82.4,80.9z"
		/>
	<path class="st17" d="M39,81.1c1,1.3,2.3,2.2,4,2.8l-0.2,4.8l-1.5-0.2c-0.2,0-0.4-0.3-0.4-0.5c0,0,0,0,0-0.1l0.7-2.2
		C42.6,82.9,37.3,84.8,39,81.1z"/>
	<path class="st7" d="M73.1,88.4c0.9,0.2,2.6,1,1,2c-0.3,0.2-0.6,0.2-0.9,0.2c-7.9-1.3-11.7-5.7-18.7-7.3c-0.4-0.1-0.7-0.3-0.8-0.5
		c-0.3-0.4-0.2-0.8,0.2-1.1c0.2-0.2,0.5-0.3,0.9-0.3c1.8,0.1,3.8,0.2,5.4,1.2C64.1,85.2,68.5,87.1,73.1,88.4z"/>
	<path class="st8" d="M79.7,82.4h0.5c-2.2,3-4.1-2.2-2.3-0.8C78.4,82.3,79,82.5,79.7,82.4z"/>
	<path class="st26" d="M46.7,82.1c0.1,2-0.3,3.8-1.3,5.5c-0.9-1.1-1.1-2.3-0.5-3.8l0.6-1.6c0.1-0.4,0.4-0.6,0.6-0.7
		C46.3,81.5,46.6,81.7,46.7,82.1z"/>
	<path class="st27" d="M47.6,81.6c0.6,2.6-0.2,4.6-2.2,6c1-1.7,1.4-3.5,1.3-5.5L47.6,81.6z"/>
	<path class="st27" d="M51.4,82.8c0.3,0.7-1.5,1.2-2,0.4c-0.6-0.8-0.1-1.2,1.4-1C51.1,82.3,51.4,82.5,51.4,82.8z"/>
	<path class="st20" d="M66,82.1c0.9,0.1,1.3,0.5,1.2,1.3c-0.9,0.1-1.5-0.2-1.8-1L66,82.1z"/>
	<path class="st4" d="M84.8,82.3l1.4,0.2c0.2,0,0.3,0.2,0.2,0.5v0.1l-0.5,1.8c-2.5,2.4,4.4,1.1,2.3,5.5c-0.1,0.3-0.2,0.3-0.2-0.1
		c-0.2-1.9-1.4-3-3.6-3.4L84.8,82.3z"/>
	<path class="st18" d="M99.4,84.7c-0.1-0.5,0-1,0.2-1.5c0.5-0.8,0.8-0.8,0.9,0.2c0.1,0.9,0,1.5-0.5,1.7
		C99.8,85.2,99.6,85.1,99.4,84.7C99.4,84.8,99.4,84.8,99.4,84.7z"/>
	<path class="st18" d="M96.4,84.9l-0.2-0.5c0.6-1.6,1.1-1.8,1.8-0.8c0.1,0.1,0,0.3-0.1,0.4h-0.1C97.1,84.1,96.7,84.4,96.4,84.9z"/>
	<path class="st16" d="M64,83.1l4.2,2.1c0.3,0.1,0.6,0.1,0.8-0.1c1.2-1.1,1.6-1,1.1,0.5c-0.1,0.3,0.1,0.6,0.3,0.7
		c0.8,0.3,1.7,0.3,2.5,0.2c0.4-0.1,0.8,0,0.9,0.2c0.1,0.1,0.1,0.3,0.1,0.5c-0.1,0.2-0.4,0.3-0.7,0.3c-3.6-0.5-6.9-1.8-9.8-4L64,83.1
		z"/>
	<path class="st16" d="M43.9,83.4l1,0.5c-0.6,1.4-0.4,2.7,0.5,3.8c-0.6,1.4-0.8,2.8-0.4,4.3c0.1,0.4,0,0.7-0.2,0.8
		c-0.7,0.4-1.2-2.3-1.9-2.9c0.3-0.4,0.2-0.9-0.2-1.3l0.2-4.8L43.9,83.4z"/>
	<path class="st8" d="M77.4,84.1c-3.2,1-0.1-1.7,0.3-0.5C77.8,83.7,77.6,84,77.4,84.1L77.4,84.1z"/>
	<path class="st6" d="M81.2,83.3l0.8,0.1c-1,1.6-1.4,3.2-1.3,5.1c0.1,0.8,0.7,1.4,1.2,0.4l0.2,1.2C78,90.8,79.9,84.9,81.2,83.3z"/>
	<path class="st26" d="M81.9,83.4c0.9,1,1.1,2.2,0.8,3.7l-0.7,1l-0.1,0.8c-0.5,1.1-1.2,0.4-1.2-0.4C80.5,86.7,80.9,85,81.9,83.4z"/>
	<path class="st27" d="M59.9,85.9l-0.5,0.5c-1.3-0.8-2.8-1.2-4.3-1.1c-1.2,0.1-2.1-1.2-0.3-1.1C56.6,84.4,58.3,85,59.9,85.9z"/>
	<path class="st8" d="M49,84.9c0.7-0.7,1.3-0.8,2.1-0.3c0.3,0.2,0.2,0.5,0,0.6c-0.7,0.5-1.2,0.7-1.7,0.7
		C48.6,85.8,48.4,85.5,49,84.9z"/>
	<path class="st11" d="M96.1,84.4l0.2,0.5c0.7,1.5,4.7,4,2.3,4.8c-0.5-1.4-1.5-2.5-2.8-3.4c-0.3-0.2-0.6-0.1-0.8,0.1l-2.1,2.1
		c-0.2,0.2-0.2,0.5,0,0.7l0,0c1.1,0.9,2.2,2.8,3.3,2.2c0.2-0.1,0.4-0.4,0.6-0.8c0.3-0.7,1-1,1.9-1l-2.9,3.2c-0.2,0.2-0.5,0.2-0.7,0
		l0,0L91.6,89c-0.2-0.2-0.2-0.6,0-0.8l2.7-2.6c0.2-0.2,0.4-0.5,0.5-0.8C94.9,84.3,95.4,84.2,96.1,84.4z"/>
	<path class="st8" d="M77.1,85.2c0.3-0.1,2.1-1.7,1.4,0.6c-0.1,0.3-0.4,0.5-0.7,0.5C75.2,86.4,75,86,77.1,85.2z"/>
	<path class="st13" d="M40.7,85.7c-1,1.1-1.3,2.3-0.7,3.7c-0.7,0.9-1.2,0.7-1.5-0.6C38.1,87.3,38.7,83.9,40.7,85.7z"/>
	<path class="st18" d="M27.6,86.8l-0.3,0.9c-0.1,0.3-0.2,0.4-0.4,0c-0.2-0.6-0.2-1.2,0.1-1.7c0.1-0.3,0.4-0.4,0.7-0.3
		C28.6,85.9,27.7,86.3,27.6,86.8z"/>
	<path class="st8" d="M40.7,85.7h1L41,87.9c-0.1,0.2,0.1,0.6,0.4,0.5l1.5,0.2c0.5,0.4,0.5,0.8,0.2,1.3l-2.2-0.5h-0.7
		C39.4,88,39.6,86.7,40.7,85.7z"/>
	<path class="st9" d="M59.9,85.9c4.5,3,9.4,4.9,14.6,5.9c-1.1,0.7-2.1,0.8-3.1,0.3c-4-0.9-7.7-2.5-11-5l-0.3-0.3l-0.8-0.4L59.9,85.9
		z"/>
	<path class="st26" d="M98.7,89.6c-0.9-0.1-1.6,0.2-1.9,1c-0.2,0.4-0.4,0.7-0.6,0.8C95.1,92,94,90,92.9,89.2
		c-0.2-0.2-0.2-0.5-0.1-0.7l0,0l2.1-2.1c0.2-0.2,0.6-0.2,0.8-0.1C97.2,87.1,98.2,88.2,98.7,89.6z"/>
	<path class="st8" d="M51.3,86.6c1.2,1-4,1-0.8-0.1C50.8,86.4,51.1,86.4,51.3,86.6z"/>
	<path class="st10" d="M51.2,101.7c-0.6,0.1-1.1,0-1.5-0.3c-0.2-0.1-0.4-0.4-0.4-0.8l-0.1-7.4c1.7-1.7,2.9-3.7,3.7-6
		c0.1-0.3,0.3-0.6,0.6-0.7c1.3-0.5,1.8,0,1.4,1.6C54.3,90.2,52.4,101,51.2,101.7z"/>
	<path class="st18" d="M31.7,87.9c0.2-0.4,0.4-0.4,0.7,0c0.2,0.2,0.1,0.5-0.1,0.7l0,0c-1.6,1.1-2.6,0.6-2.9-1.4
		c0-0.3,0.1-0.6,0.4-0.6c0.7-0.1,1,0.2,0.8,0.8c-0.2,0.6,0,1.1,0.6,1.1C31.4,88.4,31.6,88.2,31.7,87.9z"/>
	<path class="st18" d="M60.2,86.8l0.3,0.3l0.5,1.5c-1.4,1.2-1.3,1.8,0.4,1.8l0.5,6.8c-0.6,2.5-0.4,4.9,0,7.4l-5.5-0.5l0.5-1.5
		c0.6,0.2,1.8,0.7,1.9-0.3c0-1.6,0-5.4,0-6.9l-0.2-8L60.2,86.8z"/>
	<path class="st9" d="M49.5,89.1c-0.4-1.1-1-1.4-1.8-0.8h-0.5C48.9,85.2,51.4,89.6,49.5,89.1z"/>
	<path class="st8" d="M58.7,87.4l0.2,8c-1.8,0-5,0-2-1.2c0.2-0.1,0.2-0.3,0.1-0.4c0,0,0-0.1-0.1-0.1c-0.4-0.4-0.4-0.9-0.1-1.5
		c0.2-0.2,0.2-0.5,0-0.8c-0.3-0.5-0.3-0.9,0-1.4c0.2-0.3,0.2-0.6,0.1-0.8C56.5,87.6,57,87,58.7,87.4z"/>
	<path class="st4" d="M60.5,87.1c3.3,2.4,7,4.1,11,5c-1.1,0.8-2.3,0.8-3.5-0.1c-1.1-0.8-1.5-0.5-1.1,0.8c0.3,1.3,1.5,9.1,3.1,8.9
		c-0.8,0.9-0.8,1.5,0.2,2l0.2,0.4c-0.8,0.3-1.1,0.9-1,1.8c-1.4-0.1-2.7-0.5-3.8-1.2c1-1,1-2,0-3c-0.4-1.7-1.2-1.9-2.4-0.6
		c-0.2,0.3-0.5,0.2-0.6,0c-0.3-0.5,0-1,0.8-1.3c2.3,0.1,2.6-0.4,1-1.5c-0.5-0.6,0.6-0.9,0.7-1.2c0-0.3-0.1-0.5-0.5-0.6
		c-0.2-0.1-0.5-0.1-0.9,0.1c-0.4,0.1-0.9,0.1-1.3-0.2c0-0.2,0.1-0.4,0.2-0.6c0.2-0.2,0.5-0.3,0.8-0.2c1.4,0.4,1.6,0,0.7-1.3v-0.5
		c0.6-0.8,0.8-1.6,0.4-2.5c-0.1-0.3-0.4-0.5-0.7-0.6c-0.7-0.3-1.3-0.6-1.9-1.2l-1-0.8L60.5,87.1z"/>
	<path class="st27" d="M76.1,88.3c-1.8-2.1,6.2-0.5,0.8,0.3C76.6,88.6,76.3,88.5,76.1,88.3z"/>
	<path class="st14" d="M82.7,87.1l0.8,0.1l0.5,1.4l-0.8,0.5l-1.2-1L82.7,87.1z"/>
	<path class="st18" d="M35.7,88.8c-0.1,0.6-0.4,1-0.9,1.2c-0.3,0.1-0.6,0-0.7-0.2c-1-1.6-0.5-2.4,1.6-2.2c0.3,0,0.6,0.2,0.6,0.4
		c0,0.2,0,0.3-0.3,0.4C35.9,88.4,35.7,88.6,35.7,88.8z"/>
	<path class="st13" d="M49.5,89.1l-0.8,0.3c-0.7,0-1.1-0.3-1-1C48.4,87.8,49,88,49.5,89.1z"/>
	<path class="st9" d="M82,88.1l1.2,1c1.3,4.1,1,4.5-1,1L82,88.9V88.1z"/>
	<path class="st27" d="M47.2,88.3h0.5c0,0.7,0.3,1.1,1,1c0.3,0.8,0.2,1.2-0.3,1.3c-0.3,0.1-0.6-0.1-0.9-0.3
		C46.9,89.7,46.8,89.1,47.2,88.3z"/>
	<path class="st20" d="M61,88.6l1,0.8l-0.6,1C59.7,90.4,59.5,89.8,61,88.6z"/>
	<path class="st8" d="M78.2,90.1L78,90.3c-1.9,0.5-2.3,0.2-1.1-0.9c0.3-0.3,0.6-0.4,0.9-0.3C78,89.3,78.2,89.6,78.2,90.1z"/>
	<path class="st16" d="M62,89.4c0.6,0.5,1.2,0.9,1.9,1.2c0.3,0.1,0.6,0.4,0.7,0.6c0.3,0.9,0.2,1.7-0.4,2.5c-0.8-0.2-1-0.7-0.6-1.4
		c0.1-0.3,0-0.5-0.2-0.7c-1-0.5-1.1-0.2-0.5,0.9c0.2,0.3,0.2,0.6,0.1,0.9c-0.5,1.2-0.1,1.4,1.2,0.8c0.9,1.3,0.7,1.7-0.7,1.3
		c-0.6-0.2-1,0.3-1,0.8l-0.5,1l-0.5-6.8L62,89.4z"/>
	<path class="st6" d="M46.4,91.7c-0.6,0.5-0.8,0.2-0.7-1c0-0.4,0.2-0.6,0.5-0.7C47,89.8,46.9,91.4,46.4,91.7z"/>
	<path class="st16" d="M78.2,90.1c1.7,0.1,1.9,0.6,0.5,1.5l-0.8-0.3c0.9-0.2,0.9-0.6,0-1L78.2,90.1z"/>
	<path class="st19" d="M42.6,94.4l-1-0.3c-0.8-0.7-1.2-1.6-1.2-2.8l0.6-0.9C43.2,90.5,43.7,91.8,42.6,94.4z"/>
	<path class="st27" d="M37.4,90.6l0.8,0.7c-0.4,0-0.6,0.2-0.6,0.6c-0.4,2.3,0.4,3.9,2.4,4.9c-0.5,1.1-0.4,2,0.3,2.9
		c0.2,0.3,0.3,0.6,0.2,0.8c-0.2,0.5-0.5,0.9-0.9,1.3h-0.7l-2.2-1.6c-0.2-0.2-0.3-0.5-0.2-0.8c0.5-1.3,1.1-1.2,1.7,0.4
		c0.1,0.3,0.4,0.4,0.7,0.4c0.9-0.2,1-0.7,0.2-1.2c-0.2-0.2-0.4-0.5-0.3-0.8c0.1-1.1-0.7-1.5-2.5-1.2c-0.5,0.1-0.6-0.1-0.4-0.5
		c0.6-1,0.8-2.1,0.7-3.3L37.4,90.6z"/>
	<path class="st14" d="M64.1,93.6v0.5c-1.3,0.7-1.7,0.4-1.2-0.8c0.1-0.3,0.1-0.6-0.1-0.9c-0.7-1.1-0.5-1.4,0.5-0.9
		c0.2,0.1,0.3,0.4,0.2,0.7C63.2,92.9,63.4,93.4,64.1,93.6z"/>
	<path class="st4" d="M38.2,91.3l0.8,0.8c-0.5,0.9-0.5,1.8,0,2.6c0.1,0.2,0.4,0.4,0.8,0.5c0.5,0.2,0.9,0.5,1.2,1v0.7L40.8,97h-0.7
		c-2-1-2.8-2.7-2.4-4.9C37.6,91.6,37.8,91.4,38.2,91.3z"/>
	<path class="st4" d="M40.4,91.3c0.1,1.1,0.5,2,1.2,2.8c-1.6,0.6-2.4-0.1-2.2-2C39.3,91.4,39.6,91.2,40.4,91.3z"/>
	<path class="st10" d="M71.4,92.1c1,0.5,2,0.4,3.1-0.3c2.1,1.6,2.9,3.5,2.4,5.7c-1.1,0.7-3.8,2.6-4.8,3.3l-2.1,0.9
		c-1.7,0.3-2.8-7.6-3.1-8.9c-0.3-1.3,0-1.6,1.1-0.8C69.1,92.9,70.3,92.9,71.4,92.1z"/>
	<path class="st8" d="M77.9,91.3l0.8,0.3l-0.1,0.5l-0.5,0.3C76.7,92.2,76.6,91.8,77.9,91.3z"/>
	<path class="st19" d="M82.2,92.8l-0.5,0.5C79.8,91.3,80,91.2,82.2,92.8z"/>
	<path class="st2" d="M35.5,93.6c0.2,3.1-1,5.6-3.3,7.5c-0.8,0.7-1.5,0.3-1.5-0.8c1.3-0.9,1.8-2.2,1.6-3.8c0-0.4,0-0.7,0.1-1
		c0.6-1.9,0.2-1.7-1.2,0.5l-0.5-0.1l-1.2-3.4C31.8,91.4,33.8,91.7,35.5,93.6z"/>
	<path class="st27" d="M38.9,92.1h0.5c-0.1,1.9,0.6,2.6,2.2,2l1,0.3l0.3,0.5l-0.8,1L41,96.1c-0.3-0.5-0.7-0.8-1.2-1
		c-0.4-0.1-0.7-0.3-0.8-0.5C38.5,93.9,38.5,93,38.9,92.1z"/>
	<path class="st9" d="M78.6,92.1c3.2,1.5,0.5,4-0.5,0.3L78.6,92.1z"/>
	<path class="st15" d="M29.4,92.7l1.2,3.4l-2.2,2c-0.8,0.2-1.1,0.5-0.8,0.9c0.2,0.3,0.5,0.4,0.8,0.3l0,0c0.2-0.1,0.3-0.3,0.3-0.7
		l2.5-2.5c1.4-2.2,1.8-2.4,1.2-0.5c-0.1,0.3-0.1,0.6-0.1,1c0.2,1.6-0.3,2.8-1.6,3.8c-0.3-1.3-0.8-1.5-1.6-0.8
		c-0.2,0.2-0.4,0.5-0.3,0.8c0.1,1.2,0.8,1.2,2,0c-0.1,1.1,0.6,1.4,1.5,0.8c2.4-1.9,3.5-4.4,3.3-7.5l1.2-0.2c0.1,1.2-0.1,2.3-0.7,3.3
		c-0.2,0.4-0.1,0.6,0.4,0.5c1.7-0.3,2.6,0.1,2.5,1.2c0,0.3,0.1,0.6,0.3,0.8c0.8,0.6,0.7,1-0.2,1.2c-0.3,0.1-0.6-0.1-0.7-0.4
		c-0.7-1.6-1.3-1.7-1.7-0.4c-0.1,0.3,0,0.6,0.2,0.8l2.2,1.6c0.9,1.7,0.5,2.2-1.2,1.5l-0.3-0.3c-0.1-0.9-0.5-1.5-1.4-1.8
		c-0.3-0.1-0.6-0.5-0.6-0.8c0.1-4-1.6,0.3-2.3,0.9c-0.2,0.2-0.3,0.4-0.1,0.7l0,0c1.4,1.8,1.8,1.8,1-0.2c-0.1-0.3,0-0.4,0.3-0.3
		c0.7,0.3,1.4,0.8,2,1.3l-0.3,0.4c-0.2,0.2-0.2,0.6,0,0.7l2.4,2.1l-0.3,1.5h-0.7l-1.2-1l-0.5-0.8c-1.5-2.3-2.5-2-3,0.8
		c-0.4,1.7-0.4,3.5-0.1,5.3c0.1,0.3,0.3,0.6,0.6,0.7c1.4,0.6,3.1,2.3,2.8,4.1c-2.2,5.4-5.2,5.5-8.9,0.3c0.2-0.6,0.3-1.1,0.2-1.6
		c0.9-1.3,2-2.3,3.2-2.9c0.3-0.2,0.5-0.4,0.5-0.7v-2.7c0-1.2-0.3-1.3-1-0.2c-0.6,1-1.4,1.6-2.5,1.8c-0.6-1.7-0.6-3.2,0-4.7l1.7-2.7
		c0.1-0.2,0.1-0.5-0.1-0.8l-1.9-2.2c-0.3-0.3-0.5-0.6-0.4-0.9s0.1-0.7,0-0.8c-0.4-0.3-0.8-0.5-1.3-0.6V93c0.1,1.1,0.6,1.8,1.5,2.2
		c0.8,0.4,0.9,0.8,0.3,1.3c0.6,1.5,0.9,1.5,1,0c0.3-0.8,0.2-1.5-0.2-2.2L29.4,92.7z M30,104.9c-2.6-1.6,1.4,3.8,0.5,0.7
		C30.4,105.3,30.2,105.1,30,104.9z M28.4,108.9c1.2-0.9,1.1-1.8-0.2-2.7c-0.1-0.1-0.3-0.1-0.4,0.1c0,0,0,0.1-0.1,0.1
		c-0.1,0.8,0,1.5,0.2,2.3C28,108.9,28.2,109,28.4,108.9C28.3,109,28.4,108.9,28.4,108.9z M29.6,116.9l1.1,1.5
		c-0.8,0.8-0.1,1.9,0.9,1.7c1.2-0.3,1.3-0.9,0.3-1.7c0.8-0.3,1.4-0.9,1.7-1.7c0.5,1.1,0.8,1.1,1.1-0.1c0.1-0.3,0-0.7-0.2-0.9
		l-2.8-2.5c-0.2-0.2-0.5-0.1-0.7,0.1l0,0c-0.8,1-1.7,1.7-2.8,2.2c-0.3,0.1-0.5,0.4-0.4,0.7C27.9,117.7,28.5,117.9,29.6,116.9z"/>
	<path class="st2" d="M82.2,92.8l2.8,1.3c0.9,0.4,0.7,1.3-0.1,1.8h-0.5c-0.4-1.4-1.3-1.9-2.8-1.5v-1L82.2,92.8z"/>
	<path class="st5" d="M49.1,93.1l0.1,7.4c0,0.3,0.2,0.6,0.4,0.8c0.5,0.3,1,0.4,1.5,0.3l-0.2,0.4c-2.5,0.8-2.4,1.2,0.2,1.2
		c0.6,0.6,0.7,1.2,0.2,2c-3.6,0.6-7,1.7-10.3,3.3c-0.4,0.2-0.4,0.3,0,0.4l2.8,0.6v2L41,110c-0.3-0.2-0.7-0.3-0.9-0.2
		c-0.7,0.2-0.8,0.7-0.2,1.5c0.9,1.2,1.7,2.5,2.5,3.7c-0.4,0.7-0.2,1.3,0.4,1.8l2.8,5c0.7,0.4,0.9,1.1,0.7,2l1,0.8l0.2,1l2.5,4.5
		l0.5,1.2l4.8,9.5l0.8,0.8l0.3,1c0.3,1.2,1.1,1.6,2.2,1.2h0.7l1,0.6c0.3,0.7,0,1-1,0.8l-33.4,0.1c-0.5,0-0.9-0.4-0.9-0.9l-0.1-14h1
		v13.5c0,0.3,0.2,0.5,0.5,0.5H34c0.3,0,0.5-0.2,0.6-0.5c1.1-6.9,0.2-13.5-2.7-19.8c-0.1-0.3,0.1-0.4,0.3-0.4l6.8-0.2
		c-0.6,0.8-0.5,1.4,0.3,2c-0.1,1.2,0.2,2.2,1.1,2.9c0.3,0.2,0.4,0.5,0.5,0.8c0.4,1.5,1.2,2.7,2.5,3.6c-0.1,1.2,0.3,2.1,1.2,2.7
		c0.4,0.2,0.6,0.5,0.7,0.7l0.6,2.1c0.1,0.3,0.3,0.6,0.5,0.7c1,0.6,1.4,1.4,1.4,2.6c0,0.4,0.1,0.7,0.3,0.9c0.8,0.9,1.7,1.5,2.8,1.9
		c0.7,0.2,1.2,0.1,1.7-0.2c0.2-0.1,0.3-0.5,0.1-0.8c-1.3-2.1-11.9-20.4-12.8-20.4c0-2-5-9.3-6.3-11.5c-0.5-0.8-0.3-1.2,0.7-1.1
		c2.1,0.3,3.2-0.6,3-2.7l0.3-1.5l2.5-3.5c1.2-1,1.8-2.4,1.8-4c0.7-0.2,1-0.6,1-1.3l0.1-2c0.7-0.9,1.6-1.4,2.7-1.3
		c0.3,0,0.6-0.1,0.9-0.2C47.7,93.5,48.4,93.2,49.1,93.1z M44.3,140.9l-0.9-1.8c-0.1-0.2,0-0.5,0.2-0.6l0,0c1.9-0.8,1.9-1.7,0.1-2.6
		c-0.3-0.1-0.3-0.1-0.2,0.2c0.2,0.4,0.2,0.7,0.1,1.1c-0.1,0.3-0.3,0.5-0.7,0.5c-3.9-0.1-4.2-1.2-0.9-3.3c0.3-0.2,0.4-0.5,0.5-0.8
		c0-1.4-0.5-1.4-1.5-0.2c-0.2,0.2-0.5,0.2-0.7,0.1l0,0c-0.8-0.8-1.3-1.7-1.7-2.8c-0.1-0.2-0.4-0.4-0.6-0.3c-1.3,0.4-2,0-2.2-1.2
		c0-0.3,0-0.6,0.2-0.9c1.2-2.1-1.5-5-2.3-3.6c-0.1,0.2-0.1,0.6,0,0.9c2.3,5.9,3,12,2.1,18.3c0,0.4,0.1,0.5,0.4,0.5
		c0,0,7.1-0.1,7.1-0.1c0.3,0,0.6-0.2,0.7-0.5c0.6-1.1,1.5-1.9,2.6-2.2c0.3-0.1,0.5-0.4,0.4-0.6c-0.2-0.5-0.4-0.8-0.9-1
		c-0.3-0.1-0.4,0.1-0.4,0.3C45.8,141.3,44.7,141.8,44.3,140.9z M38.5,127.1c0.3-0.2,0.3-0.9-0.1-1.5l0,0c-1-1.4-2.1-0.6-1.2,0.8l0,0
		C37.5,127,38.1,127.3,38.5,127.1z M39.1,129.3c-0.3,0.8,0,1.3,1,1.5c0.3,0.1,0.5-0.1,0.6-0.4l0,0c0.1-0.8-0.2-1.3-0.8-1.4
		C39.5,128.8,39.2,129,39.1,129.3z"/>
	<path class="st16" d="M27.7,94.2c0.4,0.6,0.5,1.4,0.2,2.2h-1c0.6-0.5,0.5-0.9-0.3-1.3L27.7,94.2z"/>
	<path class="st13" d="M81.7,94.4l0.3,1.5v0.2c-0.3,0.5-0.4,1-0.3,1.5c0,0.2,0.2,0.4,0.6,0.7l1.2,1.2c0.2,0.2,0.2,0.5,0,0.8
		c-0.9,1-1.9,1.8-3.1,2.3c-0.1-0.9-0.6-1.5-1.5-1.8c-0.7-0.2-1.2,0-1.6,0.6c-0.1,0.2-0.1,0.5,0.1,0.8l1.7,2.9l-0.3,1l-5.5-2.5
		c-0.1-0.1-0.5-0.1-0.9-0.1l-1.5-0.1c0.2-0.9,0.5-1.5,0.9-1.7c0.5-0.3,1.2-0.2,1.7,0.2c2,1.6,3.1,2.4,3.6,2.1
		c0.2-0.1,0.1-0.3-0.1-0.6c0-0.1-0.1-0.1-0.2-0.1c-0.5-0.3-0.8-0.8-0.9-1.3c-0.1-0.3,0.1-0.6,0.3-0.8l2.6-2.1
		c0.2-0.2,0.6-0.2,0.8-0.1c0.5,0.3,0.9,0.7,1.2,1.2c0.2,0.3,0.5,0.5,0.7,0.5c2,0-1.8-2.9-1.9-3c-0.2-0.2-0.5-0.1-0.7,0.1l0,0
		c-1.7,2.4-4,3.4-6.8,3l1.6-1.1c-0.1,0.8,0.3,1,0.9,0.7c1.4-0.8,3.3-2.4,5.8-4.9L81.7,94.4z"/>
	<path class="st15" d="M81.7,94.4c1.5-0.4,2.4,0.1,2.8,1.5H82L81.7,94.4z"/>
	<path class="st18" d="M98.4,99.1c1.1-2.7,0.1-4.1-2.8-4.1c-0.3,0-0.4-0.1,0-0.2c4.3-1.4,3.9,3.3,4,5.8c0,0.3-0.2,0.4-0.4,0.4
		l-2.6-1.2c-0.1-0.1-0.3-0.2-0.4-0.5c-0.3-0.9-0.1-0.8,0.7,0c0.3,0.4,0.9,0.5,1.3,0.1C98.2,99.3,98.3,99.2,98.4,99.1z"/>
	<path class="st16" d="M43,94.9l0.5,0.5l-0.1,2c-0.7-0.2-1.1-0.7-1.2-1.5L43,94.9z"/>
	<path class="st6" d="M57.9,95.4h1v2.5h-1.2C51.8,96.2,59.5,96.8,57.9,95.4z"/>
	<path class="st9" d="M80.4,95.4c-2.4,2.5-4.4,4.2-5.8,4.9c-0.7,0.4-1,0.2-0.9-0.7l3.2-2.2C77.8,96.4,78.9,95.7,80.4,95.4z"/>
	<path class="st19" d="M84.5,95.9H85c-0.5,1-1.2,1-2.2,0.2L82,96v-0.2L84.5,95.9L84.5,95.9z"/>
	<path class="st13" d="M42.2,95.8c0.1,0.8,0.5,1.3,1.2,1.5c0,0.7-0.3,1.1-1,1.3c-0.3-0.8-0.8-1.4-1.5-1.8v-0.7L42.2,95.8z"/>
	<path class="st9" d="M30.7,96.1l0.5,0.1l-2.5,2.5l-0.3-0.5L30.7,96.1z"/>
	<path class="st8" d="M62.4,96.1c0.6,0.5,1.6,0,2.2,0.1c0.6,0.3,0.7,0.8-0.1,1.1c-0.3,0.1-0.3,0.3-0.1,0.7h-0.5
		c-0.2-0.8-1.5-1.2-1.6-0.2c-0.1,0.7,0.2,1,1,1l0.1,0.8c-0.8,0.4-1.1,0.8-0.8,1.3c0.1,0.2,0.3,0.2,0.5,0.1l0.1-0.1
		c1.1-1.3,1.9-1.1,2.4,0.6c-0.4,0.2-0.8,0.2-1.1,0.2c-0.3-0.1-0.4,0.1-0.3,0.3c0.7,1.6,0.4,1.7-0.8,0.4c-0.2-0.2-0.5-0.2-0.7-0.1
		l-1.1,0.8c-0.3-2-0.3-4,0.2-6L62.4,96.1z"/>
	<path class="st8" d="M27,96.4h1C27.9,97.9,27.6,97.9,27,96.4z"/>
	<path class="st13" d="M40,96.9h0.7c-0.2,1.1,1.3,3.4,0.8,3.7c-0.3,0.1-0.5,0.4-0.6,0.6l-0.5,1.4l-0.8-0.7c0.4-0.4,0.7-0.8,0.9-1.3
		c0.1-0.3,0-0.6-0.2-0.8C39.6,98.9,39.4,98,40,96.9z"/>
	<path class="st8" d="M40.7,96.9l0.2-0.1c0.7,0.4,1.2,1,1.5,1.8c0,1.6-0.5,3-1.8,4l-0.2-0.1l0.5-1.4c0.1-0.2,0.3-0.5,0.6-0.6
		C42,100.3,40.4,98,40.7,96.9z"/>
	<path class="st14" d="M64,98.1l-0.6,0.8c-0.8,0.1-1.2-0.2-1-1c0.1-0.3,0.3-0.6,0.6-0.6C63.4,97.4,63.8,97.6,64,98.1z"/>
	<path class="st27" d="M70.7,103.4l-0.5,0.3c-1-0.5-1.1-1.1-0.2-2l2.1-0.9c2.8,0.4,5.1-0.6,6.8-3c0.2-0.2,0.5-0.3,0.7-0.1l0,0
		c0.1,0.1,3.9,3,1.9,3c-0.3,0-0.5-0.2-0.7-0.5c-0.3-0.5-0.7-0.9-1.2-1.2c-0.2-0.2-0.6-0.1-0.8,0.1l-2.6,2.1
		c-0.3,0.2-0.4,0.5-0.3,0.8c0.1,0.5,0.4,1,0.9,1.3c0.2,0.2,0.4,0.4,0.3,0.6c0,0,0,0.1-0.1,0.1c-0.4,0.2-1.6-0.5-3.6-2.1
		c-0.5-0.4-1.2-0.5-1.7-0.2C71.2,101.9,70.9,102.5,70.7,103.4z"/>
	<path class="st8" d="M57.7,97.9h1.2v4.4c0,0.3-0.2,0.5-0.5,0.6c-0.5,0-1-0.1-1.4-0.3v-1.2c0.8-1.4,0.3-2-1.4-2
		c0.1-1.3,0.5-1.6,1.2-0.7c0.2,0.3,0.5,0.4,0.8,0.2C57.7,98.7,57.8,98.4,57.7,97.9z"/>
	<path class="st19" d="M25.2,98.1c0.5,0,1,0.2,1.3,0.6c0.1,0.1,0.2,0.5,0,0.8c-0.1,0.3,0,0.6,0.4,0.9c-1,2-0.9,3.8,0.2,5.6
		c-0.6,1.5-0.6,3,0,4.7c-0.9,1.6-1,3.2-0.2,4.8c0,0.5,0,1-0.2,1.6l-0.6,13.3h-1C24.5,119.6,24.5,108.9,25.2,98.1z"/>
	<path class="st27" d="M28.4,98.1l0.3,0.5c0,0.3-0.1,0.5-0.3,0.7c-0.3,0.2-0.6,0-0.8-0.3l0,0C27.3,98.6,27.6,98.3,28.4,98.1z"/>
	<path class="st27" d="M64,98.1h0.5c1.6,1.1,1.3,1.7-1,1.5l-0.1-0.8L64,98.1z"/>
	<path class="st11" d="M91.8,98.4c1.2,1,5.8,4.3,2.9,4.9c-0.2,0-0.5,0.2-0.7,0.5l-2,2.4c-0.2,0.2-0.5,0.2-0.8,0
		c-1.5-1.1-2.7-2.4-3.6-4c-0.1-0.2-0.1-0.6,0.1-0.8l3.3-3.1C91.2,98.3,91.5,98.2,91.8,98.4z M93,100.9c-0.2-0.4-0.6-0.8-1-1
		c-0.3-0.2-0.6-0.2-0.9,0c-3,1.8-2.9,3.5,0.4,5.1c0.2,0.1,0.5,0,0.7-0.2c0.4-0.4,1.9-1.8,2.1-2.2c0.1-0.5-0.1-0.9-0.6-1
		C93.4,101.3,93.2,101.1,93,100.9z"/>
	<path class="st27" d="M37.4,103.1l-0.7,0.2c-0.7-0.7-1.5-1.6-2.5-1.8c-0.3-0.1-0.4,0-0.3,0.3c0.7,1.9,0.4,2-1,0.2
		c-0.1-0.2-0.1-0.5,0.1-0.7l0,0c0.8-0.6,2.5-4.9,2.3-0.9c0,0.4,0.2,0.7,0.6,0.8C36.8,101.6,37.3,102.2,37.4,103.1z"/>
	<path class="st2" d="M30.7,100.4c-1.2,1.2-1.8,1.2-2,0c0-0.3,0.1-0.6,0.3-0.8C29.9,98.8,30.4,99.1,30.7,100.4z"/>
	<path class="st14" d="M55.5,99.4c1.7,0,2.2,0.6,1.4,2l-1.7-1.2L55.5,99.4z"/>
	<path class="st26" d="M93.7,101.4c0.5,0.2,0.7,0.5,0.6,1c0,0.1-0.2,0.4-0.6,0.7l-1.5,1.5c-0.2,0.2-0.5,0.3-0.7,0.2
		c-3.2-1.6-3.4-3.3-0.4-5.1c0.3-0.2,0.6-0.2,0.9,0c0.4,0.3,0.7,0.6,1,1C93.2,101.1,93.4,101.3,93.7,101.4z"/>
	<path class="st16" d="M55.2,100.1l1.7,1.2v1.2l-0.5,1.5h-1.2C54.7,102.7,54.7,101.4,55.2,100.1z"/>
	<path class="st2" d="M26.9,100.3l1.9,2.2c0.2,0.2,0.2,0.5,0.1,0.8l-1.7,2.7C26,104.2,25.9,102.3,26.9,100.3z"/>
	<path class="st4" d="M78.7,100.9c0.9,0.3,1.4,0.8,1.5,1.8C78.9,103,78.4,102.4,78.7,100.9z"/>
	<path class="st14" d="M65.6,101.6c1,1,1,2,0,3h-3.7l-0.2-1.4l1.1-0.8c0.2-0.2,0.5-0.1,0.7,0.1c1.2,1.4,1.4,1.2,0.8-0.4
		c-0.1-0.3,0-0.4,0.3-0.3C64.9,101.9,65.2,101.8,65.6,101.6z"/>
	<path class="st16" d="M38.9,101.9h0.7l0.8,0.7l0.2,0.1l-2.5,3.5l-2.4-2.1c-0.2-0.2-0.2-0.5,0-0.7L36,103l0.5,0.5
		c0.1,1,0.6,1.5,1.5,1.5c0.3,0,0.3-0.1,0.2-0.4l-0.7-1.1C39.4,104.1,39.8,103.6,38.9,101.9z"/>
	<path class="st8" d="M50.9,102.1c0.7,0.3,0.7,0.7,0.2,1.2C48.5,103.3,48.4,102.9,50.9,102.1z"/>
	<path class="st17" d="M37.4,103.1l0.3,0.3l0.7,1.1c0.2,0.3,0.1,0.4-0.2,0.4c-0.8,0-1.3-0.5-1.5-1.5L37.4,103.1z"/>
	<path class="st6" d="M70.7,103.4l1.5,0.1c0.5,0,0.8,0.1,0.9,0.1l5.5,2.5c3.4,1.3,6.3,3.4,8.5,6.2c-5.2-3.8-10.8-6.5-16.7-8.3
		l-0.2-0.4L70.7,103.4z"/>
	<path class="st3" d="M101.5,117.4c-4.9,5.3-8.4-0.8-5.8-5.1c1.8-2.9,3.5-5.8,5.7-8.5c0.1-0.2,0.4-0.2,0.6-0.1c0,0,0,0,0.1,0.1
		c2.7,3.2,8.5,10.9,5.5,14.4c-1.6,1.8-4.2,1.4-5.2-0.7c-0.1-0.2-0.4-0.3-0.7-0.2C101.6,117.3,101.5,117.3,101.5,117.4z"/>
	<path class="st11" d="M55.2,104.1h1.2l5.5,0.5h3.7c1.1,0.7,2.4,1.1,3.8,1.2c3.2,0.9,6.2,2.2,9,4.1l-0.2,0.4l-1,1
		c-0.2-1.3-0.8-1.9-2-2l-0.7-0.3c-0.8-0.8-1.7-1.3-2.7-1.4c-0.3,0-0.6,0.1-0.7,0.4c-1.3,2.4-0.3,3.5,2.9,3.3l2.2,1.2
		c0.7,1.2,5.9,3.2,2.8,3.4c-0.3,0-0.7-0.1-0.9-0.2l-4-2.8c-0.2-0.1-0.5-0.2-0.9-0.3l-1.7-0.1c-0.3-0.8-1-1.3-2-1.5
		c-2.2-2.3-4.3,1.2-6.7-0.9c-1.2-1.1-2.3-1.5-3.6-0.3l-1,0.2l-0.3-0.5l0.5-1c0.5-2.9-0.4-3.8-2.9-2.8c-0.3,0.1-0.5,0.4-0.5,0.7
		c0,1.8,0.8,3.1,2.4,4c0.2,0.2,0.2,0.3,0.2,0.5c0,0.2-0.4,0.2-0.6,0.2c-1.2-0.5-2.3-1.3-3.1-2.3c1-0.8,0.9-1.5-0.2-2
		c-1.3-1.9-3.4,2.3-0.6,2.9c0.3,0.1,0.3,0.1,0,0.2c-0.6,0.2-1.1,0.6-1.5,1.1c-0.6,0.6-1.2,0.8-1.9,0.8c-1.8,0.1-3.8-0.8-3.7-2.8
		c0.1-1.1-0.5-1-1.7,0.3l-0.5,0.3L41,109c-0.4-0.1-0.4-0.2,0-0.4c3.3-1.6,6.7-2.8,10.3-3.3C52.8,105.3,54.1,104.9,55.2,104.1z
		 M61.4,108.1l1-0.2c1.7,2.7,3,2.5,3.9-0.5c0.1-0.3,0-0.6-0.3-0.8c-0.9-0.6-2-0.6-3.1-0.2h-1.2C60,104.1,58.1,109.5,61.4,108.1z
		 M67.9,107.1c-0.8,1.3-0.5,2.1,0.9,2.3c0.3,0.1,0.6-0.1,0.8-0.3c0.3-0.7,0.3-1.3-0.1-2c-0.3-0.4-0.8-0.5-1.3-0.3
		C68,106.8,67.9,106.9,67.9,107.1z M48.6,110.5c0.1-0.3,0.5-0.4,0.8-0.3c0.1,0,0.2,0.1,0.2,0.2c1.2,1.7,2.5-6.7-2.5-2.5
		c-0.3,0.2-0.4,0.6-0.2,1C47.7,110.6,48.3,111.1,48.6,110.5z"/>
	<path class="st23" d="M70.4,104.1c5.9,1.7,11.5,4.5,16.7,8.3l-0.9,1.5l-2.8,1.5v-0.9c0.7-0.2,0.8-0.7,0.2-1.2l-2.7-1.7
		c-0.6-0.9-1.4-1.5-2.5-1.7c-2.8-1.8-5.8-3.2-9-4.1C69.3,105,69.6,104.4,70.4,104.1z"/>
	<path class="st25" d="M35.4,105.8c-1.1,0.1-1.3,1.2-0.4,1.6c0.5,0.1,0.8-0.1,0.9-0.8l1.2,1c-0.2,0.9-0.9,1.3-1.6,0.9
		c0,0-3.1-2-3.1-2C32.9,103.8,33.9,103.6,35.4,105.8z"/>
	<path class="st22" d="M30.5,105.6c0.9,3.2-3.1-2.3-0.5-0.7C30.2,105.1,30.4,105.3,30.5,105.6z"/>
	<path class="st5" d="M58.4,108.6c-2.1-0.1-2.3,0.3-0.5,1l0.3,0.5c0.5,0.4,0.7,1,0.5,1.7c-0.8,0.4-1.6,0.5-2.4,0.4
		c-0.3,0-0.6,0.1-0.8,0.3c-0.9,0.8-1.9,0.9-3,0.3c0.2-0.8-0.1-1.4-0.8-1.8c0.4-0.5,0.9-0.9,1.5-1.1c0.3-0.1,0.2-0.2,0-0.2
		c-2.8-0.6-0.8-4.8,0.6-2.9c-1.4,0.8-1.3,1.5,0.2,2c0.8,1,1.9,1.8,3.1,2.3c0.2,0.1,0.5,0.1,0.6-0.1l0,0c0-0.2,0-0.3-0.2-0.5
		c-1.6-0.8-2.4-2.1-2.4-4c0-0.3,0.2-0.6,0.5-0.7C58,104.8,58.9,105.8,58.4,108.6z"/>
	<path class="st18" d="M61.7,106.3c-0.5,0.5-0.5,1-0.2,1.8C58.1,109.5,60,104.1,61.7,106.3z"/>
	<path class="st21" d="M27.8,108.7c-0.2-0.7-0.3-1.5-0.2-2.3c-0.1-0.2,0.5-0.5,0.5-0.2c1.3,0.9,1.4,1.8,0.2,2.7
		C28.1,109,27.9,109,27.8,108.7C27.9,108.8,27.8,108.8,27.8,108.7z"/>
	<path class="st11" d="M35.4,105.8l0.5,0.8c-0.1,0.6-0.4,0.9-0.9,0.8C34,107.1,34.3,105.9,35.4,105.8z"/>
	<path class="st5" d="M62.4,107.9l0.5-1.5c1-0.5,3.7-0.4,3.4,1C65.4,110.4,64.1,110.5,62.4,107.9z"/>
	<path class="st20" d="M61.7,106.3h1.2l-0.5,1.5l-1,0.2C61.1,107.4,61.2,106.8,61.7,106.3z"/>
	<path class="st2" d="M32.4,106.6l3.1,2c0.3,0.2,0.6,0.2,0.9,0.1c0.4-0.2,0.6-0.5,0.7-1h0.7c0.1,2.1-0.9,3-3,2.7
		c-1-0.1-1.2,0.2-0.7,1.1c1.3,2.2,6.3,9.4,6.3,11.5l-1,0.5l-6.8,0.2c-0.3,0-0.3,0.2-0.3,0.4c2.8,6.3,3.7,12.9,2.7,19.8
		c0,0.3-0.3,0.5-0.6,0.5h-7.6c-0.3,0-0.5-0.2-0.5-0.5v-13.5l0.6-13.3c3.8,5.2,6.7,5.1,8.9-0.3c0.3-1.8-1.4-3.4-2.8-4.1
		c-0.3-0.1-0.5-0.4-0.6-0.7C32,110.1,32,108.3,32.4,106.6z"/>
	<path class="st18" d="M67.9,107.1c0.3-0.4,0.8-0.6,1.3-0.3c0.1,0.1,0.2,0.2,0.3,0.3c0.4,0.6,0.4,1.3,0.1,2
		c-0.1,0.3-0.5,0.4-0.8,0.3C67.4,109.1,67.1,108.3,67.9,107.1z"/>
	<path class="st5" d="M48.6,110.5c-0.3,0.6-0.9,0.1-1.7-1.6c-0.2-0.3-0.1-0.7,0.2-1c5-4.2,3.7,4.2,2.5,2.5c-0.2-0.3-0.5-0.3-0.8-0.1
		C48.7,110.4,48.6,110.5,48.6,110.5z"/>
	<path class="st20" d="M53.7,106.9c1.1,0.5,1.2,1.2,0.2,2C52.4,108.3,52.4,107.7,53.7,106.9z"/>
	<path class="st5" d="M74.5,109.1c-0.6,0.7-0.6,1.4,0,2.2l-0.5,0.1c-3.2,0.2-4.2-0.9-2.9-3.3c0.1-0.3,0.4-0.4,0.7-0.4
		C72.8,107.9,73.7,108.3,74.5,109.1z"/>
	<path class="st2" d="M27,115.5c-0.8-1.6-0.7-3.2,0.2-4.8c1.1-0.2,1.9-0.8,2.5-1.8c0.7-1.1,1-1,1,0.2v2.7c0,0.3-0.2,0.6-0.5,0.7
		C29,113.2,27.9,114.2,27,115.5z"/>
	<path class="st5" d="M49.7,111.9l-0.3,1.7l-1.8,1.1l-1,0.5c-0.9-0.7-1.5-1.6-1.8-2.7c1.8-0.3,1.9-0.7,0.2-1.2
		c-0.1,0-0.3-0.5-0.1-0.5c1-1,0.7-1.4-0.7-1.4c1.2-1.3,1.7-1.5,1.7-0.3C45.9,111,47.9,112,49.7,111.9z"/>
	<path class="st20" d="M58.4,108.6l-0.5,1C56.1,108.9,56.2,108.6,58.4,108.6z"/>
	<path class="st5" d="M69.5,111.1c-0.4,2.2,0.2,2.7,2,1.5l1.7,0.1c0.4,0,0.7,0.1,0.9,0.3l4,2.8c0.3,0.2,0.6,0.3,0.9,0.2
		c3.1-0.2-2.1-2.2-2.8-3.4l1-1.2l1-1l2.3,1.5l-0.1,0.7c0,0.2,0.2,0.5,0.6,0.6l2.4,1.2v0.9l-4.2,2.1c-0.3,0.1-0.4,0.4-0.4,0.7
		c-0.3,7.2-3.2,13-8.8,17.5c-1.1-0.1-1.6-0.7-1.5-1.8l0.2-1l-0.2-3.2l0.7-0.3c1.9-1.4,3.1-3.3,3.5-5.7c0.3-0.4,1.8-3.4,0.5-3.3
		c-0.2,0-0.3,0.2-0.5,0.5c-0.2,0.4-0.5,0.6-1,0.7c-1.4,0.1-2.8,0.6-4,1.5l-0.2-0.5l2.3-2l1-0.8c1.5-0.2,2.5-0.9,3-2.2
		c1,0.9,1.7,1,2.2,0.3c0.1-0.2,0.1-0.4-0.2-0.6c0,0,0,0-0.1,0l-6.1-3.4c-0.3-0.2-0.6-0.3-0.9-0.2c-1.5,0.1-2.7-0.4-3.6-1.5
		c-0.2-0.2-0.5-0.3-0.8-0.2c-1.6,0.5-3.3,0.5-4.8,0.2l-0.2-2.2c1.2-1.2,2.3-0.8,3.6,0.3C65.1,112.4,67.2,108.8,69.5,111.1z
		 M75.9,115.8c-0.3,2.6,2-0.7,0.5-0.5C76.1,115.3,75.9,115.5,75.9,115.8z"/>
	<path class="st22" d="M74.5,109.1l0.7,0.3c-0.2,0.4-0.2,0.7,0,1c0.3,0.3,0.4,0.6,0.4,0.8c-0.1,0.3-0.5,0.4-1.1,0.2
		C73.8,110.6,73.9,109.8,74.5,109.1z"/>
	<path class="st20" d="M44.4,109.4c1.4,0,1.6,0.5,0.7,1.4c-0.2,0.2-0.1,0.4,0.1,0.5c1.7,0.5,1.6,0.8-0.2,1.2c-0.6,0.1-1-0.2-1-0.8
		v-2L44.4,109.4z"/>
	<path class="st18" d="M75.2,109.4c1.1,0,1.8,0.7,2,2l-1,1.2l-2.2-1.2l0.5-0.1c0.6,0.2,1,0.2,1.1-0.2c0.1-0.2-0.1-0.5-0.4-0.8
		C75,110.1,75,109.8,75.2,109.4z"/>
	<path class="st19" d="M43.9,111.6c0.1,0.6,0.4,0.8,1,0.8c0.3,1.1,0.9,2,1.8,2.7l-0.1,2c-1.1,0.9-1.1,2,0.2,3
		c-0.1,0.9-0.5,1.5-1.1,1.8l-2.8-5c1.1-0.2,1.9-0.7,2.4-1.5c0.2-0.3,0.1-0.6-0.1-0.8l-2.9-3.1c-0.4-0.5-0.5-0.4-0.2,0.1l1.5,2.7
		c0.2,0.3,0.3,0.7,0.2,0.9c-0.2,0.6-0.6,0.5-1.3-0.1c-0.8-1.3-1.7-2.5-2.5-3.7c-0.6-0.8-0.5-1.3,0.2-1.5c0.2-0.1,0.6,0,0.9,0.2
		L43.9,111.6z"/>
	<path class="st20" d="M59.2,109.9l0.2,2.2l-0.8-0.2c0.2-0.7,0-1.3-0.5-1.7L59.2,109.9z"/>
	<path class="st22" d="M78.4,109.9c1.1,0.2,1.9,0.8,2.5,1.7l-0.5,0.3l-2.3-1.5L78.4,109.9z"/>
	<path class="st18" d="M51.6,111.1c0.7,0.4,0.9,1,0.8,1.8l-3,0.7l0.3-1.7C50.4,112,51.1,111.7,51.6,111.1z"/>
	<path class="st20" d="M69.5,111.1c1,0.2,1.6,0.6,2,1.5C69.7,113.8,69,113.4,69.5,111.1z"/>
	<path class="st13" d="M42.9,116.9c-0.7-0.5-0.8-1.1-0.4-1.8c0.7,0.6,1.2,0.7,1.3,0.1c0.1-0.2,0-0.5-0.2-0.9l-1.5-2.7
		c-0.3-0.6-0.3-0.6,0.2-0.1l2.9,3.1c0.2,0.2,0.2,0.6,0.1,0.8C44.8,116.2,44,116.7,42.9,116.9z"/>
	<path class="st21" d="M80.9,111.6l2.7,1.7c0.6,0.5,0.5,1-0.2,1.2l-2.4-1.2c-0.3-0.2-0.6-0.4-0.6-0.6l0.1-0.7L80.9,111.6z"/>
	<path class="st11" d="M58.7,111.8c1.8,0.6,3.7,0.6,5.6,0c0.3-0.1,0.6,0,0.8,0.2c0.9,1.1,2.1,1.6,3.6,1.5c0.3,0,0.6,0.1,0.9,0.2
		l6.1,3.4c0.2,0.1,0.3,0.4,0.2,0.6l0,0c-0.5,0.7-1.2,0.6-2.2-0.3c-4.4-3.4-9.5-4.7-15-4c-3.9-0.2-6.8,0.2-8.7,1.3
		c-1.1,0.6-1.8,0.5-2.3-0.3l1.8-1.1l3-0.7c1.1,0.6,2.1,0.5,3-0.3c0.2-0.2,0.5-0.3,0.8-0.3C57.1,112.4,57.9,112.2,58.7,111.8z"/>
	<path class="st7" d="M33.6,116.6c-0.2-1.3-1-2.1-2.3-2.4c-1.3-0.3-1.8,1.5-1.7,2.6c-1.1,1-1.7,0.8-1.9-0.7c0-0.3,0.1-0.6,0.4-0.7
		c1.1-0.5,2-1.2,2.8-2.2c0.2-0.2,0.5-0.3,0.7-0.1l0,0l2.8,2.5c0.2,0.2,0.3,0.5,0.2,0.9C34.5,117.7,34.1,117.7,33.6,116.6z"/>
	<path class="st24" d="M58.7,113.7l1,1.5c-0.8,0.8-0.7,1.6,0.3,2.3c0.9,0.7,1.9,0.9,3,0.7l1.7,1.3l2.8,3.3l0.2,0.5l0.8,2.2l0.2,1
		c0.1,0.4,0.3,0.8,0.6,1.2c0.2,0.2,0.1,0.5,0,0.7c-0.3,0.3-0.3,0.7-0.1,1.1l-0.7,0.3c-0.5-5.3-3.6-12-9.8-10.3c0-0.7-0.3-1-0.9-0.8
		c-3.9-0.1-7.4,0.9-10.6,2.9c-0.9,0.8,0.3,1.9,1.3,2l-0.3,0.5c-0.7-0.6-1.3-0.6-1.8,0c0.2-0.9-0.1-1.5-0.7-2c0.7-0.2,1-0.8,1.1-1.8
		c0.2-0.9,0.7-1.5,1.4-1.8c0.2-0.1,0.4,0,0.5,0.3c0,0,0,0,0,0.1c0.1,0.7,1.3,0.8,1.1,0c0,0,0,0,0-0.1c-0.1-0.5-0.3-1-0.7-1.3
		c-0.2-0.2-0.5-0.1-0.8,0.1c-0.6,0.4-1.2,0.3-1.7-0.3l0.1-2l1-0.5c0.5,0.8,1.2,0.9,2.3,0.3C51.9,113.9,54.8,113.4,58.7,113.7z
		 M57.5,115.7c-3.7-0.7,2.1,3.2,0.7,0.5C58.1,116,57.8,115.8,57.5,115.7z M51.8,117.4c-0.6-1.5-1-1.6-1.3-0.4
		c-0.1,0.3,0.1,0.6,0.3,0.8c0.8,0.6,1.8,0.8,2.9,0.5c0.2,0,0.3-0.2,0.2-0.4c0,0,0-0.1-0.1-0.1c-0.3-0.4-0.5-0.9-0.4-1.3
		c0-0.3-0.2-0.6-0.4-0.7c-0.5-0.1-0.6,0.2-0.3,1c0.1,0.2,0,0.4-0.1,0.6l-0.3,0.2C52.1,117.7,51.9,117.7,51.8,117.4
		C51.8,117.4,51.8,117.4,51.8,117.4z M55.3,115.8c-1.8-1.4,0.3,3.7,0.4,0.8C55.7,116.3,55.5,116,55.3,115.8z"/>
	<path class="st18" d="M73.7,117.6c-0.6,1.3-1.6,2-3,2.2c0.6-1,0.5-1.7-0.2-2c-0.2-0.1-0.4,0-0.5,0.2v0.1l-0.3,2.2L65,119l0.5-0.7
		c1.8-0.5,1.8-1.2,0.2-2l-0.5-0.3c-1.8-2.4-1.6,0.9-2.2,2c-1.1,0.2-2.1,0-3-0.7c1-0.8,0.9-1.5-0.3-2.3l-1-1.5
		C64.3,112.9,69.3,114.2,73.7,117.6z M61.6,115.9c-0.1,0.7,0,1.1,0.5,1.3c0.2,0.1,0.5,0,0.6-0.3c0,0,0,0,0-0.1
		c0.1-0.7,0-1.1-0.5-1.3C62,115.5,61.7,115.6,61.6,115.9L61.6,115.9z M68.6,118.6c2-4.3-2.8-0.3-0.7,0.4
		C68.1,119.1,68.4,118.9,68.6,118.6z"/>
	<path class="st23" d="M33.6,116.6c-0.3,0.8-0.9,1.4-1.7,1.7h-1.2l-1.1-1.5c-0.1-1.1,0.4-2.9,1.7-2.6
		C32.6,114.5,33.4,115.3,33.6,116.6z"/>
	<path class="st22" d="M59.6,115.1c1.2,0.8,1.3,1.5,0.3,2.3C58.9,116.7,58.8,116,59.6,115.1z"/>
	<path class="st20" d="M65.2,116.1c-1.1,0.6-1.1,1.2,0,1.6l0.3,0.7l-0.5,0.7l-0.3,0.3l-1.7-1.3C63.5,117,63.4,113.6,65.2,116.1z"/>
	<path class="st22" d="M58.2,116.3c1.3,2.7-4.5-1.3-0.7-0.5C57.8,115.8,58.1,116,58.2,116.3z"/>
	<path class="st11" d="M62.2,115.5c0.5,0.2,0.7,0.6,0.5,1.3c-0.1,0.3-0.3,0.4-0.6,0.4c0,0,0,0-0.1,0c-0.5-0.2-0.7-0.6-0.5-1.3
		C61.6,115.7,61.9,115.5,62.2,115.5z"/>
	<path class="st22" d="M76.3,115.3c1.6-0.2-0.8,3.1-0.5,0.5C75.9,115.5,76.1,115.3,76.3,115.3z"/>
	<path class="st22" d="M52.4,117.5l0.3-0.2c0.2-0.1,0.2-0.4,0.1-0.6c-0.3-0.8-0.2-1.1,0.3-1c0.7,0.3,0.2,1.4,0.8,2
		c0.1,0.1,0.1,0.3,0,0.5c0,0-0.1,0-0.1,0.1c-1.1,0.3-2.1,0.1-2.9-0.5c-0.2-0.2-0.4-0.5-0.3-0.8c0.2-1.2,0.7-1.1,1.3,0.4
		C51.9,117.6,52.1,117.7,52.4,117.5C52.3,117.6,52.4,117.6,52.4,117.5z"/>
	<path class="st22" d="M55.7,116.6c-0.1,2.9-2.2-2.2-0.4-0.8C55.5,116,55.7,116.3,55.7,116.6z"/>
	<path class="st12" d="M65.2,116.1l0.5,0.3l-0.5,1.2C64.1,117.3,64.1,116.7,65.2,116.1z"/>
	<path class="st22" d="M65.7,116.4c1.6,0.8,1.6,1.5-0.2,2l-0.3-0.7L65.7,116.4z"/>
	<path class="st22" d="M67.9,119c-2-0.6,2.7-4.7,0.7-0.4C68.4,118.9,68.1,119.1,67.9,119z"/>
	<path class="st20" d="M46.6,117.1c0.6,0.6,1.1,0.7,1.7,0.3c0.3-0.2,0.6-0.2,0.8-0.1c0.4,0.3,0.6,0.7,0.7,1.3
		c0.1,0.3-0.1,0.6-0.4,0.6c-0.4,0-0.7-0.2-0.8-0.6c-0.1-0.2-0.3-0.4-0.5-0.4c0,0,0,0-0.1,0c-0.7,0.3-1.1,0.9-1.4,1.8
		C45.6,119.1,45.5,118.1,46.6,117.1z"/>
	<path class="st22" d="M70.7,119.8l-1,0.8l-0.1-0.2l0.3-2.2c0-0.2,0.3-0.4,0.5-0.4C71.1,118.2,71.2,118.9,70.7,119.8z"/>
	<path class="st21" d="M30.7,118.4h1.2c1,0.8,0.9,1.4-0.3,1.7C30.6,120.4,29.9,119.1,30.7,118.4z"/>
	<path class="st2" d="M57.8,118.6c-2.7,1.6-5.3,3.5-7.6,5.6H50l-1.5-0.7c-0.8-0.2-1.3-0.6-1.6-1.2c-0.1-0.3,0-0.6,0.3-0.8
		C50.3,119.5,53.9,118.5,57.8,118.6z"/>
	<path class="st4" d="M57.8,118.6c0.6-0.2,0.9,0,0.9,0.8c-2.8,1-5.1,2.6-7,4.6c-0.4,0.5-0.4,1.1,0,1.6c1.9,2,2.8,4.3,2.8,7
		c0,0.4,0.2,0.7,0.4,0.8c0.3,0.1,0.6,0.1,0.8-0.2s0.5-0.4,0.7-0.4c1.9-0.1,2.2-0.6,0.9-1.6c-0.3-0.2-0.2-0.3,0.1-0.1
		c1.5,0.6,2.6,1.7,3.2,3.3c0.1,0.3,0.1,0.6-0.1,0.9c-1.4,1.6-3,1.8-4.9,0.6c-1.1-0.7-1.2,0.4-0.5,0.9c1.4,1,2.9,1.2,4.5,0.3
		c0.3-0.2,0.6-0.2,0.8,0c0.7,0.5-1.8,1.7-2.6,2.1l-1.2-0.2c-2.8-1.9-3.7-4.6-2.8-8.3c0.2-0.9-0.1-1.5-1-1.8l-0.2-1.2l-2.2-2.2v-0.9
		C52.5,122,55,120.2,57.8,118.6z M59.1,133.6c-0.8-0.4-0.9-0.1-0.2,0.8c0.1,0.1,0.2,0.1,0.2,0l0,0C59.2,134.1,59.4,133.9,59.1,133.6
		L59.1,133.6z"/>
	<path class="st2" d="M68.5,129.6l0.2,3.2H68l-2.5-0.5h-0.2l-0.5-0.5c1.3-1.1,1.2-1.4-0.2-1c-0.3,0.1-0.4,0-0.3-0.3
		c0.7-2.9-0.4-4.1-3.5-3.6c-2.5,1.3-2.5,1.8,0,1.4c2.7-1.1,3.6-0.1,2.8,3c-0.2,2-0.4,5.9,2.1,6.8c0.4,0.1,0.6,0.3,0.8,0.6
		c0.6,1.3-1.1,0.6-1.5,1.2l-2.4,2.7h-0.5c-0.5-1.1-1.2-2-2.1-2.7c-0.3-0.2-0.6-0.3-0.9-0.3c-0.6,0.1-1.1,0.5-1.3,1.1
		c-0.1,0.4-0.4,0.7-0.6,0.7l-0.9,0.2l-0.8-0.8l0.5-0.5c0.8-0.2,1.4-0.7,1.8-1.4c0.9-0.4,3.3-1.6,2.6-2.1c-0.2-0.1-0.5-0.1-0.8,0
		c-1.6,0.8-3.1,0.7-4.5-0.3c-0.6-0.5-0.6-1.6,0.5-0.9c1.9,1.2,3.5,1,4.9-0.6c0.2-0.2,0.3-0.6,0.1-0.9c-0.6-1.6-1.7-2.7-3.2-3.3
		c-0.3-0.1-0.3-0.1-0.1,0.1c1.3,1,1,1.6-0.9,1.6c-0.3,0-0.5,0.2-0.7,0.4c-0.2,0.3-0.5,0.4-0.8,0.2c-0.3-0.1-0.4-0.4-0.4-0.8
		c0-2.7-0.9-5.1-2.8-7c-0.4-0.4-0.4-1.1,0-1.6c1.9-2.1,4.2-3.6,7-4.6C64.9,117.6,67.9,124.3,68.5,129.6z M59.2,123.8
		c-0.8,0.7,0.2,1.4,3.1,1.9c1.2,0.3,3.7-1.2,1.4-2.1l-0.2-0.8C61.6,121.6,60.2,121.9,59.2,123.8z"/>
	<path class="st2" d="M64.9,119.1l4.7,1.3l0.1,0.2l-2.3,2l-2.8-3.3L64.9,119.1z"/>
	<path class="st14" d="M72.7,123.7c-0.7-0.5-1.1-1.1-1-2c0.5-0.1,0.8-0.3,1-0.7c0.2-0.3,0.3-0.5,0.5-0.5
		C74.5,120.3,73,123.3,72.7,123.7z"/>
	<path class="st16" d="M71.7,121.7c-0.1,0.9,0.3,1.5,1,2c-0.4,2.4-1.6,4.2-3.5,5.7c-0.2-0.4-0.1-0.8,0.1-1.1c0.2-0.2,0.2-0.5,0-0.7
		c-0.3-0.3-0.5-0.7-0.6-1.2l1.5,0.7c0.2,0.1,0.3,0,0.3-0.2c-0.1-0.6,0.2-1,0.8-1.3c0.2-0.1,0.3-0.3,0.2-0.5c0,0,0,0,0-0.1
		c-0.2-0.6-3.4-2.7-2.4-1c0.8,1.4,0.6,1.9-0.6,1.4l-0.8-2.2C68.9,122.3,70.2,121.8,71.7,121.7z"/>
	<path class="st13" d="M63.5,122.9c0,0.2,0,0.3-0.1,0.3c-0.1,0.1-0.3,0.1-0.5,0l0,0c-1.2-0.7-2.3-0.5-3.3,0.7h-0.5
		C60.2,121.9,61.6,121.6,63.5,122.9z"/>
	<path class="st27" d="M63.5,122.9l0.2,0.8c0,0.4-0.2,0.6-0.5,0.8c-0.3,0.1-1.1,0.2-2.3,0.1c-0.5,0-0.9-0.2-1.2-0.7
		c1-1.2,2.1-1.4,3.3-0.7c0.2,0.1,0.4,0.1,0.5,0C63.4,123.2,63.5,123,63.5,122.9z"/>
	<path class="st10" d="M40.4,122.8c0.9,0,11.5,18.2,12.8,20.4c0.2,0.3,0.1,0.6-0.1,0.8c-0.4,0.3-1,0.3-1.7,0.2L44,131.9l-4.2-6.5
		c-0.8-0.6-1-1.2-0.3-2L40.4,122.8z"/>
	<path class="st8" d="M48.1,123.9v0.5l-0.8,0.3l-1-0.8C46.8,123.3,47.4,123.3,48.1,123.9z"/>
	<path class="st15" d="M48.4,123.4l1.5,0.7l-1.3,0.3l-0.5-0.1v-0.5L48.4,123.4z"/>
	<path class="st13" d="M68.7,126.4l-0.2-1c1.2,0.5,1.4,0,0.6-1.4c-0.4-0.7-0.2-0.9,0.5-0.5c0.8,0.3,1.4,0.8,1.9,1.5
		c0.1,0.2,0.1,0.4-0.1,0.5c0,0,0,0-0.1,0c-0.6,0.3-0.9,0.7-0.8,1.3c0,0.2-0.1,0.3-0.3,0.2L68.7,126.4z"/>
	<path class="st4" d="M63.7,123.6c2.2,0.9-0.1,2.3-1.4,2.1c-2.9-0.5-3.9-1.2-3.1-1.9h0.5c0.3,0.4,0.7,0.6,1.2,0.7
		C62.5,124.4,63.6,124.9,63.7,123.6z"/>
	<path class="st6" d="M50,124.1h0.2v0.9l-0.5,0.3c-0.7,0.1-1.1-0.3-1-1L50,124.1z"/>
	<path class="st7" d="M45,141.4c0.5,0,0.8-0.3,0.8-1.1c0-0.3,0.2-0.4,0.4-0.4c0.4,0.2,0.7,0.5,0.9,1c0.1,0.2-0.1,0.5-0.4,0.6
		c-1.1,0.4-2,1.1-2.6,2.2c-0.2,0.3-0.4,0.5-0.7,0.5l-7.1,0.1c-0.2,0-0.4-0.3-0.4-0.5c0.9-6.3,0.2-12.4-2.1-18.3
		c-0.1-0.4-0.1-0.7,0-0.9c0.8-1.4,3.5,1.4,2.3,3.6c-0.2,0.3-0.3,0.7-0.2,0.9c0.2,1.2,1,1.6,2.2,1.2c0.3-0.1,0.5,0.1,0.6,0.3
		c0.4,1.1,1,2,1.7,2.8c0.2,0.2,0.5,0.2,0.7,0l0,0c1.1-1.3,1.6-1.2,1.5,0.2c0,0.3-0.2,0.6-0.5,0.8c-3.3,2.1-3,3.2,0.9,3.3
		c0.3,0,0.6-0.2,0.7-0.5c0.1-0.4,0-0.7-0.1-1.1c-0.1-0.3-0.1-0.4,0.2-0.2c1.8,0.9,1.8,1.8-0.1,2.6c-0.2,0.1-0.3,0.4-0.2,0.6l0,0
		l0.9,1.8C44.4,141.2,44.7,141.4,45,141.4z"/>
	<path class="st14" d="M48.2,124.3l0.5,0.1c-0.1,0.7,0.3,1.1,1,1l1.8,2.2c0,0.9-0.8,1.3-1.3,0.6c0,0-1.6-2.4-1.6-2.4
		c-0.3-0.5-0.7-0.5-0.9-0.1l-0.2-1L48.2,124.3z"/>
	<path class="st3" d="M109.5,133.2c1.3,0.4,1.7,1.3,1.1,2.8c-0.1,0.3-0.4,0.6-0.6,0.6l-0.5,0.1c-0.3,0-0.5,0.3-0.5,0.5
		c0,3.7,0.8,9.3-1.3,12.3c-2.6,3.6-8.8,3.5-11.2-0.5c-2.1-3.5-1-15.4-0.9-19.8c0-0.3-0.2-0.6-0.4-0.7l-1.3-0.2
		c-0.3-0.1-0.5-0.3-0.6-0.5c-0.3-3.1,0.9-3.7,3.8-1.8c0.2,0.2,0.6,0.2,0.8,0c5.2-3.5,11.6,0.4,11.1,6.6
		C109,132.8,109.2,133.1,109.5,133.2z M105.3,132.7c0.7-2.6-1.7-5.7-4.5-4.3c-0.2,0.1-0.3,0.4-0.2,0.6c0,0,0,0.1,0.1,0.1l4,3.8
		C104.9,133,105.3,133,105.3,132.7z M104.9,136.6c-2.4-1-4.1-2.4-5.1-4.3c-0.2-0.2-0.3-0.2-0.5-0.2c-0.2,0-0.3,0.2-0.3,0.4l0,0v13.1
		c0,0.3,0.1,0.7,0.3,0.9c1.9,2.9,3.9,2.9,6,0c0.2-0.3,0.3-0.6,0.3-0.9v-8.2C105.4,137.1,105.2,136.7,104.9,136.6z"/>
	<path class="st11" d="M37.1,124.9c0.8-0.5,2.1,1.7,1.4,2.2C37.7,127.6,36.3,125.4,37.1,124.9z"/>
	<path class="st8" d="M50.2,125.1l2.2,2.2l-0.8,0.3h-0.2l-1.8-2.2L50.2,125.1z"/>
	<path class="st7" d="M39.7,125.4l4.2,6.5l-0.1,0.8c-1.3-0.9-2.1-2.1-2.5-3.6c-0.1-0.3-0.3-0.6-0.5-0.8
		C40,127.6,39.6,126.6,39.7,125.4z"/>
	<path class="st19" d="M51.5,127.6h0.2l0.3,1l-1.8,1.5l-2.5-4.5c0.2-0.5,0.7-0.3,0.9,0.1l1.6,2.4c0.2,0.3,0.5,0.4,0.8,0.3
		C51.3,128.4,51.5,128.1,51.5,127.6z"/>
	<path class="st17" d="M60.6,127c-1.4,0.9-1.4,1.4,0,1.4C58.1,128.8,58.1,128.3,60.6,127z"/>
	<path class="st13" d="M64.6,131.9l-1.2-0.5c0.8-3-0.1-4-2.8-3c-1.5-0.1-1.5-0.5,0-1.4c3-0.6,4.2,0.6,3.5,3.6
		c-0.1,0.3,0,0.4,0.3,0.3C65.8,130.5,65.9,130.8,64.6,131.9z"/>
	<path class="st6" d="M52.4,127.3l0.2,1.2l-0.2,0.1h-0.5l-0.3-1L52.4,127.3z"/>
	<path class="st2" d="M100.8,128.5c2.7-1.4,5.1,1.7,4.5,4.3c0,0.3-0.4,0.4-0.6,0.2l-4-3.8C100.4,129,100.6,128.7,100.8,128.5z"/>
	<path class="st7" d="M39.8,128.9c0.7,0.2,0.9,0.6,0.8,1.4c0,0.3-0.3,0.4-0.5,0.4l0,0c-1-0.2-1.3-0.7-1-1.5
		C39.2,129,39.5,128.8,39.8,128.9z"/>
	<path class="st13" d="M52,128.6h0.5c0.4,1.8-0.2,2.7-1.8,2.7l-0.5-1.2L52,128.6z"/>
	<path class="st8" d="M52.4,128.7l0.2-0.1c0.9,0.3,1.2,0.9,1,1.8c-1,3.7-0.1,6.4,2.8,8.3c-0.9,0.5-1.1,1.1-0.5,1.7l-0.5,0.5
		l-4.8-9.5C52.2,131.4,52.8,130.5,52.4,128.7z"/>
	<path class="st4" d="M63.5,131.4l1.2,0.5l0.5,0.5c-0.7,0.6-0.8,1.1-0.4,1.5c0.2,0.1,0.4,0.1,0.5-0.1l0.1-0.1
		c0.1-0.4,0.1-0.8,0.1-1.3l2.5,0.5c-1.8,1.3-1.6,1.7,0.5,1c-0.1,1.1,0.4,1.7,1.5,1.8l-0.3,8.1c0,0.3,0.2,0.5,0.5,0.5l22.8,0.1
		c0.4,0,0.7,0.2,0.8,0.4c0,0.3-0.3,0.5-0.7,0.5c0,0-33.6-0.2-33.6-0.2c1,0.2,1.3,0,1-0.8l2-1.8l2.4-2.7c0.2-0.2,0.5-0.3,0.8-0.3
		c1.4,0,0.8-1.2-0.1-1.5C63,137.3,63.2,133.4,63.5,131.4z M67.4,140.3c-0.2,0.1-0.6,0.2-0.2,0.8c0.4,0.6,0.3,1.1-0.1,1.5
		c-0.2,0.2-0.3,0.5-0.1,0.8c0.3,0.4,0.7,0.6,1.2,0.6c0.3,0,0.4-0.1,0.1-0.4c-0.4-0.4-0.4-0.8-0.2-1.2c0.2-0.4,0.4-0.7,0.3-0.9
		c0-0.3-0.1-0.6-0.3-0.8l0.4-4.9c0-0.3-0.2-0.4-0.4-0.4c-0.7,0-1.1,1.1-1.8,0.7c-1.3-0.7-1.7-0.6-1.2,0.3c0.2,0.2,0.4,0.4,0.8,0.4
		C67.6,137.3,68.1,138.4,67.4,140.3z M65.7,142.4l-0.5,0.2c-0.4-0.1-0.7,0.1-0.8,0.5c-0.1,0.3-0.3,0.4-0.6,0.3
		c-0.8-0.2-1.1-0.1-1,0.5c0,0.2,0.3,0.4,0.6,0.3l0,0l1-0.3C66.8,144.6,67.3,144.1,65.7,142.4c0.7,0.1,1.4-0.7,0.5-1c0,0,0,0-0.1,0
		c-0.3-0.1-0.5-0.2-0.5-0.5c0-0.2-0.3-0.4-0.5-0.4C64.1,141,65.9,141.3,65.7,142.4z"/>
	<path class="st21" d="M44,131.9l7.4,12.3c-1.1-0.4-2-1.1-2.8-1.9c-0.2-0.2-0.3-0.5-0.3-0.9c0-1.1-0.4-2-1.4-2.6
		c-0.2-0.1-0.4-0.4-0.5-0.7l-0.6-2.1c-0.1-0.2-0.3-0.5-0.7-0.7c-0.9-0.6-1.3-1.4-1.2-2.7L44,131.9z"/>
	<path class="st2" d="M104.9,136.6c0.3,0.2,0.6,0.5,0.6,0.9v8.2c0,0.3-0.1,0.7-0.3,0.9c-2.1,2.8-4.1,2.8-6,0
		c-0.2-0.3-0.3-0.6-0.3-0.9v-13.1c0-0.2,0.1-0.4,0.3-0.4c0.2,0,0.3,0,0.5,0.2C100.8,134.2,102.5,135.6,104.9,136.6z"/>
	<path class="st16" d="M65.2,132.4h0.2c0.1,0.5,0.1,1.6-0.6,1.6c-0.1,0-0.1,0-0.1-0.1C64.3,133.5,64.5,133.1,65.2,132.4z"/>
	<path class="st6" d="M67.9,132.9h0.7l-0.2,1C66.3,134.6,66.2,134.3,67.9,132.9z"/>
	<path class="st9" d="M59.2,134.2l-0.1,0.2c-0.1,0.1-0.2,0.1-0.2,0l0,0c-0.7-0.9-0.6-1.1,0.2-0.8C59.3,133.7,59.3,133.9,59.2,134.2
		L59.2,134.2z"/>
	<path class="st6" d="M68.1,140.9l-0.7-0.5c0.7-2,0.2-3.1-1.6-3.3c-0.3,0-0.6-0.2-0.8-0.4c-0.6-0.9-0.2-1,1.2-0.3
		c0.7,0.3,1.2-0.6,1.8-0.7c0.2,0,0.4,0.1,0.5,0.3v0.1L68.1,140.9z"/>
	<path class="st14" d="M56.4,138.7l1.2,0.2c-0.4,0.8-1,1.2-1.8,1.4C55.4,139.7,55.5,139.2,56.4,138.7z"/>
	<path class="st15" d="M62,142.6c-0.5,0-1,0.2-1.4,0.4c-0.7,0.4-1-0.1-0.9-0.7c0.2,0,0.4-0.1,0.5-0.1c0.2-0.1,0.2-0.5,0-0.8
		c-1-1.9-3.9,0.8-1.5,0.9l0.8,1.4h-0.7c-0.5-0.9-1.3-1.4-2.2-1.2l-0.3-1l0.9-0.2c0.2-0.1,0.4-0.3,0.6-0.7c0.2-0.6,0.6-1,1.3-1.1
		c0.3-0.1,0.6,0,0.9,0.3C60.7,140.7,61.4,141.6,62,142.6z"/>
	<path class="st9" d="M65.7,142.4c0.2-1.1-1.6-1.3-0.6-1.8c0.2-0.1,0.3,0,0.4,0.2c0,0.3,0.2,0.5,0.5,0.6c0.3,0,0.5,0.2,0.5,0.4l0,0
		C66.4,142.3,66.1,142.4,65.7,142.4z"/>
	<path class="st8" d="M67.4,140.3l0.7,0.5c0.4,0.5,0.4,1,0,1.7c-0.2,0.4-0.2,0.8,0.2,1.2c0.2,0.3,0.2,0.4-0.1,0.4
		c-0.5,0-0.9-0.2-1.2-0.6c-0.2-0.2-0.1-0.5,0.1-0.8c0.4-0.4,0.4-0.9,0.1-1.5C66.8,140.8,67.1,140.5,67.4,140.3z"/>
	<path class="st8" d="M59.7,142.4h-1c-2.4-0.1,0.5-2.9,1.5-0.9c0.2,0.3,0.2,0.6,0,0.8C60,142.4,59.9,142.4,59.7,142.4z"/>
	<path class="st6" d="M58.7,143.9c-1.2,0.3-1.9-0.1-2.2-1.2C57.4,142.5,58.2,142.9,58.7,143.9z"/>
	<path class="st6" d="M58.7,142.4h1c-0.2,0.6,0.3,1.1,0.9,0.7c0.5-0.4,1.3-0.4,1.9-0.4l-2,1.8l-1-0.6L58.7,142.4z"/>
	<path class="st6" d="M65.2,142.6c0.3,0.6,0,1-0.8,1.2l-1,0.3c-0.3,0.1-0.5,0-0.6-0.2l0,0c-0.1-0.6,0.2-0.7,1-0.5
		c0.2,0.1,0.5-0.1,0.6-0.3C64.5,142.7,64.8,142.5,65.2,142.6z"/>
	<path class="st8" d="M65.7,142.4c1.6,1.7,1.2,2.2-1.2,1.5c0.8-0.2,1-0.6,0.8-1.2L65.7,142.4z"/>
</g>
</svg>
