<?xml version="1.0" encoding="UTF-8" standalone="no"?>
<svg xmlns="http://www.w3.org/2000/svg" version="1.2" baseProfile="tiny" viewBox="0 0 128 168">
<g stroke-width="0.00" fill="none" stroke-linecap="butt">
<path stroke="#d9d9d9" stroke-opacity="0.588" vector-effect="non-scaling-stroke" d="
  M 17.00 152.96
  Q 19.67 155.18 22.06 155.19
  Q 56.66 155.26 91.25 155.29"
/>
<path stroke="#d9d9d9" stroke-opacity="0.588" vector-effect="non-scaling-stroke" d="
  M 100.00 155.29
  C 110.37 155.09 114.50 153.84 114.50 142.43
  Q 114.50 83.19 114.49 23.95
  C 114.49 15.20 110.19 12.76 101.73 12.75
  Q 61.78 12.74 21.81 12.76
  Q 19.42 12.77 16.46 15.50"
/>
<path stroke="#8e9090" stroke-opacity="0.953" vector-effect="non-scaling-stroke" d="
  M 100.00 155.29
  L 91.25 155.29"
/>
<path stroke="#f9fafa" stroke-opacity="0.988" vector-effect="non-scaling-stroke" d="
  M 17.00 152.96
  Q 14.00 148.79 14.00 147.25
  Q 13.99 84.84 14.01 22.43
  C 14.01 19.67 15.12 17.74 16.46 15.50"
/>
<path stroke="#e29996" vector-effect="non-scaling-stroke" d="
  M 21.32 21.29
  L 29.13 21.39
  A 0.33 0.31 -74.5 0 1 29.38 21.87
  Q 23.93 32.19 21.91 43.71
  A 0.45 0.42 -85.5 0 0 22.33 44.24
  L 25.14 44.16
  A 0.67 0.59 -85.3 0 0 25.72 43.60
  Q 27.73 31.52 34.21 21.16
  A 1.02 0.68 -48.5 0 0 34.33 20.26
  L 33.01 17.92
  A 1.04 0.72 -9.7 0 0 32.17 17.53
  L 17.89 17.57
  A 0.54 0.51 -0.6 0 0 17.36 18.08
  L 17.28 24.00
  A 0.71 0.67 8.7 0 0 17.79 24.65
  Q 21.50 25.78 20.90 21.80
  A 0.44 0.42 85.9 0 1 21.32 21.29"
/>
<path stroke="#e29996" vector-effect="non-scaling-stroke" d="
  M 53.46 50.29
  C 55.43 46.19 51.05 42.88 48.47 46.36
  A 0.76 0.60 -59.8 0 1 47.70 46.66
  Q 47.01 46.41 46.61 45.56
  A 0.80 0.70 75.3 0 0 45.93 45.10
  C 37.42 45.35 44.98 55.43 47.64 58.66
  A 0.41 0.40 44.6 0 0 48.27 58.66
  Q 51.36 54.67 53.46 50.29"
/>
<path stroke="#e29996" vector-effect="non-scaling-stroke" d="
  M 84.83 45.56
  C 81.91 43.36 79.96 48.42 78.86 45.88
  A 0.99 0.82 79.3 0 0 78.19 45.32
  C 68.65 43.93 78.03 56.72 79.63 58.67
  A 0.42 0.41 -45.9 0 0 80.27 58.65
  Q 83.47 54.59 85.84 49.70
  Q 87.04 47.21 84.83 45.56"
/>
<path stroke="#e29996" vector-effect="non-scaling-stroke" d="
  M 25.49 52.05
  Q 21.40 47.33 19.06 53.31
  A 1.42 1.40 46.4 0 0 19.04 54.26
  Q 21.10 60.45 25.69 65.71
  A 0.34 0.34 -46.0 0 0 26.22 65.70
  Q 29.74 61.20 32.56 55.66
  Q 33.98 52.86 31.65 50.77
  Q 28.77 48.19 26.09 52.03
  A 0.39 0.38 42.5 0 1 25.49 52.05"
/>
<path stroke="#e29996" vector-effect="non-scaling-stroke" d="
  M 64.68 62.45
  Q 64.03 63.70 63.33 62.47
  Q 62.21 60.47 59.78 61.33
  Q 56.95 62.32 57.96 65.04
  Q 59.92 70.35 63.65 74.67
  A 0.41 0.40 -46.3 0 0 64.28 74.65
  C 66.53 71.76 72.15 64.66 68.94 61.75
  C 67.54 60.49 65.57 60.75 64.68 62.45"
/>
<path stroke="#e29996" vector-effect="non-scaling-stroke" d="
  M 52.06 77.19
  Q 49.88 76.23 48.68 78.30
  A 0.79 0.62 -67.7 0 1 47.96 78.71
  Q 47.09 78.56 46.62 77.64
  A 0.85 0.72 75.2 0 0 45.93 77.16
  C 37.43 77.00 45.01 87.52 47.62 90.66
  A 0.42 0.40 44.3 0 0 48.25 90.67
  C 50.88 87.38 57.00 79.36 52.06 77.19"
/>
<path stroke="#e29996" vector-effect="non-scaling-stroke" d="
  M 80.21 78.59
  Q 79.16 78.79 78.64 77.71
  A 1.02 0.80 77.0 0 0 77.96 77.16
  C 68.82 75.99 78.00 88.76 79.66 90.68
  A 0.40 0.40 -46.7 0 0 80.28 90.66
  C 82.03 88.34 88.89 80.10 84.42 77.33
  Q 82.62 76.21 81.00 78.05
  A 1.63 0.83 -61.4 0 1 80.21 78.59"
/>
<path stroke="#e29996" vector-effect="non-scaling-stroke" d="
  M 96.01 116.80
  C 98.03 119.12 99.81 118.16 101.61 116.23
  A 0.71 0.71 -36.5 0 1 102.77 116.40
  C 104.78 120.52 110.60 116.43 108.28 111.47
  Q 106.31 107.25 102.50 102.34
  A 0.41 0.41 -43.8 0 0 101.86 102.33
  C 99.45 105.23 92.99 113.33 96.01 116.80"
/>
<path stroke="#e29996" vector-effect="non-scaling-stroke" d="
  M 48.75 121.70
  Q 51.05 124.36 53.10 122.03
  Q 55.05 119.81 53.67 117.62
  L 48.44 109.29
  A 0.45 0.41 -43.5 0 0 47.73 109.30
  C 45.86 111.84 41.72 116.90 42.20 120.18
  Q 42.93 125.06 48.03 121.60
  A 0.55 0.54 52.5 0 1 48.75 121.70"
/>
<path stroke="#e29996" vector-effect="non-scaling-stroke" d="
  M 74.54 117.45
  C 72.43 121.67 76.98 125.31 79.69 121.54
  A 0.45 0.44 -51.4 0 1 80.34 121.46
  Q 84.15 124.66 85.59 121.01
  C 86.95 117.56 82.58 111.92 80.38 109.49
  A 0.43 0.43 -46.6 0 0 79.72 109.51
  Q 76.60 113.35 74.54 117.45"
/>
<path stroke="#e29996" vector-effect="non-scaling-stroke" d="
  M 98.78 146.25
  Q 103.81 135.88 106.09 124.55
  A 0.56 0.53 -76.6 0 0 105.72 123.90
  Q 104.34 123.53 102.86 123.81
  A 0.73 0.69 89.7 0 0 102.30 124.41
  Q 100.29 136.49 93.78 146.84
  A 1.11 1.01 -39.6 0 0 93.65 147.74
  Q 94.09 149.14 95.13 150.17
  A 1.27 1.14 -20.3 0 0 95.99 150.51
  L 109.98 150.48
  A 0.58 0.50 0.5 0 0 110.56 149.99
  L 110.64 143.95
  A 0.76 0.63 9.6 0 0 110.09 143.31
  Q 106.41 142.27 107.22 146.08
  A 0.44 0.40 82.9 0 1 106.85 146.61
  L 99.07 146.71
  A 0.32 0.32 -77.4 0 1 98.78 146.25"
/>
</g>
<path fill="#010001" fill-opacity="0.094" d="
  M 105.91 7.21
  L 109.33 7.38
  A 0.70 0.51 81.5 0 1 109.84 7.90
  Q 109.98 8.41 110.79 8.26
  A 1.31 0.84 48.1 0 1 111.63 8.49
  L 114.02 10.09
  Q 114.70 10.55 114.80 10.67
  L 117.39 14.15
  Q 119.07 16.39 119.57 21.68
  C 120.08 27.02 119.55 33.91 119.55 37.51
  Q 119.48 78.13 119.52 118.75
  Q 119.30 118.98 119.31 119.50
  Q 119.66 129.52 119.60 145.43
  Q 119.60 147.87 118.81 149.11
  Q 118.60 149.45 118.54 150.02
  L 118.33 151.95
  A 1.21 0.69 -21.4 0 1 117.76 152.66
  Q 116.65 153.34 116.43 154.62
  A 1.51 1.07 82.8 0 1 115.99 155.44
  Q 113.73 157.31 111.17 158.70
  C 108.80 160.01 106.45 159.35 103.88 160.78
  Q 103.42 161.03 102.96 161.03
  L 67.57 160.80
  Q 67.16 160.80 66.63 161.06
  Q 65.51 161.61 64.42 161.00
  Q 63.93 160.72 63.49 160.72
  L 20.56 160.67
  A 0.84 0.61 73.4 0 1 19.93 160.19
  Q 19.62 159.57 18.72 159.66
  A 0.81 0.81 69.7 0 1 17.99 159.32
  Q 17.33 158.38 15.93 158.69
  A 1.08 0.94 -28.8 0 1 15.06 158.50
  C 8.50 152.95 7.02 147.18 7.02 138.15
  Q 6.98 88.42 7.01 38.67
  Q 7.01 38.60 7.24 32.84
  C 7.33 30.51 6.19 25.11 7.91 23.57
  A 1.03 0.93 -25.0 0 0 8.25 22.76
  Q 8.01 19.53 9.09 16.49
  A 1.93 1.26 -19.1 0 1 9.67 15.74
  Q 10.81 14.85 11.11 13.44
  A 1.58 1.40 77.3 0 1 11.56 12.62
  L 15.21 9.18
  Q 15.37 9.02 16.04 8.74
  L 19.35 7.34
  Q 20.03 7.05 20.25 7.05
  C 22.69 7.03 24.73 6.03 27.03 6.03
  Q 66.11 6.00 105.20 6.02
  A 0.55 0.44 3.1 0 1 105.76 6.52
  L 105.71 6.87
  A 0.30 0.22 -83.7 0 0 105.91 7.21
  Z
  M 26.62 159.30
  Q 27.55 159.70 29.31 159.70
  Q 65.21 159.80 101.11 159.72
  C 103.13 159.71 105.25 158.96 107.31 158.62
  A 1.04 0.87 -77.9 0 0 108.00 158.08
  Q 108.61 156.90 109.92 156.70
  A 0.63 0.59 89.0 0 0 110.42 156.15
  Q 110.55 155.04 111.96 155.57
  A 0.82 0.77 32.7 0 0 112.79 155.42
  C 116.93 151.50 118.00 147.78 118.01 141.76
  Q 118.04 83.75 117.97 25.75
  Q 117.96 20.17 115.25 15.47
  C 114.11 13.50 111.73 12.31 109.96 10.77
  Q 108.34 9.36 106.25 10.00
  Q 105.78 10.14 105.57 9.73
  A 0.86 0.62 72.7 0 0 104.93 9.25
  Q 65.47 9.24 26.00 9.25
  C 23.24 9.25 14.28 11.36 13.52 14.77
  A 1.14 1.05 -10.7 0 1 13.00 15.47
  Q 12.07 16.01 12.49 17.01
  A 0.40 0.39 -19.0 0 1 12.23 17.54
  C 10.46 18.05 11.43 19.57 10.39 20.26
  A 1.04 0.77 -19.8 0 0 9.92 20.97
  C 9.75 23.60 9.41 26.19 9.43 28.77
  Q 9.68 85.76 9.05 142.75
  Q 8.99 148.04 12.92 153.60
  Q 13.15 153.93 13.23 154.50
  Q 13.39 155.58 14.52 155.72
  A 1.06 0.96 -9.7 0 1 15.26 156.19
  C 16.34 157.98 17.93 157.32 19.15 158.39
  A 1.46 0.87 54.7 0 0 19.98 158.76
  C 20.38 158.77 25.82 159.50 25.88 159.45
  A 0.88 0.60 -45.5 0 1 26.62 159.30
  Z"
/>
<path fill="#010202" fill-opacity="0.176" d="
  M 25.88 159.45
  C 25.82 159.50 20.38 158.77 19.98 158.76
  A 1.46 0.87 54.7 0 1 19.15 158.39
  C 17.93 157.32 16.34 157.98 15.26 156.19
  A 1.06 0.96 -9.7 0 0 14.52 155.72
  Q 13.39 155.58 13.23 154.50
  Q 13.15 153.93 12.92 153.60
  Q 8.99 148.04 9.05 142.75
  Q 9.68 85.76 9.43 28.77
  C 9.41 26.19 9.75 23.60 9.92 20.97
  A 1.04 0.77 -19.8 0 1 10.39 20.26
  C 11.43 19.57 10.46 18.05 12.23 17.54
  A 0.40 0.39 -19.0 0 0 12.49 17.01
  Q 12.07 16.01 13.00 15.47
  A 1.14 1.05 -10.7 0 0 13.52 14.77
  C 14.28 11.36 23.24 9.25 26.00 9.25
  Q 65.47 9.24 104.93 9.25
  A 0.86 0.62 72.7 0 1 105.57 9.73
  Q 105.78 10.14 106.25 10.00
  Q 108.34 9.36 109.96 10.77
  C 111.73 12.31 114.11 13.50 115.25 15.47
  Q 117.96 20.17 117.97 25.75
  Q 118.04 83.75 118.01 141.76
  C 118.00 147.78 116.93 151.50 112.79 155.42
  A 0.82 0.77 32.7 0 1 111.96 155.57
  Q 110.55 155.04 110.42 156.15
  A 0.63 0.59 89.0 0 1 109.92 156.70
  Q 108.61 156.90 108.00 158.08
  A 1.04 0.87 -77.9 0 1 107.31 158.62
  C 105.25 158.96 103.13 159.71 101.11 159.72
  Q 65.21 159.80 29.31 159.70
  Q 27.55 159.70 26.62 159.30
  A 0.88 0.60 -45.5 0 0 25.88 159.45
  Z
  M 16.46 15.50
  Q 13.52 18.47 13.52 21.31
  Q 13.47 84.00 13.52 146.69
  Q 13.52 149.98 17.00 152.96
  Q 19.67 155.18 22.06 155.19
  Q 56.66 155.26 91.25 155.29
  Q 95.62 156.40 100.00 155.29
  C 110.37 155.09 114.50 153.84 114.50 142.43
  Q 114.50 83.19 114.49 23.95
  C 114.49 15.20 110.19 12.76 101.73 12.75
  Q 61.78 12.74 21.81 12.76
  Q 19.42 12.77 16.46 15.50
  Z
  M 115.01 69.42
  A 0.12 0.12 0.0 0 0 114.89 69.30
  L 114.87 69.30
  A 0.12 0.12 0.0 0 0 114.75 69.42
  L 114.75 91.08
  A 0.12 0.12 0.0 0 0 114.87 91.20
  L 114.89 91.20
  A 0.12 0.12 0.0 0 0 115.01 91.08
  L 115.01 69.42
  Z"
/>
<path fill="#ffffff" d="
  M 100.00 155.29
  L 91.25 155.29
  Q 56.66 155.26 22.06 155.19
  Q 19.67 155.18 17.00 152.96
  Q 14.00 148.79 14.00 147.25
  Q 13.99 84.84 14.01 22.43
  C 14.01 19.67 15.12 17.74 16.46 15.50
  Q 19.42 12.77 21.81 12.76
  Q 61.78 12.74 101.73 12.75
  C 110.19 12.76 114.49 15.20 114.49 23.95
  Q 114.50 83.19 114.50 142.43
  C 114.50 153.84 110.37 155.09 100.00 155.29
  Z
  M 21.32 21.29
  L 29.13 21.39
  A 0.33 0.31 -74.5 0 1 29.38 21.87
  Q 23.93 32.19 21.91 43.71
  A 0.45 0.42 -85.5 0 0 22.33 44.24
  L 25.14 44.16
  A 0.67 0.59 -85.3 0 0 25.72 43.60
  Q 27.73 31.52 34.21 21.16
  A 1.02 0.68 -48.5 0 0 34.33 20.26
  L 33.01 17.92
  A 1.04 0.72 -9.7 0 0 32.17 17.53
  L 17.89 17.57
  A 0.54 0.51 -0.6 0 0 17.36 18.08
  L 17.28 24.00
  A 0.71 0.67 8.7 0 0 17.79 24.65
  Q 21.50 25.78 20.90 21.80
  A 0.44 0.42 85.9 0 1 21.32 21.29
  Z
  M 53.46 50.29
  C 55.43 46.19 51.05 42.88 48.47 46.36
  A 0.76 0.60 -59.8 0 1 47.70 46.66
  Q 47.01 46.41 46.61 45.56
  A 0.80 0.70 75.3 0 0 45.93 45.10
  C 37.42 45.35 44.98 55.43 47.64 58.66
  A 0.41 0.40 44.6 0 0 48.27 58.66
  Q 51.36 54.67 53.46 50.29
  Z
  M 84.83 45.56
  C 81.91 43.36 79.96 48.42 78.86 45.88
  A 0.99 0.82 79.3 0 0 78.19 45.32
  C 68.65 43.93 78.03 56.72 79.63 58.67
  A 0.42 0.41 -45.9 0 0 80.27 58.65
  Q 83.47 54.59 85.84 49.70
  Q 87.04 47.21 84.83 45.56
  Z
  M 25.49 52.05
  Q 21.40 47.33 19.06 53.31
  A 1.42 1.40 46.4 0 0 19.04 54.26
  Q 21.10 60.45 25.69 65.71
  A 0.34 0.34 -46.0 0 0 26.22 65.70
  Q 29.74 61.20 32.56 55.66
  Q 33.98 52.86 31.65 50.77
  Q 28.77 48.19 26.09 52.03
  A 0.39 0.38 42.5 0 1 25.49 52.05
  Z
  M 64.68 62.45
  Q 64.03 63.70 63.33 62.47
  Q 62.21 60.47 59.78 61.33
  Q 56.95 62.32 57.96 65.04
  Q 59.92 70.35 63.65 74.67
  A 0.41 0.40 -46.3 0 0 64.28 74.65
  C 66.53 71.76 72.15 64.66 68.94 61.75
  C 67.54 60.49 65.57 60.75 64.68 62.45
  Z
  M 52.06 77.19
  Q 49.88 76.23 48.68 78.30
  A 0.79 0.62 -67.7 0 1 47.96 78.71
  Q 47.09 78.56 46.62 77.64
  A 0.85 0.72 75.2 0 0 45.93 77.16
  C 37.43 77.00 45.01 87.52 47.62 90.66
  A 0.42 0.40 44.3 0 0 48.25 90.67
  C 50.88 87.38 57.00 79.36 52.06 77.19
  Z
  M 80.21 78.59
  Q 79.16 78.79 78.64 77.71
  A 1.02 0.80 77.0 0 0 77.96 77.16
  C 68.82 75.99 78.00 88.76 79.66 90.68
  A 0.40 0.40 -46.7 0 0 80.28 90.66
  C 82.03 88.34 88.89 80.10 84.42 77.33
  Q 82.62 76.21 81.00 78.05
  A 1.63 0.83 -61.4 0 1 80.21 78.59
  Z
  M 96.01 116.80
  C 98.03 119.12 99.81 118.16 101.61 116.23
  A 0.71 0.71 -36.5 0 1 102.77 116.40
  C 104.78 120.52 110.60 116.43 108.28 111.47
  Q 106.31 107.25 102.50 102.34
  A 0.41 0.41 -43.8 0 0 101.86 102.33
  C 99.45 105.23 92.99 113.33 96.01 116.80
  Z
  M 48.75 121.70
  Q 51.05 124.36 53.10 122.03
  Q 55.05 119.81 53.67 117.62
  L 48.44 109.29
  A 0.45 0.41 -43.5 0 0 47.73 109.30
  C 45.86 111.84 41.72 116.90 42.20 120.18
  Q 42.93 125.06 48.03 121.60
  A 0.55 0.54 52.5 0 1 48.75 121.70
  Z
  M 74.54 117.45
  C 72.43 121.67 76.98 125.31 79.69 121.54
  A 0.45 0.44 -51.4 0 1 80.34 121.46
  Q 84.15 124.66 85.59 121.01
  C 86.95 117.56 82.58 111.92 80.38 109.49
  A 0.43 0.43 -46.6 0 0 79.72 109.51
  Q 76.60 113.35 74.54 117.45
  Z
  M 98.78 146.25
  Q 103.81 135.88 106.09 124.55
  A 0.56 0.53 -76.6 0 0 105.72 123.90
  Q 104.34 123.53 102.86 123.81
  A 0.73 0.69 89.7 0 0 102.30 124.41
  Q 100.29 136.49 93.78 146.84
  A 1.11 1.01 -39.6 0 0 93.65 147.74
  Q 94.09 149.14 95.13 150.17
  A 1.27 1.14 -20.3 0 0 95.99 150.51
  L 109.98 150.48
  A 0.58 0.50 0.5 0 0 110.56 149.99
  L 110.64 143.95
  A 0.76 0.63 9.6 0 0 110.09 143.31
  Q 106.41 142.27 107.22 146.08
  A 0.44 0.40 82.9 0 1 106.85 146.61
  L 99.07 146.71
  A 0.32 0.32 -77.4 0 1 98.78 146.25
  Z"
/>
<path fill="#f2f4f5" fill-opacity="0.973" d="
  M 16.46 15.50
  C 15.12 17.74 14.01 19.67 14.01 22.43
  Q 13.99 84.84 14.00 147.25
  Q 14.00 148.79 17.00 152.96
  Q 13.52 149.98 13.52 146.69
  Q 13.47 84.00 13.52 21.31
  Q 13.52 18.47 16.46 15.50
  Z"
/>
<path fill="#c4332c" d="
  M 20.90 21.80
  Q 21.50 25.78 17.79 24.65
  A 0.71 0.67 8.7 0 1 17.28 24.00
  L 17.36 18.08
  A 0.54 0.51 -0.6 0 1 17.89 17.57
  L 32.17 17.53
  A 1.04 0.72 -9.7 0 1 33.01 17.92
  L 34.33 20.26
  A 1.02 0.68 -48.5 0 1 34.21 21.16
  Q 27.73 31.52 25.72 43.60
  A 0.67 0.59 -85.3 0 1 25.14 44.16
  L 22.33 44.24
  A 0.45 0.42 -85.5 0 1 21.91 43.71
  Q 23.93 32.19 29.38 21.87
  A 0.33 0.31 -74.5 0 0 29.13 21.39
  L 21.32 21.29
  A 0.44 0.42 85.9 0 0 20.90 21.80
  Z"
/>
<path fill="#c4332c" d="
  M 48.47 46.36
  C 51.05 42.88 55.43 46.19 53.46 50.29
  Q 51.36 54.67 48.27 58.66
  A 0.41 0.40 44.6 0 1 47.64 58.66
  C 44.98 55.43 37.42 45.35 45.93 45.10
  A 0.80 0.70 75.3 0 1 46.61 45.56
  Q 47.01 46.41 47.70 46.66
  A 0.76 0.60 -59.8 0 0 48.47 46.36
  Z"
/>
<path fill="#c4332c" d="
  M 78.86 45.88
  C 79.96 48.42 81.91 43.36 84.83 45.56
  Q 87.04 47.21 85.84 49.70
  Q 83.47 54.59 80.27 58.65
  A 0.42 0.41 -45.9 0 1 79.63 58.67
  C 78.03 56.72 68.65 43.93 78.19 45.32
  A 0.99 0.82 79.3 0 1 78.86 45.88
  Z"
/>
<path fill="#c4332c" d="
  M 26.09 52.03
  Q 28.77 48.19 31.65 50.77
  Q 33.98 52.86 32.56 55.66
  Q 29.74 61.20 26.22 65.70
  A 0.34 0.34 -46.0 0 1 25.69 65.71
  Q 21.10 60.45 19.04 54.26
  A 1.42 1.40 46.4 0 1 19.06 53.31
  Q 21.40 47.33 25.49 52.05
  A 0.39 0.38 42.5 0 0 26.09 52.03
  Z"
/>
<path fill="#c4332c" d="
  M 64.68 62.45
  C 65.57 60.75 67.54 60.49 68.94 61.75
  C 72.15 64.66 66.53 71.76 64.28 74.65
  A 0.41 0.40 -46.3 0 1 63.65 74.67
  Q 59.92 70.35 57.96 65.04
  Q 56.95 62.32 59.78 61.33
  Q 62.21 60.47 63.33 62.47
  Q 64.03 63.70 64.68 62.45
  Z"
/>
<rect fill="#010001" fill-opacity="0.094" x="114.75" y="69.30" width="0.26" height="21.90" rx="0.12"/>
<path fill="#c4332c" d="
  M 52.06 77.19
  C 57.00 79.36 50.88 87.38 48.25 90.67
  A 0.42 0.40 44.3 0 1 47.62 90.66
  C 45.01 87.52 37.43 77.00 45.93 77.16
  A 0.85 0.72 75.2 0 1 46.62 77.64
  Q 47.09 78.56 47.96 78.71
  A 0.79 0.62 -67.7 0 0 48.68 78.30
  Q 49.88 76.23 52.06 77.19
  Z"
/>
<path fill="#c4332c" d="
  M 81.00 78.05
  Q 82.62 76.21 84.42 77.33
  C 88.89 80.10 82.03 88.34 80.28 90.66
  A 0.40 0.40 -46.7 0 1 79.66 90.68
  C 78.00 88.76 68.82 75.99 77.96 77.16
  A 1.02 0.80 77.0 0 1 78.64 77.71
  Q 79.16 78.79 80.21 78.59
  A 1.63 0.83 -61.4 0 0 81.00 78.05
  Z"
/>
<path fill="#c4332c" d="
  M 96.01 116.80
  C 92.99 113.33 99.45 105.23 101.86 102.33
  A 0.41 0.41 -43.8 0 1 102.50 102.34
  Q 106.31 107.25 108.28 111.47
  C 110.60 116.43 104.78 120.52 102.77 116.40
  A 0.71 0.71 -36.5 0 0 101.61 116.23
  C 99.81 118.16 98.03 119.12 96.01 116.80
  Z"
/>
<path fill="#c4332c" d="
  M 48.03 121.60
  Q 42.93 125.06 42.20 120.18
  C 41.72 116.90 45.86 111.84 47.73 109.30
  A 0.45 0.41 -43.5 0 1 48.44 109.29
  L 53.67 117.62
  Q 55.05 119.81 53.10 122.03
  Q 51.05 124.36 48.75 121.70
  A 0.55 0.54 52.5 0 0 48.03 121.60
  Z"
/>
<path fill="#c4332c" d="
  M 79.69 121.54
  C 76.98 125.31 72.43 121.67 74.54 117.45
  Q 76.60 113.35 79.72 109.51
  A 0.43 0.43 -46.6 0 1 80.38 109.49
  C 82.58 111.92 86.95 117.56 85.59 121.01
  Q 84.15 124.66 80.34 121.46
  A 0.45 0.44 -51.4 0 0 79.69 121.54
  Z"
/>
<path fill="#c4332c" d="
  M 99.07 146.71
  L 106.85 146.61
  A 0.44 0.40 82.9 0 0 107.22 146.08
  Q 106.41 142.27 110.09 143.31
  A 0.76 0.63 9.6 0 1 110.64 143.95
  L 110.56 149.99
  A 0.58 0.50 0.5 0 1 109.98 150.48
  L 95.99 150.51
  A 1.27 1.14 -20.3 0 1 95.13 150.17
  Q 94.09 149.14 93.65 147.74
  A 1.11 1.01 -39.6 0 1 93.78 146.84
  Q 100.29 136.49 102.30 124.41
  A 0.73 0.69 89.7 0 1 102.86 123.81
  Q 104.34 123.53 105.72 123.90
  A 0.56 0.53 -76.6 0 1 106.09 124.55
  Q 103.81 135.88 98.78 146.25
  A 0.32 0.32 -77.4 0 0 99.07 146.71
  Z"
/>
<path fill="#121516" fill-opacity="0.906" d="
  M 91.25 155.29
  L 100.00 155.29
  Q 95.62 156.40 91.25 155.29
  Z"
/>
</svg>
