<?xml version="1.0" encoding="UTF-8" standalone="no"?>
<svg xmlns="http://www.w3.org/2000/svg" version="1.2" baseProfile="tiny" viewBox="0 0 128 168">
<g stroke-width="0.00" fill="none" stroke-linecap="butt">
<path stroke="#e6e6e6" stroke-opacity="0.557" vector-effect="non-scaling-stroke" d="
  M 109.75 154.04
  Q 114.51 150.92 114.50 145.75
  Q 114.41 87.00 114.62 28.25"
/>
<path stroke="#e6e6e6" stroke-opacity="0.557" vector-effect="non-scaling-stroke" d="
  M 114.90 20.96
  Q 112.35 12.75 104.50 12.75
  Q 64.55 12.74 24.60 12.77
  C 19.66 12.77 16.36 14.02 14.46 18.50"
/>
<path stroke="#d6d7d7" stroke-opacity="0.596" vector-effect="non-scaling-stroke" d="
  M 114.90 20.96
  Q 114.11 24.71 114.62 28.25"
/>
<path stroke="#d6d7d7" stroke-opacity="0.596" vector-effect="non-scaling-stroke" d="
  M 109.75 154.04
  Q 106.90 155.24 106.25 155.24
  Q 64.16 155.27 22.06 155.24
  Q 19.78 155.23 17.00 152.96"
/>
<path stroke="#f9fafa" stroke-opacity="0.988" vector-effect="non-scaling-stroke" d="
  M 17.00 152.96
  Q 14.00 148.78 14.00 147.25
  Q 14.00 84.71 14.00 22.17
  C 14.00 21.01 14.45 19.76 14.46 18.50"
/>
<path stroke="#e29996" vector-effect="non-scaling-stroke" d="
  M 31.66 29.20
  C 37.53 22.78 29.81 14.96 22.79 17.88
  C 17.84 19.93 16.44 25.07 20.01 29.39
  A 0.53 0.51 -41.7 0 1 19.96 30.10
  C 11.04 38.32 23.87 49.74 32.26 41.78
  Q 37.63 36.69 31.64 29.93
  A 0.56 0.53 -44.6 0 1 31.66 29.20"
/>
<path stroke="#e29996" vector-effect="non-scaling-stroke" d="
  M 52.56 45.44
  Q 50.30 43.83 48.47 46.37
  A 0.71 0.60 -60.6 0 1 47.71 46.65
  Q 47.04 46.38 46.66 45.71
  A 1.11 0.82 74.3 0 0 45.96 45.17
  C 36.83 43.96 46.00 56.75 47.64 58.66
  A 0.41 0.41 43.8 0 0 48.28 58.65
  C 50.52 55.74 56.56 48.28 52.56 45.44"
/>
<path stroke="#e29996" vector-effect="non-scaling-stroke" d="
  M 84.83 45.56
  C 81.91 43.36 79.96 48.42 78.86 45.88
  A 0.99 0.82 79.3 0 0 78.19 45.32
  C 68.65 43.93 78.03 56.72 79.63 58.67
  A 0.42 0.41 -45.9 0 0 80.27 58.65
  Q 83.47 54.59 85.84 49.70
  Q 87.04 47.21 84.83 45.56"
/>
<path stroke="#e29996" vector-effect="non-scaling-stroke" d="
  M 25.54 52.03
  C 23.16 48.69 19.38 49.94 19.17 53.62
  C 18.97 57.15 23.37 62.93 25.58 65.61
  A 0.41 0.41 0.0 0 0 26.22 65.61
  C 28.62 62.69 37.36 51.84 29.74 49.82
  A 1.16 0.81 27.5 0 0 28.81 49.94
  L 26.14 52.06
  A 0.45 0.38 -37.1 0 1 25.54 52.03"
/>
<path stroke="#e29996" vector-effect="non-scaling-stroke" d="
  M 64.68 62.45
  A 0.87 0.87 49.2 0 1 63.22 62.34
  C 61.87 59.85 58.46 61.31 58.02 63.74
  C 57.49 66.61 61.81 72.53 63.65 74.67
  A 0.41 0.40 43.5 0 0 64.28 74.66
  C 66.04 72.33 72.88 64.15 68.41 61.34
  Q 66.44 60.10 64.68 62.45"
/>
<path stroke="#e29996" vector-effect="non-scaling-stroke" d="
  M 52.06 77.19
  Q 49.98 76.13 48.70 78.30
  A 0.82 0.65 -68.4 0 1 47.97 78.72
  Q 47.09 78.58 46.61 77.59
  A 0.80 0.70 75.3 0 0 45.93 77.13
  C 37.42 77.34 45.04 87.49 47.63 90.67
  A 0.40 0.40 44.6 0 0 48.26 90.67
  C 50.51 87.76 57.06 79.73 52.06 77.19"
/>
<path stroke="#e29996" vector-effect="non-scaling-stroke" d="
  M 83.31 77.01
  Q 81.71 76.77 80.68 78.32
  A 0.81 0.64 -64.6 0 1 79.93 78.69
  Q 79.09 78.52 78.65 77.70
  A 1.07 0.82 75.0 0 0 77.96 77.17
  C 68.83 75.97 78.00 88.75 79.64 90.66
  A 0.42 0.42 43.0 0 0 80.29 90.64
  C 81.60 88.90 90.29 78.08 83.31 77.01"
/>
<path stroke="#e29996" vector-effect="non-scaling-stroke" d="
  M 58.49 101.67
  C 56.54 105.85 61.06 109.19 63.69 105.55
  A 0.45 0.44 -52.6 0 1 64.34 105.46
  Q 68.16 108.66 69.59 105.01
  C 70.93 101.56 66.59 95.93 64.38 93.49
  A 0.44 0.43 -45.9 0 0 63.72 93.51
  Q 60.48 97.40 58.49 101.67"
/>
<path stroke="#e29996" vector-effect="non-scaling-stroke" d="
  M 95.94 116.68
  C 98.06 119.36 100.03 117.91 101.90 115.95
  A 0.43 0.43 -35.9 0 1 102.60 116.06
  C 104.86 120.64 110.40 116.44 108.41 111.81
  Q 106.59 107.61 102.51 102.35
  A 0.41 0.40 46.3 0 0 101.88 102.33
  C 99.63 105.01 93.14 113.17 95.94 116.68"
/>
<path stroke="#e29996" vector-effect="non-scaling-stroke" d="
  M 48.73 121.71
  C 49.61 122.76 50.77 123.41 52.13 122.66
  C 56.91 120.02 50.90 112.57 48.87 109.74
  A 0.90 0.89 46.1 0 0 47.44 109.71
  C 45.65 112.03 37.41 122.56 45.46 123.05
  A 1.12 0.91 -63.0 0 0 46.27 122.69
  Q 47.04 121.87 47.96 121.48
  A 0.72 0.63 57.7 0 1 48.73 121.71"
/>
<path stroke="#e29996" vector-effect="non-scaling-stroke" d="
  M 75.94 122.81
  Q 78.09 123.76 79.69 121.56
  A 0.45 0.44 -51.8 0 1 80.34 121.47
  C 84.81 125.21 87.00 120.74 85.34 117.04
  Q 83.49 112.94 80.38 109.48
  A 0.43 0.43 43.0 0 0 79.73 109.50
  C 77.57 112.16 70.72 120.52 75.94 122.81"
/>
<path stroke="#e29996" vector-effect="non-scaling-stroke" d="
  M 96.40 138.61
  C 89.22 146.34 101.36 155.31 108.17 148.04
  Q 112.00 143.96 108.00 138.62
  A 0.54 0.53 50.0 0 1 108.06 137.90
  Q 111.39 134.77 110.90 130.78
  C 109.65 120.82 93.69 121.40 93.31 131.32
  Q 93.17 135.15 96.37 137.93
  A 0.47 0.47 -47.9 0 1 96.40 138.61"
/>
<path stroke="#e29996" vector-effect="non-scaling-stroke" d="
  M 30.24 24.50
  A 4.36 3.71 0.0 0 0 25.88 20.79
  A 4.36 3.71 0.0 0 0 21.52 24.50
  A 4.36 3.71 0.0 0 0 25.88 28.21
  A 4.36 3.71 0.0 0 0 30.24 24.50"
/>
<path stroke="#e29996" vector-effect="non-scaling-stroke" d="
  M 31.1993 36.3061
  A 5.34 4.55 -0.9 0 0 25.7885 31.8406
  A 5.34 4.55 -0.9 0 0 20.5207 36.4739
  A 5.34 4.55 -0.9 0 0 25.9315 40.9394
  A 5.34 4.55 -0.9 0 0 31.1993 36.3061"
/>
<path stroke="#e29996" vector-effect="non-scaling-stroke" d="
  M 107.4800 131.5914
  A 5.34 4.56 -0.2 0 0 102.1241 127.0500
  A 5.34 4.56 -0.2 0 0 96.8000 131.6286
  A 5.34 4.56 -0.2 0 0 102.1559 136.1700
  A 5.34 4.56 -0.2 0 0 107.4800 131.5914"
/>
<path stroke="#e29996" vector-effect="non-scaling-stroke" d="
  M 106.4400 143.5051
  A 4.34 3.69 0.2 0 0 102.1129 139.8000
  A 4.34 3.69 0.2 0 0 97.7600 143.4749
  A 4.34 3.69 0.2 0 0 102.0871 147.1800
  A 4.34 3.69 0.2 0 0 106.4400 143.5051"
/>
</g>
<path fill="#010000" fill-opacity="0.110" d="
  M 120.03 45.51
  L 120.13 45.53
  A 0.15 0.14 7.9 0 1 120.24 45.67
  Q 120.25 51.97 120.26 58.25
  C 120.26 59.29 119.53 61.68 119.98 63.28
  Q 120.36 64.62 120.36 65.28
  Q 120.75 117.28 120.47 136.50
  Q 120.40 141.46 118.85 151.28
  A 1.23 1.03 -16.4 0 1 118.34 152.04
  Q 116.99 152.96 116.62 154.52
  A 1.41 1.33 79.9 0 1 116.11 155.30
  L 110.18 159.63
  Q 108.65 160.74 106.96 160.74
  L 20.56 160.72
  A 0.80 0.60 75.3 0 1 19.94 160.23
  Q 19.63 159.54 18.71 159.65
  A 0.82 0.77 68.0 0 1 17.98 159.31
  Q 17.35 158.42 16.01 158.66
  A 1.18 0.99 -27.2 0 1 15.13 158.46
  Q 10.26 154.43 8.25 148.84
  Q 7.01 145.36 7.01 137.49
  Q 7.00 83.14 7.00 28.79
  C 7.00 20.99 8.04 15.12 14.35 9.93
  C 15.81 8.73 17.83 8.55 19.37 7.00
  A 0.95 0.91 27.0 0 1 20.20 6.75
  Q 21.91 7.09 23.32 6.28
  Q 23.80 6.00 24.25 6.00
  L 105.19 6.01
  A 0.56 0.44 2.7 0 1 105.76 6.50
  L 105.71 6.87
  A 0.31 0.24 -84.0 0 0 105.93 7.22
  L 109.84 7.42
  Q 110.12 7.43 111.30 8.20
  Q 119.07 13.20 120.06 22.50
  C 120.60 27.63 119.88 33.10 120.12 38.69
  Q 120.26 41.96 119.84 45.22
  A 0.27 0.26 -78.7 0 0 120.03 45.51
  Z
  M 105.96 11.00
  A 0.48 0.48 0.0 0 0 105.48 10.52
  L 21.78 10.52
  A 0.48 0.48 0.0 0 0 21.30 11.00
  L 21.30 11.02
  A 0.48 0.48 0.0 0 0 21.78 11.50
  L 105.48 11.50
  A 0.48 0.48 0.0 0 0 105.96 11.02
  L 105.96 11.00
  Z
  M 14.46 18.50
  L 14.00 19.29
  Q 13.66 19.18 13.43 19.22
  A 0.66 0.38 81.2 0 0 13.15 19.94
  Q 13.43 21.57 12.16 20.37
  Q 11.81 20.03 11.72 20.50
  Q 11.00 24.70 11.00 27.75
  Q 10.99 84.58 11.01 141.40
  C 11.01 143.66 11.48 151.05 13.53 152.27
  A 0.94 0.77 -78.9 0 1 13.92 153.00
  Q 13.96 153.75 14.72 154.31
  C 21.68 159.51 25.96 158.73 36.37 158.82
  C 46.21 158.91 55.22 158.44 66.60 158.55
  C 68.94 158.57 72.05 159.06 74.92 158.84
  C 80.35 158.42 85.89 159.21 89.80 158.86
  Q 95.13 158.38 100.44 158.25
  C 105.21 158.13 108.28 157.03 111.64 154.07
  Q 112.12 153.64 111.51 153.74
  Q 110.80 153.85 110.31 154.51
  A 0.76 0.38 -55.7 0 1 109.62 154.89
  Q 109.33 154.74 109.75 154.04
  Q 114.51 150.92 114.50 145.75
  Q 114.41 87.00 114.62 28.25
  C 115.41 55.63 113.82 75.51 115.33 98.99
  Q 115.45 100.79 114.94 99.92
  Q 114.76 99.61 114.76 99.96
  L 114.88 147.19
  A 0.80 0.58 -84.6 0 0 115.31 147.92
  C 116.12 148.17 115.81 144.14 116.30 143.19
  Q 116.55 142.71 116.55 142.26
  Q 116.54 121.03 116.58 99.82
  Q 116.58 98.92 116.90 96.86
  C 117.27 94.42 116.56 90.91 116.55 89.46
  Q 116.48 78.73 116.51 68.00
  Q 116.51 65.51 116.71 63.24
  C 117.38 55.58 116.58 48.13 116.76 40.41
  Q 117.00 30.61 114.90 20.96
  Q 112.35 12.75 104.50 12.75
  Q 64.55 12.74 24.60 12.77
  C 19.66 12.77 16.36 14.02 14.46 18.50
  Z"
/>
<rect fill="#000002" fill-opacity="0.235" x="21.30" y="10.52" width="84.66" height="0.98" rx="0.48"/>
<path fill="#ffffff" d="
  M 114.90 20.96
  Q 114.11 24.71 114.62 28.25
  Q 114.41 87.00 114.50 145.75
  Q 114.51 150.92 109.75 154.04
  Q 106.90 155.24 106.25 155.24
  Q 64.16 155.27 22.06 155.24
  Q 19.78 155.23 17.00 152.96
  Q 14.00 148.78 14.00 147.25
  Q 14.00 84.71 14.00 22.17
  C 14.00 21.01 14.45 19.76 14.46 18.50
  C 16.36 14.02 19.66 12.77 24.60 12.77
  Q 64.55 12.74 104.50 12.75
  Q 112.35 12.75 114.90 20.96
  Z
  M 31.66 29.20
  C 37.53 22.78 29.81 14.96 22.79 17.88
  C 17.84 19.93 16.44 25.07 20.01 29.39
  A 0.53 0.51 -41.7 0 1 19.96 30.10
  C 11.04 38.32 23.87 49.74 32.26 41.78
  Q 37.63 36.69 31.64 29.93
  A 0.56 0.53 -44.6 0 1 31.66 29.20
  Z
  M 52.56 45.44
  Q 50.30 43.83 48.47 46.37
  A 0.71 0.60 -60.6 0 1 47.71 46.65
  Q 47.04 46.38 46.66 45.71
  A 1.11 0.82 74.3 0 0 45.96 45.17
  C 36.83 43.96 46.00 56.75 47.64 58.66
  A 0.41 0.41 43.8 0 0 48.28 58.65
  C 50.52 55.74 56.56 48.28 52.56 45.44
  Z
  M 84.83 45.56
  C 81.91 43.36 79.96 48.42 78.86 45.88
  A 0.99 0.82 79.3 0 0 78.19 45.32
  C 68.65 43.93 78.03 56.72 79.63 58.67
  A 0.42 0.41 -45.9 0 0 80.27 58.65
  Q 83.47 54.59 85.84 49.70
  Q 87.04 47.21 84.83 45.56
  Z
  M 25.54 52.03
  C 23.16 48.69 19.38 49.94 19.17 53.62
  C 18.97 57.15 23.37 62.93 25.58 65.61
  A 0.41 0.41 0.0 0 0 26.22 65.61
  C 28.62 62.69 37.36 51.84 29.74 49.82
  A 1.16 0.81 27.5 0 0 28.81 49.94
  L 26.14 52.06
  A 0.45 0.38 -37.1 0 1 25.54 52.03
  Z
  M 64.68 62.45
  A 0.87 0.87 49.2 0 1 63.22 62.34
  C 61.87 59.85 58.46 61.31 58.02 63.74
  C 57.49 66.61 61.81 72.53 63.65 74.67
  A 0.41 0.40 43.5 0 0 64.28 74.66
  C 66.04 72.33 72.88 64.15 68.41 61.34
  Q 66.44 60.10 64.68 62.45
  Z
  M 52.06 77.19
  Q 49.98 76.13 48.70 78.30
  A 0.82 0.65 -68.4 0 1 47.97 78.72
  Q 47.09 78.58 46.61 77.59
  A 0.80 0.70 75.3 0 0 45.93 77.13
  C 37.42 77.34 45.04 87.49 47.63 90.67
  A 0.40 0.40 44.6 0 0 48.26 90.67
  C 50.51 87.76 57.06 79.73 52.06 77.19
  Z
  M 83.31 77.01
  Q 81.71 76.77 80.68 78.32
  A 0.81 0.64 -64.6 0 1 79.93 78.69
  Q 79.09 78.52 78.65 77.70
  A 1.07 0.82 75.0 0 0 77.96 77.17
  C 68.83 75.97 78.00 88.75 79.64 90.66
  A 0.42 0.42 43.0 0 0 80.29 90.64
  C 81.60 88.90 90.29 78.08 83.31 77.01
  Z
  M 58.49 101.67
  C 56.54 105.85 61.06 109.19 63.69 105.55
  A 0.45 0.44 -52.6 0 1 64.34 105.46
  Q 68.16 108.66 69.59 105.01
  C 70.93 101.56 66.59 95.93 64.38 93.49
  A 0.44 0.43 -45.9 0 0 63.72 93.51
  Q 60.48 97.40 58.49 101.67
  Z
  M 95.94 116.68
  C 98.06 119.36 100.03 117.91 101.90 115.95
  A 0.43 0.43 -35.9 0 1 102.60 116.06
  C 104.86 120.64 110.40 116.44 108.41 111.81
  Q 106.59 107.61 102.51 102.35
  A 0.41 0.40 46.3 0 0 101.88 102.33
  C 99.63 105.01 93.14 113.17 95.94 116.68
  Z
  M 48.73 121.71
  C 49.61 122.76 50.77 123.41 52.13 122.66
  C 56.91 120.02 50.90 112.57 48.87 109.74
  A 0.90 0.89 46.1 0 0 47.44 109.71
  C 45.65 112.03 37.41 122.56 45.46 123.05
  A 1.12 0.91 -63.0 0 0 46.27 122.69
  Q 47.04 121.87 47.96 121.48
  A 0.72 0.63 57.7 0 1 48.73 121.71
  Z
  M 75.94 122.81
  Q 78.09 123.76 79.69 121.56
  A 0.45 0.44 -51.8 0 1 80.34 121.47
  C 84.81 125.21 87.00 120.74 85.34 117.04
  Q 83.49 112.94 80.38 109.48
  A 0.43 0.43 43.0 0 0 79.73 109.50
  C 77.57 112.16 70.72 120.52 75.94 122.81
  Z
  M 96.40 138.61
  C 89.22 146.34 101.36 155.31 108.17 148.04
  Q 112.00 143.96 108.00 138.62
  A 0.54 0.53 50.0 0 1 108.06 137.90
  Q 111.39 134.77 110.90 130.78
  C 109.65 120.82 93.69 121.40 93.31 131.32
  Q 93.17 135.15 96.37 137.93
  A 0.47 0.47 -47.9 0 1 96.40 138.61
  Z"
/>
<path fill="#c4332c" d="
  M 31.64 29.93
  Q 37.63 36.69 32.26 41.78
  C 23.87 49.74 11.04 38.32 19.96 30.10
  A 0.53 0.51 -41.7 0 0 20.01 29.39
  C 16.44 25.07 17.84 19.93 22.79 17.88
  C 29.81 14.96 37.53 22.78 31.66 29.20
  A 0.56 0.53 -44.6 0 0 31.64 29.93
  Z
  M 30.24 24.50
  A 4.36 3.71 0.0 0 0 25.88 20.79
  A 4.36 3.71 0.0 0 0 21.52 24.50
  A 4.36 3.71 0.0 0 0 25.88 28.21
  A 4.36 3.71 0.0 0 0 30.24 24.50
  Z
  M 31.1993 36.3061
  A 5.34 4.55 -0.9 0 0 25.7885 31.8406
  A 5.34 4.55 -0.9 0 0 20.5207 36.4739
  A 5.34 4.55 -0.9 0 0 25.9315 40.9394
  A 5.34 4.55 -0.9 0 0 31.1993 36.3061
  Z"
/>
<path fill="#f2f4f5" fill-opacity="0.973" d="
  M 14.46 18.50
  C 14.45 19.76 14.00 21.01 14.00 22.17
  Q 14.00 84.71 14.00 147.25
  Q 14.00 148.78 17.00 152.96
  Q 13.52 149.96 13.52 146.69
  Q 13.48 84.35 13.51 22.00
  C 13.51 21.17 13.92 20.18 14.00 19.29
  L 14.46 18.50
  Z"
/>
<path fill="#030605" fill-opacity="0.192" d="
  M 14.00 19.29
  C 13.92 20.18 13.51 21.17 13.51 22.00
  Q 13.48 84.35 13.52 146.69
  Q 13.52 149.96 17.00 152.96
  Q 19.78 155.23 22.06 155.24
  Q 64.16 155.27 106.25 155.24
  Q 106.90 155.24 109.75 154.04
  Q 109.33 154.74 109.62 154.89
  A 0.76 0.38 -55.7 0 0 110.31 154.51
  Q 110.80 153.85 111.51 153.74
  Q 112.12 153.64 111.64 154.07
  C 108.28 157.03 105.21 158.13 100.44 158.25
  Q 95.13 158.38 89.80 158.86
  C 85.89 159.21 80.35 158.42 74.92 158.84
  C 72.05 159.06 68.94 158.57 66.60 158.55
  C 55.22 158.44 46.21 158.91 36.37 158.82
  C 25.96 158.73 21.68 159.51 14.72 154.31
  Q 13.96 153.75 13.92 153.00
  A 0.94 0.77 -78.9 0 0 13.53 152.27
  C 11.48 151.05 11.01 143.66 11.01 141.40
  Q 10.99 84.58 11.00 27.75
  Q 11.00 24.70 11.72 20.50
  Q 11.81 20.03 12.16 20.37
  Q 13.43 21.57 13.15 19.94
  A 0.66 0.38 81.2 0 1 13.43 19.22
  Q 13.66 19.18 14.00 19.29
  Z"
/>
<ellipse fill="#ffffff" cx="25.88" cy="24.50" rx="4.36" ry="3.71"/>
<path fill="#030605" fill-opacity="0.192" d="
  M 114.90 20.96
  Q 117.00 30.61 116.76 40.41
  C 116.58 48.13 117.38 55.58 116.71 63.24
  Q 116.51 65.51 116.51 68.00
  Q 116.48 78.73 116.55 89.46
  C 116.56 90.91 117.27 94.42 116.90 96.86
  Q 116.58 98.92 116.58 99.82
  Q 116.54 121.03 116.55 142.26
  Q 116.55 142.71 116.30 143.19
  C 115.81 144.14 116.12 148.17 115.31 147.92
  A 0.80 0.58 -84.6 0 1 114.88 147.19
  L 114.76 99.96
  Q 114.76 99.61 114.94 99.92
  Q 115.45 100.79 115.33 98.99
  C 113.82 75.51 115.41 55.63 114.62 28.25
  Q 114.11 24.71 114.90 20.96
  Z"
/>
<ellipse fill="#ffffff" cx="0.00" cy="0.00" transform="translate(25.86,36.39) rotate(-0.9)" rx="5.34" ry="4.55"/>
<path fill="#c4332c" d="
  M 52.56 45.44
  C 56.56 48.28 50.52 55.74 48.28 58.65
  A 0.41 0.41 43.8 0 1 47.64 58.66
  C 46.00 56.75 36.83 43.96 45.96 45.17
  A 1.11 0.82 74.3 0 1 46.66 45.71
  Q 47.04 46.38 47.71 46.65
  A 0.71 0.60 -60.6 0 0 48.47 46.37
  Q 50.30 43.83 52.56 45.44
  Z"
/>
<path fill="#c4332c" d="
  M 78.86 45.88
  C 79.96 48.42 81.91 43.36 84.83 45.56
  Q 87.04 47.21 85.84 49.70
  Q 83.47 54.59 80.27 58.65
  A 0.42 0.41 -45.9 0 1 79.63 58.67
  C 78.03 56.72 68.65 43.93 78.19 45.32
  A 0.99 0.82 79.3 0 1 78.86 45.88
  Z"
/>
<path fill="#c4332c" d="
  M 26.14 52.06
  L 28.81 49.94
  A 1.16 0.81 27.5 0 1 29.74 49.82
  C 37.36 51.84 28.62 62.69 26.22 65.61
  A 0.41 0.41 0.0 0 1 25.58 65.61
  C 23.37 62.93 18.97 57.15 19.17 53.62
  C 19.38 49.94 23.16 48.69 25.54 52.03
  A 0.45 0.38 -37.1 0 0 26.14 52.06
  Z"
/>
<path fill="#c4332c" d="
  M 64.68 62.45
  Q 66.44 60.10 68.41 61.34
  C 72.88 64.15 66.04 72.33 64.28 74.66
  A 0.41 0.40 43.5 0 1 63.65 74.67
  C 61.81 72.53 57.49 66.61 58.02 63.74
  C 58.46 61.31 61.87 59.85 63.22 62.34
  A 0.87 0.87 49.2 0 0 64.68 62.45
  Z"
/>
<path fill="#c4332c" d="
  M 52.06 77.19
  C 57.06 79.73 50.51 87.76 48.26 90.67
  A 0.40 0.40 44.6 0 1 47.63 90.67
  C 45.04 87.49 37.42 77.34 45.93 77.13
  A 0.80 0.70 75.3 0 1 46.61 77.59
  Q 47.09 78.58 47.97 78.72
  A 0.82 0.65 -68.4 0 0 48.70 78.30
  Q 49.98 76.13 52.06 77.19
  Z"
/>
<path fill="#c4332c" d="
  M 83.31 77.01
  C 90.29 78.08 81.60 88.90 80.29 90.64
  A 0.42 0.42 43.0 0 1 79.64 90.66
  C 78.00 88.75 68.83 75.97 77.96 77.17
  A 1.07 0.82 75.0 0 1 78.65 77.70
  Q 79.09 78.52 79.93 78.69
  A 0.81 0.64 -64.6 0 0 80.68 78.32
  Q 81.71 76.77 83.31 77.01
  Z"
/>
<path fill="#c4332c" d="
  M 63.69 105.55
  C 61.06 109.19 56.54 105.85 58.49 101.67
  Q 60.48 97.40 63.72 93.51
  A 0.44 0.43 -45.9 0 1 64.38 93.49
  C 66.59 95.93 70.93 101.56 69.59 105.01
  Q 68.16 108.66 64.34 105.46
  A 0.45 0.44 -52.6 0 0 63.69 105.55
  Z"
/>
<path fill="#c4332c" d="
  M 95.94 116.68
  C 93.14 113.17 99.63 105.01 101.88 102.33
  A 0.41 0.40 46.3 0 1 102.51 102.35
  Q 106.59 107.61 108.41 111.81
  C 110.40 116.44 104.86 120.64 102.60 116.06
  A 0.43 0.43 -35.9 0 0 101.90 115.95
  C 100.03 117.91 98.06 119.36 95.94 116.68
  Z"
/>
<path fill="#c4332c" d="
  M 47.96 121.48
  Q 47.04 121.87 46.27 122.69
  A 1.12 0.91 -63.0 0 1 45.46 123.05
  C 37.41 122.56 45.65 112.03 47.44 109.71
  A 0.90 0.89 46.1 0 1 48.87 109.74
  C 50.90 112.57 56.91 120.02 52.13 122.66
  C 50.77 123.41 49.61 122.76 48.73 121.71
  A 0.72 0.63 57.7 0 0 47.96 121.48
  Z"
/>
<path fill="#c4332c" d="
  M 75.94 122.81
  C 70.72 120.52 77.57 112.16 79.73 109.50
  A 0.43 0.43 43.0 0 1 80.38 109.48
  Q 83.49 112.94 85.34 117.04
  C 87.00 120.74 84.81 125.21 80.34 121.47
  A 0.45 0.44 -51.8 0 0 79.69 121.56
  Q 78.09 123.76 75.94 122.81
  Z"
/>
<path fill="#c4332c" d="
  M 96.37 137.93
  Q 93.17 135.15 93.31 131.32
  C 93.69 121.40 109.65 120.82 110.90 130.78
  Q 111.39 134.77 108.06 137.90
  A 0.54 0.53 50.0 0 0 108.00 138.62
  Q 112.00 143.96 108.17 148.04
  C 101.36 155.31 89.22 146.34 96.40 138.61
  A 0.47 0.47 -47.9 0 0 96.37 137.93
  Z
  M 107.4800 131.5914
  A 5.34 4.56 -0.2 0 0 102.1241 127.0500
  A 5.34 4.56 -0.2 0 0 96.8000 131.6286
  A 5.34 4.56 -0.2 0 0 102.1559 136.1700
  A 5.34 4.56 -0.2 0 0 107.4800 131.5914
  Z
  M 106.4400 143.5051
  A 4.34 3.69 0.2 0 0 102.1129 139.8000
  A 4.34 3.69 0.2 0 0 97.7600 143.4749
  A 4.34 3.69 0.2 0 0 102.0871 147.1800
  A 4.34 3.69 0.2 0 0 106.4400 143.5051
  Z"
/>
<ellipse fill="#ffffff" cx="0.00" cy="0.00" transform="translate(102.14,131.61) rotate(-0.2)" rx="5.34" ry="4.56"/>
<ellipse fill="#ffffff" cx="0.00" cy="0.00" transform="translate(102.10,143.49) rotate(0.2)" rx="4.34" ry="3.69"/>
</svg>
