<?xml version="1.0" encoding="utf-8"?>
<!-- Generator: Adobe Illustrator 27.0.1, SVG Export Plug-In . SVG Version: 6.00 Build 0)  -->
<svg version="1.1" id="Слой_1" xmlns="http://www.w3.org/2000/svg" xmlns:xlink="http://www.w3.org/1999/xlink" x="0px" y="0px"
	 viewBox="0 0 128 168" style="enable-background:new 0 0 128 168;" xml:space="preserve">
<style type="text/css">
	.st0{fill:#D8D8D8;}
	.st1{fill:#AAAAAA;}
	.st2{fill:#FFFFFF;}
	.st3{fill:#C4332C;}
</style>
<g>
	<path class="st0" d="M107.9,161.7H20.1c-6.9,0-12.4-5.6-12.4-12.4V18.8c0-6.9,5.6-12.4,12.4-12.4h87.8c6.9,0,12.4,5.6,12.4,12.4
		v130.5C120.3,156.1,114.8,161.7,107.9,161.7z"/>
	<path class="st1" d="M106.9,157.8H21.1c-5.5,0-9.9-4.4-9.9-9.9V19.8c0-5.5,4.4-9.9,9.9-9.9h85.8c5.5,0,9.9,4.4,9.9,9.9v128.1
		C116.8,153.4,112.4,157.8,106.9,157.8z"/>
	<path class="st2" d="M106.6,154.8H21.4c-4.4,0-8-3.6-8-8V20.9c0-4.4,3.6-8,8-8h85.2c4.4,0,8,3.6,8,8v125.9
		C114.6,151.2,111,154.8,106.6,154.8z"/>
</g>
<g>
	<path class="st3" d="M22.2,21.3l0.2,2.4c0,0.2,0.2,0.4,0.5,0.3H23c3.5-1.2,6.9-0.1,9.1,2.9c8.9,12-8,25.6-14.7,11.8
		c-0.1-0.3-0.1-0.6,0.2-0.7l0,0l2.2-0.9c0.2-0.1,0.6,0.1,0.7,0.4c4.1,8.2,12.6,1.1,10.4-5.9c-1.4-4.4-5.6-6.2-9.2-2.5
		c-0.2,0.3-0.6,0.3-0.8,0.2l-1.7-1.1c-0.2-0.1-0.4-0.5-0.3-0.9v-9.4c0-0.3,0.2-0.5,0.5-0.5h11.8c0.3,0,0.6,0.2,0.6,0.5
		c0.2,0.9,0.2,1.7,0,2.6c-0.1,0.3-0.3,0.5-0.6,0.5L23,21.1C22.5,20.8,22.2,21,22.2,21.3L22.2,21.3z"/>
	<path class="st3" d="M48.5,46.4c2.6-3.6,6.8,0,5.1,4c-1,2.3-2.8,5.1-5.3,8.3c-0.1,0.2-0.4,0.2-0.6,0.1c0,0,0,0-0.1-0.1
		c-2.6-3.1-10.1-13.5-1.9-13.6c0.3,0,0.6,0.2,0.8,0.4c0.3,0.5,0.7,0.9,1.2,1.1C48,46.7,48.3,46.6,48.5,46.4z"/>
	<path class="st3" d="M78.9,46c1.3,2.3,2.8-2.5,5.5-0.7c4.4,2.9-2.4,11-4.2,13.3c-0.1,0.2-0.4,0.2-0.6,0.1c0,0,0,0-0.1-0.1
		c-2.1-2.6-7.3-9.3-5-12.5c0.9-1.2,2.1-1.5,3.6-0.8C78.5,45.4,78.7,45.7,78.9,46z"/>
	<path class="st3" d="M26.1,52.1l2.7-2.1c0.2-0.2,0.6-0.2,0.9-0.1c7.5,2-1.2,12.8-3.6,15.7c-0.1,0.2-0.4,0.2-0.6,0.1l0,0
		c-3-3.4-5.2-7.1-6.6-11.4c-0.1-0.3-0.1-0.7,0-1c1.6-4,3.7-4.4,6.4-1.3C25.6,52.2,25.9,52.2,26.1,52.1z"/>
	<path class="st3" d="M67.6,77.4c1.8,0.9,2.2,2.4,1.2,4.4c-1.5,3.1-3.3,6-5.5,8.8c-0.1,0.2-0.4,0.2-0.6,0.1c0,0,0,0-0.1-0.1
		c-1.5-1.8-9.8-12.4-3.2-13.5c0.9-0.2,1.8,0.2,2.6,1.2c0.5,0.6,1.4,0.4,1.7-0.1C64.7,76.8,65.9,76.6,67.6,77.4z"/>
	<path class="st3" d="M97,117.7c-1.8-0.8-2.4-2.1-1.8-4c1.3-4.1,3.6-7.9,6.8-11.4c0.2-0.2,0.4-0.2,0.6,0c0,0,0,0,0.1,0.1
		c2.7,3.5,4.7,6.7,5.9,9.4c2,4.7-3.6,8.8-5.8,4.3c-0.1-0.2-0.4-0.3-0.7-0.2c-0.1,0-0.1,0.1-0.1,0.1C100.2,117.8,98.5,118.4,97,117.7
		z"/>
	<path class="st3" d="M48,121.6c-3.4,2.3-5.3,1.8-5.8-1.4c-0.5-3.3,3.7-8.3,5.5-10.9c0.1-0.3,0.5-0.3,0.7,0l5.2,8.3
		c0.9,1.5,0.7,2.9-0.6,4.4c-1.4,1.6-2.8,1.4-4.3-0.3C48.6,121.5,48.3,121.4,48,121.6z"/>
	<path class="st3" d="M79.7,121.5c-2.7,3.8-7.3,0.1-5.2-4.1c1.4-2.7,3.1-5.4,5.2-7.9c0.1-0.2,0.4-0.2,0.6-0.1c0,0,0,0,0.1,0.1
		c2.2,2.4,6.6,8.1,5.2,11.5c-1,2.4-2.7,2.6-5.2,0.4C80.2,121.3,79.9,121.3,79.7,121.5L79.7,121.5z"/>
	<path class="st3" d="M105.8,146.7l-0.1-2.2c0-0.2-0.2-0.4-0.5-0.4c0,0,0,0-0.1,0c-6.2,1.2-10-1.2-11.5-7.3
		c-2.7-11,11.1-19.4,17-7.4c0.1,0.3,0,0.6-0.2,0.7l-1.9,0.9c-0.2,0.1-0.6,0-0.8-0.3c-7.6-11.2-16,5.6-7.3,9.8c2,1,4,0.5,5.9-1.5
		c0.2-0.2,0.6-0.3,0.8-0.2c0.9,0.5,2.1,1,2.1,2.1c0,0,0,9.3,0,9.3c0,0.3-0.2,0.5-0.5,0.5H96.9c-0.3,0-0.6-0.2-0.6-0.5
		c-0.2-0.9-0.2-1.7,0-2.6c0.1-0.3,0.3-0.5,0.6-0.5l8.2-0.1C105.5,147.2,105.8,147,105.8,146.7L105.8,146.7z"/>
</g>
</svg>
