<?xml version="1.0" encoding="utf-8"?>
<!-- Generator: Adobe Illustrator 27.0.1, SVG Export Plug-In . SVG Version: 6.00 Build 0)  -->
<svg version="1.1" id="Слой_1" xmlns="http://www.w3.org/2000/svg" xmlns:xlink="http://www.w3.org/1999/xlink" x="0px" y="0px"
	 viewBox="0 0 128 168" style="enable-background:new 0 0 128 168;" xml:space="preserve">
<style type="text/css">
	.st0{fill:#D8D8D8;}
	.st1{fill:#AAAAAA;}
	.st2{fill:#FFFFFF;}
	.st3{fill:#C4332C;}
</style>
<g>
	<path class="st0" d="M108.1,161.7H20.3c-6.9,0-12.4-5.6-12.4-12.4V18.8c0-6.9,5.6-12.4,12.4-12.4h87.8c6.9,0,12.4,5.6,12.4,12.4
		v130.5C120.6,156.1,115,161.7,108.1,161.7z"/>
	<path class="st1" d="M107.1,157.8H21.3c-5.5,0-9.9-4.4-9.9-9.9V19.8c0-5.5,4.4-9.9,9.9-9.9h85.8c5.5,0,9.9,4.4,9.9,9.9v128.1
		C117,153.4,112.6,157.8,107.1,157.8z"/>
	<path class="st2" d="M106.8,154.8H21.6c-4.4,0-8-3.6-8-8V20.9c0-4.4,3.6-8,8-8h85.2c4.4,0,8,3.6,8,8v125.9
		C114.8,151.2,111.2,154.8,106.8,154.8z"/>
</g>
<g>
	<path class="st3" d="M20.9,21.3c0.5,2.7-0.6,3.7-3.1,2.8c-0.3-0.1-0.5-0.4-0.5-0.7l0.1-5.6c0-0.3,0.2-0.5,0.5-0.5l15.6-0.1
		c1.9,0,2.2,0.7,0.8,2l-6.2,6.1c-0.2,0.1-0.1,0.4,0.1,0.5c17.3,6.4-2.6,29.8-11.1,12.5c-0.6-1.1,2.8-2.6,3.2-1.3
		c1.6,3.8,5.8,5.2,9,2.4c5.2-4.3,0.7-12.8-6.1-9.2c-0.3,0.2-0.6,0.2-0.9,0c-0.7-0.4-1.3-1-1.7-1.7c-0.1-0.2-0.1-0.6,0.1-0.8l6.7-6.5
		c0.3-0.3,0.2-0.4-0.2-0.4l-6-0.1C21.1,20.8,20.9,21,20.9,21.3z"/>
	<path class="st3" d="M62.6,45.7c1.5,3.2,4.2-3.9,6.9,0.7c0.9,1.5,0.9,2.8,0,4.1l-5.2,8.1c-0.1,0.2-0.4,0.2-0.5,0.1
		C62,56.8,52.8,44,62,45.2C62.2,45.2,62.5,45.4,62.6,45.7z"/>
	<path class="st3" d="M26.1,52.1l2.5-2.1c0.2-0.2,0.6-0.2,0.9-0.2c8,1.7-1,12.9-3.4,15.8c-0.2,0.2-0.5,0.2-0.6,0
		c-2.2-2.7-6.6-8.5-6.4-12c0.2-3.7,4-4.9,6.4-1.6C25.7,52.2,25.9,52.2,26.1,52.1z"/>
	<path class="st3" d="M65,78c1-1.3,2.3-1.5,4-0.4s2,2.6,0.8,4.4l-5.5,8.7c-0.1,0.2-0.5,0.2-0.6,0C61.9,88.6,53,76.6,62,77.2
		c0.3,0,0.5,0.2,0.7,0.5c0.3,0.8,0.9,1.1,1.6,0.9C64.5,78.5,64.7,78.3,65,78z"/>
	<path class="st3" d="M101.8,116c-4.7,5-8.4-0.2-5.8-4.8c1.8-3.4,3.8-6.3,5.9-8.8c0.2-0.2,0.5-0.2,0.6,0c2.7,3.5,4.7,6.6,5.9,9.5
		c2,4.7-3.6,8.8-5.8,4.3C102.5,115.8,102.1,115.7,101.8,116z"/>
	<path class="st3" d="M59.9,122.8c-5.2-2.3,1.6-10.4,3.5-13.1c0.3-0.4,1-0.4,1.3,0c2,2.5,9.2,11.9,2.4,13.3c-0.3,0.1-0.7,0-0.9-0.2
		l-1.8-1.3c-0.2-0.2-0.5-0.1-0.7,0.1C62.6,123,61.4,123.5,59.9,122.8z"/>
	<path class="st3" d="M100.8,147.2l6-0.1c0.3,0,0.4-0.3,0.4-0.5c-0.5-2.5,0.4-3.4,2.9-2.8c0.3,0.1,0.5,0.3,0.6,0.7
		c0.3,1.9,0.2,3.8-0.2,5.7c-0.1,0.3-0.3,0.5-0.6,0.5l-15.9,0c-1.6,0-1.7-0.6-0.5-1.8l6.4-6.4c0.2-0.2,0.1-0.4-0.1-0.5
		c-18.1-6.8,4-29.9,11.1-12.3c0.3,1.1-1.6,1.5-2.4,1.7c-0.3,0-0.6-0.1-0.7-0.4c-4.9-11-17.4,3.1-8,7.2c1.7,0.8,3.4,0.6,5.1-0.6
		c0.3-0.2,0.6-0.2,0.8,0c0.7,0.5,1.3,1.2,1.7,1.9c0.1,0.2,0,0.5-0.2,0.8l-6.5,6.5C100.3,147.1,100.4,147.2,100.8,147.2z"/>
</g>
</svg>
