<?xml version="1.0" encoding="utf-8"?>
<!-- Generator: Adobe Illustrator 27.0.1, SVG Export Plug-In . SVG Version: 6.00 Build 0)  -->
<svg version="1.1" id="Слой_1" xmlns="http://www.w3.org/2000/svg" xmlns:xlink="http://www.w3.org/1999/xlink" x="0px" y="0px"
	 viewBox="0 0 128 168" style="enable-background:new 0 0 128 168;" xml:space="preserve">
<style type="text/css">
	.st0{fill:#D8D8D8;}
	.st1{fill:#AAAAAA;}
	.st2{fill:#FFFFFF;}
	.st3{fill:#C4332C;}
</style>
<g>
	<path class="st0" d="M107.9,161.7H20.1c-6.9,0-12.4-5.6-12.4-12.4V18.8c0-6.9,5.6-12.4,12.4-12.4h87.8c6.9,0,12.4,5.6,12.4,12.4
		v130.5C120.3,156.1,114.8,161.7,107.9,161.7z"/>
	<path class="st1" d="M106.9,157.8H21.1c-5.5,0-9.9-4.4-9.9-9.9V19.8c0-5.5,4.4-9.9,9.9-9.9h85.8c5.5,0,9.9,4.4,9.9,9.9v128.1
		C116.8,153.4,112.4,157.8,106.9,157.8z"/>
	<path class="st2" d="M106.6,154.8H21.4c-4.4,0-8-3.6-8-8V20.9c0-4.4,3.6-8,8-8h85.2c4.4,0,8,3.6,8,8v125.9
		C114.6,151.2,111,154.8,106.6,154.8z"/>
</g>
<g>
	<path class="st3" d="M30.2,35c-4.3,2-7.9,1.5-10.5-1.5C10.1,23,27.7,9.1,33,23c2.2,5.6,2.5,17.8-4.4,20.8c-5.2,2.2-14.2-4-8.2-5.4
		c0.3-0.1,0.6,0,0.8,0.3c3.8,4.5,8.9,1.8,9.4-3.4c0-0.2-0.1-0.3-0.3-0.3C30.3,35,30.3,35,30.2,35z M26.2,32.7
		c6.7-0.9,5.6-12.2-1.1-11.9C18.4,21.7,19.5,33.2,26.2,32.7z"/>
	<path class="st2" d="M25.2,20.9c2.8-0.3,5.3,2.2,5.6,5.4c0.5,7.8-9.2,8.7-10.2,0.9C20.3,24,22.4,21.2,25.2,20.9z"/>
	<path class="st3" d="M52.6,45.4c4,2.8-2,10.3-4.3,13.2c-0.1,0.2-0.4,0.2-0.6,0.1c0,0,0,0-0.1-0.1C45,55.5,37.4,45.3,45.9,45
		c0.3,0,0.6,0.2,0.7,0.5c0.3,0.6,0.6,0.9,1.1,1.1c0.3,0.1,0.6,0,0.8-0.3C49.7,44.7,51.1,44.4,52.6,45.4z"/>
	<path class="st3" d="M78.6,45.6c1.5,3.4,4-3.5,6.8,0.6c1,1.5,1.1,2.9,0.2,4.3l-5.3,8.1c-0.1,0.2-0.3,0.2-0.5,0.1l-0.1-0.1
		c-2.6-3.1-10.2-13.3-1.7-13.5C78.2,45.1,78.5,45.3,78.6,45.6z"/>
	<path class="st3" d="M26.1,52c1.8-2.5,3.6-3,5.6-1.2c1.5,1.4,1.8,2.9,0.9,4.8c-1.9,3.7-4,7.1-6.3,10c-0.1,0.2-0.4,0.2-0.6,0.1
		c0,0,0,0-0.1,0c-3-3.4-5.2-7.1-6.6-11.4c-0.1-0.3-0.1-0.7,0-1c1.6-4,3.7-4.4,6.4-1.3C25.6,52.2,25.9,52.2,26.1,52
		C26.1,52.1,26.1,52.1,26.1,52z"/>
	<path class="st3" d="M63.5,57.4c0.1,0.2,0.4,0.2,0.6,0.1c0,0,0.1,0,0.1-0.1c2.4-2.9,4.3-2.8,5.5,0.2c0.6,1.3,0.5,2.6-0.2,3.7
		l-5.3,8c-0.2,0.3-0.5,0.2-0.6,0c-1.6-2-8.8-10.7-3.8-13.3C61.2,55.3,62.4,55.8,63.5,57.4z"/>
	<path class="st3" d="M48.1,68c1.7-2.3,3.4-2.6,5-0.8c1.3,1.5,1.5,3,0.4,4.6L48.1,80c-0.1,0.2-0.4,0.2-0.5,0.1c0,0-0.1,0-0.1-0.1
		c-2.2-2.7-4-5.7-5.4-8.8c-0.8-1.8-0.4-3.3,1.2-4.4c1.5-1,2.9-0.7,4.1,1.1C47.7,68.2,47.9,68.2,48.1,68C48.1,68.1,48.1,68.1,48.1,68
		z"/>
	<path class="st3" d="M80.2,68.1l1.7-1.6c0.2-0.2,0.6-0.3,0.9-0.3c7.2,1.1,0.3,10.2-2.5,13.7c-0.2,0.2-0.4,0.2-0.6,0.1
		c0,0,0,0-0.1-0.1c-3.1-3.5-4.9-6.5-5.5-8.9c-1-3.9,3.3-6.4,5.4-3C79.7,68.2,79.9,68.3,80.2,68.1C80.1,68.1,80.2,68.1,80.2,68.1z"/>
	<path class="st3" d="M48.5,99.9c-0.1-0.2-0.4-0.3-0.7-0.2c-0.1,0-0.1,0.1-0.2,0.2c-1.5,2.4-3.1,2.7-4.6,1c-1.4-1.6-1.6-3.2-0.5-4.8
		l5.3-8.1c0.1-0.2,0.3-0.2,0.5-0.1c0,0,0.1,0,0.1,0.1c2.7,3.3,4.5,6.3,5.4,8.8C55.2,100.4,50.6,103.7,48.5,99.9z"/>
	<path class="st3" d="M76.2,101.5c-5.3-2.3,0.8-9.9,3.5-13.6c0.2-0.3,0.5-0.2,0.6,0l5.3,8.4c0.9,1.4,0.7,2.8-0.5,4.2
		c-1.5,1.8-3,1.7-4.6-0.4c-0.1-0.2-0.4-0.2-0.5-0.1l0,0C78.4,101.4,77.2,101.9,76.2,101.5z"/>
	<path class="st3" d="M101.5,116c-2.5,4.7-7.8,0.8-6-3.6c1.2-3.2,3.4-6.5,6.4-10.1c0.1-0.2,0.4-0.2,0.6-0.1c0,0,0,0,0.1,0.1
		c2.4,3.1,4.4,6.3,6,9.6c0.8,1.7,0.7,3.3-0.6,4.8c-1.7,2.1-3.5,1.8-5.4-0.8c-0.2-0.3-0.6-0.3-0.8-0.1
		C101.6,115.9,101.6,116,101.5,116z"/>
	<path class="st3" d="M48,121.5c-0.6,0.3-1.2,0.7-1.7,1.2c-0.2,0.2-0.5,0.4-0.8,0.4c-8.1-0.5,0.2-11.1,2-13.4
		c0.3-0.4,0.8-0.4,1.1-0.2c0.1,0.1,0.1,0.1,0.2,0.2l4.9,7.8c1,1.7,0.8,3.2-0.8,4.8c-1.3,1.3-2.7,1.2-4.1-0.6
		C48.5,121.5,48.2,121.4,48,121.5z"/>
	<path class="st3" d="M79.7,121.5c-2.7,3.8-7.3,0.1-5.2-4.1c1.4-2.7,3.1-5.4,5.2-7.9c0.1-0.2,0.4-0.2,0.6-0.1c0,0,0,0,0.1,0.1
		c2.2,2.4,6.6,8.1,5.2,11.5c-1,2.4-2.7,2.6-5.2,0.4C80.2,121.3,79.9,121.3,79.7,121.5L79.7,121.5z"/>
	<path class="st3" d="M97.8,132.7c4.6-1.8,8.2-1.1,10.9,2.1c8.7,10.4-8.1,23.5-13.5,10.5c-2.3-5.4-3-18.3,4.2-21.1
		c4.1-1.6,7.5-0.5,10.3,3.3c0.2,0.2,0.2,0.6,0,0.8c-0.5,0.6-1.1,1-1.8,1.2c-0.3,0.1-0.6,0-0.9-0.2c-4.8-3.9-8-2.9-9.5,3.1
		C97.3,132.8,97.5,132.9,97.8,132.7z M102.8,147.1c2.8-0.2,4.8-3.1,4.5-6.4l0,0c-0.9-7.8-10.6-7.1-10.1,0.9l0,0
		C97.6,144.9,100.1,147.3,102.8,147.1z"/>
	<path class="st2" d="M101.8,135.3c2.8-0.3,5.3,2.2,5.6,5.4c0.5,7.8-9.2,8.7-10.2,0.9C96.9,138.4,99,135.6,101.8,135.3z"/>
</g>
</svg>
