<?xml version="1.0" encoding="UTF-8" standalone="no"?>
<svg xmlns="http://www.w3.org/2000/svg" version="1.2" baseProfile="tiny" viewBox="0 0 128 168">
<g stroke-width="0.00" fill="none" stroke-linecap="butt">
<path stroke="#e6e6e6" stroke-opacity="0.557" vector-effect="non-scaling-stroke" d="
  M 114.44 27.26
  C 116.36 16.98 110.99 12.76 101.81 12.75
  Q 63.41 12.73 25.02 12.77
  C 19.75 12.78 16.61 14.05 14.10 18.49"
/>
<path stroke="#d6d7d6" stroke-opacity="0.596" vector-effect="non-scaling-stroke" d="
  M 114.44 27.26
  L 114.46 46.50"
/>
<path stroke="#f9f7f6" stroke-opacity="0.949" vector-effect="non-scaling-stroke" d="
  M 114.46 46.50
  Q 113.94 60.25 114.46 74.00"
/>
<path stroke="#d6d7d6" stroke-opacity="0.596" vector-effect="non-scaling-stroke" d="
  M 114.46 74.00
  Q 114.53 108.15 114.49 142.29
  C 114.48 158.62 103.43 155.23 91.45 155.24
  Q 56.75 155.27 22.06 155.23
  Q 19.77 155.23 17.00 152.96"
/>
<path stroke="#f9fafb" stroke-opacity="0.984" vector-effect="non-scaling-stroke" d="
  M 17.00 152.96
  Q 14.00 148.78 14.00 147.25
  Q 13.92 82.88 14.10 18.49"
/>
<path stroke="#e29996" vector-effect="non-scaling-stroke" d="
  M 21.31 20.78
  L 27.29 20.91
  Q 27.87 20.92 27.45 21.33
  L 20.78 27.84
  A 0.67 0.59 -38.1 0 0 20.64 28.62
  Q 21.25 29.66 22.32 30.30
  A 0.92 0.80 -41.0 0 0 23.19 30.30
  C 29.97 26.73 34.49 35.19 29.29 39.53
  C 26.05 42.24 21.92 40.89 20.29 37.09
  A 0.82 0.68 76.6 0 0 19.62 36.59
  Q 18.24 36.60 17.23 37.59
  A 0.71 0.69 54.6 0 0 17.11 38.40
  C 25.65 55.68 45.52 32.32 28.23 25.87
  A 0.31 0.30 33.1 0 1 28.12 25.37
  L 34.35 19.25
  Q 36.39 17.25 33.51 17.26
  L 17.91 17.32
  A 0.55 0.51 0.0 0 0 17.36 17.83
  L 17.30 23.47
  A 0.75 0.69 9.9 0 0 17.82 24.14
  Q 21.60 25.41 20.91 21.31
  A 0.46 0.41 85.3 0 1 21.31 20.78"
/>
<path stroke="#e29996" vector-effect="non-scaling-stroke" d="
  M 69.50 46.43
  C 66.84 41.85 64.18 48.91 62.64 45.71
  A 1.02 0.80 77.0 0 0 61.96 45.16
  C 52.82 43.99 62.00 56.75 63.66 58.68
  A 0.40 0.38 42.0 0 0 64.28 58.66
  L 69.53 50.55
  Q 70.78 48.62 69.50 46.43"
/>
<path stroke="#e29996" vector-effect="non-scaling-stroke" d="
  M 25.54 52.03
  C 23.16 48.69 19.38 49.94 19.17 53.62
  C 18.97 57.15 23.37 62.93 25.57 65.61
  A 0.43 0.42 44.6 0 0 26.22 65.61
  C 28.54 62.78 37.56 51.51 29.57 49.84
  A 1.20 0.88 25.7 0 0 28.65 50.01
  L 26.14 52.07
  A 0.44 0.38 -36.7 0 1 25.54 52.03"
/>
<path stroke="#e29996" vector-effect="non-scaling-stroke" d="
  M 64.22 78.59
  Q 63.16 78.82 62.64 77.67
  A 0.92 0.76 76.8 0 0 61.95 77.15
  C 52.93 76.57 61.86 88.55 63.64 90.67
  A 0.40 0.38 41.8 0 0 64.27 90.65
  L 69.75 82.00
  Q 71.47 79.28 68.91 77.62
  Q 66.45 76.03 64.96 78.03
  A 1.46 0.77 -65.0 0 1 64.22 78.59"
/>
<path stroke="#e29996" vector-effect="non-scaling-stroke" d="
  M 95.99 111.18
  C 93.47 115.77 97.16 121.01 101.83 116.00
  A 0.49 0.49 53.2 0 1 102.63 116.12
  C 104.83 120.58 110.43 116.50 108.41 111.80
  Q 106.58 107.54 102.49 102.34
  A 0.40 0.40 45.8 0 0 101.86 102.33
  Q 98.75 106.15 95.99 111.18"
/>
<path stroke="#e29996" vector-effect="non-scaling-stroke" d="
  M 59.94 122.81
  Q 62.10 123.78 63.69 121.54
  A 0.47 0.47 -54.2 0 1 64.36 121.43
  L 66.16 122.75
  A 1.18 1.09 -31.7 0 0 67.07 122.93
  C 73.91 121.52 66.68 112.14 64.71 109.63
  A 0.80 0.80 -46.2 0 0 63.44 109.66
  C 61.49 112.36 54.78 120.51 59.94 122.81"
/>
<path stroke="#e29996" vector-effect="non-scaling-stroke" d="
  M 100.62 146.80
  L 107.16 140.30
  A 0.77 0.61 -38.2 0 0 107.35 139.52
  Q 106.78 138.36 105.70 137.59
  A 0.77 0.66 -43.0 0 0 104.88 137.62
  Q 102.33 139.36 99.76 138.23
  C 90.41 134.13 102.90 119.98 107.81 131.03
  A 0.70 0.65 73.9 0 0 108.50 131.44
  Q 109.67 131.27 110.65 130.57
  A 0.68 0.64 61.9 0 0 110.86 129.79
  C 103.79 112.25 81.66 135.27 99.76 142.11
  A 0.31 0.31 32.8 0 1 99.87 142.62
  L 93.48 148.97
  Q 91.68 150.75 94.01 150.74
  L 109.88 150.69
  A 0.62 0.61 5.7 0 0 110.49 150.20
  Q 111.07 147.33 110.64 144.46
  A 0.81 0.79 -86.8 0 0 110.08 143.81
  Q 106.42 142.78 107.23 146.57
  A 0.45 0.41 83.0 0 1 106.85 147.11
  L 100.81 147.22
  Q 100.19 147.23 100.62 146.80"
/>
</g>
<path fill="#020101" fill-opacity="0.043" d="
  M 111.75 158.46
  Q 113.01 156.57 115.14 155.69
  A 0.42 0.37 67.7 0 0 115.32 155.16
  Q 115.13 154.68 115.76 154.69
  A 0.91 0.85 -70.3 0 0 116.49 154.31
  L 118.29 151.69
  A 0.66 0.59 -48.2 0 0 118.29 150.95
  Q 117.36 149.78 118.55 148.99
  A 0.76 0.71 -23.4 0 0 118.87 148.25
  Q 118.58 146.72 118.95 145.43
  C 119.98 141.86 118.92 138.96 119.27 135.73
  C 119.80 130.81 119.60 126.03 119.66 120.98
  C 119.80 109.59 119.38 97.30 119.65 82.63
  C 119.67 81.75 119.20 80.22 119.38 79.36
  Q 119.79 77.45 119.78 77.05
  Q 119.57 62.90 119.58 48.75
  A 0.53 0.38 -31.4 0 1 119.71 48.44
  L 119.82 48.31
  A 0.47 0.36 46.0 0 0 119.76 47.76
  Q 119.15 47.08 119.67 46.35
  A 0.71 0.59 49.4 0 0 119.66 45.63
  Q 119.45 45.30 119.48 44.75
  C 119.76 39.52 121.21 15.05 115.65 12.42
  A 1.18 1.15 -87.2 0 1 115.05 11.74
  Q 114.46 10.03 112.52 10.44
  A 0.91 0.85 59.8 0 1 111.72 10.20
  Q 111.03 9.55 110.02 9.48
  A 0.56 0.50 88.4 0 1 109.55 8.98
  L 109.45 7.98
  A 0.73 0.54 0.8 0 0 108.80 7.48
  Q 107.04 7.33 105.65 6.35
  A 1.70 1.41 58.0 0 0 104.75 6.05
  Q 67.27 5.94 29.82 6.07
  C 23.19 6.09 18.05 7.12 13.31 11.04
  Q 10.77 13.15 9.45 16.65
  C 9.10 17.57 9.43 18.20 8.48 19.15
  A 0.93 0.83 -30.6 0 0 8.22 19.96
  Q 8.75 22.36 7.54 24.33
  A 1.90 1.34 -37.1 0 0 7.25 25.24
  Q 7.25 83.56 7.25 141.88
  C 7.25 144.11 8.32 145.86 8.29 148.27
  A 1.04 0.83 23.0 0 0 8.70 149.03
  Q 9.60 149.74 9.32 151.08
  A 0.57 0.52 16.1 0 0 9.69 151.68
  C 10.37 151.94 10.41 152.98 10.71 153.54
  Q 12.18 156.23 14.97 157.54
  Q 18.49 159.19 22.24 159.95
  C 26.69 160.86 67.98 160.37 68.03 160.48
  A 0.42 0.27 74.2 0 0 68.33 160.75
  Q 88.94 161.26 109.51 159.92
  Q 109.20 160.87 108.32 161.53
  A 3.65 1.30 2.3 0 1 106.42 162.12
  C 99.46 162.91 91.36 162.70 85.70 162.82
  Q 80.43 162.93 75.15 163.04
  Q 71.88 163.11 62.18 162.94
  Q 55.70 162.83 49.20 163.22
  Q 45.52 163.45 41.87 163.13
  C 35.29 162.56 29.00 163.29 22.46 162.71
  A 0.88 0.52 67.0 0 1 21.91 162.31
  L 21.80 162.14
  A 0.40 0.31 -17.6 0 0 21.45 162.01
  Q 16.17 162.55 11.52 158.87
  Q 11.33 158.72 11.20 158.51
  Q 10.06 156.65 8.70 154.81
  Q 7.07 152.60 6.46 151.01
  Q 4.71 146.39 4.98 141.45
  Q 5.27 136.11 5.27 136.03
  Q 5.23 79.39 5.30 22.75
  Q 5.30 19.40 6.77 16.43
  A 1.97 0.98 71.5 0 0 6.90 15.50
  Q 6.84 14.72 7.51 14.39
  A 0.70 0.63 -17.6 0 0 7.90 13.73
  Q 7.79 12.76 8.51 12.59
  A 0.51 0.45 -10.0 0 0 8.91 12.08
  Q 8.79 11.08 9.42 10.48
  A 0.19 0.18 27.8 0 1 9.56 10.44
  Q 11.94 10.78 11.36 9.55
  Q 11.20 9.22 11.22 8.98
  Q 11.28 8.15 11.67 8.98
  Q 11.82 9.27 11.97 9.00
  Q 12.91 7.30 14.65 7.32
  A 0.63 0.62 8.0 0 0 15.25 6.87
  Q 15.48 6.06 16.08 5.66
  A 1.44 0.88 25.0 0 1 17.03 5.55
  C 20.75 6.27 25.07 5.52 27.73 5.52
  Q 66.37 5.48 105.01 5.50
  A 1.29 0.78 -11.0 0 1 105.88 5.82
  L 106.12 6.11
  A 1.07 0.66 64.2 0 0 106.71 6.49
  Q 110.58 7.04 113.79 9.21
  C 115.77 10.54 116.51 12.85 118.57 14.51
  A 1.38 0.92 -83.0 0 1 118.97 15.31
  Q 119.08 16.06 119.77 16.89
  A 0.53 0.48 -70.4 0 1 119.90 17.21
  Q 119.98 18.95 120.96 20.35
  A 1.66 1.53 28.7 0 1 121.26 21.24
  L 121.58 44.95
  Q 121.60 46.29 122.04 45.36
  L 122.23 44.94
  Q 122.35 44.69 122.35 44.95
  Q 122.49 61.23 122.54 77.51
  Q 122.54 79.47 121.62 80.46
  A 1.35 0.98 -29.8 0 0 121.25 81.28
  C 121.25 92.70 122.14 105.17 120.81 116.42
  Q 120.61 118.14 120.90 120.44
  Q 121.39 124.28 120.46 143.75
  A 1.87 1.39 38.6 0 0 120.70 144.66
  Q 121.59 146.20 120.47 147.62
  A 0.99 0.98 57.8 0 0 120.28 148.48
  Q 120.67 150.03 119.44 150.74
  A 0.96 0.78 79.4 0 0 119.05 151.46
  C 118.97 152.76 116.56 155.22 115.66 156.20
  A 1.94 1.61 8.3 0 1 114.84 156.70
  Q 113.11 157.23 111.75 158.46
  Z"
/>
<path fill="#010000" fill-opacity="0.110" d="
  M 111.75 158.46
  Q 110.35 158.44 109.51 159.92
  Q 88.94 161.26 68.33 160.75
  A 0.42 0.27 74.2 0 1 68.03 160.48
  C 67.98 160.37 26.69 160.86 22.24 159.95
  Q 18.49 159.19 14.97 157.54
  Q 12.18 156.23 10.71 153.54
  C 10.41 152.98 10.37 151.94 9.69 151.68
  A 0.57 0.52 16.1 0 1 9.32 151.08
  Q 9.60 149.74 8.70 149.03
  A 1.04 0.83 23.0 0 1 8.29 148.27
  C 8.32 145.86 7.25 144.11 7.25 141.88
  Q 7.25 83.56 7.25 25.24
  A 1.90 1.34 -37.1 0 1 7.54 24.33
  Q 8.75 22.36 8.22 19.96
  A 0.93 0.83 -30.6 0 1 8.48 19.15
  C 9.43 18.20 9.10 17.57 9.45 16.65
  Q 10.77 13.15 13.31 11.04
  C 18.05 7.12 23.19 6.09 29.82 6.07
  Q 67.27 5.94 104.75 6.05
  A 1.70 1.41 58.0 0 1 105.65 6.35
  Q 107.04 7.33 108.80 7.48
  A 0.73 0.54 0.8 0 1 109.45 7.98
  L 109.55 8.98
  A 0.56 0.50 88.4 0 0 110.02 9.48
  Q 111.03 9.55 111.72 10.20
  A 0.91 0.85 59.8 0 0 112.52 10.44
  Q 114.46 10.03 115.05 11.74
  A 1.18 1.15 -87.2 0 0 115.65 12.42
  C 121.21 15.05 119.76 39.52 119.48 44.75
  Q 119.45 45.30 119.66 45.63
  A 0.71 0.59 49.4 0 1 119.67 46.35
  Q 119.15 47.08 119.76 47.76
  A 0.47 0.36 46.0 0 1 119.82 48.31
  L 119.71 48.44
  A 0.53 0.38 -31.4 0 0 119.58 48.75
  Q 119.57 62.90 119.78 77.05
  Q 119.79 77.45 119.38 79.36
  C 119.20 80.22 119.67 81.75 119.65 82.63
  C 119.38 97.30 119.80 109.59 119.66 120.98
  C 119.60 126.03 119.80 130.81 119.27 135.73
  C 118.92 138.96 119.98 141.86 118.95 145.43
  Q 118.58 146.72 118.87 148.25
  A 0.76 0.71 -23.4 0 1 118.55 148.99
  Q 117.36 149.78 118.29 150.95
  A 0.66 0.59 -48.2 0 1 118.29 151.69
  L 116.49 154.31
  A 0.91 0.85 -70.3 0 1 115.76 154.69
  Q 115.13 154.68 115.32 155.16
  A 0.42 0.37 67.7 0 1 115.14 155.69
  Q 113.01 156.57 111.75 158.46
  Z
  M 107.33 11.67
  Q 110.71 12.55 108.08 11.13
  C 106.98 10.54 101.25 10.50 99.86 10.50
  Q 61.65 10.48 23.44 10.56
  Q 21.04 10.56 21.84 11.24
  A 1.46 0.93 -15.7 0 0 22.74 11.51
  Q 64.64 11.44 106.53 11.56
  Q 106.93 11.56 107.33 11.67
  Z
  M 14.10 18.49
  L 13.71 21.00
  Q 12.82 21.09 11.94 19.57
  Q 11.76 19.24 11.73 19.62
  C 11.60 22.05 11.00 24.47 11.00 26.81
  Q 10.99 84.99 11.01 143.16
  C 11.01 145.02 11.62 147.15 11.51 149.25
  A 1.36 1.28 -64.8 0 0 11.80 150.14
  Q 13.01 151.56 14.08 153.11
  Q 15.30 154.86 16.66 155.73
  Q 21.08 158.55 24.75 158.54
  Q 48.12 158.52 71.50 158.72
  Q 79.04 158.79 81.65 159.22
  C 81.91 159.26 81.87 159.25 82.00 159.07
  A 0.49 0.20 -60.3 0 1 82.31 158.83
  L 104.44 158.72
  A 1.33 1.14 -63.5 0 0 105.29 158.36
  Q 106.35 157.33 107.72 157.44
  A 1.35 0.84 16.9 0 0 108.62 157.20
  L 112.19 153.90
  A 0.95 0.81 27.1 0 1 113.00 153.71
  Q 113.61 153.86 113.58 153.08
  A 0.67 0.66 -12.7 0 1 113.99 152.44
  Q 114.79 152.10 114.97 151.24
  Q 115.09 150.68 115.32 150.34
  L 116.93 147.86
  A 1.60 1.27 64.9 0 0 117.15 146.93
  C 116.97 144.15 117.48 141.14 117.45 138.70
  Q 116.75 91.09 117.13 68.56
  Q 117.63 38.77 117.45 24.79
  A 1.80 1.45 32.6 0 0 117.15 23.90
  Q 115.88 22.06 115.94 19.85
  A 0.39 0.27 -85.7 0 0 115.72 19.47
  Q 115.59 19.45 115.44 19.51
  A 0.80 0.56 83.8 0 0 115.06 20.20
  L 114.89 43.94
  Q 114.89 44.14 114.88 43.93
  L 114.44 27.26
  C 116.36 16.98 110.99 12.76 101.81 12.75
  Q 63.41 12.73 25.02 12.77
  C 19.75 12.78 16.61 14.05 14.10 18.49
  Z"
/>
<path fill="#000102" fill-opacity="0.235" d="
  M 106.53 11.56
  Q 64.64 11.44 22.74 11.51
  A 1.46 0.93 -15.7 0 1 21.84 11.24
  Q 21.04 10.56 23.44 10.56
  Q 61.65 10.48 99.86 10.50
  C 101.25 10.50 106.98 10.54 108.08 11.13
  Q 110.71 12.55 107.33 11.67
  Q 106.93 11.56 106.53 11.56
  Z"
/>
<path fill="#ffffff" d="
  M 114.44 27.26
  L 114.46 46.50
  Q 113.94 60.25 114.46 74.00
  Q 114.53 108.15 114.49 142.29
  C 114.48 158.62 103.43 155.23 91.45 155.24
  Q 56.75 155.27 22.06 155.23
  Q 19.77 155.23 17.00 152.96
  Q 14.00 148.78 14.00 147.25
  Q 13.92 82.88 14.10 18.49
  C 16.61 14.05 19.75 12.78 25.02 12.77
  Q 63.41 12.73 101.81 12.75
  C 110.99 12.76 116.36 16.98 114.44 27.26
  Z
  M 21.31 20.78
  L 27.29 20.91
  Q 27.87 20.92 27.45 21.33
  L 20.78 27.84
  A 0.67 0.59 -38.1 0 0 20.64 28.62
  Q 21.25 29.66 22.32 30.30
  A 0.92 0.80 -41.0 0 0 23.19 30.30
  C 29.97 26.73 34.49 35.19 29.29 39.53
  C 26.05 42.24 21.92 40.89 20.29 37.09
  A 0.82 0.68 76.6 0 0 19.62 36.59
  Q 18.24 36.60 17.23 37.59
  A 0.71 0.69 54.6 0 0 17.11 38.40
  C 25.65 55.68 45.52 32.32 28.23 25.87
  A 0.31 0.30 33.1 0 1 28.12 25.37
  L 34.35 19.25
  Q 36.39 17.25 33.51 17.26
  L 17.91 17.32
  A 0.55 0.51 0.0 0 0 17.36 17.83
  L 17.30 23.47
  A 0.75 0.69 9.9 0 0 17.82 24.14
  Q 21.60 25.41 20.91 21.31
  A 0.46 0.41 85.3 0 1 21.31 20.78
  Z
  M 69.50 46.43
  C 66.84 41.85 64.18 48.91 62.64 45.71
  A 1.02 0.80 77.0 0 0 61.96 45.16
  C 52.82 43.99 62.00 56.75 63.66 58.68
  A 0.40 0.38 42.0 0 0 64.28 58.66
  L 69.53 50.55
  Q 70.78 48.62 69.50 46.43
  Z
  M 25.54 52.03
  C 23.16 48.69 19.38 49.94 19.17 53.62
  C 18.97 57.15 23.37 62.93 25.57 65.61
  A 0.43 0.42 44.6 0 0 26.22 65.61
  C 28.54 62.78 37.56 51.51 29.57 49.84
  A 1.20 0.88 25.7 0 0 28.65 50.01
  L 26.14 52.07
  A 0.44 0.38 -36.7 0 1 25.54 52.03
  Z
  M 64.22 78.59
  Q 63.16 78.82 62.64 77.67
  A 0.92 0.76 76.8 0 0 61.95 77.15
  C 52.93 76.57 61.86 88.55 63.64 90.67
  A 0.40 0.38 41.8 0 0 64.27 90.65
  L 69.75 82.00
  Q 71.47 79.28 68.91 77.62
  Q 66.45 76.03 64.96 78.03
  A 1.46 0.77 -65.0 0 1 64.22 78.59
  Z
  M 95.99 111.18
  C 93.47 115.77 97.16 121.01 101.83 116.00
  A 0.49 0.49 53.2 0 1 102.63 116.12
  C 104.83 120.58 110.43 116.50 108.41 111.80
  Q 106.58 107.54 102.49 102.34
  A 0.40 0.40 45.8 0 0 101.86 102.33
  Q 98.75 106.15 95.99 111.18
  Z
  M 59.94 122.81
  Q 62.10 123.78 63.69 121.54
  A 0.47 0.47 -54.2 0 1 64.36 121.43
  L 66.16 122.75
  A 1.18 1.09 -31.7 0 0 67.07 122.93
  C 73.91 121.52 66.68 112.14 64.71 109.63
  A 0.80 0.80 -46.2 0 0 63.44 109.66
  C 61.49 112.36 54.78 120.51 59.94 122.81
  Z
  M 100.62 146.80
  L 107.16 140.30
  A 0.77 0.61 -38.2 0 0 107.35 139.52
  Q 106.78 138.36 105.70 137.59
  A 0.77 0.66 -43.0 0 0 104.88 137.62
  Q 102.33 139.36 99.76 138.23
  C 90.41 134.13 102.90 119.98 107.81 131.03
  A 0.70 0.65 73.9 0 0 108.50 131.44
  Q 109.67 131.27 110.65 130.57
  A 0.68 0.64 61.9 0 0 110.86 129.79
  C 103.79 112.25 81.66 135.27 99.76 142.11
  A 0.31 0.31 32.8 0 1 99.87 142.62
  L 93.48 148.97
  Q 91.68 150.75 94.01 150.74
  L 109.88 150.69
  A 0.62 0.61 5.7 0 0 110.49 150.20
  Q 111.07 147.33 110.64 144.46
  A 0.81 0.79 -86.8 0 0 110.08 143.81
  Q 106.42 142.78 107.23 146.57
  A 0.45 0.41 83.0 0 1 106.85 147.11
  L 100.81 147.22
  Q 100.19 147.23 100.62 146.80
  Z"
/>
<path fill="#c4332c" d="
  M 20.91 21.31
  Q 21.60 25.41 17.82 24.14
  A 0.75 0.69 9.9 0 1 17.30 23.47
  L 17.36 17.83
  A 0.55 0.51 -0.0 0 1 17.91 17.32
  L 33.51 17.26
  Q 36.39 17.25 34.35 19.25
  L 28.12 25.37
  A 0.31 0.30 33.1 0 0 28.23 25.87
  C 45.52 32.32 25.65 55.68 17.11 38.40
  A 0.71 0.69 54.6 0 1 17.23 37.59
  Q 18.24 36.60 19.62 36.59
  A 0.82 0.68 76.6 0 1 20.29 37.09
  C 21.92 40.89 26.05 42.24 29.29 39.53
  C 34.49 35.19 29.97 26.73 23.19 30.30
  A 0.92 0.80 -41.0 0 1 22.32 30.30
  Q 21.25 29.66 20.64 28.62
  A 0.67 0.59 -38.1 0 1 20.78 27.84
  L 27.45 21.33
  Q 27.87 20.92 27.29 20.91
  L 21.31 20.78
  A 0.46 0.41 85.3 0 0 20.91 21.31
  Z"
/>
<path fill="#f2f4f6" fill-opacity="0.969" d="
  M 14.10 18.49
  Q 13.92 82.88 14.00 147.25
  Q 14.00 148.78 17.00 152.96
  Q 13.60 150.10 13.56 146.69
  Q 13.12 110.00 13.71 21.00
  L 14.10 18.49
  Z"
/>
<path fill="#020403" fill-opacity="0.192" d="
  M 13.71 21.00
  Q 13.12 110.00 13.56 146.69
  Q 13.60 150.10 17.00 152.96
  Q 19.77 155.23 22.06 155.23
  Q 56.75 155.27 91.45 155.24
  C 103.43 155.23 114.48 158.62 114.49 142.29
  Q 114.53 108.15 114.46 74.00
  Q 115.11 60.25 114.46 46.50
  L 114.44 27.26
  L 114.88 43.93
  Q 114.89 44.14 114.89 43.94
  L 115.06 20.20
  A 0.80 0.56 83.8 0 1 115.44 19.51
  Q 115.59 19.45 115.72 19.47
  A 0.39 0.27 -85.7 0 1 115.94 19.85
  Q 115.88 22.06 117.15 23.90
  A 1.80 1.45 32.6 0 1 117.45 24.79
  Q 117.63 38.77 117.13 68.56
  Q 116.75 91.09 117.45 138.70
  C 117.48 141.14 116.97 144.15 117.15 146.93
  A 1.60 1.27 64.9 0 1 116.93 147.86
  L 115.32 150.34
  Q 115.09 150.68 114.97 151.24
  Q 114.79 152.10 113.99 152.44
  A 0.67 0.66 -12.7 0 0 113.58 153.08
  Q 113.61 153.86 113.00 153.71
  A 0.95 0.81 27.1 0 0 112.19 153.90
  L 108.62 157.20
  A 1.35 0.84 16.9 0 1 107.72 157.44
  Q 106.35 157.33 105.29 158.36
  A 1.33 1.14 -63.5 0 1 104.44 158.72
  L 82.31 158.83
  A 0.49 0.20 -60.3 0 0 82.00 159.07
  C 81.87 159.25 81.91 159.26 81.65 159.22
  Q 79.04 158.79 71.50 158.72
  Q 48.12 158.52 24.75 158.54
  Q 21.08 158.55 16.66 155.73
  Q 15.30 154.86 14.08 153.11
  Q 13.01 151.56 11.80 150.14
  A 1.36 1.28 -64.8 0 1 11.51 149.25
  C 11.62 147.15 11.01 145.02 11.01 143.16
  Q 10.99 84.99 11.00 26.81
  C 11.00 24.47 11.60 22.05 11.73 19.62
  Q 11.76 19.24 11.94 19.57
  Q 12.82 21.09 13.71 21.00
  Z"
/>
<path fill="#c4332c" d="
  M 62.64 45.71
  C 64.18 48.91 66.84 41.85 69.50 46.43
  Q 70.78 48.62 69.53 50.55
  L 64.28 58.66
  A 0.40 0.38 42.0 0 1 63.66 58.68
  C 62.00 56.75 52.82 43.99 61.96 45.16
  A 1.02 0.80 77.0 0 1 62.64 45.71
  Z"
/>
<path fill="#f3efed" fill-opacity="0.898" d="
  M 114.46 46.50
  Q 115.11 60.25 114.46 74.00
  Q 113.94 60.25 114.46 46.50
  Z"
/>
<path fill="#c4332c" d="
  M 26.14 52.07
  L 28.65 50.01
  A 1.20 0.88 25.7 0 1 29.57 49.84
  C 37.56 51.51 28.54 62.78 26.22 65.61
  A 0.43 0.42 44.6 0 1 25.57 65.61
  C 23.37 62.93 18.97 57.15 19.17 53.62
  C 19.38 49.94 23.16 48.69 25.54 52.03
  A 0.44 0.38 -36.7 0 0 26.14 52.07
  Z"
/>
<path fill="#c4332c" d="
  M 64.96 78.03
  Q 66.45 76.03 68.91 77.62
  Q 71.47 79.28 69.75 82.00
  L 64.27 90.65
  A 0.40 0.38 41.8 0 1 63.64 90.67
  C 61.86 88.55 52.93 76.57 61.95 77.15
  A 0.92 0.76 76.8 0 1 62.64 77.67
  Q 63.16 78.82 64.22 78.59
  A 1.46 0.77 -65.0 0 0 64.96 78.03
  Z"
/>
<path fill="#c4332c" d="
  M 101.83 116.00
  C 97.16 121.01 93.47 115.77 95.99 111.18
  Q 98.75 106.15 101.86 102.33
  A 0.40 0.40 45.8 0 1 102.49 102.34
  Q 106.58 107.54 108.41 111.80
  C 110.43 116.50 104.83 120.58 102.63 116.12
  A 0.49 0.49 53.2 0 0 101.83 116.00
  Z"
/>
<path fill="#c4332c" d="
  M 59.94 122.81
  C 54.78 120.51 61.49 112.36 63.44 109.66
  A 0.80 0.80 -46.2 0 1 64.71 109.63
  C 66.68 112.14 73.91 121.52 67.07 122.93
  A 1.18 1.09 -31.7 0 1 66.16 122.75
  L 64.36 121.43
  A 0.47 0.47 -54.2 0 0 63.69 121.54
  Q 62.10 123.78 59.94 122.81
  Z"
/>
<path fill="#c4332c" d="
  M 100.81 147.22
  L 106.85 147.11
  A 0.45 0.41 83.0 0 0 107.23 146.57
  Q 106.42 142.78 110.08 143.81
  A 0.81 0.79 -86.8 0 1 110.64 144.46
  Q 111.07 147.33 110.49 150.20
  A 0.62 0.61 5.7 0 1 109.88 150.69
  L 94.01 150.74
  Q 91.68 150.75 93.48 148.97
  L 99.87 142.62
  A 0.31 0.31 32.8 0 0 99.76 142.11
  C 81.66 135.27 103.79 112.25 110.86 129.79
  A 0.68 0.64 61.9 0 1 110.65 130.57
  Q 109.67 131.27 108.50 131.44
  A 0.70 0.65 73.9 0 1 107.81 131.03
  C 102.90 119.98 90.41 134.13 99.76 138.23
  Q 102.33 139.36 104.88 137.62
  A 0.77 0.66 -43.0 0 1 105.70 137.59
  Q 106.78 138.36 107.35 139.52
  A 0.77 0.61 -38.2 0 1 107.16 140.30
  L 100.62 146.80
  Q 100.19 147.23 100.81 147.22
  Z"
/>
</svg>
