<?xml version="1.0" encoding="utf-8"?>
<!-- Generator: Adobe Illustrator 27.0.1, SVG Export Plug-In . SVG Version: 6.00 Build 0)  -->
<svg version="1.1" id="Слой_1" xmlns="http://www.w3.org/2000/svg" xmlns:xlink="http://www.w3.org/1999/xlink" x="0px" y="0px"
	 viewBox="0 0 128 168" style="enable-background:new 0 0 128 168;" xml:space="preserve">
<style type="text/css">
	.st0{fill:#D8D8D8;}
	.st1{fill:#AAAAAA;}
	.st2{fill:#FFFFFF;}
	.st3{fill:#C4332C;}
</style>
<g>
	<path class="st0" d="M107.9,161.7H20.1c-6.9,0-12.4-5.6-12.4-12.4V18.8c0-6.9,5.6-12.4,12.4-12.4h87.8c6.9,0,12.4,5.6,12.4,12.4
		v130.5C120.3,156.1,114.8,161.7,107.9,161.7z"/>
	<path class="st1" d="M106.9,157.8H21.1c-5.5,0-9.9-4.4-9.9-9.9V19.8c0-5.5,4.4-9.9,9.9-9.9h85.8c5.5,0,9.9,4.4,9.9,9.9v128.1
		C116.8,153.4,112.4,157.8,106.9,157.8z"/>
	<path class="st2" d="M106.6,154.8H21.4c-4.4,0-8-3.6-8-8V20.9c0-4.4,3.6-8,8-8h85.2c4.4,0,8,3.6,8,8v125.9
		C114.6,151.2,111,154.8,106.6,154.8z"/>
</g>
<g>
	<path class="st3" d="M27.7,40.2v-1.9c0-0.3-0.2-0.5-0.5-0.5h-9.4c-0.3,0-0.5-0.2-0.5-0.5c-0.1-1.2-0.2-2.1,0.5-3.1
		c3.3-5.1,6.5-10.3,9.7-15.5c0.9-1.4,1.8-1.9,3.4-1.3c0.3,0.1,0.5,0.4,0.5,0.7l0.1,15.6c0,0.3,0.2,0.5,0.5,0.4
		c2.6-0.3,3.4,0.8,2.4,3.3c-0.1,0.3-0.4,0.4-0.7,0.4c-2-0.4-2.7,0.4-2.3,2.3c0.1,0.3,0.3,0.5,0.6,0.6c1.2,0.5,1.6,1.5,1.2,3.1
		c-0.1,0.3-0.3,0.5-0.7,0.5h-6c-0.3,0-0.6-0.2-0.7-0.5c-0.6-1.8-0.1-2.8,1.5-3C27.5,40.7,27.7,40.5,27.7,40.2z M27.2,25.4L22,33.7
		c-0.2,0.3-0.1,0.5,0.2,0.5h4.9c0.3,0,0.5-0.3,0.5-0.5v-8.2C27.6,24.9,27.5,24.9,27.2,25.4z"/>
	<path class="st2" d="M27.2,25.4c0.3-0.4,0.4-0.4,0.4,0.1v8.2c0,0.3-0.2,0.5-0.5,0.5h-4.9c-0.4,0-0.4-0.2-0.2-0.5L27.2,25.4z"/>
	<path class="st3" d="M51.2,45c7.1,0.9-1.7,11.9-3,13.6c-0.2,0.2-0.5,0.2-0.6,0c-2.7-3.2-10.2-13.9-1.7-13.5c0.3,0,0.5,0.2,0.7,0.5
		c0.3,0.5,0.6,0.8,1.1,1c0.3,0.1,0.6,0,0.8-0.3C49.2,45.3,50.2,44.9,51.2,45z"/>
	<path class="st3" d="M84.6,45.4c4,2.9-2,10.3-4.3,13.2c-0.2,0.2-0.5,0.2-0.6,0C77,55.4,69.5,44.7,78,45.1c0.3,0,0.5,0.2,0.7,0.5
		c0.3,0.5,0.6,0.8,1.1,1c0.3,0.1,0.6,0,0.8-0.3C81.7,44.6,83,44.3,84.6,45.4z"/>
	<path class="st3" d="M26.1,52.1c2.9-3.4,5.2-3,6.8,1.2c0.1,0.3,0.1,0.6,0,0.9c-1.6,4.2-3.8,8-6.7,11.4c-0.2,0.2-0.5,0.2-0.7,0
		c-3-3.3-5.1-7.1-6.5-11.3c-0.1-0.3-0.1-0.7,0-1c1.6-4,3.7-4.4,6.5-1.3C25.7,52.3,26,52.3,26.1,52.1z"/>
	<path class="st3" d="M101.6,116.2c-3.7,4-7.5,0.6-6.2-3.6c0.8-2.7,3-6.1,6.5-10.3c0.2-0.2,0.5-0.2,0.6,0c2.5,3.3,4.5,6.3,5.8,9.1
		c2.3,4.9-3.5,9.1-5.5,4.9C102.6,116,101.9,115.9,101.6,116.2z"/>
	<path class="st3" d="M75.9,122.8c-5.2-2.4,1.8-10.8,3.8-13.5c0.2-0.2,0.5-0.2,0.7,0c2.2,2.8,8,10,4.3,13.1
		c-0.9,0.7-1.8,0.8-2.9,0.3c-0.5-0.2-0.8-1.2-1.5-1.4c-0.3-0.1-0.6,0-0.8,0.3C78.6,123.1,77.4,123.5,75.9,122.8z"/>
	<path class="st3" d="M48,121.6c-3.4,2.3-5.3,1.8-5.8-1.4c-0.5-3.3,3.7-8.3,5.5-10.9c0.2-0.2,0.6-0.3,0.7,0l5.2,8.3
		c0.9,1.5,0.7,2.9-0.6,4.4c-1.4,1.6-2.8,1.4-4.3-0.3C48.6,121.5,48.3,121.4,48,121.6z"/>
	<path class="st3" d="M100.2,127.8l0.1,1.9c0,0.3,0.3,0.5,0.7,0.5h8.5c1.9,0,2.3,0.9,1.2,2.6l-10.9,17.4c-0.6,0.9-1.8,0.5-2.7,0.4
		c-0.3-0.1-0.5-0.4-0.5-0.7l-0.1-15.7c0-0.3-0.2-0.4-0.5-0.4c-2.6,0.4-3.5-0.6-2.6-3.2c0.1-0.3,0.4-0.4,0.7-0.4
		c2,0.4,2.9-0.4,2.6-2.4c0-0.3-0.3-0.5-0.6-0.6c-1.4-0.4-1.8-1.4-1.1-3.1c0.1-0.3,0.4-0.5,0.7-0.5h5.9c0.3,0,0.5,0.2,0.5,0.5v2.4
		c0,0.7-1,0.5-1.4,0.6C100.5,127.3,100.2,127.5,100.2,127.8z M100.7,142.7l5.2-8.3c0.2-0.3,0.1-0.5-0.2-0.5l-5-0.1
		c-0.3,0-0.5,0.2-0.5,0.5v8.2C100.2,143.1,100.4,143.2,100.7,142.7z"/>
	<path class="st2" d="M100.7,142.7c-0.3,0.5-0.5,0.5-0.5-0.1v-8.2c0-0.3,0.2-0.5,0.5-0.5l5,0.1c0.4,0,0.5,0.2,0.2,0.5L100.7,142.7z"
		/>
</g>
</svg>
