<?xml version="1.0" encoding="utf-8"?>
<!-- Generator: Adobe Illustrator 27.0.1, SVG Export Plug-In . SVG Version: 6.00 Build 0)  -->
<svg version="1.1" id="Слой_1" xmlns="http://www.w3.org/2000/svg" xmlns:xlink="http://www.w3.org/1999/xlink" x="0px" y="0px"
	 viewBox="0 0 128 168" style="enable-background:new 0 0 128 168;" xml:space="preserve">
<style type="text/css">
	.st0{fill:#D8D8D8;}
	.st1{fill:#AAAAAA;}
	.st2{fill:#FFFFFF;}
	.st3{fill:#C4332C;}
</style>
<g>
	<path class="st0" d="M107.9,161.7H20.1c-6.9,0-12.4-5.6-12.4-12.4V18.8c0-6.9,5.6-12.4,12.4-12.4h87.8c6.9,0,12.4,5.6,12.4,12.4
		v130.5C120.3,156.1,114.8,161.7,107.9,161.7z"/>
	<path class="st1" d="M106.9,157.8H21.1c-5.5,0-9.9-4.4-9.9-9.9V19.8c0-5.5,4.4-9.9,9.9-9.9h85.8c5.5,0,9.9,4.4,9.9,9.9v128.1
		C116.8,153.4,112.4,157.8,106.9,157.8z"/>
	<path class="st2" d="M106.6,154.8H21.4c-4.4,0-8-3.6-8-8V20.9c0-4.4,3.6-8,8-8h85.2c4.4,0,8,3.6,8,8v125.9
		C114.6,151.2,111,154.8,106.6,154.8z"/>
</g>
<g>
	<path class="st3" d="M23,40.8c1.4,0.5,1.7,1.6,1.1,3.2c-0.1,0.3-0.4,0.5-0.7,0.5l-5.7-0.1c-0.3,0-0.6-0.2-0.7-0.5
		c-0.7-2-0.1-3,1.8-3.1c0.3,0,0.5-0.2,0.6-0.5l4.1-22.2c0.1-0.3,0.3-0.6,0.6-0.7c1.1-0.4,2.1-0.4,3.2-0.1c0.3,0.1,0.5,0.3,0.6,0.6
		l4.2,22.4c0.1,0.3,0.3,0.5,0.6,0.5c1.9,0.1,2.5,1.2,1.7,3.2c-0.1,0.3-0.4,0.5-0.7,0.5l-5.8-0.1c-0.3,0-0.6-0.2-0.6-0.5v-2.1
		c0-0.3,0.2-0.5,0.5-0.7c1.1-0.5,1.3-1.3,0.7-2.5c-0.2-0.3-0.5-0.4-0.8-0.4h-3.9c-0.3,0-0.6,0.2-0.6,0.5l-0.4,1.4
		C22.6,40.5,22.8,40.7,23,40.8z M25.5,25.9l-1.6,8.3c-0.1,0.3,0.1,0.6,0.4,0.6c1,0.3,2,0.3,3,0c0.3-0.1,0.4-0.4,0.4-0.7L26,25.9
		C25.8,25.2,25.7,25.2,25.5,25.9z"/>
	<path class="st2" d="M25.5,25.9c0.1-0.8,0.3-0.8,0.4,0l1.7,8.3c0.1,0.3-0.1,0.6-0.4,0.7c-1,0.3-2,0.3-3,0c-0.3-0.1-0.4-0.4-0.4-0.6
		L25.5,25.9z"/>
	<path class="st3" d="M26.1,52c1.7-2.4,3.5-2.9,5.4-1.4c1.8,1.4,2.1,3.1,1.1,5.1c-1.8,3.6-3.9,6.9-6.3,9.9c-0.1,0.2-0.4,0.2-0.6,0.1
		c0,0,0,0-0.1-0.1c-3-3.5-5.2-7.3-6.6-11.4c-0.1-0.3-0.1-0.6,0-0.9c1.6-4,3.7-4.4,6.4-1.3C25.6,52.2,25.9,52.2,26.1,52
		C26,52.1,26.1,52.1,26.1,52z"/>
	<path class="st3" d="M63.5,77.3c0.1,0.2,0.3,0.2,0.4,0.1c0,0,0.1,0,0.1-0.1c2.8-3.3,5.2-3.6,7-1.1c3.2,4.4-4.5,13.7-6.8,16.8
		c-0.1,0.2-0.4,0.2-0.5,0.1c0,0-0.1,0-0.1-0.1c-2.9-3.6-5.3-7.5-7.2-11.7c-0.9-1.9-0.6-3.6,0.8-5.2C59.3,73.7,61.5,74,63.5,77.3z"/>
	<path class="st3" d="M95.9,116.7c-2.8-3.4,3.5-11.4,5.9-14.4c0.1-0.2,0.4-0.2,0.6,0c0,0,0,0,0.1,0.1c2.5,3.3,4.5,6.3,5.8,9.1
		c2.3,4.9-3.4,9.3-5.7,4.6c-0.1-0.2-0.4-0.3-0.6-0.2C100.1,117.8,98.1,119.4,95.9,116.7z"/>
	<path class="st3" d="M100.3,129.7h3.9c0.3,0,0.6-0.2,0.8-0.4c0.7-1.2,0.5-2-0.6-2.4c-0.3-0.1-0.5-0.4-0.5-0.6v-2.1
		c0-0.3,0.3-0.5,0.6-0.5h5.9c0.3,0,0.6,0.2,0.7,0.5c0.7,2,0.1,3-1.8,3c-0.3,0-0.5,0.2-0.6,0.5l-4,21.8c-0.1,0.3-0.2,0.6-0.5,0.8
		c-1,0.7-2.1,0.8-3.4,0.4c-0.3-0.1-0.5-0.3-0.6-0.7L96,127.6c0-0.3-0.3-0.5-0.6-0.5c-1.9-0.1-2.5-1.1-1.7-3.2
		c0.1-0.3,0.4-0.5,0.7-0.5l5.8,0.1c0.3,0,0.6,0.2,0.6,0.5l0.1,2.1c0,0.3-0.2,0.5-0.5,0.6c-1.1,0.4-1.3,1.2-0.6,2.4
		C99.7,129.5,100,129.7,100.3,129.7z M102.6,141.2l1.5-7.4c0.1-0.3-0.1-0.6-0.4-0.6c-1-0.3-2-0.3-3,0c-0.3,0.1-0.4,0.4-0.4,0.6
		l1.4,7.4C102,142.7,102.3,142.7,102.6,141.2z"/>
	<path class="st2" d="M102.6,141.2c-0.3,1.5-0.6,1.5-0.9,0l-1.4-7.4c-0.1-0.3,0.1-0.6,0.4-0.6c1-0.3,2-0.3,3,0
		c0.3,0.1,0.4,0.4,0.4,0.6L102.6,141.2z"/>
</g>
</svg>
