<?xml version="1.0" encoding="utf-8"?>
<!-- Generator: Adobe Illustrator 27.0.1, SVG Export Plug-In . SVG Version: 6.00 Build 0)  -->
<svg version="1.1" id="Слой_1" xmlns="http://www.w3.org/2000/svg" xmlns:xlink="http://www.w3.org/1999/xlink" x="0px" y="0px"
	 viewBox="0 0 128 168" style="enable-background:new 0 0 128 168;" xml:space="preserve">
<style type="text/css">
	.st0{fill:#D8D8D8;}
	.st1{fill:#AAAAAA;}
	.st2{fill:#FFFFFF;}
	.st3{fill:#C4332C;}
	.st4{fill:#1D1F4A;}
	.st5{fill:#212122;}
	.st6{fill:#D9CA33;}
	.st7{fill:#626688;}
	.st8{fill:#18191A;}
	.st9{fill:#292929;}
	.st10{fill:#9F922D;}
	.st11{fill:#C3B52F;}
	.st12{fill:#B2A72E;}
	.st13{fill:#363A56;}
	.st14{fill:#565A7D;}
	.st15{fill:#F3E836;}
	.st16{fill:#C0C0CD;}
	.st17{fill:#F5F3F8;}
	.st18{fill:#717432;}
	.st19{fill:#D7D8DF;}
	.st20{fill:#A9AABD;}
	.st21{fill:#3D3A34;}
	.st22{fill:#515265;}
	.st23{fill:#2D325E;}
	.st24{fill:#8D8FA8;}
	.st25{fill:#5F2839;}
	.st26{fill:#F2F4F6;fill-opacity:0.969;}
	.st27{fill:#B3181E;}
	.st28{fill:#252A52;}
	.st29{fill:#403F21;}
</style>
<g>
	<path class="st0" d="M107.8,162.1H19.9c-6.9,0-12.4-5.6-12.4-12.4V19.2c0-6.9,5.6-12.4,12.4-12.4h87.8c6.9,0,12.4,5.6,12.4,12.4
		v130.5C120.2,156.6,114.6,162.1,107.8,162.1z"/>
	<path class="st1" d="M106.7,158.3H20.9c-5.5,0-9.9-4.4-9.9-9.9V20.3c0-5.5,4.4-9.9,9.9-9.9h85.8c5.5,0,9.9,4.4,9.9,9.9v128.1
		C116.7,153.8,112.2,158.3,106.7,158.3z"/>
	<path class="st2" d="M106.4,155.2H21.3c-4.4,0-8-3.6-8-8V21.4c0-4.4,3.6-8,8-8h85.2c4.4,0,8,3.6,8,8v125.9
		C114.4,151.6,110.9,155.2,106.4,155.2z"/>
</g>
<g>
	<path class="st3" d="M22.9,29.5l5.7-9c0.3-0.4,0.2-0.6-0.4-0.5c-1.9,0.4-2.5-0.4-1.8-2.2c0.1-0.3,0.4-0.5,0.7-0.5h6.7
		c0.3,0,0.6,0.2,0.7,0.5c0.5,1.5-0.2,2.4-1.9,2.4c-0.3,0-0.6,0.2-0.8,0.4l-4.5,7.5c-0.2,0.3-0.2,0.6-0.1,0.9l5,12.1
		c0.1,0.3,0.4,0.4,0.7,0.4c1.6,0,2.1,0.8,1.6,2.4c-0.1,0.3-0.4,0.5-0.7,0.5h-6.5c-0.3,0-0.6-0.2-0.7-0.4c-0.8-1.6-0.2-2.5,1.7-2.5
		c0.3,0,0.4-0.2,0.4-0.4L25,32.7c-0.2-0.4-0.4-0.4-0.7-0.1c-1.8,2.5-2.4,5.3-1.8,8.5c0.1,0.3,0.3,0.5,0.6,0.6c1.3,0.2,1.7,1,1.2,2.3
		c-0.1,0.3-0.4,0.5-0.7,0.5h-5.9c-0.3,0-0.6-0.2-0.7-0.5c-0.6-1.7,0-2.5,1.8-2.3c0.3,0,0.5-0.1,0.5-0.4l0,0V20.5
		c0-0.2-0.2-0.4-0.4-0.4c0,0,0,0-0.1,0c-1.9,0.2-2.5-0.6-1.9-2.3c0.1-0.3,0.4-0.5,0.7-0.5h5.9c0.3,0,0.6,0.2,0.7,0.5
		c0.5,1.4,0.1,2.2-1.4,2.4c-0.3,0-0.5,0.3-0.5,0.5l0.1,8.7C22.6,29.8,22.7,29.9,22.9,29.5z"/>
	<path class="st4" d="M102.5,25.5h-0.9c0-0.3,0-0.3-0.3-0.4c0,0-12.7,0-12.7,0c-0.3,0-0.6,0.1-0.8,0.4l-7.4,8.3
		c-1.1-0.1-4.7-1.2-4.2-2.7c1.7,0.6,3.4,0.5,5-0.2c0.3-0.1,0.3-0.3,0-0.4c-0.4-0.3-0.7-0.6-0.8-1.1c-0.1-0.3,0.1-0.6,0.4-0.8
		c0.7-0.5,1.2-1,1.7-1.8c0.2-0.3,0.5-0.4,0.7-0.3c0.4,0.1,0.8,0.4,1.1,0.8c0.2,0.2,0.5,0.2,0.6,0.1l0,0c0.3-0.4,0.6-0.7,0.7-1.2
		c0.1-0.2,0-0.4-0.3-0.5c-6.5,0-31-0.1-38-0.1l-1.8,0.1c-3.7-0.7-7.5-0.8-11.2-0.5c-0.4,0-0.7-0.1-0.9-0.2c-0.3-0.4-0.2-0.9,0.4-0.9
		c22.7,0,45.3,0,68,0C102.5,24,102.8,24.5,102.5,25.5z M82.9,28.2c-0.6-0.2-1.8,3.3,0.1,0.6C83.2,28.7,83.1,28.4,82.9,28.2
		C83,28.3,82.9,28.2,82.9,28.2z"/>
	<path class="st2" d="M101.5,25.5c-0.3,7.9-0.3,15.8,0,23.8l-0.1,4.3c0,1.1-0.3,1.3-0.9,0.4l-3.1-4.5L97,48.2
		c-0.4-1.2-0.5-2.5-0.4-3.8c0-0.3,0-0.6-0.2-0.9l-0.8-1.1l1.5-3.1c0.1-0.3,0.4-0.5,0.7-0.5c3.3-0.5,3.2-4.7,0.3-4.6
		c-0.3,0-0.6-0.1-0.9-0.3c-2-1.4-4.2-2-6.7-1.8c-0.3,0-0.6-0.1-0.8-0.3c-1.9-2.1-3.2-1.8-4.1,0.9c-0.4,0.8-1,1.1-2,1h-3.5l7.4-8.3
		c0.2-0.2,0.5-0.4,0.8-0.4H101c0.2,0,0.3,0.1,0.3,0.2L101.5,25.5z"/>
	<path class="st5" d="M47.2,25.5c0,1.2,0.5,1.6,1.5,1.4c0.4-0.1,0.7,0,0.9,0.1c1.3,0.8,2,2,2,3.6c0,0.3,0.2,0.6,0.5,0.6l2.8,0.1
		c0.6,0,0.5-0.6,0.5-1l0.7,0.8L54,33.4c-0.4,0.4-0.3,0.4,0.1,0.1L58,31c1.8,3.4,4.1,3.7,6.8,1l0.7-0.8c2.7,3.2,5.5,3.3,8.3,0.3
		l1-0.3l3.9,3c0.3,0.2,0.5,0.5,0.4,0.7c-0.1,0.6-0.6,0.8-1.3,0.6l-2,0.2L74,35.5c-1.9-0.1-3,0.7-3.2,2.5c-0.5-0.6-0.6-1.3-0.4-2
		c0.1-0.2-0.1-0.4-0.2-0.5h-0.1H55.2h-1l-8.5-10H47.2z"/>
	<path class="st6" d="M75.5,25.5l-0.8,0.7c-1.2,0.6-2.2,1.5-2.8,2.7c-0.1,0.2-0.1,0.5,0.1,0.8l1,1.3c-1.8,0.4-3.5,0.4-5.4-0.1
		c-0.3-0.1-0.3-0.2-0.1-0.4c1.1-0.8,1.3-1.5,0.4-2c-0.3-0.1-0.5-0.4-0.6-0.6c-0.3-0.6-0.6-1.1-1.2-1.5c-0.2-0.1-0.5-0.1-0.7,0.1
		l-2.1,2.3c-0.2,0.2-0.2,0.5,0,0.7c2.6,2.6-3.4,1.7-4.3,1.5l0-0.3c0.6-0.5,1.5-1.6,0.7-2.3c-0.7-0.5-1.2-1.1-1.6-1.9
		c-0.1-0.2-0.3-0.3-0.5-0.2c0,0-0.1,0-0.1,0.1L55,28.8c-0.2,0.2-0.2,0.5,0,0.8l0.5,0.6v0.5c0,0.3-0.3,0.5-0.5,0.5l-2.8-0.1
		c-0.3,0-0.5-0.3-0.5-0.6c0-1.6-0.6-2.8-2-3.6c-0.2-0.1-0.6-0.2-0.9-0.1c-1,0.2-1.5-0.3-1.5-1.4L75.5,25.5z"/>
	<path class="st6" d="M75.5,25.5h9.7c0.2,0,0.4,0.3,0.4,0.5c-0.2,0.4-0.4,0.8-0.7,1.2c-0.2,0.2-0.4,0.1-0.6,0l0,0
		c-0.3-0.4-0.7-0.6-1.1-0.8c-0.3-0.1-0.6,0.1-0.7,0.3c-0.4,0.7-1,1.3-1.7,1.8c-0.3,0.2-0.4,0.5-0.4,0.8c0.1,0.5,0.4,0.8,0.8,1.1
		c0.3,0.2,0.3,0.3,0,0.4c-1.6,0.7-3.3,0.8-5,0.2L76,30.7l0.9-1.2c0.2-0.2,0.2-0.6,0-0.8l-2.1-2.6L75.5,25.5z"/>
	<path class="st7" d="M101.5,25.5h0.9v23.8h-0.9C101.2,41.3,101.2,33.4,101.5,25.5z"/>
	<path class="st8" d="M59,30.7L58,31c-0.2-3.4-0.8-3.4-1.8,0l-0.7-0.8L55,29.6c-0.2-0.3-0.2-0.6,0-0.8l2.4-2.4
		c0.1-0.1,0.4-0.1,0.5,0.1l0.1,0.1c0.4,0.8,0.9,1.4,1.6,1.9c0.3,0.2,0.4,0.5,0.3,0.8C59.8,29.9,59.5,30.4,59,30.7z"/>
	<path class="st8" d="M73,31c-1.7,2.4-3.6,2.7-5.8,0.8c-0.2-0.2-0.3-0.5-0.3-0.8c0.1-0.9-0.3-1.6-1-2.3c-0.2-0.2-0.5-0.2-0.6,0
		c0,0,0,0,0,0.1c-0.5,0.9-0.4,1.7,0.3,2.4L64.8,32c-0.1-0.2-6.1,2.6-5.8-1c0.9,0.2,6.9,1.1,4.3-1.5c-0.2-0.2-0.2-0.5,0-0.7l2.1-2.3
		c0.2-0.2,0.5-0.3,0.7-0.1c0.5,0.4,0.9,0.9,1.2,1.5c0.1,0.3,0.3,0.5,0.6,0.6c0.9,0.5,0.8,1.1-0.4,2c-0.3,0.2-0.2,0.3,0.1,0.4
		C69.5,31.4,71.2,31.4,73,31z"/>
	<path class="st9" d="M74.8,26.2l2.1,2.6c0.2,0.2,0.2,0.6,0,0.8L76,30.7h-1c0.1-5.3-2.7,0.1-0.3,0.3v0.2l-1,0.3L73,31
		c-0.4-0.7-1.3-1.7-1-2.2C72.6,27.7,73.5,26.8,74.8,26.2z"/>
	<path class="st10" d="M83,28.9c-1.8,2.7-0.7-0.9-0.1-0.6C83.1,28.3,83.2,28.6,83,28.9C83,28.8,83,28.8,83,28.9z"/>
	<path class="st11" d="M58,31l-3.8,2.4c-0.4,0.3-0.5,0.2-0.1-0.1l2.1-2.3C57.2,27.6,57.8,27.6,58,31z"/>
	<path class="st12" d="M73,31l0.8,0.5c-2.8,3-5.6,2.9-8.3-0.3c-0.7-0.7-0.8-1.5-0.3-2.4c0.1-0.2,0.4-0.3,0.6-0.1
		c0.7,0.7,1.2,1.5,1.1,2.4c0,0.3,0.1,0.6,0.3,0.8C69.4,33.7,71.3,33.4,73,31z"/>
	<path class="st6" d="M75,30.7L74.8,31C72.4,30.8,75.2,25.4,75,30.7z"/>
	<path class="st13" d="M95.7,42.5h-0.5c-0.7-0.8-1.5-0.9-2.3-0.5c-0.4,0.2-0.7,0.3-0.9,0.3L90,42v-0.7c1.9,0.2,3.6,0,5.3-0.5
		c0.3-0.1,0.6-0.3,0.8-0.6c0.3-0.5,0.4-1,0.4-1.6l0.5-0.8c1.3,0.4,1.9,0.2,2-0.8c0-0.3-0.1-0.4-0.4-0.2c-0.5,0.3-1,0.5-1.6,0.5
		c-0.9-0.1-1.2,0.3-1,1.2c-1.3,0-2.4,0.4-3.3,1.1c-0.1,0.1-0.3,0.1-0.4,0c0,0,0-0.1-0.1-0.1c-0.2-0.8-0.6-1.5-1.3-1.9
		c-0.3-0.2-0.4-0.4-0.4-0.7c0.2-1.6-0.5-2.3-2-2h-0.2c-0.3-0.9-1.6-1.3-1.7-0.3l-0.3,3.3l-0.6,0.5c-0.6-0.3-1.1-0.4-1.7-0.3
		c-0.4,0-0.8,0-0.9-0.2c-1.2-1,0.6-3.1,1.8-3.1c0.3,0,0.6-0.2,0.7-0.4c0.2-0.5,0.2-1,0.1-1.5c0.9-2.7,2.3-3,4.1-0.9
		c0.2,0.2,0.5,0.4,0.8,0.3c2.5-0.2,4.7,0.4,6.7,1.8c0.3,0.2,0.6,0.3,0.9,0.3c2.9-0.1,2.9,4.1-0.3,4.6c-0.3,0-0.6,0.2-0.7,0.5
		L95.7,42.5z M88.9,32.2c-0.2-0.5-0.6-0.8-1.2-0.8c-0.4,0-0.5,0.2-0.2,0.5l1.8,1.8c0.3,0.3,0.5,0.3,0.6-0.2c0-0.3-0.1-0.5-0.4-0.7
		C89.2,32.7,89,32.5,88.9,32.2z M91.7,35.9c1,0,0.7-3.1-0.3-3C90.4,32.9,90.7,36.1,91.7,35.9z M92.9,34.2l0.7,3.3
		c0.2,0.8,0.3,0.8,0.5-0.1c0.2-1.3,0.3-2.4,0.2-3.2c-0.2-1.2-0.5-1.5-1-1C93,33.6,92.9,33.9,92.9,34.2z M96.1,34.9
		c-1,0.5-1,0.9-0.1,1.1c0.6,0.3,1.6-0.6,1-1C96.8,34.7,96.4,34.7,96.1,34.9z M84.2,37.1c0.7,0.2,1.4-1.1,0.8-1.5
		C84.3,35.3,83.5,36.8,84.2,37.1z"/>
	<path class="st12" d="M59,30.7V31c-0.3,3.6,5.7,0.8,5.8,1c-2.7,2.7-5,2.4-6.8-1L59,30.7z"/>
	<path class="st14" d="M75,30.7h1V31c-0.5,1.5,3.2,2.6,4.2,2.7h3.5c-2.8,2.7-2.3,4.5,1.2,5.6L84.7,40c-1.1-0.4-2.3-0.4-3.6-0.1
		c-0.2,0.1-0.4,0.3-0.3,0.6l0,0c1.6,4.6,4.2,7.8,2.6,13.2c-1.2-0.9-2.2-1.1-3.2-0.7c-0.3,0.2-0.6,0.2-0.9,0.1
		c-1.4-0.5-2.9-0.4-4.2,0.2v-0.5l0.3-0.3c0.1-0.2,0.4-0.3,0.7-0.2c0.9,0.2,1.6-0.1,2.3-0.8c0.2-0.2,0.5-0.2,0.7-0.1
		c1.6,1,2.8,0.8,3.8-0.6c0.1-0.2,0.1-0.5-0.1-0.6c0,0-0.1,0-0.1-0.1c-0.2-0.1-0.4-0.1-0.6,0s-0.3,0-0.2-0.2l1.1-1.7
		c0.2-0.3,0.2-0.7,0-0.8c-0.6-0.6-2.9,1.5-3.8,2.4C79,50,78.8,50.1,78.6,50c-0.1-0.1-0.2-0.2-0.2-0.3c-0.1-0.2,0.1-0.5,0.4-0.8
		c1.1-0.9,4.5-3.9,2.9-4.4c-0.3-0.1-0.6,0-0.9,0.2c-2.6,2.1-4.8,4.6-6.5,7.5c-0.4,0.4-0.9,0.7-1.5,0.7c-0.8,0-1.2,0.6-0.3,1
		c-0.4,1-1.1,1.1-2,0.2L69.8,54l1.3-1.2c0.7,0,5.2-2,2.4-2c-0.9,0-1.9,0.1-2.9,0.6c-0.4,0.5-1.5,0.6-0.9-0.1
		c3.2-3.4,6.4-6.7,9.7-9.9c0.9-0.8,1-2.8-0.8-1.3c-3.9,3.3-7.2,7.1-10.1,11.3c-0.1,0.2-0.1,0.5,0.1,0.7c0.7,0.5,0.5,0.9-0.6,1
		c0-0.4,0.1-0.9-0.6-0.9c-0.7,0-0.6-0.6-0.1-1.1c2.4-2,4.4-4.4,5.9-7.2c2.1-1.9,6.3-5.4,5.6-6.3c-0.2-0.2-0.6-0.3-0.8,0l-4.8,4.1
		c-0.2,0.2-0.3,0.5-0.2,0.9c0.1,0.4,0,0.7-0.1,1.1c-0.7-0.7-1.1-1.5-1-2.5c2.3-1.4,4.3-3.2,5.8-5.5c0.7,0.2,1.2,0,1.3-0.6
		c0-0.2-0.1-0.5-0.4-0.7l-3.9-3V31L75,30.7z M72.4,49.7L74,50c0.2,0,0.5-0.1,0.8-0.4l5.5-5.8c0.5-0.5,0.5-1,0.2-1.5
		c-0.2-0.2-0.5-0.2-0.7-0.1c0,0,0,0-0.1,0l-7.5,7.2C72.2,49.6,72.2,49.7,72.4,49.7z"/>
	<path class="st15" d="M89.5,32.9c0.3,0.2,0.4,0.4,0.4,0.7c-0.1,0.5-0.2,0.5-0.6,0.2L87.5,32c-0.3-0.3-0.2-0.5,0.2-0.5
		c0.6,0,1,0.2,1.2,0.8C89,32.5,89.2,32.7,89.5,32.9z"/>
	<path class="st16" d="M85.7,32.7c0.1,0.5,0,1-0.1,1.5c-0.1,0.2-0.4,0.4-0.7,0.4c-1.3,0-3.1,2.2-1.8,3.1c0.7,0.3,1.9,0.1,2.6,0.5
		c0.1,0.7-0.1,1-0.7,1c-3.6-1.1-4-2.9-1.2-5.6C84.7,33.9,85.3,33.6,85.7,32.7z"/>
	<path class="st2" d="M91.4,32.9c0.9-0.1,1.2,2.9,0.3,3C90.8,36,90.5,33,91.4,32.9z"/>
	<path class="st2" d="M93.2,33.3c0.5-0.6,0.8-0.2,1,1c0.1,0.8,0.1,1.9-0.2,3.2c-0.2,0.8-0.3,0.8-0.5,0.1l-0.7-3.3
		C92.9,33.9,93,33.6,93.2,33.3z"/>
	<path class="st12" d="M88.3,34.7c-0.4,1.7-0.5,3.3-0.2,5c-0.1,2-0.8,2.7-2.1,2c-0.3-0.1-0.3-0.3,0-0.5c1.4-0.9,1.5-2,0.3-3.5
		l0.3-3.3c0-0.3,0.3-0.6,0.6-0.6C87.7,33.9,88,34.2,88.3,34.7z"/>
	<path class="st2" d="M96,38.5l0.5,0.1c0,0.6-0.1,1.1-0.4,1.6c-0.1,0.3-0.4,0.5-0.8,0.6c-1.7,0.6-3.5,0.8-5.3,0.5l-1.3-1.5l-0.2-5
		c1.6-0.3,2.2,0.4,2,2c0,0.3,0.1,0.6,0.4,0.7c0.7,0.4,1.2,1.1,1.3,1.9c0,0.1,0.4,0.3,0.4,0.1C93.6,38.8,94.7,38.4,96,38.5z"/>
	<path class="st17" d="M97,34.9c0.3,0.2,0.3,0.5-0.1,0.8c-0.2,0.2-0.6,0.3-0.9,0.2c-0.9-0.2-0.9-0.6,0.1-1.1
		C96.4,34.7,96.8,34.7,97,34.9z"/>
	<path class="st18" d="M88.3,34.7h0.2l0.2,5H88C87.8,38.1,87.8,36.4,88.3,34.7z"/>
	<path class="st14" d="M75.8,35.8c-1.2,1.6-4.1,3.1-3.8,5.2c-0.7-0.7-1-1.6-0.8-2.7c1.1-0.7,2-1.7,2.7-2.8L75.8,35.8z"/>
	<path class="st13" d="M54,35.5h1c-1.9,3.3,4.5-0.7,4.6,4.1c0,1.5-0.1,3.1-0.3,4.8c-0.2-0.9-0.5-1.4-1-1.3c0.4-1.6-1.8-1-2.8-1.7
		c0.1-1.7-0.1-1.8-0.7,0c-0.6,5.1,0.6,9.7,3.5,13.7l-0.5,0.5l-1.2-0.4c0.9-0.8,0.7-1.2-0.5-1.2l-0.5-0.2c0.4-0.9,0.1-1.5-1-1.8
		l-3.4-4.1c-0.2-0.2-0.5-0.3-0.8-0.2c-1.3,0.7-1.3,1.8,0.2,3.1L49,51.2c-0.7-4.1,0.7-5.3,4.2-3.5c0.4,0.2,0.5,0.1,0.4-0.3
		c-0.1-0.5-0.5-1.7-0.3-2.1c0.4-1,0.1-1.2-0.9-0.7c-0.7,0.4-1.5,0.3-1.9-0.2c0-0.1-0.1-0.1-0.1-0.2c-0.8-2.5-0.1-3.4,2.2-2.7
		c0.3,0.1,0.5,0,0.6-0.2v-0.1L54,35.5z M58.5,38.6c0.2-0.5-2.3-0.5-2.8-0.8c-0.2-0.1-0.5-0.1-0.6,0.1c-1,1.3,2.1,1.3,2.8,1.1
		C58.1,39.1,58.4,38.9,58.5,38.6z M51.9,43.6c0.4,0,0.6-0.2,0.5-0.7c-0.1-0.3-0.3-0.5-0.6-0.6c-1-0.3-1.2,0-0.6,0.8
		C51.3,43.5,51.6,43.6,51.9,43.6z"/>
	<path class="st2" d="M55,35.5h14.9c0.2,0,0.3,0.3,0.3,0.5c-0.2,0.7,0,1.4,0.4,2l0.5,0.3c-0.2,1.1,0,2,0.8,2.7c-0.1,1,0.3,1.9,1,2.5
		l0.2,0.2c-1.5,2.8-3.5,5.2-5.9,7.2c-0.3,0.2-0.4,0.5-0.4,0.8c0.1,0.2,0.2,0.3,0.5,0.3s0.6,0.2,0.6,0.4v0.5l-1.3-0.2l-0.6-1
		c-0.1-0.2-0.4-0.3-0.7-0.1l0,0l-1.7,1.1c-0.7,0.3-0.7,1.6,0.1,1.6c0.2,0.4,3.9,2.9,3.5,1.7l-0.5-1.7L68,54l0.8,2.8l-2,0.5l-4-2
		c-0.6-3.5-1.2-3.8-1.9-0.8c-1,0-1.4-0.6-1.3-1.5c0-0.3-0.1-0.5-0.4-0.6c-0.5-0.1-0.8-0.4-1.1-0.8c-0.2-0.2-0.4-0.4-0.5-0.4
		c-0.9-0.1,1.3,2.6,1.4,3c0.1,0.3,0.1,0.6-0.1,0.7l0,0l-0.6,0.2c-3-4.1-4.1-8.6-3.5-13.7h0.7c1,0.8,3.2,0.1,2.8,1.7
		c-0.8,0-1.1,0.3-1,0.8c0,0.1,0.2,0.2,0.4,0.1c0,0,0.1,0,0.1-0.1c0.3-0.2,0.8-0.1,1.4,0.4c0.2-1.7,0.4-3.3,0.3-4.8
		C59.5,34.8,53.1,38.8,55,35.5z M64.2,38c0.5,0.3,0.5,0.6,0,1c-0.8,0.2-1.4,0.6-1.8,1.3c-0.1,0.2-0.1,0.6,0.1,0.8l2.5,2.6
		c0.3,0.3,0.3,0.2,0.2-0.1L64.8,42l0.2-0.2c1.5,0.1,2.9-0.2,4.1-1c0.2-0.2,0.3-0.5,0.2-0.8L69,39.2l0.3-0.5c2.6-1.1-4.9-1.9-5.2-1.8
		C63.5,37,60.8,38.9,64.2,38z M61.8,46c-0.8-0.3-1.6-0.5-2.5-0.4c-0.3,0-0.5,0.2-0.5,0.4l0,0c0.1,1,3.6,0.6,4.4,0.6
		c0.3,0,0.5-0.2,0.6-0.5c0.2-1.4-0.2-1.5-1.2-0.3C62.4,46.1,62.1,46.1,61.8,46z M59.5,48.3c-0.7-0.3-1.1-0.1-1.3,0.4
		c0,0.3,0.2,0.4,0.5,0.4c1.9-0.4,3.6-0.4,5.2,0c1.1,0.3,1.2,0.2,0.1-0.3c-1.3-0.6-2.5-0.8-3.6-0.5C60.2,48.4,59.8,48.4,59.5,48.3z
		 M59.8,50.7c3.3,0-0.2-1.5-0.5-0.5C59.2,50.4,59.4,50.6,59.8,50.7L59.8,50.7z"/>
	<path class="st19" d="M74,35.5c-0.7,1.1-1.6,2.1-2.7,2.8L70.7,38C71,36.2,72.1,35.4,74,35.5z"/>
	<path class="st20" d="M77.8,35.5c-1.5,2.3-3.4,4.1-5.8,5.5c-0.3-2.1,2.5-3.6,3.8-5.2L77.8,35.5z"/>
	<path class="st19" d="M84,36.1c0.5-1.1,1.6-0.6,1.1,0.5C84.6,37.6,83.5,37.1,84,36.1z"/>
	<path class="st12" d="M97,37.7v-0.5c0.6,0,1.1-0.2,1.6-0.5c0.3-0.2,0.4-0.1,0.4,0.2C99,37.9,98.3,38.2,97,37.7z"/>
	<path class="st5" d="M69.2,38.8c-1.5-1.1-3.2-1.4-5-0.8c-3.4,1-0.7-1-0.2-1C64.3,36.9,71.9,37.7,69.2,38.8z"/>
	<path class="st20" d="M73.2,43.8L73,43.5c0.1-0.3,0.1-0.7,0.1-1.1c-0.1-0.4,0-0.7,0.2-0.9l4.8-4.1c0.2-0.2,0.6-0.2,0.8,0
		C79.6,38.3,75.3,41.9,73.2,43.8z"/>
	<path class="st16" d="M97,37.3v0.5l-0.5,0.8L96,38.5C95.8,37.6,96.1,37.2,97,37.3z"/>
	<path class="st19" d="M69.2,38.8L69,39.2L64.2,39c0.5-0.4,0.5-0.7,0-1C66,37.4,67.7,37.6,69.2,38.8z"/>
	<path class="st19" d="M55.6,37.9c0.5,0.2,3,0.2,2.8,0.8c-0.1,0.2-0.3,0.4-0.7,0.5c-0.7,0.1-3.7,0.2-2.8-1.1
		C55.1,37.8,55.4,37.8,55.6,37.9z"/>
	<path class="st21" d="M86.3,37.7c1.2,1.5,1.1,2.7-0.3,3.5c-0.3,0.2-0.3,0.3,0,0.5c1.3,0.7,2,0,2.1-2h0.7l1.3,1.5V42
		c-1.6,0-1.2,0.7-0.2,0.9c1.9,0.4,3.7,0.2,5.5-0.4h0.5l0.8,1.1c0.2,0.3,0.2,0.6,0.2,0.9c-0.1,1.3,0,2.5,0.4,3.8l-0.8,0.2
		c-0.1-4.4-2.3-0.4-0.5,0c0.5,0.8,0.3,1.2-0.5,1.2c-0.6-1.4-1.1-1.4-1.3,0c-1.2,2-2.5,2.1-4,0.2c0.2-1-0.3-1.4-1-0.6l-2.4,2.3
		c-0.2,0.2-0.2,0.4-0.1,0.5c0.3,0.6,2.5-1.4,3.1-1.7l2.2,2.3c-0.7,0.1-1.3,0-1.8-0.4c-0.3-0.2-0.6-0.3-0.8-0.2L87.2,53
		c-0.7,0.4-0.5,1.4,0.5,1c-0.9-0.1-1.4,0.2-1.5,0.7c-0.6,0.1-1.2,0.4-1.7,0.9c-0.2,0.2-0.5,0.2-0.6,0l0,0c-1.5-1.4-2.5-1.1-2.9,0.9
		c-0.1,0.3-0.3,0.5-0.6,0.7c-0.9,0.4-1.6,0.9-2.2,1.7l0.6-3.7c0-0.2-0.2-0.6-0.5-0.5c-1.5,0.1-2.2,0.9-2.2,2.4c-0.7,0.1-1,0.4-1,1
		c-1.2,1.4-2.1,3-2.5,4.8l-0.5,1l-1,1.5l-1-0.2c-1.3,0.2-2.2-0.1-2.6-1c-0.1-0.2-0.1-0.5,0.1-0.9c0.3-0.4,0.3-0.8,0.1-1.1
		c-0.1-0.2-0.5-0.3-0.7-0.1l0,0c-1.5,1.2-1.5,2.4,0,3.7c0.3,0.2,0.4,0.5,0.4,0.8c-0.1,0.7-0.5,1.1-1.2,1.2c0.1-1.3-0.2-2.4-0.9-3.4
		c-0.2-0.3-0.2-0.6-0.1-0.8c0.5-1.1,1.3-1.9,2.3-2.6l1.1,0.8c0.2,0.2,0.4,0.5,0.3,0.7c-0.1,0.7,0.1,1,0.7,1c0.2,0,0.4-0.3,0.4-0.6
		l-1.4-4c0.8-1.6,1.8-1.7,2.8-0.5c-1.9,0.8-2,1.8-0.5,3c2.4,2,0-1.7,1-2c0.7,1.4,1.4,1.2,2.1-0.6l-1.2-3.5c-0.1-0.3-0.3-0.4-0.4-0.5
		c-0.1,0-0.3,0-0.4,0L70.5,55v-1.2c0.9,0.9,1.6,0.8,2-0.2c1.2,0.5,2.1,0.2,2.8-0.8c1.4-0.6,2.8-0.6,4.2-0.2c0.3,0.1,0.6,0.1,0.9-0.1
		c0.9-0.5,2-0.3,3.2,0.7c3.1-2.6,4.7-6.1,4.6-10.2c0-0.2-0.3-0.4-0.5-0.4c-2.7,0.6-3.7-0.4-2.8-3l0.3-0.7c0.6,0,0.9-0.4,0.7-1
		L86.3,37.7z M90,44.5c-0.1,0.3-0.1,0.5,0,0.8c0.1,0.2,0.4,0.3,0.6,0.2c0,0,0.1,0,0.1-0.1c0.5-0.4,0.5-0.8,0-1.1
		C90.5,44.1,90.2,44.2,90,44.5C90.1,44.4,90.1,44.5,90,44.5z M92.6,44.6c-0.8,0.3-0.8,0.7,0,1.2c0.3,0.2,0.6,0.1,0.8-0.1
		C94.2,45.1,93.4,44.3,92.6,44.6z M88,47.1c-0.3,4,1.9-0.2,0.5-0.5C88.3,46.5,88.1,46.7,88,47.1C88,47,88,47.1,88,47.1z M90.7,49.3
		c1.2,1.3,1.9,1.2,2.3-0.3c1.2-0.8,1.4-1.4,0.5-1.8c-0.2-0.1-0.3,0-0.4,0.2c0,0.4-0.1,0.9-0.3,1.3l-1-0.1
		C90.1,46.1,89.8,46.3,90.7,49.3z M74.2,57.1c1-0.4,1.5-1,1.7-2c0-0.3-0.2-0.4-0.5-0.4c-0.9,0.3-1.5,0.8-2,1.6
		C72.9,57.2,73.2,57.5,74.2,57.1z"/>
	<path class="st4" d="M64.2,39l4.7,0.3l0.4,0.8c0.1,0.3,0,0.6-0.2,0.8c-1.2,0.8-2.6,1.1-4.1,1l0.1-1.2c0-0.3-0.2-0.4-0.4-0.4
		c-1,0.3-1,0.9,0.1,1.9l0.5,1.5c0.1,0.4,0.1,0.4-0.2,0.1L62.6,41c-0.2-0.2-0.3-0.6-0.1-0.8C62.9,39.6,63.5,39.2,64.2,39z M66.4,40.5
		c-0.1,0.5,0.2,0.7,1.1,0.5c0.3-0.1,0.5-0.3,0.5-0.6c-0.1-0.5-0.4-0.6-0.9-0.5C66.7,40,66.4,40.2,66.4,40.5z"/>
	<path class="st20" d="M70.5,51.3v0.5L69.2,54c-0.1,0-1.1,0-1.2,0v-1c1.1-0.1,1.3-0.5,0.6-1c-0.2-0.2-0.3-0.5-0.1-0.7
		c2.9-4.2,6.3-8,10.1-11.3c1.8-1.5,1.6,0.4,0.8,1.3c-3.3,3.2-6.6,6.6-9.7,9.9c-0.3,0.3-0.3,0.5,0.2,0.5C70,51.7,70.3,51.5,70.5,51.3
		z"/>
	<path class="st2" d="M84.7,40c-0.9,2.6,0.1,3.6,2.8,3c0.3,0,0.4,0.2,0.4,0.4c0,4.2-1.5,7.6-4.6,10.2c1.7-5.3-1-8.5-2.6-13.2
		c-0.1-0.2,0.1-0.5,0.3-0.6l0,0C82.4,39.6,83.6,39.6,84.7,40z"/>
	<path class="st16" d="M65,41.8L64.8,42c-1-0.9-1-1.6-0.1-1.9c0.2,0,0.3,0.1,0.3,0.3C65,40.4,65,41.8,65,41.8z"/>
	<path class="st19" d="M67.1,39.9c1.1-0.3,1.2,1,0.4,1.1c-0.8,0.2-1.2,0-1.1-0.5C66.4,40.2,66.7,40,67.1,39.9z"/>
	<path class="st7" d="M55.5,41.5h-0.7C55.3,39.7,55.6,39.8,55.5,41.5z"/>
	<path class="st11" d="M95.2,42.5c-1.8,0.7-3.6,0.8-5.5,0.4C88.8,42.7,88.4,42,90,42l2,0.3c0.2,0,0.5-0.1,0.9-0.3
		C93.7,41.5,94.5,41.7,95.2,42.5z"/>
	<path class="st2" d="M51.1,43.1c-0.6-0.9-0.4-1.1,0.6-0.8c0.3,0.1,0.6,0.3,0.6,0.6C52.6,43.8,51.5,43.9,51.1,43.1z"/>
	<path class="st20" d="M72.4,49.7c-0.2,0-0.2-0.1-0.1-0.2l7.5-7.2c0.2-0.2,0.5-0.2,0.7,0l0,0c0.3,0.5,0.2,0.9-0.2,1.5l-5.5,5.8
		c-0.3,0.3-0.6,0.5-0.8,0.4L72.4,49.7z"/>
	<path class="st22" d="M58.2,43.2c0.5-0.1,0.8,0.4,1,1.3c-0.6-0.5-1.1-0.6-1.4-0.4c-0.2,0.1-0.4,0.1-0.5,0c0,0,0,0,0-0.1
		C57.1,43.5,57.4,43.2,58.2,43.2z"/>
	<path class="st11" d="M90.8,44.3c0.4,0.3,0.4,0.7,0,1.1c-0.2,0.2-0.5,0.2-0.6,0l-0.1-0.1c-0.1-0.3-0.1-0.5,0-0.8
		C90.1,44.3,90.4,44.1,90.8,44.3C90.7,44.3,90.7,44.3,90.8,44.3z"/>
	<path class="st10" d="M93.5,44.7c0.6,0.5-0.2,1.4-0.9,1.1c-0.8-0.5-0.8-0.8,0-1.2C92.9,44.5,93.3,44.5,93.5,44.7z"/>
	<path class="st20" d="M75,52.8l-0.9-0.5c1.7-2.9,3.9-5.4,6.5-7.5c0.3-0.2,0.6-0.3,0.9-0.2c1.7,0.4-1.8,3.5-2.9,4.4
		c-0.3,0.3-0.5,0.6-0.4,0.8c0,0.1,0.1,0.2,0.2,0.3c0.2,0.1,0.4,0,0.6-0.2c0.9-0.9,3.2-3,3.8-2.4c0.2,0.2,0.2,0.5,0,0.8L81.7,50
		c-0.1,0.2-0.1,0.3,0.2,0.2c0.4-0.2,1,0,0.8,0.6c0,0,0,0.1-0.1,0.1c-1,1.4-2.2,1.6-3.8,0.6c-0.2-0.1-0.5-0.1-0.7,0.1
		c-0.6,0.7-1.4,0.9-2.3,0.8c-0.3,0-0.5,0-0.7,0.2L75,52.8z"/>
	<path class="st23" d="M62.6,45.9c1-1.2,1.4-1.1,1.2,0.3c0,0.3-0.3,0.5-0.6,0.5c-0.8,0-4.3,0.4-4.4-0.6c0-0.2,0.2-0.4,0.5-0.4
		c0.9-0.1,1.7,0.1,2.5,0.4C62.1,46.1,62.4,46.1,62.6,45.9z"/>
	<path class="st10" d="M88.6,46.6c1.4,0.3-0.9,4.5-0.5,0.5C88,46.8,88.3,46.6,88.6,46.6C88.5,46.6,88.5,46.6,88.6,46.6z"/>
	<path class="st11" d="M96.2,48.5h-0.5C93.9,48.1,96.2,44.1,96.2,48.5z"/>
	<path class="st11" d="M91.8,48.7l-1.1,0.6C89.8,46.3,90.1,46.1,91.8,48.7z"/>
	<path class="st12" d="M93,49l-0.2-0.2c0.2-0.4,0.3-0.8,0.3-1.2c0-0.3,0.2-0.3,0.4-0.3C94.4,47.7,94.2,48.3,93,49z"/>
	<path class="st24" d="M54.5,52L54,52.5c-0.8-1.3-2-1.9-3.5-1.7c-1.5-1.3-1.5-2.3-0.2-3.1c0.3-0.1,0.6-0.1,0.8,0.2L54.5,52z"/>
	<path class="st4" d="M60.5,48.3c1-0.3,2.2-0.1,3.6,0.5c1.1,0.5,1,0.6-0.1,0.3c-1.6-0.4-3.4-0.4-5.2,0c-0.3,0-0.4-0.1-0.4-0.3
		c0.1-0.6,0.5-0.7,1.3-0.4C59.8,48.4,60.2,48.4,60.5,48.3z"/>
	<path class="st18" d="M97,48.2l0.4,1.2c-0.9-0.2-1.3,0.2-1.2,1l-1-0.7c0.8,0,1-0.4,0.5-1.2h0.5L97,48.2z"/>
	<path class="st6" d="M91.8,48.7l1,0.1L93,49c-0.4,1.5-1.1,1.6-2.3,0.3L91.8,48.7z"/>
	<path class="st6" d="M95.2,49.8l1,0.7c1.1,0.5,1.6,1.4,1.8,2.5l-0.7-0.3l-2.8-2.5L94,49.7C94.2,48.3,94.6,48.4,95.2,49.8z"/>
	<path class="st12" d="M90,50l-0.5,0.5c-0.6,0.3-2.8,2.3-3.1,1.7c-0.1-0.2,0-0.4,0.1-0.5l2.4-2.3c0.3-0.3,0.7-0.5,0.8-0.4
		C90,49.1,90.1,49.4,90,50z"/>
	<path class="st5" d="M101.5,49.2h0.9v5.5l-1.5,3.6c-0.1,0.3-0.4,0.4-0.7,0.4H86.5c-0.3,0-0.5,0.2-0.5,0.5l-0.1,2l-1.4-2
		c-0.1-0.2-0.4-0.3-0.6-0.2c-0.2,0.2-0.4,0.4-0.1,0.7c5.2,6.7,5.8,13.9,1.8,21.5l-0.3-0.8c-0.9-2-0.6-3.3,0.8-4.1
		c0.3-0.2,0.5-0.4,0.6-0.7c0.2-1.1-0.1-2.2-0.8-3.2c-0.2-0.2-0.1-0.5,0.1-0.7c0.8-0.8,1.1-1.8,0.9-2.9c0-0.3-0.2-0.5-0.5-0.7
		c-1.4-0.7-1.8-1.8-1.3-3.4c0.1-0.3,0.1-0.7,0-0.9c-0.7-1.6-2.1-2.4-4.2-2.2c-1.5-1.8-1.4-2.2,0.2-1.1c0.3,0.2,0.6,0.1,0.8-0.1
		l4.3-5.6c0.1-0.5,0.7-0.8,1.5-0.7l4.5-0.6c0.4,0,0.7,0,0.9,0.1c1.7,0.9,3.3,0.8,4.8-0.6c-0.1-1.1-0.7-2-1.8-2.5
		c0-0.8,0.4-1.2,1.2-1l3.1,4.5c0.6,0.9,0.9,0.8,0.9-0.4L101.5,49.2z"/>
	<path class="st3" d="M32.2,51.3c2.8,3.3-3.7,11.7-5.9,14.3c-0.1,0.2-0.4,0.2-0.6,0.1c0,0,0,0-0.1-0.1c-0.9-1.1-2.5-3.6-5-7.4
		c-4.1-6.5,2.6-10.9,4.6-6.5c0.2,0.3,0.6,0.5,0.9,0.3c0.1,0,0.2-0.1,0.2-0.2C28.5,49.5,30.5,49.3,32.2,51.3z"/>
	<path class="st14" d="M59.3,50.2c0.3-1.1,3.8,0.5,0.5,0.5C59.4,50.7,59.3,50.5,59.3,50.2z"/>
	<path class="st10" d="M94,49.7l0.5,0.5l-1.7,2.5h-1.1l-2.2-2.3L90,50C91.4,51.9,92.8,51.8,94,49.7z"/>
	<path class="st25" d="M94.5,50.2l2.8,2.5c-0.2,0.1-0.3,0.2-0.5,0.3s-0.5-0.1-0.9-0.3c-1-0.8-2-0.8-3.1,0.1L94.5,50.2z"/>
	<path class="st8" d="M54,52.5V53l-2.3-1.4c-0.3-0.2-0.6-0.2-0.9-0.1c-0.9,0.4,0,1.4,0.9,1.5c0.4,0.1,0.8,0.4,1.2,0.7
		c-1.1,1.5-0.8,1.7,0.7,0.5l1.5,1.5l-1.3,0.5c-0.2,0.1-0.4,0.3-0.3,0.6c0,0,0,0,0,0.1c2,3.9,3.6,6.6,3.5,9.1l-0.3-0.5
		c0.2-0.9-0.1-1.4-0.9-1.5c-1.3-4.2-3.3-8.1-6-11.6c-0.1-0.2-0.4-0.3-0.7-0.2l-1.8,0.7C47,53,46.9,53.3,47,53.5
		c0.8,2.3,0.2,2.5-1.7,0.4c-0.2-0.2-0.4-0.2-0.7-0.1l-2.3,1.1C42.1,55,42,55.3,42,55.5l2.1,2.3c0.2,0.2,0.5,0.2,0.9,0.1
		c1.7-0.7,1.8-0.6,0.5,0.6c-0.2,0.2-0.2,0.4-0.1,0.7L47,62v0.2l-1.8-0.9c-0.9-0.6-1.4,0.7-1.4,1.5h-0.5c0.2-0.7-0.1-0.9-1-0.6
		c-0.8,0.3-1.3,0.6-1.7,1L38,65.5c-0.2,0.2-0.2,0.4-0.1,0.5c0.4,0.6,2.7-1.7,3.1-2.1l0.3,0.3c-2,1.6-1.9,3,0.5,4.2l-0.3,0.3
		c-1-1.1-1.7-1-2.2,0.2l-0.6,1.2c-0.1,0.3-0.4,0.5-0.7,0.6c-1.2,0.4-1.6,1.3-1.2,2.7L36,75h-1v-0.5c1.4-0.6,1.5-1.1,0-1.5l0.2-1
		c1.9,0.3,0.1-1.8-1-2.1c-0.7-0.5-0.6-0.8,0.5-0.9l2.4-2.3c0.4-0.3,0.6-0.8,0.1-1c-0.2,0-0.5,0.1-0.8,0.4l-2.8,2.6
		c-0.5,0.6-1.2,0.7-2,0.1l7.2-5.8c0.3-0.2,0.4-0.6,0.2-0.8c-0.3-0.7-2.7,1.7-3.6,1.9c-0.3,0.1-0.6,0.3-0.7,0.6c-0.5,1-1.3,1.7-2.4,2
		l-1-0.1c-0.8-0.5-1.6-0.4-2.2,0.5l-0.5-0.5c-0.6-1.7,2.2-4.6,3.1-6.1c1.7,0,3-0.6,3.9-1.9c0.2-0.3,0.5-0.5,0.8-0.5
		c1.9-0.6,3.4-1.8,4.3-3.6l8.2-3.4l1.5-0.4C52,50.6,53.1,51.2,54,52.5z M44.4,58.9c-1.6-0.1-2.7-2.7-3.5-1.9c-0.2,0.2-0.2,0.5,0,0.8
		c0.5,0.5,4.9,3.1,4.1,1.5C44.9,59.1,44.7,58.9,44.4,58.9z M40.1,58.5c-0.3-0.5-0.6-0.6-1-0.3c-0.2,0.1-0.3,0.4-0.2,0.5
		c0,0.1,0.1,0.1,0.1,0.1l1.4,0.8c0.1,0.1,0.3,0,0.4-0.1c0-0.2,0-0.4-0.1-0.5C40.4,58.8,40.2,58.6,40.1,58.5z M35.2,60.5
		c-1.5,0.9-2.9,1.9-4.1,3c-0.4,0.4-1.4,2.2-0.1,1.9c0.3-0.1,0.5-0.3,0.7-0.6c0.8-1.8,3.6-2.6,3.7-3.8l2.2-0.8l2.2,1.1
		c0,0.6,0.2,0.9,0.7,0.8c0.7,0,1.2-1.1,0-1.1c-0.7-0.7-1.5-1-2.5-1c0-1.2-0.4-1.3-1.2-0.4C36.4,60.1,35.4,59.7,35.2,60.5z
		 M42.2,60.9c0.4,0.3,1,0,0.8-0.5c0,0,0,0,0-0.1C42.5,59.3,41.7,60.5,42.2,60.9L42.2,60.9z M35.5,63c-1.6,0.3-2.7,1.2-3.4,2.8
		C31.4,67.4,35.3,63.2,35.5,63c0.8,0,1.5-0.5,2.1-1.5c0.2-0.4,0.1-0.6-0.3-0.5C36.2,61.3,35.6,62,35.5,63z M36.7,68.6
		c-1.7,0.6-1.9,1.1-0.6,1.5c0.3,0.1,0.6,0,0.9-0.2c0.7-0.5,1.2-1.2,1.4-1.9c0.1-0.4,0-0.5-0.4-0.4c-0.2,0.1-0.4,0.2-0.5,0.3
		C37.2,68.3,36.9,68.5,36.7,68.6z"/>
	<path class="st26" d="M71,52.7l-0.6-1v-0.5c0.7-0.5,5.4-1.2,3.2,0.3C72.9,52.2,72,52.6,71,52.7z"/>
	<path class="st22" d="M61,54.5l-0.4,0.8l-2.3,0.5l-0.5-0.1l0.5-0.5l0.6-0.2c0.2-0.1,0.3-0.4,0.2-0.7c0,0,0,0,0-0.1
		c-0.2-0.3-2.3-3-1.4-3c0.2,0,0.4,0.2,0.5,0.4c0.3,0.4,0.6,0.6,1.1,0.8c0.3,0.1,0.4,0.3,0.4,0.6C59.5,53.9,60,54.5,61,54.5z"/>
	<path class="st13" d="M66.7,52.7c-0.5,0.5-0.5,1,0.1,1.5l0.5,1.7c0.4,1.2-3.3-1.3-3.5-1.7c1.6,0.6,2.4,0.1,2.2-1.4
		c0-0.3-0.2-0.5-0.5-0.5c0,0,0,0-0.1,0c-0.9,0.2-1.5,0.8-1.7,1.9c-0.8,0-0.8-1.3-0.1-1.6c0,0,1.7-1.1,1.7-1.1
		c0.2-0.1,0.5-0.1,0.7,0.1l0,0L66.7,52.7z"/>
	<path class="st2" d="M54,53v0.8L53.5,54l-0.7-0.3c-0.6-0.6-1.5-0.8-2.1-1.1c-0.5-0.5-0.5-0.8,0-1.1c0.3-0.1,0.6-0.1,0.9,0.1L54,53z
		"/>
	<path class="st23" d="M70.5,51.7l0.6,1L69.8,54h-0.5L70.5,51.7z"/>
	<path class="st2" d="M55.8,64c-1,1.5-0.7,2,0.9,1.5L57,66l2.5,11l-1,0.5c-0.7,0.8-0.6,1.2,0.3,1.3l1.2,0.8c0.5,1.8,0.2,3.3-1,4.5
		h-1.2c-0.5-0.8-0.4-1.7,0.2-2.7c0.2-0.3,0.1-0.6,0-0.8c-1.3-1.6-1.5-3.5-0.5-5.5c0.5-0.9,0.2-1.4-0.9-1.4c0.2-0.8,0-1.4-0.5-1.8
		l0.1-2c0-0.3-0.1-0.6-0.4-0.8c-1.6-1.2-2.3-2.7-2.1-4.6c0-0.4,0-0.7-0.2-0.9l-2.2-2.4c-0.2-2.1-1-3.7-2.5-5
		c-0.6-0.5-0.9-0.4-0.9,0.4c0,1.4,0.5,2.3,1.6,2.7c0.3,0.1,0.5,0.3,0.6,0.6c0.2,0.5,0.5,1,0.9,1.3l0.2,2.7c0,0.3,0.2,0.6,0.5,0.8
		c1,0.6,1.5,1.5,1.5,2.7c0,0.3-0.2,0.6-0.5,0.7c-1,0.4-1.8,0.3-2.5-0.4c-0.2-0.2-0.1-0.5,0-0.7l0,0c0.7-0.6,0.5-1-0.5-1.2
		c-0.2-0.1-0.5-0.3-0.7-0.6L47,62l-1.7-2.9c-0.1-0.2-0.1-0.5,0.1-0.7c1.4-1.1,1.2-1.3-0.5-0.6c-0.3,0.1-0.7,0.1-0.9-0.1l-2-2.3
		c-0.1-0.1-0.1-0.3,0.1-0.5c0,0,0.1,0,0.1-0.1l2.3-1.1c0.3-0.1,0.6-0.1,0.7,0.1c1.9,2.1,2.5,2,1.7-0.4c-0.1-0.2,0.1-0.5,0.3-0.6
		l1.8-0.7c0.3-0.1,0.6,0,0.7,0.2C52.4,55.9,54.4,59.8,55.8,64z"/>
	<path class="st2" d="M54.5,52c1.1,0.3,1.4,1,1,1.8L54,53v-0.5L54.5,52z"/>
	<path class="st17" d="M63.8,54.2c0.2-1.1,0.8-1.7,1.7-1.9c0.3,0,0.5,0.1,0.6,0.4C66.1,54.2,65.5,54.8,63.8,54.2z"/>
	<path class="st27" d="M91.7,52.7h1.1c1.1-0.9,2.1-0.9,3.1-0.1c0.3,0.3,0.7,0.4,0.9,0.3c0.2,0,0.3-0.1,0.5-0.3L98,53
		c-1.5,1.3-3.1,1.5-4.8,0.6c-0.2-0.1-0.5-0.1-0.9-0.1L87.8,54c-0.5,0.1-0.8,0-0.9-0.2c-0.1-0.3,0-0.6,0.4-0.8l1.9-0.9
		c0.2-0.1,0.5,0,0.8,0.2C90.4,52.7,91,52.9,91.7,52.7z"/>
	<path class="st5" d="M62.8,55.3c-0.7-0.5-1.4-0.5-2.3,0l0.4-0.8C61.6,51.5,62.2,51.8,62.8,55.3z"/>
	<path class="st19" d="M74.1,52.3l0.9,0.5v0.5c-0.7,1-1.6,1.3-2.8,0.8c-0.4-0.1-0.5-0.3-0.5-0.6c0.1-0.2,0.4-0.4,0.8-0.4
		C73.2,53,73.7,52.8,74.1,52.3z"/>
	<path class="st14" d="M66.7,52.7L68,53v1l-1.2,0.2C66.2,53.8,66.2,53.3,66.7,52.7z"/>
	<path class="st4" d="M54,53l1.5,0.8L56,54c-0.5,1.1-1.2,1-2-0.3V53z"/>
	<path class="st20" d="M52.8,53.7l0.7,0.3v0.2C52,55.4,51.7,55.3,52.8,53.7z"/>
	<path class="st16" d="M54,53.7c0.8,1.3,1.4,1.4,2,0.3c1.2,0,1.4,0.4,0.5,1.2L55.8,56L55,55.7l-1.5-1.5V54L54,53.7z"/>
	<path class="st14" d="M69,54l0.5,2l-0.7,0.7L68,54H69z"/>
	<path class="st26" d="M69,54l0.2-0.1h0.5l0.5,0.3v1.2L69.5,56L69,54z"/>
	<path class="st21" d="M40.8,54.6c-0.9,1.8-2.3,3-4.3,3.6c-0.3,0.1-0.6,0.3-0.8,0.5c-0.9,1.3-2.2,1.9-3.9,1.9
		C34.3,57.8,37.3,55.7,40.8,54.6z"/>
	<path class="st11" d="M74.2,57.1c-1,0.4-1.2,0.1-0.7-0.8c0.5-0.8,1.1-1.3,2-1.6c0.2-0.1,0.3,0,0.4,0.2c0,0.1,0,0.1,0,0.2
		C75.7,56,75.1,56.7,74.2,57.1z"/>
	<path class="st27" d="M62.8,55.3l4,2c-2.2,3.1-4.8,5.9-7.8,8.4c-0.5,0.4-1.4,0.3-2,0.3c0.1-2.6-1.5-5.2-3.5-9.1
		c-0.1-0.2,0-0.5,0.2-0.6c0,0,0,0,0.1,0l1.3-0.5l0.7,0.2c0.9,0.4,1.7,0.4,2.5-0.2l2.3-0.5C61.4,54.8,62.2,54.8,62.8,55.3z"/>
	<path class="st2" d="M78.2,59c-1.9,0.9-2.9,2.4-2.9,4.4c0,0.3,0.2,0.4,0.4,0.4C77.7,63,78.5,61.4,78.2,59c0.5-0.8,1.3-1.3,2.2-1.7
		c0.3-0.1,0.5-0.4,0.6-0.7c0.5-2,1.4-2.3,2.9-0.9c0.2,0.2,0.5,0.2,0.6,0l0,0c0.5-0.5,1-0.8,1.7-0.9l-4.3,5.6
		c-0.2,0.2-0.5,0.3-0.8,0.1c-1.6-1-1.6-0.7-0.2,1.1v0.5l-2.3,3.6c-0.1,0.2-0.4,0.3-0.6,0.2l0,0c-1.5-1-1.6-0.7-0.4,0.8
		c0.2,0.2,0.2,0.5,0.1,0.8l-1.6,4h-1c-1.7,0.2-1.7,0.6,0,1.2l0.5,0.5L74.7,77l-1,0.5c-1,0.7-0.9,1.2,0.2,1.6l0.2,0.2l-0.3,3.6
		c0,0.2-0.2,0.5-0.4,0.9c-0.5,0.7,0.5,1,0.5,1.7c0,0,0,2.6,0,2.6c-1,1.2-0.8,2,0.5,2.5c-1.1,4.7-3.2-0.6-2.2-3.3
		c0.1-0.4,0.2-0.7,0-0.9l-0.4-0.9c-0.1-0.3-0.1-0.6,0.1-0.7c1.4-1.1,0.8-1.3-1.6-0.7l-2.2-0.8c-0.3-0.1-0.5-0.4-0.5-0.6l0.2-4.2
		c0-0.3,0.3-0.5,0.6-0.5c1.6,0,1.6-0.3,0.1-0.9c-0.3-0.1-0.4-0.4-0.4-0.7L69,72v-1.8c2.4,1.2,2.6,0.9,0.8-0.8l1.5-4l1-1.5
		c1.9,0.6,2.1,0.3,0.5-1c0.4-1.8,1.3-3.4,2.5-4.8c1.7,1.1,2.1,0.8,1-1c0-1.6,0.7-2.4,2.2-2.4c0.2,0,0.4,0.3,0.4,0.5L78.2,59z M73,71
		c-1.5,1.2-2,2.7-1.5,4.5c0.1,2,0.4,2,1,0c0.3-0.4,1.2-0.9,0.8-1.5C72.9,73.1,72.8,72.1,73,71c1.5-1.5,2.3-3.2,2.4-5.2
		c0-0.9-0.2-1.1-0.8-0.6c-1,0.8-1.5,1.8-1.7,3c0,0.2,0,0.6,0.2,0.9C73.2,69.8,73.2,70.4,73,71z M71.7,82.5c1.2-0.3,0.5-2.9,0.2-4.1
		c-0.1-0.2-0.2-0.3-0.4-0.2c0,0-0.1,0-0.1,0.1c-1.4,1.2-1.5,2.5-0.5,3.9C71.1,82.5,71.4,82.6,71.7,82.5z"/>
	<path class="st23" d="M102.5,54.7c0.1,22.3,0.1,37.2,0,44.8c0,0.5-0.2,0.7-0.8,0.7c-0.6-0.6-0.7-1.5-0.5-2.7c0.1-0.5,0-0.6-0.2-0.1
		c-0.4,0.7-1,1.3-1.7,1.7c-0.2,0.1-0.4,0.1-0.6,0c-0.4-0.3-0.2-0.5,0-0.7c1.1-1.1,1.9-2.4,2.6-3.9c0.4-1.1,0.2-2.1-0.4-2.7L101,91
		l0.6-1c0.1-0.2,0.1-0.5-0.1-0.6c-0.4-0.3-0.6-0.7-0.5-1.3c0.5-4.1,0.5-8.2,0-12.3v-0.2c0.5-0.4,0.6-0.9,0.3-1.3
		c-2.8-3.3-6.2-5.5-9.3-8.9c-0.2-0.2-0.5-0.3-0.8-0.2c-0.4,0.2,2.2,2.7,2.8,3.6c-0.4,0.5-0.9,0.5-1.2,0L90,65.6
		c-0.2-0.2-0.5-0.2-0.7,0l0,0l-0.7,0.7l-2.6-5l0.1-2c0-0.3,0.2-0.5,0.5-0.5h13.7c0.3,0,0.6-0.2,0.7-0.4L102.5,54.7z M94.4,62.2
		c-1.7,1.5-4,0.7-5.8,0.9c-0.3,0-0.6,0.3-0.6,0.6c0.1,2.2,5.9,0.2,6.8-0.4c0.2-0.2,0.5-0.1,0.8,0c0.9,0.7,6.2,2.4,5.9,0.5
		c0-0.2-0.3-0.4-0.7-0.5L95.2,62C94.9,62,94.6,62,94.4,62.2z"/>
	<path class="st25" d="M56.5,55.3l1.2,0.4l0.5,0.1c-0.8,0.5-1.6,0.6-2.5,0.2L56.5,55.3z"/>
	<path class="st9" d="M71.8,55.3c-0.6,0.5-0.7,1.5-0.1,2l2.1,1.9c-0.7,1.8-1.3,2-2.1,0.6c0.5-0.7,0.3-1-0.4-1c-1-1.3-2-1.1-2.8,0.5
		L67,60.7l-7,6.8c-1.6,0.8-1.5,1.3,0.2,1.5c0.2,0,0.5,0.2,0.6,0.5l0.9,1.8c0.2,0.3,0.2,0.7,0,0.8c-0.4,0.5-1,0.7-1.7,0.5
		c-0.3-0.1-0.5,0-0.4,0.3l0.4,1.3c0.1,0.2,0.3,0.3,0.5,0.2c0.1,0,0.1-0.1,0.1-0.1l9.5-9.1l1,0.2l-1.5,4L69,70c0-0.3,0-0.5-0.1-0.6
		c-0.1-0.2-0.4-0.2-0.7,0c0,0-0.1,0-0.1,0.1c-2.5,2.4-4.9,4.9-7.4,7.4c-3,3.1,4.5,2.8,5.4,2.9c0.3,0,0.6-0.2,0.7-0.4
		c0.4-1.4,1-6.8,2.1-7.2l-0.7,4.3c0,0.3,0.1,0.6,0.4,0.7c1.5,0.6,1.5,0.9-0.1,0.9c-0.3,0-0.6,0.2-0.6,0.5l-0.2,4.2
		c0,0.2,0.2,0.5,0.5,0.6l2.2,0.8c-0.6-0.2-1.3-0.2-1.8,0c-0.3,0.1-0.5,0.4-0.5,0.7c-0.5,3.6,0.3,6,1.1,9.4c0.6,2.6,1.2,5.1,1.8,7.6
		c-0.3,0.2-0.6,0.2-0.9,0c-0.3-0.1-0.6-0.1-0.8,0.1l-8,7.6c-0.2,0.2-0.2,0.3,0.1,0.4c0.8,0.1,1.4,0.5,1.8,1.2H60l-1.8,0.8
		c-0.3,0.1-0.5,0.3-0.6,0.6c-0.1,0.2-0.1,0.5,0.1,0.9c0.2,0.6-0.1,1-0.9,1c-0.3-0.9-0.7-1-1.3-0.2l-0.8-0.3l1-0.8l13.2-13.4
		c0.1-0.1,0.1-0.3,0-0.5l-0.1-0.1c-1.1-0.3-1.7,0-1.8,1.1c0,0.3-0.2,0.6-0.4,0.8l-1.7,1.7c-0.2,0.2-0.6,0.3-0.8,0.1
		c-0.8-0.5-1.1-1.1-1-2c0-0.3-0.1-0.6-0.3-0.7c-0.8-0.5-0.8-0.8,0-1c0.3-0.1,0.7,0,0.8,0.2c0.4,0.5,0.5,1.1,0.4,1.9
		c0,0.3,0.1,0.5,0.3,0.6l0,0c0.8,0.1,2.2-2,1.2-2.6c-0.3-0.2-0.5-0.4-0.5-0.7c-0.1-1.7,0.8-2.9,2.6-3.4l0.2,2.2
		c0.9,1.1,1.2,0.8,0.8-0.8c0.2-0.8,0.1-1.4-0.5-1.8c0.4-0.7-0.3-1.8-1-1.1L61,100l-0.8,0.2L57,104l-0.2,0.5
		c-0.5-0.4-0.8-0.3-1.1,0.2c-0.7,0.2-1.2,0-1.3-0.4c-0.1-0.2,0.1-0.4,0.3-0.5h0.1c3.6-0.2,5.3-14.9,5.5-17.7c0-0.4-0.1-0.7-0.2-0.9
		L59,84c1.1-1.2,1.5-2.8,1-4.5L59.5,77L57,66c0.6,0,1.6,0.1,2.1-0.3c3-2.4,5.6-5.2,7.8-8.4l2-0.5l0.7-0.7l0.8-0.5L71.8,55.3z
		 M59,70.6c0,2.6,1.6-0.2,0.5-0.5C59.3,70,59.1,70.2,59,70.6C59.1,70.5,59,70.5,59,70.6z M64.1,80.5c-1.7,0.2-1.9,0.9-0.5,2.2
		c0.2,0.2,0.6,0.3,0.8,0.1c0.9-0.5,1.1-1.2,0.5-2C64.7,80.6,64.4,80.4,64.1,80.5z M61.8,82.9c-1.2,0.1-1.5,0.7-0.8,1.8
		c0.2,0.3,0.5,0.4,0.8,0.4c1.1-0.1,1.4-0.7,0.8-1.8C62.4,83.1,62.1,82.9,61.8,82.9z M66.3,83c-1,0.3-1.3,1-0.8,2.3
		c0.1,0.3,0.4,0.4,0.7,0.3l0,0c1-0.5,1.3-1.2,0.8-2.2C66.9,83.1,66.6,82.9,66.3,83z M65.1,87.1c-0.1-1.6-0.6-2.2-1.3-1.9
		c-1.3,0.5-1.4,3.3,0.7,2.8C64.8,87.9,65.1,87.5,65.1,87.1z M66.3,88.5l-4.7,0.3c-0.4,0-0.7,0.3-0.8,0.7l-1.7,9.3
		c-0.1,0.3,0,0.4,0.3,0.2c4.4-4.3,7-6.9,7.8-7.9c0.7-0.8,0.7-1.6-0.1-2.3C67,88.6,66.7,88.5,66.3,88.5z M66.2,98.3
		c0,1.3,1,0.6,0.7-0.3C66.4,96.4,66.1,96.5,66.2,98.3z"/>
	<path class="st10" d="M71.8,55.3c0.1,0,0.2-0.1,0.4,0c0.2,0,0.3,0.2,0.4,0.5l1.2,3.5l-2.1-1.9c-0.3-0.3-0.4-0.6-0.4-0.8
		C71.2,56,71.4,55.6,71.8,55.3z"/>
	<path class="st4" d="M51.2,61.2L51,61.3c-0.4-0.3-0.7-0.8-0.9-1.3c-0.1-0.3-0.4-0.5-0.6-0.6c-1.1-0.4-1.7-1.3-1.6-2.7
		c0-0.8,0.3-0.9,0.9-0.4C50.2,57.5,51.1,59.1,51.2,61.2z"/>
	<path class="st11" d="M40.9,57c0.8-0.8,1.9,1.8,3.5,1.9c0.3,0,0.6,0.2,0.7,0.4c0.7,1.6-3.6-1-4.1-1.5C40.7,57.6,40.7,57.2,40.9,57z
		"/>
	<path class="st7" d="M76.2,57.2c1.1,1.8,0.7,2.1-1,1C75.3,57.6,75.6,57.3,76.2,57.2z"/>
	<path class="st6" d="M40.8,59.1c0.1,0.1,0.2,0.2,0.1,0.4c0,0.2-0.2,0.3-0.3,0.2h-0.1l-1.4-0.8c-0.2-0.1-0.2-0.3-0.1-0.5
		c0-0.1,0.1-0.1,0.1-0.1c0.4-0.2,0.7-0.1,1,0.3C40.2,58.6,40.4,58.8,40.8,59.1z"/>
	<path class="st11" d="M71.3,58.7c0.8,0,0.9,0.3,0.4,1c-0.9,0.4,1.5,4-1,2C69.3,60.6,69.4,59.5,71.3,58.7z"/>
	<path class="st6" d="M38,60l-0.5,0.2L35.3,61l-0.1-0.5c0.2-0.8,1.2-0.4,1.6-0.9C37.6,58.6,38,58.7,38,60z"/>
	<path class="st23" d="M78.2,59c0.3,2.4-0.5,4-2.5,4.8c-0.2,0.1-0.4,0-0.4-0.2C75.3,61.5,76.3,59.9,78.2,59z"/>
	<path class="st12" d="M86,61.3l2.5,5.1l0.5,0.9c0.7,5,0,9.9-2.1,14.5c-1.4,1.9-9.7,9.8-11.9,8l0.2-0.5c4.6-1.3,8.1-4,10.5-8
		c4-7.6,3.4-14.8-1.8-21.5c-0.2-0.2-0.2-0.4,0-0.6c0.1-0.2,0.4-0.1,0.6,0c0,0,0,0,0.1,0.1L86,61.3z"/>
	<path class="st12" d="M68.5,59.2l1.4,4c0.1,0.3,0,0.6-0.3,0.5c-0.6,0-0.8-0.3-0.7-1c0-0.3-0.1-0.5-0.3-0.7l-1.1-0.8L67,60.7
		L68.5,59.2z"/>
	<path class="st18" d="M38,60c1,0,1.8,0.3,2.5,1l-0.8,0.3l-2.2-1.1L38,60z"/>
	<path class="st6" d="M42.2,60.1c0.3-0.3,0.6-0.3,0.8,0.2c0.1,0.2,0.1,0.5-0.1,0.7c0,0,0,0-0.1,0c-0.2,0.1-0.4,0.1-0.6-0.1
		C42,60.8,42,60.4,42.2,60.1L42.2,60.1z"/>
	<path class="st11" d="M35.2,60.5l0.1,0.5c-0.1,1.2-2.9,2-3.7,3.8c-0.2,0.3-0.4,0.6-0.7,0.6c-1.3,0.3-0.3-1.5,0.1-1.9
		C32.3,62.4,33.7,61.4,35.2,60.5z"/>
	<path class="st10" d="M67,60.7l0.5,0.5c-1,0.7-1.8,1.5-2.3,2.6c-0.1,0.3-0.1,0.6,0.1,0.8c0.7,1,1,2.1,0.9,3.4l-0.5,0.7
		c-0.1-0.4-0.3-0.7-0.7-0.9c-0.2-0.2-0.3-0.5-0.3-0.7c0.2-0.8,0-1.4-0.6-1.8c-0.2-0.2-0.6-0.2-0.8,0l-2.4,2l-1,0.2L67,60.7z"/>
	<path class="st12" d="M35.5,63c0.1-1,0.7-1.7,1.8-1.9c0.5-0.1,0.6,0,0.3,0.5C37,62.5,36.3,63,35.5,63z"/>
	<path class="st6" d="M40.5,61c0.5,0.1,0.7,0.2,0.7,0.5c-0.1,0.3-0.3,0.5-0.7,0.6c-0.5,0.1-0.7-0.2-0.7-0.8L40.5,61z"/>
	<path class="st27" d="M47,62.2l2.2,4.5c0.2,0.3,0.1,0.6,0,0.9c-0.4,0.5-1.1,0.8-1.9,0.7c-0.3,0-0.6,0-0.9,0.2
		c-1.5,1.2-3.1,1.2-4.6,0c-2.4-1.3-2.5-2.7-0.5-4.2l2.4-1.5c0-0.6,0.3-1.1,0.6-1.5c0.1-0.1,0.5-0.1,0.8,0L47,62.2z"/>
	<path class="st28" d="M51,61.3l0.2-0.1l2.2,2.4c0.2,0.2,0.2,0.5,0.2,0.9c-0.2,1.9,0.5,3.4,2.1,4.6c0.3,0.2,0.4,0.5,0.4,0.8L56,72
		c-1.2,0.6-1.1,1.2,0.5,1.8c1,0,1.3,0.5,0.9,1.4c-1,2-0.8,3.8,0.5,5.5c0.2,0.2,0.2,0.5,0,0.8c-0.6,1-0.7,1.9-0.2,2.7
		c-0.9,0.6-1.9,0.5-3-0.1v-0.4c1.9-0.1,2.3-0.6,1.1-1.8c-0.2-0.2-0.3-0.5-0.2-0.8c0.5-1.6,1.5-5.6-1.3-5.5L54,75c0-0.6,0-1.7,0-2.3
		c1.9-2.1-5.1-1.3-4.9-2.2c0-0.2,0.3-0.3,0.5-0.2c0.9,0.2,1.7,0,2.5-0.5c0.5,0,1,0.1,1.4,0.2c0.3,0.1,0.5,0,0.4-0.3
		C53.6,69,53,68.8,52,69.3c-5.6-1.7-7.8,0.3-6.5,6l-1,0.2c-0.2-1.1,0.4-6-1.4-5L41.5,69v-0.2l0.3-0.3c1.5,1.2,3.1,1.2,4.6,0
		c0.2-0.2,0.6-0.3,0.9-0.2c0.8,0.1,1.4-0.1,1.9-0.7c0.2-0.2,0.2-0.6,0-0.9L47,62.2V62l2.1,3.2c0.2,0.3,0.4,0.5,0.7,0.6
		c1,0.3,1.2,0.7,0.5,1.2c-0.2,0.2-0.3,0.5-0.1,0.7l0,0c0.7,0.7,1.5,0.8,2.5,0.4c0.3-0.1,0.5-0.4,0.5-0.7c0-1.1-0.5-2-1.5-2.7
		c-0.3-0.2-0.5-0.5-0.5-0.8L51,61.3z"/>
	<path class="st6" d="M81,61.5c2.1-0.2,3.5,0.5,4.2,2.2c0.1,0.3,0.1,0.6,0,0.9c-0.5,1.6,0,2.7,1.3,3.4c0.3,0.2,0.5,0.4,0.5,0.7
		c0.2,1.1-0.2,2.1-0.9,2.9c-0.2,0.2-0.2,0.5-0.1,0.7c0.7,1,1,2.1,0.8,3.2c0,0.3-0.2,0.5-0.6,0.7c-1.4,0.8-1.7,2.2-0.8,4.1
		c-0.7,1-1.8,1.5-3.1,1.6c-0.3,0-0.5,0.2-0.5,0.5C81.6,85,80.3,86.1,78,86c-0.3,0-0.6,0.1-0.8,0.3c-2.5,2.8-2.9,2.5-1.2-0.9
		c0.1-0.3,0.4-0.4,0.7-0.3c5.3,1,2.1-4.5,6.3-4.3c0.3,0,0.7-0.1,0.8-0.3l0.3-0.4c0.2-0.2,0.2-0.6,0-0.9c-0.7-1.5-0.3-2.7,1.2-3.4
		c1.1-0.5,0.2-2-0.3-2.8c-0.2-0.3-0.3-0.6-0.2-0.9l1-2.5c0.1-0.2,0-0.5-0.2-0.7c-1.8-1-2.3-2.5-1.3-4.6c0.2-0.4,0.1-0.8-0.2-1
		c-0.1,0-0.1,0-0.2-0.1c-1.1-0.1-2.1-0.6-2.9-1.3L81,61.5z"/>
	<path class="st11" d="M31.7,68.9c-1,0.5-3.1,3.3-3.7,3.1c0.3-3,3.1-3.2,4.5-5.2c1.1-0.3,1.9-1,2.4-2c0.1-0.3,0.4-0.5,0.7-0.6
		c0.9-0.2,3.2-2.6,3.6-1.9c0.1,0.3,0,0.6-0.2,0.8L31.7,68.9z"/>
	<path class="st18" d="M43.2,62.7L41,64c-0.5,0.4-2.7,2.7-3.1,2.1c-0.1-0.1-0.1-0.4,0.1-0.5l2.6-2.5c0.4-0.4,1-0.7,1.7-1
		C43.2,61.8,43.5,62,43.2,62.7z"/>
	<path class="st11" d="M70.2,65.3l-9.5,9.1c-0.2,0.1-0.4,0.2-0.5,0l-0.1-0.1L59.7,73c-0.1-0.3,0-0.4,0.4-0.3c0.7,0.2,1.2,0,1.7-0.5
		c0.1-0.2,0.1-0.5,0-0.8l-0.9-1.8c-0.1-0.3-0.4-0.5-0.6-0.5c-1.7-0.1-1.8-0.6-0.2-1.5l1-0.2c0,1.2,0.5,2.3,1.3,3.2
		c0.2,0.2,0.4,0.3,0.6,0.2c0.4-0.1,0.5-0.8,0-1.1c-1.2-1.2-1.1-2.3,0.2-3.3c0.2-0.2,0.6-0.2,0.8,0l0,0c0.1,0.2,0.2,0.5,0.1,0.7
		C64,67.5,63.9,67.8,64,68c0.3,1,1,1.2,2,0.8l0.5-0.7c0.7-0.1,1.1-0.5,1.2-1.2c0-0.3-0.1-0.6-0.4-0.8c-1.5-1.3-1.5-2.5,0-3.7
		c0.2-0.2,0.5-0.2,0.7,0l0,0c0.2,0.3,0.2,0.7-0.1,1.1c-0.2,0.3-0.2,0.6-0.1,0.9C68.1,65.2,69,65.5,70.2,65.3z"/>
	<path class="st5" d="M81,62c0.8,0.7,1.8,1.1,2.9,1.3c0.3,0,0.5,0.4,0.4,0.8c0,0.1,0,0.2-0.1,0.2c-1,2.1-0.5,3.6,1.3,4.6
		c0.2,0.1,0.4,0.4,0.2,0.7l-1,2.5c-0.1,0.3,0,0.6,0.2,0.9c0.5,0.7,1.3,2.2,0.3,2.8c-1.5,0.7-1.9,1.9-1.2,3.4c0.1,0.3,0.1,0.6,0,0.9
		l-0.3,0.4c-0.2,0.2-0.5,0.3-0.8,0.3C78.8,80.5,82,86,76.7,85c-0.3-0.1-0.6,0.1-0.7,0.3c-1.7,3.4-1.3,3.7,1.2,0.9
		c0.2-0.2,0.5-0.3,0.8-0.3c2.4,0.1,3.6-1,3.9-3.4c0-0.3,0.3-0.5,0.5-0.5c1.4-0.1,2.4-0.6,3.1-1.6l0.3,0.8c-2.4,4.1-5.9,6.8-10.5,8
		L74,88v-2.6c0-0.3-0.1-0.6-0.4-0.8c-0.3-0.3-0.4-0.6-0.1-0.9c0.3-0.4,0.4-0.7,0.4-0.9l0.3-3.6c4.6-2.3,4.8-6.1,4.7-10.9
		c0-0.2-0.1-0.4-0.3-0.4c-0.7-0.1-0.8,5.3-0.8,6c-0.1,1.3-0.9,2.6-2.5,4l-0.6-1l1.1-3.8l0.4-1.8l1.6-4c0.1-0.3,0.1-0.6-0.1-0.8
		c-1.2-1.6-1.1-1.9,0.4-0.8c0.2,0.1,0.5,0.1,0.6-0.2l0,0L81,62z M76.3,84.2c7-4.1,9.4-12.8,5.4-20c-0.1-0.1-0.2-0.2-0.3-0.1l0,0
		l-0.2,0.1c-0.1,0.1-0.2,0.4,0,0.7c3.3,8,1.4,14.4-5.8,19.2c-0.2,0.1-0.3,0.4-0.2,0.6C75.5,85.3,76.1,84.3,76.3,84.2z M79.4,68
		c0,0.5,0.3,1,1,1.6c0.2,0.1,0.4,0.1,0.5-0.1c0,0,0-0.1,0.1-0.1c0.4-1.1,0.3-2-0.2-2.8c-0.2-0.3-0.5-0.5-0.8-0.5
		c-0.7-0.1-1,0.2-0.7,0.9C79.4,67.2,79.4,67.5,79.4,68z M81.7,72.9c0.6-7.2-4.2,3.5-0.4,0.8C81.5,73.6,81.7,73.3,81.7,72.9z
		 M78.5,78.4c0.5,0.3,1.3-0.1,1.9-1c0.6-0.8,0.6-1.8,0.2-2.1l0,0c-0.5-0.3-1.3,0.1-1.9,1C78.1,77.1,78,78.1,78.5,78.4L78.5,78.4z
		 M76.2,81.9c0.9,0.1,1.5-0.4,1.8-1.5s0-1.4-1.1-1c-1,0.4-1.4,1-1.3,1.9C75.6,81.6,75.9,81.9,76.2,81.9z"/>
	<path class="st11" d="M88.6,63.1c1.8-0.2,4.1,0.6,5.8-0.9c0.2-0.2,0.5-0.2,0.8-0.2l5.6,1.2c0.4,0.1,0.7,0.3,0.7,0.5
		c0.4,2-5,0.2-5.9-0.5c-0.2-0.2-0.5-0.2-0.8,0c-0.9,0.6-6.8,2.6-6.8,0.4C88,63.4,88.3,63.1,88.6,63.1z"/>
	<path class="st25" d="M43.2,62.7h0.5l-2.4,1.5L41,64L43.2,62.7z"/>
	<path class="st10" d="M35.5,63c-0.2,0.2-4.1,4.4-3.4,2.8C32.8,64.2,33.9,63.3,35.5,63z"/>
	<path class="st7" d="M72.8,63c1.6,1.3,1.5,1.7-0.5,1L72.8,63z"/>
	<path class="st14" d="M55.8,64c0.8,0.1,1.2,0.6,0.9,1.5C55,66,54.7,65.5,55.8,64z"/>
	<path class="st10" d="M76.3,84.2c-0.2,0.1-0.8,1.1-1.1,0.5c-0.1-0.2,0-0.4,0.2-0.6c7.2-4.8,9.1-11.1,5.8-19.2
		c-0.1-0.3-0.1-0.6,0-0.7l0.2-0.1c0.1-0.1,0.2,0,0.3,0.1l0,0C85.8,71.3,83.3,80.1,76.3,84.2z"/>
	<path class="st9" d="M65.8,68.7c-1,0.5-1.6,0.2-2-0.8c-0.1-0.2,0-0.5,0.1-0.9c0.3-0.5-0.4-1.2-0.8-0.8l0,0c-1.3,1-1.4,2.1-0.2,3.3
		c0.3,0.3,0.4,0.6,0.3,0.8c-0.1,0.1-0.2,0.2-0.3,0.3c-0.2,0.1-0.4,0-0.6-0.2c-0.8-0.9-1.2-2-1.3-3.2l2.4-2c0.2-0.2,0.6-0.2,0.8,0
		c0.6,0.4,0.8,1,0.6,1.8c-0.1,0.3,0,0.6,0.3,0.7C65.4,68,65.6,68.3,65.8,68.7z"/>
	<path class="st10" d="M101.3,74.2L97.5,72l-1-0.5c-0.1-1-0.6-1.6-1.5-1.8l-1-1c-0.6-0.9-3.3-3.4-2.8-3.6c0.2-0.1,0.5,0,0.8,0.2
		C95.1,68.7,98.4,71,101.3,74.2z"/>
	<path class="st23" d="M73,71c0.2-0.6,0.2-1.2-0.1-1.8c-0.2-0.4-0.2-0.7-0.2-0.9c0.2-1.2,0.8-2.2,1.7-3c0.6-0.5,0.9-0.3,0.8,0.6
		C75.3,67.8,74.5,69.5,73,71z"/>
	<path class="st27" d="M92.8,68.7c0,0.8-0.1,16.6-0.1,18c0,0.3-0.2,0.6-0.5,0.7c-0.8,0.4-1.8,0.6-2.7,0.5l-4.2,3.3
		c-1.2-3.4-0.6-6.5,1.8-9c2.2-3.4,3-7,2.5-11c0-0.3,0-0.6,0.2-0.9c0.6-1.2,0.4-2.2-0.7-3.1l-0.5-0.9c0.3-0.2,1-1.3,1.4-0.8l0,0
		L92.8,68.7z"/>
	<path class="st18" d="M34.8,69l-1-0.3l2.8-2.6c0.3-0.3,0.6-0.4,0.8-0.4c0.5,0.1,0.4,0.7-0.1,1L34.8,69z"/>
	<path class="st15" d="M79.3,67c-0.2-0.7,0-1,0.7-0.9c0.3,0,0.6,0.2,0.8,0.5c0.5,0.8,0.5,1.7,0.2,2.8c-0.1,0.2-0.3,0.3-0.4,0.2
		c0,0-0.1,0-0.1-0.1c-0.7-0.5-1-1.1-1-1.6C79.4,67.5,79.4,67.2,79.3,67z"/>
	<path class="st10" d="M31.5,66.7c-1.6,0.9-2.9,2.1-4,3.6c-0.2,0.3-0.5,0.4-0.8,0.5c-1.6,0.1,2.4-3.3,2.6-3.5
		C29.9,66.4,30.7,66.2,31.5,66.7z"/>
	<path class="st23" d="M32.5,66.8c-1.4,2-4.2,2.2-4.5,5.2c-2,0.1-2.1,0.5-0.3,1.2c0.4,0.5,1,0.8,1.8,0.8c-0.8,0.6-0.6,0.9,0.5,1
		l-1.7,2.8c-0.2,0.4-0.3,0.7-0.3,0.9c0.3,1.6,3.1-3,3.5-3.5l0.5,0.3c-0.9,0.6-0.7,1.8-1.6,2.3c-0.5,0.3-0.6,0.8-0.4,1.5
		c0.1,0.4,0.3,0.4,0.5,0.1l2.8-4.1h1.5c-0.8,1.3-3.2,2.5-2.7,4c0.1,0.3,0.3,0.3,0.5,0c0.6-1,1.5-1.8,2.5-2.3l-1,2l-0.5,1.2L33,80.3
		c-0.5,0-1.5,0-2,0c-1.4-0.5-2.7-0.4-3.9,0.2v11c0,0.4,0.1,0.7,0.3,0.9c0.3,0.2,0.6,0.1,0.9-0.4c1.4-0.4,2.4-0.2,3,0.8
		c-2.9,0.5-3,1-0.2,1.6l-0.3,1.2h-0.5l-3-2.6c-0.1-0.1-0.2,0-0.3,0l0,0c-0.1,0.2-0.3,0.6-0.1,0.8l9.2,8.7l-2.7,2.2
		c-0.2,0.2-0.5,0.2-0.8,0c-1.5-1.3-3.3-1.8-5.3-1.5c-1.2,0.3-1.1,1.3,0.2,1.2c1.7-0.1,3.3,0.3,4.8,1.4c0.2,0.2,0.6,0.2,0.8,0
		c1.9-1.2,3.9-1.6,6-1.2c0.3,0,0.5-0.1,0.6-0.2L40,104h0.5l2.8,4.7c-5.2,0.6-10.5,0.8-15.7,0.6c-0.3,0-0.6,0.1-0.8,0.4
		c-0.8,1.3-0.9,2.7-0.2,4.1h-1V68.6c0-0.3,0.2-0.5,0.5-0.6c1-0.2,1.9-0.6,2.7-1.3l0.5,0.5c-0.2,0.2-4.2,3.5-2.6,3.5
		c0.3,0,0.6-0.2,0.8-0.5c1.1-1.5,2.4-2.7,4-3.6L32.5,66.8z M28.8,75.8c0.7-0.4-0.1-1-0.6-0.6c-1.1,0.7-1.6,1.8-1.6,3
		c0,0.4,0.1,0.4,0.4,0.2c0.7-0.5,1.1-1.1,1.3-1.9C28.3,76.3,28.5,76,28.8,75.8z"/>
	<path class="st25" d="M89,67.2c1.1,0.8,1.3,1.9,0.7,3.1c-0.2,0.3-0.2,0.6-0.2,0.9c0.5,4-0.4,7.6-2.5,11v-0.5
		C89,77.1,89.7,72.3,89,67.2z"/>
	<path class="st10" d="M37.5,68c0.1-0.2,0.3-0.3,0.5-0.3c0.4-0.1,0.5,0,0.4,0.4c-0.2,0.7-0.7,1.3-1.4,1.9c-0.3,0.2-0.6,0.3-0.9,0.2
		c-1.2-0.4-1-0.9,0.6-1.5C36.9,68.5,37.2,68.3,37.5,68z"/>
	<path class="st10" d="M41.5,68.8V69L41,69.2h-1L39.3,69C39.8,67.8,40.5,67.7,41.5,68.8z"/>
	<path class="st12" d="M75.2,78.7V78c1.6-1.4,2.5-2.7,2.5-4c0-0.7,0.1-6.1,0.8-6c0.1,0,0.3,0.2,0.3,0.4C78.9,72.5,79,76.5,75.2,78.7
		z"/>
	<path class="st29" d="M33.7,68.7l1,0.3c-1.1,0.1-1.2,0.4-0.5,0.9c-0.6,0.5-0.6,0.8,0,1c0.4,0.1,0.7,0.3,0.7,0.4
		c0.1,0.2,0.1,0.3,0,0.5c-1.8,0.6-1.8,1,0,1l-1.1,1.4c-0.1,0.2-0.1,0.4,0,0.5c0,0,0.1,0,0.1,0.1c0.4,0.1,0.7-0.1,1-0.5L35,75
		l-0.3,0.3h-1.5c-0.5-0.4-0.9-0.3-1.2,0.2l-0.5-0.3L32,74c1.6-0.4,1.6-0.7,0-1c0.1-1,1.3-0.8,1.6-1.4c0.6-1.1-0.9-0.7-1.4-0.3
		c-0.8,0.7-1.6,1.5-2.2,2.4L29.5,74c-0.8,0-1.4-0.2-1.8-0.8L28,72c0.5,0.1,2.6-2.7,3.7-3.1C32.5,69.4,33.2,69.4,33.7,68.7z"/>
	<path class="st2" d="M52,69.3v0.5c-0.7,0.5-1.5,0.7-2.5,0.5c-0.3,0-0.5,0.1-0.5,0.2c-0.2,0.9,6.8,0.1,4.9,2.2l-2.7-0.1
		c-0.4,0-0.7,0.1-0.8,0.3c-0.2,0.3-0.2,0.7,0,1.1c0.1,0.2,0.4,0.2,0.8,0.2l2.6-0.4v1.3l-2,0.2c-1.1-0.6-1.9-0.2-2.3,1.2
		c-1.7,0.3-3.1-0.1-4.2-1.2C44.2,69.5,46.4,67.6,52,69.3z"/>
	<path class="st13" d="M92.8,68.7c0.4,0.5,0.8,0.5,1.2,0l1,1c-0.4-0.1-0.7-0.2-1-0.1c-0.3,0-0.4,0.3-0.4,0.7L93.8,88h-0.5l-0.5-17
		V68.7z"/>
	<path class="st6" d="M39.3,69l0.8,0.2l0.1,1c0,0.3-0.2,0.5-0.5,0.7c-2.2,1.2-2.2,2.3-0.1,3.2c0.3,0.1,0.4,0.4,0.4,0.7
		c0,0.6,0.2,1.1,0.7,1.5c0.2,0.2,0.3,0.5,0.2,0.7c-1,1.4-2-2.4-3.3-3l-0.7-0.7c-0.4-1.4-0.1-2.3,1.2-2.7c0.3-0.1,0.6-0.3,0.7-0.6
		L39.3,69z"/>
	<path class="st23" d="M41,69.2c0.2,1.1,0.8,1.6,2,1.5c0,1.4-0.6,4.7,1.5,4.8l1-0.2c1.2,1.1,2.6,1.5,4.2,1.2c1.6,1,2.4,0.6,2.3-1.2
		l2-0.2l0.3,0.5l-0.8,2.2L53.2,78c-4.3,0.7-7.8,2.7-10.7,6c1.3-2.8,1.2-5.5-0.2-8.2c0-2-2.8,0.3-0.3,0.5c-0.5,0.8-3.1,4.9-4.2,3.7
		L37,78.5V78c1.5-0.2,1.7-0.6,0.4-1.2c-0.2-0.1-0.2-0.3-0.1-0.5l0,0l0.5-0.7c0.1-0.2,0-0.4-0.2-0.5c0,0-0.1,0-0.2-0.1
		c-0.7-0.1-0.7-0.4,0-0.8c1.3,0.6,2.3,4.4,3.3,3c0.1-0.2,0.1-0.5-0.2-0.7c-0.4-0.4-0.7-0.9-0.7-1.5c0-0.3-0.2-0.6-0.4-0.7
		c-2.1-1-2.1-2.1,0.1-3.2c0.3-0.2,0.5-0.5,0.5-0.7l-0.1-1H41V69.2z M40.9,72.5c0,0.7,0.6,1,1,0.5v-0.1c0.2-0.5,0.1-0.8-0.4-0.9
		C41.3,72,41,72.2,40.9,72.5L40.9,72.5z"/>
	<path class="st12" d="M41.5,69l1.5,1.5v0.2c-1.2,0.1-1.8-0.4-2-1.5L41.5,69z"/>
	<path class="st24" d="M52,69.7v-0.5c1-0.5,1.6-0.3,1.8,0.4c0.1,0.3,0,0.4-0.4,0.3C53,69.8,52.5,69.7,52,69.7z"/>
	<path class="st27" d="M69,70c0,0,0,1.9,0,2c-1.1,0.4-1.7,5.8-2.1,7.2c-0.1,0.3-0.4,0.5-0.7,0.4c-0.9-0.1-8.5,0.3-5.4-2.9
		c2.4-2.5,4.9-5,7.4-7.4c0.2-0.2,0.5-0.3,0.7-0.1c0,0,0,0,0.1,0.1C69,69.5,69.1,69.7,69,70z"/>
	<path class="st23" d="M69.8,69.5c1.9,1.7,1.6,1.9-0.8,0.8V70L69.8,69.5z"/>
	<path class="st19" d="M95,69.7c0,4.3,1,14.7-0.5,18.2h-0.7l-0.2-17.7c0-0.3,0.2-0.6,0.4-0.7C94.3,69.6,94.6,69.6,95,69.7z"/>
	<path class="st28" d="M95,69.7c0.9,0.2,1.4,0.8,1.5,1.8C95.1,74.7,96,83.8,96,87.7c-0.3,1.1-1,1.8-2,2.2l0.5-2
		C96,84.5,95,74,95,69.7z"/>
	<path class="st12" d="M34.2,70c1.1,0.3,2.9,2.3,1,2.1L35,72c0-0.2,0-0.4,0-0.5c-0.1-0.2-0.3-0.3-0.7-0.4
		C33.6,70.8,33.6,70.5,34.2,70z"/>
	<path class="st12" d="M59.6,70.1c1.1,0.3-0.5,3-0.5,0.5C59.1,70.2,59.3,70.1,59.6,70.1z"/>
	<path class="st15" d="M44.5,75.5c-2.1-0.1-1.5-3.3-1.5-4.8l0.1-0.2C44.9,69.5,44.2,74.4,44.5,75.5z"/>
	<path class="st15" d="M81.3,73.7c-3.8,2.7,1-8,0.4-0.8C81.7,73.3,81.5,73.6,81.3,73.7z"/>
	<path class="st12" d="M32,73c-0.6-0.1-1,0.2-1,0.8h-1c0.6-0.9,1.4-1.7,2.2-2.4c0.4-0.3,2-0.8,1.4,0.3c-0.1,0.2-0.4,0.4-0.8,0.5
		C32.4,72.2,32.1,72.5,32,73z"/>
	<path class="st28" d="M73,71c-0.2,1.1-0.1,2.1,0.3,3c0.1,0.3,0,0.6-0.1,0.8l-0.7,0.7h-1C71,73.7,71.5,72.2,73,71z"/>
	<path class="st25" d="M92.8,71l0.5,17c0.3,1-0.1,1.7-1,2c-0.4-0.9-1.1-1.5-2-1.8L89.5,88c1,0,1.9-0.2,2.7-0.5
		c0.3-0.1,0.4-0.4,0.5-0.7L92.8,71z"/>
	<path class="st7" d="M75.2,71.5v1.2C73.6,72.2,73.6,71.8,75.2,71.5z"/>
	<path class="st16" d="M75.2,71.5h1l-0.4,1.8l-0.5-0.5L75.2,71.5L75.2,71.5z"/>
	<path class="st17" d="M96.5,71.5l1,0.5c-0.4,0.5-0.9,1.8,0,1.9c0.7,0,1.4,0.2,2,0.6c-0.5,0.4-1.2,0.6-1.8,0.7
		c-0.3,0-0.5,0.2-0.5,0.5c-0.2,3.4-0.1,6.7,0.3,10c-2.9,2.7,7.5,1.2,0.2,0c0.3-0.6,0.8-0.9,1.5-0.7c0.2,0.1,0.5,0,0.6-0.2v-0.1
		l-0.1-2.9v-0.5c0.4-0.5,0.4-1,0-1.5v-0.5c0.7-0.8,0.7-1.7,0-2.5v-0.5l1.2-0.6c0.4,4.1,0.4,8.2,0,12.3h-4.5L96,87.7
		C96,83.8,95.1,74.7,96.5,71.5z"/>
	<path class="st11" d="M28,72l-0.3,1.2C25.9,72.5,26,72.1,28,72z"/>
	<path class="st10" d="M35,72l0.2,0.1L35,73C33.2,72.9,33.2,72.6,35,72z"/>
	<path class="st12" d="M41.5,72.1c0.5,0.1,0.6,0.4,0.4,0.9c-0.1,0.3-0.4,0.4-0.6,0.3c0,0,0,0-0.1,0c-0.2-0.1-0.3-0.4-0.3-0.7
		C41,72.3,41.2,72.1,41.5,72.1z"/>
	<path class="st7" d="M56,72c0.5,0.4,0.7,1,0.5,1.8C54.9,73.2,54.8,72.6,56,72z"/>
	<path class="st13" d="M97.5,72l3.8,2.2c0.3,0.4,0.2,0.8-0.3,1.3l-1.4-1c-0.6-0.4-1.3-0.6-2-0.6c-0.3,0-0.5-0.2-0.5-0.5l0,0
		C97,72.9,97.2,72.5,97.5,72z"/>
	<path class="st24" d="M54,72.7v1l-2.6,0.4c-0.4,0.1-0.7,0-0.8-0.2c-0.3-0.4-0.3-0.7,0-1.1c0.1-0.2,0.5-0.3,0.8-0.3L54,72.7z"/>
	<path class="st8" d="M32,73v1l-2,1c0-0.7,0.3-1.1,1-1.2C31,73.1,31.4,72.9,32,73z"/>
	<path class="st12" d="M32,73c1.6,0.3,1.6,0.6,0,1V73z"/>
	<path class="st12" d="M35,73c1.4,0.4,1.4,0.9,0,1.5c-0.3,0.4-0.6,0.6-1,0.5c-0.1,0-0.2-0.2-0.1-0.4c0,0,0-0.1,0.1-0.1L35,73z"/>
	<path class="st10" d="M36.8,73.5l0.7,0.7c-0.7,0.4-0.7,0.7,0,0.8c0.2,0,0.4,0.3,0.4,0.5l-0.5,0.7c-0.1,0.2-0.1,0.4,0.1,0.5l0,0
		c1.2,0.5,1.1,0.9-0.4,1.2c0-0.5-0.2-0.9-0.6-1.2c-0.2-0.2-0.2-0.4,0-0.6l0,0c0.7-0.6,0.6-1-0.4-1.2L36.8,73.5z"/>
	<path class="st10" d="M30,73.7h1c-0.7,0.2-1,0.6-1,1.2c-1.1,0-1.3-0.4-0.5-1L30,73.7z"/>
	<path class="st12" d="M32,74l-0.5,1.2c-0.4,0.5-3.2,5.1-3.5,3.5c0-0.2,0.1-0.5,0.3-0.9L30,75L32,74z"/>
	<path class="st7" d="M99.5,74.5l1.4,1v0.2l-1.2,0.6c-1-0.5-1.6-0.5-1.7,0c-0.1,0.2,0,0.4,0.3,0.5c0.1,0,0.1,0,0.2,0l1.3-0.1
		c0.7,0.8,0.7,1.7,0,2.5c-2.7,0.2-2.7,0.3,0,0.5c0.4,0.5,0.4,1,0,1.5c-0.6-0.3-1.1-0.3-1.6-0.1c-0.2,0.1-0.2,0.3-0.1,0.5l0.1,0.1
		c0.5,0.3,1,0.2,1.6-0.1l0.1,2.9c0,0.2-0.3,0.3-0.6,0.3c-0.6-0.2-1.1,0.1-1.5,0.7h-0.2c-0.5-3.3-0.6-6.7-0.3-10
		c0-0.3,0.3-0.5,0.5-0.5C98.4,75.1,99,74.9,99.5,74.5z M98.7,83.1c-2.8,0.1,1,2,0.7,0.5C99.3,83.2,99,83,98.7,83.1z"/>
	<path class="st24" d="M52,75.3c0.1,1.8-0.7,2.2-2.3,1.2C50.1,75.1,50.9,74.7,52,75.3z"/>
	<path class="st18" d="M28.2,76.6c-0.2,0.8-0.6,1.4-1.3,1.9c-0.3,0.2-0.4,0.2-0.4-0.2c0-1.3,0.5-2.3,1.6-3c0.5-0.4,1.4,0.2,0.6,0.6
		C28.5,76,28.3,76.3,28.2,76.6z"/>
	<path class="st10" d="M33.3,75.2l-2.8,4.1c-0.2,0.3-0.4,0.3-0.5-0.1c-0.2-0.7-0.1-1.2,0.4-1.5c0.3-0.2,0.5-0.4,0.6-0.7
		C31.3,76.2,32.2,74.5,33.3,75.2z"/>
	<path class="st12" d="M35,75h1c-0.1,0.8-0.4,1.4-1,2c-1,0.5-1.9,1.3-2.5,2.3c-0.2,0.3-0.4,0.3-0.5,0c-0.5-1.4,2-2.7,2.7-4L35,75z"
		/>
	<path class="st9" d="M36,75c1,0.2,1.1,0.6,0.4,1.2c-0.2,0.1-0.2,0.4,0,0.6l0,0c0.4,0.3,0.6,0.7,0.6,1.2h-1c0.2-0.8-0.1-1.2-1-1
		C35.6,76.4,35.9,75.8,36,75z"/>
	<path class="st11" d="M42.3,75.7L42,76.2C39.5,76.1,42.3,73.7,42.3,75.7z"/>
	<path class="st15" d="M78.6,76.3c1.3-2,3-0.9,1.7,1.1C79,79.3,77.3,78.3,78.6,76.3z"/>
	<path class="st2" d="M54.3,75.5c2.9-0.1,1.8,3.9,1.3,5.5c-0.1,0.3,0,0.6,0.2,0.8c1.2,1.1,0.8,1.7-1.1,1.8c-1.6,0.1-0.6-2.8-1-4
		c1.4-0.8,1.4-1.4-0.2-1.8L54.3,75.5z"/>
	<path class="st14" d="M71.5,75.5h1C72,77.5,71.7,77.5,71.5,75.5z"/>
	<path class="st27" d="M42.3,75.7c1.4,2.7,1.5,5.5,0.2,8.2c-4,4.9-5.2,10.5-3.5,16.8c-0.7,3.3-3.5-0.8-4-1.8l0.3-17.8
		c0-1.3,1.4-1.7,2.5-1.3c1.2,1.2,3.8-2.9,4.2-3.7L42.3,75.7z"/>
	<path class="st20" d="M99.8,76.3v0.5l-1.3,0.1c-0.2,0-0.4-0.1-0.5-0.3c0-0.1,0-0.1,0-0.2C98.2,75.8,98.8,75.8,99.8,76.3z"/>
	<path class="st11" d="M35,77c0.9-0.2,1.2,0.1,1,1l-0.2,0.2C35.2,78.7,34.7,79,34,79L35,77z"/>
	<path class="st20" d="M59.5,77l0.4,2.5l-1.2-0.8c0.4-0.6,0.3-1-0.3-1.3L59.5,77z"/>
	<path class="st16" d="M74.7,77l0.6,1v0.7l-1,0.6L74,79c0.5-0.7,0.4-1.2-0.2-1.6L74.7,77z"/>
	<path class="st7" d="M58.5,77.5c0.6,0.2,0.7,0.7,0.3,1.3C57.9,78.7,57.8,78.3,58.5,77.5z"/>
	<path class="st14" d="M73.8,77.5c0.6,0.4,0.7,0.9,0.2,1.6C72.8,78.7,72.7,78.2,73.8,77.5z"/>
	<path class="st13" d="M53.5,77.7c1.6,0.4,1.7,1,0.2,1.8l-1-0.5l0.5-1L53.5,77.7z"/>
	<path class="st25" d="M35.8,78.2c0.4,1.2,0.9,1.3,1.3,0.3l0.7,1.5c-1.1-0.4-2.5,0-2.5,1.3c0,0-0.3,17.7-0.3,17.7l-0.4-1.2
		c-0.3-5.7-0.4-11.3-0.3-17c0-0.5-0.2-0.7-0.7-0.5L34,79C34.7,79,35.2,78.7,35.8,78.2z"/>
	<path class="st10" d="M36,78h1v0.5c-0.4,1-0.9,0.9-1.3-0.3L36,78z"/>
	<path class="st12" d="M53.2,78l-0.5,1c-12.7,1.3-16.5,19.7-9.1,28.4c0.6,0.5,0.4,1.3-0.4,1.3l-2.8-4.7l-1.5-3.2
		c-0.8-6.1,0.3-11.7,3.5-16.8C45.4,80.7,48.9,78.7,53.2,78z"/>
	<path class="st28" d="M70.9,82.2c-1.1-1.4-0.9-2.7,0.5-3.9c0.1-0.1,0.3-0.1,0.5,0l0.1,0.1c0.3,1.2,1,3.7-0.2,4.1
		C71.4,82.6,71.1,82.5,70.9,82.2z"/>
	<path class="st5" d="M52.8,79l1,0.5c0.4,1.2-0.6,4.2,1,4V84c-0.9,1.2-1.2,2.5-1,4l-0.2,0.6c-0.1,0.2-0.4,0.4-0.7,0.5
		c-3.2,0.8-3.8,7.2-3.4,9.5c0.1,0.5,0.3,0.6,0.6,0.4c0.2-0.2,0.2-0.5,0.2-1c-0.5-2.9,0.2-5.5,2-7.8c0.7-0.9,1.1-0.8,1.2,0.4
		c-0.6,3.3-1.6,6.4-2.9,9.5c-0.1,0.3-0.1,0.6,0,0.9c1,2,0.8,2.3-0.6,0.9c-0.1-0.1-0.3-0.1-0.4,0c0,0,0,0.1-0.1,0.1l-2.1,3.8
		c-1.2-0.1-2.2-0.6-3.1-1.4c-0.2-0.2-0.3-0.5-0.2-0.8l0.2-2.7c0-0.3-0.2-0.6-0.5-0.8c-0.5-0.3-1-0.8-1.4-1.3
		c-0.2-0.2-0.1-0.5,0.1-0.8c0.5-0.5,0.8-1.2,0.9-1.9c0-0.2,0-0.6-0.2-0.9l-0.9-1.9c-0.1-0.2,0-0.6,0.3-0.7c1.6-1,2.1-2.5,1.4-4.4
		c-0.1-0.4,0.1-0.8,0.6-0.9c0.1,0,0.3,0,0.4,0c0.9,0.1,1.6-0.1,2.2-0.6c0.2-0.2,0.4-0.5,0.4-0.8c0.1-0.9,0.5-1.7,1-2.5
		c0.2-0.2,0.5-0.3,0.8-0.2c4,0.9,5-5.6,1.8-1.4c-0.2,0.2-0.5,0.4-0.8,0.3c-2.5-0.4-3.8,0.5-3.8,2.9c0,0.3-0.2,0.6-0.4,0.8
		c-1.3,0.8-2.8-0.1-3.4,2c-0.1,0.2,0,0.6,0.1,0.9c0.3,0.6,0.3,1.2,0.1,1.9c-0.1,0.3-0.3,0.5-0.6,0.7c-1.1,0.5-1.8,2.1-0.9,3.2
		c0.9,1.1,0.8,2.1,0,3c-0.3,0.3-0.4,0.6-0.4,0.8l0.1,0.9c0,0.3,0.2,0.5,0.5,0.7c0.5,0.3,0.9,0.7,1.3,1.2c0.2,0.2,0.2,0.6,0.2,0.9
		c-0.6,2.9,0.7,4.3,4,4.2c1.4,1.8,1.2,2.1-0.5,1c-0.2-0.1-0.5-0.1-0.7,0.2l-3.6,4.9c-0.1,0.3-0.1,0.5,0.1,0.6c0.6,0.2,1-0.9,1.7-0.6
		c1.9,0.6,3.5-0.3,4.6-2.5l0.6,0.5c0.8,1.2-2.1,3.8,1.8,2.4h0.7c2.3,0.5,3.1-0.3,2.4-2.5l0.4-0.2c1.2,0.7,1.6,1.7,1.2,3l-1,0.8
		c-0.9,0-1.5,0.4-1.8,1.2c-0.9,0.6-2.2,0.5-3.8-0.1c-1,0.3-2.4,0.3-4-0.2c0.1-0.4,0-0.6-0.3-0.7c-0.3,0-0.6,0.1-0.8,0.4l-2.5,3.8
		c-1.3,0-2.1,0.6-2.4,1.8l0.5,1c0.3,0.9,0.4,1.9,0.3,3c0.1,0.6,0.4,1,0.9,1v0.5l-1.5,3c0-0.9-0.4-1.5-1.3-1.8c3.9-1.5-3.5-2-5.3-1.2
		h-0.4l-0.7-1.2c-0.2-0.3-0.2-0.6-0.2-0.9c0.1-3.6-1.1-6.8-3.7-9.4c-0.1-0.3-0.3-0.4-0.7-0.2l-0.5-0.1c-0.7-1.4-0.6-2.8,0.2-4.1
		c0.2-0.2,0.5-0.4,0.8-0.4c5.3,0.2,10.5,0,15.7-0.6c0.8,0,1-0.7,0.4-1.3C36.2,98.6,40.1,80.3,52.8,79z M46.2,101.8
		C44,94.7,45.7,89,51.4,84.6c0.3-0.2,0.2-0.5,0-0.6c-0.3-0.2-0.6-0.1-0.9,0.2c-6,5.2-7.6,11.5-4.6,18.9c0.1,0.3,0.4,0.6,0.7,0.6
		C48.1,104.1,46.3,102.1,46.2,101.8z M49.9,87.6c-0.1,0.4,0.1,0.7,0.5,0.8c0.1,0,0.2,0,0.3,0c1.4-0.3,2-1,2-2.2
		c0-0.3-0.3-0.5-0.5-0.5l0,0C50.9,85.8,50.2,86.5,49.9,87.6z M47.6,92.5c0.5,0.3,1.3-0.1,1.8-1c0.5-0.8,0.6-1.7,0.1-2l0,0
		c-0.5-0.3-1.3,0.1-1.8,1C47.2,91.2,47.1,92.2,47.6,92.5L47.6,92.5z M48.1,95.9c-0.1-5.5-3.6,0.1-1.4,1c0.5,0.2,1.1-0.1,1.3-0.6
		C48.1,96.2,48.1,96.1,48.1,95.9z M48.2,101.8c0.5-0.1,0.8-1,0.5-2l0,0c-0.2-1-0.8-1.6-1.4-1.5c-0.5,0.1-0.8,1-0.5,2l0,0
		C47,101.3,47.6,102,48.2,101.8z M34.6,113.9l-2.6-0.1c-1,0-1.1,0.3-0.5,0.9c1.3,1.3,2.5,1.2,3.5-0.2
		C35.2,114.2,35.1,114,34.6,113.9z M41.2,115c-0.4,0.5-3.5,3.1-3.1,3.6c0.2,0.2,0.5,0.2,0.7,0l0,0l2.9-3c0.2-0.2,0.3-0.6,0-0.7
		c-0.4-1.6-6.8-2.4-3.8,0.7c0.3,0.3,0.6,0.4,0.8,0.3L41.2,115z M33,117.3l-2.2-2.1c-0.2-0.2-0.4-0.2-0.6-0.2c-0.4,0.1-0.2,0.6,0.2,1
		l2.8,2.7c0.2,0.2,0.5,0.2,0.7,0.1l0,0c0.3-0.3,0.3-0.6-0.1-0.9C33.5,117.7,33.2,117.5,33,117.3z M35,118.3c0.2,0.7,0.6,1,1.2,1
		c0.3,0,0.6,0.2,0.6,0.4c0.5,1.6,0.9,1.8,1.1,0.6c0.1-0.3,0-0.7-0.1-1c-0.5-0.9-1.3-1.4-2.3-1.4c-0.8-1.3-0.6-1.9,0.6-1.9
		c0.3,0,0.6,0.2,0.7,0.5c0.4,0.6,0.7,0.8,0.9,0.4c0.2-0.2,0.1-0.6-0.1-0.8c-1.3-1.5-2.4-1.5-3.3,0.2c-0.2,0.3-0.2,0.6-0.1,0.9
		C34.4,117.6,34.6,118,35,118.3z M32.3,119.7c-0.5,0.7-0.6,1.2-0.4,1.5c0.1,0.2,0.4,0.3,0.7,0.1c0,0,0.1,0,0.1-0.1
		c0.4-0.4,0.6-0.9,0.3-1.5C32.8,119.3,32.6,119.3,32.3,119.7z M34,120c-0.3,1,1.1,0.9,1.1,0.1c0.1-0.5-0.1-0.7-0.5-0.7
		C34.2,119.5,34,119.7,34,120z M35.1,122.1c-0.5,0-0.8,0.7-0.2,0.9H35c0.6,0.1,0.8,0,0.7-0.4C35.7,122.3,35.4,122.1,35.1,122.1z
		 M37,122.8c-0.1,0.7,0.6,1.4,1.1,0.8v-0.1c0.1-0.6-0.1-1-0.5-1.1C37.3,122.3,37.1,122.4,37,122.8C37,122.7,37,122.8,37,122.8z
		 M32.4,124c0.3,0.1,0.6-0.1,0.7-0.5l0,0c0.3-0.8-0.8-1.2-1-0.3l0,0C31.9,123.5,32.1,123.9,32.4,124z"/>
	<path class="st20" d="M99.7,79.2v0.5C97,79.6,97,79.4,99.7,79.2z"/>
	<path class="st15" d="M75.6,81.3c-0.1-0.9,0.3-1.5,1.3-1.9c1.1-0.4,1.4-0.1,1.1,1s-1,1.6-1.8,1.5C75.9,81.9,75.6,81.6,75.6,81.3z"
		/>
	<path class="st7" d="M31,80.2l-0.2,3c-2.6,0.1-2.6,0.4,0,0.8v1.2c-1.2-0.6-1.8-0.4-2,0.7h-0.2L28,81c0-0.8-0.5-0.9-1-0.4
		C28.3,79.8,29.6,79.7,31,80.2z"/>
	<path class="st19" d="M32,80.3l-0.3,12.5h-0.5c-0.6-0.9-1.6-1.2-3-0.8l0.3-0.5c0.5-0.7,1.1-0.9,1.7-0.6c0.3,0.1,0.6,0.1,0.7-0.1
		l0,0c0.1-0.3,0.1-0.5-0.2-0.7c-0.2-0.1-0.5-0.2-0.9-0.1c-0.8,0.2-1.1,0-0.9-0.6c0.1-0.3,0.4-0.4,0.8-0.4l0.5,0.1
		c0.3,0,0.6-0.1,0.6-0.4c0.1-0.8-0.3-1-1.2-0.6c-0.3,0.1-0.7,0-0.8-0.2c-0.4-0.6,0.5-1.3,1.1-0.8c1,0.4,1.2,0.1,0.5-1.2l0.2-0.7
		c0-0.5,0-1.5,0-2l0.2-3L32,80.3z"/>
	<path class="st6" d="M47.2,105.7l-0.2,0.5c-3.2,0.1-4.5-1.3-4-4.2c0.1-0.3,0-0.7-0.2-0.9c-0.4-0.5-0.8-0.9-1.3-1.2
		c-0.7-0.4-0.5-1.1-0.5-1.7c0-0.3,0.1-0.6,0.4-0.8c0.9-1,0.9-2,0-3c-0.9-1.2-0.2-2.6,0.9-3.2c0.3-0.2,0.6-0.4,0.6-0.7
		c0.2-0.7,0.1-1.3-0.1-1.9c-0.2-0.4-0.2-0.7-0.1-0.9c0.6-2.1,2.1-1.2,3.4-2c0.2-0.1,0.4-0.4,0.4-0.8c0-2.4,1.3-3.4,3.8-2.9
		c0.3,0,0.6-0.1,0.8-0.3c3.2-4.2,2.2,2.3-1.8,1.4c-0.3-0.1-0.6,0-0.8,0.2c-0.6,0.7-0.9,1.6-1,2.5c0,0.4-0.2,0.7-0.4,0.8
		c-0.6,0.5-1.4,0.7-2.2,0.6c-0.5-0.1-0.9,0.2-1,0.6c0,0.1,0,0.2,0,0.3c0.7,1.9,0.3,3.4-1.4,4.4c-0.3,0.2-0.4,0.5-0.3,0.7l0.9,1.9
		c0.2,0.4,0.2,0.7,0.2,0.9c-0.1,0.7-0.4,1.4-0.9,1.9c-0.2,0.2-0.3,0.5-0.1,0.8c0.4,0.6,0.8,1,1.4,1.3c0.3,0.2,0.5,0.5,0.5,0.8
		l-0.2,2.7c0,0.4,0.1,0.7,0.2,0.8C45,105.1,46,105.6,47.2,105.7z"/>
	<path class="st17" d="M28.5,86v5.5c-0.3,0.5-0.7,1.3-1.2,0.9c-0.2-0.1-0.3-0.5-0.3-0.9v-11c0.5-0.5,1-0.4,1,0.4L28.5,86z"/>
	<path class="st7" d="M32,80.3h1c0.2,5.6,0.2,11.1,0,16.7c0,0.9,0.7,2,1.5,0.8L35,99c0.5,1,3.4,5.1,4,1.8l1.5,3.2H40l-3.3-1.8
		l-6.5-6.7h0.5c1.4,1,1.8,0.6,1-1.2v-1.5L32,80.3z"/>
	<path class="st19" d="M33,80.3c0.5-0.1,1.2-0.3,1.2,0.4c-0.1,5.7,0,11.3,0.3,17C33.7,98.9,33,97.9,33,97
		C33.2,91.4,33.2,85.9,33,80.3z"/>
	<path class="st15" d="M64.9,80.8c0.6,0.8,0.5,1.5-0.5,2c-0.3,0.1-0.6,0.1-0.8-0.1c-1.4-1.3-1.3-2.1,0.5-2.2
		C64.4,80.4,64.7,80.6,64.9,80.8z"/>
	<path class="st20" d="M99.7,81.2v0.5c-0.6,0.3-1.1,0.3-1.6,0.1c-0.2-0.1-0.2-0.3-0.1-0.5l0.1-0.1C98.6,80.9,99.1,80.9,99.7,81.2z"
		/>
	<path class="st23" d="M87,81.7l0.1,0.5c-2.4,2.6-3,5.6-1.8,9l-0.8,0.9l-1.8,0.3c-2.5-1.4-4.5-1.9-6-1.5c-2.1,0.5-2,0.7,0.3,0.7
		c1.4,0,0.5,0.8,0,0.9c-4.4,0.8-4.3,1.4,0.1,1.8c0.3,0,0.6,0.3,0.6,0.5c0,0.9-3,0.5-3.9,0.9l-2.3-1.2c-0.9-1.2-1-2.6-0.2-4.3
		c0.1-0.2,0.1-0.6-0.1-0.9L70.1,87c-0.1-0.2,0-0.6,0.2-0.9c0.5-0.7,0.6-1.4,0.3-2.1c2.4-0.6,2.9-0.4,1.6,0.7
		c-0.2,0.2-0.3,0.5-0.1,0.7l0.4,0.9c0.1,0.2,0.1,0.6,0,0.9c-1,2.8,1.2,8,2.2,3.3l0.5-0.8C77.2,91.6,85.5,83.6,87,81.7z"/>
	<path class="st15" d="M62.6,83.4c0.6,1,0.3,1.6-0.8,1.8c-0.3,0-0.6-0.1-0.8-0.4c-0.7-1.1-0.5-1.8,0.8-1.8
		C62.1,82.9,62.4,83.1,62.6,83.4z"/>
	<path class="st15" d="M67.1,83.4c0.5,1,0.2,1.7-0.8,2.2c-0.3,0.1-0.5,0-0.7-0.3l0,0c-0.5-1.3-0.3-2,0.8-2.3
		C66.6,82.9,66.9,83.1,67.1,83.4z"/>
	<path class="st24" d="M30.7,83.2V84C28.1,83.6,28.1,83.4,30.7,83.2z"/>
	<path class="st20" d="M99.4,83.5c0.3,1.5-3.5-0.3-0.7-0.5C99,83,99.3,83.2,99.4,83.5z"/>
	<path class="st2" d="M70.5,84c0.3,0.8,0.2,1.5-0.3,2.1C70,86.4,70,86.8,70.1,87l1.1,2.4c0.1,0.3,0.2,0.6,0.1,0.9
		c-0.8,1.7-0.7,3.2,0.2,4.3c0.6,1.1,0.7,2,0.3,2.9c-0.1,0.3,0,0.6,0.2,0.7c1.8,1.4,2.7,3.3,2.6,5.7c0,0.3,0.1,0.6,0.4,0.8
		c1.6,1.2,2.4,2.7,2.5,4.6c0,0.4,0.1,0.7,0.3,0.9c0.6,0.8,1.3,1.4,2.2,1.8c0.3,0.1,0.6,0.4,0.7,0.6c0.9,1.6,0.4,2.6-1.8,3
		c-0.8-0.3-1.3-0.9-1.7-1.8c-0.1-0.2,0-0.5,0.2-0.7c0.9-0.9,0.7-1-0.5-0.5c-0.2,0.1-0.5,0-0.7-0.2l0,0l-4-8.4
		c-0.1-0.3,0-0.6,0.2-0.7c1.3-0.9,0.9-1.2-1.1-0.7l-0.3-0.8c-0.7-2.5-1.3-5.1-1.8-7.6c-0.7-3.4-1.6-5.8-1.1-9.4
		C68.3,83.8,69.7,83.7,70.5,84z M69.1,89.1c-0.6,0-0.4,1,0.1,1c0.6,0.1,0.8-0.1,0.5-0.6C69.6,89.3,69.4,89.1,69.1,89.1z"/>
	<path class="st25" d="M42.5,84c-3.2,5.1-4.3,10.7-3.5,16.8C37.3,94.5,38.5,88.9,42.5,84z"/>
	<path class="st10" d="M46.2,101.8c0.1,0.4,1.9,2.3,0.3,1.9c-0.3-0.1-0.5-0.3-0.7-0.6c-2.9-7.4-1.4-13.7,4.6-18.9
		c0.3-0.3,0.6-0.3,0.9-0.2c0.2,0.1,0.2,0.3,0.1,0.5c0,0.1-0.1,0.1-0.1,0.1C45.7,88.9,44,94.7,46.2,101.8z"/>
	<path class="st2" d="M54.8,84c1.1,0.6,2.1,0.6,3,0.1H59l1,1.2c0.2,0.2,0.3,0.5,0.2,0.9c-0.1,2.8-1.9,17.5-5.5,17.7
		c-0.2,0-0.4,0.3-0.4,0.5c0.2,0.5,0.6,0.6,1.3,0.4l-0.2,0.3l-2.5,4.3c-0.1,0.2-0.5,0.3-0.8,0.2c-1.2-0.5-1.4-0.3-0.6,0.6
		c0.2,0.3,0.3,0.6,0.3,0.8c-0.2,0.6-0.5,1.2-0.9,1.7c-3.8,1.4-0.9-1.2-1.8-2.4l2.7-3.2c0.2-0.3,0.4-0.6,0.4-0.8l0.7-3l2-2.8
		c0.1-0.2,0.2-0.5,0-0.9c-0.3-1.1-0.2-2.1,0.4-3c1.4-1.6,1.7-3.4,1-5.3c-0.2-0.4-0.3-0.5-0.6-0.1c-1,1.7-1.2,3.5-0.6,5.3
		c-2.1,1.8-2.8,4-2.3,6.8l-2.4,1.9c-0.2,0.2-0.4,0.5-0.4,0.8c-0.1,1.6-0.6,2.9-1.6,3.8c-1.2,2.2-2.7,3-4.6,2.5
		c-0.7-0.3-1.1,0.8-1.7,0.6c-0.2,0-0.2-0.2-0.2-0.4c0-0.1,0-0.1,0.1-0.1l3.6-4.9c0.2-0.2,0.4-0.3,0.7-0.2c1.7,1.1,1.9,0.7,0.5-1
		l0.2-0.5l2.1-3.8c0.1-0.2,0.3-0.2,0.4-0.2c0,0,0.1,0,0.1,0.1c1.4,1.4,1.6,1.1,0.6-0.9c-0.2-0.3-0.2-0.6,0-0.9
		c1.3-3.1,2.3-6.3,2.9-9.5l0.7-0.3c1.3-0.3,1.3-0.7,0-1.2l-0.3-1C53.5,86.5,53.9,85.1,54.8,84z M56.6,85.6c-0.3-0.1-0.7,0.1-0.8,0.5
		c0,0.1,0,0.2,0,0.3c0.4,4.4,1.1,4.6,2.1,0.3c0.1-0.4,0-0.7-0.3-0.8L56.6,85.6z M58.1,89.9c-0.3,0.2-0.1,0.4,0.5,0.7
		c0.3,0.1,0.5,0,0.6-0.2l0,0c0.1-0.2,0-0.4-0.2-0.5C58.8,89.7,58.4,89.7,58.1,89.9z M53.5,95.9c0.2-2-1.8-0.1-0.5,0.4
		C53.2,96.4,53.4,96.3,53.5,95.9C53.5,96,53.5,96,53.5,95.9z M57.1,96.9c-0.6,0.3-0.4,0.5,0.6,0.7c0.2,0,0.2,0,0.2-0.2l-0.1-0.3
		C57.6,96.9,57.4,96.8,57.1,96.9L57.1,96.9z"/>
	<path class="st20" d="M30.7,85.2L30.5,86h-1.8C28.9,84.9,29.5,84.6,30.7,85.2z"/>
	<path class="st15" d="M65.1,87.1c0,0.4-0.2,0.8-0.6,0.9c-2.1,0.5-2-2.3-0.7-2.8C64.5,84.9,64.9,85.6,65.1,87.1z"/>
	<path class="st4" d="M56.6,85.6l1,0.3c0.2,0.1,0.4,0.4,0.3,0.8c-1,4.2-1.7,4.1-2.1-0.3C55.8,85.9,56.1,85.5,56.6,85.6z"/>
	<path class="st15" d="M49.9,87.6c0.3-1.2,1-1.8,2.2-1.9c0.3,0,0.5,0.2,0.5,0.5l0,0c0.1,1.2-0.6,2-2,2.2c-0.4,0.1-0.7-0.2-0.8-0.5
		C49.9,87.8,49.9,87.7,49.9,87.6z"/>
	<path class="st23" d="M97.5,85.7h0.2C105,86.9,94.6,88.4,97.5,85.7z"/>
	<path class="st14" d="M28.5,86c0,0,1.9,0,2,0c0.7,1.2,0.5,1.6-0.5,1.2c-0.3-0.1-0.7-0.1-0.9,0c-0.3,0.2-0.4,0.5-0.2,0.8
		c0.1,0.2,0.5,0.3,0.8,0.2c0.9-0.3,1.3-0.1,1.2,0.6c0,0.3-0.3,0.4-0.6,0.4L29.7,89c-0.3,0-0.6,0.1-0.8,0.4c-0.2,0.5,0.1,0.7,0.9,0.6
		c0.4-0.1,0.7,0,0.9,0.1c0.2,0.2,0.3,0.4,0.2,0.7c-0.1,0.2-0.4,0.3-0.6,0.2l0,0c-0.6-0.3-1.2-0.1-1.7,0.6L28.5,86z"/>
	<path class="st11" d="M96,87.7l0.5,0.3c-0.3,1.4-1,2.4-2.2,3L94,90C95,89.6,95.6,88.8,96,87.7z"/>
	<path class="st12" d="M53.7,88l0.3,1v1.2l-0.7,0.3c-0.1-1.1-0.5-1.3-1.2-0.4c-1.8,2.3-2.5,4.9-2,7.8c0.3,0.8-0.6,1.8-0.8,0.6
		c-0.4-2.3,0.2-8.6,3.4-9.5c0.3-0.1,0.6-0.3,0.7-0.5L53.7,88z"/>
	<path class="st14" d="M74,88l1.2,1.3L75,89.7l-0.5,0.8C73.2,90,73,89.2,74,88z"/>
	<path class="st29" d="M89.5,88l0.8,0.2c0.1,1,0.7,1.7,1.8,2.1l1,1.2V92c-1-0.2-1.7-0.7-2.1-1.6c-0.1-0.3-0.4-0.5-0.6-0.4
		c-0.2,0-0.3,0.1-0.4,0.2c-0.1,0.2,0,0.5,0.3,0.8l4.2,3.8c0.2,0.2,0.5,0.2,0.8,0.1c1.9-1.3,3.4-2.9,4.6-5c0.2-0.3,0.2-0.7,0-0.9
		c-0.5-0.5-3.5,3.9-3.8,4.4c-0.2,0.3-0.5,0.5-0.7,0.6c-0.9,0.3-1.3-0.1-1.2-1c1.1-0.4,1.9-1,2.5-2l1.1-1.1c0.5-0.3,0.6-0.9,0.1-1
		c-0.2-0.1-0.5,0.1-0.8,0.4l-1,1.3C95,91.3,94.4,92,94,93c-0.9,0.2-1.2-0.1-1-1c0.8,0.1,1.2-0.2,1.2-1c1.2-0.6,2-1.6,2.2-3h4.5
		c-0.1,0.6,0.1,1,0.5,1.3c0.2,0.1,0.3,0.4,0.1,0.6l-0.6,1c0-0.5-0.1-0.8-0.3-0.8c-0.2-0.1-0.5,0.2-0.7,0.6c-1.2,2.2-2.8,3.9-4.9,5.2
		c0,0-0.3,0.1-0.8,0.3c-0.3,0.1-0.3,0.3-0.1,0.6c0.1,0.2,0.4,0.3,0.6,0.1c0,0,0,0,0.1,0l6-5.2c0.6,0.7,0.7,1.6,0.4,2.7l-5,4.5
		l-4.8,3.8l-0.9,0.2c-0.3,0.1-0.5,0.3-0.6,0.6c-0.2,0.6-0.6,1.2-1.1,1.6c-0.2,0.2-0.3,0.5-0.1,0.7l0,0c0.8,0.9,4.4-4.5,2.3-0.3
		c-0.1,0.4-1.2,0.5-1.2,1c0,0.2,0.2,0.4,0.5,0.3c0.1,0,0.1,0,0.1,0c1.4-0.6,2.1-1.8,2.1-3.3c1.1-1.6,2.7-2.8,4.7-3.6l-4.2,4.5
		c-0.1,0.2-0.1,0.4,0,0.7l0.4,0.6c-0.9,0.6-1.5,1.3-2,2.2l-0.2,0.1l-2.8,0.9l-3.4-2.1c0-0.7-0.1-1.4-0.4-1.9l2-1.2
		c-0.8,1.6-0.5,1.8,1,0.7c2.3-1.7,4.6-3.5,6.9-5.3c0.2-0.2,1.1-2-0.3-0.7c-0.9,0.9-1.9,1.6-3,2.2l-0.5-1l2.9-1.9
		c0.1-0.1,0.2-0.3,0.1-0.4c0,0,0-0.1-0.1-0.1c-0.3-0.2-0.6-0.5-0.7-0.8c-0.2-0.3-0.4-0.5-0.6-0.5c-0.5-0.1-0.6,0.1-0.3,0.5h-1
		c0.5-1.1,0.3-2.1-0.8-2.8c1.2-2,1-2.2-0.8-0.7c-0.4-0.4-0.7-1-0.7-1.6c0-0.4-0.1-0.8-0.2-0.9c-0.4-0.6-0.8-0.5-1.3,0.3
		c-0.4,0.7,0,1.6,1.3,2.6c1.9,1.5,1.8,2.7-0.4,3.7c-0.9,0.3-0.4,1.5-0.1,2.1c-0.1,0.6-0.4,0.8-1,0.7l-0.8-1c1-1,0.8-1.7-0.5-2L85,97
		l-0.3-4.5l-0.2-0.3l0.8-0.9L89.5,88z M87.2,92.1c0-0.6-1-0.5-1.2,0.1c-0.4,0.7-0.2,0.9,0.7,0.6C87,92.6,87.2,92.4,87.2,92.1z
		 M93,94.4c-0.1-0.4-0.2-0.5-0.6-0.4c-0.2,0.1-0.3,0.4-0.3,0.6c0,0,0,0.1,0.1,0.1l1,1c0.3,0.1,0.5,0.1,0.6-0.2
		c0.1-0.4,0-0.6-0.4-0.7C93.3,94.9,93.1,94.7,93,94.4z M86.1,95.9c0.2,0.2,0.6,0,0.9-0.4l0,0c0.3-0.4,0.4-0.8,0.1-1l0,0
		c-0.2-0.2-0.6,0-0.9,0.4l0,0C85.9,95.3,85.9,95.7,86.1,95.9L86.1,95.9z M87.5,107c0.7,0,0.7-1.4,0-1.4
		C86.8,105.6,86.8,107,87.5,107z"/>
	<path class="st12" d="M93.3,88l0.5-0.1h0.7L94,90c-0.8,0.1-1.1,0.6-1,1.5l-1-1.2l0.3-0.3C93.2,89.7,93.5,89,93.3,88z"/>
	<path class="st27" d="M67.2,88.7c0.8,0.7,0.8,1.5,0.1,2.3c-0.8,1-3.4,3.6-7.8,7.9c-0.2,0.2-0.3,0.2-0.3-0.2l1.7-9.3
		c0.1-0.4,0.4-0.6,0.8-0.7l4.7-0.3C66.7,88.5,67,88.6,67.2,88.7z"/>
	<path class="st10" d="M90.2,88.2c1,0.2,1.6,0.8,2,1.8L92,90.3C91,89.9,90.4,89.2,90.2,88.2z"/>
	<path class="st14" d="M54,89c1.3,0.5,1.3,0.9,0,1.2V89z"/>
	<path class="st7" d="M69.8,89.6c0.2,0.5,0,0.7-0.5,0.6c-0.6-0.1-0.7-1-0.1-1C69.4,89.1,69.6,89.3,69.8,89.6z"/>
	<path class="st12" d="M96.5,91L96,90.7l1-1.3c0.3-0.3,0.6-0.5,0.8-0.4c0.5,0.1,0.4,0.7-0.1,1L96.5,91z"/>
	<path class="st10" d="M93,92c-0.2,0.9,0.1,1.2,1,1c-0.3,1.4,1.3,1.4,1.9,0.4c0.4-0.5,3.4-4.9,3.8-4.4c0.2,0.2,0.2,0.5,0,0.9
		c-1.1,2-2.7,3.7-4.6,5C95,95,94.6,95,94.4,94.8L90.2,91c-0.3-0.3-0.4-0.6-0.3-0.8c0.2-0.4,0.8-0.2,1,0.2C91.3,91.3,92,91.8,93,92z"
		/>
	<path class="st15" d="M47.7,90.4c1.3-2,2.9-1,1.7,1.1C48.1,93.4,46.5,92.4,47.7,90.4z"/>
	<path class="st14" d="M59,89.9c0.2,0.1,0.2,0.3,0.2,0.5c-0.1,0.2-0.3,0.3-0.6,0.2l0,0c-0.6-0.2-0.7-0.4-0.5-0.7
		C58.4,89.7,58.8,89.7,59,89.9z"/>
	<path class="st18" d="M94,90l0.2,1c-0.1,0.8-0.5,1.1-1.2,1v-0.5C92.9,90.6,93.2,90.1,94,90z"/>
	<path class="st10" d="M101,91l-0.1,0.8l-6,5.2c-0.2,0.2-0.5,0.2-0.6,0c0,0,0,0,0-0.1c-0.2-0.3-0.2-0.5,0.1-0.6
		c0.5-0.2,0.7-0.2,0.8-0.3c2.1-1.3,3.8-3.1,4.9-5.2C100.5,90,101.2,89.9,101,91z"/>
	<path class="st6" d="M89.5,93l0.8,0.7c1,0.7,1.3,1.6,0.8,2.8c-1.3,0.5-2.2,1.5-2.8,2.8c-0.4-0.6-0.7-1.8,0.1-2.1
		c2.1-1,2.3-2.3,0.4-3.7c-1.3-1-1.8-1.9-1.3-2.6s0.9-0.8,1.3-0.3c0.1,0.2,0.2,0.5,0.2,0.9C88.8,92.1,89.1,92.6,89.5,93z"/>
	<path class="st10" d="M96,90.7l0.5,0.3c-0.6,1-1.4,1.6-2.5,2C94.4,92,95,91.3,96,90.7z"/>
	<path class="st8" d="M55.5,96.5h-0.2c-0.6-1.9-0.4-3.7,0.6-5.3c0.2-0.4,0.4-0.4,0.6,0.1C57.2,93.1,56.8,94.9,55.5,96.5z"/>
	<path class="st2" d="M82.8,92.5v4.7c0,0.3-0.2,0.6-0.4,0.8c-2.6,1.9-4.8,0.5-7.5,0.6c-0.3,0-0.5-0.1-0.5-0.4l0,0
		c0-0.7,9.3-0.3,1-1.5c-0.8-0.1-1.3-0.5-1.4-1c0.9-0.4,4,0,3.9-0.9c0-0.3-0.3-0.5-0.6-0.5c-4.4-0.4-4.4-1-0.1-1.8
		c0.5-0.1,1.4-0.9,0-0.9c-2.3,0-2.4-0.2-0.3-0.7C78.3,90.7,80.3,91.2,82.8,92.5z"/>
	<path class="st12" d="M86.7,92.7c-0.8,0.4-1,0.2-0.7-0.6c0.2-0.5,1.2-0.8,1.2-0.1C87.2,92.4,87,92.6,86.7,92.7z"/>
	<path class="st10" d="M90.2,93.7L89.5,93C91.2,91.5,91.5,91.7,90.2,93.7z"/>
	<path class="st13" d="M84.5,92.2l0.2,0.3c-0.5-0.1-0.9,0.5-1.2,1.6c-0.2,0.6-0.1,1.3,0.1,1.9c0.4,1,0.8,1.3,1.4,0.9l1,0.1
		c-0.8,0.7-0.7,1.4,0.5,2l0.8,1l-2.7-1.6c-0.3-0.2-0.6-0.3-0.9-0.2l-5.3,2.5h-0.5c0-0.9-4.3-2.1-3,0.6c0.7,1.5,1.8,1.8,2,3.9
		c0.2,1.8,0.6,2.8,2.2,3.5c0.3,0.1,0.5,0.4,0.5,0.7c0.4,2.1,1.6,3.6,3.5,4.5c0.3,0.1,0.6,0.1,0.9-0.1l1.6-1c0.2-0.1,0.2-0.4,0-0.6
		l0,0l-2.1-2.4c0-1-0.4-1.5-1.2-1.5c-0.9-0.8-1.5-1.8-1.8-3l0.1-0.8c0.3,0.7,0.8,1.2,1.5,1.4c0.2,0.1,0.6,0,0.8-0.3
		c0.5-0.4,1-0.6,1.6-0.6c0.3,0.5,0.4,1.2,0.4,1.9c0.7,1.2,1.7,2.1,3.1,2.6c0,0.3,0.1,0.6,0.5,0.4c1-0.4,1.9-1,2.6-1.9l0.2-0.1
		c2.5-0.9,4.6-2.5,6.5-4.7c0.3-0.3,0.7-0.4,1.3-0.1c-4.9,7.1-11.5,11.5-20.1,13.2c-0.4,0-0.5-0.3-0.4-0.8c2.1-0.4,2.7-1.4,1.8-3
		c-0.1-0.2-0.4-0.4-0.7-0.6c-0.9-0.4-1.6-1-2.2-1.8c-0.2-0.2-0.3-0.6-0.3-0.9c-0.1-1.9-0.9-3.4-2.5-4.6c-0.3-0.2-0.4-0.5-0.4-0.8
		c0.1-2.4-0.8-4.3-2.6-5.7c-0.2-0.2-0.3-0.5-0.2-0.7c0.4-0.9,0.3-1.9-0.3-2.9l2.3,1.2c0.1,0.6,0.6,0.9,1.4,1
		c9.5,1.3-3.7,0.6-0.5,1.9c2.8-0.1,4.9,1.3,7.5-0.6c0.3-0.2,0.4-0.5,0.4-0.8v-4.7L84.5,92.2z M88.8,111.9L88.8,111.9
		c0.2,0.1,0.3,0.1,0.5,0c0.7-0.5,6.5-4.3,6.1-4.8c-0.1-0.1-0.4-0.1-0.7,0.1l-6.4,4.3c-0.1,0.1-0.2,0.2-0.1,0.3c0,0,0,0.1,0.1,0.1
		C88.4,112,88.6,112,88.8,111.9C88.7,111.9,88.7,111.9,88.8,111.9z M85.2,109.4c-0.2-0.1-0.3,0-0.1,0.2l1.3,1.4
		c0.2,0.2,0.5,0.3,0.7,0.1l0,0C87.5,110.6,86.9,110,85.2,109.4z"/>
	<path class="st6" d="M84.7,92.5L85,97c-0.6,0.4-1,0.1-1.4-0.9c-0.2-0.6-0.3-1.3-0.1-1.9C83.8,93,84.2,92.4,84.7,92.5z"/>
	<path class="st12" d="M30.2,95.5l6.5,6.7l-0.7,0.2l-9.2-8.7c-0.1-0.1-0.1-0.4,0-0.6L27,93c0.1-0.1,0.2-0.1,0.3-0.1L30.2,95.5z"/>
	<path class="st26" d="M31.2,92.7h0.5v1.5H31C28.2,93.7,28.3,93.2,31.2,92.7z"/>
	<path class="st11" d="M68.2,94.7L67.8,95c-1.9,0.5-2.7,1.6-2.6,3.4c0,0.3,0.2,0.5,0.5,0.7c1,0.6-0.4,2.7-1.2,2.6
		c-0.2,0-0.4-0.3-0.4-0.5l0,0c0.1-0.8,0-1.4-0.4-1.9c-0.2-0.2-0.5-0.3-0.8-0.2c-0.8,0.2-0.8,0.6,0,1c0.2,0.1,0.4,0.4,0.3,0.7
		c-0.1,0.9,0.2,1.5,1,2c0.2,0.1,0.6,0.1,0.8-0.1l1.7-1.7c0.2-0.2,0.3-0.5,0.4-0.8c0.1-1.1,0.7-1.5,1.8-1.1c0.2,0,0.2,0.2,0.2,0.4
		c0,0,0,0.1-0.1,0.1L55.8,113c0.4-1.3,0-2.3-1.2-3c-0.6-1.1-0.4-2,0.7-2.7c0.4-0.3,0.6-0.2,0.6,0.2c0,0.8-1.6,1.9-0.3,2.3
		c0.2,0.1,0.5-0.1,0.6-0.4l0.8-1.8c0.1-0.2,0-0.5-0.2-0.7c-0.7-0.5-1.1-1.1-1.2-1.9l0.2-0.3c0.2-0.6,0.6-0.7,1.1-0.2
		c-0.1,0.8,0.1,1.4,0.7,1.8c0.3,0.2,0.6,0.5,0.6,0.7c0.2,0.8,0,1.5-0.8,1.9c-0.3,0.2-0.5,0.4-0.5,0.7c0,1.2,1.2-0.2,1.6-0.4
		c1.6-1.1,1.6-2.2,0.1-3.2c-0.2-0.2-0.4-0.5-0.3-0.8c0.1-0.8-0.3-1.2-1.1-1.2l3.2-3.8c0.3,1.1,0.8,2.1,1.5,2.9
		c0.2,0.3,0.3,0.6,0.3,0.9c-0.1,0.7-0.5,1.2-1.2,1.4c-0.3,0.1-0.4,0-0.3-0.4c0.4-1.1,0.2-1.9-0.7-2.4c-0.3-0.2-0.6-0.1-0.9,0
		c-0.8,0.5-1,1-0.4,1.5c0.3,0.3,0.4,0.5,0.5,0.8c0.3,0.8,0.7,1.4,1.4,1.8c0.3,0.2,0.6,0.2,0.8-0.1l2.1-2.7c0.2-0.2,0.1-0.5-0.2-0.8
		c-0.5-0.4-0.9-0.9-1.1-1.5c-0.1-0.2-0.1-0.5,0-0.9c0.2-0.6-0.1-0.8-0.9-0.8l6.2-6.3c0.2-0.2,0.6-0.3,0.8-0.1
		C68.3,93.8,68.4,94.2,68.2,94.7z"/>
	<path class="st15" d="M46.7,96.9c-2.2-0.8,1.2-6.5,1.4-1c0,0.6-0.4,1-1,1C47,97,46.8,97,46.7,96.9z"/>
	<path class="st10" d="M93.6,94.9c0.4,0,0.5,0.3,0.4,0.7c0,0.2-0.6,0.5-0.6,0.2l-1-1c-0.3-0.2-0.1-0.5,0.1-0.7
		c0.3-0.1,0.5,0,0.6,0.4C93.1,94.7,93.3,94.9,93.6,94.9z"/>
	<path class="st16" d="M31,94.3h0.8c0.7,1.8,0.4,2.2-1,1.2L31,94.3z"/>
	<path class="st18" d="M86.2,94.9c0.7-0.9,1.5-0.3,0.8,0.6C86.3,96.4,85.5,95.8,86.2,94.9z"/>
	<path class="st10" d="M101.3,94.5c-0.6,1.4-1.5,2.7-2.6,3.9c-0.3,0.3-0.4,0.5,0,0.7c0.1,0.1,0.4,0.1,0.6,0c0.8-0.4,1.4-1,1.7-1.7
		c0.3-0.5,0.3-0.5,0.2,0.1c-0.2,1.2-0.1,2.1,0.5,2.7H101c0.1-0.7-0.1-1-0.8-0.7c-1.5,0.6-3.4,2.2-5.7,4.8c-0.6,0.7-0.5,1,0.3,0.9
		c-0.3,0.6-0.8,0.7-1.5,0.5l-0.4-0.6c-0.2-0.2-0.2-0.5,0-0.7l4.2-4.5c-0.1-0.9-0.5-1.2-0.9-1L101.3,94.5z"/>
	<path class="st18" d="M68.2,94.7c0.6,0.4,0.7,1,0.5,1.8L68,97.2L67.8,95L68.2,94.7z"/>
	<path class="st7" d="M53,96.4c-1.2-0.6,0.7-2.4,0.5-0.4C53.5,96.3,53.3,96.5,53,96.4C53,96.4,53,96.4,53,96.4z"/>
	<path class="st10" d="M90.8,99.7l-0.5,0.1c-0.8-2.4,3.7-1.4,1.7-3.3c-0.3-0.4-0.2-0.6,0.3-0.5c0.5,0.1,0.8,1,1.3,1.3
		c0.1,0.1,0.2,0.3,0.1,0.4c0,0,0,0.1-0.1,0.1L90.8,99.7z"/>
	<path class="st28" d="M55.3,96.5h0.2c-0.6,1-0.7,2-0.4,3c0.1,0.4,0.1,0.7,0,0.9l-2,2.8C52.5,100.5,53.2,98.3,55.3,96.5z"/>
	<path class="st23" d="M57.7,97.2l0.1,0.3c0.1,0.2,0,0.3-0.2,0.2c-0.9-0.2-1.1-0.4-0.6-0.7C57.3,96.8,57.6,96.9,57.7,97.2
		C57.7,97.1,57.7,97.1,57.7,97.2z"/>
	<path class="st12" d="M68.7,96.5c0.4,1.6,0.2,1.8-0.8,0.8L68.7,96.5z"/>
	<path class="st9" d="M91,96.5h1c2,1.9-2.5,0.9-1.7,3.3c-1.2,0.9-1,1.4,0.5,1.5c-1,0.9-2.1,1.6-3.4,2c1.5-1.1,1.5-2.1,0-3.2
		c0.6,0.1,0.9-0.1,1-0.7C88.8,97.9,89.7,97,91,96.5z"/>
	<path class="st12" d="M66.2,98.3c-0.1-1.8,0.2-1.9,0.7-0.3C67.2,98.9,66.2,99.6,66.2,98.3z"/>
	<path class="st10" d="M86,97c1.3,0.3,1.5,1,0.5,2C85.3,98.4,85.2,97.7,86,97z"/>
	<path class="st27" d="M87.2,100c1.5,1.1,1.5,2.2,0,3.2l-0.6,0.5l-2,1.2c-0.6,0-1.2,0.2-1.6,0.6c-0.3,0.2-0.6,0.3-0.8,0.3
		c-0.7-0.2-1.2-0.7-1.5-1.4l-2-3l-0.3-0.8l5.3-2.5c0.2-0.1,0.5,0,0.9,0.2L87.2,100z"/>
	<path class="st18" d="M86.7,103.7l0.6-0.5c1.3-0.4,2.4-1.1,3.4-2l0.6-0.5c1.1-0.6,2-1.4,3-2.2c1.4-1.3,0.5,0.5,0.3,0.7
		c-2.3,1.8-4.6,3.6-6.9,5.3C86.2,105.6,85.9,105.4,86.7,103.7z"/>
	<path class="st15" d="M47.3,98.4c1.3-0.3,2.1,3.2,0.8,3.5C46.8,102.2,46,98.7,47.3,98.4z"/>
	<path class="st11" d="M96.3,99c0.5-0.2,0.8,0.1,0.9,1c-2,0.8-3.6,2-4.7,3.6l-1-0.8L96.3,99z"/>
	<path class="st9" d="M101,100.2l-1.8,1.2c-1.8,0.8-3.2,2-4.2,3.8c-0.8,0.1-0.9-0.2-0.3-0.9c2.2-2.6,4.1-4.2,5.7-4.8
		C100.9,99.3,101.2,99.5,101,100.2z"/>
	<path class="st2" d="M78,100.7c-0.5,0.2-0.9,0.6-1.2,1c-0.2,0.3-0.1,0.4,0.2,0.2c0.6-0.2,1.1-0.2,1.7,0l1,2.1
		c0.2,0.3,0.2,0.6,0,0.8c-1.2,2-0.9,2.2,1,0.3c0.3,1.2,0.9,2.2,1.8,3l-0.3,0.7c-0.6,0.3-0.8,0.6-0.7,1c0.3,0.8,1.4,0.6,1.4-0.3h0.7
		l2.1,2.4c0.2,0.2,0.2,0.4,0,0.6l0,0l-1.6,1c-0.3,0.2-0.6,0.2-0.9,0.1c-1.9-0.9-3.1-2.4-3.5-4.5c-0.1-0.3-0.3-0.5-0.5-0.7
		c-1.6-0.7-2-1.7-2.2-3.5c-0.2-2.1-1.3-2.4-2-3.9C73.7,98.6,78,99.8,78,100.7z"/>
	<path class="st25" d="M90.2,99.8l0.5-0.1l0.5,1l-0.6,0.5C89.2,101.2,89.1,100.7,90.2,99.8z"/>
	<path class="st29" d="M61,100c0.8,0,1.1,0.3,0.9,0.8c-0.1,0.4-0.1,0.7,0,0.9c0.2,0.6,0.6,1.1,1.1,1.5c0.3,0.2,0.3,0.6,0.2,0.8
		l-2.1,2.7c-0.9,0.8-1.9-1-2.2-1.7c-0.1-0.3-0.3-0.5-0.5-0.8c-0.5-0.6-0.4-1.1,0.4-1.5c0.3-0.2,0.6-0.2,0.9,0
		c0.9,0.5,1.1,1.3,0.7,2.4c-0.1,0.3,0,0.5,0.3,0.4c0.7-0.2,1.1-0.7,1.2-1.4c0-0.3-0.1-0.6-0.3-0.9c-0.7-0.8-1.2-1.8-1.5-2.9L61,100z
		"/>
	<path class="st14" d="M78,100.7h0.5l0.3,0.8l-0.1,0.5c-0.6-0.2-1.1-0.2-1.7,0c-0.3,0.1-0.4,0-0.2-0.2
		C77.1,101.3,77.5,100.9,78,100.7z"/>
	<path class="st27" d="M71,101.7l0.3,0.8c0.2,2.7,1.1,5.1,2.6,7.2c0.8,1.1,0.5,1.6-0.8,1.6c-2.2-0.1-4.3,0.5-6.1,1.7l-1.7-0.2
		l-2-1.8c-0.3-0.7-0.9-1.1-1.8-1.2c-0.3,0-0.3-0.2-0.1-0.4l8-7.6c0.2-0.2,0.5-0.2,0.8-0.1C70.4,101.9,70.7,101.9,71,101.7z"/>
	<path class="st22" d="M78.8,101.5l2,3l-0.1,0.8c-1.8,1.8-2.2,1.7-1-0.3c0.1-0.2,0.1-0.5,0-0.8l-1-2.1L78.8,101.5z"/>
	<path class="st11" d="M99.2,101.5c0.7,0.4,0.7,0.9,0.1,1.6c-0.6-0.2-1-0.2-1.3,0.1c-1.9,2.3-4,3.8-6.5,4.7c0.5-0.9,1.1-1.7,2-2.2
		c0.7,0.2,1.2,0.1,1.5-0.5C96,103.5,97.4,102.3,99.2,101.5z"/>
	<path class="st3" d="M95.9,116.7c-2.8-3.5,3.5-11.4,5.7-14.3c0.2-0.3,0.6-0.3,0.8-0.1c0.1,0,0.1,0.1,0.1,0.1c2,2.7,3.7,5.3,5.3,8
		c3.2,5.4-2.8,10.7-5.2,5.7c-0.1-0.2-0.4-0.3-0.7-0.2c-0.1,0-0.1,0.1-0.1,0.1C100,118,98.1,119.3,95.9,116.7z"/>
	<path class="st11" d="M36.7,102.2L40,104l-0.2,0.3c-0.1,0.2-0.4,0.3-0.6,0.2c-2.1-0.3-4.1,0.1-6,1.2c-0.3,0.2-0.6,0.2-0.8,0
		c-1.4-1-3-1.5-4.8-1.4c-0.4,0-0.7-0.1-0.9-0.2c-0.4-0.4,0.2-0.9,0.7-1c2-0.3,3.8,0.2,5.3,1.5c0.2,0.2,0.5,0.2,0.8,0l2.7-2.2
		L36.7,102.2z"/>
	<path class="st14" d="M78.9,115.5c-0.1,0.5,0,0.7,0.4,0.8l-0.1,2.9c0,0.4-0.1,0.7-0.2,0.9c-1.2,1.2-2.4,1.3-3.8,0.4
		c-0.3-0.1-0.4,0-0.4,0.2c-0.2,1.6,0.6,2.5,2.2,2.6c0.3,0,0.6,0.2,0.7,0.5c0.9,2.2,0.3,3.1-1.9,2.6c-0.3-0.1-0.6,0.1-0.7,0.3
		c-0.7,1.7-1.1,3.4-1,5.2H73c1-2.2-3-0.6-4.2-2.1c-0.2-0.2-0.3-0.5-0.3-0.9l-0.2-4.6c0-0.4,0-0.8,0.2-0.9c0.6-1,1.3,1,1.6,1.5
		c-0.1,0.2-0.1,0.4-0.1,0.6c0.1,0.2,0.4,0.3,0.8,0.2c0.5-0.1,1-0.1,1.6,0c0.3,0.1,0.5-0.1,0.6-0.3l0,0c0.5-3.2,0.1-6.2-1.1-9.1
		c-0.1-1-0.5-1.7-1.3-2.3c-0.5-0.4-0.7-0.8-0.2-1.2l1.5,0.8l0.3,0.5c0.5,1.5,1.1,1.8,2,0.8l0.2-0.1l2.6,1.6c0.4,0.2,0.5,0.1,0.4-0.3
		c-0.1-0.3-0.2-0.5-0.3-0.8c-0.1-0.2-0.4-0.4-0.8-0.5c-0.8-0.2-1.4-0.6-1.9-1.3c0.6-1.2,0.3-1.7-1-1.5l-3.5,0.4
		c-0.6,0-1.1,0.5-0.6,1.1l1.9,2.7c-3.5,0.3-2.6-3.3-3.8-3.2l-0.4,0c1.8-1.2,3.8-1.8,6.1-1.7c1.3,0,1.6-0.5,0.8-1.6
		c-1.5-2.1-2.3-4.5-2.6-7.2c2-0.4,2.4-0.2,1.1,0.7c-0.2,0.2-0.3,0.5-0.2,0.7l4,8.4c0.1,0.2,0.4,0.3,0.6,0.2l0,0
		c1.2-0.6,1.4-0.4,0.5,0.5c-0.2,0.2-0.3,0.5-0.2,0.7C77.5,114.6,78.1,115.2,78.9,115.5z M75.5,117.6c-1.8-2.4-0.6,2.4,0.1,0.9
		C75.7,118.2,75.7,117.9,75.5,117.6z M76.9,125.2c-0.4-2.9-1.9,1.5-0.4,0.8C76.8,125.9,76.9,125.5,76.9,125.2z M72.4,129.1
		c-6.4,0.1,0.2,2.1,0.5,0.5C73,129.3,72.8,129.1,72.4,129.1C72.5,129.1,72.5,129.1,72.4,129.1z"/>
	<path class="st12" d="M91.5,102.8l1,0.8c0,1.6-0.6,2.7-2.1,3.3c-0.2,0.1-0.5,0-0.6-0.2c0-0.3,0-0.6,0.5-0.6
		c0.3-0.1,0.6-0.2,0.7-0.5c2.2-4.1-1.5,1.2-2.3,0.3c-0.2-0.2-0.1-0.5,0.1-0.7l0,0c0.5-0.4,0.9-0.9,1.1-1.6c0.1-0.3,0.3-0.5,0.6-0.6
		L91.5,102.8z"/>
	<path class="st23" d="M53,103.2l-0.7,3c-0.1,0.3-0.2,0.6-0.4,0.8l-2.7,3.2l-0.6-0.5c1-0.9,1.5-2.2,1.6-3.8c0-0.3,0.2-0.6,0.4-0.8
		L53,103.2z"/>
	<path class="st29" d="M57,104c0.8,0,1.1,0.4,1.1,1.2c0,0.3,0.1,0.6,0.3,0.8c1.6,1,1.5,2.1-0.1,3.2c-0.3,0.2-1.6,1.7-1.6,0.4
		c0-0.3,0.2-0.5,0.5-0.7c0.8-0.4,1-1.1,0.8-1.9c-0.1-0.2-0.3-0.5-0.6-0.7c-0.6-0.4-0.8-1-0.7-1.8L57,104z"/>
	<path class="st21" d="M55.5,105c0.1,0.8,0.5,1.5,1.2,1.9c0.2,0.2,0.3,0.4,0.2,0.7l-0.8,1.8c-0.1,0.3-0.4,0.4-0.6,0.4
		c-1.2-0.5,0.3-1.5,0.3-2.3c0-0.4-0.2-0.5-0.6-0.2c-1.1,0.7-1.3,1.6-0.7,2.7l-0.4,0.2c-1.4,0.3-2.2,1.1-2.4,2.5H51
		c0.5-0.5,0.8-1.1,0.9-1.7c0.1-0.3,0-0.6-0.3-0.8c-0.8-0.9-0.6-1.1,0.6-0.6c0.3,0.1,0.6,0,0.8-0.2L55.5,105z"/>
	<path class="st6" d="M87.5,105.5c0.7,0,0.7,1.4,0,1.4C86.8,106.9,86.8,105.5,87.5,105.5z"/>
	<path class="st12" d="M85.1,106.9l3.4,2.1l-0.3,0.5C86.8,108.9,85.8,108.1,85.1,106.9z"/>
	<path class="st18" d="M88.6,111.9c-0.3,0.2-0.7-0.1-0.3-0.4l6.4-4.3c0.3-0.2,0.6-0.2,0.7-0.1c0.4,0.4-5.5,4.3-6.1,4.8
		c-0.2,0.2-0.4,0.1-0.5-0.1C88.7,111.9,88.7,111.9,88.6,111.9z"/>
	<path class="st24" d="M83.8,109.7h-0.7l-0.8-0.8l0.3-0.7C83.3,108.2,83.7,108.7,83.8,109.7z"/>
	<path class="st6" d="M91.2,108c-0.7,0.9-1.5,1.5-2.6,1.9c-0.4,0.2-0.5-0.1-0.5-0.4l0.3-0.5L91.2,108z"/>
	<path class="st7" d="M82.2,109l0.8,0.8c-0.1,0.9-1.1,1.1-1.4,0.3C81.4,109.6,81.7,109.2,82.2,109z"/>
	<path class="st12" d="M85.2,109.4c1.7,0.6,2.3,1.1,2,1.6c-0.2,0.2-0.5,0.2-0.7,0c0,0,0,0-0.1-0.1L85.2,109.4
		C84.9,109.4,85,109.4,85.2,109.4z"/>
	<path class="st6" d="M54.1,110.2c0.8,2.2,0,3.1-2.4,2.5C51.9,111.3,52.7,110.5,54.1,110.2z"/>
	<path class="st16" d="M63.2,111l2,1.8l0.5,1c-0.3,0.2-0.7,0.3-1,0.3c-1.1,0.6-1.9,1.3-2.7,2.2l-1-1c2.4-1.5,2.3-2.8-0.3-3.7L60,111
		H63.2z"/>
	<path class="st26" d="M60,111l0.8,0.6c0.9,1.5,0.6,2.4-1,2.4c0.5-1.4,0.3-2-0.8-2l-0.7-0.3L60,111z"/>
	<path class="st14" d="M60.8,111.5c2.6,1,2.7,2.2,0.3,3.7c-0.6-0.3-0.9-0.3-1,0.2c0,0.2,0.2,0.5,0.5,0.6c0.5,0.1,0.5,0.4,0.1,0.8
		c-2.3,2.2-4.3,4.7-6.1,7.3l-4.8,4.5c-0.3,0.2-0.4,0.5-0.4,0.8c-0.2,1.5-0.6,1.6-1.2,0.1c-0.1-0.3-0.4-0.5-0.7-0.5l-4.3,0.1
		c-0.2,0-0.3,0.2-0.3,0.5c0,0,0,0,0,0.1l0.3,1.7c0.1,0.4,0.2,0.8,0.4,0.8c0.2,0.1,0.4,0,0.6-0.2l0.5,0.3c0.4,0.8,3.1-0.1,4.2,0.2
		l-0.7,1.7c-1.9-0.5-3.8-0.5-5.7,0l-0.3-0.8l-0.8-5.8c0-0.3,0.1-0.5,0.3-0.6c1.5-0.5,1.3-1-0.7-1.6v-0.5c2.8-0.6,3.6,0.2,2.3,2.3
		c-0.1,0.2-0.1,0.4,0.1,0.5h0.1c1.1,0.3,2.3,0.3,3.6,0c0.3-0.1,0.4-0.3,0.3-0.6l0,0c-1.1-3.7-5.1-9.2-2-12.5c1.7,0.5,3,0.5,4,0.2
		c1.1,1.2,1.5,2.3,1,3.4c-0.6,1.4-2.2,2-3.4,3c-0.3,0.2-0.4,0.5-0.5,0.8c-0.1,0.9,0.3,1,1.2,0.4c2.8-2.2,4.7-4.5,5.8-6.9l2.2-1
		c0.7,0.8,0.5,1.3-0.6,1.7c-1.1,0.3-1,0.6,0.2,0.8c1.7,0.3,2.4-0.4,2-2.2l2.2-0.8H60C61.3,113.9,61.7,113.1,60.8,111.5z M46,116.6
		c-0.8,0.3-1,0.8-0.5,1.6c0.3,0.7-0.5,1.4-0.1,2.1c0.1,0.2,0.2,0.3,0.4,0.2c0.1,0,0.1,0,0.1-0.1l2.9-2.7c0.2-0.2,0.3-0.5,0.1-0.8
		c-0.7-1.4-1.4-1.7-2.2-0.9C46.5,116.3,46.3,116.5,46,116.6z M58.2,116.1c-2,3.5-4.7,5.5-6.5,7.9c0,0.1-0.3,0.3-0.7,0.6l-3,2.6
		c-0.2,0.1-0.2,0.4-0.1,0.6l0.2,0.3c0.1,0.2,0.5,0.2,0.7,0c0,0,0,0,0.1,0c0.9-0.8,12.9-11.9,10.1-12.4
		C58.7,115.7,58.4,115.9,58.2,116.1z M54.6,117.8c-0.1-0.1-0.3-0.1-0.4,0l0,0l-7,6.9c-0.3,0.3,0.2,0.6,0.4,0.8
		c0.1,0.1,0.3,0.1,0.4,0l0,0l7-6.9C55.3,118.3,54.8,118,54.6,117.8z"/>
	<path class="st19" d="M58.2,111.7L59,112l0.3,2l-2.2,0.8l-0.2-0.5c0.8-0.1,1.1-0.4,0.9-1c-0.1-0.4-0.2-0.8-0.1-0.9
		C57.8,112,58,111.8,58.2,111.7z"/>
	<path class="st22" d="M59.8,114h-0.5l-0.3-2C60,111.9,60.3,112.6,59.8,114z"/>
	<path class="st19" d="M73.2,112.3l-1.5,1.5l-1.5-0.8l-0.5-0.3L73.2,112.3z"/>
	<path class="st7" d="M73.2,112.3c1.3-0.3,1.6,0.2,1,1.5c-0.5,0.4-0.5,0.8,0,1.2H74l-2-0.8l-0.3-0.5L73.2,112.3z"/>
	<path class="st13" d="M65.2,112.8L67,113l0.3,0.3c-0.5,2.8-1,3-1.5,0.5L65.2,112.8z"/>
	<path class="st26" d="M69.8,112.7l0.5,0.3c-0.1,0.1-0.2,0.3-0.3,0.5c0,0.2,0.1,0.5,0.5,0.7c0.8,0.5,1.2,1.3,1.3,2.3h-0.7l-1.9-2.7
		C68.8,113.2,69.1,112.7,69.8,112.7z"/>
	<path class="st2" d="M67.2,113.3c1.2-0.1,0.3,3.5,3.8,3.2h0.7c1.3,2.9,1.6,5.9,1.1,9.1c0,0.2-0.3,0.4-0.5,0.3l0,0
		c-0.5-0.1-1.1-0.1-1.6,0c-0.4,0.1-0.7,0-0.8-0.2c0-0.2,0-0.4,0.1-0.6c1.8-1.7,1.6-2-0.5-1c-0.4-0.8-0.7-1-1.1-0.5
		c-0.1,0.2-0.2,0.5-0.2,0.9l0.2,4.6c0,0.4,0.1,0.7,0.3,0.9c1.3,1.4,5.3-0.1,4.2,2.1l-15.3,0.2c-0.5-3.9,1.8-1.6,3.4-1.5
		c0.8,0.1,4.2,0.3,4.4-0.7c0-0.2-0.3-0.4-0.6-0.4l-4.8,0.1c-0.2,0-0.5-0.1-0.9-0.4c-0.6-0.4-1.2-0.2-1.8,0.4l-0.8-0.5
		c-0.1-1.6-0.5-3.1-1.2-4.5l-1-0.5c1.8-2.7,3.8-5.1,6.1-7.3c0.4-0.4,0.4-0.7-0.1-0.8c-0.3-0.1-0.5-0.3-0.5-0.6
		c0.1-0.5,0.4-0.5,1-0.2l1,1c1.5,0.2,2.4-0.6,2.7-2.2c0.3,0,0.7-0.1,1-0.3C66.2,116.3,66.7,116.1,67.2,113.3z M69.9,119.2
		c-0.7-1.4-1.6-2.2-2.6-2.6c-0.3-0.1-0.7,0-0.9,0.1l-3.1,2.1c-0.5,0.4-0.5,0.6,0.2,0.8c2.1,0.5,4.1,0.5,6.1,0.2
		C69.8,119.8,70,119.5,69.9,119.2C70,119.2,70,119.2,69.9,119.2z M67,121c-1.5-0.6-2.4-0.4-3,0.7c-0.4,0.8-0.2,1,0.6,0.7
		c1.5-0.5,2.8-0.5,4.1-0.1c0.3,0.1,0.4-0.1,0.4-0.3c-0.1-0.7-0.5-1-1.3-0.9C67.6,121.2,67.3,121.2,67,121z M63.5,125.7
		c-1.1,0.4-7,0.7-4,3c0.8,0.6,2.1,0.7,3.8,0.4c2.8-0.6,3.2-1.8,1-3.6C62,123.1,61.8,123.2,63.5,125.7z"/>
	<path class="st17" d="M56.8,114.2l0.2,0.5c0.4,1.7-0.2,2.4-2,2.2c-1.2-0.2-1.2-0.5-0.2-0.8c1.1-0.3,1.3-0.9,0.6-1.7v-0.5
		C56.1,113.3,56.5,113.4,56.8,114.2z"/>
	<path class="st24" d="M25.5,113.7h1l0.5,0.1c-0.1,0.2-0.2,0.3-0.2,0.6c0.3,9.3,0.2,18.6-0.3,27.8h-0.9
		C24.9,132.7,24.9,123.2,25.5,113.7z"/>
	<path class="st2" d="M27,113.8c0.4-0.2,0.6-0.1,0.7,0.2c2.6,2.7,3.8,5.8,3.7,9.4c0,0.3,0.1,0.7,0.2,0.9l0.7,1.2l-1.7,3.1
		c-0.1,0.2-0.4,0.4-0.8,0.4c-3.1,0.6-2.9,4.9,0.5,4.7c0.3,0,0.6,0.1,0.9,0.3c1.8,1.4,3.8,1.9,5.9,1.6c0.3,0,0.6,0.1,0.9,0.3
		c2.5,2.3,4,1.7,4.4-1.7c1.9-0.5,3.8-0.5,5.7,0l-7.4,8.3c-0.2,0.3-0.5,0.4-0.8,0.4l-13,0.1c-0.4,0-0.4-0.5-0.4-0.8
		c0.5-9.3,0.6-18.6,0.3-27.8C26.8,114.1,26.9,114,27,113.8z"/>
	<path class="st27" d="M34.6,113.9c0.5,0,0.6,0.2,0.4,0.6c-1,1.5-2.1,1.5-3.5,0.2c-0.7-0.7-0.5-1,0.5-0.9L34.6,113.9z"/>
	<path class="st27" d="M41.8,115l-0.5,0.1l-2.5,0.9c-0.3,0.1-0.6,0-0.8-0.3C35,112.6,41.4,113.3,41.8,115z"/>
	<path class="st19" d="M54.7,113.7l0.8,0.3v0.5l-2.2,1L53,115C53.2,114.2,53.8,113.7,54.7,113.7z"/>
	<path class="st14" d="M64.7,114c-0.3,1.7-1.2,2.4-2.7,2.2C62.8,115.3,63.7,114.6,64.7,114z"/>
	<path class="st2" d="M74.2,113.7c0.5,0.7,1.1,1.1,1.9,1.3c0.4,0.1,0.7,0.3,0.8,0.5c0.2,0.2,0.3,0.5,0.3,0.8c0.1,0.4,0,0.5-0.4,0.3
		l-2.6-1.6C73.7,114.6,73.7,114.2,74.2,113.7z"/>
	<path class="st2" d="M45.1,114.7c-3.1,3.3,0.9,8.7,2,12.5c0.1,0.3,0,0.5-0.3,0.6l0,0c-1.2,0.3-2.4,0.3-3.6,0
		c-0.2-0.1-0.3-0.3-0.2-0.5v-0.1c1.3-2.1,0.5-2.8-2.3-2.3c-0.5,0-0.8-0.4-0.9-1l1.6-5.8l2.5-3.8c0.2-0.3,0.5-0.5,0.8-0.4
		C45.1,114,45.2,114.3,45.1,114.7z"/>
	<path class="st19" d="M72,114.2l2,0.8C73.2,116.1,72.5,115.8,72,114.2z"/>
	<path class="st6" d="M33.8,117.9c0.4,0.2,0.4,0.5,0.1,0.9c-0.2,0.2-0.5,0.2-0.7,0l0,0l-2.8-2.7c-0.3-0.3-0.5-0.6-0.4-0.7
		c0-0.1,0.1-0.2,0.2-0.3c0.2-0.1,0.4,0,0.6,0.2l2.2,2.1C33.2,117.5,33.5,117.7,33.8,117.9z"/>
	<path class="st10" d="M35.5,118l-0.5,0.3c-0.4-0.3-0.6-0.6-0.8-1c-0.1-0.3-0.1-0.6,0.1-0.9c1-1.6,2.1-1.7,3.3-0.2
		c0.6,0.8-0.3,1.5-0.8,0.4c-0.2-0.3-0.5-0.5-0.7-0.5C34.9,116,34.7,116.7,35.5,118z"/>
	<path class="st12" d="M41.2,115l0.5-0.1c0.3,0.1,0.2,0.5,0,0.7c0,0-2.9,3-2.9,3c-0.2,0.2-0.5,0.2-0.7,0l0,0
		C37.7,118.2,40.9,115.6,41.2,115z"/>
	<path class="st20" d="M49.1,114.9c1.7,0.7,2.9,0.7,3.8,0.1l0.3,0.5c-1.1,2.4-3,4.7-5.8,6.9c-0.9,0.7-1.3,0.6-1.2-0.4
		c0-0.3,0.2-0.6,0.5-0.8c1.2-1,2.8-1.6,3.4-3C50.6,117.2,50.3,116,49.1,114.9z"/>
	<path class="st20" d="M46.8,116c0.8-0.8,1.5-0.5,2.2,0.9c0.1,0.3,0.1,0.6-0.1,0.8l-2.9,2.7c-0.1,0.1-0.3,0.1-0.5,0l-0.1-0.1
		c-0.1-0.5-0.1-0.9,0.1-1.3c0.1-0.3,0.2-0.6,0-0.8c-0.5-0.8-0.3-1.3,0.5-1.6C46.3,116.5,46.5,116.3,46.8,116z"/>
	<path class="st16" d="M51.7,124c1.8-2.4,4.5-4.4,6.5-7.9c0.2-0.3,0.5-0.5,0.7-0.4c2.8,0.5-9.2,11.6-10.1,12.4
		c-0.2,0.2-0.6,0.2-0.7,0.1l0,0l-0.2-0.3c-0.1-0.2-0.1-0.5,0.1-0.6l3-2.6C51.4,124.3,51.7,124.1,51.7,124z"/>
	<path class="st7" d="M69.9,119.2c0.1,0.2,0,0.5-0.2,0.6h-0.1c-2,0.3-4.1,0.3-6.1-0.2c-0.7-0.1-0.7-0.4-0.2-0.8l3.1-2.1
		c0.3-0.2,0.6-0.2,0.9-0.1C68.3,116.9,69.2,117.8,69.9,119.2z M67.6,118.1c0.1-2.5-3.5,1.5-0.5,0.7
		C67.4,118.6,67.6,118.4,67.6,118.1z"/>
	<path class="st19" d="M75.6,118.5c-0.8,1.6-1.9-3.2-0.1-0.9C75.7,117.9,75.7,118.2,75.6,118.5z"/>
	<path class="st16" d="M67.1,118.7c-3,0.9,0.6-3.1,0.5-0.7C67.6,118.4,67.4,118.6,67.1,118.7z"/>
	<path class="st6" d="M35.5,118c1,0,1.8,0.5,2.3,1.4c0.2,0.3,0.2,0.6,0.1,1c-0.2,1.2-0.6,1-1.1-0.6c-0.1-0.2-0.3-0.4-0.6-0.4
		c-0.6,0-1-0.3-1.2-1L35.5,118z"/>
	<path class="st16" d="M47.2,124.7l7-6.9c0.3-0.3,0.6,0.2,0.8,0.4c0.1,0.1,0.1,0.3,0,0.4l-7,6.9c-0.3,0.3-0.6-0.2-0.8-0.4
		C47.1,125,47.1,124.8,47.2,124.7z"/>
	<path class="st29" d="M41.5,118.2l-1.6,5.8c0.1-1,0-2-0.3-3c0.7-0.3,0.8-0.6,0.5-1.2c-0.1-0.3-0.4-0.4-0.6-0.2l0,0
		c-0.1,0.1-0.2,0.2-0.3,0.4C39.4,118.8,40.2,118.2,41.5,118.2z"/>
	<path class="st11" d="M32.3,119.7c0.3-0.4,0.5-0.4,0.7,0.1c0.3,0.7-0.2,2.1-1,1.5c0,0,0-0.1-0.1-0.1
		C31.7,120.8,31.8,120.3,32.3,119.7z"/>
	<path class="st11" d="M34.5,119.5c0.4,0,0.6,0.2,0.5,0.7c0,0.8-1.4,0.9-1.1-0.1C34,119.7,34.2,119.5,34.5,119.5z"/>
	<path class="st12" d="M39.5,121l-0.5-1c0.1-0.2,0.2-0.3,0.3-0.4c0.2-0.1,0.5,0,0.7,0.2l0,0C40.3,120.4,40.2,120.8,39.5,121z"/>
	<path class="st14" d="M68,121.1c0.8-0.1,1.2,0.1,1.3,0.9c0,0.3-0.2,0.3-0.4,0.3c-1.3-0.4-2.6-0.4-4.1,0.1c-0.8,0.3-1,0-0.6-0.7
		c0.5-1,1.5-1.2,3-0.7C67.3,121.2,67.6,121.2,68,121.1z"/>
	<path class="st12" d="M35.8,122.6c0.1,0.4-0.1,0.5-0.7,0.4c-0.3,0-0.5-0.3-0.4-0.5v-0.1C34.9,121.9,35.6,122.1,35.8,122.6z"/>
	<path class="st10" d="M37.5,122.4c0.4,0.1,0.6,0.5,0.5,1.1c0,0.2-0.4,0.4-0.6,0.4c-0.4-0.2-0.5-0.5-0.5-1
		C37,122.5,37.2,122.3,37.5,122.4C37.5,122.3,37.5,122.4,37.5,122.4z"/>
	<path class="st12" d="M32,123.2c0.2-0.8,1.2-0.5,1,0.3C32.7,124.2,31.8,124,32,123.2z"/>
	<path class="st20" d="M70,125l-0.5-1C71.6,123,71.8,123.3,70,125z"/>
	<path class="st3" d="M99.8,147.9c1.8-0.1,2.4,0.7,1.8,2.3c-0.1,0.3-0.4,0.5-0.7,0.5h-6.6c-0.3,0-0.6-0.2-0.7-0.5
		c-0.6-1.7,0-2.5,1.7-2.4c0.3,0,0.6-0.1,0.8-0.4l4.7-7.8c0.2-0.3,0.2-0.6,0.1-0.9l-5-12.1c-0.1-0.3-0.4-0.4-0.7-0.4
		c-1.6,0.1-2.1-0.7-1.6-2.4c0.1-0.3,0.4-0.5,0.7-0.5h6.7c0.3,0,0.6,0.2,0.7,0.5c0.5,1.7-0.1,2.5-1.8,2.4c-0.2,0-0.3,0.1-0.4,0.3v0.1
		l3.6,8.3c0.1,0.2,0.3,0.2,0.4,0.2l0.1-0.1c1.9-2.4,2.5-5.1,1.8-8.2c-0.1-0.3-0.3-0.5-0.6-0.5c-1.3-0.2-1.7-1-1.2-2.4
		c0.1-0.3,0.4-0.5,0.7-0.5h6c0.3,0,0.6,0.2,0.7,0.5c0.5,1.7-0.1,2.5-1.8,2.4c-0.3,0-0.5,0.2-0.5,0.4l0,0v20.6c0,0.3,0.2,0.5,0.5,0.5
		c2.1,0,2.6,0.9,1.5,2.5c-0.2,0.3-0.5,0.4-0.8,0.4l-5.5-0.1c-1-0.1-0.9-1.6-0.7-2.3c0.1-0.2,0.4-0.4,0.7-0.4c2,0.2,1.3-7.8,1.3-9.1
		c0.1-1.2-0.2-1.3-0.8-0.3l-5.2,8.7C99.4,147.8,99.5,147.9,99.8,147.9z"/>
	<path class="st7" d="M64.2,125.5l-0.8,0.2C61.8,123.2,62,123.1,64.2,125.5z"/>
	<path class="st20" d="M54.5,124.2l1,0.5c-1.3,2.3-3.1,4.1-5.4,5.6c-0.3,0.2-0.5,0.6-0.8,1.4l-0.6,0.8c-1.1-0.3-3.8,0.6-4.2-0.2
		c0.9-1.4,0.9-2.1-0.2-2c-0.3,0-0.4,0.2-0.4,0.5l0,0L44,132c-0.2,0.2-0.4,0.3-0.6,0.2c-0.1-0.1-0.3-0.4-0.4-0.8l-0.3-1.7
		c0-0.3,0.1-0.5,0.4-0.5l4.3-0.1c0.3,0,0.5,0.2,0.7,0.5c0.7,1.5,1.1,1.4,1.2-0.1c0-0.3,0.2-0.6,0.4-0.8L54.5,124.2z"/>
	<path class="st2" d="M76.5,126c-1.5,0.7,0-3.7,0.4-0.8C76.9,125.5,76.8,125.9,76.5,126z"/>
	<path class="st12" d="M38,126.7l-1.8-0.4c-1.4,0.3-2.6,0-3.5-0.8C34.5,124.7,41.9,125.2,38,126.7z"/>
	<path class="st14" d="M55.5,124.7c0.7,1.4,1.2,2.9,1.2,4.5l-2.4,2.8c-0.8,0.3-1.5,0.3-2.3,0c1-0.7,4.5-3.3,4-4.6
		c-0.1-0.2-0.3-0.3-0.5-0.2c0,0-0.1,0-0.1,0.1l-5.1,4.7l-1-0.2c0.3-0.8,0.5-1.3,0.8-1.4C52.3,128.9,54.1,127,55.5,124.7z"/>
	<path class="st22" d="M32.3,125.5h0.4c1,0.8,2.2,1,3.5,0.8c-0.9,0.4-1.8,0.6-2.7,0.5c-0.4,0-0.7,0.1-0.9,0.2
		c-0.5,0.4-0.9,1-1.2,1.7c-0.6,2.8-0.4,3,0.8,0.5c1.5,0.3,2.5,0,3-1c0.1-0.3,0.3-0.3,0.4,0l0.5,1.2c0.1,0.3,0.4,0.5,0.7,0.6
		c0.8,0.4,1.1,1,0.9,2c-0.1,0.3,0,0.6,0.2,0.8c0.8,0.8,1.3,0.5,1.3-0.9c0.3,1.9,1.2,2.4,2.7,1.5l0.3,0.8c-0.4,3.4-1.9,4-4.4,1.7
		c-0.2-0.2-0.5-0.3-0.9-0.3c-2.2,0.3-4.2-0.2-5.9-1.6c-0.2-0.2-0.5-0.3-0.9-0.3c-3.3,0.2-3.6-4-0.5-4.7c0.4-0.1,0.7-0.2,0.8-0.4
		L32.3,125.5z M33.9,131.5c-0.7,1.5-0.5,2.5,0.4,3.1c0.2,0.1,0.4,0,0.6-0.2v-0.1c0.2-1,0.1-1.9-0.4-2.8
		C34.3,131.1,34.1,131.1,33.9,131.5z M32.2,132.6c0-0.5-0.5-1-1-0.5c0,0,0,0,0,0.1c-0.3,0.5-0.2,0.8,0.4,0.9
		C31.9,133.1,32.1,132.9,32.2,132.6L32.2,132.6z M36.7,131.9c-1.1-0.2-1.4,2.2-0.4,2.9c0.2,0.1,0.4,0.1,0.5-0.1c0,0,0-0.1,0.1-0.1
		l0.3-2C37.2,132.3,37,132,36.7,131.9z M39.7,136.4c3.8,0.1-0.3-1.4-0.7-1.9c-0.5-0.6-1.3-0.3-0.9,0.5
		C38.5,135.8,39.1,136.4,39.7,136.4z"/>
	<path class="st12" d="M40.8,125.5c2,0.6,2.2,1.1,0.7,1.6c-0.2,0.1-0.4,0.4-0.3,0.6l0.8,5.8c-1.5,0.9-2.4,0.4-2.7-1.5v-3.5
		L40.8,125.5z"/>
	<path class="st23" d="M64.2,125.5c2.2,1.8,1.9,3-1,3.6c-1.7,0.4-3,0.2-3.8-0.4c-3-2.2,2.9-2.5,4-3L64.2,125.5z M61.4,127.2
		c0-0.5-0.9-0.3-1.1,0.2c-0.3,0.6-0.1,0.7,0.7,0.3C61.2,127.6,61.4,127.4,61.4,127.2z"/>
	<path class="st2" d="M36.2,126.3l1.8,0.4c0.8,0.3,1.3,0.9,1.3,1.8v3.5c0,1.4-0.4,1.6-1.3,0.9c-0.2-0.2-0.3-0.5-0.2-0.8
		c0.2-1-0.1-1.6-0.9-2c-0.3-0.1-0.5-0.4-0.7-0.6l-0.5-1.2c-0.1-0.3-0.3-0.3-0.4,0c-0.5,1-1.5,1.4-3,1l-0.8-0.5
		c0.2-0.7,0.6-1.2,1.2-1.7c0.2-0.2,0.5-0.3,0.9-0.2C34.5,126.9,35.4,126.7,36.2,126.3z"/>
	<path class="st20" d="M52,132c-0.6,0.4-1.2,0.4-1.8,0l5.1-4.7c0.2-0.3,0.5-0.1,0.7,0.1C56.5,128.7,53,131.2,52,132z"/>
	<path class="st20" d="M61,127.7c-0.8,0.4-1,0.3-0.7-0.3C60.6,126.5,62.1,127,61,127.7z"/>
	<path class="st24" d="M31.5,128.7l0.8,0.5C31.1,131.8,30.8,131.6,31.5,128.7z"/>
	<path class="st23" d="M57.8,132.2l-1.2-0.5l1-1.9c0.7-0.6,1.3-0.8,1.8-0.4c0.4,0.2,0.7,0.4,0.9,0.4l4.8-0.1c0.3,0,0.6,0.1,0.6,0.3
		c0,0,0,0,0,0.1c-0.3,1-3.6,0.7-4.4,0.7C59.6,130.6,57.2,128.3,57.8,132.2z"/>
	<path class="st19" d="M72.9,129.5c-0.3,1.6-6.9-0.4-0.5-0.5C72.7,129.1,72.9,129.2,72.9,129.5L72.9,129.5z"/>
	<path class="st16" d="M56.7,129.2l0.8,0.5l-1,1.9c-0.7,0.4-1.5,0.5-2.2,0.3L56.7,129.2z"/>
	<path class="st23" d="M44.5,132.3L44,132l-0.2-1.2c0-0.3,0.1-0.5,0.4-0.6l0,0C45.4,130.2,45.4,130.9,44.5,132.3z"/>
	<path class="st2" d="M33.9,131.5c0.2-0.4,0.4-0.5,0.6,0c0.5,0.9,0.6,1.9,0.4,2.8c-0.1,0.2-0.3,0.4-0.5,0.3h-0.1
		C33.3,134.1,33.2,133,33.9,131.5z"/>
	<path class="st17" d="M31.6,133c-0.6-0.1-0.7-0.4-0.4-0.9c0.2-0.2,0.5-0.3,0.7-0.2c0,0,0,0,0.1,0c0.2,0.2,0.3,0.4,0.3,0.6
		C32.2,132.9,31.9,133.1,31.6,133L31.6,133z"/>
	<path class="st5" d="M49.3,131.7l1,0.2c0.5,0.4,1.1,0.4,1.8,0c0.8,0.4,1.5,0.4,2.3,0c0.8,0.2,1.5,0.1,2.2-0.3l1.2,0.5L73,132h1
		l9,10.6c0.2,0.2,0.5,0.4,0.8,0.4h11.6c0.3,0,0.5,0.2,0.6,0.4c0,0.1-0.1,0.3-0.1,0.4c-23,0.5-46.3-0.1-69.4,0.3c-1,0-1.3-0.6-1-1.8
		h0.9c0,0.3,0,0.8,0.4,0.8c0,0,12.8-0.1,12.8-0.1c0.3,0,0.6-0.2,0.8-0.4l7.4-8.3l0.7-1.7L49.3,131.7z M51.2,136.8l-4.1,0.1
		c-0.4,0-0.4,0.2-0.2,0.5l0.8,1c0.2,0.2,0.1,0.5-0.1,0.7l-1.9,2c-0.2,0.3-0.5,0.4-0.8,0.3c-0.4-0.1-0.8-0.4-1.1-0.8
		c-0.2-0.2-0.5-0.3-0.7-0.2c-0.7,0.3-1.5,2-0.4,2.1c0,0,19.3-0.1,19.3-0.1h18.2c0.3,0,0.6-0.2,0.6-0.5l0,0c-0.1-1.8-2.8,0.1-3.4-1.9
		c-0.1-0.3-0.3-0.5-0.6-0.5c-0.7-0.2-1.3-0.8-0.7-1.5c0.4-0.5,0.5-1.2-0.3-1.4c-1.2-0.2-2.5-0.1-3.6,0.2c-1.8,0.1,1.2-1.8,1.6-1.9
		c0.4-0.1,0.4-0.3,0.4-0.5c-0.6-0.8-3,1.4-4,2.4c-1.8-2.5-4-3.1-6.6-1.8c-0.6,0.3-0.4,1.1,0.3,0.6c1.7-1,3.3-0.9,4.8,0.4
		c0.2,0.2,0.2,0.4,0.1,0.5l0,0l-0.3,0.2l-4.7-0.1c-0.3,0-0.4,0.1-0.2,0.4l1,1.4c0.1,0.2,0.1,0.5-0.1,0.7l-2.2,2.4l-2.9-2.5
		c-0.1-0.2-0.1-0.5,0.1-0.6c0.6-0.3,0.9-1.4,0.1-1.4l-4.1-0.1l-0.3-0.8l0.4-0.5c0.2-0.3,0.5-0.4,0.8-0.5c2.9-0.5,4.6,0.7,5.1,3.6
		c0.1,0.3,0.3,0.5,0.6,0.5c1-0.2,0.7-1.5,0.2-2.1c-2.8-3.5-5.9-3.5-9.3-0.3c-0.8-1.5-2-2.4-3.8-2.6c-0.4,0-0.5,0.1-0.5,0.4
		C49.1,135.5,52.4,134.5,51.2,136.8z"/>
	<path class="st2" d="M36.4,134.8c-1-0.7-0.7-3.1,0.4-2.9c0.3,0,0.5,0.3,0.5,0.6l-0.3,2c0,0.2-0.2,0.3-0.4,0.3
		C36.5,134.9,36.4,134.8,36.4,134.8z"/>
	<path class="st11" d="M39,134.5c0.4,0.5,4.5,2,0.7,1.9c-0.6,0-1.2-0.6-1.6-1.5c-0.2-0.4-0.1-0.6,0.1-0.8
		C38.4,134,38.7,134.2,39,134.5z"/>
	<path class="st10" d="M53.2,136.7L53,137l-1.2,0.5l-0.5-0.7c1.2-2.3-2.2-1.3-2.3-2.2c0-0.2,0.2-0.4,0.5-0.4
		C51.2,134.3,52.5,135.2,53.2,136.7z"/>
	<path class="st11" d="M55.5,136c-0.9,0.5-1.3,1.3-1.3,2.2c0,0.4-0.1,0.7-0.3,0.8c-0.8,0.5-1.1-0.2-0.9-2.1c3.3-3.5,6.7-3.7,9.6,0
		c0.5,0.6,0.8,1.9-0.2,2.1c-0.3,0.1-0.5-0.1-0.6-0.4l0,0c-0.5-2.8-2.3-4-5.1-3.6c-0.3,0.1-0.6,0.2-0.8,0.5L55.5,136z"/>
	<path class="st12" d="M70.5,136.8v0.2l-0.5,0.3c-0.4-0.6-0.8-0.5-1.2,0.2v-0.7l0.3-0.2c0.1-0.1,0.1-0.3,0-0.5c0,0,0,0-0.1-0.1
		c-1.4-1.3-3-1.4-4.8-0.4c-0.8,0.4-0.9-0.3-0.3-0.6C66.5,133.7,68.7,134.3,70.5,136.8z"/>
	<path class="st10" d="M72.5,136.8v0.7c-0.2-0.4-0.6-0.5-1.2-0.2l-0.8-0.3v-0.2c1-1,3.4-3.2,4-2.4c0.1,0.1,0,0.4-0.2,0.5
		c-0.1,0-0.1,0.1-0.2,0.1C73.7,135,70.8,136.9,72.5,136.8z"/>
	<path class="st9" d="M55.5,136l0.3,0.8c-0.1,0.1-0.2,0.2-0.2,0.4c-0.1,0.2,0,0.5,0.2,0.7c0.8,0.7,0.8,1.2,0,1.7
		c-0.3,0.2-0.5,0.4-0.7,0.6l-0.9,1.2c-0.1,0.2-0.4,0.2-0.6,0.1c0,0,0,0-0.1,0l-2.1-2.1c-0.2-0.3-0.4-0.6-0.3-0.9
		c0.1-0.8,1.3-1.2,1.9-1.5c-0.2,1.9,0.1,2.5,0.9,2.1c0.2-0.1,0.4-0.4,0.3-0.8C54.1,137.3,54.6,136.5,55.5,136z"/>
	<path class="st6" d="M68.8,136.8v0.7c-1.9,1.3,0.6,2.9,1.6,3.8c0.2,0.2,0.5,0.2,0.7,0l0,0c0.8-0.9,3.9-2.8,1.4-3.7v-0.7
		c1.2-0.4,2.4-0.4,3.6-0.2c0.7,0.2,0.7,0.9,0.3,1.4c-0.2,0.3-0.3,0.6-0.2,0.8c0.1,0.4,0.4,0.6,0.9,0.7c0.3,0.1,0.5,0.3,0.6,0.5
		c0.7,1.9,3.3,0.1,3.4,1.9c0,0.3-0.2,0.5-0.5,0.5H62.2l0.2-1l2.2-2.4c0.2-0.2,0.2-0.5,0.1-0.7l-1-1.4c-0.2-0.3-0.1-0.4,0.2-0.4
		L68.8,136.8z"/>
	<path class="st6" d="M51.2,136.8l0.5,0.7c-0.6,0.6-1.1,1.1-0.4,1.8c0,0,2.1,2.1,2.1,2.1c0.2,0.2,0.5,0.2,0.6,0c0,0,0,0,0-0.1
		l0.9-1.2c0.2-0.3,0.4-0.5,0.7-0.6c0.8-0.5,0.8-1,0-1.7c-0.2-0.2-0.3-0.5-0.2-0.7s0.2-0.3,0.2-0.4l4.1,0.1c0.3,0,0.5,0.2,0.5,0.5
		c0,0,0,0,0,0.1c-0.1,0.4-0.3,0.7-0.6,0.9c-0.2,0.1-0.3,0.4-0.2,0.5c0,0,0,0.1,0.1,0.1l2.9,2.5l-0.2,1l-19.3,0.1
		c-1.1-0.1-0.3-1.8,0.4-2.1c0.2-0.1,0.5-0.1,0.7,0.2c0.3,0.4,0.6,0.6,1.1,0.8c0.2,0.1,0.5,0,0.8-0.3l1.9-2c0.2-0.2,0.2-0.5,0.1-0.7
		l-0.8-1c-0.2-0.3-0.2-0.5,0.2-0.5L51.2,136.8z"/>
	<path class="st5" d="M70,137.2c0.4,2.8,0.9,2.8,1.3,0c0.5-0.3,0.9-0.2,1.2,0.2c2.5,1-0.7,2.8-1.4,3.7c-0.2,0.2-0.5,0.2-0.7,0.1l0,0
		c-0.9-0.9-3.4-2.5-1.6-3.8C69.2,136.7,69.6,136.6,70,137.2z"/>
	<path class="st6" d="M70.5,137l0.8,0.3c-0.5,2.8-0.9,2.8-1.3,0L70.5,137z"/>
</g>
</svg>
