<?xml version="1.0" encoding="UTF-8" standalone="no"?>
<svg xmlns="http://www.w3.org/2000/svg" version="1.2" baseProfile="tiny" viewBox="0 0 128 168">
<g stroke-width="0.00" fill="none" stroke-linecap="butt">
<path stroke="#e7e7e7" stroke-opacity="0.553" vector-effect="non-scaling-stroke" d="
  M 109.75 154.04
  Q 113.80 151.35 114.54 146.50"
/>
<path stroke="#e7e7e7" stroke-opacity="0.553" vector-effect="non-scaling-stroke" d="
  M 114.45 27.26
  Q 116.40 17.26 107.80 12.87"
/>
<path stroke="#d7d7d7" stroke-opacity="0.596" vector-effect="non-scaling-stroke" d="
  M 107.80 12.87
  Q 37.16 12.50 21.82 12.77
  Q 18.19 12.83 15.46 16.75"
/>
<path stroke="#d7d7d7" stroke-opacity="0.596" vector-effect="non-scaling-stroke" d="
  M 114.45 27.26
  L 114.46 46.50"
/>
<path stroke="#f9f7f6" stroke-opacity="0.949" vector-effect="non-scaling-stroke" d="
  M 114.46 46.50
  Q 113.93 61.25 114.46 76.00"
/>
<path stroke="#d7d7d7" stroke-opacity="0.596" vector-effect="non-scaling-stroke" d="
  M 114.46 76.00
  L 114.54 146.50"
/>
<path stroke="#d7d7d7" stroke-opacity="0.596" vector-effect="non-scaling-stroke" d="
  M 109.75 154.04
  Q 106.07 155.67 102.00 155.29"
/>
<path stroke="#8e9090" stroke-opacity="0.953" vector-effect="non-scaling-stroke" d="
  M 102.00 155.29
  L 96.25 155.29"
/>
<path stroke="#d7d7d7" stroke-opacity="0.596" vector-effect="non-scaling-stroke" d="
  M 96.25 155.29
  L 92.00 155.29"
/>
<path stroke="#8e9090" stroke-opacity="0.953" vector-effect="non-scaling-stroke" d="
  M 92.00 155.29
  L 82.25 155.29"
/>
<path stroke="#d7d7d7" stroke-opacity="0.596" vector-effect="non-scaling-stroke" d="
  M 82.25 155.29
  Q 52.75 155.22 23.25 155.21
  Q 19.70 155.21 17.00 152.96"
/>
<path stroke="#f9fafb" stroke-opacity="0.988" vector-effect="non-scaling-stroke" d="
  M 17.00 152.96
  Q 14.00 148.78 14.00 147.25
  Q 14.00 85.03 14.00 22.82
  C 14.00 20.48 14.68 18.85 15.46 16.75"
/>
<path stroke="#e29996" vector-effect="non-scaling-stroke" d="
  M 30.44 40.45
  L 21.73 40.48
  A 0.41 0.40 -82.6 0 1 21.35 39.97
  C 23.19 32.58 37.96 29.31 33.77 21.22
  C 30.21 14.30 14.98 16.01 17.52 25.61
  A 0.70 0.69 83.7 0 0 18.16 26.13
  Q 21.32 26.30 20.91 23.76
  Q 20.49 21.16 23.09 20.73
  C 26.05 20.24 34.99 21.61 29.57 26.61
  C 23.86 31.89 16.98 33.97 17.22 43.26
  A 0.72 0.71 89.6 0 0 17.93 43.97
  L 33.85 43.93
  A 0.55 0.51 0.5 0 0 34.40 43.43
  L 34.44 37.81
  A 0.75 0.69 9.9 0 0 33.92 37.14
  Q 30.23 35.96 30.85 39.95
  A 0.43 0.42 85.3 0 1 30.44 40.45"
/>
<path stroke="#e29996" vector-effect="non-scaling-stroke" d="
  M 64.22 46.59
  Q 63.16 46.82 62.64 45.67
  A 0.92 0.76 76.8 0 0 61.95 45.15
  C 52.93 44.57 61.86 56.55 63.63 58.67
  A 0.41 0.40 -46.3 0 0 64.26 58.65
  C 66.95 55.29 73.29 46.88 67.78 45.02
  Q 65.95 44.41 64.93 45.99
  A 1.32 0.75 -69.6 0 1 64.22 46.59"
/>
<path stroke="#e29996" vector-effect="non-scaling-stroke" d="
  M 25.55 52.01
  C 22.60 47.58 17.92 51.43 19.39 55.59
  Q 21.03 60.27 25.59 65.61
  A 0.42 0.42 -45.8 0 0 26.24 65.60
  C 28.31 63.03 36.49 52.92 30.84 50.34
  Q 28.14 49.11 26.09 52.03
  A 0.33 0.32 46.1 0 1 25.55 52.01"
/>
<path stroke="#e29996" vector-effect="non-scaling-stroke" d="
  M 96.01 116.80
  C 98.03 119.11 99.81 118.16 101.61 116.23
  A 0.71 0.71 -36.5 0 1 102.77 116.40
  C 104.78 120.52 110.60 116.43 108.29 111.47
  Q 106.32 107.26 102.50 102.35
  A 0.41 0.40 46.3 0 0 101.87 102.33
  C 99.44 105.26 92.99 113.33 96.01 116.80"
/>
<path stroke="#e29996" vector-effect="non-scaling-stroke" d="
  M 59.94 122.81
  Q 62.09 123.76 63.68 121.56
  A 0.47 0.46 -52.2 0 1 64.34 121.47
  Q 68.99 125.29 70.05 119.24
  A 1.61 1.57 38.5 0 0 69.93 118.29
  Q 67.75 113.48 64.70 109.63
  A 0.79 0.78 -46.0 0 0 63.44 109.66
  C 61.50 112.35 54.77 120.53 59.94 122.81"
/>
<path stroke="#e29996" vector-effect="non-scaling-stroke" d="
  M 106.80 128.45
  C 104.27 134.01 98.31 136.22 95.58 139.31
  C 85.68 150.50 112.51 157.30 110.57 142.52
  A 0.72 0.67 -89.8 0 0 110.01 141.91
  Q 108.64 141.69 107.56 142.65
  A 1.09 0.83 70.5 0 0 107.28 143.51
  C 107.84 149.01 100.28 147.87 97.64 145.79
  A 1.41 1.27 16.2 0 1 97.15 145.00
  Q 96.72 142.60 98.80 141.03
  C 104.41 136.81 111.01 133.03 110.78 124.88
  A 0.87 0.86 89.0 0 0 109.92 124.04
  L 94.14 124.07
  A 0.54 0.52 0.5 0 0 93.60 124.58
  L 93.54 130.20
  A 0.75 0.68 10.1 0 0 94.05 130.86
  Q 97.69 132.13 97.06 128.28
  A 0.50 0.48 81.3 0 1 97.46 127.71
  Q 102.11 127.00 106.51 127.90
  A 0.40 0.39 18.0 0 1 106.80 128.45"
/>
</g>
<path fill="#010001" fill-opacity="0.102" d="
  M 23.19 161.00
  L 18.57 160.92
  A 0.45 0.43 2.5 0 1 18.13 160.46
  Q 18.33 158.15 15.75 158.68
  A 0.96 0.79 -23.8 0 1 14.90 158.44
  L 8.96 151.78
  A 3.58 0.88 86.0 0 1 8.23 149.51
  C 7.79 146.61 6.99 144.04 6.99 141.13
  Q 7.01 84.29 7.00 27.45
  C 7.00 25.07 7.65 22.73 7.83 20.18
  C 8.20 15.07 13.94 9.39 18.00 7.76
  C 20.54 6.74 25.95 6.01 29.48 6.01
  Q 67.32 5.98 105.17 6.06
  A 1.43 1.15 60.9 0 1 106.03 6.41
  Q 107.33 7.53 109.11 7.29
  A 0.61 0.52 76.1 0 1 109.69 7.70
  Q 109.92 8.38 110.79 8.27
  A 1.13 0.96 -25.1 0 1 111.64 8.50
  C 113.00 9.68 114.38 10.00 115.45 11.49
  C 117.78 14.76 119.52 16.73 119.92 19.77
  A 1.45 0.94 26.6 0 0 120.38 20.55
  L 120.64 20.79
  A 0.84 0.61 -73.1 0 1 120.85 21.40
  C 120.27 33.33 121.07 41.37 120.69 48.19
  C 119.98 60.77 120.69 73.60 120.58 86.18
  Q 120.34 115.97 120.53 145.76
  Q 120.53 146.23 120.29 146.69
  Q 119.06 149.05 119.11 151.74
  A 1.23 0.91 74.2 0 1 118.78 152.61
  L 117.89 153.42
  Q 117.49 153.78 117.33 154.20
  C 116.71 155.85 115.38 155.99 114.29 156.77
  Q 111.38 158.82 108.41 160.81
  A 1.22 1.05 31.8 0 1 107.51 160.95
  Q 105.44 160.46 103.69 161.48
  Q 103.22 161.75 102.77 161.75
  Q 84.74 161.77 66.75 161.76
  C 62.59 161.75 24.79 162.64 23.89 161.51
  A 1.11 0.43 57.5 0 0 23.19 161.00
  Z
  M 14.04 19.25
  L 13.54 21.25
  Q 12.07 21.29 11.99 20.27
  Q 11.96 19.97 11.88 20.26
  Q 11.00 23.40 11.00 25.50
  Q 11.00 84.17 11.00 142.85
  C 11.00 144.99 11.77 147.07 11.83 149.39
  A 0.68 0.62 -83.1 0 0 12.28 150.02
  Q 13.69 150.44 12.59 149.29
  A 0.84 0.71 -59.0 0 1 12.46 148.49
  Q 12.69 147.85 12.29 147.32
  A 0.72 0.55 46.4 0 1 12.21 146.55
  Q 13.09 145.32 13.54 147.71
  L 16.21 152.61
  Q 14.89 155.50 18.67 156.23
  A 0.43 0.33 89.8 0 1 18.94 156.58
  L 18.99 156.89
  A 0.88 0.51 3.5 0 0 19.73 157.38
  C 21.79 157.63 23.83 158.58 25.80 158.58
  Q 56.73 158.54 87.65 158.75
  C 92.48 158.78 97.25 158.48 102.03 158.22
  C 104.91 158.06 107.11 156.77 109.74 155.77
  C 109.89 155.71 115.26 151.83 113.84 151.26
  A 0.69 0.29 -48.9 0 0 113.28 151.53
  L 110.13 154.71
  Q 109.59 155.26 109.58 154.57
  Q 109.57 154.32 109.75 154.04
  Q 113.80 151.35 114.54 146.50
  C 116.40 151.98 117.47 145.91 117.47 144.79
  Q 117.51 84.81 117.50 24.80
  A 1.65 1.32 31.7 0 0 117.18 23.90
  Q 115.86 22.12 115.97 20.02
  C 115.99 19.66 115.90 19.30 115.44 19.48
  A 0.86 0.57 83.8 0 0 115.06 20.21
  L 114.89 43.94
  Q 114.89 44.15 114.88 43.93
  L 114.45 27.26
  Q 116.40 17.26 107.80 12.87
  C 106.92 11.78 105.45 12.49 104.63 12.49
  Q 62.72 12.51 20.81 12.49
  A 0.30 0.24 -1.0 0 1 20.51 12.26
  L 20.49 12.00
  A 0.56 0.45 -1.4 0 1 21.05 11.52
  Q 63.85 11.46 106.64 11.54
  Q 107.05 11.54 107.46 11.66
  Q 110.53 12.58 108.26 11.19
  C 107.26 10.57 101.15 10.50 99.78 10.50
  Q 61.28 10.49 22.77 10.51
  Q 19.98 10.51 18.11 11.66
  C 16.11 12.90 11.03 16.68 14.04 19.25
  Z"
/>
<path fill="#020403" fill-opacity="0.188" d="
  M 107.80 12.87
  Q 37.16 12.50 21.82 12.77
  Q 18.19 12.83 15.46 16.75
  L 14.04 19.25
  C 11.03 16.68 16.11 12.90 18.11 11.66
  Q 19.98 10.51 22.77 10.51
  Q 61.28 10.49 99.78 10.50
  C 101.15 10.50 107.26 10.57 108.26 11.19
  Q 110.53 12.58 107.46 11.66
  Q 107.05 11.54 106.64 11.54
  Q 63.85 11.46 21.05 11.52
  A 0.56 0.45 -1.4 0 0 20.49 12.00
  L 20.51 12.26
  A 0.30 0.24 -1.0 0 0 20.81 12.49
  Q 62.72 12.51 104.63 12.49
  C 105.45 12.49 106.92 11.78 107.80 12.87
  Z"
/>
<path fill="#ffffff" d="
  M 107.80 12.87
  Q 116.40 17.26 114.45 27.26
  L 114.46 46.50
  Q 113.93 61.25 114.46 76.00
  L 114.54 146.50
  Q 113.80 151.35 109.75 154.04
  Q 106.07 155.67 102.00 155.29
  L 96.25 155.29
  L 92.00 155.29
  L 82.25 155.29
  Q 52.75 155.22 23.25 155.21
  Q 19.70 155.21 17.00 152.96
  Q 14.00 148.78 14.00 147.25
  Q 14.00 85.03 14.00 22.82
  C 14.00 20.48 14.68 18.85 15.46 16.75
  Q 18.19 12.83 21.82 12.77
  Q 37.16 12.50 107.80 12.87
  Z
  M 30.44 40.45
  L 21.73 40.48
  A 0.41 0.40 -82.6 0 1 21.35 39.97
  C 23.19 32.58 37.96 29.31 33.77 21.22
  C 30.21 14.30 14.98 16.01 17.52 25.61
  A 0.70 0.69 83.7 0 0 18.16 26.13
  Q 21.32 26.30 20.91 23.76
  Q 20.49 21.16 23.09 20.73
  C 26.05 20.24 34.99 21.61 29.57 26.61
  C 23.86 31.89 16.98 33.97 17.22 43.26
  A 0.72 0.71 89.6 0 0 17.93 43.97
  L 33.85 43.93
  A 0.55 0.51 0.5 0 0 34.40 43.43
  L 34.44 37.81
  A 0.75 0.69 9.9 0 0 33.92 37.14
  Q 30.23 35.96 30.85 39.95
  A 0.43 0.42 85.3 0 1 30.44 40.45
  Z
  M 64.22 46.59
  Q 63.16 46.82 62.64 45.67
  A 0.92 0.76 76.8 0 0 61.95 45.15
  C 52.93 44.57 61.86 56.55 63.63 58.67
  A 0.41 0.40 -46.3 0 0 64.26 58.65
  C 66.95 55.29 73.29 46.88 67.78 45.02
  Q 65.95 44.41 64.93 45.99
  A 1.32 0.75 -69.6 0 1 64.22 46.59
  Z
  M 25.55 52.01
  C 22.60 47.58 17.92 51.43 19.39 55.59
  Q 21.03 60.27 25.59 65.61
  A 0.42 0.42 -45.8 0 0 26.24 65.60
  C 28.31 63.03 36.49 52.92 30.84 50.34
  Q 28.14 49.11 26.09 52.03
  A 0.33 0.32 46.1 0 1 25.55 52.01
  Z
  M 96.01 116.80
  C 98.03 119.11 99.81 118.16 101.61 116.23
  A 0.71 0.71 -36.5 0 1 102.77 116.40
  C 104.78 120.52 110.60 116.43 108.29 111.47
  Q 106.32 107.26 102.50 102.35
  A 0.41 0.40 46.3 0 0 101.87 102.33
  C 99.44 105.26 92.99 113.33 96.01 116.80
  Z
  M 59.94 122.81
  Q 62.09 123.76 63.68 121.56
  A 0.47 0.46 -52.2 0 1 64.34 121.47
  Q 68.99 125.29 70.05 119.24
  A 1.61 1.57 38.5 0 0 69.93 118.29
  Q 67.75 113.48 64.70 109.63
  A 0.79 0.78 -46.0 0 0 63.44 109.66
  C 61.50 112.35 54.77 120.53 59.94 122.81
  Z
  M 106.80 128.45
  C 104.27 134.01 98.31 136.22 95.58 139.31
  C 85.68 150.50 112.51 157.30 110.57 142.52
  A 0.72 0.67 -89.8 0 0 110.01 141.91
  Q 108.64 141.69 107.56 142.65
  A 1.09 0.83 70.5 0 0 107.28 143.51
  C 107.84 149.01 100.28 147.87 97.64 145.79
  A 1.41 1.27 16.2 0 1 97.15 145.00
  Q 96.72 142.60 98.80 141.03
  C 104.41 136.81 111.01 133.03 110.78 124.88
  A 0.87 0.86 89.0 0 0 109.92 124.04
  L 94.14 124.07
  A 0.54 0.52 0.5 0 0 93.60 124.58
  L 93.54 130.20
  A 0.75 0.68 10.1 0 0 94.05 130.86
  Q 97.69 132.13 97.06 128.28
  A 0.50 0.48 81.3 0 1 97.46 127.71
  Q 102.11 127.00 106.51 127.90
  A 0.40 0.39 18.0 0 1 106.80 128.45
  Z"
/>
<path fill="#f2f4f6" fill-opacity="0.973" d="
  M 15.46 16.75
  C 14.68 18.85 14.00 20.48 14.00 22.82
  Q 14.00 85.03 14.00 147.25
  Q 14.00 148.78 17.00 152.96
  Q 16.67 152.71 16.21 152.61
  L 13.54 147.71
  L 13.54 21.25
  L 14.04 19.25
  L 15.46 16.75
  Z"
/>
<path fill="#c4332c" d="
  M 30.85 39.95
  Q 30.23 35.96 33.92 37.14
  A 0.75 0.69 9.9 0 1 34.44 37.81
  L 34.40 43.43
  A 0.55 0.51 0.5 0 1 33.85 43.93
  L 17.93 43.97
  A 0.72 0.71 89.6 0 1 17.22 43.26
  C 16.98 33.97 23.86 31.89 29.57 26.61
  C 34.99 21.61 26.05 20.24 23.09 20.73
  Q 20.49 21.16 20.91 23.76
  Q 21.32 26.30 18.16 26.13
  A 0.70 0.69 83.7 0 1 17.52 25.61
  C 14.98 16.01 30.21 14.30 33.77 21.22
  C 37.96 29.31 23.19 32.58 21.35 39.97
  A 0.41 0.40 -82.6 0 0 21.73 40.48
  L 30.44 40.45
  A 0.43 0.42 85.3 0 0 30.85 39.95
  Z"
/>
<path fill="#020403" fill-opacity="0.188" d="
  M 114.54 146.50
  L 114.46 76.00
  Q 115.10 61.25 114.46 46.50
  L 114.45 27.26
  L 114.88 43.93
  Q 114.89 44.15 114.89 43.94
  L 115.06 20.21
  A 0.86 0.57 83.8 0 1 115.44 19.48
  C 115.90 19.30 115.99 19.66 115.97 20.02
  Q 115.86 22.12 117.18 23.90
  A 1.65 1.32 31.7 0 1 117.50 24.80
  Q 117.51 84.81 117.47 144.79
  C 117.47 145.91 116.40 151.98 114.54 146.50
  Z"
/>
<path fill="#020403" fill-opacity="0.188" d="
  M 13.54 21.25
  L 13.54 147.71
  Q 13.09 145.32 12.21 146.55
  A 0.72 0.55 46.4 0 0 12.29 147.32
  Q 12.69 147.85 12.46 148.49
  A 0.84 0.71 -59.0 0 0 12.59 149.29
  Q 13.69 150.44 12.28 150.02
  A 0.68 0.62 -83.1 0 1 11.83 149.39
  C 11.77 147.07 11.00 144.99 11.00 142.85
  Q 11.00 84.17 11.00 25.50
  Q 11.00 23.40 11.88 20.26
  Q 11.96 19.97 11.99 20.27
  Q 12.07 21.29 13.54 21.25
  Z"
/>
<path fill="#c4332c" d="
  M 64.93 45.99
  Q 65.95 44.41 67.78 45.02
  C 73.29 46.88 66.95 55.29 64.26 58.65
  A 0.41 0.40 -46.3 0 1 63.63 58.67
  C 61.86 56.55 52.93 44.57 61.95 45.15
  A 0.92 0.76 76.8 0 1 62.64 45.67
  Q 63.16 46.82 64.22 46.59
  A 1.32 0.75 -69.6 0 0 64.93 45.99
  Z"
/>
<path fill="#f3efed" fill-opacity="0.898" d="
  M 114.46 46.50
  Q 115.10 61.25 114.46 76.00
  Q 113.93 61.25 114.46 46.50
  Z"
/>
<path fill="#c4332c" d="
  M 26.09 52.03
  Q 28.14 49.11 30.84 50.34
  C 36.49 52.92 28.31 63.03 26.24 65.60
  A 0.42 0.42 -45.8 0 1 25.59 65.61
  Q 21.03 60.27 19.39 55.59
  C 17.92 51.43 22.60 47.58 25.55 52.01
  A 0.33 0.32 46.1 0 0 26.09 52.03
  Z"
/>
<path fill="#c4332c" d="
  M 96.01 116.80
  C 92.99 113.33 99.44 105.26 101.87 102.33
  A 0.41 0.40 46.3 0 1 102.50 102.35
  Q 106.32 107.26 108.29 111.47
  C 110.60 116.43 104.78 120.52 102.77 116.40
  A 0.71 0.71 -36.5 0 0 101.61 116.23
  C 99.81 118.16 98.03 119.11 96.01 116.80
  Z"
/>
<path fill="#c4332c" d="
  M 59.94 122.81
  C 54.77 120.53 61.50 112.35 63.44 109.66
  A 0.79 0.78 -46.0 0 1 64.70 109.63
  Q 67.75 113.48 69.93 118.29
  A 1.61 1.57 38.5 0 1 70.05 119.24
  Q 68.99 125.29 64.34 121.47
  A 0.47 0.46 -52.2 0 0 63.68 121.56
  Q 62.09 123.76 59.94 122.81
  Z"
/>
<path fill="#c4332c" d="
  M 106.51 127.90
  Q 102.11 127.00 97.46 127.71
  A 0.50 0.48 81.3 0 0 97.06 128.28
  Q 97.69 132.13 94.05 130.86
  A 0.75 0.68 10.1 0 1 93.54 130.20
  L 93.60 124.58
  A 0.54 0.52 0.5 0 1 94.14 124.07
  L 109.92 124.04
  A 0.87 0.86 89.0 0 1 110.78 124.88
  C 111.01 133.03 104.41 136.81 98.80 141.03
  Q 96.72 142.60 97.15 145.00
  A 1.41 1.27 16.2 0 0 97.64 145.79
  C 100.28 147.87 107.84 149.01 107.28 143.51
  A 1.09 0.83 70.5 0 1 107.56 142.65
  Q 108.64 141.69 110.01 141.91
  A 0.72 0.67 -89.8 0 1 110.57 142.52
  C 112.51 157.30 85.68 150.50 95.58 139.31
  C 98.31 136.22 104.27 134.01 106.80 128.45
  A 0.40 0.39 18.0 0 0 106.51 127.90
  Z"
/>
<path fill="#020403" fill-opacity="0.188" d="
  M 16.21 152.61
  Q 16.67 152.71 17.00 152.96
  Q 19.70 155.21 23.25 155.21
  Q 52.75 155.22 82.25 155.29
  Q 87.13 156.43 92.00 155.29
  L 96.25 155.29
  Q 99.12 156.24 102.00 155.29
  Q 106.07 155.67 109.75 154.04
  Q 109.57 154.32 109.58 154.57
  Q 109.59 155.26 110.13 154.71
  L 113.28 151.53
  A 0.69 0.29 -48.9 0 1 113.84 151.26
  C 115.26 151.83 109.89 155.71 109.74 155.77
  C 107.11 156.77 104.91 158.06 102.03 158.22
  C 97.25 158.48 92.48 158.78 87.65 158.75
  Q 56.73 158.54 25.80 158.58
  C 23.83 158.58 21.79 157.63 19.73 157.38
  A 0.88 0.51 3.5 0 1 18.99 156.89
  L 18.94 156.58
  A 0.43 0.33 89.8 0 0 18.67 156.23
  Q 14.89 155.50 16.21 152.61
  Z"
/>
<path fill="#121515" fill-opacity="0.906" d="
  M 82.25 155.29
  L 92.00 155.29
  Q 87.13 156.43 82.25 155.29
  Z"
/>
<path fill="#121515" fill-opacity="0.906" d="
  M 96.25 155.29
  L 102.00 155.29
  Q 99.12 156.24 96.25 155.29
  Z"
/>
</svg>
