<?xml version="1.0" encoding="utf-8"?>
<!-- Generator: Adobe Illustrator 27.0.1, SVG Export Plug-In . SVG Version: 6.00 Build 0)  -->
<svg version="1.1" id="Слой_1" xmlns="http://www.w3.org/2000/svg" xmlns:xlink="http://www.w3.org/1999/xlink" x="0px" y="0px"
	 viewBox="0 0 128 168" style="enable-background:new 0 0 128 168;" xml:space="preserve">
<style type="text/css">
	.st0{fill:#D8D8D8;}
	.st1{fill:#AAAAAA;}
	.st2{fill:#FFFFFF;}
	.st3{fill:#C4332C;}
	.st4{fill:#2E2B4D;}
	.st5{fill:#222121;}
	.st6{fill:#B3171D;}
	.st7{fill:#010001;}
	.st8{fill:#A79E2D;}
	.st9{fill:#646327;}
	.st10{fill:#9A9DB3;}
	.st11{fill:#867E28;}
	.st12{fill:#D3C531;}
	.st13{fill:#9D9D3D;}
	.st14{fill:#2D3260;}
	.st15{fill:#797228;}
	.st16{fill:#393B24;}
	.st17{fill:#4C5072;}
	.st18{fill:#C8B930;}
	.st19{fill:#161618;}
	.st20{fill:#F5E149;}
	.st21{fill:#BCBAC4;}
	.st22{fill:#E9DBC5;}
	.st23{fill:#4E4A25;}
	.st24{fill:#BBAF2E;}
	.st25{fill:#2B2727;}
	.st26{fill:#F2F3F5;fill-opacity:0.973;}
	.st27{fill:#DACB34;}
	.st28{fill:#791921;}
	.st29{fill:#686C7A;}
	.st30{fill:#3A2020;}
	.st31{fill:#92816B;}
	.st32{fill:#864E24;}
</style>
<g>
	<path class="st0" d="M106.9,161.4H19.1c-6.9,0-12.4-5.6-12.4-12.4V18.5c0-6.9,5.6-12.4,12.4-12.4h87.8c6.9,0,12.4,5.6,12.4,12.4
		V149C119.4,155.9,113.8,161.4,106.9,161.4z"/>
	<path class="st1" d="M105.9,157.6H20.1c-5.5,0-9.9-4.4-9.9-9.9V19.6c0-5.5,4.4-9.9,9.9-9.9h85.8c5.5,0,9.9,4.4,9.9,9.9v128.1
		C115.9,153.1,111.4,157.6,105.9,157.6z"/>
	<path class="st2" d="M105.6,154.5H20.4c-4.4,0-8-3.6-8-8V20.7c0-4.4,3.6-8,8-8h85.2c4.4,0,8,3.6,8,8v125.9
		C113.6,151,110,154.5,105.6,154.5z"/>
</g>
<g>
	<path class="st3" d="M31.8,21.5c-0.1,5.1-0.1,10.1-0.1,15.2c0,10.9-15.6,9.9-14.5-1.2c0-0.3,0.2-0.6,0.5-0.7c0.8-0.2,1.7-0.2,2.5,0
		c0.3,0.1,0.4,0.4,0.4,0.7c-0.8,6.3,7.4,7.4,7.5,0.9c0.1-4.9,0.1-9.7,0-14.6c0-0.4-0.2-0.6-0.5-0.7L25.9,21c-0.3,0-0.6-0.2-0.6-0.4
		c-0.2-1-0.2-1.9,0.1-2.8c0.1-0.3,0.3-0.5,0.6-0.5h7.7c0.3,0,0.6,0.2,0.7,0.5c0.9,2.3,0.2,3.4-2.1,3.4C32,21.1,31.8,21.3,31.8,21.5z
		"/>
	<path class="st4" d="M81,24c-0.9,0-1.4,0.5-1.5,1.4c-1.2-0.2-2.4,0-3.5,0.5c-0.1-0.5-0.4-0.7-1-0.5c-1.2-0.2-2.2-0.1-3.2,0.5
		c-0.4-0.6-1-0.7-1.5-0.2h-6.8l-1.2-0.2c-1.2-0.4-2.2-0.2-3,0.5l-1.5-0.5c-1.4-0.2-2.7,0-4,0.5c-0.5-0.6-1-0.7-1.5-0.3l-1.7-0.3
		c-0.7-1.4-1.7-1.6-2.8-0.5c-1.5,0-13.6,0.3-13.7-0.5c0-0.3,0.2-0.5,0.5-0.5C34.6,24,81,24,81,24z"/>
	<path class="st5" d="M81,24c6.8,0.1,13.5,0,20.2-0.1c1.3,0,1.6,0.6,1,1.8l-0.8,0.2c0-0.4,0-1-0.6-1H89c-0.3,0-0.6,0.2-0.8,0.4
		l-6.1,8.3C82,34.4,82,37.2,82,38c-0.9-0.2-1.3-0.8-1-1.8c0.1-0.3,0-0.7-0.2-0.8c-0.5-0.3-0.7,0-0.6,0.8c0.2,1.8,1,3.2,2.3,4.3
		c0.3,2.2,1,4.3,2.1,6.6c0.2,0.4,0.6,0.6,1.1,0.6c1.8-0.2,3-0.1,3.7,0.3L89,48.7c-1.7-1.1-2.7-0.8-2.9,1c-0.9,0.4-1,0.9-0.3,1.5
		h-0.5c-0.7-0.1-1.1-0.4-1.2-1C83,49.5,83,48.9,84,48.4c0.1,0.8,0.4,1.1,0.7,0.9c0.2-0.2,0.2-0.5,0.1-0.8c-2.4-4-4.2-8.2-5.6-12.7
		c-0.2-0.7-0.6-1-1.2-0.9c-0.3,0.1-0.4,0.4-0.3,0.7c0.6,2,3.6,7.4,3.4,9l-0.6,0.2c-1-2.3-4-10.4-4.9-10.5c-0.3,0-0.4,0.3-0.4,0.5
		c0.8,3,2.1,5.8,3.7,8.4c0.2,0.3,0.2,0.6,0,0.8L75,49.7c-0.6,0.2-1,0.5-1.3,1c-0.4,0.7-0.5-0.4-0.4-0.7c2-1.6,3.5-3.5,4.6-5.8
		c0.1-0.3,0.1-0.6-0.1-0.9c0,0.3-5.1-12-5-8.4L75,41h-0.7l-2.8-6.3c-0.2-0.4-0.4-0.6-0.6-0.7c-1.6-0.4,2.7,7.9,2.9,8.5L73.5,43
		c-0.4-0.1-0.6-0.4-0.6-0.8c0.1-0.3,0-0.6-0.2-0.8c-0.8-0.9-1.4-1.9-1.8-3.1c-0.1-0.3-0.3-0.6-0.6-0.5c-0.2,0-0.4,0.2-0.4,0.4
		c0,0.4,0.9,2.3,1.1,2.7c-1.2,0.6-1.4,1.3-0.6,2.2c0.2,0.2,0.3,0.5,0.1,0.8c-2,3.5-4.9,5.8-8.8,6.8c2.4-1.3,4.4-2.9,6.1-4.9
		c0.2-0.3,0.3-0.6,0.1-0.8L67,43.8c-0.8-1.3,0.6-0.5,1.2,0.3c0.4,0.4,0.7,0.3,0.8-0.3c0.7-3.4,0.5-6.6-0.6-9.5
		c-0.1-0.3-0.4-0.5-0.7-0.5L59,33.6c-1.1-0.4-2.1-0.3-3,0.2c-2.6-0.6-0.7,2.7-1.4,4.1C54,39,51.2,42.8,53,43.6v0.5
		c-1.1,0-1.8-0.9-1.2-1.9l2.4-4.9c0.5-1.1,0.4-2.3-0.5-3.5l-6-8.8c1.1-1.1,2.1-1,2.8,0.5c-0.2,0.1-0.7,0.4-0.5,0.7
		c0.9,2,2.2,3.6,3.9,5.1c0.2,0.2,0.6,0.3,0.9,0.3c8.7-0.6,17.4-0.1,26,1.5c0.3,0.1,0.6-0.1,0.8-0.3l5.2-6.9c0.7-1-2.6-0.4-2.9-0.2
		h-1.5l-2.8-0.3C79.6,24.5,80.1,24,81,24z"/>
	<path class="st2" d="M101.5,26l-0.1,1.5c0,0.2-0.2,0.5-0.5,0.8l-5.1,4.1c-0.4,0.3-0.6,2-0.8,2.5c-0.1,0.3-0.4,0.3-0.6,0.2
		c-1.7-1.2-2.8-3.2-3.3-6c-0.1-0.7-0.4-0.8-0.9-0.2c-4.8,5.9-4.6,11.9,0.5,18c0.4,0.5,0.7,0.4,0.7-0.2c0.3-2.1,1.2-3.9,2.8-5.4
		c0.7-0.7,1.1-0.5,1.1,0.5v14.4l-3.6-1.8c-0.7-0.4-1.1-1.3-1-2.4c0.2-2.4-0.2-3.6-1.3-3.9c-0.7-0.5-1.9-0.6-3.7-0.3
		c-0.4,0.1-0.9-0.2-1.1-0.6c-1.1-2.2-1.8-4.4-2.1-6.6L82,38v-3.3c0-0.3,0.1-0.7,0.3-0.9l6.1-8.3c0.2-0.3,0.5-0.4,0.8-0.4H101
		C101.5,25,101.5,25.6,101.5,26z"/>
	<path class="st6" d="M62.2,25.5c-0.1,1.2,0.2,2.4,0.9,3.4c0.2,0.3,0.5,0.5,0.8,0.5h6.5c0.3,0,0.5-0.2,0.6-0.5l0.8-2.9
		c1-0.5,2.1-0.7,3.2-0.5c-0.7,1.2-1,2.4-0.9,3.8c0,0.3,0.2,0.6,0.5,0.6l5.1,0.8c0.3,0,0.7-0.1,0.8-0.3l3.3-4.6
		c0.5-0.2,3.6-0.7,2.9,0.2l-5.2,6.9c-0.2,0.2-0.5,0.4-0.8,0.3c-8.6-1.6-17.3-2.2-26-1.5c-0.3,0-0.6-0.1-0.9-0.3
		c-1.7-1.4-3-3.1-3.9-5.1c-0.2-0.3,0.3-0.6,0.5-0.7l1.7,0.3c1.2,3.9,3.6,5.1,7.4,3.5c0.3-0.1,0.5-0.4,0.4-0.7L59.2,26
		C60.1,25.3,61.1,25.1,62.2,25.5z"/>
	<path class="st2" d="M53.8,26c0.7,1.9,2,2.7,3.9,2.5c0.3,0,0.5-0.3,0.6-0.6c0-0.8-0.1-1.6-0.5-2.4l1.5,0.5l0.8,2.5
		c0.1,0.3-0.1,0.6-0.4,0.7c-3.8,1.5-6.2,0.4-7.4-3.5C52.8,25.3,53.3,25.4,53.8,26z"/>
	<path class="st6" d="M57.8,25.5c0.4,0.8,0.5,1.6,0.5,2.4c0,0.3-0.2,0.5-0.6,0.6c-1.9,0.2-3.2-0.6-3.9-2.5
		C55,25.6,56.4,25.4,57.8,25.5z"/>
	<path class="st2" d="M62.2,25.5l1.2,0.2c0.1,1,0.4,2.2,1.6,2.3l4.2,0.2c0.3,0,0.6-0.1,0.6-0.4l0.4-2.2c0.6-0.5,1.1-0.4,1.5,0.2
		L71,28.9c-0.1,0.3-0.3,0.5-0.6,0.5h-6.5c-0.3,0-0.6-0.2-0.8-0.5C62.5,27.9,62.2,26.8,62.2,25.5z"/>
	<path class="st6" d="M70.2,25.8L69.8,28c0,0.2-0.3,0.4-0.6,0.4L65,28.2c-1.2-0.1-1.4-1.3-1.6-2.3h6.8V25.8z"/>
	<path class="st2" d="M75,25.5c0.6-0.2,0.9-0.1,1,0.5l-0.5,2.2c-0.1,0.3,0.1,0.6,0.4,0.6l3.2,0.6c0.3,0,0.6-0.1,0.8-0.4l2.3-3.3h1.5
		l-3.3,4.6c-0.2,0.3-0.5,0.4-0.8,0.3l-5.1-0.8C73.3,29.6,74.5,26.3,75,25.5z"/>
	<path class="st6" d="M79.5,25.5l2.8,0.3L80,29c-0.2,0.3-0.5,0.4-0.8,0.4L76,28.9c-0.3-0.1-0.4-0.3-0.4-0.6l0.5-2.2
		C77.1,25.5,78.3,25.3,79.5,25.5z"/>
	<path class="st7" d="M102.3,25.7v36.8L102,63c-0.7,0.2-1.2,0.1-1.5-0.5l0.1-0.2c0.3-0.3,0.7-0.7,0.4-1l0,0L99.2,60
		c-1-0.4-2.2-0.8-2.5-2v-1c0.4-7.4,0.4-14.8,0-22.3c0-0.3,0.1-0.7,0.2-0.9c0.7-1.1,4.6-3.8,4.6-4.1c0.1-0.4-0.1-0.5-0.5-0.3
		c-1.8,0.9-3.4,2.1-4.6,3.7c-0.3,0.3-0.4,0.7-0.4,1.2l-0.1,21l-0.8,0.8V41.7c0-1-0.4-1.2-1.1-0.5c-1.6,1.4-2.5,3.2-2.8,5.4
		c-0.1,0.6-0.3,0.7-0.7,0.2c-5.1-6.1-5.3-12.1-0.5-18c0.5-0.6,0.8-0.5,0.9,0.2c0.5,2.8,1.6,4.8,3.3,6c0.2,0.2,0.6,0.1,0.6-0.2
		c0.2-0.5,0.4-2.2,0.8-2.5l5.1-4.1c0.3-0.3,0.5-0.5,0.5-0.8l0.1-1.5L102.3,25.7z M88.8,32.7C88,34,87.6,35.4,87.5,37
		c0,0.2,0.3,0.4,0.5,0.3c1.7-0.7,2.2-2.1,1.3-4.1c0.1-0.1,0.2-0.2,0.2-0.3c0.1-0.2,0.2-0.4,0.4-0.4c0.9-0.1,1.1-0.5,0.6-1.2
		c-0.1-0.2-0.5-0.2-0.6,0L88.8,32.7z M93.5,35.6c-1.4-0.9-2.4-0.9-3,0c-0.1,0.2,0,0.5,0.3,0.5l2.6,0.1
		C94.1,36.3,94.2,36.1,93.5,35.6z M91.8,41.5c-0.5,2.3-0.2,2.3,0.8,0c0.5-0.4,2.5-1.6,2.7-2.2c0.4-1,0.3-2.4-0.9-2.6
		c-0.2,0-8.1-0.2-4.7,1.9c1,0.7,2,0.5,3.2,0.7c0.8,0.1,1.2,1,0,0.8C90.2,39.7,89.9,40.2,91.8,41.5z M89.4,40.1
		c-4.5-5.2,1.3,10.4,0.4,0.9C89.8,40.7,89.6,40.4,89.4,40.1z"/>
	<path class="st8" d="M96.7,57c-0.8-0.2-1-0.8-0.8-1.8l0.1-21c0-0.4,0.1-0.8,0.4-1.2c1.2-1.5,2.7-2.7,4.6-3.7
		c0.4-0.2,0.6-0.1,0.5,0.3c-0.1,0.3-3.9,3-4.6,4.1c-0.2,0.3-0.3,0.6-0.2,0.9C97.1,42.2,97.1,49.6,96.7,57z"/>
	<path class="st9" d="M89.3,33.2l-0.5-0.5l1.2-1.4c0.2-0.2,0.5-0.2,0.6,0c0.5,0.7,0.3,1.1-0.6,1.2C89.7,32.5,89.6,33.2,89.3,33.2z"
		/>
	<path class="st2" d="M88.8,32.7l0.5,0.5c0.9,2,0.4,3.3-1.3,4.1c-0.2,0.1-0.4,0-0.5-0.2C87.4,35.6,87.9,34.1,88.8,32.7z"/>
	<path class="st10" d="M59.2,33.5c-0.3,0.7-0.1,1.2,0.8,1.4c-0.4,0.6-0.1,1,0.8,1c-0.6,0.1-0.9,0.4-0.8,1c-0.6-0.1-1.1-0.1-1.6,0.2
		c-0.3,0.1-0.6,0.2-0.8,0l-0.7-0.4c-0.5-0.9-0.7-1.9-0.5-3C57.2,33.3,58.2,33.2,59.2,33.5z"/>
	<path class="st2" d="M59.2,33.5l8.7,0.2c0.3,0,0.6,0.2,0.7,0.5c1.1,2.9,1.3,6.1,0.6,9.5c-0.1,0.6-0.4,0.6-0.8,0.2
		c-0.7-0.7-2.1-1.5-1.2-0.2l0.9,1.2c0.2,0.2,0.1,0.6-0.1,0.8c-1.7,2-3.7,3.6-6.1,4.9c-1.7,0.6-3.3,0.6-4.8,0l0.5-1.3
		c0.1-0.3,0-0.4-0.3-0.3c-0.8,0.3-1.2,0-1.2-0.7c0-0.3,0.2-0.6,0.5-0.6l1.5,0.1c0.3,0,0.5-0.2,0.5-0.4c-0.1-0.9-0.7-1.2-1.9-1
		c-0.3,0.1-0.6,0-0.8-0.3c-1.4-1.9-1.2-2.8,0.8-2.5c0.3,0,0.5,0.2,0.6,0.5c1,2.9,6.1,2.8,4.7,0c-0.1-0.3-0.4-0.5-0.7-0.6
		c-0.9-0.2-1.1,0.4-0.6,1.8c0.2,0.5,0.1,0.6-0.4,0.3l-2.1-1.4c-0.3-0.2-0.4-0.5-0.4-0.8c0.2-2.7-0.1-3-0.7-1
		c-0.1,0.3-0.4,0.4-0.6,0.3c-0.2-0.1-2.7-1.2-2.3-0.2c0.1,0.3,0,0.5-0.2,0.6c-0.3,0.1-0.5,0.1-0.8,0.1c-1.8-0.8,1-4.5,1.6-5.7
		c0.7-1.4-1.2-4.7,1.4-4.1c-0.2,1.1,0,2.1,0.5,3c-0.5,0.5-0.5,0.9,0,1.2c0.3,0.1,0.4,0.4,0.4,0.6c-0.1,0.9,0.2,1.5,0.9,2
		c0.2,0.1,0.5,0.1,0.8,0l2.3-1.2c1.3-0.7,0.5-2.3-1.2-2.3c-0.1-0.6,0.1-0.9,0.8-1c0.5,0,1,0.2,1.5,0.6c0.2,0.2,0.5,0.2,0.6,0.2
		c1-0.5-2.6-1.7-2.8-1.7C59.2,34.7,58.9,34.3,59.2,33.5z"/>
	<path class="st11" d="M74.3,41c1,1.1,1.6,2.5,1.7,4c-0.5-0.1-3.9,4.2-4.8,5c-0.3,0.2-0.3,0.4,0.1,0.5c0.8,0.2,1.4-0.2,1.7-1.2
		l0.3,0.8c-0.1,0.3,0,1.4,0.4,0.7c0.3-0.5,0.7-0.8,1.3-1l0.3,0.3c-0.6,1.1-0.4,1.3,0.6,0.8c2-1.1,3.4-3.1,4.2-5.8l0.4-0.1l0.6-0.2
		l0.5,0.5L81,46.7l-0.5,0.5l-2.2,3c-0.6,0.7,0.8,0.4,1,0c0.2-0.1,0.4-0.1,0.6,0.1c0,0,2.2,2.9,2.3,3c-0.1,0.8-0.4,1.1-1.1,0.8
		c-0.9-1.3-2.2-1.7-3.9-1.1c-1.2-0.2-2.3-0.1-3.5,0.2c-1.1-0.3-2.3-0.4-3.5,0c-1.1-0.6-2.2-0.5-3,0.5c-1.7-1.1-2.9-0.9-3.5,0.8h-0.4
		c-1.8-0.9-3.7-1.4-5.7-1.7c-0.4-0.1-0.5,0.2-0.6,0.4l-1.7-0.5l1-0.8c0.7,0,1-0.3,0.7-1l0.1-0.2c1.5,0.6,3.1,0.6,4.8,0
		c3.9-1,6.9-3.3,8.8-6.8c0.1-0.2,0.1-0.5-0.1-0.8c-0.8-0.9-0.7-1.6,0.6-2.2l0.4,0.5c-0.7,0.7-0.6,1.3,0.2,1.8
		c0.2,0.2,0.3,0.5,0.2,0.7c-1.6,2.5-3.7,4.6-6.4,6.5C65,50.8,65.5,51.3,66,51l1.6-1.1l0.8,0.3c-0.1,0.6,0.4,0.6,0.8,0.2
		c0.3-0.4,0.7-0.5,1.2-0.4c0.2,0,0.2,0,0.1-0.1c-0.1-0.2-0.3-0.6,0-0.8c1.6-1.5,6.3-5.4,4-5.9L74,42.4c-0.3-0.6-4.5-8.8-2.9-8.5
		c0.2,0.1,0.5,0.3,0.6,0.7L74.3,41z"/>
	<path class="st12" d="M73.2,50L73,49.2c1.4-1.1,2.4-2.6,3-4.2c0.8-0.2,1.3-1,0.7-1.7L75,40.9l-2.2-6.1c-0.1-3.6,5.1,8.8,5,8.4
		c0.2,0.3,0.2,0.6,0,0.9C76.8,46.5,75.2,48.5,73.2,50z"/>
	<path class="st12" d="M80.4,44.9L80,45c-0.2,0-0.5-0.1-0.6,0.2c-0.9,2-2.3,3.6-4.2,4.8L75,49.7l3.9-5.6c0.2-0.2,0.1-0.6,0-0.8
		c-1.6-2.6-2.8-5.4-3.7-8.4c-0.1-0.3,0.1-0.5,0.4-0.5C76.4,34.5,79.4,42.6,80.4,44.9z"/>
	<path class="st13" d="M93.5,35.6c0.7,0.4,0.7,0.7-0.1,0.6l-2.6-0.1c-0.3,0-0.4-0.3-0.3-0.5C91.1,34.7,92,34.7,93.5,35.6z"/>
	<path class="st14" d="M60,35c0.3,0,3.9,1.2,2.8,1.7c-0.2,0.1-0.4,0-0.6-0.2c-0.4-0.3-0.9-0.5-1.5-0.6C59.9,35.9,59.6,35.6,60,35z"
		/>
	<path class="st12" d="M84,48.5L83,48l-1.5-2.8L81,44.7c0.2-1.6-2.8-7-3.4-9c-0.1-0.3,0-0.6,0.3-0.7c0.6-0.2,1,0.1,1.2,0.9
		c1.4,4.5,3.2,8.7,5.6,12.7c0.2,0.3,0.2,0.6-0.1,0.8C84.3,49.6,84.1,49.3,84,48.5z"/>
	<path class="st9" d="M82,38l0.5,2.5c-1.4-1-2.2-2.5-2.3-4.3c-0.1-0.8,0.1-1.1,0.6-0.8c0.2,0.1,0.3,0.4,0.2,0.8
		C80.7,37.2,81,37.8,82,38z"/>
	<path class="st4" d="M56.8,36.7l0.7,0.4c0.2,0.1,0.6,0.1,0.8,0c0.5-0.3,1.1-0.3,1.6-0.2c1.7,0,2.5,1.5,1.2,2.3l-2.3,1.2
		c-0.3,0.2-0.6,0.2-0.8,0c-0.7-0.5-0.9-1.1-0.9-2c0-0.3-0.1-0.5-0.4-0.6C56.2,37.7,56.2,37.3,56.8,36.7z M59.7,39.1
		c3.3,0.3-1.3-2.8-0.7-0.5C59.1,38.9,59.4,39.1,59.7,39.1z"/>
	<path class="st15" d="M92.5,41.5h-0.8c-1.9-1.4-1.5-1.8,1-1.3c1.2,0.2,0.7-0.7,0-0.8c-1.2-0.2-2.2,0-3.2-0.7
		c-3.4-2.2,4.5-1.9,4.7-1.9c1.5,0.1,1.5,2.6,0.3,3.3C94.6,40.1,92.5,41.5,92.5,41.5z"/>
	<path class="st2" d="M59,38.6c-0.6-2.2,4,0.8,0.7,0.5C59.4,39.1,59.1,38.9,59,38.6z"/>
	<path class="st8" d="M73.5,43L73,43.5c-0.7-0.5-1.3-1.1-1.6-2L71,41c-0.2-0.5-1.1-2.3-1.1-2.7c0.2-0.7,0.8-0.4,1,0.1
		c0.3,1.2,0.9,2.2,1.8,3.1c0.2,0.2,0.3,0.5,0.2,0.8C72.9,42.6,73.1,42.9,73.5,43z"/>
	<path class="st2" d="M89.8,41c1,9.5-4.9-6.1-0.4-0.9C89.6,40.4,89.8,40.7,89.8,41z"/>
	<path class="st16" d="M74.3,41H75l1.7,2.4c0.5,0.7,0,1.5-0.7,1.7C75.9,43.5,75.3,42.1,74.3,41z"/>
	<path class="st17" d="M57,50.7V51c-1.4-0.1-1.6,0.2-0.7,1l-1,0.8c-3.8-4.7-4.6,1.7-3.8,2L51,55.5h-0.7v-0.8
		c0.2-0.6,0.8-3.1,1.1-3.5c0.8-0.9,1.9-1.1,3.2-0.9c0.3,0.1,0.5-0.1,0.6-0.4c0.3-1.3-0.4-2.2-0.4-3.4c0.2-1.2-0.4-2.1-1.6-2.5v-0.5
		c0.5,0,1.2,0,1-0.7c-0.4-1.1,2.1,0.1,2.3,0.2c0.2,0.1,0.5-0.1,0.6-0.3c0.6-2,0.9-1.7,0.7,1c0,0.3,0.1,0.6,0.4,0.8l2.1,1.4
		c0.4,0.3,0.6,0.2,0.4-0.3c-0.5-1.4-0.3-1.9,0.6-1.8c0.3,0.1,0.6,0.3,0.7,0.6c1.3,2.8-3.7,2.9-4.7,0c-0.1-0.3-0.4-0.5-0.6-0.5
		c-2-0.2-2.2,0.7-0.8,2.5c0.2,0.2,0.5,0.3,0.8,0.3c1.1-0.3,1.7,0,1.9,1c0,0.2-0.3,0.4-0.5,0.4L56.5,48c-0.3,0-0.5,0.3-0.5,0.6
		c0,0.7,0.4,0.9,1.2,0.7c0.3-0.1,0.4,0,0.3,0.3L57,50.7z"/>
	<path class="st5" d="M71.5,41.5c0.3,0.9,0.8,1.5,1.6,2c-1.5,2.5-3.3,4.7-5.6,6.5l-1.6,1.1c-0.5,0.3-1-0.2-0.4-0.6
		c2.7-1.9,4.9-4,6.4-6.5c0.1-0.2,0.1-0.5-0.2-0.7C70.9,42.8,70.8,42.2,71.5,41.5z"/>
	<path class="st9" d="M91.8,41.5h0.8C91.5,43.8,91.3,43.8,91.8,41.5z"/>
	<path class="st18" d="M73.8,42.5l0.5,0.8c-1.5,2.8-3.5,5.1-6,7L67.5,50c2.3-1.8,4.1-4,5.6-6.5l0.5-0.5L73.8,42.5z"/>
	<path class="st16" d="M74.3,43.2c2.3,0.5-2.4,4.4-4,5.9c-0.3,0.3-0.1,0.5,0,0.8c0.1,0.1,0,0.2-0.1,0.1c-0.4-0.1-0.8,0-1.2,0.4
		c-0.3,0.4-0.9,0.4-0.8-0.2C70.8,48.3,72.8,46,74.3,43.2z"/>
	<path class="st16" d="M76,45c-0.6,1.7-1.7,3.1-3,4.2c-0.4,1-0.9,1.4-1.7,1.2c-0.3-0.1-0.4-0.2-0.1-0.5C72.1,49.2,75.5,44.9,76,45z"
		/>
	<path class="st16" d="M80,45c-0.8,2.7-2.2,4.6-4.2,5.8c-0.9,0.5-1.1,0.3-0.6-0.8c1.8-1.2,3.2-2.8,4.2-4.8C79.5,44.9,79.8,45,80,45z
		"/>
	<path class="st19" d="M81.5,45.2L83,48c-0.8-0.2-1.5-0.6-2-1.2L81.5,45.2z"/>
	<path class="st13" d="M81,46.7c0.6,0.6,1.3,1,2,1.2l1,0.5c-1.1,0.4-1,1,0.1,1.8L83.8,51l-3.2-3.8L81,46.7z"/>
	<path class="st5" d="M80.5,47.2l3.2,3.8l0.5,1.2c-1-0.5-3.4-3.5-3.9-3.2c-0.2,0.1-0.2,0.5,0,0.8c2.4,2.8,4.7,5.3,8.4,3.7
		c1-1,2.2-4.5,0.2-4.8l0.3-0.8c1.1,0.2,1.5,1.5,1.3,3.9c-0.1,1.1,0.3,2.1,1,2.4l3.6,1.8l0.8-0.8c-0.3,1,0,1.6,0.8,1.8v1l-1,1.1l-1-1
		c-0.3-1.5-1.1-1.9-2.5-1.3c-0.5-1.8-1.1-1.9-2-0.2l-0.6,0.8c-0.6,0.2-0.9,0.6-1,1.2L88,59.7c-1.9,1.4-3.6,3.2-4.5,5.5
		c-0.5,0.1-0.8,0.4-0.9,0.8c-0.1,0.3,0,0.6,0.2,0.9c6.1,7.9,5.6,19.8-2.6,26.2c-0.9-0.4-0.9-1.1-0.3-1.8c6.4-7.5,6.9-15.4,1.5-23.6
		c-0.4-0.6-0.8-0.6-1.2-0.1l-0.5,0.8l-1.2-0.8l0.5-0.8c2.8-0.9,3.7-2.7,2.6-5.3c-0.4-0.8,0.3-1.3,0.7-2.1c0.1-0.2,0.5-0.4,0.8-0.3
		c2.6,0.2,4.2-0.9,4.8-3.3c0.1-0.3-0.1-0.5-0.4-0.5c-1.1,0-1.5,0.4-1.2,1.2c0.2,0.6-0.1,1.2-0.7,1.4c-4,0.1-5.8,1.5-4.6,5.1
		c0.5,1.7-0.1,2.5-1.8,2.5c-3.4,0-4.8,1.8-4.2,5.5c0.1,0.4-0.1,0.7-0.3,0.8l-3.3,1.7c-1.2,0.6-1.3,1.2-1.7,2.2L67.5,76
		C67.3,74.8,81.2,57.5,83,55.2c0.2-0.3,0.3-0.6,0.2-0.9c-0.2-0.5-0.5-0.8-0.9-1l-2.2-3c-0.4-0.5-0.9,0.4-1.5,0.3
		c-0.3,0-0.3-0.1-0.1-0.4L80.5,47.2z M85.7,55.8c-0.1-0.5-0.7-0.7-1.4-0.5l0,0c-0.6,0.2-1,0.7-0.9,1.2l0,0c0.1,0.5,0.7,0.7,1.4,0.5
		l0,0C85.5,56.8,85.8,56.3,85.7,55.8L85.7,55.8z M83.4,62c0.9,0.3,1.4-0.8,0.7-1.3c-1-0.6-1.4-0.4-1.2,0.6
		C82.9,61.6,83.1,61.9,83.4,62z M79.6,62.7c-0.8-0.8-2.4,0.6-1.6,1.5l0,0C78.7,65,80.3,63.5,79.6,62.7L79.6,62.7z M72.3,70.6
		c1.2,2.5,2.8-1.1,0.7-1.1C72.5,69.5,72.1,70.1,72.3,70.6z"/>
	<path class="st20" d="M89,48.7c2,0.3,0.8,3.8-0.2,4.8l-0.1-1v-2.7c0-0.3-0.3-0.6-0.6-0.6c-0.8-0.2-1.3,0.4-0.6,0.9
		c1.9,0.9-0.6,3.4-1.5,1.2c1-0.6,1-1.1,0.1-1.5C86.3,48,87.2,47.6,89,48.7z"/>
	<path class="st12" d="M84.2,52.2l0.3,0.2c1.4,0.7,2.8,0.7,4.2,0l0.1,1c-3.7,1.6-6-0.9-8.4-3.7c-0.2-0.3-0.3-0.6,0-0.8
		C80.8,48.8,83.2,51.8,84.2,52.2z"/>
	<path class="st7" d="M88.7,52.5c-1.4,0.7-2.8,0.7-4.2,0l0.8-1.2c0.1,0,0.6,0,0.7,0c0.9,2.2,3.3-0.2,1.5-1.2
		c-0.3-0.1-0.5-0.4-0.4-0.6c0.1-0.3,0.4-0.4,0.9-0.3c0.3,0,0.6,0.3,0.6,0.6L88.7,52.5z"/>
	<path class="st3" d="M26.1,52c1.1-1.6,2.7-2.3,4.7-1.9c0.3,0.1,0.6,0.2,0.8,0.5c3.7,4.7-3.1,12.2-5.3,15c-0.2,0.2-0.5,0.2-0.6,0
		c-2.2-2.7-6.7-8.5-6.4-12c0.2-3.7,4-4.9,6.4-1.6C25.7,52.2,26,52.2,26.1,52z"/>
	<path class="st11" d="M86,49.7c0.9,0.4,0.9,0.9-0.1,1.5h-0.2C85,50.6,85.1,50.2,86,49.7z"/>
	<path class="st11" d="M84,50.2c0.1,0.6,0.6,0.9,1.2,1l-0.8,1.2l-0.3-0.2L83.8,51L84,50.2z"/>
	<path class="st21" d="M55.2,52.8l1.7,0.5L56.8,56c-0.6-0.2-0.9-0.6-0.9-1.2c0-1.4-2-0.9-2.9-1c0.2-0.7-0.7-1.4-0.7-0.5
		c0,0.7-0.2,1.2-0.9,1.5C50.6,54.5,51.4,48.1,55.2,52.8z"/>
	<path class="st22" d="M57,51c0.3,0.7,0,1.1-0.7,1C55.4,51.2,55.6,50.9,57,51z"/>
	<path class="st23" d="M34,57.5h-0.5l1-3.7c0.1-0.3,0.3-0.6,0.5-0.6c0.6-0.1,6.6,0,6.9-0.3l1.9-1.2c0.2-0.1,0.4,0,0.5,0.2
		C45.2,59.6,35.2,55.5,34,57.5z M41,54.9c-0.4-0.5-0.8-0.7-1.3-0.5c-0.3,0.2-0.3,0.4,0,0.6c1.6,1.1,2.7,0.8,3.4-1
		c0.2-0.6,0.1-0.7-0.3-0.5c-0.3,0.2-0.7,0.6-1.2,1.4C41.5,55.1,41.2,55.1,41,54.9z"/>
	<path class="st19" d="M53,53.7c0.5,1,1.8,2.9,3.8,5.7c2.8,3.9,5,9.3,6.4,16.3c-1.4,0.7-2.9,0.6-4.2-0.2c-0.3-0.9,0.3-1.4,1-0.8
		c0.8,0.7,1.4,0.6,1.7-0.2c0.2-0.5-0.9-0.8-1.2-0.9c-0.2-0.1-0.4-0.4-0.3-0.8c0.7-2.8-0.3-4.8-2.9-6c-0.3-0.1-0.6-0.4-0.7-0.7
		c-0.5-1.3-0.6-2.7-0.1-4.1c0.5-1.5,0-2.6-1.5-3.1l-3.3-1.2c-0.3-0.1-0.6-0.4-0.6-0.7L51,55.5l0.5-0.7c0.6-0.3,0.9-0.8,0.9-1.5
		C52.3,52.3,53.2,53,53,53.7z M52,56.4c0.1,0.7,1.3,0.8,1.2,0C53.2,55.2,51.8,55.5,52,56.4z M57.9,64.7c-1,0.7-0.8,1,0.4,1.1
		C59.5,65.7,59.1,64,57.9,64.7z"/>
	<path class="st23" d="M63.3,54.5c-0.3,0.3-0.6,0.5-1.2,0.4c-1.5-0.3-1.9,0-0.9,0.7c0.2,0.2,0.5,0.2,0.9,0.2l2-0.1
		c1.1,0.5,2.1,0.5,3-0.2c1.2,0.7,2.3,0.6,3.5,0c1.1,0.4,2.3,0.4,3.5,0c1,0.7,2.1,0.7,3.1,0l2,1L78,58.4c-6.5-0.3-12.9-0.3-19.3-0.1
		c-1.1,0-1.7-0.7-1.8-2.3l0.2-2.8c0.1-0.2,0.3-0.5,0.6-0.4C59.6,53.1,61.5,53.6,63.3,54.5z M58.8,54.1c-1.1-0.2-0.9,1.2,0,1.1
		c0.6,0,0.9-0.2,0.8-0.6C59.5,54.3,59.2,54.1,58.8,54.1z"/>
	<path class="st24" d="M70.3,53.2v1.5h-0.5c-0.7-0.6-1.5-0.9-2.5-1C68.1,52.8,69.2,52.6,70.3,53.2z"/>
	<path class="st24" d="M77.2,53c-0.4,0.8-0.5,1.6-0.2,2.5c-1,0.7-2.1,0.7-3.1,0c0.4-0.8,0.3-1.5-0.2-2.2
		C74.9,52.9,76.1,52.8,77.2,53z M75.4,54c-0.5-0.1-0.8,0.3-0.4,0.7c0.6,0.6,1.1,0.7,0.9-0.2C75.9,54.3,75.7,54.1,75.4,54z"/>
	<path class="st7" d="M73.8,53.3c0.5,0.7,0.6,1.4,0.2,2.2c-1.2,0.4-2.3,0.4-3.5,0l-0.2-0.8v-1.5C71.5,52.9,72.6,52.9,73.8,53.3z
		 M73.1,54.1c-0.1-0.6-1.1-0.5-1.3,0.1c-0.3,0.8-0.1,1,0.8,0.6C72.9,54.6,73.1,54.3,73.1,54.1z"/>
	<path class="st19" d="M77.2,53c1.7-0.6,3-0.2,3.9,1.1c-0.6,1-1.3,1.8-2.1,2.4l-2-1C76.7,54.7,76.8,53.9,77.2,53z M78.1,54.5
		c-0.4,1,1.3,1,1.6,0.2c0.4-0.6,0.1-0.9-0.9-0.8C78.5,54,78.2,54.2,78.1,54.5z"/>
	<path class="st8" d="M41,54.9c0.1,0.2,0.4,0.2,0.6,0c0.5-0.8,0.9-1.2,1.2-1.4c0.4-0.2,0.5-0.1,0.3,0.5c-0.7,1.8-1.8,2.1-3.4,1
		c-0.3-0.2-0.3-0.4,0-0.6C40.2,54.2,40.6,54.3,41,54.9z"/>
	<path class="st19" d="M67.2,53.7v0.5c-0.6,0.3-0.7,0.8-0.2,1.3c-0.9,0.7-1.9,0.7-3,0.2l-0.3-1.2C64.4,52.9,65.6,52.6,67.2,53.7z
		 M65.1,54.2c-0.3,0.6-0.1,0.9,0.6,0.8c0.6-0.1,0.6-0.9,0.1-1.1C65.5,53.8,65.2,53.9,65.1,54.2z"/>
	<path class="st6" d="M82.2,53.3c0.5,0.2,0.8,0.5,0.9,1c0.1,0.3,0,0.6-0.2,0.9C81.2,57.5,67.3,74.8,67.5,76h-2.8l13.1-17.6l1.2-1.9
		c0.8-0.5,1.5-1.3,2.1-2.4C81.8,54.4,82.2,54.1,82.2,53.3z"/>
	<path class="st8" d="M53,53.7h1c0,0.2,0,0.5,0.2,0.6c5.2,6.2,8.4,13.2,9.6,21.3h-0.5c-1.5-6.9-3.6-12.4-6.4-16.3
		C54.8,56.7,53.5,54.8,53,53.7z"/>
	<path class="st14" d="M54,53.8c3-0.1,1,1.5,2.8,2.2c0.1,1.6,0.7,2.3,1.8,2.3c6.4-0.2,12.8-0.2,19.3,0.1L64.8,76l-1-0.2
		c-1.2-8-4.4-15.1-9.6-21.3C54,54.3,54,54,54,53.8z"/>
	<path class="st18" d="M65.8,53.9c0.5,0.2,0.6,1,0,1.1c-0.7,0.1-1-0.1-0.7-0.8C65.2,53.9,65.5,53.8,65.8,53.9z"/>
	<path class="st7" d="M67.2,53.7c1,0.1,1.8,0.4,2.5,1c-0.9,0.4-1.8,0.2-2.5-0.5V53.7z"/>
	<path class="st12" d="M72.6,54.8c-0.9,0.4-1.2,0.2-0.8-0.6c0.2-0.6,1.2-0.8,1.3-0.1C73.1,54.3,72.9,54.6,72.6,54.8z"/>
	<path class="st24" d="M59.6,54.6c0.3,0.6-1.3,0.8-1.4,0.1C57.8,53.8,59.4,54,59.6,54.6z"/>
	<path class="st19" d="M75.9,54.6c0.1,0.7-0.1,0.8-0.8,0.2c-0.2-0.2-0.3-0.5-0.2-0.7C75.3,53.8,75.8,54.1,75.9,54.6z"/>
	<path class="st24" d="M78.8,54c1-0.1,1.3,0.1,0.9,0.8c-0.3,0.7-2,0.7-1.6-0.2C78.2,54.2,78.5,54,78.8,54z"/>
	<path class="st8" d="M67.2,54.2c0.7,0.7,1.6,0.9,2.5,0.5h0.5l0.2,0.8c-1.1,0.7-2.3,0.7-3.5,0C66.6,55,66.6,54.5,67.2,54.2z"/>
	<path class="st13" d="M63.3,54.5h0.4l0.3,1.2l-2,0.1c-0.4,0-0.7,0-0.9-0.2c-0.9-0.8-0.6-1,0.9-0.7C62.7,55,62.9,54.8,63.3,54.5z"/>
	<path class="st25" d="M50.2,54.7v0.8c-1.6,2.2,1.9,4.2,3.5,4.5c1.5,0.3,2,1.1,1.5,2.5c-0.5,1.6-0.4,3.1,0.3,4.5l-0.3,0.3l-1.8-3.5
		c-0.1-0.3-0.1-0.6,0.1-0.8c1-1.3,0.8-1.9-0.8-1.7c-0.3,0-0.6-0.1-0.7-0.4c-1-1.9-2.4-3.2-4.4-3.8L45,58.7l-1.5,1.5L42.2,61
		c-0.8,0.1-1.2,0.5-1.1,1.3c0,0.2-0.1,0.5-0.4,0.6l-2.5,1.5c-0.3,0.2-0.4,0.5-0.2,0.8c0,0,2.1,3,2.2,3c0.7,1.1-1.6,1.9-2.4,1.9
		c-1.2,0-1.5,0.6-0.8,1.7c0.3,0.5,2.7,4.4,0.2,3.7c-0.1-0.5-0.1-1.8-0.6-2.1c-0.7-0.6-1.1-0.4-1.3,0.6c0,0.3,0.1,0.6,0.4,0.7
		c0.4,0.2,0.8,0.6,1,1c-1.4-0.2-3.1,0.5-2.6,1.9c1.7,3.3,0.8,4.3-2.7,2.8c-0.8-0.4-1.8,0.3-1.8,1.2l0.2,2.9c0,0.3-0.2,0.5-0.4,0.5
		h-3c-1.7-0.8-1.7-0.6,0,0.7c3.9,2.2,5.4,1.2,4.5-2.8c-0.3-1.2,0.1-1.5,1.3-1.2c3.9,1.4,5,0.4,3.5-3c-0.2-0.3-0.2-0.7-0.2-0.9
		c0.1-1.2,1.6-0.8,1.3,0.2c-0.3,0.9,0,1.2,0.9,1c0.9-0.3-0.3-1.9,0.9-2.1c0.8-0.2,1.8-0.8,1.4-1.8L38.6,72c-0.1-0.3,0-0.6,0.2-0.7
		l2.6-1.1c0.8-0.4,1.1-1.4,0.5-2.1L39.8,66c-0.2-0.2-0.2-0.5,0-0.7c2.7-2.9,4.2-2,4.4,2.7c-1.2,1.8-1.1,3.8-1.7,5.4
		c-2.5,6.4-6.7,11.4-12.5,15c-0.2,0.1-0.2,0.3,0.1,0.3c0.8,0.2,1,0.7,0.7,1.6L30,89.9c-2.3-1.1-2.5-1-0.9,0.2
		c-0.4,1.2-1.1,1.7-2.2,1.5l-1.2-0.3c-0.1-0.6,0.1-1.9-0.3-2.4c-2.2-2.7-2.5-5.6-0.9-8.7c0.1-0.3,0.2-0.6,0.1-0.9
		c-0.3-1-0.3-1.8-0.1-2.3c1-2.7,1.4-5.4,1.2-8.3c-0.1-0.6,0.3-1.3,0.9-0.9c0.2,0.2,0.3,0.5,0.2,0.9c-0.3,2.7,0.4,2.8,2,0.3
		c1.2-0.3,2.1-1,2.7-2.2l1.8-1.1h1.2c-0.1,0.2-4.4,3.6-4.3,3.8c0,0.1,0,0.2,0,0.2c0.1,0.1,0.3,0.2,0.6,0.1l3.9-1.7
		c0.4-0.2,0.6-0.4,0.7-0.6c0.2-0.8-0.1-1.4-0.9-1.8l0.2-1l2.4-2.1c0.2-0.2,0.2-0.5,0.1-0.8c-0.8-1.2-4.7-3.4-3.5-4.4h0.5
		c1.6,1.1,2.9,2.6,3.9,4.2c0.1,0.2,0.4,0.3,0.6,0.2C38.5,61.9,50.2,54.7,50.2,54.7z M28,79.2c0.1-1.6-0.3-3-1.2-4.2
		c-0.2-0.3-0.4-0.3-0.5,0.1c-0.4,1.5,0,3.1,1.3,4.9c4.8-2.7,7.7-6.6,8.8-11.8c0-0.1,0.1-0.2,0.2-0.2c0.2,0,0.4-0.2,0.4-0.4l0.1-2.6
		c0-0.9-0.8-0.5-0.8,0.2C35.5,71.2,32.8,75.8,28,79.2z M41.2,66.1c0.6,0.7,1.5,0.5,1.5-0.4C42.8,64.2,40.3,64.9,41.2,66.1z
		 M38.1,67.5c-0.8,0.1-1,0.5-0.6,1.1c0.5,0.7,2.2,0.3,1.4-0.7C38.7,67.6,38.4,67.4,38.1,67.5z M33.2,71.1c0.4-0.1,0.7-0.7,0.2-0.9
		c-0.6-0.2-1.1-0.1-0.9,0.5C32.6,70.9,32.9,71.2,33.2,71.1z M40.6,73.5c1,0.1,1.2-1.9,0.3-2C39.9,71.4,39.6,73.4,40.6,73.5z
		 M31.6,73.2C28.8,71.6,31,76,31.9,74C32,73.7,31.8,73.4,31.6,73.2z M30.1,75.4c-2.8-4.9-1.9,4.2,0,0.9C30.2,76,30.2,75.7,30.1,75.4
		z M32.5,80.1c0.7,0.4,1.1,0.2,1.1-0.6C33.5,76.7,30.9,79.1,32.5,80.1z M27.3,83.2c-0.2,1.1,0.2,1.2,1.1,0.4c0.5-0.5,0-1.1-0.5-1.1
		C27.6,82.6,27.4,82.8,27.3,83.2z M33.4,83.1c-2.4-1-1.5,2.2,0.1,1.1C34.1,83.7,34.1,83.4,33.4,83.1z M27.5,88.8
		c0.5-1,0.6-1.5,0.2-1.8c-1-0.4-1.7,1.1-0.7,1.8C27.2,89,27.4,89,27.5,88.8z"/>
	<path class="st12" d="M84.3,55.3c1.5-0.4,2,1.3,0.5,1.7C83.4,57.4,82.9,55.7,84.3,55.3z"/>
	<path class="st24" d="M79,66.8c-1.1-0.5-3.1,0.1-3,1.5c1,6.5-5.1,4.4-5.3,7.4h-1c0.4-1,0.5-1.6,1.7-2.2l3.3-1.7
		c0.2-0.1,0.4-0.4,0.3-0.8c-0.6-3.7,0.8-5.5,4.2-5.5c1.8,0,2.4-0.8,1.8-2.5c-1.1-3.3,0.3-5,4.2-5c0.7,0,1.3-0.8,1.1-1.5
		c-0.3-0.9,0.1-1.3,1.2-1.2c0.3,0,0.5,0.3,0.4,0.5c-0.6,2.4-2.2,3.5-4.8,3.3c-0.4,0-0.7,0.1-0.8,0.3l-0.7,1.2
		c-0.1,0.2-0.1,0.6,0,0.9C82.7,64.1,81.8,65.9,79,66.8z"/>
	<path class="st12" d="M50.2,55.5h0.7l0.2,1.5c0,0.3,0.3,0.6,0.6,0.7l3.3,1.2c1.5,0.5,2,1.6,1.5,3.1c-0.5,1.4-0.4,2.8,0.1,4.1
		c0.1,0.3,0.4,0.5,0.7,0.7c2.6,1.2,3.6,3.2,2.9,6c-0.1,0.3,0,0.7,0.3,0.8c0.3,0.2,1.4,0.4,1.2,0.9c-0.3,0.8-0.9,0.9-1.7,0.2
		c-0.7-0.6-1.3,0-1,0.8l-0.7,0.3c-0.4-2.7,2.2-4.1,0-6.8l-1-0.5L55.5,67c-0.7-1.4-0.7-2.9-0.3-4.5c0.4-1.4-0.1-2.3-1.5-2.5
		C52.2,59.7,48.6,57.6,50.2,55.5z"/>
	<path class="st12" d="M52.4,55.7c0.5-0.2,0.8,0,0.8,0.8c0,0.3-0.2,0.6-0.5,0.6C51.9,57.1,51.7,56,52.4,55.7z"/>
	<path class="st21" d="M92.2,56.7L92,57.5l-1.7-1C91.1,54.9,91.8,54.9,92.2,56.7z"/>
	<path class="st13" d="M94.8,58l-1-0.5c-0.3-0.2-1.2-0.6-1.5-0.8C93.6,56.1,94.4,56.6,94.8,58z"/>
	<path class="st4" d="M90.3,56.5l1.7,1c0.6,0.8,1.1,0.7,1.3-0.2l0.5,0.2c0.2,2.7,4.3,4.6,6.4,5.5c0.8,1.3,1.4,1.3,1.8,0l0.3-0.5
		c0.4,2.2,0.4,4.4,0,6.5l-1-0.1l0.2-0.2c0.4,0.1,0.5-1,0.5-3.3c0-0.2-0.1-0.4-0.3-0.4c-1.1-0.4-0.3,2-0.6,2.8
		c-0.9,0.4-1.3,0-1.2-1.2c0-0.3-0.1-0.6-0.4-0.6l-1.9-0.5c-0.7-0.2-1.1-0.7-1-1.5h1.2c0.5,1.6,1.2,1.9,2,0.9c0.6-1-0.8-1.5-1.7-1.4
		c-0.9-1.5-5.7-5.1-3.8-0.8c-1.1,1.5-1.3-1.3-2-1.9c-0.2-0.2-0.2-0.5-0.1-0.7c0.7-0.9,0.4-1.5-0.7-1.8c-0.2-0.1-0.5,0.2-0.4,0.4
		c0,0.9-0.2,1.6-0.7,2.3c-0.2,0.2-0.2,0.5,0,0.7c1.8,1.9,3.9,3.3,6.3,4.2l0.5,1.5C97.1,69,96.7,69.1,96,68c0.8-1.4,0.3-2.2-1.2-2.3
		c-0.7,0-0.9-1.1-1.8-0.5c-1.9-1.5-3.6-3.3-5-5.3c1.7,0.7,2.2,0.3,1.7-1.2v-1.5L90.3,56.5z"/>
	<path class="st12" d="M55.2,67.2l1.3,3.2c1.5,2.8,0.7,4.5-2.2,5l-0.9,1.2c-1.8,0.6-3.1,1.6-4.1,3.2c-0.2,0.3,0,0.6,0.4,0.6
		l-0.5,0.7c-0.4-0.4-0.9-0.3-1.1,0.2l-1.3,3.2c-0.1,0.3-0.4,0.4-0.6,0.3c-0.7-0.5,0.7-3.3,0.9-4.3c0.1-0.3,0-0.3-0.2-0.1
		c-1.1,1.3-1.7,2.7-1.9,4.4c0,0.3,0.1,0.6,0.2,0.9c0.9,1.5,0.3,5.6,1.4,5.8V92c-4-0.1,0.2,6,1,7c-0.3,1.2-0.8,1.2-1.5,0.1
		c-4.9-8-4.2-15.6,2.1-22.6c0.5-0.5,0.4-0.8,0.4-1.4c0-0.2-0.2-0.4-0.5-0.4c-0.9,0.2-1.6,0.7-2.2,1.5c-6.2,8.5-6.2,17.2-0.1,25.9
		c-3.9,0.5-6-11.9-6-14.2l1.1-5.5c1.4-3.5,3.6-6.4,6.6-8.7c0.2-0.2,0.2-0.5,0.1-0.7l-0.5-0.8l-1.7-4.1L44.2,68
		c-0.2-4.7-1.7-5.6-4.4-2.7c-0.2,0.2-0.2,0.5,0,0.7l2.1,2.2c0.6,0.6,0.3,1.7-0.5,2.1l-2.6,1.1c-0.2,0.1-0.4,0.4-0.2,0.7l1.4,3.1
		c0.4,0.9-0.6,1.6-1.4,1.8c-0.3,0.1-0.6,0.3-0.6,0.5c0,0.4,0.2,1.4-0.3,1.5c-0.9,0.2-1.2-0.1-0.9-1s-1.2-1.4-1.3-0.2
		c-0.1,0.3,0,0.6,0.2,0.9c1.6,3.4,0.4,4.4-3.5,3c-1.1-0.4-1.5,0-1.3,1.2c1,4.1-0.5,5-4.5,2.8V85h3c0.3,0,0.5-0.2,0.4-0.5l-0.2-2.9
		c-0.1-0.9,0.9-1.6,1.8-1.2c3.5,1.5,4.4,0.5,2.7-2.8c-0.5-1.4,1.2-2.1,2.6-1.9l0.5-0.2c2.4,0.7,0.1-3.2-0.2-3.7
		c-0.7-1.1-0.4-1.7,0.8-1.7c0.9,0,3.1-0.8,2.5-1.9l-2.1-3c-0.2-0.3-0.1-0.6,0.1-0.8c0,0,2.5-1.5,2.5-1.6c0.3-0.2,0.4-0.4,0.4-0.6
		c-0.1-0.8,0.3-1.2,1.1-1.3c2.1,1,4.2,1.3,6.5,1c2.2,1,2.4,1.7,0.7,2.2c-0.3,0.1-0.6,0.3-0.8,0.5c-5.6,7,11.2-0.1,1.9,2.2
		c-2.3,0.6-2.1-1.4-0.6-2.3c0.5-0.3,1-0.6,1.5-0.9c0.2-0.1,0.2-0.4,0-0.5c-0.9-0.6-1.6-1.3-2-2.2c0.4-0.3,0.4-0.8-0.1-0.6
		c-0.7,0.4-1.5,0.8-2.4,0.9c-0.3,0-0.7-0.1-0.8-0.4c-0.3-0.5-0.3-1,0.1-1.6c1.1,0,1.5-0.7,1.4-2.2c1.9,0.6,3.4,1.8,4.4,3.8
		c0.1,0.3,0.4,0.4,0.7,0.4c1.5-0.2,1.8,0.4,0.8,1.7c-0.2,0.2-0.2,0.6-0.1,0.8L55.2,67.2z M46.5,66.4c0.1,0.1,0.2,0.1,0.2-0.1
		c0.1-1,0.6-1.8,1.4-2.4c0.3-0.2,0.2-0.3,0-0.4C44.1,62.4,43.6,63.4,46.5,66.4z M50,70.1c1.3-0.7-5.4-3.8-1.5,1.3
		c0.5,0.4,0.7-0.4,0.8-0.7C49.4,70.6,49.7,70.3,50,70.1z M50,72c-1.1,1-1.1,2,0,2.8c0.2,0.6,0.2,1.2,0,1.7c-0.1,0.3,0,0.4,0.3,0.2
		l2.2-1.3c0.9-1.1,1.9-2.1,3-2.9c1.4-1.1-2.1-0.1-2.6,0c-0.3,0.1-0.7,0.1-0.9,0c-1.6-1,0.5-2.3,1.6-2.6c0.3-0.1,0.6-0.2,0.7-0.5
		C55,67.9,50.6,70.9,50,72z M45,90c-0.3-5.8-1.7,1.5-0.4,0.8C44.8,90.6,45,90.3,45,90z"/>
	<path class="st26" d="M92.2,56.7l1,0.5c-0.3,1-0.7,1-1.3,0.2L92.2,56.7z"/>
	<path class="st10" d="M89.7,57.2v1.5l-1-0.3C88.8,57.8,89.1,57.4,89.7,57.2z"/>
	<path class="st9" d="M47.6,57c0.2,1.5-0.3,2.3-1.4,2.2l-1-0.3L45,58.7L47.6,57z"/>
	<path class="st21" d="M93.8,57.5l1,0.5l1,1c0.8,0.5,2.5,1.5,3.2,2c0.3,0.7,0.8,1.1,1.6,1.2l-0.1,0.2l-0.2,0.5
		C98.1,62.1,94,60.1,93.8,57.5z"/>
	<path class="st9" d="M96.8,58c0.3,0.8,0.8,1.3,1.5,1.6l-0.5,0.7l-2-1.2L96.8,58z"/>
	<path class="st26" d="M94.3,62.7h0.4c0.3,0.8,0.9,1.3,1.8,1.2c-0.1,0.8,0.3,1.3,1,1.5L96.7,66c-2.5-0.9-4.6-2.3-6.3-4.2
		c-0.2-0.2-0.2-0.5,0-0.7c0.5-0.6,0.7-1.4,0.7-2.3c0-0.3,0.2-0.5,0.4-0.4c1.1,0.3,1.4,0.8,0.7,1.8c-0.2,0.2-0.1,0.5,0.1,0.7
		C92.9,61.4,93.2,64.2,94.3,62.7z"/>
	<path class="st26" d="M88.8,58.5l1,0.3c0.5,1.5,0,1.9-1.7,1.2L88,59.7L88.8,58.5z"/>
	<path class="st18" d="M45,58.7l0.3,0.3c-0.1,1.5-0.7,1.9-1.8,1.2L45,58.7z"/>
	<path class="st16" d="M45.3,59l1,0.3c-0.4,0.6-0.4,1.1-0.1,1.6c0.2,0.3,0.5,0.4,0.8,0.4c0.8-0.1,1.6-0.4,2.2-0.8
		c0.5-0.3,0.8,0.1,0.3,0.5l-0.7,1c-2.3,0.3-4.4,0-6.5-1l1.2-0.8C44.6,60.9,45.2,60.5,45.3,59z"/>
	<path class="st23" d="M98.2,59.5l1,0.4L99,61l-1.2-0.8L98.2,59.5z"/>
	<path class="st13" d="M88,59.7V60c1.4,2,3,3.8,5,5.3v0.5c0.4,1.7,1.4,3.3,2.7,4.5c-0.8-0.1,1.3,6.4,1.4,7c0.2,0.6-0.4,1.1-0.8,0.8
		l-1.1-4.2l-0.8-2.5l-0.2-0.5c-1.2-3.4-3.1-6.3-5.7-8.7L87,60.5L88,59.7z"/>
	<path class="st9" d="M99.2,60l1.6,1.2c0.4,0.4-0.1,0.8-0.3,1c-0.7-0.2-1.3-0.6-1.6-1.2L99.2,60z"/>
	<path class="st27" d="M82.8,61.3c-0.1-1,0.3-1.2,1.2-0.6c0.7,0.5,0.2,1.6-0.7,1.3C83.1,61.9,82.9,61.6,82.8,61.3z"/>
	<path class="st17" d="M34.5,64.8l-0.2,1h-1.2c0.3-0.6,0.2-2.5-0.7-2.1c-0.9,0.8-1.3,1.9-1.3,3.1c-1,0.5-1.8,1.2-2.5,2
		c-1-1.9-0.7-3.4,1.1-4.7c0.2-0.2,0.6-0.8,0.9-1.7c0.8-2,1.9-2.4,3.4-1.2c0.2,0.2,0.3,0.5,0.1,0.8C33.4,62.9,33.6,63.9,34.5,64.8z"
		/>
	<path class="st6" d="M87,60.5l1.5,1.5l5.7,8.7l0.2,0.5c-0.4,1-0.1,1.9,0.8,2.5l1.1,4.2c0,0.9-0.4,1.7-1.1,2.2
		c-2.7,1.3-4.8,3.3-6.3,5.9c-0.5,0.8-0.9,0.8-1,0.1c-0.3-1.1-0.1-2,0.6-2.9c0.2-0.3,0.3-0.6,0.3-0.9c-0.5-7,0.7-11.6-4.8-16.7
		L83.6,65C84.3,63.3,85.5,61.8,87,60.5z"/>
	<path class="st10" d="M98,63.5L97.7,64h-1.2c-0.4-1-1.2-1.3-2.2-1.2C92.3,58.4,97.1,62,98,63.5z"/>
	<path class="st25" d="M49.5,61c0.4,0.9,1,1.7,2,2.2c0.2,0.1,0.2,0.3,0.1,0.5c-0.5,0.4-1.1,0.7-1.6,1c-1.5,0.8-1.7,2.8,0.6,2.3
		c9.3-2.4-7.5,4.7-1.9-2.2c0.2-0.2,0.5-0.4,0.8-0.5c1.7-0.5,1.5-1.3-0.7-2.2L49.5,61z"/>
	<path class="st28" d="M88.5,62c2.7,2.4,4.6,5.3,5.7,8.7L88.5,62z"/>
	<path class="st12" d="M78.2,62.8c1.1-1,2.2,0.3,1.2,1.3C78.3,65,77.1,63.7,78.2,62.8z"/>
	<path class="st17" d="M96.5,64c-0.9,0-1.5-0.4-1.8-1.2C95.5,62.7,96.1,63.2,96.5,64z"/>
	<path class="st29" d="M100.5,62.5c0.3,0.6,0.8,0.7,1.5,0.5c-0.3,1.3-0.9,1.3-1.8,0L100.5,62.5z"/>
	<path class="st25" d="M46.5,66.4c-2.9-3-2.4-3.9,1.6-2.9c0.3,0.1,0.3,0.2,0,0.4c-0.8,0.6-1.3,1.4-1.4,2.4
		C46.7,66.5,46.6,66.5,46.5,66.4z"/>
	<path class="st2" d="M33,65.7l-1.8,1.1L31,66.7c0-1.2,0.4-2.2,1.2-3c0.2-0.2,0.4-0.2,0.6,0C33.2,64.2,33.3,65,33,65.7z"/>
	<path class="st2" d="M98,63.5c0.9-0.1,2.3,0.5,1.7,1.4c-0.8,1-1.5,0.7-2-0.9L98,63.5z"/>
	<path class="st27" d="M58.8,64.6c0.5,0.4,0.2,1.2-0.5,1.2c-1.2-0.1-1.4-0.4-0.4-1.1C58.2,64.5,58.5,64.5,58.8,64.6z"/>
	<path class="st8" d="M27.6,80l0.4-0.8c4.9-3.4,7.6-8.1,8.2-14c0-0.6,0.8-1.1,0.8-0.1l-0.1,2.6c0,0.2-0.2,0.3-0.4,0.4
		c-0.1,0-0.1,0.1-0.2,0.2C35.3,73.4,32.3,77.4,27.6,80z"/>
	<path class="st27" d="M41.2,66.1c-0.9-1.2,1.6-1.9,1.5-0.4C42.8,66.6,41.8,66.8,41.2,66.1z"/>
	<path class="st2" d="M96,68h-0.2L93,65.7v-0.5c0.8-0.6,1.1,0.4,1.8,0.5C96.3,65.8,96.8,66.6,96,68z"/>
	<path class="st29" d="M101.5,68.7c0.5-0.7,0.3-1-0.5-1c0.3-0.7-0.5-3.2,0.6-2.8c0.2,0.1,0.3,0.2,0.3,0.4
		C102,67.7,101.9,68.8,101.5,68.7z"/>
	<path class="st24" d="M83.5,65.2l0.4,0.6c6.7,10.8,5.5,20.5-3.5,29c-0.4-0.5-0.4-1-0.2-1.7c8.2-6.4,8.7-18.3,2.6-26.2
		c-0.2-0.3-0.3-0.6-0.2-0.9C82.7,65.6,83,65.3,83.5,65.2z"/>
	<path class="st2" d="M97.5,65.5l1.9,0.5c0.3,0.1,0.4,0.3,0.4,0.6c-0.1,1.1,0.3,1.5,1.2,1.2c0.8,0,1,0.3,0.5,1l-0.2,0.2
		c-1.3,0.8,0.2,0.8,0.1,1.6l-0.4,1.9l-0.5,0.2l-2,1.6c-0.2,0.2-0.2,0.2,0.1,0.1c1.1-0.3,1.9-0.4,2.4-0.2l0.2,0.2
		c0.2,0.3,0.3,0.6,0.2,0.8c0,0.2-0.2,0.5-0.6,0.6c-0.6,0.3-1.1,0.8-1.3,1.5L99.2,78l-0.5,0.3c-0.8-0.5-0.9-1-0.3-1.5
		c0.1-0.1,0.1-0.4,0-0.5c-0.9-0.6-1.4-1.4-1.3-2.5c0-0.3-0.1-0.6-0.2-0.9c-1.1-1.5-0.6-2.5,1.6-2.9h0.2c0.5,0.8,0.4,1.5-0.3,2
		c-0.7,0.5-0.4,1.7,0.5,0.9c0.4-0.3,0.8-1.3,1-2.7c0.1-0.4-0.1-0.6-0.5-0.5l-0.3-0.5c1-1.9-0.6-1.8-2-1.7L96.7,66L97.5,65.5z"/>
	<path class="st6" d="M34.2,65.7c0.9,0.4,1.2,1,0.9,1.8c-0.1,0.2-0.3,0.4-0.7,0.6l-3.9,1.7c-0.3,0.1-0.5,0.1-0.6-0.1
		c0-0.1-0.1-0.2,0-0.2C29.8,69.3,34.1,65.9,34.2,65.7z"/>
	<path class="st28" d="M83.9,65.8c5.5,5.1,4.3,9.7,4.8,16.7c0,0.3-0.1,0.6-0.3,0.9c-0.7,0.8-0.9,1.8-0.6,2.9c0.2,0.8,0.5,0.8,1-0.1
		c1.6-2.6,3.7-4.5,6.3-5.9l0.1,0.2c-4.9,4-8.7,9.7-11.4,17.1c-0.3,0.7-0.1,2.4,0.8,2.1l-0.5,2l-3.8-7C89.5,86.3,90.6,76.6,83.9,65.8
		z"/>
	<path class="st4" d="M93,65.7l2.7,2.3l-0.5,1.7C94.1,68.6,93.4,67.3,93,65.7z"/>
	<path class="st5" d="M79,66.8l-0.5,0.8c-2.1,0.8-2.1,1.4-0.1,1.8c0.3,0.1,0.6,0.2,0.8,0.5c2.9,3.4,3,8.2,2.7,12.7l-0.7,1.2
		c-0.5,1.6-1.3,3-2.5,4.2l-0.5-0.5l0.6-0.3c0.2-0.1,0.3-0.5,0.2-0.7c-0.5-1.2-0.4-2.4,0.3-3.4c0.3-0.5,1.4-0.6,1.6-1.3
		c0.1-0.2,0-0.6-0.2-0.9c-0.5-0.9-1.3-2.6-0.4-3.5c1.3-1.2,0.8-2.3-1.3-3.4c-0.3-0.1-0.6,0-0.8,0.2c-0.3,1.7-0.7,2.3-1.5,0.5
		c-0.1-0.2,0-0.4,0.2-0.5c1.8-0.5,2.5-1.7,1.9-3.7c-0.1-0.2-0.4-0.3-0.5-0.1c-1,0.9-1.8,2-2.4,3.3c-0.1,0.3-0.3,0.5-0.6,0.7
		c-1.1,0.8-1.5,2-1.3,3.7c0.3,3-0.8,5.6-3.5,7.8c-1.6,0.4-3.2,0.3-4.8-0.1v-1.2c1.5-0.1,2.5-1,3-2.5c0.8-0.7,1.1-1.7,1.2-3.1
		c0.1-1.2-1-1.5-1.3-0.5c-0.4,2.3-1.7,3-3.9,2.3c-0.3-0.1-0.4-0.4-0.2-0.6c0.7-1.5,0.6-2.1-0.5-1.9c-0.3,0.1-0.5,0.3-0.6,0.6
		c-0.5,2.2-1.9,2.8-4,1.8c-0.3-0.1-0.4-0.4-0.3-0.7c0.5-2.2,0-2.6-1.4-1.1L57,79c-1.2-0.1,0.5-1.4-0.2-2.5c-0.1-0.2-0.4-0.2-0.7-0.1
		c-0.6,0.3-1.2,0-1.8-1c2.9-0.5,3.7-2.2,2.2-5h0.2c1.4,0.8,2,0.4,1.5-1.5c2.2,2.6-0.4,4.1,0,6.8c-1.6,2.8,4-0.2,2.2,3.3
		c-0.1,0.3-0.1,0.6,0.1,0.8c2.2,1.8,0.8-4,4.8-2.5c0.3,0.1,0.6,0.4,0.6,0.7c0.1,0.4,0,0.7-0.2,1.1c-0.2,0.3-0.1,0.6,0.1,0.8
		c0.5,0.3,1.2,0.2,1.3-0.6c0.5-2.1,1.8-2.7,3.8-1.9c0.2,0.1,0.4,0.4,0.2,0.6c-1,2.2,5.1-2.1-0.5-2.2c0.2-3.1,6.4-0.9,5.3-7.4
		c-0.1-0.3,0-0.7,0.2-0.9C77,66.6,78,66.4,79,66.8z"/>
	<path class="st21" d="M31,66.7l0.2,0.1c-0.6,1.2-1.5,1.9-2.7,2.2v-0.2C29.2,67.9,30,67.2,31,66.7z"/>
	<path class="st19" d="M55.5,67l1.8,1.5l-0.5,2h-0.2l-1.3-3.2L55.5,67z"/>
	<path class="st27" d="M38.9,67.8c0.8,1-0.8,1.5-1.4,0.7C36.7,67.6,38.4,67.1,38.9,67.8z"/>
	<path class="st12" d="M80.2,93c-0.2,0.7-0.2,1.2,0.2,1.7l3.8,7c0.9,2.9,2.3,3.2,4.3,1.1c0.2-0.2,0.2-0.5,0-0.7l-2.3-2.8
		c-0.9-1-0.6-1.6,0.8-1.8c0.9-0.1,3-0.6,2.6-1.7l-1.2-2.7c-0.4-0.8,0.2-1.7,1.1-1.8l3-0.4c0.2,0,0.4-0.3,0.3-0.5c0,0,0,0,0-0.1
		L92,87.1c-0.3-1.3,0.2-1.7,1.5-1.3c0.9,0.3,1.9,0.3,2.9,0.2c0.3,0,0.5-0.3,0.5-0.6l0.1-3.6c0-0.3,0.2-0.6,0.5-0.6
		c1.5-0.3,2.7,0.1,3.8,1.2c0.5,0.9-1.5,0.6-2,0.5c-0.3-0.1-0.5,0.1-0.6,0.4l-0.3,3.2c-0.1,0.7-0.7,1.2-1.4,1.1
		c-1.9-0.4-4.1-0.7-3.4,0.8c0.5,1,0.7,2.1,0.4,3.3c-0.1,0.3-0.3,0.4-0.6,0.4c-1.6-0.4-2.7,0.1-3.3,1.4c-0.1,0.3,0,0.6,0.2,0.9
		c1.8,2.1,1.3,3.4-1.3,4c-0.7,0.1-1,0.5-0.9,1.1c0,0.2,0.2,0.5,0.5,0.8c1,0.8,1.5,1.7,1.6,2.9c0,0.3-0.1,0.5-0.4,0.7l-2.5,1.5
		c-0.2,0.1-0.4,0.5-0.3,0.8c0.2,1.3-0.1,1.5-1.1,0.8c-0.2-0.1-0.5-0.1-0.6,0.2c-0.7,1.5-1.8,2.6-3.4,3.1c0.7-0.9,3.4-3.3,1.5-4.3
		l0.5-1c-0.1-1.3-0.6-2.3-1.5-3.2l-1.2-0.3c-2.1-2-4.1-1.9-5.7,0.1c-0.2,0.3-0.2,0.4,0.2,0.3c4.7-1.3,5.3-0.5,1.7,2.1
		c-0.9,0.7-0.7,1.3,0.6,1.8l1,2l-1.1,0.8c-0.7-1-1.6-1.6-2.8-1.6c-0.3,0-0.5-0.2-0.5-0.5c-0.1-0.8,0.9-1.6,0.5-2.3
		c-1.6-2.9-2.9-5.9-3.8-9c-0.2-0.7,0.2-1.4,0.9-1.6c1.7-0.5,2.3-1.1,1.6-1.8L75,91c1.8-0.3,3-1.3,3.8-3c1.2-1.2,2-2.6,2.5-4.2
		c0.5-0.1,0.8,0,0.6,0.4c-1.1,3.5-3.1,6.1-6,8c-0.2,0.1-0.2,0.4,0,0.6c2.5,1.9,3.2,1.6,2.2-0.8c-0.1-0.3-0.1-0.6,0.2-0.8
		c7.7-8.2,7.2-14.4,2-23.7c0.4-0.5,0.9-0.5,1.2,0.1c5.4,8.3,4.9,16.1-1.5,23.6C79.3,91.9,79.3,92.6,80.2,93z M76.8,96
		c-0.3,1.1-1.1,1.8-2.4,2.1c-0.3,0.1-0.6,0.3-0.5,0.6c0.1,0.3,0.3,0.4,0.9,0.3c1.3-0.2,2.2-0.7,2.7-1.5c2.1-3.6-3.2-4.5-4.8-1.9
		c-0.2,0.3-0.1,0.4,0.2,0.3c1.2-0.4,2.4-0.5,3.6-0.4C76.7,95.5,76.9,95.8,76.8,96z M78.4,98.9c0.6,0.2,1.3,0.2,2.1,0
		c0.2-0.1,0.3-0.4,0.3-0.6l-1.1-2.2c-0.1-0.2-0.3-0.2-0.4,0l-1.1,2.3C78.2,98.6,78.3,98.8,78.4,98.9z"/>
	<path class="st29" d="M99.2,69.2c-0.3-0.1-0.5-0.4-0.6-0.7c-0.1-0.2-0.2-0.4-0.4-0.4c-0.8-0.1-0.8-0.3,0-0.6
		C99.5,67.5,99.9,68,99.2,69.2z"/>
	<path class="st18" d="M78.5,67.5l1.2,0.8l2.7,5.9c0.2,0.4,0.3,1.2,0.3,2.7l0.2,5.1c0,0.4-0.1,0.7-0.4,0.8c-0.2,0.1-0.4,0-0.6-0.2
		c0.3-4.6,0.2-9.3-2.7-12.7c-0.2-0.2-0.5-0.4-0.8-0.5C76.4,69,76.4,68.4,78.5,67.5z"/>
	<path class="st15" d="M80.2,67.5c2.6,4.9,5.2,9.8,3.2,15.6c-1.1,3.1-2.8,5.8-5.2,8.1C78,91.4,77.9,91.7,78,92
		c1,2.4,0.3,2.7-2.2,0.8c-0.2-0.1-0.2-0.3-0.1-0.5c3-1.9,5-4.6,6.1-8.1c0.1-0.4-0.1-0.6-0.6-0.4l0.7-1.2c0.5,0.5,1,0.1,1-0.6
		l-0.2-5.1c-0.1-1.4-0.2-2.3-0.3-2.7l-2.7-5.9L80.2,67.5z"/>
	<path class="st26" d="M97.2,67.5h1c-0.8,0.3-0.9,0.5,0,0.6c0.2,0,0.4,0.2,0.4,0.4c0.1,0.3,0.3,0.5,0.6,0.7l0.3,0.5L98.7,70h-0.2
		c-0.9-0.6-1.8-0.5-2.8,0.2l-0.5-0.5l0.5-1.7H96C96.7,69.1,97.1,69,97.2,67.5z"/>
	<path class="st13" d="M44.2,68l1.2,0.2c-0.6,0.2-0.8,0.6-0.8,1.3c-2.1,7.8-6.5,14.1-13,18.7c-0.3,0.2-0.3,0.5-0.2,0.8l1.3,3
		l0.3,0.8c0.8,4.3,2.6,8.2,5.3,11.8c-1.4-0.5-2.4-1.5-3-2.8l-0.3-0.3l-1.3-3.3c-0.1-0.1-0.2-0.2-0.4-0.1L33,98.2l-0.3-0.5
		c0.2-1.5-0.1-2.9-0.9-4.2c-0.4-1,0-2-1.1-2.8v-0.5c0.4-0.9,0.1-1.4-0.7-1.6c-0.3-0.1-0.3-0.2-0.1-0.3c5.9-3.6,10.1-8.6,12.5-15
		C43.1,71.8,43.1,69.7,44.2,68z"/>
	<path class="st6" d="M45.5,68.2l1.7,4.1c-1.5,3.4-2.6,3.9-3.1,1.5c-0.1-0.3,0-0.6,0.2-0.9c0.7-1,0.8-2.1,0.5-3.4
		C44.7,68.8,44.9,68.4,45.5,68.2z"/>
	<path class="st25" d="M49.3,70.7c-0.2,0.3-0.4,1.1-0.8,0.7c-3.9-5.1,2.8-2,1.5-1.3C49.7,70.3,49.4,70.6,49.3,70.7z"/>
	<path class="st8" d="M57.3,68.5l1,0.5c0.4,1.8-0.1,2.3-1.5,1.5L57.3,68.5z"/>
	<path class="st9" d="M52.5,75.5L50.8,74c0.7-0.8,0.5-1.2-0.7-1.3L50,72c0.6-1.1,5-4.1,4.4-2.6c-0.1,0.2-0.4,0.4-0.7,0.5
		c-1.1,0.2-3.1,1.5-1.6,2.6c0.2,0.2,0.6,0.2,0.9,0c0.4-0.2,4-1.1,2.6,0C54.4,73.3,53.4,74.3,52.5,75.5z"/>
	<path class="st25" d="M101.2,69l1,0.1l0.3,30.5c0,0.3-0.2,0.6-0.5,0.7c-1.1,0.5-2,1.4-2.6,2.6l-1.7-1.2c-1.6-0.6-2.6,0-3,1.7
		l-0.3,0.3c-1.4,0-2.5,0.7-3.2,2c-2.1-0.6-3-0.4-2.5,0.5c0.1,0.3,0.1,0.6-0.1,0.7l-7.4,4.9c-0.9,0.7-1.9,1.2-3.1,1.4l-0.3-0.7
		c2.3-2.3-1.9-4.1-3.6-4.5c-0.8-0.2-1.4-1-1.2-1.9c1-2.9,0.2-5.2-2.5-6.7c0.9-2.7,0.6-3-1-0.7c-0.7-1.4-0.6-2.7,0.2-4
		c0.5-0.9,0-2.1,0.5-3.1c0.1-0.2-0.1-0.4-0.3-0.5c-0.3-0.1-0.5-0.4-0.4-0.9l1.3-1c3.1-0.7-3.1,3.5,2.7,2.5c0.7,0.7,0.1,1.3-1.6,1.8
		c-0.7,0.2-1.1,0.9-0.9,1.6c0.9,3,2.2,6,3.8,9c0.4,0.7-0.6,1.6-0.5,2.3c0,0.3,0.2,0.5,0.5,0.5c1.2,0,2.1,0.6,2.8,1.6
		c0.4,1.6,1.5,2.5,3,2.7l1-1c1.6-0.5,2.8-1.5,3.4-3.1c0.1-0.2,0.3-0.3,0.5-0.2c1,0.8,1.4,0.7,1.2-0.7c-0.1-0.3,0.1-0.6,0.3-0.8
		l2.5-1.5c0.3-0.2,0.5-0.4,0.4-0.7c-0.1-1.2-0.7-2.2-1.6-2.9c-0.8-0.5-0.6-1.8,0.4-1.9c2.7-0.6,3.1-1.9,1.3-4c0-0.4,0-0.7,0.1-1
		c0.6-1.3,1.7-1.8,3.3-1.4c0.3,0.1,0.5-0.1,0.6-0.4c0.3-1.2,0.1-2.3-0.4-3.3c-0.7-1.5,1.6-1.2,3.4-0.8c0.7,0.2,1.3-0.4,1.4-1.1
		l0.3-3.2c0-0.3,0.3-0.4,0.6-0.4c0.5,0.1,2.5,0.3,2-0.5c-1-1.1-2.3-1.5-3.8-1.2c-0.3,0.1-0.5,0.3-0.5,0.6l-0.1,3.6
		c-0.1,1.1-2.7,0.6-3.4,0.4c-1.3-0.4-1.8,0-1.5,1.3l0.8,3.2c0.1,0.3-0.1,0.6-0.3,0.6l-3.1,0.4c-0.9,0.1-1.4,1-1.1,1.8l1.2,2.7
		c0.4,1.1-1.7,1.6-2.6,1.7c-1.4,0.1-1.7,0.7-0.9,1.8l2.3,2.8c0.2,0.2,0.2,0.5,0,0.7c-2,2.1-3.4,1.8-4.3-1.1l0.5-2
		c1.6-8.9,6.2-15.7,13.8-20.5l1-0.3c0.4,0.4,0.7,0.9,0.9,1.5c0.1,0.2,0.3,0.4,0.5,0.3c1.1-0.6,1-1.4-0.2-2.2
		c1.5-1.5,1.1-1.9-1.2-1.1c0.3-0.7,0.7-1.2,1.3-1.5c0.8-0.4,0.6-0.8,0.4-1.4c1-1,0.9-1.6-0.2-2l0.3-1.9
		C101.5,69.8,100,69.8,101.2,69z M94.9,84c-0.4,1.2,0,1.4,1.2,0.5c0.2-0.2,0.3-0.5,0.1-0.7C95.9,83.4,95.1,83.4,94.9,84z
		 M101.3,84.6c0.1-1.7-3.1-0.4-1,1C100.9,86,101.3,85.6,101.3,84.6z M93.1,98.8c1.5-5,4.2-8.1,8.3-11.1c0.9-0.6-0.5-0.3-0.6-0.3
		c-4.1,2.7-7.5,6.5-8.7,11.3C92.1,101.2,92.4,101.2,93.1,98.8z M96.2,89.3c1.3-2.6-2.4-1.5-1.3,0.1C95.2,89.9,95.9,89.8,96.2,89.3z
		 M91.7,89.1c-1-0.3-1.6-0.2-1.7,0.4c-0.1,0.3,0.1,0.6,0.4,0.8c0.7,0.3,1.2,0,1.4-0.9C91.9,89.3,91.8,89.2,91.7,89.1z M98.8,91.1
		c-0.7-0.1-1.3,0.9-0.6,1.4c2.2,1.9,2.6,1.6,1.4-0.9C99.4,91.3,99.1,91.1,98.8,91.1z M91.3,93.9c-0.1,0.8,1,1.1,1.4,0.4
		c0.5-1.1,0.2-1.5-0.8-1.1C91.6,93.4,91.4,93.6,91.3,93.9z M96.6,95c4.7,0.5-1.1-3.3-0.6-0.6C96,94.7,96.3,95,96.6,95z M87.9,94.6
		c-0.8-0.6-1.3,1-0.5,1.3C88.6,96.6,88.7,95.1,87.9,94.6z M97.4,96c-3-0.1-4.2,2.9-2.4,2C95.7,97.5,100.4,96.1,97.4,96z M94.5,100.2
		c-1.9,1.4-2.1,2-0.6,1.8c0.3,0,0.6-0.2,0.8-0.5l1-1.2c1-0.4,1.8-1,2.4-1.8c0.2-0.3,0.1-0.4-0.2-0.3C96.6,98.4,95.4,99.1,94.5,100.2
		z M90.4,100.1c1-0.5,0.9-0.8-0.3-1c-0.6-0.1-1.1,0.7-0.6,1C89.7,100.3,90.1,100.3,90.4,100.1z M85.9,101.6
		c-0.2,0.2-0.2,0.5-0.2,0.7c0.1,0.3,0.4,0.4,0.7,0.4c0.8-0.2,0.9-0.5,0.3-1.1C86.5,101.4,86.1,101.4,85.9,101.6z"/>
	<path class="st28" d="M44.7,69.5c0.4,1.2,0.2,2.4-0.5,3.4c-0.2,0.3-0.3,0.6-0.2,0.9c0.5,2.5,1.6,2,3.1-1.5l0.5,0.8
		c0.1,0.2,0.1,0.5-0.1,0.7c-3,2.3-5.1,5.2-6.6,8.7c0.4-1.1-0.3-1.9-1.1-1.1l-7.4,7.3c-0.2,0.2-0.3,0.5-0.2,0.8
		c0.4,0.9,0.5,1.7,0.3,2.6l-1.3-3c-0.1-0.3,0-0.6,0.2-0.8C38.2,83.6,42.6,77.3,44.7,69.5z"/>
	<path class="st12" d="M72.3,70.6c-0.3-0.5,0.1-1.1,0.7-1.1C75.1,69.5,73.5,73.1,72.3,70.6z"/>
	<path class="st14" d="M98.5,70c-2.2,0.4-2.7,1.4-1.6,2.9c0.2,0.2,0.3,0.6,0.2,0.9c-0.1,1.1,0.3,1.9,1.2,2.5c0.2,0.1,0.2,0.4,0,0.5
		c-0.6,0.5-0.5,1.1,0.3,1.5l0.8,0.7l-1,0.3c-0.6-0.4-1-0.4-1.3,0s-0.6,0.6-0.7,0.7l-1.2,0.6l-0.1-0.2c0.7-0.6,1.1-1.3,1.1-2.2
		c0.2,0.1,0.4,0,0.5,0c0.3-0.1,0.4-0.4,0.3-0.8c-0.1-0.6-2.2-7-1.4-7C96.7,69.5,97.6,69.4,98.5,70z"/>
	<path class="st4" d="M99.5,69.7c0.4,0,0.6,0.2,0.5,0.5c-0.2,1.4-0.6,2.4-1,2.7c-0.9,0.8-1.3-0.4-0.5-0.9c0.7-0.5,0.7-1.2,0.3-2
		L99.5,69.7z"/>
	<path class="st6" d="M32.5,70.6c-0.3-0.7,1.2-0.7,1.2,0C33.5,71.2,32.7,71.3,32.5,70.6z"/>
	<path class="st27" d="M78.2,87.5c-2.3,0-3.4,1.1-3.2,3.4l-1.5,0.5c-5.8,1.1,0.4-3.2-2.7-2.5v-1.2c3.7-2.6,5.4-6.2,5.2-10.8
		c0-0.4,0.3-3-0.7-1.7c-0.2,0.2-0.3,0.6-0.2,0.9c0.6,4.3-0.8,7.7-4.3,10.3l-0.3-0.7c2.7-2.2,3.8-4.8,3.5-7.8c-0.2-1.7,0.3-3,1.3-3.7
		c0.3-0.2,0.5-0.5,0.6-0.7c0.6-1.3,1.4-2.4,2.4-3.3c0.2-0.2,0.5-0.1,0.5,0.2c0.6,1.9-0.1,3.1-1.9,3.6c-0.3,0.1-0.4,0.3-0.3,0.6
		c0.7,1.6,1.2,1.4,1.5-0.3c0-0.3,0.3-0.5,0.6-0.5c2.2,0.9,2.9,2.3,1.5,3.5c-0.3,0.2-0.4,0.5-0.4,0.8c0,1,0.3,1.9,0.8,2.7
		c0.2,0.3,0.3,0.7,0.2,0.9c-0.1,0.7-1.3,0.8-1.6,1.3c-0.7,1.1-0.8,2.2-0.3,3.4c0.1,0.3,0,0.6-0.2,0.7L78.2,87.5z M77.9,80.1
		c1.9-3.7-2.1-3.6-0.5,0C77.5,80.5,77.7,80.5,77.9,80.1z M76.3,84.6c1.1,0.3,2-2.5,0.9-2.8C76.1,81.5,75.2,84.3,76.3,84.6L76.3,84.6
		z M75.4,86.4c-0.6-0.8-3,1-2.3,1.8l0,0C73.7,89,76,87.2,75.4,86.4L75.4,86.4z"/>
	<path class="st16" d="M94.5,71.2l0.8,2.5C94.3,73.1,94.1,72.3,94.5,71.2z"/>
	<path class="st18" d="M41.4,72.6c-0.2,1.3-1.6,1.1-1.5-0.2C40.1,71.1,41.6,71.3,41.4,72.6z"/>
	<path class="st11" d="M50,72l0.1,0.8V74L50,74.7C48.9,74,48.9,73,50,72z"/>
	<path class="st10" d="M101,72.5c1.1,0.4,1.2,1.1,0.2,2l-0.2-0.2c0.3-0.7,0.1-1.2-0.5-1.5L101,72.5z"/>
	<path class="st18" d="M50,72.7c1.2,0.1,1.4,0.5,0.7,1.3H50V72.7z"/>
	<path class="st17" d="M100.5,72.7c0.6,0.3,0.7,0.8,0.5,1.5c-0.5-0.2-1.3-0.1-2.4,0.2c-0.3,0.1-0.3,0-0.1-0.1L100.5,72.7z"/>
	<path class="st6" d="M31.9,74c-0.9,2-3-2.4-0.3-0.7C31.8,73.4,32,73.7,31.9,74z"/>
	<path class="st18" d="M37.2,75.5l-0.5,0.2c-0.2-0.4-0.6-0.8-1-1c-0.3-0.2-0.4-0.4-0.4-0.7c0.2-1.1,0.6-1.3,1.3-0.6
		C37.1,73.7,37.1,74.9,37.2,75.5z"/>
	<path class="st6" d="M30.1,76.2c-2,3.3-2.9-5.8,0-0.9C30.2,75.7,30.2,76,30.1,76.2z"/>
	<path class="st25" d="M50,74h0.7l1.8,1.4l-2.2,1.3c-0.3,0.2-0.4,0.1-0.3-0.2c0.2-0.6,0.1-1.1,0-1.7V74z"/>
	<path class="st28" d="M28,79.2L27.6,80c-1.3-1.8-1.7-3.4-1.3-4.9c0.1-0.3,0.2-0.4,0.5-0.1C27.7,76.3,28.1,77.7,28,79.2z"/>
	<path class="st5" d="M47.8,99.2l0.7-0.5c1.3-1-0.1-1.3-0.5-2.1l-1.5-3.4l0.5-0.8l2.8,1.6c-0.8,3.7-0.1,3.7,2,0.2l0.7-1l0.3-0.8
		l0.7-0.7l0.8-0.3c1.2-0.2,2.4,0,3.5,0.5c-1.1,3.6-7,1.3-5.8,8.2c0,0.3-0.1,0.5-0.4,0.5c-3,0.3-7,1.7-4.9,5.4c0.7,1.1-0.6,3-1.9,2.8
		c-4.4-0.7-4.5,4.5-3.2,4.2c0.3-0.1,0.4-0.4,0.4-0.7c-0.2-2.1,0.7-3,2.7-2.6c0.4,0.1,0.7,0,1-0.1c2.2-1.1,2.8-2.7,1.8-5
		c-0.7-1.8,1.4-2.5,4-2.8c1.3-0.1,1.8-0.8,1.5-2.1c-0.3-1.5,0-2.8,1-4.2c0.2-0.2,0.5-0.4,0.8-0.4c1.9-0.3,3.3-1.4,4-3.2
		c0.9-0.5,1.9-0.7,3-0.5l-16.4,21.3c-0.6,0.9,0.6,1.8,1.4,1.9c0.4,1.2,1.3,1.6,2.5,1.4c2.7-0.3,5.3-0.3,8,0.1
		c0.6,0.1,1.1-0.7,1.7-0.5c3.8,1,6.8-0.9,10.3,0.8c-3.8,0.6-6.8,2.5-9,5.7c-0.2,0.2-0.1,0.5,0.1,0.7c1.7,1.4,1.6,1.7-0.3,0.9
		c-0.5-0.2-1.1,0.1-1.1,0.7c-0.5,3-0.1,6,1.1,8.9c0.1,0.3,0.4,0.5,0.7,0.5c4.5,0.3,8.9,0.3,13.2-0.1l1.3,1L80,142l-1.2,0.4
		c0.1-1.4-3-4.8-3.9-6.1c-0.2-0.3-0.5-0.4-0.8-0.4c-8.9,0.4-17.7-0.1-26.5-1.3c-0.3,0-0.6,0.1-0.8,0.3c-2.1,2.1-3.8,4.6-5.2,7.3
		h-1.3l5.7-8.1c0.2-0.3,0.3-0.6,0.3-0.9c0.3-4.5-0.6-8.7-2.5-12.7c-0.8-1.3-2.6-0.8-3.2,0.5l-0.3-1.2c1-0.8,3-1.7,3.8-0.5l1.3,3
		c0.5,1,1-1.1,0.7-1.6l0.7-0.5l1.7-2.4c0.2-0.2,0.1-0.6-0.1-0.7l-4.5-2.9c-1.9-1.1-3.6-0.9-5.2,0.6H38c-0.5-0.8-1.2-1.5-2.1-2
		l0.5-0.5c1.1,0.4,1.6,0,1.8-1.2l0.8-0.3c1.6,0,2.1-0.8,1.5-2.2l1-0.8l1-1l2.6-3.5l1.2-1.3c-6.1-8.7-6.1-17.3,0.1-25.8
		c0.5-0.7,1.2-1.2,2.1-1.4c0.3-0.1,0.6,0.1,0.6,0.4c0.1,0.7,0.1,0.9-0.4,1.4c-6.3,7-6.9,14.6-2.1,22.6
		C47,100.5,47.5,100.4,47.8,99.2z M55.7,97.6c0.4-1.2,0-1.5-1.1-0.6c-0.3,0.2-0.4,0.5-0.3,0.8C54.6,98.4,55.5,98.3,55.7,97.6z
		 M50.4,100.1c0.9,0.1,0.9-1.3,0-1.4c-1.1-0.2-1.4,0.2-0.8,1C49.8,100,50.1,100.1,50.4,100.1z M50.3,103.7c-0.4-0.4-1-0.3-1.4,0.1
		l0,0c-1,1,0.3,2.3,1.3,1.4l0,0C50.6,104.7,50.7,104.1,50.3,103.7z M45.1,106c-2.3-0.7-0.9,3.4,0.4,1.1
		C45.8,106.6,45.6,106.1,45.1,106z M43.8,110.9c-1.1-0.2-1.2,1.5-0.3,1.7c1,0.2,1.3-0.2,1-1.2C44.4,111.1,44.1,110.9,43.8,110.9z
		 M49.7,132.9l1.3-0.2c3,2-1.8-8.2-2-8.7l0.9,0.2l3.6,8.8c0.1,0.3,0.3,0.5,0.6,0.5c0.4,0.1,0.5-0.1,0.4-0.4c-1-3-2.1-6-3.3-9
		c2.1,2.8,3.7,5.8,4.8,9.1c0.2,0.5,0.7,0.9,1.2,0.5H58c2.5,0.6-1.4-6.7-1.8-7.3c-0.2-0.2-0.2-0.5-0.1-0.8c0.7-1.6,1.5,4,2.1,0.4
		c0.1-0.3-0.5-0.8-0.7-1.1c-0.2-0.2-0.2-0.5,0-0.9c1.7-2.4,3.7-4.5,6.2-6c0.6-0.5,0.6-1.3-0.4-0.8c-3.1,1.8-5.5,4.2-7.4,7.2
		c0.1,0.7-0.3,1-1,0.8c1.2-2.9,3.1-5.3,5.7-7.1c0.4-0.3,0.9-1.2-0.1-1.1c-0.3,0-0.5,0.2-0.8,0.5c-0.5,0.7-1.1,1.2-1.9,1.4
		c0.3-0.2,1.1-2.5,0.3-1.7l-3.3,3.4c-0.3,0.3-0.6,0.3-1,0.3l-0.5-0.1c0.7-0.5,2.4-1.9,2.4-2.9c0-1.1-0.4-1-1.4,0.2
		c-1.4,1.7-2.9,3.4-4.3,5.1c0.7-2.1,1.9-3.9,3.7-5.5c0.5-0.5,0-1-0.5-0.6c-2.2,1.6-3.8,3.7-4.6,6.2h-1c0.8-2.1,2.1-3.9,3.7-5.5
		c0.2-0.2,0.3-0.5,0.3-0.7c-1-1.9-4.8,4.4-5.1,5.3C45.2,126.3,47.8,130.1,49.7,132.9z"/>
	<path class="st15" d="M70.8,87.7L70.2,87l0.5-0.5c3.5-2.6,4.9-6,4.3-10.3c-0.1-0.4,0-0.7,0.2-0.9c1-1.3,0.7,1.3,0.7,1.7
		C76.2,81.5,74.5,85.1,70.8,87.7z"/>
	<path class="st26" d="M59,75.5c1.4,0.9,2.8,1,4.2,0.2h0.5l1,0.2h2.8l2.2-0.2h1c5.7,0.1-0.5,4.5,0.5,2.2c0.1-0.3,0-0.6-0.2-0.6
		c-2-0.8-3.3-0.1-3.8,1.9c-0.2,0.7-0.8,0.9-1.3,0.6c-0.2-0.1-0.2-0.5-0.1-0.8c0.2-0.3,0.3-0.7,0.2-1.1c0-0.3-0.3-0.5-0.6-0.7
		c-3.9-1.5-2.6,4.3-4.8,2.5c-0.2-0.2-0.3-0.5-0.1-0.8c1.9-3.6-3.8-0.5-2.2-3.3L59,75.5z"/>
	<path class="st27" d="M54.3,75.5c0.6,0.9,1.2,1.3,1.8,1c0.3-0.1,0.6-0.1,0.7,0.1c0.7,1.1-1,2.3,0.2,2.5c0.3,0.4,0.4,0.7,0,1.1
		c-2.4,2.2-4,4.8-4.9,7.9c-0.1,0.2-0.2,0.3-0.4,0.5l-0.3,0.2c-0.5-0.8-0.6-1.6-0.3-2.5c1.1-0.6,1.6-1.4,1.3-2.5
		c-0.1-0.3-0.3-0.4-0.6-0.4c-1.2,0.4-1.6,1.3-1,2.8l-1,3c-0.2,1,0.8,2.4,1.5,0.5c0.3,0,0.6,0,0.6,0.4c0,0.9,0.3,1.7,0.9,2.4
		l-0.3,0.8c-1.5-1.3-2.3-1.2-2.4,0.5L49.8,94L47,92.5l-0.2-0.2v-0.5c2-1.3,2.1-2.9,0.5-5c-0.2-0.3-0.1-0.8,0.3-0.9
		c2.2-0.6,2.7-2.1,1.7-4.6l0.5-0.7c2.4-0.1,3.6-1.4,3.7-3.8L54.3,75.5z M55.5,79.1c-0.7,0.1-3.9,1.8-2.5,2.7c0.2,0.2,0.6,0.1,0.9,0
		c0.9-0.5,1.5-1.3,1.9-2.2C56,79.2,55.8,79.1,55.5,79.1z"/>
	<path class="st5" d="M53.5,76.7c-0.1,2.4-1.3,3.7-3.7,3.8c-0.4,0.1-0.6-0.2-0.4-0.6C50.3,78.4,51.7,77.3,53.5,76.7z"/>
	<path class="st9" d="M100.8,78.5L99.2,78l0.2-0.5C101.8,76.6,102.2,77,100.8,78.5z"/>
	<path class="st5" d="M77.9,80.1c-0.2,0.4-0.4,0.4-0.5,0C75.8,76.5,79.8,76.4,77.9,80.1z"/>
	<path class="st2" d="M68.8,82l-3.4,0.3h-2.3L57.8,82l-0.1-0.8V79c1.4-1.5,1.8-1.2,1.4,1.1c-0.1,0.3,0.1,0.6,0.3,0.7
		c2.2,1,3.5,0.4,4-1.8c0.1-0.3,0.3-0.6,0.6-0.6c1-0.2,1.2,0.4,0.5,1.9c-0.1,0.2,0,0.5,0.2,0.6c2.2,0.8,3.5,0,3.9-2.3
		c0.1-0.4,0.3-0.6,0.6-0.6c0.5,0,0.7,0.3,0.7,1.1C69.9,80.3,69.5,81.3,68.8,82z"/>
	<path class="st24" d="M99.2,78l1.5,0.6c1.2,0.8,1.3,1.6,0.2,2.2c-0.2,0.1-0.4,0-0.5-0.2c-0.2-0.6-0.5-1.1-1-1.6l-0.8-0.7L99.2,78z"
		/>
	<path class="st12" d="M32.5,80.1c-1.6-0.9,1-3.4,1.1-0.6C33.5,80.3,33.2,80.5,32.5,80.1z"/>
	<path class="st25" d="M53,81.8c-1.5-0.9,1.7-2.6,2.5-2.7c0.4-0.1,0.5,0.1,0.4,0.4c-0.4,1-1,1.7-1.9,2.2C53.6,82,53.3,82,53,81.8z"
		/>
	<path class="st9" d="M57,79h0.7v2.2c-3.7,2.5-5.1,6-4.2,10.5l-0.7,0.7c-0.6-0.7-0.8-1.5-0.9-2.4c0-0.4-0.4-0.4-0.6-0.4v-1l0.3-0.2
		c0.2-0.1,0.4-0.3,0.4-0.5c0.9-3.1,2.5-5.7,4.9-7.9C57.4,79.7,57.3,79.4,57,79z"/>
	<path class="st8" d="M98.5,79.2C90.9,84,86.3,90.8,84.7,99.7c-0.9,0.2-1.1-1.5-0.8-2.1c2.7-7.4,6.5-13.1,11.4-17.1l1.2-0.6
		c0.1-0.1,0.3-0.3,0.7-0.7C97.5,78.9,98,78.9,98.5,79.2z"/>
	<path class="st5" d="M49.2,81.2c1,2.4,0.5,4-1.7,4.6c-0.3,0.1-0.5,0.4-0.4,0.7c1.6,2.1,1.7,3.9-0.4,5.2c-1.1-0.3-0.5-4.3-1.4-5.8
		c-0.2-0.3-0.3-0.6-0.2-0.9c0.2-1.6,0.8-3.1,1.9-4.4c0.2-0.2,0.3-0.2,0.2,0.1c-0.2,1-1.6,3.8-0.9,4.3c0.2,0.1,0.4,0,0.6-0.2
		c0,0,0-0.1,0.1-0.1l1.3-3.2C48.3,80.9,48.8,80.9,49.2,81.2z"/>
	<path class="st6" d="M41,82.5L39.9,88c-0.6,5.9,1,11.1,4.9,15.5l-2.6,3.5l-1.8-1c-2.6-3.1-4.7-6.6-6.3-10.3
		C34,95.5,34,95.1,34,94.8c0-0.8-0.3-1.5-1-2L32.7,92c0.1-0.9,0-1.7-0.3-2.6c-0.1-0.3,0-0.6,0.2-0.8l7.4-7.3
		C40.8,80.6,41.4,81.4,41,82.5z"/>
	<path class="st20" d="M57.7,81.2l0.1,0.8c-2.6,2.2-3.7,4.9-3.3,8.3l-0.2,1.2l-0.8,0.3C52.6,87.3,54,83.8,57.7,81.2z"/>
	<path class="st25" d="M77.6,83.5c-0.6,1.9-2.2,1.3-1.7-0.5C76.6,81.1,78.2,81.6,77.6,83.5z"/>
	<path class="st5" d="M57.8,82l5.2,0.3l-0.8,1.2c-1.3,0.4-2.3,1.2-3,2.4C57.8,85.6,57,86,57,87l-0.5,0.7l-2,2.6
		C54.1,86.9,55.2,84.2,57.8,82z"/>
	<path class="st28" d="M68.8,82c-0.5,1.5-1.4,2.3-3,2.5l-0.5-2.2L68.8,82z"/>
	<path class="st27" d="M63,82.3h2.3l0.5,2.2v1.2H63l-0.8-2.2L63,82.3z"/>
	<path class="st12" d="M27.9,82.5c0.5,0,1,0.6,0.5,1.1c-0.9,0.8-1.3,0.7-1.1-0.4C27.4,82.8,27.6,82.6,27.9,82.5z"/>
	<path class="st12" d="M33.4,83.1c0.7,0.3,0.7,0.7,0.1,1.1C31.9,85.3,31,82.1,33.4,83.1z"/>
	<path class="st5" d="M51,86.3h-0.2c-0.6-1.5-0.3-2.4,0.9-2.8c0.2-0.1,0.5,0,0.6,0.3C52.6,84.8,52.1,85.7,51,86.3z"/>
	<path class="st6" d="M62.2,83.5l0.8,2.2L59.2,86C59.9,84.7,60.9,83.9,62.2,83.5z"/>
	<path class="st18" d="M95.6,83.5c0.6,0,1.1,0.5,0.6,1C95,85.4,94.6,85.2,95,84C95,83.7,95.3,83.5,95.6,83.5z"/>
	<path class="st12" d="M101.3,84.6c0,1.1-0.4,1.4-1,1C98.2,84.1,101.4,82.8,101.3,84.6z"/>
	<path class="st9" d="M26.5,85v0.7C24.8,84.4,24.8,84.2,26.5,85z"/>
	<path class="st2" d="M63,85.7h2.8c1.6,0.4,3.2,0.5,4.8,0.1l0.3,0.7L70.2,87l-1,0.2c-3.1-0.8-4.7,0.3-4.7,3.2c0,0.4,0.1,0.6,0.4,0.6
		c0.5,0,1.1-2,1.4-2.5c0.1-0.3,0.4-0.5,0.7-0.6c2-0.5,0.2,2,0.8,2.9l-0.5,0.7l-3.5,0.3l-2-0.3l0.3-0.8c1.4,0.7,1.9,0.5,1.5-0.8
		c-0.1-0.2-0.1-0.5,0-0.9l0.3-1.4c0.1-0.3-0.2-0.6-0.5-0.5l-2.3,0.1c-0.2,0-0.4,0.2-0.6,0.6L59.2,90h-0.5c-1.7-0.8,1.9-3.5-1.8-3
		c0-1.1,0.8-1.4,2.2-1.1L63,85.7z"/>
	<path class="st25" d="M50.8,86.2H51c-0.3,0.9-0.2,1.7,0.3,2.5v1c-0.7,1.9-1.7,0.6-1.5-0.5C49.8,89.3,50.8,86.2,50.8,86.2z"/>
	<path class="st19" d="M73.8,86.7c1.6-1.2,2.5,0,1,1.2C73.2,89.1,72.2,87.9,73.8,86.7z"/>
	<path class="st12" d="M27.5,88.8c-0.1,0.2-0.3,0.2-0.4,0.1c-0.7-0.6-0.8-1.1-0.2-1.6C27.9,86.4,28.4,87.5,27.5,88.8z"/>
	<path class="st14" d="M57,87c3.6-0.5,0.1,2.2,1.8,3c-0.2,0.9-0.6,1.1-1.4,0.7c-0.3-0.2-0.5-0.5-0.4-0.8c0.1-0.7,0.9-2.5-0.5-2.3
		L57,87z"/>
	<path class="st14" d="M62,90.7l0.4-2c0.1-0.3-0.1-0.7-0.3-0.7c-1-0.2-1.3,1.6-1.6,2.3c-0.4,0.8-1.4,1-1.2-0.2l1.2-2.3
		c0.2-0.3,0.4-0.6,0.6-0.6l2.3-0.1c0.3,0,0.6,0.3,0.5,0.5L63.6,89c-0.1,0.4-0.1,0.7,0,0.9C64,91.2,63.5,91.5,62,90.7z"/>
	<path class="st14" d="M69.2,87.3L69,90c0,0.7-0.4,1-1.3,0.8c-0.6-0.9,1.2-3.4-0.8-2.9c-0.3,0.1-0.6,0.3-0.7,0.6
		C66,89,65.5,91,64.9,91c-0.3,0.1-0.4-0.1-0.4-0.6C64.6,87.5,66.2,86.5,69.2,87.3z"/>
	<path class="st26" d="M70.2,87l0.5,0.7V89l-1.3,1H69l0.2-2.7L70.2,87z"/>
	<path class="st11" d="M101.4,87.6c-4.1,3-6.9,6.1-8.3,11.1c-0.7,2.4-1,2.4-1-0.1c1.3-4.8,4.6-8.6,8.7-11.3
		C100.9,87.3,102.3,87,101.4,87.6z"/>
	<path class="st25" d="M78.2,87.5l0.5,0.5c-0.8,1.7-2,2.7-3.8,3C74.8,88.7,75.9,87.5,78.2,87.5z"/>
	<path class="st15" d="M44.6,90.8c-1.3,0.7,0.1-6.6,0.4-0.8C45,90.3,44.8,90.6,44.6,90.8z"/>
	<path class="st2" d="M56.5,87.7c0.3,0,0.5,0,0.7,0.2c0.2,0.3-0.2,1.7-0.2,2.1c-0.1,0.3,0.1,0.6,0.4,0.8c0.8,0.4,1.2,0.2,1.4-0.7
		h0.5c-0.2,1.2,0.8,1,1.2,0.2c0.3-0.7,0.6-2.5,1.6-2.3c0.2,0.1,0.4,0.4,0.3,0.7l-0.4,2l-0.3,0.8c-1.1-0.2-2.1,0-3,0.5h-1
		c-1.1-0.5-2.3-0.7-3.5-0.5l0.2-1.2L56.5,87.7z"/>
	<path class="st18" d="M96.2,89.3c-0.2,0.5-1,0.6-1.3,0.1C93.8,87.8,97.5,86.7,96.2,89.3z"/>
	<path class="st30" d="M39.9,88c0.1,2.2,2.2,14.6,6,14.2l-1.2,1.3C40.9,99.1,39.3,93.9,39.9,88z"/>
	<path class="st18" d="M91.7,89.1c0.1,0,0.2,0.2,0.1,0.3c-0.3,0.9-0.7,1.2-1.4,0.9c-0.3-0.1-0.5-0.5-0.4-0.8
		C90.1,88.9,90.7,88.8,91.7,89.1z"/>
	<path class="st13" d="M29.9,89.8C29.5,90,29.2,90.1,29,90C27.3,88.9,27.6,88.8,29.9,89.8z"/>
	<path class="st26" d="M29,90c0.2,0,0.5,0,0.9-0.2l0.8,0.4v0.5c-3,0.4,0.4,1.1,0.3,1.9c0,0.3-0.3,0.5-0.7,0.6
		c-0.9,0.2-1.3-0.1-1.3-0.9c0-0.4-0.1-0.5-0.4-0.3c-0.6,0.3-0.7,0.8-0.5,1.7c-1.4-0.1-1.9-0.8-1.5-2.2C27.9,91.7,28.6,91.2,29,90z"
		/>
	<path class="st12" d="M69,90h0.5c0,0.5,0.1,0.8,0.4,0.9c0.2,0.1,0.4,0.3,0.3,0.5c-0.5,1,0,2.2-0.5,3.1c-0.9,1.3-0.9,2.6-0.2,4
		l1,0.7c2.6,1.5,3.5,3.7,2.5,6.6c-0.3,0.9,0.3,1.8,1.2,2c1.6,0.4,5.8,2.2,3.5,4.5h-0.5c-0.2-0.5-0.3-1.9-0.8-2.1
		c-4.1-1.8-5.1-1.8-4.4-6.9c0.1-1-0.4-2-1.4-2.3c-2.4-0.9-3.3-2.7-2.8-5.6c0.1-0.3-0.1-0.6-0.4-0.7c-1.3-0.5-0.6-1.9,0.3-1.3
		c1,0.7,1.3,0.4,0.8-1c-0.2-0.5-1-0.4-1.3-0.8l0.5-0.7C68.6,91,69,90.7,69,90z"/>
	<path class="st17" d="M30.7,90.7c0.6,0.5,0.9,1.2,0.9,1.9c0,0.4,0.1,0.7,0.2,0.9c0.8,1.3,1.1,2.7,0.9,4.2L31.5,97
		c0.8-1.7-1.3-4-2.7-2.8l-0.5-0.5c-0.3-0.9-0.1-1.5,0.5-1.7c0.3-0.1,0.4,0,0.4,0.3c-0.1,0.8,0.4,1.1,1.3,0.9
		c0.4-0.1,0.6-0.3,0.7-0.6C31.1,91.8,27.7,91.2,30.7,90.7z"/>
	<path class="st6" d="M99.6,91.6c1.3,2.5,0.8,2.8-1.4,0.9c-0.6-0.5-0.1-1.5,0.6-1.4C99.1,91.1,99.4,91.3,99.6,91.6z"/>
	<path class="st4" d="M25.5,91.2l1.2,0.3c-0.4,1.3,0.1,2.1,1.5,2.2l0.5,0.5c1,0.6,1.3,1.3,0.9,2.2c-0.6-1.2-1.6-1.9-2.8-2.3
		c-0.4-0.1-0.5,0-0.4,0.4c0.1,0.7,1.1,1.2,0.8,1.9c-2,4.2,1.8-0.6,1.8,1.3l-0.8,4.5v0.7c-0.9,0.5,3.4,2.5,3.8,2.8
		c2.5,3.6,2.7-1.8,0.5-0.5c-1.3-0.3-1.9-1.1-1.8-2.4l0.8-1h0.2c-0.3,1.9,0.4,2.9,2.2,2.9c1.1,0,1.3,1.3,1.4,2.2c-0.2,2,0.8,3,3,3
		l0.5,1.2l-0.8,0.3l-1-0.3l-0.8-0.5l-0.5-0.5l-1.8-1c0.2-1.2-0.6-1-1.1-1.3c-1.9-1.1-3.7-2.3-5.4-3.6c-0.4-0.4-1.3-0.4-1,0.2
		c0.3,0.5,1.4,0.7,1.5,1.5c-0.6,0.3-0.9,0.7-0.8,1.2c-1,1.3-0.4,5-0.5,7.3c-0.1,2-0.1,8.1,0,18.4c0,1.7-0.9,3.4,0.8,5.1
		c-1,0.3-0.8,1.3-0.1,1c1.1-1.1,2.3-1.9,3.9-2.2l-4,3.1c-0.3,0.2-0.5,0.5-0.6,0.7c-0.2,0.7-0.2,1.5,0,2.3c0.1,0.3,0.3,0.5,0.6,0.5
		c4.4,0.2,8.7,0,13-0.6h1.3l3-0.2l1.5,0.4c2.3-0.1,4.1,0,5.3,0.1c0.5,0,0.8-0.1,1-0.5h1.2c1.1,0.8,2.2,0.8,3.3,0l1,0.2l4.8,0.1
		c0.3,0,0.6,0.1,0.9,0.3c0.8,0.7,1.4,0.5,1.6-0.6l1.2,0.3c1.1,0.6,2.1,0.4,2.8-0.5l1.5,0.5c1,0.5,2-0.1,2.9,0.3
		c0.6,0.3,1.1,0.1,1.6-0.5l1.5,0.2l2.2,0.2l1.2-0.4c4.5,0.8,9.1,1,13.7,0.7c1.6-0.1,1.3,1.1,0,1.1c-7.7-0.2-15.4-0.2-23.2,0.2
		c-2.8-0.6-3.1-0.1-1,1.5c0.6,0.5,1.2,1.9,0.3,2c-0.1,0-0.1,0-0.2-0.1l-2.5-2.1c-1.1-1.6-2.6-2-4.6-1.3L57,144c-1,0-3.2,0-4.2,0
		c-2.3-0.3-4.7-0.3-7,0.1H26.6c-0.5,0-0.9-0.4-0.9-0.9L25.5,91.2z M26.5,100c-0.8,1.2-0.7,1.8,0.1,1.9c0.3,0,0.5-0.2,0.6-0.5
		l0.2-1.4c0.9-0.4,1-0.8,0.2-1.1C27,98.6,26.4,99.2,26.5,100z"/>
	<path class="st6" d="M61.8,91.5l2,0.3l-1,1.7L50,110l-0.6,1c-1.2,0.9-2,2.1-2.4,3.5l-0.3,0.3c-0.9-0.2-2.1-1-1.4-1.9
		C45.3,112.8,61.8,91.5,61.8,91.5z"/>
	<path class="st25" d="M67.2,91.5c0.4,0.4,1.2,0.3,1.3,0.8c0.5,1.4,0.3,1.7-0.8,1c-0.3-0.2-0.6-0.2-0.8,0c-0.4,0.5-0.3,0.9,0.5,1.3
		c0.3,0.1,0.4,0.4,0.4,0.7c-0.5,2.9,0.4,4.8,2.8,5.6c0.9,0.3,1.5,1.3,1.4,2.3c-0.7,5.1,0.2,5.1,4.4,6.9c0.6,0.2,0.6,1.6,0.8,2.1
		l-0.5,1l-1,0.5c-0.6,0-1.1,0.1-1.5,0.5l-0.5,0.1c-1.5,0.2-2.1-0.3-1.6-1.4c0.1-0.2,0.1-0.5-0.1-0.6c-0.4-0.5-0.8-0.1-0.8,0.6
		c0.2,5.3-4.4-0.3-6.7,1.7c-0.3,0.3-0.6,0.4-0.8,0.5c-2.1,0.4-3.1-0.3-2.9-2.2c0.1-1.1-1.2-1.6-1.4-0.1h-0.2c0-0.9-1.3-1.1-1.2-0.1
		c0.2,2.3-0.9,3.1-3.4,2.3c-0.3-0.1-0.6-0.4-0.6-0.7l-0.1-1.7c0-0.7-0.7-1.1-1.1-0.5c-0.4,0.7,1.2,2.4-0.5,1.8
		c-0.2-0.1-0.3-0.4-0.2-0.7c0.3-0.8,0.1-1.2-0.6-1.1c-0.3,0-0.5,0.3-0.5,0.6c0.1,2.6-1.3,3.2-4,1.9c0.5-1.4,1.3-2.6,2.4-3.5
		c3,0,5.9,0.6,8.7,0.4c4.1-0.2,8.2-0.3,12.3-0.2c0.8,0,0.7-1,0.1-1.2l0.8-0.3l2.3,2.7c0.2,0.3,0.6,0.5,0.9,0.2
		c0.1-0.2,0-0.5-0.2-0.8c-4.4-5.4-7.4-11.5-9-18.4c-1.2-0.2-2.1-0.2-2.5,0l1-1.7L67.2,91.5z M70.6,103.3c0.1,0,0.3-0.1,0.3-0.3
		c0.1-0.3-0.1-0.6-0.4-0.7c-1.1-0.4-1.2-0.2-0.6,0.7C70.1,103.2,70.4,103.4,70.6,103.3z M75.3,110.9c-0.6,0.1-0.4,1.1,0.3,1.1
		c0.7,0,0.9-0.2,0.6-0.7C75.9,111,75.6,110.8,75.3,110.9z M66.5,113.2c0.8,0.7,1.3,0.8,1.5,0.1c0.1-0.3,0-0.6-0.3-0.8
		c-0.9-0.5-2.2-0.8-2.9,0.2c-0.5,0.7-0.2,0.9,0.9,0.4C66,112.9,66.3,113,66.5,113.2z M48.9,113.7c0.1,0.6,1.1,0.4,1.1-0.3
		c0-0.7-0.2-0.9-0.7-0.6C49,113.1,48.8,113.4,48.9,113.7z M56.1,114c0.8,0.3,1.1-0.9,0.3-1.1C55.2,112.3,55.3,113.8,56.1,114z
		 M62.6,114c2.6,0.1-0.9-2.6-0.6-0.5C62,113.7,62.3,114,62.6,114z M69.3,112.8c-1-0.3-0.6,1.1,0.1,1.2
		C70.7,114.2,70.1,112.9,69.3,112.8z"/>
	<path class="st8" d="M57.8,92h1c-0.7,1.8-2.1,2.8-4,3.2c-0.3,0.1-0.6,0.2-0.8,0.4c-1,1.3-1.3,2.7-1,4.2c0.3,1.3-0.2,2-1.5,2.1
		c-2.6,0.3-4.7,1-4,2.8c1,2.2,0.4,3.9-1.8,5c-0.3,0.1-0.6,0.2-1,0.1c-2-0.4-2.9,0.5-2.7,2.6c0,0.4-0.1,0.7-0.4,0.7
		c-1.3,0.3-1.2-4.9,3.2-4.2c1.3,0.3,2.6-1.7,1.9-2.8c-2-3.7,1.9-5.1,4.9-5.4c0.3,0,0.5-0.3,0.4-0.5C50.8,93.3,56.7,95.6,57.8,92z"/>
	<path class="st9" d="M46.8,92.2l0.2,0.2l-0.5,0.8c-0.2,2.1,0.5,3.9,2,5.5l-0.7,0.5C47,98.2,42.7,92.1,46.8,92.2z"/>
	<path class="st25" d="M52.5,93.2l-0.7,1L50,93.7C50.2,92.1,51,91.9,52.5,93.2z"/>
	<path class="st28" d="M33,92.8c0.7,0.5,1.1,1.1,1,2c0,0.4,0,0.7,0.1,0.9c1.6,3.7,3.7,7.2,6.3,10.3c-1-0.2-1.7-0.6-2.2-1.4
		C35.6,101,33.8,97.1,33,92.8z"/>
	<path class="st12" d="M91.9,93.2c1.1-0.4,1.3-0.1,0.8,1.1c-0.1,0.3-0.4,0.5-0.7,0.4c-0.4-0.1-0.7-0.4-0.7-0.8
		C91.4,93.6,91.6,93.4,91.9,93.2z"/>
	<path class="st24" d="M46.5,93.2l1.5,3.4c0.4,0.8,1.8,1.1,0.5,2.1C46.9,97.2,46.2,95.4,46.5,93.2z"/>
	<path class="st14" d="M65.2,93.5c0.6,6,2.6,11.4,6.1,16.3l-0.8,0.3L50,110l12.7-16.5C63.2,93.3,64,93.3,65.2,93.5z"/>
	<path class="st11" d="M71.3,109.7c-3.4-4.8-5.4-10.2-6.1-16.3c1.7,6.8,4.7,13,9,18.4c0.2,0.3,0.3,0.6,0.2,0.8
		c-0.2,0.3-0.6,0.1-0.9-0.2C73.6,112.4,71.3,109.7,71.3,109.7z"/>
	<path class="st6" d="M96,94.4c-0.4-2.8,5.3,1.1,0.6,0.6C96.3,95,96,94.7,96,94.4z"/>
	<path class="st2" d="M31.5,97l-0.8,0.4c-1.1-0.1-1.4,0-0.8,0.3c-0.1,1.6,0.4,2.9,1.6,3.9l-0.8,1h-0.5c-0.5-1.9-1.2-2.1-2-0.5
		l0.8-4.5l0.7-1.2c0.3-0.9,0-1.7-0.9-2.2C30.2,93,32.3,95.4,31.5,97z"/>
	<path class="st18" d="M50,93.7l1.8,0.5c-2.2,3.5-2.8,3.4-2-0.2L50,93.7z"/>
	<path class="st26" d="M29.7,96.5L29,97.7c0.1-1.9-3.8,3-1.8-1.3c0.3-0.7-0.7-1.2-0.8-1.9c-0.1-0.4,0-0.5,0.4-0.4
		C28.2,94.6,29.1,95.3,29.7,96.5z"/>
	<path class="st16" d="M76.4,95.5c-1.2-0.2-2.3,0-3.6,0.4c-0.3,0.1-0.4,0-0.2-0.3c1.6-2.7,6.9-1.8,4.8,1.9c-0.5,0.8-1.4,1.4-2.7,1.5
		c-0.5,0.1-0.8,0-0.9-0.3c0-0.2,0.2-0.5,0.5-0.6c1.3-0.3,2.1-1,2.4-2.1C76.9,95.8,76.7,95.5,76.4,95.5z"/>
	<path class="st12" d="M88.4,95.4c0.2,1.2-1.5,0.7-1.4-0.2C87.1,94,88.3,94.6,88.4,95.4z"/>
	<path class="st5" d="M78.4,98.9c-0.2-0.1-0.2-0.3-0.2-0.4l1.1-2.3c0.1-0.3,0.3-0.3,0.4,0l1.1,2.2C81.2,99.4,78.9,99.1,78.4,98.9z"
		/>
	<path class="st6" d="M95,98c-1.8,0.9-0.6-2.1,2.4-2c1.3,0,1.3,0.3,0.2,0.8C96.8,97.2,96,97.6,95,98z"/>
	<path class="st12" d="M55.1,98.2c-0.3,0-0.6-0.1-0.7-0.5c-0.1-0.3,0-0.6,0.3-0.8c1.1-0.8,1.4-0.6,1.1,0.6
		C55.6,97.9,55.4,98.2,55.1,98.2z"/>
	<path class="st26" d="M31.5,97l1.2,0.8l0.3,0.5c-0.5,0.5-1.4,1.4-0.6,2l2.5,1.3l0.3,0.3c0,0.6-0.9,1.2-0.4,1.8
		c0.7,0.6,1.9,2.2,2.6,2.3c0.6,0.1,0.8,0.5,0.5,1c-0.1,0.2-0.4,0.3-0.7,0.2c-0.6-0.3-1.3-0.4-2-0.3c0-0.9-0.3-2.2-1.4-2.2
		c-1.8,0-2.5-1-2.2-2.9l-1-4.2L31.5,97z M34,102.7c0.3-0.4,0-0.6-0.8-0.6c-0.2,0-0.4,0.2-0.3,0.4C33.1,102.9,33.7,103.2,34,102.7z"
		/>
	<path class="st24" d="M70.5,99.2l-1-0.7C71.1,96.2,71.4,96.5,70.5,99.2z"/>
	<path class="st17" d="M30.8,97.5l1,4.2h-0.2c-1.2-1.1-1.7-2.4-1.6-3.9C29.4,97.5,29.6,97.4,30.8,97.5z"/>
	<path class="st17" d="M35,101.5l-2.5-1.3c-0.8-0.5,0.1-1.5,0.6-2l0.2-0.1c0.1-0.1,0.3,0,0.4,0.1L35,101.5z"/>
	<path class="st6" d="M95.8,100.3h-1.2c0.9-1.1,2-1.8,3.4-2.1c0.4-0.1,0.4,0,0.2,0.3C97.6,99.3,96.8,99.9,95.8,100.3z"/>
	<path class="st27" d="M49.6,99.7c-0.6-0.8-0.3-1.1,0.8-0.9c0.8,0.1,0.8,1.6,0,1.4C50.1,100.1,49.8,100,49.6,99.7z"/>
	<path class="st26" d="M27.5,100h-1c-0.2-0.8,0.4-1.4,1.2-1.1C28.5,99.3,28.4,99.6,27.5,100z"/>
	<path class="st12" d="M89.5,100.1c-0.5-0.4,0-1.1,0.6-1c1.3,0.2,1.4,0.5,0.3,1C90.1,100.3,89.7,100.3,89.5,100.1z"/>
	<path class="st23" d="M81,101.2c-0.7,1.8-2,2.7-3.8,2.5c3.6-2.7,3-3.4-1.7-2.1c-0.3,0.1-0.4,0-0.2-0.3C77,99.3,78.9,99.3,81,101.2z
		"/>
	<path class="st10" d="M26.5,100h1l-0.2,1.4c0,0.3-0.3,0.5-0.6,0.5C25.8,101.8,25.7,101.2,26.5,100z"/>
	<path class="st22" d="M94.5,100.2h1.2l-1,1.2c-0.2,0.3-0.5,0.5-0.8,0.5C92.4,102.3,92.6,101.7,94.5,100.2z"/>
	<path class="st29" d="M30.3,102.7c-0.6,0.5-1.2,0.6-2,0.2v-0.7C29.1,100.7,29.8,100.8,30.3,102.7z"/>
	<path class="st2" d="M97.8,101.5c-0.7,0.8-1.5,4-3,1.7C95.2,101.5,96.2,100.9,97.8,101.5z"/>
	<path class="st24" d="M81,101.2l1.2,0.3l-1.9,3.3c-0.4,0.6-0.3,0.7,0.2,0.2c0.9-0.9,2-1,3.2-0.2l-0.5,1c-1.9,0.3-3.7,0.2-5.4-0.2
		c-1.3-0.5-1.5-1-0.6-1.8C79,103.9,80.3,103.1,81,101.2z"/>
	<path class="st27" d="M86.7,101.6c0.7,0.6,0.6,1-0.3,1.1c-0.3,0.1-0.6-0.1-0.7-0.4C85.6,101.8,86.2,101.2,86.7,101.6z"/>
	<path class="st25" d="M82.2,101.5c0.9,0.9,1.4,2,1.5,3.2c-1.2-0.8-2.2-0.7-3.2,0.2c-0.5,0.5-0.6,0.4-0.2-0.2L82.2,101.5z"/>
	<path class="st17" d="M97.8,101.5l1.7,1.2l-2.6,3.9c-0.7,1.1-2.5,0.9-2.6-0.3c0-0.2,0.1-0.6,0.2-0.9c0.4-0.6,0.3-1.3-0.1-1.9
		l0.3-0.3C96.3,105.5,97.1,102.3,97.8,101.5z"/>
	<path class="st29" d="M35.2,101.8c0.7,1.4,1.7,2.3,3,2.8c0.4,0.8,1.2,1.2,2.2,1.4l1.8,1l-1,1c-0.2-0.6-0.6-0.7-1.1-0.3
		c-1.3,0.2-1.6,0.6-0.9,1.3l-1,0.8c-2.1,0-3.1-1.1-3-3c0.7-0.2,1.3-0.1,1.9,0.3c0.3,0.1,0.6,0.1,0.7-0.1c0.3-0.6,0.1-0.9-0.5-1
		c-0.7,0-1.9-1.6-2.6-2.3C34.4,103,35.2,102.4,35.2,101.8z"/>
	<path class="st14" d="M33.2,102.8c-0.2-0.2-0.6-0.7,0-0.8c0.8,0,1,0.2,0.7,0.6C33.8,103,33.5,103,33.2,102.8z"/>
	<path class="st18" d="M69.9,103c-0.7-0.9-0.5-1.2,0.6-0.7c0.3,0.1,0.5,0.4,0.4,0.7C70.7,103.4,70.2,103.4,69.9,103z"/>
	<path class="st3" d="M102.5,102.4c2.3,2.8,4.3,6,6,9.6c2,4.3-3.6,8.6-5.9,4.1c-0.1-0.2-0.5-0.3-0.7-0.1c-1.8,1.8-3.8,3.4-6,0.9
		c-3-3.5,3.4-11.4,5.6-14.4C101.8,102.2,102.3,102.2,102.5,102.4z"/>
	<path class="st21" d="M30.3,102.7h0.5c-0.1,1.3,0.4,2.1,1.8,2.4l-0.5,0.5c-0.4-0.2-4.7-2.3-3.8-2.8C29,103.4,29.7,103.3,30.3,102.7
		z"/>
	<path class="st18" d="M48.8,103.8c1-1,2.3,0.4,1.3,1.4C49.2,106.1,47.8,104.7,48.8,103.8z"/>
	<path class="st21" d="M34,109c-0.6,0-1.3,0.2-1.7-0.4c-1.1-1.3-2.5-2.2-4.2-2.8c-0.1-0.8-1.2-1-1.5-1.5c-0.3-0.7,0.6-0.6,1-0.2
		c1.7,1.3,3.5,2.5,5.4,3.6C33.4,108,34.2,107.8,34,109z"/>
	<path class="st26" d="M32,105.7l0.5-0.5C34.7,103.9,34.5,109.3,32,105.7z"/>
	<path class="st9" d="M83.2,105.7c2,1-0.8,3.4-1.5,4.3l-1,1c-0.5-1.2-0.3-2,0.8-2.4c3.1-1.2-0.7-2.5-2.8-1.1l-1-2
		C79.6,105.9,81.4,106,83.2,105.7z"/>
	<path class="st9" d="M91.2,105.5c0.5,1.1,4.2,4,3.5,4.7c-0.2,0.2-0.5,0.2-0.8-0.1l-2.4-2.3c-0.2-0.2-0.6-0.3-0.8-0.1l-2.9,2.8
		c-0.3,0.2-0.2,0.4,0.2,0.4l5.4,0.1c0.3,0,0.6,0.3,0.5,0.5l-0.5,2.7c0,0.3-0.3,0.4-0.7,0.4l-6.5,0.1c-0.3,0-0.6,0.2-0.7,0.5
		c-1,1.7-1.5,1.4-1.5-0.8c0-0.2,0.1-0.6,0.3-0.9l0.8-1.6c0.1-0.2-0.1-0.4-0.3-0.4h-3.6l7.4-4.9c0.2-0.1,0.3-0.4,0.1-0.7
		C88.3,105.1,89.1,104.9,91.2,105.5z M87.4,113.5c0.3,0.2,0.6,0.2,0.9,0.1c0.4-0.1,0.4-0.3,0.1-0.5c-1.7-1.6-4.1,0.2-3.4,1.1
		c0.1,0.1,0.3,0.1,0.5-0.1C86.1,113.6,86.6,113.1,87.4,113.5z"/>
	<path class="st9" d="M28,105.7c1.7,0.6,3.1,1.5,4.2,2.8c0.5,0.6,1.2,0.4,1.8,0.4l1.8,1c-1.8,0,0.3,2,0.5,0.5L37,111l-0.8,1.5
		l-0.5,0.5c-0.8-0.2-1.4-0.6-1.8-1.1c-0.7-0.8-1-0.7-1,0.3V127c-0.4,1.8-0.3,3.7,0.2,5.7c0.2,1.8-0.5,3-2,3.7
		c-1.5,0.3-2.7,1-3.7,2.1c-0.7,0.6-1.1-0.5,0-0.9c3-1.5,4.4-3.6,4.2-6.2c-0.4-7.2-0.6-14.4-0.7-21.5c0-0.4-0.1-0.7-0.4-0.8l-3.5-2.2
		C27.2,106.5,27.4,106,28,105.7z"/>
	<path class="st27" d="M45.1,106c0.5,0.1,0.7,0.7,0.4,1.1C44.2,109.4,42.8,105.3,45.1,106z"/>
	<path class="st27" d="M80.8,111c-1.6-0.2-2.6-1.1-3-2.7l1.1-0.8c2.2-1.4,5.9-0.1,2.8,1.1C80.5,109,80.2,109.8,80.8,111z"/>
	<path class="st30" d="M27.2,107l3.5,2.2c0.2,0.1,0.4,0.5,0.4,0.8c0.1,7.2,0.3,14.3,0.7,21.5c0.1,2.6-1.3,4.7-4.2,6.2
		c-1.6-1.7-0.8-3.3-0.8-5.1c-0.1-10.3,0-16.4,0-18.4C26.9,111.9,26.3,108.2,27.2,107z"/>
	<path class="st26" d="M41.2,108l-1,0.8l-1,0.3c-0.7-0.7-0.4-1.2,0.9-1.3C40.7,107.3,41,107.4,41.2,108z"/>
	<path class="st17" d="M40.2,108.7c0.6,1.4,0.1,2.2-1.5,2.2l-0.5-1.2l1-0.8L40.2,108.7z"/>
	<path class="st10" d="M35.8,110l0.5,0.5C36.1,112,33.9,109.9,35.8,110z"/>
	<path class="st11" d="M50,110h20.5c0.7,0.2,0.6,1.2-0.1,1.2c-4.1-0.1-8.2-0.1-12.3,0.2c-2.9,0.2-5.7-0.4-8.7-0.4L50,110z"/>
	<path class="st18" d="M44.5,111.4c0.4,0.9,0.1,1.3-1,1.2c-0.3-0.1-0.6-0.3-0.6-0.6C42.6,110.8,44.1,110.5,44.5,111.4z"/>
	<path class="st18" d="M76.1,111.3c0.7,0.8-1.1,0.9-1.2,0.1C74.9,110.7,75.8,110.8,76.1,111.3z"/>
	<path class="st10" d="M37,111l1,0.3c-0.1,1.2-0.7,1.6-1.8,1.2L37,111z"/>
	<path class="st2" d="M35.7,113c0.9,0.5,1.6,1.2,2.1,2c-0.9,1.5-0.9,2.9,0,4.2c0.5,0.6,1.4,2.1-0.5,1.8c-0.3,0-0.5,0.1-0.5,0.4
		c-0.3,2.5-1.5,4.4-3.8,5.7v-14.8c0-1,0.3-1.1,1-0.3C34.4,112.4,34.9,112.8,35.7,113z"/>
	<path class="st11" d="M59.3,112.7c-1,0.7-0.2,1.8,0.6,1.1c0.4-0.4,0.2-0.8-0.4-1.2c0.2-1.5,1.5-1,1.4,0.1c-0.2,1.9,0.8,2.6,2.9,2.2
		c0.2-0.1,0.5-0.2,0.8-0.5c2.3-2,6.8,3.6,6.7-1.7c0-0.4,0.2-0.7,0.4-0.8c0.3-0.1,0.7,0.4,0.5,0.8c-0.5,1.1,0.1,1.6,1.6,1.4l-0.2,1.9
		l-0.2,0.1l-4,0.4c-3.5-1.7-6.5,0.1-10.3-0.8c-0.6-0.2-1.1,0.5-1.7,0.5c-2.6-0.4-5.3-0.4-8-0.1c-1.3,0.2-2.1-0.2-2.5-1.4l0.3-0.3
		c2.7,1.3,4.1,0.7,4-1.9c0-0.3,0.2-0.6,0.5-0.6c0.7-0.1,0.9,0.3,0.6,1.1c-0.1,0.3,0,0.6,0.2,0.7c1.7,0.6,0.1-1.1,0.5-1.8
		c0.4-0.6,1-0.2,1.1,0.5l0.2,1.7c0,0.3,0.3,0.5,0.6,0.7c2.4,0.8,3.5,0,3.4-2.3C58,111.7,59.3,111.8,59.3,112.7z"/>
	<path class="st11" d="M65.7,113c-1.1,0.5-1.4,0.3-0.9-0.4c0.7-0.9,2-0.7,2.9-0.2c0.3,0.2,0.4,0.5,0.3,0.8c-0.2,0.7-0.7,0.7-1.5-0.1
		C66.3,113,66,112.9,65.7,113z"/>
	<path class="st17" d="M77.2,112.3h0.5L78,113c-0.5,4.6-1.8,5-3.8,1.2c0.4-0.3,0.9-0.5,1.5-0.5c0.9,2.9,1.2,2.7,1-0.5L77.2,112.3z"
		/>
	<path class="st13" d="M86.5,113.4c-0.3,0.1-0.6,0.4-0.8,0.7c-0.2,0.2-0.5,0.4-0.6,0.2c-0.7-0.9,1.7-2.7,3.4-1.1
		c0.3,0.3,0.2,0.4-0.1,0.5C87.8,113.9,87,113.2,86.5,113.4z"/>
	<path class="st24" d="M49.3,112.9c0.8-0.7,0.9,1.1,0.1,1.2C48.7,114.1,48.8,113.2,49.3,112.9z"/>
	<path class="st8" d="M55.5,113.3c-0.3-1,1.5-0.6,1.4,0.2C56.8,114.4,55.6,114,55.5,113.3z"/>
	<path class="st16" d="M59.3,112.7h0.2c0.6,0.4,0.7,0.8,0.3,1.2C59.1,114.5,58.3,113.5,59.3,112.7z"/>
	<path class="st18" d="M62,113.4c-0.3-2.1,3.2,0.6,0.6,0.5C62.3,114,62,113.7,62,113.4z"/>
	<path class="st24" d="M70.1,113.4c0.2,0.5,0,0.7-0.7,0.6c-0.3-0.1-0.6-0.3-0.6-0.6C68.5,112.3,69.9,112.8,70.1,113.4z"/>
	<path class="st2" d="M76.8,113.3c0.2,3.2-0.2,3.3-1,0.5L76.8,113.3z"/>
	<path class="st18" d="M43.8,114.5l-0.5,0.6l-2.5,0.1c-0.3,0-0.6,0.1-0.9,0.4c-1.2,1.1-1.2,2.1,0,3.2c0.8,0.6,1.8-0.4,1.9-1.2
		c0.1-0.4-0.1-0.4-0.3-0.2c-1.3,1.1-1.7,0.8-1.3-0.9c0.1-0.2,0.3-0.4,0.6-0.3c1.2,0.3,2.3,0.2,3.3-0.4c0.8,0.3,3.5,2,2.6,3
		c-0.4,0.3-0.9,0.2-1.5-0.5l-1.5-1c-0.2-0.1-0.5,0-0.5,0.2c-0.1,0.9,0.3,1.5,1.3,1.7c0.3,0.1,0.5,0.3,0.5,0.6c0,0.7,0.4,1.2,1.1,1.5
		c0.3,0.5-0.2,2.6-0.7,1.6l-1.3-3c-0.7-1.2-2.8-0.4-3.8,0.5c-2.3-1-2.9-2.7-1.8-5C40.1,113.5,41.9,113.4,43.8,114.5z"/>
	<path class="st8" d="M43.8,114.5l4.5,2.9c0.2,0.1,0.2,0.4,0.1,0.7l-1.7,2.4c-0.8-0.5-1.3-1.3-1.6-2.4c0.8,1.1,2.1,0.8,1.6-0.3
		c-0.7-1-1.6-1.7-2.7-2.1l-0.8-0.7L43.8,114.5z"/>
	<path class="st23" d="M37.8,115h0.7c-1.1,2.3-0.5,4,1.8,5l0.3,1.2c-0.1,0.7-0.6,1.7-0.3,2.4c2.4,5.8,1.5,11-2.5,15.7l-1.5-1
		c0.4-2.8-0.6-4.6-3-5.5c-0.5-2-0.6-3.9-0.2-5.7c2.3-1.4,3.5-3.3,3.8-5.7c0-0.3,0.3-0.4,0.5-0.4c1.8,0.3,1-1.2,0.5-1.8
		C36.9,117.9,36.8,116.5,37.8,115z M39.9,128.6c0.9,0.7,1.1,0.5,0.7-0.5l-1.5-3.7c-0.3-0.7-0.5-0.6-0.6,0.1
		C38.1,126.2,38.6,127.5,39.9,128.6z M36.6,125.3c-1.8,1.7,3-0.2,0.5-0.2C36.9,125.1,36.7,125.1,36.6,125.3z M37.4,133.3
		c0.6-0.6,0.7-1.4,0.2-2.3c-0.9-1.8-2.1-2.1-3.6-1c-1.9,1.4,1.4,2.7,2.3,3.3c0.2,0.2,0.4,0.5,0.4,0.8c0,0.6,0.2,1.1,0.7,1.6
		c0.3,0.3,0.5,0.2,0.5-0.2c0.1-0.7,0-1.2-0.5-1.6C37.3,133.8,37.3,133.5,37.4,133.3z M40.2,130.6c-1.7,0.5-1.6,2.9-1.3,4.2
		c0.3,1,0.6,1,0.8,0l0.9-3.8C40.8,130.8,40.5,130.5,40.2,130.6z"/>
	<path class="st25" d="M43.2,115l0.8,0.7c-1,0.6-2.1,0.7-3.2,0.4c-0.3-0.1-0.6,0.1-0.6,0.3c-0.4,1.8,0,2.1,1.3,0.9
		c0.3-0.2,0.4-0.2,0.3,0.2c-0.1,0.8-1.1,1.8-1.9,1.2c-1.2-1-1.2-2.1,0-3.2c0.2-0.2,0.6-0.4,0.9-0.4L43.2,115z"/>
	<path class="st2" d="M73.2,116.3l-2.7,2.3c-0.1,0.1-0.1,0.1,0,0.1c2.7,0.4,2.5,1-0.5,2.1c-0.4,0.1-0.4,0.2,0,0.2h2.9l0.2,2.5
		c0,0.3-0.2,0.5-0.4,0.6c-1.2,0.4-1.1,0.8,0.4,1.1c0.3,0.1,0.5-0.1,0.7-0.4c0.5-1,1.2-0.9,2,0.2c0.2,0.2,0.1,0.6-0.1,0.8
		c-2.2,2.3-2.8,5.1-1.8,8.2c-4.3,0.4-8.7,0.4-13.2,0.1c-0.3,0-0.6-0.2-0.7-0.5c-1.2-3-1.6-5.9-1.1-8.9c0.1-0.5,0.6-0.8,1.1-0.6
		c1.9,0.7,2.1,0.4,0.3-0.9c-0.2-0.2-0.3-0.5-0.1-0.7c2.2-3.1,5.2-5,9-5.7L73.2,116.3z M69,121.3c0.5-0.1,0.5-0.2,0-0.2
		c-2.6,0-3.4,0.9-2.3,2.7c0.1,0.2,0.5,0.3,0.7,0.2c0.7-0.3,2.8-1.8,3.4-1c0.2,0.2,0.1,0.5-0.1,0.8c-0.8,1-0.7,1.9,0.3,2.5
		c0.3,0.2,0.4,0.1,0.3-0.2c-0.3-1.1-0.3-2.1,0.2-3.2c0.1-0.3,0-0.6-0.2-0.7c-0.8-0.3-1.8-0.5-2.3,0.4c-0.5,0.7-1.1,0.9-1.9,0.4
		C66.3,122.3,68.5,121.5,69,121.3z M69.2,128l-0.5,0.5c-2.9,0-3.3,0.9-1.2,2.6c0.9,0.7,1.7,1,2.2,0.8l2.2-1c0.3-0.1,0.3-0.3,0-0.5
		c-0.5-0.3-0.7-0.7-0.7-1.3c0-0.4,0-0.7-0.2-0.9c-0.6-0.7-1.4-1.3-2.2-1.6c-0.2-0.1-0.3,0-0.2,0.2L69.2,128z M69.2,133
		c1.1,0.6,2,0.6,2.8-0.1c0.8-0.8-1.9-0.6-2.3-0.4l-4-1.4c-0.2-0.1-0.3,0-0.4,0.1C64.6,132,68.8,133,69.2,133z"/>
	<path class="st4" d="M73.2,116.3l0.2-0.1c2.2,0.4,3.2,1.6,3,3.5c0,0.4-0.3,0.6-0.5,0.7l-2.2,0.2L73,121h-2.9c-0.4,0-0.4-0.1,0-0.2
		c3-1,3.2-1.7,0.5-2.1c-0.1,0-0.1-0.1,0-0.1L73.2,116.3z M74.1,117.7c-0.8,0-1.1,0.4-0.8,1.2c0.1,0.3,0.3,0.5,0.7,0.6
		c2.7,0.7,3,0.2,1-1.4C74.7,117.8,74.4,117.7,74.1,117.7z"/>
	<path class="st23" d="M45.1,118.1c0.3,1,0.8,1.8,1.6,2.4L46,121c-0.7-0.3-1.1-0.8-1.1-1.5c0-0.3-0.2-0.5-0.5-0.6
		c-1-0.2-1.5-0.8-1.3-1.7c0-0.2,0.2-0.3,0.3-0.2C43.5,117,45.1,118.1,45.1,118.1z"/>
	<path class="st18" d="M47.8,123.5c-0.9,0.8-0.9,1.7-0.1,2.8c0.9,1.2,1.6,3.5,2,6.6c-1.9-2.9-4.5-6.7-3-10.2c0.3-0.9,4-7.3,5.1-5.4
		c0.1,0.2,0,0.4-0.3,0.7C49.8,119.6,48.6,121.4,47.8,123.5z"/>
	<path class="st18" d="M50.1,123.4l-1.4,0.1c0.9-2.6,2.4-4.7,4.6-6.2c0.3-0.2,0.6-0.2,0.7,0.1c0.1,0.2,0,0.4-0.2,0.6
		C52,119.5,50.8,121.3,50.1,123.4z"/>
	<path class="st8" d="M58,119c-0.9,0.4-1.6,1.1-2,2c-0.8,0.3-1.3,0.8-1.8,1.5c-0.8,1.4-1.2,1.4-1.1,0.2c0-0.5,0.9-1,0.9-1.6
		c0.3,0,0.7-0.1,0.9-0.3l3.3-3.4C59.1,116.5,58.3,118.8,58,119z"/>
	<path class="st24" d="M55,125.2c-1,0-1.3,0.4-0.9,1.2c1.7,3.3,2.7,5.7,3.2,7.3c-0.5,0.4-1,0-1.2-0.5c-1.2-3.3-2.8-6.3-4.8-9.1
		c-0.7-0.6-1.1-0.5-1.3,0.2l-1-0.3h-1l-0.2-0.5h1l1.4-0.1c1.5-1.7,2.9-3.4,4.3-5.1c1-1.2,1.5-1.3,1.4-0.2c0,1-1.7,2.4-2.4,2.9
		c-1.6,1-1.7,2-0.5,3c0.4,1.7,0.7,1.7,1,0c0.6-0.2,0.9-0.6,0.8-1.2l1.3-1.5c0.9-0.5,1.6-1.3,2-2.2c0.8-0.3,1.4-0.8,1.9-1.4
		c0.2-0.3,0.5-0.5,0.8-0.5c0.9-0.1,0.5,0.8,0.1,1.1C58.1,119.9,56.2,122.3,55,125.2z"/>
	<path class="st24" d="M58,133.7c-0.3-2.8-3.4-7.2-3-8.5c0.7,0.2,1.1,0,1-0.8c1.8-3,4.3-5.5,7.4-7.2c0.3-0.2,0.7-0.2,0.8,0
		c0.1,0.2-0.2,0.6-0.4,0.8c-2.5,1.6-4.5,3.6-6.2,6c-0.6,0.9,0.8,1.2,0.7,2c-0.6,3.6-1.4-2-2.1-0.4c-0.1,0.2-0.1,0.5,0.1,0.8
		C56.6,127,60.5,134.3,58,133.7z"/>
	<path class="st26" d="M75,118c2,1.7,1.6,2.1-1,1.4c-0.3-0.1-0.6-0.3-0.7-0.6C72.7,117.6,74.2,117.3,75,118z"/>
	<path class="st16" d="M58,119c-0.4,1-1,1.7-2,2.2V121C56.4,120.1,57.1,119.4,58,119z"/>
	<path class="st2" d="M40.2,142.4c-4.3,0.6-8.6,0.8-13,0.6c-0.3,0-0.6-0.2-0.6-0.5c-0.2-0.8-0.2-1.6,0-2.3c0.1-0.2,0.3-0.5,0.6-0.7
		l4-3.1c1.6-0.7,2.3-1.9,2-3.7c2.4,0.9,3.4,2.7,3,5.5c-0.6,1.2-0.8,2.4-0.4,3.7c0.2,0.9,0.5,0.9,0.9,0.1l1-2.7
		c4.1-4.6,4.9-9.8,2.5-15.6c-0.4-0.7,0.1-1.7,0.3-2.4c0.6-1.3,2.4-1.8,3.2-0.5c2,4,2.8,8.2,2.5,12.7c0,0.3-0.1,0.6-0.3,0.9
		L40.2,142.4z"/>
	<path class="st16" d="M73.8,120.5c-0.7,2,0.1,3.2,2.2,3.5c1.1,0.2,1.3,0.6,0.8,1.2c-1.6,1.9-2.4,4.1-2.5,6.5c0,0.3,0.1,0.6,0.4,0.8
		c0.8,0.6,0.9,1.5,0.5,2.5l-1.3-1c-1-3.1-0.4-5.8,1.8-8.2c0.2-0.2,0.2-0.5,0.1-0.8c-0.8-1.1-1.5-1.2-2-0.2c-0.1,0.3-0.4,0.4-0.7,0.4
		c-1.4-0.4-1.6-0.7-0.4-1.1c0.3-0.1,0.5-0.4,0.4-0.6L73,121L73.8,120.5z"/>
	<path class="st9" d="M53.5,121H54c0,0.7-0.8,1.1-0.9,1.6c-0.1,1.2,0.2,1.2,1.1-0.2l0.5,0.3c0.1,0.7-0.1,1.1-0.8,1.2h-1
		C51.8,122.9,51.9,121.9,53.5,121z"/>
	<path class="st5" d="M56,121l0.1,0.2l-1.3,1.5l-0.5-0.3C54.6,121.8,55.2,121.3,56,121z"/>
	<path class="st4" d="M69,121.3c-0.6,0.1-2.5,0.9-2,1.6c0.7,0.5,1.5,0.4,2-0.3c0.5-0.9,1.5-0.7,2.3-0.4c0.2,0.1,0.3,0.4,0.2,0.7
		c-0.5,1.1-0.5,2.2-0.2,3.2c0.1,0.3,0,0.4-0.3,0.2c-1-0.7-1.1-1.5-0.3-2.5c0.2-0.3,0.3-0.6,0.1-0.8c-0.7-0.8-2.8,0.7-3.4,1
		c-0.3,0.1-0.6,0-0.7-0.2c-1-1.8-0.3-2.7,2.3-2.7C69.5,121.1,69.5,121.2,69,121.3z"/>
	<path class="st16" d="M47.8,123.5L48,124c0.1,2.8,2.4,5.7,3,8.7l-1.3,0.2c-0.4-3.2-1.1-5.4-2-6.6C46.8,125.2,46.9,124.3,47.8,123.5
		z"/>
	<path class="st3" d="M100.3,146.9c2.3-0.3,3.1,0.8,2.4,3.3c-0.1,0.3-0.4,0.5-0.7,0.5h-7.8c-0.3,0-0.6-0.2-0.7-0.5
		c-0.8-2.4-0.1-3.4,2.2-3.2c0.3,0,0.5-0.2,0.5-0.4c0-4.6-1.1-16,1.3-19.7c4.1-6.5,13.1-2.7,13.3,4.6c0.1,2-1,2.6-3.1,1.9
		c-0.3-0.1-0.4-0.4-0.4-0.6c0.8-6.4-7.5-7.8-7.5-0.8c0,4.9,0,9.7,0,14.6C99.8,146.7,100,146.9,100.3,146.9z"/>
	<path class="st12" d="M49,124c0.2,0.5,5,10.7,2,8.7c-0.7-3-3-6-3-8.7H49z"/>
	<path class="st12" d="M51.2,124.1c1.2,3,2.3,6,3.3,9c0.1,0.3,0,0.5-0.4,0.4c-0.2,0-0.4-0.2-0.6-0.5l-3.6-8.8
		C50.1,123.6,50.5,123.5,51.2,124.1z"/>
	<path class="st16" d="M54,124c-0.3,1.7-0.7,1.6-1,0H54z"/>
	<path class="st2" d="M39.9,128.6c-1.3-1-1.8-2.4-1.5-4.1c0.1-0.7,0.4-0.8,0.6-0.1l1.5,3.7C41.1,129.1,40.8,129.2,39.9,128.6z"/>
	<path class="st11" d="M37.1,125c2.5,0-2.3,1.9-0.5,0.2C36.7,125.1,36.9,125.1,37.1,125z"/>
	<path class="st16" d="M55,125.2c-0.4,1.2,2.7,5.7,3,8.5h-0.8c-0.5-1.6-1.5-4-3.2-7.3C53.7,125.7,54,125.3,55,125.2z"/>
	<path class="st14" d="M68.8,128.5c0.5,0.3,0.1,0.7-0.3,0.5c-0.6-0.2-1.2,0.5-0.6,0.8c1.3,0.3,1.8-0.3,1.3-1.8l-0.6-1.3
		c-0.1-0.2-0.1-0.3,0.2-0.2c0.9,0.4,1.6,0.9,2.2,1.6c0.2,0.2,0.2,0.5,0.2,0.9c-0.1,0.6,0.2,1,0.7,1.3c0.3,0.2,0.3,0.4,0,0.5l-2.2,1
		c-0.5,0.2-1.3-0.1-2.2-0.8C65.4,129.3,65.8,128.5,68.8,128.5z"/>
	<path class="st21" d="M69.2,128c0.4,1.4,0,2-1.2,1.9c-0.2,0-0.4-0.2-0.4-0.5c0.1-0.4,0.4-0.5,0.9-0.4c0.4,0,0.8-0.2,0.3-0.5
		L69.2,128z"/>
	<path class="st15" d="M37.5,134c0.4,0.4,0.6,0.9,0.5,1.6c-0.1,0.4-0.3,0.4-0.5,0.2c-0.5-0.4-0.7-1-0.7-1.6c0-0.3-0.1-0.6-0.4-0.8
		c-0.9-0.6-4.2-1.9-2.3-3.3c1.5-1.2,2.7-0.8,3.6,1c0.4,0.9,0.4,1.7-0.2,2.3C37.3,133.5,37.3,133.8,37.5,134z"/>
	<path class="st2" d="M39,134.8c-0.4-1.2-0.4-3.7,1.3-4.2c0.2-0.1,0.4,0,0.5,0.2c0,0.1,0,0.1,0,0.2l-0.9,3.8
		C39.6,135.8,39.3,135.8,39,134.8z"/>
	<path class="st17" d="M69.8,132.5l-0.5,0.5c-0.4-0.1-4.6-1-3.9-1.8c0.1-0.1,0.3-0.1,0.4-0.1L69.8,132.5z"/>
	<path class="st29" d="M69.2,133l0.5-0.5c0.4-0.2,3.1-0.4,2.3,0.4C71.3,133.6,70.3,133.7,69.2,133z"/>
	<path class="st6" d="M78.8,142.7l-2.2-0.2l-2.9-4.2c-0.2-0.2-0.5-0.4-0.8-0.3l-3.8,0.3c-1.2,0.1-0.3,2.9,0,3.7
		c-0.7,0.9-1.7,1.1-2.8,0.5c0-1.3-0.4-2.6-1-3.8c-0.1-0.3-0.4-0.4-0.8-0.4h-6.2c-0.3,0-0.6,0.2-0.8,0.4c-0.6,1.1-0.8,2.3-0.7,3.5
		c-1.1,0.8-2.2,0.8-3.3,0l0.9-3.6c0.1-0.3-0.1-0.6-0.4-0.6l-5.4-0.8c-0.3,0-0.6,0.1-0.8,0.4l-3.3,4.6l-3,0.2
		c1.4-2.7,3.1-5.1,5.2-7.3c0.2-0.2,0.5-0.3,0.8-0.3c8.8,1.2,17.6,1.7,26.5,1.3c0.3,0,0.6,0.1,0.8,0.4
		C75.8,137.9,78.8,141.3,78.8,142.7z"/>
	<path class="st2" d="M53.5,142.2h-1.2c0.9-2.6,0.2-3.8-2-3.8c-2.5,0.1-3.4,2.2-4.3,4.2l-1.5-0.4l3.3-4.6c0.2-0.3,0.5-0.4,0.8-0.4
		L54,138c0.3,0,0.5,0.3,0.4,0.6L53.5,142.2z"/>
	<path class="st2" d="M76.5,142.5l-1.5-0.2l-1.7-2.3c-0.2-0.3-0.5-0.4-0.8-0.5c-2.3-0.6-3,0.4-1.9,3L69,142c-0.3-0.8-1.2-3.5,0-3.7
		l3.8-0.3c0.4,0,0.7,0.1,0.8,0.3L76.5,142.5z"/>
	<path class="st24" d="M36.3,138.2l1.5,1l-1,2.7c-0.3,0.9-0.6,0.9-0.9-0.1C35.5,140.6,35.7,139.4,36.3,138.2z"/>
	<path class="st2" d="M66.2,142.5l-1.2-0.3c-0.2-1-0.6-2.6-1.8-2.7l-4.3,0.1c-0.2,0-0.5,0.2-0.5,0.5l-0.6,2.3l-1-0.2
		c-0.1-1.3,0.1-2.5,0.7-3.5c0.1-0.3,0.4-0.4,0.8-0.4h6.2c0.3,0,0.6,0.2,0.8,0.4C65.8,139.9,66.2,141.2,66.2,142.5z"/>
	<path class="st6" d="M52.3,142.2c-0.2,0.4-0.5,0.5-1,0.5c-1.2-0.1-3-0.1-5.3-0.1c1-2,1.9-4.1,4.3-4.2
		C52.5,138.4,53.2,139.7,52.3,142.2z"/>
	<path class="st6" d="M75,142.2c-0.4,0.7-1,0.8-1.6,0.5c-0.9-0.4-1.9,0.2-2.9-0.3c-1-2.6-0.4-3.6,1.9-3c0.3,0.1,0.6,0.3,0.8,0.5
		L75,142.2z"/>
	<path class="st6" d="M65,142.2c-0.3,1.1-0.8,1.3-1.6,0.6c-0.2-0.2-0.5-0.3-0.9-0.3l-4.8-0.1l0.6-2.3c0.1-0.3,0.3-0.5,0.5-0.5
		l4.3-0.1C64.4,139.6,64.8,141.2,65,142.2z"/>
	<path class="st13" d="M52.8,144c0,0.4,0.1,0.7,0.4,1c0.1,0.2,0,0.4-0.2,0.5c-2.5,0.4-5-0.1-7.2-1.4C48.1,143.8,50.4,143.7,52.8,144
		z"/>
	<path class="st31" d="M55.2,144H57c0,0.3,0.1,0.5,0.3,0.6c1.7,0.4,1.9,1.4,0.6,2.8c-0.1,1.3-1.1,1.8-2.9,1.5l-0.2-0.5
		c0.7-0.4,0.7-0.9,0-1.4c0.1-0.5,0-0.9-0.3-1.2c-0.2-0.2-0.2-0.4,0-0.6L55.2,144z"/>
	<path class="st22" d="M57,144l5.5,0.2c-1.1,1.3-2.7,2.3-4.6,3.1c1.3-1.5,1.1-2.4-0.6-2.8C57.1,144.5,57,144.3,57,144z"/>
	<path class="st32" d="M67.1,145.6c-1.8-0.5-2.8-0.1-3.1,1.3c-1.8,1.9-2.7,5.1-6.2,3.3c-0.2-0.1-0.5-0.2-0.9-0.1l-6.8,0.5
		c-0.2,0-0.4-0.1-0.3-0.3c0.1-0.5,4.6-1.4,5.2-1.5c1.8,0.3,2.8-0.2,2.9-1.5c1.9-0.8,3.5-1.8,4.6-3.1C64.5,143.6,66,144.1,67.1,145.6
		z M60.8,149c1.2-1.8-1.4,0-1.9,0.2c-0.3,0.2-0.3,0.3,0,0.5C59.7,150,60.3,149.8,60.8,149z"/>
	<path class="st26" d="M70.5,144.3v0.5l-1,1C67.4,144.1,67.7,143.6,70.5,144.3z"/>
	<path class="st21" d="M70.5,144.7c1.9,2.1,1.8,3.5-0.5,4.3c-0.3,0.1-0.7,0.1-1,0l-5-2.1c0.3-1.4,1.3-1.8,3.1-1.3l2.5,2.1
		c0.2,0.2,0.6,0,0.6-0.2c0.1-0.6-0.1-1.1-0.7-1.7L70.5,144.7z"/>
	<path class="st32" d="M54.8,147c0.7,0.5,0.7,1,0,1.4c-0.7-0.1-4.2,0.5-4.3,0.4c-0.1-0.2,0-0.5,0.2-0.7
		C51.9,147.3,53.3,147,54.8,147z"/>
	<path class="st18" d="M60.8,149c-0.5,0.7-1.1,0.9-1.9,0.7c-0.4-0.1-0.4-0.3,0-0.5C59.4,149.1,62,147.3,60.8,149z"/>
</g>
</svg>
