<?xml version="1.0" encoding="utf-8"?>
<!-- Generator: Adobe Illustrator 27.0.1, SVG Export Plug-In . SVG Version: 6.00 Build 0)  -->
<svg version="1.1" id="Слой_1" xmlns="http://www.w3.org/2000/svg" xmlns:xlink="http://www.w3.org/1999/xlink" x="0px" y="0px"
	 viewBox="0 0 128 168" style="enable-background:new 0 0 128 168;" xml:space="preserve">
<style type="text/css">
	.st0{fill:#D8D8D8;}
	.st1{fill:#AAAAAA;}
	.st2{fill:#FFFFFF;}
	.st3{fill:#C4332C;}
</style>
<g>
	<path class="st0" d="M107.9,161.7H20.1c-6.9,0-12.4-5.6-12.4-12.4V18.8c0-6.9,5.6-12.4,12.4-12.4h87.8c6.9,0,12.4,5.6,12.4,12.4
		v130.5C120.3,156.1,114.8,161.7,107.9,161.7z"/>
	<path class="st1" d="M106.9,157.8H21.1c-5.5,0-9.9-4.4-9.9-9.9V19.8c0-5.5,4.4-9.9,9.9-9.9h85.8c5.5,0,9.9,4.4,9.9,9.9v128.1
		C116.8,153.4,112.4,157.8,106.9,157.8z"/>
	<path class="st2" d="M106.6,154.8H21.4c-4.4,0-8-3.6-8-8V20.9c0-4.4,3.6-8,8-8h85.2c4.4,0,8,3.6,8,8v125.9
		C114.6,151.2,111,154.8,106.6,154.8z"/>
</g>
<g>
	<path class="st3" d="M20.9,21.8c0.4,2.7-0.6,3.6-3.1,2.9c-0.3-0.1-0.5-0.4-0.5-0.6l0.1-5.9c0-0.3,0.2-0.5,0.5-0.5h14.3
		c0.4,0,0.7,0.1,0.8,0.4l1.3,2.3c0.1,0.2,0.1,0.6-0.1,0.9c-4.3,6.9-7.1,14.4-8.5,22.4c-0.1,0.3-0.3,0.6-0.6,0.6l-2.8,0.1
		c-0.2,0-0.4-0.3-0.4-0.5c1.3-7.7,3.8-15,7.5-21.8c0.1-0.3,0-0.4-0.2-0.4c0,0-7.8-0.1-7.8-0.1C21.1,21.3,20.9,21.5,20.9,21.8
		C20.9,21.7,20.9,21.8,20.9,21.8z"/>
	<path class="st3" d="M48.5,46.4c2.6-3.5,7-0.2,5,3.9c-1.4,2.9-3.1,5.7-5.2,8.4c-0.1,0.2-0.4,0.2-0.6,0.1c0,0,0,0-0.1-0.1
		c-2.7-3.2-10.2-13.3-1.7-13.6c0.3,0,0.5,0.2,0.7,0.5c0.3,0.6,0.6,0.9,1.1,1.1C48,46.8,48.3,46.6,48.5,46.4z"/>
	<path class="st3" d="M78.9,45.9c1.1,2.5,3.1-2.5,6-0.3c1.5,1.1,1.8,2.5,1,4.1c-1.6,3.3-3.4,6.2-5.6,9c-0.1,0.2-0.4,0.2-0.6,0.1
		c0,0,0,0-0.1-0.1c-1.6-1.9-11-14.7-1.4-13.3C78.5,45.4,78.7,45.6,78.9,45.9z"/>
	<path class="st3" d="M26.1,52c1.8-2.6,3.6-3,5.6-1.3c1.6,1.4,1.9,3,0.9,4.9c-1.9,3.7-4,7-6.3,10c-0.1,0.1-0.3,0.2-0.5,0.1
		c0,0,0,0-0.1-0.1c-3.1-3.5-5.3-7.3-6.6-11.5c-0.1-0.3-0.1-0.6,0-0.9c1.6-4,3.7-4.4,6.4-1.3C25.6,52.2,25.9,52.2,26.1,52
		C26.1,52.1,26.1,52.1,26.1,52z"/>
	<path class="st3" d="M64.7,62.4c0.9-1.7,2.9-2,4.3-0.7c3.2,2.9-2.4,10-4.7,12.9c-0.1,0.2-0.4,0.2-0.6,0.1c0,0,0,0-0.1-0.1
		c-2.5-2.9-4.4-6.1-5.7-9.6c-0.7-1.8-0.1-3,1.8-3.7c1.6-0.6,2.8-0.2,3.6,1.1C63.8,63.3,64.2,63.3,64.7,62.4z"/>
	<path class="st3" d="M52.1,77.2c4.9,2.2-1.2,10.2-3.8,13.5c-0.1,0.2-0.4,0.2-0.6,0c0,0,0,0-0.1-0.1C45,87.5,37.4,77,45.9,77.2
		c0.3,0,0.5,0.2,0.7,0.5c0.3,0.6,0.8,1,1.3,1.1c0.3,0,0.6-0.1,0.7-0.4C49.5,76.9,50.6,76.5,52.1,77.2z"/>
	<path class="st3" d="M81,78c1.1-1.2,2.2-1.5,3.4-0.7c4.5,2.8-2.4,11-4.1,13.3c-0.1,0.2-0.4,0.2-0.6,0.1c0,0,0,0-0.1-0.1
		C78,88.8,68.8,76,78,77.2c0.3,0,0.5,0.2,0.7,0.5c0.3,0.7,0.9,1,1.6,0.9C80.5,78.5,80.7,78.3,81,78z"/>
	<path class="st3" d="M96,116.8c-3-3.5,3.4-11.6,5.8-14.5c0.1-0.2,0.4-0.2,0.6-0.1c0,0,0,0,0.1,0.1c2.5,3.3,4.5,6.3,5.8,9.1
		c2.3,5-3.5,9-5.5,4.9c-0.2-0.4-0.6-0.5-0.9-0.3c-0.1,0-0.2,0.1-0.2,0.2C99.8,118.2,98,119.1,96,116.8z"/>
	<path class="st3" d="M48,121.6c-3.4,2.3-5.3,1.8-5.8-1.4c-0.5-3.3,3.7-8.3,5.5-10.9c0.1-0.3,0.5-0.3,0.7,0l5.2,8.3
		c0.9,1.5,0.7,2.9-0.6,4.4c-1.4,1.6-2.8,1.4-4.3-0.3C48.6,121.5,48.3,121.4,48,121.6z"/>
	<path class="st3" d="M79.7,121.5c-2.7,3.8-7.3,0.1-5.2-4.1c1.4-2.7,3.1-5.4,5.2-7.9c0.1-0.2,0.4-0.2,0.6-0.1c0,0,0,0,0.1,0.1
		c2.2,2.4,6.6,8.1,5.2,11.5c-1,2.4-2.7,2.6-5.2,0.4C80.2,121.3,79.9,121.3,79.7,121.5L79.7,121.5z"/>
	<path class="st3" d="M99.1,146.7l7.8-0.1c0.2,0,0.4-0.3,0.4-0.6c-0.5-2.5,0.4-3.5,2.9-2.8c0.3,0.1,0.6,0.4,0.6,0.6l-0.1,6
		c0,0.3-0.3,0.5-0.6,0.5h-14c-0.3,0-0.6-0.1-0.9-0.3c-0.8-0.9-1.8-2.1-1.4-3.3c4.3-6.9,7.2-14.4,8.5-22.4c0-0.3,0.3-0.5,0.6-0.6
		c1-0.2,1.9-0.2,2.9,0.1c0.3,0.1,0.4,0.4,0.4,0.7c-1.5,7.6-4,14.8-7.3,21.7c-0.1,0.2,0,0.4,0.1,0.4C99,146.7,99,146.7,99.1,146.7z"
		/>
</g>
</svg>
