<?xml version="1.0" encoding="UTF-8" standalone="no"?>
<svg xmlns="http://www.w3.org/2000/svg" version="1.2" baseProfile="tiny" viewBox="0 0 128 168">
<g stroke-width="0.00" fill="none" stroke-linecap="butt">
<path stroke="#d9d9d9" stroke-opacity="0.588" vector-effect="non-scaling-stroke" d="
  M 15.96 152.00
  Q 19.00 155.23 22.07 155.23
  Q 62.84 155.27 103.62 155.24
  C 112.09 155.23 114.49 150.61 114.50 142.53
  Q 114.51 83.23 114.49 23.94
  C 114.49 15.19 110.18 12.76 101.73 12.75
  Q 63.37 12.73 25.02 12.77
  C 19.70 12.77 16.63 14.01 14.11 18.49"
/>
<path stroke="#f9fafa" stroke-opacity="0.988" vector-effect="non-scaling-stroke" d="
  M 15.96 152.00
  C 15.15 149.87 14.01 148.15 14.00 145.79
  Q 13.92 82.15 14.11 18.49"
/>
<path stroke="#e29996" vector-effect="non-scaling-stroke" d="
  M 30.65 35.31
  C 30.14 40.47 25.03 43.23 21.25 38.69
  A 0.82 0.76 62.2 0 0 20.45 38.41
  C 14.44 39.89 23.40 46.09 28.63 43.84
  C 35.57 40.85 35.20 28.68 33.05 23.03
  C 27.72 9.09 10.11 22.96 19.71 33.54
  Q 23.72 37.97 30.24 35.02
  A 0.29 0.29 -9.5 0 1 30.65 35.31"
/>
<path stroke="#e29996" vector-effect="non-scaling-stroke" d="
  M 52.56 45.44
  Q 50.31 43.85 48.47 46.35
  A 0.76 0.60 -60.0 0 1 47.70 46.66
  Q 47.01 46.41 46.61 45.56
  A 0.80 0.72 75.6 0 0 45.92 45.10
  C 37.45 45.36 45.01 55.53 47.63 58.67
  A 0.40 0.40 -45.8 0 0 48.26 58.66
  C 50.53 55.74 56.58 48.27 52.56 45.44"
/>
<path stroke="#e29996" vector-effect="non-scaling-stroke" d="
  M 85.36 46.20
  C 82.57 42.09 80.12 49.04 78.61 45.60
  A 0.78 0.68 76.0 0 0 77.94 45.13
  C 69.43 45.33 77.02 55.54 79.63 58.67
  A 0.41 0.37 42.7 0 0 80.26 58.67
  L 85.54 50.52
  Q 86.88 48.45 85.36 46.20"
/>
<path stroke="#e29996" vector-effect="non-scaling-stroke" d="
  M 25.49 52.05
  Q 21.40 47.32 19.06 53.31
  A 1.46 1.41 47.3 0 0 19.04 54.27
  Q 21.14 60.58 25.60 65.62
  A 0.43 0.42 -46.3 0 0 26.25 65.60
  Q 29.81 61.15 32.59 55.56
  Q 33.95 52.83 31.67 50.80
  Q 28.77 48.21 26.09 52.03
  A 0.39 0.38 42.5 0 1 25.49 52.05"
/>
<path stroke="#e29996" vector-effect="non-scaling-stroke" d="
  M 63.55 57.42
  Q 61.89 54.96 59.85 56.04
  C 54.82 58.68 62.02 67.33 63.62 69.35
  A 0.38 0.38 42.7 0 0 64.24 69.33
  L 69.52 61.30
  Q 70.62 59.64 69.74 57.62
  Q 67.81 53.17 64.19 57.46
  A 0.40 0.40 48.1 0 1 63.55 57.42"
/>
<path stroke="#e29996" vector-effect="non-scaling-stroke" d="
  M 47.54 68.01
  Q 45.74 65.33 43.42 66.89
  Q 40.94 68.55 42.19 71.26
  Q 44.36 76.00 47.61 80.09
  A 0.38 0.38 43.0 0 0 48.22 80.07
  L 53.58 71.87
  Q 55.11 69.53 53.14 67.28
  Q 50.71 64.51 48.10 68.03
  A 0.35 0.34 46.0 0 1 47.54 68.01"
/>
<path stroke="#e29996" vector-effect="non-scaling-stroke" d="
  M 79.57 68.01
  C 77.46 64.60 73.20 67.17 74.15 71.04
  Q 75.02 74.64 79.61 79.96
  A 0.43 0.42 -45.8 0 0 80.26 79.95
  C 83.07 76.41 90.00 67.26 82.76 66.21
  A 1.10 1.06 -61.8 0 0 81.88 66.49
  L 80.17 68.09
  A 0.39 0.39 -37.2 0 1 79.57 68.01"
/>
<path stroke="#e29996" vector-effect="non-scaling-stroke" d="
  M 48.48 99.89
  C 50.59 103.66 55.19 100.44 53.80 96.72
  Q 52.38 92.91 48.37 87.90
  A 0.39 0.37 42.8 0 0 47.76 87.91
  L 42.48 96.06
  Q 40.87 98.55 43.02 100.90
  Q 45.33 103.43 47.64 99.86
  A 0.49 0.49 46.8 0 1 48.48 99.89"
/>
<path stroke="#e29996" vector-effect="non-scaling-stroke" d="
  M 76.23 101.47
  Q 77.63 102.06 80.05 100.03
  A 0.39 0.39 51.0 0 1 80.61 100.09
  Q 82.96 103.25 85.21 100.53
  Q 86.97 98.39 85.68 96.33
  L 80.39 87.92
  A 0.38 0.35 -42.8 0 0 79.78 87.92
  C 76.99 91.58 70.89 99.21 76.23 101.47"
/>
<path stroke="#e29996" vector-effect="non-scaling-stroke" d="
  M 95.47 112.47
  C 93.76 116.85 99.06 120.70 101.51 116.04
  A 0.59 0.59 40.5 0 1 102.52 115.96
  Q 105.39 119.90 107.96 116.75
  Q 109.77 114.55 108.51 111.99
  Q 106.03 106.93 102.50 102.35
  A 0.40 0.40 45.8 0 0 101.87 102.34
  Q 97.31 107.73 95.47 112.47"
/>
<path stroke="#e29996" vector-effect="non-scaling-stroke" d="
  M 48.74 121.70
  Q 50.86 124.26 52.88 122.25
  Q 55.17 119.99 53.63 117.50
  L 48.78 109.65
  A 0.81 0.75 -42.6 0 0 47.50 109.64
  C 45.70 111.96 37.39 122.56 45.46 123.05
  A 1.12 0.91 -63.0 0 0 46.27 122.69
  Q 47.04 121.87 47.96 121.48
  A 0.71 0.64 57.6 0 1 48.74 121.70"
/>
<path stroke="#e29996" vector-effect="non-scaling-stroke" d="
  M 74.54 117.45
  C 72.43 121.67 76.98 125.31 79.69 121.54
  A 0.45 0.44 -51.4 0 1 80.34 121.46
  Q 84.15 124.66 85.59 121.01
  C 86.95 117.56 82.58 111.92 80.38 109.49
  A 0.43 0.43 -46.6 0 0 79.72 109.51
  Q 76.60 113.35 74.54 117.45"
/>
<path stroke="#e29996" vector-effect="non-scaling-stroke" d="
  M 97.43 132.46
  Q 99.76 123.42 106.94 129.34
  A 1.04 0.85 52.9 0 0 107.82 129.55
  Q 108.82 129.24 109.57 128.35
  A 0.67 0.64 47.6 0 0 109.59 127.55
  Q 105.49 121.80 99.32 124.26
  C 92.18 127.10 92.88 139.92 95.14 145.36
  C 100.54 158.42 117.31 145.29 108.63 134.88
  Q 104.61 130.06 97.77 132.75
  Q 97.31 132.93 97.43 132.46"
/>
<path stroke="#e29996" vector-effect="non-scaling-stroke" d="
  M 26.2193 32.7455
  A 5.95 5.07 84.8 0 0 30.7291 26.3605
  A 5.95 5.07 84.8 0 0 25.1407 20.8945
  A 5.95 5.07 84.8 0 0 20.6309 27.2795
  A 5.95 5.07 84.8 0 0 26.2193 32.7455"
/>
<path stroke="#e29996" vector-effect="non-scaling-stroke" d="
  M 102.8471 147.0865
  A 5.93 5.07 84.9 0 0 107.3699 140.7293
  A 5.93 5.07 84.9 0 0 101.7929 135.2735
  A 5.93 5.07 84.9 0 0 97.2701 141.6307
  A 5.93 5.07 84.9 0 0 102.8471 147.0865"
/>
</g>
<path fill="#000001" fill-opacity="0.098" d="
  M 105.91 7.23
  C 106.54 7.29 110.03 7.01 109.91 7.84
  A 0.26 0.24 -89.6 0 0 110.18 8.14
  Q 111.33 7.96 111.97 8.81
  A 1.73 1.19 72.6 0 0 112.70 9.38
  C 116.15 10.58 115.64 13.62 117.57 16.20
  C 119.78 19.15 119.56 23.46 119.78 27.68
  Q 119.95 31.03 119.46 32.86
  A 0.91 0.68 34.3 0 0 119.72 33.62
  Q 120.13 34.03 119.82 34.65
  Q 119.54 35.19 119.54 35.57
  Q 119.53 78.63 119.51 121.69
  C 119.51 123.88 119.97 126.51 119.93 128.93
  Q 119.78 138.60 119.30 148.25
  A 0.61 0.48 -4.6 0 1 118.79 148.72
  Q 118.31 148.80 118.29 149.42
  Q 118.27 150.38 117.53 152.23
  L 116.71 154.31
  A 0.68 0.62 12.4 0 1 116.04 154.70
  C 114.46 154.57 114.44 155.66 113.68 156.48
  Q 110.85 159.50 106.87 159.77
  C 104.93 159.91 102.84 161.04 101.50 161.03
  Q 61.03 160.60 20.56 160.75
  A 0.76 0.61 76.9 0 1 19.95 160.27
  Q 19.65 159.52 18.71 159.65
  A 0.78 0.73 68.3 0 1 17.99 159.31
  Q 17.34 158.37 15.96 158.71
  A 1.11 0.81 -27.8 0 1 15.08 158.58
  Q 14.51 158.11 14.18 157.50
  Q 13.92 157.01 13.58 156.76
  Q 10.17 154.23 8.93 150.20
  A 1.47 0.65 23.9 0 0 8.33 149.54
  C 8.31 149.52 7.25 142.89 7.25 142.41
  Q 7.25 85.16 7.25 24.52
  A 0.80 0.78 -5.9 0 1 7.89 23.75
  L 8.07 23.71
  A 0.22 0.22 82.4 0 0 8.24 23.48
  Q 8.02 20.06 8.94 16.75
  Q 9.06 16.31 9.45 15.93
  Q 10.46 14.92 10.92 13.50
  A 1.41 1.30 84.0 0 1 11.47 12.76
  Q 13.68 11.35 15.19 9.17
  A 1.14 1.07 11.9 0 1 15.96 8.70
  Q 17.88 8.44 19.34 7.26
  A 1.08 1.06 30.2 0 1 20.21 7.04
  Q 22.41 7.49 24.16 6.33
  A 1.84 1.34 -53.9 0 1 25.06 6.04
  L 105.19 6.03
  A 0.56 0.43 3.0 0 1 105.76 6.52
  L 105.71 6.87
  A 0.32 0.24 -82.0 0 0 105.91 7.23
  Z
  M 105.85 9.94
  L 105.55 9.65
  A 1.34 0.78 56.9 0 0 104.75 9.25
  L 23.50 9.25
  A 1.79 1.40 -55.9 0 0 22.60 9.54
  Q 21.42 10.32 19.97 10.27
  A 1.54 1.15 21.3 0 0 19.07 10.52
  L 18.40 11.01
  A 1.23 1.04 28.6 0 1 17.52 11.19
  Q 16.64 11.03 16.27 11.57
  Q 15.90 12.10 15.63 12.26
  Q 14.39 12.95 13.56 14.15
  A 1.23 1.00 8.0 0 1 12.80 14.61
  Q 11.77 14.80 11.88 15.85
  A 0.72 0.71 -19.1 0 1 11.54 16.54
  Q 10.51 17.18 10.78 18.58
  A 0.96 0.92 61.0 0 1 10.56 19.41
  Q 9.77 20.31 9.77 21.06
  Q 9.75 82.62 9.75 144.20
  A 1.62 1.35 30.8 0 0 10.06 145.09
  Q 11.48 147.04 11.29 149.43
  A 0.75 0.66 17.4 0 0 11.70 150.11
  C 12.95 150.74 12.14 151.95 13.48 152.27
  A 0.57 0.55 6.6 0 1 13.92 152.81
  Q 13.91 153.66 14.72 154.28
  Q 20.99 159.06 28.18 158.80
  C 37.78 158.45 45.12 158.59 57.57 159.16
  Q 57.82 159.17 57.99 159.04
  A 0.86 0.43 -43.5 0 1 58.61 158.85
  C 60.67 159.40 63.04 158.83 64.55 158.84
  C 77.97 158.90 91.41 158.94 104.83 158.77
  C 109.41 158.71 112.69 155.30 115.58 152.28
  Q 115.74 152.12 116.05 151.44
  L 117.78 147.65
  Q 118.06 147.02 118.07 146.76
  Q 118.29 138.63 118.32 130.50
  Q 118.48 77.00 118.51 23.50
  C 118.52 17.71 112.44 10.32 106.61 10.19
  A 1.20 0.66 -10.6 0 1 105.85 9.94
  Z"
/>
<path fill="#010202" fill-opacity="0.176" d="
  M 106.61 10.19
  C 112.44 10.32 118.52 17.71 118.51 23.50
  Q 118.48 77.00 118.32 130.50
  Q 118.29 138.63 118.07 146.76
  Q 118.06 147.02 117.78 147.65
  L 116.05 151.44
  Q 115.74 152.12 115.58 152.28
  C 112.69 155.30 109.41 158.71 104.83 158.77
  C 91.41 158.94 77.97 158.90 64.55 158.84
  C 63.04 158.83 60.67 159.40 58.61 158.85
  A 0.86 0.43 -43.5 0 0 57.99 159.04
  Q 57.82 159.17 57.57 159.16
  C 45.12 158.59 37.78 158.45 28.18 158.80
  Q 20.99 159.06 14.72 154.28
  Q 13.91 153.66 13.92 152.81
  A 0.57 0.55 6.6 0 0 13.48 152.27
  C 12.14 151.95 12.95 150.74 11.70 150.11
  A 0.75 0.66 17.4 0 1 11.29 149.43
  Q 11.48 147.04 10.06 145.09
  A 1.62 1.35 30.8 0 1 9.75 144.20
  Q 9.75 82.62 9.77 21.06
  Q 9.77 20.31 10.56 19.41
  A 0.96 0.92 61.0 0 0 10.78 18.58
  Q 10.51 17.18 11.54 16.54
  A 0.72 0.71 -19.1 0 0 11.88 15.85
  Q 11.77 14.80 12.80 14.61
  A 1.23 1.00 8.0 0 0 13.56 14.15
  Q 14.39 12.95 15.63 12.26
  Q 15.90 12.10 16.27 11.57
  Q 16.64 11.03 17.52 11.19
  A 1.23 1.04 28.6 0 0 18.40 11.01
  L 19.07 10.52
  A 1.54 1.15 21.3 0 1 19.97 10.27
  Q 21.42 10.32 22.60 9.54
  A 1.79 1.40 -55.9 0 1 23.50 9.25
  L 104.75 9.25
  A 1.34 0.78 56.9 0 1 105.55 9.65
  L 105.85 9.94
  A 1.20 0.66 -10.6 0 0 106.61 10.19
  Z
  M 14.11 18.49
  C 13.79 20.32 13.50 21.93 13.50 23.85
  Q 13.50 84.80 13.50 145.75
  Q 13.50 149.01 15.96 152.00
  Q 19.00 155.23 22.07 155.23
  Q 62.84 155.27 103.62 155.24
  C 112.09 155.23 114.49 150.61 114.50 142.53
  Q 114.51 83.23 114.49 23.94
  C 114.49 15.19 110.18 12.76 101.73 12.75
  Q 63.37 12.73 25.02 12.77
  C 19.70 12.77 16.63 14.01 14.11 18.49
  Z
  M 114.81 47.80
  Q 114.81 62.44 115.00 48.08
  C 115.00 47.92 115.01 48.02 114.91 47.78
  Q 114.81 47.56 114.81 47.80
  Z
  M 114.81 81.80
  Q 114.81 96.44 115.00 82.08
  C 115.00 81.92 115.01 82.02 114.91 81.78
  Q 114.81 81.56 114.81 81.80
  Z"
/>
<path fill="#ffffff" d="
  M 15.96 152.00
  C 15.15 149.87 14.01 148.15 14.00 145.79
  Q 13.92 82.15 14.11 18.49
  C 16.63 14.01 19.70 12.77 25.02 12.77
  Q 63.37 12.73 101.73 12.75
  C 110.18 12.76 114.49 15.19 114.49 23.94
  Q 114.51 83.23 114.50 142.53
  C 114.49 150.61 112.09 155.23 103.62 155.24
  Q 62.84 155.27 22.07 155.23
  Q 19.00 155.23 15.96 152.00
  Z
  M 30.65 35.31
  C 30.14 40.47 25.03 43.23 21.25 38.69
  A 0.82 0.76 62.2 0 0 20.45 38.41
  C 14.44 39.89 23.40 46.09 28.63 43.84
  C 35.57 40.85 35.20 28.68 33.05 23.03
  C 27.72 9.09 10.11 22.96 19.71 33.54
  Q 23.72 37.97 30.24 35.02
  A 0.29 0.29 -9.5 0 1 30.65 35.31
  Z
  M 52.56 45.44
  Q 50.31 43.85 48.47 46.35
  A 0.76 0.60 -60.0 0 1 47.70 46.66
  Q 47.01 46.41 46.61 45.56
  A 0.80 0.72 75.6 0 0 45.92 45.10
  C 37.45 45.36 45.01 55.53 47.63 58.67
  A 0.40 0.40 -45.8 0 0 48.26 58.66
  C 50.53 55.74 56.58 48.27 52.56 45.44
  Z
  M 85.36 46.20
  C 82.57 42.09 80.12 49.04 78.61 45.60
  A 0.78 0.68 76.0 0 0 77.94 45.13
  C 69.43 45.33 77.02 55.54 79.63 58.67
  A 0.41 0.37 42.7 0 0 80.26 58.67
  L 85.54 50.52
  Q 86.88 48.45 85.36 46.20
  Z
  M 25.49 52.05
  Q 21.40 47.32 19.06 53.31
  A 1.46 1.41 47.3 0 0 19.04 54.27
  Q 21.14 60.58 25.60 65.62
  A 0.43 0.42 -46.3 0 0 26.25 65.60
  Q 29.81 61.15 32.59 55.56
  Q 33.95 52.83 31.67 50.80
  Q 28.77 48.21 26.09 52.03
  A 0.39 0.38 42.5 0 1 25.49 52.05
  Z
  M 63.55 57.42
  Q 61.89 54.96 59.85 56.04
  C 54.82 58.68 62.02 67.33 63.62 69.35
  A 0.38 0.38 42.7 0 0 64.24 69.33
  L 69.52 61.30
  Q 70.62 59.64 69.74 57.62
  Q 67.81 53.17 64.19 57.46
  A 0.40 0.40 48.1 0 1 63.55 57.42
  Z
  M 47.54 68.01
  Q 45.74 65.33 43.42 66.89
  Q 40.94 68.55 42.19 71.26
  Q 44.36 76.00 47.61 80.09
  A 0.38 0.38 43.0 0 0 48.22 80.07
  L 53.58 71.87
  Q 55.11 69.53 53.14 67.28
  Q 50.71 64.51 48.10 68.03
  A 0.35 0.34 46.0 0 1 47.54 68.01
  Z
  M 79.57 68.01
  C 77.46 64.60 73.20 67.17 74.15 71.04
  Q 75.02 74.64 79.61 79.96
  A 0.43 0.42 -45.8 0 0 80.26 79.95
  C 83.07 76.41 90.00 67.26 82.76 66.21
  A 1.10 1.06 -61.8 0 0 81.88 66.49
  L 80.17 68.09
  A 0.39 0.39 -37.2 0 1 79.57 68.01
  Z
  M 48.48 99.89
  C 50.59 103.66 55.19 100.44 53.80 96.72
  Q 52.38 92.91 48.37 87.90
  A 0.39 0.37 42.8 0 0 47.76 87.91
  L 42.48 96.06
  Q 40.87 98.55 43.02 100.90
  Q 45.33 103.43 47.64 99.86
  A 0.49 0.49 46.8 0 1 48.48 99.89
  Z
  M 76.23 101.47
  Q 77.63 102.06 80.05 100.03
  A 0.39 0.39 51.0 0 1 80.61 100.09
  Q 82.96 103.25 85.21 100.53
  Q 86.97 98.39 85.68 96.33
  L 80.39 87.92
  A 0.38 0.35 -42.8 0 0 79.78 87.92
  C 76.99 91.58 70.89 99.21 76.23 101.47
  Z
  M 95.47 112.47
  C 93.76 116.85 99.06 120.70 101.51 116.04
  A 0.59 0.59 40.5 0 1 102.52 115.96
  Q 105.39 119.90 107.96 116.75
  Q 109.77 114.55 108.51 111.99
  Q 106.03 106.93 102.50 102.35
  A 0.40 0.40 45.8 0 0 101.87 102.34
  Q 97.31 107.73 95.47 112.47
  Z
  M 48.74 121.70
  Q 50.86 124.26 52.88 122.25
  Q 55.17 119.99 53.63 117.50
  L 48.78 109.65
  A 0.81 0.75 -42.6 0 0 47.50 109.64
  C 45.70 111.96 37.39 122.56 45.46 123.05
  A 1.12 0.91 -63.0 0 0 46.27 122.69
  Q 47.04 121.87 47.96 121.48
  A 0.71 0.64 57.6 0 1 48.74 121.70
  Z
  M 74.54 117.45
  C 72.43 121.67 76.98 125.31 79.69 121.54
  A 0.45 0.44 -51.4 0 1 80.34 121.46
  Q 84.15 124.66 85.59 121.01
  C 86.95 117.56 82.58 111.92 80.38 109.49
  A 0.43 0.43 -46.6 0 0 79.72 109.51
  Q 76.60 113.35 74.54 117.45
  Z
  M 97.43 132.46
  Q 99.76 123.42 106.94 129.34
  A 1.04 0.85 52.9 0 0 107.82 129.55
  Q 108.82 129.24 109.57 128.35
  A 0.67 0.64 47.6 0 0 109.59 127.55
  Q 105.49 121.80 99.32 124.26
  C 92.18 127.10 92.88 139.92 95.14 145.36
  C 100.54 158.42 117.31 145.29 108.63 134.88
  Q 104.61 130.06 97.77 132.75
  Q 97.31 132.93 97.43 132.46
  Z"
/>
<path fill="#c4332c" d="
  M 30.24 35.02
  Q 23.72 37.97 19.71 33.54
  C 10.11 22.96 27.72 9.09 33.05 23.03
  C 35.20 28.68 35.57 40.85 28.63 43.84
  C 23.40 46.09 14.44 39.89 20.45 38.41
  A 0.82 0.76 62.2 0 1 21.25 38.69
  C 25.03 43.23 30.14 40.47 30.65 35.31
  A 0.29 0.29 -9.5 0 0 30.24 35.02
  Z
  M 26.2193 32.7455
  A 5.95 5.07 84.8 0 0 30.7291 26.3605
  A 5.95 5.07 84.8 0 0 25.1407 20.8945
  A 5.95 5.07 84.8 0 0 20.6309 27.2795
  A 5.95 5.07 84.8 0 0 26.2193 32.7455
  Z"
/>
<path fill="#f2f4f5" fill-opacity="0.973" d="
  M 14.11 18.49
  Q 13.92 82.15 14.00 145.79
  C 14.01 148.15 15.15 149.87 15.96 152.00
  Q 13.50 149.01 13.50 145.75
  Q 13.50 84.80 13.50 23.85
  C 13.50 21.93 13.79 20.32 14.11 18.49
  Z"
/>
<ellipse fill="#ffffff" cx="0.00" cy="0.00" transform="translate(25.68,26.82) rotate(84.8)" rx="5.95" ry="5.07"/>
<path fill="#c4332c" d="
  M 52.56 45.44
  C 56.58 48.27 50.53 55.74 48.26 58.66
  A 0.40 0.40 -45.8 0 1 47.63 58.67
  C 45.01 55.53 37.45 45.36 45.92 45.10
  A 0.80 0.72 75.6 0 1 46.61 45.56
  Q 47.01 46.41 47.70 46.66
  A 0.76 0.60 -60.0 0 0 48.47 46.35
  Q 50.31 43.85 52.56 45.44
  Z"
/>
<path fill="#c4332c" d="
  M 78.61 45.60
  C 80.12 49.04 82.57 42.09 85.36 46.20
  Q 86.88 48.45 85.54 50.52
  L 80.26 58.67
  A 0.41 0.37 42.7 0 1 79.63 58.67
  C 77.02 55.54 69.43 45.33 77.94 45.13
  A 0.78 0.68 76.0 0 1 78.61 45.60
  Z"
/>
<path fill="#000001" fill-opacity="0.098" d="
  M 114.91 47.78
  C 115.01 48.02 115.00 47.92 115.00 48.08
  Q 114.81 62.44 114.81 47.80
  Q 114.81 47.56 114.91 47.78
  Z"
/>
<path fill="#c4332c" d="
  M 26.09 52.03
  Q 28.77 48.21 31.67 50.80
  Q 33.95 52.83 32.59 55.56
  Q 29.81 61.15 26.25 65.60
  A 0.43 0.42 -46.3 0 1 25.60 65.62
  Q 21.14 60.58 19.04 54.27
  A 1.46 1.41 47.3 0 1 19.06 53.31
  Q 21.40 47.32 25.49 52.05
  A 0.39 0.38 42.5 0 0 26.09 52.03
  Z"
/>
<path fill="#c4332c" d="
  M 63.55 57.42
  A 0.40 0.40 48.1 0 0 64.19 57.46
  Q 67.81 53.17 69.74 57.62
  Q 70.62 59.64 69.52 61.30
  L 64.24 69.33
  A 0.38 0.38 42.7 0 1 63.62 69.35
  C 62.02 67.33 54.82 58.68 59.85 56.04
  Q 61.89 54.96 63.55 57.42
  Z"
/>
<path fill="#c4332c" d="
  M 48.10 68.03
  Q 50.71 64.51 53.14 67.28
  Q 55.11 69.53 53.58 71.87
  L 48.22 80.07
  A 0.38 0.38 43.0 0 1 47.61 80.09
  Q 44.36 76.00 42.19 71.26
  Q 40.94 68.55 43.42 66.89
  Q 45.74 65.33 47.54 68.01
  A 0.35 0.34 46.0 0 0 48.10 68.03
  Z"
/>
<path fill="#c4332c" d="
  M 80.17 68.09
  L 81.88 66.49
  A 1.10 1.06 -61.8 0 1 82.76 66.21
  C 90.00 67.26 83.07 76.41 80.26 79.95
  A 0.43 0.42 -45.8 0 1 79.61 79.96
  Q 75.02 74.64 74.15 71.04
  C 73.20 67.17 77.46 64.60 79.57 68.01
  A 0.39 0.39 -37.2 0 0 80.17 68.09
  Z"
/>
<path fill="#000001" fill-opacity="0.098" d="
  M 114.91 81.78
  C 115.01 82.02 115.00 81.92 115.00 82.08
  Q 114.81 96.44 114.81 81.80
  Q 114.81 81.56 114.91 81.78
  Z"
/>
<path fill="#c4332c" d="
  M 48.48 99.89
  A 0.49 0.49 46.8 0 0 47.64 99.86
  Q 45.33 103.43 43.02 100.90
  Q 40.87 98.55 42.48 96.06
  L 47.76 87.91
  A 0.39 0.37 42.8 0 1 48.37 87.90
  Q 52.38 92.91 53.80 96.72
  C 55.19 100.44 50.59 103.66 48.48 99.89
  Z"
/>
<path fill="#c4332c" d="
  M 76.23 101.47
  C 70.89 99.21 76.99 91.58 79.78 87.92
  A 0.38 0.35 -42.8 0 1 80.39 87.92
  L 85.68 96.33
  Q 86.97 98.39 85.21 100.53
  Q 82.96 103.25 80.61 100.09
  A 0.39 0.39 51.0 0 0 80.05 100.03
  Q 77.63 102.06 76.23 101.47
  Z"
/>
<path fill="#c4332c" d="
  M 101.51 116.04
  C 99.06 120.70 93.76 116.85 95.47 112.47
  Q 97.31 107.73 101.87 102.34
  A 0.40 0.40 45.8 0 1 102.50 102.35
  Q 106.03 106.93 108.51 111.99
  Q 109.77 114.55 107.96 116.75
  Q 105.39 119.90 102.52 115.96
  A 0.59 0.59 40.5 0 0 101.51 116.04
  Z"
/>
<path fill="#c4332c" d="
  M 47.96 121.48
  Q 47.04 121.87 46.27 122.69
  A 1.12 0.91 -63.0 0 1 45.46 123.05
  C 37.39 122.56 45.70 111.96 47.50 109.64
  A 0.81 0.75 -42.6 0 1 48.78 109.65
  L 53.63 117.50
  Q 55.17 119.99 52.88 122.25
  Q 50.86 124.26 48.74 121.70
  A 0.71 0.64 57.6 0 0 47.96 121.48
  Z"
/>
<path fill="#c4332c" d="
  M 79.69 121.54
  C 76.98 125.31 72.43 121.67 74.54 117.45
  Q 76.60 113.35 79.72 109.51
  A 0.43 0.43 -46.6 0 1 80.38 109.49
  C 82.58 111.92 86.95 117.56 85.59 121.01
  Q 84.15 124.66 80.34 121.46
  A 0.45 0.44 -51.4 0 0 79.69 121.54
  Z"
/>
<path fill="#c4332c" d="
  M 97.77 132.75
  Q 104.61 130.06 108.63 134.88
  C 117.31 145.29 100.54 158.42 95.14 145.36
  C 92.88 139.92 92.18 127.10 99.32 124.26
  Q 105.49 121.80 109.59 127.55
  A 0.67 0.64 47.6 0 1 109.57 128.35
  Q 108.82 129.24 107.82 129.55
  A 1.04 0.85 52.9 0 1 106.94 129.34
  Q 99.76 123.42 97.43 132.46
  Q 97.31 132.93 97.77 132.75
  Z
  M 102.8471 147.0865
  A 5.93 5.07 84.9 0 0 107.3699 140.7293
  A 5.93 5.07 84.9 0 0 101.7929 135.2735
  A 5.93 5.07 84.9 0 0 97.2701 141.6307
  A 5.93 5.07 84.9 0 0 102.8471 147.0865
  Z"
/>
<ellipse fill="#ffffff" cx="0.00" cy="0.00" transform="translate(102.32,141.18) rotate(84.9)" rx="5.93" ry="5.07"/>
</svg>
