<?xml version="1.0" encoding="utf-8"?>
<!-- Generator: Adobe Illustrator 27.0.1, SVG Export Plug-In . SVG Version: 6.00 Build 0)  -->
<svg version="1.1" id="Слой_1" xmlns="http://www.w3.org/2000/svg" xmlns:xlink="http://www.w3.org/1999/xlink" x="0px" y="0px"
	 viewBox="0 0 128 168" style="enable-background:new 0 0 128 168;" xml:space="preserve">
<style type="text/css">
	.st0{fill:#D8D8D8;}
	.st1{fill:#AAAAAA;}
	.st2{fill:#FFFFFF;}
	.st3{fill:#C4332C;}
</style>
<g>
	<path class="st0" d="M107.9,161.7H20.1c-6.9,0-12.4-5.6-12.4-12.4V18.8c0-6.9,5.6-12.4,12.4-12.4h87.8c6.9,0,12.4,5.6,12.4,12.4
		v130.5C120.3,156.1,114.8,161.7,107.9,161.7z"/>
	<path class="st1" d="M106.9,157.8H21.1c-5.5,0-9.9-4.4-9.9-9.9V19.8c0-5.5,4.4-9.9,9.9-9.9h85.8c5.5,0,9.9,4.4,9.9,9.9v128.1
		C116.8,153.4,112.4,157.8,106.9,157.8z"/>
	<path class="st2" d="M106.6,154.8H21.4c-4.4,0-8-3.6-8-8V20.9c0-4.4,3.6-8,8-8h85.2c4.4,0,8,3.6,8,8v125.9
		C114.6,151.2,111,154.8,106.6,154.8z"/>
</g>
<g>
	<path class="st3" d="M35,38.9c0,3.4-2.9,6-6.3,5.8c-3.2,0-5.8-2.6-5.8-5.8v-16c0.2-7.7,11.9-7.7,12.1,0C35,22.9,35,38.9,35,38.9z
		 M31.2,22.8c0-1.3-1-2.3-2.3-2.3c-1.4-0.1-2.5,1.3-2.4,2.3c0,0.4,0,16.1,0,16.2c0,1.3,1,2.2,2.3,2.2c1.3,0.1,2.4-1,2.4-2.3
		C31.2,38.9,31.2,22.8,31.2,22.8z"/>
	<path class="st3" d="M17.3,17.3H20c0.3,0,0.5,0.2,0.5,0.5v25.9c0,0.3-0.2,0.5-0.5,0.5h-2.7c-0.3,0-0.5-0.2-0.5-0.5V17.8
		C16.8,17.5,17,17.3,17.3,17.3z"/>
	<path class="st2" d="M28.8,20.5c1.3-0.1,2.4,1,2.4,2.3c0,0,0,16.1,0,16.1c0,1.3-1.1,2.4-2.4,2.3c-1.3,0-2.3-1-2.3-2.3V22.8
		C26.5,21.6,27.5,20.5,28.8,20.5z"/>
	<path class="st3" d="M48.9,46c0.7-1,1.6-1.4,2.9-1c5.5,1.8-0.9,10.3-3.5,13.6c-0.1,0.2-0.4,0.2-0.6,0.1c0,0,0,0-0.1-0.1
		c-1.8-2.1-10.7-14.1-1.7-13.5c0.3,0,0.5,0.2,0.7,0.5c0.3,0.8,0.9,1.1,1.6,0.9C48.5,46.5,48.7,46.3,48.9,46z"/>
	<path class="st3" d="M78.6,45.6c1.5,3.4,4-3.5,6.8,0.6c1,1.5,1.1,2.9,0.2,4.3l-5.3,8.1c-0.1,0.2-0.3,0.2-0.5,0.1l-0.1-0.1
		c-2.6-3.1-10.2-13.3-1.7-13.5C78.2,45.1,78.5,45.3,78.6,45.6z"/>
	<path class="st3" d="M26.1,52.1l2.7-2.1c0.2-0.2,0.6-0.2,0.9-0.1c7.4,2.1-0.5,12.1-3.5,15.8c-0.1,0.2-0.4,0.2-0.6,0.1
		c0,0,0,0-0.1-0.1c-2.6-3.1-4.7-6.4-6.2-10.1c-0.6-1.5-0.5-2.9,0.6-4.1c1.8-2.3,3.7-2.1,5.6,0.6C25.7,52.2,25.9,52.2,26.1,52.1
		L26.1,52.1z"/>
	<path class="st3" d="M63.5,57.4c0.1,0.2,0.4,0.2,0.6,0.1c0,0,0.1,0,0.1-0.1c2.4-2.9,4.3-2.8,5.5,0.2c0.6,1.3,0.5,2.6-0.2,3.7
		l-5.3,8c-0.2,0.3-0.5,0.2-0.6,0c-1.6-2-8.8-10.7-3.8-13.3C61.2,55.3,62.4,55.8,63.5,57.4z"/>
	<path class="st3" d="M48.1,68c1.7-2.3,3.4-2.6,5.1-0.7c1.3,1.5,1.4,3,0.4,4.5l-5.4,8.3c-0.1,0.2-0.3,0.2-0.5,0.1l-0.1-0.1
		c-2.2-2.9-4-5.6-5.2-8.2c-1.8-3.9,2.6-7.7,5.1-3.8C47.7,68.2,47.9,68.2,48.1,68C48,68.1,48.1,68.1,48.1,68z"/>
	<path class="st3" d="M80.2,68.1l1.7-1.6c0.2-0.2,0.6-0.3,0.9-0.3c7.2,1,0.3,10.2-2.5,13.7c-0.1,0.2-0.4,0.2-0.6,0.1c0,0,0,0-0.1,0
		c-2.3-2.7-4.1-5.7-5.5-8.9c-0.7-1.7-0.3-3.1,1.2-4.1c1.6-1.1,3-0.7,4.2,1.1C79.7,68.2,79.9,68.3,80.2,68.1
		C80.1,68.1,80.2,68.1,80.2,68.1z"/>
	<path class="st3" d="M48.5,99.9c-0.1-0.2-0.4-0.3-0.7-0.2c-0.1,0-0.1,0.1-0.2,0.1c-1.8,2.5-3.4,2.7-4.9,0.7c-1.1-1.5-1.2-3-0.3-4.5
		l5.3-8.2c0.1-0.2,0.3-0.2,0.5-0.1l0.1,0.1c2.8,3.5,4.7,6.5,5.5,9C55.1,100.5,50.5,103.6,48.5,99.9z"/>
	<path class="st3" d="M76.5,101.7c-5.7-2.5,0.5-10.1,3.4-13.8c0.1-0.2,0.4-0.2,0.6-0.1c0,0,0,0,0.1,0.1c2.6,3.5,8.5,10.9,3.3,13.6
		c-1.2,0.6-2.1,0.4-2.6-0.7c-0.7-1.4-1.5-1.3-2.4,0.1C78.3,101.7,77.3,102.1,76.5,101.7z"/>
	<path class="st3" d="M59.7,112.1c-4.3-3.1,1.5-10.1,4.2-13.4c0.1-0.2,0.4-0.2,0.6,0c0,0,0,0,0.1,0.1c2.5,3.2,10.3,14.7,1.3,13.3
		c-0.3,0-0.6-0.2-0.7-0.5c-0.7-1.3-1.5-1.2-2.3,0.4C62.1,113,61.1,113.1,59.7,112.1z"/>
	<path class="st3" d="M101.5,116c-2.5,4.7-7.8,0.8-6.1-3.6c1.3-3.2,3.4-6.6,6.4-10.1c0.1-0.2,0.4-0.2,0.6-0.1c0,0,0,0,0.1,0.1
		c2.4,3.2,9.3,11.7,4.7,15c-1.6,1.2-3.2,0.7-4.7-1.4c-0.2-0.3-0.6-0.3-0.8-0.1C101.6,115.9,101.6,116,101.5,116z"/>
	<path class="st3" d="M48,121.5c-0.6,0.3-1.2,0.7-1.7,1.2c-0.2,0.2-0.5,0.4-0.8,0.4c-8.2-0.5,0.4-11.3,2.2-13.7
		c0.2-0.2,0.5-0.3,0.8-0.1l0.1,0.1l5.1,8.2c0.9,1.5,0.7,3-0.6,4.4c-1.4,1.6-2.8,1.4-4.3-0.3C48.5,121.5,48.2,121.4,48,121.5z"/>
	<path class="st3" d="M79.7,121.5c-2.6,3.6-7.2,0.4-5.2-3.8c1.4-2.9,3.1-5.6,5-8.2c0.2-0.3,0.6-0.3,0.9-0.1l0.1,0.1
		c2,2.5,9.3,11.9,2.5,13.4c-0.3,0.1-0.7,0-0.9-0.2l-1.8-1.3C80.1,121.3,79.9,121.3,79.7,121.5L79.7,121.5z"/>
	<path class="st3" d="M105.2,145.1c0,3.2-2.6,5.8-5.8,5.8c-3.4,0.2-6.3-2.4-6.3-5.8l0,0v-16c0-3.2,2.6-5.8,5.8-5.8
		c3.4-0.2,6.3,2.4,6.3,5.8l0,0V145.1z M101.5,129.1c0-1.3-1-2.3-2.3-2.3c-1.3-0.1-2.4,1-2.4,2.3l0,0v16.1c0,3.1,4.7,3.1,4.7,0l0,0
		V129.1z"/>
	<path class="st3" d="M108,123.7h2.7c0.3,0,0.5,0.2,0.5,0.5v25.9c0,0.3-0.2,0.5-0.5,0.5H108c-0.3,0-0.5-0.2-0.5-0.5v-25.9
		C107.5,124,107.7,123.7,108,123.7z"/>
	<path class="st2" d="M99.1,126.8c1.3-0.1,2.4,1,2.4,2.3c0,0,0,16.1,0,16.1c0,1.3-1.1,2.4-2.4,2.3c-1.3,0-2.3-1-2.3-2.3v-16.1
		C96.8,127.8,97.8,126.8,99.1,126.8z"/>
</g>
</svg>
