<?xml version="1.0" encoding="utf-8"?>
<!-- Generator: Adobe Illustrator 27.0.1, SVG Export Plug-In . SVG Version: 6.00 Build 0)  -->
<svg version="1.1" id="Слой_1" xmlns="http://www.w3.org/2000/svg" xmlns:xlink="http://www.w3.org/1999/xlink" x="0px" y="0px"
	 viewBox="0 0 128 168" style="enable-background:new 0 0 128 168;" xml:space="preserve">
<style type="text/css">
	.st0{fill:#D8D8D8;}
	.st1{fill:#AAAAAA;}
	.st2{fill:#FFFFFF;}
	.st3{fill:#C4332C;}
</style>
<g>
	<path class="st0" d="M107.9,161.7H20.1c-6.9,0-12.4-5.6-12.4-12.4V18.8c0-6.9,5.6-12.4,12.4-12.4h87.8c6.9,0,12.4,5.6,12.4,12.4
		v130.5C120.3,156.1,114.8,161.7,107.9,161.7z"/>
	<path class="st1" d="M106.9,157.8H21.1c-5.5,0-9.9-4.4-9.9-9.9V19.8c0-5.5,4.4-9.9,9.9-9.9h85.8c5.5,0,9.9,4.4,9.9,9.9v128.1
		C116.8,153.4,112.4,157.8,106.9,157.8z"/>
	<path class="st2" d="M106.6,154.8H21.4c-4.4,0-8-3.6-8-8V20.9c0-4.4,3.6-8,8-8h85.2c4.4,0,8,3.6,8,8v125.9
		C114.6,151.2,111,154.8,106.6,154.8z"/>
</g>
<g>
	<path class="st3" d="M21.8,25.7c8.8-4.3,15.1,5.5,12,12.8c-1.9,4.6-6.4,7.5-11.2,5.1c-6.8-3.5-6.9-20-1.8-24.8
		c3.6-3.4,9.7-1.7,12.4,2.3c0.6,0.9-1.5,1.9-2.2,2.1c-0.3,0.1-0.6,0-0.8-0.3c-3.2-4.3-8.3-2.5-8.9,2.6
		C21.3,25.8,21.5,25.9,21.8,25.7z M26.2,40.9c2.7-0.1,4.8-3.1,4.7-6.6l0,0c-0.1-3.5-2.5-6.3-5.2-6.2l0,0c-2.7,0.1-4.8,3.1-4.7,6.6
		l0,0C21.2,38.2,23.5,41,26.2,40.9L26.2,40.9z"/>
	<path class="st2" d="M25.7,28c2.7-0.1,5,2.7,5.2,6.2c0.1,8.5-9.2,8.9-9.8,0.4C21,31.1,23,28.1,25.7,28z"/>
	<path class="st3" d="M51.2,45c7.1,0.9-1.7,12-3,13.6c-0.1,0.2-0.4,0.2-0.6,0.1c0,0,0,0-0.1-0.1c-2.6-3.2-10.2-13.3-1.7-13.6
		c0.3,0,0.6,0.2,0.7,0.5c0.3,0.6,0.6,0.9,1.1,1.1c0.2,0.1,0.6,0,0.8-0.3C49.2,45.3,50.2,44.9,51.2,45z"/>
	<path class="st3" d="M78.9,46c1.2,2.2,2.8-2.4,5.5-0.7c4.5,2.8-2.4,11-4.2,13.3c-0.1,0.2-0.4,0.2-0.6,0.1c0,0,0,0-0.1-0.1
		c-2.1-2.6-7.3-9.3-5-12.5c0.9-1.2,2.1-1.5,3.6-0.8C78.5,45.4,78.7,45.7,78.9,46z"/>
	<path class="st3" d="M26.1,52.1l2.7-2.1c0.2-0.2,0.6-0.2,0.9-0.1c7.6,2-1.1,12.9-3.5,15.8c-0.1,0.2-0.4,0.2-0.6,0.1
		c0,0,0,0-0.1-0.1c-2.2-2.7-6.6-8.5-6.4-12c0.2-3.7,4-4.9,6.4-1.6C25.7,52.2,25.9,52.2,26.1,52.1L26.1,52.1z"/>
	<path class="st3" d="M52.6,77.4c1.8,0.9,2.2,2.4,1.2,4.4c-1.5,3.1-3.3,6-5.6,8.9c-0.1,0.2-0.4,0.2-0.6,0.1c0,0-0.1,0-0.1-0.1
		C45,87.5,37.4,77,45.9,77.2c0.3,0,0.5,0.2,0.7,0.5c0.3,0.6,0.7,1,1.3,1.1c0.3,0,0.6-0.1,0.8-0.4C49.6,76.9,50.9,76.6,52.6,77.4z"/>
	<path class="st3" d="M78.7,77.8c1.5,2.9,3.9-3.7,6.6,0.4c1,1.5,1.1,3,0.2,4.4l-5.2,8.1c-0.1,0.2-0.4,0.2-0.6,0.1c0,0-0.1,0-0.1-0.1
		c-2.3-2.6-4.1-5.5-5.3-8.7c-1-2.8,0.4-5.5,3.7-4.7C78.3,77.3,78.6,77.5,78.7,77.8z"/>
	<path class="st3" d="M101.4,116.2c-2.4,4.5-7.9,0.6-5.7-4.2c1.6-3.5,3.7-6.7,6.1-9.6c0.1-0.2,0.4-0.2,0.6,0c0,0,0,0,0.1,0.1
		c2.4,3.1,4.4,6.3,6,9.7c0.8,1.7,0.6,3.3-0.6,4.7c-1.7,2-3.5,1.8-5.3-0.6c-0.2-0.3-0.7-0.4-1-0.2C101.5,116,101.5,116.1,101.4,116.2
		z"/>
	<path class="st3" d="M48,121.6c-3.4,2.3-5.3,1.8-5.8-1.4c-0.5-3.3,3.7-8.3,5.5-10.9c0.1-0.3,0.5-0.3,0.7,0l5.2,8.3
		c0.9,1.5,0.7,2.9-0.6,4.4c-1.4,1.6-2.8,1.4-4.3-0.3C48.6,121.5,48.3,121.4,48,121.6z"/>
	<path class="st3" d="M74.9,122.1c-3.1-2.8,2.7-9.9,4.5-12.4c0.3-0.4,0.8-0.4,1.1-0.2c0.1,0,0.1,0.1,0.2,0.2
		c1.8,2.3,6.4,8.5,4.9,11.5c-1.4,2.8-3.5,1.7-5.4,0.3c-0.2-0.1-0.4-0.1-0.6,0.1c0,0,0,0,0,0.1C78.6,123.4,76.4,123.4,74.9,122.1z"/>
	<path class="st3" d="M106.2,142.3c-2.7,1.4-5.1,1.5-7.4,0.4c-10.1-4.9-4.3-23.3,6.4-18.4c7.1,3.2,6.9,20.2,1.8,24.9
		c-3.6,3.3-9.6,1.7-12.3-2.3c-0.7-0.9,1.4-1.9,2.2-2.1c0.3-0.1,0.6,0.1,0.8,0.3c3,4.3,8.4,2.5,8.9-2.6
		C106.7,142.2,106.5,142.1,106.2,142.3z M104.2,127.8c-1.4-1.3-2.8-1.3-4.2-0.1c-2.4,2-3.3,4.3-2.8,7
		C99.4,146.4,112.9,136,104.2,127.8z"/>
	<path class="st2" d="M104.2,127.8c8.7,8.2-4.8,18.6-7,6.9c-0.5-2.7,0.4-5,2.8-7C101.4,126.5,102.8,126.5,104.2,127.8z"/>
</g>
</svg>
