<?xml version="1.0" encoding="UTF-8" standalone="no"?>
<svg xmlns="http://www.w3.org/2000/svg" version="1.2" baseProfile="tiny" viewBox="0 0 128 168">
<g stroke-width="0.00" fill="none" stroke-linecap="butt">
<path stroke="#e8e8e8" stroke-opacity="0.549" vector-effect="non-scaling-stroke" d="
  M 114.29 21.00
  C 113.21 14.29 108.79 12.78 102.32 12.77
  Q 62.08 12.72 21.81 12.77
  Q 20.49 12.77 18.00 14.29"
/>
<path stroke="#d7d7d7" stroke-opacity="0.596" vector-effect="non-scaling-stroke" d="
  M 18.00 14.29
  Q 15.42 15.72 14.46 18.50"
/>
<path stroke="#d7d7d7" stroke-opacity="0.596" vector-effect="non-scaling-stroke" d="
  M 17.00 152.96
  Q 19.78 155.24 22.06 155.24
  Q 56.41 155.18 90.75 155.35"
/>
<path stroke="#d7d7d7" stroke-opacity="0.596" vector-effect="non-scaling-stroke" d="
  M 106.50 155.46
  Q 113.22 153.59 114.29 147.00"
/>
<path stroke="#fafbfa" stroke-opacity="0.980" vector-effect="non-scaling-stroke" d="
  M 114.29 21.00
  Q 113.70 63.63 114.14 106.25
  C 114.25 117.71 113.76 133.39 114.29 147.00"
/>
<path stroke="#e8e8e8" stroke-opacity="0.549" vector-effect="non-scaling-stroke" d="
  M 106.50 155.46
  L 90.75 155.35"
/>
<path stroke="#fafbfa" stroke-opacity="0.980" vector-effect="non-scaling-stroke" d="
  M 17.00 152.96
  Q 14.00 148.78 14.00 147.25
  Q 14.00 84.55 14.00 21.85
  C 14.00 20.66 14.51 19.76 14.46 18.50"
/>
<path stroke="#96938d" vector-effect="non-scaling-stroke" d="
  M 28.16 25.58
  L 34.40 19.12
  A 1.16 0.56 -39.5 0 0 34.80 18.26
  L 34.69 17.72
  A 0.80 0.54 -3.6 0 0 33.94 17.28
  L 17.90 17.32
  A 0.54 0.51 0.5 0 0 17.36 17.82
  L 17.27 23.48
  A 0.71 0.67 10.7 0 0 17.75 24.14
  Q 21.59 25.45 20.77 21.47
  A 0.46 0.40 83.1 0 1 21.15 20.91
  L 27.29 20.90
  Q 27.90 20.90 27.44 21.35
  L 20.78 27.85
  A 0.68 0.60 -38.1 0 0 20.64 28.63
  Q 21.26 29.67 22.32 30.31
  A 0.92 0.80 -41.8 0 0 23.18 30.30
  C 29.62 26.90 34.34 34.47 29.70 39.16
  C 26.60 42.29 22.18 41.23 20.38 37.22
  A 0.90 0.76 77.8 0 0 19.69 36.69
  Q 18.41 36.61 17.32 37.41
  A 0.69 0.65 60.9 0 0 17.12 38.20
  C 19.77 44.61 26.56 46.51 31.78 41.95
  C 37.19 37.24 35.57 28.15 28.30 26.07
  A 0.30 0.29 29.8 0 1 28.16 25.58"
/>
<path stroke="#96938d" vector-effect="non-scaling-stroke" d="
  M 61.93 50.90
  L 60.20 50.41
  Q 59.52 50.22 59.26 50.27
  C 56.37 50.90 55.11 54.20 57.65 56.00
  Q 59.82 57.55 63.52 54.79
  Q 64.02 54.42 63.76 54.99
  L 62.01 58.77
  A 0.44 0.42 -70.9 0 0 62.28 59.37
  Q 63.99 59.78 65.76 59.35
  A 0.44 0.38 70.9 0 0 65.99 58.78
  L 64.42 55.04
  Q 64.17 54.45 64.77 54.62
  Q 65.39 54.79 65.69 55.43
  A 1.62 0.80 76.4 0 0 66.29 56.15
  C 71.46 58.87 73.97 51.54 68.76 50.26
  A 1.71 1.32 -43.1 0 0 67.81 50.35
  Q 64.12 51.83 66.74 49.86
  A 1.06 1.01 -17.7 0 0 67.17 49.07
  Q 67.36 43.04 61.95 45.30
  A 1.38 1.34 0.9 0 0 61.26 45.95
  Q 59.88 48.70 62.05 50.62
  Q 62.56 51.08 61.93 50.90"
/>
<path stroke="#96938d" vector-effect="non-scaling-stroke" d="
  M 28.41 56.33
  Q 30.49 54.06 29.32 51.68
  C 26.95 46.86 19.44 50.76 23.58 56.36
  Q 24.01 56.95 23.34 56.66
  C 15.20 53.12 15.50 66.34 23.19 62.87
  A 1.41 1.05 -83.9 0 0 23.82 62.19
  Q 24.63 60.36 26.66 60.71
  A 1.24 0.95 74.5 0 1 27.40 61.27
  Q 29.45 64.71 33.20 62.83
  A 1.62 1.52 -87.8 0 0 33.88 62.16
  Q 36.44 57.36 31.24 56.00
  A 1.78 0.74 -28.1 0 0 30.30 56.09
  L 28.55 56.60
  Q 28.01 56.76 28.41 56.33"
/>
<path stroke="#96938d" vector-effect="non-scaling-stroke" d="
  M 23.77 66.07
  A 0.31 0.31 -78.8 0 0 24.06 66.50
  L 27.94 66.50
  A 0.31 0.31 78.8 0 0 28.23 66.07
  L 26.29 61.38
  A 0.31 0.31 -37.0 0 0 25.71 61.38
  L 23.77 66.07"
/>
<path stroke="#96938d" vector-effect="non-scaling-stroke" d="
  M 65.96 82.62
  C 67.85 81.00 67.77 78.18 65.52 77.00
  C 61.98 75.14 58.99 80.18 61.72 82.27
  Q 63.24 83.43 61.44 82.77
  Q 57.28 81.24 56.26 85.28
  A 1.43 1.36 40.3 0 0 56.36 86.22
  C 59.85 93.50 63.52 83.21 65.79 87.55
  A 1.69 1.06 79.2 0 0 66.43 88.24
  Q 69.80 89.89 71.54 86.58
  A 1.38 1.33 53.8 0 0 71.67 85.64
  Q 70.69 81.00 66.03 82.75
  Q 65.65 82.90 65.96 82.62"
/>
<path stroke="#96938d" vector-effect="non-scaling-stroke" d="
  M 62.89 88.84
  Q 60.05 92.79 65.60 91.35
  A 0.44 0.43 -18.9 0 0 65.90 90.76
  L 64.47 87.41
  A 0.53 0.47 64.3 0 0 63.79 87.13
  Q 63.30 87.40 63.20 87.94
  Q 63.09 88.56 62.89 88.84"
/>
<path stroke="#96938d" vector-effect="non-scaling-stroke" d="
  M 103.99 111.48
  Q 103.96 111.36 103.98 111.27
  A 0.41 0.25 24.0 0 1 104.51 111.20
  Q 108.80 113.58 110.80 109.01
  Q 111.68 107.00 109.83 105.67
  Q 105.94 102.88 103.29 106.56
  C 101.68 108.81 104.05 102.31 104.10 102.17
  A 0.41 0.35 -76.7 0 0 103.81 101.61
  L 100.19 101.61
  A 0.41 0.35 77.3 0 0 99.89 102.17
  C 99.92 102.23 102.34 109.24 100.54 106.60
  Q 98.18 103.14 94.43 105.45
  Q 91.59 107.20 93.54 109.93
  C 96.05 113.43 99.45 110.89 99.93 111.32
  A 0.32 0.22 -41.8 0 1 99.84 111.71
  C 94.53 116.21 103.42 122.08 105.68 115.68
  Q 106.50 113.36 104.24 111.81
  A 0.65 0.40 21.4 0 1 103.99 111.48"
/>
<path stroke="#96938d" vector-effect="non-scaling-stroke" d="
  M 62.09 117.42
  Q 59.27 120.48 61.90 122.54
  C 66.18 125.90 69.35 118.85 65.83 117.52
  A 0.45 0.27 17.1 0 1 65.51 117.17
  C 65.54 116.94 66.09 116.96 66.27 117.05
  Q 70.30 119.10 71.70 114.92
  A 1.23 1.23 42.0 0 0 71.65 113.98
  Q 69.24 108.74 64.91 113.12
  Q 64.55 113.49 64.59 112.98
  Q 64.74 110.95 65.95 109.20
  A 0.36 0.35 -64.6 0 0 65.76 108.65
  Q 64.05 108.19 62.20 108.67
  A 0.37 0.34 65.2 0 0 62.02 109.22
  Q 63.19 110.93 63.29 113.04
  Q 63.32 113.54 63.02 113.13
  C 59.14 107.72 52.75 115.07 58.79 117.66
  A 1.57 1.35 -37.0 0 0 59.74 117.72
  L 61.94 117.18
  Q 62.42 117.06 62.09 117.42"
/>
<path stroke="#96938d" vector-effect="non-scaling-stroke" d="
  M 100.62 146.80
  L 107.15 140.30
  A 0.79 0.60 -37.5 0 0 107.36 139.52
  Q 106.84 138.34 105.71 137.69
  A 0.98 0.80 -40.5 0 0 104.82 137.71
  C 98.44 141.03 93.63 133.58 98.32 128.84
  C 101.47 125.66 105.96 126.85 107.69 130.93
  A 0.76 0.66 75.4 0 0 108.37 131.40
  Q 109.62 131.34 110.66 130.57
  A 0.66 0.64 61.8 0 0 110.88 129.80
  C 107.51 121.36 96.60 121.59 93.64 130.08
  C 91.78 135.42 94.45 140.35 99.81 142.05
  A 0.29 0.29 -57.9 0 1 99.92 142.54
  L 93.47 148.99
  Q 91.72 150.73 94.22 150.73
  L 109.98 150.73
  A 0.57 0.50 0.5 0 0 110.55 150.24
  L 110.74 144.52
  A 0.75 0.67 11.5 0 0 110.23 143.84
  Q 106.52 142.61 107.23 146.56
  A 0.46 0.43 84.3 0 1 106.82 147.10
  L 100.81 147.22
  Q 100.19 147.24 100.62 146.80"
/>
</g>
<path fill="#010001" fill-opacity="0.098" d="
  M 19.32 160.05
  L 18.77 159.94
  A 1.07 1.04 -9.4 0 1 18.06 159.45
  Q 17.39 158.33 15.71 158.69
  A 0.90 0.79 -25.1 0 1 14.89 158.45
  L 9.36 152.32
  A 1.18 0.93 -67.3 0 1 9.12 151.46
  Q 9.22 150.37 8.53 149.66
  A 1.63 1.01 30.2 0 1 8.10 148.85
  C 7.78 146.34 7.00 144.16 7.00 141.68
  Q 7.00 82.96 7.00 24.25
  Q 7.00 23.80 7.25 23.31
  Q 8.12 21.55 7.71 19.50
  Q 7.55 18.70 9.15 15.94
  L 11.56 11.80
  A 4.66 1.51 -19.3 0 1 13.83 10.07
  C 15.71 9.13 17.45 7.79 19.54 7.38
  C 22.08 6.87 24.74 6.05 27.29 6.04
  Q 66.02 5.97 104.74 6.04
  A 1.64 1.45 59.9 0 1 105.64 6.34
  Q 107.15 7.39 109.07 7.28
  A 0.71 0.59 75.7 0 1 109.68 7.72
  Q 110.01 8.53 111.25 8.17
  Q 112.31 7.87 114.67 10.55
  C 118.66 15.08 120.52 19.34 120.50 25.74
  Q 120.46 45.81 120.48 65.89
  Q 120.48 67.84 119.84 74.06
  C 119.27 79.62 120.61 85.23 120.55 90.13
  Q 120.20 118.19 120.27 146.25
  C 120.27 147.50 119.53 148.90 119.24 149.91
  Q 117.57 155.59 112.04 158.04
  Q 111.60 158.24 110.94 159.33
  A 0.77 0.67 17.6 0 1 110.20 159.65
  Q 109.17 159.52 108.72 160.36
  A 0.71 0.64 -70.3 0 1 108.03 160.73
  Q 105.66 160.33 103.69 161.48
  A 2.00 1.50 -53.2 0 1 102.77 161.75
  C 95.48 161.73 88.45 161.72 80.92 161.89
  C 65.71 162.22 51.19 161.67 26.35 161.80
  A 0.49 0.29 1.4 0 1 25.85 161.49
  L 25.88 161.28
  A 0.18 0.14 -86.3 0 0 25.75 161.08
  L 19.77 160.95
  A 0.93 0.48 -5.9 0 1 19.04 160.66
  Q 18.86 160.34 19.30 160.24
  Q 19.72 160.13 19.32 160.05
  Z
  M 114.50 21.04
  L 114.29 21.00
  C 113.21 14.29 108.79 12.78 102.32 12.77
  Q 62.08 12.72 21.81 12.77
  Q 20.49 12.77 18.00 14.29
  L 16.96 14.39
  Q 16.29 14.45 16.77 13.89
  Q 18.12 12.31 20.26 12.19
  A 0.23 0.20 2.9 0 0 20.47 12.03
  L 20.50 11.85
  A 0.42 0.41 -83.9 0 1 20.90 11.52
  Q 63.77 11.46 106.64 11.54
  Q 107.05 11.54 107.46 11.66
  Q 110.53 12.58 108.26 11.19
  C 107.26 10.57 101.16 10.50 99.78 10.50
  Q 60.30 10.49 20.82 10.51
  A 2.01 1.57 -54.2 0 0 19.89 10.78
  Q 18.59 11.55 17.05 11.56
  A 1.61 0.87 -51.6 0 0 16.21 11.92
  L 12.91 14.50
  Q 12.35 14.93 12.21 15.18
  Q 10.58 18.09 10.88 21.53
  Q 11.03 23.23 9.93 21.55
  Q 9.77 21.30 9.77 21.59
  L 9.75 143.18
  A 1.79 1.67 30.6 0 0 10.02 144.10
  C 10.98 145.64 11.27 146.50 11.48 148.61
  C 11.67 150.54 14.08 152.37 14.09 153.00
  A 1.04 0.77 -77.9 0 0 14.44 153.77
  C 17.55 155.95 19.06 157.74 23.24 157.26
  A 1.17 1.10 60.6 0 1 24.09 157.53
  Q 25.02 158.30 26.00 158.30
  Q 55.39 158.07 84.76 158.51
  Q 86.15 158.53 89.21 158.22
  C 92.26 157.92 95.72 158.47 98.46 158.35
  Q 100.86 158.25 103.27 158.22
  A 0.21 0.20 -84.9 0 0 103.47 158.05
  L 103.50 157.87
  A 0.47 0.47 -88.3 0 1 103.91 157.48
  Q 113.22 156.41 116.35 149.24
  Q 117.48 146.65 117.48 143.83
  L 117.51 24.80
  A 1.54 1.30 29.7 0 0 117.19 23.92
  Q 115.94 22.26 115.97 20.27
  A 0.82 0.56 -83.1 0 0 115.59 19.53
  C 114.80 19.23 115.63 22.23 114.50 21.04
  Z"
/>
<path fill="#020303" fill-opacity="0.188" d="
  M 18.00 14.29
  Q 15.42 15.72 14.46 18.50
  Q 13.51 20.55 13.51 21.75
  Q 13.48 84.22 13.52 146.69
  Q 13.52 149.97 17.00 152.96
  Q 19.78 155.24 22.06 155.24
  Q 56.41 155.18 90.75 155.35
  Q 98.65 156.57 106.50 155.46
  Q 113.22 153.59 114.29 147.00
  L 114.50 21.04
  C 115.63 22.23 114.80 19.23 115.59 19.53
  A 0.82 0.56 -83.1 0 1 115.97 20.27
  Q 115.94 22.26 117.19 23.92
  A 1.54 1.30 29.7 0 1 117.51 24.80
  L 117.48 143.83
  Q 117.48 146.65 116.35 149.24
  Q 113.22 156.41 103.91 157.48
  A 0.47 0.47 -88.3 0 0 103.50 157.87
  L 103.47 158.05
  A 0.21 0.20 -84.9 0 1 103.27 158.22
  Q 100.86 158.25 98.46 158.35
  C 95.72 158.47 92.26 157.92 89.21 158.22
  Q 86.15 158.53 84.76 158.51
  Q 55.39 158.07 26.00 158.30
  Q 25.02 158.30 24.09 157.53
  A 1.17 1.10 60.6 0 0 23.24 157.26
  C 19.06 157.74 17.55 155.95 14.44 153.77
  A 1.04 0.77 -77.9 0 1 14.09 153.00
  C 14.08 152.37 11.67 150.54 11.48 148.61
  C 11.27 146.50 10.98 145.64 10.02 144.10
  A 1.79 1.67 30.6 0 1 9.75 143.18
  L 9.77 21.59
  Q 9.77 21.30 9.93 21.55
  Q 11.03 23.23 10.88 21.53
  Q 10.58 18.09 12.21 15.18
  Q 12.35 14.93 12.91 14.50
  L 16.21 11.92
  A 1.61 0.87 -51.6 0 1 17.05 11.56
  Q 18.59 11.55 19.89 10.78
  A 2.01 1.57 -54.2 0 1 20.82 10.51
  Q 60.30 10.49 99.78 10.50
  C 101.16 10.50 107.26 10.57 108.26 11.19
  Q 110.53 12.58 107.46 11.66
  Q 107.05 11.54 106.64 11.54
  Q 63.77 11.46 20.90 11.52
  A 0.42 0.41 -83.9 0 0 20.50 11.85
  L 20.47 12.03
  A 0.23 0.20 2.9 0 1 20.26 12.19
  Q 18.12 12.31 16.77 13.89
  Q 16.29 14.45 16.96 14.39
  L 18.00 14.29
  Z
  M 115.01 115.67
  A 0.12 0.12 0.0 0 0 114.89 115.55
  L 114.87 115.55
  A 0.12 0.12 0.0 0 0 114.75 115.67
  L 114.75 144.09
  A 0.12 0.12 0.0 0 0 114.87 144.21
  L 114.89 144.21
  A 0.12 0.12 0.0 0 0 115.01 144.09
  L 115.01 115.67
  Z"
/>
<path fill="#ffffff" d="
  M 114.29 21.00
  Q 113.70 63.63 114.14 106.25
  C 114.25 117.71 113.76 133.39 114.29 147.00
  Q 113.22 153.59 106.50 155.46
  L 90.75 155.35
  Q 56.41 155.18 22.06 155.24
  Q 19.78 155.24 17.00 152.96
  Q 14.00 148.78 14.00 147.25
  Q 14.00 84.55 14.00 21.85
  C 14.00 20.66 14.51 19.76 14.46 18.50
  Q 15.42 15.72 18.00 14.29
  Q 20.49 12.77 21.81 12.77
  Q 62.08 12.72 102.32 12.77
  C 108.79 12.78 113.21 14.29 114.29 21.00
  Z
  M 28.16 25.58
  L 34.40 19.12
  A 1.16 0.56 -39.5 0 0 34.80 18.26
  L 34.69 17.72
  A 0.80 0.54 -3.6 0 0 33.94 17.28
  L 17.90 17.32
  A 0.54 0.51 0.5 0 0 17.36 17.82
  L 17.27 23.48
  A 0.71 0.67 10.7 0 0 17.75 24.14
  Q 21.59 25.45 20.77 21.47
  A 0.46 0.40 83.1 0 1 21.15 20.91
  L 27.29 20.90
  Q 27.90 20.90 27.44 21.35
  L 20.78 27.85
  A 0.68 0.60 -38.1 0 0 20.64 28.63
  Q 21.26 29.67 22.32 30.31
  A 0.92 0.80 -41.8 0 0 23.18 30.30
  C 29.62 26.90 34.34 34.47 29.70 39.16
  C 26.60 42.29 22.18 41.23 20.38 37.22
  A 0.90 0.76 77.8 0 0 19.69 36.69
  Q 18.41 36.61 17.32 37.41
  A 0.69 0.65 60.9 0 0 17.12 38.20
  C 19.77 44.61 26.56 46.51 31.78 41.95
  C 37.19 37.24 35.57 28.15 28.30 26.07
  A 0.30 0.29 29.8 0 1 28.16 25.58
  Z
  M 61.93 50.90
  L 60.20 50.41
  Q 59.52 50.22 59.26 50.27
  C 56.37 50.90 55.11 54.20 57.65 56.00
  Q 59.82 57.55 63.52 54.79
  Q 64.02 54.42 63.76 54.99
  L 62.01 58.77
  A 0.44 0.42 -70.9 0 0 62.28 59.37
  Q 63.99 59.78 65.76 59.35
  A 0.44 0.38 70.9 0 0 65.99 58.78
  L 64.42 55.04
  Q 64.17 54.45 64.77 54.62
  Q 65.39 54.79 65.69 55.43
  A 1.62 0.80 76.4 0 0 66.29 56.15
  C 71.46 58.87 73.97 51.54 68.76 50.26
  A 1.71 1.32 -43.1 0 0 67.81 50.35
  Q 64.12 51.83 66.74 49.86
  A 1.06 1.01 -17.7 0 0 67.17 49.07
  Q 67.36 43.04 61.95 45.30
  A 1.38 1.34 0.9 0 0 61.26 45.95
  Q 59.88 48.70 62.05 50.62
  Q 62.56 51.08 61.93 50.90
  Z
  M 28.41 56.33
  Q 30.49 54.06 29.32 51.68
  C 26.95 46.86 19.44 50.76 23.58 56.36
  Q 24.01 56.95 23.34 56.66
  C 15.20 53.12 15.50 66.34 23.19 62.87
  A 1.41 1.05 -83.9 0 0 23.82 62.19
  Q 24.63 60.36 26.66 60.71
  A 1.24 0.95 74.5 0 1 27.40 61.27
  Q 29.45 64.71 33.20 62.83
  A 1.62 1.52 -87.8 0 0 33.88 62.16
  Q 36.44 57.36 31.24 56.00
  A 1.78 0.74 -28.1 0 0 30.30 56.09
  L 28.55 56.60
  Q 28.01 56.76 28.41 56.33
  Z
  M 23.77 66.07
  A 0.31 0.31 -78.8 0 0 24.06 66.50
  L 27.94 66.50
  A 0.31 0.31 78.8 0 0 28.23 66.07
  L 26.29 61.38
  A 0.31 0.31 -37.0 0 0 25.71 61.38
  L 23.77 66.07
  Z
  M 65.96 82.62
  C 67.85 81.00 67.77 78.18 65.52 77.00
  C 61.98 75.14 58.99 80.18 61.72 82.27
  Q 63.24 83.43 61.44 82.77
  Q 57.28 81.24 56.26 85.28
  A 1.43 1.36 40.3 0 0 56.36 86.22
  C 59.85 93.50 63.52 83.21 65.79 87.55
  A 1.69 1.06 79.2 0 0 66.43 88.24
  Q 69.80 89.89 71.54 86.58
  A 1.38 1.33 53.8 0 0 71.67 85.64
  Q 70.69 81.00 66.03 82.75
  Q 65.65 82.90 65.96 82.62
  Z
  M 62.89 88.84
  Q 60.05 92.79 65.60 91.35
  A 0.44 0.43 -18.9 0 0 65.90 90.76
  L 64.47 87.41
  A 0.53 0.47 64.3 0 0 63.79 87.13
  Q 63.30 87.40 63.20 87.94
  Q 63.09 88.56 62.89 88.84
  Z
  M 103.99 111.48
  Q 103.96 111.36 103.98 111.27
  A 0.41 0.25 24.0 0 1 104.51 111.20
  Q 108.80 113.58 110.80 109.01
  Q 111.68 107.00 109.83 105.67
  Q 105.94 102.88 103.29 106.56
  C 101.68 108.81 104.05 102.31 104.10 102.17
  A 0.41 0.35 -76.7 0 0 103.81 101.61
  L 100.19 101.61
  A 0.41 0.35 77.3 0 0 99.89 102.17
  C 99.92 102.23 102.34 109.24 100.54 106.60
  Q 98.18 103.14 94.43 105.45
  Q 91.59 107.20 93.54 109.93
  C 96.05 113.43 99.45 110.89 99.93 111.32
  A 0.32 0.22 -41.8 0 1 99.84 111.71
  C 94.53 116.21 103.42 122.08 105.68 115.68
  Q 106.50 113.36 104.24 111.81
  A 0.65 0.40 21.4 0 1 103.99 111.48
  Z
  M 62.09 117.42
  Q 59.27 120.48 61.90 122.54
  C 66.18 125.90 69.35 118.85 65.83 117.52
  A 0.45 0.27 17.1 0 1 65.51 117.17
  C 65.54 116.94 66.09 116.96 66.27 117.05
  Q 70.30 119.10 71.70 114.92
  A 1.23 1.23 42.0 0 0 71.65 113.98
  Q 69.24 108.74 64.91 113.12
  Q 64.55 113.49 64.59 112.98
  Q 64.74 110.95 65.95 109.20
  A 0.36 0.35 -64.6 0 0 65.76 108.65
  Q 64.05 108.19 62.20 108.67
  A 0.37 0.34 65.2 0 0 62.02 109.22
  Q 63.19 110.93 63.29 113.04
  Q 63.32 113.54 63.02 113.13
  C 59.14 107.72 52.75 115.07 58.79 117.66
  A 1.57 1.35 -37.0 0 0 59.74 117.72
  L 61.94 117.18
  Q 62.42 117.06 62.09 117.42
  Z
  M 100.62 146.80
  L 107.15 140.30
  A 0.79 0.60 -37.5 0 0 107.36 139.52
  Q 106.84 138.34 105.71 137.69
  A 0.98 0.80 -40.5 0 0 104.82 137.71
  C 98.44 141.03 93.63 133.58 98.32 128.84
  C 101.47 125.66 105.96 126.85 107.69 130.93
  A 0.76 0.66 75.4 0 0 108.37 131.40
  Q 109.62 131.34 110.66 130.57
  A 0.66 0.64 61.8 0 0 110.88 129.80
  C 107.51 121.36 96.60 121.59 93.64 130.08
  C 91.78 135.42 94.45 140.35 99.81 142.05
  A 0.29 0.29 -57.9 0 1 99.92 142.54
  L 93.47 148.99
  Q 91.72 150.73 94.22 150.73
  L 109.98 150.73
  A 0.57 0.50 0.5 0 0 110.55 150.24
  L 110.74 144.52
  A 0.75 0.67 11.5 0 0 110.23 143.84
  Q 106.52 142.61 107.23 146.56
  A 0.46 0.43 84.3 0 1 106.82 147.10
  L 100.81 147.22
  Q 100.19 147.24 100.62 146.80
  Z"
/>
<path fill="#2d261b" d="
  M 28.30 26.07
  C 35.57 28.15 37.19 37.24 31.78 41.95
  C 26.56 46.51 19.77 44.61 17.12 38.20
  A 0.69 0.65 60.9 0 1 17.32 37.41
  Q 18.41 36.61 19.69 36.69
  A 0.90 0.76 77.8 0 1 20.38 37.22
  C 22.18 41.23 26.60 42.29 29.70 39.16
  C 34.34 34.47 29.62 26.90 23.18 30.30
  A 0.92 0.80 -41.8 0 1 22.32 30.31
  Q 21.26 29.67 20.64 28.63
  A 0.68 0.60 -38.1 0 1 20.78 27.85
  L 27.44 21.35
  Q 27.90 20.90 27.29 20.90
  L 21.15 20.91
  A 0.46 0.40 83.1 0 0 20.77 21.47
  Q 21.59 25.45 17.75 24.14
  A 0.71 0.67 10.7 0 1 17.27 23.48
  L 17.36 17.82
  A 0.54 0.51 0.5 0 1 17.90 17.32
  L 33.94 17.28
  A 0.80 0.54 -3.6 0 1 34.69 17.72
  L 34.80 18.26
  A 1.16 0.56 -39.5 0 1 34.40 19.12
  L 28.16 25.58
  A 0.30 0.29 29.8 0 0 28.30 26.07
  Z"
/>
<path fill="#f4f6f5" fill-opacity="0.957" d="
  M 14.46 18.50
  C 14.51 19.76 14.00 20.66 14.00 21.85
  Q 14.00 84.55 14.00 147.25
  Q 14.00 148.78 17.00 152.96
  Q 13.52 149.97 13.52 146.69
  Q 13.48 84.22 13.51 21.75
  Q 13.51 20.55 14.46 18.50
  Z"
/>
<path fill="#f4f6f5" fill-opacity="0.957" d="
  M 114.29 21.00
  L 114.50 21.04
  L 114.29 147.00
  C 113.76 133.39 114.25 117.71 114.14 106.25
  Q 113.70 63.63 114.29 21.00
  Z"
/>
<path fill="#2d261b" d="
  M 62.05 50.62
  Q 59.88 48.70 61.26 45.95
  A 1.38 1.34 0.9 0 1 61.95 45.30
  Q 67.36 43.04 67.17 49.07
  A 1.06 1.01 -17.7 0 1 66.74 49.86
  Q 64.12 51.83 67.81 50.35
  A 1.71 1.32 -43.1 0 1 68.76 50.26
  C 73.97 51.54 71.46 58.87 66.29 56.15
  A 1.62 0.80 76.4 0 1 65.69 55.43
  Q 65.39 54.79 64.77 54.62
  Q 64.17 54.45 64.42 55.04
  L 65.99 58.78
  A 0.44 0.38 70.9 0 1 65.76 59.35
  Q 63.99 59.78 62.28 59.37
  A 0.44 0.42 -70.9 0 1 62.01 58.77
  L 63.76 54.99
  Q 64.02 54.42 63.52 54.79
  Q 59.82 57.55 57.65 56.00
  C 55.11 54.20 56.37 50.90 59.26 50.27
  Q 59.52 50.22 60.20 50.41
  L 61.93 50.90
  Q 62.56 51.08 62.05 50.62
  Z"
/>
<path fill="#2d261b" d="
  M 28.55 56.60
  L 30.30 56.09
  A 1.78 0.74 -28.1 0 1 31.24 56.00
  Q 36.44 57.36 33.88 62.16
  A 1.62 1.52 -87.8 0 1 33.20 62.83
  Q 29.45 64.71 27.40 61.27
  A 1.24 0.95 74.5 0 0 26.66 60.71
  Q 24.63 60.36 23.82 62.19
  A 1.41 1.05 -83.9 0 1 23.19 62.87
  C 15.50 66.34 15.20 53.12 23.34 56.66
  Q 24.01 56.95 23.58 56.36
  C 19.44 50.76 26.95 46.86 29.32 51.68
  Q 30.49 54.06 28.41 56.33
  Q 28.01 56.76 28.55 56.60
  Z"
/>
<path fill="#2d261b" d="
  M 23.77 66.07
  L 25.71 61.38
  A 0.31 0.31 -34.3 0 1 26.29 61.38
  L 28.23 66.07
  A 0.31 0.31 81.4 0 1 27.94 66.50
  L 24.06 66.50
  A 0.31 0.31 -75.9 0 1 23.77 66.07
  Z"
/>
<path fill="#2d261b" d="
  M 66.03 82.75
  Q 70.69 81.00 71.67 85.64
  A 1.38 1.33 53.8 0 1 71.54 86.58
  Q 69.80 89.89 66.43 88.24
  A 1.69 1.06 79.2 0 1 65.79 87.55
  C 63.52 83.21 59.85 93.50 56.36 86.22
  A 1.43 1.36 40.3 0 1 56.26 85.28
  Q 57.28 81.24 61.44 82.77
  Q 63.24 83.43 61.72 82.27
  C 58.99 80.18 61.98 75.14 65.52 77.00
  C 67.77 78.18 67.85 81.00 65.96 82.62
  Q 65.65 82.90 66.03 82.75
  Z"
/>
<path fill="#2d261b" d="
  M 63.20 87.94
  Q 63.30 87.40 63.79 87.13
  A 0.53 0.47 64.3 0 1 64.47 87.41
  L 65.90 90.76
  A 0.44 0.43 -18.9 0 1 65.60 91.35
  Q 60.05 92.79 62.89 88.84
  Q 63.09 88.56 63.20 87.94
  Z"
/>
<path fill="#2d261b" d="
  M 104.24 111.81
  Q 106.50 113.36 105.68 115.68
  C 103.42 122.08 94.53 116.21 99.84 111.71
  A 0.32 0.22 -41.8 0 0 99.93 111.32
  C 99.45 110.89 96.05 113.43 93.54 109.93
  Q 91.59 107.20 94.43 105.45
  Q 98.18 103.14 100.54 106.60
  C 102.34 109.24 99.92 102.23 99.89 102.17
  A 0.41 0.35 77.3 0 1 100.19 101.61
  L 103.81 101.61
  A 0.41 0.35 -76.7 0 1 104.10 102.17
  C 104.05 102.31 101.68 108.81 103.29 106.56
  Q 105.94 102.88 109.83 105.67
  Q 111.68 107.00 110.80 109.01
  Q 108.80 113.58 104.51 111.20
  A 0.41 0.25 24.0 0 0 103.98 111.27
  Q 103.96 111.36 103.99 111.48
  A 0.65 0.40 21.4 0 0 104.24 111.81
  Z"
/>
<path fill="#2d261b" d="
  M 61.94 117.18
  L 59.74 117.72
  A 1.57 1.35 -37.0 0 1 58.79 117.66
  C 52.75 115.07 59.14 107.72 63.02 113.13
  Q 63.32 113.54 63.29 113.04
  Q 63.19 110.93 62.02 109.22
  A 0.37 0.34 65.2 0 1 62.20 108.67
  Q 64.05 108.19 65.76 108.65
  A 0.36 0.35 -64.6 0 1 65.95 109.20
  Q 64.74 110.95 64.59 112.98
  Q 64.55 113.49 64.91 113.12
  Q 69.24 108.74 71.65 113.98
  A 1.23 1.23 42.0 0 1 71.70 114.92
  Q 70.30 119.10 66.27 117.05
  C 66.09 116.96 65.54 116.94 65.51 117.17
  A 0.45 0.27 17.1 0 0 65.83 117.52
  C 69.35 118.85 66.18 125.90 61.90 122.54
  Q 59.27 120.48 62.09 117.42
  Q 62.42 117.06 61.94 117.18
  Z"
/>
<path fill="#2d261b" d="
  M 100.81 147.22
  L 106.82 147.10
  A 0.46 0.43 84.3 0 0 107.23 146.56
  Q 106.52 142.61 110.23 143.84
  A 0.75 0.67 11.5 0 1 110.74 144.52
  L 110.55 150.24
  A 0.57 0.50 0.5 0 1 109.98 150.73
  L 94.22 150.73
  Q 91.72 150.73 93.47 148.99
  L 99.92 142.54
  A 0.29 0.29 -57.9 0 0 99.81 142.05
  C 94.45 140.35 91.78 135.42 93.64 130.08
  C 96.60 121.59 107.51 121.36 110.88 129.80
  A 0.66 0.64 61.8 0 1 110.66 130.57
  Q 109.62 131.34 108.37 131.40
  A 0.76 0.66 75.4 0 1 107.69 130.93
  C 105.96 126.85 101.47 125.66 98.32 128.84
  C 93.63 133.58 98.44 141.03 104.82 137.71
  A 0.98 0.80 -40.5 0 1 105.71 137.69
  Q 106.84 138.34 107.36 139.52
  A 0.79 0.60 -37.5 0 1 107.15 140.30
  L 100.62 146.80
  Q 100.19 147.24 100.81 147.22
  Z"
/>
<path fill="#010001" fill-opacity="0.098" d="
  M 106.50 155.46
  Q 98.65 156.57 90.75 155.35
  L 106.50 155.46
  Z"
/>
</svg>
