<?xml version="1.0" encoding="utf-8"?>
<!-- Generator: Adobe Illustrator 27.0.1, SVG Export Plug-In . SVG Version: 6.00 Build 0)  -->
<svg version="1.1" id="Слой_1" xmlns="http://www.w3.org/2000/svg" xmlns:xlink="http://www.w3.org/1999/xlink" x="0px" y="0px"
	 viewBox="0 0 128 168" style="enable-background:new 0 0 128 168;" xml:space="preserve">
<style type="text/css">
	.st0{fill:#D8D8D8;}
	.st1{fill:#AAAAAA;}
	.st2{fill:#FFFFFF;}
	.st3{fill:#2D261B;}
</style>
<g>
	<path class="st0" d="M107.9,161.7H20.1c-6.9,0-12.4-5.6-12.4-12.4V18.8c0-6.9,5.6-12.4,12.4-12.4h87.8c6.9,0,12.4,5.6,12.4,12.4
		v130.5C120.3,156.1,114.8,161.7,107.9,161.7z"/>
	<path class="st1" d="M106.9,157.8H21.1c-5.5,0-9.9-4.4-9.9-9.9V19.8c0-5.5,4.4-9.9,9.9-9.9h85.8c5.5,0,9.9,4.4,9.9,9.9v128.1
		C116.8,153.4,112.4,157.8,106.9,157.8z"/>
	<path class="st2" d="M106.6,154.8H21.4c-4.4,0-8-3.6-8-8V20.9c0-4.4,3.6-8,8-8h85.2c4.4,0,8,3.6,8,8v125.9
		C114.6,151.2,111,154.8,106.6,154.8z"/>
</g>
<g>
	<path class="st3" d="M22.2,21.3l0.1,2.2c0,0.2,0.3,0.4,0.6,0.4c11.6-2.2,15.6,12.7,7.9,18.6c-4.9,3.7-10.6,1.8-13.3-3.4
		c-0.2-0.3-0.1-0.6,0-0.9c0.5-0.8,1.3-1.1,2.3-1.1c0.3,0,0.6,0.2,0.7,0.5c5,8.4,12.9,0,10-6.7c-1.6-3.7-5.3-5.3-8.6-2.1
		c-0.9,0.8-2.2,0.3-2.9-0.6c-0.2-0.2-0.3-0.5-0.3-0.9v-9.4c0-0.3,0.2-0.5,0.5-0.5h11.9c0.3,0,0.5,0.2,0.5,0.5v2.4
		c0,0.3-0.2,0.5-0.5,0.5l-8.4,0.1C22.5,20.8,22.2,21,22.2,21.3z"/>
	<path class="st3" d="M46.1,50.6c-1.8-1.6-1.8-3.4-0.2-5.3c0.2-0.2,0.5-0.4,0.8-0.5c3.3-0.7,4.7,0.7,4.4,4.2c0,0.3-0.2,0.6-0.5,0.8
		c-1.7,1.3-1.3,1.5,1.1,0.5c0.3-0.1,0.7-0.2,0.9-0.1c5.2,1.3,2.8,8.5-2.3,6c-0.2-0.1-0.5-0.4-0.6-0.7c-0.5-0.9-1.2-1.2-2.2-1.1
		c-0.3,0-0.6,0.2-0.8,0.5c-1.4,2-3.1,2.4-5.3,1.1c-0.3-0.2-0.5-0.4-0.6-0.7c-1-2.5-0.3-4.2,2.2-5c0.5-0.3,2.3,0.4,2.9,0.5
		C46.3,51,46.4,50.9,46.1,50.6z"/>
	<path class="st3" d="M82,50.7c3.1-1.2,5-0.2,5.7,2.9c0.1,0.3,0,0.7-0.1,0.9c-1.2,2.2-2.9,2.8-5.1,1.7c-0.2-0.1-0.5-0.4-0.6-0.7
		c-0.2-0.4-0.6-0.7-1-0.9c-0.4-0.1-0.5,0-0.3,0.4l1.6,3.8c0.1,0.2,0,0.5-0.2,0.5c0,0,0,0-0.1,0c-1.2,0.3-2.3,0.3-3.5,0
		c-0.2-0.1-0.4-0.3-0.3-0.5v-0.1l1.6-3.4c0.7-1.4,0.5-1.6-0.7-0.5c-2.8,2.9-5,2.6-6.6-0.6c-0.1-0.3-0.2-0.6-0.1-1
		c0.7-2.7,2.4-3.5,5.2-2.5c1.2,0.4,1.3,0.3,0.3-0.5c-1.1-0.8-1.4-1.9-0.9-3.2C78.9,41.3,86.6,46.7,82,50.7
		C81.7,50.8,81.8,50.8,82,50.7z"/>
	<path class="st3" d="M28.5,56.6l1.8-0.5c0.4-0.1,0.7-0.1,1-0.1c4.5,1.2,4.7,6.2,0.5,7.4c-3.1,0.9-4.3-2.8-5.1-2.7
		c-0.2,0-0.4,0.3-0.3,0.6v0.1l1.7,4.4c0.1,0.3,0,0.6-0.3,0.5c0,0-3.7,0-3.7,0c-0.2,0-0.3-0.3-0.3-0.5c0.2-0.5,2.5-5.3,1.3-5.1
		c-0.2,0-0.4,0.2-0.6,0.5c-1.1,2-2.6,2.7-4.5,2.2c-5.2-1.4-3-9.1,3.1-6.8c0.3,0.1,0.3,0,0.2-0.2c-3.9-5.8,3.8-9.4,6-4.4
		c0.6,1.5,0.3,3-1,4.4C28.1,56.6,28.2,56.7,28.5,56.6z"/>
	<path class="st3" d="M46.1,58.5l1.6-3.3c0.2-0.3,0.3-0.3,0.5,0l1.7,3.7c0.1,0.2,0,0.5-0.2,0.6c0,0,0,0-0.1,0
		c-1.2,0.3-2.3,0.3-3.3-0.2C46.1,59.1,46,58.7,46.1,58.5z"/>
	<path class="st3" d="M65.3,82.7c7.1-2.8,6.9,8.4,0.3,5.6c-0.3-0.1-0.5-0.3-0.7-0.7c-2.4-4.6-6.1,5.8-9.5-1.4
		c-0.1-0.3-0.2-0.6-0.1-1c0.8-2.9,2.6-3.7,5.5-2.3c0.1,0.1,0.3,0.1,0.4,0.1l0.1-0.1c0-0.1,0-0.1-0.1-0.2c-2-1.7-2-3.5-0.1-5.4
		c1.6-1.7,3.1-1.6,4.4,0.3C66.7,79.4,66.6,81.1,65.3,82.7C65,82.8,65,82.8,65.3,82.7z"/>
	<path class="st3" d="M62.8,87.7c0.2-0.2,0.4-0.2,0.6-0.1c0.1,0,0.1,0.1,0.1,0.2l1.3,3c0.1,0.2,0,0.5-0.2,0.6c0,0,0,0-0.1,0
		C60.7,92.3,60.1,91.1,62.8,87.7z"/>
	<path class="st3" d="M104.2,111.8c1.5,1,2,2.3,1.4,3.9c-2.2,6.3-10.9,0.7-6-3.9c0.7-0.7-1-0.3-1.3,0c-0.3,0.2-0.6,0.3-0.9,0.3
		c-4-0.6-5.1-2.6-3.3-6.2c0.1-0.3,0.4-0.5,0.7-0.7c2.4-1.2,4.3-0.7,5.7,1.4c1.8,2.7-0.6-4.3-0.6-4.4c-0.1-0.2,0-0.4,0.2-0.5h0.1h3.6
		c0.3,0,0.3,0.4,0.3,0.6c-0.2,0.7-3,6.4-0.6,4.4l1-1.2c0.2-0.3,0.5-0.5,0.8-0.6c7.9-2.3,6.7,10.3-0.7,6.4c-0.2-0.1-0.4-0.1-0.5,0
		l0,0c0,0.1,0,0.1,0,0.2C104,111.6,104.1,111.7,104.2,111.8z"/>
	<path class="st3" d="M50,117.4c1.9,1.6,2,3.3,0.5,5.1c-2.7,3.2-8.5-1.5-4.4-5.1c0.4-0.3,0.3-0.4-0.1-0.2l-1.6,0.5
		c-0.4,0.1-0.7,0.2-0.9,0.1c-6.4-1.8-1.8-8.9,2.3-5.9c0.2,0.1,0.4,0.4,0.6,0.8c0.2,0.5,1.4,1.2,1,0.2l-1.4-3.7
		c-0.1-0.2,0-0.5,0.2-0.5c1.2-0.3,2.4-0.3,3.5,0c0.2,0.1,0.3,0.3,0.3,0.5c0,0,0,0,0,0.1l-1.5,3.5c-0.1,0.2,0,0.4,0.1,0.5
		c0.3,0,0.4,0,0.7-0.3c4.1-5.3,10,2.5,3.8,4.7c-0.2,0.1-0.6,0.1-0.9,0l-2-0.6C49.7,117,49.6,117.1,50,117.4z"/>
	<path class="st3" d="M82,117.4c1.9,1.6,2,3.3,0.5,5.1c-2.7,3.2-8.5-1.5-4.4-5.1c0.3-0.3,0.3-0.4-0.1-0.3l-1.8,0.6
		c-0.4,0.1-0.7,0.1-0.9,0.1c-6.1-2.2-1.5-8.8,2.6-5.8c0.2,0.1,0.3,0.4,0.6,0.8c0.2,0.5,1.4,1.2,1,0.2l-1.4-3.7
		c-0.1-0.2,0-0.5,0.2-0.5c1.2-0.3,2.4-0.3,3.5,0c0.2,0.1,0.3,0.3,0.3,0.5c0,0,0,0,0,0.1l-1.5,3.5c-0.1,0.3-0.1,0.6,0.1,0.7
		c0.3,0,0.5-0.1,0.7-0.4c3.8-5.4,10.1,2.5,3.7,4.7c-0.2,0.1-0.6,0.1-0.9,0l-2-0.6C81.7,117,81.6,117.1,82,117.4z"/>
	<path class="st3" d="M105.2,143.9c-9.8,2.7-14.6-8.5-10.1-15.9c3.9-6.6,12.2-5.6,15.4,0.9c0.2,0.3,0.1,0.6,0,0.9
		c-0.5,0.7-1.2,1.1-2.1,1.2c-0.3,0-0.6-0.1-0.8-0.4c-5.5-8.9-13.2,0.3-10.2,6.7c1.8,3.7,5.7,5.1,8.8,1.8c0.2-0.2,0.5-0.3,0.8-0.3
		c0.8,0.2,1.4,0.6,1.9,1.2c0.2,0.2,0.3,0.6,0.3,0.9v9.2c0,0.3-0.2,0.5-0.5,0.5c-0.1,0-11.7,0-11.7,0c-0.3,0-0.6-0.3-0.7-0.6
		c-0.3-0.9-0.2-1.6,0-2.4c0.1-0.3,0.4-0.5,0.7-0.5h8.2c0.3,0,0.5-0.2,0.5-0.5l0,0v-2.4c0-0.2-0.2-0.4-0.4-0.4
		C105.3,143.9,105.2,143.9,105.2,143.9z"/>
</g>
</svg>
