<?xml version="1.0" encoding="utf-8"?>
<!-- Generator: Adobe Illustrator 27.0.1, SVG Export Plug-In . SVG Version: 6.00 Build 0)  -->
<svg version="1.1" id="Слой_1" xmlns="http://www.w3.org/2000/svg" xmlns:xlink="http://www.w3.org/1999/xlink" x="0px" y="0px"
	 viewBox="0 0 128 168" style="enable-background:new 0 0 128 168;" xml:space="preserve">
<style type="text/css">
	.st0{fill:#D8D8D8;}
	.st1{fill:#AAAAAA;}
	.st2{fill:#FFFFFF;}
	.st3{fill:#2D261B;}
</style>
<g>
	<path class="st0" d="M107.9,161.7H20.1c-6.9,0-12.4-5.6-12.4-12.4V18.8c0-6.9,5.6-12.4,12.4-12.4h87.8c6.9,0,12.4,5.6,12.4,12.4
		v130.5C120.3,156.1,114.8,161.7,107.9,161.7z"/>
	<path class="st1" d="M106.9,157.8H21.1c-5.5,0-9.9-4.4-9.9-9.9V19.8c0-5.5,4.4-9.9,9.9-9.9h85.8c5.5,0,9.9,4.4,9.9,9.9v128.1
		C116.8,153.4,112.4,157.8,106.9,157.8z"/>
	<path class="st2" d="M106.6,154.8H21.4c-4.4,0-8-3.6-8-8V20.9c0-4.4,3.6-8,8-8h85.2c4.4,0,8,3.6,8,8v125.9
		C114.6,151.2,111,154.8,106.6,154.8z"/>
</g>
<g>
	<path class="st3" d="M20.9,21.8c0.4,2.7-0.6,3.6-3.1,2.9c-0.3-0.1-0.5-0.4-0.5-0.6l0.1-5.9c0-0.3,0.2-0.5,0.5-0.5h14.3
		c0.4,0,0.7,0.1,0.8,0.4l1.3,2.3c0.1,0.2,0.1,0.6-0.1,0.9c-4.3,6.9-7.2,14.4-8.5,22.4c-0.1,0.3-0.3,0.6-0.6,0.6l-2.8,0.1
		c-0.2,0-0.4-0.3-0.4-0.5c1.4-7.6,3.8-14.9,7.4-21.8c0.1-0.2,0-0.4-0.1-0.5h-0.1l-7.8-0.1C21.1,21.3,20.9,21.5,20.9,21.8
		C20.9,21.7,20.9,21.8,20.9,21.8z"/>
	<path class="st3" d="M46.1,50.6c-1.4-1.3-1.7-2.9-0.8-4.7c0.1-0.3,0.4-0.5,0.7-0.6c3.6-1.5,5.4-0.2,5.2,3.8c0,0.3-0.2,0.6-0.4,0.8
		c-1.7,1.3-1.4,1.5,1.1,0.5c0.3-0.1,0.7-0.2,0.9-0.1c5.2,1.3,2.7,8.6-2.5,5.9c-0.2-0.1-0.5-0.4-0.6-0.7c-0.5-0.9-1.2-1.2-2.2-0.9
		c-0.3,0.1-0.5,0.3-0.8,0.6c-3.8,5.3-10-2.7-3.6-4.8c0.2-0.1,0.5,0,0.9,0.1l2,0.5C46.3,51,46.4,50.9,46.1,50.6z"/>
	<path class="st3" d="M78.1,50.6c-1.4-1.3-1.7-2.8-0.8-4.7c0.1-0.3,0.4-0.5,0.7-0.6c3.6-1.5,5.4-0.2,5.2,3.8c0,0.3-0.2,0.6-0.4,0.8
		c-1.7,1.3-1.4,1.5,1.1,0.5c0.3-0.1,0.7-0.2,1-0.1c5.3,1.3,2.7,8.7-2.5,5.9c-0.2-0.1-0.4-0.4-0.6-0.7c-0.5-0.9-1.2-1.2-2.2-0.9
		c-0.3,0.1-0.5,0.3-0.8,0.6c-3.8,5.3-10-2.7-3.6-4.8c0.2-0.1,0.5,0,0.9,0.1l2,0.5C78.3,51,78.4,50.9,78.1,50.6z"/>
	<path class="st3" d="M28.5,56.6l1.8-0.5c0.4-0.1,0.7-0.1,1-0.1c4.5,1.2,4.7,6.2,0.5,7.4c-3.1,0.9-4.3-2.8-5.1-2.7
		c-0.2,0-0.4,0.3-0.3,0.6v0.1l1.7,4.4c0.1,0.3,0,0.6-0.3,0.5c0,0-3.7,0-3.7,0c-0.3,0-0.3-0.4-0.3-0.6c0.1-0.2,2.7-6.7,1-4.7
		c-2.8,3.4-5.3,3.3-7.5-0.2c-0.2-0.3-0.2-0.6-0.2-0.9c0.6-3.6,2.6-4.8,6.1-3.5c0.3,0.1,0.3,0,0.2-0.2c-4-5.8,3.9-9.5,6-4.4
		c0.6,1.5,0.3,3-1,4.4C28.1,56.6,28.2,56.7,28.5,56.6z"/>
	<path class="st3" d="M46.1,58.5l1.6-3.3c0.2-0.3,0.3-0.3,0.5,0l1.7,3.7c0.1,0.2,0,0.5-0.2,0.6c0,0,0,0-0.1,0
		c-1.2,0.3-2.3,0.3-3.3-0.2C46.1,59.1,46,58.7,46.1,58.5z"/>
	<path class="st3" d="M79.7,55.1c0.2-0.5,0.5-0.5,0.7,0l1.6,3.6c0.1,0.2,0,0.5-0.2,0.6l0,0c-1.2,0.3-2.3,0.3-3.5,0
		c-0.3,0-0.4-0.3-0.3-0.5c0,0,0,0,0-0.1L79.7,55.1z"/>
	<path class="st3" d="M62,66.6c-1.4-1.3-1.7-2.8-0.8-4.7c0.1-0.3,0.4-0.5,0.7-0.6c3.6-1.5,5.4-0.2,5.2,3.8c0,0.3-0.2,0.6-0.4,0.8
		c-1.7,1.3-1.4,1.5,1.1,0.5c0.3-0.1,0.7-0.2,1-0.1c5.1,1.3,2.8,8.4-2.3,6c-0.2-0.1-0.5-0.4-0.7-0.7c-0.5-0.9-1.3-1.3-2.4-1
		c-0.3,0.1-0.6,0.3-0.8,0.6c-3.8,5.3-10-2.6-3.6-4.8c0.2-0.1,0.5,0,0.9,0.1l2,0.5C62.3,67,62.4,66.9,62,66.6z"/>
	<path class="st3" d="M63.7,71.2c0.3-0.5,0.5-0.5,0.7,0.1l1.6,3.5c0.1,0.2,0,0.5-0.2,0.6l0,0c-1.2,0.3-2.4,0.3-3.5,0
		C62,75.3,61.9,75,62,74.8c0,0,0,0,0-0.1L63.7,71.2z"/>
	<path class="st3" d="M46,82.6c-1.4-1.3-1.7-2.8-0.8-4.7c0.1-0.3,0.4-0.5,0.7-0.6c3.6-1.5,5.3-0.3,5.2,3.8c0,0.3-0.2,0.6-0.4,0.8
		c-1.7,1.3-1.4,1.5,1.1,0.5c0.3-0.1,0.7-0.2,0.9-0.1c5.4,1.3,2.5,10-3.6,4.7c-1.9-1.7-2.9,1-4.3,1.6c-4.4,1.8-6.8-5.1-1.6-6.2
		c0.2,0,0.5,0,0.9,0.1l1.7,0.5C46.4,83,46.4,82.9,46,82.6z"/>
	<path class="st3" d="M78.1,82.6c-1.4-1.3-1.7-2.8-0.8-4.7c0.1-0.3,0.4-0.5,0.7-0.6c3.6-1.5,5.3-0.2,5.2,3.8c0,0.3-0.2,0.6-0.4,0.8
		c-1.6,1.3-1.3,1.4,1.1,0.4c0.9-0.4,2-0.1,2.6,0.8c3.7,4.4-2.5,8-5.1,4c-0.2-0.3-0.5-0.6-0.7-0.6h-1.2c-0.2,0-0.5,0.2-0.8,0.6
		c-3.4,5-9.8-1.9-4.1-4.7c0.3-0.1,0.6-0.2,0.9-0.1l2.4,0.5C78.2,82.9,78.3,82.8,78.1,82.6z"/>
	<path class="st3" d="M46.1,90.5l1.7-3.3c0.2-0.3,0.3-0.3,0.5,0l1.7,3.6c0.1,0.2,0,0.5-0.2,0.6c0,0,0,0-0.1,0
		c-1.2,0.3-2.3,0.3-3.3-0.2C46.1,91.1,46,90.7,46.1,90.5L46.1,90.5z"/>
	<path class="st3" d="M79.2,87.9c0.1-0.4,0.3-0.7,0.6-0.9c0.2-0.1,0.4-0.1,0.6,0.1c0,0,0,0.1,0.1,0.1l1.5,3.5c0.1,0.2,0,0.5-0.2,0.6
		c0,0,0,0-0.1,0c-3.7,1-4.6,0.1-2.7-2.5C79,88.6,79.1,88.3,79.2,87.9z"/>
	<path class="st3" d="M103.9,111.2c-0.1,0.2,4.7,4.4-1,7.2c-0.3,0.1-0.6,0.2-0.9,0.1c-4.1-1.1-4.9-3.4-2.3-6.9
		c0.2-0.3,0.1-0.3-0.2-0.3l-2.2,0.6c-0.3,0.1-0.7,0.1-1,0c-7.3-2.8,0.1-11.4,4.2-5.4c1.9,2.7-0.3-3.5-0.6-4.4
		c-0.1-0.3,0-0.6,0.3-0.5c0,0,3.7,0,3.7,0c0.3,0,0.3,0.4,0.3,0.6c-0.2,0.4-2.3,5.1-1.2,4.8c0.2-0.1,0.5-0.2,0.7-0.5
		c1.5-2.2,3.4-2.5,5.9-1.2c1.6,0.9,2.1,2.2,1.3,3.9c-1.4,2.9-3.5,3.6-6.2,2C104.3,111.1,104,111.1,103.9,111.2z"/>
	<path class="st3" d="M50,117.4c1.9,1.6,2,3.3,0.5,5.1c-2.7,3.2-8.5-1.5-4.4-5.1c0.3-0.3,0.3-0.4-0.1-0.3l-1.8,0.6
		c-0.4,0.1-0.7,0.1-0.9,0.1c-3.1-1.1-3.8-3-1.9-5.7c0.2-0.3,0.5-0.5,0.8-0.6c2-0.6,3.7-0.1,4.9,1.6c0.2,0.3,0.3,0.2,0.3-0.1
		c-0.1-1.4-0.5-2.7-1.3-3.8c-0.1-0.2-0.1-0.4,0.1-0.5c0,0,0.1,0,0.1-0.1c1.2-0.3,2.4-0.3,3.5,0c0.2,0.1,0.3,0.3,0.3,0.5
		c0,0,0,0,0,0.1l-1.5,3.5c-0.1,0.3,0,0.6,0.2,0.7l0,0c0.2,0.1,0.4,0,0.5-0.3c4-5.7,10,2.4,3.8,4.6c-0.2,0.1-0.6,0.1-0.9,0l-2-0.6
		C49.7,117,49.6,117.1,50,117.4z"/>
	<path class="st3" d="M82,117.4c1.9,1.6,2,3.3,0.5,5.1c-2.7,3.2-8.5-1.5-4.4-5.1c0.3-0.3,0.3-0.4-0.1-0.3l-1.8,0.6
		c-0.4,0.1-0.7,0.1-0.9,0.1c-6.1-2.2-1.5-8.8,2.6-5.8c0.2,0.1,0.3,0.4,0.6,0.8c0.2,0.5,1.4,1.2,1,0.2l-1.4-3.7
		c-0.1-0.2,0-0.5,0.2-0.5c1.2-0.3,2.4-0.3,3.5,0c0.2,0.1,0.3,0.3,0.3,0.5c0,0,0,0,0,0.1l-1.5,3.5c-0.1,0.3-0.1,0.6,0.1,0.7
		c0.3,0,0.5-0.1,0.7-0.4c3.8-5.4,10.1,2.5,3.7,4.7c-0.2,0.1-0.6,0.1-0.9,0l-2-0.6C81.7,117,81.6,117.1,82,117.4z"/>
	<path class="st3" d="M99.1,146.7l7.8-0.1c0.2,0,0.4-0.2,0.4-0.5c0,0,0,0,0-0.1c-0.5-2.7,0.5-3.6,3-2.7c0.3,0.1,0.5,0.4,0.5,0.7
		l-0.1,5.8c0,0.3-0.2,0.5-0.5,0.5H95.9c-0.4,0-0.7-0.1-0.8-0.4l-1.3-2.3c-0.1-0.2-0.1-0.6,0.1-0.9c4.3-6.9,7.1-14.3,8.4-22.3
		c0.1-0.3,0.3-0.6,0.6-0.7c1-0.3,1.9-0.3,2.9,0c0.3,0.1,0.4,0.4,0.4,0.7c-1.5,7.5-4,14.8-7.3,21.7c-0.1,0.2,0,0.4,0.2,0.4
		C99,146.7,99,146.7,99.1,146.7z"/>
</g>
</svg>
