<?xml version="1.0" encoding="utf-8"?>
<!-- Generator: Adobe Illustrator 27.0.1, SVG Export Plug-In . SVG Version: 6.00 Build 0)  -->
<svg version="1.1" id="Слой_1" xmlns="http://www.w3.org/2000/svg" xmlns:xlink="http://www.w3.org/1999/xlink" x="0px" y="0px"
	 viewBox="0 0 128 168" style="enable-background:new 0 0 128 168;" xml:space="preserve">
<style type="text/css">
	.st0{fill:#D8D8D8;}
	.st1{fill:#AAAAAA;}
	.st2{fill:#FFFFFF;}
	.st3{fill:#2D261B;}
</style>
<g>
	<path class="st0" d="M107.8,161.7H20c-6.9,0-12.4-5.6-12.4-12.4V18.8c0-6.9,5.6-12.4,12.4-12.4h87.8c6.9,0,12.4,5.6,12.4,12.4
		v130.5C120.3,156.1,114.7,161.7,107.8,161.7z"/>
	<path class="st1" d="M106.8,157.8H21c-5.5,0-9.9-4.4-9.9-9.9V19.8c0-5.5,4.4-9.9,9.9-9.9h85.8c5.5,0,9.9,4.4,9.9,9.9v128.1
		C116.8,153.4,112.3,157.8,106.8,157.8z"/>
	<path class="st2" d="M106.5,154.8H21.3c-4.4,0-8-3.6-8-8V20.9c0-4.4,3.6-8,8-8h85.2c4.4,0,8,3.6,8,8v125.9
		C114.5,151.2,110.9,154.8,106.5,154.8z"/>
</g>
<g>
	<path class="st3" d="M28.3,26.1c7.3,2.1,8.9,11.2,3.5,15.9c-5.2,4.6-12,2.7-14.7-3.8c-0.1-0.3,0-0.6,0.2-0.8
		c0.7-0.5,1.5-0.8,2.4-0.7c0.3,0,0.6,0.2,0.7,0.5c1.8,4,6.2,5.1,9.3,1.9c4.6-4.7-0.1-12.3-6.5-8.9c-0.3,0.2-0.6,0.2-0.9,0
		c-0.7-0.4-1.3-1-1.7-1.7c-0.1-0.2-0.1-0.6,0.1-0.8l6.7-6.5c0.3-0.3,0.3-0.5-0.1-0.5h-6.1c-0.2,0-0.4,0.3-0.4,0.6
		c0.5,2.7-0.5,3.5-3,2.7c-0.3-0.1-0.5-0.4-0.5-0.7l0.1-5.7c0-0.3,0.2-0.5,0.5-0.5h16c0.4,0,0.7,0.2,0.8,0.4l0.1,0.5
		c0,0.2-0.1,0.6-0.4,0.9l-6.2,6.5c-0.1,0.1-0.1,0.3,0,0.4C28.2,26,28.3,26.1,28.3,26.1z"/>
	<path class="st3" d="M62,50.6c-1.4-1.3-1.7-2.8-0.8-4.7c0.1-0.3,0.4-0.5,0.7-0.7c3.6-1.5,5.3-0.2,5.2,3.8c0,0.3-0.2,0.6-0.4,0.8
		c-1.7,1.3-1.4,1.5,1.1,0.5c0.3-0.1,0.7-0.2,1-0.1c5.2,1.3,2.7,8.6-2.5,5.9c-0.2-0.1-0.4-0.4-0.6-0.7c-0.2-0.4-0.5-0.7-0.9-0.8
		s-0.5,0-0.3,0.4l1.6,3.7c0.1,0.2,0,0.5-0.2,0.6l0,0c-1.2,0.3-2.3,0.3-3.5,0c-0.2-0.1-0.4-0.3-0.3-0.5c0,0,0,0,0-0.1l1.8-3.8
		c0.2-0.4,0.1-0.4-0.2-0.2c-2.5,1.8-4.4,2.2-5.9,1.2c-2.5-1.8-1.3-5.1,1.6-5.7c0.2,0,0.5,0,0.9,0.1l1.7,0.5
		C62.4,51,62.4,50.9,62,50.6z"/>
	<path class="st3" d="M28.5,56.6l1.8-0.5C30.7,56,31,56,31.2,56c3.5,0.9,4.3,3,2.6,6.2c-0.2,0.3-0.4,0.5-0.7,0.7
		c-2.5,1.3-4.4,0.7-5.8-1.6c-0.2-0.3-0.5-0.5-0.7-0.6c-1.4-0.2-2.3,0.3-2.8,1.5c-0.1,0.3-0.4,0.6-0.6,0.7c-7.7,3.5-8-9.8,0.1-6.2
		c0.4,0.2,0.5,0.1,0.2-0.3c-4.1-5.6,3.4-9.5,5.7-4.7c0.8,1.6,0.5,3.1-0.9,4.7C28.1,56.6,28.2,56.7,28.5,56.6z"/>
	<path class="st3" d="M23.8,66.1l1.9-4.7c0.1-0.2,0.2-0.2,0.4-0.2c0.1,0,0.1,0.1,0.2,0.2l1.9,4.7c0.1,0.2,0,0.3-0.2,0.4h-0.1H24
		c-0.2,0-0.3-0.1-0.3-0.3C23.7,66.2,23.8,66.1,23.8,66.1z"/>
	<path class="st3" d="M66,82.7c3.1-1.2,5-0.2,5.6,2.9c0.1,0.3,0,0.7-0.1,0.9c-1.2,2.2-2.9,2.8-5.1,1.7c-0.2-0.1-0.5-0.4-0.6-0.7
		c-2.3-4.3-5.9,5.9-9.4-1.3c-0.1-0.3-0.2-0.6-0.1-0.9c0.7-2.7,2.4-3.5,5.2-2.5c1.2,0.4,1.3,0.3,0.3-0.5C59,80.2,62,75.1,65.5,77
		C67.7,78.2,67.8,81,66,82.7C65.8,82.8,65.8,82.8,66,82.7z"/>
	<path class="st3" d="M63.2,87.9c0.1-0.4,0.3-0.6,0.6-0.8c0.2-0.1,0.5,0,0.7,0.2l0,0l1.4,3.3c0.1,0.2,0,0.5-0.2,0.6c0,0,0,0-0.1,0
		c-3.7,1-4.6,0.1-2.7-2.5C63,88.7,63.1,88.4,63.2,87.9z"/>
	<path class="st3" d="M104.2,111.8c1.5,1,2,2.3,1.4,3.9c-2.3,6.4-11.2,0.5-5.8-4c0.1-0.1,0.2-0.3,0.1-0.4l0,0
		c-0.5-0.4-3.9,2.1-6.4-1.4c-1.3-1.8-1-3.3,0.9-4.5c2.5-1.5,4.5-1.2,6.1,1.2c1.8,2.6-0.6-4.4-0.7-4.4c-0.1-0.2,0-0.4,0.2-0.5h0.1
		h3.6c0.3,0,0.3,0.4,0.3,0.6c0,0.1-2.4,6.6-0.8,4.4c1.8-2.5,3.9-2.8,6.5-0.9c1.2,0.9,1.6,2,1,3.3c-1.3,3-3.4,3.8-6.3,2.2
		c-0.2-0.1-0.4-0.1-0.5,0c0,0,0,0.2,0,0.3C104,111.6,104.1,111.7,104.2,111.8z"/>
	<path class="st3" d="M61.9,117.2l-2.2,0.5c-0.3,0.1-0.7,0.1-1-0.1c-6-2.6,0.3-9.9,4.2-4.5c0.2,0.3,0.3,0.2,0.3-0.1
		c-0.1-1.4-0.5-2.7-1.3-3.8c-0.1-0.2-0.1-0.4,0.1-0.5h0.1c1.2-0.3,2.4-0.3,3.6,0c0.2,0,0.3,0.2,0.2,0.4c0,0,0,0.1-0.1,0.1
		c-0.8,1.2-1.3,2.4-1.4,3.8c0,0.3,0.1,0.4,0.3,0.1c2.9-2.9,5.1-2.6,6.7,0.9c0.1,0.3,0.2,0.6,0,0.9c-0.9,2.8-2.7,3.5-5.4,2.1
		c-0.2-0.1-0.7-0.1-0.8,0.1c0,0.1,0.1,0.3,0.3,0.3c3.5,1.3,0.3,8.4-3.9,5c-1.8-1.4-1.7-3.1,0.2-5.1
		C62.3,117.2,62.3,117.1,61.9,117.2z"/>
	<path class="st3" d="M100.8,147.2l6-0.1c0.2,0,0.4-0.2,0.4-0.5c0,0,0,0,0-0.1c-0.5-2.6,0.5-3.5,3-2.7c0.3,0.1,0.5,0.4,0.5,0.7
		l-0.2,5.7c0,0.3-0.3,0.5-0.6,0.5H94.2c-1.7,0-1.9-0.6-0.8-1.7l6.4-6.5c0.2-0.2,0.1-0.4-0.1-0.5c-5.4-1.7-8-6.6-6.2-12
		c3-8.5,13.9-8.7,17.2-0.3c0.1,0.3,0,0.6-0.2,0.8c-0.7,0.5-2.5,1.4-3,0.3c-1.7-4.1-6.2-5.3-9.4-2.1c-4.7,4.7,0.1,12.2,6.5,8.9
		c0.3-0.2,0.6-0.2,0.9,0c0.8,0.4,1.3,1,1.7,1.8c0.1,0.2,0,0.5-0.2,0.8l-6.5,6.5C100.3,147.1,100.4,147.2,100.8,147.2z"/>
</g>
</svg>
