<?xml version="1.0" encoding="utf-8"?>
<!-- Generator: Adobe Illustrator 27.0.1, SVG Export Plug-In . SVG Version: 6.00 Build 0)  -->
<svg version="1.1" id="Слой_1" xmlns="http://www.w3.org/2000/svg" xmlns:xlink="http://www.w3.org/1999/xlink" x="0px" y="0px"
	 viewBox="0 0 128 168" style="enable-background:new 0 0 128 168;" xml:space="preserve">
<style type="text/css">
	.st0{fill:#D8D8D8;}
	.st1{fill:#AAAAAA;}
	.st2{fill:#FFFFFF;}
	.st3{fill:#2D261B;}
</style>
<g>
	<path class="st0" d="M107.9,161.7H20.1c-6.9,0-12.4-5.6-12.4-12.4V18.8c0-6.9,5.6-12.4,12.4-12.4h87.8c6.9,0,12.4,5.6,12.4,12.4
		v130.5C120.3,156.1,114.8,161.7,107.9,161.7z"/>
	<path class="st1" d="M106.9,157.8H21.1c-5.5,0-9.9-4.4-9.9-9.9V19.8c0-5.5,4.4-9.9,9.9-9.9h85.8c5.5,0,9.9,4.4,9.9,9.9v128.1
		C116.8,153.4,112.4,157.8,106.9,157.8z"/>
	<path class="st2" d="M106.6,154.8H21.4c-4.4,0-8-3.6-8-8V20.9c0-4.4,3.6-8,8-8h85.2c4.4,0,8,3.6,8,8v125.9
		C114.6,151.2,111,154.8,106.6,154.8z"/>
</g>
<g>
	<path class="st3" d="M21.8,25.7c9.8-5.2,15.9,7.8,10.7,15.1c-2.5,3.5-6.4,4.8-10.2,2.7c-6.6-3.6-6.4-20.1-1.4-24.7
		c3.6-3.3,9.6-1.6,12.4,2.3c0.2,0.3,0.1,0.6,0,0.8c-0.6,0.6-1.4,1.1-2.2,1.3c-0.3,0.1-0.6-0.1-0.8-0.3c-3.1-4.3-8.2-2.5-8.9,2.6
		C21.3,25.8,21.4,25.9,21.8,25.7z M26.3,40.9c6.5-0.6,5.8-12.8-0.6-12.8c-2.7,0.1-4.8,3.1-4.6,6.6C21.2,38.2,23.6,41,26.3,40.9z"/>
	<path class="st2" d="M25.7,28c2.7-0.1,5,2.6,5.2,6.2c0.1,8.5-9.2,8.9-9.8,0.4C20.9,31.1,23,28.1,25.7,28z"/>
	<path class="st3" d="M46.1,50.6c-1.8-1.6-1.8-3.4-0.2-5.3c0.2-0.2,0.5-0.4,0.8-0.5c3.3-0.7,4.7,0.7,4.4,4.2c0,0.3-0.2,0.6-0.5,0.8
		c-1.7,1.3-1.3,1.5,1.1,0.5c0.3-0.1,0.7-0.2,0.9-0.1c5.2,1.3,2.8,8.5-2.3,6c-0.2-0.1-0.5-0.4-0.6-0.7c-0.5-0.9-1.2-1.2-2.2-1.1
		c-0.3,0-0.6,0.2-0.8,0.5c-1.4,2-3.1,2.4-5.3,1.1c-0.3-0.2-0.5-0.4-0.6-0.7c-1-2.5-0.3-4.2,2.2-5c0.5-0.3,2.3,0.4,2.9,0.5
		C46.3,51,46.4,50.9,46.1,50.6z"/>
	<path class="st3" d="M78.1,50.6c-1.4-1.3-1.7-2.9-0.8-4.7c0.1-0.3,0.4-0.5,0.7-0.6c3.6-1.5,5.4-0.2,5.2,3.8c0,0.3-0.2,0.6-0.4,0.8
		c-1.7,1.3-1.4,1.5,1.1,0.5c0.3-0.1,0.7-0.2,1-0.1c5.2,1.3,2.7,8.6-2.5,5.9c-0.2-0.1-0.5-0.4-0.6-0.7c-0.5-0.9-1.2-1.2-2.2-0.9
		c-0.3,0.1-0.5,0.3-0.8,0.6c-3.8,5.3-10-2.7-3.6-4.8c0.2-0.1,0.5,0,0.9,0.1l2,0.5C78.3,51,78.4,50.9,78.1,50.6z"/>
	<path class="st3" d="M28.6,56.7c0.4-0.1,0.9-0.2,1.3-0.5c0.3-0.2,0.6-0.3,0.9-0.2c3.8,0.6,4.9,2.7,3.1,6.2
		c-0.1,0.3-0.4,0.5-0.7,0.7c-4.2,2.1-6.1-2.4-6.6-2.2c-0.2,0.1-0.3,0.4-0.2,0.8l0,0l1.7,4.4c0.1,0.3,0,0.6-0.3,0.5c0,0-3.7,0-3.7,0
		c-0.2,0-0.3-0.3-0.3-0.5c0.2-0.5,2.5-5.3,1.3-5.1c-0.2,0-0.4,0.2-0.6,0.5c-1.4,2.5-3.5,3-6.2,1.4c-1.5-0.9-1.9-2.1-1.2-3.6
		c1.2-2.8,3.2-3.6,6-2.4c0.3,0.1,0.3,0,0.2-0.2c-6.2-9.7,11.9-7.6,5,0C28.2,56.6,28.2,56.7,28.6,56.7z"/>
	<path class="st3" d="M46.1,58.5l1.6-3.3c0.2-0.3,0.3-0.3,0.5,0l1.7,3.7c0.1,0.2,0,0.5-0.2,0.6c0,0,0,0-0.1,0
		c-1.2,0.3-2.3,0.3-3.3-0.2C46.1,59.1,46,58.7,46.1,58.5L46.1,58.5z"/>
	<path class="st3" d="M79.2,55.9c0.1-0.3,0.3-0.6,0.5-0.9c0.2-0.1,0.4-0.1,0.6,0.1c0,0,0,0.1,0.1,0.1l1.5,3.5c0.1,0.2,0,0.5-0.2,0.6
		c0,0,0,0-0.1,0c-3.7,1-4.6,0.1-2.7-2.5C79,56.6,79.1,56.3,79.2,55.9z"/>
	<path class="st3" d="M50,82.7c3.1-1.2,5-0.2,5.7,2.9c0.1,0.3,0,0.7-0.1,0.9c-1.9,3.5-4.1,2.3-6.4,0.3c-2.5-2.2-4.2,4.6-7.9,0.9
		c-3-3.1,0.5-6.5,4.5-5.1c0.3,0.1,0.3,0,0.1-0.2c-1.7-1.7-1.8-3.4-0.3-5c2.9-3.2,8.3,1.7,4.4,5C49.8,82.8,49.8,82.8,50,82.7z"/>
	<path class="st3" d="M78.1,82.6c-1.4-1.3-1.7-2.9-0.8-4.7c0.1-0.3,0.4-0.5,0.7-0.6c3.6-1.5,5.4-0.2,5.2,3.8c0,0.3-0.2,0.6-0.4,0.8
		c-1.7,1.3-1.4,1.5,1.1,0.5c0.3-0.1,0.7-0.2,1-0.1c5.2,1.3,2.7,8.6-2.5,5.9c-0.2-0.1-0.5-0.4-0.6-0.7c-0.5-0.9-1.2-1.2-2.2-0.9
		c-0.3,0.1-0.5,0.3-0.8,0.6c-3.8,5.3-10-2.7-3.6-4.8c0.2-0.1,0.5,0,0.9,0.1l2,0.5C78.3,83,78.4,82.9,78.1,82.6z"/>
	<path class="st3" d="M79.7,87.1c0.2-0.5,0.5-0.5,0.7,0l1.6,3.6c0.1,0.2,0,0.5-0.2,0.6l0,0c-1.2,0.3-2.3,0.3-3.5,0
		c-0.3,0-0.4-0.3-0.3-0.5c0,0,0,0,0-0.1L79.7,87.1z"/>
	<path class="st3" d="M46.2,90.5c0.1-0.1,1.4-3.4,1.8-3.5c0.2,0,0.5,0.2,0.6,0.6l1.5,3.2c0.1,0.2,0,0.5-0.1,0.5c0,0,0,0-0.1,0
		c-1.3,0.4-2.5,0.4-3.5-0.1C46.1,91.1,46,90.8,46.2,90.5z"/>
	<path class="st3" d="M104.2,111.8c1.5,1,2,2.3,1.4,3.9c-2.3,6.4-11.2,0.5-5.8-4c0.1-0.1,0.2-0.3,0.1-0.4l0,0
		c-0.5-0.4-3.9,2.1-6.4-1.4c-1.3-1.8-1-3.3,0.9-4.5c2.5-1.5,4.5-1.2,6.1,1.2c1.8,2.6-0.6-4.4-0.7-4.4c-0.1-0.2,0-0.4,0.2-0.5h0.1
		h3.6c0.3,0,0.3,0.4,0.3,0.6c-0.6,1.4-1,2.8-1.4,4.2c-0.4,1.4,0.7,0.4,0.8,0.1c1.6-2.3,3.7-2.6,6.2-0.8c1.2,0.9,1.6,2,1,3.3
		c-1.3,3-3.4,3.8-6.3,2.2c-0.2-0.1-0.4-0.1-0.5,0c0,0,0,0.2,0,0.3C104,111.6,104.1,111.7,104.2,111.8z"/>
	<path class="st3" d="M50,117.4c1.9,1.6,2,3.3,0.5,5.1c-2.7,3.2-8.5-1.5-4.4-5.1c0.3-0.3,0.3-0.4-0.1-0.3l-1.8,0.6
		c-0.4,0.1-0.7,0.1-0.9,0.1c-3.1-1.1-3.8-3-1.9-5.7c0.2-0.3,0.5-0.5,0.8-0.6c2-0.6,3.7-0.1,4.9,1.6c0.2,0.3,0.3,0.2,0.3-0.1
		c-0.1-1.4-0.5-2.7-1.3-3.8c-0.1-0.2-0.1-0.4,0.1-0.5c0,0,0.1,0,0.1-0.1c1.2-0.3,2.4-0.3,3.5,0c0.2,0.1,0.3,0.3,0.3,0.5
		c0,0,0,0,0,0.1l-1.5,3.5c-0.1,0.3,0,0.6,0.2,0.7l0,0c0.2,0.1,0.4,0,0.5-0.3c4-5.7,10,2.4,3.8,4.6c-0.2,0.1-0.6,0.1-0.9,0l-2-0.6
		C49.7,117,49.6,117.1,50,117.4z"/>
	<path class="st3" d="M82,117.4c1.9,1.6,2,3.3,0.5,5.1c-2.7,3.2-8.4-1.4-4.4-5.1c0.2-0.2,0.2-0.3-0.1-0.2l-2.2,0.6
		c-0.3,0.1-0.7,0.1-0.9-0.1c-6-2.6,0.4-9.9,4.2-4.5c0.2,0.3,0.3,0.2,0.3-0.1c-0.1-1.4-0.5-2.7-1.3-3.8c-0.1-0.2-0.1-0.4,0.1-0.5h0.1
		c1.2-0.3,2.4-0.3,3.5,0c0.2,0.1,0.3,0.3,0.3,0.5c0,0,0,0,0,0.1l-1.5,3.5c-0.1,0.3-0.1,0.6,0.1,0.7c0.3,0,0.5-0.1,0.7-0.4
		c3.8-5.4,10.1,2.5,3.7,4.7c-0.2,0.1-0.6,0.1-0.9,0l-2-0.6C81.7,117,81.6,117.1,82,117.4z"/>
	<path class="st3" d="M106.2,142.3c-11.9,6.3-18-13.9-6.8-18.3c3.9-1.5,7.6,0.3,9.3,4.2c2.7,6,2.8,12.1,0.2,18.2
		c-2.4,5.6-8.2,5.8-12.6,2.3c-2.3-1.8-2.1-3.1,0.6-3.7c0.3-0.1,0.6,0.1,0.8,0.3c3.1,4,8.5,2.4,8.9-2.7
		C106.7,142.2,106.5,142.1,106.2,142.3z M102.2,139.9c2.7-0.1,4.8-3,4.7-6.6l0,0c-0.5-8.4-9.9-8.1-9.8,0.4l0,0
		C97.2,137.3,99.5,140,102.2,139.9z"/>
	<path class="st2" d="M101.8,127.1c2.7-0.1,5,2.7,5.1,6.2c0.1,8.5-9.2,8.8-9.8,0.4C97,130.1,99.1,127.2,101.8,127.1z"/>
</g>
</svg>
