<?xml version="1.0" encoding="utf-8"?>
<!-- Generator: Adobe Illustrator 27.0.1, SVG Export Plug-In . SVG Version: 6.00 Build 0)  -->
<svg version="1.1" id="Слой_1" xmlns="http://www.w3.org/2000/svg" xmlns:xlink="http://www.w3.org/1999/xlink" x="0px" y="0px"
	 viewBox="0 0 128 168" style="enable-background:new 0 0 128 168;" xml:space="preserve">
<style type="text/css">
	.st0{fill:#D8D8D8;}
	.st1{fill:#AAAAAA;}
	.st2{fill:#FFFFFF;}
	.st3{fill:#2D261B;}
	.st4{fill:#0A0E12;}
	.st5{fill:#B3181E;}
	.st6{fill:#C3151E;}
	.st7{fill:#E7D736;}
	.st8{fill:#DECC30;}
	.st9{fill:#484628;}
	.st10{fill:#B3A62E;}
	.st11{fill:#BFB229;}
	.st12{fill:#2C315D;}
	.st13{fill:#A3992B;}
	.st14{fill:#F2F4F5;fill-opacity:0.973;}
	.st15{fill:#CBBC31;}
	.st16{fill:#D4D5DE;}
	.st17{fill:#8F92AA;}
	.st18{fill:#8A8028;}
	.st19{fill:#222221;}
	.st20{fill:#414469;}
	.st21{fill:#21202C;}
	.st22{fill:#484C73;}
	.st23{fill:#695D18;}
	.st24{fill:#585D7A;}
	.st25{fill:#707793;}
	.st26{fill:#AEB1C2;}
	.st27{fill:#86192A;}
	.st28{fill:#27274F;}
	.st29{fill:#312F20;}
	.st30{fill:#718459;}
</style>
<g>
	<path class="st0" d="M107.7,161.5H19.9c-6.9,0-12.4-5.6-12.4-12.4V18.6c0-6.9,5.6-12.4,12.4-12.4h87.8c6.9,0,12.4,5.6,12.4,12.4
		v130.5C120.1,155.9,114.6,161.5,107.7,161.5z"/>
	<path class="st1" d="M106.7,157.7H20.9c-5.5,0-9.9-4.4-9.9-9.9V19.6c0-5.5,4.4-9.9,9.9-9.9h85.8c5.5,0,9.9,4.4,9.9,9.9v128.1
		C116.6,153.2,112.2,157.7,106.7,157.7z"/>
	<path class="st2" d="M106.4,154.6H21.2c-4.4,0-8-3.6-8-8V20.8c0-4.4,3.6-8,8-8h85.2c4.4,0,8,3.6,8,8v125.9
		C114.4,151,110.8,154.6,106.4,154.6z"/>
</g>
<g>
	<path class="st3" d="M31.8,21.6c-0.1,6.5,2.4,20.8-5.6,22.7c-5.6,1.3-9.3-3.4-8.9-8.8c0-0.3,0.2-0.6,0.5-0.6c0.8-0.2,1.7-0.2,2.6,0
		c0.3,0.1,0.4,0.3,0.4,0.6c-0.9,6.3,7.4,7.6,7.5,1c0.1-5,0.1-9.9,0-14.9c0-0.3-0.2-0.5-0.5-0.4c-2.4,0.2-3.2-0.9-2.3-3.4
		c0.1-0.3,0.4-0.5,0.7-0.5h7.7c0.3,0,0.6,0.2,0.7,0.5c0.8,2.3,0.1,3.4-2.1,3.4C32,21.1,31.8,21.3,31.8,21.6z"/>
	<path class="st4" d="M102.2,54.5l-0.7,0.7c-0.8,0.2-1.3,0.8-1.5,1.5l-0.7,0.5c-0.9,0.7-1.6,0.7-2.2,0.1c-1.8-0.7-3.4-0.3-4.8,1.2
		L91,59c-2.1-1-0.7,4.4-0.5,4.8c-0.2,0.7,0,1.1,0.5,1.5v1L89.5,67c-1.3-0.1-1.5-0.7-0.5-1.8c0.1-0.8-0.2-1.3-0.9-1.5
		c-0.3-0.1-0.4-0.4-0.3-0.6c0.2-0.6,1.7-1.8,0.5-2.2L88,59.3l0.5-0.2c0.6-0.4,0.7-1,0.2-1.5c-0.1-0.9-0.6-1.4-1.5-1.5h-1l-0.8-0.8
		c-1.3-1.4-2.4-1.4-3.5-0.2c-1.5,0.6-1.9,1.8-1.1,3.5h-1.6l0.2-1.5c0.4-1.6,1.2-2.9,2.5-4c2.7-0.9,2.9-2.2,0.7-3.8
		c-0.2-0.1-0.4-0.1-0.5-0.1c-0.3,0.3-0.2,0.7,0,1.1c0.6,0.9,0.5,1.8-0.2,2.8c-1.9,0.5-3,1.7-3.2,3.7h-0.5c-1.2-0.9-2.5-0.1-3.5,1
		l-1-0.1c1.2-1.1,1.2-1.5,0-1.2v-0.7c7,0.7,9-9.6,8.9-14.4l0.6-0.2l0.8,2.3L83.8,44c-1.1,0.9-1.1,1.6,0.2,2.3
		c0.7,0.6,1.6,0.8,2.5,0.5l0.3,0.7c-1.2,0.6-2.2,0.4-3-0.4c-0.6-0.7-0.9-0.5-0.8,0.4c0.5,3.7,3.1,2.2,4.3,4.3L87,52.3
		c-0.5-0.7-1.1-1-1.7-1c-0.4,0-0.4,0.1-0.1,0.3c0.8,0.5,0.9,1,0.2,1.4c-0.3,0.2-0.4,0.5-0.2,0.7c0.3,0.4,0.7,0.4,1.2,0.1l0.5,0.5
		l4.3,3.3c0.3,0.2,0.6,0.2,0.9,0.1l2.6-1.4c0.3-0.1,0.4-0.4,0.4-0.8v-15c-0.1-1.1-1.5-0.9-2.3-0.7c-1.1,0.2-1.2,0-0.5-0.8l8.8-9.1
		c0.2-0.2,0.4-0.6,0.3-0.9l-0.1-3.5c0-0.3-0.2-0.5-0.5-0.5c-1.2,0-15.9-1.5-12.7,2.8c1.9,2.5,2.8,5.6,4,8.4c0.1,0.2-0.1,0.5-0.3,0.5
		c-3,0.4-5.4-0.6-7.2-2.9c-0.2-0.2-0.5-0.3-0.7-0.1c-0.6,0.5-1.1,1.1-1.4,1.7l-0.4,0.2c-0.9,0-14.1-0.1-14.6-0.1
		c-0.7-0.6-1.5-0.7-2.3-0.3h-1c-0.6-0.4-1.2-0.4-1.8,0l-5-0.2L56,34.8l-6-9.2c-0.2-0.3-0.5-0.4-0.8-0.5c-2.7-0.1-12.5,0.2-12.4-0.7
		c0.1-0.3,0.3-0.5,0.7-0.5c28.2,0.5,45.3,0.6,51.4,0.3c5.4-0.3,9.7-0.2,12.9,0c0.3,0,0.5,0.3,0.5,0.5L102.2,54.5z M74,30.8
		c0.6-0.9,0.7-4.2,0.5-5c-0.1-0.3-0.3-0.5-0.6-0.5L65,25.5c-0.3,0-0.5,0.2-0.4,0.5l1.4,4.8c0.1,0.3,0.4,0.4,0.7,0.5h6.5
		C73.5,31.2,73.9,31.1,74,30.8z M83.8,25.4l-4.4,0.1c-0.3,0-0.5,0.2-0.5,0.5l-0.5,4.1c-0.1,1.4,2.9,1.4,3.4,0.3l2.5-4.4
		C84.5,25.7,84.4,25.4,83.8,25.4z M85.8,28.1c0.2-0.6,2.5-2.7,0.3-2.4c-0.3,0-0.5,0.2-0.7,0.5l-3.2,5.4c-0.2,0.3-0.5,0.5-0.8,0.5
		h-3.7c-0.3,0-0.5-0.2-0.5-0.5c0,0,0.3-5.1,0.4-5.2c0.1-1.5-2-1.3-2,0l-0.3,5.2c0,0.3-0.2,0.5-0.5,0.5h-9.2c-0.3,0-0.6-0.2-0.7-0.5
		L63.2,26c-0.1-0.3-0.3-0.6-0.6-0.6c-1.3-0.4-1.8,0-1.4,1.2c0.8,2.3,1.2,4,1.4,5c0,0.3-0.2,0.5-0.4,0.5L57.4,32
		c-0.3,0-0.6-0.2-0.8-0.4c-0.6-0.8-4.2-6.9-5-6.1c-0.2,0.2-0.2,0.5,0,0.8l4.4,6.9c0.3,0.5,0.8,0.7,1.3,0.7l24.3,0.3
		c0.3,0,0.6-0.1,0.8-0.4C83.9,32.2,85,30.2,85.8,28.1z M54.5,26.1c1.3,2.5,3.1,6.5,6.6,4.8c0.3-0.1,0.4-0.4,0.3-0.7L60,26.1
		c-0.1-0.3-0.4-0.5-0.6-0.5h-4.6C54.5,25.6,54.3,25.9,54.5,26.1z M89.2,34.8c-1-0.3-4.1-3.8-4.4-2.5c-0.1,0.3,0,0.6,0.3,0.9
		c1.5,1.6,3.3,2.7,5.5,3.1c0.3,0.1,0.6-0.2,0.5-0.6c-0.2-0.7-2.8-8.8-4-7.4c-0.2,0.2-0.2,0.5,0,0.9l2.5,5.4
		C89.7,34.8,89.6,34.9,89.2,34.8z M96.6,37.3l4.7-5.1c0.7-0.6,0.1-1.5-0.6-0.7l-6.3,6.3c-0.8,0.8-0.6,1.1,0.4,1.2l6.2,0.2
		c0.3,0,0.6-0.2,0.6-0.5c0.2-1.1-3.8-0.8-4.8-0.9C96.5,37.7,96.4,37.6,96.6,37.3z M98.7,35.8c-2.2,0.9,4,3,2.7-1.4
		c-0.1-0.3-0.4-0.4-0.6-0.2C100.4,34.5,99.1,35.7,98.7,35.8z M97.5,53.5c0.7-0.5,1.5-0.7,2.2-0.5c-0.3,2,2.5,0.7,1-0.5
		c-1-0.3-1.6-0.9-1.8-2c1.1-0.9,1.9-2,2.5-3.2c0.2-0.3,0.1-0.5-0.3-0.4c-1.8,0.5-2.9,1.7-3.2,3.6c0.1,0.9,0,1.8-0.5,2.7
		c-0.2-0.5-0.7-1.1-0.3-1.7c0.4-0.7,0.4-1.3,0.1-1.8c-0.4-0.5-0.2-1.2,0.4-1.5c1.4-0.8,4.4-2.9,4.1-4.4c-0.2-1.2-3.6,2.8-3.8,2.9
		c-0.5,0.5-0.8,0.4-0.9-0.3c-0.2-1.3,0.9-6.1-0.5-6.2c-0.3,0-0.5,0.2-0.5,0.6c0,1.6-0.3,15.1,0.5,15.4c0.2,0.1,0.3-0.1,0.4-0.3
		C96.9,55,97,54.2,97.5,53.5z M99.7,40.3c-0.5-0.5-1.6-0.5-1.7,0.4c0,0.6,0.3,0.8,1,0.7s0.7,1,1.5,1.1c0.3,0.1,0.6-0.1,0.7-0.4
		C101.5,40.8,100.4,40.9,99.7,40.3z M99.1,42.5c-0.7-0.2-1,0.1-0.9,0.9c0.1,0.3,0.3,0.5,0.6,0.5C100.2,44.2,100,42.8,99.1,42.5z
		 M98.7,55.2c0.6,0.1,1.1-0.9,0.4-1.1C97.9,53.5,97.8,55.1,98.7,55.2z"/>
	<path class="st2" d="M87,54.2c0.8-0.8,0.9-1.6,0.3-2.5c-1.2-2.1-3.8-0.5-4.3-4.3c-0.1-0.9,0.1-1.1,0.8-0.4c0.8,0.9,1.8,1,3,0.4
		c1-1.1,1.1-2,0.1-2.7c-0.2-0.1-0.5-0.2-0.9-0.3c-0.8-0.1-1.4-0.4-1.9-1.1L83.3,41c-0.5-1.9-0.7-3.8-0.5-5.7
		c0.3-0.6,0.8-1.2,1.4-1.7c0.2-0.2,0.5-0.1,0.7,0.1c1.8,2.3,4.2,3.3,7.2,2.9c0.2,0,0.4-0.2,0.3-0.4c-1.2-2.9-2.1-6-4-8.5
		C85,23.5,99.7,25,100.9,25c0.3,0,0.5,0.2,0.5,0.5l0.1,3.5c0,0.3-0.1,0.6-0.3,0.9L92.4,39c-0.8,0.8-0.6,1.1,0.5,0.8
		c0.8-0.1,2.3-0.3,2.4,0.7v14.9c0,0.3-0.2,0.7-0.4,0.8l-2.6,1.4c-0.3,0.2-0.6,0.1-0.9-0.1L87,54.2z"/>
	<path class="st5" d="M74.5,25.8c0.2,0.8,0.1,4.1-0.5,5c-0.2,0.2-0.5,0.4-0.8,0.4h-6.5c-0.3,0-0.6-0.2-0.7-0.5L64.6,26
		c-0.1-0.2,0.2-0.5,0.4-0.5l8.9-0.2C74.2,25.4,74.4,25.6,74.5,25.8z"/>
	<path class="st5" d="M83.8,25.4c0.6,0,0.7,0.2,0.4,0.7l-2.5,4.4c-0.5,1.1-3.5,1.1-3.4-0.3l0.5-4.1c0-0.3,0.3-0.5,0.5-0.5L83.8,25.4
		z"/>
	<path class="st6" d="M85.8,28.1c-0.8,2.1-2,4-3.5,5.8c-0.2,0.2-0.5,0.4-0.8,0.4L57.2,34c-0.5,0-1.1-0.3-1.3-0.7l-4.4-6.9
		c-0.2-0.3-0.2-0.6,0-0.8c0.8-0.8,4.4,5.3,5,6.1c0.2,0.3,0.5,0.4,0.8,0.4l4.8,0.1c0.3,0,0.5-0.3,0.4-0.5c-0.2-1-0.6-2.7-1.4-5
		c-0.4-1.2,0.1-1.6,1.4-1.2c0.3,0.1,0.5,0.3,0.6,0.6l1.7,5.6c0.1,0.3,0.4,0.5,0.7,0.5h9.2c0.3,0,0.5-0.2,0.5-0.5l0.3-5.2
		c0-1.3,2.1-1.5,2,0l-0.4,5.1c0,0.3,0.2,0.6,0.5,0.6h3.7c0.3,0,0.6-0.2,0.8-0.5l3.2-5.4c0.2-0.3,0.4-0.5,0.7-0.5
		C88.3,25.4,86.1,27.6,85.8,28.1z"/>
	<path class="st5" d="M61.1,30.9c-3.5,1.7-5.4-2.4-6.6-4.8c-0.1-0.2,0-0.5,0.3-0.5h4.6c0.3,0,0.5,0.2,0.6,0.5l1.4,4.1
		C61.5,30.5,61.3,30.8,61.1,30.9z"/>
	<path class="st7" d="M89.5,34.5L87,29.1c-0.2-0.3-0.2-0.7,0-0.9c1.2-1.4,3.8,6.7,4,7.4c0.1,0.3-0.2,0.6-0.5,0.5
		c-2.2-0.4-4-1.5-5.5-3.1c-0.2-0.3-0.3-0.6-0.3-0.9c0.3-1.2,3.4,2.2,4.4,2.5C89.6,34.9,89.7,34.8,89.5,34.5z"/>
	<path class="st8" d="M96.8,37.8c0.9,0.2,4.9-0.1,4.8,0.9c0,0.3-0.3,0.5-0.6,0.5L94.7,39c-1,0-1.2-0.4-0.4-1.2l6.3-6.3
		c0.8-0.7,1.2,0.1,0.6,0.7l-4.7,5.1C96.4,37.6,96.5,37.7,96.8,37.8z"/>
	<path class="st6" d="M99.5,35.3l1.3-1.1c0.2-0.2,0.5,0,0.6,0.2c1.3,4.4-4.9,2.3-2.7,1.4C98.9,35.8,99.2,35.6,99.5,35.3z"/>
	<path class="st9" d="M57.5,35c0.4,1.8,3.5,3.5,2.9,4.8c-0.2,0.4-0.2,0.7-0.2,0.9c0.7,3.5,2,6.7,4,9.6c0.4,0.6,1.1,0.1,0.7-0.5
		C64.1,48.3,59,35.1,62.2,36c1.2,4.4,1.7,9.8,3.9,13.8c0.3,0.5,0.9,0.1,0.7-0.4c-1.5-4.9-2.4-9.6-2.6-14.2h1
		c0.1,0.9,1.4,10.1,2.4,9.8c0.2-0.1,0.3-0.4,0.3-0.8l-0.4-8.7H69c-0.6,0.9-0.4,3,0.9,2.6c1.8-0.8,3.6-0.7,5.3,0.1
		c0.5,0.3,0.2,0.8-0.4,0.7c-1.2-0.3-7.8-0.7-6.1,1.5c0.2,0.2,0.5,0.2,0.8,0.1c1.9-1.3,3.8-1.3,5.7,0.1c0.2,0.2,0.3,0.5,0.2,0.7
		c-0.9,1.4-2.1,2.5-3.6,3.2c-0.3,0.1-0.3,0.1-0.2-0.2c0.5-0.9,0.2-1.5-0.9-1.6c-0.3,0-0.5-0.2-0.7-0.5c-0.2-0.4-0.5-0.5-0.9-0.4
		c-0.3,0-0.5,0.3-0.5,0.7c0,2.9-0.6,5.8-1.9,8.7L66,51.7c0.1-0.4,0-0.7-0.2-0.7c-0.2-0.1-0.5,0.1-0.7,0.5c-0.4,0.7-1,1.2-1.8,1.5H63
		c1.3-2,0.7-3.1-1.8-3.2c-0.4,0-0.7-0.1-0.9-0.3l-2.2-1.9c-0.3-0.2-0.6-0.3-0.8-0.2c-0.3,0.2-0.2,0.4,0.3,0.7
		c1.9,1.2,2.7,2.8,2.4,4.8l-0.8-0.3c-0.7-2.3-1.9-4.2-3.8-5.7l1.1-1c1.6,0.7-0.3-2.4-1.8-2.8l0.5-3c0.2-0.3,0.5-0.3,0.7,0.1l4.3,7.4
		c0.1,0.3,0.5,0.3,0.8,0.3c0.3,0,0.3-0.4,0.2-0.7c-1.3-2.4-2-4.8-3.6-7.2c-0.6-0.9-1.1-2-1.5-3.1L56,34.8L57.5,35z M70.4,41.8
		c1.9,1.1,0.9-1.5-0.2-0.7C70,41.2,70.2,41.6,70.4,41.8z"/>
	<path class="st10" d="M57.5,35l5,0.2L62.2,36C59,35.1,64.1,48.3,65,49.8c0.4,0.5-0.1,1.1-0.6,0.6c-2.1-2.9-3.4-6.1-4.1-9.6
		c0-0.2,0-0.6,0.2-0.9C61,38.5,57.9,36.9,57.5,35z"/>
	<path class="st11" d="M64.2,35.3c0.2,4.5,1.1,9.3,2.6,14.2c0.1,0.4-0.5,0.8-0.8,0.3c-2.2-4-2.6-9.4-3.9-13.8l0.3-0.7
		C63.1,34.9,63.7,34.9,64.2,35.3z"/>
	<path class="st11" d="M67.5,35.5l0.4,8.7c0,0.4-0.1,0.7-0.3,0.8c-1,0.3-2.3-8.9-2.4-9.8C66,34.9,66.8,35,67.5,35.5z"/>
	<path class="st2" d="M82.3,35.7c0.5,2.1-0.2,2.8-2,2c-0.3-0.1-0.7-0.2-0.9-0.1c-2.6,0.9-1.5,7.2-1.4,8.7c0.1,0.5-0.5,1.1-0.5,1.6
		c0,0.4,0.1,0.5,0.5,0.3c1.1-0.7,1.2-1.7,0.5-3l1.2-0.8c0.3-1.6,1.3-2.6,3-3.1c0.1,4.8-1.9,15.1-8.9,14.4c-3.2-0.4-5.5-2-7-4.6
		c1.2-2.9,1.9-5.8,1.9-8.7c0-0.3,0.2-0.6,0.5-0.7c0.4-0.1,0.7,0.1,0.9,0.4c0.1,0.3,0.4,0.5,0.7,0.5c1.1,0.1,1.4,0.6,0.9,1.6
		c-0.2,0.3-0.1,0.4,0.2,0.2c1.5-0.8,2.7-1.9,3.6-3.2c0.2-0.2,0.1-0.6-0.2-0.7c-1.9-1.3-3.8-1.4-5.7-0.1c-0.3,0.2-0.6,0.1-0.8-0.1
		c-1.7-2.1,4.9-1.8,6.1-1.5c0.5,0.2,1-0.5,0.4-0.7c-1.7-0.8-3.5-0.9-5.3-0.1c-1.3,0.4-1.5-1.7-0.9-2.6L82.3,35.7z M74.5,46.8
		c-0.8-1.1-1.2-1-1.1,0.2c0,0.3,0.2,0.6,0.5,0.8c0.7,0.5,3.1,0.6,2.9-0.6c-0.2-0.8-0.8-0.9-1.5-0.3C74.9,47.1,74.6,47.1,74.5,46.8z
		 M78,51.5l-2,1.1c-0.2,0.1-0.5,0-0.7-0.3c-0.3-0.4-0.6-0.5-1-0.2c-0.2,0.2-0.1,0.5,0.1,0.6c1.6,0.8,3,0.4,4.1-1.2
		c2.4-2.1-5.3-1.3-5.7-1.3c-0.3,0-0.6,0.2-0.7,0.4c-0.3,0.7,0.5,0.9,1.1,0.6c0.9-0.4,1.8-0.4,2.8-0.1c0.3,0.1,0.6,0,0.9-0.2
		C77.4,50.7,77.8,50.8,78,51.5z"/>
	<path class="st12" d="M82.7,35.5c-0.2,1.9,0,3.8,0.5,5.7l-0.6,0.2c-1.6,0.4-2.6,1.5-3,3.1c-1-1.5-1.4-1.3-1.2,0.8
		c0.7,1.3,0.5,2.3-0.5,3c-0.3,0.2-0.5,0.2-0.4-0.2c0-0.5,0.6-1.1,0.5-1.6c-0.1-1.5-1.2-7.8,1.4-8.7c0.3-0.1,0.6-0.1,0.9,0.1
		c1.9,0.7,2.6,0,2-2L82.7,35.5z M82.3,39.7c0.2-1.8-6.8-0.7-0.6,0.4C82,40.2,82.3,40,82.3,39.7z M79.4,42.5c0.2,0.2,0.3,0.1,0.3-0.1
		c0.1-0.9-0.3-1.2-1-1.1c-0.4,0.1-0.5,0.2-0.2,0.5L79.4,42.5z"/>
	<path class="st13" d="M56.2,37.1c0.4,1.1,0.9,2.2,1.5,3.1c1.6,2.4,2.2,4.8,3.6,7.2c0.1,0.3,0.1,0.6-0.2,0.7c-0.3,0-0.7,0-0.8-0.3
		L56,40.4c-0.2-0.4-0.5-0.4-0.7-0.1L56.2,37.1z"/>
	<path class="st14" d="M81.7,40.1c-6.1-1.1,0.8-2.2,0.6-0.4C82.3,40,82,40.2,81.7,40.1z"/>
	<path class="st11" d="M97.5,53.2v0.2c-0.4,0.7-0.6,1.4-0.6,2.2c0,0.3-0.2,0.5-0.4,0.4C95.7,55.8,96,42.4,96,40.8
		c0-0.3,0.2-0.6,0.5-0.6c1.4,0.1,0.4,4.9,0.5,6.2c0.1,0.7,0.4,0.8,0.9,0.3c0.1-0.1,3.6-4.1,3.8-2.9c0.3,1.5-2.7,3.6-4.1,4.4
		c-0.6,0.3-0.7,1-0.4,1.5c0.3,0.5,0.3,1.1-0.1,1.8c-0.2,0.4-0.2,0.7-0.1,0.9L97.5,53.2z"/>
	<path class="st15" d="M100.6,40.8c0.6,0.2,0.8,0.6,0.6,1.2c-0.3,0.8-1.3,0.3-1.5-0.3c-0.1-0.3-0.4-0.4-0.7-0.4
		c-1.2,0.3-1.3-1.1-0.4-1.3C99.4,39.8,99.9,40.6,100.6,40.8z"/>
	<path class="st16" d="M70.3,41.1c1-0.8,2.1,1.8,0.2,0.7C70.2,41.6,70,41.3,70.3,41.1z"/>
	<path class="st17" d="M79.4,42.5l-0.8-0.7c-0.3-0.3-0.2-0.4,0.2-0.5c0.7-0.1,1.1,0.2,1,1.1C79.8,42.6,79.6,42.7,79.4,42.5z"/>
	<path class="st7" d="M99.8,43.2c0.4,0.9-1.4,1.2-1.6,0.3C97.9,42.1,99.5,42.2,99.8,43.2z"/>
	<path class="st18" d="M54.8,43.2c1.5,0.4,3.4,3.5,1.8,2.8c-0.5-0.9-1.3-1.4-2.3-1.5L54.8,43.2z"/>
	<path class="st16" d="M79.7,44.5l-1.2,0.8C78.3,43.2,78.7,43,79.7,44.5z"/>
	<path class="st9" d="M84,43.5c0.5,0.6,1.1,1,1.9,1.1c0.4,0,0.7,0.1,0.9,0.3c1,0.7,1,1.6-0.1,2.7l-0.3-0.7c0.4-1.4-0.3-1.7-2-1
		c-0.5-0.5-0.7-1.1-0.8-1.8L84,43.5z"/>
	<path class="st11" d="M83.8,44c0,0.7,0.3,1.4,0.8,1.8L84,46.2C82.7,45.6,82.6,44.8,83.8,44z"/>
	<path class="st19" d="M54.2,44.5c1,0.1,1.8,0.7,2.3,1.5l-1.1,1c-4.9-2.6-1,3.3-0.5,3.4c1-0.1-0.1-2.1-0.6-2.5
		c-0.3-0.3-0.3-0.6-0.2-0.8c1-1.4,3,5.6,5,5.6L60,53c0.9,1,1.8,1,3,0l0.2,0.1c0,0.4-0.1,1.2,0.5,0.7c0.5-0.4,2.5-2.2,3-2.6
		c1.4,2.6,3.8,4.2,7,4.6v0.7c-2.5-0.6-4.8-1.7-6.8-3.2c-0.7-0.5-1.4,0.3-1.8,0.8c-0.2,0.2-0.1,0.6,0.1,0.8c2.2,1.9,5.7,6.1,8.6,2.9
		l1,0.1c-1,1.2-2.2,1.9-3.8,2.1c-0.3,0.1-0.6,0-0.9-0.2C69.3,59.2,64,55,63.6,55c-0.4,0.1-0.4,0.3,0,0.6c1.5,1.2,7,6.6,8.8,4.7
		c0.4-0.5,1-0.3,1.1,0.2c-1,1.9-2.6,2.5-4.9,1.6c-0.3-0.1-0.5-0.4-0.5-0.7c-0.2-1.3-1-1.8-2.3-1.8c-0.3,0-0.5-0.2-0.6-0.4
		C65,57.7,64.1,57,62.5,57c-0.9,0-1.2-0.7-1.2-1.5c0-0.3-0.2-0.5-0.4-0.5c-1.4-0.1-2.6-0.7-3.5-1.6c-0.2-0.3-0.5-0.5-0.8-0.5
		c-2-0.5,0.3,3.2,2.6,3.4c0.3,0,0.5,0.2,0.6,0.5c0.3,1.3,1.2,1.9,2.7,1.7c0.3,0,0.5,0.1,0.5,0.4c0.2,1.5,1.1,2.3,2.6,2.5
		c0.3,0,0.5,0.2,0.6,0.5c0.7,2.5,4.6,1.9,7.3,1.7c0.3,0,0.5-0.2,0.5-0.5l0.4-1.7c2.3,0.2,3.2-0.8,2.8-3c-1-0.7-0.8-1.1,0.7-1.2
		l0.6,2.2c-0.7,0.8-0.8,1.6,0,2.3V63c-0.6,0.9-0.8,1.9-0.4,2.7c-2.3,0.2-4.2,1.2-5.5,2.9c-0.2,0.2-0.3,0.6-0.3,0.9v14.1
		c0,0.2,0.2,0.4,0.4,0.4c0.5,0,0.9,0,1.3-0.3c1.4-1.1,2.9-1.9,4.6-2.4c-2.1,1.8-4.4,3.3-6.9,4.6c-0.2,0.1-0.5-0.1-0.5-0.3L71,69.7
		c0-0.3-0.1-0.4-0.4-0.2c-1.8,1.1-2.4,0.6-1.8-1.5l-1.2-0.4c-2.1-1.4-3.9-3.1-5.6-5c-0.5-0.6-0.8-0.5-0.8,0.3L61,69.5
		c-0.1,2.7-1,7.2,2,8.7c0.7,0.3,0.9-0.7,1.2-1.2c0.8-0.8,1.7-1.1,2.7-0.8l1.8,2.2L68.5,79L67,80.5h-0.5c-0.3-0.5-1.4-0.7-1,0.1
		c1.5,2.4,3.3,4.4,5.6,6.1c0.2,0.2,0.6,0.2,0.8,0c0.8-0.5,8.3-4.8,6.8-5.5l0.6-1.5L80,80c-0.3,0.9-0.2,1.5,0.5,2l0.3,0.5l0.2,3
		l-6.1,4.4c-0.3,0.2-0.6,0.2-0.8,0.1c-3.1-1.4-5.5-3.4-7.4-6c-4.1-5.7-8.5-10.6-15.5-12.1c-0.5-0.8-1.3-1.1-2.2-1v-0.2
		c1.3-1.7,2.5,1.2,3.2-0.8c1.4-0.3,1.4-0.8,0.2-1.3l0.5-1.5l0.2-2.2v-1c0.3-0.7,0.1-1.2-0.5-1.5v-1.2c0.6-0.2,0.7-0.7,0.5-1.3
		c0.3-0.8,0.1-1.3-0.7-1.3L52.2,58c1-0.2,1.3-0.9,1-2v-2c0.6-2.2,0.1-3.4-1.6-3.5L50.8,51L47,53c-0.7,0.3-0.7,1-0.1,1.5v0.8
		c-0.5,1.2-0.6,2.5-0.3,3.8l0.3,1.5l-0.2,2v1.5c-0.5,1.3-0.4,2.6,0.3,3.8l-0.2,0.8L46.5,70l-0.2,0.8c-1.1,0.7-2.3,0.9-3.5,0.5
		l-0.3-14.9c0-0.2-0.3-0.3-0.5-0.3l-5.2,1.7c4.2-2.9,8.6-5.3,13.2-7.3c0.9-0.4,1.4-1.1,0.5-1.9c-0.2-0.2-0.4-0.5-0.3-0.8
		C50.7,45.7,52,44.6,54.2,44.5z M51.7,46.4c-1.1,0.1-0.6,1.9,0.3,2.2c0.3,0.1,0.4,0,0.3-0.4C51.9,47.7,52.4,46.6,51.7,46.4z
		 M56.1,56.5c4.5,3.9,9.5,7.2,14.2,11c0.2,0.2,0.6,0.2,0.8,0.1c0.6-0.3,6.3-3.7,5.5-4.1c-0.2-0.1-0.6-0.1-0.9,0.2l-4.5,3.2
		c-0.2,0.2-0.6,0.2-0.8,0C70.2,66.7,53.4,52.8,56.1,56.5z M56.3,72.3c0.8,1.1,3.6,3.1,3.9,1.6l-0.2-12c0-0.3-0.1-0.6-0.4-0.9
		c-0.9-1-1.9-1.7-3.2-2.2c-0.2-0.1-0.5,0.1-0.5,0.3L55.8,71C55.8,71.4,56,71.9,56.3,72.3z M65.8,77.2c-0.8,0.1-1,0.6-0.6,1.4
		c0.2,0.3,0.4,0.4,0.8,0.5c1.5,0.2,1.8-0.3,0.7-1.5C66.4,77.3,66.1,77.2,65.8,77.2z"/>
	<path class="st15" d="M86.5,46.8c-1,0.2-1.8,0-2.5-0.5l0.5-0.5C86.2,45.1,86.9,45.4,86.5,46.8z"/>
	<path class="st20" d="M75.1,46.9c0.8-0.6,1.3-0.5,1.5,0.3c0.1,0.3-0.1,0.6-0.3,0.7c-1,0.4-2.8,0.4-3-0.9c-0.1-1.2,0.3-1.3,1.1-0.2
		C74.6,47.1,74.9,47.1,75.1,46.9z"/>
	<path class="st10" d="M55.5,47c1.9,1.5,3.1,3.4,3.8,5.7c-2,0-4-7-5-5.6c-0.1,0.2-0.1,0.5,0.2,0.8c0.4,0.4,1.6,2.2,0.7,2.5
		C54.5,50.5,50.6,44.3,55.5,47z"/>
	<path class="st15" d="M52,48.6c-1-0.2-1.4-2.1-0.3-2.2c0.2,0,0.4,0.2,0.4,0.5c0,0.4,0,0.8,0.2,1.3C52.4,48.6,52.3,48.7,52,48.6z"/>
	<path class="st8" d="M99,50.5h-1c0.3-1.9,1.4-3.1,3.2-3.6c0.3-0.1,0.4,0,0.3,0.4C100.9,48.5,100,49.6,99,50.5z"/>
	<path class="st10" d="M63,53c-1.1,1.1-2.1,1.1-3,0c0.3-2-0.5-3.6-2.4-4.8c-0.5-0.3-0.6-0.6-0.3-0.7c0.2-0.1,0.5-0.1,0.8,0.2
		l2.2,1.9c0.2,0.2,0.5,0.3,0.9,0.3C63.7,49.9,64.3,50.9,63,53z M61,51.4c-0.5,0.6-0.1,1.5,0.7,1.2c1.8-0.7,1.7-1.3-0.3-1.8
		c-0.1,0-0.3,0-0.3,0C61,50.9,61.2,51.2,61,51.4z"/>
	<path class="st13" d="M82,53c0.7-1,0.8-1.9,0.2-2.8c-0.3-0.4-0.4-0.8,0-1.1c0.1-0.1,0.3-0.1,0.5,0.1C84.9,50.8,84.7,52.1,82,53z"/>
	<path class="st3" d="M23.6,56.3c-2.3-2.5-1.6-6,1.8-6.8c3.5-0.8,6.1,4.2,2.9,6.7c-0.6,0.4,0,0.7,0.4,0.5c6.2-3.2,8.5,5.9,2.9,6.9
		c-1.9,0.3-3.2-0.5-4.1-2.4c-0.1-0.3-0.3-0.4-0.5-0.5c-1.3-0.3,1.1,4.8,1.3,5.1c0.1,0.3,0,0.6-0.3,0.6h-3.7c-0.3,0-0.4-0.3-0.3-0.6
		c0.2-0.5,2.5-5.3,1.3-5.1c-0.2,0-0.4,0.2-0.6,0.4c-4.2,6.9-11.8-2.9-4.1-5.1c0.5-0.2,2.4,0.5,2.9,0.6
		C23.8,56.7,23.9,56.6,23.6,56.3z"/>
	<path class="st21" d="M78.5,51.5H78c-0.3-0.7-0.6-0.8-1.2-0.5c-0.3,0.2-0.6,0.2-0.9,0.2c-1-0.3-1.9-0.2-2.8,0.2
		c-0.6,0.3-1.4,0.1-1.1-0.6c0.1-0.3,0.4-0.4,0.7-0.4C73.2,50.3,80.9,49.5,78.5,51.5z"/>
	<path class="st16" d="M53.2,54c-2.1,0.6-0.6-2.2-1.6-3.5C53.3,50.6,53.8,51.8,53.2,54z"/>
	<path class="st10" d="M98,50.5h1c0.2,1,0.8,1.7,1.8,2l-1,0.5c-0.8-0.2-1.5,0-2.2,0.5v-0.2C98,52.4,98.1,51.5,98,50.5z"/>
	<path class="st22" d="M51.6,50.4c1,1.4-0.5,4.2,1.6,3.5v2c-1,0-1.6,0.6-2,1.5c-0.7,0.3-0.8,1.3-1.5,1.5c-1.6,0.3,1.4,1.8,2.8,1.2
		l0.7-0.2c0.3,0.6,0.1,1.1-0.5,1.3c-1.2-0.3-2.5-0.3-3.7,0l-0.3-0.5c-0.1-1.2-0.8-1.8-2-2c0.5-2.5,1.7,1,2.3-0.3
		c0.1-0.3,0.1-0.6-0.1-0.9l-2.2-2.3v-0.8c0.8-0.9,2.1-1.8,3.9-2.6c0.8-0.4,0.8-0.7,0.1-1L51.6,50.4z M49.8,55.2
		c1.1-4.2-1.6,0.2-0.6,0.5C49.4,55.8,49.7,55.5,49.8,55.2z"/>
	<path class="st23" d="M61.1,51c0-0.1,0-0.1,0-0.2c0.1-0.1,0.2-0.1,0.3,0c2,0.5,2.1,1.1,0.3,1.8c-0.8,0.3-1.2-0.6-0.7-1.2
		C61.1,51.3,61.1,51.1,61.1,51z"/>
	<path class="st16" d="M50.8,51c0.8,0.3,0.8,0.6-0.1,1c-1.8,0.8-3.1,1.6-3.9,2.6c-0.5-0.5-0.5-1.2,0.1-1.5C46.9,53,50.8,51,50.8,51z
		"/>
	<path class="st10" d="M66,51.7l-2.3,2c-0.6,0.5-0.5-0.3-0.5-0.7c0.8-0.3,1.4-0.8,1.8-1.5c0.2-0.3,0.5-0.5,0.7-0.5
		C66,51.1,66.1,51.3,66,51.7z"/>
	<path class="st11" d="M87,52.3l-0.5,1.5c-0.9,0.6-1.6-0.1-1-0.8c0.7-0.4,0.6-0.9-0.2-1.4c-0.3-0.2-0.3-0.3,0.1-0.3
		C85.9,51.3,86.5,51.6,87,52.3z"/>
	<path class="st24" d="M78,51.5h0.5c-1.1,1.6-2.4,2-4.1,1.2c-0.2-0.1-0.3-0.5-0.1-0.6c0.3-0.3,0.7-0.2,1,0.2
		c0.2,0.3,0.5,0.4,0.7,0.3L78,51.5z"/>
	<path class="st9" d="M87.3,51.7c0.6,0.9,0.5,1.7-0.3,2.5l-0.5-0.5l0.5-1.5L87.3,51.7z"/>
	<path class="st8" d="M100.8,52.5c1.5,1.2-1.3,2.5-1,0.5L100.8,52.5z"/>
	<path class="st15" d="M73.5,60.5h0.2l0.8,0.7l-0.4,1.7c-0.1,0.3-0.3,0.5-0.5,0.5c-2.7,0.2-6.6,0.8-7.3-1.7
		c-0.1-0.3-0.3-0.5-0.6-0.5c-1.5-0.1-2.4-1-2.6-2.5c0-0.3-0.3-0.4-0.5-0.4c-1.5,0.2-2.4-0.4-2.7-1.7c-0.1-0.3-0.3-0.5-0.6-0.5
		c-2.3-0.2-4.6-3.9-2.6-3.4c0.3,0.1,0.5,0.3,0.8,0.5c0.9,1,2,1.5,3.5,1.6c0.3,0,0.4,0.3,0.4,0.5c0,0.8,0.2,1.5,1.1,1.5
		c1.5,0,2.4,0.8,2.7,2.3c0,0.3,0.3,0.4,0.6,0.4c1.3-0.1,2.1,0.5,2.3,1.8c0.1,0.3,0.3,0.6,0.5,0.7C70.9,62.9,72.5,62.4,73.5,60.5z"/>
	<path class="st2" d="M73.8,56.5c1.2-0.2,1.2,0.2,0,1.2c-2.9,3.2-6.4-1-8.6-2.9c-0.2-0.2-0.3-0.5-0.1-0.8c0.5-0.5,1.1-1.3,1.8-0.8
		C69,54.8,71.2,55.9,73.8,56.5z"/>
	<path class="st17" d="M82,53c-1.3,1.1-2.1,2.4-2.5,4l-0.7-0.3C79,54.7,80.1,53.5,82,53z"/>
	<path class="st25" d="M49.2,55.7c-1-0.3,1.7-4.7,0.6-0.5C49.7,55.5,49.4,55.7,49.2,55.7z"/>
	<path class="st17" d="M85.5,55.2L85,55.5L82,55C83.1,53.8,84.2,53.9,85.5,55.2z"/>
	<path class="st8" d="M98.1,54.6c0-0.6,0.3-0.8,0.9-0.5c0.7,0.3,0.3,1.2-0.4,1.1C98.4,55.2,98.1,54.9,98.1,54.6z"/>
	<path class="st19" d="M102.2,54.5l0.2,34.5l-1,0.8c-1.5,0.7-2.7,1.8-3.7,3.3c-0.2,0.3-0.4,0.3-0.5-0.1c-0.4-2.1-0.4-3.8,0.2-5
		c1.1,1.9,2.1,2,3,0.1c1-1.6-2-3.1-2.2-1.3l-0.7,0.5c-0.5-1.6-1.3-4.6,1-5.2c1.2-0.9,2.2-2,2.9-3.3c0.2-0.3,0.1-0.4-0.2-0.2
		c-1.5,0.8-2.7,1.9-3.5,3.4c-1.1-1.8-1.2-3.6-0.2-5.5l1-0.5c1-0.3,1.5,0,1.5,1c-1.5-0.2-2.1,0.1-1.6,0.9c0.6,0.8,1.5-0.2,1.6-0.9
		c2.7,0.4-0.6-2.7-0.9-2.9c-0.2-0.2-0.3-0.5-0.1-0.7c0.3-0.4,3.4-2.9,2.2-3.3c-0.3-0.1-0.6,0-0.9,0.3L97.7,73h-0.5
		c-0.6-1.1-0.4-1.8,0.8-2.1c1.4-0.8,2.6-1.9,3.4-3.3c0.1-0.2,0.1-0.5-0.1-0.6c-0.7-0.4-3.2,2.9-3.6,3.5c-1.2,1.4-0.5-5.2-0.4-5.5
		c0.8,0.1,1.2,0.6,1.2,1.5c0.8,0.8,1.4,0.7,1.5-0.5l0.8-0.8c0.2-1.3-2-3.6-2.2-1.8l-1.2,1c-0.8-2.9-0.1-5.3,2-7.3l0.7-0.5
		c1.3,0.3,1.8-0.2,1.5-1.5L102.2,54.5z M99.2,59.9c-0.6,0.4-1,0.9-1,1.6c0,0.4,0.1,0.5,0.4,0.3c1.1-0.6,2-1.5,2.7-2.7
		c0.1-0.2,0-0.5-0.2-0.6C100,58.3,100,59.5,99.2,59.9z M98.3,83.7c-0.5,1-0.5,1.6,0.2,1.6s1.7-1,2.8-3c0.6-1.2,0.1-1.2-1.7,0
		C99.1,82.6,98.6,83.1,98.3,83.7z"/>
	<path class="st10" d="M74.8,57.8l0.5-0.5c0.6-0.4,0.8-0.3,0.7,0.5c-0.2,0.2-3.4,2.2-2,2.3l-0.3,0.5h-0.2c-0.2-0.5-0.7-0.6-1.1-0.2
		c-1.8,1.9-7.3-3.5-8.8-4.7c-0.4-0.3-0.4-0.5,0-0.6c0.3-0.1,5.6,4.2,6.5,4.8c0.3,0.2,0.6,0.3,0.9,0.2C72.5,59.7,73.8,59,74.8,57.8z"
		/>
	<path class="st17" d="M82,55c-0.1,1.3-0.5,2.4-1.1,3.5C80.1,56.8,80.5,55.6,82,55z"/>
	<path class="st20" d="M82,55l3,0.5c-0.5,3.1-0.1,3.9,1.2,2.4c0.3-0.3,0.1-1.4,0.1-1.9h1c-0.1,0.6,0.2,1.2,0.8,1.7
		c-0.3,0.7-0.1,1.2,0.5,1.3L88,59.3c-2.1-0.1-2.2,0.5-0.5,2c-0.9,2.6-1.5,2.6-1.6,0c0-0.3-0.3-0.5-0.5-0.4c-1.9,0.5,0.8,2.8,1.3,3.3
		l-0.5,0.5c-1.5-0.3-1.9,0.7-1.1,2.9l-1.4-0.4c0.4-0.6,0.4-1,0-1.2c-0.8-0.3-1.1,0.8-0.2,1.1L84,69c-2.3-0.8-2.2-4.2-4.5-2.9
		c-0.5,0-1.1-0.5-0.5-0.9c0.9-0.4,0.3-1.4,0.4-2c0.3-1.4,0-1.4-0.9-0.1v-1.4c0.9-0.6,1.1-1.3,0.7-2.3l0.1-0.8h1.6
		C81.5,57.4,81.9,56.3,82,55z M84.1,58.3c0.5-0.4,0.4-0.8-0.3-1.2C83.5,57,83.2,57,83,57.3C82.3,58.1,83.4,58.9,84.1,58.3z
		 M82.9,59.4c-1.8,0.2,2.4,3.4,0.8,0.4C83.5,59.6,83.2,59.4,82.9,59.4z M84.2,63.7c-0.6-4.5-2.3,2.6-0.3,0.8
		C84.1,64.4,84.2,64.1,84.2,63.7z"/>
	<path class="st16" d="M46.8,55.2l2.2,2.3c0.2,0.2,0.3,0.6,0.1,0.9c-0.6,1.3-1.9-2.2-2.3,0.3L46.5,59C46.2,57.7,46.3,56.5,46.8,55.2
		z"/>
	<path class="st7" d="M85.5,55.2l0.8,0.8c0,0.4,0.2,1.6-0.1,1.9c-1.3,1.5-1.7,0.7-1.2-2.4L85.5,55.2z"/>
	<path class="st7" d="M101.5,55.2c0.3,1.3-0.2,1.9-1.5,1.5C100.2,56,100.7,55.5,101.5,55.2z"/>
	<path class="st12" d="M42.8,71.2l-0.3,0.5v2.2l-1.2-0.5c0.5-0.7,0.4-1.2-0.2-1.5l-2.8-4.5c-0.8-1.3-1.4-1.3-2,0l-1.5,1.3
		c-1.4-0.2-1.9,0.1-1.5,0.8c0.1,0.2,0.3,0.2,0.5,0.1c0,0,0,0,0.1,0l0.9-0.7H36l0.5,1.5c-0.7,0.2-1.4,0.3-2.1,0.2
		c-0.7-0.1-1,0.5-1.1,1h-1.2c-0.1-0.7,0.5-6.5-0.5-6.3v-0.2l1.8-0.2l0.3,0.5c-0.3,1.3,6.1,1.6,2.2-1.3l-0.2-0.7
		c0.9-1.8,1.3-3.7,1.2-5.8L42,56c0.2-0.1,0.4,0,0.5,0.2C42.5,56.3,42.7,71.1,42.8,71.2z"/>
	<path class="st10" d="M70.4,67.5c-4.7-3.8-9.7-7.1-14.2-11c-0.3-0.2-0.4-0.6-0.2-0.8c0.4-0.3,13.3,10,14.6,11
		c0.2,0.2,0.6,0.2,0.8,0l4.5-3.2c0.3-0.2,0.6-0.3,0.9-0.2c0.8,0.4-4.9,3.8-5.5,4.1C70.9,67.8,70.6,67.7,70.4,67.5z"/>
	<path class="st14" d="M53.2,56c0.4,1.1,0.1,1.8-1,2l-1-0.5C51.6,56.6,52.2,56,53.2,56z"/>
	<path class="st18" d="M78.2,56.7L78,57c-1.5,0.1-1.8,0.5-0.7,1.2l-0.8,0.2L76,57.7c0.1-0.7-0.1-0.9-0.7-0.5
		C76.2,56.2,77.2,56,78.2,56.7z"/>
	<path class="st10" d="M87.2,56c0.8,0.1,1.3,0.6,1.5,1.5L88,57.7C87.4,57.2,87.2,56.7,87.2,56z"/>
	<path class="st14" d="M78.2,56.7h0.5l0.7,0.3c-0.1,0.5-0.2,1.8-0.2,2.2h-0.7L78,57L78.2,56.7z"/>
	<path class="st16" d="M83.2,58.4c-0.9-0.2-0.3-1.8,0.6-1.4C85.1,57.6,84.1,58.7,83.2,58.4z"/>
	<path class="st2" d="M97.1,57.3L97,58.2c-1.5,0.8-2.6,2.1-3.2,3.8c-0.1,0.3,0,0.3,0.2,0.1c1.9-1.5,2.3,5.3-0.9,2.5
		c-1.5-1.3-1.1-4.4-0.7-6.1C93.7,57,95.3,56.6,97.1,57.3z"/>
	<path class="st10" d="M99.2,57.2c-2.1,2-2.8,4.4-2,7.3V65c-0.1,0.3-0.8,6.9,0.4,5.5L98,71c-1.1,0.3-1.4,1-0.8,2.1
		c-0.4,1.2-0.3,2.4,0.3,3.5c-1,1.9-0.9,3.7,0.2,5.5l0.8,0.1c-2.3,0.6-1.5,3.7-1,5.2v0.7c-0.6,1.3-0.7,2.9-0.2,5
		c0.1,0.4,0.2,0.4,0.5,0.1c1-1.5,2.3-2.6,3.7-3.3c-0.6,1.4-1.4,2.6-2.6,3.6c-0.8,0.7-2.6,0.6-1.8,2.5c0.1,0.3,0.1,0.6-0.1,0.9
		c-0.3,0.6-0.3,1.2,0,1.8v1.2l-0.3,2.8H96V60.9c0-0.5,0.8-2,1-2.5l0.1-0.9C97.7,57.9,98.4,57.9,99.2,57.2z"/>
	<path class="st25" d="M51.2,57.5l1,0.5l0.2,0.7c-1,0.5-1,1,0,1.5C51,60.8,48,59.3,49.6,59C50.5,58.8,50.6,57.9,51.2,57.5z"/>
	<path class="st15" d="M88.7,57.5c0.5,0.6,0.4,1.1-0.2,1.5c-0.6-0.1-0.7-0.6-0.5-1.3L88.7,57.5z"/>
	<path class="st4" d="M76,57.7l0.5,0.8c-0.3,1.3-1.1,1.8-2.5,1.6C72.6,59.9,75.8,57.9,76,57.7z"/>
	<path class="st7" d="M77.2,58.2c0.4,2.2-0.5,3.2-2.8,3l-0.8-0.7L74,60c1.4,0.3,2.2-0.3,2.5-1.6L77.2,58.2z"/>
	<path class="st12" d="M97,58.2c-0.2,0.5-1,2-1,2.5v41.7c-3.2,1-4.6,3.2-4.3,6.8c0.1,0.8-0.3,1.3-1.2,1.5c-1.7-0.1-3.2,0.4-4.5,1.7
		c-0.5,0.4-0.7,0.3-0.7-0.3l0.1-14l0.5-0.3l1-0.8c1,0.8,1.7,1.8,2.1,3c0.1,0.3,0.4,0.5,0.7,0.4c0.7-0.1,0.9-0.7,0.7-1.7
		c0.9-1.2,2-1.7,3.5-1.5c0.4,0.7,0.4,1.4,0,2c-0.2,0.3-0.2,0.6,0,0.8c1.3,1.8,0.8-2.5,0.5-3L94,95.5v-0.7c1.1-0.2,1.4-1,0.9-2.5
		c0.3-4,0.4-8,0.3-12.1c0-4.4-3.6-9.5-5.8-13.2l1.5-0.8l3.2,6.3c0.1,0.1,0.2,0.2,0.2,0.2c0.3,0,0.5-0.1,0.5-0.4l0.2-5.6
		c0-0.4-0.2-0.7-0.4-0.7L91,65.2c-0.5-0.3-0.7-0.8-0.5-1.5L91,59l1.2-0.5c-0.4,1.7-0.8,4.8,0.7,6.1c3.2,2.8,2.8-4,0.9-2.5
		c-0.2,0.2-0.3,0.1-0.2-0.1C94.4,60.3,95.4,59.1,97,58.2z M92.3,99.3c-0.5,0.8-0.3,0.9,0.7,0.5c0.4-0.2,0.4-0.5,0.1-0.7
		C92.8,98.9,92.5,99.1,92.3,99.3z M91.1,102.2c-0.7,1.5,2.6,1.8,3.1-0.2c0.1-0.2-0.2-0.4-0.4-0.4l-1.9,0.2
		C91.4,101.8,91.2,102,91.1,102.2z"/>
	<path class="st7" d="M99.9,59.2c0.2-0.7,1.5-1.1,1.5-0.3c-0.6,1.2-1.6,2.2-2.8,2.9c-0.3,0.2-0.5,0.1-0.4-0.3c0.1-0.7,0.4-1.2,1-1.6
		C99.5,59.8,99.7,59.5,99.9,59.2z"/>
	<path class="st5" d="M56.3,72.3c-0.3-0.4-0.5-0.9-0.5-1.3l0.1-11.9c0-0.2,0.3-0.4,0.5-0.3c1.3,0.5,2.3,1.3,3.2,2.2
		c0.2,0.3,0.4,0.6,0.4,0.9l0.2,12C59.9,75.4,57.1,73.4,56.3,72.3z"/>
	<path class="st18" d="M91,59l-0.5,4.8C90.3,63.4,89,58,91,59z"/>
	<path class="st2" d="M46.8,58.7c1.2,0.2,1.8,0.9,2,2c-0.7-0.4-1.3-0.5-2-0.2L46.5,59L46.8,58.7z"/>
	<path class="st14" d="M52.5,58.7c0.8,0,1,0.4,0.7,1.3l-0.7,0.2C51.5,59.7,51.5,59.2,52.5,58.7z"/>
	<path class="st2" d="M78.5,59.2h0.7c0.4,1,0.2,1.7-0.7,2.3C77.8,60.8,77.8,60.1,78.5,59.2z"/>
	<path class="st16" d="M83.7,59.9c1.7,3-2.5-0.3-0.8-0.4C83.2,59.4,83.5,59.6,83.7,59.9z"/>
	<path class="st13" d="M88,59.3l0.2,1.7l-0.7,0.3C85.8,59.8,85.9,59.2,88,59.3z"/>
	<path class="st12" d="M48.7,60.7l0.3,0.5V62c-2.3-1.5-2.6-1.2-1,1l-1.5-0.5l0.2-2C47.4,60.2,48,60.3,48.7,60.7z"/>
	<path class="st15" d="M87.5,61.2l0.7-0.3c1.2,0.4-0.3,1.6-0.5,2.2c-0.1,0.2,0.1,0.5,0.3,0.6c0.7,0.3,1,0.8,0.9,1.5
		c-0.9,0.2-1.7-0.2-2.2-1c-0.5-0.5-3.2-2.8-1.3-3.3c0.2-0.1,0.5,0.2,0.5,0.4C86.1,63.8,86.6,63.8,87.5,61.2z"/>
	<path class="st26" d="M49,62c0.1,0.6-0.2,0.9-0.7,1H48C46.4,60.8,46.7,60.5,49,62z"/>
	<path class="st24" d="M52.8,61.3v1.2c-1.6,1-1.4,1.6,0.5,1.5v1c-2,0.4-2.1,1.2-0.2,2.2l-0.5,1.5L52,69.5c-0.2,0.2-0.4,0.5-0.7,0.2
		c-1-1-2-0.9-3,0.3H48c0-1-0.5-1.4-1.5-1.5l0.2-0.8c0.6,0.5,1.1,0.3,1.2-0.5l0.2-2c0.4,0.1,0.7,0.3,0.8,0.5c0.3,0.4,0.3,0.4,0.2-0.1
		c-0.5-1.8-0.9-2-1.3-0.7c-1.3,0-1.5-0.3-0.7-1c0.7,0,1-0.3,1-1c0.6-0.1,0.8-0.5,0.7-1l0.1-0.8C50.3,61,51.5,61,52.8,61.3z
		 M49.1,63.6c0.1,0.6,1.1,0.6,1.1-0.1c0-0.4-0.3-0.6-0.6-0.6C49.2,63,49,63.3,49.1,63.6z M49.6,67c-0.5,0-0.9,0.6-0.4,0.9
		c0.6,0.3,1.1,0.3,1-0.3C50.1,67.3,49.9,67.1,49.6,67z"/>
	<path class="st2" d="M79.5,66c0.2,1.3-0.2,1.9-1.5,2v-2.3c-0.4-0.9-0.2-1.8,0.4-2.7c0.9-1.3,1.2-1.3,0.9,0.1
		c-0.1,0.6,0.5,1.6-0.4,2C78.4,65.5,79,66,79.5,66z"/>
	<path class="st14" d="M83.9,64.6c-2,1.7-0.3-5.3,0.3-0.8C84.2,64.1,84.1,64.4,83.9,64.6z"/>
	<path class="st2" d="M46.5,62.5c0.2,0.1,1.6,0.5,1.7,0.5c0,1.1-0.9,1-1.7,1V62.5z"/>
	<path class="st2" d="M52.8,62.5c0.6,0.3,0.7,0.8,0.5,1.5C51.3,64,51.2,63.5,52.8,62.5z"/>
	<path class="st15" d="M67.5,67.5c-0.2,1-0.8,1.5-1.8,1.6c-1.2-0.1-2.8,2.6-1.2,3.3c0.3,0.1,0.4,0.3,0.5,0.6c0.1,0.6,0.4,0.9,1,1
		c0.7,0,1.2,1.1,1.7,1.7L67,76.2c-1-0.3-1.9-0.1-2.7,0.8L64,76.5c1.7-1.9,1.3-3-1.1-3.3c-1.6-0.3-2.2-1.5-1.8-3.7
		C61.3,57.5,60.2,62.8,67.5,67.5z M63.8,67.8c-3,4.4,3.6,0.8,0-1.7c-0.3-0.2-0.7-0.2-0.8,0c-0.2,0.3,0,0.6,0.7,1
		C63.9,67.3,64,67.6,63.8,67.8z"/>
	<path class="st15" d="M100.8,65.3l-2.2-1.8C98.8,61.7,100.9,64,100.8,65.3z"/>
	<path class="st26" d="M49.5,63c0.7-0.1,0.9,0.9,0.2,1.1c-0.4,0.1-0.6-0.1-0.7-0.5C49,63.3,49.2,63,49.5,63z"/>
	<path class="st20" d="M35.5,63.5l0.2,0.7c-0.6,0.8-1.3,1.2-2.2,1.3L33.2,65L35.5,63.5z"/>
	<path class="st18" d="M98.5,63.5l2.2,1.8L100,66c-0.7-0.3-1.2-0.1-1.5,0.5c0-0.9-0.4-1.4-1.2-1.5v-0.5L98.5,63.5z"/>
	<path class="st26" d="M46.5,64l0.8,0.1c-0.8,0.7-0.6,1,0.7,1l0.3,0.3l-0.2,2c-0.1,0.8-0.6,1-1.2,0.5C46.1,66.5,46,65.3,46.5,64z"/>
	<path class="st17" d="M48.2,65.3L48,65c0.4-1.4,0.9-1.2,1.3,0.7c0.1,0.5,0,0.5-0.2,0.1C48.9,65.5,48.6,65.4,48.2,65.3z"/>
	<path class="st2" d="M35.8,64.2c3.9,2.9-2.5,2.6-2.2,1.3C34.5,65.4,35.2,65,35.8,64.2z"/>
	<path class="st27" d="M86.8,64.2c0.5,0.9,1.3,1.2,2.2,1c-0.9,1.1-0.8,1.7,0.5,1.8c2.2,3.7,5.8,8.8,5.8,13.2c0,4-0.1,8-0.3,12.1
		c-1-1-1.7-0.8-2.2,0.8c-0.1-0.9-0.6-1.5-1.5-1.8L90.5,90L90,88.7l-0.5-1c-0.5-1.2-1.5-3.5-2-4.7c0.2-1.2-0.1-2.2-1-3
		c-0.6-1.5-0.8-3-0.8-4.5L85,74l-0.6-2.2l0.2-1v-1L84,69l-0.5-1.7h0.2l1.4,0.4c1.2-0.6,1.5-1.5,1.1-2.9L86.8,64.2z M94.1,90.8
		c0-3.6,0-7.1-0.1-10.7c-0.1-3.8-3-7.8-4.8-11.1c-0.6-0.9-1.7-0.3-2.5,0c-0.3,0.1-0.4,0.4-0.4,0.7c0.7,7.8,3.1,14.9,7,21.3
		C93.8,92,94.1,91.9,94.1,90.8z"/>
	<path class="st8" d="M86.2,64.7c0.4,1.4,0.1,2.3-1.1,2.9C84.3,65.4,84.7,64.5,86.2,64.7z"/>
	<path class="st19" d="M31.5,65.3v0.2L31,69.2h-0.7c0-2.3-1.7,1.3-2.5-0.7c1.7-0.4,2.4-1.3,2.3-2.9C30,64.8,31,65,31.5,65.3z"/>
	<path class="st16" d="M53.2,65L53,67.2C51.1,66.1,51.2,65.4,53.2,65z"/>
	<path class="st2" d="M91,66.2v-1l3.8,0.8c0.2,0.1,0.4,0.4,0.4,0.7L95,72.3c0,0.2-0.2,0.4-0.3,0.4h-0.2c-0.1,0-0.2-0.1-0.2-0.2
		L91,66.2z"/>
	<path class="st11" d="M31.5,65.5c1-0.2,0.5,5.6,0.5,6.3v18.5c-0.2,1.4-0.1,2.7,0.5,4V95l-0.5,7v1l0.2,3.2l-0.8,2.7l-1,0.3
		c0.7-2,0.8-4,0.2-6c0.6-1.9,0.7-4-0.4-5.8l0-0.4c0.6-0.6,0.8-1.4,0.8-2.2c0.3-1.1,0.1-2.1-0.5-3v-0.4c1.4-5.8,0.6-6.7-2.4-2.7
		c-0.5,0.6-2.8,1.9-0.8-1c0.4-0.6,0.9-1,1.5-1.4c1.8-1,2.5-2,1.9-3c0.4-1,0.3-1.8-0.2-2.5v-0.4c0.9-1.9,0.9-3.9,0-5.8l-0.3-0.3
		c0.8-0.7,1.1-1.4,0.7-2.3c-0.1-0.3-0.1-0.6,0-0.9c0.3-0.6,0.3-1.2-0.1-1.8L31.5,65.5z"/>
	<path class="st5" d="M78.1,65.7V68c-0.3,0.7-0.3,1.5,0,2.2v1l0.4,2.8l0.2,0.5c-0.4,0.9-0.3,1.8,0.3,2.8l0.1,1l0.2,1.5l-0.6,1.5
		h-0.2c-1.7,0.5-3.3,1.3-4.6,2.4C73.5,84,73.1,84,72.6,84c-0.2,0-0.4-0.2-0.4-0.4V69.5c0-0.3,0.1-0.7,0.3-0.9
		C73.9,66.9,75.8,65.9,78.1,65.7z"/>
	<path class="st22" d="M84,69l0.7,0.8c-2.4,0.8-2.4,1.1,0,1l-0.2,1c-0.8,0.7-1.4,0.6-1.7-0.2c-0.1-0.3-0.4-0.4-0.6-0.4
		c-0.4,0.2-0.5,0.5-0.2,0.9c0.1,0.2,0.1,0.4,0,0.6c-0.9,1.1-0.9,1.3,0.3,0.6c0.2-0.1,0.4-0.2,0.6-0.1L85,74l0.7,1.5
		c-0.7,0.1-1.9,0.4-1.7,1.4c0.5,1.8,0.2,1.9-1,0.4c-0.1-0.2-0.2-0.2-0.2,0.1c0.2,2.1,0.6,2.7,1.3,1.9c0.1-0.2,0.4-0.1,0.5,0.1
		c0.4,0.8,1,1,1.8,0.8c0.9,0.8,1.2,1.8,1,3c-0.2-0.9-0.7-1.4-1.4-1.4c-0.3,0-0.4,0.1-0.2,0.5c0.8,1.1,1.1,2.3,0.8,3.7
		c-0.8,1.1-0.9,2.1-0.2,2.9c0.2,0.3,0.3,0.2,0.2-0.1c-0.1-1,0.1-1.8,0.8-2.5l1-0.5l1,2.2L88,89.5c-0.6,0.6-0.2,2.4,0.6,2
		c0.2-0.1,0.4-0.4,0.3-0.7c-0.2-0.9,0.1-1.5,1-1.8l0.5,1.2c-0.9,0.2-1,0.7-0.3,1.5c0.4,0.4,0.2,1.1-0.4,1.3c-1,0.3-1.2,0.7-0.9,1.2
		c0.2,0.2,0.5,0.2,0.6-0.1l1.7-2.6c0.9,0.3,1.4,0.8,1.5,1.8l-0.1,0.2c-2.6,1.4-0.6,3.7-2.7,5.2c-1.3-0.5-1.5-1.2-0.7-2.2
		c0.2-0.3,0.2-0.4-0.1-0.4c-0.8-0.1-1.7,0.1-2.5,0.4L85,95.7l0-1.7c0.8-0.2,1.3,0,1.6,0.6c0.2,0.4,0.7,0.4,0.9,0
		c0.2-0.2,0.1-0.5-0.2-0.7c-0.7-0.5-0.8-1.1-0.4-1.9c0.8-1.2-1-1.7-0.9-0.4c0.1,0.7-0.1,1.1-0.8,1.3l-0.8-0.7c1.8-1.8,1.5-2.5-0.8-2
		L83,88.5c0.8-0.8,1.2-1.7,1.2-2.8c0-0.6-0.6-0.6-0.9-0.3L82.8,85c1.5-0.9,1.6-1.3,0.3-1.1c-0.3,0-0.6,0-0.9-0.2l-1.4-1.1L80.5,82
		c0.4-0.6,0.9-1.1,1.5-1.4c0.3-0.1,0.5-0.4,0.4-0.7c-0.2-2.1-1.3-3-3.5-2.7c-0.6-1-0.7-1.9-0.3-2.8c1.1-0.1,1.9-0.9,2.3-2.2
		c-0.3-0.3-0.4-0.7-0.4-1c0.1-0.8-0.6-1-1.1-0.4c-0.3-0.8-0.8-1-1.5-0.5c-0.3-0.8-0.3-1.5,0-2.2c1.2,0,1.7-0.7,1.5-2
		C81.8,64.7,81.7,68.1,84,69z M83.8,75c0.4-0.5,0.4-0.6-0.2-0.4L81,75.5c-0.4,0.2-0.4,0.3,0.1,0.4C82.1,76.2,83.1,75.9,83.8,75z
		 M84.9,84.3c-0.2,0.9,0.8,1.1,1.1,0.3C86.4,83.7,85.1,83.5,84.9,84.3z"/>
	<path class="st9" d="M63.8,66.2c3.6,2.5-3,6.1,0,1.7c0.1-0.2,0.1-0.5-0.2-0.6C62.5,66.6,62.9,65.7,63.8,66.2z"/>
	<path class="st14" d="M83.8,67.3h-0.2c-0.9-0.3-0.6-1.4,0.2-1.1C84.1,66.3,84.1,66.7,83.8,67.3z"/>
	<path class="st10" d="M100,66c-0.2,1.1-0.7,1.3-1.5,0.5C98.8,65.9,99.3,65.8,100,66z"/>
	<path class="st20" d="M38.2,67.5c-0.4,0.9-0.2,1.6,0.5,2.3c0.2,0.2,0.3,0.5,0.3,0.8c-0.2,1.2,0.4,1.7,1.9,1.4
		c0.7,0.3,0.8,0.8,0.2,1.5c-0.4,0.8-0.4,1.6,0,2.5c0.4,1.3,1.3,2,2.8,2l0.7,1.3c-0.1,0-0.3,0-0.4,0.1c-0.4,0.2-0.5,2.5-0.6,2.9
		c0,0.2,0.1,0.5,0.3,0.4c0.6-0.1,1.1-0.3,1.5-0.7l0.3,0.8c-1.9,0.9-2,1.4-0.3,1.4c0.3,0,0.6,0.2,0.8,0.4c0.8,1.1,0.8,2.1,0,3
		c-0.3,0.3-0.1,1,0,1.4c0,1,0.6,1.6,1.7,1.8c-0.5,1.1-1.3,1.6-2.3,1.3c-0.3-0.1-0.6,0-0.6,0.2c-0.3,0.7,2.3-0.1,3,0.9l-0.8,2.5
		c0.3,1,1,1.8,2,2.2c-1.2,0.4-1.3,1.1-0.2,2c-1.3,1.1-1.2,1.9,0.2,2.5c-1.3,0.7-1.3,1.6,0,2.5c-0.4,0.6-0.3,1.1,0.2,1.5
		c-1.1,0.2-1.3,0.8-0.7,1.8c0.2,2.6-0.6,4.5-2.5,5.8l-0.5-0.3l0.5-0.7c0.5-0.3,1.4-1.6,0.6-1.9c-0.8,0.1-1.1,0.8-0.9,1.8
		c-0.7,0.1-1.2-0.2-1.5-0.8l0.2-1l1-1.3c1.6-0.5,1.6-1,0-1.2c-0.3-1.2-1.1-1.8-2.2-1.9l-0.5-1.3l0.2-0.8c1.3,1.8,1.9,1.5,1.9-0.8
		c0.7-0.9,0.7-1.4-0.2-1.8l0.2,0l0.5-1c-0.3-1.9-1.1-2.2-2.2-0.9l-0.5-0.1l0.5-1.7c2-0.4,2-0.9,0-1.5V96c0.7,0.1,1.3-0.3,1.2-1
		c-0.2-1.6-0.8-1.7-1.7-0.2c-0.7-0.7-0.7-1.4-0.2-2.2c1-0.8,1.7-1.8,2.1-3.1c0.6-1.7-2.3,1.2-2.5,1.3c-0.8-0.4-1.1-1.1-0.7-2
		c1.5,1.7,2.1-1.9,0-0.5c-1.1-0.9-1.5-2-1-3.2l1.6,1.9c0.1,0.1,0.2,0.1,0.3,0.1l0.2-0.1c0.1-0.1,0.1-0.4-0.1-0.5
		c-0.6-0.6-0.8-1.3-0.5-2.1c1.4-0.4,1.5-0.9,0.2-1.5L42,82.5c0.3-1,0.2-2-0.2-2.9c-0.1-0.3-0.4-0.4-0.6-0.3C40.5,79.6,42.3,81,41,82
		c-0.8-0.6-1.3-0.4-1.5,0.5c-1-0.3-1.4-1.1-1.2-2.2c1.5,0.6,1.8,0.3,0.9-0.8c0-0.1,1.5-3.5,0.3-3c-0.2,0.1-0.3,0.3-0.2,0.6
		c0.2,1-0.3,1.6-1.2,1.9L38,79.2L37.5,78c0.7-0.6,0.7-1.3,0-2c1.8,0,1.8-3.3-0.5-3.8c-0.3-0.8-0.8-2.4-1.1-3.2
		c0.5-0.6,0.6-1.1,0.3-1.5C36.8,66.2,37.5,66.2,38.2,67.5z M45.3,95.4c-0.1,1,0,1.6,0.5,1.8c0.2,0.1,0.4,0,0.5-0.3
		C46.4,96.5,45.5,94.2,45.3,95.4z M47,99.5c0.1-0.2,0.2-0.4,0.1-0.6c-0.1-0.3-0.4-0.4-0.7-0.3C45.2,98.7,46.4,100.1,47,99.5z
		 M46.9,102.6c-2.5,2.2,1.7,0.7,0.8-0.1C47.5,102.3,47.1,102.4,46.9,102.6z M46.1,105.7c-0.1,1.8,2.2-1.3,0.5-0.7
		C46.3,105.1,46.1,105.3,46.1,105.7z M48,109c0.8-0.6-3.7-3.2-0.7-0.1C47.5,109.1,47.8,109.1,48,109z"/>
	<path class="st26" d="M50.2,67.7c0,0.5-0.3,0.6-0.9,0.3c-0.6-0.3-0.2-1,0.3-1C49.9,67.1,50.1,67.3,50.2,67.7z"/>
	<path class="st15" d="M98,71l-0.3-0.5c0.4-0.6,2.9-3.9,3.6-3.5c0.2,0.1,0.2,0.4,0.1,0.6C100.6,69.1,99.4,70.2,98,71z"/>
	<path class="st14" d="M36.2,67.5c0.3,0.4,0.2,0.9-0.3,1.5h-1.2v-0.2L36.2,67.5z"/>
	<path class="st2" d="M38.2,67.5L41,72c-1.5,0.3-2.1-0.2-1.9-1.4c0-0.3-0.1-0.6-0.3-0.8C38.1,69.1,37.9,68.3,38.2,67.5z"/>
	<path class="st9" d="M67.5,67.5l1.2,0.4c-0.6,0.4-2.1,1.1-1.4,1.8c0.7,0.6,1.3,1.3,1.6,2.2c-2,0.8-2.3,1.7-0.8,2.7
		c0.2,0.2,0.5,0.2,0.6,0c0.2-0.2,0-0.4-0.4-0.6c-0.2-0.1-0.3-0.4-0.2-0.6c0.3-0.5,0.6-1,0.7-1.5l0.8,0.8c0.4,0.4,0,3,0.1,3.6
		c0,0.2-0.2,0.4-0.4,0.3l-1.6-1c-0.5-0.6-1-1.7-1.7-1.7c-0.6-0.1-0.9-0.4-1-1c-0.1-0.3-0.2-0.5-0.5-0.6c-1.6-0.8,0-3.3,1.2-3.3
		C66.7,69.1,67.3,68.5,67.5,67.5z M66.9,72.3c0.4-0.4,0.4-1.1,0-1.5l0,0c-1-1.2-2.5,0.1-1.5,1.3l0,0C65.8,72.5,66.5,72.6,66.9,72.3z
		"/>
	<path class="st21" d="M27.2,68.5c0.4,2.7,1.4,2.9,3,0.7h0.7c0.4,0.6,0.4,1.2,0.1,1.8c-0.1,0.3-0.2,0.6,0,0.9
		c0.3,0.8,0.1,1.6-0.7,2.3c-1.1,0.6-5.9,5-2.8,3.5c0.9-0.4,1.9-1.5,3.1-3.2c0.8,1.9,0.8,3.8,0,5.8c-0.5-0.4-0.8-0.9-1-1.5
		c-0.1-0.3-0.3-0.6-0.6-0.6c-0.5,0-0.8,0.3-0.9,1l-0.8,0.5c-0.8,0.7-0.7,1.2,0.5,1.3l1.3,2c-0.4,0.4-3.3,3.3-2.7,3.7
		c0.2,0.1,0.5,0,0.7-0.2l3.2-3.3h0.5c0.6,1-0.1,2.1-1.9,3c-0.6,0.3-1.1,0.8-1.5,1.4c-2,2.9,0.3,1.6,0.8,1c3-4,3.8-3.1,2.4,2.7
		c-0.5-0.3-0.9-0.7-1-1.2c-0.2-0.9-1.2-0.7-1.2,0.2L27.5,91c-1.3,0.1,1,2.7,1.3,3.1c0.2,0.2,0.1,0.6-0.1,0.8c-0.5,0.5-2.2,2-2.4,2.7
		c-0.4,1.9,3.3-2,3.9-2.8H31c0.1,0.9-0.2,1.6-0.8,2.2c-0.7,0.3-4.3,2.8-3.9,3.7c0.1,0.2,0.4,0.2,0.6,0l3.3-3.2
		c0.9,1.5,1.1,3,0.7,4.8c-0.7,0.1-1.2-0.1-1.4-0.8c-1.4-0.8-4,1.7-2,2.3l0.5,0.5c0.2,0.7,0.5,0.9,1,0.7c0.5-0.3,0.9-1.5,1.7-1.7
		c0.5,2,0.5,4-0.2,6c-2.1,1.4-2.1,1.7,0.2,1c0.3,0.3,0.8,0.8,1.3,0.7c1.5-0.2,2.8-0.8,3.9-1.9l0.3,1l-3.8,2.3L32,112
		c-0.4-0.7-1-0.5-0.9,0.3c0,2.4-0.6,2.6-1.6,0.7c-0.5-0.9-1.4-0.2-1.4,0.7l-0.5,0.2c-0.8,0.5-0.7,0.9,0.2,1.3l1.3,2.2l-2.6,2.8
		c-0.1,0.1-0.2,0.3-0.1,0.5c0,0.1,0,0.2,0.1,0.2c0.1,0.2,0.5,0.2,0.7-0.1l3.1-3.3l0.6,0.2c-1,2-2.4,3.7-4.4,5.1
		c-0.2,0.2-0.3,0.4-0.3,0.6c0.1,1.6,3.8-2.6,4-2.9s0.4-0.3,0.5,0c0.7,2.1-0.9,6.7,1.4,7.2h0.8l2.6,0.5c0.3,0.1,0.4,0.2,0.2,0.5
		l-8.4,8.8c-0.3,0.3-0.5,0.6-0.5,0.8v4.1c0,0.3,0.3,0.5,0.6,0.5l11.7-0.1c1.5,0,1.8-0.6,1.1-1.8c-1.8-2.9-3.3-6.1-4.3-9.5
		c-0.1-0.2,0.1-0.5,0.3-0.5c3-0.4,5.5,0.7,7.5,3.1l-0.5,0.5c-0.5-0.8-6.9-4.9-6.1-2.3c0.1,0.7,3.2,9.1,4.2,7.2l0.2,0.8
		c-0.8,1-0.1,2.1,0.7,1.3l3.7-5.9c0.2-0.3,0.5-0.5,0.8-0.4l3.8,0.2c0.3,0,0.5,0.3,0.5,0.6l-0.5,5.3c0,1.4,1.9,1.2,2-0.1l0.3-5.2
		c0-0.4,0.4-0.7,0.8-0.7h8.9c0.3,0,0.6,0.2,0.7,0.5l1.6,5.6c0.2,0.9,1.3,1.1,2,0.7c0.7,0.4,1.3,0.5,2,0.2l4.3-0.1
		c1.4,0.4,3,0.5,5,0.1c3.9,0.6,8.4,0.8,13.5,0.6c1.3-0.1,0.8,1.1-0.1,1.1c-21.5-0.4-43.1-0.4-64.6,0c-0.6,0-1-0.4-1-1V68.9
		C25.6,67.8,26.7,67.9,27.2,68.5z M27.8,73.1c-0.6,0.4-1,0.9-1.1,1.6c-0.1,0.4,0.1,0.4,0.4,0.2c0.8-0.4,3.1-2.3,3.1-3.2
		c0-1.1-1.5,0.4-1.7,0.7C28.2,72.8,28,73,27.8,73.1z M28.2,107.1c-0.8,0.4-1.3,1-1.7,1.8c-0.6,1.2-0.4,1.3,0.5,0.4l3.1-3.1
		c0.3-0.3,0.2-0.4-0.2-0.4C29.1,105.8,28.9,106.8,28.2,107.1z M28,111.4c0.1-2.9-3.4,2.3-0.5,0.8C27.8,112,28,111.7,28,111.4z
		 M29.4,127.8c1.2-1.6,1.1-2.8-0.1-3.6c-0.3-0.2-0.6-0.1-0.9,0c-2.2,1.3-2.1,2.5,0.4,3.7C29,128.1,29.2,128,29.4,127.8z M31.7,130.7
		c-0.5,0.5-5.6,5.4-5,5.7c0.2,0.1,0.4,0,0.6-0.2l5.2-5.2c0.4-0.2,2-1.6,1-1.9c-1.3-0.1-7.4-0.6-7.3,0.3c0,0.3,0.3,0.5,0.6,0.5
		C28.3,130.2,31.2,129.5,31.7,130.7z M28,132.9c0.5-0.2,1.9-1.4,0.9-1.8c-1.9-0.4-2.8,0.4-2.5,2.4c0.1,0.7,0.6,0.4,0.9,0.1
		C27.6,133.2,27.8,133,28,132.9z M49,136.9c-3-1-4.2,2.9-5.3,4.9c-0.3,0.6-0.1,0.8,0.5,0.8l4-0.3c0.3,0,0.6-0.2,0.6-0.5l0.6-4.2
		C49.5,137.2,49.3,137,49,136.9z M53.7,137.4l-0.3,4.6c0,0.2,0.2,0.5,0.5,0.5l8.5-0.2c0.4,0,0.5-0.2,0.5-0.5l-1-4.4
		c-0.1-0.3-0.3-0.5-0.7-0.5h-6.9C54.1,136.8,53.8,137.1,53.7,137.4z"/>
	<path class="st8" d="M68.8,68c-0.6,2.1-0.1,2.6,1.8,1.5c0.3-0.2,0.4-0.1,0.4,0.2l0.2,15.9c0,0.2,0.3,0.4,0.5,0.3
		c2.6-1.3,4.9-2.8,6.9-4.6h0.2c1.5,0.7-6,5-6.8,5.5c-0.3,0.2-0.6,0.2-0.8,0c-2.3-1.7-4.2-3.7-5.6-6.1c-0.3-0.8,0.7-0.7,1-0.1
		c0.9,2.1,1.4,2.3,1.5,0.5c2.4-0.6-0.5,1.8,1.2,2.6c0.2,0.1,0.5,0,0.6-0.3c0,0,0,0,0-0.1c0.6-1.9,0.2-3.4-1.1-4.8L67,76.2l0.8-0.5
		l1.6,1c0.2,0.1,0.4-0.1,0.4-0.3c0-0.6,0.3-3.2-0.1-3.6L69,72c-0.3-0.9-0.9-1.6-1.6-2.2c-0.2-0.2-0.3-0.5-0.1-0.7
		C67.6,68.7,68.1,68.3,68.8,68z"/>
	<path class="st15" d="M27.2,68.5h0.5c0.8,2,2.5-1.6,2.5,0.7C28.6,71.4,27.6,71.2,27.2,68.5z"/>
	<path class="st16" d="M46.5,68.5c1,0,1.5,0.5,1.5,1.5h-1.5V68.5z"/>
	<path class="st28" d="M94.1,90.8c0,1.1-0.3,1.1-0.8,0.2c-3.9-6.4-6.3-13.5-7-21.3c0-0.3,0.1-0.6,0.4-0.7c0.8-0.3,2-0.8,2.5,0
		C91,72.2,94,76.3,94,80.1C94,83.7,94,87.3,94.1,90.8z"/>
	<path class="st16" d="M34.7,68.7v0.2l-0.9,0.7c-0.2,0.2-0.5,0.2-0.6,0C32.8,68.8,33.3,68.5,34.7,68.7z"/>
	<path class="st2" d="M52.5,68.7c1.2,0.6,1.1,1-0.2,1.3L52,69.5L52.5,68.7z"/>
	<path class="st26" d="M52,69.5l0.3,0.5c-0.8,1.9-1.9-1-3.2,0.8l-0.8-0.1V70c1.1-1.2,2.1-1.3,3-0.3C51.6,70,51.8,69.7,52,69.5z"/>
	<path class="st10" d="M61,69.5c-0.4,2.2,0.2,3.5,1.8,3.7c1.1,0.9,1.3,1.6,0.7,2.3c-0.4,0.5-0.9,1.6,0.5,1l0.3,0.5
		c-0.3,0.5-0.5,1.5-1.2,1.2C60.1,76.7,61,72.2,61,69.5z"/>
	<path class="st16" d="M84.7,69.7v1C82.3,70.8,82.3,70.5,84.7,69.7z"/>
	<path class="st28" d="M46.5,70H48l0.2,0.1v0.7c-0.7,0.8-1.3,0.8-2,0L46.5,70z"/>
	<path class="st16" d="M79.5,70.8l0.2,0.9L79,71.8l-1-0.5v-1C78.7,69.8,79.2,70,79.5,70.8z"/>
	<path class="st10" d="M100,77c0-0.9-0.5-1.2-1.5-1l-0.8-3l2.7-2.7c0.3-0.3,0.6-0.4,0.9-0.3c1.2,0.4-1.9,2.9-2.2,3.3
		c-0.2,0.2-0.1,0.5,0.1,0.7C99.4,74.3,102.7,77.4,100,77z"/>
	<path class="st8" d="M66.9,70.7c1,1.2-0.5,2.5-1.5,1.3S65.9,69.6,66.9,70.7z"/>
	<path class="st2" d="M36.5,70.5l0.6,1.8v0.5c-0.4,0.4-0.7,0.9-0.8,1.5c0,0.3-0.3,0.6-0.5,0.5c-0.3,0-0.6-0.4-0.8-0.6
		c-1.1-1.7,1.7-0.7,1.2-2.1c-0.1-0.3-0.4-0.4-0.7-0.3L34,72.5l-0.8-0.8c0.1-0.6,0.3-1.2,1.1-1C35,70.8,35.7,70.7,36.5,70.5z"/>
	<path class="st17" d="M81,72.2h-0.7l-0.5-0.5l-0.2-0.9c0.5-0.5,1.2-0.4,1.1,0.4C80.5,71.6,80.7,71.9,81,72.2z"/>
	<path class="st18" d="M46.3,70.7c0.6,0.7,1.3,0.7,2,0l0.8,0.1V71c-2.2,0.9-3.1,2.4-2.8,4.7h-0.5c0.6-2.7-0.5-4-3.3-4l0.3-0.5
		C44,71.6,45.2,71.5,46.3,70.7z"/>
	<path class="st29" d="M49,71c1-0.1,1.7,0.2,2.2,1c-2.2,0.4-0.2,1,0.4,1c1.4,0,2.9,0.5,4.4,1.5c4.1,2.7,7.2,5.8,9.4,9.3
		c2.2,3.5,5.5,6,10.1,7.7c2.6,1.3,5.4,1.6,8.3,1.1c0.6,0.3,0.8,0.8,0.7,1.4c-1,1.4-0.7,1.9,0.7,1.5l1.5,0.8L87,97l-1,0.8
		c-1.7-1.3-3.4-1.2-5,0.1c-0.3,0-0.8-0.1-0.9,0.3c-0.8,1.6-2.2,2.3-4.1,2.4c0.5-0.6,0.4-1-0.2-1.2c0.7-0.6,0.6-1.1-0.2-1.5l0.5-1
		c1,0.4,1.9,0.4,2.8-0.1c0.3-0.2,0.3-0.3-0.1-0.4c-6.3-1.3-11.4-4.5-15.3-9.7c-3.2-4.4-7.3-7.8-12.2-10.4C51,76,50.6,76,50.3,76
		c-1.3,0.2-2.7,0.1-4-0.3C46,73.4,46.9,71.9,49,71z M50.1,74.2c-1.4-1.3-2.1-1.3-2.1,0c0.1,0.9,1.5,0.7,2,0.5
		C50.2,74.6,50.2,74.3,50.1,74.2z M53.4,75.5c0,0.2,0,0.4,0.2,0.5c0.2,0.2,0.6,0.2,0.9,0c0.9-0.5,0.8-0.8-0.4-0.9
		C53.7,75.1,53.4,75.2,53.4,75.5z M58.1,77.6c-1-0.1-0.3,1.3,0.3,1.4c1.1,0.4,1.2,0.1,0.5-0.9C58.7,77.8,58.4,77.6,58.1,77.6z
		 M62,81.4c-3.2,0.8,3.3,4.3,0.8,0.3C62.6,81.4,62.3,81.3,62,81.4z M64.7,85.4c-1.3,1.7,2.4,2.9,1.5,0.4
		C65.8,84.8,65.3,84.6,64.7,85.4z M68.2,90c0.3,0.9,0.8,1.2,1.5,1.1c1-0.3,0.4-1.7-0.5-1.9C67.5,88.6,67.2,88.8,68.2,90z M73,92.5
		c0,0.7,0.5,1.1,1.5,1.3c1,0.2,1.2-0.2,0.7-1C74.8,92,73.2,91.4,73,92.5z M79.6,94c-2.8-1.5,0.2,3.4,0.4,0.8
		C80,94.4,79.9,94.1,79.6,94z M77.4,98.3c-1.9,1.6,3.3-0.1,0.8-0.2C77.9,98,77.6,98.1,77.4,98.3z"/>
	<path class="st14" d="M84.5,71.7L85,74l-2.2-0.9c-0.2-0.1-0.4-0.1-0.6,0.1c-1.1,0.8-1.2,0.6-0.3-0.6c0.1-0.2,0.1-0.4,0-0.6
		c-0.6-0.6,0.4-1.3,0.8-0.6C83.1,72.3,83.6,72.4,84.5,71.7z"/>
	<path class="st25" d="M78,71.2l1,0.5V73l-0.5,1L78,71.2z"/>
	<path class="st8" d="M28.4,72.5c0.2-0.3,1.7-1.8,1.7-0.7c0,0.9-2.4,2.8-3.1,3.2c-0.3,0.2-0.5,0.1-0.4-0.2
		C26.8,73.6,27.8,73.3,28.4,72.5z"/>
	<path class="st27" d="M32,71.7h1.2l0.8,0.8c-0.2,0.9,0.1,1.5,1,1.7l0.3,0.3c-0.3,1.1,0.1,1.8,1.2,2.2l1,1.3l0.5,1.2l0.3,1
		c-0.3,1.2,0.1,1.9,1.2,2.2l0.8,0.8l0.3,1.7c-0.5,1.3-0.1,2.4,1,3.2v0.5c-0.4,0.9-0.2,1.6,0.7,2l0.3,1.8c-0.6,0.8-0.5,1.6,0.2,2.2
		l0.6,1.2c0,0.5,0,1.8,0,2.2l-0.5,1.7l-0.8,0.6c-0.1-0.5-0.5-0.7-1-0.6c-1.2,0.2-1.2-0.5,0-1.1c0.5-0.2,0.8-0.8,0.7-1.3
		c-0.3-2.6-4.3-20.1-7.3-20.6c-0.3-0.1-0.5,0.2-0.5,0.5l-0.4,12L33,90.7l-1-0.5V71.7z"/>
	<path class="st20" d="M35,74.2c-0.8-0.2-1.2-0.8-1-1.7l1.5-0.7c0.3-0.1,0.6,0,0.7,0.2c0,0,0,0,0,0.1C36.7,73.5,33.9,72.6,35,74.2z"
		/>
	<path class="st28" d="M42.5,71.7c2.7-0.1,3.8,1.3,3.3,4c-0.5,0.2-1,0.9-0.2,1l5.5,0.4c1.1,0.1,1.2,0.5,0.3,1.3l-4.8,4.1l-0.7,0.3
		L45.5,82c0.5-1.2,0.3-2.1-0.8-2.7L44,78c0.2-1.2-0.2-1.7-1-1.6c-0.6,0.1-0.9-0.1-1.2-0.4c0.1-0.6,0.4-0.9,0.9-1
		c0.3-0.1,0.5-0.3,0.5-0.5c-0.1-0.2-0.3-0.4-0.7-0.5V71.7z"/>
	<path class="st20" d="M79,71.8l0.8-0.1l0.5,0.5c-0.2,0.7-0.6,0.9-1.3,0.7V71.8z"/>
	<path class="st10" d="M51.2,72c7,1.4,11.3,6.4,15.5,12.1c1.9,2.5,4.3,4.5,7.4,6c0.3,0.1,0.6,0.1,0.8-0.1l6.1-4.4h0.5
		c-1.8,1.8-3.8,3.3-6,4.5c-0.9,0.5,0.1,0.7,0.5,0.9l-0.5,0.5c-4.5-1.6-7.9-4.2-10.1-7.7c-2.2-3.5-5.4-6.6-9.4-9.3
		c-1.5-1-3-1.5-4.4-1.5C51,73,49,72.4,51.2,72z"/>
	<path class="st15" d="M69,72c-0.1,0.6-0.3,1.1-0.7,1.5c-0.1,0.2-0.1,0.5,0.2,0.6c0.9,0.4,0.3,1.1-0.3,0.6C66.7,73.7,67,72.8,69,72z
		"/>
	<path class="st26" d="M37,72.2c2.2,0.5,2.2,3.8,0.5,3.8c1.1-1.4,0.9-2.5-0.5-3.3V72.2z"/>
	<path class="st14" d="M80.3,72.2H81c-0.5,1.4-1.2,2.1-2.3,2.2L78.5,74l0.5-1C79.7,73.2,80.1,72.9,80.3,72.2z"/>
	<path class="st12" d="M37,72.7c1.4,0.8,1.6,1.9,0.5,3.3c-0.6-0.1-1,0.1-1,0.7c-1.1-0.4-1.5-1.1-1.2-2.2c0.4,0.3,0.7,0.2,0.9-0.3
		C36.3,73.6,36.6,73.1,37,72.7z"/>
	<path class="st8" d="M50.1,74.2c0.1,0.1,0.1,0.4-0.1,0.5c-0.5,0.2-1.9,0.5-2-0.4C48,72.9,48.7,72.9,50.1,74.2z"/>
	<path class="st23" d="M64,76.5c-1.4,0.6-0.9-0.5-0.5-1c0.6-0.7,0.4-1.4-0.7-2.3C65.3,73.5,65.7,74.6,64,76.5z"/>
	<path class="st9" d="M97.2,73h0.5l0.8,3l-1,0.5C96.9,75.4,96.8,74.3,97.2,73z"/>
	<path class="st14" d="M41.2,73.5l1.2,0.5c0.4,0.1,0.6,0.2,0.7,0.5c0.1,0.2-0.2,0.5-0.5,0.5c-0.5,0.1-0.8,0.4-0.9,1h-0.5
		C40.9,75.1,40.9,74.2,41.2,73.5z"/>
	<path class="st15" d="M30.2,74.2l0.3,0.3c-1.2,1.7-2.3,2.7-3.1,3.2C24.4,79.2,29.2,74.8,30.2,74.2z"/>
	<path class="st17" d="M83.8,75c-0.8,0.9-1.7,1.2-2.8,0.9c-0.5-0.1-0.5-0.3-0.1-0.4l2.7-0.9C84.2,74.4,84.3,74.5,83.8,75z"/>
	<path class="st8" d="M54,75.1c1.2,0.1,1.4,0.4,0.4,0.9c-0.3,0.2-0.7,0.2-0.9,0c-0.2-0.1-0.2-0.3-0.2-0.5
		C53.4,75.2,53.7,75.1,54,75.1z"/>
	<path class="st26" d="M85.7,75.5c-0.1,1.5,0.2,3,0.8,4.5c-0.8,0.3-1.4,0-1.8-0.8c-0.1-0.2-0.3-0.2-0.5-0.1
		c-0.7,0.9-1.1,0.3-1.3-1.9c0-0.2,0-0.3,0.2-0.1c1.2,1.5,1.5,1.4,1-0.4C83.8,75.9,85,75.6,85.7,75.5z"/>
	<path class="st10" d="M45.8,75.7h0.5c1.3,0.4,2.7,0.5,4,0.3c0.3,0,0.7,0,1,0.1c4.9,2.5,9,6,12.2,10.4c3.8,5.2,8.9,8.5,15.3,9.7
		c0.4,0.1,0.4,0.2,0.1,0.4c-0.9,0.5-1.8,0.5-2.8,0.1c-5.7-2.1-8.7-4.5-12.8-9c-3.4-3.8-5.3-6.9-10.1-9.4c-0.2-0.1-0.6-0.1-0.8,0.1
		L47,82.5h-0.5l4.8-4.1c0.9-0.8,0.8-1.2-0.3-1.3l-5.5-0.3c-0.3,0-0.5-0.3-0.4-0.5C45.3,76,45.5,75.8,45.8,75.7z"/>
	<path class="st14" d="M37.5,76c0.7,0.7,0.7,1.4,0,2l-1-1.3C36.5,76.1,36.9,75.9,37.5,76z"/>
	<path class="st2" d="M41.2,76h0.5c0.3,0.3,0.6,0.5,1.2,0.4c0.9-0.1,1.2,0.4,1,1.6C42.5,78,41.6,77.3,41.2,76z"/>
	<path class="st16" d="M39.2,79.5L38,79c1-0.3,1.4-0.9,1.2-1.9c0-0.3,0.1-0.5,0.2-0.6C40.7,76,39.2,79.4,39.2,79.5z"/>
	<path class="st28" d="M42,100.5l-0.5,1.2c-0.8-0.7-1.5-0.7-2.2,0l-0.7-0.7c1.4-0.8-4.2-10.1-5-11.5l0.4-12c0-0.3,0.2-0.5,0.5-0.5
		c3,0.4,7,17.9,7.3,20.6c0.1,0.5-0.2,1.1-0.7,1.3c-1.2,0.5-1.2,1.3,0,1.1C41.5,99.8,41.9,100,42,100.5z"/>
	<path class="st8" d="M66.7,77.5c1.1,1.2,0.9,1.7-0.7,1.5c-0.3,0-0.6-0.2-0.8-0.5C64.5,77.4,65.9,76.8,66.7,77.5z"/>
	<path class="st16" d="M80.5,82c-0.7-0.5-0.8-1.1-0.5-2c1.1,0.1,1.6-0.1,1.3-0.6c-0.1-0.2-0.4-0.3-0.8-0.4c-0.6-0.1-1-0.3-1.4-0.8
		l-0.1-1c2.1-0.3,3.3,0.6,3.5,2.7c0,0.3-0.1,0.5-0.4,0.7C81.4,80.9,80.9,81.4,80.5,82z"/>
	<path class="st15" d="M100,77c-0.1,0.7-1,1.6-1.6,0.9C97.9,77.1,98.5,76.8,100,77z"/>
	<path class="st15" d="M58.9,78.1c0.7,1,0.6,1.3-0.5,0.9c-0.3-0.1-0.6-0.3-0.7-0.6C57.1,77.4,58.6,77.4,58.9,78.1z"/>
	<path class="st19" d="M76,96.7l-0.5,1c-1.2,0.9-1.2,1.4,0.2,1.5c0.7,0.3,0.7,0.7,0.2,1.2l-1.2,0.3v4.2c0,0.3,0.2,0.5,0.5,0.5
		c0.7,0,0.6,0.4-0.4,1.1l-0.2,1.2c0,0.5,0,1.7,0,2.2c-0.3,0.8-0.1,1.5,0.5,2c-0.6,0.8-0.7,1.7-0.3,2.7c0.7,3.8,1.1,3.5,1-0.7
		l0.3-0.3l1.5-1l2,1.1c0,1.2,1.1,1.5,1.5,0.6c0.1-0.4-0.1-0.6-0.8-0.6L81,112l-0.2-1.8c0.4-0.4,0.5-0.9,0.2-1.5c0-1.7,0-4,0-5.8
		l0.3-5h4l-0.1,14c0,0.6,0.2,0.7,0.7,0.3c1.3-1.2,2.8-1.8,4.5-1.7c-4.5,2.9-8.7,5.1-12.6,6.7c-0.7,0.3-1,0.7-0.9,1.3l-0.3,0.5
		c-0.3,0-1.3-0.2-0.9,0.5c0.5,0.6-0.2,1.8-0.8,1.1c-0.8-0.9-0.6-2.2-1.3-3c-0.9-0.7-1.2-0.4-0.8,0.9c0,0.2,1,1.6,1.2,2l-1,0.2
		c-0.6-1.2-2.3-5.3-3.8-5.4L68,115c-0.4-0.9-1-1-1.6-0.4c-0.2,0.2-0.5,0.3-0.8,0.2l-1.7-0.6c-0.2-0.1-0.5,0-0.7,0.3
		c-0.3,0.5-0.7,0.8-1.3,1L62,115c0.7-0.5,1.4-1.6,0.6-2.2l-4.7-3.5c-1.5-0.9-3.2,0.1-4.2,1.5l-1.2,1.2c-2.2,0.9-3.9,2.3-5.3,4.3
		l-1.3-0.5V115c1.7-0.8,2.8-2.1,3.2-4c0.7-0.3,0.9-0.8,0.7-1.5l-0.2-1.2c0.5-0.7,0.4-1.3-0.2-1.8c-0.6-0.4-0.6-0.9-0.2-1.5
		c1-0.4,1.2-1.1,0.7-2.2v-2.5l0.3-1.8c0.8,1.2-0.9,5,1.5,3.3l3.3-2.3c0.3-0.2,0.4-0.5,0.4-0.8v-14c0-1-0.4-1.3-1.2-0.7L49,87.5
		L48.2,87c-0.9-1.3-1.3-2.8-1.3-4.5l5.4-4.2c0.2-0.2,0.6-0.2,0.8-0.1c4.7,2.5,6.7,5.7,10.1,9.4C67.3,92.2,70.3,94.6,76,96.7z
		 M56.2,81.2c-0.1-0.1-0.3-0.2-0.4-0.1l0,0l-6.6,4.6C49,85.8,49,86,49.1,86.1l0,0c0.1,0.2,0.3,0.4,0.5,0.2l0,0l6.6-4.6
		C56.3,81.6,56.4,81.4,56.2,81.2L56.2,81.2L56.2,81.2z M59.8,98.7c-1,0.6-1,1.2,0.2,1.8c2.2,1.1,4.2,2.6,5.7,4.5
		c0.3,0.3,1,0.3,1-0.2c0-4,0-8,0.1-12c0-0.7-0.5-1.2-1.5-1.6L65,91c0.4-0.8-0.5-1.3-1-0.6c-1.7,2-3.2,1.9-4.6-0.4
		c-0.2-0.3-0.2-0.6,0-0.8l1.4-1.3c0.2-0.2,0.3-0.5,0.1-0.6c-1.7-2-2.2-1.9-1.5,0.2c0.1,0.3,0,0.6-0.2,0.7c-1.8,1-1.2-3.4-1-4.4
		c0.3-0.8-1.3-2.2-1.4-0.9c0,0,0,15.1,0,15.1c0,0.2,0.2,0.4,0.5,0.4C58.2,98.2,59.1,98.3,59.8,98.7z M62.8,89.1
		c-1-0.7-1.7-0.7-2.1,0.1c-0.1,0.3-0.1,0.6,0.1,0.9c0.7,1.2,1.5,1.1,2.2-0.2C63.1,89.6,63,89.3,62.8,89.1z M68.2,94.1
		c-0.3-0.1-0.7,0.1-0.7,0.4l0.2,11.4c0,0.3,0.2,0.6,0.4,0.8l3,2.5c0.6,0.5,0.8,0.3,0.9-0.4c0.1-3.8,0-7.5-0.1-11.2
		C71.8,95.2,70.2,95.1,68.2,94.1z M71.8,111.6c0-0.6-12.7-10.1-14.4-11.4c-0.3-0.2-0.6-0.2-0.8,0l-5.6,4.1c-0.1,0.1-0.1,0.2-0.1,0.3
		c0.1,0.2,0.4,0.3,0.6,0.1l4.6-3.3c0.4-0.3,0.9-0.3,1.3,0l13.7,10.4C71.6,112,71.8,112,71.8,111.6z M50.8,108.7
		c-0.4,0.5-0.3,1.1,0.2,1.8c-1.4,1.7-1.1,1.8,1,0.2c1-0.3,1.8-0.9,2.4-1.8c0.7-1.2,1.6-1.5,2.6-1c1.6,0.8,6.5,5,7.4,5
		c0.4,0,0.5-0.1,0.1-0.4l-7.2-5.4c-0.3-0.2-0.6-0.2-0.9-0.1l-4.4,3h-0.2v-0.7c0.2-0.9,0.7-1.4,1.5-1.3c0.4,0,0.7-0.1,0.8-0.3
		c0.5-0.5,1.2-1.9,1.9-1.8h3.4c0.3,0,0.5,0.2,0.5,0.5c0.1,1.4,0.9,2,2.4,1.9c0.2,0,0.5,0.2,0.6,0.4l0.6,1.7c0.1,0.3,0.4,0.4,0.7,0.4
		c1.5-0.1,2.3,0.5,2.4,1.7c0,0.3,0.3,0.6,0.5,0.6H69c0.3,0,0.6,0.1,0.7,0.3c0.3,0.8,2.8,3.7,2.3,1.3c-0.5-1.9-1.6-2.8-3.4-2.8
		c-0.3,0-0.5-0.2-0.6-0.5c-0.4-1.2-1.2-1.9-2.6-2.1c-0.3,0-0.5-0.2-0.6-0.5c-0.3-1.5-1.2-2.2-2.7-2c-0.3,0-0.6-0.1-0.7-0.4l-0.2-1.2
		c-0.1-0.3-0.3-0.6-0.5-0.7c-2.1-0.7-4.2-0.7-6.4-0.1c-0.6,0.1-0.8,1.2-1.1,1.7c-0.1,0.3-0.4,0.4-0.7,0.4
		C51.1,106.6,50.6,107.3,50.8,108.7z M78.2,116.1c0-0.4-0.2-0.5-0.7-0.3c-0.7,0.2-0.9,1.8,0.2,1C78,116.7,78.1,116.4,78.2,116.1z"/>
	<path class="st13" d="M30.5,80.3v0.4c-1.1,0.4-1.3,1-0.8,2L29,83l-1.3-2l0.3-0.3c1.6,0.2,1.6-0.3,0-1.5c0.1-1,1.2-1.4,1.5-0.4
		C29.7,79.4,30,79.9,30.5,80.3z"/>
	<path class="st12" d="M79,78.2c0.4,0.5,0.8,0.8,1.4,0.8c0.4,0,0.7,0.2,0.8,0.4c0.3,0.5-0.1,0.7-1.3,0.6l-0.7-0.3L79,78.2z"/>
	<path class="st15" d="M98.5,82h-0.7c0.8-1.5,2-2.7,3.5-3.4c0.3-0.2,0.4-0.1,0.2,0.2C100.7,80,99.7,81.1,98.5,82z"/>
	<path class="st9" d="M68.8,78.5c1.3,1.3,1.7,2.9,1.1,4.8c-0.1,0.3-0.4,0.4-0.6,0.3c-1.8-0.8,1.1-3.1-1.2-2.6c0.8-0.7,0.9-1.3,0.5-2
		L68.8,78.5z"/>
	<path class="st2" d="M38,79l1.2,0.5c0.8,1.1,0.5,1.3-0.9,0.8l-0.3-1V79z"/>
	<path class="st15" d="M68.5,79c0.4,0.7,0.3,1.4-0.5,2l-1-0.5L68.5,79z"/>
	<path class="st3" d="M28,79.2c1.6,1.2,1.6,1.7,0,1.5c0.1-0.6-0.2-1-0.8-1L28,79.2z"/>
	<path class="st17" d="M42,82.5h-0.7L41,82c1.3-1.1-0.5-2.5,0.1-2.7c0.2-0.1,0.5,0,0.6,0.3C42.2,80.5,42.3,81.5,42,82.5z"/>
	<path class="st14" d="M44.7,79.2c1.1,0.6,1.3,1.5,0.8,2.7c-0.4,0.4-0.9,0.6-1.5,0.7c-0.2,0-0.4-0.2-0.3-0.4
		c0.1-0.4,0.2-2.7,0.6-2.9C44.4,79.3,44.6,79.2,44.7,79.2z"/>
	<path class="st15" d="M27.2,79.7c0.6,0,0.8,0.4,0.8,1L27.7,81C26.6,80.9,26.4,80.4,27.2,79.7z"/>
	<path class="st23" d="M66.5,80.5H67l1,0.5C67.9,82.8,67.4,82.7,66.5,80.5z"/>
	<path class="st9" d="M30.5,80.7c0.6,0.7,0.6,1.5,0.2,2.5h-0.5l-0.5-0.5C29.2,81.7,29.4,81.1,30.5,80.7z"/>
	<path class="st10" d="M49.2,85.7l6.6-4.6c0.3-0.3,0.7,0.5,0.4,0.6l-6.6,4.6C49.3,86.6,48.8,85.9,49.2,85.7z"/>
	<path class="st15" d="M62.8,81.7c2.5,4-3.9,0.5-0.8-0.3C62.3,81.3,62.6,81.4,62.8,81.7z"/>
	<path class="st15" d="M98.3,83.7c0.3-1.1,4.3-3.6,3-1.4c-1.1,2-2,3-2.8,3C97.9,85.3,97.8,84.7,98.3,83.7z"/>
	<path class="st16" d="M87.5,83l1.1,2.5l-1,0.5l-0.8-0.3c0.2-1.3,0-2.5-0.8-3.7c-0.2-0.3-0.2-0.5,0.2-0.5
		C86.8,81.6,87.2,82.1,87.5,83z"/>
	<path class="st2" d="M41,82l0.3,0.5l-0.6,0.8h-0.5l-0.8-0.8C39.7,81.6,40.2,81.5,41,82z"/>
	<path class="st15" d="M65,91c-2.5,1.2-1.4,4.3-0.4,3.9c0.2-0.1,0.3-0.5,0.1-0.7c-0.5-1-0.3-2,0.5-2.9c1,0.3,1.5,0.8,1.5,1.6
		c0,4-0.1,8-0.1,12c0,0.5-0.7,0.6-1,0.2c-1.6-2-3.5-3.5-5.7-4.5c1.4-0.8,1.3-1.4-0.2-1.8c-0.7-0.4-1.5-0.5-2.4-0.4
		c-0.3,0-0.5-0.2-0.5-0.4V82.9c0-0.2,0.2-0.5,0.4-0.5c0.7,0.1,1.2,0.7,1,1.4c-0.2,0.9-0.8,5.4,1,4.4c0.2-0.1,0.3-0.4,0.2-0.7
		c-0.7-2.1-0.2-2.2,1.5-0.2c0.1,0.2,0.1,0.4-0.1,0.6l-1.4,1.3c-0.2,0.2-0.2,0.5,0,0.8c1.4,2.2,2.9,2.4,4.6,0.4
		C64.5,89.7,65.4,90.2,65,91z M61.2,94l-1.6,2.1c-0.2,0.3-0.2,0.6-0.1,0.8c1.3,2.2,2.7,2.3,4.1,0.4c0.2-0.3,0.2-0.6,0.1-0.9
		C63.3,95.1,62.5,94.3,61.2,94c-4-7.1-3.3,1-2.6,1.2c0.2,0.1,0.4-0.2,0.6-0.6C59.6,93.8,60.3,93.6,61.2,94z M64.1,98.5
		c-1.5,1.1-1.4,2.2,0.3,3.4c0.4,0.3,0.5,0.2,0.4-0.2c-0.1-0.4-0.8-1.7-0.3-1.9C65.2,99.2,65,98,64.1,98.5z"/>
	<path class="st12" d="M41.3,82.5H42l0.3,0.3L42,84.2c-0.9,0.2-1.3-0.2-1.3-1L41.3,82.5z"/>
	<path class="st14" d="M46.5,82.5H47c0,1.6,0.4,3.1,1.3,4.5c-0.6,0.5-1.2,1.1-1.5,1.8L46.3,89c-0.1-0.4-0.2-1.2,0-1.4
		c0.8-0.9,0.8-1.9,0-3c-0.2-0.2-0.5-0.4-0.8-0.4c-1.7,0-1.6-0.5,0.3-1.4L46.5,82.5z"/>
	<path class="st14" d="M80.8,82.5l1.4,1.1c0.2,0.2,0.6,0.3,0.9,0.2c1.3-0.2,1.2,0.2-0.3,1.1l-1.2,0.6h-0.5L80.8,82.5z"/>
	<path class="st8" d="M29.8,82.7l0.5,0.5l-3.2,3.3c-0.2,0.3-0.6,0.3-0.7,0.2c-0.6-0.4,2.3-3.3,2.7-3.7L29.8,82.7z"/>
	<path class="st14" d="M42.2,82.8c1.2,0.6,1.1,1.1-0.2,1.5L42.2,82.8z"/>
	<path class="st16" d="M40.2,83.3h0.5c0,0.8,0.4,1.2,1.3,1c-0.3,0.8-0.1,1.5,0.5,2.1c0.2,0.2,0.2,0.4,0.1,0.5L42.4,87
		c-0.1,0-0.2,0-0.3-0.1L40.5,85L40.2,83.3z"/>
	<path class="st16" d="M85.6,83.8c0.5,0,0.6,0.3,0.5,0.8c-0.3,0.7-1.3,0.6-1.1-0.3C85,84,85.3,83.8,85.6,83.8z"/>
	<path class="st5" d="M50.3,98.5L50,97.7L49.7,96c0.1-2.1-0.2-4.1-0.9-6l-0.1-0.2l0.3-2.2l5.3-3.5c0.8-0.5,1.2-0.3,1.2,0.7v14
		c0,0.3-0.1,0.6-0.4,0.8l-3.3,2.3c-1.2,0.8-1.6,0.4-1.3-1.3C50.6,99.8,50.5,99.1,50.3,98.5z"/>
	<path class="st28" d="M82.8,85l0.5,0.5c-1.6,0.9-1.7,1.9-0.3,3c0.4,0.9,1.1,2.8,1.5,3.7l0.8,0.7L85,94h-0.5
		c0.1-0.6-0.1-1.1-0.7-1.4L76,91c-0.4-0.2-1.4-0.4-0.5-0.9c2.2-1.2,4.2-2.7,6-4.5L82.8,85z"/>
	<path class="st15" d="M66.2,85.8c0.9,2.6-2.7,1.3-1.5-0.4C65.3,84.6,65.8,84.8,66.2,85.8z"/>
	<path class="st2" d="M83,88.5c-1.4-1.1-1.3-2.2,0.3-3c0.3-0.3,0.8-0.3,0.9,0.2C84.2,86.8,83.8,87.8,83,88.5z"/>
	<path class="st17" d="M86.7,85.7l0.8,0.3c-0.7,0.7-0.9,1.5-0.8,2.5c0.1,0.4,0,0.4-0.2,0.1C85.8,87.8,85.9,86.8,86.7,85.7z"/>
	<path class="st11" d="M100.5,88c-0.5-0.9-1.3-1.3-2.2-1.3C98.5,84.9,101.5,86.4,100.5,88z"/>
	<path class="st18" d="M98.2,86.7c1,0,1.7,0.5,2.2,1.3c-0.9,1.9-1.9,1.9-3-0.1v-0.7L98.2,86.7z"/>
	<path class="st12" d="M48.2,87l0.8,0.6l-0.3,2.2c-0.5-0.6-1.1-1-2-1C47.1,88.1,47.6,87.5,48.2,87z"/>
	<path class="st16" d="M89.5,87.7l0.5,1c-0.9,0.3-1.3,0.9-1,1.8c0.1,0.3,0,0.6-0.3,0.7c-0.8,0.4-1.2-1.4-0.6-2L89.5,87.7z"/>
	<path class="st14" d="M41.5,88.7v-0.5C43.6,86.8,43.1,90.4,41.5,88.7z"/>
	<path class="st8" d="M62.8,89.1c0.3,0.2,0.4,0.5,0.2,0.8c-0.7,1.4-1.5,1.4-2.2,0.2c-0.2-0.3-0.2-0.6-0.1-0.9
		C61,88.4,61.7,88.4,62.8,89.1z"/>
	<path class="st14" d="M42.5,92.5l-0.3-1.8c0.2-0.1,3.1-3.1,2.5-1.3C44.2,90.7,43.5,91.7,42.5,92.5z"/>
	<path class="st2" d="M46.7,88.7c0.9,0,1.5,0.4,2,1l0.1,0.2l-0.1,0.8H48c-1.1-0.2-1.7-0.8-1.7-1.8L46.7,88.7z"/>
	<path class="st23" d="M69.2,89.2l-1,0.8C67.2,88.8,67.5,88.6,69.2,89.2z"/>
	<path class="st21" d="M102.5,89v10c0,0.9-0.8,1.2-1.5,0.7c0.1-1.2-0.4-2.1-1.5-2.5c-0.3-0.1-0.6,0-0.8,0.2c-0.5,0.5-1,0.9-1.6,1.1
		c-0.3-0.6-0.3-1.2,0-1.8c0.1-0.3,0.2-0.6,0.1-0.9c-0.8-1.9,1-1.8,1.8-2.5c1.2-1,2-2.2,2.6-3.6L102.5,89z M101.6,92.7
		c-0.2-0.2-1.3,0.4-2.4,1.5l0,0c-1.1,1-1.9,2-1.7,2.3l0,0c0.2,0.2,1.3-0.4,2.4-1.5l0,0C101.1,94,101.8,93,101.6,92.7L101.6,92.7z"/>
	<path class="st15" d="M69.2,89.2c0.6,0.2,0.9,0.6,1,1.2c0,0.3-0.2,0.6-0.5,0.6c-0.7,0.1-1.2-0.2-1.5-1.1L69.2,89.2z"/>
	<path class="st15" d="M30.5,91.3v0.4c-1.3,0.9-1.4,1.9-0.2,3c-0.7,0.8-4.3,4.7-3.9,2.8c0.1-0.7,1.8-2.1,2.4-2.7
		c0.2-0.2,0.2-0.5,0.1-0.8c-0.3-0.5-2.6-3-1.3-3.1c1.9,1.8,2.1,1.6,0.7-0.7c0.1-0.9,1.1-1.1,1.3-0.2C29.6,90.6,30,91,30.5,91.3z"/>
	<path class="st6" d="M33.5,89.5c0.8,1.5,6.4,10.7,5,11.5L33,90.7L33.5,89.5z"/>
	<path class="st12" d="M48.8,90c0.7,1.9,1,3.9,0.9,6l-2-0.3c1.5-0.6,1.9-1.6,1-2.8c-1-0.7-1-1.5,0-2.2L48.8,90z"/>
	<path class="st14" d="M84.5,92.3l-0.8-2C86,89.8,86.3,90.4,84.5,92.3z"/>
	<path class="st16" d="M90.5,90l0.8,1.3l-1.7,2.6c-0.2,0.2-0.5,0.3-0.6,0.1c-0.4-0.5-0.1-0.9,0.9-1.2c0.6-0.2,0.8-0.9,0.4-1.3
		C89.5,90.7,89.6,90.2,90.5,90z"/>
	<path class="st9" d="M28.2,90.2c1.4,2.3,1.1,2.5-0.7,0.7L28.2,90.2z"/>
	<path class="st21" d="M32,90.2l0.9,0.5l5.5,10.3l0.7,0.7l0.1,0.5c-0.3,0.4-0.7,1.1,0,1.4c1.2,0.6,1.3,1.3,0.3,2.2
		c-0.2,0.2-0.2,0.5,0,0.7c0.7,0.9,0.6,1.7-0.1,2.5c-0.5,0.4-0.4,1,0,1.4c0,0.8,0.9,1.8,1.6,1.2c0.3-0.4,0.1-0.7-0.6-0.9l1-0.3
		c0,1.3,0.5,2.1,1.5,2.5l0.7,0.5c0.7,0.7,1.4,0.7,2.3,0.2l0.5,0.3l-0.2,1c-2.8,1.3-2.7,2.7,0.2,4l-0.8,4.8l-1.2-2.5l0.1-0.2
		c1.9-0.5-1.1-3.8-1.3-4c-0.8-0.7-1-1.4-0.5-2.1c0.1-0.2,0.1-0.5-0.1-0.6c-0.7-0.4-1.2-0.2-1.3,0.8c-0.1,0.4,1,1.5,1.2,1.9
		c-2.1-0.3-2.6-1.3-1.6-3.1c0.1-0.2,0.1-0.5-0.2-0.7l-3.9-3.2c1.5-1.6,2.4-7.1-1.2-6.5c-0.8-0.7-1.8-0.9-2.8-0.5h-0.7v-1l0.5-0.3
		l4,1.1c0.7,0.2,0.8-0.1,0.5-0.7c-0.5-1-3.6-7.9-4.5-7.8C32,93,31.8,91.7,32,90.2z"/>
	<path class="st17" d="M48,90.8h0.7c-1,0.8-1,1.5,0,2.2L48,93.2c-0.8-1-3.3-0.2-3-0.9c0.1-0.2,0.4-0.3,0.6-0.2
		C46.7,92.4,47.5,91.9,48,90.8z"/>
	<path class="st23" d="M61.2,94c-1-0.4-1.6-0.2-2,0.6c-0.2,0.4-0.4,0.6-0.6,0.6C57.9,95,57.2,86.9,61.2,94z"/>
	<path class="st3" d="M65,91l0.2,0.2c-0.8,0.9-1,1.9-0.5,2.9c0.1,0.3,0.1,0.6-0.1,0.7C63.6,95.3,62.5,92.1,65,91z"/>
	<path class="st11" d="M76,91l7.8,1.6c-2.9,0.5-5.7,0.1-8.3-1.1L76,91z"/>
	<path class="st16" d="M85,94l0.3-1c0.6-0.2,0.9-0.6,0.8-1.3c-0.1-1.3,1.6-0.8,0.9,0.4c-0.5,0.8-0.3,1.4,0.4,1.9
		c0.8,0.5-0.4,1.4-0.7,0.7C86.3,94,85.8,93.8,85,94z"/>
	<path class="st5" d="M95,92.2c0.5,1.5,0.2,2.3-0.9,2.5l-0.8-0.2l-0.6-1.2l0.1-0.2C93.2,91.5,94,91.2,95,92.2z"/>
	<path class="st9" d="M30.5,91.7c0.6,0.9,0.8,2,0.5,3h-0.7C29.1,93.6,29.2,92.6,30.5,91.7z"/>
	<path class="st8" d="M73.6,92c1.2-0.3,3,2.3,0.9,1.9c-1-0.2-1.5-0.6-1.5-1.3C73,92.2,73.2,92,73.6,92z"/>
	<path class="st15" d="M99.2,94.2c2.7-2.4,3.4-1.7,0.7,0.8C97.2,97.4,96.5,96.7,99.2,94.2z"/>
	<path class="st2" d="M48.8,93c0.9,1.2,0.5,2.1-1,2.8l-0.5,0.1l0.8-2.5L48.8,93z"/>
	<path class="st16" d="M92.7,93.2l0.6,1.2c-2.4,1.8-2.1,2.1,0.7,1l0.5,1.8L94,97.3c-1.5-0.2-2.7,0.2-3.5,1.5L90,98.5
		C92.2,97,90.1,94.7,92.7,93.2z"/>
	<path class="st2" d="M43.3,96l-0.6-1.2c1-1.5,1.6-1.4,1.8,0.2C44.6,95.7,43.9,96.1,43.3,96z"/>
	<path class="st5" d="M68.2,94.1c2,1,3.6,1.1,3.7,3.5c0.2,3.7,0.2,7.5,0.1,11.2c0,0.7-0.3,0.9-0.9,0.4l-3-2.5
		c-0.3-0.2-0.4-0.5-0.4-0.8l-0.2-11.4C67.5,94.2,67.9,93.9,68.2,94.1z"/>
	<path class="st7" d="M80,94.8c-0.2,2.6-3.2-2.3-0.4-0.8C79.9,94.1,80,94.4,80,94.8z"/>
	<path class="st4" d="M61.2,94c1.2,0.3,2.1,1.1,2.5,2.3c0.1,0.3,0.1,0.6-0.1,0.9c-1.4,1.9-2.8,1.8-4.1-0.4c-0.1-0.2-0.1-0.5,0.1-0.8
		L61.2,94z M62.5,97.5c0.5-0.4,0.7-1.1,0.3-1.7l0,0c-0.4-0.6-1.1-0.7-1.7-0.4l0,0C59.8,96.3,61.2,98.3,62.5,97.5L62.5,97.5z"/>
	<path class="st15" d="M84.5,94H85l0.2,1.5C83.8,95.9,83.6,95.4,84.5,94z"/>
	<path class="st2" d="M32.5,94.2c0.8-0.1,4,6.8,4.5,7.8c0.3,0.7,0.1,0.9-0.5,0.7l-4-1.1c0.4-2.2,0.4-4.5,0-6.7V94.2z"/>
	<path class="st20" d="M93.3,94.5l0.8,0.2v0.7C91.2,96.6,90.9,96.3,93.3,94.5z"/>
	<path class="st30" d="M32.5,95c0.4,2.2,0.3,4.5,0,6.7L32,102L32.5,95z"/>
	<path class="st16" d="M45.3,95.4c0.2-1.1,1,0.9,0.9,1.3c0,0.3-0.2,0.6-0.5,0.5C45.3,97,45.1,96.4,45.3,95.4z"/>
	<path class="st8" d="M62.7,95.8c0.9,1.4-1,2.7-1.9,1.3C59.9,95.8,61.8,94.5,62.7,95.8z"/>
	<path class="st16" d="M47.2,95.8l0.5-0.1l2,0.3l0.2,1.8L49.7,98h-0.4C48.2,97.6,47.6,96.8,47.2,95.8z"/>
	<path class="st14" d="M90,98.5l0.5,0.3c0.3,1,0,1.5-0.7,1.7c-0.3,0.1-0.5-0.1-0.7-0.4c-0.5-1.2-1.2-2.2-2.1-3l-0.3-0.7
		c0.3-0.2,3.4-0.8,2.6,0C88.5,97.2,88.7,97.9,90,98.5z"/>
	<path class="st14" d="M43.3,96.7c2,0.6,2,1.1,0,1.5V96.7z"/>
	<path class="st10" d="M86,97.7L85.5,98h-4L81,97.8C82.6,96.5,84.3,96.4,86,97.7z"/>
	<path class="st15" d="M30.2,97l0.1,0.5l-3.4,3.2c-0.2,0.2-0.5,0.2-0.6,0C25.9,99.8,29.5,97.3,30.2,97z"/>
	<path class="st18" d="M101,99.7l-2.7,0.5L97,99.7v-1.2c0.6-0.3,1.2-0.6,1.6-1.1c0.2-0.2,0.5-0.3,0.8-0.2
		C100.6,97.6,101.1,98.5,101,99.7z"/>
	<path class="st25" d="M94,97.3l0.5-0.1c0.3,0.5,0.8,4.8-0.5,3c-0.2-0.2-0.2-0.5,0-0.8C94.4,98.7,94.4,98,94,97.3z"/>
	<path class="st12" d="M50,97.7l0.3,0.8l-0.3,1.8l-0.2-0.2v-2L50,97.7z"/>
	<path class="st16" d="M75.5,97.7c0.9,0.4,1,0.9,0.2,1.5C74.3,99.1,74.3,98.6,75.5,97.7z"/>
	<path class="st17" d="M81,97.8l0.5,0.2l-0.3,5c-1.4,0.1-1.6,0.4-0.5,1l-0.8,0.3c-0.1-0.2-0.2-0.4-0.4-0.5c-0.2-0.1-0.3-0.4-0.2-0.5
		c1.3-2.4,0.2-3.3-3.3-2.5h-1.2l1.2-0.3c1.9,0,3.3-0.8,4.1-2.4C80.2,97.7,80.7,97.8,81,97.8z"/>
	<path class="st25" d="M49.3,98h0.4v2H49C48,99.1,48.1,98.4,49.3,98z"/>
	<path class="st4" d="M64.8,98.6c0.2,0.4,0,0.7-0.3,1.1c-0.2,0.2-0.2,0.4-0.1,0.7l0.4,1.2c0.2,0.4,0,0.5-0.4,0.2
		c-1.7-1.2-1.8-2.3-0.3-3.4C64.4,98.3,64.7,98.3,64.8,98.6z"/>
	<path class="st17" d="M78.2,98c2.5,0.2-2.7,1.8-0.8,0.2C77.6,98.1,77.9,98,78.2,98z"/>
	<path class="st16" d="M46.2,99.5c-1-0.8,0.6-1.4,0.9-0.6C47.2,99.4,46.7,99.9,46.2,99.5z"/>
	<path class="st18" d="M59.8,98.7c1.5,0.4,1.6,1,0.2,1.8C58.8,99.9,58.7,99.3,59.8,98.7z"/>
	<path class="st2" d="M93,99.1c0.1,0.1,0.1,0.2,0.2,0.3c0,0.2-0.1,0.4-0.3,0.4c-1,0.4-1.2,0.3-0.7-0.5C92.5,99,92.8,98.9,93,99.1z"
		/>
	<path class="st24" d="M45.5,101c-2.1-0.3-2.3,0.1-0.5,1l0.1,0.2l-1.3,1.5l-0.4,1l-0.2,0.8c-0.4-0.8-1-0.6-1.1,0.2
		c-0.1,1,0.4,1.5,1.5,1.5c0.5,0.9,1.3,1.3,2.3,1.5c1.6,0.3,1.6,0.7,0,1.2c-1-2-3,1-1,1.3l-0.2,1l-1,1.3L43,113
		c0.4-1.2,0.4-2.5,0.1-3.7c-0.3-0.9-1.2-0.7-1.3,0.2l-0.5-0.8c0.3-0.7,0.1-1.2-0.4-1.7c-0.8-0.7,0.5-1.8,1-2.2
		c0.2-0.1,0.2-0.4,0-0.6c-0.1-0.1-1.9-1.9-2-2c0.4-0.4,0.9-0.5,1.5-0.2c1.6,2.2,2.3,1.6,2-2C44.4,98.7,45.2,99,45.5,101z"/>
	<path class="st19" d="M97,99.7l1.2,0.5c-0.3,0.6-0.4,1.3-0.2,1.9c0.2,1-0.8,1-1.3,0.3L97,99.7z"/>
	<path class="st8" d="M42.8,100l0.5,0.1c0.3,3.6-0.4,4.2-2,2l0.2-0.3l0.5-1.2L42.8,100z"/>
	<path class="st14" d="M49,100h0.7l0.2,0.2v2.5C48.3,102.2,47.2,101.5,49,100z"/>
	<path class="st10" d="M57.4,100.2c0.5,0.5,17.8,13,13.8,11.5c0,0-13.7-10.4-13.7-10.4c-0.4-0.3-0.9-0.3-1.3,0l-4.6,3.3
		c-0.3,0.2-0.5,0.2-0.6-0.1c0-0.1,0-0.2,0.1-0.3l5.6-4.1C56.8,100,57.2,100,57.4,100.2z"/>
	<path class="st16" d="M45.5,101l-0.5,1C43.2,101.1,43.4,100.7,45.5,101z"/>
	<path class="st16" d="M74.8,100.7H76l0.6,2.5c0,0.2,0,0.3-0.2,0.2c-1.6-1-1.6-0.7-0.2,0.8l0.6,1.5c-0.5,1-1.1,1.3-1.8,0.8
		c0.9-0.7,1.1-1.1,0.4-1.1c-0.3,0-0.5-0.2-0.5-0.5L74.8,100.7L74.8,100.7z"/>
	<path class="st22" d="M76,100.8c3.5-0.8,4.6,0,3.3,2.5c-0.2,0.5,0.5,0.5,0.6,1c0.1,0.7,0.6,1,1.2,1v2.5c-1.6-0.4-3-0.1-4.2,1H76
		c-0.1-0.8-0.5-1.1-1.2-1l0.2-1.2c0.8,0.5,1.4,0.3,1.8-0.8l1,0.2c-1.5-0.1-0.5,1,0.2,0.8c0.6-0.1,2.2-0.4,1.8-1.3
		c-0.3-0.4-0.7-0.3-0.9,0.3l-0.1-1c-0.2-0.8-0.8-1-1.7-0.7l-0.8,0.2c-1.5-1.5-1.4-1.7,0.2-0.8c0.2,0.1,0.3,0.1,0.2-0.2L76,100.8z"/>
	<path class="st11" d="M29.5,101.5c-0.2,0.6-0.6,0.9-1.3,1l-0.8,1.3C25.6,103.2,28.1,100.7,29.5,101.5z"/>
	<path class="st18" d="M41.5,101.7l-0.2,0.3c-0.6-0.3-1.1-0.2-1.5,0.2h-0.4l-0.1-0.5C39.9,101,40.7,101,41.5,101.7z"/>
	<path class="st18" d="M29.5,101.5c0.3,0.6,0.7,0.9,1.4,0.8l-0.2,1c-0.8,0.2-1.1,1.4-1.7,1.7c-0.5,0.2-0.8,0-1-0.7
		c1.7-0.5,1.8-1.1,0.2-1.8C28.9,102.4,29.4,102.1,29.5,101.5z"/>
	<path class="st2" d="M94.2,102c-0.6,2-3.8,1.7-3.1,0.2c0.1-0.2,0.4-0.4,0.8-0.4l2-0.2C94,101.6,94.2,101.8,94.2,102z"/>
	<path class="st3" d="M104.2,111.8c1.5,1,1.9,2.3,1.4,3.9c-2.2,6.5-11.2,0.4-5.9-3.9c0.8-0.6,0.7-0.8-0.2-0.4
		c-3.7,1.5-5.9,0.3-6.4-3.4c0-0.3,0-0.6,0.2-0.9c2.2-3.4,4.7-3.5,7.4-0.3c0.2,0.2,0.4,0.3,0.6,0.2c0.5-0.3-1.1-4.2-1.4-4.8
		c-0.4-1.1,3.2-0.8,3.8-0.6c0.2,0,0.4,0.3,0.3,0.5c-0.6,1.4-1.1,2.7-1.5,4.1c-0.3,1,0.5,1.1,0.9,0.4c2.9-5.1,10.1,0,6.2,4.3
		c-1.3,1.4-3,1.5-5.1,0.3c-0.3-0.2-0.6-0.1-0.5,0.3C104,111.6,104.1,111.7,104.2,111.8z"/>
	<path class="st15" d="M39.3,102.2h0.4l1.9,1.9c0.2,0.2,0.2,0.5,0,0.6c-0.5,0.5-1.8,1.6-1.1,2.2c0.5,0.4,0.7,1,0.4,1.7
		c-0.7,0.4-1.1,0.9-1.2,1.8h-0.5c-0.4-0.4-0.4-1,0-1.4c0.8-0.7,0.8-1.6,0.1-2.5c-0.2-0.2-0.1-0.5,0-0.7c1-0.9,0.9-1.7-0.3-2.2
		C38.6,103.4,38.9,102.6,39.3,102.2z"/>
	<path class="st14" d="M45,102.2c0.8,0.3,0.9,0.9,0.2,1.8l-1.5-0.2L45,102.2z"/>
	<path class="st26" d="M47.7,102.5c0.9,0.8-3.2,2.3-0.8,0.1C47.1,102.4,47.5,102.3,47.7,102.5z"/>
	<path class="st23" d="M28.2,102.5c1.6,0.7,1.5,1.3-0.2,1.8l-0.5-0.5L28.2,102.5z"/>
	<path class="st2" d="M49.3,102.5l0.7,0.2c0.5,1.1,0.3,1.9-0.7,2.2C48,104.1,48,103.2,49.3,102.5z"/>
	<path class="st2" d="M35.5,103.5c0.5,1.8,0.7,3.6,0.5,5.5c-1.1,1-2.4,1.7-3.9,1.9c-0.5,0.1-1-0.4-1.3-0.7l-0.2-1l1-0.3
		c1.5-0.4,3.5-3.6,1.5-3.2l-0.2-2.7C33.7,102.6,34.7,102.8,35.5,103.5z"/>
	<path class="st30" d="M32,103h0.7l0.2,2.7l-0.7,0.5L32,103z"/>
	<path class="st9" d="M81.2,103v1h-0.5C79.6,103.4,79.8,103.1,81.2,103z"/>
	<path class="st23" d="M35.5,103.5c3.6-0.7,2.7,4.9,1.2,6.5h-0.5l-0.3-1C36.2,107.1,36,105.3,35.5,103.5z"/>
	<path class="st17" d="M43.7,103.7l1.5,0.2c0,2.3-0.6,2.5-1.9,0.8L43.7,103.7z"/>
	<path class="st11" d="M51.7,109.2l-0.9-0.5c-0.2-1.4,0.3-2.1,1.7-2.1c0.3,0,0.6-0.2,0.7-0.4c0.3-0.5,0.4-1.6,1.1-1.7
		c2.2-0.6,4.3-0.6,6.4,0.1c0.2,0.1,0.4,0.3,0.5,0.7l0.2,1.2c0.1,0.2,0.3,0.4,0.7,0.4c1.5-0.2,2.4,0.5,2.7,2c0.1,0.3,0.3,0.5,0.6,0.5
		c1.4,0.1,2.2,0.8,2.6,2.1c0.1,0.3,0.3,0.5,0.6,0.5c1.8,0,2.9,0.9,3.4,2.8c0.5,2.3-2-0.6-2.2-1.3c-0.1-0.2-0.4-0.3-0.7-0.4h-1.9
		c-0.2,0-0.5-0.3-0.5-0.6c-0.1-1.3-0.9-1.8-2.4-1.7c-0.3,0-0.6-0.1-0.7-0.4l-0.6-1.7c-0.1-0.3-0.3-0.5-0.6-0.4
		c-1.4,0.1-2.2-0.6-2.4-1.9c0-0.3-0.3-0.5-0.5-0.5h-3.4c-1.1-0.1-1.5,2.2-2.7,2.1C52.4,107.9,51.9,108.3,51.7,109.2z"/>
	<path class="st28" d="M77,104c0.2,0.9,0.7,1.2,1.7,0.7l0.1,1l-1,0.2l-1-0.2l-0.6-1.5L77,104z"/>
	<path class="st26" d="M77,104c0.9-0.3,1.5,0,1.7,0.7C77.7,105.2,77.2,105,77,104z"/>
	<path class="st14" d="M80.8,104h0.5v1.2c-0.7,0-1.1-0.3-1.2-1L80.8,104z"/>
	<path class="st8" d="M43,105.5l0.5,1.3v0.5c-1.1,0-1.6-0.5-1.5-1.5C42,104.9,42.7,104.7,43,105.5z"/>
	<path class="st16" d="M46.6,105c1.7-0.6-0.6,2.4-0.5,0.7C46.1,105.3,46.3,105.1,46.6,105z"/>
	<path class="st16" d="M77.8,106l1-0.2c0.4-1.1,1.4-0.3,0.8,0.4c-0.7,0.6-1.7,0.8-2.5,0.4C76.8,106.2,77,106,77.8,106z"/>
	<path class="st8" d="M28.9,106.5c0.2-0.4,0.6-0.6,1.1-0.7c0.4,0,0.5,0.1,0.2,0.4l-3.1,3.1c-0.9,0.9-1.1,0.8-0.5-0.4
		c0.4-0.8,0.9-1.3,1.7-1.8C28.5,107,28.7,106.8,28.9,106.5z"/>
	<path class="st12" d="M33,105.7c2-0.3,0,2.8-1.5,3.2l0.8-2.7L33,105.7z"/>
	<path class="st14" d="M49.5,106.5c0.6,0.5,0.7,1.1,0.2,1.8h-0.9C48.2,107.3,48.4,106.7,49.5,106.5z"/>
	<path class="st16" d="M43.5,106.8c1.2,0.1,1.9,0.7,2.2,1.9c-1-0.1-1.8-0.6-2.3-1.5L43.5,106.8z"/>
	<path class="st10" d="M52,110.7V110l4.6-2.9c0.2-0.2,0.6-0.1,0.9,0.1l7.2,5.4c0.3,0.3,0.3,0.4-0.1,0.4c-1,0-5.8-4.2-7.4-5
		c-1-0.5-1.8-0.2-2.6,1C53.9,109.9,53.1,110.5,52,110.7z"/>
	<path class="st25" d="M47.2,108.9c-3-3.1,1.5-0.5,0.7,0.1C47.8,109.1,47.5,109.1,47.2,108.9z"/>
	<path class="st25" d="M81.2,107.7v0.2c-1.8,0.4-1.8,0.6,0,0.8c0.3,0.6,0.2,1-0.2,1.5l-2-0.9l-2-0.5
		C78.2,107.7,79.6,107.4,81.2,107.7z"/>
	<path class="st14" d="M74.8,107.7c0.9-0.1,1.3,0.4,1.2,1.2h-1.2V107.7z"/>
	<path class="st16" d="M81.2,108v0.8C79.4,108.6,79.4,108.4,81.2,108z"/>
	<path class="st17" d="M48.8,108.2h0.9l0.2,1.2c-1.5,0-1.7,0.5-0.7,1.5c-0.5,1.8-1.5,3.1-3.2,4l0.2-1
		C48.2,112.7,49,110.8,48.8,108.2z"/>
	<path class="st9" d="M41,108.7l0.5,0.8l-0.3,1l-1,0.3l-0.5-0.3C39.9,109.7,40.3,109.1,41,108.7z"/>
	<path class="st8" d="M42.8,113c-1-0.4-1.6-1.2-1.5-2.5l0.3-1c0.1-0.5,0.3-0.8,0.7-0.8c0.3,0,0.5,0.2,0.6,0.6
		C43.2,110.5,43.1,111.7,42.8,113z"/>
	<path class="st18" d="M50.8,108.7l0.9,0.5v0.7l-0.7,0.5C50.5,109.9,50.4,109.3,50.8,108.7z"/>
	<path class="st2" d="M62,115l-8.2-4.2c1-1.4,2.7-2.4,4.2-1.5l4.7,3.5C63.4,113.4,62.7,114.5,62,115z"/>
	<path class="st24" d="M76,108.7h1l2,0.5c0.2,1.4,0.9,2.3,2.2,2.7l-0.7,1.7l-0.8,0.1l-2-1.1c-1.2-0.9-1.6-0.5-1.5,1L76,114
		c-0.8-0.2-1.1,0-1,0.7c-0.5-1-0.4-1.9,0.3-2.7c1.1-0.5,1.4-1.2,1-2.1l-0.2-1L76,108.7z"/>
	<path class="st20" d="M74.8,109H76l0.2,1l-1.5,0.1L74.8,109z"/>
	<path class="st26" d="M30.5,109.2l0.2,1C28.4,110.9,28.4,110.6,30.5,109.2z"/>
	<path class="st26" d="M45.8,110l-1,1.3C42.7,110.9,44.8,107.9,45.8,110z"/>
	<path class="st14" d="M79,109.3l2,0.9l0.2,1.8C79.9,111.6,79.2,110.7,79,109.3z"/>
	<path class="st16" d="M50,109.5c0.2,0.7,0,1.3-0.7,1.5C48.2,110,48.5,109.5,50,109.5z"/>
	<path class="st2" d="M36.2,110h0.5l3.9,3.2c0.2,0.2,0.3,0.5,0.2,0.7c-1.1,1.8-0.5,2.8,1.6,3.1H43c0.2,0.2,3.2,3.5,1.3,4
		c-1.7-1.7-5.4-0.5-3.5,1.9c0.2,0.2,0.5,0.3,0.8,0.3c3.9-0.1,4.2,10.1,1.9,11.1c-2-2.4-4.4-3.5-7.4-3.1c-0.3,0-0.4,0.3-0.4,0.6
		c1.1,3.4,2.5,6.5,4.3,9.5c0.7,1.2,0.4,1.8-1.1,1.8L27.2,143c-0.3,0-0.6-0.2-0.6-0.5v-4.1c0-0.2,0.2-0.5,0.5-0.8l8.4-8.8
		c0.2-0.2,0.2-0.4-0.2-0.5l-2.6-0.5l-0.3-15.7L36.2,110z"/>
	<path class="st13" d="M51.8,110H52l0.1,0.8c-2.1,1.6-2.4,1.5-1-0.2L51.8,110z"/>
	<path class="st14" d="M74.8,110l1.5-0.1c0.4,0.9,0.1,1.6-1,2.1C74.7,111.5,74.5,110.9,74.8,110z"/>
	<path class="st15" d="M27.5,112.2c-2.9,1.5,0.6-3.7,0.5-0.8C28,111.7,27.8,112,27.5,112.2z"/>
	<path class="st10" d="M39.3,110.5h0.5l0.5,0.3c0.8,0.2,1,0.5,0.6,0.9C40.1,112.3,39.3,111.3,39.3,110.5z"/>
	<path class="st9" d="M53.7,110.7L62,115l0.1,0.5c-0.3,1.2,0,1.6,0.9,1.2v0.3c2.1,4.4,4.5,10.4,3.2,15.2l-0.5,0.2
		c-0.5-4.9-1.8-9.7-3.6-14.3c-0.1-0.4-0.5-0.5-0.8-0.3c-0.2,0.2-0.2,0.5,0,0.9c2.1,4.1,2.1,9.3,2.7,13.8l-1,0.2l-2.1-10.5
		c-0.1-0.3-0.3-0.5-0.5-0.4c-0.1,0.1-0.2,0.3-0.2,0.7l0.6,9.8c-0.7,0.4-1.3,0.5-2,0.3l0.2-4.5c0-0.2-0.1-0.3-0.3-0.3
		c-1.5,0.7-6.7,1.4-5.6-1.7c0.1-0.6,2.7-2,3.2-2.4c0.8-0.6,0.2,0.5,0.1,0.8c-0.1,0.3,0,0.5,0.2,0.6l1.9,0.9c0.2,0.1,0.5,0,0.5-0.3
		l1.5-7.8c0.3-1.5,0.1-2.5-0.5-2.9c-2.2-1.6-4.7-2.5-7.4-2.8L53.7,110.7z M54.5,125.9c-1.6-0.2,0.6,2,0.6,0.6
		C55.1,126.2,54.8,125.9,54.5,125.9z M57.4,126c-2.5-0.3,0.3,2,0.5,0.6C58,126.3,57.8,126,57.4,126z"/>
	<path class="st26" d="M46.2,113H46c-0.3-1,0-1.6,0.7-1.8C47.8,111.1,46.8,112.8,46.2,113z"/>
	<path class="st10" d="M32,112v16c-2.3-0.5-0.7-5.1-1.4-7.2c-0.1-0.3-0.3-0.3-0.5,0s-3.9,4.5-4,2.9c0-0.2,0.1-0.4,0.3-0.6
		c1.9-1.3,3.4-3,4.4-5.1c0.3-3.2-0.1-3.9-1.2-2.2c-0.3,0.4-0.2,0.8-0.1,1.3l-0.5,0.5l-1.3-2.2L28,115c1.7,0,1.7-0.4,0-1.2
		c0-0.9,0.9-1.6,1.4-0.7c1.1,1.9,1.6,1.7,1.6-0.7c0-0.4,0.2-0.7,0.4-0.7C31.6,111.6,31.8,111.8,32,112z"/>
	<path class="st30" d="M32,112l0.5,0.2l0.3,15.7H32V112z"/>
	<path class="st2" d="M52.5,112c2.7,0.2,5.2,1.2,7.4,2.8c0.6,0.4,0.8,1.4,0.5,2.9l-1.5,7.8c0,0.2-0.3,0.4-0.6,0.3l-1.9-0.9
		c-0.2-0.1-0.3-0.4-0.2-0.6c0.1-0.3,0.7-1.3-0.1-0.8c-0.5,0.4-3,1.8-3.2,2.4c-1.1,3.1,3.9,2.5,5.4,1.8c0.2-0.1,0.4,0,0.5,0.1v0.1
		l-0.2,4.5H46c-0.3,0-0.5-0.2-0.6-0.5v-1.5c0-0.2,0.2-0.4,0.6-0.5l2.9-0.2c0.3,0,0.6-0.2,0.7-0.6c0.8-2.5,0.9-5,0.2-7.5
		c-0.3-0.9,0.6-2.6,1.2-1.2c0.5,1,2.1-0.3,2.6,0.7c0.4,0.8,0.7,0.8,1,0c0.1-0.3,0-0.6-0.3-0.8c-1.4-0.9-3-1.1-4.6-0.6
		c-0.2,0.1-0.4,0.3-0.5,0.7l-0.8,3.6c0,0.2-0.3,0.5-0.6,0.7c-1.2,0.6-1.8,1.6-2,3l-0.2,0.2c-0.2-0.9-0.3-1.8-0.1-2.8v-1.4l0.8-4.8
		v-0.2l1-2.5C48.6,114.3,50.4,112.9,52.5,112z M50,116l-0.3,0.3c-0.8,0.2-1.1,0.5-0.8,0.9c0.7,1.2,4,0.9,5.1,0.5h0.2
		c2.4-0.4,2.5-0.9,0.2-1.4l-0.2-0.1C52.9,114.2,51.5,114.1,50,116z M55.1,129.3l-2.5-0.7c-0.1,0-0.2,0-0.2,0.2
		c0,0.4,0.2,0.7,0.6,0.9c1.6,0.8,3.2,0.8,4.9,0c0.3-0.2,0.3-0.3,0-0.5c-0.6-0.3-1.3-0.4-1.9-0.1C55.6,129.3,55.3,129.4,55.1,129.3z"
		/>
	<path class="st17" d="M44.5,112.2c0.3,0.6,0.8,0.8,1.5,0.8l0.2,0.1l-0.5,0.7c-0.9,0.5-1.6,0.4-2.3-0.2L44.5,112.2z"/>
	<path class="st17" d="M77.8,112.7l-1.5,1C76.1,112.2,76.6,111.8,77.8,112.7z"/>
	<path class="st9" d="M28,113.7c1.7,0.8,1.7,1.3,0,1.2l-0.5-1L28,113.7z"/>
	<path class="st2" d="M79.8,113.8l0.8-0.1c0.6,0,0.9,0.2,0.8,0.7C80.9,115.3,79.7,115,79.8,113.8z"/>
	<path class="st8" d="M27.5,114l0.5,1l-0.3,0.3C26.8,114.9,26.7,114.5,27.5,114z"/>
	<path class="st7" d="M43,117h-0.7c-0.3-0.4-1.3-1.5-1.2-1.9c0.2-0.9,0.6-1.2,1.3-0.8c0.2,0.1,0.2,0.4,0.1,0.6
		C42,115.6,42.2,116.3,43,117z"/>
	<path class="st15" d="M68,115l-0.1,2.3c0,0.3-0.2,0.6-0.4,0.7c-1.5,0.6-2.6,0.1-3.3-1.5c1.4-2.2-1.5-1.4-1.2,0.2
		c-0.9,0.4-1.2,0-0.9-1.2c0.6-0.2,1-0.5,1.3-1c0.2-0.3,0.4-0.4,0.7-0.3l1.7,0.6c0.3,0.1,0.6,0,0.8-0.2C67.1,114,67.6,114.1,68,115z
		 M67,117c0.2,0,0.3-0.2,0.3-0.4c-0.3-1.2-0.9-1.4-1.6-0.7C65,116.8,66.1,117.2,67,117z"/>
	<path class="st2" d="M76,114c0,4.2-0.3,4.5-1,0.7C74.9,114,75.2,113.8,76,114z"/>
	<path class="st9" d="M30.9,117.9l-0.6-0.2l-0.7-0.7c-0.1-0.5-0.1-0.8,0.1-1.3C30.7,114,31.1,114.8,30.9,117.9z"/>
	<path class="st25" d="M54.2,116.2c-0.7,0-1.3-0.3-1.8-0.8c-0.2-0.2-0.4-0.1-0.6,0c-0.4,0.6-1,0.8-1.8,0.5
		C51.5,114.1,52.9,114.2,54.2,116.2z"/>
	<path class="st10" d="M46,115v0.8c-1.1,1-1,2,0.3,3v0.2C43.3,117.7,43.2,116.3,46,115z"/>
	<path class="st16" d="M54.2,116.2l0.2,0.1l-0.2,1.4H54c-0.5-0.7-1.2-1.1-2-1.2c-0.2,0-0.5,0.1-0.9,0.2c-0.5,0.2-0.9,0.1-1.3-0.5
		L50,116c0.8,0.3,1.4,0.1,1.8-0.5c0.1-0.2,0.4-0.2,0.6-0.1C52.9,115.9,53.5,116.2,54.2,116.2z"/>
	<path class="st9" d="M68,115l1.2,0.5c0.4,2.4,1.7,4.2,3.8,5.4l1-0.2c2,1.6,2.9,1.1,2.7-1.5l0.3-0.5c0.9,1.3,0.7,2.6-0.5,3.7
		c-0.2,0.2-0.5,0.3-0.9,0.2c-2.5-0.2-2.6,2.8-2.9,4.6c-1.5-1.7-3.7-6.2-5.5-7c-0.3-0.1-0.4-0.1-0.3,0.3l4.9,9.2v3.1h-1.2
		c0.1-1.4-0.4-2.5-1.4-3.4c-0.2-0.2-0.3-0.5-0.3-0.8c0.1-0.6-0.2-1.1-0.8-1.4c-0.3-0.2-0.5-0.4-0.6-0.7c-0.8-3.5-2.3-6.6-4.5-9.3
		l1-0.5c0.7,1.6,1.8,2.1,3.3,1.5c0.3-0.1,0.4-0.4,0.4-0.7L68,115z M70,119.9c-0.3-1.2-0.8-1.5-1.6-1c-0.2,0.1-0.3,0.5,0,0.6l1.7,1.1
		c0.1,0.1,0.3,0.1,0.4-0.1c0.1-0.1,0.1-0.3-0.1-0.3C70.2,120.2,70,120,70,119.9z M70.9,122.3l1,1.8c0.2,0.3,0.4,0.5,0.5,0.4
		c1.3-0.1-0.8-2.6-1-2.8C70.6,121.2,70.4,121.4,70.9,122.3z"/>
	<path class="st29" d="M64.2,116.5l-1,0.5H63l-0.1-0.2C62.7,115,65.7,114.3,64.2,116.5z"/>
	<path class="st9" d="M67,117c-0.8,0.1-1.9-0.2-1.3-1.1c0.7-0.7,1.3-0.5,1.6,0.7C67.3,116.8,67.2,117,67,117z"/>
	<path class="st15" d="M69.2,115.5c1.4,0.2,3.1,4.2,3.8,5.4C70.9,119.7,69.7,117.9,69.2,115.5z"/>
	<path class="st9" d="M46,115.7l1.3,0.5l-1,2.5C44.9,117.8,44.8,116.8,46,115.7z"/>
	<path class="st16" d="M77.7,116.8c-1.1,0.8-0.9-0.8-0.2-1c0.5-0.2,0.7-0.1,0.7,0.3C78.1,116.4,78,116.7,77.7,116.8z"/>
	<path class="st22" d="M49.7,116.2c0.4,0.5,0.8,0.7,1.3,0.5c0.4-0.2,0.7-0.3,0.9-0.2c0.8,0.1,1.5,0.5,2,1.2
		c-1.1,0.3-4.4,0.7-5.1-0.5C48.6,116.8,48.9,116.4,49.7,116.2z"/>
	<path class="st22" d="M54.5,116.3c2.2,0.6,2.2,1-0.2,1.4L54.5,116.3z"/>
	<path class="st15" d="M29.5,117l0.7,0.7l-3.1,3.3c-0.2,0.2-0.6,0.3-0.7,0.1c-0.2-0.1-0.1-0.5,0-0.7l2.6-2.8L29.5,117z"/>
	<path class="st13" d="M63,117h0.2c2.2,2.7,3.7,5.8,4.5,9.3c0.1,0.3,0.3,0.5,0.6,0.7c0.6,0.3,0.8,0.8,0.8,1.4c0,0.3,0.1,0.6,0.3,0.8
		c1.1,0.9,1.5,2.1,1.4,3.4c-1.5,0.2-3,0.1-4.5-0.5C67.6,127.4,65.1,121.4,63,117z"/>
	<path class="st15" d="M76.7,119.2c0.2,2.6-0.7,3.1-2.7,1.5c-0.2-0.4-1.1-1.8-1.2-2c-0.4-1.3-0.1-1.7,0.8-0.9
		c0.7,0.7,0.5,2.1,1.3,2.9c0.7,0.7,1.3-0.5,0.8-1.1C75.4,119,76.4,119.3,76.7,119.2z"/>
	<path class="st10" d="M65.8,132.5c-0.6,0.4-1.2,0.5-1.8,0c-0.6-4.5-0.6-9.7-2.7-13.8c-0.2-0.3-0.2-0.7,0-0.9
		c0.3-0.2,0.7-0.1,0.8,0.3C64,122.7,65.2,127.5,65.8,132.5z"/>
	<path class="st18" d="M70.4,120.2c0.4,0.3-0.2,0.5-0.3,0.4l-1.7-1.1c-0.2-0.1-0.2-0.5,0-0.6c0.8-0.5,1.3-0.1,1.6,1
		C70,120,70.2,120.2,70.4,120.2z"/>
	<path class="st19" d="M58.7,132.5c0.7,0.2,1.4,0.1,2-0.3l2.2,0.5l1-0.2c0.6,0.4,1.2,0.4,1.8,0l0.5-0.2c1.4,0.6,2.9,0.7,4.5,0.5h1.2
		l5.8,9.6c-1.9,0.4-3.6,0.4-5-0.1c0.1-3.2-2.6-6.7-5.9-5.3c-0.3,0.1-0.4,0.4-0.3,0.7l1.9,4.8c-0.7,0.3-1.3,0.2-2-0.2l-1.6-5.7
		c-0.1-0.5,0.2-1,0.7-1l4.1-0.1c0.9,0,1.7,0.4,2.1,1.2c0.3,0.5,3.8,6.9,4.6,5.4c0.1-0.2,0.1-0.6-0.2-0.9l-4.5-6.7
		c-0.2-0.3-0.5-0.4-0.8-0.4H46c-0.5,0-1,0.3-1.3,0.8l-3.4,5.6l-0.2-0.8c-0.3-1.1-2.8-6.1-2.8-6.4c0.2-1.4,3.6,2.2,3.9,2.6
		c0.7,0.7,1.2-0.5,0.8-1.1l0.5-0.5c2.3-1,1.9-11.2-1.9-11.1c-0.4,0-0.7-0.1-0.8-0.3c-1.9-2.4,1.9-3.6,3.5-1.9l-0.1,0.2l-1.2,0.3
		c-0.3,0.1-0.6,0.1-0.9-0.1c-0.8-0.5-1.2-0.4-1.1,0.3c0,0.3,0.3,0.5,0.6,0.5c0.8,0.1,1.8-0.2,2.2,0.5l1.5,2.5
		c-0.2,1-0.1,1.9,0.1,2.8c0.1,2.4,3.6,1.2,3.3,0.4c-0.1-0.2-0.4-0.4-0.8-0.3c-0.8,0.1-1.5,0-2.2-0.3c0.2-1.4,0.9-2.4,2-3
		c0.4-0.2,0.6-0.4,0.6-0.7l0.8-3.6c0.1-0.3,0.3-0.6,0.5-0.7c1.7-0.5,3.2-0.3,4.6,0.6c0.3,0.2,0.4,0.5,0.3,0.8c-0.3,0.8-0.6,0.8-1,0
		c-0.5-1-2,0.3-2.6-0.7c-0.7-1.4-1.5,0.3-1.2,1.2c0.7,2.5,0.6,5.1-0.2,7.5c-0.1,0.3-0.4,0.6-0.7,0.6l-2.9,0.2
		c-0.3,0-0.5,0.2-0.6,0.5v1.5c0,0.3,0.2,0.5,0.6,0.5L58.7,132.5z M48.4,125.7c-0.1,0-0.3,0.1-0.3,0.3c-0.1,0.3,0.1,0.6,0.4,0.7
		c1.1,0.4,1.3,0.2,0.6-0.7C48.9,125.8,48.6,125.6,48.4,125.7z"/>
	<path class="st13" d="M72.7,127.2l-0.8,2.5l-4.9-9.2c-0.2-0.3-0.1-0.4,0.3-0.3C69.1,121,71.2,125.5,72.7,127.2z"/>
	<path class="st7" d="M44.2,121.2l1.2,2.5v1.4l-1.5-2.5c-0.4-0.7-1.4-0.4-2.2-0.5c-0.3,0-0.6-0.2-0.6-0.5c-0.1-1.2,1.3,0.1,2-0.2
		L44.2,121.2z"/>
	<path class="st11" d="M70.9,122.3c-0.5-0.9-0.3-1.1,0.5-0.5c0.2,0.1,2.3,2.7,1,2.8c-0.2,0-0.4-0.2-0.5-0.4L70.9,122.3z"/>
	<path class="st10" d="M63,132.7l-2.2-0.5l-0.6-9.8c0-0.3,0.1-0.6,0.2-0.7c0.2-0.1,0.5,0.1,0.5,0.4C60.9,122.2,63,132.7,63,132.7z"
		/>
	<path class="st3" d="M100.3,146.9c2.3-0.3,3.1,0.8,2.4,3.3c-0.1,0.3-0.4,0.5-0.7,0.5h-7.8c-0.3,0-0.6-0.2-0.7-0.5
		c-0.8-2.3,0-3.4,2.2-3.2c0.3,0,0.5-0.2,0.5-0.4c0.1-5.3,0.1-10.7,0.1-16c-0.1-9.3,15.2-9.6,14.6,1.8c0.2,1.2-3.8,1.5-3.5,0.2
		c0.9-6.3-7.4-7.5-7.5-0.9c-0.1,4.9,0,9.9,0,14.8C99.8,146.7,100,146.9,100.3,146.9z"/>
	<path class="st10" d="M29.4,127.8c-0.1,0.2-0.4,0.3-0.6,0.2c-2.5-1.2-2.6-2.4-0.4-3.7c0.3-0.2,0.6-0.2,0.9,0
		C30.5,125,30.6,126.2,29.4,127.8z M29.1,126c-0.8-2.4-1.6,2.3-0.1,0.7C29.1,126.6,29.2,126.3,29.1,126z"/>
	<path class="st23" d="M28.9,126.7c-1.5,1.6-0.6-3.1,0.1-0.7C29.2,126.3,29.1,126.6,28.9,126.7z"/>
	<path class="st17" d="M49,126c0.7,0.9,0.5,1.2-0.6,0.7c-0.3-0.1-0.5-0.4-0.4-0.7C48.3,125.6,48.8,125.6,49,126z"/>
	<path class="st16" d="M55.1,126.5c0,1.5-2.2-0.8-0.6-0.6C54.8,125.9,55.1,126.2,55.1,126.5z"/>
	<path class="st16" d="M58,126.6c-0.2,1.4-3-0.9-0.5-0.6C57.8,126,58,126.3,58,126.6z"/>
	<path class="st14" d="M45.8,127.7c0.7,0.3,1.5,0.3,2.2,0.3c0.4,0,0.7,0.1,0.8,0.3c0.3,0.9-3.2,2.1-3.3-0.4L45.8,127.7z"/>
	<path class="st22" d="M56,129.2c0.6-0.3,1.2-0.3,1.9,0.1c0.3,0.2,0.3,0.3,0,0.5c-1.7,0.8-3.3,0.7-4.9,0c-0.4-0.1-0.9-1-0.4-1.1
		l2.5,0.7C55.3,129.4,55.6,129.3,56,129.2z"/>
	<path class="st7" d="M32.5,131l-0.8-0.3c-0.5-1.3-3.4-0.6-4.8-0.8c-0.3-0.1-0.6-0.3-0.6-0.5c-0.1-0.9,6-0.4,7.3-0.3
		C34.5,129.4,32.9,130.9,32.5,131z"/>
	<path class="st8" d="M31.7,130.7l0.8,0.3l-5.2,5.2c-0.2,0.2-0.4,0.3-0.6,0.2C26.1,136.1,31.2,131.3,31.7,130.7z"/>
	<path class="st6" d="M27.4,133.5c-0.1,0.2-0.2,0.3-0.4,0.3c-0.2,0.1-0.5-0.1-0.5-0.4c-0.3-1.9,0.5-2.7,2.5-2.3
		c0.3,0.1,0.4,0.3,0.3,0.6C28.9,132.8,27.9,132.7,27.4,133.5z"/>
	<path class="st7" d="M43,134.8c0.4,0.7-0.1,1.8-0.8,1.1c-0.3-0.4-3.7-4-3.9-2.6c-0.1,0.4,2.5,5.4,2.8,6.4c-0.2,0.5-0.7,0.4-1-0.1
		c-1.4-2.3-2.5-4.6-3.2-7.1C36.1,129.9,42.5,134,43,134.8z"/>
	<path class="st5" d="M66.5,142.2c-0.7,0.4-1.7,0.2-2-0.7l-1.7-5.6c-0.1-0.3-0.4-0.5-0.7-0.5h-8.9c-0.4,0-0.8,0.3-0.8,0.7l-0.3,5.2
		c0,0.4-0.2,0.7-0.4,0.8c-0.6,0.5-1.7,0.2-1.6-0.7l0.5-5.3c0-0.3-0.2-0.6-0.5-0.6l-3.8-0.2c-0.3,0-0.6,0.2-0.8,0.4l-3.7,5.9
		c-0.2,0.3-0.5,0.4-0.7,0.2c-0.4-0.3-0.4-0.8,0-1.5l3.4-5.6c0.3-0.5,0.8-0.8,1.3-0.8h24.9c0.3,0,0.6,0.2,0.8,0.4L76,141
		c0.2,0.3,0.3,0.7,0.2,0.9c-0.8,1.4-4.3-4.9-4.6-5.4c-0.4-0.7-1.2-1.2-2.1-1.2l-4.1,0.1c-0.5,0-0.8,0.5-0.7,1
		C64.9,136.5,66.5,142.2,66.5,142.2z"/>
	<path class="st5" d="M43.7,141.8c1.1-2,2.2-5.9,5.3-4.9c0.3,0.1,0.5,0.4,0.5,0.7l-0.6,4.2c0,0.3-0.3,0.4-0.6,0.5l-4,0.3
		C43.6,142.6,43.4,142.3,43.7,141.8z"/>
	<path class="st5" d="M53.7,137.4c0-0.3,0.3-0.6,0.7-0.6h6.9c0.3,0,0.6,0.2,0.7,0.5l1,4.4c0.1,0.3-0.2,0.5-0.5,0.5l-8.5,0.2
		c-0.3,0-0.6-0.2-0.5-0.5C53.5,142,53.7,137.4,53.7,137.4z"/>
	<path class="st5" d="M72.8,142.3l-4.3,0.1l-1.9-4.8c-0.1-0.3,0-0.6,0.3-0.7C70.3,135.6,72.9,139.2,72.8,142.3z"/>
</g>
</svg>
