<?xml version="1.0" encoding="utf-8"?>
<!-- Generator: Adobe Illustrator 27.0.1, SVG Export Plug-In . SVG Version: 6.00 Build 0)  -->
<svg version="1.1" id="Слой_1" xmlns="http://www.w3.org/2000/svg" xmlns:xlink="http://www.w3.org/1999/xlink" x="0px" y="0px"
	 viewBox="0 0 128 168" style="enable-background:new 0 0 128 168;" xml:space="preserve">
<style type="text/css">
	.st0{fill:#D8D8D8;}
	.st1{fill:#AAAAAA;}
	.st2{fill:#FFFFFF;}
	.st3{fill:#2D261B;}
</style>
<g>
	<path class="st0" d="M107.9,161.8H20c-6.9,0-12.4-5.6-12.4-12.4V18.8C7.6,12,13.2,6.4,20,6.4h87.8c6.9,0,12.4,5.6,12.4,12.4v130.5
		C120.3,156.2,114.7,161.8,107.9,161.8z"/>
	<path class="st1" d="M106.9,157.9H21.1c-5.5,0-9.9-4.4-9.9-9.9V19.9c0-5.5,4.4-9.9,9.9-9.9h85.8c5.5,0,9.9,4.4,9.9,9.9V148
		C116.8,153.5,112.3,157.9,106.9,157.9z"/>
	<path class="st2" d="M106.6,154.9H21.4c-4.4,0-8-3.6-8-8V21c0-4.4,3.6-8,8-8h85.2c4.4,0,8,3.6,8,8v125.9
		C114.5,151.3,111,154.9,106.6,154.9z"/>
</g>
<g>
	<path class="st3" d="M31.6,29.9c4,4.4,4.2,8.4,0.6,11.9c-8.2,8-21.2-3.5-12.3-11.7c0.2-0.2,0.2-0.5,0-0.7c-2.5-3.2-2.7-6.2-0.6-8.9
		c6.4-8.2,19.6,0.9,12.3,8.7C31.5,29.4,31.5,29.7,31.6,29.9z M30.2,24.5c0-2-1.9-3.7-4.3-3.7c-2.4,0-4.4,1.8-4.3,3.8
		C21.9,29.4,30,29.3,30.2,24.5L30.2,24.5z M31.2,36.3c0-2.5-2.4-4.5-5.4-4.5c-7,0.3-7.1,8.9,0.1,9.1C28.8,40.9,31.2,38.9,31.2,36.3z
		"/>
	<path class="st2" d="M25.9,20.8c5.8,0.2,5.8,7.2,0,7.4C20.1,28,20.1,21,25.9,20.8z"/>
	<path class="st2" d="M25.9,31.8c7,0.1,7.1,8.9,0.1,9.2C18.9,40.9,18.9,32.1,25.9,31.8z"/>
	<path class="st3" d="M46.1,50.6c-1.4-1.3-1.7-2.9-0.8-4.7c0.1-0.3,0.4-0.5,0.7-0.6c3.6-1.5,5.4-0.2,5.2,3.8c0,0.3-0.2,0.6-0.4,0.8
		c-1.7,1.3-1.4,1.5,1.1,0.5c0.3-0.1,0.7-0.2,0.9-0.1c5.2,1.3,2.7,8.6-2.5,5.9c-0.2-0.1-0.4-0.4-0.6-0.7c-0.4-0.8-1.2-1.1-2.1-1
		c-0.3,0-0.6,0.2-0.8,0.5c-3.5,5.2-9.9-1.8-4.2-4.6c0.3-0.1,0.6-0.2,0.9-0.1l2.5,0.5C46.2,50.9,46.3,50.8,46.1,50.6z"/>
	<path class="st3" d="M78.1,50.6c-1.4-1.3-1.7-2.8-0.8-4.7c0.1-0.3,0.4-0.5,0.7-0.6c3.6-1.5,5.4-0.2,5.2,3.8c0,0.3-0.2,0.6-0.4,0.8
		c-1.7,1.3-1.4,1.5,1.1,0.5c0.3-0.1,0.7-0.2,1-0.1c5.3,1.3,2.7,8.7-2.5,5.9c-0.2-0.1-0.4-0.4-0.6-0.7c-0.5-0.9-1.2-1.2-2.2-0.9
		c-0.3,0.1-0.5,0.3-0.8,0.6c-3.8,5.3-10-2.7-3.6-4.8c0.2-0.1,0.5,0,0.9,0.1l2,0.5C78.3,51,78.4,50.9,78.1,50.6z"/>
	<path class="st3" d="M23.6,56.3c-4.6-5.6,3.8-9.4,5.8-4.5c0.8,1.8,0.4,3.3-1.2,4.4c-0.6,0.4,0.1,0.7,0.4,0.5
		c2.5-1.3,4.4-0.8,5.9,1.6c1.2,1.9,0.8,3.4-1.1,4.4c-4.4,2.4-6.3-2.2-6.8-2c-0.2,0.1-0.3,0.4-0.2,0.8l1.7,4.4c0.1,0.3,0,0.6-0.3,0.5
		c0,0-3.7,0-3.7,0c-0.2,0-0.3-0.3-0.3-0.5c0.2-0.5,2.5-5.3,1.3-5.1c-0.2,0-0.4,0.2-0.6,0.4c-5.3,8.6-12.9-7.4-1.2-4.5
		C23.8,56.6,23.8,56.6,23.6,56.3z"/>
	<path class="st3" d="M46.1,58.5l1.6-3.3c0.2-0.3,0.3-0.3,0.5,0l1.7,3.7c0.1,0.2,0,0.5-0.2,0.6c0,0,0,0-0.1,0
		c-1.2,0.3-2.3,0.3-3.3-0.2C46.1,59.1,46,58.7,46.1,58.5z"/>
	<path class="st3" d="M79.7,55.1c0.2-0.5,0.5-0.5,0.7,0l1.6,3.6c0.1,0.2,0,0.5-0.2,0.6l0,0c-1.2,0.3-2.3,0.3-3.5,0
		c-0.3,0-0.4-0.3-0.3-0.5c0,0,0,0,0-0.1L79.7,55.1z"/>
	<path class="st3" d="M62,66.6c-1.4-1.3-1.7-2.8-0.8-4.7c0.1-0.3,0.4-0.5,0.7-0.6c3.6-1.5,5.4-0.2,5.2,3.8c0,0.3-0.2,0.6-0.4,0.8
		c-1.7,1.3-1.4,1.5,1.1,0.5c0.3-0.1,0.7-0.2,1-0.1c5.2,1.3,2.7,8.6-2.5,5.9c-0.2-0.1-0.5-0.4-0.6-0.7c-0.5-0.9-1.2-1.2-2.2-0.9
		c-0.3,0.1-0.5,0.3-0.8,0.6c-3.8,5.3-10-2.7-3.6-4.8c0.2-0.1,0.5,0,0.9,0.1l2,0.5C62.3,67,62.4,66.9,62,66.6z"/>
	<path class="st3" d="M63.7,71.2c0.3-0.5,0.5-0.5,0.7,0.1l1.6,3.5c0.1,0.2,0,0.5-0.2,0.6l0,0c-1.2,0.3-2.4,0.3-3.5,0
		C62,75.3,61.9,75,62,74.8c0,0,0,0,0-0.1L63.7,71.2z"/>
	<path class="st3" d="M78.1,82.6c-1.4-1.3-1.7-2.8-0.8-4.7c0.1-0.3,0.4-0.5,0.7-0.6c3.6-1.5,5.3-0.3,5.2,3.8c0,0.3-0.2,0.6-0.4,0.8
		c-1.7,1.3-1.4,1.5,1.1,0.5c0.3-0.1,0.7-0.2,1-0.1c5.2,1.3,2.7,8.6-2.5,5.9c-0.2-0.1-0.5-0.4-0.6-0.7c-0.5-0.9-1.2-1.2-2.2-0.9
		c-0.3,0.1-0.5,0.3-0.8,0.6c-3.8,5.3-10-2.7-3.6-4.8c0.2-0.1,0.5,0,0.9,0.1l2,0.5C78.3,83,78.4,82.9,78.1,82.6z"/>
	<path class="st3" d="M46.1,82.6c-2-2-1.9-3.8,0.3-5.5c0.3-0.2,0.6-0.3,0.9-0.3c3.1-0.1,4.4,1.4,3.8,4.5c-0.1,0.3-0.2,0.6-0.5,0.8
		c-1.5,1.2-1.1,1.3,1.2,0.3c0.3-0.1,0.7-0.2,1-0.1c5.5,1.3,2.5,10-3.6,4.7c-1.9-1.7-2.9,1-4.3,1.6c-4.4,1.8-6.8-5.1-1.6-6.2
		c0.2,0,0.5,0,0.9,0.1l1.7,0.5C46.4,83,46.4,82.9,46.1,82.6z"/>
	<path class="st3" d="M47.7,87.1c0.2-0.5,0.5-0.5,0.7,0.1l1.6,3.6c0.1,0.2,0,0.5-0.2,0.5c0,0,0,0-0.1,0c-1.1,0.3-2.2,0.3-3.3,0.1
		c-0.2,0-0.4-0.3-0.3-0.5v-0.1L47.7,87.1z"/>
	<path class="st3" d="M79.2,87.9c0.1-0.3,0.3-0.6,0.5-0.9c0.2-0.1,0.4-0.1,0.6,0.1c0,0,0,0.1,0.1,0.1l1.5,3.5c0.1,0.2,0,0.5-0.2,0.6
		c0,0,0,0-0.1,0c-3.7,1-4.6,0.1-2.7-2.5C79,88.6,79.1,88.3,79.2,87.9z"/>
	<path class="st3" d="M66,101.4c1.9,1.6,2,3.3,0.5,5.1c-2.7,3.2-8.5-1.5-4.4-5.1c0.2-0.2,0.2-0.3-0.1-0.2l-2,0.6
		c-0.3,0.1-0.7,0.1-1,0c-6.4-2.4,0-10.1,4-4.6c0.2,0.3,0.3,0.2,0.3-0.1c-0.1-1.4-0.5-2.7-1.3-3.8c-0.1-0.2-0.1-0.4,0.1-0.5h0.1
		c1.2-0.3,2.4-0.3,3.5,0c0.2,0.1,0.3,0.3,0.3,0.5c0,0,0,0,0,0.1l-1.5,3.5c-0.1,0.3,0,0.6,0.2,0.7l0,0c0.2,0.1,0.4,0,0.5-0.3
		c4.1-5.7,10.1,2.4,3.8,4.6c-0.2,0.1-0.6,0.1-0.9,0l-2-0.6C65.7,101,65.6,101.1,66,101.4z"/>
	<path class="st3" d="M104.2,111.8c1.5,1,2,2.3,1.4,3.9c-2.3,6.4-11.2,0.5-5.8-4c0.1-0.1,0.2-0.3,0.1-0.4l0,0
		c-0.5-0.4-3.9,2.1-6.4-1.4c-1.3-1.8-1-3.3,0.9-4.5c2.5-1.5,4.5-1.2,6.1,1.2c1.8,2.6-0.6-4.4-0.7-4.4c-0.1-0.2,0-0.4,0.2-0.5h0.1
		h3.6c0.3,0,0.3,0.4,0.3,0.6c-0.2,0.7-3,6.4-0.6,4.4l1-1.2c0.2-0.3,0.5-0.5,0.8-0.6c7.9-2.3,6.7,10.3-0.7,6.4
		c-0.2-0.1-0.4-0.1-0.5,0l0,0C104,111.5,104,111.6,104.2,111.8z"/>
	<path class="st3" d="M50,117.4c1.9,1.6,2,3.3,0.5,5.1c-2.7,3.2-8.5-1.5-4.4-5.1c0.3-0.3,0.3-0.4-0.1-0.3l-1.8,0.6
		c-0.4,0.1-0.7,0.1-0.9,0.1c-6.1-2.2-1.5-8.8,2.6-5.8c0.2,0.1,0.4,0.4,0.6,0.8c0.2,0.5,1.4,1.2,1,0.2l-1.4-3.7
		c-0.1-0.2,0-0.5,0.2-0.5c1.2-0.3,2.4-0.3,3.5,0c0.2,0.1,0.3,0.3,0.3,0.5c0,0,0,0,0,0.1l-1.5,3.5c-0.1,0.3-0.1,0.6,0.1,0.7
		c0.3,0,0.5-0.1,0.7-0.4c3.8-5.4,10.1,2.5,3.7,4.7c-0.2,0.1-0.6,0.1-0.9,0l-2-0.6C49.7,117,49.6,117.1,50,117.4z"/>
	<path class="st3" d="M82,117.4c1.9,1.6,2,3.3,0.5,5.1c-2.7,3.2-8.4-1.5-4.4-5.1c0.2-0.2,0.2-0.3-0.1-0.2l-2,0.6
		c-0.3,0.1-0.7,0.1-1,0c-6.4-2.4,0.1-10.1,4-4.6c0.2,0.3,0.3,0.2,0.3-0.1c-0.1-1.4-0.5-2.7-1.3-3.8c-0.1-0.2-0.1-0.4,0.1-0.5h0.1
		c1.2-0.3,2.4-0.3,3.5,0c0.2,0.1,0.3,0.3,0.3,0.5c0,0,0,0,0,0.1l-1.5,3.5c-0.1,0.3-0.1,0.6,0.1,0.7c0.3,0,0.5-0.1,0.7-0.4
		c3.8-5.4,10.1,2.5,3.7,4.7c-0.2,0.1-0.6,0.1-0.9,0l-2-0.6C81.7,117,81.6,117.1,82,117.4z"/>
	<path class="st3" d="M107.8,138.7c2.8,3.4,3,6.5,0.6,9.2c-6.8,7.7-19.3-1.6-11.9-9.2c0.2-0.2,0.2-0.5,0-0.7l0,0
		c-7.8-6.7,0-16.6,8.8-13.9c6.2,1.9,7.8,9.8,2.6,13.9C107.7,138.1,107.6,138.5,107.8,138.7L107.8,138.7z M107.4,131.6
		c-0.2-6-10.4-5.9-10.6,0c0,2.5,2.4,4.5,5.3,4.5C105.1,136.2,107.4,134.1,107.4,131.6L107.4,131.6z M106.4,143.5
		c-0.1-4.9-8.5-4.9-8.7-0.1l0,0c0,2,1.9,3.7,4.3,3.7C104.5,147.2,106.4,145.6,106.4,143.5L106.4,143.5z"/>
	<path class="st2" d="M102.2,127.1c7,0.2,7,8.8,0,9C95.2,135.9,95.2,127.3,102.2,127.1z"/>
	<path class="st2" d="M97.8,143.5c0.2-4.9,8.5-4.8,8.6,0.1C106.2,148.4,97.9,148.4,97.8,143.5z"/>
</g>
</svg>
