<?xml version="1.0" encoding="utf-8"?>
<!-- Generator: Adobe Illustrator 27.0.1, SVG Export Plug-In . SVG Version: 6.00 Build 0)  -->
<svg version="1.1" id="Слой_1" xmlns="http://www.w3.org/2000/svg" xmlns:xlink="http://www.w3.org/1999/xlink" x="0px" y="0px"
	 viewBox="0 0 128 168" style="enable-background:new 0 0 128 168;" xml:space="preserve">
<style type="text/css">
	.st0{fill:#D8D8D8;}
	.st1{fill:#AAAAAA;}
	.st2{fill:#FFFFFF;}
	.st3{fill:#2D261B;}
	.st4{fill:#212853;}
	.st5{fill:#6D1823;}
	.st6{fill:#BDC1D5;}
	.st7{fill:#8B8DA6;}
	.st8{fill:#464A6E;}
	.st9{fill:#B3181E;}
	.st10{fill:#A69E33;}
	.st11{fill:#CABD31;}
	.st12{fill:#D9CB33;}
	.st13{fill:#222220;}
	.st14{fill:#3A3939;}
	.st15{fill:#2A2522;}
	.st16{fill:#A5AABC;}
	.st17{fill:#D4D3DD;}
	.st18{fill:#F2F3F6;fill-opacity:0.976;}
	.st19{fill:#E5D331;}
	.st20{fill:#2D325F;}
	.st21{fill:#797896;}
	.st22{fill:#861D2E;}
	.st23{fill:#615B29;}
	.st24{fill:#444341;}
	.st25{fill:#0F0F18;}
</style>
<g>
	<path class="st0" d="M107.7,161.8H19.9c-6.9,0-12.4-5.6-12.4-12.4V18.9C7.5,12,13,6.4,19.9,6.4h87.8c6.9,0,12.4,5.6,12.4,12.4
		v130.5C120.2,156.2,114.6,161.8,107.7,161.8z"/>
	<path class="st1" d="M106.7,157.9H20.9c-5.5,0-9.9-4.4-9.9-9.9V19.9c0-5.5,4.4-9.9,9.9-9.9h85.8c5.5,0,9.9,4.4,9.9,9.9V148
		C116.6,153.5,112.2,157.9,106.7,157.9z"/>
	<path class="st2" d="M106.4,154.9H21.2c-4.4,0-8-3.6-8-8V21c0-4.4,3.6-8,8-8h85.2c4.4,0,8,3.6,8,8v125.9
		C114.4,151.3,110.8,154.9,106.4,154.9z"/>
</g>
<g>
	<path class="st3" d="M18.7,32.2c0-3.2-0.6-8.9,0.9-11.6c2.3-4.2,8.8-4.2,11.4-0.6c2.5,3.4,1.3,15.9,1.3,20.4c0,0.3,0.2,0.5,0.5,0.5
		c1.8,0.1,2.4,1,1.7,2.9c-0.1,0.3-0.4,0.5-0.7,0.5c-1.2,0-2.3-0.2-3.3-0.8c-0.3-0.1-0.6-0.1-0.8,0c-5.5,3.5-11.1-0.7-10.9-6.7
		c0-0.3-0.2-0.6-0.4-0.7l-0.5-0.2c-0.3-0.1-0.6-0.3-0.7-0.5c-0.6-1.6-0.2-2.5,1.2-2.7C18.5,32.7,18.7,32.5,18.7,32.2z M25.9,20.9
		c-5.1-0.8-3.7,8.4-3.6,11.2c0,0.3,0.2,0.6,0.5,0.7c2.1,0.9,3.8,2.2,5.1,4c0.3,0.3,0.9,0.2,0.9-0.2c0,0,0-12.4,0-12.4
		C28.8,22.3,27.8,21.2,25.9,20.9z M22.4,36.6c-0.7,2.6,2.5,6.3,4.4,4.1c0.2-0.2,0.2-0.6,0-0.8L23,36.4
		C22.8,36.2,22.4,36.4,22.4,36.6z"/>
	<path class="st2" d="M25.9,20.9c1.9,0.3,2.9,1.4,2.9,3.3v12.4c0,0.4-0.6,0.5-0.9,0.2c-1.3-1.8-3-3.2-5.1-4
		c-0.3-0.1-0.5-0.4-0.5-0.7C22.2,29.3,20.8,20.1,25.9,20.9z"/>
	<path class="st4" d="M102.5,46.2l-1.2,0.3l-0.2-0.2c1.1-0.6,1.2-1.3,0.2-2.2l0.3-18.3c0-0.3-0.2-0.5-0.5-0.6c-1.8-0.2-3.5,0-5,0.6
		L95,25.5c-1.7-0.4-3.5-0.5-5.3-0.2c-0.3,0-0.3,0.2-0.1,0.4c0.4,0.6,1.1,1,0.6,1.7c-0.5,0.8-0.9,1.7-1,2.7c0,0.3-0.3,0.5-0.6,0.4
		c-1.1,0-2.3,0.7-1.6,1.7c0.5,0.5,0.9,1,1.2,1.7l0.2,1L88,35.2l-1-0.5c-0.4-0.4-4.4-5-3.5-5.8l0.5,0.2c0.3,0.8,0.8,1.4,1.4,1.9
		c0.2,0.2,0.5,0.1,0.6-0.2c0.4-1,0.1-1.7-1-2.1c-0.8-0.2-1-0.6-0.5-1.2c1.1-1.6,0.9-2.4-0.8-2.2h-2l-0.2,0.2c-0.9-0.6-1.7-0.6-2.5,0
		c-1.1-0.5-2-0.2-2.7,0.8L75.8,26c-0.2-0.6-0.6-0.9-1.3-0.7l-1.8,0.5c-0.7-0.4-1.3-0.5-2-0.3c-0.3,0.1-0.6,0.1-0.9-0.1
		c-1.2-0.6-2.1-0.3-2.7,1L66.7,27h-0.2c-0.8-1.4-2-1.8-3.5-1.4c-0.3,0.1-0.6,0-0.9-0.1c-0.4-0.2-0.8-0.2-1.1,0h-2.2
		c-7.7-0.3-15.4-0.4-23.1-0.2c-1.7,0-1.5-1.3,0-1.3c22.1,0,44.2,0,66.3,0c0.3,0,0.5,0.2,0.5,0.5V46.2z M87.8,27.9
		c0.4-2.1-3.3,2.4-0.3,0.5C87.6,28.2,87.7,28.1,87.8,27.9z"/>
	<path class="st5" d="M61,25.5l1.5,1.3l0.7,0.7l0.5,0.8c0.1,0.2,0.1,0.5-0.1,0.7L61,31.7c0,0.7,0,2.1,0,2.8l-0.6,1
		c-0.7-6.2-2.6,1.6-3.4,3l-0.5-0.8c1.8-3.9,2.6-7.9,2.2-12.2H61z M62.1,27.6c-0.1-0.2-0.3-0.3-0.5-0.4c-0.3-0.1-0.5,0.2-0.5,0.6
		c-0.1,2.5,0.5,2.6,1.8,0.4c0.1-0.1,0-0.2-0.1-0.2h-0.2C62.5,28,62.3,27.8,62.1,27.6z"/>
	<path class="st6" d="M66.5,27L66,27.2c-1-1.3-2.2-1.5-3.5-0.5L61,25.5c0.7-0.5,1.4,0.3,2,0.1C64.5,25.1,65.7,25.6,66.5,27z"/>
	<path class="st7" d="M72.8,25.8L72,28c-1.3,1.1-2.1,1-2.5-0.3c-0.1-0.3,0-0.6,0.3-0.8c0.7-0.5,0.6-0.8-0.4-1
		c-0.3,0-0.6,0.1-0.8,0.3c-0.4,0.4-0.9,0.4-1.4,0.2c0.5-1.3,1.4-1.7,2.7-1c0.3,0.1,0.6,0.2,0.9,0.1C71.4,25.3,72.1,25.4,72.8,25.8z"
		/>
	<path class="st8" d="M74.5,25.3c-0.2,1,0.3,1.2,1.3,0.7l0.5,0.5l0.2,0.4c-0.2,0-0.5,0-0.3,0.3l4.9,9.7l7,13.2c-1-0.2-1.5,0.1-1.3,1
		c-0.5-0.2-0.7-0.5-0.6-0.9c0.1-0.3,0-0.5-0.1-0.5s-0.3,0-0.4,0.2c-0.8-0.9-1.8-1.5-2.9-1.9c-0.3-0.1-0.5-0.3-0.7-0.6
		c-0.5-0.9-1.2-1.4-2.1-1.6c-0.5-0.1-0.5,0-0.2,0.3l5.4,4.1c1,1.6,2.3,2.9,3.9,4c1,0.5,1.1,1.2,0.3,2l-2.5-1.8
		c0-0.8-1.7-3.9-1.8-1.5c-0.6,0.1-1-0.2-1-0.8c1.2-0.6,1.3-1,0.5-1.3c-0.7-0.1-0.7-1.6-1.6-0.9c-0.2,0.1-0.1,0.4,0.1,0.5
		c0.8,0.3,1,0.9,0.6,1.6c-0.4,0.2-0.5,0.6-0.2,1c-1.1-0.3-2-0.5-2.5-0.5c-8.6,0.1-17.2,0.1-25.8,0V52c0.9,0,12.4,0.3,11.2-1.2
		l0.3-0.3c3.8,1.5,9-2,11.5-4.6c0.3-0.3,0.4-0.6,0.3-0.9l-1.8-5.6c-0.1-0.4-0.2-0.7-0.2-0.9c0-2.2-0.7-2.5-2.2-1.2
		c-0.5,0.6-1.7,0.3-2.5,0.4c-0.4,0-0.7,0.2-0.7,0.4c-0.1,0.4,0.6,0.8,0.4,1.1c-0.3,0.4-0.7,0.1-0.9-0.4c0-0.6-1.1-1-1.2-1.3
		c-1-1.5-0.2-3.4,1.7-3.5h2.5c0.3,0,0.6,0.1,0.8,0.3c0.6,0.8,1.3-0.5,0.6-0.9c-1.7-0.9-3.4-1-5.2-0.2c-0.3,0.1-0.7,0.1-0.8-0.1
		c-0.6-0.9,1.6-1.4,2-1.6c0.3-0.2,0.3-0.3,0-0.5c-1.8-0.9-3.1-2.4-3.9-4.2l0.5-0.5c0.5,0.2,1,0.2,1.4-0.2c0.3-0.2,0.6-0.4,0.8-0.3
		c1,0.1,1.1,0.5,0.4,1c-0.3,0.2-0.4,0.5-0.3,0.8c0.4,1.3,1.2,1.4,2.5,0.3c-0.1,0.8,0,1.2,0.5,1.1c0.9-0.3,0.5-1.4-0.5-1.1l0.8-2.2
		L74.5,25.3z M74.4,28.1c-1.8-1.7,1.7,3.3,2.4,2.8C77.6,30.6,74.9,28.6,74.4,28.1z M73.4,30.3c-0.5,0-0.7,0.7-0.1,0.9
		C74.5,31.6,74.1,30.4,73.4,30.3z M78,37.2l2.8,3.5c-0.6,1.6-2.6-2.1-2.9-2.6C77.8,38,77.6,38,77.5,38h-0.2c-0.1,0-0.2,0.2-0.1,0.4
		c0.8,2.1,2.2,3.8,4,5.1l1.5,1.5l1.6,2c0.3,0.3,0.4,0.3,0.4-0.1c0-1-0.6-1.6-1.7-2l-0.8-1.2c0-0.6-0.2-1-0.7-1.2
		c-0.2-0.1-0.4-0.3-0.3-0.5l0.3-1c0.8-0.7-1.7-2.7-2.1-3c-0.2-0.2-0.2-0.5-0.1-0.8c0.6-1.3,0.1-1.3-1.3-0.2l-0.8-1.6
		c-0.1-0.2-0.1-0.5,0.1-0.7c1-0.9,0.7-1.7-0.8-2.6c-0.3-0.2-0.6,0-0.8,0.3c-0.2,0.5-0.7,1.1,0,1.6c0.8,0.5,0.1,1.4,0.7,1.9
		C76.4,35.9,78,37.2,78,37.2z M70.9,36.1c-0.5-1.7-1.6,2.5-0.2,0.7C70.9,36.6,71,36.3,70.9,36.1z M80.8,44.5c-0.5-0.9-1.2-1.5-2.1-2
		c-0.4-0.2-0.5-0.1-0.2,0.2l2.6,3c0.5,0.5,1-0.4,0.4-0.6C81.2,44.9,81,44.7,80.8,44.5z M80.4,49.4c-0.2-1-1.2-3.2-2.3-2.4l-2.8,2.3
		c-0.4,0.3-0.4,0.5,0.2,0.5h4.6C80.3,49.8,80.5,49.6,80.4,49.4z M81.7,51.4c0-0.3-0.2-0.5-0.5-0.5L71,51c-0.6,0-0.6,1,0,1l10.2-0.1
		C81.5,51.9,81.7,51.7,81.7,51.4z"/>
	<path class="st7" d="M74.5,25.3c0.7-0.1,1.1,0.1,1.3,0.7C74.8,26.5,74.3,26.3,74.5,25.3z"/>
	<path class="st9" d="M81.5,25.7c0,0.3-0.4,0.6-0.2,0.9l2.2,2.4c-0.9,0.8,3.1,5.4,3.5,5.8c0.2,1.2,0.7,2.1,1.5,3
		c0.1,0.1,0.3,0.1,0.3,0l0.2-0.2c0.8,2.3,1.9,4.5,3.3,6.5c0.1,0.2,0.3,0.2,0.4,0l0.2-0.3l0.3,0.5c0,1.1-0.3,1.7-1,1.8L79,25.7
		C79.7,25.2,80.6,25.2,81.5,25.7z"/>
	<path class="st10" d="M83.8,25.5v0.2c-0.9,1.1-1.6,1-2-0.2H83.8z"/>
	<path class="st11" d="M84.5,27.8l-0.8-2v-0.2C85.4,25.4,85.6,26.2,84.5,27.8z"/>
	<path class="st12" d="M95,25.5c-0.1,4.4,0.5,8.8,1.6,13.2c0.1,0.3-0.1,0.6-0.4,0.6h-2.4c-0.3,0-0.5,0.2-0.6,0.4
		c-0.1,0.4-0.3,0.7-0.6,0.8c-0.2,0.1-0.5-0.1-0.6-0.4c-0.2-0.9-0.6-1.5-1.3-2c0.2-0.4,0.4-1,1.1-0.8c1.2,0.3,1.7-0.2,1.5-1.4
		c0-0.3,0.1-0.6,0.3-0.8c1-0.8,1-1.7,0-2.7c-0.2-0.2-0.5-0.3-0.9-0.2c-1.4,0.3-3.6-1.2-3.8,1c0,0.5-0.3,0.7-0.7,0.7
		c-0.3-0.7-0.6-1.2-1.2-1.7c-0.3-0.2-0.4-0.6-0.2-0.8c0.3-0.7,0.9-1,1.8-0.9c0.3,0,0.5-0.2,0.6-0.4c0.2-1,0.5-1.9,1-2.7
		c0.5-0.7-0.3-1.1-0.6-1.7c-0.2-0.2-0.2-0.4,0.1-0.4C91.5,25.1,93.3,25.1,95,25.5z"/>
	<path class="st2" d="M101.2,44.1C96.6,39.5,95.8,32,96,25.8c1.6-0.7,3.3-0.9,5-0.6c0.3,0,0.5,0.3,0.5,0.6L101.2,44.1z"/>
	<path class="st13" d="M79,25.7L92.2,46l0.5,0.5c2.4,4.6,5.2,9,8.2,13.2l0.5,0.5l-0.5,2.3c-8-1.6-16.1-19.1-19.2-25.5l-5.2-10
		l-0.2-0.4C76.9,25.5,77.8,25.2,79,25.7z"/>
	<path class="st14" d="M81.7,25.5c0.4,1.3,1.1,1.4,2,0.2l0.8,2c-0.5,0.6-0.3,1,0.5,1.2l-1,0.3L83.5,29l-2.2-2.4
		c-0.2-0.2,0.2-0.6,0.2-0.9L81.7,25.5z"/>
	<path class="st15" d="M95,25.5l0.9,0.3c-0.2,6.1,0.6,13.7,5.2,18.3c1,0.9,0.9,1.6-0.2,2.2l-8.2,0.2L92.2,46c0.7-0.1,1.1-0.7,1-1.8
		c2.8-1.1-2.8-4.1-0.3-0.5L92.7,44c-0.1,0.1-0.3,0.1-0.4,0c-1.4-2-2.5-4.2-3.3-6.5l1,0.5l0.8,0.2c0.7,0.4,1.1,1.1,1.3,1.9
		c0.1,0.3,0.3,0.5,0.6,0.5c0.6-0.1,0.5-1.2,1.2-1.2h2.4c0.3,0,0.4-0.3,0.4-0.6C95.5,34.4,94.9,30,95,25.5z M95.3,42.3
		c0.6,0.6,1-1.1,0.3-1c-0.2,0-0.3,0.1-0.4,0.2C94.9,41.7,95,42.1,95.3,42.3z M97.8,43.5c0.5,0.8,0.3,1.1-0.7,1
		c-6.1-0.7,7.2,3.7,1.5-1.8C97.9,42,97,42.5,97.8,43.5z"/>
	<path class="st8" d="M66,27.2c-0.5,1.5-1.4,2.8-2.6,3.9c-0.2,0.2-0.2,0.5,0,0.7c0.6,0.5,2.1,1.3,2,1.9l0.2,7.3
		c0,0.2,0.2,0.6,0.5,0.5l3-1c0.3-0.1,0.6,0,0.7,0.2c0.4,1,0.1,1.7-1.1,2.1c-1.1,0.4-2.3,0.4-3.4,0.1c-0.7-0.2-0.8-1-0.5-2.3
		c0.3-1.9-1.5-3.1-3.4-2.5l-0.8-1.2l-0.1-1.2l0.6-1c0.7,0,3-0.1,2.7-1.1c-0.6-1-1.6-1-2.7-0.2v-1.5c1.5-0.6,2.7-1.6,3.5-3
		c0.5-0.9-0.3-1.9-1.3-1.2L62.6,27C63.8,25.8,65,25.9,66,27.2z M63.8,35.2c-0.3-0.3-0.8-0.3-1.1,0c-1.5,1.8-1.5,2.1,0,0.9
		c0.2-0.1,0.4-0.1,0.6,0C65.2,37.4,65.3,37.1,63.8,35.2z"/>
	<path class="st2" d="M66.5,27h0.2c0.8,1.9,2.1,3.3,3.9,4.2c0.3,0.2,0.3,0.3,0,0.5c-0.4,0.3-2.7,0.8-2,1.6c0.1,0.2,0.5,0.3,0.8,0.1
		c1.8-0.8,3.5-0.7,5.2,0.2c0.7,0.4,0,1.6-0.6,0.9c-0.2-0.2-0.5-0.3-0.8-0.3h-2.5c-1.9,0.1-2.7,2-1.7,3.5c0.2,0.3,1.2,0.7,1.2,1.4
		c0.1,0.6,0.6,0.8,0.9,0.4c0.2-0.3-0.5-0.8-0.4-1.1c0-0.2,0.3-0.4,0.7-0.5c0.8-0.1,2,0.2,2.5-0.4c1.5-1.4,2.2-1,2.2,1.1
		c0,0.2,0.1,0.5,0.2,0.9l1.8,5.6c0.1,0.3,0,0.6-0.3,0.9c-2.5,2.6-7.7,6.1-11.5,4.6c-4-3-5.2-7.9-5.2-12.7c1.9-0.6,3.7,0.5,3.4,2.5
		c-0.3,1.3-0.2,2.1,0.5,2.3c1.2,0.3,2.3,0.3,3.4-0.1c1.2-0.4,1.5-1.1,1.1-2.1c-0.1-0.2-0.4-0.3-0.7-0.2l-3,1
		c-0.2,0.1-0.5-0.2-0.5-0.4l-0.2-7.3c0-0.6-1.4-1.4-2-1.9c-0.2-0.1-0.2-0.4,0-0.6c1.3-1.1,2.2-2.3,2.7-3.9L66.5,27z M69.5,46.5
		c-1,0.8-2.1,1-3.3,0.6c-0.6-0.2-1.5,0.1-0.2,0.6C67.8,48.3,68.9,47.9,69.5,46.5l1.2-1.3c0.1-0.1,0.1-0.4,0-0.5
		c-1.9-0.7-4-0.7-6-0.2c-0.3,0.1-0.6,0.4-0.6,0.6c0,1.2,4.2,0.6,5.1,0.6c0.2,0,0.4,0.2,0.4,0.4L69.5,46.5z"/>
	<path class="st16" d="M76.5,27l5.2,10H81l-4.9-9.7C76,27,76.3,27,76.5,27z"/>
	<path class="st7" d="M62.7,28c0.2,0,0.3-0.1,0.3,0.2c-1.4,2.2-2,2-1.8-0.5c0.1-0.7,0.7-0.8,1-0.2C62.3,27.8,62.5,28,62.7,28z"/>
	<path class="st6" d="M61,31.7l2.5-2.8c0.2-0.2,0.3-0.5,0.1-0.7l-0.5-0.8c0.6-0.4,1.1-0.3,1.4,0.3c0.1,0.3,0.1,0.6-0.1,0.9
		C63.7,30.1,62.6,31.1,61,31.7z"/>
	<path class="st10" d="M87.4,28.4c-3,1.9,0.7-2.6,0.3-0.5C87.7,28.1,87.6,28.2,87.4,28.4z"/>
	<path class="st6" d="M74.4,28.1c0.5,0.5,3.1,2.4,2.4,2.8c-0.2,0.1-0.4,0-0.7-0.2C75.7,30.4,72.8,26.7,74.4,28.1z"/>
	<path class="st17" d="M72,28c1-0.2,1.3,0.9,0.5,1.1C72,29.2,71.9,28.8,72,28z"/>
	<path class="st12" d="M85,29c1,0.4,1.4,1.1,1,2.1c-0.1,0.2-0.4,0.3-0.6,0.1c-0.6-0.5-1-1.1-1.4-1.9L85,29z"/>
	<path class="st16" d="M74,30.8c0.2,0.4-0.1,0.6-0.7,0.4s-0.4-0.8,0.1-0.9C73.7,30.3,73.9,30.5,74,30.8z"/>
	<path class="st7" d="M78,37v0.2l-1.6-1.4c-0.5-0.5,0.1-1.4-0.7-1.9c-0.6-0.5-0.1-1.1,0.1-1.6c0.1-0.3,0.5-0.4,0.7-0.2
		c1.5,0.9,1.8,1.7,0.8,2.6c-0.2,0.2-0.2,0.5-0.1,0.7L78,37z"/>
	<path class="st13" d="M90.8,38.2L90,38c0.4-1.6-0.1-2.6-1.5-3l-0.2-1c0.4,0,0.7-0.2,0.7-0.7c0.2-2.2,2.3-0.7,3.8-1
		c0.3-0.1,0.7,0,0.9,0.2c1,1,1,1.9,0,2.7c-0.2,0.2-0.4,0.5-0.3,0.8c0.1,1.2-0.4,1.7-1.5,1.4C91.2,37.2,91,37.8,90.8,38.2z"/>
	<path class="st9" d="M60.5,35.5l0.1,1.2c-2.3,7.6-5.7,14.7-10.2,21.2c-4.9,7.2-1.2-6-0.6-7c2.4-4.1,4.9-8.3,7.3-12.5
		C57.8,37.1,59.8,29.3,60.5,35.5z"/>
	<path class="st17" d="M61,34.5v-1.2c1.1-0.9,2-0.8,2.7,0.1C64.3,34.3,61.7,34.5,61,34.5z"/>
	<path class="st15" d="M87,34.8l1,0.5l1,2.2c-0.1,0.1-0.3,0.3-0.5,0.3C87.7,37,87.2,36,87,34.8z"/>
	<path class="st7" d="M63.8,35.2c1.6,1.9,1.5,2.2-0.5,0.9c-0.2-0.1-0.4-0.1-0.6,0c-1.6,1.2-1.6,0.9,0-0.9
		C63,34.9,63.5,34.9,63.8,35.2z"/>
	<path class="st12" d="M88.5,35c1.4,0.4,1.9,1.4,1.5,3l-1-0.5l-1-2.2L88.5,35z"/>
	<path class="st17" d="M70.7,36.8c-1.4,1.8-0.4-2.4,0.2-0.7C71,36.3,70.9,36.6,70.7,36.8z"/>
	<path class="st16" d="M81.5,41l-0.7-0.3L78,37.2V37c1.4-1.1,1.8-1.1,1.3,0.2c-0.1,0.3-0.1,0.6,0.1,0.8C79.8,38.4,82.3,40.3,81.5,41
		z"/>
	<path class="st2" d="M26.8,40.7c-1.9,2.2-5-1.5-4.4-4.1c0.1-0.3,0.4-0.4,0.6-0.2l3.8,3.5C27,40.1,27,40.5,26.8,40.7z"/>
	<path class="st13" d="M60.5,36.7l0.8,1.2c0,4.8,1.2,9.7,5.2,12.7L66.2,51c-1.6,0-11.3-0.8-11.2,1.2v0.5c-0.7,0.1-1,0.4-0.9,0.8
		c0,0.2,0.3,0.4,0.7,0.4l2.4,0.4c-2.9,2.5,3.1,3.2,2.5,0.2c1.3-0.7,2.7-0.8,4.1-0.3c0.2,0.1,0.3,0.4,0.1,0.6
		C61.8,56.9,67,56.9,67,55c0-0.5,0.4-0.9,0.9-0.9l10.6,0.2v0.4l-1,1l-1,0.7l-2.7,0.3L73.2,56c1.9-1.2-2.7-2.6-2.7,0.2l-1,0.2
		c-1.9-0.5-3,0.1-3.2,1.8L66,58.7c-4.6,0.1-9.2,0.1-13.8,0c-2,0-2.4,0.5-1.2,1.6c0,0.4-0.1,1.1,0.2,1.4c2.9,3.6,2.9,7.3-0.1,11.1
		L51,73c-0.6,0-1.2-0.5-1.8-1.3c2.5-4,1.9-7.2-1.6-9.7c-1.3-10.2,4.4-16,9-24.2l0.5,0.8c-2.4,4.2-4.9,8.3-7.3,12.5
		c-0.6,1.1-4.2,14.2,0.6,7C54.8,51.4,58.2,44.3,60.5,36.7z M52.6,57.8c1.8,0.6,2.8,0.3,3-0.7C55.9,55.5,50.3,57,52.6,57.8z M61.5,58
		c2.2-1.1,1.9-1.6-1-1.5c-0.3,0-0.6,0.1-0.9,0.4C58.1,58.7,60.8,58.4,61.5,58z"/>
	<path class="st18" d="M81,37h0.7c3.1,6.4,11.2,23.9,19.3,25.6c-2.2,0.8-4.1,0.1-5.8-2C89.6,54.4,84.8,44.1,81,37z"/>
	<path class="st7" d="M80.8,40.7l0.7,0.3l-0.3,1c-0.1,0.2,0.1,0.5,0.3,0.5c0.5,0.2,0.8,0.6,0.7,1.2c-0.3-0.6-0.6-0.7-1-0.2
		c-1.8-1.3-3.2-2.9-4-4.9c-0.1-0.3-0.1-0.5,0.1-0.6c0.2,0,0.5,0,0.5,0.2C78.2,38.7,80.2,42.4,80.8,40.7z"/>
	<path class="st10" d="M95.1,41.5c0.1-0.1,0.2-0.2,0.4-0.2c0.7,0,0.3,1.6-0.3,1C95,42.1,94.9,41.7,95.1,41.5z"/>
	<path class="st11" d="M93.3,44.2L93,43.7C90.4,40.2,96.1,43.1,93.3,44.2z"/>
	<path class="st6" d="M81.5,45c0.6,0.2,0.1,1.1-0.4,0.6l-2.6-3c-0.3-0.4-0.2-0.4,0.2-0.2c0.9,0.4,1.6,1.1,2.1,2
		C81,44.7,81.2,44.9,81.5,45z"/>
	<path class="st19" d="M97.8,43.5c-0.8-1,0.1-1.5,0.8-0.9c5.7,5.6-7.7,1.2-1.5,1.9C98,44.6,98.3,44.3,97.8,43.5z"/>
	<path class="st17" d="M82.2,43.7L83,45h-0.2l-1.5-1.5C81.6,43.1,81.9,43.2,82.2,43.7z"/>
	<path class="st20" d="M69.5,46.5c0-0.3,0-0.7-0.4-0.7c-0.8-0.1-5.1,0.6-5.1-0.6c-0.1-1.3,6.9-1.2,6.8-0.1
		C70.9,45.1,69.5,46.4,69.5,46.5z"/>
	<path class="st6" d="M82.8,45H83c1.1,0.3,1.7,1,1.7,2c0,0.4-0.1,0.5-0.4,0.1L82.8,45z"/>
	<path class="st17" d="M85.5,50L85,50.2l-5.4-4.1c-0.4-0.3-0.3-0.4,0.2-0.3c0.9,0.2,1.6,0.7,2.1,1.6c0.2,0.3,0.4,0.5,0.7,0.6
		C83.7,48.5,84.7,49.1,85.5,50z"/>
	<path class="st2" d="M101,46.3l0.2,0.2c0,4,0,8,0,12c0.3,0.6,0.3,1-0.2,1.3c-3.1-4.2-5.8-8.6-8.2-13.2L101,46.3z"/>
	<path class="st21" d="M102.5,46.2c0.5,4.7,0.5,9.3,0,14h-1l-0.5-0.5c0.5-0.3,0.6-0.7,0.2-1.3c0-4,0-8,0-12L102.5,46.2z"/>
	<path class="st8" d="M69.5,46.5c-0.6,1.4-1.7,1.8-3.5,1.2c-1.3-0.5-0.4-0.8,0.2-0.6C67.4,47.5,68.5,47.3,69.5,46.5z"/>
	<path class="st2" d="M80.4,49.4c0,0.2-0.1,0.3-0.3,0.3h-4.6c-0.5,0-0.6-0.2-0.2-0.5l2.8-2.2C79.2,46.3,80.2,48.4,80.4,49.4z"/>
	<path class="st3" d="M28.5,56.5c8.4-3,7.8,9.4,0.6,6.6c-0.8-0.4-1.1-1.6-2-1.8c-0.4-0.2-0.5-0.1-0.4,0.3l1.4,4.2
		c0.1,0.3,0,0.5-0.2,0.6h-3.7c-0.3,0-0.4-0.3-0.3-0.6c0.3-0.6,2.2-4.6,1.4-4.9c-0.2-0.1-0.6,0.1-0.8,0.5c-1.1,1.7-2.5,2.3-4.2,2
		c-5.2-1.2-3.5-9.1,3-6.9c0.3,0.1,0.3,0,0.1-0.2c-4-4.8,3.1-9.7,5.8-4.8c0.9,1.6,0.6,3.2-0.8,4.8C28.2,56.5,28.2,56.6,28.5,56.5z"/>
	<path class="st18" d="M86.7,51.2c0.9,0.7,1.7,1.7,2.2,3c-1.6-1-2.9-2.4-3.9-4l0.5-0.3c0.5-0.3,0.7-0.2,0.5,0.4
		C86,50.7,86.2,51,86.7,51.2z"/>
	<path class="st16" d="M84,52.2h-0.5c0.4-0.8,0.2-1.3-0.6-1.6c-0.2-0.1-0.3-0.4-0.1-0.5c0.8-0.7,0.9,0.7,1.6,0.9
		C85.3,51.3,85.1,51.7,84,52.2z"/>
	<path class="st20" d="M88,50.2c1.9,3.4,4.2,6.9,7.1,10.4c1.7,2.1,3.7,2.8,5.8,2l0.5-2.3h1V86c-0.1,0.8-0.6,1.1-1.4,1
		c1.4-1.2,1.2-2.1-0.5-2.5c0.7-0.3,1-0.7,0.8-1.1c-0.1-0.2-0.3-0.3-0.5-0.2c-0.1,0-16.7,14.5-16.8,14.5l-0.2,1.8l-4.4-4.8
		C79,94.2,79,93.5,79.5,93c7.7-6.1,15.1-12.5,22.2-19.3c0.1-2.3-0.4-2.8-1.5-1.3c-0.3,0.4-0.8,0.5-1.2,0.2c-1.9-1.7-3.9-2.9-6.2-3.6
		l-2-1c-0.5-1.1-1.3-1.2-2.2-0.5L85.2,68l-0.5-1l2.5-1.2c0.6,0.4,1.1,0.3,1.5-0.2c2.7,2.5,5.4-1.9,2.5-2.8L90,60h0.5l0.2,0.2l2,1.5
		c0.3,0.7,0.9,1,1.8,0.9c1.4,1.7,3,2.3,5,1.9c0.4-0.1,0.4-0.2,0-0.3L97,63.8c-0.3-0.1-0.6-0.3-0.7-0.5c-0.5-1-1.3-1.8-2.3-2.3
		c-0.8-1.3-1.9-2.3-3.2-3c-0.2-0.1-0.3-0.4-0.2-0.7c0.4-1,0-1.2-1.2-0.5l-0.1-0.5c0.8-0.9,0.7-1.5-0.3-2c-0.5-1.2-1.3-2.2-2.2-3
		C86.5,50.3,87,50,88,50.2z M99.5,78.1c-1.1,1.2-1.9,3.2-0.4,3.3c2.8-0.1,3.3-1.2,1.6-3.3C100.4,77.7,99.8,77.7,99.5,78.1z
		 M97.1,82.1c-0.5-1-0.8-0.8-0.9,0.5c0,0.3,0.1,0.6,0.4,0.7C97.2,83.3,97.4,82.6,97.1,82.1z M95.6,83.5c-0.4-0.7-1.3-1.4-1.9-0.7
		c-2.6,3.3-1.8,4.1,2.3,2.4c0.5-0.2,0.8-0.9,0.3-1.2C95.9,83.8,95.7,83.6,95.6,83.5z M91.8,87.7c0.3-0.8-1.5-1.4-1.7-0.6
		C89.8,87.9,91.5,88.5,91.8,87.7z M90.6,89.2c-0.8-1-1.7-2.4-2.6-1.5c-2.6,3.3-1.8,4.1,2.3,2.5C90.7,90,90.8,89.6,90.6,89.2z M85,92
		c-0.2,0.5,0.2,1.1,0.8,0.8c0.8-0.3,0.7-0.6,0-1C85.5,91.6,85.1,91.7,85,92z M82.6,92.3c-0.6,0.9-2,3.2-0.9,3.3
		c4.2-0.1,4.8-1.2,1.8-3.5C83.3,91.9,82.8,92,82.6,92.3z"/>
	<path class="st10" d="M66.2,51c1.2,1.5-10.3,1.2-11.2,1.2C54.9,50.2,64.6,51,66.2,51z"/>
	<path class="st11" d="M71.1,51.1L81.2,51c0.3,0,0.5,0.2,0.5,0.5S81.5,52,81.2,52L71,52.1C70.5,52,70.5,51.1,71.1,51.1z"/>
	<path class="st7" d="M86.8,54.5C86,54.3,85.4,53.8,85,53C85.1,50.6,86.8,53.7,86.8,54.5z"/>
	<path class="st17" d="M83.5,52.2H84c0,0.6,0.4,0.8,1,0.8c0.4,0.7,1,1.2,1.8,1.5l2.5,1.8l0.1,0.5c0.8,0.3,0.9,0.7,0.5,1.3l-6.5-4.8
		C83,52.8,83.1,52.4,83.5,52.2z"/>
	<path class="st12" d="M55,52.7c8.6,0.1,17.2,0.1,25.8,0c0.5,0,1.4,0.2,2.5,0.5c-1.4,1-3,1.3-4.8,1L67.9,54c-0.5,0-0.9,0.4-0.9,0.9
		c0,1.9-5.2,1.9-3.1-0.2c0.2-0.2,0.1-0.5-0.1-0.6c-1.4-0.6-2.8-0.5-4.1,0.3l-2.5-0.2l-2.4-0.4c-0.4-0.1-0.7-0.2-0.7-0.4
		C54,53.1,54.3,52.8,55,52.7z"/>
	<path class="st15" d="M83.2,53.2l6.5,4.8l4,3.2c-0.2,0.7,0.1,1.2,0.8,1.5c-0.9,0.1-1.5-0.2-1.8-0.9c-0.1-1.3-0.7-1.8-2-1.5L90.5,60
		l0.1-0.3c0-0.2,0-0.3-0.1-0.4c-1.7-0.6-2.3-2.5-3.9-2.9c-0.4-0.1-0.4,0-0.2,0.3c1,1.4,2.2,2.5,3.7,3.3l1.2,2.7l-1,0.5
		c-0.7-1.4-1.8-2.1-3.2-2.2c-2-0.5-4-0.4-6,0.2c-0.4-0.3-0.8-0.3-1.4,0c-2.7,0.1-4.5,1.5-5.2,4.2l-2.2,2.8c-1.9,2.6-3.1,5.6-3.7,8.8
		c-0.2,0.9-0.4,1-0.8,0.2c0.4-2,2.9-10.6,4.5-11.5c0.3-0.2,0.4-0.4,0.5-0.7c0.1-1.2,0.7-2,1.7-2.6c0.3-0.2,0.5-0.5,0.5-0.7
		c0-1.3-2.9,0.5-3.1,2.2c0,0.3-0.2,0.7-0.3,0.9c-2,2.6-3.4,6.7-4.4,9.9c-0.7,1.9-0.4,4.1-1.1,6.2l-1,1.5c-1.2-0.3-2.6,0.2-2.8,1.4
		c-0.2,1.9,0.8,2.6,2.9,2.2c-0.3,0.7,0.1,1.1,1.2,1.2c-0.6,5.5-1.9,11.4-3.7,17.8c-0.2,0.8,0.4,1.6,1.3,1.6c0.5,0,0.6-0.7,0.3-1.9
		c-0.1-0.3-0.1-0.6,0.1-0.9c2.1-4.3,2.7-11.3,3.1-16.1l1-0.5l-0.5,7l0.2,1.5c-1.3,2.4-1.9,5-2,7.7l-0.3,0.7c-0.8,0.9-1.1,2-1,3.2
		H50.8c0-2,2.3-3.4,3-5.5l2.3-2.8c0.7-0.8,5-9.6,1.9-8.2l1.1-2.8c0.3-0.9-0.2-1.1-1-1.2c-0.2-3,0.2-6.6-0.7-9.2s-3.5-4.6-1.6-7.4
		c0.2-0.3,0.4-0.6,0.3-0.9L56,63.8l0.7-0.3l0.6,1.2c-1.3,1.9-1.3,3.6,0.2,5.2c-0.2,0.8-0.7,1.5-1.3,1.9c-0.7,0.5-0.4,1.2,0.2,1.5
		l1,1.7c0,1.5,0.4,2.8,1.2,4.1c0.2,0.2,0.2,0.6,0.2,0.9c-0.1,0.6,0.2,0.9,0.8,0.8c0.3,0,0.5-0.3,0.5-0.6l0.1-7l0.2-1.4
		c0.9-2.4,1.4-5,1.5-7.5c2.1-3.1,1.5-4-2-2.7l-1.2-0.2c-1.6-0.7-2.7-0.3-3.3,1.2c-0.3-1.3-1-1.7-2.2-1.2L51,60.7v-0.5
		c12-0.6,18,0.3,35.2-0.3c0.4,0,0.7-0.1,0.9-0.4c1.1-1.4-9.8-0.9-10.5-0.9s-0.8-0.3-0.3-0.8c0.8-0.9,0.9-1.4,0.2-1.5l1-0.7
		c1,0.7,2,0.8,3,0.4c0.2-0.1,0.4-0.4,0.3-0.6c-0.4-0.8-1.2-1-2.3-0.8v-0.4C80.3,54.6,81.9,54.2,83.2,53.2z M83.4,56.9
		c0.2-0.3,0.1-0.5-0.3-0.4l-2.4,0.4c-1.5,0.3-1.5,0.6,0,1C81.9,58.3,82.8,57.9,83.4,56.9z M64.3,63.7c-2.1,4.8-2.9,12-3.3,16.4
		c0,0.3,0.2,0.6,0.4,0.6c0.7,0.1,1-0.3,1-1.2c0.1-4.4,0.9-8.4,2.4-12.5c0.6-1.7,0.9-3.6,1-5.8c0-0.5-0.2-0.6-0.6-0.3
		c-0.7,0.6-1,1.2-0.8,1.8C64.4,63.1,64.4,63.5,64.3,63.7z M64.6,81c0.3,0,0.5-0.2,0.5-0.5c0.5-6.8,2.6-13.1,6.3-18.8
		c0.1-0.2,0-0.5-0.2-0.6c-1-0.3-2.8-0.5-3.5,0.6c-3.3,6.5-3.3,11.6-4.4,18.3c-0.1,0.4,0,0.7,0.2,0.9C63.8,81,64.1,81.1,64.6,81z
		 M60.8,105.6c2.5-5,3.9-11.3,4.2-16.8c0.1-2-0.4-2.5-1.6-1.6C63.1,87.3,63,87.6,63,88c-0.4,6.5-2.4,12.4-6.1,17.8
		c-0.2,0.3-0.2,0.5,0.2,0.5l3-0.2C60.3,106.2,60.6,105.9,60.8,105.6z M61.4,87.1c-0.3,0-0.5,0.1-0.5,0.6c0,3.2-0.9,6.2-2.7,8.8
		c-0.2,0.2-0.1,0.5,0,0.7c0.1,0.3,0,0.6-0.1,0.9l-2.8,5.8c-0.1,0.3-0.4,0.5-0.6,0.6c-1,0.5-1.2,1-0.5,1.4c0.2,0.2,0.6,0.1,0.8-0.1
		c1.6-1.5,2.7-3.4,3.2-5.6c0.1-0.3,0.2-0.6,0.4-0.9c2.1-2.5,3.9-9,3.1-12.2C61.6,87.2,61.5,87.1,61.4,87.1z"/>
	<path class="st14" d="M37.6,63.7c0.3,1,0.8,1.3,1.7,1c1.7,0.8,2.5,0.6,2.5-0.7c0-0.2,0.1-0.5,0.3-0.8c3.4-2.2,1.6,2.9-2.7,3
		c-0.3,0-0.5,0.2-0.4,0.5c0.2,0.8,0.8,1.4,1.6,1.8c-0.1,0.7-0.5,1.1-1.2,1.2c-0.6-2-1.8-3.3-3.7-4.1c-0.3-0.1-1-0.9-1.3-0.1
		c-0.1,0.3,0.1,0.6,0.3,0.8c1.8,1.7,0.2,3.5,1.9,5.4l-1,0.7l-1-1.7c-0.2-0.3-0.3-0.3-0.5,0.1l-1,2.7c-0.1,0.3-0.1,0.5,0,0.7
		c0.1,0.1,0.2,0.2,0.3,0.2L32.2,76c0.4-0.9,0.1-1.5-0.7-1.7c-0.2,0-0.4,0.1-0.5,0.4c0,1.1-0.5,1.8-1.6,2c-1.1-0.1-0.2-2.3,0.1-2.8
		c0.2-0.3,0.2-0.6,0.1-0.9c-0.5-1-0.5-2.1-0.3-3.3c0.6-2.6,1.3-4.1,2.1-4.3c5.1-1.7,6.4-4.8,3.7-9.4c-0.1-0.3-0.1-0.6,0.1-0.7
		c2.9-2,5-1.2,6.4,2.3c0.2,0.5-0.8,1.9-1,2.4c-0.2,0.3-0.4,0.5-0.6,0.6C38.1,60.9,37.4,62,37.6,63.7z M37.5,56
		c1.7,0.8,2,0.5,0.9-0.7c-0.6-0.6-1.6,0.1-2.1,0.6c-0.2,0.2-0.2,0.5,0,0.7c0.3,0.2,0.5,0.1,0.7-0.3C37,56,37.3,55.9,37.5,56z
		 M39.5,57.9c-0.4,1,0.8,0.9,1,0.2C41.4,56.5,39.8,57,39.5,57.9z M38,57.9c0-2.1-1.6,0.2-0.5,0.5C37.7,58.6,38,58.2,38,57.9z
		 M37.8,59.7c-0.8,1.3-0.5,1.4,0.9,0.2c0.2-0.1,0.2-0.3,0.1-0.5c-0.1-0.1-0.2-0.1-0.3-0.2C38.3,59.2,38,59.4,37.8,59.7z M32.2,66.1
		c-1.7,1.4,2.9,4.2,1.2,0.3C33.3,66,32.6,65.8,32.2,66.1z M31.6,69c0.5-0.1,0.7-0.4,0.3-0.9c-0.2-0.2-0.5-0.2-0.7,0
		c-0.3,0.6-1.1,1.1-0.8,1.8c0.3,0.8,0.3,1.6-0.2,2.5c-0.1,0.2-0.1,0.4,0.1,0.5c1.5,0.4,1.5-2.8,1-3.5C31.2,69.3,31.3,69,31.6,69z"/>
	<path class="st11" d="M59.8,54.5c0.6,3-5.4,2.2-2.5-0.2L59.8,54.5z"/>
	<path class="st12" d="M73.2,56l-2.7,0.2C70.6,53.4,75.2,54.9,73.2,56z"/>
	<path class="st12" d="M78.5,54.7c1.1-0.2,1.8,0.1,2.2,0.8c0.1,0.2,0,0.6-0.3,0.6c-1.1,0.4-2.1,0.3-3-0.4L78.5,54.7z"/>
	<path class="st19" d="M36.9,56.3c-0.3,0.9-1.1,0.1-0.7-0.4c0.5-0.5,1.4-1.2,2.1-0.6c1.1,1.2,0.9,1.5-0.8,0.7
		C37.3,55.9,37,56,36.9,56.3z"/>
	<path class="st15" d="M73.2,56l0.5,0.7l-0.8,1.5c-0.2,0.3-0.4,0.4-0.8,0.4h-6.2l0.2-0.5c2,0.5,3.1,0,3.2-1.8l1-0.2L73.2,56z"/>
	<path class="st17" d="M90.5,60H90c-1.5-0.8-2.7-1.9-3.7-3.3c-0.2-0.3-0.1-0.4,0.2-0.3c1.6,0.4,2.1,2.3,3.9,2.9
		c0.1,0,0.2,0.2,0.1,0.4V60z"/>
	<path class="st6" d="M94,61l-0.3,0.3l-4-3.2c0.5-0.6,0.3-1-0.5-1.3c1.2-0.7,1.6-0.5,1.2,0.5c-0.1,0.3,0,0.6,0.2,0.7
		C92.1,58.6,93.2,59.6,94,61z"/>
	<path class="st12" d="M52.6,57.8c-0.7-0.2-0.7-0.5-0.1-0.9c0.8-0.4,1.7-0.6,2.7-0.4c0.3,0,0.5,0.3,0.4,0.6
		C55.4,58.1,54.4,58.4,52.6,57.8z"/>
	<path class="st12" d="M61.5,58c-0.8,0.4-3.4,0.7-1.8-1.1c0.2-0.2,0.5-0.4,0.9-0.4C63.5,56.4,63.8,56.9,61.5,58z"/>
	<path class="st12" d="M69.5,56.5c-0.2,1.7-1.3,2.3-3.2,1.8C66.5,56.6,67.6,56,69.5,56.5z"/>
	<path class="st12" d="M76.5,56.5c0.6,0.1,0.6,0.6-0.2,1.5c-0.4,0.5-0.3,0.8,0.3,0.8c0.7,0,11.5-0.5,10.5,0.9
		c-0.2,0.2-0.5,0.4-0.8,0.4C69,60.6,63,59.6,51,60.3c-1.1-1.1-0.7-1.6,1.2-1.6c4.6,0.1,9.2,0.1,13.8,0h6.2c0.3,0,0.6-0.2,0.8-0.4
		l0.8-1.5L76.5,56.5z"/>
	<path class="st19" d="M83.4,56.9c-0.6,1-1.5,1.4-2.7,1c-1.5-0.4-1.5-0.8,0-1l2.4-0.4C83.5,56.4,83.6,56.6,83.4,56.9z"/>
	<path class="st11" d="M40.1,57.2c0.7-0.3,0.9,0,0.4,0.9c-0.2,0.3-0.4,0.5-0.7,0.5C39,58.7,39.6,57.4,40.1,57.2z"/>
	<path class="st10" d="M37.5,58.5C36.4,58.2,38,55.8,38,58C37.9,58.3,37.7,58.6,37.5,58.5z"/>
	<path class="st11" d="M38.5,59.2c0.3,0.1,0.5,0.4,0.2,0.7c-1.4,1.2-1.7,1.2-0.9-0.2C38,59.4,38.3,59.2,38.5,59.2z"/>
	<path class="st16" d="M92.7,61.8l-2-1.5C91.9,60,92.6,60.5,92.7,61.8z"/>
	<path class="st18" d="M51,60.7l2.2,0.5c0.6,1.6,1.1,3.2,1.5,4.9c0.5,2.6-0.8,4.7-1.7,7.1l-1.2,0.2l-0.6-0.8c2.9-3.8,3-7.4,0.1-11
		C51,61.4,51,61.1,51,60.7z"/>
	<path class="st9" d="M87.1,61c-0.4,1.3-2.1,1.6-2,2.2c0,0.2,0.3,0.5,0.6,0.6c1,0.2,1.5,0.9,1.5,1.9L84.8,67c-3,0-5.6,1-7.8,3
		c-0.7,0.4-1.3,0.4-1.8,0l1.8-1.5c0.9-0.8-1.8-2.7-2.6-3c0.7-2.7,2.5-4.1,5.2-4.2c-0.1,0.7-0.5,1.2-1.1,1.5
		c-0.4,0.2-0.7,0.4-0.8,0.6c-0.3,0.5,0,0.9,0.9,1.2c1,2.1,1.8,2.1,2.5,0c2.1-0.6,2.3-1.2,0.7-1.8C81,62.6,81.1,62,81,61.4
		C83.1,60.6,85.1,60.6,87.1,61z"/>
	<path class="st2" d="M90.3,63.2c-0.2,1.2-2.6,0.7-1.6,2.2c-0.4,0.5-0.9,0.6-1.5,0.2c0-1-0.5-1.7-1.5-1.9c-0.3-0.1-0.6-0.3-0.6-0.6
		c-0.1-0.6,1.6-0.9,2-2.2C88.5,61.1,89.6,61.9,90.3,63.2z"/>
	<path class="st11" d="M55.5,62.5l0.5,1.3l0.1,5.7c0,0.2-0.1,0.5-0.3,0.9c-1.9,2.8,0.6,4.8,1.6,7.4c1,2.7,0.5,6.2,0.7,9.2
		c0.1,1.1-0.2,1.9-1,2.5L57,89.2c0-1.4-0.3-2.6-0.8-3.6c1.3-1.3,1.4-2.8,0.4-4.3c0.2-1.9-0.7-7-3.5-7.3L53,73.2
		c0.9-2.4,2.3-4.5,1.7-7.1c-0.3-1.7-0.8-3.3-1.5-4.9C54.4,60.8,55.1,61.2,55.5,62.5z"/>
	<path class="st9" d="M58.8,61.3c-0.4,1-1,1.7-2,2.2L56,63.8l-0.5-1.3C56.1,61,57.2,60.6,58.8,61.3z"/>
	<path class="st9" d="M62,64.2c0.3-1.3-1.7-1-2-2.7C63.5,60.3,64.1,61.2,62,64.2z"/>
	<path class="st11" d="M64.3,62.8c-0.1-0.6,0.1-1.2,0.8-1.8c0.4-0.3,0.6-0.2,0.6,0.3c-0.1,2.2-0.4,4.1-1,5.8
		c-1.4,4.1-2.2,8.1-2.4,12.5c0,0.9-0.4,1.3-1,1.2c-0.3,0-0.5-0.3-0.4-0.6c0.5-4.4,1.2-11.6,3.3-16.4C64.4,63.5,64.4,63.1,64.3,62.8z
		"/>
	<path class="st12" d="M64.6,81c-0.4,0-0.8,0-1-0.2c-0.2-0.1-0.3-0.5-0.2-0.9c1.1-6.7,1.1-11.8,4.4-18.3c0.7-1.1,2.5-0.8,3.5-0.6
		c0.2,0.1,0.3,0.3,0.2,0.5c-3.7,5.8-5.9,12.1-6.4,18.9C65.1,80.8,64.9,81,64.6,81z"/>
	<path class="st2" d="M81.1,61.3c0.1,0.6,0,1.2,0.8,1.4c1.7,0.6,1.4,1.2-0.7,1.8h-2.5c-0.9-0.3-1.2-0.7-0.9-1.2
		c0.1-0.2,0.4-0.4,0.8-0.6c0.6-0.3,1-0.8,1.1-1.5C80.3,61,80.8,61,81.1,61.3z"/>
	<path class="st16" d="M94,61c1,0.5,1.8,1.3,2.3,2.3c0.1,0.3,0.4,0.4,0.7,0.5l2.5,0.6c0.4,0.1,0.4,0.2,0,0.3c-2,0.4-3.7-0.3-5-1.9
		c-0.7-0.3-1-0.7-0.8-1.5L94,61z"/>
	<path class="st2" d="M58.8,61.3l1.2,0.2c0.3,1.7,2.3,1.4,2,2.7c-0.9,0.2-1.5,0.6-2,1.3c-0.8,1.1-2.1,0.3-2.7-0.7l-0.6-1.2
		C57.7,63,58.4,62.3,58.8,61.3z"/>
	<path class="st12" d="M67.8,77.2l-0.3,3.2c-0.5,0.6-1,0.7-1.5,0.3c0.7-2.1,0.5-4.2,1.1-6.2c1.1-3.1,2.4-7.2,4.4-9.9
		c0.2-0.2,0.3-0.6,0.3-0.9c0.2-1.7,3.1-3.5,3.1-2.2c0,0.2-0.2,0.5-0.5,0.7c-1,0.6-1.5,1.5-1.7,2.6c0,0.3-0.2,0.6-0.5,0.7
		C70.7,66.7,68.2,75.2,67.8,77.2z"/>
	<path class="st20" d="M47.5,62c3.6,2.5,4.1,5.8,1.6,9.7l-4.7-5c-0.1-0.2-0.3,0-0.4,0.1l-1-0.6L47.5,62z"/>
	<path class="st9" d="M91.2,62.7c2.8,0.9,0.1,5.3-2.5,2.8c-1-1.5,1.3-1,1.6-2.2L91.2,62.7z"/>
	<path class="st8" d="M42,63.3c-0.2,0.3-0.2,0.5-0.3,0.8c-1.3-0.3-2.1,0-2.5,0.7c-0.8,0.3-1.4,0-1.7-1C39.1,63.2,40.6,63,42,63.3z"
		/>
	<path class="st11" d="M41.7,64c0,1.2-0.8,1.4-2.5,0.7C39.6,64,40.5,63.8,41.7,64z"/>
	<path class="st9" d="M62,64.2c-0.1,2.6-0.6,5.1-1.5,7.5l-3-1.8c-1.5-1.6-1.6-3.3-0.2-5.2c0.6,1,1.9,1.8,2.7,0.7
		C60.5,64.8,61.1,64.4,62,64.2z"/>
	<path class="st17" d="M81.2,64.5c-0.7,2.1-1.5,2.1-2.5,0H81.2z"/>
	<path class="st2" d="M39.2,69.7l-2.8,2.1c-1.8-1.9-0.2-3.7-1.9-5.4c-0.3-0.2-0.4-0.6-0.3-0.8c0.2-0.9,1,0,1.3,0.1
		C37.5,66.4,38.7,67.7,39.2,69.7z"/>
	<path class="st2" d="M74.5,65.5c0.7,0.3,3.5,2.2,2.6,3L75.2,70h-0.8l-2.2-1.8L74.5,65.5z"/>
	<path class="st2" d="M33.5,66.4c1.6,3.9-2.9,1.2-1.2-0.3C32.6,65.8,33.3,66,33.5,66.4z"/>
	<path class="st22" d="M43,66.2l1,0.6l1,2l-0.3,0.5L27.8,83c-1.2-0.8-1.3-1.8-0.3-3l4.8-4l1.2-1.4l2-2c0.6-0.5,3-2.3,3.7-2.8
		c0.8,0,1.2-0.4,1.2-1.2L43,66.2z"/>
	<path class="st6" d="M49.2,71.7c0.6,0.8,1.2,1.2,1.8,1.3c0,0.6,0.1,1-0.5,1.5L47.8,77c-3.1,2.6-18.2,15.2-21,17.5
		c-0.2-0.8-0.1-1.3,0.6-1.9c7.3-6,14.6-12.1,21.9-18.2c0.2-0.2,0.3-0.5,0.1-0.8c-1.1-2-2.6-3.6-4.3-4.8l-1-2l0.2-0.1
		c0.1-0.1,0.2-0.1,0.3,0L49.2,71.7z"/>
	<path class="st6" d="M84.8,67l0.5,1l-0.8,0.3l-2.3-0.4c-0.3,0-0.6,0.1-0.7,0.3c-0.5,0.6-1.1,0.9-1.9,0.9c-0.3,0-0.6,0.1-0.8,0.4
		c-0.4,0.5-1,0.7-1.8,0.5C79.1,67.9,81.7,66.9,84.8,67z"/>
	<path class="st16" d="M90.8,68l-1.5,0.8l-0.8-1.2C89.5,66.7,90.2,66.9,90.8,68z"/>
	<path class="st12" d="M88.5,67.5l0.8,1.2c-2.6-0.2-4.4,0.6-5.4,2.6c-0.2,0.3-0.4,0.6-0.7,0.7l-3.7,2c-0.3,0.2-0.4,0.1-0.3-0.2
		c0.5-1.6,1.6-2.5,3.3-2.9c0.2-0.1,0.4-0.3,0.3-0.4c-0.9-1.5-5.3,2.2-6.1,3.1c-0.2,0.2-0.1,0.4,0.2,0.5c2,0.7-1.3,4.8-2.1,5.4
		c-0.3,0.2-0.4,0.2-0.4-0.2c0-1.7,0.5-3.2,1.5-4.5c0.1-0.2,0.1-0.3,0-0.4c-0.6-0.8-2.9,4-3.2,4.7c-0.7,1.3-2.8,7.1,0,7.2
		c1.5,1.4,2.6,3.1,3.1,5.2c0.1,0.5,0.6,0.8,0.9,0.4c0.2-0.2,0.2-0.5,0-0.9c-2.1-4-2.3-11.7,2.3-14.4c0.3-0.2,0.5-0.4,0.7-0.7
		c1.8-2.5,3.9-2.9,6.3-1.2c0.3,0.2,0.6,0.3,0.9,0.2c1.1-0.2,0.9-0.5-0.4-1C85,73.4,85,73,86.7,72.7c2.3-0.5,3.7,0.4,4.2,2.6
		c0.1,0.5,1.1,1,2.4,1.3c0.1,0,0.3,0,0.3,0c0.2,0,0.1-0.3,0-0.4c-3.1-3.1-2.8-3.6,0.8-1.6c0.4,0.2,1.7,2.9,1.9,0.1
		c0-0.3-0.1-0.6-0.4-0.7l-3.5-1.7c-0.8-0.4,0-1.2,0.8-0.9l3.2,1c0.3,0.1,0.4,0,0.1-0.2c-1.1-1-2.4-1.7-3.9-2
		c-0.3-0.1-0.6,0.1-0.8,0.3c-0.5,0.7-1.3,1.3-2.2,1.1c-1.2-0.3-2.5-0.2-3.7,0.1c-0.3,0.1-0.6,0-0.7-0.3c-0.5-1.2,6.4-2.4,7.4-2.6
		c2.3,0.7,4.3,1.9,6.2,3.6c0.4,0.3,1,0.3,1.2-0.1c1-1.5,1.5-1,1.5,1.3c-8,6.1-15.8,12.5-23.4,19.1c-0.7,0.1-1.1,0.5-1.3,1.2
		c-4.5,1.2-3.6,8.7-2,11.8c-0.4,0.4-1,0.6-1.4,0c-2-3.1-2.1-6.3-0.5-9.8c1-0.7,1.1-1.2,0.2-1.8c-1.4-2.1-2.4-4.3-3-6.8
		c-0.4-2.6-0.2-5.2,0.5-7.8c2.6-6.2,7.2-10,13.7-11.5l0.8-0.3L88.5,67.5z M77.8,81.3c-1.1,2.5-1.1,4.9-0.2,7.2
		c0.2,0.4,0.4,3.8,1.3,1.5c0.1-0.3,0.1-0.6,0-0.9c-1-2.5-1.2-5.1-0.6-7.8c1.1-2.4,2.8-4.2,5.1-5.6c0.3-0.2,0.3-0.3-0.1-0.3
		c-1.8-0.1-2.9,0.6-3.4,2.3c-0.1,0.3-0.3,0.5-0.5,0.7C78.1,79,77.6,80,77.8,81.3z M83.2,86.3l7-5.8l2.3-1.8c0.4-0.3,0.4-0.8,0.1-1.2
		C87.1,74,79.4,77,79,84C78.8,89.3,80.2,90,83.2,86.3z M75.1,92c-1.2-0.7-1.9-1.6-2.3-2.9c0-0.2-0.2-0.3-0.3-0.3
		c-0.4-0.1-0.6,0.3-0.4,0.6l2,3.8c0.1,0.3,0.5,0.4,0.8,0.2C75.8,93.1,75.9,92.4,75.1,92z"/>
	<path class="st17" d="M31.4,69.5c0.4,0.7,0.5,3.6-0.9,3.5c-0.3,0-0.3-0.4-0.2-0.6c0.4-0.8,0.5-1.6,0.2-2.4
		c-0.1-0.3-0.1-0.6,0.1-0.8c0.4-0.5,0.9-1.6,1.4-1c0.3,0.4,0.2,0.7-0.3,0.9C31.3,69,31.2,69.3,31.4,69.5z"/>
	<path class="st8" d="M84.5,68.3c-6.5,1.4-11.1,5.3-13.7,11.5l-0.1-0.5c1.3-3.4,3.3-6.2,6.2-8.3c0.3-0.3,0.4-0.6,0.1-0.9
		c0.8,0.2,1.4,0,1.8-0.5c0.2-0.2,0.5-0.4,0.8-0.4c0.8,0,1.4-0.3,1.9-0.9c0.2-0.2,0.4-0.3,0.7-0.3L84.5,68.3z"/>
	<path class="st7" d="M27.2,80c-0.4,0.7-0.9,1.1-1.7,1.2C25.4,80.1,24.1,67,26.2,68c0.3,0.1,0.4,0.4,0.4,0.8
		C26.8,70.2,26.5,80,27.2,80z"/>
	<path class="st15" d="M90.8,68l2,1c-1,0.2-7.9,1.4-7.4,2.6c0.1,0.2,0.4,0.4,0.7,0.3c1.2-0.3,2.5-0.4,3.7-0.1
		c0.9,0.2,1.7-0.4,2.2-1.1c0.2-0.3,0.5-0.4,0.8-0.3c1.5,0.3,2.8,1,3.9,2c0.2,0.2,0.2,0.3-0.1,0.2l-3.2-1c-0.4-0.1-0.7-0.1-0.9,0.1
		c-0.3,0.2-0.3,0.6,0.1,0.8l3.5,1.7c0.3,0.1,0.4,0.4,0.4,0.7c-0.3,2.8-1.6,0.1-1.9-0.1c-3.6-2-3.9-1.5-0.8,1.6
		c0.1,0.1,0.2,0.3,0,0.4c-0.1,0-0.2,0-0.3,0c-1.3-0.3-2.3-0.9-2.4-1.3c-0.5-2.2-1.9-3.1-4.2-2.6c-1.7,0.4-1.7,0.8-0.2,1.2
		c1.3,0.4,1.5,0.7,0.4,1c-0.3,0.1-0.6,0-0.9-0.2c-2.4-1.7-4.6-1.3-6.3,1.2c-0.2,0.3-0.4,0.5-0.7,0.7C74.4,79.3,74.6,87,76.7,91
		c0.6,0.9-0.7,1.6-0.9,0.5c-0.5-2.1-1.6-3.8-3.1-5.2l0.3-0.8c1.9,1.5,0.8-4.5,0.5-5.3L72.7,79c0.2-0.7,2.6-5.5,3.2-4.7
		c0.1,0.1,0.1,0.3,0,0.4c-0.9,1.4-1.4,2.9-1.5,4.5c0,0.4,0.1,0.4,0.4,0.2c0.8-0.6,4-4.7,2-5.4c-0.2-0.1-0.3-0.3-0.1-0.5
		c1.4-1.5,3-2.6,4.8-3.4c0.5-0.2,1-0.1,1.2,0.3c0.1,0.2-0.1,0.4-0.3,0.4c-1.7,0.3-2.8,1.3-3.3,2.9c-0.1,0.3,0,0.4,0.3,0.2l3.7-2
		c0.3-0.1,0.5-0.4,0.7-0.7c1-2,2.8-2.8,5.4-2.6L90.8,68z"/>
	<path class="st9" d="M72.3,68.2l2.2,1.8v0.5l-1,1.8c-2.3,2.4-3.8,5.2-4.5,8.5l-1.5-0.2l0.3-3.2c0.4,0.7,0.7,0.6,0.8-0.2
		C69.2,73.8,70.4,70.9,72.3,68.2z"/>
	<path class="st20" d="M45,68.7c1.8,1.2,3.2,2.8,4.3,4.8c0.1,0.3,0.1,0.6-0.1,0.8c-7.3,6.2-14.6,12.3-21.9,18.2
		c-0.7,0.6-0.8,1.1-0.6,1.9c-0.6,1.6-0.1,1.8,1.5,0.8c0.5-0.3,1.2-0.3,1.6,0.2c2.3,2.3,5.3,3.5,9.2,3.4c0.6,0,0.8,0.4,0.6,1
		c-0.9-0.3-1.5,0-1.7,1c-1.3,0.3-1.9,1.1-2,2.3c0,0.3,0.1,0.5,0.4,0.8l3.1,2.7l-0.3,1.2c-3.2-2.1-7-5.9-11-4.1
		c-0.8,0.3-1.1,1.2,0.1,1.3c-1-0.1-1.6,0.3-1.8,1.3h-1V81.1c0.8-0.1,1.3-0.5,1.7-1.2h0.2c-1,1.2-0.9,2.2,0.3,3
		c-1.1,0.7-1.3,1.1-0.9,1.3c0.3,0.1,0.6,0,0.9-0.2c1.8-1.5,17.6-13.9,17-14.9L45,68.7z M45.9,75c1.7-3.1,0.9-3.9-2.5-2.4
		C41.9,73.5,44.9,76.7,45.9,75z M42,76.2c-1.8,0.8-6.5,0-3.2,3.4C40.6,81,41.6,78.1,42,76.2c1.9-0.5,2.2-1,0.8-1.3
		C42.1,74.8,42.1,75.8,42,76.2z M37.1,79.1c-2,0.8,1.9,3.8,0.6,0.3C37.6,79.1,37.4,79,37.1,79.1z M33.8,85.1c0.3,0.1,0.6,0,0.8-0.2
		c2.3-3.3,1.7-4.2-2.1-2.7c-0.3,0.1-0.5,0.4-0.5,0.7C32,83.9,32.6,84.6,33.8,85.1z M31.1,85c0.7,2.9,1.7-1.3,0.3-0.8
		C31.2,84.3,31,84.7,31.1,85z M29.1,89.3c4.3-5.7-5.8-3-1.4,0.2C28.2,89.8,28.8,89.7,29.1,89.3z"/>
	<path class="st18" d="M44.8,69.2c0.6,1-15.2,13.4-17,14.9c-0.3,0.2-0.6,0.3-0.9,0.2c-0.5-0.2-0.2-0.6,0.9-1.3L44.8,69.2z"/>
	<path class="st2" d="M60.5,71.8l-0.2,1.4L59,73.5l-2.5-0.2c-0.7-0.3-1-1-0.2-1.5c0.6-0.4,1.1-1,1.3-1.9L60.5,71.8z"/>
	<path class="st16" d="M74.5,70h0.8c0.5,0.4,1,0.3,1.8,0c0.1,0.1,0.1,0.2,0.2,0.3c0,0.2-0.1,0.4-0.3,0.6c-2.9,2.2-4.9,5-6.2,8.3
		c-0.2,1.1-0.7,1.6-1.7,1.5c0.8-3.2,2.3-6,4.5-8.5c1.3-0.2,1.6-0.8,1-1.8L74.5,70z"/>
	<path class="st2" d="M35.5,72.5l-2,2c-0.4-0.1-0.5-0.4-0.3-0.9l1-2.7c0.1-0.4,0.3-0.4,0.5-0.1L35.5,72.5z"/>
	<path class="st20" d="M74.5,70.5c0.6,0.9,0.3,1.5-1,1.8L74.5,70.5z"/>
	<path class="st2" d="M45.9,75c-1.1,1.7-4-1.6-2.5-2.4C46.8,71.1,47.6,71.9,45.9,75z"/>
	<path class="st10" d="M51.2,72.7l0.6,0.8c-1,1.6-2.4,2.7-4,3.5l2.8-2.5c0.6-0.5,0.5-0.9,0.5-1.5L51.2,72.7z"/>
	<path class="st17" d="M59,73.5c0.2,1.3-0.3,1.8-1.5,1.5l-1-1.7L59,73.5z"/>
	<path class="st12" d="M53,73.2V74c-0.4,0.7-0.3,1.3,0.2,1.8L52.8,76c-0.9-0.7-1.6-0.2-1.1,0.7c2.2,4.7,1.9,9.1-0.9,13.3
		c-0.7,1-1.9,1.3-2.7,0.4l3-3.1c0.2-0.2,0.3-0.5,0.2-0.8c-0.3-1.3-0.1-2.5,0.5-3.7c0.2-0.3,0.2-0.6,0-0.9c-0.7-1.5-1-3-1-4.7
		c0-0.3-0.2-0.5-0.5-0.4c-2.5,0.5-0.4,2,0,3.3c1,3.8,0.1,7.1-2.7,10L45,91.8l-3.5,1.3c-0.3,0.1-0.4,0.3,0,0.5l1.3,0.9
		c-2.4,1.2-4.1,0.8-5-1.3c-0.1-0.3-0.4-0.6-0.6-0.7c-2.9-1.9-3-1.6-0.4,0.9c0.9,0.9,0.8,1.1-0.5,0.7S33.8,93,32.8,92
		c-0.3-0.3-0.6-0.4-0.8-0.2l-0.6,0.6c-0.5-0.3-0.7-0.7-0.4-1.2l16.8-14c1.7-0.7,3-1.9,4-3.5L53,73.2z M45.2,81.3
		c-2.6,1.6-4.9,3.5-7,5.8c-6.8,3.5,1,4.4,3,4.1c6.7-0.9,9.2-4.9,7.6-11.9c-0.1-0.3-0.3-0.4-0.6-0.3C46.8,79.5,45.8,80.3,45.2,81.3z"
		/>
	<path class="st9" d="M60.2,73.2l-0.1,7c0,0.3-0.2,0.6-0.5,0.6c-1.2,0.2-0.5-1.2-1-1.7c-0.8-1.2-1.2-2.6-1.2-4.1
		c1.2,0.3,1.6-0.2,1.5-1.5L60.2,73.2z"/>
	<path class="st17" d="M101.6,73.7C94.5,80.5,87.1,86.9,79.4,93c-0.5,0.4-0.6,1.2-0.1,1.7l4.4,4.8l0.6,1c-0.8,1-4.6-4.3-5.2-4.9
		c-1.4-1-1.6-1.9-0.8-2.8C85.8,86.2,93.6,79.8,101.6,73.7z"/>
	<path class="st14" d="M53,74c2.8,0.3,3.7,5.4,3.5,7.3L56.2,81c-0.1-2.3-1-4-2.9-5.2C52.7,75.3,52.6,74.7,53,74z"/>
	<path class="st18" d="M42,76.2c0.1-0.4,0.1-1.5,0.8-1.3C44.2,75.3,44,75.7,42,76.2z"/>
	<path class="st14" d="M78.2,81.2h-0.5c-0.2-1.3,0.3-2.3,1.5-2.9c0.3-0.2,0.5-0.4,0.5-0.7c0.5-1.6,1.6-2.4,3.4-2.3
		c0.3,0,0.4,0.1,0.1,0.3C81,77,79.3,78.9,78.2,81.2z"/>
	<path class="st15" d="M52.8,76c0.3,2.1,1.3,3.7,2.9,5c0.1,0.2,0.4,0,0.6-0.1l0.3,0.3c1,1.6,0.9,3-0.4,4.3c0.1-1.1-0.5-4.7-1.8-4
		c-0.2,0.1-0.2,0.5-0.2,0.9c0.2,0.9,0.2,1.9,0,2.8c-0.1,0.4,0,0.7,0.1,0.9l1.3,1.9c0.2,0.3,0.2,0.6,0.1,0.8l-3,4.8
		c-0.2,0.3-0.8,0.4-0.5-0.2c0.7-1.6,2.3-3.5,1.8-5.3c0-0.2-0.2-0.3-0.4-0.2c-1.8,1.6-2.6,3.7-2.4,6c0,0.3-0.1,0.6-0.3,0.8
		c-1.1,1-2.3,1.7-3.7,2.1l-0.5-0.2c1.3-0.8,2.4-1.9,3.1-3.2c0.1-0.1,0.1-0.3,0-0.3L49.7,93c-0.3,0-0.5,0-0.7,0.2
		c-1,0.7-5,2.3-4.7,3.8c-1.1,1.5-2.3,1.6-3.4,0.3c2.7-1.5,1.5-2-3.6-1.3l-5.9-3.8l0.6-0.6c0.2-0.2,0.5,0,0.8,0.2
		c1,1,2.1,1.7,3.5,2.1c1.2,0.4,1.4,0.1,0.5-0.7c-2.6-2.5-2.5-2.8,0.4-0.9c0.3,0.2,0.5,0.4,0.6,0.7c1,2.1,2.7,2.6,5,1.3l0.7-0.5
		c1.7,0.2,3.2-0.2,4.4-1.4c0.8-0.8-1.7-0.7-2.2-0.6l-0.7,0l2.5-1.6l0.5,0.3c0.9,0.9,2.1,0.6,2.7-0.4c2.8-4.2,3.1-8.7,0.9-13.3
		C51.1,75.8,51.9,75.4,52.8,76z"/>
	<path class="st19" d="M53.3,75.7c1.9,1.2,2.8,3,2.9,5.2L56,81.1c-0.1,0.1-0.3,0-0.4,0c-1.6-1.3-2.5-2.9-2.9-5L53.3,75.7z"/>
	<path class="st20" d="M90.2,80.5c-4-2.1-8.2,1.4-7,5.8c-3.1,3.7-4.4,3-4.1-2.3c0.4-6.9,7.7-9.8,13.3-6.7c0.5,0.3,0.6,1,0.1,1.4
		C92.6,78.7,90.2,80.5,90.2,80.5z"/>
	<path class="st2" d="M42,76.2c-0.4,1.8-1.4,4.8-3.2,3.4C35.5,76.3,40.2,77,42,76.2z"/>
	<path class="st23" d="M48,90.5l-0.5-0.3c2.7-2.9,3.6-6.3,2.7-10c-0.3-1.3-2.5-2.8,0-3.3c0.2,0,0.4,0.1,0.5,0.3c0,1.7,0.3,3.3,1,4.8
		c0.1,0.3,0.1,0.6,0,0.9c-0.6,1.1-0.8,2.3-0.5,3.7c0.1,0.3,0,0.6-0.2,0.8L48,90.5z"/>
	<path class="st2" d="M99.5,78.1c0.3-0.4,0.9-0.4,1.2,0c1.7,2.1,1.2,3.2-1.6,3.3C97.6,81.2,98.4,79.3,99.5,78.1z"/>
	<path class="st20" d="M38.2,87.1c5.1,1.2,7.5-0.8,7-5.8c0.7-1,1.7-1.8,3-2.3c0.2-0.1,0.5,0.1,0.6,0.3c1.6,7-0.9,11-7.6,11.9
		C39.1,91.5,31.4,90.6,38.2,87.1z"/>
	<path class="st17" d="M37.1,79.1c0.2-0.1,0.5,0,0.6,0.3C39,82.9,35.2,79.9,37.1,79.1z"/>
	<path class="st23" d="M72.7,79l0.8,1.2c-1.3,1.6-1.5,3.4-0.5,5.3l-0.3,0.8C70,86.1,72,80.3,72.7,79z"/>
	<path class="st13" d="M70.7,79.2l0.1,0.5c-0.8,2.5-1,5.1-0.5,7.8l-2-0.5l-1,0.5l-1-0.5c-1.1,0-1.5-0.4-1.2-1.2c2-0.9,2-2.1-0.1-3.6
		l1-1.5c0.6,0.4,1.1,0.3,1.5-0.3l1.5,0.2C70,80.8,70.6,80.3,70.7,79.2z"/>
	<path class="st9" d="M90.2,80.5l-7,5.8C82,81.9,86.3,78.4,90.2,80.5z"/>
	<path class="st19" d="M73.5,80.2c0.4,0.8,1.4,6.8-0.5,5.3C72,83.6,72.2,81.8,73.5,80.2z"/>
	<path class="st9" d="M45.2,81.3c0.5,5-1.8,7-7,5.8C40.3,84.9,42.6,82.9,45.2,81.3z"/>
	<path class="st23" d="M77.8,81.3h0.5c-0.6,2.7-0.4,5.3,0.6,7.8c0.1,0.3,0.1,0.7,0,0.9c-0.9,2.3-1.1-1.1-1.3-1.5
		C76.6,86.1,76.7,83.7,77.8,81.3z"/>
	<path class="st2" d="M33.8,85.1c-1.1-0.5-1.7-1.2-1.8-2.2c0-0.3,0.2-0.6,0.5-0.7c3.7-1.5,4.4-0.6,2.1,2.7
		C34.4,85.1,34,85.2,33.8,85.1z"/>
	<path class="st12" d="M56.1,85.6c0.5,1.1,0.8,2.3,0.8,3.6c-1.9,3.8-4.8,6.7-8.5,8.6c-0.6,0.3-2,0.5-1.4-0.8
		c1.4-0.4,2.6-1.1,3.7-2.1c0.2-0.2,0.3-0.5,0.3-0.8c-0.1-2.3,0.6-4.3,2.3-5.9c0.1-0.1,0.3-0.1,0.4,0c0.8,1.8-1,3.8-1.7,5.5
		c-0.3,0.5,0.4,0.5,0.5,0.2l3-4.8c0.1-0.2,0.1-0.6-0.1-0.8l-1.3-1.9c-0.1-0.4-0.1-0.8,0-1.1c0.2-0.9,0.3-1.9,0-2.8
		c-0.1-0.4,0-0.8,0.2-0.9C55.6,80.9,56.3,84.5,56.1,85.6z"/>
	<path class="st18" d="M97.1,83c-0.1,0.2-0.3,0.3-0.5,0.2c-0.3,0-0.4-0.3-0.4-0.7c0.1-1.3,0.4-1.4,0.9-0.5
		C97.3,82.4,97.3,82.8,97.1,83z"/>
	<path class="st12" d="M65,82.2c2.1,1.5,2.1,2.7,0.1,3.6c-2.1,0.5-3.1-0.3-2.9-2.2C62.3,82.4,63.8,82,65,82.2z"/>
	<path class="st2" d="M96.3,84c0.5,0.3,0.2,1-0.3,1.2c-4.2,1.8-4.9,1-2.3-2.4c0.7-0.8,1.5-0.1,1.9,0.7C95.7,83.6,95.9,83.8,96.3,84z
		"/>
	<path class="st18" d="M100.5,84.5L83.9,97.7l16.7-14.5c0.2-0.2,0.6-0.2,0.7,0.1C101.5,83.8,101.2,84.2,100.5,84.5z"/>
	<path class="st18" d="M31.4,84.2c1.4-0.5,0.3,3.7-0.3,0.8C31,84.7,31.2,84.3,31.4,84.2z"/>
	<path class="st22" d="M100.5,84.5c1.8,0.4,1.9,1.3,0.5,2.5l-0.3,0.7l-7.2,6.4c-1.3,0.2-2.2,0.9-2.5,2.2L89,98
		c-1.2,0.3-2,1.1-2.5,2.2l-1.3,0.8l-1-0.5l-0.6-1l0.2-1.8L100.5,84.5z"/>
	<path class="st7" d="M102.5,86l0.2,13.2c0,0.7-0.5,0.7-1,0.7c-0.3-0.1-0.4-0.4-0.4-0.7c-0.1-3.1,0.2-11.4-0.5-11.5L101,87
		C101.8,87.1,102.3,86.8,102.5,86z"/>
	<path class="st2" d="M29.1,89.3c-0.3,0.4-0.9,0.5-1.4,0.2C23.3,86.3,33.4,83.6,29.1,89.3z"/>
	<path class="st12" d="M65,88.7c-0.3,5.5-1.7,11.8-4.2,16.8c-0.2,0.3-0.5,0.6-0.7,0.6l-3,0.2c-0.4,0-0.5-0.1-0.2-0.5
		c3.7-5.4,5.7-11.4,6.1-17.8c0-0.3,0.2-0.6,0.4-0.8C64.6,86.2,65.1,86.7,65,88.7z"/>
	<path class="st18" d="M91.1,86.8c1.1,0.4,0.7,1.6-0.4,1.2S90,86.4,91.1,86.8z"/>
	<path class="st6" d="M58,87c0.8,0.1,1.3,0.3,1,1.2L57.9,91c-4.5,7.4-11.2,10.7-20,10c0.3-1,0.9-1.3,1.7-1c8.3,0.4,14-3.1,17.3-10.5
		C57.8,88.9,58.2,88,58,87z"/>
	<path class="st11" d="M61.6,87.4c0.8,3.2-1,9.7-3.1,12.2c-0.2,0.3-0.4,0.6-0.4,0.9c-0.5,2.2-1.6,4-3.2,5.6
		c-0.2,0.2-0.6,0.3-0.8,0.1c-0.7-0.5-0.5-0.9,0.5-1.4c0.3-0.1,0.5-0.4,0.6-0.6l2.8-5.8c0.1-0.3,0.2-0.6,0.1-0.9
		c-0.1-0.2-0.1-0.5,0-0.7c1.7-2.7,2.6-5.6,2.7-8.8c0-0.5,0.2-0.6,0.5-0.6C61.5,87.1,61.6,87.2,61.6,87.4z"/>
	<path class="st11" d="M66.2,87l1,0.5c-0.4,4.8-1,11.8-3.1,16.1c-0.1,0.3-0.2,0.6-0.1,0.9c0.3,1.2,0.2,1.8-0.3,1.9
		c-0.7,0-1.3-0.5-1.3-1.2C64.2,98.8,65.7,92.6,66.2,87z"/>
	<path class="st9" d="M68.2,87l2,0.5l0.2,5c-0.7-0.1-1.1,0.2-1.2,1c0,0.2-0.2,0.4-0.5,0.5L68,94.2L68.2,87z"/>
	<path class="st2" d="M90.6,89.2c0.2,0.3,0.1,0.8-0.3,1c-4.1,1.7-4.9,0.8-2.3-2.5C88.9,86.8,89.8,88.2,90.6,89.2z"/>
	<path class="st5" d="M70.2,87.5c0.6,2.4,1.7,4.7,3,6.8L73,94.7c-1.1-0.4-2-1.2-2.6-2.2L70.2,87.5z"/>
	<path class="st15" d="M75.7,92.7c0,0.3-0.3,0.6-0.7,0.7c-0.3,0.1-0.6,0-0.8-0.2l-2-3.8c-0.2-0.3,0-0.7,0.4-0.6
		c0.1,0,0.2,0.1,0.3,0.3c0.4,1.3,1.2,2.3,2.3,2.9C75.5,92.2,75.7,92.4,75.7,92.7z"/>
	<path class="st10" d="M57,89.2l0.1,0.2c-3.3,7.4-9,10.8-17.3,10.5c0.1-0.7-0.1-1-0.6-1c-0.6-1.2-1.6-1.7-3.1-1.7l0.8-0.7h0.2
		l3.9,0.8c1.1,1.3,2.3,1.2,3.4-0.3l2.2-0.2L47,97c-0.6,1.3,0.8,1.1,1.4,0.8C52.2,95.9,55,93,57,89.2z"/>
	<path class="st9" d="M56,99.2c-0.2-0.5-0.6-0.7-1.1-0.6c-0.3,0-0.5-0.1-0.6-0.4c-0.4-1.6-0.9-1.7-1.4-0.3c-0.2,0.6-1.1,0.7-1.6,0.9
		c-0.2,0.1-0.4,0.4-0.3,0.6c0.6,1.2,1.4,2,2.6,2.4c-0.7,2-3,3.5-3,5.5h-8.5c-0.5,0-0.8,0.4-1,0.8c-0.7-0.3-1.3-0.8-1.7-1.5l-3.1-2.7
		c-0.3-0.2-0.4-0.5-0.4-0.8c0.1-1.2,0.8-2,2-2.3c8.8,0.8,15.5-2.6,20-10C61.1,89.7,56.7,98.5,56,99.2z M47.2,103.1
		c-0.4,0.1-0.6,0.4-0.8,0.7c-0.1,0.2,0,0.6,0.2,0.8l1.8,1.6c0.2,0.2,0.5,0.2,0.7,0l1.8-1.4c0.3-0.2,0.4-0.5,0.3-0.8
		c-0.2-0.9-1.2-0.8-1.5-1.5c-0.5-1.3-1.1-1.3-1.7,0C47.8,102.7,47.5,102.9,47.2,103.1z M39.6,103.1c-0.2,0-0.4,0.2-0.5,0.4
		c-0.1,0.3,0,0.6,0.2,0.9c1.6,2.3,3.1,2.2,4.5-0.3c0.1-0.2,0.1-0.5-0.2-0.7l-1.9-1.5c-0.5-0.4-1,0.5-1.2,0.8
		C40.3,103,40,103.1,39.6,103.1z"/>
	<path class="st24" d="M97,101.7c-0.7-0.8-1-1.7-0.8-2.7c1.2-0.4,1.7-1,1.3-2c-0.1-0.4-0.2-0.7,0-0.9l0.8-1.1c0.2-0.3,0-0.5-0.3-0.5
		c-0.5,0-1.3,1.4-1.6,1.8c-0.1,0.2-0.1,0.5,0.1,0.6c0.7,0.6,0.4,1.2-0.8,1.9C93.8,100.5,94.2,101.5,97,101.7c0,0.5-0.2,0.9-0.6,0.9
		c-2.6,0.6-4.3,2.2-5,4.8c-0.9-0.5-1.4-0.4-1.7,0.2c-0.4,0.9,1.2,0.4,1.5,0.1l1.7,3.9c0.1,0.3,0.1,0.6-0.1,0.8
		c-0.9,0.6-2.1,1.3-3.2,0.8c-7.8-4.9,3.2-7.3,1-9.2c-0.2-0.2-0.5-0.3-0.9-0.3c-1.7,0-3.2,0.3-4.7,1c-0.9,0.4-1.2,0.2-0.8-0.6
		c1-1.9,2.6-2.9,5-3.2c0.2,0,0.4-0.3,0.3-0.5c-0.9-1.7-1.9-1.8-3-0.3c0.4-1.2,1.2-1.9,2.5-2.2c0.7,1.6,1.8,2.8,3.4,3.8
		c1.2,0.8,3,0.2,0.9-1.2c-0.3-0.2-0.4-0.5-0.4-0.8c-0.1-1.2-0.1-5.3-1.8-3.6c0.4-1.3,1.2-2,2.5-2.2c-0.8,0.8-0.9,1.6-0.4,2.3
		c0.8,0.8,1.9-1.7,2.1-2.3c0.1-0.4,0.3-0.7,0.5-0.7c0.4-0.1,1.1-0.2,1.1-0.6c0.3-0.9,0.9-1.5,1.8-1.8s1.2,0,0.8,0.9
		C98.1,95.5,100.3,98.1,97,101.7z M88.1,110.2c0.1,0.1,0.2,0.3,0.4,0.3c0.4,0.2,0.5,0.1,0.5-0.4c-0.1-0.8-0.3-1-0.7-0.7
		C88,109.7,87.9,110,88.1,110.2z M91.5,111.4c-0.5-0.5-1-0.5-1.6,0c-0.2,0.2-0.3,0.5-0.1,0.8c0.6,0.9,1.2,0.9,1.8,0.1
		C91.7,112,91.7,111.6,91.5,111.4z"/>
	<path class="st11" d="M31,91c-0.3,0.5-0.1,0.9,0.4,1.2l5.9,3.8L37,96.5h-0.2l-3.7-0.9c-0.4-0.1-0.5,0-0.2,0.3
		c0.8,0.9,1.9,1.3,3.1,1.3c1.5,0,2.5,0.5,3.1,1.7c-3.8,0-6.9-1.1-9.2-3.4c-0.4-0.4-1.1-0.5-1.6-0.2c-1.6,1-2.1,0.8-1.5-0.8L31,91z"
		/>
	<path class="st18" d="M85.8,91.8c0.8,0.4,0.8,0.8,0,1c-0.6,0.2-1-0.3-0.8-0.8C85.1,91.7,85.5,91.6,85.8,91.8z"/>
	<path class="st23" d="M45,91.8l0.8,0.2c-1.3,0.2-2.1,0.8-2.2,1.9l-0.7,0.5l-1.3-0.9c-0.3-0.2-0.3-0.4,0-0.5L45,91.8z"/>
	<path class="st19" d="M45.8,92c0.4-0.1,3-0.2,2.2,0.6c-1.2,1.1-2.7,1.6-4.4,1.4C43.7,92.8,44.4,92.2,45.8,92z"/>
	<path class="st2" d="M82.6,92.3c0.2-0.3,0.7-0.4,1-0.2c3,2.3,2.4,3.4-1.8,3.5C80.6,95.5,82.1,93.2,82.6,92.3z"/>
	<path class="st2" d="M70.5,92.5c0.6,1.1,1.4,1.8,2.6,2.2l-0.5,0.7c-0.7,0.3-1.2,0.7-1.5,1.3c-0.6,1-2.2-0.4-2.7-1L68,94.2l0.7-0.2
		c0.3-0.1,0.5-0.3,0.5-0.5C69.3,92.7,69.7,92.4,70.5,92.5z"/>
	<path class="st13" d="M78.2,92.8c-0.8,0.9-0.5,1.8,0.8,2.8c-2.5,4-2,7.3,1.5,9.8c2.2,13.8-9.6,19.8-11.1,32.6
		c-1.9-4.9,4.1-13.6,7.6-18.8c1.5-2.2,4.6-9.7,2.8-11.7c-0.1-0.2-0.5,0-0.7,0.2l-1,1.3l-0.3-0.5l-0.2-0.8l-0.5-1.3
		c-2.9-3.7-3.1-7.3-0.5-11c0.4-0.5,0.3-0.9,0.2-1.4C77.2,93.3,77.6,92.9,78.2,92.8z"/>
	<path class="st19" d="M46.5,96.8L44.3,97c-0.4-1.6,3.7-3.1,4.7-3.8c0.3-0.2,0.6-0.2,0.7,0c0.1,0.1,0,0.2,0,0.3
		C48.9,94.9,47.8,96,46.5,96.8z"/>
	<path class="st18" d="M77,94c0.1,0.5,0.1,0.9-0.3,1.4c-2.6,3.7-2.4,7.4,0.5,11c-0.9,0.2-1.7-0.1-2.3-0.7
		C73.3,102.7,72.5,95.2,77,94z"/>
	<path class="st10" d="M73.3,94.2c0.9,0.5,0.8,1.1-0.2,1.8l-0.5-0.5l0.5-0.7L73.3,94.2z"/>
	<path class="st18" d="M96.2,99l-0.5-0.3c1.2-0.7,1.5-1.3,0.8-1.9c-0.2-0.2-0.2-0.4-0.1-0.6c0.3-0.4,1.1-1.8,1.6-1.8
		c0.3,0,0.5,0.2,0.3,0.5L97.5,96c-0.1,0.2-0.1,0.5,0,0.9C97.9,98,97.5,98.7,96.2,99z"/>
	<path class="st14" d="M36.8,96.5L36,97.2c-1.3,0-2.3-0.4-3.1-1.3c-0.3-0.3-0.2-0.4,0.2-0.3L36.8,96.5z"/>
	<path class="st9" d="M72.5,95.5L73,96c-1.7,3.4-1.5,6.7,0.5,9.8c0.4,0.6,1,0.4,1.4,0c0.6,0.7,1.4,0.9,2.3,0.7l0.5,1.3L65,107.5
		c-0.1-1.2,0.2-2.3,1-3.2c0.9,0.4,1.7,1,2.3,1.9c0.1,0.2,0.4,0.3,0.6,0.2l2.3-1.7c0.2-0.1,0.2-0.4,0-0.6l-1.5-1.8
		c-0.2-0.3-0.5-0.4-0.7-0.4c-0.5,0-0.7,0.1-1.1,0.6c-0.3,0.6-0.9,1-1.7,1.1c0-2.7,0.7-5.3,2-7.7c0.5,0.6,2.1,2,2.7,1
		C71.3,96.2,71.8,95.7,72.5,95.5z"/>
	<path class="st20" d="M79.1,95.5c0.6,0.6,4.4,5.9,5.2,4.9l1,0.5l-4.6,4.3C77.1,102.8,76.6,99.6,79.1,95.5z"/>
	<path class="st12" d="M40.9,97.3L37,96.5l0.3-0.5C42.4,95.3,43.6,95.8,40.9,97.3z"/>
	<path class="st2" d="M89,98l2-1.8c1.7-1.8,1.8,2.4,1.8,3.6c0,0.3,0.2,0.6,0.4,0.8c2,1.4,0.3,2-0.9,1.2C90.8,100.8,89.7,99.6,89,98z
		"/>
	<path class="st2" d="M56,99.2l-2.3,2.8c-1.2-0.4-2.1-1.2-2.6-2.4c-0.1-0.3,0-0.6,0.2-0.7c0.5-0.2,1.4-0.3,1.6-0.9
		c0.6-1.4,1-1.3,1.4,0.3c0.1,0.2,0.3,0.4,0.6,0.4C55.5,98.6,55.8,98.8,56,99.2z"/>
	<path class="st2" d="M95.7,98.7l0.5,0.3c-0.2,1,0,1.9,0.8,2.7C94.2,101.5,93.8,100.5,95.7,98.7z"/>
	<path class="st2" d="M47.9,102.5c0.7-1.3,1.2-1.3,1.7,0c0.3,0.7,1.4,0.6,1.5,1.5c0.1,0.2,0,0.5-0.3,0.8l-1.8,1.4
		c-0.2,0.2-0.5,0.2-0.7,0l-1.8-1.6c-0.3-0.2-0.3-0.6-0.2-0.8C46.6,103.1,47.6,103.1,47.9,102.5z"/>
	<path class="st3" d="M104,111.3c-0.2,0.9,3.5,2.3,0.8,6c-1,1.4-2.3,1.7-3.8,1c-3.3-1.4-3.7-3.7-1.3-6.7c0.2-0.2,0.1-0.3-0.2-0.2
		c-3.6,1.4-5.7,0.2-6.3-3.5c-0.1-0.3,0-0.6,0.2-0.9c2.3-3.5,4.9-3.5,7.6,0c0.8,1.1,1,0.9,0.6-0.3l-1.7-4.6c-0.1-0.3,0-0.6,0.3-0.6
		h3.7c0.3,0,0.4,0.3,0.3,0.6c-0.2,0.4-2.3,5.1-1.2,4.8c0.2-0.1,0.5-0.3,0.7-0.6c2.9-4.8,10,0.2,6.1,4.4c-1.3,1.4-3,1.5-5.1,0.3
		C104.3,111.1,104,111.1,104,111.3z"/>
	<path class="st2" d="M40.4,102.8c0.3-0.3,0.7-1.2,1.2-0.8l1.9,1.4c0.2,0.2,0.3,0.5,0.2,0.7c-1.3,2.5-2.8,2.5-4.5,0.3
		c-0.2-0.3-0.3-0.6-0.2-0.9C39.2,102.9,40.2,103.2,40.4,102.8z"/>
	<path class="st2" d="M66,104.2l0.3-0.7c0.8-0.1,1.3-0.5,1.7-1.1c0.3-0.6,0.6-0.6,1.1-0.6c0.2,0,0.4,0.1,0.7,0.4l1.5,1.8
		c0.2,0.2,0.2,0.5,0,0.6l-2.3,1.7c-0.2,0.2-0.5,0.1-0.6-0.2C67.7,105.2,66.9,104.6,66,104.2z"/>
	<path class="st17" d="M39.2,108c1.4,1.2-0.4,1.3-1.1,0.6l-2.5-2.5c-0.1-0.1-0.3-0.1-0.3-0.1c-0.4,0.1-0.4,0.3-0.1,0.7
		c0.8,0.7,3,3.2,3.9,3.3c0.4,0,0.7,0.1,0.8,0.3c1.4,1.5,3.1,2.7,5,3.6l-0.5,1l-0.5-0.3l-4.3-3.6c-2.4-0.8,3.9,5.8,5.4,7.7l-0.3,0.3
		l-3-2.5c-2.5-1.4-2.5-3.7-3.8-5.5c-1.5-1.9-2.9-3.7-4.4-5.4c-0.7-1-3.1-1.6-3.7-1.5c-0.5,0.1-0.4,0.3,0.1,0.6
		c1.8,1,3.4,1.5,4.5,3.3c2.1,3.3,4.3,6.6,6.5,9.8l9,17.2c-0.1,0.7,0.2,1.2,0.8,1.5l0.5,0.2c-0.3,0.9,0,1.8,0.8,2.5l-0.3,0.8
		c-3.8-7-7.5-14-11.3-21.1c-2.6-4.9-6.7-11.8-12.2-13.7c-1.2-0.2-0.9-1-0.1-1.3C32.2,102.1,36,105.9,39.2,108z"/>
	<path class="st20" d="M41.8,116.5l-0.8,1.2c-2.2-3.2-4.4-6.5-6.5-9.8c-1.1-1.8-2.8-2.3-4.5-3.3c-0.5-0.3-0.5-0.5-0.1-0.6
		c0.6-0.1,3,0.5,3.7,1.5c1.4,1.7,2.9,3.5,4.4,5.4C39.3,112.8,39.2,115.1,41.8,116.5z"/>
	<path class="st13" d="M28.2,105.2c5.4,1.9,9.5,8.9,12.2,13.7c3.8,7,7.5,14,11.3,21.1l0.5,1.8c1.7,1.7,6.4,0.8,8.8,1h3l0.8-0.2
		c1,0.7,2,0.7,3,0c0.8,0.7,1.4,0.5,1.8-0.5c0,0.2,0,0.4,0,0.6c0.1,0.2,0.4,0.4,0.8,0.4c7.5,0,14.9,0,22.4,0c1.6,0,0.5,1.1-0.2,1.1
		c-21.9-0.3-43.9-0.4-65.8-0.1c-0.6,0-1-0.4-1-1v-3.2h0.9l0.1,2.8c0,0.3,0.3,0.5,0.6,0.5l4.3-0.2c0.3,0,0.5-0.2,0.6-0.5
		c1.1-7.1-0.5-13.5-4.9-19.2c-1-0.5-1-1.1-0.1-1.7h0.8c0.3,1.6,1.2,2.9,2.5,3.8c0.3,0.2,0.4,0.1,0.4-0.2c-0.1-1.5,0.5-2.2,1.8-2.1
		c0.6,0,0.6-1.1,0.8-1.6c0.7,0.1,2.7,0,2.3-1l-8.7-13.3l-0.3-0.5C26.6,105.5,27.2,105.1,28.2,105.2z M35.2,122l-0.8,0.4
		c-0.7,0.1-1.1,0.8-0.7,1.4l1.7,2.1l-0.2,1.2c-0.5,1.4-1.4,1.6-2.7,0.6c-1-0.8-1.3-0.6-1,0.5c1.2,4.6,1.5,9.1,1.1,13.6
		c-0.1,0.5,0.3,1,0.8,1.1h0.1l11.2-0.3l0.7-0.2c0.9,0.8,1.5,0.7,1.8-0.5c0.6,0.6,2.7,1,2.2-0.2L36.7,122
		C36.4,121.4,35.8,121.5,35.2,122z M32.6,125.3c-2.3,1.4,2.5,0.7,0.9-0.1C33.3,125.1,32.9,125.1,32.6,125.3z"/>
	<path class="st15" d="M39.2,108l0.3-1.2c0.4,0.7,0.9,1.2,1.7,1.5c0.7,1.4,8.6,0.9,10.3,0.8c1,0,0.6,1.1,0,1.4
		c-1.9,1.2-4.5,0-4.7,3.2h-0.5c-0.5-0.4-1-0.3-1.2,0.3c-1.9-0.9-3.6-2.1-5-3.6c-0.2-0.2-0.5-0.3-0.8-0.3c-0.9-0.1-3.1-2.6-3.9-3.3
		c-0.2-0.2-0.3-0.4-0.1-0.6l0.2-0.1c0.1-0.1,0.2,0,0.3,0.1l2.5,2.5C38.8,109.3,40.6,109.2,39.2,108z M41.1,109.7
		c-1.5-0.6-1.5-0.3,0.1,0.9c0.3,0.2,0.6,0.3,0.9,0.1C42.5,110.5,42.1,110.1,41.1,109.7z M48,110.5c0-1.3-2.6-1.3-3.1,0
		c-0.1,0.2,0,0.4,0.2,0.5h0.1h2.1C47.8,111,48,110.8,48,110.5z"/>
	<path class="st7" d="M25.5,106.5h1l0.3,0.5l0.2,14.5c-0.9,0.6-0.8,1.2,0.1,1.7l-0.7,16.6h-0.9c-0.7-6.8-0.4-14.3-0.5-20.3
		C25,115.1,25.1,110.8,25.5,106.5z"/>
	<path class="st2" d="M26.8,107l8.7,13.3c0.4,1-1.6,1-2.2,1l-5.5,0.2H27L26.8,107z"/>
	<path class="st9" d="M69.5,138l-0.1,4c-0.4,1-1,1.2-1.8,0.5v-0.8l0.2-11c1.3-4.8,3.2-9.4,5.6-13.8l4.8-8l1-1.3
		c0.2-0.3,0.5-0.4,0.7-0.2c1.7,2-1.4,9.5-2.8,11.7C73.6,124.4,67.6,133.1,69.5,138z"/>
	<path class="st19" d="M91.5,107.5l-0.2,0.3c-0.4,0.3-1.9,0.8-1.5-0.1C90,107.1,90.6,107,91.5,107.5z"/>
	<path class="st12" d="M50.8,107.5H65l12.7,0.3l0.2,0.8c-1.1,0.3-1.8,0.9-2,1.8c-0.1,0.3-0.3,0.6-0.6,0.6c-1,0.2-1.9,0.1-2.9-0.2
		l0.6-1c0.1-0.2,0-0.5-0.2-0.6c-1.9-0.7-3.4-0.3-4.1,1.2c-0.2,0.3-0.4,0.5-0.7,0.6c-2.5,0.5-3.2,0.1-2.2-1.1
		c0.2-0.2,0.1-0.5-0.1-0.6c-1.9-0.9-3.3-0.4-4.1,1.4c-0.1,0.3-0.4,0.4-0.7,0.3c-1.9-0.4-3.2,0.2-3.7,1.9c-0.1,0.3,0.1,0.5,0.4,0.5
		l2.6,0.2c0.3,0,0.5-0.2,0.6-0.4c0.5-1.7,1.8-2.4,3.7-2c0.2,0,0.4,0.3,0.3,0.5v0.1l-0.6,1.3c-0.1,0.2,0,0.5,0.3,0.5h2.8
		c0.3,0,0.6-0.2,0.7-0.5c0.8-1.3,2-1.9,3.8-1.8c0.3,0.6,0.2,1.1-0.2,1.4c-0.4,0.3-0.4,0.6,0.2,0.6c2.6,0.4,3,1.1,1.2,2.1l-11.3,0.2
		c-4.8-0.2-9.6-0.3-14.4-0.2c-0.9,0-2.1-0.4-1-1.5c0,0,4.3,0,4.6,0l2.6-0.2c0.3,0,0.5-0.2,0.6-0.5c0.2-0.6,0.5-1.1,1-1.5
		c0.2-0.2,0.5-0.2,0.9-0.2c1.3,0.2,2.4-0.3,3.1-1.4c0.2-0.2,0.1-0.5-0.2-0.6c-1-0.4-2.1-0.5-3.2-0.1c-0.3,0.1-0.5,0.3-0.6,0.7
		c-0.5,1.3-1.7,1.7-3.6,1.1v-0.5c0.6-0.3,1-1.5,0-1.4c-1.7,0.2-9.6,0.6-10.3-0.8c0.2-0.4,0.5-0.8,1-0.7
		C42.2,107.5,50.8,107.5,50.8,107.5z"/>
	<path class="st15" d="M78,108.5l0.3,0.5l-4.8,8l-1-0.3l0.5-1.4c1.7-1,1.3-1.7-1.2-2.1c-0.6-0.1-0.6-0.3-0.2-0.6
		c0.4-0.3,0.5-0.8,0.2-1.4l0.7-0.5c0.9,0.3,1.9,0.4,2.9,0.2c0.3-0.1,0.5-0.3,0.6-0.6C76.2,109.4,76.9,108.8,78,108.5z"/>
	<path class="st6" d="M41.1,109.7c1.1,0.5,1.4,0.8,1,1.1c-0.2,0.1-0.6,0.1-0.9-0.1C39.6,109.4,39.6,109,41.1,109.7z"/>
	<path class="st13" d="M50.8,113.7c-0.9-0.8-0.7-1.7,0.7-2.7c1.9,0.6,3.1,0.2,3.6-1.1c0.1-0.3,0.3-0.6,0.6-0.7
		c1.1-0.4,2.2-0.3,3.2,0.1c0.3,0.1,0.4,0.4,0.2,0.6c-0.7,1.1-1.8,1.6-3.1,1.4c-1.1-0.1-1.6,0.9-1.9,1.7c-0.1,0.3-0.3,0.4-0.6,0.5
		L50.8,113.7z"/>
	<path class="st13" d="M72.5,110.7l-0.7,0.5c-1.8-0.1-3,0.5-3.8,1.8c-0.2,0.3-0.4,0.5-0.7,0.5h-2.8c-0.2,0-0.4-0.3-0.3-0.5l0.6-1.3
		c0.1-0.2,0-0.5-0.2-0.6c-1.9-0.5-3.2,0.2-3.8,2c-0.1,0.3-0.3,0.5-0.6,0.5l-2.6-0.2c-0.3,0-0.4-0.3-0.4-0.5c0.5-1.7,1.8-2.3,3.7-1.9
		c0.3,0.1,0.5-0.1,0.7-0.3c0.8-1.8,2.2-2.2,4.1-1.4c0.2,0.1,0.3,0.4,0.1,0.6c-1,1.2-0.3,1.6,2.2,1.1c0.3-0.1,0.5-0.3,0.7-0.6
		c0.8-1.5,2.1-1.9,4-1.3c0.3,0.1,0.4,0.4,0.3,0.6C73,109.8,72.5,110.7,72.5,110.7z"/>
	<path class="st10" d="M88.2,109.5c0.3-0.3,0.6,0,0.7,0.7c0.1,0.4-0.1,0.6-0.5,0.4c-0.1-0.1-0.3-0.2-0.4-0.3
		C87.9,110,88,109.7,88.2,109.5z"/>
	<path class="st12" d="M44.9,110.5c0.5-1.3,3.2-1.3,3.1,0c0,0.3-0.3,0.5-0.6,0.5h-2.1C45,111,44.8,110.7,44.9,110.5z"/>
	<path class="st11" d="M51.5,110.5v0.5c-1.4,1-1.6,1.9-0.7,2.7h-4.1C47,110.5,49.6,111.7,51.5,110.5z"/>
	<path class="st8" d="M44,114.7c-1,1.1-0.6,1.9,1,2.3c1.2,1.3,1.2,1.8,0,1.8c-1.5-1.8-7.8-8.4-5.4-7.7C39.6,111.1,44,114.7,44,114.7
		z"/>
	<path class="st10" d="M91.6,112.2c-0.6,0.9-1.2,0.9-1.8-0.1c-0.2-0.2-0.1-0.6,0.1-0.8C90.6,110.6,92.1,111.2,91.6,112.2z"/>
	<path class="st13" d="M46.2,113.7c-1.1,1.1,0.1,1.6,1,1.5c4.8-0.1,9.6,0,14.4,0.2c3.4,1.6,7,2,10.8,1.3l1,0.3
		c-2.4,4.4-4.2,9-5.6,13.8l-0.9-1.2c-0.1-11.7-7.4-18-16.8-7.9c-0.2,0.2-0.3,0.6-0.2,0.9l2.5,7.7c0.1,0.4,0.5,0.6,0.9,0.6
		c1.3,1,2.2,0.7,2.8-1c1.3,0.9,1.8,0.4,1.3-1.4c0-0.2,0-0.2,0.2-0.1c2.7,1.7,2.9,3.3,0.6,4.8c-0.2,0.1-0.5,0.1-0.7-0.2
		c-1.4-1.9-2.4,0.9-3.9-0.2c-0.7-0.5-0.9-0.3-0.6,0.4c0.3,0.7,0.7,1.1,1.3,1.3c0.7,0.2,0.8-0.9,1.3-1.2c0.2-0.2,0.5-0.2,0.8,0
		c0.8,0.5,1.6,0.8,2.6,0.8c0.4,0,0.7,0.2,0.7,0.4c0.3,0.8-2,0.8-2.5,0.9c-1.3-0.3-1.9,0.3-1.8,1.7c-1.3,0.4-1.4,1-0.2,1.8l0.5,0.5
		l0.2,0.7h-1.2l-1.2-0.3v-0.4c0.5-0.4,0.3-0.8-0.2-1.3c-0.5-0.4-0.4-0.9,0.1-1.4c0.7-0.7-1.2-0.1-1.4,0.1c0.4-0.8,0.9-1.9,0.3-2.7
		c-1.2-1.4-2.4-2.7-3.7-3.8c-0.8-0.7-0.9-0.6-0.2,0.2c1.5,1.9,2,3.2,1.5,3.9L50,135l-9-17.2l1.4,0.3c0.6,2.3,1.8,4.2,3.7,5.7L46,124
		c-2.3,0.1,5.9,9.1,6,7.8c0-0.1-0.1-0.4-0.2-0.6c-0.4-0.5-0.6-1.2-0.5-2l-0.5-0.8c0-1-0.4-1.8-1.2-2.5c-0.4-0.3-0.2-0.7,0-1
		c0.1-0.3,0-0.6-0.2-0.7c-0.8-0.6-1-1.4-0.7-2.3c0.1-0.3,0-0.6-0.2-0.8l-1.6-1.5c-0.2-0.2-0.3-0.5-0.2-0.9c0.1-1.1-0.4-1.7-1.6-1.8
		c-0.4-0.7-0.5-1.3-0.5-2C44.9,114.4,45.2,112.9,46.2,113.7z M51.8,119.1c0.5-0.2,1.4-1.2,0.5-1.4h-3.9c-0.3,0-0.5,0.2-0.4,0.5
		c0.4,2.8,1.4,3.3,3.1,1.4C51.2,119.5,51.4,119.3,51.8,119.1z"/>
	<path class="st16" d="M44,114.7l0.5,0.3c0,0.6,0.1,1.3,0.5,2C43.3,116.6,43,115.8,44,114.7z"/>
	<path class="st23" d="M73,115.3l-0.5,1.4c-3.8,0.8-7.4,0.4-10.8-1.3L73,115.3z"/>
	<path class="st21" d="M41.8,116.5l3,2.5c0.7,1,1.6,1.7,2.7,2.2c0.2,0.1,0.3,0.4,0.2,0.6c-0.3,0.8-0.1,1.5,0.8,2
		c0.3,0.2,0.5,0.5,0.5,0.7c0,1.1-1-0.4-1.5-0.5c-0.4-0.1-0.5,0-0.1,0.5l3.4,3.8l0.5,0.8c-2.1,1.4-4.4-3.8-5.3-5.2l0.1-0.2
		c2.2,0.5-3.4-5.4-3.7-5.7l-1.4-0.3L41.8,116.5z"/>
	<path class="st2" d="M67,129.5c-0.4,0.5-0.9,0.5-1.5,0c-0.3-0.5-1.8-1.9-1.7-2.5c0.2-3.5-6.4-2.9-4.7,0.4c0.2,0.3,0.3,0.4,0.5,0
		c0.3-0.4-0.4-0.8,0-1.1c2.3-1.3,3.3-0.6,3.1,2.2c-0.1,2.3-1.1,6.7,2.4,6.8v0.5l-3.2,4.1c-0.2,0.2-0.5,0.2-0.6,0l-3.9-4.2v-0.4
		c0.4,0,2.7-0.1,2.5-0.9c-0.1-0.2-0.4-0.4-0.7-0.4c-0.9,0-1.8-0.3-2.6-0.8c-0.3-0.2-0.6-0.2-0.8,0c-0.5,0.3-0.6,1.4-1.3,1.2
		c-0.6-0.2-1-0.7-1.3-1.3c-0.3-0.8-0.1-0.9,0.6-0.4c1.6,1.1,2.5-1.7,3.9,0.2c0.2,0.2,0.5,0.3,0.7,0.2c2.3-1.5,2.1-3.1-0.6-4.8
		c-0.2-0.1-0.2-0.1-0.2,0.1c0.4,1.8,0,2.3-1.3,1.4c-1.1-0.3-2,0.1-2.8,1c-0.4,0.1-0.8-0.1-0.9-0.6l-2.5-7.6c-0.1-0.3,0-0.6,0.2-0.9
		C59.6,111.5,66.9,117.8,67,129.5z M62.1,120.5c1.1-0.2,1.1-0.4,0.1-0.7c-1.7-0.5-2.8-0.2-3.5,1c-0.1,0.3-0.1,0.4,0.3,0.3
		L62.1,120.5z M63.6,123c3.5-1.1-4.5-1.2-5.3-1.1c-0.2,0-0.4,0.1-0.4,0.2l-0.1,0.3c-0.1,0.2,0.1,0.5,0.4,0.6
		C60,123.6,61.8,123.6,63.6,123z"/>
	<path class="st6" d="M45,117c1.2,0.1,1.8,0.7,1.6,1.8c0,0.4,0,0.7,0.2,0.9l1.6,1.5c0.2,0.2,0.3,0.5,0.2,0.8
		c-0.3,0.9-0.1,1.7,0.7,2.3c0.2,0.2,0.3,0.5,0.2,0.7c-0.2,0.3-0.4,0.7,0,1c0.8,0.7,1.2,1.5,1.2,2.5l-3.4-3.8
		c-0.4-0.4-0.3-0.6,0.1-0.5c0.5,0.1,1.5,1.6,1.5,0.5c0-0.3-0.2-0.6-0.5-0.7c-0.9-0.5-1.1-1.2-0.8-2c0.1-0.2,0-0.5-0.2-0.6
		c-1.1-0.5-2-1.3-2.7-2.2l0.3-0.3C46.2,118.8,46.2,118.3,45,117z"/>
	<path class="st2" d="M51,119.7c-1.6,1.8-2.6,1.3-3.1-1.4c0-0.3,0.1-0.6,0.4-0.5c0,0,3.9,0,3.9,0c0.3,0,0.5,0.3,0.4,0.5
		C52.4,119,51.4,119.2,51,119.7z"/>
	<path class="st16" d="M46,123.7c-1.8-1.4-3-3.3-3.7-5.7C42.7,118.4,48.3,124.3,46,123.7z"/>
	<path class="st21" d="M62.1,120.5l-3.1,0.6c-0.3,0.1-0.4,0-0.3-0.3c0.6-1.2,1.8-1.5,3.5-1C63.2,120.1,63.1,120.3,62.1,120.5z"/>
	<path class="st10" d="M33.2,121.3c-0.2,0.5-0.2,1.7-0.8,1.6c-1.3-0.1-1.8,0.6-1.8,2.1c0,0.3-0.1,0.4-0.4,0.2
		c-1.4-0.9-2.2-2.2-2.5-3.8L33.2,121.3z"/>
	<path class="st9" d="M47.2,142l-0.3-0.3c0.1-0.1,0.2-0.2,0.2-0.4c0.1-0.2,0-0.5-0.2-0.7L35.2,122c0.5-0.5,1.1-0.6,1.6,0.1
		l12.7,19.7C50,143,47.9,142.7,47.2,142z"/>
	<path class="st20" d="M58.3,121.9c0.8-0.1,8.8,0,5.3,1.1c-1.8,0.6-3.5,0.6-5.3,0.1c-0.6-0.2-0.6-0.6-0.4-1
		C58,122,58.1,121.9,58.3,121.9z"/>
	<path class="st15" d="M35.2,122L47,140.7c0.2,0.3,0.2,0.5,0.2,0.7c-0.1,0.1-0.1,0.2-0.2,0.4l-0.2-0.2l-2-2.8l-1.9-3.1
		c-0.7-1.1-0.6,2-0.4,2.4l-1.5-0.7c0.3,0,0.5-0.1,0.7-0.3c0.6-1.1,0.1-2.3-1.7-3.6c-0.3-0.2-0.6-0.1-0.6,0.3
		c0.1,1.9-0.6,2.4-2.1,1.5c-0.3-0.1-0.6-0.2-0.9-0.1c-1.2,0.4-2,0.1-2.2-1.1c-0.1-0.5,0.9-2.5,1-3.1c0.1-0.3,0.3-0.6,0.6-0.6
		c2.1-0.8,2-1.8-0.3-3l0.2-1.2c0.4-1.3,0-2.5-1-3.5L35.2,122z M39.5,132.4c1.2,0.8,1.4,0.6,0.8-0.7l-1.3-2.4
		c-0.1-0.2-0.4-0.3-0.6-0.1C37.5,130.3,37.9,131.3,39.5,132.4z"/>
	<path class="st10" d="M34.5,122.5c1.1,1,1.4,2.2,1,3.5l-1.7-2.1C33.4,123.3,33.8,122.6,34.5,122.5z"/>
	<path class="st2" d="M27.1,123.2c4.4,5.7,6.1,12.1,4.9,19.2c0,0.3-0.3,0.5-0.6,0.5l-4.3,0.2c-0.3,0-0.6-0.2-0.6-0.5l-0.1-2.8
		L27.1,123.2z"/>
	<path class="st3" d="M109.3,135.8c-0.1,3.5,0.9,10.1-1.7,12.7c-3.1,3.2-8.1,2.9-10.6-0.7c-2.4-3.5-1.3-15.7-1.2-20.2
		c0-0.3-0.2-0.5-0.5-0.5c-2-0.1-2.5-1.1-1.6-3c0.1-0.3,0.4-0.5,0.7-0.4c0.6,0.1,3.6,1.1,4,0.8c4.9-2.8,11.9,0.2,10.8,6.5
		c-0.3,1.2,1.4,0.9,1.7,1.6c0.6,1.6,0.2,2.5-1.1,2.7C109.5,135.3,109.3,135.5,109.3,135.8z M105.6,131.4c0.7-2.6-1.8-5.7-4.4-4.3
		c-0.3,0.1-0.3,0.5-0.2,0.7l4,3.8C105.2,131.8,105.6,131.6,105.6,131.4z M105.2,135.2c-2.3-1-3.9-2.3-5-4.1
		c-0.2-0.3-0.4-0.4-0.7-0.4c-0.4,0.1-0.3,12-0.3,13.4c0,0.3,0.1,0.7,0.3,0.9c2.1,2.9,4.2,2.9,6.1-0.2c0.2-0.3,0.2-0.6,0.2-0.9V136
		C105.8,135.7,105.5,135.4,105.2,135.2z"/>
	<path class="st16" d="M46,124c0.9,1.4,3.2,6.6,5.3,5.2c-0.1,0.8,0.1,1.5,0.5,2c0.2,0.2,0.3,0.4,0.2,0.6C51.8,133.1,43.7,124,46,124
		z"/>
	<path class="st21" d="M65.5,129.5c-0.1,0.3-1.5,2-1.3,1c0.2-1.1-0.3-1.7-1.4-2c0.2-2.8-0.8-3.5-3.1-2.2c-0.4,0.3,0.3,0.7,0,1.1
		c-0.2,0.3-0.3,0.3-0.5,0c-1.7-3.3,4.9-3.9,4.7-0.4C63.7,127.5,65.2,129,65.5,129.5z"/>
	<path class="st10" d="M33.5,125.2c1.6,0.8-3.2,1.4-0.9,0.1C32.9,125.1,33.3,125.1,33.5,125.2z"/>
	<path class="st2" d="M101.2,127.1c2.7-1.4,5.1,1.7,4.4,4.3c-0.1,0.3-0.4,0.4-0.6,0.2l-4-3.8C100.8,127.6,100.9,127.2,101.2,127.1z"
		/>
	<path class="st12" d="M35.3,127.2c2.3,1.2,2.5,2.2,0.3,3c-0.2,0.1-0.4,0.3-0.5,0.7l-0.8,2.2c-0.6,1.5,0.5,2.7,2.1,2
		c0.3-0.1,0.6-0.1,0.9,0.1c1.5,0.9,2.2,0.4,2.1-1.5c0-0.4,0.3-0.5,0.6-0.3c1.8,1.3,2.4,2.5,1.7,3.6c-0.1,0.2-0.3,0.3-0.7,0.3
		c-1.9-2.1-3.9,2.7-2.6,4.2c0.1,0.2,0.5,0.3,0.9,0.3l3,0.2c1,0.1,1.1-0.9,1-1.7c1.3,0.3,1.8,1.2,1.5,2.5L33.6,143
		c-0.5,0-0.9-0.4-0.9-0.9c0.5-4.6,0.2-9.2-1-13.8c-0.3-1.1,0.1-1.3,1-0.5C33.9,128.9,34.8,128.7,35.3,127.2z"/>
	<path class="st8" d="M62.8,128.5c1.1,0.2,1.5,0.9,1.4,1.9c-0.1,1,1.2-0.7,1.3-1c0.6,0.6,1.1,0.6,1.5,0l0.9,1.2l-0.2,11
		c-1.8,0.2-3.1-0.5-3.8-2.1c-0.1-0.3-0.4-0.4-0.6-0.3c-0.6,0.3-0.4,0.8,0.1,1.2c0.6,0.5,1,1.2,1.4,1.9l-0.8,0.2
		c-0.7-1.1-1.7-1.3-3-0.4c-0.9,0-1.5-0.4-2-1c0.2-0.7,0-1.2-0.8-1.5c0.3-0.6,0.1-1.1-0.5-1.4c-0.7-0.2-1,0.8-1.7,0.9l-0.5-0.5
		L56,138c0.1-1.1,0.6-1.9,1.5-2.3l3.9,4.2c0.2,0.2,0.5,0.2,0.6,0l3.2-4.1c2.1,0-0.3,2.1-0.7,2.4c-0.3,0.2-0.5,0.6-0.2,0.8
		c0.1,0.1,0.3-0.1,0.6-0.3l1.7-1.7c0.9-0.9-0.3-2-1.4-1.8C61.7,135.2,62.7,130.8,62.8,128.5z M65.2,134.1c6.8,0.8-3.5-3.2-0.9-0.4
		C64.6,133.9,64.9,134,65.2,134.1z"/>
	<path class="st11" d="M39.5,132.4c-1.6-1.1-2-2.2-1.2-3.2c0.2-0.2,0.5-0.1,0.6,0.1l1.3,2.4C40.9,133,40.7,133.2,39.5,132.4z"/>
	<path class="st21" d="M56.2,129.7c-0.5,1.7-1.5,2-2.8,1C54.2,129.8,55.1,129.5,56.2,129.7z"/>
	<path class="st16" d="M52.2,136.7L52,137l-0.7-0.2l-0.5-0.2c1.3-0.3,1.6-0.9,1-1.9c-0.1-0.2-0.4-0.2-0.7-0.1
		c-0.3,0.2-0.7,0.2-1.1-0.1c0.5-0.7,0-2-1.5-3.9c-0.7-0.8-0.6-0.9,0.2-0.2c1.3,1.1,2.5,2.3,3.7,3.8
		C53.1,134.9,52.6,135.9,52.2,136.7z"/>
	<path class="st2" d="M105.2,135.2c0.3,0.1,0.6,0.5,0.6,0.9v7.9c0,0.3-0.1,0.7-0.2,0.9c-1.9,3.1-3.9,3.1-6.1,0.2
		c-0.2-0.3-0.3-0.6-0.3-0.9c0-1.4-0.2-13.3,0.3-13.4c0.2-0.1,0.5,0.1,0.7,0.4C101.3,132.9,102.9,134.2,105.2,135.2z"/>
	<path class="st18" d="M64.4,133.6c-2.6-2.8,7.6,1.3,0.9,0.4C64.9,134,64.6,133.9,64.4,133.6z"/>
	<path class="st20" d="M50.8,136.5c-0.6-0.3-0.9-0.8-0.8-1.5l0.1-0.5c0.4,0.2,0.7,0.2,1.1,0.1c0.3-0.1,0.5-0.1,0.7,0.1
		C52.4,135.7,52,136.3,50.8,136.5z"/>
	<path class="st16" d="M65.2,135.7v-0.5c1.1-0.3,2.2,0.8,1.4,1.8c-0.6,0.6-1.8,2-2.3,2c-0.2-0.2,0-0.6,0.2-0.8
		C64.9,137.8,67.4,135.7,65.2,135.7z"/>
	<path class="st11" d="M44.7,138.7l-0.9,0.5l-1.3-1.2c-0.2-0.4-0.3-3.4,0.4-2.4C42.8,135.6,44.7,138.7,44.7,138.7z"/>
	<path class="st6" d="M57.5,135.3v0.4c-0.9,0.4-1.4,1.1-1.5,2.3l-0.3-1C55.6,135.6,56.2,135,57.5,135.3z"/>
	<path class="st17" d="M53.8,139.3c-0.8-0.6-1.4-1.3-1.8-2.3l0.2-0.2c0.2-0.2,2.1-0.9,1.4-0.1c-0.6,0.6-0.6,1-0.1,1.4
		C54.1,138.5,54.2,138.9,53.8,139.3z"/>
	<path class="st25" d="M41,137.3l1.5,0.7l1.3,1.2l-0.5,1c0.1,0.8,0,1.8-1,1.7l-3-0.2c-0.4,0-0.7-0.1-0.9-0.3
		C37.1,140,39.1,135.2,41,137.3z M40.5,139.6c0,0.3,0.2,0.5,0.5,0.5c0.8,0,1.5-1.3,0.1-1.1C40.7,139,40.5,139.3,40.5,139.6z"/>
	<path class="st14" d="M51.2,136.8L52,137c0.4,0.9,1,1.7,1.8,2.3v0.4c-0.9,0.8-1.5,0.7-1.7-0.5C51.3,138.6,51,137.7,51.2,136.8z"/>
	<path class="st18" d="M55.8,137l0.3,1l-0.5,0.8C54.3,138,54.4,137.4,55.8,137z"/>
	<path class="st17" d="M58.2,139.8c-0.6-1-1-1.1-1.2-0.2c-0.2,0.4-0.3,0.4-0.7,0.4l-0.2-0.7c0.8,0,1.1-1.1,1.7-0.9
		C58.4,138.7,58.6,139.2,58.2,139.8z"/>
	<path class="st23" d="M44.7,138.7l2,2.8l-1.2,1l-0.7,0.2c0.3-1.3-0.2-2.2-1.5-2.5l0.5-1L44.7,138.7z"/>
	<path class="st11" d="M41.1,139c1.4-0.2,0.7,1.1-0.1,1.1S40.4,139,41.1,139z"/>
	<path class="st14" d="M58.2,139.8c0.7,0.3,1,0.8,0.8,1.5c-1.6,1-2.5,0.6-2.8-1.3c0.4,0,0.5,0,0.7-0.4
		C57.3,138.7,57.7,138.8,58.2,139.8z"/>
	<path class="st21" d="M52,139.2c0.3,1.1,0.8,1.3,1.7,0.5L55,140l-0.3,0.5c-0.7-0.2-1.3,0-1.7,0.8l-0.8,0.5l-0.5-1.8L52,139.2z"/>
	<path class="st16" d="M67.7,141.7v0.8c-1,0.6-2,0.6-3,0c-0.3-0.7-0.8-1.4-1.4-1.9c-0.5-0.4-0.6-1-0.1-1.2c0.2-0.1,0.5,0.1,0.6,0.4
		C64.6,141.3,65.9,142,67.7,141.7z"/>
	<path class="st17" d="M55,140h1.2c0.2,1.9,1.1,2.3,2.8,1.3c0.5,0.6,1.1,1,2,1v0.4c-2.4-0.1-7.1,0.8-8.8-1l0.8-0.5
		c3.3,1.4,3.9,1.2,1.7-0.8L55,140z"/>
	<path class="st25" d="M54.7,140.5c2.2,2,1.6,2.2-1.7,0.8C53.4,140.5,54,140.3,54.7,140.5z"/>
	<path class="st11" d="M46.7,141.5c0.1,0.1,0.4,0.4,0.5,0.5c-0.3,1.1-0.9,1.3-1.8,0.5L46.7,141.5z"/>
	<path class="st16" d="M64,142.7h-3v-0.4C62.3,141.4,63.3,141.6,64,142.7z"/>
</g>
</svg>
