<?xml version="1.0" encoding="utf-8"?>
<!-- Generator: Adobe Illustrator 27.0.1, SVG Export Plug-In . SVG Version: 6.00 Build 0)  -->
<svg version="1.1" id="Слой_1" xmlns="http://www.w3.org/2000/svg" xmlns:xlink="http://www.w3.org/1999/xlink" x="0px" y="0px"
	 viewBox="0 0 128 168" style="enable-background:new 0 0 128 168;" xml:space="preserve">
<style type="text/css">
	.st0{fill:#D8D8D8;}
	.st1{fill:#AAAAAA;}
	.st2{fill:#FFFFFF;}
	.st3{fill:#2D261B;}
</style>
<g>
	<path class="st0" d="M107.9,161.7H20.1c-6.9,0-12.4-5.6-12.4-12.4V18.8c0-6.9,5.6-12.4,12.4-12.4h87.8c6.9,0,12.4,5.6,12.4,12.4
		v130.5C120.3,156.1,114.8,161.7,107.9,161.7z"/>
	<path class="st1" d="M106.9,157.8H21.1c-5.5,0-9.9-4.4-9.9-9.9V19.8c0-5.5,4.4-9.9,9.9-9.9h85.8c5.5,0,9.9,4.4,9.9,9.9v128.1
		C116.8,153.4,112.4,157.8,106.9,157.8z"/>
	<path class="st2" d="M106.6,154.8H21.4c-4.4,0-8-3.6-8-8V20.9c0-4.4,3.6-8,8-8h85.2c4.4,0,8,3.6,8,8v125.9
		C114.6,151.2,111,154.8,106.6,154.8z"/>
</g>
<g>
	<path class="st3" d="M27.7,40.2v-1.9c0-0.3-0.2-0.5-0.5-0.5h-9.4c-0.3,0-0.5-0.2-0.5-0.5c-0.1-1.2-0.2-2.1,0.5-3.1
		c3.4-5.4,6.8-10.7,10.1-16.1c0.2-0.3,0.4-0.5,0.7-0.6c0.7-0.3,1.5-0.3,2.3,0c0.3,0.1,0.5,0.4,0.5,0.7l0.1,15.6
		c0,0.2,0.2,0.4,0.5,0.4c2.5-0.3,3.4,0.8,2.5,3.1c-0.1,0.3-0.4,0.5-0.7,0.5l-1.8,0c-0.3,0-0.6,0.2-0.7,0.5c-0.5,1.5-0.1,2.3,1.1,2.5
		c0.3,0.1,0.6,0.3,0.5,0.6v2.2c0,0.3-0.3,0.5-0.6,0.5h-6c-0.3,0-0.6-0.2-0.6-0.5c-0.5-1.8,0-2.8,1.5-2.9
		C27.5,40.7,27.7,40.5,27.7,40.2z M27.3,25.4c-1.9,2.3-3.8,5.7-5.3,8.4c-0.1,0.2,0,0.3,0.1,0.4h0.1h4.9c0.3,0,0.5-0.2,0.5-0.5l0,0
		l-0.1-8.2C27.6,25.1,27.5,25.1,27.3,25.4z"/>
	<path class="st2" d="M22,33.7c1.5-2.6,3.4-6,5.3-8.4c0.2-0.3,0.3-0.2,0.3,0.1l0.1,8.2c0,0.3-0.2,0.5-0.5,0.5c-0.1,0-4.9,0-4.9,0
		C22,34.1,22,33.9,22,33.7z"/>
	<path class="st3" d="M46.1,50.6c-1.8-1.6-1.8-3.4-0.2-5.3c0.2-0.2,0.5-0.4,0.8-0.5c3.3-0.7,4.7,0.7,4.4,4.2c0,0.3-0.2,0.6-0.5,0.8
		c-1.7,1.3-1.3,1.5,1.1,0.5c0.3-0.1,0.7-0.2,0.9-0.1c5.1,1.2,2.8,8.5-2.3,6c-0.2-0.1-0.5-0.4-0.7-0.7c-0.5-0.8-1.2-1.2-2.3-1.1
		c-0.3,0-0.6,0.2-0.8,0.5c-3.8,5.5-10.2-2.5-3.7-4.7c0.5-0.3,2.3,0.4,2.9,0.5C46.3,51,46.4,50.9,46.1,50.6z"/>
	<path class="st3" d="M82,50.7c3.1-1.2,5-0.2,5.6,2.9c0.1,0.3,0,0.7-0.1,1c-1.1,2.2-2.8,2.8-5.1,1.7c-0.2-0.1-0.5-0.4-0.6-0.7
		c-2.3-4.3-6,6-9.4-1.3c-0.1-0.3-0.2-0.6-0.1-0.9c0.7-2.7,2.4-3.5,5.2-2.5c1.2,0.4,1.3,0.3,0.3-0.5c-1.1-0.8-1.4-1.9-0.9-3.2
		C78.9,41.5,86.6,46.9,82,50.7C81.7,50.8,81.8,50.8,82,50.7z"/>
	<path class="st3" d="M28.5,56.5c1.7-0.7,3.3-0.6,4.6,0.2c5.4,3.7-2.9,10.4-5.7,4.5c-0.3-0.4-0.5-0.7-0.9-0.4
		c-0.1,0.1-0.2,0.3-0.1,0.4l1.8,4.6c0.1,0.3,0,0.6-0.3,0.5c0,0-3.7,0-3.7,0c-0.2,0-0.3-0.3-0.3-0.5c0.2-0.5,2.5-5.3,1.3-5.1
		c-0.2,0-0.4,0.2-0.6,0.5c-1.1,2-2.6,2.7-4.5,2.2c-5.1-1.4-3-9.1,3.2-6.8c0.3,0.1,0.3,0,0.1-0.2c-4-5.6,3.8-9.5,6-4.4
		c0.6,1.5,0.3,3-1,4.4C28.2,56.5,28.3,56.6,28.5,56.5z"/>
	<path class="st3" d="M46.1,58.5l1.7-3.3c0.2-0.3,0.3-0.3,0.5,0l1.7,3.6c0.1,0.2,0,0.5-0.2,0.6c0,0,0,0-0.1,0
		c-1.2,0.4-2.3,0.3-3.4-0.2C46.1,59.1,46,58.7,46.1,58.5L46.1,58.5z"/>
	<path class="st3" d="M79.2,55.9c0.1-0.3,0.3-0.6,0.5-0.9c0.2-0.1,0.4-0.1,0.6,0.1c0,0,0,0.1,0.1,0.1l1.5,3.5c0.1,0.2,0,0.5-0.2,0.6
		c0,0,0,0-0.1,0c-3.7,1-4.6,0.1-2.7-2.5C79,56.6,79.1,56.3,79.2,55.9z"/>
	<path class="st3" d="M104.2,111.8c1.5,1,2,2.3,1.4,3.9c-2.3,6.6-11,0.2-6.1-3.8c0.6-0.5,0.5-0.6-0.2-0.4c-2.7,0.8-4.6,0.3-5.9-1.6
		c-1.3-2-0.9-3.5,1-4.6c2.5-1.4,4.5-1,6,1.3c1.8,2.7-0.6-4.4-0.6-4.4c-0.1-0.2,0-0.4,0.2-0.5h0.1h3.6c0.3,0,0.3,0.4,0.3,0.6
		c-0.2,0.7-3,6.4-0.6,4.4l1-1.2c0.2-0.3,0.5-0.5,0.8-0.6c7.9-2.3,6.7,10.3-0.7,6.4c-0.2-0.1-0.4-0.1-0.5,0l0,0
		C104,111.5,104,111.6,104.2,111.8z"/>
	<path class="st3" d="M50,117.4c1.9,1.6,2,3.3,0.5,5.1c-2.7,3.2-8.5-1.5-4.4-5.1c0.4-0.3,0.3-0.4-0.1-0.2l-1.6,0.5
		c-0.4,0.1-0.7,0.2-0.9,0.1c-3.3-1-4.1-2.9-2.1-5.7c0.2-0.3,0.5-0.5,0.8-0.6c2.1-0.6,3.7-0.1,4.9,1.6c0.2,0.3,0.3,0.2,0.3-0.1
		c-0.1-1.4-0.5-2.7-1.3-3.8c-0.1-0.2-0.1-0.4,0.1-0.5c0,0,0.1,0,0.1-0.1c1.2-0.3,2.4-0.3,3.5,0c0.2,0.1,0.3,0.3,0.3,0.5
		c0,0,0,0,0,0.1l-1.5,3.5c-0.1,0.3-0.1,0.6,0.1,0.7c0.3,0,0.5-0.1,0.7-0.4c3.8-5.4,10.1,2.5,3.7,4.7c-0.2,0.1-0.6,0.1-0.9,0l-2-0.6
		C49.7,117,49.6,117.1,50,117.4z"/>
	<path class="st3" d="M82,117.4c1.9,1.6,2,3.3,0.5,5.1c-2.7,3.2-8.5-1.5-4.4-5.1c0.4-0.3,0.3-0.4-0.1-0.2l-1.6,0.5
		c-0.4,0.1-0.7,0.2-0.9,0.1c-6.4-1.8-1.8-8.9,2.3-5.9c0.2,0.1,0.4,0.4,0.6,0.8c0.2,0.5,1.4,1.2,1,0.2l-1.4-3.7
		c-0.1-0.2,0-0.5,0.2-0.5c1.2-0.3,2.4-0.3,3.5,0c0.2,0.1,0.3,0.3,0.3,0.5c0,0,0,0,0,0.1l-1.5,3.5c-0.1,0.3,0,0.6,0.2,0.7l0,0
		c0.2,0.1,0.4,0,0.5-0.3c4.1-5.7,10.1,2.4,3.8,4.6c-0.2,0.1-0.6,0.1-0.9,0l-2-0.6C81.7,117,81.6,117.1,82,117.4z"/>
	<path class="st3" d="M100.2,127.8l0.1,2c0,0.3,0.3,0.5,0.7,0.5h7.4c2.7,0,3.3,1.2,1.8,3.4l-10.3,16.4c-0.2,0.3-0.4,0.5-0.7,0.6
		c-0.7,0.2-1.4,0.1-2.1-0.1c-0.3-0.1-0.5-0.4-0.5-0.7l-0.1-15.7c0-0.2-0.2-0.4-0.4-0.4c0,0,0,0-0.1,0c-2.6,0.4-3.4-0.7-2.6-3.2
		c0.1-0.3,0.4-0.4,0.6-0.4c2,0.4,2.9-0.4,2.6-2.3c0-0.3-0.3-0.5-0.6-0.6c-1.4-0.4-1.8-1.4-1.1-3.1c0.1-0.3,0.4-0.5,0.7-0.5h5.9
		c0.3,0,0.5,0.2,0.5,0.5v2.4c0,0.3-0.2,0.5-0.5,0.5l-0.9,0.1C100.5,127.3,100.2,127.5,100.2,127.8L100.2,127.8z M100.8,142.8
		l5.1-8.4c0.2-0.3,0.1-0.5-0.2-0.5l-4.8-0.1c-0.3,0-0.5,0.2-0.5,0.6l0,0l-0.1,8.2C100.3,143.3,100.4,143.3,100.8,142.8z"/>
	<path class="st2" d="M100.8,142.8c-0.3,0.5-0.5,0.5-0.5-0.1l0.1-8.2c0-0.3,0.2-0.6,0.5-0.6l4.8,0.1c0.4,0,0.5,0.2,0.2,0.5
		L100.8,142.8z"/>
</g>
</svg>
