<?xml version="1.0" encoding="utf-8"?>
<!-- Generator: Adobe Illustrator 27.0.1, SVG Export Plug-In . SVG Version: 6.00 Build 0)  -->
<svg version="1.1" id="Слой_1" xmlns="http://www.w3.org/2000/svg" xmlns:xlink="http://www.w3.org/1999/xlink" x="0px" y="0px"
	 viewBox="0 0 128 168" style="enable-background:new 0 0 128 168;" xml:space="preserve">
<style type="text/css">
	.st0{fill:#D8D8D8;}
	.st1{fill:#AAAAAA;}
	.st2{fill:#FFFFFF;}
	.st3{fill:#2D261B;}
</style>
<g>
	<path class="st0" d="M107.9,161.7H20.1c-6.9,0-12.4-5.6-12.4-12.4V18.8c0-6.9,5.6-12.4,12.4-12.4h87.8c6.9,0,12.4,5.6,12.4,12.4
		v130.5C120.4,156.1,114.8,161.7,107.9,161.7z"/>
	<path class="st1" d="M106.9,157.8H21.1c-5.5,0-9.9-4.4-9.9-9.9V19.8c0-5.5,4.4-9.9,9.9-9.9h85.8c5.5,0,9.9,4.4,9.9,9.9v128.1
		C116.9,153.4,112.4,157.8,106.9,157.8z"/>
	<path class="st2" d="M106.6,154.8H21.4c-4.4,0-8-3.6-8-8V20.9c0-4.4,3.6-8,8-8h85.2c4.4,0,8,3.6,8,8v125.9
		C114.6,151.2,111,154.8,106.6,154.8z"/>
</g>
<g>
	<path class="st3" d="M23.3,41.1c1.1,0.4,1.4,1.3,1,2.8c-0.1,0.3-0.3,0.5-0.6,0.5h-6c-0.3,0-0.6-0.2-0.7-0.5c-0.6-2,0-3,1.8-3
		c0.3,0,0.5-0.2,0.6-0.5l4.1-22.2c0.1-0.3,0.3-0.6,0.6-0.7c1.1-0.4,2.1-0.4,3.2-0.1c0.3,0.1,0.5,0.3,0.6,0.6l4.2,22.4
		c0.1,0.3,0.3,0.5,0.6,0.5c1.9,0.1,2.5,1.1,1.7,3.2c-0.1,0.3-0.4,0.5-0.7,0.5l-5.8-0.1c-0.3,0-0.6-0.2-0.6-0.5v-2.1
		c0-0.3,0.2-0.5,0.5-0.7c1.1-0.5,1.3-1.4,0.5-2.5c-0.2-0.2-0.5-0.4-0.8-0.4h-3.7c-0.4,0-0.6,0.2-0.7,0.5l-0.3,1.7
		C22.7,40.7,23,40.9,23.3,41.1z M25.7,25.2c-0.2,0-1.6,8-1.8,9c-0.1,0.3,0.1,0.6,0.4,0.6c1,0.3,2,0.2,3,0c0.3-0.1,0.4-0.4,0.4-0.6
		L26,25.6C26,25.4,25.9,25.2,25.7,25.2z"/>
	<path class="st2" d="M23.9,34.2c0.2-1,1.6-9,1.8-9c0.2,0,0.3,0.2,0.3,0.4l1.6,8.6c0.1,0.3-0.1,0.6-0.4,0.6c-1,0.3-2,0.3-3,0
		C24,34.8,23.8,34.5,23.9,34.2z"/>
	<path class="st3" d="M28.5,56.5c1.7-0.7,3.3-0.6,4.5,0.3c5.4,3.7-2.9,10.4-5.7,4.4c-0.1-0.3-0.3-0.4-0.5-0.5
		c-1.3-0.3,1.1,4.8,1.3,5.1c0.1,0.2,0,0.4-0.2,0.5c0,0-0.1,0-0.1,0s-3.7,0-3.7,0c-0.3,0-0.3-0.4-0.3-0.6c0.2-0.5,2.5-5.3,1.3-5.1
		c-0.2,0-0.4,0.2-0.6,0.5c-1.4,2.5-3.5,3-6.2,1.4c-1.4-0.8-1.8-2-1.2-3.6c1.2-3,3.3-3.7,6-2.3c0.9,0.4,1,0.3,0.3-0.4
		c-4.2-4.6,2.6-9.3,5.4-5.1c1.2,1.8,1,3.5-0.6,5.2C28.2,56.5,28.3,56.6,28.5,56.5z"/>
	<path class="st3" d="M61.6,82.3c-2.2-2.1-2.6-4.1-1.1-6.2c3.9-5.5,11.8,1.5,5.8,6.3c-0.1,0.1-0.2,0.3-0.1,0.4l0,0l0.1,0.1
		c0.1,0,0.2,0,0.3-0.1C72,79,77.3,86.1,72,89.5c-2.4,1.6-4.5,1-6.3-1.8c-0.2-0.3-0.5-0.5-0.8-0.5c-1.2,0.2,1.2,5.2,1.5,5.8
		c0.1,0.3,0,0.4-0.2,0.4c0,0-4.5,0-4.5,0c-0.3,0-0.3-0.2-0.3-0.4c0.4-0.9,2.4-5.1,1.5-5.8c-0.2-0.1-0.5,0-0.6,0.2c0,0,0,0,0,0.1
		c-1.5,3.2-6.3,3.7-7.9,0.5c-2-3.8,1.6-7.7,5.7-6C60.5,82.2,61,82.3,61.6,82.3C61.8,82.7,61.8,82.6,61.6,82.3z"/>
	<path class="st3" d="M104.2,111.8c1.4,1,1.9,2.2,1.5,3.7c-1.9,6.6-11.2,0.9-5.9-3.8c0.2-0.1,0.2-0.3,0.1-0.5
		c-0.1-0.1-4,1.9-6.4-1.3c-1.3-1.8-1-3.3,0.9-4.5c2.5-1.5,4.5-1.2,6.1,1.2c1.8,2.6-0.6-4.4-0.7-4.4c-0.1-0.2,0-0.4,0.2-0.5h0.1h3.6
		c0.3,0,0.3,0.4,0.3,0.6c0,0-2.7,6.1-0.9,4.7c2.4-1.7,2.7-3.8,6.3-1.4c1.5,1,1.9,2.2,1.2,3.8c-1.4,2.9-3.5,3.6-6.2,2
		c-0.2-0.1-0.4-0.1-0.5,0c0,0,0,0.2,0,0.3C104,111.6,104.1,111.7,104.2,111.8z"/>
	<path class="st3" d="M99.3,127.6c0.1,0.7,0,2.1,1,2.2c0,0,3.9,0,3.9,0c0.4,0,0.7-0.2,0.7-0.5l0.3-1.5c0-0.2-0.1-0.5-0.5-0.7
		c-1.1-0.6-1.4-1.6-0.9-3c0.1-0.3,0.4-0.5,0.7-0.5h5.8c0.3,0,0.6,0.2,0.7,0.5c0.7,2,0.1,3-1.8,3c-0.3,0-0.5,0.2-0.6,0.5l-4.2,22.3
		c-0.1,0.5-0.5,0.8-0.9,0.8h-2.7c-0.3,0-0.5-0.2-0.6-0.5L96,127.6c-0.1-0.3-0.3-0.5-0.6-0.5c-1.9-0.1-2.5-1.1-1.7-3.2
		c0.1-0.3,0.4-0.5,0.7-0.5l5.7,0.1c0.3,0,0.6,0.2,0.7,0.5c0.5,1.5,0.2,2.5-0.9,2.9C99.5,127,99.3,127.3,99.3,127.6z M102.5,141.4
		l1.6-7.7c0.1-0.3-0.1-0.6-0.4-0.6c-1-0.3-2-0.3-3,0c-0.3,0.1-0.4,0.4-0.4,0.6l1.4,7.6C102,142.6,102.2,142.6,102.5,141.4z"/>
	<path class="st2" d="M102.5,141.4c-0.3,1.2-0.5,1.2-0.7,0l-1.4-7.6c-0.1-0.3,0.1-0.6,0.4-0.6c1-0.3,2-0.3,3,0
		c0.3,0.1,0.5,0.4,0.4,0.6L102.5,141.4z"/>
</g>
</svg>
