<?xml version="1.0" encoding="utf-8"?>
<!-- Generator: Adobe Illustrator 27.0.1, SVG Export Plug-In . SVG Version: 6.00 Build 0)  -->
<svg version="1.1" id="Слой_1" xmlns="http://www.w3.org/2000/svg" xmlns:xlink="http://www.w3.org/1999/xlink" x="0px" y="0px"
	 viewBox="0 0 128 168" style="enable-background:new 0 0 128 168;" xml:space="preserve">
<style type="text/css">
	.st0{fill:#D8D8D8;}
	.st1{fill:#AAAAAA;}
	.st2{fill:#FFFFFF;}
	.st3{fill:none;}
	.st4{fill:#2D261B;}
</style>
<g>
	<path class="st0" d="M107.9,161.7H20.1c-6.9,0-12.4-5.6-12.4-12.4V18.8c0-6.9,5.6-12.4,12.4-12.4h87.8c6.9,0,12.4,5.6,12.4,12.4
		v130.5C120.3,156.1,114.8,161.7,107.9,161.7z"/>
	<path class="st1" d="M106.9,157.8H21.1c-5.5,0-9.9-4.4-9.9-9.9V19.8c0-5.5,4.4-9.9,9.9-9.9h85.8c5.5,0,9.9,4.4,9.9,9.9v128.1
		C116.8,153.4,112.4,157.8,106.9,157.8z"/>
	<path class="st2" d="M106.6,154.8H21.4c-4.4,0-8-3.6-8-8V20.9c0-4.4,3.6-8,8-8h85.2c4.4,0,8,3.6,8,8v125.9
		C114.6,151.2,111,154.8,106.6,154.8z"/>
</g>
<g>
	<g>
		<path vector-effect="non-scaling-stroke" class="st3" d="M106.2,12.7c-27.9,0-55.8,0-83.7,0c-3.2,0-5.8,1.6-7.5,4.7"/>
		<path vector-effect="non-scaling-stroke" class="st3" d="M17,153c0.8,0.3,1.6,1,2.5,2.1"/>
		<path vector-effect="non-scaling-stroke" class="st3" d="M19.5,155.1c28,0.2,56,0.2,84,0.2c9,0,11-4.9,11-13.3c0-39,0-78,0-116.9
			c0-6.6-1.6-10.9-8.3-12.2"/>
		<path vector-effect="non-scaling-stroke" class="st3" d="M17,153c-2-2.8-3-4.7-3-5.7c0-41.8,0-83.7,0-125.5c0-0.5,0.3-1.9,1-4.2"
			/>
		<path vector-effect="non-scaling-stroke" class="st3" d="M35,22.9c-0.2-7.7-11.9-7.7-12.1,0c0,0,0,16,0,16c0,3.2,2.6,5.8,5.8,5.8
			c3.4,0.2,6.3-2.4,6.3-5.8l0,0V22.9"/>
		<path vector-effect="non-scaling-stroke" class="st3" d="M20.5,17.8c0-0.3-0.2-0.5-0.5-0.5h-2.7c-0.3,0-0.5,0.2-0.5,0.5v25.9
			c0,0.3,0.2,0.5,0.5,0.5H20c0.3,0,0.5-0.2,0.5-0.5V17.8"/>
		<path vector-effect="non-scaling-stroke" class="st3" d="M45.9,50.9c-0.6-0.1-2.4-0.7-2.9-0.6c-6.3,2.1-0.2,10.1,3.6,4.8
			c0.2-0.3,0.5-0.5,0.8-0.6c1-0.3,1.8,0,2.3,0.9c0.2,0.3,0.4,0.6,0.6,0.7c5.2,2.8,7.7-4.6,2.5-5.9c-0.3-0.1-0.6,0-0.9,0.1
			c-2.5,1-2.8,0.8-1.1-0.5c0.3-0.2,0.4-0.5,0.4-0.8c0.1-4-1.6-5.3-5.2-3.8c-0.3,0.1-0.6,0.4-0.7,0.6c-0.9,1.8-0.6,3.4,0.8,4.7
			C46.4,50.9,46.3,51,45.9,50.9"/>
		<path vector-effect="non-scaling-stroke" class="st3" d="M77.9,50.9c-0.6-0.1-2.4-0.7-2.9-0.6c-6.3,2.1-0.2,10.1,3.6,4.8
			c0.2-0.3,0.5-0.5,0.8-0.6c1-0.3,1.8,0,2.3,0.9c0.2,0.3,0.4,0.6,0.6,0.7c5.2,2.8,7.6-4.6,2.5-5.9c-0.3-0.1-0.6,0-1,0.1
			c-2.5,1-2.8,0.8-1.1-0.5c0.3-0.2,0.4-0.5,0.4-0.8c0.1-4-1.6-5.3-5.2-3.8c-0.3,0.1-0.6,0.4-0.7,0.6c-0.9,1.8-0.6,3.4,0.8,4.7
			C78.4,50.9,78.3,51,77.9,50.9"/>
		<path vector-effect="non-scaling-stroke" class="st3" d="M28.4,56.3c1.4-1.5,1.7-3.1,0.9-4.7c-2.4-4.8-9.9-0.9-5.7,4.7
			c0.3,0.4,0.2,0.5-0.2,0.3c-3.5-1.5-5.6-0.4-6.2,3.4c-0.1,0.3,0,0.6,0.2,0.9c4.2,6.5,6-0.7,9.3-0.2c0.3,0,0.5,0.2,0.7,0.6
			c2.9,5.8,11-0.9,5.7-4.5c-1.3-0.9-2.8-1-4.6-0.2C28.3,56.6,28.2,56.5,28.4,56.3"/>
		<path vector-effect="non-scaling-stroke" class="st3" d="M46.4,59.2c1.1,0.5,2.2,0.6,3.4,0.2c0.2-0.1,0.3-0.3,0.3-0.6
			c0,0,0,0,0-0.1l-1.6-3.5c-0.1-0.3-0.3-0.3-0.5,0l-1.8,3.3C46,58.7,46.1,59,46.4,59.2L46.4,59.2"/>
		<path vector-effect="non-scaling-stroke" class="st3" d="M78.9,56.8c-1.9,2.6-1,3.5,2.7,2.5c0.2-0.1,0.4-0.3,0.3-0.5
			c0,0,0,0,0-0.1l-1.5-3.5c-0.1-0.2-0.3-0.3-0.5-0.2c0,0-0.1,0-0.1,0.1c-0.3,0.2-0.5,0.5-0.5,0.9C79.1,56.3,79,56.6,78.9,56.8"/>
		<path vector-effect="non-scaling-stroke" class="st3" d="M61.7,61.3c-2.7-0.9-4.5-0.1-5.4,2.5c-0.1,0.3-0.1,0.6,0.1,0.9
			c3.3,7.6,7.2-2.8,9.4,1.6c0.2,0.3,0.4,0.5,0.7,0.7c6.9,2.7,6.6-8,0.4-5.6c-0.4,0.2-0.5,0-0.3-0.4c1.3-2.8,0.7-4.7-1.8-5.7
			c-0.3-0.1-0.6-0.1-0.9,0c-3.3,1.2-4,3.1-1.9,5.8C62.1,61.3,62,61.4,61.7,61.3"/>
		<path vector-effect="non-scaling-stroke" class="st3" d="M23.8,66.1c-0.1,0.2,0,0.3,0.2,0.4h0.1H28c0.3,0,0.3-0.2,0.3-0.4
			l-1.9-4.7c-0.1-0.2-0.2-0.2-0.4-0.2c-0.1,0-0.1,0.1-0.2,0.2L23.8,66.1"/>
		<path vector-effect="non-scaling-stroke" class="st3" d="M62.2,69.7c1.2,0.4,2.3,0.4,3.3,0.1c0.3-0.1,0.4-0.3,0.4-0.6L64.3,66
			c-0.2-0.3-0.3-0.3-0.5,0l-1.7,3.4C62,69.6,62.1,69.7,62.2,69.7"/>
		<path vector-effect="non-scaling-stroke" class="st3" d="M45.7,72c-6.9-2.6-6.9,7.9-0.6,5.8c0.3-0.1,0.5-0.3,0.7-0.6
			c0.6-0.8,1.3-1.3,2.4-1.5c0.3,0,0.6,0.1,0.8,0.4c2.1,2.8,4.2,2.8,6.3,0.1c0.2-0.3,0.3-0.6,0.2-0.9c-0.5-3.6-2.3-4.6-5.6-3.1
			c-0.2,0.1-0.3,0.1-0.1-0.1c2.3-2.1,1.5-6.3-1.7-6.2c-3.3,0.1-4.5,3.4-2.4,5.9C46,72,46,72.1,45.7,72"/>
		<path vector-effect="non-scaling-stroke" class="st3" d="M77.7,72c-2.7-1-4.5-0.2-5.4,2.6c-0.1,0.3-0.1,0.6,0.1,0.9
			c1.9,3.6,4.1,3.8,6.7,0.6c0.4-0.6,1.3-0.6,1.8-0.2C81,76,81,76,81.1,76.1c2.2,2.8,4.3,2.8,6.3,0.1c0.2-0.3,0.3-0.6,0.2-0.9
			c-0.5-3.5-2.3-4.5-5.6-3c-0.3,0.1-0.3,0.1-0.1-0.1c2.2-2.3,1.9-4.3-0.7-6.1c-0.3-0.2-0.6-0.2-0.9-0.2c-3.8,0.9-4.5,2.9-2.4,5.9
			C78.1,72,78,72.1,77.7,72"/>
		<path vector-effect="non-scaling-stroke" class="st3" d="M47.9,76.6c-2.6,3.7-2.1,5.1,1.6,4c0.2-0.1,0.4-0.3,0.3-0.6l0,0l-1.4-3.4
			C48.2,76.3,48.1,76.3,47.9,76.6"/>
		<path vector-effect="non-scaling-stroke" class="st3" d="M79.9,76.6c-2.6,3.7-2.1,5.1,1.6,4c0.2-0.1,0.4-0.3,0.3-0.6l0,0l-1.4-3.4
			C80.2,76.3,80.1,76.3,79.9,76.6"/>
		<path vector-effect="non-scaling-stroke" class="st3" d="M48.5,91.2l1.3-3.3c0.1-0.3,0-0.6-0.3-0.5c0,0-3.1,0-3.1,0
			c-0.3,0-0.3,0.4-0.3,0.6c0.7,1.4,2.2,5.1,0.3,3.5c-3.3-4.6-9.4,2-3.9,4.9c0.3,0.1,0.6,0.2,0.9,0.1l2.7-0.7c0.3-0.1,0.3,0,0.1,0.2
			c-1.7,1.4-2,3-0.9,5c0.2,0.3,0.4,0.5,0.7,0.6c3.1,1.2,4.8,0.2,5.1-3c0-0.4,0-0.7-0.2-0.9l-1-1.4C49.7,96,49.8,96,50.1,96l2,0.5
			c0.3,0.1,0.7,0.1,0.9-0.1c5.8-2.9-0.3-9.7-3.7-5c-0.2,0.3-0.4,0.3-0.7,0.3C48.4,91.8,48.3,91.6,48.5,91.2"/>
		<path vector-effect="non-scaling-stroke" class="st3" d="M80.6,91.1l1.3-3.2c0.1-0.3,0-0.6-0.3-0.5c0,0-3.1,0-3.1,0
			c-0.2,0-0.3,0.3-0.3,0.5l1.3,3.2C79.8,92,80.2,92,80.6,91.1"/>
		<path vector-effect="non-scaling-stroke" class="st3" d="M82.5,96c6.3,2.4,6.8-7.4,0.6-6c-0.3,0.1-0.5,0.3-0.7,0.5
			c-0.7,1.1-1.7,1.6-3,1.5c-0.3,0-0.6-0.2-0.8-0.5c-4-5.2-9.7,3.2-3.3,5c0.3,0.1,0.6,0,0.9-0.1c0.3-0.3,2.2-0.8,1.7,0
			c-1.9,2.2-1.5,4.1,0.9,5.6c0.3,0.2,0.6,0.2,0.9,0.2c3.6-0.7,4.5-2.7,2.6-5.8C82.2,96,82.2,95.9,82.5,96"/>
		<path vector-effect="non-scaling-stroke" class="st3" d="M64.6,101.4c2-3.3,1.3-4.3-2.2-3.1c-0.2,0.1-0.3,0.3-0.2,0.5
			c0,0,0,0,0,0.1l1.2,2.4C63.8,102.1,64.2,102.1,64.6,101.4"/>
		<path vector-effect="non-scaling-stroke" class="st3" d="M65.8,106.7c0-0.3,0.5-0.2,0.7-0.1c1.7,0.9,3.3,0.6,4.6-0.8
			c1.7-1.8,1.5-3.3-0.5-4.6c-4-2.4-6.4,3.9-8.4,0.4c-0.2-0.3-0.4-0.5-0.7-0.6c-6.5-2.6-6.8,8.2,0.1,5.7c0.3-0.1,0.3,0,0.1,0.2
			c-3.7,4.9,4.3,8.7,5.6,2.9c0.3-1.2-0.1-2.1-1.2-2.7C65.9,107,65.8,106.8,65.8,106.7"/>
		<path vector-effect="non-scaling-stroke" class="st3" d="M104,111.5c0-0.1,0-0.2,0-0.2c0-0.1,0.2-0.2,0.4-0.1h0.1
			c2.1,1.2,3.8,1.1,5.1-0.3c3.9-4.3-3.2-9.2-6.1-4.4c-0.2,0.3-0.4,0.5-0.7,0.6c-1.2,0.2,1-4.4,1.2-4.8c0.1-0.2,0-0.4-0.2-0.5h-0.1
			h-3.6c-0.3,0-0.3,0.4-0.3,0.6c0.7,1.5,2.1,4.9,1.3,4.9c-0.2,0-0.5-0.2-0.7-0.5c-4.4-6.5-12,3.6-3.6,5.4c0.3,0.1,0.6,0,0.9-0.2
			c0.2-0.2,2.5-0.8,1.7,0c-4.9,4.7,3.8,10.2,6,3.9c0.5-1.5,0.1-2.8-1.4-3.9C104.1,111.7,104,111.6,104,111.5"/>
		<path vector-effect="non-scaling-stroke" class="st3" d="M46.1,117.4c-2.3,2.6-1.9,4.6,1.2,6c0.3,0.1,0.6,0.2,0.9,0.1
			c3.4-1.1,4-3.1,1.9-6c-0.2-0.3-0.1-0.4,0.2-0.3l1.8,0.5c0.3,0.1,0.7,0.1,0.9,0c6.4-2.2,0-10.1-3.7-4.7c-0.3,0.5-1,0.6-0.9-0.1
			c0-0.1,0-0.1,0.1-0.2l1.5-3.5c0.1-0.2,0-0.5-0.2-0.6c0,0,0,0-0.1,0c-1.1-0.3-2.3-0.3-3.5,0c-0.2,0.1-0.3,0.2-0.2,0.4
			c0,0,0,0.1,0.1,0.1c0.8,1.1,1.2,2.4,1.3,3.8c0,0.3-0.1,0.3-0.3,0.1c-1.2-1.7-2.8-2.2-4.9-1.6c-0.3,0.1-0.6,0.3-0.8,0.6
			c-1.9,2.9-1.2,4.8,2.1,5.7c0.2,0.1,0.5,0,0.9-0.1l1.5-0.5C46.3,117,46.4,117.1,46.1,117.4"/>
		<path vector-effect="non-scaling-stroke" class="st3" d="M82.1,117.1c0.6,0.1,2.4,0.7,2.9,0.6c2.5-0.9,3.2-2.5,2.2-5
			c-0.1-0.3-0.3-0.6-0.6-0.7c-2.3-1.3-4.1-0.9-5.5,1.3c-0.1,0.1-0.2,0.2-0.3,0.2l-0.2-0.1c-0.2,0-0.2-0.2-0.2-0.5c0,0,0,0,0-0.1
			l1.6-3.6c0.1-0.2,0-0.5-0.2-0.6c0,0,0,0-0.1,0c-1.1-0.3-2.3-0.3-3.5,0c-0.2,0.1-0.3,0.2-0.2,0.4c0,0,0,0.1,0.1,0.1
			c0.8,1.1,1.2,2.4,1.3,3.8c0,0.3-0.1,0.3-0.3,0.1c-1.2-1.7-2.8-2.2-4.9-1.6c-0.3,0.1-0.6,0.3-0.8,0.6c-1.9,2.8-1.2,4.7,2.1,5.7
			c0.2,0.1,0.5,0,0.9-0.1l1.6-0.5c0.4-0.1,0.5-0.1,0.1,0.2c-4.1,3.6,1.7,8.2,4.4,5.1c1.5-1.8,1.4-3.5-0.5-5.1
			C81.6,117.1,81.7,117,82.1,117.1"/>
		<path vector-effect="non-scaling-stroke" class="st3" d="M105.2,129.1c0-3.2-2.6-5.8-5.8-5.8c-3.4-0.2-6.3,2.4-6.3,5.8l0,0v16
			c0,3.2,2.6,5.8,5.8,5.8c3.4,0.2,6.3-2.4,6.3-5.8l0,0V129.1"/>
		<path vector-effect="non-scaling-stroke" class="st3" d="M111.2,124.3c0-0.3-0.2-0.5-0.5-0.5H108c-0.3,0-0.5,0.2-0.5,0.5v25.9
			c0,0.3,0.2,0.5,0.5,0.5h2.7c0.3,0,0.5-0.2,0.5-0.5V124.3"/>
		<path vector-effect="non-scaling-stroke" class="st3" d="M31.2,22.8c0-3.1-4.7-3.1-4.7,0c0,0,0,16.1,0,16.1c0,1.3,1,2.3,2.3,2.3
			c1.3,0.1,2.4-1,2.4-2.3l0,0V22.8"/>
		<path vector-effect="non-scaling-stroke" class="st3" d="M101.5,129.1c0-1.3-1-2.3-2.3-2.3c-1.3-0.1-2.4,1-2.4,2.3l0,0v16.1
			c0,1.3,1,2.3,2.3,2.3c1.3,0.1,2.4-1,2.4-2.3C101.5,145.2,101.5,129.1,101.5,129.1"/>
	</g>
	<path class="st4" d="M35,38.9c0,3.2-2.6,5.8-5.8,5.8c-3.4,0.2-6.3-2.4-6.3-5.8l0,0v-16c0-3.4,2.9-6,6.3-5.8c3.2,0,5.8,2.6,5.8,5.8
		V38.9z M31.2,22.8c0-3.1-4.7-3.1-4.7,0c0,0,0,16.1,0,16.1c0,1.3,1,2.3,2.3,2.3c1.3,0.1,2.4-1,2.4-2.3l0,0V22.8z"/>
	<path class="st4" d="M17.3,17.3H20c0.3,0,0.5,0.2,0.5,0.5v25.9c0,0.3-0.2,0.5-0.5,0.5h-2.7c-0.3,0-0.5-0.2-0.5-0.5V17.8
		C16.8,17.5,17,17.3,17.3,17.3z"/>
	<path class="st2" d="M28.8,20.5c1.3-0.1,2.4,1,2.4,2.3c0,0,0,16.1,0,16.1c0,1.3-1.1,2.4-2.4,2.3c-1.3,0-2.3-1-2.3-2.3V22.8
		C26.5,21.5,27.5,20.5,28.8,20.5z"/>
	<path class="st4" d="M46,50.6c-1.4-1.3-1.7-2.8-0.8-4.7c0.1-0.3,0.4-0.5,0.7-0.6c3.6-1.5,5.4-0.2,5.2,3.8c0,0.3-0.2,0.6-0.4,0.8
		c-1.7,1.3-1.4,1.5,1.1,0.5c0.3-0.1,0.7-0.2,0.9-0.1c5.2,1.3,2.7,8.7-2.5,5.9c-0.2-0.1-0.5-0.4-0.6-0.7c-0.5-0.9-1.2-1.2-2.3-0.9
		c-0.3,0.1-0.5,0.3-0.8,0.6c-3.8,5.3-10-2.7-3.6-4.8c0.2-0.1,0.5,0,0.9,0.1l2,0.5C46.3,51,46.4,50.9,46,50.6z"/>
	<path class="st4" d="M78.1,50.6c-1.4-1.3-1.7-2.8-0.8-4.7c0.1-0.3,0.4-0.5,0.7-0.6c3.6-1.5,5.4-0.2,5.2,3.8c0,0.3-0.2,0.6-0.4,0.8
		c-1.7,1.3-1.4,1.5,1.1,0.5c0.3-0.1,0.7-0.2,1-0.1c5.2,1.3,2.7,8.7-2.5,5.9c-0.2-0.1-0.5-0.4-0.6-0.7c-0.5-0.9-1.2-1.2-2.3-0.9
		c-0.3,0.1-0.5,0.3-0.8,0.6c-3.8,5.3-10-2.7-3.6-4.8c0.2-0.1,0.5,0,0.9,0.1l2,0.5C78.3,51,78.4,50.9,78.1,50.6z"/>
	<path class="st4" d="M28.5,56.5c1.7-0.7,3.3-0.6,4.6,0.2c5.4,3.6-2.8,10.4-5.7,4.5c-0.2-0.3-0.4-0.5-0.7-0.6
		c-3.4-0.4-5.2,6.7-9.3,0.2c-0.2-0.3-0.2-0.6-0.2-0.9c0.6-3.8,2.6-4.9,6.2-3.4c0.4,0.2,0.5,0.1,0.2-0.3c-4.1-5.6,3.4-9.5,5.7-4.7
		c0.8,1.6,0.5,3.1-0.9,4.7C28.2,56.5,28.3,56.6,28.5,56.5z"/>
	<path class="st4" d="M46.1,58.5l1.8-3.3c0.2-0.3,0.3-0.3,0.5,0l1.6,3.5c0.1,0.2,0,0.5-0.2,0.6l0,0c-1.2,0.4-2.3,0.3-3.4-0.2
		C46.1,59.1,46,58.7,46.1,58.5L46.1,58.5z"/>
	<path class="st4" d="M79.2,55.9c0.1-0.3,0.3-0.6,0.5-0.9c0.2-0.1,0.4-0.1,0.6,0.1c0,0,0,0.1,0.1,0.1l1.5,3.5c0.1,0.2,0,0.5-0.2,0.6
		c0,0,0,0-0.1,0c-3.7,1-4.6,0.1-2.7-2.5C79,56.6,79.1,56.3,79.2,55.9z"/>
	<path class="st4" d="M61.9,61c-2.1-2.7-1.4-4.6,1.9-5.8c0.3-0.1,0.6-0.1,0.9,0c2.5,1,3.2,2.9,1.8,5.7c-0.2,0.4-0.1,0.5,0.3,0.4
		c6.1-2.4,6.4,8.4-0.4,5.6c-0.3-0.1-0.5-0.3-0.7-0.7c-2.3-4.4-6.1,6-9.4-1.6c-0.1-0.3-0.2-0.6-0.1-0.9c0.9-2.6,2.6-3.4,5.4-2.5
		C62,61.4,62.1,61.3,61.9,61z"/>
	<path class="st4" d="M23.8,66.1l1.9-4.7c0.1-0.2,0.2-0.2,0.4-0.2c0.1,0,0.1,0.1,0.2,0.2l1.9,4.7c0.1,0.2,0,0.3-0.2,0.4h-0.1H24
		C23.8,66.5,23.6,66.1,23.8,66.1z"/>
	<path class="st4" d="M62.2,69.7c-0.1,0-0.1-0.1-0.1-0.2l0,0l1.7-3.4c0.2-0.4,0.3-0.4,0.5,0l1.6,3.2c0.1,0.2,0,0.5-0.2,0.6h-0.1
		C64.4,70.1,63.3,70.1,62.2,69.7z"/>
	<path class="st4" d="M45.8,71.8c-2.1-2.4-0.9-5.8,2.4-5.9c3.2-0.1,4,4.1,1.7,6.2c-0.2,0.2-0.2,0.2,0.1,0.1c3.2-1.5,5.1-0.5,5.6,3.1
		c0,0.3,0,0.6-0.2,0.9c-2.1,2.7-4.2,2.7-6.3-0.1c-0.2-0.3-0.5-0.4-0.8-0.4c-1,0.2-1.8,0.7-2.4,1.5c-0.2,0.3-0.5,0.5-0.7,0.6
		c-6.3,2.1-6.3-8.4,0.6-5.8C46,72.1,46,72,45.8,71.8z"/>
	<path class="st4" d="M77.9,71.8c-2.2-3-1.4-5,2.4-5.9c0.3-0.1,0.7,0,0.9,0.2c2.6,1.7,2.9,3.8,0.7,6.1c-0.2,0.2-0.2,0.3,0.1,0.1
		c3.3-1.5,5.2-0.5,5.6,3c0,0.3,0,0.6-0.2,0.9c-2,2.8-4.1,2.8-6.3-0.1c-0.4-0.6-1.2-0.7-1.8-0.2c-0.1,0.1-0.1,0.1-0.2,0.2
		c-2.6,3.2-4.8,3-6.7-0.6c-0.1-0.3-0.2-0.6-0.1-0.9c0.9-2.8,2.7-3.6,5.4-2.6C78,72.1,78.1,72,77.9,71.8z"/>
	<path class="st4" d="M47.9,76.6c0.2-0.3,0.4-0.3,0.5,0.1l1.4,3.4c0.1,0.2,0,0.5-0.3,0.6l0,0C45.8,81.6,45.2,80.3,47.9,76.6z"/>
	<path class="st4" d="M79.9,76.6c0.2-0.3,0.4-0.3,0.5,0.1l1.4,3.4c0.1,0.2,0,0.5-0.3,0.6l0,0C77.8,81.6,77.2,80.3,79.9,76.6z"/>
	<path class="st4" d="M48.8,91.8c0.3,0,0.5,0,0.7-0.3c3.4-4.7,9.5,2.1,3.7,5c-0.3,0.1-0.6,0.1-0.9,0.1l-2-0.5
		c-0.3-0.1-0.3,0-0.2,0.3l1,1.4c0.2,0.2,0.2,0.6,0.2,0.9c-0.4,3.2-2.1,4.2-5.1,3c-0.3-0.1-0.6-0.3-0.7-0.6c-1.1-1.9-0.8-3.6,0.9-5
		c0.2-0.2,0.2-0.2-0.1-0.2l-2.7,0.7c-0.3,0.1-0.7,0-0.9-0.1c-5.5-2.9,0.6-9.6,3.9-4.9c0.2,0.3,0.5,0.5,0.7,0.4
		c0.8-0.1-0.5-2.7-1-3.9c-0.1-0.2,0-0.4,0.1-0.5h0.1h3.1c0.3,0,0.3,0.4,0.3,0.6l-1.3,3.3C48.3,91.6,48.4,91.8,48.8,91.8z"/>
	<path class="st4" d="M80.6,91.1c-0.4,0.9-0.7,0.9-1.1,0l-1.3-3.2c-0.1-0.2,0-0.4,0.2-0.5h0.1h3.1c0.3,0,0.3,0.4,0.3,0.6L80.6,91.1z
		"/>
	<path class="st4" d="M82.3,96.2c1.9,3.2,1,5.1-2.6,5.8c-0.3,0.1-0.7,0-0.9-0.2c-2.5-1.5-2.8-3.4-0.9-5.6c0.6-0.8-1.4-0.2-1.7,0
		c-0.3,0.2-0.6,0.2-0.9,0.1c-6.3-1.8-0.7-10.2,3.3-5c0.2,0.3,0.5,0.5,0.8,0.5c1.3,0.1,2.3-0.4,3-1.5c0.2-0.3,0.4-0.5,0.7-0.5
		c6.2-1.3,5.7,8.4-0.6,6C82.2,95.9,82.2,96,82.3,96.2z"/>
	<path class="st4" d="M64.6,101.4c-0.4,0.7-0.8,0.7-1.2-0.1l-1.2-2.4c-0.1-0.2,0-0.5,0.2-0.6c0,0,0,0,0.1,0
		C65.9,97.1,66.6,98.1,64.6,101.4z"/>
	<path class="st4" d="M66.1,107c1.1,0.6,1.5,1.5,1.2,2.7c-1.3,5.8-9.4,2-5.6-2.9c0.2-0.2,0.1-0.3-0.1-0.2c-7,2.4-6.6-8.3-0.1-5.7
		c0.3,0.1,0.5,0.3,0.7,0.6c2,3.6,4.4-2.8,8.4-0.4c2.1,1.2,2.2,2.8,0.5,4.6c-1.3,1.4-2.8,1.6-4.6,0.8c-0.2-0.1-0.7-0.2-0.7,0.1
		C65.8,106.8,65.9,107,66.1,107z"/>
	<path class="st4" d="M104.2,111.8c1.5,1,2,2.3,1.4,3.9c-2.2,6.3-10.9,0.8-6-3.9c0.8-0.8-1.5-0.3-1.7,0c-0.3,0.2-0.6,0.2-0.9,0.2
		c-8.5-1.8-0.8-11.9,3.6-5.4c0.2,0.3,0.4,0.5,0.7,0.5c0.8,0-0.7-3.4-1.3-4.9c-0.1-0.2,0-0.4,0.2-0.5h0.1h3.6c0.3,0,0.3,0.4,0.3,0.6
		c-0.2,0.5-2.4,5.1-1.2,4.8c0.2-0.1,0.5-0.3,0.7-0.6c2.9-4.8,10,0.2,6.1,4.4c-1.3,1.4-3,1.5-5.1,0.3c-0.2-0.1-0.4-0.1-0.5,0
		c0,0,0,0.2,0,0.3C104,111.6,104.1,111.7,104.2,111.8z"/>
	<path class="st4" d="M45.9,117.1l-1.5,0.5c-0.4,0.1-0.7,0.2-0.9,0.1c-3.3-0.9-4-2.8-2.1-5.7c0.2-0.3,0.5-0.5,0.8-0.6
		c2.1-0.6,3.7-0.1,4.9,1.6c0.2,0.3,0.3,0.2,0.3-0.1c-0.1-1.4-0.5-2.7-1.3-3.8c-0.1-0.2-0.1-0.4,0.1-0.5c0,0,0.1,0,0.1-0.1
		c1.2-0.3,2.4-0.3,3.5,0c0.2,0.1,0.3,0.3,0.3,0.5c0,0,0,0,0,0.1l-1.5,3.5c-0.1,0.3-0.1,0.6,0.1,0.7c0.3,0,0.5-0.1,0.7-0.4
		c3.8-5.4,10.1,2.5,3.7,4.7c-0.3,0.1-0.6,0.1-0.9,0l-1.8-0.5c-0.3-0.1-0.4,0-0.2,0.3c2.1,2.9,1.5,4.9-1.9,6
		c-0.3,0.1-0.6,0.1-0.9-0.1c-3.1-1.4-3.5-3.4-1.2-6C46.4,117.1,46.3,117,45.9,117.1z"/>
	<path class="st4" d="M82,117.4c1.9,1.6,2,3.3,0.5,5.1c-2.7,3.2-8.5-1.5-4.4-5.1c0.4-0.3,0.3-0.4-0.1-0.2l-1.6,0.5
		c-0.4,0.1-0.7,0.2-0.9,0.1c-3.3-1-4.1-2.9-2.1-5.7c0.2-0.3,0.5-0.5,0.8-0.6c2.1-0.6,3.7-0.1,4.9,1.6c0.2,0.3,0.3,0.2,0.3-0.1
		c-0.1-1.4-0.5-2.7-1.3-3.8c-0.1-0.2-0.1-0.4,0.1-0.5c0,0,0.1,0,0.1-0.1c1.2-0.3,2.4-0.3,3.5,0c0.2,0.1,0.3,0.3,0.3,0.5
		c0,0,0,0,0,0.1l-1.6,3.6c-0.1,0.2,0,0.4,0.1,0.5l0,0l0.2,0.1c0.1,0,0.2,0,0.3-0.2c1.4-2.2,3.3-2.6,5.5-1.3c0.3,0.2,0.5,0.4,0.6,0.7
		c1,2.5,0.3,4.2-2.2,5c-0.2,0.1-0.6,0.1-0.9-0.1l-2-0.5C81.7,117,81.6,117.1,82,117.4z"/>
	<path class="st4" d="M105.2,145.1c0,3.2-2.6,5.8-5.8,5.8c-3.4,0.2-6.3-2.4-6.3-5.8l0,0v-16c0-3.2,2.6-5.8,5.8-5.8
		c3.4-0.2,6.3,2.4,6.3,5.8l0,0V145.1z M101.5,129.1c0-1.3-1-2.3-2.3-2.3c-1.3-0.1-2.4,1-2.4,2.3l0,0v16.1c0,1.3,1,2.3,2.3,2.3
		c1.3,0.1,2.4-1,2.4-2.3C101.5,145.2,101.5,129.1,101.5,129.1z"/>
	<path class="st4" d="M108,123.7h2.7c0.3,0,0.5,0.2,0.5,0.5v25.9c0,0.3-0.2,0.5-0.5,0.5H108c-0.3,0-0.5-0.2-0.5-0.5v-25.9
		C107.5,124,107.7,123.7,108,123.7z"/>
	<path class="st2" d="M99.1,126.8c1.3-0.1,2.4,1,2.4,2.3c0,0,0,16.1,0,16.1c0,1.3-1.1,2.4-2.4,2.3c-1.3,0-2.3-1-2.3-2.3v-16.1
		C96.8,127.8,97.8,126.8,99.1,126.8z"/>
</g>
</svg>
