<?xml version="1.0" encoding="UTF-8" standalone="no"?>
<svg xmlns="http://www.w3.org/2000/svg" version="1.2" baseProfile="tiny" viewBox="0 0 128 168">
<g stroke-width="0.00" fill="none" stroke-linecap="butt">
<path stroke="#e5e5e5" stroke-opacity="0.557" vector-effect="non-scaling-stroke" d="
  M 106.21 12.75
  Q 64.35 12.75 22.50 12.75
  Q 17.63 12.75 14.96 17.50"
/>
<path stroke="#e5e5e5" stroke-opacity="0.557" vector-effect="non-scaling-stroke" d="
  M 17.00 152.96
  Q 18.18 153.46 19.49 155.09"
/>
<path stroke="#d6d6d5" stroke-opacity="0.600" vector-effect="non-scaling-stroke" d="
  M 19.49 155.09
  Q 61.50 155.37 103.51 155.24
  C 112.52 155.22 114.49 150.33 114.50 141.91
  Q 114.51 83.44 114.49 24.97
  C 114.49 18.37 112.88 14.11 106.21 12.75"
/>
<path stroke="#f9fafa" stroke-opacity="0.988" vector-effect="non-scaling-stroke" d="
  M 17.00 152.96
  Q 14.00 148.78 14.00 147.25
  Q 14.00 84.50 14.00 21.75
  Q 14.00 21.03 14.96 17.50"
/>
<path stroke="#96938d" vector-effect="non-scaling-stroke" d="
  M 34.98 22.89
  A 5.83 5.83 0.0 0 0 29.15 17.06
  L 28.61 17.06
  A 5.83 5.83 0.0 0 0 22.78 22.89
  L 22.78 38.87
  A 5.83 5.83 0.0 0 0 28.61 44.70
  L 29.15 44.70
  A 5.83 5.83 0.0 0 0 34.98 38.87
  L 34.98 22.89"
/>
<path stroke="#96938d" vector-effect="non-scaling-stroke" d="
  M 20.50 17.80
  A 0.53 0.53 0.0 0 0 19.97 17.27
  L 17.29 17.27
  A 0.53 0.53 0.0 0 0 16.76 17.80
  L 16.76 43.74
  A 0.53 0.53 0.0 0 0 17.29 44.27
  L 19.97 44.27
  A 0.53 0.53 0.0 0 0 20.50 43.74
  L 20.50 17.80"
/>
<path stroke="#96938d" vector-effect="non-scaling-stroke" d="
  M 45.94 50.88
  L 43.96 50.35
  A 1.61 0.56 22.8 0 0 43.03 50.29
  C 36.68 52.43 42.85 60.38 46.65 55.08
  A 1.55 1.03 -70.8 0 1 47.40 54.51
  Q 48.94 54.12 49.66 55.42
  A 1.87 1.01 76.2 0 0 50.30 56.13
  C 55.50 58.97 57.95 51.53 52.76 50.26
  A 1.71 1.32 -43.1 0 0 51.81 50.35
  Q 48.12 51.83 50.74 49.86
  A 1.07 0.98 -19.5 0 0 51.16 49.07
  Q 51.38 43.05 45.94 45.29
  A 1.39 1.31 0.5 0 0 45.24 45.94
  Q 43.89 48.70 46.05 50.62
  Q 46.53 51.04 45.94 50.88"
/>
<path stroke="#96938d" vector-effect="non-scaling-stroke" d="
  M 77.94 50.88
  L 75.96 50.35
  A 1.61 0.56 22.8 0 0 75.03 50.29
  C 68.68 52.43 74.85 60.38 78.65 55.08
  A 1.55 1.03 -70.8 0 1 79.40 54.51
  Q 80.94 54.12 81.66 55.42
  A 1.87 1.01 76.2 0 0 82.30 56.13
  C 87.50 58.97 89.95 51.53 84.76 50.26
  A 1.71 1.32 -43.1 0 0 83.81 50.35
  Q 80.12 51.83 82.74 49.86
  A 1.07 0.98 -19.5 0 0 83.16 49.07
  Q 83.38 43.05 77.94 45.29
  A 1.39 1.31 0.5 0 0 77.24 45.94
  Q 75.89 48.70 78.05 50.62
  Q 78.53 51.04 77.94 50.88"
/>
<path stroke="#96938d" vector-effect="non-scaling-stroke" d="
  M 28.41 56.33
  Q 30.49 54.06 29.32 51.68
  C 26.95 46.86 19.44 50.76 23.58 56.36
  Q 24.01 56.95 23.34 56.66
  Q 18.04 54.37 17.17 60.04
  A 1.31 1.25 -58.1 0 0 17.36 60.95
  C 21.53 67.43 23.33 60.29 26.71 60.72
  A 1.05 0.82 76.6 0 1 27.41 61.28
  C 30.27 67.12 38.46 60.37 33.08 56.73
  Q 31.14 55.42 28.53 56.48
  Q 28.12 56.65 28.41 56.33"
/>
<path stroke="#96938d" vector-effect="non-scaling-stroke" d="
  M 46.37 59.18
  Q 47.96 59.97 49.75 59.36
  A 0.46 0.42 67.9 0 0 49.98 58.74
  L 48.33 55.21
  Q 48.11 54.72 47.87 55.17
  L 46.12 58.48
  A 0.53 0.51 26.8 0 0 46.37 59.18"
/>
<path stroke="#96938d" vector-effect="non-scaling-stroke" d="
  M 78.89 56.84
  Q 76.05 60.79 81.60 59.35
  A 0.45 0.44 -18.8 0 0 81.90 58.75
  L 80.40 55.23
  A 0.41 0.39 58.6 0 0 79.78 55.06
  Q 79.35 55.42 79.23 55.94
  Q 79.10 56.55 78.89 56.84"
/>
<path stroke="#96938d" vector-effect="non-scaling-stroke" d="
  M 61.72 61.27
  Q 57.61 59.91 56.33 63.77
  A 1.36 1.28 43.2 0 0 56.39 64.71
  C 59.69 72.26 63.55 61.92 65.81 66.31
  A 1.51 0.99 78.3 0 0 66.46 66.96
  C 73.32 69.69 73.02 58.96 66.89 61.33
  Q 66.25 61.58 66.54 60.96
  Q 68.51 56.80 64.70 55.25
  A 1.36 1.27 -42.2 0 0 63.77 55.24
  Q 58.78 56.99 61.88 61.05
  Q 62.16 61.41 61.72 61.27"
/>
<path stroke="#96938d" vector-effect="non-scaling-stroke" d="
  M 23.77 66.06
  A 0.31 0.31 11.8 0 0 24.05 66.49
  L 27.93 66.50
  A 0.31 0.31 -9.0 0 0 28.22 66.08
  L 26.30 61.38
  A 0.31 0.31 42.1 0 0 25.72 61.38
  L 23.77 66.06"
/>
<path stroke="#96938d" vector-effect="non-scaling-stroke" d="
  M 62.18 69.73
  Q 63.92 70.27 65.50 69.86
  A 0.47 0.43 -19.3 0 0 65.83 69.24
  L 64.26 66.08
  Q 64.00 65.56 63.74 66.11
  L 62.08 69.53
  A 0.15 0.14 20.4 0 0 62.18 69.73"
/>
<path stroke="#96938d" vector-effect="non-scaling-stroke" d="
  M 45.72 72.00
  C 38.79 69.45 38.85 79.95 45.13 77.84
  A 1.69 1.10 -72.6 0 0 45.86 77.24
  Q 46.69 76.00 48.24 75.76
  A 0.90 0.78 65.6 0 1 49.03 76.12
  Q 52.19 80.31 55.33 76.21
  A 1.20 1.20 -30.2 0 0 55.57 75.31
  Q 54.86 69.94 49.99 72.25
  Q 49.62 72.42 49.92 72.15
  C 52.19 70.06 51.37 65.88 48.20 65.93
  C 44.91 65.98 43.74 69.36 45.84 71.81
  Q 46.14 72.15 45.72 72.00"
/>
<path stroke="#96938d" vector-effect="non-scaling-stroke" d="
  M 77.73 71.99
  Q 73.65 70.43 72.32 74.56
  A 1.24 1.23 40.3 0 0 72.40 75.49
  Q 75.21 80.92 79.08 76.12
  A 1.29 1.28 45.4 0 1 81.09 76.14
  Q 84.39 80.36 87.37 76.19
  A 1.31 1.30 59.3 0 0 87.60 75.28
  Q 86.92 70.01 81.98 72.25
  Q 81.58 72.44 81.89 72.11
  Q 85.15 68.66 81.20 66.06
  A 1.18 1.15 -34.4 0 0 80.28 65.90
  Q 74.65 67.27 77.89 71.79
  Q 78.16 72.16 77.73 71.99"
/>
<path stroke="#96938d" vector-effect="non-scaling-stroke" d="
  M 47.88 76.56
  Q 43.92 82.13 49.48 80.59
  A 0.47 0.46 -18.9 0 0 49.79 79.97
  L 48.38 76.61
  Q 48.18 76.14 47.88 76.56"
/>
<path stroke="#96938d" vector-effect="non-scaling-stroke" d="
  M 79.88 76.56
  Q 75.92 82.13 81.48 80.59
  A 0.47 0.46 -18.9 0 0 81.79 79.97
  L 80.38 76.61
  Q 80.18 76.14 79.88 76.56"
/>
<path stroke="#96938d" vector-effect="non-scaling-stroke" d="
  M 48.49 91.22
  L 49.84 87.92
  A 0.42 0.35 -76.7 0 0 49.55 87.35
  L 46.44 87.35
  A 0.39 0.35 76.3 0 0 46.15 87.90
  C 46.71 89.14 47.98 91.77 47.19 91.82
  A 0.98 0.57 63.3 0 1 46.50 91.37
  C 43.16 86.76 37.11 93.40 42.60 96.32
  A 1.37 1.23 -35.7 0 0 43.54 96.42
  L 46.24 95.72
  Q 46.66 95.61 46.31 95.89
  Q 43.73 97.95 45.44 100.87
  A 1.53 1.40 -2.6 0 0 46.17 101.48
  Q 50.75 103.28 51.28 98.51
  A 1.50 1.08 -66.4 0 0 51.08 97.58
  L 50.10 96.19
  Q 49.83 95.80 50.27 95.92
  L 52.27 96.43
  A 1.49 1.07 32.0 0 0 53.21 96.37
  C 59.00 93.48 52.93 86.69 49.49 91.40
  A 0.76 0.38 -63.7 0 1 49.07 91.72
  L 48.80 91.76
  Q 48.24 91.84 48.49 91.22"
/>
<path stroke="#96938d" vector-effect="non-scaling-stroke" d="
  M 80.55 91.08
  L 81.84 87.92
  A 0.42 0.34 -77.0 0 0 81.56 87.35
  L 78.44 87.35
  A 0.41 0.35 77.1 0 0 78.15 87.91
  L 79.45 91.08
  Q 80.01 92.43 80.55 91.08"
/>
<path stroke="#96938d" vector-effect="non-scaling-stroke" d="
  M 82.53 96.01
  C 88.83 98.40 89.37 88.65 83.12 89.97
  A 1.28 0.98 -74.5 0 0 82.39 90.52
  Q 81.34 92.17 79.39 91.97
  A 1.31 0.99 68.8 0 1 78.60 91.48
  C 74.58 86.24 68.95 94.66 75.27 96.47
  A 1.34 0.98 -44.9 0 0 76.17 96.33
  Q 76.92 95.91 77.71 95.89
  Q 78.22 95.89 77.86 96.31
  Q 75.07 99.66 78.81 101.90
  A 1.35 1.29 -33.9 0 0 79.75 102.06
  Q 85.17 100.98 82.33 96.24
  Q 82.09 95.84 82.53 96.01"
/>
<path stroke="#96938d" vector-effect="non-scaling-stroke" d="
  M 64.61 101.39
  Q 67.62 96.44 62.43 98.31
  A 0.43 0.40 66.8 0 0 62.22 98.90
  L 63.39 101.27
  Q 63.97 102.45 64.61 101.39"
/>
<path stroke="#96938d" vector-effect="non-scaling-stroke" d="
  M 65.77 106.69
  C 65.79 106.40 66.24 106.48 66.44 106.58
  Q 69.06 107.86 71.02 105.79
  Q 73.59 103.10 70.51 101.23
  C 66.50 98.80 64.12 105.18 62.08 101.59
  A 1.50 1.01 77.4 0 0 61.41 100.96
  C 54.93 98.39 54.57 109.11 61.52 106.69
  Q 61.94 106.55 61.66 106.90
  C 57.92 111.79 66.00 115.62 67.30 109.78
  Q 67.72 107.92 66.05 107.05
  A 0.47 0.29 20.8 0 1 65.77 106.69"
/>
<path stroke="#96938d" vector-effect="non-scaling-stroke" d="
  M 103.99 111.48
  Q 103.96 111.36 103.98 111.27
  A 0.41 0.25 24.0 0 1 104.51 111.20
  Q 107.71 112.98 109.64 110.88
  C 113.55 106.61 106.45 101.63 103.57 106.45
  A 1.23 0.70 -70.3 0 1 102.92 107.01
  C 101.77 107.25 103.94 102.62 104.12 102.17
  A 0.41 0.35 -77.3 0 0 103.82 101.61
  L 100.19 101.61
  A 0.41 0.35 76.7 0 0 99.90 102.17
  C 100.55 103.69 102.01 107.05 101.21 107.07
  A 0.98 0.55 64.5 0 1 100.56 106.61
  C 96.18 100.11 88.54 110.22 97.00 112.02
  A 1.46 1.04 -46.6 0 0 97.91 111.84
  Q 98.66 111.39 99.52 111.41
  Q 100.03 111.42 99.64 111.79
  C 94.76 116.44 103.46 121.96 105.68 115.68
  Q 106.50 113.36 104.24 111.81
  A 0.65 0.40 21.4 0 1 103.99 111.48"
/>
<path stroke="#96938d" vector-effect="non-scaling-stroke" d="
  M 46.09 117.43
  Q 42.64 121.28 47.31 123.40
  A 1.27 1.26 48.5 0 0 48.23 123.46
  Q 53.32 121.85 50.10 117.44
  Q 49.78 116.99 50.29 117.15
  L 52.04 117.69
  A 1.66 1.03 33.8 0 0 52.98 117.72
  C 59.35 115.49 53.02 107.58 49.27 113.02
  Q 48.98 113.44 48.71 113.44
  A 0.54 0.38 -74.6 0 1 48.45 112.71
  L 49.95 109.21
  A 0.43 0.38 -70.5 0 0 49.72 108.64
  Q 48.02 108.20 46.20 108.67
  A 0.36 0.34 64.6 0 0 46.03 109.22
  Q 47.20 110.94 47.29 113.04
  Q 47.31 113.52 47.02 113.11
  Q 45.22 110.58 42.14 111.51
  A 1.51 1.43 -80.3 0 0 41.38 112.08
  Q 38.49 116.39 43.50 117.78
  A 1.54 0.59 -27.8 0 0 44.43 117.67
  L 45.94 117.14
  Q 46.55 116.92 46.09 117.43"
/>
<path stroke="#96938d" vector-effect="non-scaling-stroke" d="
  M 82.05 117.13
  L 84.04 117.67
  A 1.66 0.67 25.1 0 0 84.97 117.72
  Q 88.70 116.44 87.18 112.70
  A 1.53 1.50 -85.8 0 0 86.56 111.97
  Q 83.18 109.97 81.03 113.28
  A 0.34 0.21 -60.6 0 1 80.74 113.44
  L 80.55 113.39
  A 0.42 0.30 -69.6 0 1 80.40 112.86
  L 81.97 109.22
  A 0.44 0.40 -70.0 0 0 81.73 108.63
  Q 80.02 108.20 78.20 108.67
  A 0.36 0.34 64.6 0 0 78.03 109.22
  Q 79.20 110.94 79.29 113.04
  Q 79.31 113.52 79.02 113.11
  Q 77.22 110.58 74.14 111.51
  A 1.51 1.43 -80.3 0 0 73.38 112.08
  Q 70.49 116.35 75.51 117.79
  A 1.38 0.41 -24.4 0 0 76.43 117.66
  L 77.99 117.14
  Q 78.63 116.92 78.09 117.39
  C 73.99 120.96 79.74 125.61 82.46 122.44
  Q 84.77 119.74 81.96 117.38
  Q 81.47 116.97 82.05 117.13"
/>
<path stroke="#96938d" vector-effect="non-scaling-stroke" d="
  M 105.22 129.13
  A 5.83 5.83 0.0 0 0 99.39 123.30
  L 98.85 123.30
  A 5.83 5.83 0.0 0 0 93.02 129.13
  L 93.02 145.11
  A 5.83 5.83 0.0 0 0 98.85 150.94
  L 99.39 150.94
  A 5.83 5.83 0.0 0 0 105.22 145.11
  L 105.22 129.13"
/>
<path stroke="#96938d" vector-effect="non-scaling-stroke" d="
  M 111.24 124.26
  A 0.53 0.53 0.0 0 0 110.71 123.73
  L 108.03 123.73
  A 0.53 0.53 0.0 0 0 107.50 124.26
  L 107.50 150.20
  A 0.53 0.53 0.0 0 0 108.03 150.73
  L 110.71 150.73
  A 0.53 0.53 0.0 0 0 111.24 150.20
  L 111.24 124.26"
/>
<path stroke="#96938d" vector-effect="non-scaling-stroke" d="
  M 31.23 22.82
  A 2.30 2.30 0.0 0 0 28.93 20.52
  L 28.81 20.52
  A 2.30 2.30 0.0 0 0 26.51 22.82
  L 26.51 38.92
  A 2.30 2.30 0.0 0 0 28.81 41.22
  L 28.93 41.22
  A 2.30 2.30 0.0 0 0 31.23 38.92
  L 31.23 22.82"
/>
<path stroke="#96938d" vector-effect="non-scaling-stroke" d="
  M 101.49 129.07
  A 2.30 2.30 0.0 0 0 99.19 126.77
  L 99.05 126.77
  A 2.30 2.30 0.0 0 0 96.75 129.07
  L 96.75 145.17
  A 2.30 2.30 0.0 0 0 99.05 147.47
  L 99.19 147.47
  A 2.30 2.30 0.0 0 0 101.49 145.17
  L 101.49 129.07"
/>
</g>
<path fill="#000001" fill-opacity="0.114" d="
  M 112.31 9.58
  C 114.52 9.28 116.71 13.22 117.68 14.89
  C 119.55 18.12 120.15 24.52 119.94 28.32
  Q 119.83 30.29 119.78 33.50
  Q 119.47 57.12 119.52 80.75
  Q 119.52 81.01 119.86 81.62
  Q 120.02 81.91 119.83 82.18
  A 1.36 0.50 -46.2 0 0 119.48 82.98
  C 119.86 103.21 119.31 123.44 119.63 143.68
  Q 119.63 143.89 119.29 144.55
  Q 119.14 144.85 119.15 145.33
  Q 119.22 147.84 117.61 149.75
  A 0.43 0.39 35.6 0 0 117.74 150.35
  Q 118.15 150.61 118.38 151.05
  A 0.71 0.63 -35.3 0 1 118.19 151.86
  L 116.65 153.25
  A 0.92 0.87 65.0 0 0 116.38 154.06
  Q 116.73 156.43 114.17 156.66
  A 1.51 0.76 5.6 0 0 113.28 157.00
  L 112.00 158.35
  A 1.09 0.92 -62.8 0 1 111.21 158.68
  Q 110.35 158.61 109.80 159.19
  A 1.22 0.93 -62.5 0 1 108.99 159.57
  C 106.12 159.54 104.62 160.96 101.96 160.98
  Q 84.19 161.15 66.44 160.84
  C 51.20 160.59 35.86 160.87 20.56 160.65
  A 0.78 0.57 76.7 0 1 19.98 160.15
  Q 19.72 159.50 18.70 159.66
  A 0.74 0.67 68.2 0 1 18.00 159.32
  Q 17.42 158.41 16.18 158.70
  A 1.02 0.76 -24.2 0 1 15.32 158.51
  L 9.54 152.90
  A 1.17 0.83 -71.3 0 1 9.28 152.04
  Q 9.45 150.27 8.04 149.20
  Q 7.24 148.59 7.24 144.75
  Q 7.26 118.73 7.25 92.71
  C 7.25 88.26 8.46 82.06 7.91 76.62
  C 6.26 60.38 7.20 43.05 7.27 26.68
  Q 7.28 25.76 7.87 23.42
  C 8.26 21.87 7.79 20.45 8.30 18.91
  Q 10.26 12.97 15.35 9.30
  Q 15.63 9.10 16.26 9.03
  Q 16.85 8.96 17.13 8.46
  A 0.70 0.65 -70.9 0 1 17.79 8.11
  Q 18.63 8.19 18.94 7.49
  A 0.75 0.63 -74.6 0 1 19.58 7.05
  C 22.50 7.20 24.95 6.01 27.58 6.01
  Q 66.38 6.01 105.18 6.02
  A 0.57 0.41 3.6 0 1 105.77 6.50
  L 105.71 6.83
  A 0.32 0.24 -80.6 0 0 105.89 7.18
  C 106.22 7.22 109.85 7.12 109.85 7.78
  A 0.36 0.32 84.8 0 0 110.24 8.14
  Q 111.67 7.84 111.80 9.20
  A 0.46 0.44 -7.0 0 0 112.31 9.58
  Z
  M 106.21 12.75
  Q 64.35 12.75 22.50 12.75
  Q 17.63 12.75 14.96 17.50
  L 13.71 21.00
  Q 11.12 20.38 11.11 23.06
  Q 10.98 82.91 11.01 142.75
  A 1.66 1.25 -69.8 0 0 11.29 143.67
  L 13.46 146.50
  Q 14.07 150.42 17.00 152.96
  Q 18.18 153.46 19.49 155.09
  L 18.47 155.26
  A 0.29 0.27 67.6 0 0 18.30 155.70
  L 18.98 156.68
  A 1.01 0.86 70.0 0 0 19.74 157.11
  C 24.08 157.15 28.53 158.22 32.53 158.22
  Q 66.26 158.23 100.00 158.47
  Q 101.75 158.49 105.64 157.46
  C 106.70 157.18 107.74 156.33 108.97 156.41
  A 1.29 1.29 -63.5 0 0 109.84 156.12
  L 114.50 152.21
  A 1.94 1.69 -13.6 0 0 115.05 151.43
  Q 115.52 150.04 116.60 149.04
  A 1.66 1.26 -22.9 0 0 117.07 148.22
  Q 117.44 145.94 117.45 141.75
  Q 117.67 83.95 117.27 26.14
  C 117.24 23.22 116.09 20.75 115.85 17.71
  A 1.17 1.03 18.8 0 0 115.41 16.94
  Q 114.32 16.07 113.88 14.72
  A 1.51 1.46 9.5 0 0 113.32 13.96
  L 108.95 10.85
  A 1.69 1.25 55.5 0 0 108.08 10.55
  Q 64.87 10.41 21.68 10.58
  Q 21.25 10.58 20.86 10.75
  Q 14.02 13.65 21.34 11.84
  Q 21.75 11.74 22.16 11.74
  Q 64.06 11.76 105.94 11.75
  A 0.44 0.38 8.0 0 1 106.38 12.25
  L 106.21 12.75
  Z"
/>
<path fill="#020201" fill-opacity="0.196" d="
  M 19.49 155.09
  Q 61.50 155.37 103.51 155.24
  C 112.52 155.22 114.49 150.33 114.50 141.91
  Q 114.51 83.44 114.49 24.97
  C 114.49 18.37 112.88 14.11 106.21 12.75
  L 106.38 12.25
  A 0.44 0.38 8.0 0 0 105.94 11.75
  Q 64.06 11.76 22.16 11.74
  Q 21.75 11.74 21.34 11.84
  Q 14.02 13.65 20.86 10.75
  Q 21.25 10.58 21.68 10.58
  Q 64.87 10.41 108.08 10.55
  A 1.69 1.25 55.5 0 1 108.95 10.85
  L 113.32 13.96
  A 1.51 1.46 9.5 0 1 113.88 14.72
  Q 114.32 16.07 115.41 16.94
  A 1.17 1.03 18.8 0 1 115.85 17.71
  C 116.09 20.75 117.24 23.22 117.27 26.14
  Q 117.67 83.95 117.45 141.75
  Q 117.44 145.94 117.07 148.22
  A 1.66 1.26 -22.9 0 1 116.60 149.04
  Q 115.52 150.04 115.05 151.43
  A 1.94 1.69 -13.6 0 1 114.50 152.21
  L 109.84 156.12
  A 1.29 1.29 -61.9 0 1 108.97 156.41
  C 107.74 156.33 106.70 157.18 105.64 157.46
  Q 101.75 158.49 100.00 158.47
  Q 66.26 158.23 32.53 158.22
  C 28.53 158.22 24.08 157.15 19.74 157.11
  A 1.01 0.86 70.0 0 1 18.98 156.68
  L 18.30 155.70
  A 0.29 0.27 67.6 0 1 18.47 155.26
  L 19.49 155.09
  Z"
/>
<path fill="#ffffff" d="
  M 106.21 12.75
  C 112.88 14.11 114.49 18.37 114.49 24.97
  Q 114.51 83.44 114.50 141.91
  C 114.49 150.33 112.52 155.22 103.51 155.24
  Q 61.50 155.37 19.49 155.09
  Q 18.18 153.46 17.00 152.96
  Q 14.00 148.78 14.00 147.25
  Q 14.00 84.50 14.00 21.75
  Q 14.00 21.03 14.96 17.50
  Q 17.63 12.75 22.50 12.75
  Q 64.35 12.75 106.21 12.75
  Z
  M 34.98 22.89
  A 5.83 5.83 0.0 0 0 29.15 17.06
  L 28.61 17.06
  A 5.83 5.83 0.0 0 0 22.78 22.89
  L 22.78 38.87
  A 5.83 5.83 0.0 0 0 28.61 44.70
  L 29.15 44.70
  A 5.83 5.83 0.0 0 0 34.98 38.87
  L 34.98 22.89
  Z
  M 20.50 17.80
  A 0.53 0.53 0.0 0 0 19.97 17.27
  L 17.29 17.27
  A 0.53 0.53 0.0 0 0 16.76 17.80
  L 16.76 43.74
  A 0.53 0.53 0.0 0 0 17.29 44.27
  L 19.97 44.27
  A 0.53 0.53 0.0 0 0 20.50 43.74
  L 20.50 17.80
  Z
  M 45.94 50.88
  L 43.96 50.35
  A 1.61 0.56 22.8 0 0 43.03 50.29
  C 36.68 52.43 42.85 60.38 46.65 55.08
  A 1.55 1.03 -70.8 0 1 47.40 54.51
  Q 48.94 54.12 49.66 55.42
  A 1.87 1.01 76.2 0 0 50.30 56.13
  C 55.50 58.97 57.95 51.53 52.76 50.26
  A 1.71 1.32 -43.1 0 0 51.81 50.35
  Q 48.12 51.83 50.74 49.86
  A 1.07 0.98 -19.5 0 0 51.16 49.07
  Q 51.38 43.05 45.94 45.29
  A 1.39 1.31 0.5 0 0 45.24 45.94
  Q 43.89 48.70 46.05 50.62
  Q 46.53 51.04 45.94 50.88
  Z
  M 77.94 50.88
  L 75.96 50.35
  A 1.61 0.56 22.8 0 0 75.03 50.29
  C 68.68 52.43 74.85 60.38 78.65 55.08
  A 1.55 1.03 -70.8 0 1 79.40 54.51
  Q 80.94 54.12 81.66 55.42
  A 1.87 1.01 76.2 0 0 82.30 56.13
  C 87.50 58.97 89.95 51.53 84.76 50.26
  A 1.71 1.32 -43.1 0 0 83.81 50.35
  Q 80.12 51.83 82.74 49.86
  A 1.07 0.98 -19.5 0 0 83.16 49.07
  Q 83.38 43.05 77.94 45.29
  A 1.39 1.31 0.5 0 0 77.24 45.94
  Q 75.89 48.70 78.05 50.62
  Q 78.53 51.04 77.94 50.88
  Z
  M 28.41 56.33
  Q 30.49 54.06 29.32 51.68
  C 26.95 46.86 19.44 50.76 23.58 56.36
  Q 24.01 56.95 23.34 56.66
  Q 18.04 54.37 17.17 60.04
  A 1.31 1.25 -58.1 0 0 17.36 60.95
  C 21.53 67.43 23.33 60.29 26.71 60.72
  A 1.05 0.82 76.6 0 1 27.41 61.28
  C 30.27 67.12 38.46 60.37 33.08 56.73
  Q 31.14 55.42 28.53 56.48
  Q 28.12 56.65 28.41 56.33
  Z
  M 46.37 59.18
  Q 47.96 59.97 49.75 59.36
  A 0.46 0.42 67.9 0 0 49.98 58.74
  L 48.33 55.21
  Q 48.11 54.72 47.87 55.17
  L 46.12 58.48
  A 0.53 0.51 26.8 0 0 46.37 59.18
  Z
  M 78.89 56.84
  Q 76.05 60.79 81.60 59.35
  A 0.45 0.44 -18.8 0 0 81.90 58.75
  L 80.40 55.23
  A 0.41 0.39 58.6 0 0 79.78 55.06
  Q 79.35 55.42 79.23 55.94
  Q 79.10 56.55 78.89 56.84
  Z
  M 61.72 61.27
  Q 57.61 59.91 56.33 63.77
  A 1.36 1.28 43.2 0 0 56.39 64.71
  C 59.69 72.26 63.55 61.92 65.81 66.31
  A 1.51 0.99 78.3 0 0 66.46 66.96
  C 73.32 69.69 73.02 58.96 66.89 61.33
  Q 66.25 61.58 66.54 60.96
  Q 68.51 56.80 64.70 55.25
  A 1.36 1.27 -42.2 0 0 63.77 55.24
  Q 58.78 56.99 61.88 61.05
  Q 62.16 61.41 61.72 61.27
  Z
  M 23.77 66.06
  A 0.31 0.31 11.8 0 0 24.05 66.49
  L 27.93 66.50
  A 0.31 0.31 -9.0 0 0 28.22 66.08
  L 26.30 61.38
  A 0.31 0.31 42.1 0 0 25.72 61.38
  L 23.77 66.06
  Z
  M 62.18 69.73
  Q 63.92 70.27 65.50 69.86
  A 0.47 0.43 -19.3 0 0 65.83 69.24
  L 64.26 66.08
  Q 64.00 65.56 63.74 66.11
  L 62.08 69.53
  A 0.15 0.14 20.4 0 0 62.18 69.73
  Z
  M 45.72 72.00
  C 38.79 69.45 38.85 79.95 45.13 77.84
  A 1.69 1.10 -72.6 0 0 45.86 77.24
  Q 46.69 76.00 48.24 75.76
  A 0.90 0.78 65.6 0 1 49.03 76.12
  Q 52.19 80.31 55.33 76.21
  A 1.20 1.20 -30.2 0 0 55.57 75.31
  Q 54.86 69.94 49.99 72.25
  Q 49.62 72.42 49.92 72.15
  C 52.19 70.06 51.37 65.88 48.20 65.93
  C 44.91 65.98 43.74 69.36 45.84 71.81
  Q 46.14 72.15 45.72 72.00
  Z
  M 77.73 71.99
  Q 73.65 70.43 72.32 74.56
  A 1.24 1.23 40.3 0 0 72.40 75.49
  Q 75.21 80.92 79.08 76.12
  A 1.29 1.28 45.4 0 1 81.09 76.14
  Q 84.39 80.36 87.37 76.19
  A 1.31 1.30 59.3 0 0 87.60 75.28
  Q 86.92 70.01 81.98 72.25
  Q 81.58 72.44 81.89 72.11
  Q 85.15 68.66 81.20 66.06
  A 1.18 1.15 -34.4 0 0 80.28 65.90
  Q 74.65 67.27 77.89 71.79
  Q 78.16 72.16 77.73 71.99
  Z
  M 47.88 76.56
  Q 43.92 82.13 49.48 80.59
  A 0.47 0.46 -18.9 0 0 49.79 79.97
  L 48.38 76.61
  Q 48.18 76.14 47.88 76.56
  Z
  M 79.88 76.56
  Q 75.92 82.13 81.48 80.59
  A 0.47 0.46 -18.9 0 0 81.79 79.97
  L 80.38 76.61
  Q 80.18 76.14 79.88 76.56
  Z
  M 48.49 91.22
  L 49.84 87.92
  A 0.42 0.35 -76.7 0 0 49.55 87.35
  L 46.44 87.35
  A 0.39 0.35 76.3 0 0 46.15 87.90
  C 46.71 89.14 47.98 91.77 47.19 91.82
  A 0.98 0.57 63.3 0 1 46.50 91.37
  C 43.16 86.76 37.11 93.40 42.60 96.32
  A 1.37 1.23 -35.7 0 0 43.54 96.42
  L 46.24 95.72
  Q 46.66 95.61 46.31 95.89
  Q 43.73 97.95 45.44 100.87
  A 1.53 1.40 -2.6 0 0 46.17 101.48
  Q 50.75 103.28 51.28 98.51
  A 1.50 1.08 -66.4 0 0 51.08 97.58
  L 50.10 96.19
  Q 49.83 95.80 50.27 95.92
  L 52.27 96.43
  A 1.49 1.07 32.0 0 0 53.21 96.37
  C 59.00 93.48 52.93 86.69 49.49 91.40
  A 0.76 0.38 -63.7 0 1 49.07 91.72
  L 48.80 91.76
  Q 48.24 91.84 48.49 91.22
  Z
  M 80.55 91.08
  L 81.84 87.92
  A 0.42 0.34 -77.0 0 0 81.56 87.35
  L 78.44 87.35
  A 0.41 0.35 77.1 0 0 78.15 87.91
  L 79.45 91.08
  Q 80.01 92.43 80.55 91.08
  Z
  M 82.53 96.01
  C 88.83 98.40 89.37 88.65 83.12 89.97
  A 1.28 0.98 -74.5 0 0 82.39 90.52
  Q 81.34 92.17 79.39 91.97
  A 1.31 0.99 68.8 0 1 78.60 91.48
  C 74.58 86.24 68.95 94.66 75.27 96.47
  A 1.34 0.98 -44.9 0 0 76.17 96.33
  Q 76.92 95.91 77.71 95.89
  Q 78.22 95.89 77.86 96.31
  Q 75.07 99.66 78.81 101.90
  A 1.35 1.29 -33.9 0 0 79.75 102.06
  Q 85.17 100.98 82.33 96.24
  Q 82.09 95.84 82.53 96.01
  Z
  M 64.61 101.39
  Q 67.62 96.44 62.43 98.31
  A 0.43 0.40 66.8 0 0 62.22 98.90
  L 63.39 101.27
  Q 63.97 102.45 64.61 101.39
  Z
  M 65.77 106.69
  C 65.79 106.40 66.24 106.48 66.44 106.58
  Q 69.06 107.86 71.02 105.79
  Q 73.59 103.10 70.51 101.23
  C 66.50 98.80 64.12 105.18 62.08 101.59
  A 1.50 1.01 77.4 0 0 61.41 100.96
  C 54.93 98.39 54.57 109.11 61.52 106.69
  Q 61.94 106.55 61.66 106.90
  C 57.92 111.79 66.00 115.62 67.30 109.78
  Q 67.72 107.92 66.05 107.05
  A 0.47 0.29 20.8 0 1 65.77 106.69
  Z
  M 103.99 111.48
  Q 103.96 111.36 103.98 111.27
  A 0.41 0.25 24.0 0 1 104.51 111.20
  Q 107.71 112.98 109.64 110.88
  C 113.55 106.61 106.45 101.63 103.57 106.45
  A 1.23 0.70 -70.3 0 1 102.92 107.01
  C 101.77 107.25 103.94 102.62 104.12 102.17
  A 0.41 0.35 -77.3 0 0 103.82 101.61
  L 100.19 101.61
  A 0.41 0.35 76.7 0 0 99.90 102.17
  C 100.55 103.69 102.01 107.05 101.21 107.07
  A 0.98 0.55 64.5 0 1 100.56 106.61
  C 96.18 100.11 88.54 110.22 97.00 112.02
  A 1.46 1.04 -46.6 0 0 97.91 111.84
  Q 98.66 111.39 99.52 111.41
  Q 100.03 111.42 99.64 111.79
  C 94.76 116.44 103.46 121.96 105.68 115.68
  Q 106.50 113.36 104.24 111.81
  A 0.65 0.40 21.4 0 1 103.99 111.48
  Z
  M 46.09 117.43
  Q 42.64 121.28 47.31 123.40
  A 1.27 1.26 48.5 0 0 48.23 123.46
  Q 53.32 121.85 50.10 117.44
  Q 49.78 116.99 50.29 117.15
  L 52.04 117.69
  A 1.66 1.03 33.8 0 0 52.98 117.72
  C 59.35 115.49 53.02 107.58 49.27 113.02
  Q 48.98 113.44 48.71 113.44
  A 0.54 0.38 -74.6 0 1 48.45 112.71
  L 49.95 109.21
  A 0.43 0.38 -70.5 0 0 49.72 108.64
  Q 48.02 108.20 46.20 108.67
  A 0.36 0.34 64.6 0 0 46.03 109.22
  Q 47.20 110.94 47.29 113.04
  Q 47.31 113.52 47.02 113.11
  Q 45.22 110.58 42.14 111.51
  A 1.51 1.43 -80.3 0 0 41.38 112.08
  Q 38.49 116.39 43.50 117.78
  A 1.54 0.59 -27.8 0 0 44.43 117.67
  L 45.94 117.14
  Q 46.55 116.92 46.09 117.43
  Z
  M 82.05 117.13
  L 84.04 117.67
  A 1.66 0.67 25.1 0 0 84.97 117.72
  Q 88.70 116.44 87.18 112.70
  A 1.53 1.50 -85.8 0 0 86.56 111.97
  Q 83.18 109.97 81.03 113.28
  A 0.34 0.21 -60.6 0 1 80.74 113.44
  L 80.55 113.39
  A 0.42 0.30 -69.6 0 1 80.40 112.86
  L 81.97 109.22
  A 0.44 0.40 -70.0 0 0 81.73 108.63
  Q 80.02 108.20 78.20 108.67
  A 0.36 0.34 64.6 0 0 78.03 109.22
  Q 79.20 110.94 79.29 113.04
  Q 79.31 113.52 79.02 113.11
  Q 77.22 110.58 74.14 111.51
  A 1.51 1.43 -80.3 0 0 73.38 112.08
  Q 70.49 116.35 75.51 117.79
  A 1.38 0.41 -24.4 0 0 76.43 117.66
  L 77.99 117.14
  Q 78.63 116.92 78.09 117.39
  C 73.99 120.96 79.74 125.61 82.46 122.44
  Q 84.77 119.74 81.96 117.38
  Q 81.47 116.97 82.05 117.13
  Z
  M 105.22 129.13
  A 5.83 5.83 0.0 0 0 99.39 123.30
  L 98.85 123.30
  A 5.83 5.83 0.0 0 0 93.02 129.13
  L 93.02 145.11
  A 5.83 5.83 0.0 0 0 98.85 150.94
  L 99.39 150.94
  A 5.83 5.83 0.0 0 0 105.22 145.11
  L 105.22 129.13
  Z
  M 111.24 124.26
  A 0.53 0.53 0.0 0 0 110.71 123.73
  L 108.03 123.73
  A 0.53 0.53 0.0 0 0 107.50 124.26
  L 107.50 150.20
  A 0.53 0.53 0.0 0 0 108.03 150.73
  L 110.71 150.73
  A 0.53 0.53 0.0 0 0 111.24 150.20
  L 111.24 124.26
  Z"
/>
<path fill="#2d261b" d="
  M 34.98 38.87
  A 5.83 5.83 0.0 0 1 29.15 44.70
  L 28.61 44.70
  A 5.83 5.83 0.0 0 1 22.78 38.87
  L 22.78 22.89
  A 5.83 5.83 0.0 0 1 28.61 17.06
  L 29.15 17.06
  A 5.83 5.83 0.0 0 1 34.98 22.89
  L 34.98 38.87
  Z
  M 31.23 22.82
  A 2.30 2.30 0.0 0 0 28.93 20.52
  L 28.81 20.52
  A 2.30 2.30 0.0 0 0 26.51 22.82
  L 26.51 38.92
  A 2.30 2.30 0.0 0 0 28.81 41.22
  L 28.93 41.22
  A 2.30 2.30 0.0 0 0 31.23 38.92
  L 31.23 22.82
  Z"
/>
<rect fill="#2d261b" x="16.76" y="17.27" width="3.74" height="27.00" rx="0.53"/>
<path fill="#f2f4f5" fill-opacity="0.973" d="
  M 14.96 17.50
  Q 14.00 21.03 14.00 21.75
  Q 14.00 84.50 14.00 147.25
  Q 14.00 148.78 17.00 152.96
  Q 14.07 150.42 13.46 146.50
  L 13.71 21.00
  L 14.96 17.50
  Z"
/>
<rect fill="#ffffff" x="26.51" y="20.52" width="4.72" height="20.70" rx="2.30"/>
<path fill="#020201" fill-opacity="0.196" d="
  M 13.71 21.00
  L 13.46 146.50
  L 11.29 143.67
  A 1.66 1.25 -69.8 0 1 11.01 142.75
  Q 10.98 82.91 11.11 23.06
  Q 11.12 20.38 13.71 21.00
  Z"
/>
<path fill="#2d261b" d="
  M 46.05 50.62
  Q 43.89 48.70 45.24 45.94
  A 1.39 1.31 0.5 0 1 45.94 45.29
  Q 51.38 43.05 51.16 49.07
  A 1.07 0.98 -19.5 0 1 50.74 49.86
  Q 48.12 51.83 51.81 50.35
  A 1.71 1.32 -43.1 0 1 52.76 50.26
  C 57.95 51.53 55.50 58.97 50.30 56.13
  A 1.87 1.01 76.2 0 1 49.66 55.42
  Q 48.94 54.12 47.40 54.51
  A 1.55 1.03 -70.8 0 0 46.65 55.08
  C 42.85 60.38 36.68 52.43 43.03 50.29
  A 1.61 0.56 22.8 0 1 43.96 50.35
  L 45.94 50.88
  Q 46.53 51.04 46.05 50.62
  Z"
/>
<path fill="#2d261b" d="
  M 78.05 50.62
  Q 75.89 48.70 77.24 45.94
  A 1.39 1.31 0.5 0 1 77.94 45.29
  Q 83.38 43.05 83.16 49.07
  A 1.07 0.98 -19.5 0 1 82.74 49.86
  Q 80.12 51.83 83.81 50.35
  A 1.71 1.32 -43.1 0 1 84.76 50.26
  C 89.95 51.53 87.50 58.97 82.30 56.13
  A 1.87 1.01 76.2 0 1 81.66 55.42
  Q 80.94 54.12 79.40 54.51
  A 1.55 1.03 -70.8 0 0 78.65 55.08
  C 74.85 60.38 68.68 52.43 75.03 50.29
  A 1.61 0.56 22.8 0 1 75.96 50.35
  L 77.94 50.88
  Q 78.53 51.04 78.05 50.62
  Z"
/>
<path fill="#2d261b" d="
  M 28.53 56.48
  Q 31.14 55.42 33.08 56.73
  C 38.46 60.37 30.27 67.12 27.41 61.28
  A 1.05 0.82 76.6 0 0 26.71 60.72
  C 23.33 60.29 21.53 67.43 17.36 60.95
  A 1.31 1.25 -58.1 0 1 17.17 60.04
  Q 18.04 54.37 23.34 56.66
  Q 24.01 56.95 23.58 56.36
  C 19.44 50.76 26.95 46.86 29.32 51.68
  Q 30.49 54.06 28.41 56.33
  Q 28.12 56.65 28.53 56.48
  Z"
/>
<path fill="#2d261b" d="
  M 46.12 58.48
  L 47.87 55.17
  Q 48.11 54.72 48.33 55.21
  L 49.98 58.74
  A 0.46 0.42 67.9 0 1 49.75 59.36
  Q 47.96 59.97 46.37 59.18
  A 0.53 0.51 26.8 0 1 46.12 58.48
  Z"
/>
<path fill="#2d261b" d="
  M 79.23 55.94
  Q 79.35 55.42 79.78 55.06
  A 0.41 0.39 58.6 0 1 80.40 55.23
  L 81.90 58.75
  A 0.45 0.44 -18.8 0 1 81.60 59.35
  Q 76.05 60.79 78.89 56.84
  Q 79.10 56.55 79.23 55.94
  Z"
/>
<path fill="#2d261b" d="
  M 61.88 61.05
  Q 58.78 56.99 63.77 55.24
  A 1.36 1.27 -42.2 0 1 64.70 55.25
  Q 68.51 56.80 66.54 60.96
  Q 66.25 61.58 66.89 61.33
  C 73.02 58.96 73.32 69.69 66.46 66.96
  A 1.51 0.99 78.3 0 1 65.81 66.31
  C 63.55 61.92 59.69 72.26 56.39 64.71
  A 1.36 1.28 43.2 0 1 56.33 63.77
  Q 57.61 59.91 61.72 61.27
  Q 62.16 61.41 61.88 61.05
  Z"
/>
<path fill="#2d261b" d="
  M 23.77 66.06
  L 25.72 61.38
  A 0.31 0.31 49.8 0 1 26.30 61.38
  L 28.22 66.08
  A 0.31 0.31 -5.1 0 1 27.93 66.50
  L 24.05 66.49
  A 0.31 0.31 14.4 0 1 23.77 66.06
  Z"
/>
<path fill="#2d261b" d="
  M 62.18 69.73
  A 0.15 0.14 20.4 0 1 62.08 69.53
  L 63.74 66.11
  Q 64.00 65.56 64.26 66.08
  L 65.83 69.24
  A 0.47 0.43 -19.3 0 1 65.50 69.86
  Q 63.92 70.27 62.18 69.73
  Z"
/>
<path fill="#2d261b" d="
  M 45.84 71.81
  C 43.74 69.36 44.91 65.98 48.20 65.93
  C 51.37 65.88 52.19 70.06 49.92 72.15
  Q 49.62 72.42 49.99 72.25
  Q 54.86 69.94 55.57 75.31
  A 1.20 1.20 -30.2 0 1 55.33 76.21
  Q 52.19 80.31 49.03 76.12
  A 0.90 0.78 65.6 0 0 48.24 75.76
  Q 46.69 76.00 45.86 77.24
  A 1.69 1.10 -72.6 0 1 45.13 77.84
  C 38.85 79.95 38.79 69.45 45.72 72.00
  Q 46.14 72.15 45.84 71.81
  Z"
/>
<path fill="#2d261b" d="
  M 77.89 71.79
  Q 74.65 67.27 80.28 65.90
  A 1.18 1.15 -34.4 0 1 81.20 66.06
  Q 85.15 68.66 81.89 72.11
  Q 81.58 72.44 81.98 72.25
  Q 86.92 70.01 87.60 75.28
  A 1.31 1.30 59.3 0 1 87.37 76.19
  Q 84.39 80.36 81.09 76.14
  A 1.29 1.28 45.4 0 0 79.08 76.12
  Q 75.21 80.92 72.40 75.49
  A 1.24 1.23 40.3 0 1 72.32 74.56
  Q 73.65 70.43 77.73 71.99
  Q 78.16 72.16 77.89 71.79
  Z"
/>
<path fill="#2d261b" d="
  M 47.88 76.56
  Q 48.18 76.14 48.38 76.61
  L 49.79 79.97
  A 0.47 0.46 -18.9 0 1 49.48 80.59
  Q 43.92 82.13 47.88 76.56
  Z"
/>
<path fill="#2d261b" d="
  M 79.88 76.56
  Q 80.18 76.14 80.38 76.61
  L 81.79 79.97
  A 0.47 0.46 -18.9 0 1 81.48 80.59
  Q 75.92 82.13 79.88 76.56
  Z"
/>
<path fill="#2d261b" d="
  M 48.80 91.76
  L 49.07 91.72
  A 0.76 0.38 -63.7 0 0 49.49 91.40
  C 52.93 86.69 59.00 93.48 53.21 96.37
  A 1.49 1.07 32.0 0 1 52.27 96.43
  L 50.27 95.92
  Q 49.83 95.80 50.10 96.19
  L 51.08 97.58
  A 1.50 1.08 -66.4 0 1 51.28 98.51
  Q 50.75 103.28 46.17 101.48
  A 1.53 1.40 -2.6 0 1 45.44 100.87
  Q 43.73 97.95 46.31 95.89
  Q 46.66 95.61 46.24 95.72
  L 43.54 96.42
  A 1.37 1.23 -35.7 0 1 42.60 96.32
  C 37.11 93.40 43.16 86.76 46.50 91.37
  A 0.98 0.57 63.3 0 0 47.19 91.82
  C 47.98 91.77 46.71 89.14 46.15 87.90
  A 0.39 0.35 76.3 0 1 46.44 87.35
  L 49.55 87.35
  A 0.42 0.35 -76.7 0 1 49.84 87.92
  L 48.49 91.22
  Q 48.24 91.84 48.80 91.76
  Z"
/>
<path fill="#2d261b" d="
  M 80.55 91.08
  Q 80.01 92.43 79.45 91.08
  L 78.15 87.91
  A 0.41 0.35 77.1 0 1 78.44 87.35
  L 81.56 87.35
  A 0.42 0.34 -77.0 0 1 81.84 87.92
  L 80.55 91.08
  Z"
/>
<path fill="#2d261b" d="
  M 82.33 96.24
  Q 85.17 100.98 79.75 102.06
  A 1.35 1.29 -33.9 0 1 78.81 101.90
  Q 75.07 99.66 77.86 96.31
  Q 78.22 95.89 77.71 95.89
  Q 76.92 95.91 76.17 96.33
  A 1.34 0.98 -44.9 0 1 75.27 96.47
  C 68.95 94.66 74.58 86.24 78.60 91.48
  A 1.31 0.99 68.8 0 0 79.39 91.97
  Q 81.34 92.17 82.39 90.52
  A 1.28 0.98 -74.5 0 1 83.12 89.97
  C 89.37 88.65 88.83 98.40 82.53 96.01
  Q 82.09 95.84 82.33 96.24
  Z"
/>
<path fill="#2d261b" d="
  M 64.61 101.39
  Q 63.97 102.45 63.39 101.27
  L 62.22 98.90
  A 0.43 0.40 66.8 0 1 62.43 98.31
  Q 67.62 96.44 64.61 101.39
  Z"
/>
<path fill="#2d261b" d="
  M 66.05 107.05
  Q 67.72 107.92 67.30 109.78
  C 66.00 115.62 57.92 111.79 61.66 106.90
  Q 61.94 106.55 61.52 106.69
  C 54.57 109.11 54.93 98.39 61.41 100.96
  A 1.50 1.01 77.4 0 1 62.08 101.59
  C 64.12 105.18 66.50 98.80 70.51 101.23
  Q 73.59 103.10 71.02 105.79
  Q 69.06 107.86 66.44 106.58
  C 66.24 106.48 65.79 106.40 65.77 106.69
  A 0.47 0.29 20.8 0 0 66.05 107.05
  Z"
/>
<path fill="#2d261b" d="
  M 104.24 111.81
  Q 106.50 113.36 105.68 115.68
  C 103.46 121.96 94.76 116.44 99.64 111.79
  Q 100.03 111.42 99.52 111.41
  Q 98.66 111.39 97.91 111.84
  A 1.46 1.04 -46.6 0 1 97.00 112.02
  C 88.54 110.22 96.18 100.11 100.56 106.61
  A 0.98 0.55 64.5 0 0 101.21 107.07
  C 102.01 107.05 100.55 103.69 99.90 102.17
  A 0.41 0.35 76.7 0 1 100.19 101.61
  L 103.82 101.61
  A 0.41 0.35 -77.3 0 1 104.12 102.17
  C 103.94 102.62 101.77 107.25 102.92 107.01
  A 1.23 0.70 -70.3 0 0 103.57 106.45
  C 106.45 101.63 113.55 106.61 109.64 110.88
  Q 107.71 112.98 104.51 111.20
  A 0.41 0.25 24.0 0 0 103.98 111.27
  Q 103.96 111.36 103.99 111.48
  A 0.65 0.40 21.4 0 0 104.24 111.81
  Z"
/>
<path fill="#2d261b" d="
  M 45.94 117.14
  L 44.43 117.67
  A 1.54 0.59 -27.8 0 1 43.50 117.78
  Q 38.49 116.39 41.38 112.08
  A 1.51 1.43 -80.3 0 1 42.14 111.51
  Q 45.22 110.58 47.02 113.11
  Q 47.31 113.52 47.29 113.04
  Q 47.20 110.94 46.03 109.22
  A 0.36 0.34 64.6 0 1 46.20 108.67
  Q 48.02 108.20 49.72 108.64
  A 0.43 0.38 -70.5 0 1 49.95 109.21
  L 48.45 112.71
  A 0.54 0.38 -74.6 0 0 48.71 113.44
  Q 48.98 113.44 49.27 113.02
  C 53.02 107.58 59.35 115.49 52.98 117.72
  A 1.66 1.03 33.8 0 1 52.04 117.69
  L 50.29 117.15
  Q 49.78 116.99 50.10 117.44
  Q 53.32 121.85 48.23 123.46
  A 1.27 1.26 48.5 0 1 47.31 123.40
  Q 42.64 121.28 46.09 117.43
  Q 46.55 116.92 45.94 117.14
  Z"
/>
<path fill="#2d261b" d="
  M 81.96 117.38
  Q 84.77 119.74 82.46 122.44
  C 79.74 125.61 73.99 120.96 78.09 117.39
  Q 78.63 116.92 77.99 117.14
  L 76.43 117.66
  A 1.38 0.41 -24.4 0 1 75.51 117.79
  Q 70.49 116.35 73.38 112.08
  A 1.51 1.43 -80.3 0 1 74.14 111.51
  Q 77.22 110.58 79.02 113.11
  Q 79.31 113.52 79.29 113.04
  Q 79.20 110.94 78.03 109.22
  A 0.36 0.34 64.6 0 1 78.20 108.67
  Q 80.02 108.20 81.73 108.63
  A 0.44 0.40 -70.0 0 1 81.97 109.22
  L 80.40 112.86
  A 0.42 0.30 -69.6 0 0 80.55 113.39
  L 80.74 113.44
  A 0.34 0.21 -60.6 0 0 81.03 113.28
  Q 83.18 109.97 86.56 111.97
  A 1.53 1.50 -85.8 0 1 87.18 112.70
  Q 88.70 116.44 84.97 117.72
  A 1.66 0.67 25.1 0 1 84.04 117.67
  L 82.05 117.13
  Q 81.47 116.97 81.96 117.38
  Z"
/>
<path fill="#2d261b" d="
  M 105.22 145.11
  A 5.83 5.83 0.0 0 1 99.39 150.94
  L 98.85 150.94
  A 5.83 5.83 0.0 0 1 93.02 145.11
  L 93.02 129.13
  A 5.83 5.83 0.0 0 1 98.85 123.30
  L 99.39 123.30
  A 5.83 5.83 0.0 0 1 105.22 129.13
  L 105.22 145.11
  Z
  M 101.49 129.07
  A 2.30 2.30 0.0 0 0 99.19 126.77
  L 99.05 126.77
  A 2.30 2.30 0.0 0 0 96.75 129.07
  L 96.75 145.17
  A 2.30 2.30 0.0 0 0 99.05 147.47
  L 99.19 147.47
  A 2.30 2.30 0.0 0 0 101.49 145.17
  L 101.49 129.07
  Z"
/>
<rect fill="#2d261b" x="107.50" y="123.73" width="3.74" height="27.00" rx="0.53"/>
<rect fill="#ffffff" x="96.75" y="126.77" width="4.74" height="20.70" rx="2.30"/>
</svg>
