<?xml version="1.0" encoding="UTF-8" standalone="no"?>
<svg xmlns="http://www.w3.org/2000/svg" version="1.2" baseProfile="tiny" viewBox="0 0 128 168">
<g stroke-width="0.00" fill="none" stroke-linecap="butt">
<path stroke="#e3e3e3" stroke-opacity="0.561" vector-effect="non-scaling-stroke" d="
  M 17.00 152.96
  Q 19.66 155.18 22.06 155.19
  Q 37.53 155.26 53.00 155.29"
/>
<path stroke="#e3e3e3" stroke-opacity="0.561" vector-effect="non-scaling-stroke" d="
  M 99.98 155.16
  Q 111.77 157.38 114.54 146.50"
/>
<path stroke="#e3e3e3" stroke-opacity="0.561" vector-effect="non-scaling-stroke" d="
  M 114.51 26.26
  C 115.88 16.30 110.58 12.73 101.69 12.73
  Q 63.19 12.76 24.80 12.76
  C 19.54 12.76 16.07 14.13 14.21 19.00"
/>
<path stroke="#d6d7d7" stroke-opacity="0.596" vector-effect="non-scaling-stroke" d="
  M 114.51 26.26
  L 114.54 146.50"
/>
<path stroke="#cacaca" stroke-opacity="0.635" vector-effect="non-scaling-stroke" d="
  M 99.98 155.16
  L 53.00 155.29"
/>
<path stroke="#f9f9fa" stroke-opacity="0.988" vector-effect="non-scaling-stroke" d="
  M 17.00 152.96
  Q 14.03 148.82 14.00 147.25
  Q 13.60 125.84 14.21 19.00"
/>
<path stroke="#96938d" vector-effect="non-scaling-stroke" d="
  M 31.67 29.20
  C 39.01 21.33 25.74 12.30 19.39 20.46
  Q 16.22 24.53 19.99 29.39
  A 0.53 0.52 49.5 0 1 19.94 30.11
  C 10.98 38.28 24.00 49.77 32.22 41.84
  Q 37.71 36.54 31.65 29.92
  A 0.54 0.51 -45.0 0 1 31.67 29.20"
/>
<path stroke="#96938d" vector-effect="non-scaling-stroke" d="
  M 45.96 50.83
  L 43.51 50.31
  A 1.55 1.39 35.8 0 0 42.56 50.41
  C 36.86 53.19 43.23 60.18 46.76 54.97
  A 1.24 0.93 -71.9 0 1 47.52 54.44
  Q 48.99 54.23 49.66 55.43
  A 1.80 0.93 75.2 0 0 50.29 56.13
  C 55.44 58.90 57.98 51.54 52.76 50.26
  A 1.71 1.32 -43.1 0 0 51.81 50.35
  Q 48.12 51.83 50.74 49.86
  A 1.10 1.00 -18.9 0 0 51.17 49.07
  Q 51.37 43.05 45.95 45.30
  A 1.33 1.30 1.6 0 0 45.26 45.94
  Q 43.93 48.68 46.06 50.62
  Q 46.39 50.92 45.96 50.83"
/>
<path stroke="#96938d" vector-effect="non-scaling-stroke" d="
  M 77.94 50.88
  L 75.96 50.35
  A 1.61 0.56 22.8 0 0 75.03 50.29
  C 68.68 52.43 74.85 60.38 78.65 55.08
  A 1.55 1.03 -70.8 0 1 79.40 54.51
  Q 80.94 54.11 81.65 55.42
  A 1.88 0.96 75.6 0 0 82.28 56.13
  C 87.45 58.92 90.03 51.55 84.76 50.26
  A 1.71 1.32 -43.1 0 0 83.81 50.35
  Q 80.12 51.83 82.74 49.86
  A 1.07 0.98 -19.5 0 0 83.16 49.07
  Q 83.38 43.05 77.94 45.29
  A 1.39 1.31 0.5 0 0 77.24 45.94
  Q 75.89 48.70 78.05 50.62
  Q 78.53 51.04 77.94 50.88"
/>
<path stroke="#96938d" vector-effect="non-scaling-stroke" d="
  M 23.46 56.57
  C 11.69 53.67 19.37 69.75 24.64 61.11
  A 0.90 0.62 -71.6 0 1 25.20 60.69
  C 26.39 60.53 24.05 65.34 23.86 65.81
  A 0.42 0.36 -77.3 0 0 24.16 66.38
  L 27.82 66.39
  A 0.42 0.36 77.7 0 0 28.12 65.82
  L 26.43 61.44
  A 0.64 0.49 67.9 0 1 26.64 60.68
  C 27.13 60.46 29.05 65.12 33.44 62.69
  Q 36.30 61.11 34.51 58.27
  Q 32.32 54.78 28.63 56.70
  C 28.28 56.88 27.65 56.67 28.23 56.23
  Q 30.56 54.51 29.41 51.79
  C 27.37 46.91 19.06 50.72 23.61 56.31
  Q 23.92 56.68 23.46 56.57"
/>
<path stroke="#96938d" vector-effect="non-scaling-stroke" d="
  M 46.37 59.18
  Q 47.87 59.92 49.67 59.42
  A 0.45 0.44 -20.1 0 0 49.96 58.81
  L 48.24 55.12
  Q 48.01 54.62 47.76 55.13
  L 46.14 58.48
  A 0.53 0.52 -63.7 0 0 46.37 59.18"
/>
<path stroke="#96938d" vector-effect="non-scaling-stroke" d="
  M 79.71 55.14
  L 78.02 58.71
  A 0.45 0.42 -68.9 0 0 78.27 59.32
  Q 79.98 59.82 81.75 59.36
  A 0.45 0.40 70.4 0 0 81.99 58.77
  L 80.41 55.18
  Q 80.07 54.39 79.71 55.14"
/>
<path stroke="#96938d" vector-effect="non-scaling-stroke" d="
  M 61.94 66.88
  L 59.96 66.35
  A 1.61 0.56 22.8 0 0 59.03 66.29
  C 52.68 68.43 58.85 76.38 62.65 71.08
  A 1.55 1.03 -70.8 0 1 63.40 70.51
  Q 64.94 70.11 65.65 71.42
  A 1.79 0.94 75.8 0 0 66.29 72.13
  C 71.44 74.90 73.98 67.54 68.76 66.26
  A 1.71 1.32 -43.1 0 0 67.81 66.35
  Q 64.12 67.83 66.74 65.86
  A 1.07 0.98 -19.5 0 0 67.16 65.07
  Q 67.38 59.05 61.94 61.29
  A 1.39 1.31 0.5 0 0 61.24 61.94
  Q 59.89 64.70 62.05 66.62
  Q 62.53 67.04 61.94 66.88"
/>
<path stroke="#96938d" vector-effect="non-scaling-stroke" d="
  M 63.69 71.17
  L 62.02 74.71
  A 0.45 0.42 -68.9 0 0 62.27 75.32
  Q 63.98 75.82 65.76 75.35
  A 0.44 0.38 70.5 0 0 65.98 74.77
  L 64.43 71.22
  Q 64.07 70.39 63.69 71.17"
/>
<path stroke="#96938d" vector-effect="non-scaling-stroke" d="
  M 77.94 82.88
  L 75.96 82.35
  A 1.61 0.56 22.8 0 0 75.03 82.29
  C 68.68 84.43 74.85 92.38 78.65 87.08
  A 1.55 1.03 -70.8 0 1 79.40 86.51
  Q 80.94 86.11 81.65 87.42
  A 1.79 0.94 75.8 0 0 82.29 88.13
  C 87.44 90.90 89.98 83.54 84.76 82.26
  A 1.71 1.32 -43.1 0 0 83.81 82.35
  Q 80.12 83.83 82.74 81.86
  A 1.06 1.01 -17.7 0 0 83.17 81.07
  Q 83.36 75.04 77.95 77.30
  A 1.38 1.34 0.9 0 0 77.26 77.95
  Q 75.88 80.70 78.05 82.62
  Q 78.53 83.04 77.94 82.88"
/>
<path stroke="#96938d" vector-effect="non-scaling-stroke" d="
  M 45.93 82.90
  L 44.20 82.41
  Q 43.52 82.22 43.27 82.27
  C 38.07 83.38 40.55 90.32 44.92 88.52
  C 46.31 87.94 47.32 85.25 49.19 86.92
  C 55.21 92.31 58.21 83.58 52.75 82.26
  A 1.82 1.39 -42.8 0 0 51.80 82.35
  Q 48.25 83.77 50.55 82.00
  A 1.43 1.28 -15.2 0 0 51.07 81.20
  Q 52.01 76.54 47.29 76.72
  A 1.57 1.51 23.7 0 0 46.39 77.05
  Q 43.11 79.66 46.07 82.59
  Q 46.56 83.07 45.93 82.90"
/>
<path stroke="#96938d" vector-effect="non-scaling-stroke" d="
  M 47.72 87.12
  L 46.10 90.81
  A 0.44 0.42 17.5 0 0 46.42 91.40
  Q 48.07 91.75 49.75 91.35
  A 0.43 0.37 71.2 0 0 49.98 90.78
  L 48.42 87.18
  Q 48.06 86.36 47.72 87.12"
/>
<path stroke="#96938d" vector-effect="non-scaling-stroke" d="
  M 78.89 88.84
  Q 76.05 92.79 81.60 91.35
  A 0.45 0.44 -18.8 0 0 81.90 90.75
  L 80.40 87.23
  A 0.41 0.39 58.6 0 0 79.78 87.06
  Q 79.35 87.42 79.23 87.94
  Q 79.10 88.55 78.89 88.84"
/>
<path stroke="#96938d" vector-effect="non-scaling-stroke" d="
  M 66.05 101.13
  L 68.05 101.68
  A 1.66 0.74 26.5 0 0 68.98 101.72
  C 75.23 99.54 69.23 91.47 65.18 97.17
  Q 64.92 97.53 64.65 97.45
  A 0.54 0.42 -69.0 0 1 64.44 96.77
  L 65.95 93.22
  A 0.44 0.38 -70.7 0 0 65.72 92.64
  Q 64.02 92.20 62.20 92.67
  A 0.37 0.34 65.2 0 0 62.02 93.22
  Q 63.19 94.93 63.29 97.04
  Q 63.32 97.54 63.02 97.13
  C 59.07 91.64 52.60 99.30 59.02 101.71
  A 1.72 1.23 -34.3 0 0 59.97 101.73
  L 61.99 101.17
  Q 62.46 101.04 62.09 101.38
  C 58.01 104.99 63.74 109.61 66.46 106.44
  Q 68.77 103.74 65.96 101.38
  Q 65.47 100.96 66.05 101.13"
/>
<path stroke="#96938d" vector-effect="non-scaling-stroke" d="
  M 103.99 111.48
  Q 103.95 111.34 103.99 111.25
  A 0.44 0.25 25.5 0 1 104.53 111.21
  C 111.97 115.20 113.20 102.56 105.25 104.85
  A 1.77 1.28 -71.4 0 0 104.48 105.40
  L 103.50 106.61
  A 1.04 0.63 -59.9 0 1 102.75 107.02
  C 101.97 106.92 103.89 102.72 104.12 102.17
  A 0.41 0.35 -77.3 0 0 103.82 101.61
  L 100.19 101.61
  A 0.41 0.35 77.3 0 0 99.89 102.17
  C 99.92 102.23 102.35 109.24 100.54 106.60
  Q 98.18 103.14 94.43 105.45
  Q 91.59 107.20 93.54 109.93
  C 96.05 113.43 99.45 110.89 99.93 111.32
  A 0.32 0.22 -41.8 0 1 99.84 111.71
  C 94.53 116.21 103.42 122.08 105.68 115.68
  Q 106.50 113.37 104.25 111.81
  A 0.64 0.38 21.2 0 1 103.99 111.48"
/>
<path stroke="#96938d" vector-effect="non-scaling-stroke" d="
  M 50.05 117.13
  L 52.05 117.68
  A 1.62 0.68 25.4 0 0 52.98 117.72
  C 59.35 115.48 53.02 107.58 49.27 113.02
  Q 48.98 113.44 48.71 113.44
  A 0.53 0.38 -74.6 0 1 48.45 112.72
  L 49.95 109.21
  A 0.43 0.38 -70.5 0 0 49.72 108.64
  Q 48.02 108.21 46.23 108.65
  A 0.44 0.36 72.1 0 0 46.01 109.21
  L 47.42 112.95
  Q 47.68 113.63 47.02 113.31
  Q 46.63 113.13 46.40 112.70
  Q 46.07 112.11 45.83 111.93
  C 41.77 108.98 37.20 115.60 43.26 117.77
  A 1.47 0.54 -25.0 0 0 44.18 117.69
  L 45.98 117.13
  Q 46.60 116.94 46.09 117.39
  C 42.00 120.97 47.74 125.61 50.46 122.44
  Q 52.77 119.74 49.96 117.38
  Q 49.47 116.96 50.05 117.13"
/>
<path stroke="#96938d" vector-effect="non-scaling-stroke" d="
  M 82.05 117.13
  L 84.05 117.68
  A 1.62 0.68 25.4 0 0 84.98 117.72
  C 91.35 115.48 85.02 107.58 81.27 113.02
  Q 80.98 113.44 80.71 113.44
  A 0.55 0.38 -75.0 0 1 80.45 112.71
  L 81.95 109.21
  A 0.43 0.38 -70.5 0 0 81.72 108.64
  Q 80.02 108.20 78.20 108.67
  A 0.36 0.34 65.0 0 0 78.02 109.21
  Q 79.20 110.92 79.28 113.05
  Q 79.30 113.55 79.01 113.14
  C 75.08 107.63 68.60 115.30 75.02 117.71
  A 1.72 1.23 -34.3 0 0 75.97 117.73
  L 77.99 117.17
  Q 78.46 117.04 78.09 117.38
  C 74.01 120.99 79.74 125.61 82.46 122.44
  Q 84.77 119.74 81.96 117.38
  Q 81.47 116.96 82.05 117.13"
/>
<path stroke="#96938d" vector-effect="non-scaling-stroke" d="
  M 107.80 138.68
  A 0.51 0.51 52.3 0 1 107.88 137.96
  C 113.02 133.84 111.46 125.94 105.23 124.02
  C 96.41 121.32 88.59 131.22 96.41 137.95
  A 0.46 0.46 42.5 0 1 96.44 138.62
  C 89.09 146.24 101.52 155.51 108.36 147.85
  Q 112.01 143.77 107.80 138.68"
/>
<path stroke="#96938d" vector-effect="non-scaling-stroke" d="
  M 30.23 24.50
  A 4.35 3.70 0.0 0 0 25.88 20.80
  A 4.35 3.70 0.0 0 0 21.53 24.50
  A 4.35 3.70 0.0 0 0 25.88 28.20
  A 4.35 3.70 0.0 0 0 30.23 24.50"
/>
<path stroke="#96938d" vector-effect="non-scaling-stroke" d="
  M 31.1798 36.3436
  A 5.32 4.55 -0.5 0 0 25.8203 31.8402
  A 5.32 4.55 -0.5 0 0 20.5402 36.4364
  A 5.32 4.55 -0.5 0 0 25.8997 40.9398
  A 5.32 4.55 -0.5 0 0 31.1798 36.3436"
/>
<path stroke="#96938d" vector-effect="non-scaling-stroke" d="
  M 107.45 131.62
  A 5.30 4.54 0.0 0 0 102.15 127.08
  A 5.30 4.54 0.0 0 0 96.85 131.62
  A 5.30 4.54 0.0 0 0 102.15 136.16
  A 5.30 4.54 0.0 0 0 107.45 131.62"
/>
<path stroke="#96938d" vector-effect="non-scaling-stroke" d="
  M 106.4499 143.5303
  A 4.34 3.66 0.4 0 0 102.1356 139.8401
  A 4.34 3.66 0.4 0 0 97.7701 143.4697
  A 4.34 3.66 0.4 0 0 102.0844 147.1599
  A 4.34 3.66 0.4 0 0 106.4499 143.5303"
/>
</g>
<path fill="#000000" fill-opacity="0.122" d="
  M 112.31 9.58
  C 114.88 9.22 117.85 15.07 118.80 17.04
  Q 118.99 17.43 118.99 17.99
  Q 118.98 19.11 119.42 21.31
  Q 120.39 26.32 119.43 32.96
  A 1.12 0.56 38.4 0 0 119.78 33.71
  Q 120.11 34.06 119.82 34.64
  Q 119.56 35.18 119.56 35.56
  Q 119.50 76.13 119.53 116.70
  C 119.54 123.35 119.89 135.92 119.52 145.56
  C 119.43 147.83 118.33 149.72 118.34 152.26
  A 3.54 0.58 -46.4 0 1 116.67 154.70
  Q 115.75 155.73 114.30 155.97
  A 1.49 1.36 13.8 0 0 113.48 156.42
  Q 111.51 158.62 108.75 159.64
  A 2.05 1.23 28.0 0 1 107.78 159.69
  Q 106.08 159.38 104.86 160.40
  A 1.49 1.11 -58.4 0 1 104.01 160.74
  L 20.56 160.72
  A 0.69 0.56 79.8 0 1 19.99 160.23
  Q 19.76 159.45 18.70 159.65
  A 0.70 0.65 67.2 0 1 18.00 159.33
  Q 17.43 158.40 16.18 158.69
  A 1.01 0.75 -24.8 0 1 15.32 158.51
  L 9.54 152.90
  A 1.17 0.83 -71.3 0 1 9.28 152.04
  Q 9.45 150.27 8.04 149.20
  Q 7.24 148.59 7.24 144.75
  L 7.25 87.26
  A 1.49 1.05 -32.1 0 1 7.61 86.40
  C 8.40 85.47 8.00 76.83 8.00 75.08
  C 7.99 74.09 7.26 73.41 7.26 72.54
  Q 7.23 50.40 7.28 28.25
  Q 7.28 26.03 8.12 24.40
  A 1.60 1.55 -36.4 0 0 8.28 23.46
  C 7.60 18.25 11.42 12.43 15.13 9.35
  A 1.64 0.95 12.7 0 1 16.03 9.07
  Q 16.89 9.05 17.20 8.27
  A 0.69 0.64 -77.4 0 1 17.82 7.84
  Q 18.63 7.85 19.06 7.23
  A 1.06 0.79 -69.3 0 1 19.78 6.77
  C 22.82 6.69 26.01 6.03 28.83 6.03
  Q 67.01 6.00 105.18 6.02
  A 0.57 0.41 3.6 0 1 105.77 6.50
  L 105.71 6.83
  A 0.32 0.24 -80.6 0 0 105.89 7.18
  C 106.22 7.22 109.85 7.12 109.85 7.78
  A 0.36 0.32 84.8 0 0 110.24 8.14
  Q 111.67 7.84 111.80 9.20
  A 0.46 0.44 -7.0 0 0 112.31 9.58
  Z
  M 14.21 19.00
  L 13.50 21.29
  L 11.97 19.62
  Q 11.23 18.80 11.44 19.85
  C 11.83 21.74 11.00 23.43 11.00 25.06
  Q 11.00 83.91 11.00 142.76
  A 1.59 1.21 -70.0 0 0 11.28 143.66
  L 13.46 146.50
  Q 14.07 150.42 17.00 152.96
  Q 19.66 155.18 22.06 155.19
  Q 37.53 155.26 53.00 155.29
  C 50.25 155.50 42.33 155.13 41.50 155.62
  A 1.19 0.18 -32.8 0 1 40.68 155.99
  C 38.99 155.99 21.73 155.71 21.80 156.50
  A 0.76 0.45 -1.1 0 0 22.54 156.92
  C 29.82 156.96 106.06 157.43 106.19 156.40
  A 0.64 0.37 2.4 0 0 105.54 155.99
  L 99.29 155.95
  Q 98.35 155.94 99.13 155.57
  L 99.98 155.16
  Q 111.77 157.38 114.54 146.50
  Q 115.01 149.51 116.15 148.32
  C 117.18 147.24 117.44 142.64 117.43 141.75
  Q 117.06 105.75 117.24 69.75
  C 117.24 68.90 116.87 67.53 116.89 66.50
  Q 117.23 46.65 117.28 26.80
  C 117.28 24.32 115.97 22.40 115.95 19.77
  A 0.27 0.20 -86.4 0 0 115.78 19.51
  L 115.61 19.48
  A 0.44 0.27 -83.2 0 0 115.28 19.89
  L 114.51 26.26
  C 115.88 16.30 110.58 12.73 101.69 12.73
  Q 63.19 12.76 24.80 12.76
  C 19.54 12.76 16.07 14.13 14.21 19.00
  Z"
/>
<path fill="#ffffff" d="
  M 114.51 26.26
  L 114.54 146.50
  Q 111.77 157.38 99.98 155.16
  L 53.00 155.29
  Q 37.53 155.26 22.06 155.19
  Q 19.66 155.18 17.00 152.96
  Q 14.03 148.82 14.00 147.25
  Q 13.60 125.84 14.21 19.00
  C 16.07 14.13 19.54 12.76 24.80 12.76
  Q 63.19 12.76 101.69 12.73
  C 110.58 12.73 115.88 16.30 114.51 26.26
  Z
  M 31.67 29.20
  C 39.01 21.33 25.74 12.30 19.39 20.46
  Q 16.22 24.53 19.99 29.39
  A 0.53 0.52 49.5 0 1 19.94 30.11
  C 10.98 38.28 24.00 49.77 32.22 41.84
  Q 37.71 36.54 31.65 29.92
  A 0.54 0.51 -45.0 0 1 31.67 29.20
  Z
  M 45.96 50.83
  L 43.51 50.31
  A 1.55 1.39 35.8 0 0 42.56 50.41
  C 36.86 53.19 43.23 60.18 46.76 54.97
  A 1.24 0.93 -71.9 0 1 47.52 54.44
  Q 48.99 54.23 49.66 55.43
  A 1.80 0.93 75.2 0 0 50.29 56.13
  C 55.44 58.90 57.98 51.54 52.76 50.26
  A 1.71 1.32 -43.1 0 0 51.81 50.35
  Q 48.12 51.83 50.74 49.86
  A 1.10 1.00 -18.9 0 0 51.17 49.07
  Q 51.37 43.05 45.95 45.30
  A 1.33 1.30 1.6 0 0 45.26 45.94
  Q 43.93 48.68 46.06 50.62
  Q 46.39 50.92 45.96 50.83
  Z
  M 77.94 50.88
  L 75.96 50.35
  A 1.61 0.56 22.8 0 0 75.03 50.29
  C 68.68 52.43 74.85 60.38 78.65 55.08
  A 1.55 1.03 -70.8 0 1 79.40 54.51
  Q 80.94 54.11 81.65 55.42
  A 1.88 0.96 75.6 0 0 82.28 56.13
  C 87.45 58.92 90.03 51.55 84.76 50.26
  A 1.71 1.32 -43.1 0 0 83.81 50.35
  Q 80.12 51.83 82.74 49.86
  A 1.07 0.98 -19.5 0 0 83.16 49.07
  Q 83.38 43.05 77.94 45.29
  A 1.39 1.31 0.5 0 0 77.24 45.94
  Q 75.89 48.70 78.05 50.62
  Q 78.53 51.04 77.94 50.88
  Z
  M 23.46 56.57
  C 11.69 53.67 19.37 69.75 24.64 61.11
  A 0.90 0.62 -71.6 0 1 25.20 60.69
  C 26.39 60.53 24.05 65.34 23.86 65.81
  A 0.42 0.36 -77.3 0 0 24.16 66.38
  L 27.82 66.39
  A 0.42 0.36 77.7 0 0 28.12 65.82
  L 26.43 61.44
  A 0.64 0.49 67.9 0 1 26.64 60.68
  C 27.13 60.46 29.05 65.12 33.44 62.69
  Q 36.30 61.11 34.51 58.27
  Q 32.32 54.78 28.63 56.70
  C 28.28 56.88 27.65 56.67 28.23 56.23
  Q 30.56 54.51 29.41 51.79
  C 27.37 46.91 19.06 50.72 23.61 56.31
  Q 23.92 56.68 23.46 56.57
  Z
  M 46.37 59.18
  Q 47.87 59.92 49.67 59.42
  A 0.45 0.44 -20.1 0 0 49.96 58.81
  L 48.24 55.12
  Q 48.01 54.62 47.76 55.13
  L 46.14 58.48
  A 0.53 0.52 -63.7 0 0 46.37 59.18
  Z
  M 79.71 55.14
  L 78.02 58.71
  A 0.45 0.42 -68.9 0 0 78.27 59.32
  Q 79.98 59.82 81.75 59.36
  A 0.45 0.40 70.4 0 0 81.99 58.77
  L 80.41 55.18
  Q 80.07 54.39 79.71 55.14
  Z
  M 61.94 66.88
  L 59.96 66.35
  A 1.61 0.56 22.8 0 0 59.03 66.29
  C 52.68 68.43 58.85 76.38 62.65 71.08
  A 1.55 1.03 -70.8 0 1 63.40 70.51
  Q 64.94 70.11 65.65 71.42
  A 1.79 0.94 75.8 0 0 66.29 72.13
  C 71.44 74.90 73.98 67.54 68.76 66.26
  A 1.71 1.32 -43.1 0 0 67.81 66.35
  Q 64.12 67.83 66.74 65.86
  A 1.07 0.98 -19.5 0 0 67.16 65.07
  Q 67.38 59.05 61.94 61.29
  A 1.39 1.31 0.5 0 0 61.24 61.94
  Q 59.89 64.70 62.05 66.62
  Q 62.53 67.04 61.94 66.88
  Z
  M 63.69 71.17
  L 62.02 74.71
  A 0.45 0.42 -68.9 0 0 62.27 75.32
  Q 63.98 75.82 65.76 75.35
  A 0.44 0.38 70.5 0 0 65.98 74.77
  L 64.43 71.22
  Q 64.07 70.39 63.69 71.17
  Z
  M 77.94 82.88
  L 75.96 82.35
  A 1.61 0.56 22.8 0 0 75.03 82.29
  C 68.68 84.43 74.85 92.38 78.65 87.08
  A 1.55 1.03 -70.8 0 1 79.40 86.51
  Q 80.94 86.11 81.65 87.42
  A 1.79 0.94 75.8 0 0 82.29 88.13
  C 87.44 90.90 89.98 83.54 84.76 82.26
  A 1.71 1.32 -43.1 0 0 83.81 82.35
  Q 80.12 83.83 82.74 81.86
  A 1.06 1.01 -17.7 0 0 83.17 81.07
  Q 83.36 75.04 77.95 77.30
  A 1.38 1.34 0.9 0 0 77.26 77.95
  Q 75.88 80.70 78.05 82.62
  Q 78.53 83.04 77.94 82.88
  Z
  M 45.93 82.90
  L 44.20 82.41
  Q 43.52 82.22 43.27 82.27
  C 38.07 83.38 40.55 90.32 44.92 88.52
  C 46.31 87.94 47.32 85.25 49.19 86.92
  C 55.21 92.31 58.21 83.58 52.75 82.26
  A 1.82 1.39 -42.8 0 0 51.80 82.35
  Q 48.25 83.77 50.55 82.00
  A 1.43 1.28 -15.2 0 0 51.07 81.20
  Q 52.01 76.54 47.29 76.72
  A 1.57 1.51 23.7 0 0 46.39 77.05
  Q 43.11 79.66 46.07 82.59
  Q 46.56 83.07 45.93 82.90
  Z
  M 47.72 87.12
  L 46.10 90.81
  A 0.44 0.42 17.5 0 0 46.42 91.40
  Q 48.07 91.75 49.75 91.35
  A 0.43 0.37 71.2 0 0 49.98 90.78
  L 48.42 87.18
  Q 48.06 86.36 47.72 87.12
  Z
  M 78.89 88.84
  Q 76.05 92.79 81.60 91.35
  A 0.45 0.44 -18.8 0 0 81.90 90.75
  L 80.40 87.23
  A 0.41 0.39 58.6 0 0 79.78 87.06
  Q 79.35 87.42 79.23 87.94
  Q 79.10 88.55 78.89 88.84
  Z
  M 66.05 101.13
  L 68.05 101.68
  A 1.66 0.74 26.5 0 0 68.98 101.72
  C 75.23 99.54 69.23 91.47 65.18 97.17
  Q 64.92 97.53 64.65 97.45
  A 0.54 0.42 -69.0 0 1 64.44 96.77
  L 65.95 93.22
  A 0.44 0.38 -70.7 0 0 65.72 92.64
  Q 64.02 92.20 62.20 92.67
  A 0.37 0.34 65.2 0 0 62.02 93.22
  Q 63.19 94.93 63.29 97.04
  Q 63.32 97.54 63.02 97.13
  C 59.07 91.64 52.60 99.30 59.02 101.71
  A 1.72 1.23 -34.3 0 0 59.97 101.73
  L 61.99 101.17
  Q 62.46 101.04 62.09 101.38
  C 58.01 104.99 63.74 109.61 66.46 106.44
  Q 68.77 103.74 65.96 101.38
  Q 65.47 100.96 66.05 101.13
  Z
  M 103.99 111.48
  Q 103.95 111.34 103.99 111.25
  A 0.44 0.25 25.5 0 1 104.53 111.21
  C 111.97 115.20 113.20 102.56 105.25 104.85
  A 1.77 1.28 -71.4 0 0 104.48 105.40
  L 103.50 106.61
  A 1.04 0.63 -59.9 0 1 102.75 107.02
  C 101.97 106.92 103.89 102.72 104.12 102.17
  A 0.41 0.35 -77.3 0 0 103.82 101.61
  L 100.19 101.61
  A 0.41 0.35 77.3 0 0 99.89 102.17
  C 99.92 102.23 102.35 109.24 100.54 106.60
  Q 98.18 103.14 94.43 105.45
  Q 91.59 107.20 93.54 109.93
  C 96.05 113.43 99.45 110.89 99.93 111.32
  A 0.32 0.22 -41.8 0 1 99.84 111.71
  C 94.53 116.21 103.42 122.08 105.68 115.68
  Q 106.50 113.37 104.25 111.81
  A 0.64 0.38 21.2 0 1 103.99 111.48
  Z
  M 50.05 117.13
  L 52.05 117.68
  A 1.62 0.68 25.4 0 0 52.98 117.72
  C 59.35 115.48 53.02 107.58 49.27 113.02
  Q 48.98 113.44 48.71 113.44
  A 0.53 0.38 -74.6 0 1 48.45 112.72
  L 49.95 109.21
  A 0.43 0.38 -70.5 0 0 49.72 108.64
  Q 48.02 108.21 46.23 108.65
  A 0.44 0.36 72.1 0 0 46.01 109.21
  L 47.42 112.95
  Q 47.68 113.63 47.02 113.31
  Q 46.63 113.13 46.40 112.70
  Q 46.07 112.11 45.83 111.93
  C 41.77 108.98 37.20 115.60 43.26 117.77
  A 1.47 0.54 -25.0 0 0 44.18 117.69
  L 45.98 117.13
  Q 46.60 116.94 46.09 117.39
  C 42.00 120.97 47.74 125.61 50.46 122.44
  Q 52.77 119.74 49.96 117.38
  Q 49.47 116.96 50.05 117.13
  Z
  M 82.05 117.13
  L 84.05 117.68
  A 1.62 0.68 25.4 0 0 84.98 117.72
  C 91.35 115.48 85.02 107.58 81.27 113.02
  Q 80.98 113.44 80.71 113.44
  A 0.55 0.38 -75.0 0 1 80.45 112.71
  L 81.95 109.21
  A 0.43 0.38 -70.5 0 0 81.72 108.64
  Q 80.02 108.20 78.20 108.67
  A 0.36 0.34 65.0 0 0 78.02 109.21
  Q 79.20 110.92 79.28 113.05
  Q 79.30 113.55 79.01 113.14
  C 75.08 107.63 68.60 115.30 75.02 117.71
  A 1.72 1.23 -34.3 0 0 75.97 117.73
  L 77.99 117.17
  Q 78.46 117.04 78.09 117.38
  C 74.01 120.99 79.74 125.61 82.46 122.44
  Q 84.77 119.74 81.96 117.38
  Q 81.47 116.96 82.05 117.13
  Z
  M 107.80 138.68
  A 0.51 0.51 52.3 0 1 107.88 137.96
  C 113.02 133.84 111.46 125.94 105.23 124.02
  C 96.41 121.32 88.59 131.22 96.41 137.95
  A 0.46 0.46 42.5 0 1 96.44 138.62
  C 89.09 146.24 101.52 155.51 108.36 147.85
  Q 112.01 143.77 107.80 138.68
  Z"
/>
<path fill="#2d261b" d="
  M 31.65 29.92
  Q 37.71 36.54 32.22 41.84
  C 24.00 49.77 10.98 38.28 19.94 30.11
  A 0.53 0.52 49.5 0 0 19.99 29.39
  Q 16.22 24.53 19.39 20.46
  C 25.74 12.30 39.01 21.33 31.67 29.20
  A 0.54 0.51 -45.0 0 0 31.65 29.92
  Z
  M 30.23 24.50
  A 4.35 3.70 0.0 0 0 25.88 20.80
  A 4.35 3.70 0.0 0 0 21.53 24.50
  A 4.35 3.70 0.0 0 0 25.88 28.20
  A 4.35 3.70 0.0 0 0 30.23 24.50
  Z
  M 31.1798 36.3436
  A 5.32 4.55 -0.5 0 0 25.8203 31.8402
  A 5.32 4.55 -0.5 0 0 20.5402 36.4364
  A 5.32 4.55 -0.5 0 0 25.8997 40.9398
  A 5.32 4.55 -0.5 0 0 31.1798 36.3436
  Z"
/>
<path fill="#020504" fill-opacity="0.192" d="
  M 13.50 21.29
  L 13.46 146.50
  L 11.28 143.66
  A 1.59 1.21 -70.0 0 1 11.00 142.76
  Q 11.00 83.91 11.00 25.06
  C 11.00 23.43 11.83 21.74 11.44 19.85
  Q 11.23 18.80 11.97 19.62
  L 13.50 21.29
  Z"
/>
<path fill="#f2f3f5" fill-opacity="0.973" d="
  M 14.21 19.00
  Q 13.60 125.84 14.00 147.25
  Q 14.03 148.82 17.00 152.96
  Q 14.07 150.42 13.46 146.50
  L 13.50 21.29
  L 14.21 19.00
  Z"
/>
<path fill="#020504" fill-opacity="0.192" d="
  M 114.54 146.50
  L 114.51 26.26
  L 115.28 19.89
  A 0.44 0.27 -83.2 0 1 115.61 19.48
  L 115.78 19.51
  A 0.27 0.20 -86.4 0 1 115.95 19.77
  C 115.97 22.40 117.28 24.32 117.28 26.80
  Q 117.23 46.65 116.89 66.50
  C 116.87 67.53 117.24 68.90 117.24 69.75
  Q 117.06 105.75 117.43 141.75
  C 117.44 142.64 117.18 147.24 116.15 148.32
  Q 115.01 149.51 114.54 146.50
  Z
  M 114.81 47.80
  Q 114.81 62.44 115.00 48.08
  C 115.00 47.92 115.01 48.02 114.91 47.78
  Q 114.81 47.56 114.81 47.80
  Z
  M 115.01 102.67
  A 0.12 0.12 0.0 0 0 114.89 102.55
  L 114.87 102.55
  A 0.12 0.12 0.0 0 0 114.75 102.67
  L 114.75 144.09
  A 0.12 0.12 0.0 0 0 114.87 144.21
  L 114.89 144.21
  A 0.12 0.12 0.0 0 0 115.01 144.09
  L 115.01 102.67
  Z"
/>
<ellipse fill="#ffffff" cx="25.88" cy="24.50" rx="4.35" ry="3.70"/>
<ellipse fill="#ffffff" cx="0.00" cy="0.00" transform="translate(25.86,36.39) rotate(-0.5)" rx="5.32" ry="4.55"/>
<path fill="#2d261b" d="
  M 46.06 50.62
  Q 43.93 48.68 45.26 45.94
  A 1.33 1.30 1.6 0 1 45.95 45.30
  Q 51.37 43.05 51.17 49.07
  A 1.10 1.00 -18.9 0 1 50.74 49.86
  Q 48.12 51.83 51.81 50.35
  A 1.71 1.32 -43.1 0 1 52.76 50.26
  C 57.98 51.54 55.44 58.90 50.29 56.13
  A 1.80 0.93 75.2 0 1 49.66 55.43
  Q 48.99 54.23 47.52 54.44
  A 1.24 0.93 -71.9 0 0 46.76 54.97
  C 43.23 60.18 36.86 53.19 42.56 50.41
  A 1.55 1.39 35.8 0 1 43.51 50.31
  L 45.96 50.83
  Q 46.39 50.92 46.06 50.62
  Z"
/>
<path fill="#2d261b" d="
  M 78.05 50.62
  Q 75.89 48.70 77.24 45.94
  A 1.39 1.31 0.5 0 1 77.94 45.29
  Q 83.38 43.05 83.16 49.07
  A 1.07 0.98 -19.5 0 1 82.74 49.86
  Q 80.12 51.83 83.81 50.35
  A 1.71 1.32 -43.1 0 1 84.76 50.26
  C 90.03 51.55 87.45 58.92 82.28 56.13
  A 1.88 0.96 75.6 0 1 81.65 55.42
  Q 80.94 54.11 79.40 54.51
  A 1.55 1.03 -70.8 0 0 78.65 55.08
  C 74.85 60.38 68.68 52.43 75.03 50.29
  A 1.61 0.56 22.8 0 1 75.96 50.35
  L 77.94 50.88
  Q 78.53 51.04 78.05 50.62
  Z"
/>
<path fill="#2d261b" d="
  M 23.61 56.31
  C 19.06 50.72 27.37 46.91 29.41 51.79
  Q 30.56 54.51 28.23 56.23
  C 27.65 56.67 28.28 56.88 28.63 56.70
  Q 32.32 54.78 34.51 58.27
  Q 36.30 61.11 33.44 62.69
  C 29.05 65.12 27.13 60.46 26.64 60.68
  A 0.64 0.49 67.9 0 0 26.43 61.44
  L 28.12 65.82
  A 0.42 0.36 77.7 0 1 27.82 66.39
  L 24.16 66.38
  A 0.42 0.36 -77.3 0 1 23.86 65.81
  C 24.05 65.34 26.39 60.53 25.20 60.69
  A 0.90 0.62 -71.6 0 0 24.64 61.11
  C 19.37 69.75 11.69 53.67 23.46 56.57
  Q 23.92 56.68 23.61 56.31
  Z"
/>
<path fill="#2d261b" d="
  M 46.14 58.48
  L 47.76 55.13
  Q 48.01 54.62 48.24 55.12
  L 49.96 58.81
  A 0.45 0.44 -20.1 0 1 49.67 59.42
  Q 47.87 59.92 46.37 59.18
  A 0.53 0.52 -63.7 0 1 46.14 58.48
  Z"
/>
<path fill="#2d261b" d="
  M 79.71 55.14
  Q 80.07 54.39 80.41 55.18
  L 81.99 58.77
  A 0.45 0.40 70.4 0 1 81.75 59.36
  Q 79.98 59.82 78.27 59.32
  A 0.45 0.42 -68.9 0 1 78.02 58.71
  L 79.71 55.14
  Z"
/>
<path fill="#2d261b" d="
  M 62.05 66.62
  Q 59.89 64.70 61.24 61.94
  A 1.39 1.31 0.5 0 1 61.94 61.29
  Q 67.38 59.05 67.16 65.07
  A 1.07 0.98 -19.5 0 1 66.74 65.86
  Q 64.12 67.83 67.81 66.35
  A 1.71 1.32 -43.1 0 1 68.76 66.26
  C 73.98 67.54 71.44 74.90 66.29 72.13
  A 1.79 0.94 75.8 0 1 65.65 71.42
  Q 64.94 70.11 63.40 70.51
  A 1.55 1.03 -70.8 0 0 62.65 71.08
  C 58.85 76.38 52.68 68.43 59.03 66.29
  A 1.61 0.56 22.8 0 1 59.96 66.35
  L 61.94 66.88
  Q 62.53 67.04 62.05 66.62
  Z"
/>
<path fill="#2d261b" d="
  M 63.69 71.17
  Q 64.07 70.39 64.43 71.22
  L 65.98 74.77
  A 0.44 0.38 70.5 0 1 65.76 75.35
  Q 63.98 75.82 62.27 75.32
  A 0.45 0.42 -68.9 0 1 62.02 74.71
  L 63.69 71.17
  Z"
/>
<path fill="#2d261b" d="
  M 78.05 82.62
  Q 75.88 80.70 77.26 77.95
  A 1.38 1.34 0.9 0 1 77.95 77.30
  Q 83.36 75.04 83.17 81.07
  A 1.06 1.01 -17.7 0 1 82.74 81.86
  Q 80.12 83.83 83.81 82.35
  A 1.71 1.32 -43.1 0 1 84.76 82.26
  C 89.98 83.54 87.44 90.90 82.29 88.13
  A 1.79 0.94 75.8 0 1 81.65 87.42
  Q 80.94 86.11 79.40 86.51
  A 1.55 1.03 -70.8 0 0 78.65 87.08
  C 74.85 92.38 68.68 84.43 75.03 82.29
  A 1.61 0.56 22.8 0 1 75.96 82.35
  L 77.94 82.88
  Q 78.53 83.04 78.05 82.62
  Z"
/>
<path fill="#2d261b" d="
  M 46.07 82.59
  Q 43.11 79.66 46.39 77.05
  A 1.57 1.51 23.7 0 1 47.29 76.72
  Q 52.01 76.54 51.07 81.20
  A 1.43 1.28 -15.2 0 1 50.55 82.00
  Q 48.25 83.77 51.80 82.35
  A 1.82 1.39 -42.8 0 1 52.75 82.26
  C 58.21 83.58 55.21 92.31 49.19 86.92
  C 47.32 85.25 46.31 87.94 44.92 88.52
  C 40.55 90.32 38.07 83.38 43.27 82.27
  Q 43.52 82.22 44.20 82.41
  L 45.93 82.90
  Q 46.56 83.07 46.07 82.59
  Z"
/>
<path fill="#2d261b" d="
  M 47.72 87.12
  Q 48.06 86.36 48.42 87.18
  L 49.98 90.78
  A 0.43 0.37 71.2 0 1 49.75 91.35
  Q 48.07 91.75 46.42 91.40
  A 0.44 0.42 17.5 0 1 46.10 90.81
  L 47.72 87.12
  Z"
/>
<path fill="#2d261b" d="
  M 79.23 87.94
  Q 79.35 87.42 79.78 87.06
  A 0.41 0.39 58.6 0 1 80.40 87.23
  L 81.90 90.75
  A 0.45 0.44 -18.8 0 1 81.60 91.35
  Q 76.05 92.79 78.89 88.84
  Q 79.10 88.55 79.23 87.94
  Z"
/>
<path fill="#2d261b" d="
  M 65.96 101.38
  Q 68.77 103.74 66.46 106.44
  C 63.74 109.61 58.01 104.99 62.09 101.38
  Q 62.46 101.04 61.99 101.17
  L 59.97 101.73
  A 1.72 1.23 -34.3 0 1 59.02 101.71
  C 52.60 99.30 59.07 91.64 63.02 97.13
  Q 63.32 97.54 63.29 97.04
  Q 63.19 94.93 62.02 93.22
  A 0.37 0.34 65.2 0 1 62.20 92.67
  Q 64.02 92.20 65.72 92.64
  A 0.44 0.38 -70.7 0 1 65.95 93.22
  L 64.44 96.77
  A 0.54 0.42 -69.0 0 0 64.65 97.45
  Q 64.92 97.53 65.18 97.17
  C 69.23 91.47 75.23 99.54 68.98 101.72
  A 1.66 0.74 26.5 0 1 68.05 101.68
  L 66.05 101.13
  Q 65.47 100.96 65.96 101.38
  Z"
/>
<path fill="#2d261b" d="
  M 104.25 111.81
  Q 106.50 113.37 105.68 115.68
  C 103.42 122.08 94.53 116.21 99.84 111.71
  A 0.32 0.22 -41.8 0 0 99.93 111.32
  C 99.45 110.89 96.05 113.43 93.54 109.93
  Q 91.59 107.20 94.43 105.45
  Q 98.18 103.14 100.54 106.60
  C 102.35 109.24 99.92 102.23 99.89 102.17
  A 0.41 0.35 77.3 0 1 100.19 101.61
  L 103.82 101.61
  A 0.41 0.35 -77.3 0 1 104.12 102.17
  C 103.89 102.72 101.97 106.92 102.75 107.02
  A 1.04 0.63 -59.9 0 0 103.50 106.61
  L 104.48 105.40
  A 1.77 1.28 -71.4 0 1 105.25 104.85
  C 113.20 102.56 111.97 115.20 104.53 111.21
  A 0.44 0.25 25.5 0 0 103.99 111.25
  Q 103.95 111.34 103.99 111.48
  A 0.64 0.38 21.2 0 0 104.25 111.81
  Z"
/>
<path fill="#2d261b" d="
  M 49.96 117.38
  Q 52.77 119.74 50.46 122.44
  C 47.74 125.61 42.00 120.97 46.09 117.39
  Q 46.60 116.94 45.98 117.13
  L 44.18 117.69
  A 1.47 0.54 -25.0 0 1 43.26 117.77
  C 37.20 115.60 41.77 108.98 45.83 111.93
  Q 46.07 112.11 46.40 112.70
  Q 46.63 113.13 47.02 113.31
  Q 47.68 113.63 47.42 112.95
  L 46.01 109.21
  A 0.44 0.36 72.1 0 1 46.23 108.65
  Q 48.02 108.21 49.72 108.64
  A 0.43 0.38 -70.5 0 1 49.95 109.21
  L 48.45 112.72
  A 0.53 0.38 -74.6 0 0 48.71 113.44
  Q 48.98 113.44 49.27 113.02
  C 53.02 107.58 59.35 115.48 52.98 117.72
  A 1.62 0.68 25.4 0 1 52.05 117.68
  L 50.05 117.13
  Q 49.47 116.96 49.96 117.38
  Z"
/>
<path fill="#2d261b" d="
  M 81.96 117.38
  Q 84.77 119.74 82.46 122.44
  C 79.74 125.61 74.01 120.99 78.09 117.38
  Q 78.46 117.04 77.99 117.17
  L 75.97 117.73
  A 1.72 1.23 -34.3 0 1 75.02 117.71
  C 68.60 115.30 75.08 107.63 79.01 113.14
  Q 79.30 113.55 79.28 113.05
  Q 79.20 110.92 78.02 109.21
  A 0.36 0.34 65.0 0 1 78.20 108.67
  Q 80.02 108.20 81.72 108.64
  A 0.43 0.38 -70.5 0 1 81.95 109.21
  L 80.45 112.71
  A 0.55 0.38 -75.0 0 0 80.71 113.44
  Q 80.98 113.44 81.27 113.02
  C 85.02 107.58 91.35 115.48 84.98 117.72
  A 1.62 0.68 25.4 0 1 84.05 117.68
  L 82.05 117.13
  Q 81.47 116.96 81.96 117.38
  Z"
/>
<path fill="#2d261b" d="
  M 107.80 138.68
  Q 112.01 143.77 108.36 147.85
  C 101.52 155.51 89.09 146.24 96.44 138.62
  A 0.46 0.46 42.5 0 0 96.41 137.95
  C 88.59 131.22 96.41 121.32 105.23 124.02
  C 111.46 125.94 113.02 133.84 107.88 137.96
  A 0.51 0.51 51.1 0 0 107.80 138.68
  Z
  M 107.45 131.62
  A 5.30 4.54 0.0 0 0 102.15 127.08
  A 5.30 4.54 0.0 0 0 96.85 131.62
  A 5.30 4.54 0.0 0 0 102.15 136.16
  A 5.30 4.54 0.0 0 0 107.45 131.62
  Z
  M 106.4499 143.5303
  A 4.34 3.66 0.4 0 0 102.1356 139.8401
  A 4.34 3.66 0.4 0 0 97.7701 143.4697
  A 4.34 3.66 0.4 0 0 102.0844 147.1599
  A 4.34 3.66 0.4 0 0 106.4499 143.5303
  Z"
/>
<ellipse fill="#ffffff" cx="102.15" cy="131.62" rx="5.30" ry="4.54"/>
<ellipse fill="#ffffff" cx="0.00" cy="0.00" transform="translate(102.11,143.50) rotate(0.4)" rx="4.34" ry="3.66"/>
<path fill="#020102" fill-opacity="0.267" d="
  M 53.00 155.29
  L 99.98 155.16
  L 99.13 155.57
  Q 98.35 155.94 99.29 155.95
  L 105.54 155.99
  A 0.64 0.37 2.4 0 1 106.19 156.40
  C 106.06 157.43 29.82 156.96 22.54 156.92
  A 0.76 0.45 -1.1 0 1 21.80 156.50
  C 21.73 155.71 38.99 155.99 40.68 155.99
  A 1.19 0.18 -32.8 0 0 41.50 155.62
  C 42.33 155.13 50.25 155.50 53.00 155.29
  Z"
/>
</svg>
