<?xml version="1.0" encoding="utf-8"?>
<!-- Generator: Adobe Illustrator 27.0.1, SVG Export Plug-In . SVG Version: 6.00 Build 0)  -->
<svg version="1.1" id="Слой_1" xmlns="http://www.w3.org/2000/svg" xmlns:xlink="http://www.w3.org/1999/xlink" x="0px" y="0px"
	 viewBox="0 0 128 168" style="enable-background:new 0 0 128 168;" xml:space="preserve">
<style type="text/css">
	.st0{fill:#D8D8D8;}
	.st1{fill:#AAAAAA;}
	.st2{fill:#FFFFFF;}
	.st3{fill:#2D261B;}
	.st4{fill:#232550;}
	.st5{fill:#222222;}
	.st6{fill:#D9CA34;}
	.st7{fill:#191B19;}
	.st8{fill:#C2B331;}
	.st9{fill:#F2F0F4;}
	.st10{fill:#B1161E;}
	.st11{fill:#553455;}
	.st12{fill:#5F6385;}
	.st13{fill:#3F446A;}
	.st14{fill:#D2D1DD;}
	.st15{fill:#303662;}
	.st16{fill:#9DA0B3;}
	.st17{fill:#B3B5C6;}
	.st18{fill:#4D5378;}
	.st19{fill:#888AA4;}
	.st20{fill:#E2E0E8;}
	.st21{fill:#706C34;}
	.st22{fill:#EADB2E;}
	.st23{fill:#BA6970;}
	.st24{fill:#45411D;}
	.st25{fill:#851E2F;}
	.st26{fill:#A0932B;}
	.st27{fill:#1E2034;}
</style>
<g>
	<path class="st0" d="M108.4,161.6H20.6c-6.9,0-12.4-5.6-12.4-12.4V18.6c0-6.9,5.6-12.4,12.4-12.4h87.8c6.9,0,12.4,5.6,12.4,12.4
		v130.5C120.8,156,115.3,161.6,108.4,161.6z"/>
	<path class="st1" d="M107.4,157.7H21.6c-5.5,0-9.9-4.4-9.9-9.9V19.7c0-5.5,4.4-9.9,9.9-9.9h85.8c5.5,0,9.9,4.4,9.9,9.9v128.1
		C117.3,153.3,112.9,157.7,107.4,157.7z"/>
	<path class="st2" d="M107.1,154.7H21.9c-4.4,0-8-3.6-8-8V20.8c0-4.4,3.6-8,8-8h85.2c4.4,0,8,3.6,8,8v125.9
		C115.1,151.1,111.5,154.7,107.1,154.7z"/>
</g>
<g>
	<path class="st3" d="M22.9,29.3c2.2-2.7,4.1-5.6,5.6-8.8c0.1-0.3,0-0.4-0.3-0.4c-1.9,0.2-2.5-0.6-1.9-2.4c0.1-0.3,0.4-0.5,0.7-0.5
		h6.6c0.3,0,0.6,0.2,0.7,0.5c0.6,1.7,0.1,2.4-1.6,2.3c-0.3,0-0.6,0.1-0.8,0.4l-4.8,7.9c-0.2,0.3-0.2,0.6,0,0.9l5,12
		c0.1,0.3,0.4,0.4,0.7,0.4c1.7-0.1,2.2,0.7,1.6,2.3c-0.1,0.3-0.4,0.5-0.7,0.5h-6.5c-0.3,0-0.6-0.2-0.7-0.4c-0.8-1.6-0.2-2.5,1.7-2.5
		c0.2,0,0.4-0.2,0.3-0.5L25,32.7c-0.1-0.4-0.3-0.4-0.6-0.1c-1.9,2.5-2.5,5.4-1.8,8.6c0.1,0.3,0.3,0.5,0.6,0.5
		c1.3,0.1,1.7,0.9,1.1,2.3c-0.1,0.3-0.4,0.5-0.7,0.5h-5.9c-0.3,0-0.6-0.2-0.7-0.5c-0.6-1.7,0-2.5,1.8-2.3c0.3,0,0.5-0.2,0.5-0.4
		V20.7c0-0.3-0.2-0.5-0.5-0.5c-1.9,0-2.5-0.8-1.7-2.5c0.1-0.3,0.4-0.5,0.7-0.5h5.7c0.3,0,0.6,0.2,0.7,0.5c0.6,1.4,0.1,2.2-1.3,2.4
		c-0.3,0-0.5,0.3-0.5,0.5v8.6C22.5,29.5,22.7,29.6,22.9,29.3z"/>
	<path class="st4" d="M102.5,74.7c-0.8-0.4-1.3-1.1-1.5-2c0.8-0.3,0.5-30.2,0.5-47.2c0-0.3-0.2-0.5-0.5-0.5
		c-4.6-0.3-9.1-0.1-13.5,0.5h-2.7l-7.3,0.3L76,26c-2.5-0.7-5-0.8-7.6-0.2h-1.2c-2.6-0.5-5.1-0.5-7.6,0.2h-1.4c0-0.7-7.2-0.6-8.3-0.7
		l-1,0.2C48.7,25.4,48.1,25,48,25H34c-0.4,0-0.7-0.1-0.9-0.3c-0.2-0.3,0-0.7,0.4-0.6h68.1c0.4,0,0.7,0.3,0.7,0.7
		c0.2,3.5-0.3,7.1-0.1,10.4c0.4,8.1-0.1,16.8,0.1,24.2C102.5,64.4,102.6,69.6,102.5,74.7z"/>
	<path class="st2" d="M101,72.8l-1.7-1L99,61.4c0-0.3-0.3-0.6-0.6-0.5c-1.2,0.2-1.2,0.7-0.2,1.3c0.2,0.1,0.2,0.4,0,0.6l-0.4,0.5
		c-0.1,0.2,0,0.5,0.2,0.8c0.4,0.4,0.3,0.8-0.3,1.2h-1l-0.1-4.6c0-0.3-0.1-0.6-0.3-0.8c-0.7-0.5-0.5-0.8,0.6-0.9l0.5,0.2
		c1.4,1.5,1.9,1.4,1.5-0.2c0-0.9,0-2.3,0-3.2c0.2-5.2,0.2-10.4,0.1-15.7c-0.1-2.9,0.3-5-3-6.3c-0.3-0.1-0.7-0.1-0.9,0.1l-2.4,2.3
		c-0.2,0.2-0.3,0.5-0.3,0.9L92.3,56c0,0.4-0.2,0.4-0.5,0.3l-4.5-2.6c0.3-0.8,0.2-1.5-0.2-2.2L86.3,50c-1.2-0.9-2.5-1-3.8-0.5
		c-0.2,0.1-0.5,0-0.5-0.3l-0.4-2.8c0.3-1.6,0.1-3-0.8-4.2v-5l6.8-11.7c4.4-0.6,8.9-0.8,13.5-0.5c0.3,0,0.5,0.2,0.5,0.5
		C101.5,42.6,101.8,72.5,101,72.8z"/>
	<path class="st5" d="M50,25.3l2.9,3.1c0.2,0.2,0.3,0.6,0.3,0.9L53,30.7c0,0.3,0.2,0.6,0.4,0.6c1.4,0.3,2.7,0.1,3.8-0.8h0.5l0.8,1.2
		L58,32.2c-1.1,0-2,0.5-2.7,1.4c0,1.1,0.4,1.7,1.2,1.6c-0.7,1-0.4,1.6,1,1.8L57,37.5l-1.2,0.2L49,25.5L50,25.3z"/>
	<path class="st6" d="M50,25.3c1,0.1,8.3,0,8.3,0.7c-0.2,1-0.7,1.7-1.5,2.1c-0.3,0.2-0.5,0.4-0.6,0.7c-0.1,0.8,0.3,1.3,1.1,1.7
		c-1.1,0.9-2.4,1.1-3.8,0.8c-0.3,0-0.5-0.3-0.5-0.6l0.1-1.4c0-0.3-0.1-0.6-0.3-0.9L50,25.3z"/>
	<path class="st6" d="M67.3,25.7l-0.8,1.7c-1.8,0.7-2.1,1.6-1,2.6c1,1,0.8,1.4-0.6,1.2c-2.4-0.2-4.5-0.1-6.4,0.4l-0.8-1.2
		c0.4-0.5,0.6-1.1,0.6-1.7c0-0.4,0.1-0.6,0.4-0.7c0.5-0.2,0.9,0,1,0.6c0.2,2.3,0.9,2.5,2.2,0.5c0.1-0.2,0.1-0.5-0.2-0.7
		c-1-0.7-1.6-1.5-1.9-2.5C62.2,25.3,64.7,25.2,67.3,25.7z"/>
	<path class="st5" d="M68.5,25.7c0.3,1,0.9,1.9,1.7,2.6c0.6,0.5,0.3,1.3-0.3,1.6c-0.3,0.2-0.5,0.5-0.5,0.7c0.3,1.2,5.2,0.4,5.3,0.4
		c0.5,0.9,0.3,1.4-0.6,1.7c-3.9,1.1-6.1-0.6-6.5-4.8l-1.2-0.4l0.8-1.7h1.3V25.7z"/>
	<path class="st6" d="M76,26c-0.4,0.9-1,1.7-1.8,2.3c-0.8,0.7,0,1.7,0.6,2.2L74.7,31c-0.2,0-5.1,0.9-5.3-0.4
		c-0.1-0.2,0.1-0.5,0.5-0.7c0.6-0.3,0.9-1.1,0.3-1.6c-0.8-0.7-1.3-1.6-1.7-2.6C71,25.2,73.5,25.3,76,26z"/>
	<path class="st6" d="M84.8,25.5c-0.4,1.1-1,2.1-1.8,3.1c-0.2,0.2-0.2,0.5,0,0.7c2.2,2.5-7.5,3.3-3.6,0.1c0.2-0.2,0.2-0.4,0-0.7
		l-2-2.9L84.8,25.5z"/>
	<path class="st5" d="M84.8,25.5h2.7l-6.8,11.7c-0.8,0.2-1.1-0.1-1-0.8c0.5-0.9,0.1-1.4-1-1.5C73,34.8,67.2,34.8,61.5,35
		c0.9,0,1.1-0.4,0.8-1.2c2.3,0.5,3.8-0.2,4.7-2.2l0.6-0.4c0.8,0.3,1.4,0.8,1.7,1.6c0.5,1.3,2,1.6,4.6,0.8c2.1-0.7,2.5-1.7,1-3.1
		c-0.5-0.6-1.4-1.6-0.6-2.2s1.4-1.4,1.8-2.3l1.4-0.2l2,2.9c0.2,0.2,0.1,0.5,0,0.7c-3.9,3.2,5.8,2.4,3.6-0.1c-0.2-0.2-0.2-0.5,0-0.7
		C83.8,27.7,84.4,26.6,84.8,25.5z M81.2,33.1c-2.4,0-4.1-1.5-4-4c0-0.3-0.1-0.6-0.4-0.8c-0.9-0.5-1.2,0.2-0.8,2.1
		c0.2,1.1,1.4,2.1,3.4,3.2c1,0.5,1.7,0.4,2.1-0.2C81.7,33.2,81.6,33.1,81.2,33.1z"/>
	<path class="st7" d="M59.7,26c0.3,1,1,1.9,1.9,2.5c0.2,0.2,0.3,0.5,0.2,0.7c-1.2,1.9-1.9,1.7-2.1-0.5c0-0.6-0.5-0.8-1-0.6
		c-0.2,0.1-0.4,0.4-0.4,0.7c0,0.6-0.2,1.2-0.6,1.7h-0.5c-1.1-0.5-1.6-1.8-0.5-2.4c0.8-0.4,1.3-1.1,1.5-2.1C58.2,26,59.7,26,59.7,26z
		"/>
	<path class="st7" d="M66.5,27.5l1.2,0.4c-1,1.4-1.1,2.5-0.2,3.4l-0.6,0.4c-1.8,1.4-3.8,1.7-5.9,0.8c-1.8-0.8-0.8,1.3,1.2,1.4
		c0.4,0.8,0.1,1.1-0.8,1.2l-5,0.3c-0.8,0-1.2-0.5-1.2-1.6c1.3,0,2.2-0.5,2.7-1.4l0.5-0.5c1.9-0.5,4-0.6,6.4-0.4
		c1.4,0.1,1.6-0.3,0.6-1.2C64.4,29.1,64.7,28.2,66.5,27.5z"/>
	<path class="st8" d="M67.7,27.8c0.4,4.3,2.6,5.9,6.5,4.8c0.9-0.2,1.1-0.8,0.6-1.7l0.1-0.5c1.5,1.4,1.1,2.4-1,3.1
		c-2.6,0.8-4.2,0.5-4.6-0.8c-0.3-0.8-0.8-1.3-1.7-1.6C66.6,30.3,66.6,29.2,67.7,27.8z"/>
	<path class="st8" d="M77.2,29.1c-0.1,2.4,1.6,4,4,4c0.4,0,0.5,0.1,0.3,0.4c-0.4,0.7-1.1,0.7-2.1,0.2c-2-1.1-3.2-2.2-3.4-3.2
		c-0.4-2-0.2-2.7,0.8-2.1C77.1,28.5,77.2,28.8,77.2,29.1z"/>
	<path class="st8" d="M66.9,31.6c-0.8,1.9-2.4,2.6-4.7,2.2c-2.1-0.1-3-2.2-1.2-1.4C63.1,33.3,65.1,33.1,66.9,31.6z"/>
	<path class="st8" d="M58,32.2c-0.4,1-1.3,1.4-2.7,1.4C55.9,32.8,56.8,32.3,58,32.2z"/>
	<path class="st5" d="M99,55.7c-0.5,0.5-0.9,0.1-0.9-0.5l0.1-4.3c0-0.7,0.7-1.7-0.1-2.3c-0.1-0.1-0.1-0.4,0-0.5
		c0.8-0.4,0.2-1.2,0.2-1.7l-0.4-4.5c0-0.3,0-0.6,0.2-0.9c0.3-0.5,0.2-0.9-0.2-1.4c-0.2-0.2-0.1-0.5,0.1-0.6c0.6-0.4,0.5-0.8-0.1-1.1
		c-0.2-0.1-0.3-0.4-0.2-0.6l0.3-0.6c0.2-0.3,0.1-0.6-0.2-0.8l-2.1-1.2c-0.4-0.2-0.6,0.2-0.8,0.5c-1.2,0.3-1.8,1.1-1.8,2.5
		c0.2,5.5,0.1,12.8-0.2,22L92.5,60l-0.8-0.8c0-0.7,0.4-2-0.2-2.3l-4.7-2.6c-0.3-0.1-0.6-0.1-0.9,0c-1.2,0.7-2.2,1.5-3,2.6
		c0.1-0.4,0-0.7-0.2-0.8c-0.7-0.4-1.3,0.9-0.3,1.1L81.3,58c-1.7-1.4-1.5,1.6-0.3,2.5c0.3,1.1-0.1,1.8-1,2.2
		c-0.6-1.5-7.4,3.9-8.3,4.6c-0.3,0.2-0.6,0.2-0.9,0.1l-6.7-4.1c-0.2-0.1-0.5-0.1-0.6,0.1c-0.2,1.1,5.9,4.6,7.1,5.4
		c0.3,0.2,0.6,0.2,0.8,0l7.8-5.3c0.1,1.3-0.3,2.1-1.5,2.5l-6.1,3.9c-0.3,0.2-0.6,0.2-0.9,0l-5.4-3.2c-0.2-0.1-0.5-0.1-0.6,0.1
		C64.2,68,70,70.9,71,71.4c0.3,0.1,0.6,0.1,0.9-0.1l5.6-3.9l-0.2,2.3c0.2-2-5.1,2.5-5.6,2.8c-0.3,0.2-0.6,0.2-0.9,0
		c-1-0.5-2.5-1.5-4.6-2.8c-0.8-0.5-0.9,0.4-0.4,0.8c1.5,1.5,3.3,2.6,5.2,3.5c0.3,0.1,0.6,0.1,0.9-0.1l5.3-3.8c0.4,0.9,0.3,1.5-0.5,2
		l-4.7,3c-0.3,0.2-0.6,0.2-0.8,0.1c-0.7-0.3-4.8-3.1-4.8-1.7c0,0.3,0.2,0.6,0.4,0.8l4.2,2.5c0.3,0.2,0.6,0.1,0.9-0.1l5-3.8l0.1,2.8
		l0.2,1.2c-0.5,0.8-1.2,1.4-2,1.7l-2.7,1.6c-0.2,0.1-0.2,0.3-0.1,0.5c1.2,0.7,2.3,0.4,3.4-1.1c0.6,1.4,0.7,2.7,0.2,4.1l-3,1.8
		c-0.4-0.5-2.6-1.4-2.7-0.3c0.2,1.8,1.1,2,2.7,0.3c0.1,0.8-0.2,1.4-0.9,1.8c-0.3,0.2-0.5,0.4-0.5,0.7c-0.1,3.3-0.9,8.9,1,11.8
		c2.8,4.2,6.6,7.6,11.4,10.1c0.3,0.2,0.7,0.2,0.9,0l6.3-3.3c0.3-0.2,0.4-0.1,0.3,0.2c-0.6,1.8-11.3,5.9-13.4,6.7h-0.7
		c-1.3-1.5-3-2.3-5-2.5c-0.6-0.7-1.5-0.7-2.7-0.2c-1,0.2-1.7-0.1-2.1-1c-0.4-1-1-1.7-1.8-2.2l-1-0.3c0.1-0.7-0.1-1.2-0.8-1.3v-1.2
		c2.6-0.2-6.8-5.4-7.2-5.5c-0.3-0.2-0.6-0.1-0.9,0l-8,6.2H48l0.6-3.7l0.4-1.9c2.1,0.2,0.5-3.2,2-4.8c0.4,1.5,4.2-1.8,4.9-2.3
		c0.3-0.2,0.6-0.3,0.9-0.1l3.8,2.2c0.3,0.2,0.7,0.2,0.8,0.1c1.1-0.9-3.1-3.1-4.5-3.7c-0.3-0.1-0.6-0.1-0.9,0.1L51,95l-0.3-2.5
		c0.3-0.6,0.2-1.2-0.2-1.7c1.1-0.7,1.3-1.4,0.8-2.2c-0.2-0.3-0.2-0.6-0.1-0.8c0.6-1.2,0.9-2.5,0.7-3.8c0.5-0.4,2-1.1,2.2-1.7
		c0.4-0.8,0.9-1.5,1.7-2c0.3-0.2,0.5-0.4,0.5-0.7c0.2-3.6,0.9-8.9-1.3-12c-2.9-4-6.6-7.2-11.1-9.5c-0.3-0.2-0.7-0.2-0.9,0l-6.4,3.3
		c-0.5,0.2-0.5-0.7-0.1-0.8c4.2-2.5,8.6-4.5,13.3-5.9l0.8-0.2c1.1,1.6,2.7,2.4,4.8,2.4l0.7,0.4c0.4,0.4,1.1,0.4,2-0.1
		c0.7-0.1,1.5,0.1,2.3,0.6c0.1,0.9,0.5,1.7,1.1,2.3c0.1,0.1,0.3,0.1,0.5,0c0.6-1,0.1-2-1.1-2.4c0.1-1,0.7-1.5,2-1.5
		c2.6,1,5,2.4,7.2,4c0.3,0.2,0.7,0.2,1,0l6.3-3.3c1.4-0.4,2.5-0.9,3.2-1.5c0.9-0.3,1.6-0.6,2-1c1.5-0.1,2.2-0.7,2.2-1.8
		c0-1,1.1-1.5,1.3-2.4l0.3-0.3l0.9,1.2h-0.5c-2.4,1.3-0.6,1.8,0.8,2.2l4.5,2.6c0.3,0.2,0.5,0.1,0.5-0.3L92.5,37
		c0-0.4,0.1-0.8,0.3-0.9l2.4-2.3c0.2-0.2,0.6-0.2,0.9-0.1c3.3,1.4,2.9,3.4,3,6.3C99.1,45.3,99.1,50.5,99,55.7z M78,59.1
		c-0.5,0.5-1.6,2.5-0.5,2.6c1.2-0.1,1.6-0.9,1.4-2.3C78.9,58.6,78.5,58.5,78,59.1z M54.3,61.7c1,0.2,1.1,0,0.3-0.7l-1.8-1.5
		c-0.2-0.1-0.4-0.1-0.6,0C51.7,60.6,52.5,61.4,54.3,61.7z M64.2,62.2h1.2c0.2,1.1,0.8,1.6,1.7,1.7c0.3,0,0.6-0.2,0.6-0.5
		c0.2-1.2-0.3-1.9-1.6-2.2L65,60.7c-0.3-0.5-1.4-1.9-2-1.1C62.5,60.9,62.9,61.8,64.2,62.2z M74.3,63.7c1.1,0.8,2.9-1.8,1.8-2.6
		C75,60.3,73.2,62.9,74.3,63.7z M61.2,73c0.1-0.9-1-1.7-1.5-0.8C59.4,73.1,59.9,73.3,61.2,73c-0.1,2.4-1.3,8.2,3.4,6.9
		c0.6-0.2,0.9-0.9,0.6-1.4c-0.7-1.3-1.4-1.3-2.2-0.1c-0.2,0.3-0.3,0.3-0.5,0c-0.5-1.1-0.6-2.3-0.2-3.6c0.1-0.3,0.3-0.5,0.7-0.4
		c2.1,0,2.7-0.8,1.7-2.6c-0.4-0.8-1.7,0.4-2-0.7c0.2-3.2-2.2-13.7-7.5-7.8c-0.2,0.2-0.3,0.6-0.3,0.9c0.1,2,1,2.8,2.8,2.3
		c0.3-0.1,0.5-0.3,0.5-0.7c0.1-1.1-0.3-1.5-1.4-1.2c-0.3,0.1-0.6-0.1-0.6-0.3c-0.2-0.9,1.1-1.6,2-1.2c2.2,1,3.2,2.9,3,5.7
		c0.1,0.8-1.1,1-0.9,0.1c0.1-0.5-0.2-0.8-0.8-0.7c-0.3,0-0.6,0.3-0.7,0.6C57.4,72.2,64.8,70.9,61.2,73z M71.3,65.1
		c-0.1,0.5,0.4,0.8,0.9,0.7c1-0.4,1.4-1.2,1.1-2.4c-0.1-0.3-0.3-0.5-0.6-0.5C72,63,71.5,63.7,71.3,65.1z M70.3,65.3
		c0.6-0.6,0.5-1.6-0.2-1.9C67.2,61.9,68.8,66.9,70.3,65.3z M57.2,81.5c-1.2-0.5-1.9-0.2-2.1,0.9c-0.1,0.2,0.2,0.4,0.4,0.4l2.2-0.3
		c0.9,1.5,2.3,0.7,2.3-0.7c-0.1-1.3-1.3-8.7-2.7-8.8c-0.3,0-0.5,0.2-0.5,0.6C56.6,76.2,56.7,78.9,57.2,81.5z M71.5,79
		c-1,0.3-1.4,0.8-1.3,1.5c0,0.2,0.2,0.4,0.4,0.3c0.8-0.3,1.4-1,1.9-1.7c1-0.3,3.5-1.7,3.6-2.9C76.3,74.1,71.7,78.7,71.5,79z
		 M70.4,78.8c0.2-0.3,0.1-0.7-0.2-0.9l-2.3-1.5c-0.3-0.2-0.8-0.1-0.9,0.2c-0.2,0.3-0.1,0.7,0.2,0.9l2.3,1.5
		C69.8,79.3,70.3,79.1,70.4,78.8z M68.6,80.8c0.7-0.4,0.5-0.9-0.5-1.6c-0.3-0.2-0.6-0.1-0.8,0.1C66.7,80,67.8,81.3,68.6,80.8z
		 M63.6,80.7c-0.2-0.1-0.4-0.1-0.6,0.1c-1.2,1.7-1,2.6,0.9,2.7c0.3,0,0.6-0.1,0.8-0.4C65.2,82.2,64.8,81.4,63.6,80.7z M71.4,83.9
		c0.4,0.1,0.8-0.1,0.9-0.4c0.4-1,0.1-1.6-0.7-1.8c-0.3-0.1-0.6,0-0.9,0.2C69.7,82.6,69.9,83.3,71.4,83.9z M68.4,83.8
		c1.8,0.1-0.2-3.4-0.7-0.9C67.6,83.4,68,83.8,68.4,83.8z M74.9,82.7c0.8-2.1-2.6,0.6-1.6,1.2C74.1,84.2,74.6,83.7,74.9,82.7z
		 M55.6,85.8c1.2,1,2.7-0.8,1.6-1.8l0,0C56,83,54.5,84.8,55.6,85.8L55.6,85.8z M53,84.5c-0.7,0.5-0.1,1.6,0.7,1.2s0.9-0.9,0.1-1.3
		C53.6,84.2,53.3,84.3,53,84.5z M58.8,84.9c0.3,1.6,0.7,1.5,1.1-0.2c0.1-0.3,0-0.6-0.3-0.7C59,83.8,58.7,84.3,58.8,84.9z M65.7,85.8
		c0-0.7-0.6-1.3-1.3-1.3c-1.8,0-1.8,2.7,0,2.7C65.1,87.2,65.7,86.6,65.7,85.8z M69.6,86.6l-1.1-1.8c-0.4-0.7-0.6-0.6-0.6,0.2
		c0,3.7,1,7.1,2.7,10.2c0.2,0.3,0.3,0.3,0.4-0.1c0.5-2.7,0.5-5.3-0.2-8c0-0.2-0.3-0.3-0.5-0.3C70,87,69.7,86.8,69.6,86.6z
		 M56.2,88.7c-1.6,0.4-3,1.2-4,2.5c-2.5,3.1,2.9-0.7,3.8-1.4c0.3-0.2,0.6-0.2,0.9-0.1l3.4,2c0.2,0.1,0.6,0.1,0.6-0.2
		c0.6-1.6-3-2.7-4.2-2.9l1.3-1.2c2.4,1.5,3.1,1.6,2.2,0.2c-0.2-0.3-0.4-0.4-0.8-0.5L58,87c-0.9,0.3-1.7,0.3-2.5,0.2
		c-0.3-0.1-0.6,0-0.7,0.2C54.5,88.1,56.2,87.7,56.2,88.7z M52.1,89.1c0,0.1,0,0.3,0.2,0.3c0.9,0,1.6-0.6,2.1-1.4
		c0.1-0.2,0-0.5-0.3-0.6C53.1,87.3,52.5,87.9,52.1,89.1z M65.7,89.8v2.9c0,1-1.2,1.1-1.9,1.1c-0.3,0-0.6,0.1-0.7,0.4
		c-0.7,1.6-0.2,2.4,1.6,2.4c0.3,0,0.5,0.2,0.5,0.5c0.2,3.2,0.3,8.9,5,9.1c3,0.1,4.1-4.3,1.1-4.8c-0.9-0.2-2.1,0.8-1.4,1.8
		c0.2,0.2,0.5,0.3,0.8,0.3c1.2-0.2,1.4,0.2,0.5,1.3c-1,1.3-2.1,1-3.2-0.9c-0.6-0.8-2.5-5.5-0.6-5.3c0.2,0,0.3,0.4,0.2,0.7
		c-0.6,1.6,3.1,0.3,1.5-1.8c-0.1-0.1-0.4-0.3-0.9-0.4l-2-0.6C66,96.4,65.9,96,66,95.8c1-2,2.1-9.7-2.5-7.7c-1.1,0.5-0.9,2.3,0.2,2.6
		c0.2,0.1,0.5-0.1,0.6-0.3c0.2-0.4,0.5-0.7,0.9-0.9C65.4,89.3,65.7,89.5,65.7,89.8z M57.9,95.6c0,0,6.7,4.2,4,1.3
		c-0.6-0.6-2.2-1.6-4.8-3c-0.3-0.1-0.6-0.1-0.8,0.1c-0.2,0.1-7.4,4.5-4.9,4.8c0.3,0,0.6-0.1,0.8-0.4c1.4-1.4,3-2.4,4.9-2.9
		C57.3,95.4,57.6,95.4,57.9,95.6z M66.9,96c0.8,1.6,3.1-2.6,0.3-0.8C66.9,95.4,66.7,95.7,66.9,96z M57.5,98.1c1.6,1.3,3.5,2.3,5.5,3
		c0.3,0.1,0.4,0,0.1-0.2c-1.6-1.8-3.5-3.2-5.8-4.3c-0.3-0.1-0.6-0.1-0.9,0c-1.6,0.8-7.4,4.5-6.5,5.2c0.2,0.1,0.5,0.1,0.9-0.1
		l5.4-3.7C56.7,97.8,57.2,97.9,57.5,98.1z M75.8,108.4c1-1.6-1.7-2.5-2.8-2.3c-0.4,0-0.4,0.2-0.1,0.4l2.3,1.9
		C75.3,108.7,75.7,108.6,75.8,108.4z"/>
	<path class="st9" d="M99,55.7v1c-1.7,0.1-1.7,0.6,0,1.5V59c-0.6-0.4-1.1-0.3-1.5,0.2L97,59c0.1-0.5-0.1-1-0.6-1.3
		c-0.2-0.1-0.2-0.4,0-0.5c0.7-0.4,0.7-0.9,0.2-1.4c-0.2-0.2-0.2-0.4,0-0.6c0.4-0.4,0.4-0.9,0-1.3c-0.2-0.2-0.2-0.5,0-0.7
		c0.4-0.4,0.4-0.8,0-1.3c-0.2-0.2-0.2-0.5-0.1-0.8c0.3-0.7,0.3-1.4-0.1-2.1c-0.1-0.3,0-0.6,0.2-0.7c1.3-1.1-0.6-1-0.6-1.8
		c0.1-0.4,0.5-0.5,1.4-0.4c0.4,0.1,0.4,0,0.1-0.2c-0.9-0.4-1.2-1-0.8-1.9c0.1-0.3,0.2-0.6,0.2-0.9v-4.4c0-0.2-0.1-0.5-0.3-0.9
		c-0.1-0.2-0.1-0.4,0.1-0.6c0.8-0.8-0.1-1.6-1.1-1.7L95,35.2c0.1-0.3,0.4-0.7,0.8-0.5l2.1,1.2c0.2,0.1,0.3,0.5,0.2,0.8l-0.3,0.6
		c-0.1,0.2,0,0.5,0.2,0.6c0.6,0.3,0.7,0.7,0.1,1.1c-0.2,0.2-0.2,0.4-0.1,0.6c0.4,0.5,0.4,0.9,0.2,1.4C98,41.2,98,41.6,98,41.9
		l0.4,4.5c0,0.5,0.6,1.3-0.2,1.7c-0.2,0.1-0.2,0.3-0.1,0.5c0.8,0.7,0.1,1.6,0.1,2.3l-0.1,4.3C98,55.9,98.5,56.3,99,55.7z"/>
	<path class="st10" d="M79.7,36.5C72.5,35.9,65.3,36,58,36.7L57.5,37c-1.4-0.1-1.7-0.7-1-1.8l5-0.3c5.7-0.1,11.5-0.1,17.2,0.1
		C79.8,35.1,80.2,35.6,79.7,36.5z"/>
	<path class="st2" d="M95,35.2l0.5,0.3V70l-0.2,1.8c-0.4,0.8-1,1-1.8,0.5L93,59.7c0.3-9.2,0.4-16.5,0.2-22
		C93.2,36.3,93.8,35.5,95,35.2z"/>
	<path class="st4" d="M95.5,35.5c0.9,0,1.9,0.9,1.1,1.7c-0.2,0.2-0.2,0.4-0.1,0.6c0.2,0.4,0.3,0.7,0.3,0.9v4.4
		c0,0.3-0.1,0.6-0.2,0.9c-0.3,0.8,0,1.5,0.8,1.9c0.3,0.2,0.3,0.2-0.1,0.2c-0.8-0.1-1.3,0-1.4,0.3c0,0.8,1.9,0.7,0.6,1.8
		c-0.2,0.2-0.3,0.5-0.2,0.7c0.3,0.7,0.4,1.4,0.1,2.1c-0.1,0.3-0.1,0.6,0.1,0.8c0.4,0.4,0.3,0.9,0,1.3c-0.2,0.2-0.2,0.5,0,0.7
		c0.4,0.5,0.4,0.9,0,1.3c-0.2,0.2-0.2,0.5,0,0.6c0.5,0.5,0.5,1-0.2,1.4c-0.2,0.1-0.2,0.4,0,0.5c0.5,0.3,0.7,0.8,0.6,1.3
		c-1.1,0.1-1.3,0.4-0.6,0.9c0.2,0.1,0.3,0.4,0.3,0.8l0.1,4.6c-0.9,1.3,0.9,2.8,0.2,2.8c-0.4-0.2-0.7-0.2-0.8,0
		c-0.3,0.5,0.9,1.3,0.9,2l-0.5,0.3l-1-0.3V35.5z"/>
	<path class="st11" d="M79.7,36.5c-0.1,0.7,0.2,0.9,1,0.8v5c-1,0.8-1.6,0.6-1.8-0.5l1-3c0.1-0.3,0-0.5-0.2-0.6c0,0-2.1-0.5-2.1-0.6
		c-1.9-0.9-3.3-0.6-4.3,1.1c0.1,4.1-0.1,8.1-0.7,12c-0.1,0.6,0.3,1,0.8,0.8l0.6,0.8c-0.2,0.9,0.1,1.5,0.9,2l1.3,1.8l1,0.9L71,60.3
		c-0.4,0.2-0.7,0.2-1,0c-2.2-1.6-4.6-3-7.2-4v-0.2l0.6-1.9c1,0.3,2.3,1.2,3.8,2.6c1.7,1.6,5.3,1.9,6.7-0.3c0.9-1.5,0.4-2.5-1.7-3.1
		L72,54c-0.8-0.1-1.2,0.2-1.2,1h-0.3c-1-0.6-1.7-0.5-2.2,0.5c-0.1,0.3-0.4,0.4-0.7,0.4c-0.8-0.2-1.3-0.7-1.5-1.5
		c-0.1-0.5,0-0.6,0.4-0.3c0.5,0.3,1.1,1,1.4,0.6c0.8-1.5,1.8-2.7,3.3-3.5c0.3-0.2,0.5-0.4,0.5-0.7c0.3-2.5,0.1-5,0.6-7.4
		c0.9-4.4-3.6-5-6.4-3.5c-0.3,0.1-0.6,0.1-0.6-0.2c-0.6-2.2,4.7-1.3,5.6-0.8c0.3,0.2,0.7,0.3,0.9,0.2c1-0.2,0.2-1.7-0.7-1.6L61,37.5
		c-0.9-0.6-1.9-0.9-3-0.8C65.3,36,72.5,35.9,79.7,36.5z"/>
	<path class="st12" d="M58,36.7c1.1-0.1,2.1,0.1,3,0.8c-0.3,0.7-0.1,1.2,0.5,1.7l-0.6,0.1c-1.2-0.4-2.4-0.5-3.6-0.2
		c-0.9-0.4-0.9-0.9-0.2-1.5C57.3,37.4,57.8,36.9,58,36.7z"/>
	<path class="st2" d="M70.5,55c-0.4,0.6-0.9,1-1.6,1.2c-0.6,0.2-0.7,0.6-0.2,0.8c2,1.2,5.9-1.4,3.4-3.7c2.1,0.6,2.6,1.6,1.7,3.1
		c-1.4,2.2-5,1.9-6.7,0.3c-1.5-1.4-2.8-2.3-3.8-2.6c-0.7,0-1.3,0.3-1.8,0.7c-2.4-1.9-2.8-1.7-1.2,0.7c0.8,1.1-0.3,2-1.1,0.7
		c-0.6-1.1-1.1-2.2-1.4-3.4c-0.1-0.4-0.3-0.7-0.5-0.8l-0.8-0.3l-0.3-9.2l0.5-0.3c0.7,0.8,3.9,3.1,3.3,0.3c-0.1-0.6,0.6-0.6,0.7,0
		l0.8,4.2c0.1,0.5,0.2,0.4,0.3,0c0.5-2.5,0.4-5-0.3-7.4c-0.6-0.5-0.7-1-0.5-1.7l10.1-0.3c0.9-0.1,1.6,1.4,0.7,1.6
		c-0.3,0.1-0.6,0-0.9-0.2c-1-0.6-6.2-1.4-5.6,0.8c0.1,0.2,0.4,0.3,0.7,0.2c2.8-1.5,7.3-0.9,6.4,3.5c-0.5,2.4-0.3,4.9-0.6,7.4
		c0,0.3-0.2,0.6-0.5,0.7c-1.4,0.8-2.5,2-3.2,3.5C68,55,67.7,55,67.5,54.9l-0.9-0.6c-0.4-0.3-0.5-0.2-0.4,0.3
		c0.2,0.8,0.7,1.3,1.5,1.5c0.3,0.1,0.5-0.1,0.7-0.4C68.8,54.6,69.5,54.4,70.5,55z M71.5,41c-1.7-1.1-3.3-1.4-4.9-0.8
		c-2.3,0.8-2.5,1.7-0.6,2.7c2.4,1.2,4.3,0.9,5.6-1.1C71.9,41.6,71.8,41.2,71.5,41z M62.5,47.7c-0.6,0.2-3.1,1.9-3.5,1.1
		c-0.2-0.7,1.7-1.5,0.2-2c-0.3-0.1-0.6,0-0.9,0.2c-2.6,2.2,2.9,5.3,4.5,1c0.4-0.9,1.1-1,2-0.5c0.6,2,2,2.8,4.1,2.4
		c1.7-0.4,2.1-1.2,1.1-2.6c-0.6-0.9-1.3-1-2-0.5c-0.2,0.1-0.2,0.5,0.1,0.6c1.6,1,1.5,1.5-0.3,1.5c-0.9-0.1-1.6-1.3-2.7-1.5
		c-0.4-0.7,0.1-1.3,0.8-0.9c1,0.6,1.2,0.3,0.6-0.9c-0.2-0.3-0.5-0.5-0.7-0.5c-0.7,0-0.8,1-1.5,0.9C63.2,46,62.6,46.5,62.5,47.7z
		 M60.9,51.2c1,2.3,4.8,2.4,6.2,0.2c0.1-0.2,0.1-0.5-0.2-0.6c-1.9-0.9-3.8-1-5.7-0.2C60.9,50.7,60.8,51,60.9,51.2z"/>
	<path class="st12" d="M77.7,37.6L76.5,44l-1,2.3c-0.1,0.3-0.1,0.6,0.1,0.9c0.3,0.3,0.6,0.5,1,0.6c-0.3,1.8-1.2,3.3-2.5,4.5
		l-0.6-0.8c0.7-3.6,0.7-7.3,1.8-10.8c0.4-1.4-0.2-2.1-1.9-2C74.3,37,75.7,36.7,77.7,37.6z"/>
	<path class="st13" d="M57,37.5c-0.7,0.6-0.6,1.1,0.2,1.5l-0.7,1.3c-0.2,0.4-0.1,0.5,0.3,0.3l4.1-1.4l0.6-0.1
		c0.7,2.4,0.8,4.8,0.3,7.4c-0.1,0.5-0.2,0.5-0.3,0l-0.8-4.2c-0.2-0.8-0.8-0.4-0.7,0.2c0.6,2.9-2.6,0.5-3.3-0.3
		c-0.4-0.1-0.7-0.3-0.8-0.6c-0.1-0.2-0.3-0.4-0.5-0.3c-0.7,0.4-0.5,0.8,0.7,1.2l0.3,9.2L56,52.2c-0.3,1.1-0.2,2,0.4,2.9
		c0.6,0.8,0.3,1.6-0.5,2.1l-0.7-0.4c0.4-0.4,1-1.4,0.3-1.8c-1.2-0.5-1.7-1.5-1.5-2.9l0.2-1.2c1.8-1.3,1.6-2-0.5-2
		c0.3-0.7,0.8-1.2,1.5-1.6c0.3-0.2,0.4-0.5,0.4-0.7c-0.2-1-1,0.3-1.5,0.5c-0.7,0.4-0.9,1-0.7,1.9c-2.8-0.6-3-1.7-0.8-3.5
		c-0.4,1.4-1.1,4.2,0.5,1.3l0.8-1c1,0,1.3-0.5,1-1.4c-0.1-0.3-0.4-0.5-0.7-0.5c-2.4,0.1-3.1-3.8-0.3-3.3c0.3,0.1,0.6,0,0.8-0.2
		c0.6-0.8,0.9-1.6,1-2.6L57,37.5z M53,42.1c0,0.1,0.1,0.3,0.3,0.3c0.3,0.1,0.6-0.1,0.7-0.4c0.4-1.1,0.2-1.3-0.7-0.6
		C53,41.6,52.9,41.9,53,42.1z"/>
	<path class="st14" d="M77.7,37.6l2.1,0.6c0.2,0.1,0.3,0.3,0.2,0.6l-1,3c-0.5,1.1-1.3,1.9-2.5,2.2L77.7,37.6z"/>
	<path class="st2" d="M60.9,39.3l-4.1,1.4c-0.4,0.1-0.5,0-0.3-0.3l0.7-1.3C58.4,38.8,59.6,38.9,60.9,39.3z"/>
	<path class="st9" d="M73.3,38.7c1.7-0.1,2.3,0.6,1.9,2c-1.1,3.5-1.1,7.2-1.8,10.8c-0.2,0-0.4,0-0.5,0c-0.2-0.1-0.3-0.4-0.3-0.8
		C73.2,46.8,73.5,42.8,73.3,38.7z"/>
	<path class="st15" d="M71.5,41c0.3,0.2,0.4,0.6,0.2,0.8c-1.3,1.9-3.2,2.3-5.6,1.1c-1.9-0.9-1.7-1.8,0.6-2.7
		C68.3,39.6,69.9,39.9,71.5,41z M67.2,41.9c-0.3,0.3-0.3,0.6-0.1,0.8c0.4,0.3,1.2-0.4,0.9-0.8C67.8,41.6,67.4,41.7,67.2,41.9z"/>
	<path class="st2" d="M53.2,41.4c0.9-0.7,1.2-0.5,0.7,0.6c-0.1,0.3-0.4,0.5-0.7,0.4C52.8,42.2,52.8,41.7,53.2,41.4z"/>
	<path class="st16" d="M56.8,42.2l-0.5,0.3c-1.2-0.4-1.4-0.9-0.7-1.2c0.2-0.1,0.4,0.1,0.5,0.3C56,41.9,56.3,42.1,56.8,42.2z"/>
	<path class="st17" d="M68,41.8c0.3,0.4-0.5,1.2-0.9,0.8C66.6,42.4,67.6,41.3,68,41.8z"/>
	<path class="st16" d="M79,41.7c0.1,1.1,0.7,1.3,1.8,0.5c2,3,0.4,7.2-2.4,9.1c-0.3,0.4-0.4,0.5-0.1,0.8l-0.7,0.3
		c0-0.6-0.2-1.1,0.4-1.6c1.5-1.6,2.1-3.6,1.8-6c-0.3-1-1.2,0-1.2,0.9c-1,0.3-1.7,0.9-2,2c-0.4-0.1-0.7-0.4-1-0.6
		c-0.2-0.2-0.2-0.6-0.1-0.9l1-2.3C77.6,43.6,78.4,42.9,79,41.7z"/>
	<path class="st18" d="M77.5,52.5L77,55h-0.5l-1.3-1c0-0.5,0-1.1,0.4-1.5c1.5-2,2.5-4.2,2.9-6.6c0.1-0.6,0.3-1.1,0.7-1.2
		c0.2-0.1,0.5,0.1,0.5,0.4c0.3,2.4-0.3,4.4-1.8,6C77.4,51.4,77.5,51.9,77.5,52.5z"/>
	<path class="st19" d="M54,45.7l-0.8,1l-0.8-0.3l0.2-1L54,45.7z"/>
	<path class="st12" d="M65,47.5l-0.2,0.1c-0.9-0.6-1.5-0.4-2,0.5l-0.3-0.3c0.1-1.2,0.7-1.7,1.7-1.6c0.7,0.1,0.8-0.9,1.5-0.9
		c0.3,0,0.6,0.1,0.7,0.4c0.6,1.2,0.4,1.4-0.6,0.9c-0.3-0.2-0.7-0.2-0.8,0C64.8,46.8,64.8,47.1,65,47.5z"/>
	<path class="st20" d="M78.5,45.8c-0.4,2.5-1.4,4.7-2.9,6.6c-0.4,0.4-0.4,1-0.4,1.5L75,54.2c-0.8-0.5-1.1-1.1-0.9-2
		c1.3-1.2,2.1-2.7,2.5-4.5C76.8,46.7,77.5,46,78.5,45.8z"/>
	<path class="st9" d="M53.8,49h-0.2c-0.3-0.9-0.1-1.5,0.7-1.9c0.5-0.1,1.3-1.5,1.5-0.5c0.1,0.3-0.1,0.6-0.4,0.7
		C54.6,47.8,54.1,48.3,53.8,49z"/>
	<path class="st20" d="M52.5,46.5l0.8,0.3C52.2,48.5,52,48.4,52.5,46.5z"/>
	<path class="st15" d="M64.8,47.5l0.2-0.1c1.1,0.2,1.8,1.4,2.7,1.5c1.7,0,1.8-0.5,0.3-1.5c-0.2-0.1-0.2-0.4-0.1-0.6
		c0.7-0.5,1.4-0.4,2,0.5c1,1.4,0.7,2.2-1.1,2.6C66.7,50.3,65.4,49.5,64.8,47.5z"/>
	<path class="st13" d="M81.5,46.5l0.4,2.8c0,0.2,0.3,0.4,0.5,0.3c1.4-0.6,2.6-0.4,3.8,0.5L86,50.3c-2,0.6-3.2,2-3.5,4.2
		c-0.4,0.4-1.1,0.7-2,1c1.1-2.4,0.8-3.3-1-2.6c-0.2,0.1-0.4,0.4-0.3,0.7c0.1,1-0.2,1.8-1.2,2.3c-0.6,0.3-1-0.3-0.5-0.8
		c0.7-0.8,1-1.8,0.8-2.8c-0.3-0.2-0.2-0.6,0.1-0.8C80,50.2,81,48.6,81.5,46.5z"/>
	<path class="st13" d="M62.5,47.7l0.3,0.3c-1.6,4.3-7.1,1.2-4.5-1c0.2-0.2,0.6-0.3,0.9-0.2c1.5,0.5-0.4,1.3-0.2,2
		C59.4,49.6,61.9,47.9,62.5,47.7z"/>
	<path class="st3" d="M28.5,56.5c1.7-0.7,3.2-0.6,4.5,0.2c5.4,3.6-2.7,10.5-5.6,4.5c-0.1-0.3-0.4-0.5-0.7-0.5
		c-0.9,0.1-1.8-0.3-2.2,0.5c-1.4,2.5-3.5,2.9-6.1,1.4c-1.4-0.9-1.8-2-1.2-3.6c1.2-3,3.3-3.7,6-2.3c0.9,0.4,1,0.3,0.3-0.4
		c-4.2-4.6,2.6-9.3,5.4-5.1c1.2,1.8,1,3.5-0.6,5.2C28.2,56.5,28.3,56.6,28.5,56.5z"/>
	<path class="st12" d="M67.1,51.4c-1.3,2.2-5.2,2.2-6.2-0.2c-0.1-0.3,0-0.6,0.3-0.7c1.9-0.8,3.8-0.7,5.7,0.2
		C67.1,50.8,67.2,51.2,67.1,51.4z M63.3,52c5.6-0.6-1.6-1.2-0.5-0.2C62.9,51.9,63.1,52,63.3,52z"/>
	<path class="st20" d="M86,50.3c-0.2,0.9-1.2,1.4-1.3,2.4c0,1.1-0.7,1.7-2.2,1.8C82.8,52.3,84,50.9,86,50.3z"/>
	<path class="st4" d="M54.2,51L54,52.2c-1.3-0.2-2.4,0-3.4,0.6c-0.3,0.6-0.4,1.1-0.1,1.7l-0.8,0.2C49.8,52,51.3,50.7,54.2,51z"/>
	<path class="st16" d="M62.8,51.8c-1.1-1,6.1-0.4,0.5,0.2C63.1,52,62.9,51.9,62.8,51.8z"/>
	<path class="st20" d="M86.8,51.3c0.4,0.7,0.3,1.3-0.2,1.9C85.2,52.8,85.3,52.1,86.8,51.3z"/>
	<path class="st12" d="M86.8,51.3h0.5c0.4,0.7,0.5,1.5,0.2,2.2l-1-0.3C87,52.6,87.1,52,86.8,51.3z"/>
	<path class="st18" d="M56.5,51.7l0.8,0.3c0.2,0.1,0.4,0.4,0.5,0.8c0.3,1.2,0.8,2.3,1.4,3.4c0.7,1.2,1.8,0.4,1.1-0.7
		c-1.6-2.3-1.2-2.5,1.2-0.7c0.1,0.8,0.5,1.2,1.2,1.2v0.2c-1.3,0-1.9,0.5-2,1.5l-0.5,0.1c-0.8-0.5-1.6-0.7-2.3-0.6l-1.1-4.6
		c-0.1-0.4-0.5-0.4-0.9-0.4L56.5,51.7z"/>
	<path class="st2" d="M54,52.2c-0.2,1.4,0.4,2.3,1.5,2.9c0.8,0.4,0.1,1.4-0.2,1.8c-2.1,0-3.7-0.8-4.8-2.4l1-0.5l3,1.4
		c0.6,0.3,0.6,0.2,0.2-0.3c-0.7-0.7-1.6-1.2-2.7-1.4l-1.4-0.9C51.6,52.2,52.7,52,54,52.2z"/>
	<path class="st2" d="M56,52.2c0.3,0,0.8,0,0.9,0.4l1.1,4.6c-1,0.5-1.6,0.5-2,0.1c0.8-0.5,1.1-1.3,0.5-2.1
		C55.8,54.3,55.7,53.3,56,52.2z"/>
	<path class="st2" d="M78.2,52.2c0.2,1.1,0,2-0.8,2.8H77l0.5-2.5L78.2,52.2z"/>
	<path class="st14" d="M80.5,55.4c-0.8,0.7-1.9,1.2-3.2,1.5l-1-0.9c1-0.2,1.1-0.5,0.2-1H77l0.5,0.1c-0.6,0.4-0.2,1.1,0.5,0.8
		c0.9-0.5,1.3-1.3,1.2-2.3c0-0.3,0.1-0.6,0.3-0.7C81.3,52.1,81.6,53,80.5,55.4z"/>
	<path class="st16" d="M50.6,52.8l1.4,0.9L51.5,54l-1,0.5C50.2,54,50.3,53.4,50.6,52.8z"/>
	<path class="st15" d="M52,53.7c1.1,0.2,2,0.6,2.7,1.4c0.4,0.5,0.4,0.6-0.2,0.3l-3-1.4L52,53.7z"/>
	<path class="st18" d="M72.1,53.3c2.5,2.3-1.4,5-3.4,3.7c-0.5-0.2-0.4-0.8,0.2-0.8c0.6-0.2,1.2-0.6,1.6-1.2l0.2-0.1
		c0.9,0.2,1.3-0.1,1.2-1L72.1,53.3z"/>
	<path class="st14" d="M63.3,54.1L62.7,56c-0.7,0-1.1-0.4-1.2-1.2C62,54.3,62.6,54.1,63.3,54.1z"/>
	<path class="st20" d="M72,54c0.1,0.9-0.3,1.2-1.2,1C70.8,54.2,71.2,53.9,72,54z"/>
	<path class="st9" d="M75.2,54l1.2,1.1c0.8,0.5,0.7,0.8-0.2,1L75,54.2L75.2,54z"/>
	<path class="st10" d="M91.8,59.2c-4.4,6.7-6.8,14-7.3,22c-2.8,0.3-5.3,1.2-7.7,2.5H76c0.5-1.3,0.4-2.7-0.2-4.1
		c0.3-0.6,0.1-0.9-0.6-0.9c0.9-0.3,1.6-0.9,2-1.7c1.2,0.2,1.9,0.9,2.2,1.9c0.3,1,1.7,0.3,1.9-0.4c0.1-0.3,0.3-0.5,0.6-0.6
		c2.1-0.7,2.2-1.6,0.2-2.9c-0.2-0.1-0.4-0.4-0.3-0.7c0.2-2-2.8-2.1-2.6,0c0,0.2-0.2,0.5-0.4,0.6L77,75.7V73l-0.2-0.8
		c0.7-0.4,0.9-1.1,0.5-2l0.1-0.5l0.2-2.3c0.8-0.6,0.9-1.1,0.2-1.5c1.1-0.3,1.6-1.2,1.5-2.5l0.8-0.8c0.9-0.4,1.2-1.2,1-2.2l0.3-2.5
		l1.2-0.7L83,57c0.8-1.1,1.8-2,3-2.6c0.3-0.1,0.6-0.1,0.9,0l4.7,2.6C92.2,57.2,91.8,58.5,91.8,59.2z M87.2,61.8
		c2.2,0.4,2.6-0.4,1.2-2.4c-0.2-0.3-0.3-0.6-0.3-0.9c0-2.4-0.8-2.7-2.3-1.1c-0.2,0.2-0.5,0.4-0.8,0.4c-2.5,0.4-2.8,1.4-0.9,2.9
		c0.2,0.2,0.3,0.5,0.2,0.7c-0.4,0.9-0.1,1.4,0.9,1.6c0.2,0,0.5-0.1,0.7-0.4C86.3,62.3,86.5,61.7,87.2,61.8z M85.5,68.4
		c0.6-3.9-5.4-5-6.2-1.1C78.6,71.1,84.6,72.2,85.5,68.4z"/>
	<path class="st21" d="M83,57l-0.5,0.3c-1-0.3-0.4-1.5,0.3-1.1C83,56.3,83.1,56.6,83,57z"/>
	<path class="st2" d="M86.4,62.1c-0.2,0.4-0.6,1.1-1.1,1c-1-0.2-1.4-0.8-0.9-1.6c0.1-0.3,0-0.6-0.2-0.7c-1.9-1.5-1.6-2.4,0.9-2.9
		c0.3-0.1,0.6-0.2,0.8-0.4c1.6-1.7,2.3-1.3,2.3,1.1c0,0.3,0.1,0.6,0.3,0.9c1.3,2,0.9,2.8-1.2,2.4C86.9,61.8,86.5,61.9,86.4,62.1z"/>
	<path class="st7" d="M99,56.7v1.5C97.2,57.4,97.2,56.9,99,56.7z"/>
	<path class="st22" d="M81.3,58L81,60.5C79.8,59.6,79.6,56.6,81.3,58z"/>
	<path class="st6" d="M60.2,57.8l0.5-0.1c1.2,0.4,1.6,1.2,1.1,2.3C61.2,60.9,60.3,58.3,60.2,57.8z"/>
	<path class="st6" d="M78,59.1c0.5-0.6,0.8-0.5,1,0.3c0.2,1.4-0.2,2.2-1.4,2.3C76.4,61.6,77.5,59.6,78,59.1z"/>
	<path class="st7" d="M99,59c0.4,1.7-0.1,1.8-1.5,0.2C97.9,58.7,98.4,58.6,99,59z"/>
	<path class="st2" d="M54.3,61.7c-1.8-0.3-2.5-1.1-2.1-2.1c0.1-0.2,0.3-0.3,0.5-0.2c0,0,0.1,0,0.1,0.1l1.8,1.5
		C55.4,61.7,55.3,61.9,54.3,61.7z"/>
	<path class="st6" d="M65,60.7l-0.8,1.5C63,61.8,62.6,61,63,59.7C63.6,58.8,64.7,60.2,65,60.7z"/>
	<path class="st22" d="M91.8,59.2l0.8,0.8c-4.1,6.4-6.4,13.4-6.8,21c0,0.4-0.1,0.7-0.3,0.9c-0.4,0.3-0.7,0.1-1-0.6
		C84.9,73.2,87.4,65.9,91.8,59.2z"/>
	<path class="st15" d="M43,59.7c0.1-0.1,0.2-0.2,0.3-0.1c1.4,1.5,1.5,2.9,0.3,4.3c-0.2,0.2-0.5,0.3-0.7,0.1
		c-1.4-1.1-1.4-2.4-0.1-3.8C42.8,60.1,42.9,60,43,59.7z"/>
	<path class="st5" d="M93,59.7l0.5,12.5l-0.8,0.3c-0.4-0.7-1.5-1.1-1.7-0.2c-0.4,2.8,4.2,1.2,6,1.9L96.5,75c-6-1.3-8.1,6.7-3,8.2
		l0.6,0.5l-0.5,1.8c0.5,1.4,1.4,1.8,2.7,1.4c0.3-0.1,0.5-0.4,0.5-0.7l-0.1-2l1,0.7c0.1,1.5-0.5,2.7-1.8,3.5H95c-0.6-1.1-1-0.2-1,0.4
		c-0.1,4.5-0.1,8.9,0,13.4c0,1.5-0.4,1.8-1.4,2.6c-0.3,0.2-0.4,0.1-0.4-0.2V84.5c0-0.3-0.2-0.6-0.5-0.7c-0.5-0.3-4.2-0.7-3.4,0.3
		c2,2.2,2.5,4.8,1.5,7.8c-0.1,0.3,0,0.6,0.1,0.8c1.1,1.4,1,2.8-0.2,4.2c-0.2,0.2-0.5,0.2-0.6-0.1l-0.6-1.5c-0.1-0.3-0.4-0.5-0.6-0.5
		c-1.4,0-1.8,0.7-1.2,2.2l-0.5,0.5l-2.3,1l-2.5,2l-0.5-1c0.2-0.4,0.4-0.6,0.1-1l-1.9-2.3c-2.6-2.1-4.5-4.8-5.5-8.1
		c-0.1-0.3,0-0.6,0.2-0.8c1.3-1.1,2.2-2.4,2.8-3.8c2.4-1.4,4.9-2.2,7.7-2.5c0.2,0.8,0.5,1,1,0.6c0.2-0.2,0.3-0.5,0.3-0.9
		c0.4-7.6,2.7-14.6,6.8-21L93,59.7z M81.6,83.5c0.8,5.6,3.1-1.9,0.4-0.7C81.7,83,81.6,83.3,81.6,83.5z M80.9,84.8c0-2.9-3.7-1-2.8,0
		c0.5,0.4,0.9-0.6,1.4-0.7c0.2-0.1,0.4,0.2,0.4,0.4C79.7,85.3,80.8,85.7,80.9,84.8z M85.7,84c0.9,2,2.4-0.3,0.3-0.3
		c-1.4-0.6-2.1-0.3-2,1c0,0.4,0.2,0.5,0.5,0.3L85.7,84z M81.5,94.7c-0.1,1.2,4.7,2.2,4-1.7c-0.1-0.3,0.1-0.6,0.3-0.8
		c0.7-0.4,4.9-0.6,3.2-2.5c-0.2-0.2-0.3-0.5-0.3-0.8v-2.5c0-0.3-0.3-0.5-0.5-0.4c-3.6,0.6-7.1,0.6-10.7-0.1
		c-0.8-0.1-2.2,0.2-1.1,1.3c0.2,0.2,0.2,0.5,0.1,0.7c-0.8,1-0.8,2-0.2,3.1c0.1,0.2,0.4,0.4,0.8,0.4c2.1-0.1,3.1,0.9,2.8,3
		c0,0.3,0.1,0.7,0.2,0.9C80.8,96,81.2,95.8,81.5,94.7z"/>
	<path class="st21" d="M65,60.7l1.2,0.5c-0.6,0.1-0.9,0.4-0.8,1h-1.2L65,60.7z"/>
	<path class="st7" d="M99.3,71.7L99,72l-1-0.3c-0.6-0.4-0.7-0.9-0.3-1.5c1.1-0.6,1.1-1.3,0-2.1c0.7-0.9,0.7-1.9,0-2.9
		c0.6-0.4,0.7-0.8,0.3-1.2c-0.3-0.3-0.4-0.6-0.2-0.8l0.4-0.5c0.1-0.2,0.1-0.5,0-0.6c-1.1-0.7-1-1.1,0.2-1.3c0.3-0.1,0.6,0.2,0.6,0.5
		C98.9,61.4,99.3,71.7,99.3,71.7z"/>
	<path class="st3" d="M23.9,65.8c0.3-0.7,1.7-4.7,2.2-4.7c0.2,0,0.4,0.3,0.6,0.7l1.5,3.7c0.1,0.3,0,0.6-0.2,0.7c0,0-0.1,0-0.2,0
		l-3.7,0.1C23.9,66.4,23.7,66,23.9,65.8z"/>
	<path class="st6" d="M76.1,63c-1.2,1.7-2.9,0.5-1.7-1.2C75.6,60.1,77.3,61.3,76.1,63z"/>
	<path class="st6" d="M66.2,61.2c1.2,0.3,1.8,1.1,1.6,2.2c-0.1,0.3-0.3,0.5-0.6,0.5c-0.9-0.1-1.5-0.6-1.7-1.7
		C65.4,61.6,65.6,61.3,66.2,61.2z"/>
	<path class="st2" d="M61.2,73c3.6-2.1-3.9-0.8-2.4-4.2c0.1-0.3,0.4-0.5,0.7-0.6c0.7-0.1,0.9,0.1,0.8,0.7c-0.2,0.9,1,0.7,0.9-0.1
		c0.1-2.8-0.9-4.7-3-5.7c-0.8-0.4-2.1,0.3-2,1.2c0,0.3,0.3,0.4,0.6,0.3c1-0.3,1.5,0.1,1.4,1.2c0,0.3-0.3,0.6-0.5,0.7
		C56,67,55,66.2,54.9,64.2c0-0.3,0.1-0.6,0.3-0.9c5.3-5.9,7.7,4.5,7.5,7.7c0,0.8,0.8,0.5,1.3,0.4c0.3,0,0.6,0.1,0.7,0.3
		c1,1.8,0.4,2.6-1.7,2.6c-0.3,0-0.6,0.2-0.7,0.4c-0.4,1.3-0.3,2.5,0.2,3.6c0.1,0.3,0.3,0.3,0.5,0c0.8-1.2,1.5-1.2,2.2,0.1
		c0.3,0.5,0.1,1.1-0.4,1.3C60,81.5,61,75.4,61.2,73z"/>
	<path class="st5" d="M41.5,71.3c0.8-1.3,1.9-2.3,3.3-3.1c0.3-0.1,0.6-0.1,0.9,0.1l2.8,2.7c2.2,2.3,4.1,4.8,5.7,7.6
		c0.1,0.2,0.1,0.6,0,0.9c-0.3,0.6,0.1,1.6-0.6,1.8c-1.3,0.2-2.1,1.1-2.7,2.4c-2.6,1.8-3.8,2.2-8,2.6c-1.1,7.6-3.4,14.7-7,21.4
		c-0.8,1.4-0.5,1.7,0.7,0.9c-2.6,2.9,2.7,4.1,4.6,5.2c0.2,0.1,0.5,0.1,0.8-0.1l3.2-2c0.2-0.1,0.3-0.4,0.2-0.6c-0.2-0.6,0.1-1,1-1.3
		c1.9,2.3,2.1-1.7,0.5-1.7c-0.3-1.1,0-2,1-2.5h0.2c0.7,0.8,7.1-4.1,8.1-4.8c0.3-0.2,0.6-0.2,0.8-0.1l7,4.2v1.2l0,0l-1.5-0.2
		c-0.4-1-1.1-1.6-2-1.8l-1-0.5c-3.4-4-2,2.7-0.3,1.2l1,0.3c0.1,1,0.7,1.6,1.5,1.8l1.5,0.2c0.7,2.2,1.3,2.3,1.8,0.2l1,0.3
		c-0.3,1.3,0.1,2.2,1.2,2.8l0.5,1c-0.4,0.8-0.3,1.5,0.2,2.1c0.4,0.5,0.5,0.7,0.2,0.8c-0.2,0-2.2-0.8-1.8-1.7
		c0.2-0.8-0.2-0.9-1.2-0.3l-7-4c-0.3-0.2-0.6-0.2-0.9-0.1c-2.2,0.7-4.1,1.9-5.8,3.6c-1-0.6-1.8-0.6-2.5,0.3
		c-0.2,0.2-0.5,0.3-0.7,0.1c-0.5-0.3-0.9-0.1-1.1,0.6l-2,1.2H44c-0.3,0.1-0.5,0.3-0.5,0.6c0,0.6-0.2,1.3-0.5,1.8
		c-0.1,0.1-0.4,0.3-0.8,0.5c-0.3,0.2-0.4,0.5-0.3,1l-0.2,0.1c-0.7-0.1-0.9-0.5-0.8-1.2l0.7-0.3c0.9-1.3-0.4-1.5-1.2-2L36,112
		l-1.2-0.2l-0.3-16.3c0.2-0.5,0.6-0.5,1.1,0.1c0.7,0.7,1.8,0.4,1.3-0.7c-0.3-0.6-0.9-1-1.5-0.8c-0.9,0.4-6.3,0-3.9-1.5
		c5,2.6,8.7-5.4,3-7.8C31,82.7,30.8,82,34,82.7c0.4,0.1,0.5,0,0.3-0.3c-0.5-1.2-1.5-1.7-3.1-1.2L30.7,81c1.5-1.1,1.7-2.3,0.8-3.7
		v-0.9c0.9-1.8,0.9-3.7,0-5.6v-0.9l0.8-4.8c0.2-0.1,0.4-0.1,0.5-0.1c0.2,0.1,0.3,0.3,0.3,0.7v13.5c0,0.3,0.2,0.6,0.5,0.6
		C34.3,79.7,34,66.6,34,65c-0.1-0.7,1.2-1.8,1.6-2.3c0.2-0.2,0.3-0.2,0.3,0.1v20.1c0,0.3,0.2,0.6,0.5,0.7c0.8,0.2,1.6,0.3,2.3,0.1
		c0.2-0.1,0.3-0.3,0.2-0.6l-1.5-3.9c-0.1-0.2-0.1-0.6,0-1c0.9-2.9-0.9-4.8,0.7-7.4c0.3-0.6,0.6-0.5,0.8,0.1
		C39.4,73.2,40.3,73.4,41.5,71.3z M49.5,81.5L48.3,84c-0.2,0.3-0.1,0.4,0.2,0.3c1.1-0.4,1.8-1.2,2-2.5c1.5-0.7,1.7-1.3,0.5-1.9
		c-0.2-0.1-0.6-0.1-0.9,0c-0.6,0.2-1.2,0.1-1.8-0.2l1-2.2c0.7,0.1,0.9,0.4,0.8,1c-0.1,0.8,0.1,1,0.8,0.5c1.5-1,1.7-2.4,0.2-2.7
		l-2.6-0.5C48.2,75.6,48,75.3,48,75c0.1-0.9,0-1.7-0.3-2.6c-0.1-0.2-0.3-0.4-0.7-0.3h-3.9c-0.3,0-0.6,0.2-0.6,0.4l-0.4,2.7
		c0,0.3-0.3,0.5-0.5,0.5c-3.1-0.1-4,1.1-2.5,3.4c0.1,0.2,0.1,0.6-0.1,0.8c-1,1.2,0.3,1.7,1.3,1.6C43.3,80.9,46.4,81,49.5,81.5z
		 M46.5,82.9c-1-0.8-1.6-0.9-1.8-0.4c-0.3,0.8-0.1,1.6,0.5,2C46.8,86.1,47.6,83.9,46.5,82.9z M47.6,83.2c0.3-0.1,0.4-0.4,0.3-0.8
		l0,0c-0.1-0.3-0.4-0.6-0.7-0.5l0,0C47,82,46.9,82.4,47,82.7l0,0C47.1,83.1,47.4,83.3,47.6,83.2L47.6,83.2z M40.7,83.3
		c4.1,3.7-0.5-2.2-0.3-0.5C40.4,82.9,40.5,83.1,40.7,83.3z M43.8,82.9c-2.4-1.2-0.2,3.5,0.2,0.4C44,83.2,43.9,83,43.8,82.9z
		 M55.8,102.5c-1.1,0.8-1.5,1.7-1.2,2.5c0.1,0.3,0.4,0.4,0.7,0.3c1.1-0.5,1.7-1.3,1.7-2.3C56.9,102.1,56.5,101.9,55.8,102.5z
		 M51.9,107c0.5,0.3,1.3-0.1,1.7-0.8l0,0c0.4-0.7,0.4-1.6-0.1-1.9l0,0c-0.5-0.3-1.3,0.1-1.7,0.8l0,0C51.4,105.9,51.5,106.7,51.9,107
		L51.9,107z M49,107.7c0.2,4.6,4.2-4.3,0.4-0.8C49.1,107.1,49,107.4,49,107.7z"/>
	<path class="st6" d="M80,62.7l-0.8,0.8l-7.8,5.3c-0.2,0.2-0.6,0.2-0.8,0c-1.2-0.8-7.3-4.3-7.1-5.4c0-0.2,0.4-0.3,0.6-0.1l6.6,4.1
		c0.2,0.1,0.6,0.1,0.9-0.1C72.6,66.6,79.4,61.2,80,62.7z"/>
	<path class="st15" d="M38.5,62.6c0.1-0.1,0.2-0.1,0.3,0C41.7,69.7,34.6,67.7,38.5,62.6z"/>
	<path class="st4" d="M47.6,66.7c-0.9-1.2-0.8-2.5,0.2-3.8c0.9-0.8,1.6,2.3,1.5,2.9C49.5,66.7,48.3,67.6,47.6,66.7z"/>
	<path class="st6" d="M71.3,65.1c0.2-1.3,0.6-2.1,1.4-2.2c0.3-0.1,0.5,0.2,0.6,0.5c0.2,1.3-0.1,2.1-1.1,2.4
		C71.8,65.9,71.3,65.5,71.3,65.1z"/>
	<path class="st6" d="M70.3,65.3c-1.5,1.6-3.2-3.4-0.2-1.9C70.8,63.7,70.9,64.7,70.3,65.3z"/>
	<path class="st9" d="M85.5,68.4c-0.8,3.8-6.8,2.7-6.2-1.1C80,63.4,86.1,64.5,85.5,68.4z M83.8,69.5c3.5-4.8-6.4-4.8-2.6,0
		C82.1,70.7,82.9,70.7,83.8,69.5z"/>
	<path class="st10" d="M32.2,65l-0.8,4.8c-1.5-1.1-2-2.5-1.4-4.3c0.1-0.3,0.4-0.5,0.7-0.5H32.2z"/>
	<path class="st9" d="M96.8,65.2h1c0.7,1,0.7,2,0,2.9L97,68C97.7,68.1,95.9,66.6,96.8,65.2z"/>
	<path class="st23" d="M81.2,69.6c-3.8-4.8,6.1-4.8,2.6,0C82.9,70.7,82.1,70.7,81.2,69.6z M83.4,67c-1.8-0.6-2.6-0.2-2.4,1.2
		c0,0.3,0.3,0.6,0.6,0.7c1.3,0.5,2,0,2.2-1.3C83.7,67.3,83.6,67.1,83.4,67z"/>
	<path class="st24" d="M48.5,71l-2.8-2.7c-0.2-0.2-0.6-0.2-0.9-0.1c-1.4,0.7-2.5,1.8-3.3,3.1c-2.5-2.3-2-3.4,1.2-3.3
		c0.3,0,0.5-0.2,0.6-0.5c0.2-1.1,2-2.2,2.7-1C46.9,68.5,53.4,67.8,48.5,71z"/>
	<path class="st22" d="M77.8,66c0.7,0.4,0.6,0.9-0.2,1.5L72,71.4c-0.3,0.2-0.6,0.2-0.9,0.1c-1.1-0.5-6.6-3.4-6.3-4.6
		c0.1-0.2,0.4-0.3,0.7-0.2l5.4,3.2c0.3,0.1,0.6,0.1,0.9,0L77.8,66z"/>
	<path class="st2" d="M83.4,67c0.2,0.1,0.4,0.3,0.3,0.5c-0.2,1.3-0.9,1.8-2.2,1.3c-0.3-0.1-0.5-0.4-0.6-0.7
		C80.8,66.8,81.6,66.4,83.4,67z"/>
	<path class="st25" d="M31.5,70.7c0.9,1.9,0.9,3.7,0,5.6c-0.5-0.2-1.1-0.4-1.3-1.1c-0.8-1.7-1.4-1.6-1.7,0.1
		c-0.1,0.3-0.3,0.5-0.6,0.7c-0.8,0.3-0.9,0.8-0.4,1.4c-0.7,2.5-1,5-0.9,7.5c0,0.4,0.2,0.7,0.4,0.9c0.4,0.3,0.9,0.2,1.5-0.3l0.1,1.2
		v0.5L28.3,89l0.2,1l-0.1,1.8l0.1,0.2l0.4,1.5c-1.2,0.8-1.1,1.6,0.3,2.5l-0.5,0.3l-1.2-0.6c-0.4-1.1-1.1-2-2-2.7V68.8
		c0-0.3,0.2-0.6,0.5-0.6c2.7-0.5,3.2,0,1.5,1.6c-0.2,0.2-0.3,0.5-0.1,0.8C28.4,72.5,29.8,72.6,31.5,70.7z"/>
	<path class="st2" d="M97,68l0.8,0.2c1.1,0.8,1.1,1.5,0,2.1L97,70c0-0.7-1.2-1.5-0.9-1.9C96.3,67.9,96.6,67.9,97,68z"/>
	<path class="st15" d="M52.6,72.9c-1.2-1.4-1-2.7,0.4-4.2c0.2-0.2,0.5-0.1,0.5,0.1c0.5,1.2,1.8,3.6-0.1,4.3
		C53.1,73.3,52.8,73.2,52.6,72.9z"/>
	<path class="st22" d="M77.3,69.7l-0.1,0.5L71.9,74c-0.2,0.2-0.6,0.2-0.9,0.1c-2-0.9-3.7-2-5.2-3.5c-0.5-0.4-0.4-1.4,0.4-0.8
		c2.1,1.4,3.6,2.3,4.6,2.8c0.3,0.1,0.6,0.1,0.9,0C72.2,72.3,77.5,67.8,77.3,69.7z"/>
	<path class="st12" d="M95.5,70l1,0.3l-0.8,1.4h-0.5L95.5,70z"/>
	<path class="st20" d="M97,70l0.7,0.3c-0.4,0.5-0.3,1,0.3,1.5l-0.8,0.5l-1.5-0.6l0.8-1.4L97,70z"/>
	<path class="st2" d="M61.2,73c-1.4,0.3-1.8,0.1-1.5-0.8C60.3,71.3,61.4,72.1,61.2,73z"/>
	<path class="st8" d="M92.8,72.5c1.9-0.2,3.5,0.4,4.8,1.7L97,74.3c-1.8-0.7-6.3,0.9-5.9-1.9C91.2,71.5,92.4,71.9,92.8,72.5z"/>
	<path class="st25" d="M95.3,71.7h0.5l1.5,0.6l1.4,0.8c0.4,0.1,0.2,1.3,0.5,1.5c0.3,0,0.5-0.2,0.6-0.6c0.3-0.9,0-1.5-0.9-2l0.3-0.3
		l1.7,1c0.2,0.9,0.7,1.5,1.5,2v24.2c0,0.7-0.5,1.2-1.2,1.2c-1.8-0.2-2.5-0.9-0.8-1.7c0.3-0.1,0.4-0.4,0.2-0.7
		c-1.1-2.2-2.6-2.3-4.5-0.5c-0.8-1.9-0.8-3.9,0-5.8c0.8,0.3,1.3,0.8,1.6,1.5c0.4,1,1.5,1.5,1.6,0c0-0.3,0.2-0.6,0.5-0.7
		c0.5-0.3,0.9-0.8,1-1.4c0.6-2.6,0.8-5.2,0.4-7.8c-0.1-0.9-1.2-0.9-1.9-0.5L99.2,80l0.2-0.8l0.2-1.2c0.4-0.7,0.4-1.2-0.2-1.7l-1-0.3
		L98,75.5l-0.5-1.2c-1.3-1.3-2.9-1.8-4.8-1.7l0.8-0.3C94.3,72.7,94.9,72.6,95.3,71.7z"/>
	<path class="st26" d="M98,71.7l1,0.3c0.8,0.5,1.1,1.1,0.9,2c-0.1,0.4-0.4,0.7-0.6,0.6c-0.5-0.1,0-1.3-0.6-1.5l-1.4-0.8L98,71.7z"/>
	<path class="st6" d="M49.2,77.5L48,77.3L45.1,76c-1.3-0.5-2.2,1.5-2.3,2.6c0,0.3-0.3,0.5-0.5,0.4c-0.8-0.2-0.9-0.7-0.2-1.4
		c0.1-0.2,0.1-0.4-0.1-0.5c-1.5-0.3-2.2,0.3-2.2,1.9c0,0.3,0.2,0.6,0.4,0.8c1.1,0.6,2.1-0.1,3.1-0.2l3.4-0.1l1.5,0.2
		c0.6,0.3,1.2,0.4,1.8,0.2c0.4-0.1,0.7-0.1,0.9,0c1.2,0.5,1.1,1.2-0.5,1.9l-1-0.2c-3.1-0.5-6.2-0.6-9.2-0.2c-1,0.1-2.3-0.4-1.3-1.6
		c0.2-0.2,0.2-0.5,0.1-0.8c-1.4-2.3-0.6-3.5,2.5-3.4c0.3,0,0.5-0.2,0.5-0.5l0.4-2.7c0-0.2,0.3-0.4,0.6-0.4h3.9
		c0.3,0,0.6,0.1,0.7,0.3c1.1,3.6-1.2,2.9,3.3,3.8c1.6,0.4,1.3,1.8-0.2,2.7c-0.7,0.5-0.9,0.3-0.8-0.5C50.2,77.9,49.9,77.6,49.2,77.5z
		 M46.2,74.8c0.7-1,0.2-2-0.9-1.9c-1.6,0.2-1.9,0.9-0.8,2.1C45,75.5,45.8,75.4,46.2,74.8z"/>
	<path class="st22" d="M76.8,72.2L77,73l-5,3.8c-0.3,0.2-0.6,0.2-0.9,0.1l-4.2-2.5c-0.3-0.2-0.5-0.5-0.4-0.8c0-1.3,4.2,1.5,4.8,1.7
		c0.2,0.1,0.6,0.1,0.8-0.1L76.8,72.2z"/>
	<path class="st2" d="M77.3,77L77,75.7l1.7-0.9c0.3-0.1,0.4-0.4,0.4-0.6c-0.2-2.1,2.8-2.1,2.6,0c0,0.3,0.1,0.6,0.3,0.7
		c2,1.3,2,2.3-0.2,2.9c-0.3,0.1-0.5,0.3-0.6,0.6c-0.2,0.7-1.6,1.4-1.9,0.4C79.2,77.9,78.5,77.2,77.3,77z"/>
	<path class="st3" d="M46.2,74.8c-0.4,0.6-1.2,0.7-1.7,0.2c-1.1-1.2-0.8-1.9,0.8-2.1C46.4,72.8,46.9,73.8,46.2,74.8z"/>
	<path class="st10" d="M57.8,82.5l-0.6-1c-0.5-2.6-0.6-5.3-0.4-7.9c0-0.3,0.3-0.6,0.5-0.6c1.4,0.1,2.6,7.5,2.7,8.8
		C60.1,83.2,58.7,84,57.8,82.5z"/>
	<path class="st2" d="M31.5,76.3v0.9c-1.3,1.7-2.6,1.8-4,0.2c-0.5-0.6-0.4-1.1,0.4-1.4c0.3-0.1,0.5-0.4,0.6-0.7
		c0.4-1.7,0.9-1.8,1.7-0.1C30.4,75.9,31,76,31.5,76.3z"/>
	<path class="st16" d="M97,74.3l0.5-0.1l0.5,1.2h-1.2L96.5,75L97,74.3z"/>
	<path class="st2" d="M96.5,75l0.2,0.4l-3.9,4.4c-0.2,0.2-0.2,0.5-0.1,0.8l1,1.8l-0.2,0.8C88.4,81.7,90.5,73.7,96.5,75z"/>
	<path class="st13" d="M96.8,75.5H98l0.5,0.5c-0.7,0.3-1.2,0.8-1.5,1.5c-0.1,0.2,0.1,0.5,0.3,0.4c1-0.1,1.7-0.7,2.2-1.6
		c0.6,0.5,0.6,1,0.2,1.7c-2,0.2-2.1,0.6-0.2,1.2L99.2,80c-0.6-0.5-1-0.4-1.2,0.1c-0.1,0.2,0.1,0.6,0.3,0.8c0.9,0.7,0.7,1.2-0.6,1.4
		c-0.9,0.2-0.3,1.5,0.7,0.8c-0.5,0.6-0.7,1.2-0.7,2l-1-0.7L96,84l-0.3-0.7c0.8-1.7,0.5-2.8-1-3.4c-0.2-0.1-0.5,0-0.6,0.2v0.1
		l-0.4,2.3l-1-1.8c-0.1-0.3-0.1-0.6,0.1-0.8L96.8,75.5z"/>
	<path class="st5" d="M48,77.3l-1.2,2.2l-3.4,0.1c-1,0.1-2,0.9-3.1,0.2c-0.3-0.1-0.4-0.4-0.4-0.8c0-1.5,0.7-2.2,2.2-1.9
		c0.2,0,0.3,0.3,0.1,0.5c-0.6,0.8-0.6,1.2,0.2,1.4c0.2,0.1,0.4-0.1,0.5-0.3c0.1-1.1,1-3.2,2.3-2.7C45.1,76,48,77.3,48,77.3z
		 M44.6,78.7c1.5,1.5,2.2-1.8,0.3-1.1C44.4,77.7,44.2,78.3,44.6,78.7z"/>
	<path class="st22" d="M72.5,79l-1-0.1c0.2-0.2,4.8-4.8,4.6-2.8C76,77.3,73.5,78.7,72.5,79z"/>
	<path class="st20" d="M98.5,76l1,0.3c-0.5,1-1.2,1.5-2.2,1.6c-0.2,0-0.5-0.2-0.3-0.4C97.3,76.8,97.8,76.3,98.5,76z"/>
	<path class="st22" d="M68,76.4l2.3,1.5c0.7,0.5-0.1,1.6-0.8,1.1l-2.3-1.5C66.5,77,67.3,75.9,68,76.4z"/>
	<path class="st10" d="M31.5,77.2c1,1.3,0.7,2.6-0.8,3.7L29.5,85L29,85.3l-0.5,0.2c-0.6,0.5-1.1,0.6-1.5,0.3
		c-0.2-0.2-0.4-0.5-0.4-0.9c-0.1-2.5,0.2-5,0.9-7.5C28.9,79,30.2,79,31.5,77.2z"/>
	<path class="st8" d="M48,77.3l1.2,0.2l-1,2.2l-1.5-0.2L48,77.3z"/>
	<path class="st8" d="M44.6,78.7c-0.4-0.3-0.2-1,0.3-1.1C46.8,76.9,46.1,80.2,44.6,78.7z"/>
	<path class="st16" d="M99.7,78l-0.2,1.2C97.6,78.6,97.7,78.2,99.7,78z"/>
	<path class="st6" d="M75.2,78.7c0.7,0,0.9,0.3,0.6,0.9c-1.1,1.5-2.2,1.9-3.4,1.1c-0.2-0.1-0.1-0.4,0.1-0.5
		C72.5,80.3,75.2,78.7,75.2,78.7z"/>
	<path class="st6" d="M67.8,80.8c-0.6-0.4-0.8-0.9-0.4-1.4c0.2-0.2,0.5-0.3,0.8-0.1c1,0.7,1.2,1.2,0.5,1.6C68.4,81,68,81,67.8,80.8z
		"/>
	<path class="st20" d="M71.5,79l1,0.1c-0.3,0.5-1.7,2.3-2.3,1.5C70,79.8,70.5,79.2,71.5,79z"/>
	<path class="st8" d="M95.7,83.2L94,83.7l-0.6-0.5l0.2-0.8l0.4-2.3c0-0.3,0.3-0.4,0.6-0.3C96.2,80.4,96.5,81.6,95.7,83.2z"/>
	<path class="st19" d="M99.2,80l0.3,2.5l-1,0.6c-1,0.7-1.6-0.6-0.7-0.8c1.3-0.2,1.5-0.7,0.6-1.4c-0.3-0.2-0.4-0.5-0.3-0.8
		C98.2,79.6,98.6,79.5,99.2,80z"/>
	<path class="st2" d="M63.6,80.7c1.3,0.7,1.6,1.5,1.1,2.4c-0.2,0.3-0.5,0.4-0.8,0.4c-1.8-0.1-2.1-1-0.9-2.7
		C63.1,80.6,63.4,80.6,63.6,80.7z"/>
	<path class="st3" d="M30.8,80.9l0.5,0.2c-0.5,1.7,0,2.9,1.5,3.7L31.3,86l-0.6-0.5L29.5,85L30.8,80.9z"/>
	<path class="st8" d="M31.2,81c1.6-0.4,2.6,0,3.1,1.2c0.1,0.3,0,0.4-0.3,0.3c-3.2-0.7-3,0,0.5,2.1l-0.3,0.5c-0.8,1.2,0.4,3.2-1,3.3
		l-1-1.5c0.7-0.8,0.9-1.6,0.5-2.3C31.3,84,30.8,82.8,31.2,81z"/>
	<path class="st9" d="M57.2,81.5l0.6,1l-2.2,0.3c-0.2,0-0.5-0.1-0.4-0.4C55.3,81.3,56,81,57.2,81.5z"/>
	<path class="st26" d="M49.5,81.5l1,0.2c-0.2,1.3-0.8,2.1-2,2.5c-0.3,0.1-0.4,0-0.2-0.3L49.5,81.5z"/>
	<path class="st2" d="M71.4,83.9c-1.5-0.6-1.7-1.2-0.7-2c0.3-0.2,0.6-0.3,0.9-0.2c0.8,0.2,1,0.8,0.7,1.8
		C72.1,83.8,71.7,84,71.4,83.9z"/>
	<path class="st26" d="M46.5,82.9c1.1,0.9,0.4,3.2-1.3,1.6c-0.6-0.4-0.7-1.3-0.5-2C44.9,82,45.5,82.1,46.5,82.9z"/>
	<path class="st8" d="M48,82.5c0.2,0.8-0.8,1.1-1,0.3C46.8,81.9,47.7,81.6,48,82.5z"/>
	<path class="st20" d="M68.4,83.8c-0.5,0-0.8-0.4-0.7-0.9C68.2,80.4,70.2,83.9,68.4,83.8z"/>
	<path class="st2" d="M74.9,82.7c-0.3,1-0.8,1.4-1.5,1.3C72.1,83.5,75.7,80.5,74.9,82.7z"/>
	<path class="st10" d="M100.9,90.8C99.2,89,97.6,89,96.3,91L96,88.5c1.3-0.8,1.9-2,1.8-3.5c0-0.7,0.2-1.4,0.7-2l1-0.6
		c0.6-0.4,1.7-0.4,1.9,0.5C101.7,85.6,101.5,88.2,100.9,90.8z"/>
	<path class="st8" d="M40.4,82.8c-0.2-1.7,4.4,4.2,0.3,0.5C40.5,83.1,40.4,82.9,40.4,82.8z"/>
	<path class="st8" d="M43.8,82.9c0.2,0.1,0.3,0.3,0.2,0.4C43.6,86.4,41.3,81.7,43.8,82.9z"/>
	<path class="st8" d="M82,82.8c2.7-1.1,0.4,6.3-0.4,0.7C81.6,83.3,81.7,83,82,82.8z"/>
	<path class="st8" d="M78.1,84.8c-0.9-0.9,2.8-2.8,2.8,0c0,0.3-0.2,0.5-0.4,0.5c-0.4,0-0.6-0.3-0.6-0.9c0-0.2-0.2-0.5-0.4-0.4
		C79,84.2,78.6,85.2,78.1,84.8z"/>
	<path class="st21" d="M95.7,83.2L96,84c-0.7,0.3,1.4,4.1-2.5,1.5l0.5-1.8L95.7,83.2z"/>
	<path class="st8" d="M86,83.7L85.7,84l-1.2,1c-0.3,0.2-0.5,0.2-0.5-0.3C83.9,83.4,84.6,83.1,86,83.7z"/>
	<path class="st10" d="M51,83.7l1,0.3c0.2,1.4-0.1,2.6-0.7,3.8c-0.1,0.2-0.1,0.6,0.1,0.8c0.5,0.8,0.2,1.5-0.8,2.2l-1.2-0.4
		c-0.3-0.1-0.4-0.4-0.5-0.7c-0.1-1-0.7-1.3-1.7-0.8c-0.3,0.1-0.5,0.6-0.6,0.9s-0.4,0.5-0.7,0.6c-2.1,0.7-2.1,1.6,0.1,2.7
		c0.3,0.1,0.4,0.4,0.4,0.7c-0.1,1.3,0.5,1.8,1.8,1.4c0.3-0.1,0.5-0.3,0.5-0.7c0.2-1.1,1-1.8,2.1-2L51,95c-1.5,1.6,0.1,4.9-2,4.8
		c-2.6-5.7-8.9-0.8-5.7,2.4c1.6,1.6,3.4,1.5,5.3-0.5l-0.6,3.7c-0.9,0.6-1.3,1.4-1,2.5l-0.5,1.7c-0.9,0.3-1.2,0.8-1,1.3
		c0.1,0.2,0,0.5-0.2,0.6l-3.2,2c-0.3,0.2-0.6,0.2-0.8,0.1c-1.9-1.1-7.2-2.3-4.6-5.2c4.4-6.6,6.5-14,6.2-22.2
		C47.2,85.9,48.4,85.5,51,83.7z M40.9,106.1c-2.2-0.2-2.7,0.5-1.4,2.2c0.2,0.3,0.3,0.6,0.3,0.9c-0.2,2.6,0.6,3.1,2.5,1.3
		c0.2-0.2,0.5-0.4,0.8-0.4c2.3-0.4,2.6-1.3,0.9-2.8c-0.2-0.2-0.4-0.5-0.4-0.8c0-1.9-0.6-2.1-1.8-0.7C41.5,106,41.2,106.2,40.9,106.1
		z"/>
	<path class="st2" d="M57.2,85.6c-1,1.2-2.7-0.3-1.7-1.5C56.6,82.9,58.3,84.4,57.2,85.6z"/>
	<path class="st6" d="M86,83.7c2.1-0.1,0.6,2.3-0.3,0.3L86,83.7z"/>
	<path class="st2" d="M53.9,84.4c0.8,0.4,0.7,0.9-0.1,1.3c-0.3,0.2-0.6,0.1-0.8-0.1C52.4,85,53.2,84,53.9,84.4z"/>
	<path class="st2" d="M59,84.1c0.3-0.3,1,0.2,0.8,0.7c-0.4,1.7-0.8,1.7-1.1,0.2C58.7,84.5,58.8,84.2,59,84.1z"/>
	<path class="st8" d="M96,84l0.8,0.3l0.1,2c0,0.3-0.2,0.6-0.5,0.7c-1.3,0.4-2.2-0.1-2.7-1.4C97.4,88.1,95.3,84.2,96,84z"/>
	<path class="st2" d="M64.4,84.5c1.8,0,1.8,2.7,0,2.7S62.6,84.5,64.4,84.5z"/>
	<path class="st22" d="M32.8,84.7c0.4,0.7,0.2,1.5-0.5,2.3c-0.6-0.1-0.9-0.4-0.9-1L32.8,84.7z"/>
	<path class="st2" d="M34.5,84.7c5.7,2.4,2,10.4-3,7.8V92l2.5-3c0.8-0.1,1.8-0.7,1.2-1.6c-0.5-0.6-0.8-1.3-1-2.1L34.5,84.7z"/>
	<path class="st10" d="M70.2,87c0.2,0,0.5,0,0.5,0.3c0.7,2.6,0.7,5.3,0.2,8c-0.1,0.3-0.2,0.4-0.4,0.1c-1.8-3.2-2.7-6.6-2.7-10.2
		c0-0.8,0.2-0.9,0.6-0.2l1.1,1.8C69.7,86.8,70,87,70.2,87z"/>
	<path class="st20" d="M73,85.5c-1.6,1.6-2.5,1.5-2.7-0.3C70.3,84.1,72.6,85,73,85.5z"/>
	<path class="st16" d="M29.5,85l1.2,0.5c-0.8,0.8-1.4,0.7-1.7-0.2L29.5,85z"/>
	<path class="st15" d="M29,85.3c0.3,0.9,0.9,1,1.7,0.2l0.6,0.5c0,0.6,0.3,0.9,0.9,1l1,1.5L34,89l-2.5,3H30c1.3-1.1,1.3-1.8,0-2
		c-0.4-0.7-0.9-1-1.7-1l0.2-1.8l1.2,1l1.6,0.9c0.2,0.1,0.5,0.1,0.6-0.2c0.2-0.8-0.4-1.2-1.9-1c-0.2-0.8-0.7-1.2-1.5-1.2l-0.1-1.2
		L29,85.3z"/>
	<path class="st13" d="M34.2,85.2c0.2,0.8,0.5,1.5,1,2.1c0.6,0.8-0.4,1.5-1.2,1.6l-0.8-0.4C34.6,88.5,33.4,86.4,34.2,85.2z"/>
	<path class="st22" d="M43,86.3c0.2,8.2-1.9,15.6-6.2,22.2c-1.3,0.9-1.5,0.6-0.7-0.9C39.5,101,41.9,93.9,43,86.3z"/>
	<path class="st6" d="M81.5,94.7c0.4-0.4,0.8-0.6,1.3-0.4c0.4,0.1,0.7,0.1,0.8-0.1c0.4-0.5,0.1-1.5-0.7-1.3c-1,0.3-1.4,0-1.1-0.9
		c0.1-0.2,0.3-0.4,0.6-0.3c0.9,0.2,1.6-0.1,2-0.9c0.8,0.4,1.5,0.2,2-0.5c1.2-0.1,1.6-0.7,1.2-1.6c-0.1-0.3-0.4-0.5-0.7-0.5l-7.6,0.1
		c-0.9-0.4-1.6-0.2-2,0.5c-0.2,0.3-0.1,0.6,0.1,0.8c1,0.8,1.6,0.5,1.9-1.1C80.9,90.3,81.6,92.4,81.5,94.7c-0.3,1.1-0.7,1.3-1.4,0.6
		c-0.2-0.2-0.3-0.5-0.2-0.9c0.2-2.1-0.7-3.1-2.8-3c-0.3,0-0.6-0.1-0.8-0.4c-0.7-1-0.7-2,0.1-3c0.2-0.2,0.1-0.5-0.1-0.7
		c-1.1-1.1,0.3-1.4,1.1-1.3c3.6,0.6,7.2,0.7,10.7,0c0.3-0.1,0.5,0.1,0.5,0.4v2.5c0,0.3,0.1,0.6,0.3,0.8c1.7,1.8-2.5,2.1-3.2,2.5
		c-0.2,0.1-0.4,0.4-0.3,0.8C86.2,97,81.4,96,81.5,94.7z"/>
	<path class="st9" d="M28.5,86.7c0.8,0,1.3,0.4,1.5,1.2l-0.3,0.3l-1.2-1V86.7z"/>
	<path class="st14" d="M58,87v0.5l-1.3,1.2h-0.5c0-1-1.7-0.6-1.4-1.3c0.1-0.2,0.4-0.3,0.7-0.2C56.3,87.3,57.2,87.3,58,87z"/>
	<path class="st22" d="M58,87l1.5,0.2c0.3,0,0.6,0.2,0.8,0.5c0.9,1.4,0.1,1.3-2.2-0.2L58,87L58,87z"/>
	<path class="st22" d="M52.1,89.1c0.4-1.2,1-1.8,1.9-1.7c0.3,0,0.4,0.3,0.3,0.6c-0.5,0.9-1.1,1.3-2,1.5C52.2,89.4,52,89.3,52.1,89.1
		z"/>
	<path class="st2" d="M65.2,89.4c-0.4,0.1-0.7,0.4-0.9,0.9c-0.1,0.3-0.4,0.4-0.6,0.3c-1.1-0.3-1.3-2.1-0.2-2.6
		c4.7-2,3.5,5.7,2.5,7.7c-0.1,0.3-0.1,0.6,0.2,0.7c0.5,0.2,2.5,0.7,2.8,1c1.6,2-2.1,3.4-1.5,1.8c0.1-0.3,0-0.6-0.2-0.7
		c-1.9-0.2,0,4.6,0.6,5.3c1.2,1.8,2.2,2.1,3.3,0.9c0.9-1.1,0.7-1.5-0.5-1.3c-0.3,0.1-0.7,0-0.8-0.3c-0.7-1,0.5-2,1.4-1.8
		c3,0.6,1.9,4.9-1.1,4.8c-4.7-0.2-4.8-5.9-5-9.1c0-0.3-0.2-0.5-0.5-0.5c-1.7,0-2.3-0.9-1.6-2.4c0.1-0.3,0.4-0.4,0.7-0.4
		c0.6,0,1.1-0.1,1.5-0.3c0.3-0.2,0.4-0.5,0.4-0.8v-2.9C65.7,89.5,65.4,89.3,65.2,89.4z"/>
	<path class="st16" d="M30,88c1.5-0.2,2.1,0.2,1.9,1c-0.1,0.2-0.4,0.3-0.6,0.1l-1.6-0.9L30,88z"/>
	<path class="st5" d="M79.5,88.3v0.2c-0.3,1.6-1,1.9-1.9,1.1c-0.2-0.2-0.3-0.5-0.1-0.8C77.9,88,78.6,87.9,79.5,88.3z"/>
	<path class="st3" d="M86.5,90.2c-0.7-1.1-1.6-2.5-1.8,0l-0.2,0.5c-0.5,0.9-1.1,1.2-2,0.9c-0.3-0.1-0.6,0.1-0.6,0.3
		c-0.3,0.9,0.1,1.2,1.1,0.9c0.8-0.2,1,0.8,0.6,1.3c-0.1,0.2-0.5,0.2-0.8,0.1c-0.5-0.1-0.9,0-1.3,0.4c0.1-2.3-0.6-4.4-2-6.2v-0.2
		l7.6-0.1c0.3,0,0.6,0.2,0.7,0.5C88.2,89.6,87.8,90.1,86.5,90.2z M82.4,88.8c-0.6,0-0.5,1,0.1,1.1c0.7,0.3,0.9,0.1,0.6-0.6
		C82.9,89,82.6,88.8,82.4,88.8z"/>
	<path class="st15" d="M95,88.5h1l0.3,2.5v0.5c-0.8,1.9-0.8,3.8,0,5.8l0.2,1l-1.2,4.8C94.9,98.2,94.8,93.3,95,88.5z"/>
	<path class="st2" d="M50.5,90.8c0.4,0.5,0.5,1.1,0.2,1.7c-1.2,0.2-1.9,0.9-2.1,2c-0.1,0.3-0.3,0.6-0.5,0.7
		c-1.3,0.4-1.9-0.1-1.8-1.4c0-0.3-0.1-0.6-0.4-0.7c-2.2-1.1-2.2-2-0.1-2.7c0.3-0.1,0.6-0.3,0.7-0.6c0.1-0.3,0.3-0.8,0.6-0.9
		c1-0.4,1.6-0.2,1.7,0.8C48.8,90.5,49.9,90.5,50.5,90.8z"/>
	<path class="st22" d="M56.2,88.7h0.5c1.3,0.2,4.8,1.3,4.2,2.9c-0.1,0.2-0.4,0.3-0.6,0.2l-3.4-2c-0.3-0.1-0.6-0.1-0.8,0.1
		c-0.9,0.7-6.3,4.4-3.8,1.4C53.3,89.9,54.6,89.1,56.2,88.7z"/>
	<path class="st6" d="M83,89.3c0.7,1.4-1.2,0.7-1-0.1C82.1,88.6,82.8,88.8,83,89.3z"/>
	<path class="st6" d="M86,89.5c-0.2,0.6-0.6,0.8-1.3,0.7C84.9,88.7,85.3,88.4,86,89.5z"/>
	<path class="st14" d="M28.3,89c0.8-0.1,1.3,0.2,1.7,1l-0.5,0.3l-1-0.2L28.3,89z"/>
	<path class="st2" d="M100.9,90.8c-0.1,0.6-0.5,1.1-1,1.4c-0.3,0.2-0.4,0.4-0.5,0.7c-0.1,0.9-0.4,1.2-1,0.8
		c-0.2-0.1-0.4-0.4-0.6-0.8c-0.3-0.7-0.9-1.2-1.6-1.5V91C97.6,89,99.2,88.9,100.9,90.8z"/>
	<path class="st21" d="M86,89.5l0.5,0.8c-0.5,0.7-1.2,0.9-2,0.5l0.2-0.5C85.4,90.3,85.8,90.1,86,89.5z"/>
	<path class="st15" d="M28.5,90l1,0.2l-1.1,1.5L28.5,90z"/>
	<path class="st9" d="M30,90c1.3,0.2,1.3,0.9,0,2c-0.3,0-1.2,0-1.5,0l-0.1-0.2l1.1-1.5L30,90z"/>
	<path class="st22" d="M51,95l5.1-3.8c0.2-0.2,0.6-0.2,0.9-0.1c1.3,0.6,5.5,2.8,4.5,3.7c-0.2,0.1-0.5,0.1-0.8-0.1l-3.8-2.2
		c-0.2-0.1-0.6-0.1-0.9,0.1C55.2,93.2,51.4,96.5,51,95z"/>
	<path class="st3" d="M28.5,92h1c0.5,2,1.8,3,3.8,3c0.5,0,0.8,0.1,0.8,0.5l-1.3,0.8h-0.5l-1-0.3c-1.4-0.3-2.2-1.1-2.3-2.5L28.5,92z"
		/>
	<path class="st8" d="M29.5,92H30l1.5,0.1v0.5c-2.4,1.5,3,1.8,3.9,1.5c0.6-0.1,1.3,0.2,1.5,0.8c0.3,0.7,0.2,1.1-0.5,1.1
		c-0.3,0-0.6-0.1-0.8-0.4c-0.5-0.5-0.9-0.6-1.1-0.1H34c0-0.3-0.2-0.5-0.8-0.5C31.3,95.1,30,94.1,29.5,92z"/>
	<path class="st19" d="M25.5,93c0.9,0.7,1.5,1.6,2,2.7c-0.2,0-0.3,0-0.5,0c-0.2,0.1-0.3,0.3-0.3,0.7l-0.2,46.2
		c-0.4-0.1-0.8-0.1-1-0.1C25.1,126,25.1,109.5,25.5,93z"/>
	<path class="st26" d="M29,93.5c0.1,1.3,0.9,2.1,2.3,2.5l-1,0.5l-1-0.5C27.9,95.1,27.8,94.3,29,93.5z"/>
	<path class="st22" d="M57,95.4c-1.9,0.6-3.6,1.6-5,3c-0.3,0.3-0.6,0.4-0.8,0.4c-2.5-0.2,4.7-4.6,4.9-4.8c0.3-0.2,0.6-0.2,0.8-0.1
		c2.6,1.4,4.2,2.3,4.8,3c2.7,2.9-3.9-1.3-4-1.3C57.6,95.4,57.3,95.4,57,95.4z"/>
	<path class="st15" d="M75.4,95c1.1,1.1,1,2.5-0.3,4.1c-0.2,0.2-0.6,0.2-0.7-0.1c-0.4-1-1.5-4.1,0.2-4.3
		C74.9,94.7,75.2,94.8,75.4,95z"/>
	<path class="st2" d="M67.2,95.2c2.8-1.9,0.5,2.4-0.3,0.8C66.7,95.7,66.9,95.4,67.2,95.2z"/>
	<path class="st2" d="M34,95.5h0.5l0.3,16.3c0,6.5-0.1,13,0,19.5c0,1-0.6,1.5-1.7,1.5c-0.3,0-0.5-0.2-0.5-0.5
		c-0.1-7.4,0.1-28.3,0.2-36L34,95.5z"/>
	<path class="st2" d="M27.5,95.7l1.2,0.6L29,98c-0.4,10.4-0.4,20.8-0.1,31.2c0.1,3.5,2.8,7.6,6.1,3c0.2-0.3,0.3-0.6,0.3-0.9
		l0.3-19.1c0-0.1,0.1-0.3,0.2-0.3H36l4.5,2.5c-0.5,0.9-0.3,1.7,0.5,2.3c-0.2,0.7,0.1,1.1,0.8,1.2c1.2,0.9,2.5,1,3.8,0.4
		c0.2-0.1,0.5,0,0.5,0.3l0.4,2.1c-0.4,1.7-0.2,3.3,0.8,4.9c-0.4,1.6-0.4,3.2,0,4.8l-7.1,12.1c-0.2,0.3-0.4,0.4-0.8,0.4
		c-4.4,0.2-8.7,0.1-12.9-0.4l0.2-46.2c0-0.3,0.1-0.6,0.3-0.7C27.2,95.7,27.3,95.7,27.5,95.7z"/>
	<path class="st4" d="M29.2,96l1,0.5l0.3,1.2l-0.8,0.6L29,98l-0.3-1.7L29.2,96z"/>
	<path class="st14" d="M31.2,96l1,0.3l-1.2,2l-0.5-0.5l-0.3-1.2L31.2,96z"/>
	<path class="st15" d="M32.2,96.3h0.5l-0.2,24.5l-0.7,0.3c-0.6-0.1-0.9-0.4-0.8-1l0.2-0.2c0.4-0.7,0.4-1.3-0.3-2
		c0.8-0.7,0.9-1.3,0.4-1.9c-0.2-0.2-0.2-0.5,0-0.6c0.4-0.4,0.5-0.7,0.1-1.1c-0.2-0.2-0.3-0.5-0.1-0.7c0.3-0.5,0.3-1.1,0-1.6
		c-0.1-0.2-0.1-0.5,0-0.8c0.3-0.6,0.2-1.3-0.3-2l0.4-0.1L31,100c1.1-0.3,1.1-0.9,0-1.8L32.2,96.3z"/>
	<path class="st22" d="M57.5,98.1c-0.3-0.3-0.8-0.3-1.2,0l-5.4,3.7c-0.3,0.2-0.7,0.3-0.9,0.1c-1-0.7,4.9-4.4,6.5-5.2
		c0.3-0.2,0.6-0.2,0.9,0c2.3,1.1,4.2,2.5,5.8,4.3c0.2,0.3,0.2,0.3-0.1,0.2C61,100.4,59.2,99.4,57.5,98.1z"/>
	<path class="st21" d="M79.2,96.5l1.9,2.3c0.2,0.2,0.2,0.5,0.1,0.6L81,99.8c-0.8-0.4-1.3,0.4-1.9,0.3C76.8,99.4,76.8,98.2,79.2,96.5
		z"/>
	<path class="st9" d="M49,99.8l-0.4,1.9c-2,1.9-3.7,2.1-5.3,0.5C40.1,99,46.4,94.1,49,99.8z M45.6,102c1.4,0.2,2.7-1.4,2.1-2.7
		C45,95.1,40.8,101.7,45.6,102z"/>
	<path class="st24" d="M86.8,97.2c1.2,0.8,1.4,1.5,0.4,2.3c-0.2,0.2-0.5,0.2-0.9,0.1c-1.4-0.4-2.2,0.1-2.6,1.4
		c-0.4,1.1-1.8,0.6-2.2-0.3l2.5-2c1.2,0.5,4.8-0.1,2.3-1L86.8,97.2z"/>
	<path class="st2" d="M30.5,97.7l0.5,0.5c1.1,0.9,1.1,1.5,0,1.8h-0.2l-1-1.7L30.5,97.7z"/>
	<path class="st26" d="M86.2,97.8c2.6,0.9-1.1,1.5-2.3,1L86.2,97.8z"/>
	<path class="st13" d="M29,98l0.7,0.3l1,1.7c-1.1,0.7-1.3,1.4-0.5,2.1c0.2,0.1,0.2,0.4,0,0.5c-0.7,0.5-0.7,1.1,0,1.7
		c0.2,0.1,0.1,0.4-0.1,0.5c-0.9,0.4-0.9,0.9,0,1.5c0.2,0.1,0.2,0.4,0,0.5c-1.1,0.6-0.7,1.4,1.2,2.1L31,109c-1.3-0.4-1.7,0.5-0.7,1.1
		c0.3,0.2,0.3,0.5-0.1,0.8c-0.1,2.3-0.1,4.5,0.1,6.8c-0.7,1-0.3,1.7,1,2L31,120c-0.4-0.1-0.8-0.1-1.2,0.2c-0.2,0.1-0.1,0.4,0.1,0.6
		c0.6,0.4,0.8,0.9,0.3,1.4c-0.2,0.3-0.3,0.6-0.2,0.8c0.3,1.4,0.3,2.8-0.1,4.3c-0.1,0.2,0,0.5,0.3,0.8s0.3,0.7-0.1,1.1
		c-0.2,0.2-0.1,0.5,0,0.6c0.4,0.4,0.5,0.8,0.1,1.2c-0.2,0.2-0.2,0.5,0,0.7c0.6,0.4,1.4,1.5,1.9,1.3c0.6-0.3,0-0.8-0.5-1
		c-0.6-0.3-0.8-0.6-0.3-1.1c0.2-0.2,0.3-0.5,0.3-0.8c-0.5-3.1-0.4-6.1,0.2-9.2l0.7-0.3l0.1,11.5c0,0.3,0.2,0.5,0.5,0.5
		c1.2,0,1.7-0.5,1.7-1.5c0-6.5,0-13,0-19.5L36,112c-0.2,0-0.4,0-0.4,0.3c0,0-0.3,19.1-0.3,19.1c0,0.3-0.1,0.6-0.3,0.9
		c-3.4,4.6-6,0.4-6.1-3C28.6,118.8,28.6,108.4,29,98z"/>
	<path class="st23" d="M45.6,102c-4.7-0.4-0.5-6.9,2.1-2.7C48.3,100.7,47,102.3,45.6,102z M44.6,100.8c0.6,0.7,1.3,0.8,2.1,0.2
		c0.2-0.2,0.4-0.5,0.3-0.8c-0.6-1.7-1.5-1.8-2.9-0.2c-0.1,0.2-0.1,0.4,0,0.5C44.4,100.6,44.6,100.7,44.6,100.8z"/>
	<path class="st10" d="M96.5,98.2c1.4,1,1.9,2.3,1.5,4c-0.1,0.3-0.3,0.6-0.6,0.7c-0.5,0.2-1.2,0.2-2.1,0.1L96.5,98.2z"/>
	<path class="st2" d="M44.1,100.5c-0.2-0.1-0.2-0.3,0-0.5c1.4-1.6,2.3-1.5,2.9,0.2c0.1,0.3,0,0.6-0.3,0.8c-0.8,0.5-1.5,0.5-2.1-0.2
		C44.6,100.7,44.4,100.6,44.1,100.5z"/>
	<path class="st22" d="M64.2,104.8l-7-4.2c-0.2-0.2-0.6-0.1-0.8,0.1c-1,0.7-7.4,5.6-8.1,4.8l8-6.2c0.2-0.2,0.6-0.2,0.9,0
		C57.4,99.4,66.8,104.5,64.2,104.8z"/>
	<path class="st9" d="M30.8,100H31l0.4,8.9c-1.9-0.8-2.3-1.5-1.2-2.1c0.1-0.1,0.2-0.3,0.1-0.4c-0.9-0.6-1.1-1.2-0.1-1.6
		c0.2-0.1,0.2-0.3,0.1-0.5c-0.7-0.6-0.7-1.1,0-1.6c0.2-0.1,0.2-0.4,0.1-0.5C29.5,101.5,29.6,100.7,30.8,100z"/>
	<path class="st4" d="M89.3,105.1c-3.6-4.7,3.7-6.7,0.6-0.1C89.8,105.2,89.5,105.3,89.3,105.1z"/>
	<path class="st15" d="M80.6,101.4c0.4,0.3,0.6,0.8,0.5,1.2C79.3,110.4,76.8,98.8,80.6,101.4z"/>
	<path class="st3" d="M103,106.7c0.5-0.3,2.2-2,2.7-2.1c7.8-1.2,5.7,10.5-1.3,6.5c-0.3-0.2-0.5-0.1-0.6,0.1c0,0.1,0,0.2,0.1,0.2
		c2,1.3,2.4,3.6,1,5.4c-3.3,4.5-9.6-1.7-5.4-5.1c0.6-0.5,0.6-0.6-0.2-0.4c-3.7,1.1-5.8-0.1-6.2-3.5c0-0.3,0-0.7,0.2-0.9
		c2.2-3.4,4.7-3.5,7.3-0.3c0.2,0.3,0.5,0.4,0.7,0.2c0.4-0.3-1.3-4.2-1.5-4.8c-0.1-0.3,0-0.6,0.3-0.6h3.7c0.2,0,0.3,0.3,0.3,0.5
		l-1.4,4.3C102.5,106.9,102.6,107,103,106.7z"/>
	<path class="st6" d="M55.8,102.5c0.7-0.6,1.1-0.4,1.2,0.5c0,1-0.5,1.8-1.7,2.3c-0.3,0.1-0.6,0-0.7-0.3
		C54.3,104.2,54.7,103.3,55.8,102.5z"/>
	<path class="st6" d="M59.5,103.5l-0.3,1.2C57.5,106.1,56.1,99.5,59.5,103.5z"/>
	<path class="st21" d="M59.5,103.5l1,0.5l-0.3,1l-1-0.3L59.5,103.5z"/>
	<path class="st15" d="M83.7,104.8c0.2-1.4,0.8-1.6,1.8-0.6c1.2,1.3,1,2.6-0.6,3.9C83.8,108.8,83.6,105.7,83.7,104.8z"/>
	<path class="st6" d="M60.5,104c1,0.2,1.7,0.8,2,1.8c0.1,0.8-0.1,1.1-0.8,1c-0.9-0.2-1.4-0.8-1.5-1.8L60.5,104z"/>
	<path class="st6" d="M53.6,106.2c-1.1,1.8-2.8,0.7-1.8-1.1C52.9,103.4,54.7,104.4,53.6,106.2z"/>
	<path class="st2" d="M41.8,105.8c1.2-1.4,1.8-1.2,1.8,0.7c0,0.3,0.1,0.6,0.4,0.8c1.7,1.5,1.5,2.4-0.9,2.8c-0.3,0.1-0.6,0.2-0.8,0.4
		c-1.9,1.8-2.7,1.4-2.5-1.3c0-0.3-0.1-0.6-0.3-0.9c-1.2-1.7-0.8-2.4,1.4-2.2C41.2,106.2,41.5,106,41.8,105.8z"/>
	<path class="st21" d="M62.5,105.7L64,106l-0.8,1l-1.5-0.2C62.4,106.9,62.7,106.5,62.5,105.7z"/>
	<path class="st6" d="M64,106h0.2c0.7,0.1,0.9,0.6,0.8,1.3c-0.5,2.1-1.1,2-1.8-0.2L64,106z"/>
	<path class="st2" d="M73,106.1c1.2-0.2,3.8,0.7,2.8,2.3c-0.1,0.2-0.5,0.3-0.7,0.1l-2.3-1.9C72.6,106.3,72.6,106.2,73,106.1z"/>
	<path class="st22" d="M49.4,106.9c3.9-3.5-0.1,5.5-0.4,0.8C49,107.4,49.1,107.1,49.4,106.9z"/>
	<path class="st22" d="M66,107.5c0.8,0.5,1.4,1.3,1.8,2.2l-0.5,0.5C66.1,109.7,65.7,108.8,66,107.5z"/>
	<path class="st25" d="M65.2,112c0.2,1.3-0.2,1.9-1.3,1.9c-0.3,0-0.6-0.2-0.8-0.5c-0.7-1.1-1.7-1.9-2.9-2.4
		c-2.4-1.6-4.5-1.4-6.2,0.8l-1.8,0.5l-0.8-0.8c1.7-1.7,3.6-2.9,5.8-3.6c0.3-0.1,0.6-0.1,0.9,0.1L65.2,112z"/>
	<path class="st6" d="M47,108c1.6,0,1.3,4-0.5,1.7L47,108z"/>
	<path class="st9" d="M31,109c0.6,0.8,0.7,1.4,0.3,2c-0.1,0.3-0.2,0.6,0,0.8c0.3,0.5,0.3,1,0,1.6c-0.1,0.2-0.1,0.5,0.1,0.7
		c0.4,0.3,0.3,0.7-0.1,1.1c-0.2,0.1-0.2,0.4,0,0.6c0.6,0.6,0.5,1.2-0.4,1.9h-0.7c-0.2-2.3-0.2-4.5-0.1-6.8c0.4-0.4,0.4-0.6,0.1-0.8
		C29.3,109.4,29.7,108.6,31,109z"/>
	<path class="st15" d="M67.8,109.7c0.3,0.9,1,1.2,2.1,1l1.3,5.5c-1.1-1.1-2.2-5.1-3.4-5l-0.5-1L67.8,109.7z"/>
	<path class="st9" d="M60.2,111l-0.7,0.3c-1.2-0.3-3-0.5-3.8,0.7c-1.4,2.2-0.8,2.5,1.5,0.9v0.2c-2,2.7-3.1,2.3-3.3-1.2
		C55.8,109.6,57.9,109.3,60.2,111z"/>
	<path class="st9" d="M72.5,111l-0.1,0.2c-1.6,0-1.8,0.6-0.5,1.8c0.2,1.3,0.1,2.5-0.5,3.7l-0.3-0.5l-1.3-5.5
		C71,110.3,71.9,110.3,72.5,111z"/>
	<path class="st18" d="M59.5,111.2c-1.4,0.8-6.5,4.8-3.8,0.6C56.6,110.8,58.3,110.9,59.5,111.2z"/>
	<path class="st14" d="M51.5,111.5l0.8,0.8l1.5,2.5c0.1,0.2,0.1,0.6-0.1,0.9c-1.1,1.4-1.8,3-2.2,4.8c-0.4,1.5-1,1.9-2,1.3
		c0.6-2.5,1.7-4.6,3.3-6.5c0.2-0.2,0.2-0.6,0.1-0.8c-3.3-5.7-3.3,1.2-6,1.5c0.9-1.1,1.1-2.2,0.5-3.5c0.2-0.7,0.5-0.9,1.1-0.6
		c0.2,0.1,0.5,0.1,0.7-0.1C49.6,110.9,50.4,110.9,51.5,111.5z"/>
	<path class="st2" d="M60.2,111c1.2,0.5,2.2,1.4,2.9,2.4c0.2,0.3,0.5,0.5,0.8,0.5c1.1,0,1.5-0.6,1.3-1.9c1-0.6,1.4-0.5,1.2,0.3
		c-0.4,0.9,1.6,1.7,1.8,1.7c0.3,0,0.2-0.3-0.2-0.8c-0.5-0.6-0.6-1.3-0.2-2.1c1.2-0.1,2.3,3.9,3.4,5l0.3,0.5l0.1,8.7
		c0,0.4-0.3,0.4-0.5,0.4s-0.4-0.3-0.6-0.7c-0.5-1-1.4-1.2-2.7-0.5h-0.5l-0.9-3.2c-0.1-0.5-0.2-0.4-0.3,0.1c-0.2,2.5-0.1,5,0.4,7.5
		c0.8,0.6,0.9,1.2,0.2,1.8c-2.4-0.1-9.5,1.1-11-0.3c0-0.5,0.1-0.9,0.4-1.1c0.2-0.1,0.5,0,0.9,0.2c2,1.2,3.8,1.2,5.5-0.3
		c0.2-0.2,0.3-0.5,0.1-0.7c-0.4-0.5-0.8-0.4-1,0.2c-0.1,0.3-0.4,0.4-0.7,0.4c-1.7-0.2-4.6,0.7-4.9-1.9c1.3,0.9,3.1,1.2,5.2,0.9
		c1.8-0.3,2.1-1.1,0.8-2.5c-1.7-1.8-3.6-1.6-5.8,0.7c-0.2,0-0.4,0-0.4-0.3l0.5-7.9c0-0.3,0.2-0.6,0.4-0.8c1.3-0.9,2.4-2.1,3.2-3.5
		c0.2-0.3,0.5-0.4,0.7-0.3c0.3,0.1,0.5,0.4,0.7,0.7c0.2,0.3,0.3,0.3,0.4,0c0.2-0.8-0.2-1.4-1-1.7c-0.2-0.1-0.6,0-0.8,0.3
		c-0.6,0.9-1.5,1.1-2.6,0.7v-0.2l2.3-1.5L60.2,111z M63.8,115.3c-1.4-0.3-2.3,0.2-3,1.6c-0.1,0.2,0,0.5,0.3,0.6
		c1.9,0.7,3.8,0.7,5.7-0.1c0.3-0.1,0.4-0.4,0.3-0.7c-0.5-1.1-1.2-1.6-2.3-1.4C64.5,115.4,64.1,115.4,63.8,115.3z M63,120.8
		c0.1,0.5-0.4,0.8-1.7,0.7c0,0-0.1,0,0,0.1c0.4,1.3,1.3,1.5,2.5,0.4c2-0.6,2-1,0.2-1.2c-0.3,0-0.5-0.2-0.7-0.5
		c-0.7-1.6-2-2.4-3.8-2.3c-1.9,0.1-2.4,0.9-1.5,2.5c0.6,1.1,1.3,1.3,2.2,0.7c0.2-0.1,0.1-0.5-0.1-0.6c-1.1-0.6-1.3-1.1-0.4-1.5
		c0.3-0.1,0.6-0.1,0.9,0.1L63,120.8z M68.8,119.8c-0.8,0.6-0.8,1-0.1,1.4c1.5,0.4,1.8-2.5,0.5-2.9c-1.6-0.6-2.8-0.3-3.8,1.1
		c-1.2,1.8,2.5-0.5,3.3-0.1C69,119.3,69,119.6,68.8,119.8z"/>
	<path class="st13" d="M72.5,111.2c-0.4,0.6-0.5,1.1-0.2,1.7L72,113C70.7,111.8,70.8,111.2,72.5,111.2z"/>
	<path class="st2" d="M72.5,111c2,0.2,3.7,1,5,2.5c0.2,1-0.1,2.3-1.3,2.1c-1.2-0.2-2.2,0.2-3,1.3l0.7-2.6l0.8-0.3
		c2.5,1.1,2.2,0.5-0.9-1.8c-0.4-0.3-0.8,0.1-0.8,0.6l-0.5,0.3l-0.2-0.1c-0.3-0.6-0.2-1.2,0.2-1.7L72.5,111z"/>
	<path class="st12" d="M54,111.8c0.2,3.5,1.3,3.9,3.3,1.2c1.1,0.4,2,0.2,2.6-0.7c0.2-0.3,0.5-0.4,0.8-0.3c0.9,0.4,1.2,0.9,1,1.7
		c-0.1,0.3-0.2,0.3-0.4,0s-0.4-0.5-0.7-0.7c-0.2-0.1-0.6,0-0.7,0.3c-0.8,1.4-1.9,2.6-3.2,3.5c-0.3,0.2-0.4,0.5-0.4,0.8l-0.5,7.9
		c0,0.3,0.2,0.3,0.4,0.3l-0.2,1c0.3,2.6,3.2,1.7,4.9,1.9c0.3,0,0.6-0.1,0.7-0.4c0.3-0.6,0.6-0.7,1-0.2c0.2,0.2,0.1,0.6-0.1,0.7
		c-1.7,1.4-3.6,1.5-5.5,0.3c-0.4-0.2-0.7-0.3-0.9-0.2c-0.3,0.2-0.4,0.5-0.4,1.1l-1.2,0.2V129l0.6-12.2c0-0.2,0-0.4-0.2-0.5
		c-0.3-0.4-0.7-0.2-0.8,0.3l-1.5,11.2c-0.7,1-0.7,1.9,0,2.7c-1,0.2-1.8,0.1-2.3-0.4c0.1-3.1,0.9-6,2.4-8.7c0.3-0.5-0.8-0.9-1.3-1.2
		c0.3-1.8,1.1-3.4,2.2-4.8c0.2-0.3,0.3-0.6,0.1-0.9l-1.5-2.5L54,111.8z M57.6,115c0.8,0,0.5-1.1-0.1-0.9c-0.6,0.3-1,0.8-1.3,1.4
		c-0.3,0.8,1,0.8,0.9,0C57.1,115.3,57.3,115.1,57.6,115z"/>
	<path class="st18" d="M49.5,121.7c-0.2,1.8-0.6,2.4-1.1,1.8c-1.2-1.4,0.7-5.1,1.7-6.3c0.4-0.6,1.8-4.8,0.2-4.2
		c-0.3,0.1-0.6,0.4-0.6,0.7v3.2c-1.6,0.8-2.7,2.1-3.2,3.9l-0.4-2.1c0-0.2-0.3-0.4-0.5-0.3c-1.4,0.6-2.6,0.4-3.8-0.4l0.2,0
		c1.1-0.5,2-1.3,2.8-2.2c0.5,1.5,1.2,1.5,2,0.2c2.8-0.4,2.8-7.3,6-1.5c0.1,0.2,0.1,0.6-0.1,0.8C51.2,117.1,50.1,119.3,49.5,121.7z"
		/>
	<path class="st15" d="M74.8,114l-1.7-1.2c0-0.5,0.4-0.9,0.8-0.6C76.9,114.4,77.2,115,74.8,114z"/>
	<path class="st12" d="M47.2,112.5c0.6,1.2,0.5,2.4-0.5,3.5c-0.8,1.3-1.5,1.2-2-0.2l0.5-2L47.2,112.5z"/>
	<path class="st14" d="M73,112.7l1.7,1.2l-0.8,0.3l-1.5-1.2L73,112.7z"/>
	<path class="st20" d="M50,117.2l-0.3-0.3v-3.2c0-0.3,0.2-0.6,0.6-0.7C51.8,112.5,50.4,116.6,50,117.2z"/>
	<path class="st15" d="M72,113l0.2-0.1l0.2,0.1l1.5,1.2l-0.7,2.6l0.4,0.1c-1.5,1-1.5,1.7,0,2.2c1,0.5,1.1,0.8,0.2,0.8
		c-1.5,0.2-1.9,0.9-1.2,2.2c-0.1,0.8,0,1.9,1,2c2.8,0.2,2.4,4.1,0.2,3.2c-0.5-0.2-0.9,0.1-1.2,0.4l-0.8-0.1c1.3-2.1,1.1-2.3-0.8-0.5
		l-4,1.5h-0.7c-0.5-2.5-0.6-5-0.4-7.5c0-0.5,0.1-0.5,0.3-0.1l0.9,3.2l-0.1,0.7c-0.1,0.3,0.1,0.6,0.4,0.7c0.9,0.3,1-0.2,0.2-1.3
		c1.3-0.7,2.2-0.5,2.7,0.5c0.2,0.4,0.5,0.7,0.6,0.7c0.3,0,0.5,0,0.5-0.4l-0.1-8.7C72.1,115.6,72.2,114.3,72,113z M74.1,125.3
		c-0.8-0.1-0.6,0.9-0.1,1.2c1,0.9,1.3,0.7,0.8-0.6C74.6,125.6,74.4,125.3,74.1,125.3z"/>
	<path class="st4" d="M77.5,113.5h0.7c-0.1,2.7-1.6,3.8-4.5,3.5l-0.4-0.1c0.8-1.1,1.8-1.5,2.9-1.3C77.4,115.8,77.7,114.5,77.5,113.5
		z"/>
	<path class="st20" d="M45.2,113.7l-0.5,2c-0.7,1-1.7,1.7-2.8,2.2c-0.1-0.5,0-0.9,0.3-1c0.4-0.2,0.7-0.4,0.8-0.5
		c0.3-0.6,0.5-1.2,0.5-1.8c0-0.3,0.2-0.5,0.5-0.6L45.2,113.7z"/>
	<path class="st16" d="M57.1,115.6c0,0.8-1.2,0.8-0.9,0c0.3-0.5,1.2-1.9,1.8-1.2c0.2,0.3,0.1,0.7-0.4,0.7
		C57.3,115.1,57.1,115.3,57.1,115.6z"/>
	<path class="st16" d="M40.5,114.5l1,0.5c-0.7,0.7-0.7,1.2,0.2,1.5l-0.7,0.3C40.2,116.2,40,115.4,40.5,114.5z"/>
	<path class="st20" d="M41.5,115c0.6,0.4,0.7,0.9,0.2,1.5C40.8,116.1,40.8,115.6,41.5,115z"/>
	<path class="st12" d="M64.8,115.3c1-0.2,1.8,0.3,2.3,1.4c0.1,0.3,0,0.6-0.3,0.7c-1.9,0.8-3.8,0.8-5.6,0.1c-0.3-0.1-0.4-0.4-0.3-0.6
		c0.6-1.4,1.6-1.9,3-1.6C64.1,115.4,64.5,115.4,64.8,115.3z M64.2,116.7c0.6-1.2-5,0.1-0.6,0.3C63.9,117,64.1,116.9,64.2,116.7z"/>
	<path class="st16" d="M63.6,117c-4.4-0.2,1.2-1.5,0.6-0.3C64.1,116.9,63.9,117,63.6,117z"/>
	<path class="st20" d="M54.5,129.2c-1.1,0.3-1.7-0.1-1.8-1.2l1.5-11.2c0.2-0.8,1-0.4,1,0.2L54.5,129.2z"/>
	<path class="st17" d="M49.8,117l0.3,0.3c-1,1.2-2.9,4.9-1.7,6.3c0.5,0.6,0.9,0,1.1-1.8c1,0.6,1.7,0.2,2-1.3
		c0.5,0.4,1.6,0.7,1.3,1.2c-1.5,2.7-2.3,5.6-2.4,8.7l-0.4-0.1l-1.5-0.3c-0.3,0-0.4-0.3-0.4-0.5l1.3-4.1c0.2-0.7,0-0.9-0.6-0.5
		l-1.5,0.9c-0.9-1.6-1.2-3.2-0.8-4.9C47.1,119.1,48.1,117.8,49.8,117z"/>
	<path class="st2" d="M30.3,117.7H31c0.6,0.7,0.7,1.4,0.3,2C30,119.4,29.6,118.7,30.3,117.7z"/>
	<path class="st15" d="M63.8,122l-0.8-1.2l-2.4-1.6c-0.3-0.2-0.6-0.2-0.9-0.1c-0.9,0.4-0.8,0.9,0.4,1.5c0.2,0.1,0.3,0.4,0.1,0.6
		c-0.8,0.6-1.5,0.4-2.2-0.7c-0.9-1.5-0.4-2.4,1.5-2.5s3.1,0.7,3.8,2.3c0.1,0.3,0.4,0.5,0.7,0.5C65.8,121,65.7,121.4,63.8,122z"/>
	<path class="st4" d="M68.8,119.2c-0.8-0.4-4.5,1.8-3.3,0.1c1-1.4,2.2-1.8,3.8-1.1c1.1,0.5,1,2.1,0.3,2.7c-0.2,0.2-0.5,0.3-0.8,0.2
		c-0.7-0.3-0.7-0.8,0.1-1.4C69,119.6,69,119.3,68.8,119.2z"/>
	<path class="st13" d="M73.5,122.2c-0.3-0.1-0.4-0.2-0.5-0.4c0-0.2,0.2-0.4,0.5-0.5c0.6-0.2,0.7-0.7,0.4-1.3
		c0.8-0.1,0.7-0.4-0.2-0.8C77.2,117.3,78.1,123.8,73.5,122.2z M75.4,121.4c3.1-2.6-2.6-0.8-0.9,0.2
		C74.8,121.7,75.1,121.7,75.4,121.4z"/>
	<path class="st9" d="M31,120c-0.1,0.6,0.1,0.9,0.8,1c-0.6,3-0.7,6.1-0.2,9.2c0,0.3-0.1,0.6-0.3,0.8c-0.4,0.4-0.3,0.8,0.3,1.1
		c0.5,0.2,1,0.7,0.5,1c-0.5,0.2-1.4-0.9-1.9-1.3c-0.2-0.2-0.2-0.5,0-0.7c0.4-0.4,0.4-0.8-0.1-1.2c-0.2-0.2-0.2-0.5,0-0.6
		c0.8-0.8-0.3-1.1-0.2-1.9c0.4-1.4,0.4-2.8,0.1-4.3c-0.1-0.3,0-0.6,0.2-0.8c0.4-0.5,0.3-1-0.3-1.4c-0.2-0.1-0.3-0.4-0.1-0.6
		C30.2,120,30.6,119.9,31,120z"/>
	<path class="st20" d="M74,120c0.3,0.6,0.2,1-0.4,1.3c-0.3,0.1-0.6,0.3-0.5,0.5c0,0.2,0.2,0.3,0.5,0.4h-0.7
		C72.1,121,72.5,120.2,74,120z"/>
	<path class="st20" d="M74.5,121.6c-1.7-0.9,3.9-2.8,0.9-0.2C75.1,121.7,74.8,121.7,74.5,121.6z"/>
	<path class="st12" d="M63,120.8l0.8,1.2c-1.2,1.1-2.1,1-2.5-0.4v-0.1C62.6,121.5,63.1,121.3,63,120.8z"/>
	<path class="st3" d="M103.4,135.3c2.1-2.4,2.7-5.3,1.9-8.5c-0.1-0.3-0.3-0.5-0.6-0.5c-1.2-0.1-1.6-0.9-1.1-2.3
		c0.1-0.3,0.4-0.5,0.7-0.5l5.9,0.1c0.3,0,0.6,0.2,0.7,0.5c0.6,1.7,0,2.5-1.8,2.4c-0.3,0-0.5,0.2-0.5,0.4v20.5c0,0.3,0.2,0.5,0.5,0.5
		c2.1,0,2.6,0.9,1.5,2.5c-0.2,0.3-0.5,0.4-0.8,0.4l-5.5-0.1c-0.3,0-0.6-0.2-0.7-0.4c-0.6-1.6-0.2-2.3,1.3-2.4c0.3,0,0.5-0.2,0.5-0.5
		l0.1-9c0-0.7-0.2-0.8-0.5-0.2l-5.5,9c-0.2,0.3-0.1,0.4,0.2,0.4c1.7,0,2.4,0.9,1.9,2.5c-0.1,0.3-0.4,0.5-0.7,0.5h-6.7
		c-0.3,0-0.6-0.2-0.7-0.5c-0.6-1.7,0-2.5,1.7-2.4c0.3,0,0.6-0.1,0.8-0.4l4.7-7.8c0.2-0.3,0.2-0.6,0.1-0.9l-5-12.1
		c-0.1-0.3-0.4-0.4-0.7-0.4c-1.6,0.1-2.1-0.7-1.6-2.4c0.1-0.3,0.4-0.5,0.7-0.5h6.6c0.3,0,0.6,0.2,0.7,0.4c0.7,1.7,0.1,2.5-1.8,2.4
		c-0.2,0-0.4,0.2-0.3,0.4l3.5,8.4C103,135.4,103.3,135.5,103.4,135.3z"/>
	<path class="st15" d="M56,127l0.2-1c2.2-2.3,4.2-2.5,5.8-0.7c1.2,1.4,1,2.2-0.8,2.5C59.1,128.2,57.4,127.9,56,127z M60,125.7
		c-0.3,0.7,0.7,1,0.9,0.3C61.3,125.1,60.4,125.1,60,125.7z"/>
	<path class="st14" d="M67.3,124.5h0.5c0.7,1.2,0.7,1.6-0.2,1.3c-0.3-0.1-0.4-0.4-0.4-0.7L67.3,124.5z"/>
	<path class="st12" d="M50,130.2l-2.7,0.3c-0.4-1.6-0.4-3.2,0-4.8l1.5-0.9c0.7-0.4,0.9-0.2,0.6,0.5l-1.3,4.1
		c-0.1,0.2,0.1,0.4,0.4,0.5L50,130.2z"/>
	<path class="st14" d="M60.8,125.3c0.6,0.1,0.1,1.3-0.5,1C59.6,126.1,60.2,125.1,60.8,125.3z"/>
	<path class="st9" d="M74.8,125.9c0.5,1.3,0.2,1.5-0.8,0.6c-0.5-0.4-0.6-1.3,0.2-1.2C74.4,125.3,74.6,125.6,74.8,125.9z"/>
	<path class="st16" d="M72,127.7h-0.2l-0.5-0.5C73.1,125.4,73.3,125.6,72,127.7z"/>
	<path class="st2" d="M71.2,127.2l0.5,0.5c-1.2,1.4-2.7,1.8-4.6,1L71.2,127.2z"/>
	<path class="st12" d="M71.8,127.7H72l0.8,0.1l-0.5,2.5l-1.5,0.5L70,131l-3.2-0.5c0.6-0.6,0.5-1.2-0.2-1.8h0.7
		C69.1,129.5,70.6,129.2,71.8,127.7z"/>
	<path class="st19" d="M52.7,128c0.1,1.1,0.8,1.5,1.8,1.2v1.2l-1.8,0.2C52,129.9,52,129,52.7,128z"/>
	<path class="st27" d="M50,130.2l0.4,0.1c0.5,0.4,1.3,0.6,2.3,0.4l1.8-0.2l1.2-0.2c1.5,1.4,8.6,0.2,11,0.3L70,131
		c-0.4,0.2-1.3,0.7-1.5,0.7c-6.3,0.4-12.5,0.4-18.8-0.1c-2-0.1-2.8,1.3-0.2,1.3c3.2,0,6.5,0,9.7,0.1c1.5-0.1,2.8,0.3,3.8,1.2
		c-1.2,0.3-1.8,1.1-1.8,2.2l-0.5,0.3c-1.5-0.6-1.9-1.9-3.2-2.4c-2.4-1-4.2-0.3-5.3,2.1l-0.5,0.2c-0.8-0.2-1.3-0.6-1.7-1.3
		c-0.2-0.4-0.4-0.6-0.6-0.7c-0.9-0.6-1.8-0.7-2.9-0.5c-0.2,0-0.3,0.2-0.2,0.3c-0.1,0.4,0.2,0.5,0.7,0.5c1.4-0.1,2.4,0.5,3,1.8
		l-0.8,0.1c-0.6-0.2-5.3-0.2-4.7,0.8c0.3,0.4,0.5,0.9,0.6,1.4c0,0.3-0.1,0.6-0.3,0.8c-0.7,0.6-1.2,1.4-1.6,2.3
		c-0.1,0.2,0.1,0.5,0.3,0.4l7.1,0.2l2.2-0.2l6.2,0.2l2.2-0.2l16.2,0.2c0.4-0.1,0.8-0.2,1.3-0.1c5.1,0.4,10.2,0.6,15.3,0.4
		c1.4,0,0.8,1-0.2,1c-22.3-0.1-44.6-0.1-66.9,0.1c-1.2,0-1.8-0.5-1.7-1.6c0.2,0,0.6,0,1,0.1c4.2,0.5,8.5,0.6,12.9,0.4
		c0.3,0,0.6-0.2,0.8-0.4l7.1-12.1L50,130.2z"/>
	<path class="st5" d="M72.2,130.2l6.8,12.4c-0.5-0.1-0.9,0-1.3,0.1l-2.6-3.1c-0.2-0.2-0.3-0.6-0.2-0.8c0.6-2.4-0.6-3-3.6-2
		c-0.3,0.1-0.6,0.1-0.8-0.1c-0.6-0.8,1.2-1.8,1.9-1.8c0.3,0,0.6-0.2,0.7-0.4c0.6-1.4-2.6,0.7-3,1.4c-0.2,0.2-0.4,0.4-0.8,0.4
		c-1-0.1-1.4,0.4-1.2,1.5h-0.8c0.5-0.5,0.2-0.9-0.5-0.9l-4.5-0.1c-0.9-2.5,3.8-1.8,5-1c0.1,0.1,0.3,0.1,0.4,0
		c0.8-1.4-3.6-1.8-4.6-1.5c-1-0.9-2.3-1.3-3.8-1.2c0.6,0,16.7,1.1,11.5-2.3L72.2,130.2z"/>
	<path class="st10" d="M70.8,130.7c5.2,3.4-10.9,2.3-11.5,2.3c-3.2,0-6.5,0-9.7-0.1c-2.6,0-1.8-1.4,0.2-1.3
		c6.3,0.4,12.5,0.4,18.8,0.1c0.2,0,1.1-0.5,1.5-0.7L70.8,130.7z"/>
	<path class="st6" d="M51.7,136.7c0.2,0.4,0.8,4.4-0.7,3.1c-0.2-0.1-0.2-0.5-0.2-0.9c0.1-0.9-0.2-1.6-0.8-2.3
		c-0.6-1.3-1.6-1.9-3-1.8c-0.4,0-0.7-0.1-0.7-0.3c0-0.2,0-0.3,0.2-0.5c1-0.2,2,0,2.9,0.5c0.2,0.1,0.4,0.4,0.6,0.7
		C50.4,136.1,50.9,136.5,51.7,136.7z"/>
	<path class="st8" d="M60.8,136.8c0.7,1.3,0.6,2.2-0.3,2.7c-0.2,0.1-0.5,0-0.5-0.3c-0.6-3.9-2.8-5.1-6.3-3.6
		c-0.4,0.2-0.9,0.8-0.3,1.2l-0.5,0.5l-0.5-0.8c1.2-2.5,2.9-3.2,5.3-2.1C58.8,134.9,59.2,136.2,60.8,136.8z"/>
	<path class="st26" d="M71.2,136.8l-0.5,0.5c-0.8,0.4-1.2,1-1.1,1.9c0,0.3-0.2,0.6-0.4,0.6c-1.1,0.2-1.5-0.5-1.2-2.1
		c-0.2-1.1,0.2-1.6,1.2-1.5c0.3,0,0.6-0.1,0.8-0.4c0.4-0.7,3.6-2.8,3-1.4c-0.1,0.2-0.3,0.4-0.7,0.4c-0.7,0.1-2.5,1-1.9,1.8
		C70.6,136.8,70.9,136.9,71.2,136.8z"/>
	<path class="st8" d="M63,134.2c0.9-0.3,5.4,0.1,4.6,1.5c-0.1,0.1-0.3,0.1-0.4,0c-1.1-0.8-5.8-1.5-5,1l-0.5,0.3l-0.5-0.5
		C61.3,135.3,61.9,134.6,63,134.2z"/>
	<path class="st5" d="M60.8,136.8l0.5-0.3l0.5,0.5c3.5,3.2-2.4,3.5-0.3,5.5l-2.2,0.2c0.1-1.4-0.4-2.5-1.6-3.2
		c-0.2-0.1-0.3-0.4-0.2-0.6c0,0,0,0,0-0.1l1.1-1.2c0.1-0.1,0.1-0.4-0.1-0.5c-1.7-0.5-3.5-0.6-5.3-0.3c-0.5-0.4-0.1-1.1,0.3-1.2
		c3.6-1.4,5.7-0.2,6.3,3.6c0,0.2,0.3,0.4,0.5,0.3C61.3,138.9,61.4,138,60.8,136.8z"/>
	<path class="st5" d="M52.2,136.5l0.5,0.8c1.8,1.3,1.8,2.4,0.2,3.2c-1,0.5-1.3,2.1,0,2l-2.2,0.2c-0.3-1.4-1-2.5-2.2-3.4
		c-0.2-0.1-0.2-0.4-0.1-0.6c0,0,0,0,0-0.1l1.2-1.1c0.4-0.4-0.1-0.6-0.5-0.8l0.8-0.1c0.6,0.6,0.9,1.4,0.8,2.3c0,0.4,0,0.7,0.2,0.9
		c1.5,1.3,0.9-2.8,0.7-3.1L52.2,136.5z"/>
	<path class="st6" d="M77.8,142.7l-16.2-0.2c-2.1-2.1,3.8-2.3,0.3-5.5l0.5-0.3l4.5,0.1c0.7,0,1,0.4,0.5,0.9c-1.4,1-1.4,1.9,0,2.6
		c0.3,0.1,0.5,0.4,0.6,0.7c0.7,1.9,1.5,1.9,2.4,0c0.1-0.3,0.4-0.5,0.6-0.7c1.5-0.8,1.5-1.8-0.1-3l0.5-0.5c3-1,4.2-0.4,3.6,2
		c-0.1,0.3,0,0.6,0.2,0.8L77.8,142.7z"/>
	<path class="st6" d="M49.2,136.8c0.3,0.1,0.8,0.3,0.5,0.7c0,0,0,0.1-0.1,0.1l-1.2,1.1c-0.2,0.1-0.2,0.4,0,0.6
		c1.2,0.9,1.9,2,2.2,3.4l-7.2-0.2c-0.2,0-0.4-0.2-0.3-0.4c0.4-0.9,0.9-1.6,1.6-2.3c0.3-0.2,0.4-0.5,0.3-0.8c-0.1-0.5-0.3-1-0.6-1.4
		c-0.1-0.1-0.1-0.3,0-0.4C46.1,136.6,47.7,136.6,49.2,136.8z"/>
	<path class="st6" d="M53.2,136.8c1.8-0.3,3.5-0.1,5.3,0.3c0.1,0,0.2,0.2,0.2,0.3c0,0-1.1,1.3-1.2,1.3c-0.2,0.2-0.1,0.5,0.2,0.7
		c1.2,0.7,1.7,1.8,1.6,3.2l-6.2-0.2c-1.4,0-1-1.5,0-2c1.6-0.9,1.6-2-0.2-3.2L53.2,136.8z"/>
	<path class="st7" d="M70.8,137.3c1.6,1.2,1.6,2.2,0.1,3c-0.3,0.1-0.5,0.4-0.6,0.7c-0.8,1.9-1.6,1.9-2.4,0c-0.1-0.3-0.3-0.5-0.6-0.7
		c-1.4-0.7-1.4-1.6,0-2.6H68c-0.3,1.5,0.1,2.2,1.2,2.1c0.3,0,0.4-0.3,0.4-0.6C69.6,138.3,69.9,137.6,70.8,137.3z"/>
</g>
</svg>
