<?xml version="1.0" encoding="utf-8"?>
<!-- Generator: Adobe Illustrator 27.0.1, SVG Export Plug-In . SVG Version: 6.00 Build 0)  -->
<svg version="1.1" id="Слой_1" xmlns="http://www.w3.org/2000/svg" xmlns:xlink="http://www.w3.org/1999/xlink" x="0px" y="0px"
	 viewBox="0 0 128 168" style="enable-background:new 0 0 128 168;" xml:space="preserve">
<style type="text/css">
	.st0{fill:#D8D8D8;}
	.st1{fill:#AAAAAA;}
	.st2{fill:#FFFFFF;}
	.st3{fill:#2D261B;}
</style>
<g>
	<path class="st0" d="M107.9,161.7H20.1c-6.9,0-12.4-5.6-12.4-12.4V18.8c0-6.9,5.6-12.4,12.4-12.4h87.8c6.9,0,12.4,5.6,12.4,12.4
		v130.5C120.3,156.1,114.8,161.7,107.9,161.7z"/>
	<path class="st1" d="M106.9,157.8H21.1c-5.5,0-9.9-4.4-9.9-9.9V19.8c0-5.5,4.4-9.9,9.9-9.9h85.8c5.5,0,9.9,4.4,9.9,9.9v128.1
		C116.8,153.4,112.4,157.8,106.9,157.8z"/>
	<path class="st2" d="M106.6,154.8H21.4c-4.4,0-8-3.6-8-8V20.9c0-4.4,3.6-8,8-8h85.2c4.4,0,8,3.6,8,8v125.9
		C114.6,151.2,111,154.8,106.6,154.8z"/>
</g>
<g>
	<path class="st3" d="M30.9,39.9c-0.4-2.7,0.6-3.6,3.1-2.8c0.3,0.1,0.5,0.4,0.5,0.7v5.6c0,0.3-0.3,0.5-0.6,0.5H18
		c-0.4,0-0.7-0.3-0.7-0.7c-0.2-7.1,4.2-10.5,9.9-14.7c9.8-7.2-2.5-10.4-6.1-6.2c-0.2,0.2-0.3,0.5-0.2,0.9c0.2,2-0.7,3-2.6,2.9
		c-0.3,0-0.6-0.2-0.6-0.5c-2.6-9.9,13.8-11.5,16.7-3.4c2.6,7.2-10.6,10.3-13,17.8c-0.1,0.2,0.1,0.5,0.4,0.5h8.9
		C30.7,40.5,30.9,40.2,30.9,39.9z"/>
	<path class="st3" d="M66,50.7c3.1-1.2,5-0.2,5.6,2.9c0.1,0.3,0,0.7-0.1,0.9c-1.1,2.2-2.8,2.8-5.1,1.6c-0.2-0.1-0.5-0.4-0.6-0.7
		c-2.3-4.3-6,6-9.4-1.3c-0.1-0.3-0.2-0.6-0.1-0.9c0.7-2.7,2.4-3.5,5.3-2.5c0.9,0.4,1,0.2,0.3-0.5c-1.8-1.6-1.7-3.3,0.4-5.2
		c1.7-1.6,3.2-1.4,4.4,0.6c1.2,1.9,1,3.6-0.6,4.9C65.7,50.8,65.8,50.8,66,50.7z"/>
	<path class="st3" d="M28.6,56.7c0.8,0,1.4-0.8,2.2-0.7c3.8,0.7,4.9,2.7,3.2,6.2c-0.1,0.3-0.4,0.5-0.7,0.7c-2.5,1.2-4.5,0.7-5.8-1.6
		c-0.2-0.3-0.5-0.5-0.7-0.5l-1.5,0.1c-0.2,0-0.5,0.2-0.8,0.5c-2,2.7-4.2,2.9-6.6,0.5c-0.2-0.2-0.4-0.5-0.5-0.8
		c-0.5-3.1,0.7-4.7,3.8-5c0.7-0.1,1.4,0.7,2.2,0.6c0.3,0,0.4-0.1,0.1-0.4c-4.2-4.6,3.1-9.5,5.7-4.6c0.9,1.6,0.6,3.3-0.8,4.8
		C28.2,56.6,28.2,56.7,28.6,56.7z"/>
	<path class="st3" d="M63.2,55.9c0.1-0.5,0.8-1.4,1.2-0.7l1.5,3.5c0.1,0.2,0,0.5-0.3,0.6c-3.7,1-4.6,0.1-2.7-2.5
		C63,56.6,63.1,56.3,63.2,55.9z"/>
	<path class="st3" d="M23.8,66.1l1.9-4.7c0.1-0.3,0.5-0.3,0.6,0l1.9,4.7c0.1,0.2-0.1,0.4-0.3,0.4H24C23.8,66.5,23.7,66.3,23.8,66.1z
		"/>
	<path class="st3" d="M104.2,111.8c1.5,1,2,2.3,1.4,3.9c-2.3,6.4-11.2,0.5-5.8-4c0.1-0.1,0.2-0.3,0.1-0.4c-0.5-0.4-3.9,2.1-6.4-1.4
		c-1.3-1.8-1-3.3,0.9-4.5c2.5-1.5,4.5-1.2,6.1,1.2c1.8,2.6-0.6-4.4-0.7-4.4c-0.1-0.3,0-0.6,0.3-0.6h3.6c0.3,0,0.4,0.3,0.3,0.6
		c-0.2,0.4-2.3,5.1-1.2,4.8c0.2-0.1,0.5-0.2,0.7-0.5c1.5-2.2,3.4-2.5,5.9-1.2c1.6,0.9,2.1,2.2,1.3,3.9c-1.4,2.9-3.5,3.6-6.2,2
		c-0.2-0.1-0.5-0.1-0.5,0.1C104,111.5,104,111.6,104.2,111.8z"/>
	<path class="st3" d="M61.9,117.1c-0.5,0.1-1.9,0.8-2.4,0.6c-3.3-0.9-4-2.8-2.1-5.7c0.2-0.3,0.5-0.5,0.8-0.6
		c2.1-0.6,3.7-0.1,4.9,1.6c0.2,0.3,0.3,0.2,0.3-0.1c-0.1-1.4-0.5-2.7-1.3-3.8c-0.1-0.2-0.1-0.5,0.2-0.6c1.2-0.3,2.4-0.3,3.5,0
		c0.2,0.1,0.3,0.3,0.3,0.5c0,0,0,0,0,0.1l-1.5,3.5c-0.1,0.6,0.6,0.7,0.9,0.2c1.3-2,3.1-2.3,5.4-1c1.8,1.1,1.9,2.5,0.5,4.2
		c-1.3,1.6-3,1.9-4.9,1c-0.3-0.1-0.3-0.1-0.2,0.2c2.1,3,1.5,5-1.9,6.1c-0.3,0.1-0.7,0.1-1-0.1c-3.1-1.4-3.5-3.4-1.2-6
		C62.4,117.1,62.3,117,61.9,117.1z"/>
	<path class="st3" d="M106.4,127.5l-9,0.1c-0.3,0-0.5,0.3-0.4,0.5c0.4,2.7-0.6,3.6-3.1,2.5c-0.3-0.1-0.5-0.4-0.5-0.7l0.1-5.5
		c0-0.3,0.2-0.5,0.5-0.5h15.9c0.4,0,0.7,0.3,0.7,0.7c0.1,9.3-7.3,11.8-12.5,16.8c-5.9,5.6,9.6,9.4,9,1.8c0-0.3,0.1-0.6,0.4-0.8
		c0.7-0.4,2.5-1.3,2.8-0.2c2.2,11.1-15.6,11-16.8,2.5c-1-7.2,11-9.7,13.1-16.8C106.9,127.8,106.7,127.5,106.4,127.5z"/>
</g>
</svg>
