<?xml version="1.0" encoding="utf-8"?>
<!-- Generator: Adobe Illustrator 27.0.1, SVG Export Plug-In . SVG Version: 6.00 Build 0)  -->
<svg version="1.1" id="Слой_1" xmlns="http://www.w3.org/2000/svg" xmlns:xlink="http://www.w3.org/1999/xlink" x="0px" y="0px"
	 viewBox="0 0 128 168" style="enable-background:new 0 0 128 168;" xml:space="preserve">
<style type="text/css">
	.st0{fill:#D8D8D8;}
	.st1{fill:#AAAAAA;}
	.st2{fill:#FFFFFF;}
	.st3{fill:#2D261B;}
</style>
<g>
	<path class="st0" d="M107.9,161.7H20.1c-6.9,0-12.4-5.6-12.4-12.4V18.8c0-6.9,5.6-12.4,12.4-12.4h87.8c6.9,0,12.4,5.6,12.4,12.4
		v130.5C120.3,156.1,114.8,161.7,107.9,161.7z"/>
	<path class="st1" d="M106.9,157.8H21.1c-5.5,0-9.9-4.4-9.9-9.9V19.8c0-5.5,4.4-9.9,9.9-9.9h85.8c5.5,0,9.9,4.4,9.9,9.9v128.1
		C116.8,153.4,112.4,157.8,106.9,157.8z"/>
	<path class="st2" d="M106.6,154.8H21.4c-4.4,0-8-3.6-8-8V20.9c0-4.4,3.6-8,8-8h85.2c4.4,0,8,3.6,8,8v125.9
		C114.6,151.2,111,154.8,106.6,154.8z"/>
</g>
<g>
	<path class="st3" d="M30.2,35.2c-5.3,1.9-9.2,0.8-11.7-3.3c-7.1-11.8,11.2-22,15.1-7.8C35,29,34.8,33.9,33,38.7
		c-2.5,6.8-10.2,7.6-14.5,1.9c-0.2-0.3-0.2-0.6-0.1-0.9c0.3-0.7,0.9-1.2,1.6-1.5c0.3-0.1,0.6,0,0.9,0.2c4.8,4,8.1,3,9.7-3
		C30.6,35.2,30.5,35.1,30.2,35.2z M26.1,32.8c2.8-0.2,4.9-3,4.6-6.3l0,0c-0.3-3.3-2.7-5.7-5.5-5.5l0,0c-2.8,0.2-4.9,3-4.6,6.3l0,0
		C20.9,30.5,23.4,33,26.1,32.8L26.1,32.8z"/>
	<path class="st2" d="M25.2,20.9c2.8-0.2,5.3,2.2,5.5,5.5c0.4,7.8-9.3,8.6-10.2,0.8C20.4,23.9,22.4,21.1,25.2,20.9z"/>
	<path class="st3" d="M46,50.6c-1.4-1.3-1.7-2.8-0.8-4.7c0.1-0.3,0.4-0.5,0.7-0.7c3.6-1.5,5.3-0.2,5.2,3.8c0,0.3-0.2,0.6-0.4,0.8
		c-1.6,1.3-1.1,1.4,1.5,0.3c0.6-0.2,1.2-0.1,1.6,0.3c4.9,4.9-1.9,8.7-4.5,4.6c-0.2-0.3-0.5-0.5-0.7-0.6c-1-0.2-1.5-0.1-2.2,0.8
		c-3.8,4.9-9.7-2.9-3.4-5c0.2-0.1,0.5,0,0.9,0.1l2,0.5C46.3,51,46.4,50.9,46,50.6z"/>
	<path class="st3" d="M78.1,50.6c-1.4-1.3-1.7-2.8-0.8-4.7c0.1-0.3,0.4-0.5,0.7-0.6c3.6-1.5,5.4-0.2,5.2,3.8c0,0.3-0.2,0.6-0.4,0.8
		c-1.7,1.3-1.4,1.5,1.1,0.5c0.3-0.1,0.7-0.2,1-0.1c5.2,1.3,2.7,8.7-2.5,5.9c-0.2-0.1-0.5-0.4-0.6-0.7c-0.5-0.9-1.2-1.2-2.3-0.9
		c-0.3,0.1-0.5,0.3-0.8,0.6c-3.8,5.3-10-2.7-3.6-4.8c0.2-0.1,0.5,0,0.9,0.1l2,0.5C78.3,51,78.4,50.9,78.1,50.6z"/>
	<path class="st3" d="M28.5,56.5c1.7-0.7,3.3-0.6,4.5,0.3c5.4,3.7-2.8,10.4-5.7,4.5c-0.3-0.4-0.5-0.7-0.9-0.4
		c-0.1,0.1-0.2,0.3-0.1,0.4l1.7,4.6c0.1,0.3,0,0.6-0.3,0.5c0,0-3.7,0-3.7,0c-0.3,0-0.3-0.4-0.3-0.6c0.1-0.2,2.7-6.7,1-4.7
		c-2.8,3.4-5.3,3.3-7.5-0.2C17,60.6,17,60.3,17,60c0.6-3.6,2.6-4.8,6.1-3.5c0.3,0.1,0.3,0,0.2-0.2c-4-5.7,3.8-9.5,6-4.4
		c0.6,1.5,0.3,3-1,4.4C28.2,56.5,28.3,56.6,28.5,56.5z"/>
	<path class="st3" d="M46.1,58.5l1.8-3.3c0.2-0.3,0.3-0.3,0.5,0l1.6,3.5c0.1,0.2,0,0.5-0.2,0.6l0,0c-1.2,0.4-2.3,0.3-3.4-0.2
		C46.1,59.1,46,58.7,46.1,58.5L46.1,58.5z"/>
	<path class="st3" d="M79.2,55.9c0.1-0.3,0.3-0.6,0.5-0.9c0.2-0.1,0.4-0.1,0.6,0.1c0,0,0,0.1,0.1,0.1l1.5,3.5c0.1,0.2,0,0.5-0.2,0.6
		c0,0,0,0-0.1,0c-3.7,1-4.6,0.1-2.7-2.5C79,56.6,79.1,56.3,79.2,55.9z"/>
	<path class="st3" d="M61.8,61.1c-2.5-2.3-0.4-6.4,2.7-5.8c3,0.6,3.6,3.7,1.6,5.8c-0.2,0.2-0.2,0.3,0.1,0.2c7.7-2.6,6.2,8.8,0.2,5.6
		c-0.2-0.1-0.5-0.4-0.7-0.7c-2.5-4.2-6.2,6-9.4-1.5c-0.1-0.3-0.2-0.6-0.1-1c0.9-2.6,2.7-3.4,5.4-2.5C62,61.4,62,61.3,61.8,61.1z"/>
	<path class="st3" d="M62.2,69.7c-0.1,0-0.1-0.1-0.1-0.2l0,0l1.7-3.4c0.2-0.4,0.3-0.4,0.5,0l1.6,3.2c0.1,0.2,0,0.5-0.2,0.6h-0.1
		C64.4,70.1,63.3,70.1,62.2,69.7z"/>
	<path class="st3" d="M45.8,71.8c-2.1-2.4-0.9-5.8,2.4-5.9c3.2-0.1,4,4.1,1.7,6.2c-0.2,0.2-0.2,0.2,0.1,0.1c3.2-1.5,5.1-0.5,5.6,3.1
		c0,0.3,0,0.6-0.2,0.9c-2.1,2.8-4.2,2.7-6.3-0.1c-0.2-0.3-0.5-0.4-0.8-0.3c-1,0.2-1.8,0.7-2.4,1.5c-0.2,0.3-0.5,0.5-0.7,0.6
		c-6.3,2.1-6.3-8.4,0.6-5.8C46,72.1,46,72,45.8,71.8z"/>
	<path class="st3" d="M77.9,71.8c-2.2-3-1.4-5,2.4-5.9c0.3-0.1,0.7,0,0.9,0.2c2.6,1.7,2.9,3.8,0.7,6.1c-0.2,0.2-0.2,0.3,0.1,0.1
		c3.3-1.5,5.2-0.5,5.6,3c0,0.3,0,0.6-0.2,0.9c-2,2.8-4.1,2.8-6.3-0.1c-0.4-0.6-1.2-0.7-1.8-0.2c-0.1,0.1-0.1,0.1-0.2,0.2
		c-2.6,3.2-4.8,3-6.7-0.6c-0.1-0.3-0.2-0.6-0.1-0.9c0.9-2.8,2.7-3.6,5.4-2.6C78,72.1,78.1,72,77.9,71.8z"/>
	<path class="st3" d="M47.9,76.6c0.2-0.3,0.4-0.3,0.5,0.1l1.4,3.4c0.1,0.2,0,0.5-0.3,0.6l0,0C45.8,81.6,45.2,80.3,47.9,76.6z"/>
	<path class="st3" d="M79.9,76.6c0.2-0.3,0.4-0.3,0.5,0.1l1.4,3.4c0.1,0.2,0,0.5-0.3,0.6l0,0C77.8,81.6,77.2,80.3,79.9,76.6z"/>
	<path class="st3" d="M48.6,91.1c-0.4,1-0.8,1-1.2-0.1l-1.2-3.1c-0.1-0.3,0-0.6,0.3-0.5c0,0,3.1,0,3.1,0c0.3,0,0.3,0.4,0.3,0.6
		L48.6,91.1z"/>
	<path class="st3" d="M80.6,91.1c-0.4,1-0.8,1-1.2-0.1l-1.2-3.1c-0.1-0.3,0-0.6,0.3-0.5c0,0,3.1,0,3.1,0c0.3,0,0.3,0.4,0.3,0.6
		L80.6,91.1z"/>
	<path class="st3" d="M46.2,95.8c-2.9,1.4-4.9,0.6-5.9-2.2c-0.1-0.3-0.1-0.6,0-0.9c1.6-3.4,3.7-3.8,6.3-1c0.2,0.3,0.5,0.4,0.8,0.4
		c1.2,0,2.2-0.4,2.8-1.5c0.2-0.3,0.5-0.5,0.7-0.5c6.2-1.3,5.7,8.4-0.7,6c-0.3-0.1-0.3,0-0.2,0.2c4.3,6.2-6.4,8.3-5.4,1.9
		c0.2-1.1,0.7-1.4,1.5-2.2C46.5,95.7,46.5,95.7,46.2,95.8z"/>
	<path class="st3" d="M78,95.8c-2.9,1.4-4.8,0.6-5.7-2.5c-0.1-0.3,0-0.7,0.1-0.9c1.8-3.4,4-3.5,6.6-0.4c0.4,0.6,1.3,0.6,1.8,0
		c2.9-3.2,5.2-2.9,6.7,0.8c0.1,0.3,0.1,0.6,0,0.9c-0.8,2.5-2.5,3.3-5,2.3c-0.3-0.1-0.3,0-0.2,0.2c1.9,3.1,1.1,5-2.4,5.9
		c-0.3,0.1-0.6,0-0.9-0.1c-2.8-1.6-3.1-3.6-0.9-6C78.3,95.7,78.3,95.7,78,95.8z"/>
	<path class="st3" d="M104.2,111.8c1.5,1,2,2.3,1.4,3.9c-2.3,6.4-11.2,0.5-5.8-4c0.1-0.1,0.2-0.3,0.1-0.4l0,0
		c-0.5-0.4-3.9,2.1-6.4-1.4c-1.3-1.8-1-3.3,0.9-4.5c2.5-1.5,4.5-1.2,6.1,1.2c1.8,2.6-0.6-4.4-0.7-4.4c-0.1-0.2,0-0.4,0.2-0.5h0.1
		h3.6c0.3,0,0.3,0.4,0.3,0.6c-0.2,0.5-2.4,5.1-1.2,4.8c0.2-0.1,0.5-0.3,0.7-0.6c2.9-4.8,10,0.2,6.1,4.4c-1.3,1.4-3,1.5-5.1,0.3
		c-0.2-0.1-0.4-0.1-0.5,0C104,111.4,104,111.6,104.2,111.8z"/>
	<path class="st3" d="M50,117.4c1.9,1.6,2,3.3,0.5,5.1c-2.7,3.2-8.5-1.5-4.4-5.1c0.4-0.3,0.3-0.4-0.1-0.2l-1.6,0.5
		c-0.4,0.1-0.7,0.2-0.9,0.1c-3.3-1-4.1-2.9-2.1-5.7c0.2-0.3,0.5-0.5,0.8-0.6c2.1-0.6,3.7-0.1,4.9,1.6c0.2,0.3,0.3,0.2,0.3-0.1
		c-0.1-1.4-0.5-2.7-1.3-3.8c-0.1-0.2-0.1-0.4,0.1-0.5c0,0,0.1,0,0.1-0.1c1.2-0.3,2.4-0.3,3.5,0c0.2,0.1,0.3,0.3,0.2,0.5
		c0,0,0,0,0,0.1l-1.5,3.5c-0.1,0.3,0,0.6,0.2,0.7l0,0c0.2,0.1,0.4,0,0.5-0.3c4-5.7,10.1,2.4,3.8,4.6c-0.2,0.1-0.6,0.1-0.9,0l-2-0.6
		C49.7,117,49.6,117.1,50,117.4z"/>
	<path class="st3" d="M82,117.4c1.9,1.6,2,3.3,0.5,5.1c-2.7,3.2-8.5-1.5-4.4-5.1c0.3-0.3,0.3-0.4-0.1-0.3l-1.8,0.6
		c-0.4,0.1-0.7,0.1-0.9,0.1c-3.1-1.1-3.8-3-1.9-5.7c0.2-0.3,0.5-0.5,0.8-0.6c2-0.6,3.7-0.1,4.9,1.6c0.2,0.3,0.3,0.2,0.3-0.1
		c-0.1-1.4-0.5-2.7-1.3-3.8c-0.1-0.2-0.1-0.4,0.1-0.5c0,0,0.1,0,0.1-0.1c1.2-0.3,2.4-0.3,3.5,0c0.2,0.1,0.3,0.3,0.2,0.5
		c0,0,0,0,0,0.1l-1.5,3.5c-0.1,0.3,0,0.6,0.2,0.7l0,0c0.2,0.1,0.4,0,0.5-0.3c4-5.7,10.1,2.4,3.8,4.6c-0.2,0.1-0.6,0.1-0.9,0l-2-0.6
		C81.7,117,81.6,117.1,82,117.4z"/>
	<path class="st3" d="M97.8,132.7c4.9-1.9,8.6-1,11.2,2.6c7.7,10.5-8.5,22.7-13.9,10c-3.2-7.6-1.9-26.5,11.2-20.8
		c1.8,0.8,5.3,3.4,1.4,4.9c-0.3,0.1-0.6,0-0.9-0.2c-4.8-3.9-8-2.9-9.5,3.1C97.3,132.8,97.5,132.9,97.8,132.7z M102.8,147.1
		c2.8-0.2,4.8-3.1,4.5-6.4l0,0c-0.3-3.3-2.8-5.7-5.6-5.5l0,0c-2.8,0.2-4.8,3.1-4.5,6.4l0,0C97.6,144.9,100,147.3,102.8,147.1
		L102.8,147.1z"/>
	<path class="st2" d="M101.8,135.3c2.8-0.2,5.3,2.2,5.6,5.4c0.4,7.8-9.3,8.6-10.2,0.9C96.9,138.4,99,135.6,101.8,135.3z"/>
</g>
</svg>
