<?xml version="1.0" encoding="utf-8"?>
<!-- Generator: Adobe Illustrator 27.0.1, SVG Export Plug-In . SVG Version: 6.00 Build 0)  -->
<svg version="1.1" id="Слой_1" xmlns="http://www.w3.org/2000/svg" xmlns:xlink="http://www.w3.org/1999/xlink" x="0px" y="0px"
	 viewBox="0 0 128 168" style="enable-background:new 0 0 128 168;" xml:space="preserve">
<style type="text/css">
	.st0{fill:#D8D8D8;}
	.st1{fill:#AAAAAA;}
	.st2{fill:#FFFFFF;}
	.st3{fill:#2D261B;}
	.st4{fill:#242152;}
	.st5{fill:#D8CA34;}
	.st6{fill:#282832;}
	.st7{fill:#222221;}
	.st8{fill:#C8722A;}
	.st9{fill:#B4A430;}
	.st10{fill:#B3181E;}
	.st11{fill:#77742A;}
	.st12{fill:#D7D5E1;}
	.st13{fill:#686B91;}
	.st14{fill:#C0BECF;}
	.st15{fill:#474977;}
	.st16{fill:#565984;}
	.st17{fill:#2E3266;}
	.st18{fill:#8C8BA8;}
	.st19{fill:#F2F4F6;fill-opacity:0.973;}
	.st20{fill:#A2A0BB;}
	.st21{fill:#521F32;}
	.st22{fill:#C8BC30;}
	.st23{fill:#3F3927;}
	.st24{fill:#E0D236;}
	.st25{fill:#16182E;}
</style>
<g>
	<path class="st0" d="M108.2,161.4H20.4C13.5,161.4,8,155.8,8,149V18.5C7.9,11.6,13.5,6,20.4,6h87.8c6.9,0,12.4,5.6,12.4,12.4V149
		C120.6,155.8,115.1,161.4,108.2,161.4z"/>
	<path class="st1" d="M107.2,157.5H21.4c-5.5,0-9.9-4.4-9.9-9.9V19.5c0-5.5,4.4-9.9,9.9-9.9h85.8c5.5,0,9.9,4.4,9.9,9.9v128.1
		C117.1,153.1,112.7,157.5,107.2,157.5z"/>
	<path class="st2" d="M106.9,154.5H21.7c-4.4,0-8-3.6-8-8V20.6c0-4.4,3.6-8,8-8h85.2c4.4,0,8,3.6,8,8v125.9
		C114.9,150.9,111.3,154.5,106.9,154.5z"/>
</g>
<g>
	<path class="st3" d="M22.9,29.3c2.2-2.7,4.1-5.6,5.6-8.8c0.1-0.3,0-0.4-0.3-0.4c-1.9,0.2-2.5-0.6-1.9-2.4c0.1-0.3,0.4-0.5,0.7-0.5
		h6.6c0.3,0,0.6,0.2,0.7,0.5c0.6,1.7,0.1,2.4-1.6,2.3c-0.3,0-0.6,0.1-0.8,0.4l-4.8,7.9c-0.2,0.3-0.2,0.6,0,0.9l5,12
		c0.1,0.3,0.4,0.4,0.7,0.4c1.6-0.1,2.2,0.7,1.6,2.3c-0.1,0.3-0.4,0.5-0.7,0.5h-6.5c-0.3,0-0.6-0.2-0.7-0.4c-0.8-1.6-0.2-2.5,1.7-2.5
		c0.2,0,0.3-0.2,0.4-0.3v-0.1L25,32.7c-0.1-0.4-0.3-0.4-0.6-0.1c-1.9,2.5-2.5,5.4-1.8,8.6c0.1,0.3,0.3,0.5,0.6,0.5
		c1.3,0.1,1.7,0.9,1.1,2.3c-0.1,0.3-0.4,0.5-0.7,0.5h-5.9c-0.3,0-0.6-0.2-0.7-0.5c-0.6-1.7,0-2.5,1.8-2.3c0.2,0,0.5-0.1,0.5-0.4
		c0-0.1,0-20.6,0-20.7c0-0.3-0.2-0.5-0.5-0.5c-1.9,0-2.5-0.8-1.7-2.5c0.1-0.3,0.4-0.5,0.7-0.5h5.7c0.3,0,0.6,0.2,0.7,0.5
		c0.6,1.4,0.1,2.2-1.3,2.4c-0.3,0-0.5,0.3-0.5,0.5v8.6C22.5,29.5,22.7,29.6,22.9,29.3z"/>
	<path class="st4" d="M102.5,25.5c-0.3,0-0.6,0-0.9-0.1c-2.4-0.3-10.4-1.2-12.2,0.3l-1-0.2H49.5c-0.3,0-0.4,0.2-0.4,0.4
		c0.8,2,2.4,3.9,4.8,5.5c0.7,0.5,0.8,1.3,0.4,2.3c-0.1,0.3,0,0.6,0.2,0.7l0,0c0.6,0.2,1.1,0,1.5-0.6c0.1-0.2,0.4-0.4,0.7-0.3
		c0.6,0.2,1.2,0.1,1.8-0.1l0.8,0.2c-0.2,0.9-0.7,1.5-1.5,1.9c-3.1,0.6-3.4,1-0.8,1.2c1.4-0.1,15.8-0.6,16.7-0.7
		c1.5,0.6,3,0.7,4.5,0.2c1.2,0.6,2.3,0.7,3.5,0l0.8,0.5c-0.6,2-0.7,4.1-0.5,6.2l-3.2,0.5c-0.2-0.6-0.6-0.8-1.3-0.7h-1
		c-0.7-3.1,0.4-4.4,3.1-4c0.4,0.1,0.5,0.2,0.2,0.5c-0.7,0.8-1.7,0.2-2.3,1c-0.1,0.2,0,0.4,0.2,0.6c0,0,0.1,0,0.1,0.1
		c2.8,0.8,3.7,0,2.8-2.5c-0.1-0.3-0.4-0.5-0.7-0.5H64.1l-2,0.1c-0.7-0.4-1.3-0.3-1.8,0.2L59,39c-0.7-1-1.4-1-2,0l-1.5,0.3h-0.2
		l-7.6-13.8c-0.2-0.3-0.4-0.4-0.8-0.4L34.1,25c-0.5,0-1.2-0.2-0.9-0.7c22.5-0.9,45.8,0,68.6-0.3C102.5,24,102.8,24.5,102.5,25.5z"/>
	<path class="st2" d="M101.5,25.4v48c0,0.3-0.2,0.6-0.4,0.7c-0.7,0.2-1.3-0.4-1.3-1.2c0.1-11.5,0.2-23,0.3-34.4
		c0-2.3-1.2-4.1-3.6-5.1c-0.3-0.1-0.7-0.1-0.9,0.1l-3,2.4c-0.2,0.2-0.3,0.5-0.3,0.9l0.2,5.8l-0.3,16.1l-7.9-3.9l-0.4-7.1
		c0-0.3-0.1-0.6-0.2-0.9L82,43.2c-0.2-2.1-0.1-4.2,0.5-6.2l6.8-11.2C91.2,24.2,99.1,25.1,101.5,25.4z"/>
	<path class="st5" d="M88.2,25.5c-1.1,2.7-2.9,4.7-5.6,6c-0.3,0.1-0.4,0.4-0.4,0.7c0.3,2.7-0.2,3.3-1.5,1.8
		c-0.2-0.2-0.5-0.3-0.8-0.3c-2.4,0.4-2.5-0.2-0.5-1.6c0.2-0.2,0.3-0.5,0.2-0.8l-1.2-2.8c-0.5-1-1.8-0.3-2.1,0.6
		c-0.1,0.3-0.3,0.5-0.6,0.6c-1.3,0.4-1.6,1.2-0.9,2.2c0.2,0.3,0.3,0.6,0.3,0.9c-0.4,1.6-2.1,0-2.9-0.1c-0.2,0-0.6,0-0.9,0.2
		c-0.7,0.4-1.3,0.3-1.9-0.3c0.6-0.3,1.1-0.9,1.4-1.5c0.1-0.3,0-0.6-0.2-0.8c-0.7-0.8-1.7-3.2-2.7-2.9c-0.2,0.1-0.5,0.3-0.6,0.7
		c-0.3,0.9-0.9,1.6-1.6,2.4c-0.2,0.2-0.2,0.5-0.1,0.7l1.3,1.6c-0.9,0.4-1.7,0.3-2.4-0.2c-0.2-0.2-0.5-0.1-0.7,0
		C63,33.5,62,33.5,61,32.7c1.4-1.4,1.4-2.4-0.2-2.9c-0.3-0.1-0.5-0.3-0.5-0.6C60,28.4,59.5,28,58.6,28c-0.2,0-0.5,0.2-0.6,0.6
		l-1.1,2.7c-0.1,0.3-0.1,0.7,0,0.9c0.3,0.4,0.8,0.7,1.3,0.7c0.3,0,0.5,0.1,0.5,0.2c0.1,0.1,0,0.3-0.2,0.4c-0.5,0.2-1.1,0.2-1.8,0.1
		c-0.3-0.1-0.5,0.1-0.7,0.3c-0.3,0.6-0.8,0.9-1.5,0.6c-0.2-0.1-0.4-0.4-0.3-0.7l0,0c0.4-1.1,0.3-1.8-0.4-2.3
		C51.6,29.9,50,28,49.2,26c-0.1-0.3,0.1-0.4,0.3-0.4c0,0,38.7,0,38.7,0V25.5z"/>
	<path class="st3" d="M88.2,25.5l1,0.2L82.5,37l-0.8-0.5l-4.4-1.8L77,34.2v-1.5c1.2-1.7,1.3-2.4,0.3-2.1c-0.3,0.1-0.5,0.3-0.6,0.6
		l-0.4,1.5c-1.6,3-4.4,2-7.2,1.2L69,33.2l0.1-0.8h0.5c0.6,0.6,1.2,0.7,1.9,0.3c0.3-0.2,0.7-0.3,0.9-0.2c0.8,0.1,2.5,1.8,2.9,0.1
		c0.1-0.2,0-0.6-0.3-0.9c-0.7-1-0.4-1.7,0.9-2.2c0.3-0.1,0.5-0.3,0.6-0.6c0.2-0.9,1.6-1.6,2.1-0.6l1.2,2.8c0.1,0.3,0,0.6-0.2,0.8
		c-2.1,1.5-1.9,2,0.5,1.6c0.3,0,0.6,0.1,0.8,0.3c1.3,1.5,1.8,0.9,1.5-1.8c0-0.3,0.1-0.6,0.4-0.7C85.3,30.2,87.2,28.2,88.2,25.5z"/>
	<path class="st6" d="M101.5,25.4c0.3,0.1,0.6,0.1,0.9,0.1v72.7c0,0.3-0.2,0.5-0.5,0.5L99.5,99c-0.6-0.7-1.5-1.1-2.5-1.2
		c1.1-0.6,0.9-1.6-0.2-1.6c-1.9,0.2-2.7-0.6-2.1-2.4c-0.6-1.2-1.6-2.1-3-2.7C91,90.8,90.6,89,90,90.8h-0.7c-1.7-3.7,2.1-0.1,2.6-2
		c0.1-0.2-0.1-0.5-0.3-0.6h-0.1L88.8,88c-1.1,0-1.4-1.4-0.1-1.5c0.7,0.3,1.5,0.5,2.3,0.5c0.3,0,0.6,0.1,0.8,0.3c1.9,2,0.8-0.9,0-1.6
		c-0.2-0.2-0.5-0.2-0.8-0.1c-0.9,0.4-1.8,0.2-2.8-0.4c-1.6-1-1.2-1.4,1.1-1.3c0.8,0,0.6-1,0-1.1c-0.2-0.1-0.6-0.1-0.9,0
		c-1.3,0.4-1.8,0-1.3-1.2c0.1-0.2,0.3-0.2,0.4-0.2c0,0,0.1,0,0.1,0.1c0.8,0.8,1.6,0.7,2.2-0.3l1-0.3c0,2.6,1.2,4.4,3.5,5.3l1.2,0.8
		c1.2,0.5,1.6,1.6,1.3,3.3c-0.1,0.4,0,0.4,0.3,0.2c0.8-0.6,0.8-2.1-0.2-4.4c-0.2-0.5,0-1,0.4-1.2c0.2-0.1,0.3,0.1,0.5,0.6
		c1.5,1.9,1.6-0.2,1.8-1.4c0.3-1.9-1.5-0.8-1.5-1.6c0-0.2,0.2-0.3,0.4-0.3c1.6,0.3,1-1,0.5-1.9c1.1-0.9,1.1-1.5,0.2-1.9
		c-0.3-0.1-0.6-0.1-0.9,0.1l-2.1,1.3c-0.7,0.2-1.2,0-1.5-0.5c1.5-0.6,1.8-1.2,0.8-2l1-0.9l4.3,0.1c0.3,0,0.6-0.2,0.7-0.5
		c0.3-1.3-7.3-0.9-8.2-0.9l0.3-1c1,0.4,1.7,0.3,2.2-0.5h0.7c0.9,0.9,1.7,1.1,2.3,0.3c0.2-0.2,0.3-0.5,0.3-0.9L99,37.4
		c0-0.3-0.1-0.6-0.3-0.9c-1.8-2.7-3.6-2.7-5.3,0c-0.2,0.2-0.2,0.6-0.2,0.9l0.1,5.5l-0.8-0.2l-0.2-5.8c0-0.4,0.1-0.7,0.3-0.9l3-2.4
		c0.2-0.2,0.6-0.2,0.9-0.1c2.4,1.1,3.6,2.8,3.6,5.1c-0.1,11.5-0.2,23-0.3,34.4c-0.1,0.8,0.7,1.4,1.3,1.2c0.3-0.1,0.4-0.4,0.4-0.7
		L101.5,25.4z M94.1,90.8c-1.4-1-1.5-0.9-0.5,0.1c1.9,1.9,2.8,3.6,5.1,5.3c0.2,0.2,0.4,0.4,0.5,0.8c0.3,0.8,0.9,1.1,1.8,1.1
		c0.2,0,0.4-0.3,0.4-0.6c-0.1-0.8-1.3-0.7-1.7-1.1C97.9,94.7,96,92.1,94.1,90.8z"/>
	<path class="st7" d="M69.5,32.5H69c-0.3-0.5-0.4-1.1-0.1-1.7c0.1-0.3,0.1-0.5,0-0.7c-0.2-0.2-0.3-0.2-0.5,0
		c-0.1,0.2-0.2,0.5-0.1,0.8c0.2,1-0.2,1.8-1,2.3L67,32.7l-1.3-1.6c-0.2-0.2-0.1-0.5,0.1-0.7c0.7-0.7,1.2-1.5,1.6-2.4
		c0.1-0.4,0.4-0.6,0.6-0.7c1-0.4,2,2.1,2.7,2.9c0.2,0.2,0.3,0.6,0.2,0.8C70.6,31.7,70.1,32.2,69.5,32.5z"/>
	<path class="st7" d="M61,32.7l-0.8,0.1c-0.5-0.2-0.6-0.5-0.3-0.9c0.1-1.9-0.2-2.2-0.8-0.9c-0.1,0.3-0.1,0.6,0,0.9
		c0.3,0.6,0.3,1.2,0.1,1.9l-0.8-0.2c0.2-0.1,0.3-0.2,0.2-0.4c-0.1-0.1-0.3-0.2-0.5-0.2c-0.5-0.1-1-0.3-1.3-0.7
		c-0.2-0.2-0.2-0.5,0-0.9l1.1-2.7c0.1-0.3,0.4-0.5,0.6-0.6c0.9-0.1,1.4,0.3,1.6,1.2c0.1,0.3,0.3,0.5,0.5,0.6
		C62.4,30.3,62.4,31.3,61,32.7z"/>
	<path class="st8" d="M69,32.5v0.7L64.7,36c-0.3,0.2-0.6,0.2-0.9,0.1c-0.5-0.2-1-0.6-1.3-1.1c2,0.2,3.6-0.4,4.8-1.8
		c0.8-0.5,1.2-1.3,1-2.3c-0.1-0.3,0-0.6,0.1-0.8c0.2-0.2,0.3-0.2,0.5,0c0.1,0.2,0.1,0.4,0,0.7C68.6,31.4,68.7,32,69,32.5z"/>
	<path class="st9" d="M60.2,32.8l0.5,1l-0.3,0.5l-2,1.8l-0.8-0.3c0.8-0.4,1.3-1,1.5-1.9c0.2-0.6,0.2-1.2-0.1-1.9
		c-0.1-0.3-0.1-0.7,0-0.9c0.7-1.3,0.9-1,0.8,0.9C59.7,32.3,59.8,32.6,60.2,32.8z"/>
	<path class="st9" d="M77,32.7h-0.7l0.4-1.5c0.1-0.3,0.3-0.6,0.6-0.6C78.2,30.4,78.1,31.1,77,32.7z"/>
	<path class="st3" d="M67,32.7l0.2,0.5c-1.2,1.4-2.8,1.9-4.8,1.8c-0.4-0.6-1-1.1-1.7-1.2l-0.5-1l0.8-0.1c1,0.8,2,0.8,2.9-0.1
		c0.2-0.2,0.5-0.2,0.7,0C65.4,33,66.2,33.1,67,32.7z"/>
	<path class="st8" d="M76.3,32.7H77v1.5c-1.4,0.3-2.4,0.9-3.2,2l-2.2,0.1L69,34C71.9,34.7,74.7,35.7,76.3,32.7z"/>
	<path class="st10" d="M69,33.2V34l2.5,2.3L57,37l1.5-0.9l2-1.8l2,0.8c0.4,0.7,1.4,1.5,2.2,1L69,33.2z"/>
	<path class="st11" d="M60.8,33.7c0.8,0.2,1.3,0.6,1.7,1.2l-2-0.8L60.8,33.7z"/>
	<path class="st10" d="M77,34.2l0.3,0.5c-0.2,1,0.1,1.5,1,1.7c-1.5,0.5-3,0.4-4.5-0.2C74.5,35.2,75.6,34.5,77,34.2z"/>
	<path class="st2" d="M96.5,73.5c0.1-2.7,0.2-5.3,0.3-8c0.1-1.9,1.1-7.2,0.3-8.8c-3-6.1,1.2-11.4-0.7-18.2c-0.1-0.2-0.2-0.3-0.3-0.1
		c-0.6,0.7,0,7.7-0.1,7.8c-2.1,6.2,0.8,9.9,0.2,15.3c-0.5,4.4-0.5,7.8-0.4,11.9c-0.5,0.8-1.3,0.9-2.2,0.5l-0.1-7c0.3-2,0.1-4-0.5-6
		c0.6-6,0.7-12.2,0.2-18.2l-0.1-5.5c0-0.4,0.1-0.7,0.2-0.9c1.8-2.7,3.6-2.7,5.3,0c0.2,0.3,0.3,0.6,0.3,0.9L99,72.8
		c0,0.4-0.1,0.7-0.3,0.9C98.1,74.6,97.4,74.4,96.5,73.5z"/>
	<path class="st8" d="M77.3,34.7l4.4,1.8c-1.1,0.6-2.3,0.6-3.5,0C77.4,36.3,77,35.7,77.3,34.7z"/>
	<path class="st8" d="M57.8,35.7l0.8,0.3L57,37C54.4,36.7,54.6,36.3,57.8,35.7z"/>
	<path class="st12" d="M62.2,38.3c0.5,0.8,0.5,1.6,0,2.3c-0.2,0.3-0.5,0.3-0.7,0.2l0,0c-0.8-0.5-1.2-1.2-1.1-2.3
		C61,37.9,61.6,37.9,62.2,38.3z"/>
	<path class="st13" d="M64.2,38.2c-0.4-0.1-0.6-0.1-0.8,0c-0.3,0.2-0.2,0.4,0.3,0.4c0.7,0,1.4,0.7,1.2,1.4l-1.5,7.7L59.5,41
		c0-0.1-0.1-0.4-0.3-0.9L59,39l1.5-0.5c-0.1,1,0.3,1.8,1.1,2.3c0.3,0.2,0.6,0.1,0.7-0.2l0,0c0.4-0.7,0.4-1.5,0-2.3L64.2,38.2z
		 M63.7,43c0.3,0.5,0.4,0.4,0.4-0.1L64,41.3c0-0.2-0.2-0.4-0.4-0.5h-0.1C62.9,41.1,63,41.8,63.7,43z"/>
	<path class="st2" d="M76.5,43l-0.2,4.2c0,0.2-0.2,0.4-0.5,0.4l-2.3,0.2c-0.2,0-0.4-0.1-0.5-0.3l0,0c0-0.5-0.2-1-0.5-1.3
		c-0.2-0.3-0.4-0.2-0.5,0.1c-0.6,2.4,0.4,3.4,2.9,2.7c0.4-0.1,0.7-0.1,0.9,0.1c0.4,0.3,0.5,0.8,0.3,1.4l-0.7,1.2
		c-0.7-0.2-1.4-0.1-2,0.1c-0.4,0.1-0.7,0.2-0.9,0.1c-2.2-0.7,2.9-0.7,1.1-2c-0.3-0.2-0.6-0.2-0.9-0.1l-1.1,0.6
		c-0.3,0.1-0.4,0-0.4-0.2c-0.1-0.8-0.5-1.3-1.2-1.6c-0.3-0.1-0.6-0.1-0.9,0.1c-1.3,0.9-1.4,1.9-0.2,2.9c0.2,0.2,0.5,0.3,0.9,0.3
		c1.3,0.1,2.7,1,4,2.4c1.1,1.2,2.1,1.1,2.8-0.5c0.7-1.5,2-2.2,3.7-2c0.2,0,0.4,0.2,0.3,0.4v0.1c-1.4,3.5-3.9,5-7.6,4.7
		c-0.4,0-0.7,0.1-0.8,0.3c-0.2,0.3-0.3,0.7-0.1,1l-0.8,0.1c-0.7-0.2-0.9-0.6-0.8-1.1c0.1-0.4,0.1-0.7,0-0.9c-1-1.7-2.2-2-3.8-1.1
		c-0.3,0.2-0.6,0.2-0.8,0c-1-0.8-0.9-1.4,0.4-1.8c0.1,0,0.2-0.3,0.2-0.5l-3.2-4.5l0.3-1l1.5-7.7c0.2-0.7-0.5-1.4-1.2-1.4
		c-0.5,0-0.6-0.2-0.3-0.4c0.2-0.1,0.4-0.1,0.8,0h15.8c0.3,0,0.6,0.2,0.7,0.5c0.9,2.5,0,3.3-2.8,2.5c-0.2-0.1-0.4-0.3-0.3-0.5v-0.1
		c0.6-0.8,1.6-0.2,2.3-1c0.2-0.3,0.2-0.5-0.2-0.5C76.9,38.6,75.9,39.9,76.5,43z M74.5,40c-0.4-1.9-7.2-0.5-8.3,0
		c-0.4,0.3-0.1,0.6,0.2,0.5c2.5-0.5,5-0.6,7.5-0.1c0.3,0,0.5-0.1,0.6-0.3C74.5,40.1,74.5,40,74.5,40z M70.3,45.3l-0.1,1.2
		c0,0.4,0.1,0.5,0.4,0.1l2.1-2.3c1.2-1.3,0.9-2.2-0.8-2.7c-2.1-0.7-3.8-0.5-5.2,0.8c-0.2,0.2-0.2,0.5-0.1,0.8
		c0.8,1.1,1.9,1.6,3.2,1.7C70.2,44.8,70.3,45,70.3,45.3L70.3,45.3z"/>
	<path class="st14" d="M59,39l0.3,1.1c0.1,0.5,0.2,0.8,0.3,0.9l3.9,6.7l-0.3,1c-2.8-2.8-4.9-6-6.2-9.8C57.6,38,58.3,38,59,39z"/>
	<path class="st15" d="M96.5,73.5h-0.7c-0.1-4.1-0.1-7.5,0.4-11.9c0.6-5.5-2.3-9.1-0.2-15.3c0-0.1-0.5-7.1,0.1-7.8
		c0.1-0.2,0.2-0.1,0.3,0.1c1.9,6.8-2.2,12,0.7,18.2c0.8,1.7-0.2,6.9-0.3,8.8C96.6,68.2,96.5,70.8,96.5,73.5z"/>
	<path class="st16" d="M57,39c1.3,3.7,3.4,7,6.2,9.8l3.2,4.5c0.1,0.1,0.1,0.3-0.1,0.4h-0.1c-1.3,0.3-1.4,0.9-0.4,1.8
		c0.2,0.2,0.5,0.2,0.8,0c1.5-1,2.8-0.6,3.8,1.1c0.1,0.2,0.1,0.5,0,0.9c-0.2,0.5,0.1,0.9,0.8,1.1c1.6,1.6,1.9,1.6,0.8-0.1
		c-0.1-0.4-0.1-0.7,0.1-1c0.2-0.2,0.5-0.3,0.8-0.3c3.7,0.4,6.2-1.2,7.6-4.7c0.1-0.2,0-0.4-0.2-0.5h-0.1c-1.7-0.2-3,0.5-3.7,2
		s-1.6,1.7-2.8,0.5c-1.4-1.5-2.7-2.3-4-2.4c-0.4,0-0.7-0.2-0.9-0.3c-1.2-1-1.1-2,0.2-2.9c0.3-0.2,0.6-0.2,0.9-0.1
		c0.7,0.3,1.1,0.9,1.2,1.6c0,0.2,0.2,0.3,0.4,0.2h0.1l1.1-0.6c0.3-0.1,0.6-0.1,0.9,0.1c1.8,1.3-3.3,1.3-1.1,2c0.2,0.1,0.6,0,0.9-0.1
		c0.6-0.3,1.3-0.3,2-0.1c1.4,0.4,2.7,0.1,3.9-0.9c0.2-0.2,0.3-0.5,0.1-0.7c0,0,0,0-0.1-0.1c-0.2-0.1-0.4-0.2-0.6-0.1
		c-0.2,0-0.5,0.3-0.7,0.6c-0.6,1-1.3,0.9-2-0.1c0.2-0.6,0.1-1.1-0.3-1.4c0-0.2-0.3-0.3-0.7-0.2c-2.5,0.6-3.5-0.3-2.9-2.7
		c0.1-0.4,0.2-0.4,0.5-0.1c0.3,0.4,0.5,0.8,0.5,1.3c0,0.2,0.2,0.4,0.4,0.4l2.3-0.2c0.3,0,0.5-0.2,0.5-0.4l0.2-4.2h1
		c-0.3,1.1,0.1,1.3,1.3,0.7l3.2-0.5l1.7,3.4c0.2,0.3,0.2,0.6,0.2,0.9l0.4,7.1l-1,0.8c-1.1-0.3-1.5,0.2-1.2,1.5l-0.5,0.8L79,58.1
		c-0.3,0-0.6-0.1-0.8-0.2c-1-1-1.7-0.6-2.3,1.2l-1.2,0.2c0.4-1.2,0.1-1.6-0.7-1.1c-0.2,0.1-0.3,0.4-0.2,0.7c0.2,0.5,0.1,1-0.6,1.2
		c-0.6,0.3-0.5,0.6,0.2,0.9c-0.8,0.9-1.7,1.2-2.7,1c-0.3,0-0.5-0.2-0.8-0.5l-2.1-2c-0.2-0.2-0.5-0.2-0.8-0.2c-1.5,0.5-2.7,0-3.5-1.6
		c3.1-2.4,0.2-2.2-1.7-2.2c0-1.4-0.8-1.7-2.3-0.8l-1-0.7c0.4-0.3,0.4-0.6,0-1c-2.3-2.4-3.7-4-4.2-4.9c-0.6-0.9-0.9-1-1-0.2
		c0,0.3,0.1,0.7,0.3,0.9L58,54l-1,0.5L53.7,51c-0.6-0.4-0.8-2.5-1.4-1.1c-0.1,0.3-0.1,0.6,0.2,0.8l4.1,4.3l-1.2,1l-0.8,0.2h-0.5
		c-0.8-0.5-1.9-0.6-3.4-0.3L49.2,55c0.5-0.9,1.4-1.3,1.9-0.3c0.3,0.5,0.5,0.5,0.8,0c0.1-0.3,0-0.6-0.2-0.7l-1.2-0.8
		c-0.2-0.1-0.5-0.1-0.7,0.2c-0.7,0.9-1.4,0.7-2.2-0.4c-0.5-0.7-0.4-1.1,0.5-1c1.5,0.1,1.9-0.1,1.2-0.7c-0.2-0.2-0.6-0.3-0.9-0.3
		c-2.3,0-2.9,1-1.8,3.2l-0.7,0.3c-1.1-3.5,0.1-4.9,3.7-4.1c0.3,0.1,0.6,0.3,0.7,0.6c0.6,1,3.7,5.1,4.5,4c0.1-0.2,0-0.5-0.2-0.8
		l-3.1-3c-0.2-0.2-0.2-0.5-0.1-0.8c1.5-2.7,2.6-5.7,3-8.8h0.7c1.5,3.6,3.6,6.7,6.4,9.4c0.2,0.2,0.5,0.4,0.8,0.4
		c1.8,0.3,2.1,0.2,0.7-0.5c-0.3-0.1-0.5-0.3-0.6-0.6c-2-3.8-4.9-5.9-6.3-10.5l-0.5-0.5L57,39z M78.2,45.5c-0.9,0.4-1.2,1.1-0.9,2
		c-0.8,1.4-0.7,2.1,0.2,2.2c0.2,0,0.5-0.1,0.8-0.4c0.5-0.4,1.1-0.6,1.8-0.5c0.3,0,0.6-0.1,0.7-0.4c0.5-1.2,0.6-2.5,0.5-3.8
		c0-0.2-0.3-0.4-0.5-0.4L78.2,45.5z M60.8,52.8c0.3-0.2-5.5-7.4-6.1-8.2c-0.2-0.3-0.4-0.3-0.4,0.1c-0.3,2.8,4.5,6.9,5.8,8
		C60.4,52.9,60.7,53,60.8,52.8z M82.4,49c-0.3-0.1-0.5,0.1-0.6,0.4c0,0.3,0.3,0.5,0.6,0.5c0.5,0,0.7-0.1,0.7-0.4
		C83,49.3,82.7,49.1,82.4,49z M69.1,50.3C69,51,70,51.2,70.3,50.6c0.2-0.4,0.1-0.7-0.5-0.8C69.5,49.8,69.2,50,69.1,50.3L69.1,50.3z
		 M64.8,53.4c0.6-2.6-4.6,0.5-0.6,0.5C64.5,53.9,64.7,53.7,64.8,53.4z M75.9,52.9c-5.4,0.5,0.2,1.8,0.5,0.5c0-0.2-0.1-0.4-0.3-0.5
		C76,52.9,76,52.9,75.9,52.9z M80.8,55.5c0.2-0.6,0-0.7-0.4-0.3l-1.3,1.2c-0.3,0.3-0.2,0.4,0.1,0.4C80,56.8,80.6,56.4,80.8,55.5z
		 M65.9,58.2c0.6,0.1,0.8-0.1,0.8-0.7c0-0.3-0.2-0.5-0.6-0.6c-0.8-0.1-1.2,0.1-1,0.6C65.3,57.9,65.6,58.1,65.9,58.2z"/>
	<path class="st17" d="M66.2,40c1.1-0.5,7.9-1.9,8.3,0c0,0.3-0.3,0.4-0.6,0.4c-2.5-0.4-5.1-0.4-7.5,0.1C66,40.5,65.9,40.3,66.2,40z"
		/>
	<path class="st18" d="M55.3,39.2h0.2l0.5,0.5c-0.7,0.3-1,0.9-1,1.8h-0.7L55.3,39.2z"/>
	<path class="st14" d="M56,39.7c1.4,4.6,4.3,6.8,6.3,10.5c0.1,0.3,0.4,0.5,0.6,0.6c1.4,0.6,1.2,0.8-0.7,0.5
		c-0.3-0.1-0.6-0.2-0.8-0.4c-2.8-2.7-4.9-5.8-6.4-9.4C55,40.7,55.3,40.1,56,39.7z"/>
	<path class="st12" d="M63.7,43c-0.7-1.2-0.8-1.9-0.2-2.1c0.2-0.1,0.4,0.1,0.5,0.3v0.1l0.1,1.6C64,43.4,63.9,43.5,63.7,43z"/>
	<path class="st17" d="M69.9,44.8c-1.3,0-2.4-0.6-3.2-1.7c-0.2-0.2-0.2-0.6,0.1-0.8c1.3-1.2,3-1.5,5.2-0.8c1.7,0.6,2,1.5,0.8,2.7
		l-2.1,2.3c-0.3,0.3-0.4,0.3-0.4-0.1l0.1-1.2C70.3,45.1,70.2,44.8,69.9,44.8C70,44.8,69.9,44.8,69.9,44.8z M69,43
		c-2.4-0.1,0.4,1.7,0.5,0.5C69.5,43.3,69.3,43.1,69,43L69,43z"/>
	<path class="st18" d="M92.5,42.5l0.8,0.2c0.4,5.3,0.4,10.7,0,16l-1-0.2L92.5,42.5z"/>
	<path class="st19" d="M69.5,43.5c-0.1,1.2-3-0.6-0.5-0.5C69.3,43,69.5,43.3,69.5,43.5L69.5,43.5z"/>
	<path class="st14" d="M77.5,43c0.7-0.1,1.1,0.1,1.3,0.7C77.6,44.3,77.2,44.1,77.5,43z"/>
	<path class="st2" d="M77.3,47.5c1.4-0.4,1.7-1,0.9-2l2.7-1.2c0.2-0.1,0.4,0,0.5,0.2v0.1c0.1,1.3-0.1,2.5-0.5,3.8
		c-0.1,0.3-0.4,0.4-0.7,0.4c-0.7-0.1-1.3,0.1-1.8,0.5c-0.3,0.3-0.6,0.4-0.8,0.4C76.6,49.6,76.5,48.9,77.3,47.5z"/>
	<path class="st14" d="M54.8,44.7c0.6,0.8,6.4,7.9,6.1,8.2c-0.2,0.1-0.4,0.1-0.6-0.1c-1.3-1.1-6.1-5.2-5.8-8
		C54.4,44.4,54.5,44.4,54.8,44.7z"/>
	<path class="st14" d="M78.2,45.5c0.8,1,0.5,1.6-0.9,2C77,46.6,77.3,45.9,78.2,45.5z"/>
	<path class="st12" d="M58.5,54H58l-4.5-5.1c-0.2-0.2-0.3-0.6-0.3-0.9c0.1-0.8,0.4-0.7,1,0.2c0.5,0.9,2,2.5,4.2,4.9
		C58.9,53.4,58.9,53.8,58.5,54z"/>
	<path class="st3" d="M25.1,61.7c-1.5,2.4-3.1,2.7-4.8,0.8c-1.4-1.6-1.5-3.2-0.3-5l5.7-8.5c0.1-0.3,0.4-0.2,0.5,0
		c2.1,3.2,10.7,12.4,3.3,14.8c-0.3,0.1-0.6,0-0.8-0.2c-0.9-1.1-1.8-1.8-2.9-2.1C25.5,61.4,25.2,61.5,25.1,61.7z"/>
	<path class="st18" d="M83,49.6c0.1,0.5-1.3,0.6-1.2-0.1l0,0C81.8,48.9,83,49,83,49.6z"/>
	<path class="st12" d="M57,54.5L56.5,55l-4.1-4.3c-0.2-0.2-0.3-0.6-0.2-0.8c0.6-1.4,0.8,0.7,1.4,1.1C53.6,51,57,54.5,57,54.5z"/>
	<path class="st14" d="M69.8,49.9c0.6,0.1,0.7,0.4,0.5,0.8c-0.3,0.6-1.3,0.4-1.2-0.3C69.2,50,69.5,49.8,69.8,49.9L69.8,49.9z"/>
	<path class="st14" d="M75.5,51.7l0.7-1.2c0.7,1,1.4,1.1,2,0.1c0.2-0.4,0.5-0.6,0.7-0.6c0.2-0.1,0.4,0,0.6,0.1
		c0.2,0.2,0.2,0.5,0,0.7c0,0,0,0-0.1,0.1C78.2,51.8,76.9,52.1,75.5,51.7z"/>
	<path class="st2" d="M49.2,55c-1.1,0.2-2,0-2.8-0.8c-1-2.2-0.4-3.3,1.9-3.2c0.3,0,0.7,0.1,0.9,0.3c0.7,0.6,0.3,0.8-1.2,0.7
		c-0.9-0.1-1.1,0.2-0.5,1c0.8,1.1,1.6,1.3,2.2,0.4c0.2-0.2,0.5-0.3,0.7-0.2l1.2,0.8c0.3,0.2,0.4,0.5,0.2,0.7c-0.2,0.4-0.5,0.4-0.8,0
		c-0.2-0.3-0.5-0.6-0.7-0.6C49.9,54,49.5,54.3,49.2,55z"/>
	<path class="st20" d="M64.2,53.9c-4,0,1.2-3.1,0.6-0.5C64.7,53.7,64.5,53.9,64.2,53.9z"/>
	<path class="st2" d="M76.4,53.3c-0.3,1.4-5.9,0.1-0.5-0.5C76.3,52.8,76.5,53,76.4,53.3z"/>
	<path class="st7" d="M58,54h0.5l1,0.7c0.5,1.3,1.3,1.5,2.3,0.8h1.5c-0.6,2.3,1.5,4.7,3.7,3.8c0.3-0.1,0.6,0,0.8,0.2l2.1,2
		c0.3,0.3,0.6,0.4,0.8,0.5c1,0.2,1.9-0.2,2.7-1l0.5-0.3c-1.1,2-3.3,8.9-3.9,9.2l1.1-4.5c0-0.2,0.2-0.5,0.5-0.8
		c0.4-0.5,0.5-0.9,0.1-1.4c-0.2-0.1-0.5-0.1-0.6,0.1c-1.9,4.4-3.1,9-3.6,13.7c0,0.3,0.1,0.6,0.3,0.8c1.1,0.9,2.3,1,3.6,0.2l1.8-6.8
		L77,63l1.2-2.2c1.8-0.4,2.9-1.4,3.2-3.2L82,57c0.7-0.3,1.1-0.8,1.2-1.5l1-0.8l7.9,3.9l1,0.2L93,61c-0.8,0.2-1.5,0-2-0.5
		c-0.3-0.3-0.8-0.4-1.1-0.1c-0.1,0.2,0.2,0.5,0.5,0.5c0.6,0.1,1,0.4,1.4,0.8l-1,1c-0.8,0-1.2,0.4-1.2,1.2l-2.2,2.2
		c-0.3,0.2-0.3,0.6-0.2,0.8c0.7,1.3,2.9-2.5,3.1-2.9l0.8-0.8l1.4,0.8c-3.1,2.5-5.4,5.5-7,9c-0.1,0.3-0.4,0.4-0.7,0.3l-4.2-1.6
		c2.1-4.5,5-8.6,8.6-12.3c0.2-0.2,0.3-0.6,0.1-0.8c-0.2-0.1-0.5,0-0.7,0.2c-3.6,3.6-6.5,7.7-8.8,12.3c-0.2,0.3-0.1,0.6,0,0.8
		c0.1,0.1,0.3,0.2,0.5,0.1l5.3,2.5l0.5,1l5.6-1.7c0.7-0.2,1.1-1,1.2-1.9l0.2-5.2l0.1,7l-0.3,1c-0.7,0-2.6-0.1-3.1,0.2
		c-2,1.3,5.3,1.3,6.3,1.1l-1,0.9c-2.7-0.1-4.2,1.1-4.5,3.8l-1,0.3c-1.2-0.2-2.2-0.8-2.9-1.6c-0.2-0.2-0.4-0.2-0.5,0
		c-0.5,1.3-0.6,2.6-0.2,4c-0.3,0.9-1.2,0.5-1.2-0.3l0.1-4.2c0-0.3-0.1-0.7-0.3-0.8c-1.4-1.3-3-2.1-4.9-2.4c-0.9-1.5-1.5-1.3-1.9,0.5
		c-2.2,12.1,0.3,23,7.6,32.6c0.6,0.8,2.3,1.9,2.1-0.2c0-0.4,0-0.7,0.1-1c3.7-8.7,1-20.7-9.4-23.2c2.7-0.2,4.8,0.6,6.4,2.5
		c0.2,0.2,0.5,0.3,0.7,0.1c0.5-0.4,0.7-0.9,0.7-1.7c1.1,3.5,2.7,6.7,4.8,9.8c1.3,2.3,3.1,4.1,5.3,5.5l0.5,0.7l-0.7,0.5l-4.5-4.4
		c-0.2-0.2-0.6-0.3-0.8-0.2c-0.3,0.2-0.4,0.4-0.5,0.8c0,0.2,0.1,0.5,0.2,0.9c0.6,1.1-1.6,7.7-2,9.3c-0.1,0.3,0,0.5,0.4,0.3l4.9-2
		c-3.6,2.6-7.5,4.5-11.7,5.7c-0.2,0.1-0.4,0.2-0.5,0.4l-0.2,0.3h-0.7l-2-0.6l-0.8-0.8l0.5-0.8c0.6,0.7,0.8,0.1,0.5-0.5
		c-2.5-3.8-4.5-7.9-5.8-12.3c-0.7-2.5-0.2-5.2-1.2-7.9c-0.1-0.3-0.3-0.5-0.7-0.6c-6.8-2-3.6,5-3.4,8.3c0,0.4,2.6,12.6,5,14.3v0.5
		l-0.5,0.5l-1.8-0.5l-1,0.5h-0.8l-1-0.3c-0.3-0.9-1-1.4-2-1.5l-1.2-0.2c0.1-1.5-1-2.4-3.3-2.7c-0.7-0.1-1.4,0.2-1.8,0.8
		c-0.7,0.9-1,0.2-1.1-2.3c0-0.6-0.5-1-1.1-1c-1.1,0-1.6-0.4-1.5-1.3c2.2-3.3,4.5-10.8,3.7-14.8c-0.1-0.3-0.3-0.5-0.6-0.5l-3,0.2
		c-0.3,0-0.5,0.2-0.6,0.5c-0.6,4.1-2.5,11.6-5.2,14.7c-0.8,0.9-0.6,1.4,0.6,1.4v1.5c-1.5-0.8-2.7-0.7-3.8,0.5l-0.9,1.2
		c-0.2,0.4-1.6,2.7-1.8,3l-0.5,0.5h-0.5l-7.7-4.1c-0.3-0.2-0.7-0.1-0.9,0.3c0,0.1-0.1,0.2-0.1,0.3c-0.3,7.2-0.1,14.3,0.4,21.5
		c0,0.3-0.1,0.6-0.3,0.8l-3,2.6c-0.2,0.2-0.6,0.2-0.8,0.1c-1.3-0.8-2.3-1.8-3-3.1c-0.1-0.2-0.2-0.6-0.2-0.9l0.1-12.2h0.8
		c-0.1,3.6-0.2,7.1-0.2,10.7c0,3.3,2.6,6.7,5.5,2.6c0.2-0.3,0.3-0.6,0.3-0.9L34,95c0-0.3-0.1-0.6-0.4-0.8c-2.8-1.8-1.8,7-1.8,8
		c0,4.3-1.3,5.9,0,10.8c1.2,4.3-0.3,7.8-0.3,11.5c0,1.6,0.1,3.3,0.2,5c0,0.4-0.1,0.4-0.3,0.1c-1.3-2-0.5-7.8-0.1-9.6
		c0.6-2.9,0.3-5.8-0.9-8.6c-0.9-2.1,0.6-7.2,0.6-9.7c0-2.2,0.1-4.5,0.2-6.7c0-0.4-0.1-0.7-0.4-0.8c-0.6-0.4-1.3-0.4-2,0.1L27.5,94
		H27l0.8-0.9l9.8-0.2c0.2,0,0.2-0.2,0.2-0.3c0-0.1,0-0.3-0.2-0.3l0,0l-3.2-0.7L34,91c1.5-0.9,2.3-2.2,2.5-4H37l2.8,0.3l0.7,0.5
		c0.1,0.8,0.5,1.3,1.3,1.5l1.2,0.3c1.3,1.6,3,2.5,5,2.8c0.4,1.7,1.5,0,1.6-0.5c2.3-11.7-0.1-22.5-7.2-32.4c-0.5-0.8-1.1-1.2-1.6-1.4
		v-0.7L44,56l0.3,1.2c-0.6,0.7-0.8,1.4-0.4,2.1c0.1,0.2,0.4,0.4,0.8,0.6c1,0.3,1.8,0.9,2.4,1.8c0.1,0.2,0.1,0.5-0.1,0.8
		c-0.6,0.9,0.1,2,2.1,3.4c0.5,0.4,0.7,1.1,0.3,1.6l0,0c-1.1,1.5-0.5,2.6,1.7,3.4c0.3,0.1,0.6,0,0.7-0.3c0.4-0.7,0.5-1.4,0.4-2.2
		c0-0.3-0.2-0.6-0.5-0.8c-1.5-1.3-2.2-3-2.1-5c0-0.3-0.2-0.5-0.4-0.7c-1.6-0.7-2.4-1.9-2.3-3.6c0-0.4,0-0.7-0.2-0.9
		c-0.4-0.5-0.9-0.7-1.5-0.5v-1.5l0.5-1l0.7-0.3c0.8,0.7,1.7,1,2.8,0.8l1.4,1.1c0.4,2.4,1.2,4.6,2.6,6.7h-0.5l-3.4-5.6
		c-0.2-0.3-0.5-0.5-0.7-0.4c-0.3,0.1-0.3,0.4,0.1,0.8c3.9,5.7,6.1,12,6.5,19c0,0.3,0.2,0.6,0.5,0.7c1.3,0.6,2.7,0.7,4.1,0.2
		c0.3-0.1,0.5-0.4,0.5-0.7c-0.2-7.3-1.9-14.3-5.1-20.8l1.2-1l0.5-0.5L58,54z M82.5,60.1c-0.1,0.2-0.3,0.6,0.1,0.6c0.1,0,0.1,0,0.2,0
		c2.4,0,3.5-1.2,3.1-3.6c0-0.3-0.3-0.5-0.6-0.5c-1.8,0.2-2.7,1.1-2.7,3C82.7,59.8,82.6,60,82.5,60.1z M61.6,59.2
		c-0.1-1.1-0.6-1.9-1.6-2.3c-2-0.9-2.8-0.5-2.5,1.1c0.1,0.8,0.8,1,2,0.6c0.2,0,0.4,0.1,0.4,0.3l0,0c0,0.4,0.7,4.3,1.7,4.1
		c0.2,0,0.3-0.3,0.3-0.7c0-0.8,0.3-1.3,1.1-1.5c0.3-0.1,0.5-0.3,0.5-0.6c-0.1-0.7-0.6-1-1.6-0.7C61.8,59.6,61.6,59.5,61.6,59.2
		L61.6,59.2z M88.8,62.1c-1.9,1.8-3.2,3.5-4.2,5.2c-0.1,0.2-0.1,0.5,0.1,0.6h0.1c0.4,0.1,4-5.2,4.3-5.6
		C90.4,60.8,90.3,60.7,88.8,62.1z M66.8,66.3c1.9-1.2,1.7-1.9-0.7-2.3l0.2-1c2.9,0.6,3.6,0.2,2.1-1.2c-0.2-0.2-0.6-0.3-0.9-0.3
		c-0.7,0.1-1.3,0.4-1.8,1c-1.5-1.3-2.5-1-3,0.9c-0.1,0.3-0.3,0.5-0.6,0.5c-1.1,0-1.6,0.6-1.3,1.6c0.1,0.3,0.3,0.4,0.7,0.4
		c1.1-0.1,1.5,0.3,1.2,1.1c-0.1,0.3-0.1,0.6,0.1,0.8c0.4,0.3,0.8,0.6,1.3,0.7c0.3,0.1,0.6-0.1,0.8-0.3c0.6-0.7,1.1-0.8,1.6-0.1
		c0.1,0.2,0.1,0.4-0.1,0.6h-0.1c-1.5,0.7-1.4,1.3,0.2,1.9c0.3,0.1,0.6,0,0.8-0.2C68.5,69.2,68.4,67.8,66.8,66.3z M78.9,65.2
		c-0.4,0.6,0.3,0.7,0.7,0.7c2.4-0.3,3.3-1.5,2.5-3.8c-0.1-0.3-0.4-0.4-0.7-0.4C79.8,62,79,63,79.1,64.5C79.2,64.7,79.1,65,78.9,65.2
		z M76.4,69.2c-0.3,3.1,0.6,3.5,2.6,1.2c0.2-0.2,0.3-0.5,0.4-0.9c0.2-3-0.7-3.4-2.6-1.3C76.5,68.5,76.4,68.9,76.4,69.2z M62.2,68.5
		c-1-3-2.7,2,0,2.3c0.3,0,0.6-0.1,0.9-0.3c0.7-0.6,0.6-1.1-0.3-1.4C62.5,69,62.3,68.7,62.2,68.5z M84,70.5c0.2-0.8,0.1-1.3-0.4-1.4
		C83.3,69,83,69.2,83,69.5c0,0,0,0,0,0.1c-0.1,0.5,0.1,0.9,0.6,1.2c0.4,1,1.1,1.3,1.8,1c0.3-0.1,0.4-0.4,0.5-0.7
		c0.2-0.8,0.5-1.4,1.1-1.9c0.7-0.5,0.5-2-0.6-1.2c-0.2,0.2-0.4,0.4-0.4,0.8C85.9,70,85.2,70.6,84,70.5z M51.5,72l-0.6,2.3
		c-0.1,0.3-0.1,0.7,0.1,0.9c2.5,4.4,4.3-1.2,1-3.4C51.9,71.7,51.7,71.8,51.5,72C51.6,71.9,51.6,72,51.5,72z M76.2,72.9
		c-2.2,0.9-1.8,2.5-1.5,4.3c0,0.2,0.2,0.4,0.5,0.3h0.1c2.1-0.9,2.7-2.3,1.7-4.3C76.7,73,76.4,72.8,76.2,72.9z M63.8,74.9
		c0.6,0.2,0.9,0.9,0.7,1.7c-0.4,1.5,0,2.4,1.2,2.7c0.2,0.1,0.4-0.1,0.5-0.3v-0.1l-0.3-4c0-0.3-0.2-0.6-0.4-0.8
		c-1.3-1.1-2.4-1-3.4,0.4c-0.1,0.2-0.2,0.5-0.2,0.9l-0.2,3c0,0.4,0.1,0.7,0.3,0.8c1.5,0.9,1.2-3.2,1.3-3.8
		C63.2,75,63.5,74.8,63.8,74.9L63.8,74.9z M89.6,77.8c3.7,1.9-1-3.6-0.5-0.7C89.1,77.4,89.3,77.6,89.6,77.8z M52.7,78.2l-1,2
		c-0.1,0.3-0.1,0.6,0,0.9c2.2,4.6,4.4-1.3,1.7-3.1C53.2,77.9,52.9,78,52.7,78.2L52.7,78.2z M74.1,80c-0.8,1.3-1,2.4-0.4,3.5
		c0.2,0.4,0.8,0.6,1.2,0.4c0.1,0,0.1-0.1,0.2-0.1c1.2-1.2,1.5-2.3,1-3.5C75.5,78.9,74.8,78.9,74.1,80z M66,86.2
		c-1.3,0.3-1.9-0.3-1.8-1.7c-0.8-2.2-1.2-2-1,0.5v1c-0.1,0.4-0.3,0.8-0.7,0.9c-0.2,0.1-0.4,0-0.5-0.2c0-0.1,0-0.1,0-0.2l0-4.4
		c0-0.7-0.5-1-1-0.8l-4.2-0.1c-0.3,0-0.6,0.2-0.6,0.5c-0.4,1.5-0.4,2.9-0.1,4.3c0.1,0.3,0.3,0.5,0.6,0.6c2.9,0.6,4.1-0.5,3.5-3.2
		c-0.2-0.6,0.3-0.8,0.7-0.8c0.3,1.2,0.3,2.3,0.1,3.5c-0.2,1,0.9,1.5,1.7,1.7V89c-0.3-0.1-0.5-0.1-0.8,0c-0.2,0.1-0.3,0.4-0.3,0.8
		l0.5,3.7c0.4,1.7,2.3,2.1,3.4,0.8c0.2-0.2,0.3-0.5,0.3-0.9l0.2-3.5c0-0.4-0.1-0.7-0.4-0.8c-0.2-0.1-0.5-0.1-0.7,0
		c-0.4-0.5-0.5-1,0.3-1.2c0.6-0.2,0.9-0.6,0.9-1.5l0.7-0.8c0,0.6,0.1,1.2,0.9,1.1l3.2-0.2c0.3,0,0.5-0.2,0.5-0.5l0.4-4
		c0-0.3-0.2-0.6-0.4-0.6c-1.7-0.5-3.3-0.2-4.8,0.7c-1.1-1.3-2.4-1.8-4-1.6c-0.2,0-0.3,0.3-0.3,0.5c0.4,0.5,0.8,1,1.4,0.4
		C66.1,79.4,66,85.6,66,86.2z M53,84.4c-1.7,1.6-1.9,3.1-0.7,4.5c0.2,0.2,0.5,0.2,0.7,0.1c1.7-1.3,2-2.7,1-4.4
		C53.8,84.3,53.4,84.2,53,84.4C53.1,84.3,53.1,84.3,53,84.4z M74.3,85.2c-1.6,1.9-1.6,3.4,0,4.6c0.2,0.2,0.6,0.1,0.8-0.1
		c1.5-1.7,1.4-3.2-0.4-4.6C74.6,85.1,74.4,85.1,74.3,85.2z M37.2,91c3.5,2.2,0.3-2-0.3-0.8C36.8,90.4,36.9,90.8,37.2,91z M51.9,95.2
		c1.7-1.3,2.1-2.7,1.4-4.2c-0.1-0.3-0.4-0.4-0.7-0.2c-2,0.9-2.5,2.3-1.5,4.2c0.1,0.3,0.5,0.4,0.8,0.3C51.8,95.2,51.8,95.2,51.9,95.2
		z M77.8,102.3l0.2,2.9c0,0.3,0.2,0.5,0.4,0.7l2,1.2c0.2,0.1,0.3,0.5,0.3,0.8c-0.4,2.2,0.4,3.4,2.4,3.7c0.3,0,0.6-0.1,0.7-0.4
		c0.5-1.8,0-3-1.7-3.5c-0.4-0.1-0.6-0.3-0.8-0.5c-0.5-0.8-0.6-1.6-0.3-2.5c0.1-0.2,0-0.5-0.2-0.7l-2.5-2.4c-0.1-0.1-0.2-0.5-0.1-0.8
		l0.5-1.6c0.1-0.2-0.1-0.5-0.3-0.8l-1.9-1.9c-0.2-0.2-0.2-0.5,0-0.8c1-1.7,0.7-3-0.8-4.1c-0.3-0.2-0.6-0.2-0.8,0
		c-0.7,0.6-1,1.5-0.9,2.5c0,0.3,0.2,0.6,0.5,0.8c1.5,1,1.9,2.4,1.2,4.2c-0.1,0.4-0.1,0.7,0,0.9C76,100.4,77.7,101.9,77.8,102.3z
		 M39.6,91.9c-0.1,0-0.3,0-0.3,0.2c-0.8,1.3-1.9,1.9-3.6,1.9c-0.3,0-0.5,0.2-0.5,0.5l0,0L35,101c0,1,0.3,1.1,0.9,0.3
		C36.8,100.1,43.7,92.4,39.6,91.9z M45,95.8c0.2,0.9,0.5,1.1,0.9,0.6c0.2-0.3,0.5-0.4,0.8-0.4c0.2,0.1,0.2,0.4,0,0.8
		c-2.2,4.5-5.1,8.4-8.6,11.9c-0.3,0.3-0.5,0.8,0,1c0.2,0.1,0.6,0,0.8-0.3c3.6-3.8,6.5-8,8.8-12.6c0.1-0.3,0-0.6-0.2-0.7l-4.9-2.6
		c-0.2-0.1-0.5,0-0.7,0.2l0,0c-1.9,3.5-4.1,6.8-6.8,9.8c-0.2,0.2-0.3,0.4-0.2,0.7c0.1,0.4,0.3,0.4,0.6,0.1c2.7-2.8,4.9-5.8,6.7-9.2
		c0.2-0.3,0.5-0.5,0.7-0.4l1.5,0.5C44.7,95.1,44.9,95.4,45,95.8z M39.8,101c-0.6,0.2-2,1.5-1.2,1.9h0.1c0.9-0.1,1.4-0.6,1.5-1.7
		l1.1-1.2c0.3-0.3,0.5-0.6,0.5-0.8c0.2-0.9,3-3.3,1.3-3.4c-0.3,0-0.6,0.2-0.7,0.5L39.8,101z M51.6,98.8c0-2.7-0.9-3-2.7-0.9
		c-0.2,0.2-0.3,0.5-0.3,0.9c0.1,2.7,1,3,2.7,1C51.5,99.5,51.6,99.1,51.6,98.8z M44.9,98.4C44.6,94.7,43,99,44.4,99
		C44.7,99,44.9,98.8,44.9,98.4C44.9,98.5,44.9,98.5,44.9,98.4z M62.3,98.1c-1.4-2.2-3.4,1.2-2,2.6c0.1,0.1,0.3,0.1,0.4,0
		c0,0,0,0,0-0.1c0.4-0.9,0.8-1.5,1.4-1.9C62.4,98.6,62.5,98.3,62.3,98.1L62.3,98.1z M61.8,101.8c-2.8,1-2.7,1.7,0.2,2.2
		c0.5,0,0.5,0.3,0.2,0.8l-1.2,0.4c-0.2,0.1-0.6,0-0.9-0.2c-1-0.6-1.4-0.4-1.5,0.7c0,0.3,0.2,0.6,0.5,0.7c1,0.4,2.1,0.3,3.2-0.4
		c1.2,0.7,2.2,0.5,3-0.6c0.1-0.1,0.1-0.5,0.1-0.8c-0.1-0.3,0.2-0.4,0.7-0.4c1.9-1.3,1.6-2-1-2.2c0.1-0.9,0.6-1.4,1.4-1.5
		c0.3,0,0.5-0.2,0.5-0.5c0.1-2.5-0.8-3.1-2.7-1.8c-0.3,0.2-0.2,0.3,0.1,0.4c0.8,0.3,1.2,0.8,1.1,1.4c0,0.3-0.2,0.4-0.5,0.2
		c-1.1-0.8-1.9-0.8-2.5,0.1c-0.1,0.2-0.1,0.5-0.1,0.9C62.5,101.5,62.3,101.7,61.8,101.8z M42,102c-1.1,0.6-1.9,1.5-2.3,2.6
		c-0.1,0.3-0.3,0.5-0.6,0.6c-0.7,0.3-1,0.7-1,1.3c0,0.4,0.2,0.4,0.5,0.2c1.5-1.3,2.8-2.9,3.7-4.7c1-0.6,1.2-1.2,0.7-1.7
		c-0.2-0.3-0.5-0.1-0.7,0.1C42,100.9,41.9,101.4,42,102z M48.5,102.9c0-0.3-0.3-0.6-0.7-0.6c0,0,0,0-0.1,0c-2.1,0.4-2.8,1.6-2.2,3.7
		c0.1,0.3,0.4,0.5,0.7,0.4C47.9,106.2,48.7,105,48.5,102.9z M36.2,105.2c-0.3,0.6-1.2,1.2-1.2,1.8c0,0.4,0.1,0.6,0.4,0.6
		c0.3,0,0.5-0.2,0.6-0.6c0.2-0.8,0.7-1.5,1.5-2.1c0.3-0.2,0.4-0.5,0.3-0.7C37.5,103.7,36.9,104,36.2,105.2z M66.1,109.3
		c0.8,2.7,5.1,3,3.9,0.3c-0.1-0.2-0.3-0.2-0.5-0.1c0,0,0,0-0.1,0c-0.4,0.3-0.8,0.4-1.2,0.3c-0.3-0.1-0.5-0.4-0.5-0.7
		c0-0.1-0.9-6.3-1.9-2.8c-0.1,0.3-0.3,0.6-0.6,0.7c-1.9,0.9-1.8,1.5,0.2,1.8C65.7,108.8,66,109,66.1,109.3z M36.3,108.7
		c0.7,0.7,2.7-2.8,0.1-0.7C36.2,108.1,36.1,108.4,36.3,108.7C36.2,108.6,36.3,108.6,36.3,108.7z M42.2,108.6c-1.4,6.1,3.8,1.9,3-0.9
		c-0.1-0.2-0.3-0.3-0.6-0.3l0,0l-1.8,0.6C42.4,108.1,42.2,108.3,42.2,108.6z"/>
	<path class="st20" d="M61.8,55.5c-1.1,0.8-1.8,0.5-2.3-0.8C61,53.8,61.8,54.1,61.8,55.5z"/>
	<path class="st12" d="M80.8,55.5c-0.3,0.9-0.8,1.4-1.5,1.3c-0.4,0-0.4-0.2-0.1-0.4l1.3-1.2C80.9,54.8,81,54.9,80.8,55.5z"/>
	<path class="st14" d="M63.5,57.8c-0.4-0.7-0.5-1.4-0.2-2.2C65.3,55.6,65.4,56.3,63.5,57.8z"/>
	<path class="st20" d="M83.3,55.5c-0.1,0.7-0.5,1.2-1.2,1.5C81.8,55.7,82.2,55.2,83.3,55.5z"/>
	<path class="st14" d="M45.2,55.5V57l-1,0.2L44,56L45.2,55.5z"/>
	<path class="st10" d="M54,56.3l3.2,8.5l2,11.5c0,0.3-0.1,0.6-0.4,0.7c-0.5,0.1-1,0.2-1.5,0c-0.1-1.3-0.5-2.6-1.2-3.7L55.8,71
		c-0.2-3-1-5.7-2.6-8.3c-1.4-2.1-2.3-4.3-2.6-6.7C52.1,55.7,53.2,55.8,54,56.3z"/>
	<path class="st11" d="M55.2,56c3.2,6.5,4.9,13.5,5.1,20.8c0,0.3-0.2,0.6-0.5,0.7C58.4,78,57,78,55.7,77.3c-0.3-0.1-0.5-0.4-0.5-0.7
		c-0.4-7-2.6-13.3-6.5-19c-0.3-0.5-0.4-0.8-0.1-0.8c0.2-0.1,0.5,0.1,0.7,0.4l3.4,5.6l3,8.2l0.2,2.3l-0.2,2.9c0,0.9,0.7,1,1.4,0.8
		c0.5,0.1,1,0.1,1.5,0c0.3-0.1,0.4-0.4,0.4-0.7l-2-11.5c-0.4-3-1.3-5.8-2.8-8.5L55.2,56z"/>
	<path class="st21" d="M54,56.3h0.5c1.4,2.7,2.3,5.5,2.8,8.5L54,56.3z"/>
	<path class="st2" d="M82.7,59.7c0-1.8,0.9-2.8,2.7-3c0.3,0,0.5,0.2,0.6,0.5c0.4,2.4-0.7,3.6-3.1,3.6c-0.3,0-0.4-0.2-0.4-0.4
		l0.1-0.2C82.6,60,82.7,59.8,82.7,59.7z"/>
	<path class="st5" d="M62,59.5c1-0.3,1.5-0.1,1.6,0.7c0,0.3-0.2,0.5-0.5,0.6c-0.8,0.2-1.2,0.7-1.1,1.5c0,0.3-0.1,0.6-0.3,0.7
		c-1,0.2-1.6-3.7-1.7-4.1c0-0.2-0.2-0.3-0.4-0.3l0,0c-1.2,0.3-1.9,0.1-2-0.6c-0.3-1.6,0.5-2,2.4-1.1c1,0.5,1.6,1.2,1.6,2.3
		C61.6,59.4,61.7,59.5,62,59.5z"/>
	<path class="st2" d="M45.2,57c0.7-0.2,1.2,0,1.5,0.5c0.1,0.2,0.2,0.5,0.2,0.9c-0.1,1.8,0.6,3,2.3,3.6c0.3,0.1,0.5,0.4,0.4,0.7
		c-0.1,2,0.6,3.7,2.1,5c0.3,0.2,0.4,0.5,0.5,0.8c0.1,0.8,0,1.5-0.4,2.2c-0.1,0.3-0.5,0.4-0.7,0.3c-2.2-0.8-2.8-2-1.7-3.4
		c0.4-0.5,0.3-1.2-0.2-1.6l0,0c-2-1.3-2.7-2.5-2.1-3.4c0.2-0.3,0.2-0.6,0.1-0.8c-0.6-0.9-1.4-1.5-2.4-1.8c-0.4-0.1-0.6-0.3-0.8-0.6
		c-0.4-0.8-0.3-1.5,0.4-2.1L45.2,57z"/>
	<path class="st14" d="M65.2,57.6c-0.2-0.5,0.2-0.7,1-0.6c0.9,0.1,0.7,1.5-0.2,1.3C65.6,58.1,65.3,57.9,65.2,57.6z"/>
	<path class="st18" d="M81.5,57.8c-0.4,1.8-1.4,2.9-3.2,3.2c-0.3-0.8-0.9-1.3-1.8-1.5L76,59c0.5-1.8,1.3-2.2,2.3-1.2
		c0.2,0.2,0.5,0.3,0.8,0.2L81.5,57.8z"/>
	<path class="st21" d="M40.7,57.2v0.7c-0.8,0-1,0.3-0.6,1.1c0.1,0.3,0.1,0.6,0,0.9c-5.5,9.2-0.3,20.2,9.2,23.5
		c-2.6,0.3-4.7-0.5-6.2-2.6c-0.1-0.2-0.4-0.2-0.6-0.1c0,0,0,0-0.1,0.1c-1,1.3,0.7,6.7,0.6,8.7l-1.2-0.3c0.4-1.9,0.2-3.7-0.5-5.5
		c-0.9-5.7-3.5-10.6-7.8-14.5l-1.8-1.9h1.4c0.1,0,0.4,0.2,0.8,0.5l2.5,2.5c0.3,0.3,0.4,0.2,0.4-0.2c0.1-3.7,0.9-7.2,2.5-10.5
		c0.3-0.7,0.1-0.9-0.6-0.5l-4.9,2.3C35.7,59.3,38,58,40.7,57.2z"/>
	<path class="st2" d="M40.8,58c0.5,0.2,1,0.7,1.6,1.4c7.1,9.9,9.5,20.7,7.2,32.4c-0.1,0.5-1.1,2.2-1.6,0.5c1.2-2.8,1.6-5.8,1.3-8.8
		c-9.5-3.4-14.6-14.3-9.2-23.5c0.2-0.2,0.2-0.6,0-0.9C39.8,58.3,40,57.9,40.8,58z M41.2,61.7c-0.3,0.2-0.7,0.5-0.8,0.7
		c-0.4,1.8,0.1,3.3,1.5,4.5c0.1,0.1,0.2,0.3,0.1,0.5l-0.1,0.1c-1,0.5-1.6,0.1-1.8-1c-0.1-0.3-0.1-0.3-0.3,0
		c-0.4,1.1-0.2,2.1,0.4,3.2c0.2,0.3,0.4,0.4,0.8,0.4c2.3,0.2,2.5,0.9,0.6,2.1c-0.5-1.4-1-1.7-1.5-1c-0.1,0.2-0.1,0.5,0.2,0.7l0,0
		l0.8,0.5l0.5,2c-0.1,2.3,0.2,2.3,0.9,0c4.8-2.1-2.2,3.6,2.1,3.5c0.2,0,0.5-0.1,0.9-0.4c0.3-0.3,0.7-0.4,1.2-0.5
		c0.3,0,0.4,0.2,0.4,0.4c-0.5,1.8,0.1,3.2,1.8,4.2c0.3,0.2,0.6,0.1,0.8-0.1c0.2-0.3,0.1-0.6-0.4-0.8C49,80.6,48.9,80.3,49,80
		c0.6-2-0.1-3.4-2.1-4.2c-0.3-0.1-0.6-0.3-0.8-0.6c-2.5-3.5-3.3-7.4-2.3-11.7C43.1,62.4,42.3,61.7,41.2,61.7z M44.2,67.1
		c0,1.5,1.5,9.3,3.9,8.6c0.2-0.1,0.4-0.4,0.3-0.8c-0.8-2.9-1.8-5.6-3.1-8C44.6,65.7,44.2,65.8,44.2,67.1z M45.9,79.3
		c0.1-0.8-0.2-0.9-1.1-0.2c-0.2,0.2-0.3,0.5-0.1,0.7l0,0c0.2,0.1,0.3,0.2,0.6,0.1C45.6,80,45.9,79.7,45.9,79.3z"/>
	<path class="st14" d="M74.8,59.2L74,60.7L73.5,61c-0.7-0.3-0.7-0.6-0.2-0.9c0.4-0.2,0.6-0.4,0.7-0.6c0-0.2,0-0.4-0.1-0.6
		c-0.1-0.3,0-0.6,0.2-0.7C74.9,57.6,75.2,58,74.8,59.2z"/>
	<path class="st20" d="M71.2,58.5l0.8-0.1C73.1,60.1,72.9,60.1,71.2,58.5z"/>
	<path class="st10" d="M31.8,67.3l-1.5-1c-0.5-0.1-0.8-0.3-0.7-0.6c0.1-0.2,0.4-0.4,0.8-0.5c2-0.4,3.2-1.7,3.6-3.9l4.9-2.3
		c0.7-0.3,0.9-0.2,0.6,0.5c-1.6,3.3-2.4,6.9-2.5,10.5c0,0.4-0.2,0.5-0.4,0.2l-2.5-2.5c-0.3-0.3-0.6-0.5-0.8-0.5L31.8,67.3z"/>
	<path class="st22" d="M80.9,71.8l-0.2,0.4c-0.6,0.2-0.8-0.5-0.5-0.9c2.2-4.6,5.2-8.7,8.8-12.3c0.2-0.2,0.5-0.3,0.7-0.2
		c0.3,0.1,0.1,0.6-0.1,0.8C85.9,63.2,83,67.3,80.9,71.8z"/>
	<path class="st10" d="M76,59l0.5,0.5c0.3,1.2-0.1,2.6-1.3,4.1c-2.4,3-3.4,6.9-3.2,11.6c0,0.6-0.3,1.3-1.1,1.9c-2,0-2.7-1-1.9-3.2
		c1-0.8,1.3-1.9,0.9-3.2L70,70c0.7-0.3,2.8-7.3,3.9-9.2l0.8-1.5L76,59z"/>
	<path class="st23" d="M76.5,59.5c0.9,0.1,1.5,0.6,1.8,1.5L77,63.2c-1-0.6-0.9,0.5-1.2,0.8c-1.6,2.2-2.4,4.7-2.6,7.4l-1.8,6.8
		l-0.5-1c0.8-0.7,1.1-1.3,1.1-1.9c-0.3-4.7,0.8-8.6,3.2-11.6C76.4,62.2,76.8,60.8,76.5,59.5z"/>
	<path class="st9" d="M93,61c0,0.6-0.4,0.9-1,0.8c-0.4-0.4-0.9-0.7-1.4-0.8c-0.3-0.1-0.6-0.3-0.6-0.5l0,0c0-0.2,0.2-0.2,0.4-0.2
		c0.2,0,0.4,0.1,0.7,0.3C91.5,61,92.2,61.2,93,61z"/>
	<path class="st10" d="M93,61c0.6,2,0.7,4,0.5,6l-0.2,5.2c0,0.9-0.5,1.7-1.2,1.9l-5.6,1.7l3.4-7.4l2.7-4.2l-1.4-0.8L91,62.8l1-1
		C92.6,61.9,93,61.6,93,61z"/>
	<path class="st9" d="M88.8,62.1c1.4-1.4,1.5-1.3,0.4,0.3c-0.3,0.4-3.9,5.7-4.3,5.6c-0.2-0.1-0.3-0.4-0.3-0.7
		C85.6,65.6,87,63.9,88.8,62.1z"/>
	<path class="st13" d="M43.6,63.8h-1.1c0.1-0.8-0.3-1.3-1-1.5l-0.2-0.5C42.3,61.7,43.1,62.4,43.6,63.8z"/>
	<path class="st5" d="M65.7,62.5l0.5,0.5L66,64c-1.6,1.3-1.3,2,0.7,2.3c1.6,1.5,1.8,2.9,0.5,4.2c-0.2,0.2-0.5,0.3-0.8,0.2
		c-1.6-0.6-1.6-1.2-0.2-1.9c0.2-0.1,0.3-0.4,0.2-0.5v-0.1c-0.5-0.6-1-0.6-1.6,0.1c-0.2,0.3-0.5,0.4-0.8,0.3
		c-0.5-0.1-0.9-0.4-1.3-0.7c-0.2-0.2-0.2-0.5-0.1-0.8c0.3-0.8-0.1-1.1-1.2-1.1c-0.3,0-0.6-0.2-0.7-0.4C60.4,64.5,60.8,64,62,64
		c0.3,0,0.5-0.2,0.6-0.5C63.2,61.5,64.2,61.2,65.7,62.5z"/>
	<path class="st22" d="M66.2,63l-0.5-0.5c0.5-0.5,1.1-0.9,1.8-1c0.3,0,0.6,0.1,0.9,0.3C69.8,63.3,69.1,63.7,66.2,63z"/>
	<path class="st2" d="M79.2,64.5c-0.1-1.5,0.7-2.5,2.3-2.8c0.3-0.1,0.6,0.1,0.7,0.4c0.7,2.3-0.1,3.6-2.5,3.8c-0.4,0-1.2-0.1-0.7-0.7
		C79.1,65,79.2,64.7,79.2,64.5z"/>
	<path class="st17" d="M41.2,61.7l0.2,0.5c-1.3,1.6-1,2.1,1,1.5h1.1c-1,4.3-0.2,8.2,2.3,11.7c0.2,0.2,0.4,0.4,0.8,0.6
		c2,0.8,2.7,2.2,2.1,4.2c-0.1,0.3,0.1,0.5,0.3,0.7c0.5,0.3,0.6,0.5,0.4,0.8c-0.2,0.2-0.5,0.3-0.8,0.1c-1.6-1-2.2-2.4-1.8-4.2
		c0-0.3-0.1-0.4-0.3-0.4c-0.4,0.1-0.8,0.2-1.2,0.5C45,77.9,44.7,78,44.5,78c-4.2,0.1,2.7-5.6-2.1-3.5h-0.9l-0.5-2l0.5-0.2
		c1.9-1.2,1.7-1.9-0.6-2.1c-0.3,0-0.6-0.2-0.8-0.4c-0.6-1.1-0.8-2.1-0.4-3.2c0.1-0.3,0.2-0.3,0.3,0c0.2,1.1,0.8,1.4,1.8,1
		c0.3-0.1,0.2-0.4,0-0.5c-1.4-1.2-1.9-2.7-1.5-4.5c0-0.2,0.2-0.4,0.5-0.5L41.2,61.7z"/>
	<path class="st3" d="M24.3,65.9l1.1-3.5c0.1-0.2,0.3-0.4,0.6-0.3c0.1,0,0.2,0.1,0.3,0.3l1.3,3.5c0.1,0.2,0,0.5-0.3,0.6h-0.1h-2.4
		C24.4,66.5,24.3,66.2,24.3,65.9z"/>
	<path class="st2" d="M41.5,62.2c0.7,0.2,1.1,0.7,1,1.5C40.5,64.4,40.2,63.9,41.5,62.2z"/>
	<path class="st21" d="M52.8,62.7h0.5c1.5,2.5,2.4,5.3,2.6,8.3L52.8,62.7z"/>
	<path class="st5" d="M91,62.8l0.3,0.5L90.5,64h-0.7C89.8,63.2,90.2,62.8,91,62.8z"/>
	<path class="st11" d="M70,70v0.7c-0.9,0.9-1.2,2-0.9,3.2c-0.7,2.2-0.1,3.3,1.9,3.2l0.5,1c-1.4,0.8-2.6,0.7-3.6-0.2
		c-0.2-0.2-0.3-0.5-0.3-0.8c0.4-4.8,1.6-9.3,3.6-13.7c0.1-0.2,0.3-0.3,0.5-0.2c0,0,0.1,0,0.1,0.1c0.4,0.4,0.4,0.9-0.1,1.4
		c-0.3,0.3-0.5,0.6-0.5,0.8L70,70z"/>
	<path class="st11" d="M77,63.2l-3.8,8.2c0.1-2.7,1-5.2,2.6-7.4C76.1,63.7,76.1,62.6,77,63.2z"/>
	<path class="st24" d="M66,64c2.4,0.4,2.6,1.1,0.7,2.3C64.7,66,64.5,65.3,66,64z"/>
	<path class="st9" d="M89.8,64l0.8,0.1c-0.3,0.4-2.4,4.2-3.1,2.9c-0.1-0.2-0.1-0.6,0.2-0.8L89.8,64z"/>
	<path class="st9" d="M92.7,64.1L90,68.3c-1.8,1.9-3.2,4-3.9,6.4l-5.3-2.5l0.2-0.4l4.2,1.6c0.3,0.1,0.6,0,0.7-0.3
		C87.3,69.6,89.6,66.6,92.7,64.1z"/>
	<path class="st22" d="M30.2,66.3l1.5,1l1.8,1.9L33,69.5c-0.8-1.1-1.8-1.9-3-2.3L30.2,66.3z"/>
	<path class="st17" d="M44.2,67.1c0-1.3,0.4-1.4,1-0.2c1.3,2.4,2.3,5.1,3.1,8c0.1,0.4,0,0.7-0.3,0.8C45.7,76.4,44.1,68.6,44.2,67.1z
		"/>
	<path class="st2" d="M76.8,68.3c1.9-2.1,2.7-1.7,2.6,1.3c0,0.3-0.1,0.6-0.4,0.9c-2.1,2.3-2.9,1.9-2.6-1.2
		C76.4,68.9,76.5,68.5,76.8,68.3z"/>
	<path class="st7" d="M30,67.2c1.3,0.4,2.3,1.2,3,2.3l2.8,3.5c0.2,0.3,0.4,0.6,0.3,0.8c-0.1,0.5-0.6,0.9-0.9,1.2
		c-1,0.3-1.5,0-1.2-0.9l0.2-0.2c0.9,0,0.7-0.9,0-1.2c-1.5-0.8-2.5-1.9-3-3.4c-0.1-0.4-0.5-0.6-0.9-0.4c0,0-0.1,0-0.1,0.1
		c-1.5,0.9-1.1,1.5,1.1,1.7c-1,0.5-1.4,1-1.1,1.5l-0.5,0.3c-0.8-0.3-1.2-0.9-1.2-1.8c-2.7-0.6-2.8-0.2-0.3,1.2l4.3,4.8
		c0.3,0.7,0.2,1.1-0.4,1.1c-2.7-0.3-3.4,0.7-2.1,2.9L29.8,82h-1.2c-0.6,0.1-1.1,0-1.6-0.3c-0.2-0.2-0.4-0.5-0.3-0.8
		c0.3-2.3-0.1-4.4-1-6.5v-5.7c0-0.2,0.3-0.4,0.6-0.4C27.7,68.6,28.9,68.3,30,67.2z"/>
	<path class="st5" d="M62.8,69c1.5,0.4,0.4,1.7-0.6,1.7c-2.7-0.3-1-5.3,0-2.3C62.3,68.7,62.5,69,62.8,69z"/>
	<path class="st22" d="M83.5,70.8l0.5-0.3c1.3,0.1,1.9-0.5,2-1.8c0-0.3,0.2-0.6,0.4-0.8c0.7-0.4,1-0.3,1,0.4c0,0.3-0.1,0.6-0.4,0.8
		c-0.6,0.5-1,1.2-1.1,1.9C85.5,72.3,84,72,83.5,70.8z"/>
	<path class="st3" d="M90,68.3l-3.4,7.4l-0.5-1C86.8,72.3,88.1,70.2,90,68.3z"/>
	<path class="st24" d="M34.2,73.8l-2.9-3.3c-2.2-0.3-2.6-0.8-1.1-1.7c0.3-0.2,0.8-0.1,1,0.2l0.1,0.1c0.6,1.5,1.6,2.7,3,3.4
		c0.3,0.2,0.6,0.5,0.6,0.7C34.8,73.6,34.6,73.7,34.2,73.8z"/>
	<path class="st5" d="M84,70.5l-0.5,0.3c-0.6-0.4-1-1.8,0.1-1.7C84.1,69.2,84.2,69.7,84,70.5z"/>
	<path class="st24" d="M33.5,69.2c4.2,3.9,6.8,8.8,7.8,14.5h-0.5l-0.9-3c-0.1-0.3-0.3-0.5-0.6-0.6c-1.1-0.3-1.2-0.6-0.5-1.2
		c0.3-0.2,0.4-0.5,0.3-0.7c-0.5-1.8-1.7-3.1-3.4-3.8c0.4-0.6,0.6-0.8,0.1-1.5L33,69.5L33.5,69.2z"/>
	<path class="st5" d="M28.5,70.5l-0.3,1.2C25.8,70.3,25.9,69.9,28.5,70.5z"/>
	<path class="st9" d="M28.5,70.5c0,0.9,0.4,1.5,1.2,1.8c0.1,0.7,0.5,0.9,1.2,0.7c1.1,2,2.6,3.8,4.4,5.2c0.2,0.2,0.2,0.5,0.1,0.7l0,0
		c-0.9,1-1.3,1.1-1.1,0.2c0.1-0.3,0-0.6-0.2-0.9l-1.6-1.7l-4.3-4.8L28.5,70.5z"/>
	<path class="st23" d="M31.3,70.5l2.9,3.3c-1.1,1-1,1.8,0.8,2.1c1.2,0.5,1.8,1.3,2,2.5c0,0.3-0.1,0.5-0.4,0.7
		c-0.6,0.3-0.7,0.5-0.2,0.8c0.3,0.1,0.6,0,0.7-0.3c1-1.8,0.5-3.1-1.5-4.1L35.2,75l0.5-0.5c1.7,0.7,2.9,1.9,3.4,3.8
		c0.1,0.3,0,0.6-0.3,0.7c-0.7,0.5-0.6,0.9,0.5,1.2c0.3,0.1,0.5,0.3,0.6,0.6l0.9,3c-0.8,0.3-5.5,0-3.9-1.5c0.2-0.2,0.5-0.2,0.8,0
		c1,0.6,1.4,0.4,1.2-0.7c-0.1-0.3-0.3-0.5-0.6-0.4c-0.9,0.1-1.7-0.1-2.4-0.4c-1-0.5-1.3-0.2-0.9,0.8c1,2.2,2.7,3.5,5.1,3.7
		c0.3,0,0.6,0.2,0.7,0.5c0.3,0.7,0.2,1.5-0.4,2.2l-0.7-0.5c0.8-2.1-2.9-2.1-2.8-0.3h-0.5c-0.1-1.7-2.3-6.5-4.5-4.7h-1.8L29.8,82
		l0.3-1.5c1,1,2,0.2,1.1-0.5l0,0c-1.9-0.9-1.6-1.7,1-2.4c0.6,0,0.7-0.3,0.4-1.1l1.6,1.7c0.2,0.2,0.3,0.5,0.2,0.9
		c-0.2,0.9,0.2,0.8,1.1-0.2c0.2-0.2,0.2-0.5,0-0.7l0,0C33.6,76.8,32.1,75,31,73c0.4-0.7,0.2-1.1-0.7-1C29.9,71.5,30.3,71,31.3,70.5z
		"/>
	<path class="st15" d="M41.5,72.2L41,72.5L40.2,72c-0.3-0.2-0.3-0.5-0.2-0.7l0,0C40.5,70.5,41,70.9,41.5,72.2z"/>
	<path class="st21" d="M70,70.7c0.4,1.4,0.1,2.4-0.9,3.2C68.8,72.7,69.1,71.6,70,70.7z"/>
	<path class="st2" d="M51.5,72c0-0.2,0.2-0.3,0.3-0.2h0.1c3.3,2.1,1.5,7.7-1,3.4c-0.1-0.3-0.2-0.6-0.1-0.9L51.5,72z"/>
	<path class="st3" d="M30.2,72c0.9,0,1.1,0.3,0.7,1c-0.7,0.2-1.1-0.1-1.2-0.7L30.2,72z"/>
	<path class="st2" d="M74.6,77.3c-0.3-1.9-0.7-3.4,1.5-4.3c0.3-0.1,0.6,0,0.7,0.3c1,2,0.4,3.5-1.7,4.3C75,77.7,74.8,77.6,74.6,77.3
		C74.7,77.3,74.6,77.3,74.6,77.3z"/>
	<path class="st21" d="M56,73.2c0.7,1.1,1.1,2.4,1.2,3.7c-0.4,0.1-0.7,0.1-1,0c-0.2-0.1-0.4-0.4-0.4-0.8L56,73.2z"/>
	<path class="st22" d="M63.2,75.3c-0.2,0.6,0.2,4.7-1.3,3.8c-0.2-0.1-0.3-0.4-0.3-0.8l0.2-3c0-0.4,0.1-0.8,0.2-0.9
		c1-1.4,2.1-1.6,3.4-0.4c0.3,0.2,0.4,0.5,0.4,0.8l0.3,4c0,0.3-0.2,0.4-0.4,0.4c-1.2-0.3-1.6-1.2-1.2-2.7c0.1-0.4,0.1-0.7,0-1
		c-0.1-0.4-0.4-0.6-0.7-0.7C63.6,74.8,63.3,75,63.2,75.3L63.2,75.3z"/>
	<path class="st5" d="M34,74c-0.2,0.9,0.2,1.2,1.2,0.9l0.3,0.5L35,76C33.4,75.6,33,75,34,74z"/>
	<path class="st4" d="M25.6,74.5c0.9,2,1.2,4.2,1,6.5c0,0.3,0.1,0.7,0.3,0.8c0.5,0.3,1,0.4,1.6,0.3L28,82.7c-0.6,0.5-0.6,1,0,1.3
		c0.1,0.8,0.5,1.2,1.1,1.1c0.4,0,0.7,0,0.8,0.1c0.4,0.3,0,0.9-0.7,0.7c-1.3-0.3-1.9,0.3-1.7,1.9l0.5,0.5c-0.6,1-0.4,1.6,0.8,1.8
		c0.5,1.2,1.3,1.4,2.5,0.7L34,91l0.5,0.5l-6.7,0.3c-0.4,0-0.8,0.1-0.9,0.2c-0.5,0.4-0.2,0.8,0.9,1L27,94l-0.5,0.3h-1L25.6,74.5z"/>
	<path class="st15" d="M41.5,74.5h0.9C41.8,76.8,41.5,76.8,41.5,74.5z"/>
	<path class="st2" d="M80,76c-1.4,2.8-1.9,5.7-1.4,8.8C89,87.3,91.7,99.3,88,108c-0.1,0.3-0.2,0.6-0.1,1c0.2,2-1.5,0.9-2.1,0.2
		c-7.3-9.7-9.9-20.6-7.6-32.6C78.5,74.7,79.1,74.5,80,76z M79.5,87.7c-2.5,1.4,0.7,3.9,1.8,4.8c2.2,1.9,3.2,4.8,3.4,7.7l-1,0.5
		c-0.1-3.4-1.3-6.2-3.7-8.3c-0.4-0.4-0.6-0.3-0.5,0.3c0.7,3.4,1.8,6.4,3.4,8.8l1,1c0.1,1.2,0.5,2.4,1.2,3.5c0.2,0.3,0.5,0.4,0.8,0.3
		c0.6-0.2,0.5-0.5-0.3-1.1c-0.3-0.2-0.4-0.5-0.3-0.8c0.2-0.8,1.7-0.7,1.4,0.3c-0.2,0.6-0.1,0.9,0.5,1.1c0.2,0,0.3-0.1,0.4-0.3v-0.1
		l-0.3-2.5c0-0.3-0.2-0.6-0.4-0.7l-1.5-1l0.3-0.7l1.5-0.2c0.7,1.9,1,1.9,1.2-0.1c-0.3-1.5-1.1-2.3-2.4-2.3c-0.3,0-0.6-0.2-0.7-0.4
		c-0.2-0.7,0.1-1.2,0.9-1.5c1.8,1.9,2,1.7,0.5-0.5l-0.3-2.7c0-0.4-0.2-0.7-0.5-0.7L85.5,92c-0.3-0.1-0.6-0.3-0.7-0.5
		c-0.6-1.6-1.6-1.7-3.1-0.5c-0.2,0.1-0.4,0.1-0.6,0c0,0,0-0.1-0.1-0.1c-0.2-0.5-0.2-0.9-0.1-1.4c0.1-0.4,0.2-0.7,0.1-0.9
		c-0.1-0.3-0.4-0.6-0.7-0.8c-0.3-0.6-0.9-2-1.8-1.5C78.1,86.5,78.3,87.1,79.5,87.7z M83,88.4c-0.4-0.4-0.7-0.4-1,0.1
		c-0.2,0.3-0.1,0.6,0.1,0.8c0.4,0.5,0.8,0.4,1.1-0.1C83.3,89,83.2,88.6,83,88.4z"/>
	<path class="st24" d="M93.2,75c0.9,0,8.6-0.4,8.2,0.9c-0.1,0.3-0.4,0.5-0.7,0.5l-4.3-0.1c-1,0.2-8.3,0.2-6.3-1.1
		C90.7,74.8,92.6,75,93.2,75z"/>
	<path class="st22" d="M35.5,75.5c2,1,2.5,2.3,1.5,4.1c-0.2,0.3-0.5,0.4-0.7,0.3c-0.5-0.2-0.5-0.5,0.2-0.8c0.3-0.1,0.5-0.4,0.4-0.7
		c-0.1-1.2-0.8-2-2-2.5L35.5,75.5z"/>
	<path class="st10" d="M80,76c1.8,0.3,3.5,1.2,4.9,2.4c0.2,0.2,0.3,0.5,0.3,0.8l-0.1,4.2c0,0.4,0.2,0.7,0.5,0.8
		c0.2,0,0.5-0.1,0.7-0.5l0.2,2c0,0.7-0.2,1.3-0.7,1.7c-0.2,0.2-0.5,0.1-0.7-0.1c-1.6-1.9-3.7-2.7-6.4-2.5C78.2,81.7,78.7,78.8,80,76
		z"/>
	<path class="st22" d="M89.1,77.1c-0.5-2.9,4.3,2.7,0.5,0.7C89.3,77.6,89.1,77.4,89.1,77.1z"/>
	<path class="st22" d="M32.1,77.6c-2.5,0.7-2.9,1.5-1,2.4c0.3,0.1,0.4,0.4,0.3,0.6l0,0c-0.3,0.5-0.7,0.4-1.4-0.2
		C28.7,78.3,29.4,77.3,32.1,77.6z"/>
	<path class="st2" d="M95.5,77.2c1,0.8,0.7,1.5-0.8,2c-0.4,0.5-0.6,1.1-0.6,1.7c0,0.3-0.1,0.6-0.3,0.8c-1,1.1-0.7,1.6,0.9,1.5
		l0.2,1.2c0.3,0.8,0.1,1.4-0.5,1.8c-2.4-0.9-3.6-2.7-3.5-5.3C91.3,78.3,92.8,77.1,95.5,77.2z"/>
	<path class="st2" d="M52.7,78.2c0.1-0.2,0.4-0.3,0.6-0.2c0,0,0,0,0.1,0c2.7,1.8,0.5,7.7-1.7,3.1c-0.1-0.3-0.2-0.6,0-0.9L52.7,78.2z
		"/>
	<path class="st2" d="M99,80.3c-1,0-2,0.1-2.9,0.3c-1.6,0.3-1.5,0,0.2-0.8l2.1-1.3c0.3-0.2,0.6-0.2,0.9-0.1
		C100.1,78.8,100.1,79.4,99,80.3z"/>
	<path class="st13" d="M45.3,80c-0.2,0-0.4,0-0.6-0.1c-0.2-0.2-0.2-0.5,0-0.7c0,0,0,0,0.1-0.1c0.9-0.7,1.2-0.7,1.1,0.2
		C45.9,79.7,45.6,80,45.3,80z"/>
	<path class="st2" d="M74.1,80c0.8-1.1,1.4-1.1,2,0.2c0.6,1.2,0.2,2.4-1,3.5c-0.4,0.3-0.9,0.3-1.3,0c-0.1-0.1-0.1-0.1-0.1-0.2
		C73.1,82.4,73.2,81.2,74.1,80z"/>
	<path class="st22" d="M90,81.3c-0.7,1-1.4,1.1-2.2,0.3c-0.1-0.1-0.3-0.1-0.5,0l-0.1,0.1c-0.5,1.2,0,1.6,1.3,1.2
		c0.4-0.1,0.7-0.1,0.9,0c0.3,0.1,0.4,0.4,0.5,0.6c0,0.2-0.2,0.4-0.4,0.5h-0.1c-2.4-0.1-2.8,0.3-1.1,1.3c-0.2,0.5-0.1,0.9,0.5,1.2
		c-1.3,0.1-1,1.5,0.1,1.5l2.7,0.2c0.3,0,0.5,0.2,0.4,0.5v0.1c-0.6,1.9-4.4-1.7-2.6,2c0.4,1.2,1.2,2.1,2.3,2.5
		c0.2,0.1,0.3,0.4,0.2,0.6l0,0c-0.2,0.4-0.2,0.7-0.1,1.1l-0.5,0.5c-2.1-3-3.7-6.3-4.8-9.8l-0.2-2c-0.4-1.4-0.3-2.7,0.2-4
		c0.1-0.2,0.2-0.2,0.4-0.2l0.1,0.1C87.8,80.5,88.8,81.1,90,81.3z"/>
	<path class="st16" d="M94.7,79.2c0.3,0.6,0.8,0.7,1.5,0.5c-3.7,1.8,1.7,0.3,2.7,0.5l0.5,0.5c-3.4,1.6-3.4,2.6,0.2,3.2l-0.2,1.2
		L98.2,85c-0.6-0.6-1.2-0.6-1.8-0.2c-0.2,0.1-0.3,0.5-0.2,0.8c0.1,0.5,0,1-0.5,1.4l-1.2-0.8c0.6-0.4,0.8-1,0.5-1.8
		c-0.1-0.7,0.2-1.3,0.6-1.7c0.2-0.2,0.2-0.4,0.1-0.5c0,0,0,0-0.1-0.1c-0.5-0.3-0.8,0.1-0.9,1.1c-1.6,0.1-1.9-0.4-0.9-1.5
		c0.2-0.2,0.3-0.5,0.3-0.8C94.1,80.3,94.3,79.7,94.7,79.2z"/>
	<path class="st11" d="M66.7,82l0.2,3.5l-0.7,0.8L66,86.2c0-0.6,0.1-6.8-2.1-4.8c-0.3,0.2-0.6,0.3-0.8,0.2c-0.4-0.3-0.9-0.7-0.5-1.1
		c0,0,0.1,0,0.2-0.1C64.3,80.2,65.6,80.7,66.7,82z"/>
	<path class="st22" d="M40.8,83.7h0.5c0.7,1.8,0.9,3.6,0.5,5.5c-0.8-0.1-1.2-0.6-1.3-1.5c0.6-0.7,0.7-1.4,0.4-2.2
		c-0.1-0.3-0.4-0.4-0.7-0.5c-2.4-0.2-4.1-1.4-5.1-3.7c-0.5-1.1-0.2-1.3,0.9-0.8c0.7,0.3,1.5,0.5,2.4,0.4c0.3,0,0.6,0.2,0.6,0.4
		c0.2,1-0.2,1.2-1.2,0.7c-0.3-0.2-0.6-0.2-0.8,0C35.3,83.7,39.9,84.1,40.8,83.7z"/>
	<path class="st10" d="M49.2,83.5c0.3,3-0.1,6-1.3,8.8c-2-0.2-3.7-1.1-5-2.8c0.1-1.9-1.6-7.4-0.6-8.7c0.1-0.2,0.4-0.2,0.6,0
		c0,0,0,0,0.1,0.1C44.6,82.9,46.7,83.8,49.2,83.5z"/>
	<path class="st2" d="M99.5,80.7c0.6,1,0.3,1.5-0.8,1.3c-0.2,0-0.4,0.1-0.5,0.3l0,0c0,0.9,1.8-0.2,1.5,1.6
		C96.1,83.4,96,82.3,99.5,80.7z"/>
	<path class="st10" d="M61,81.3v1.2c-0.4,0-0.9,0.2-0.7,0.8c0.6,2.7-0.6,3.8-3.5,3.2c-0.3-0.1-0.5-0.3-0.6-0.6
		c-0.3-1.4-0.2-2.8,0.1-4.3c0.1-0.3,0.3-0.5,0.6-0.5L61,81.3z"/>
	<path class="st10" d="M67,85.5L66.7,82c1.5-0.9,3.1-1.2,4.8-0.7c0.3,0.1,0.5,0.4,0.4,0.6l-0.4,4c0,0.3-0.3,0.5-0.5,0.5l-3.2,0.2
		C67,86.6,66.8,86.2,67,85.5z"/>
	<path class="st11" d="M61,81.3c0.5-0.2,1,0.1,1,0.8l0.2,4.5c0,0.2,0.2,0.4,0.3,0.4s0.1,0,0.2,0c0.3-0.2,0.6-0.5,0.7-0.9
		c0.9,0.7,0.7,1.2-0.5,1.7c-0.6-0.1-1.1-0.3-1.5-0.8c-0.2-0.2-0.2-0.6-0.2-0.9c0.2-1.2,0.1-2.3-0.1-3.5L61,81.3z"/>
	<path class="st19" d="M28.5,82h1.2l0.5,0.2c-0.6,0.8-1.4,1-2.3,0.5L28.5,82z"/>
	<path class="st2" d="M36.5,87c-0.2,1.7-1,3.1-2.5,4l-2.8-0.2c1.3-0.9,2-2.1,1.8-3.7c0-0.3,0.1-0.5,0.4-0.7c0.4-0.2,0.7-0.5,0.8-0.8
		c0.1-0.2,0-0.3-0.2-0.4c-0.8,0-1.3-0.2-1.3-0.8c0-0.4,0-0.8-0.1-0.9L32,82.3C34.3,80.5,36.5,85.3,36.5,87z"/>
	<path class="st12" d="M95,84.5l-0.2-1.2c0.1-1,0.5-1.3,0.9-1.1c0.2,0.1,0.2,0.3,0.1,0.5c0,0,0,0.1-0.1,0.1
		C95.1,83.2,94.9,83.8,95,84.5z"/>
	<path class="st16" d="M30.2,82.3H32l0.7,1.1c0.3,0.8-0.4,1.8,1.3,1.7c0.2,0,0.3,0.1,0.4,0.3v0.1c-0.2,0.4-0.5,0.7-0.8,0.8
		c-0.3,0.1-0.4,0.4-0.4,0.7c0.1,1.5-0.5,2.7-1.8,3.7c-1.2,0.7-2,0.5-2.5-0.7c3.2-2.2,2.9-2.8-0.8-1.8l-0.5-0.5
		c0.6-0.7,1.4-0.9,2.2-0.7c0.3,0.1,0.6-0.1,0.7-0.3c0.8-2,0-3-2.5-2.8c-0.6-0.3-0.6-0.7,0-1.3C28.9,83.3,29.6,83.1,30.2,82.3z"/>
	<path class="st9" d="M64.2,84.5l-1,0.5C63,82.5,63.4,82.3,64.2,84.5z"/>
	<path class="st2" d="M27.5,87.8c-0.2-1.6,0.4-2.2,1.7-1.9c0.6,0.2,1.1-0.2,0.7-0.7c-0.1-0.1-0.4-0.1-0.8-0.1
		c-0.6,0.1-0.9-0.3-1.1-1.1c2.4-0.2,3.3,0.7,2.5,2.8c-0.1,0.2-0.4,0.4-0.7,0.3C28.9,86.9,28.1,87.1,27.5,87.8z"/>
	<path class="st2" d="M53,84.4c0.3-0.4,0.8-0.3,1.1,0.1c1,1.7,0.7,3.2-1,4.4c-0.2,0.2-0.6,0.1-0.7-0.1C51.1,87.4,51.4,85.9,53,84.4z
		"/>
	<path class="st23" d="M64.2,84.5c-0.1,1.4,0.5,2,1.8,1.7l0.2,0.1c0,0.8-0.3,1.3-0.9,1.5C64.6,88,64.6,88.6,65,89l-0.3,3.7
		c0,0.4-0.2,0.7-0.4,0.8c-1.3,0.8-1.4-3.7-1.6-4.5v-1.3c1.3-0.5,1.4-1.1,0.5-1.7v-1L64.2,84.5z"/>
	<path class="st11" d="M98.2,85L98,85.5c-0.1-0.5-0.3-0.7-0.5-0.6c-0.4,0.3-0.6,0.8-0.4,1.2c1,2.3,1.1,3.7,0.2,4.4
		c-0.3,0.2-0.4,0.1-0.3-0.2c0.3-1.7-0.1-2.8-1.3-3.3c0.4-0.4,0.6-0.9,0.5-1.4c-0.1-0.3,0-0.7,0.2-0.8C97,84.4,97.6,84.5,98.2,85z"/>
	<path class="st2" d="M74.3,85.2c0.1-0.1,0.3-0.1,0.4,0c1.8,1.4,1.9,2.9,0.4,4.6c-0.2,0.2-0.5,0.3-0.8,0.1
		C72.8,88.6,72.7,87.1,74.3,85.2z"/>
	<path class="st2" d="M98.2,85l1.3,0.2c-0.2,1.3-0.8,1.4-1.6,0.2L98.2,85z"/>
	<path class="st5" d="M88.2,85.3c0.9,0.7,1.8,0.8,2.8,0.4c0.3-0.1,0.6-0.1,0.8,0.1c0.8,0.6,1.9,3.6,0,1.6C91.7,87.1,91.4,87,91,87
		c-0.8,0-1.6-0.2-2.3-0.5C88.2,86.2,88,85.8,88.2,85.3z"/>
	<path class="st24" d="M39.8,87.3L37,87C36.9,85.2,40.5,85.2,39.8,87.3z"/>
	<path class="st16" d="M80.5,87.7h-1c-1.2-0.7-1.5-1.2-0.8-1.6c0.3-0.1,0.6-0.1,0.9,0.1C80,86.7,80.3,87.2,80.5,87.7z"/>
	<path class="st2" d="M28.8,90c-1.1-0.1-1.4-0.7-0.8-1.8C31.7,87.2,31.9,87.8,28.8,90z"/>
	<path class="st17" d="M79.5,87.7h1c0.3,0.2,0.5,0.5,0.7,0.8c0.1,0.2,0.1,0.5-0.1,0.9c-0.2,0.5-0.2,0.9,0.1,1.4
		c0.1,0.2,0.3,0.3,0.5,0.2c0,0,0.1,0,0.1-0.1c1.4-1.2,2.4-1,3.1,0.5c0.1,0.2,0.3,0.4,0.7,0.5l0.5,0.1c0.2,0.1,0.4,0.3,0.5,0.7
		l0.3,2.7L86.2,96c-0.8,0.3-1.1,0.8-0.9,1.5c0.1,0.2,0.4,0.4,0.7,0.4c1.3,0,2.1,0.7,2.4,2.3l-1.2,0.1l-1.5,0.2l-1-0.3
		c-0.3-2.9-1.2-5.8-3.4-7.7C80.3,91.6,77,89.1,79.5,87.7z M83.7,93.3c-0.2,0.8,0.1,1,0.8,0.7c0.7-0.3,1-0.7,0.7-1.3
		c-0.1-0.3-0.5-0.5-0.8-0.4C84,92.5,83.8,92.8,83.7,93.3z"/>
	<path class="st13" d="M83.1,89.3c-0.3,0.5-0.7,0.6-1.1,0.1c-0.2-0.2-0.2-0.6-0.1-0.8c0.3-0.5,0.7-0.5,1-0.1
		C83.2,88.6,83.3,89,83.1,89.3z"/>
	<path class="st24" d="M62.8,89c0.2,0.7,0.3,5.3,1.6,4.5c0.2-0.1,0.3-0.4,0.4-0.8L65,89c0.6-0.2,1.1,0.1,1.1,0.8l-0.2,3.5
		c0,0.4-0.1,0.7-0.3,0.9c-1.1,1.4-3,0.9-3.4-0.8l-0.5-3.7c-0.1-0.4,0.1-0.7,0.3-0.8C62.2,88.9,62.5,88.9,62.8,89z"/>
	<path class="st22" d="M36.9,90.2c0.6-1.2,3.8,3,0.3,0.8C36.9,90.8,36.8,90.4,36.9,90.2z"/>
	<path class="st11" d="M56.1,105.3l0.8-4.5c0-1.8,0.6-3.3,1.7-4.7c0.2-0.2,0.3-0.5,0.3-0.9L59,92c0-1.3-1.5-1.8-2.4-0.8
		c-0.9,0.8-1.1,1.9-0.7,3.2L56,95l-4,9.5c0,0.1-0.3,0.4-0.6,0.8s-0.4,0.9-0.3,1.5c-1.2,0-1.5-0.4-0.6-1.4c2.8-3.1,4.6-10.6,5.2-14.7
		c0-0.3,0.3-0.5,0.6-0.5l3-0.2c0.3,0,0.5,0.2,0.6,0.5C60.6,94.5,58.3,102,56.1,105.3z"/>
	<path class="st11" d="M78.8,111.5c-4-5.2-6.2-11.1-6.6-17.6c-0.1-2.3-1.6-4.5-3.5-1.8l0.6,4.6c0.3,5.7,1.8,11,4.5,16l-0.5,0.1
		c-2.4-1.7-5-13.9-5-14.3c-0.2-3.3-3.4-10.3,3.4-8.3c0.3,0.1,0.5,0.3,0.7,0.6c1,2.7,0.4,5.4,1.2,7.9c1.3,4.4,3.2,8.5,5.8,12.3
		c0.2,0.2,0.2,0.5,0.1,0.7C79.3,111.8,79.1,111.8,78.8,111.5z"/>
	<path class="st22" d="M94.6,93.7H94l-4.1-3c0.3-0.9,0.7-1,1-0.4c0.2,0.3,0.4,0.5,0.7,0.7C93,91.6,94,92.5,94.6,93.7z"/>
	<path class="st22" d="M94.1,90.8c1.8,1.3,3.8,3.9,5.6,5.5c0.4,0.4,1.6,0.3,1.7,1.1c0.1,0.2-0.1,0.6-0.4,0.5
		c-0.9,0.1-1.5-0.3-1.8-1.1c-0.1-0.3-0.3-0.6-0.5-0.8c-2.3-1.7-3.2-3.4-5.1-5.3C92.6,89.9,92.8,89.8,94.1,90.8z"/>
	<path class="st2" d="M51.9,95.2c-0.3,0.2-0.6,0.1-0.8-0.1c0,0,0-0.1-0.1-0.1c-0.9-2-0.4-3.4,1.5-4.2c0.3-0.1,0.6,0,0.7,0.2
		C54,92.5,53.5,93.9,51.9,95.2z"/>
	<path class="st10" d="M57,100.7l-3.7,7.2l-0.3,0.5l-1,0.7l-0.3-0.3l-0.8-0.7v-1.5c2.8-3.4,4.5-7.3,5-11.8l0.1-0.5
		c0.9-0.9,1.1-2,0.7-3.2c1-1,2.4-0.5,2.4,0.8L59,95.2c0,0.3-0.1,0.7-0.3,0.9C57.6,97.4,57,99,57,100.7z"/>
	<path class="st23" d="M89.2,90.8h0.7l4.1,3c-1.1,0.5-1,1.7,0,2.1c1.1,0.5,1.9,1.1,2.4,1.8c-0.1,2,0.8,2.5,2.8,1.3
		c-0.3,1.3-1.1,2.2-2.2,2.7l-0.5-0.7c0.2,0,0.3,0,0.3-0.1c0.1-0.1,0.1-0.2,0-0.4c0,0,0,0,0-0.1L91.7,95c-0.1-0.4-0.1-0.7,0.1-1.1
		c0.1-0.2,0-0.5-0.2-0.6l0,0C90.4,92.8,89.6,92,89.2,90.8z"/>
	<path class="st21" d="M78.8,111.5l-0.5,0.8l-1-0.2c0.8-0.4,1-0.8,0.5-1.1c-0.4-0.2-0.6-0.5-0.7-0.7c-2.1-3.8-4.2-8-4.9-12.3
		c-0.1-0.9-0.5-1.7-1-2.5c-0.2-0.3-0.2-0.6-0.1-0.9c0.9-2.7,0.1-3.5-2.4-2.5c1.9-2.7,3.4-0.5,3.5,1.8
		C72.5,100.4,74.7,106.2,78.8,111.5z"/>
	<path class="st21" d="M56.8,91.3c0.4,1.2,0.2,2.3-0.7,3.2C55.6,93.2,55.8,92.1,56.8,91.3z"/>
	<path class="st2" d="M77.2,101.5l-1.6-1.6c-0.2-0.2-0.2-0.5,0-0.9c0.7-1.8,0.3-3.2-1.2-4.2c-0.3-0.2-0.5-0.5-0.5-0.8
		c-0.1-1.1,0.2-1.9,0.9-2.5c0.2-0.2,0.6-0.2,0.8,0c1.6,1.1,1.9,2.5,0.8,4.1c-0.2,0.3-0.2,0.6,0,0.8l1.9,1.9c0.3,0.3,0.4,0.6,0.3,0.8
		l-0.5,1.6c-0.1,0.4-0.1,0.7,0.1,0.8l2.5,2.4c0.2,0.2,0.3,0.5,0.2,0.7c-0.3,0.9-0.2,1.8,0.3,2.5c0.1,0.2,0.4,0.4,0.8,0.5
		c1.7,0.5,2.2,1.7,1.7,3.5c-0.1,0.3-0.4,0.5-0.7,0.4c-2-0.3-2.8-1.6-2.4-3.7c0.1-0.3,0-0.7-0.3-0.8l-2-1.2c-0.2-0.1-0.4-0.4-0.4-0.7
		l-0.2-2.9C77.8,102.2,77.6,101.9,77.2,101.5z"/>
	<path class="st24" d="M34.5,91.5l3.2,0.7c0.1,0,0.2,0.2,0.2,0.3l0,0c0,0.1,0,0.3-0.2,0.3L27.8,93c-1.1-0.2-1.4-0.6-0.9-1
		c0.1-0.1,0.5-0.2,0.9-0.2L34.5,91.5z"/>
	<path class="st10" d="M77.2,112c-0.9,0.2-1.8,0.2-2.6,0c-0.3-0.1-0.6-0.3-0.7-0.6c-2.1-4.7-3.7-9.6-4.7-14.7l-0.6-4.6
		c2.5-1,3.2-0.2,2.4,2.5c-0.1,0.3,0,0.6,0.1,0.9c0.5,0.8,0.9,1.6,1,2.5c0.7,4.3,2.8,8.6,4.9,12.3c0.1,0.2,0.3,0.4,0.7,0.7
		C78.2,111.3,78,111.6,77.2,112z"/>
	<path class="st10" d="M39.6,91.9c4.1,0.5-2.8,8.2-3.7,9.3c-0.6,0.8-1,0.7-0.9-0.3l0.1-6.5c0-0.3,0.2-0.5,0.5-0.5
		c1.6,0,2.8-0.7,3.6-1.9C39.3,91.9,39.5,91.9,39.6,91.9z"/>
	<path class="st17" d="M83.8,100.7l-0.8,0.8c-1.6-2.5-2.7-5.4-3.4-8.8c-0.1-0.6,0-0.7,0.5-0.3C82.5,94.5,83.7,97.3,83.8,100.7z"/>
	<path class="st2" d="M83.7,93.3c0.1-0.5,0.4-0.9,0.8-1c0.3-0.1,0.6,0.1,0.8,0.4c0.3,0.6,0.1,1.1-0.7,1.3
		C83.7,94.4,83.4,94.1,83.7,93.3z"/>
	<path class="st9" d="M44.5,95.1L43,94.5c-0.3-0.1-0.6,0.1-0.7,0.4c-1.8,3.4-4,6.5-6.7,9.2c-0.3,0.3-0.5,0.3-0.6-0.1
		c0-0.2,0-0.4,0.2-0.7c2.7-3,4.9-6.2,6.8-9.8c0.1-0.3,0.4-0.4,0.7-0.2l0,0l4.9,2.6c0.2,0.1,0.3,0.5,0.2,0.7
		c-2.3,4.6-5.3,8.9-8.8,12.6c-0.3,0.3-0.6,0.4-0.8,0.3c-0.5-0.2-0.3-0.7,0-1c3.6-3.4,6.5-7.4,8.6-11.9c0.2-0.3,0.1-0.7,0-0.8
		c-0.1,0-0.2-0.1-0.3,0c-0.1,0-0.3,0.2-0.5,0.4c-0.4,0.5-0.7,0.3-0.9-0.6C44.9,95.4,44.7,95.1,44.5,95.1z"/>
	<path class="st9" d="M94,93.7l0.6-0.1c-0.5,1.7,0.2,2.5,2.1,2.4c0.4,0,0.7,0.1,0.8,0.3c0.3,0.5,0.1,0.9-0.6,1.3h-0.6
		c-0.5-0.7-1.3-1.3-2.4-1.8c-0.3-0.2-0.6-0.4-0.7-0.6C93.1,94.6,93.3,94.1,94,93.7z"/>
	<path class="st2" d="M27,94l0.5,0.1c0.7,0.7,0.4,21.9,0.5,24.7c0.1,0.3-0.4,13.3,0,13.1c0.8,1.3,1.8,2.3,3,3.1
		c0.3,0.2,0.6,0.1,0.8-0.1l3-2.6c0.2-0.2,0.3-0.5,0.3-0.8c-0.6-7.2-0.7-14.3-0.4-21.5c0-0.4,0.3-0.7,0.7-0.6c0.1,0,0.2,0,0.3,0.1
		l7.7,4.1c1.3,3.8-0.6,6.2,1.9,10.1c0.2,0.3,0.3,0.6,0.3,0.9v6.2l-7.5,11.8c-0.2,0.3-0.5,0.4-0.8,0.4L27,143c-0.3,0-0.5-0.2-0.5-0.5
		l0,0l-0.1-22.9c0.6-8.4,0.6-16.8,0-25.2L27,94z"/>
	<path class="st18" d="M27.5,94l1.2,0.2v24.5H28C27.9,116,28.2,94.8,27.5,94z"/>
	<path class="st2" d="M28.7,118.7V94.2c0.7-0.5,1.4-0.5,2-0.1c0.2,0.2,0.4,0.5,0.4,0.8c-0.1,2.2-0.1,4.5-0.2,6.7
		c0,2.5-1.4,7.6-0.6,9.7c1.1,2.8,1.4,5.6,0.9,8.6c-0.3,1.8-1.2,7.5,0.1,9.6c0.2,0.3,0.3,0.3,0.3-0.1c-0.1-1.7-0.2-3.3-0.2-5
		c0-3.8,1.5-7.2,0.3-11.5c-1.3-4.9-0.1-6.5,0-10.8c0-1-0.9-9.8,1.8-8c0.3,0.2,0.4,0.5,0.4,0.8l0.3,36.1c0,0.3-0.1,0.7-0.3,0.9
		c-2.9,4.1-5.5,0.7-5.5-2.6C28.5,125.9,28.6,122.3,28.7,118.7z"/>
	<path class="st18" d="M25.5,94.2h1c0.6,8.4,0.6,16.8,0,25.2l-0.9-0.5C24.9,110.7,24.9,102.5,25.5,94.2z"/>
	<path class="st21" d="M56,95c-0.5,4.4-2.1,8.4-5,11.8c-0.1-0.6,0-1.1,0.3-1.5c0.4-0.4,0.6-0.7,0.6-0.8L56,95z"/>
	<path class="st24" d="M91.7,95l5.1,5.5c0.1,0.1,0.2,0.3,0.1,0.4l0,0c-0.1,0.1-0.2,0.1-0.3,0.1c-2.2-1.4-4-3.3-5.3-5.5L91.7,95z"/>
	<path class="st15" d="M86.8,95.5c1.5,2.2,1.3,2.4-0.5,0.5L86.8,95.5z"/>
	<path class="st9" d="M40.3,101.2l-0.5-0.2l2.7-4.6c0.2-0.3,0.5-0.5,0.7-0.5c1.7,0-1,2.4-1.3,3.4C41.8,99.8,40.7,100.8,40.3,101.2z"
		/>
	<path class="st2" d="M51.2,99.7c-1.7,2-2.6,1.7-2.7-1c0-0.3,0.1-0.6,0.3-0.9c1.9-2,2.8-1.7,2.7,0.9C51.6,99.1,51.5,99.5,51.2,99.7z
		"/>
	<path class="st17" d="M69.2,96.7c1,5.1,2.6,10,4.7,14.7c0.1,0.3,0.4,0.5,0.7,0.6c0.8,0.2,1.7,0.2,2.6,0l1,0.2L79,113
		c-0.7,1-1.4,1.2-1.9,0.4c-0.2-0.3-0.5-0.4-0.7-0.4c-0.8,0.1-0.8,0.4,0,1c1,0.8,1.6,1.7,1.8,2.7c0.1,0.3,0.3,0.5,0.6,0.6
		c3.2,0.5,3.9-0.7,2.3-3.6h0.7c2.6,2.2-0.6,6.5-4.2,3.5c-0.6-2-1.8-3.5-3.8-4.2C71.1,107.7,69.5,102.4,69.2,96.7z"/>
	<path class="st22" d="M44.5,99c-1.4,0,0.2-4.3,0.5-0.6C44.9,98.8,44.7,99,44.5,99L44.5,99z"/>
	<path class="st24" d="M60.3,100.7c-1.4-1.4,0.6-4.9,2-2.6c0.1,0.2,0,0.5-0.2,0.7l0,0c-0.6,0.3-1,1-1.4,1.9
		C60.7,100.7,60.5,100.8,60.3,100.7C60.4,100.7,60.4,100.7,60.3,100.7z"/>
	<path class="st5" d="M65,102c-1,1.2-0.7,1.9,1,2.2c-0.5-0.1-0.7,0-0.7,0.4c0.1,0.4,0,0.7-0.1,0.8c-0.8,1.1-1.8,1.3-3,0.6v-1.2
		c0.3-0.5,0.3-0.7-0.2-0.8c0.7-0.8,0.6-1.5-0.2-2.2c0.6,0,0.8-0.3,0.7-0.7c-0.1-0.4-0.1-0.7,0.1-0.9c0.6-0.9,1.4-0.9,2.5-0.1
		c0.3,0.2,0.5,0.2,0.5-0.2c0.1-0.6-0.3-1.1-1.1-1.4c-0.3-0.1-0.3-0.3-0.1-0.4c1.9-1.3,2.9-0.7,2.7,1.8c0,0.3-0.2,0.5-0.5,0.5
		C65.6,100.6,65.1,101.1,65,102z"/>
	<path class="st10" d="M96.3,102.2c-1.6,1-2.3,2.6-2.2,4.7l-4.9,2c-0.3,0.1-0.4,0-0.4-0.3c0.4-1.6,2.5-8.2,2-9.3
		c-0.2-0.4-0.3-0.7-0.2-0.9c0.1-0.3,0.2-0.6,0.5-0.8c0.2-0.1,0.5-0.1,0.8,0.2L96.3,102.2z"/>
	<path class="st22" d="M96.4,97.7H97c1,0.1,1.9,0.6,2.5,1.2L99.2,99C97.2,100.2,96.3,99.7,96.4,97.7z"/>
	<path class="st22" d="M42.2,102H42c-0.1-0.6,0-1.9,0.7-1.7c0,0,0.1,0,0.1,0.1C43.5,100.9,43.3,101.4,42.2,102z"/>
	<path class="st14" d="M84.8,100.2l1,0.3l-0.3,0.7l-1.4,1.2l-1-1l0.8-0.8L84.8,100.2z"/>
	<path class="st18" d="M87.2,100.3l1.2-0.1C88.3,102.2,87.9,102.2,87.2,100.3z"/>
	<path class="st3" d="M103.9,101.2c-0.6,0.8-1.7,6-2.5,3.2l-1.1-2.8c-0.1-0.3,0-0.7,0.3-0.8c0,0,0,0,0.1,0c1.3-0.3,2.3-0.4,3.1-0.2
		c0.2,0.1,0.3,0.3,0.3,0.5C104,101.2,104,101.2,103.9,101.2z"/>
	<path class="st13" d="M57,100.7l-0.8,4.5c-0.1,0.9,0.4,1.3,1.5,1.3c0.6,0,1.1,0.4,1.1,1c0.1,2.5,0.5,3.2,1.1,2.3
		c0.4-0.6,1.1-0.9,1.8-0.8c2.3,0.3,3.4,1.2,3.3,2.7c-0.5,0.8-1.3,1.3-2.2,1.5l-1-0.8c-0.2-0.4-0.1-1.3,0.4-2.6
		c0.1-0.4,0-0.5-0.3-0.2c-1.4,0.8-1.6,2-0.8,3.4c-1.4,0.5-2.7,0.1-3.8-1.1c-0.2-0.2-0.2-0.5-0.1-0.8c0.5-0.9,0.4-1.3-0.2-1.5
		c-0.3,0-0.6,0.1-0.8,0.4c-0.8,0.9-1.7,1.2-2.9,0.7l0.2-0.4c1.3-0.2,1.6-0.6,0.9-1.3c-0.3-0.3-0.4-0.6-0.3-0.8
		c0.2-0.3,0.6-0.2,1.3,0.4c0.5,0.4,0.6,0.3,0.4-0.3c-0.6-1.6-1.5-1.7-2.5-0.3L57,100.7z"/>
	<path class="st22" d="M39.8,101l0.5,0.2c0,1.1-0.5,1.6-1.5,1.7c-0.2,0-0.4-0.3-0.4-0.5C38.6,101.8,39.1,101.3,39.8,101z"/>
	<path class="st17" d="M85.5,101.2l1.5,1c0.2,0.2,0.4,0.4,0.4,0.7l0.3,2.5c0,0.3-0.2,0.4-0.4,0.4c-0.5-0.1-0.7-0.5-0.5-1.1
		c0.1-0.3,0-0.6-0.2-0.7c-0.6-0.3-1.1-0.2-1.2,0.4c-0.1,0.3,0,0.6,0.3,0.8c0.8,0.6,0.9,0.9,0.3,1.1c-0.3,0.1-0.6-0.1-0.8-0.3
		c-0.7-1.1-1.1-2.3-1.2-3.5L85.5,101.2z"/>
	<path class="st24" d="M61.8,101.8c0.8,0.6,0.9,1.4,0.2,2.2C59,103.5,58.9,102.8,61.8,101.8z"/>
	<path class="st9" d="M42,102l0.2,0.1c-0.9,1.8-2.1,3.3-3.7,4.7c-0.3,0.3-0.4,0.2-0.5-0.2c0-0.6,0.3-1.1,1-1.3
		c0.3-0.1,0.5-0.4,0.6-0.6C40.1,103.4,40.9,102.6,42,102z"/>
	<path class="st24" d="M65,102c2.5,0.2,2.9,0.9,1,2.2C64.4,103.9,64,103.2,65,102z"/>
	<path class="st2" d="M48.5,102.9c0.2,2.1-0.6,3.3-2.3,3.5c-0.3,0-0.6-0.1-0.7-0.4c-0.6-2,0.1-3.3,2.2-3.7
		C48.1,102.3,48.4,102.5,48.5,102.9L48.5,102.9z"/>
	<path class="st3" d="M101.6,105.9c0.2,0.3,0.6,0.4,0.8,0.2c0.1-0.1,0.2-0.1,0.2-0.2c1.6-3.1,3.3-3.4,5.2-1.1
		c1.3,1.5,1.3,3.1,0.2,4.7l-5.8,8.6c-0.1,0.2-0.3,0.2-0.5,0.1l-0.1-0.1l-5.7-8.4c-0.9-1.4-1-2.8-0.3-4.2
		C97.4,102.3,99.3,102.4,101.6,105.9z"/>
	<path class="st9" d="M36.2,105.2c0.8-1.2,1.3-1.5,1.6-0.9c0.1,0.2,0,0.6-0.3,0.7c-0.8,0.6-1.3,1.3-1.5,2.1
		c-0.1,0.3-0.3,0.6-0.6,0.6c-0.7,0-0.4-1.1,0-1.4C35.7,105.9,35.9,105.5,36.2,105.2z"/>
	<path class="st22" d="M62.2,104.7v1.2c-1.1,0.7-2.1,0.8-3.2,0.4c-0.3-0.1-0.5-0.4-0.5-0.7c0-1.1,0.5-1.3,1.5-0.7
		c0.3,0.2,0.7,0.3,0.9,0.2L62.2,104.7z"/>
	<path class="st5" d="M65.4,108.7c-2-0.3-2-0.9-0.2-1.8c0.3-0.1,0.5-0.4,0.6-0.7c0.9-3.5,1.8,2.7,1.9,2.8c0.1,0.4,0.3,0.6,0.5,0.7
		c0.4,0.1,0.7,0,1.2-0.3c0.2-0.1,0.4-0.1,0.6,0c0,0,0,0,0,0.1c1.2,2.7-3.1,2.4-3.9-0.3C66,109,65.7,108.8,65.4,108.7z"/>
	<path class="st12" d="M53.5,110.3l-0.5-1.8l0.3-0.5c1.1-1.3,1.9-1.2,2.5,0.3c0.2,0.5,0.1,0.6-0.4,0.3c-0.7-0.6-1.2-0.7-1.3-0.4
		c-0.1,0.2,0,0.5,0.3,0.8C55.1,109.7,54.8,110.1,53.5,110.3z"/>
	<path class="st11" d="M36.4,107.9c2.6-2.1,0.6,1.4-0.1,0.7C36.1,108.5,36.1,108.2,36.4,107.9C36.3,108,36.4,107.9,36.4,107.9z"/>
	<path class="st2" d="M45.2,107.6c0.8,2.8-4.5,7-3,0.9c0.1-0.2,0.3-0.5,0.6-0.6l1.8-0.6C44.8,107.3,45.1,107.4,45.2,107.6
		L45.2,107.6z"/>
	<path class="st20" d="M51,108.2c-1,1.8-2.3,2-3.8,0.5C48.3,107.6,49.5,107.4,51,108.2z"/>
	<path class="st15" d="M51,108.2l0.8,0.7c-0.9,1.1-2,1.8-3.2,2.2c-2.1,2.2-1.8,2.3,0.8,0.3c1.3-0.3,2.2-1.1,2.8-2.2l1-0.7l0.5,1.8
		l-0.2,0.4c-2.9,0.7-4.9,2.3-6,4.8c-0.1,0.2,0,0.4,0.2,0.5h0.1c0.6,0.1,1.2,0.1,1.8-0.1c1.3,1,2.2,0.7,2.8-1
		c1.2,0.1,2.2,0.6,2.9,1.5c0.4,0.4,0.9,0.3,0.8-0.3c-0.4-1.3-1.2-2-2.4-2.3c-0.8-0.2-1.2,0.1-1.3,0.8c-0.4,0.6-0.9,0.8-1.5,0.5
		c0.6-0.9,1.3-1.5,2.3-1.9c0.3-0.1,0.6-0.1,0.9,0.1c2,1.4,2.1,2.4,4.8,2.8c0.3,0,0.6,0.2,0.8,0.4c1,1.5,0.7,2.5-1.1,3
		c-0.3,0.1-0.6,0-0.8-0.2c-1.1-1.1-1-1.6,0.4-1.6c0.4,0,0.4-0.1,0.1-0.3c-0.9-0.6-1.7-0.3-2.4,0.9c-0.1,0.3-0.1,0.6,0,0.9
		c0.1,0.2,1.3,2.8,0,2.2c-0.2-0.1-0.4-0.4-0.5-0.8c-0.2-0.9-0.6-1-1.2-0.3c-0.2,0.2-0.5,0.4-0.8,0.3c-1.3-0.4-2.2-1.2-2.7-2.5
		c-0.5-0.3-1.5-1.2-2.1-1c-1.1,0.4-0.8,0.8,1,1.3c0.1,3.6-4.2-3.2-2.8,2.5c-1.7-0.1-1.8,0.5-0.2,1.8c0.6,2.3,1.1,2.6,1.6,0.8
		l1.2-0.2c-0.3,1,0,1.5,0.7,1.5c0.2,0,0.4-0.3,0.4-0.5l-0.6-1.5c-0.2-1.1,0.1-1.9,0.9-2.3c0.3-0.2,0.4-0.1,0.2,0.2
		c-0.4,0.7-0.3,1.2,0.2,1.7c0.2,0.2,0.4,0.5,0.4,0.8v4.6c0,0.3-0.2,0.6-0.4,0.7c-0.5,0.3-4.3,1.1-3.2-0.3c0.2-0.1,0.5-0.2,0.9-0.1
		c0.6,0.1,1.2-0.1,1.7-0.5c0.1-0.1,0.1-0.3,0-0.5l-0.1-0.1c-2.8-1.1-3.9-0.3-3.4,2.4c0.1,0.3,0.3,0.5,0.6,0.5
		c4.2,0.2,8.5,0.3,12.7,0.3c1.5,0,2.5,0.3,2.5-1.8c0.1,1.3,0.5,1.8,1.4,1.5c0.9,0.4,1.7,0.3,2.5-0.3h1.8l1.5-0.2
		c2.4,0.1,2.9-0.4,1.4-1.5c-0.3-0.2-0.5-0.5-0.6-0.7c-1.4-3.1-3.3-5.7-5.8-8L62,115c-0.2-0.2-0.2-0.6,0-0.7l1.1-1.1
		c1-0.2,1.7-0.7,2.2-1.5l1.2,0.2c-0.1,1.6,0.6,2.1,2,1.5l1,0.3c1.5,2.7,3.4,5,5.8,7l-0.5,2c-1.6-3.2-3.9-5.7-6.8-7.5
		c-0.5-0.3-0.5-0.2-0.3,0.3c0.5,0.8,1,1.3,1.6,1.6c0.3,0.2,0.6,0.4,0.7,0.6c1.1,2.1,2.4,4.1,4.1,5.8c0.2,2.6-1.7,4.5-0.7,6.7l-1,0.7
		l-1.8,0.3c-0.9-0.1-1.8-0.1-2.6,0c-1.6,0.1-3.2,1.2-5.2,0.7c-2.4-0.6-4-0.4-6.3-0.1c-2.2,0.3-4.3-0.6-6.7,0l-2.2-0.6
		c-0.4-0.5-0.9-0.6-1.5-0.5v-6.2c0-0.3-0.1-0.6-0.3-0.9c-2.6-3.9-0.6-6.3-1.9-10.1h0.5c2,2,2.1,1.9,0.5-0.5l0.3-0.5
		c1.6-0.1,3.6-2.9,1.5-2.5l0.9-1.2C48.7,110.3,50,110.1,51,108.2z M64.4,115.6c0.5-0.3,0.7-0.7,0.8-1c0-0.2-0.1-0.4-0.4-0.5
		c-1.2,0-1.7,0.4-0.9,1.5C64.1,115.7,64.3,115.7,64.4,115.6z M45.1,116.3c0.1,0.8,0.4,0.9,0.9,0.3c0.1-0.1,0.1-0.3-0.1-0.4
		c0,0,0,0-0.1,0l-0.3-0.1C45.2,115.9,45,116,45.1,116.3z M73,126.7c0.6-2.7-4.8-8.3-6.8-10.2c-0.2-0.2-0.4-0.2-0.6-0.2
		c-0.5,0.1-0.4,0.3,0.1,0.6c0.2,0.1,0.3,0.3,0.3,0.6c0,0.5,5.4,7.6,6.1,9.4C72.5,127.7,72.7,127.7,73,126.7z M54.2,117.5
		c-0.8-0.8-1.6-0.9-2.3-0.4c-0.2,0.2-0.3,0.5-0.2,0.8C52.3,119.5,53.2,119.4,54.2,117.5C54.2,117.6,54.2,117.5,54.2,117.5z"/>
	<path class="st14" d="M51.8,109l0.3,0.3c-0.6,1.2-1.5,1.9-2.8,2.2l-0.8-0.3C49.8,110.8,50.9,110,51.8,109z"/>
	<path class="st2" d="M61.1,113c0.3-0.3,0.5-0.5,0.7-0.6l1,0.8l-1.1,1.1c-0.2,0.2-0.2,0.5,0,0.7l3.1,4.2l-0.4,1l-1.3,8
		c-1.9-1.1-5.8,0-8.9-0.5c-0.2,0-0.4,0-0.5,0.2c-0.1,0.1-0.1,0.2,0,0.3c0.1,0.2,0.4,0.4,0.8,0.4l8.3-0.2c-0.1,2-1.1,1.8-2.5,1.8
		c-4.2,0-8.5-0.1-12.7-0.3c-0.3,0-0.6-0.2-0.6-0.5c-0.6-2.7,0.5-3.5,3.4-2.4c0.2,0.1,0.3,0.3,0.2,0.4c0,0,0,0.1-0.1,0.1
		c-0.5,0.4-1,0.6-1.7,0.5c-0.4-0.1-0.8,0-0.9,0.1c-0.3,0.3-0.2,0.8,0.3,0.8c1,0.1,2-0.1,2.9-0.5c0.3-0.1,0.4-0.4,0.4-0.7v-4.6
		c0-0.3-0.1-0.6-0.4-0.8c-0.5-0.5-0.6-1.1-0.2-1.7c0.2-0.3,0.1-0.4-0.2-0.2c-0.8,0.4-1.1,1.2-0.9,2.3l-0.5,0.5l-1.2,0.2l-1.3-1.2
		V121c-1.5-5.7,2.8,1.1,2.8-2.5l1-0.3c0.5,1.3,1.5,2.1,2.7,2.5c0.3,0.1,0.6,0,0.8-0.3c0.6-0.7,1-0.6,1.2,0.3
		c0.1,0.4,0.3,0.7,0.5,0.8c1.3,0.6,0-2,0-2.2c-0.1-0.3-0.1-0.6,0-0.9c0.6-1.2,1.4-1.5,2.4-0.9c1.1,0.7-2.8-0.4-0.5,1.9
		c0.2,0.2,0.5,0.3,0.8,0.2c1.8-0.5,2.2-1.5,1.1-3c-0.2-0.2-0.5-0.4-0.8-0.4c-2.7-0.4-2.8-1.3-4.8-2.8c-0.3-0.2-0.6-0.2-0.9-0.1
		c-1,0.4-1.8,1-2.3,1.9l-1.2,0.8c-0.6,0.2-1.2,0.2-1.8,0.1c-0.2,0-0.4-0.2-0.3-0.5v-0.1c1.2-2.6,3.2-4.2,6-4.8
		c1.2,0.5,2.1,0.2,2.9-0.7c0.2-0.3,0.5-0.4,0.8-0.4c0.7,0.1,0.7,0.6,0.2,1.5c-0.2,0.3-0.1,0.6,0.1,0.8
		C58.4,113.1,59.6,113.5,61.1,113z M56.3,122.5c-2.9,3.1-2.2,4.6,2.4,4.3c1.3-0.1,4.8-0.9,1.3-2.6c-0.6-0.6-1.2-1-2-1.3
		c-0.3-0.1-0.4-0.4-0.4-0.7C57.7,121,57.3,121.1,56.3,122.5z"/>
	<path class="st14" d="M61.8,112.5c-0.2,0.1-0.4,0.3-0.7,0.6c-0.8-1.5-0.6-2.6,0.8-3.4c0.3-0.2,0.5-0.1,0.3,0.2
		C61.6,111.1,61.5,112,61.8,112.5z"/>
	<path class="st20" d="M46.3,110c2.1-0.4,0.1,2.4-1.5,2.5L46.3,110z"/>
	<path class="st12" d="M48.5,111.2l0.8,0.3C46.7,113.5,46.4,113.4,48.5,111.2z"/>
	<path class="st14" d="M66.3,112c1,0.1,1.6,0.6,2,1.5C66.9,114.1,66.2,113.6,66.3,112z"/>
	<path class="st14" d="M73.2,112.8l0.5-0.1c1.9,0.8,3.2,2.2,3.8,4.2L77,117l-3.8-3.8V112.8z"/>
	<path class="st20" d="M44.5,113c1.6,2.4,1.4,2.6-0.5,0.5L44.5,113z"/>
	<path class="st2" d="M79,113l2,0.6c1.7,2.9,0.9,4.1-2.3,3.6c-0.3,0-0.5-0.3-0.6-0.6c-0.2-1-0.8-1.9-1.8-2.7c-0.7-0.6-0.7-0.9,0-1
		c0.3,0,0.5,0.1,0.7,0.4C77.6,114.1,78.3,114,79,113z M80.6,115.4l-1.4-1.1c-0.1-0.1-0.3-0.1-0.4,0v0.1
		C78.6,116.2,79.2,116.5,80.6,115.4C80.7,115.6,80.7,115.5,80.6,115.4L80.6,115.4z"/>
	<path class="st15" d="M71,113.3c0.1,0.1,5.6,7.3,5.1,4.2c0-0.3-0.2-0.5-0.5-0.8l-2.8-2.9l0.5-0.5L77,117l-1.8,3.5l-0.2-1
		c-0.1-0.3-0.2-0.6-0.5-0.9l-4.6-4.9L71,113.3z"/>
	<path class="st12" d="M71,113.3l1.8,0.5l2.8,2.9c0.3,0.3,0.4,0.6,0.5,0.8C76.6,120.6,71.1,113.4,71,113.3z"/>
	<path class="st12" d="M69.2,113.8H70l4.6,4.9c0.2,0.2,0.4,0.5,0.5,0.9l0.2,1l-0.2,0.2C72.7,118.8,70.7,116.5,69.2,113.8z"/>
	<path class="st19" d="M52,115l-0.1-0.2c0.1-0.7,0.5-0.9,1.3-0.8c1.2,0.3,2,1.1,2.4,2.3c0.2,0.5-0.5,0.7-0.8,0.3
		C54.2,115.6,53.3,115.1,52,115z"/>
	<path class="st18" d="M64.4,115.6c-0.1,0.1-0.4,0.1-0.5-0.1c-0.7-1-0.5-1.4,0.8-1.5c0.4,0,0.5,0.2,0.5,0.5
		C65.2,114.9,64.9,115.2,64.4,115.6z"/>
	<path class="st16" d="M80.6,115.4c0.1,0,0.1,0.1,0,0.2l0,0c-1.5,1-2.1,0.6-1.8-1.1c0-0.1,0.4-0.3,0.4-0.1L80.6,115.4z"/>
	<path class="st20" d="M52,114.7v0.3c-0.5,1.7-1.5,2-2.8,1l1.2-0.8C51.1,115.5,51.6,115.4,52,114.7z"/>
	<path class="st14" d="M74.5,122.7l-0.7,0.8c-1.7-1.7-3-3.6-4.1-5.8c-0.1-0.3-0.4-0.5-0.7-0.6c-0.6-0.3-1.1-0.9-1.6-1.6
		c-0.3-0.5-0.2-0.5,0.3-0.3C70.6,117.1,72.9,119.6,74.5,122.7z"/>
	<path class="st14" d="M45.5,116l0.3,0.1c0.2,0.1,0.2,0.2,0.2,0.4c0,0,0,0,0,0.1c-0.5,0.6-0.8,0.5-0.9-0.3
		C45,116,45.2,115.9,45.5,116z"/>
	<path class="st14" d="M66.2,116.5c1.9,1.9,7.4,7.5,6.8,10.2c-0.2,1-0.5,1-0.9,0.1c-0.7-1.8-6.1-8.9-6.1-9.4c0-0.2-0.1-0.5-0.3-0.6
		c-0.5-0.3-0.5-0.4-0.1-0.6C65.8,116.3,66,116.4,66.2,116.5z"/>
	<path class="st2" d="M54.2,117.5L54.2,117.5c-1.1,1.9-2,2-2.6,0.4c-0.1-0.3,0-0.6,0.2-0.8C52.5,116.6,53.3,116.7,54.2,117.5z"/>
	<path class="st18" d="M50.2,118.2l-1,0.3c-1.8-0.5-2.1-0.9-1-1.3c0.3-0.1,0.6,0,0.9,0.2L50.2,118.2z"/>
	<path class="st25" d="M25.5,119l0.9,0.5l0.1,22.9c0,0.3,0.2,0.5,0.5,0.5h10.5c0.3,0,0.6-0.2,0.8-0.4l7.5-11.8
		c0.6-0.1,1.1,0,1.5,0.5c-0.5,0-0.8,0.2-0.9,0.5c-0.1,0.2,0.1,0.4,0.3,0.4c1.8-0.1,3.3,0.6,4.3,2.1l0.5,1l0.7,0.2
		c1.5,1.3,1.4,2.3-0.2,3c-0.3,0.1-0.6,0.4-0.7,0.6c-1,1.6-1.7,1.5-2.1-0.5c-0.1-0.3-0.2-0.6-0.4-0.9c-0.9-1.1-0.8-2,0.5-2.6
		c0.3-0.1,0.5-0.3,0.5-0.5c0.1-0.2,0.1-0.3-0.1-0.4c-0.1-0.1-0.5-0.1-0.9,0c-0.8,0.2-1.5,0-2-0.7c-0.2-0.3-0.6-0.4-0.8-0.2
		c-0.4,0.3-0.5,1-0.4,2.2c0,0.4-0.2,0.9-0.6,1c-2.3,1.1-4.1,2.9-5.4,5.6c-0.1,0.2,0,0.3,0.1,0.4c0,0,38.6,0,38.6,0
		c0.2,0,0.4-0.3,0.4-0.5c-1-2.6-2.7-4.6-5.3-5.9c-0.2-0.1-0.3-0.4-0.2-0.6l0,0c0.7-1.1,0.6-1.7-0.3-2c-0.2-0.1-0.5,0.1-0.7,0.3
		c-0.3,0.6-0.7,0.7-1.2,0.6c-0.9-0.5-2.4-0.4-1.7,0.5c0.1,0.2,0.4,0.3,0.8,0.4c0.6,0.2,1.2,0.9,0.9,1.5l-1.6,3
		c-0.1,0.2-0.4,0.3-0.6,0.1c0,0-0.1,0-0.1-0.1l-2.6-2.4c-0.2-0.2-0.3-0.5-0.1-0.8c0.5-0.8,1.2-1.5,2-1.9c0.3-0.2,0.5-0.4,0.6-0.7
		c0.6-1.4,1.6-2,3.1-2c0.4,0,0.7-0.1,0.9-0.3c0.3-0.4,0.1-0.7-0.5-0.9l1-0.7l7,12.3c0.2,0.3,0.4,0.4,0.8,0.4c1.3,0,15-0.4,14.7,0.7
		c-0.1,0.3-0.4,0.4-0.8,0.4c-20.1-0.3-40.4-0.8-60.4,0c-2.7,0.1-5.5,0-8.2-0.3c-0.3,0-0.5-0.3-0.5-0.6L25.5,119z M50.9,137.2
		c1-2.6-1.9-0.3-0.7,0.4C50.4,137.7,50.7,137.6,50.9,137.2C50.9,137.3,50.9,137.2,50.9,137.2z M68.2,136.5c-0.9,3.2,2.1,0.2,0.6-0.4
		C68.6,136,68.3,136.2,68.2,136.5L68.2,136.5z"/>
	<path class="st14" d="M69.8,129.5c-0.9-2.8-2.3-5.2-4.2-7.4c-0.2-0.2-0.3-0.5-0.3-0.9c-0.1-0.5-0.4-0.9-0.9-1l0.4-1
		c2.5,2.3,4.5,4.9,5.8,8c0.1,0.3,0.3,0.5,0.6,0.7C72.7,129.1,72.2,129.6,69.8,129.5z"/>
	<path class="st13" d="M64.3,120.2c0.5,0.1,0.9,0.5,0.9,1c0.1,0.4,0.2,0.7,0.3,0.9c1.9,2.1,3.3,4.6,4.2,7.4l-1.5,0.2
		c-0.5-1.6-1.4-2.9-2.7-4c-1.3-3.4-1.6-3.2-1,0.8c1,0.9,1.6,1.9,2,3.2c-0.8,0.6-1.7,0.6-2.5,0.3l-1-1.8L64.3,120.2z"/>
	<path class="st18" d="M46.5,121v1.2l-0.2,0.5C44.6,121.5,44.7,120.9,46.5,121z"/>
	<path class="st20" d="M60,124.2c-2.8,2.8-1.8-1.6-3.7-1.7c1-1.4,1.4-1.5,1.3-0.3c0,0.3,0.2,0.5,0.4,0.7
		C58.8,123.2,59.4,123.6,60,124.2z"/>
	<path class="st14" d="M46.5,122.2l1.3,1.2c-0.4,1.8-1,1.6-1.6-0.8L46.5,122.2z"/>
	<path class="st17" d="M56.3,122.5c1.9,0.1,1,4.6,3.7,1.7c3.5,1.7-0.1,2.5-1.3,2.6C54.1,127.1,53.3,125.6,56.3,122.5z"/>
	<path class="st14" d="M49.5,122.7l0.6,1.5c0.1,0.2,0,0.4-0.2,0.5c-0.8,0-1.1-0.4-0.8-1.5L49.5,122.7z"/>
	<path class="st12" d="M65.5,125.7l-1,0.8C64,122.6,64.3,122.3,65.5,125.7z"/>
	<path class="st3" d="M103.4,135.3c2.1-2.4,2.8-5.2,1.9-8.5c-0.1-0.3-0.3-0.5-0.7-0.5c-1.2-0.1-1.6-0.9-1.1-2.4
		c0.1-0.3,0.4-0.5,0.7-0.5l5.9,0.1c0.3,0,0.6,0.2,0.7,0.5c0.6,1.7,0,2.5-1.8,2.4c-0.3,0-0.5,0.2-0.5,0.4l0,0v20.5
		c0,0.3,0.2,0.5,0.5,0.5c2.1,0,2.6,0.9,1.5,2.5c-0.2,0.3-0.5,0.4-0.8,0.4l-5.5-0.1c-0.3,0-0.6-0.2-0.7-0.4c-0.6-1.6-0.2-2.3,1.3-2.4
		c0.3,0,0.5-0.2,0.5-0.5l0.1-9c0-0.7-0.2-0.8-0.6-0.2l-5.5,9c-0.2,0.3-0.1,0.4,0.2,0.4c1.7,0,2.4,0.9,1.9,2.5
		c-0.1,0.3-0.4,0.5-0.7,0.5H94c-0.3,0-0.6-0.2-0.7-0.5c-0.6-1.7-0.1-2.4,1.6-2.3c0.3,0,0.6-0.1,0.8-0.4l4.8-7.9
		c0.2-0.3,0.2-0.6,0-0.9l-5-12.1c-0.1-0.3-0.4-0.4-0.7-0.4c-1.6,0.1-2.1-0.7-1.6-2.4c0.1-0.3,0.4-0.5,0.7-0.5h6.6
		c0.3,0,0.6,0.2,0.7,0.4c0.7,1.7,0.1,2.5-1.8,2.4c-0.3,0-0.3,0.2-0.3,0.4l3.5,8.4c0.1,0.2,0.2,0.2,0.4,0.2
		C103.3,135.4,103.4,135.4,103.4,135.3z"/>
	<path class="st14" d="M65.5,125.7c1.3,1,2.2,2.4,2.7,4h-1.8c-0.3-1.3-1-2.3-2-3.2L65.5,125.7z"/>
	<path class="st4" d="M63,128.2l1,1.8c-0.9,0.3-1.3-0.2-1.4-1.5l-8.3,0.2c-0.4,0-0.7-0.1-0.8-0.4c-0.1-0.1,0-0.2,0-0.3
		c0.1-0.2,0.3-0.2,0.5-0.2C57.2,128.2,61,127.2,63,128.2z"/>
	<path class="st5" d="M72,131c0.7,0.2,0.8,0.5,0.5,0.9c-0.2,0.2-0.5,0.3-0.9,0.3c-1.5,0-2.5,0.6-3.1,2c-0.1,0.3-0.4,0.5-0.6,0.7
		c-0.9,0.5-1.5,1.1-2,1.9c-0.2,0.3-0.1,0.6,0.1,0.8l2.6,2.4c0.2,0.2,0.5,0.2,0.6,0c0,0,0-0.1,0.1-0.1l1.6-3c0.4-0.6-0.3-1.4-0.9-1.5
		c-0.4-0.1-0.7-0.3-0.8-0.4c-0.7-0.9,1-1,1.7-0.5c0.5,0.2,0.9,0,1.2-0.6c0.2-0.3,0.4-0.4,0.7-0.3c1,0.3,1.1,0.9,0.3,2
		c-0.1,0.2-0.1,0.5,0.1,0.6l0,0c2.5,1.4,4.3,3.4,5.3,5.9c0.1,0.2,0,0.4-0.2,0.5c0,0-38.6,0-38.6,0c-0.2,0-0.3-0.2-0.3-0.4
		c1.3-2.7,3.2-4.5,5.4-5.6c0.4-0.2,0.6-0.6,0.6-1c-0.1-1.1,0-1.8,0.4-2.2c0.2-0.1,0.5,0,0.8,0.2c0.5,0.7,1.2,0.9,2,0.7
		c0.6-0.1,1-0.2,1,0.4c-0.1,0.2-0.2,0.3-0.5,0.5c-1.3,0.6-1.5,1.5-0.5,2.6c0.2,0.3,0.4,0.6,0.4,0.9c0.4,2,1.1,2.1,2.1,0.5
		c0.2-0.3,0.4-0.5,0.7-0.6c1.6-0.7,1.7-1.7,0.2-3c0.3-0.5,0.8-0.7,1.3-0.8c0.2,0,0.6,0.1,0.8,0.4c1.3,1.2,5.5-1.6,2.7,1.8
		c-0.2,0.2-0.2,0.6-0.1,0.8l2.2,3.1c0.5,0.7,0.9,0.6,1.2-0.2c0.3-0.9,0.8-1.7,1.5-2.3c0.3-0.2,0.4-0.5,0.4-0.8
		c-0.1-0.6-0.3-1.1-0.8-1.4c-0.3-0.3-0.5-0.6-0.4-0.8c0.3-0.8,1.8,0.2,2.3,0.4c0.3,0.1,0.6,0,0.8-0.2c0.6-0.6,1.3-0.8,2.2-0.6
		c0.4,0.1,0.7,0,0.6-0.3c0.1-1.4-7.1-2.6-7.2,3.4c0,0.2-0.2,0.4-0.3,0.4l0,0c-0.6-0.1,1-6.8-7.1-4.4c0-0.3,0-0.7,0.4-0.8
		c2.4-1.3,4.5-0.9,6.3,1.1c0.2,0.2,0.5,0.3,0.8,0.2l1.9-1.2c0.3-0.2,0.6-0.3,0.9-0.3c1.6-0.1,3.1,0.1,4.6,0.7c0.3,0.1,0.6,0,0.8-0.2
		l2.4-2.1L72,131z"/>
	<path class="st8" d="M47.2,131.2l2.2,0.6l1.7,2l-0.2,0.5c-1-1.4-2.4-2.1-4.1-2.1c-0.3,0-0.6-0.1-0.5-0.4
		C46.5,131.4,46.8,131.2,47.2,131.2z"/>
	<path class="st10" d="M70.2,131.3l-2.4,2.1c-0.2,0.2-0.5,0.3-0.8,0.2c-1.4-0.5-3-0.8-4.6-0.7c-0.3,0-0.6,0.1-0.9,0.3l-1.9,1.2
		c-0.2,0.1-0.6,0.1-0.8-0.2c-1.8-2-3.9-2.4-6.3-1.1c-0.4,0.2-0.4,0.4-0.4,0.8l-1-0.2l-1.7-2c2.4-0.6,4.4,0.3,6.7,0
		c2.2-0.3,3.9-0.4,6.3,0.1c2,0.5,3.6-0.6,5.2-0.7C68.5,131.2,69.4,131.2,70.2,131.3z"/>
	<path class="st7" d="M52.2,135.5l-0.7-0.2l0.8-1.3c8.1-2.3,6.5,4.3,7.1,4.4c0.2,0,0.3-0.1,0.4-0.4c0,0,0,0,0-0.1
		c0.2-6.1,7.3-4.9,7.2-3.4c0,0.2-0.3,0.4-0.5,0.3h-0.1c-0.8-0.2-1.6-0.1-2.2,0.6c-0.2,0.2-0.5,0.3-0.8,0.2c-0.5-0.2-1.9-1.2-2.3-0.4
		c-0.1,0.2,0.1,0.5,0.4,0.8c0.4,0.4,0.7,0.9,0.8,1.4c0,0.3-0.1,0.6-0.4,0.8c-0.7,0.6-1.2,1.4-1.5,2.3c-0.3,0.9-0.6,0.9-1.2,0.2
		l-2.2-3.1c-0.2-0.2-0.1-0.6,0.1-0.8c2.9-3.4-1.3-0.6-2.7-1.8c-0.3-0.3-0.6-0.4-0.8-0.4C53,134.8,52.5,135,52.2,135.5z"/>
	<path class="st24" d="M51.2,133.7l1,0.2l-0.8,1.3l-0.5-1L51.2,133.7z"/>
	<path class="st22" d="M50.2,137.6c-1.3-0.7,1.6-3,0.7-0.4C50.8,137.5,50.5,137.7,50.2,137.6C50.3,137.6,50.2,137.6,50.2,137.6z"/>
	<path class="st9" d="M68.8,136.1c1.4,0.6-1.6,3.7-0.6,0.4C68.2,136.2,68.5,136,68.8,136.1L68.8,136.1z"/>
</g>
</svg>
