<?xml version="1.0" encoding="utf-8"?>
<!-- Generator: Adobe Illustrator 27.0.1, SVG Export Plug-In . SVG Version: 6.00 Build 0)  -->
<svg version="1.1" id="Слой_1" xmlns="http://www.w3.org/2000/svg" xmlns:xlink="http://www.w3.org/1999/xlink" x="0px" y="0px"
	 viewBox="0 0 128 168" style="enable-background:new 0 0 128 168;" xml:space="preserve">
<style type="text/css">
	.st0{fill:#D8D8D8;}
	.st1{fill:#AAAAAA;}
	.st2{fill:#FFFFFF;}
	.st3{fill:#2D261B;}
	.st4{fill:#2D2C56;}
	.st5{fill:#222220;}
	.st6{fill:#D8CA34;}
	.st7{fill:#DECF33;}
	.st8{fill:#B4171D;}
	.st9{fill:#9799B3;}
	.st10{fill:#F2F4F6;fill-opacity:0.973;}
	.st11{fill:#494F76;}
	.st12{fill:#BBB4C7;}
	.st13{fill:#2E3166;}
	.st14{fill:#8C8BA9;}
	.st15{fill:#888327;}
	.st16{fill:#C2B52C;}
	.st17{fill:#F1DD38;}
	.st18{fill:#F4F04F;}
	.st19{fill:#636326;}
	.st20{fill:#D0C231;}
	.st21{fill:#A4A03E;}
	.st22{fill:#332B26;}
	.st23{fill:#B21018;}
	.st24{fill:#3B381E;}
	.st25{fill:#7E1719;}
	.st26{fill:#9E1318;}
</style>
<g>
	<path class="st0" d="M107.5,161.6H19.7c-6.9,0-12.4-5.6-12.4-12.4V18.7c0-6.9,5.6-12.4,12.4-12.4h87.8c6.9,0,12.4,5.6,12.4,12.4
		v130.5C120,156.1,114.4,161.6,107.5,161.6z"/>
	<path class="st1" d="M106.5,157.8H20.7c-5.5,0-9.9-4.4-9.9-9.9V19.8c0-5.5,4.4-9.9,9.9-9.9h85.8c5.5,0,9.9,4.4,9.9,9.9v128.1
		C116.4,153.3,112,157.8,106.5,157.8z"/>
	<path class="st2" d="M106.2,154.7H21c-4.4,0-8-3.6-8-8V20.9c0-4.4,3.6-8,8-8h85.2c4.4,0,8,3.6,8,8v125.9
		C114.2,151.2,110.6,154.7,106.2,154.7z"/>
</g>
<g>
	<path class="st3" d="M18.7,32.2C18.8,28.5,18,22.9,20,20c2.4-3.6,8.9-3.5,11.2,0.2c2.2,3.5,1.1,15.7,1,20.2c0,0.3,0.2,0.5,0.5,0.5
		c1.8,0.1,2.4,1,1.7,3c-0.1,0.3-0.4,0.5-0.7,0.5c-1.2,0-2.3-0.2-3.3-0.8c-0.3-0.1-0.6-0.1-0.8,0c-5.4,3.5-11-0.6-10.9-6.5
		c0-0.8-0.4-0.8-1-1c-0.4-0.1-0.6-0.3-0.7-0.5c-0.6-1.6-0.2-2.5,1.2-2.7C18.5,32.7,18.7,32.5,18.7,32.2z M25.9,20.9
		c-5.1-0.8-3.7,8.4-3.6,11.2c0,0.3,0.2,0.6,0.5,0.7c2.1,0.9,3.8,2.2,5.1,4c0.3,0.3,0.9,0.2,0.9-0.2c0,0,0-12.4,0-12.4
		C28.8,22.3,27.8,21.2,25.9,20.9z M22.4,36.6c-0.7,2.6,2.5,6.3,4.4,4.1c0.2-0.2,0.2-0.6,0-0.8L23,36.4c-0.1-0.1-0.3-0.1-0.5,0
		C22.4,36.5,22.4,36.6,22.4,36.6z"/>
	<path class="st2" d="M25.9,20.9c1.9,0.3,2.9,1.4,2.9,3.3v12.4c0,0.4-0.6,0.5-0.9,0.2c-1.3-1.8-3-3.2-5.1-4
		c-0.3-0.1-0.5-0.4-0.5-0.7C22.2,29.3,20.8,20.1,25.9,20.9z"/>
	<path class="st4" d="M101.5,99c0.7-0.9,0.7-1.6,0.1-2.3c-0.2-0.2-0.3-0.5-0.2-0.8c0.2-0.7,0-1.3-0.7-1.6l-0.2-1.4l0.4-0.3
		c0.2-0.2,0.4-0.5,0.4-0.8l0.2-5.2c-0.1-0.3-0.1-0.3-0.4-0.3l0.2-1.2c0.4-0.5,0.3-0.8-0.2-1.1c1.3-1.7,0.3-17.9,0.2-21.2l0.2-37.2
		c0-0.3-0.2-0.5-0.5-0.5c0,0-13,0.2-13,0.2c0,0-1,0-1,0l-2,0.2h-1.5l-1.3-0.2l-2.8,0.2h-0.7l-2.2-0.3c-1.7-1.1-3.5-1.1-5.3,0h-2.5
		c-1-0.5-1.6-0.3-1.9,0.7c-0.7,2.1-1.7,2.6-2.9,1.6c-0.6-0.6-1.2,0.1-0.7,0.7l0,0c0.9,0.9,1.1,2,0.7,3.2c-0.1,0.3-0.3,0.5-0.7,0.6
		c-2.2,1-0.2,3.6-2.7,4l-0.2-1.5c0.7-0.5,1-1.2,0.8-2.1c-0.1-0.2,0.1-0.5,0.3-0.5c1.4-0.1,2.8-2,1-1.6c-1.6,0.4-2.2-0.1-1.7-1.5
		c0.1-0.3,0.1-0.6-0.1-0.8l-0.7-1c-0.1-0.2-0.1-0.6,0-0.9c0.9-1.9-7-1-8-0.8l-0.8,0.5l-0.3-0.4c-0.2-0.2-0.4-0.4-0.7-0.4
		c-4.8,0-9.6,0-14.4,0c-1.5,0-1.3-1.1,0-1.1c22.1,0.2,44.1,0.2,66.2,0c0.3,0,0.5,0.2,0.5,0.5l0,0v73.7c0,0.4-0.2,0.7-0.5,0.7
		L101.5,99z"/>
	<path class="st5" d="M76.5,25.2l0.5,1.2L76.7,27c-0.7,0.4-1.2,0.9-1.4,1.8L74.7,30l-0.5,1.7c-0.6,0.1-1,0.3-1.1,0.6
		c-0.1,0.2,0,0.4,0.3,0.5h0.1c2.9,0.6,2.7,0.9-0.6,1c-0.3,0-0.6,0.2-0.8,0.5L67.4,42c-0.2,0.3-0.2,0.6,0,0.8c3.3,4.8,9,10,15.3,6.8
		c2.9,1.2,5,4.5,8.2,4.8c0.4,1.3,1.2,2.3,2.6,3l-0.3,0.8L92,58c-1-1.1-1.8-1-2.5,0.5L88,57.7c0.2-0.5,0.5-0.8,0.9-1
		c0.3-0.1,0.5-0.4,0.6-0.6c0.1-1-0.3-1.4-1.3-1.3c-0.3,0-0.6,0.3-0.7,0.6l-0.9,2.9l-0.2,1l-3.2,11c-0.1,0.3,0,0.6,0.2,0.8
		c1.6,1.4,2,1.1,1.3-0.8l0.6-0.3h1.2l-0.8,5.2c-0.5,0-0.8-0.5-0.9-1.6c-1.4,1-2.2,2.4-2.6,4l-1.2,1c-0.6,0-0.9-0.4-0.8-1l0.7-1.5
		c1.2-0.8,1.2-1.3,0-1.3l-1-2.2c0.8-1.5,0.4-2.7-1.2-3.5l-1-0.7l-9.5-8.3l-0.5-0.5c-2.2-1.9-4.4-3.9-6.6-5.8c-1.1-1-2.1-0.8-2.6,0.7
		s-0.1,1.8,1.1,1.1c0.2-0.3,2.4-0.7,1.6-0.1c-0.7,0.5-1.1,1.1-1.4,1.8l-0.4,1.2c-2-1.5-3.8-3.7-6.2-4.5l-0.5-0.5l6-7.4
		c0.1-0.1,0.1-0.4-0.1-0.5c0,0-0.1,0-0.1-0.1L51.8,43c-0.3-0.1-0.4-0.4-0.3-0.7c1.5-5.7,1.4-11.3-0.3-16.8L52,25
		c1.5,5.6,1.6,11.3,0.4,17c-0.1,0.3,0.1,0.6,0.4,0.7l2.4,0.7c1,0.3,1.2,0,0.6-1c-0.9-1.5-1-2.4-0.2-2.7c2.6,0.1,2.7-0.2,0.2-0.9
		c-0.8-0.4-1-0.9-0.7-1.6c0.1-0.3,0.1-0.6-0.1-0.8c-1.7-2.2-1.1-3.1,1.9-2.7c0.3,0,0.6-0.1,0.8-0.3c1.1-1.1,1.9-0.8,2.4,0.9l0.2,1.5
		c-0.5,0.6-1.1,0.6-1.7,0.3c-0.3-0.1-1.5-0.3-0.9,0.4c1.9,2,1.6,3.5-0.9,4.5c-0.3,0.1-0.5,0.4-0.5,0.7c0.1,1.1,0.5,2,1.3,2.6
		c0.8,1.1,1.5,1,2.4-0.2c5.2-7.9,8.9-14.2,11.2-18.8C73,24.1,74.8,24.1,76.5,25.2z M68.5,49l1-0.2c0.5,0.3,1,0.4,1.6,0.3
		c0.2-0.1,0.4-0.4,0.3-0.6c0,0,0,0,0-0.1c-0.4-0.9-1.1-1.5-2.1-1.8h-0.4L67,43.9c-0.1-0.2-0.3-0.2-0.5-0.1l-0.1,0.1l-2,3.4
		c-0.1,0.2-0.1,0.5,0.1,0.6h0.1L68.5,49z M62.2,50.2c-0.6,0.3-1,0.7-1.1,1.2c-0.1,0.4,0.1,0.5,0.4,0.4c0.5-0.2,0.8-0.5,1-1.1
		c1.2-0.5,2.4-0.7,3.7-0.5c0.4,0.1,0.4,0.2,0.1,0.4c-0.7,0.6-1.4,0.8-2.2,0.7C63,51.1,63,51.2,64,51.6c1.9,0.8,3.2,0.5,3.8-0.8
		c0.1-0.1,0.2-0.2,0.4-0.1c0,0,0,0,0.1,0c0.8,0.8,4.4,0.5,5.7,0.5c0.2,0,0.4,0.3,0.4,0.5c-0.2,1,0,1.9,0.7,2.7l-5.6,0.3
		c-1,0.1-1.8,0-2.4-0.2c-1.3-0.4-2.2-0.5-2.8-0.4c-0.4,0.1-0.4,0.3,0,0.6l17.1,15c0.2,0.2,0.4,0.1,0.5-0.1L86,55.5
		c0.1-0.2-0.1-0.5-0.3-0.6c0,0,0,0-0.1,0l-5.3-0.5c-0.7-3.2-1-3.1-1,0.2L78,54.5c0.2-1.4-0.1-1.9-1-1.5l-0.3-0.8
		c-0.9-1.1-2-2-3.6-2.1c-3.2-0.1-6.3-0.6-9.4-1.4c-0.2-0.1-0.5,0.1-0.7,0.3L62.2,50.2z M83.8,52.5c0.6,1.6,1,1.7,1.1,0.2
		c0-0.7-1-0.6-1.3-1.2c-0.2-0.3-0.5-0.4-0.7-0.4c-1.6,0.3-1.9,1.1-0.9,2.5c0.1,0.1,0.3,0.2,0.4,0l0.1-0.1l0.8-1.2
		C83.5,52.1,83.7,52.2,83.8,52.5z M67.5,53.6c0,0.3,0.2,0.4,0.4,0.4c1.2,0,1.6-0.5,1.2-1.5c-0.1-0.3-0.4-0.5-0.7-0.4l0,0
		C68,52.3,67.7,52.8,67.5,53.6z M71,52.3c-1.9-0.9-1.5,3.4,0.2,0.8C71.4,52.8,71.4,52.5,71,52.3C71.1,52.3,71.1,52.3,71,52.3z
		 M73.4,52.8c0.1-0.4-0.1-0.7-0.5-0.8c-0.1,0-0.2,0-0.3,0C70.8,52.4,72.8,55.1,73.4,52.8z M81.9,74.1c0.1,2.6,2.4-3.1,0.3-0.8
		C82,73.6,81.9,73.9,81.9,74.1z"/>
	<path class="st6" d="M60.3,34.5c-0.5-1.7-1.3-2-2.4-0.9c-0.2,0.2-0.5,0.3-0.8,0.3c-2.9-0.4-3.6,0.5-1.9,2.7
		c0.2,0.2,0.2,0.5,0.1,0.8c-0.3,0.7,0,1.2,0.7,1.6l-0.2,1C55,40.3,55,41.2,56,42.7c0.6,1,0.4,1.3-0.6,1L53,43
		c-0.3-0.1-0.4-0.4-0.4-0.7c1.2-5.7,1-11.4-0.4-17c1-0.2,8.8-1.1,8,0.8c-0.1,0.3-0.1,0.7,0,0.9l0.7,1c0.2,0.3,0.2,0.6,0.1,0.8
		c-0.5,1.4,0.1,1.9,1.7,1.5c1.7-0.4,0.4,1.5-1,1.6c-0.2,0-0.4,0.2-0.4,0.5l0,0C61.3,33.3,61,34,60.3,34.5z"/>
	<path class="st7" d="M68.8,25.3l-11,19c-0.8-0.5-2-2.7-0.8-3.3c2.5-0.9,2.8-2.4,0.9-4.5c-0.4-0.4-0.3-0.6,0.3-0.5
		c0.2,0,0.5,0.1,0.8,0.3c0.6,0.4,1.2,0.3,1.7-0.3c2.4-0.4,0.4-3,2.8-4c0.3-0.1,0.6-0.4,0.7-0.6c0.4-1.2,0.2-2.3-0.7-3.2
		c-0.3-0.2-0.3-0.6-0.1-0.8l0,0c0.2-0.2,0.5-0.2,0.8,0.1c1.2,1.1,2.2,0.6,2.9-1.6C67.2,25,67.8,24.8,68.8,25.3z"/>
	<path class="st2" d="M101.2,62.8l-2-0.8l-1.9-15.4c0-0.2,0.1-0.4,0.3-0.5c3.2-1.1,3.3-2.5,0.4-4.3v-0.2c1.5-2.2,1.2-4.2-0.8-5.9
		c-0.2-0.2-0.5-0.2-0.7,0c0,0,0,0,0,0.1l-2.1,3.4c-0.1,0.2-0.1,0.6,0.1,0.8c1,1.3,0.8,2.4-0.7,3.2c-0.3,0.2-0.5,0.5-0.4,0.7
		c0.1,1.3,0.9,2,2.3,2c0.2,0,0.4,0.2,0.4,0.5l0,0l-1.3,10.7c0,0.4-0.2,0.7-0.5,0.8c-0.2,0.1-0.5-0.1-0.7-0.3c-1.3-0.7-2.2-1.7-2.6-3
		c0.4-5.3-0.2-10.5-1.7-15.5c-1.6-5.3-1.8-8.7-1.3-13.7l13-0.2c0.3,0,0.5,0.2,0.5,0.5l0,0L101.2,62.8z"/>
	<path class="st8" d="M68.8,25.3h2.5c-2.3,4.6-6,10.9-11.2,18.8c-0.8,1.2-1.6,1.3-2.4,0.2L68.8,25.3z"/>
	<path class="st9" d="M76.5,25.2l2.2,0.3c0.1,0.7,0.4,1.2,0.9,1.7c0.2,0.2,0.3,0.5,0.1,0.8c-1.4,2.2-0.9-1.9-2.8-1.5L76.5,25.2z"/>
	<path class="st10" d="M82.2,25.3c-0.8,1.3-1.8,1.3-2.8,0.2L82.2,25.3z"/>
	<path class="st11" d="M82.2,25.3l1.3,0.2c0.2,1.5,0.7,1.6,1.5,0.5c1.2,0.5,1.1,1.2-0.3,2c-4.7-2.4,0.7,2.4,0.2,0.1l1.2-0.1l0.5,0.3
		c-2,1.1-2.1,1.7-0.2,1.7l0.2,1c-0.7,0.1-1.1,0.5-1.2,1.2h-0.7c-0.5-0.8-1.2-1.5-2.1-2.1c-0.2-0.2-0.4-0.4-0.4-0.8
		c0-0.6-0.3-1.1-0.8-1.4c-0.2-0.1-0.5,0-0.7,0.2l0,0c-0.5,0.8-1,1.4-1.7,1.9l-2.3-3l0.3-0.5c1.8-0.4,1.4,3.6,2.8,1.5
		c0.1-0.2,0.1-0.5-0.1-0.8c-0.5-0.4-0.8-1-0.9-1.7h0.7C80.5,26.6,81.4,26.5,82.2,25.3z M84,29.4c0-0.4-0.2-0.5-0.6-0.4
		c-0.2,0.1-0.3,0.3-0.2,0.5c0,0,0,0.1,0.1,0.1l0.9,1c0.2,0.2,0.5,0.3,0.8,0.1c0.5-0.4,0.4-0.6-0.3-0.8C84.3,29.9,84.1,29.7,84,29.4z
		"/>
	<path class="st10" d="M85,25.5V26c-0.8,1.1-1.3,1-1.5-0.5H85z"/>
	<path class="st12" d="M87,25.3L86.2,28c-0.1,0-1.3,0-1.4,0c1.3-0.8,1.4-1.4,0.3-2v-0.5L87,25.3z"/>
	<path class="st13" d="M87,25.3h1c-0.5,5-0.4,8.5,1.3,13.7c1.6,5,2.1,10.2,1.7,15.5c-3.2-0.3-5.3-3.6-8.2-4.8
		c2.9-3.5,4.2-7.6,4-12.2c-1.5-2-1.7-2-0.7,0c-5.4,0.8-1.2,7-5.2,6.2c-0.3-0.1-0.7-0.1-1,0c-2.1,0.7-2.9,0.1-2.5-1.7
		c0.1-0.3,0.1-0.3,0.2,0c0.1,0.4,0.4,0.7,0.7,1c0.2,0.2,0.5,0.1,0.8-0.1c0.8-0.8,1.5-0.8,2.1-0.1c0.2,0.2,0.4,0.2,0.6,0.1l0,0
		c1.8-2.2-1.8-9.7,2.2-10.1c0.4,0.6,0.3,1-0.3,1.3c-0.2,0.1-0.4,0.2-0.4,0.4c-0.1,0.2,0,0.3,0.3,0.3c0.2,0,0.4-0.2,0.5-0.4
		c0.3-0.5,0.7-0.7,1.3-0.6c1.4,1.8,1.8,1.7,1.2-0.3c-0.1-0.2-0.1-0.5,0-1l0.1-1.5l-0.2-1c0.4-0.6,0.5-1.1,0.2-1.7L86.2,28L87,25.3z"
		/>
	<path class="st14" d="M76.7,27l2.3,3c-1.2,1.7-2.8,2.2-4.8,1.7l0.5-1.7c1.6,1.1,2.3,1.1,2.1-0.2c-0.1-0.4-0.3-0.7-0.5-0.8l-1-0.3
		C75.5,27.9,76,27.4,76.7,27z"/>
	<path class="st10" d="M84.8,28H85C85.5,30.3,80.1,25.6,84.8,28z"/>
	<path class="st2" d="M84.8,32.2L84,32.8c-4,0.4-0.4,7.8-2.2,10.1c-0.1,0.2-0.4,0.2-0.6,0l0,0c-0.6-0.8-1.3-0.7-2.1,0.1
		c-0.2,0.2-0.5,0.3-0.8,0.1c-0.4-0.3-0.6-0.6-0.7-1c-0.1-0.3-0.2-0.3-0.2,0c-0.4,1.8,0.4,2.3,2.5,1.7c0.3-0.1,0.6-0.1,1,0
		c4,0.8-0.2-5.4,5.2-6.2h0.7c0.2,4.6-1.1,8.7-4,12.2c-6.3,3.2-12-2-15.3-6.8c-0.2-0.2-0.2-0.6,0-0.8l4.7-7.7
		c0.2-0.3,0.5-0.4,0.8-0.5c3.3-0.1,3.5-0.5,0.6-1c-0.3,0-0.5-0.3-0.4-0.5v-0.1c0.2-0.3,0.5-0.5,1.1-0.6c2,0.5,3.6,0,4.8-1.7
		c0.7-0.5,1.3-1.1,1.7-1.9c0.2-0.3,0.5-0.4,0.7-0.2l0,0c0.5,0.3,0.8,0.8,0.8,1.4c0,0.3,0.2,0.6,0.4,0.8
		C83.6,30.7,84.3,31.4,84.8,32.2z M77.1,34.1c1,0.6,1.5,0.4,1.5-0.4c0-0.3-0.2-0.6-0.5-0.7c-0.9-0.3-1.3-0.2-1.4,0.3
		C76.6,33.6,76.8,33.9,77.1,34.1z M78.8,35.4C78.8,35.3,78.8,35.3,78.8,35.4c-1.6-0.4-5.6-1.2-6.4,0.6c-0.1,0.3,0,0.6,0.2,0.8
		c1.6,1.1,5.4,0.8,3.6,2.4C76,39.4,76,39.5,76,39.7c0,0.1,0.3,0.2,0.5,0.1l0,0C78.1,38.9,78.8,37.5,78.8,35.4z M78,48
		c2,1.6,3.4,1.2,4.2-1c0.6-0.4,0.8-0.7,0.5-1.1c-0.2-0.2-0.5-0.4-0.8-0.4h-4.2c-0.3,0-0.6,0.2-0.6,0.5C77,46.8,77.3,47.5,78,48z"/>
	<path class="st10" d="M86.7,28.2c0.2,0.6,0.2,1.1-0.2,1.7C84.6,29.9,84.7,29.3,86.7,28.2z"/>
	<path class="st12" d="M75.3,28.7l1,0.3c0.3,0.1,0.5,0.4,0.5,0.8c0.2,1.3-0.5,1.4-2.1,0.2L75.3,28.7z"/>
	<path class="st12" d="M84.6,30c0.7,0.1,0.8,0.4,0.3,0.8c-0.2,0.2-0.6,0.1-0.8-0.1l-0.9-1c-0.2-0.2-0.1-0.4,0-0.6c0,0,0.1,0,0.1-0.1
		c0.4-0.1,0.6,0,0.7,0.4C84.1,29.7,84.3,29.9,84.6,30z"/>
	<path class="st10" d="M86.7,31l-0.1,1.5c0,0.4,0,0.8,0,1c0.6,2,0.2,2.1-1.2,0.3v-1.5C85.6,31.5,86,31.1,86.7,31z"/>
	<path class="st14" d="M84.8,32.2h0.7v1.5c-0.6-0.1-1.1,0.1-1.3,0.6c-0.1,0.5-1,0.5-0.8,0.1c0-0.1,0.2-0.3,0.4-0.4
		c0.6-0.2,0.7-0.7,0.3-1.3L84.8,32.2z"/>
	<path class="st11" d="M76.7,33.3c0.1-0.5,0.6-0.6,1.4-0.3c0.3,0.1,0.5,0.4,0.5,0.7c0,0.8-0.5,1-1.5,0.4
		C76.8,33.9,76.6,33.6,76.7,33.3z"/>
	<path class="st4" d="M78.8,35.4c0,2-0.7,3.5-2.2,4.3c-0.2,0.1-0.4,0.1-0.5,0l0,0c0-0.2,0-0.3,0.2-0.5c1.8-1.6-2-1.3-3.6-2.4
		c-0.3-0.2-0.4-0.5-0.2-0.8c0.8-1.8,4.8-1,6.3-0.7C78.8,35.3,78.8,35.3,78.8,35.4z M74.7,36c-0.4-0.2-0.7-0.1-0.8,0.4
		C73.7,37.6,75.7,36.8,74.7,36C74.7,36.1,74.7,36,74.7,36z"/>
	<path class="st3" d="M98,41.5c-1.6-0.5-2.1-0.4-1.7,0.3c0.2,0.2,0.5,0.3,0.8,0.2l1-0.3c2.9,1.8,2.8,3.3-0.4,4.3
		c-0.2,0.1-0.3,0.3-0.3,0.5L99.2,62c-0.8,0.6-0.7,1.3,0.4,2.2c0.2,0.2,0.2,0.5,0.1,0.7c-1.6,2.1-0.7,3.5-0.8,5.4
		c-0.3,3.4-0.6,6.8-1,10.2c-0.1,0.8,0.3,1.4,0.9,1.5c1,0,1.5,0.4,1.3,1.2l-4.2-2.9c0.8-0.4,1-1,0.7-1.7c0.5-2.1,2.5-9.8-0.9-10.3
		l0.2-1.9c2.6-1.2,2.6-2.2,0-3.3c-0.6-0.6-0.7-1.2-0.3-1.8c3.2,0.2,1.7-7.9,1.5-9.8c-0.4-2.1-0.6-2-0.7,0.3L95,59.2l-1.7-0.5v-0.5
		l0.3-0.8c0.5,0.7,1,0.2,1.2-0.5L96,46.4c0-0.2-0.1-0.5-0.4-0.5l0,0c-1.4-0.1-2.2-0.7-2.3-2c0-0.3,0.1-0.6,0.4-0.7
		c1.5-0.9,1.7-1.9,0.7-3.2c-0.2-0.3-0.3-0.6-0.1-0.8l2.1-3.4c0.1-0.2,0.4-0.3,0.6-0.1c0,0,0,0,0.1,0C99.2,37.3,99.5,39.3,98,41.5z
		 M94.7,44.8c0.5,0.3,1.1,0.1,1.4-0.4c0-0.1,0.1-0.1,0.1-0.2C97,41.7,92.4,43.6,94.7,44.8z M97.5,43.4c-0.3,3.6,2.7,0.9,1-0.4
		C97.9,42.4,97.6,42.6,97.5,43.4z"/>
	<path class="st10" d="M74.9,36.8c-0.2,0.5-1.1,0.4-1-0.3C74,35.6,75.2,36,74.9,36.8C74.9,36.7,74.9,36.7,74.9,36.8z"/>
	<path class="st14" d="M86.7,37.5H86C85,35.5,85.2,35.5,86.7,37.5z"/>
	<path class="st2" d="M26.8,40.7c-1.9,2.2-5-1.5-4.4-4.1c0-0.3,0.4-0.4,0.6-0.2l3.8,3.5C27,40.1,27,40.5,26.8,40.7z"/>
	<path class="st15" d="M56,39c2.5,0.7,2.4,1-0.2,0.9L56,39z"/>
	<path class="st16" d="M98,41.5v0.2L97,42c-0.3,0.1-0.6,0-0.8-0.2C95.8,41.1,96.4,41,98,41.5z"/>
	<path class="st17" d="M94.7,44.8c-2.3-1.2,2.3-3.2,1.5-0.6c-0.2,0.5-0.8,0.9-1.3,0.7C94.9,44.9,94.8,44.9,94.7,44.8z"/>
	<path class="st18" d="M97.5,43.4c0.1-0.8,0.4-1,1-0.4C100.2,44.3,97.2,47,97.5,43.4z"/>
	<path class="st9" d="M68.8,46.5L68.5,49l-4-1c-0.2-0.1-0.3-0.4-0.3-0.6l2-3.4c0.1-0.2,0.3-0.3,0.5-0.2l0.1,0.1L68.8,46.5z"/>
	<path class="st4" d="M82.2,47c-0.3-0.8-0.7-0.9-1.2-0.4c-0.7,0.1-1.5,0.2-2.3,0.2c-0.8,0-1,0.5-0.8,1.2c-0.7-0.5-1-1.2-0.8-2
		c0.1-0.3,0.3-0.5,0.6-0.5h4.2c0.4,0,0.7,0.1,0.8,0.4C83,46.3,82.9,46.6,82.2,47z"/>
	<path class="st9" d="M69.5,48.7l-0.3-2.2c1,0.3,1.7,0.9,2.1,1.8c0.1,0.2,0,0.5-0.2,0.6c0,0,0,0-0.1,0C70.5,49.1,70,49.1,69.5,48.7z
		"/>
	<path class="st2" d="M82.2,47c-1.2,1.3-2.6,1.6-4.2,1c-0.1-0.3-0.1-0.6,0-0.8c0.1-0.3,0.4-0.4,0.8-0.4c0.8,0,1.5-0.1,2.3-0.2
		C81.6,46.1,82,46.2,82.2,47z"/>
	<path class="st11" d="M68.8,46.5h0.4l0.3,2.2l-1,0.2L68.8,46.5z"/>
	<path class="st11" d="M82.2,47c-0.8,2.2-2.2,2.6-4.2,1C79.7,48.6,81.1,48.3,82.2,47z"/>
	<path class="st3" d="M25,61.9c-1.3,2.3-3,2.4-5.2,0.1c-1.1-1.2-1.1-2.7,0.2-4.5l5.7-8.3c0.1-0.2,0.3-0.2,0.5-0.1l0.1,0.1l6,8.9
		c1.2,1.8,1.1,3.4-0.5,4.7C27.2,66.7,27.2,58.2,25,61.9z"/>
	<path class="st16" d="M76.8,52.2l-1.5,2.2H75c-0.6-0.8-0.8-1.7-0.7-2.7c0-0.2-0.1-0.4-0.3-0.5c-1.3,0-5,0.3-5.8-0.5
		c-0.1-0.1-0.3-0.1-0.4,0c0,0,0,0,0,0.1c-0.6,1.3-1.9,1.6-3.8,0.8c-1-0.4-1-0.5,0.1-0.3c0.8,0.1,1.5-0.1,2.2-0.7
		c0.3-0.2,0.2-0.4-0.1-0.4c-1.3-0.2-2.5,0-3.7,0.5l-0.2-0.5l0.8-1.1c0.2-0.3,0.5-0.4,0.7-0.3c3.1,0.8,6.2,1.3,9.4,1.4
		C74.8,50.2,75.8,51.1,76.8,52.2z"/>
	<path class="st19" d="M97,51.5l-0.7,0.3C96.4,49.4,96.6,49.3,97,51.5z"/>
	<path class="st20" d="M62.2,50.2l0.2,0.5c-0.2,0.6-0.5,0.9-1,1.1c-0.4,0.1-0.5,0-0.4-0.4C61.2,50.9,61.6,50.5,62.2,50.2z"/>
	<path class="st16" d="M83.3,52.4l-0.8,1.2c-0.1,0.2-0.3,0.2-0.4,0.1c0,0-0.1,0-0.1-0.1c-0.9-1.4-0.6-2.2,0.9-2.5
		c0.6,0,0.9,0.9,1.5,1c0.3,0.1,0.5,0.3,0.5,0.6c-0.1,1.5-0.5,1.5-1.1-0.2C83.7,52.2,83.5,52.1,83.3,52.4z"/>
	<path class="st7" d="M97,51.5c0.2,1.9,1.7,10-1.5,9.8l-0.5-2l1.3-7.5L97,51.5z"/>
	<path class="st16" d="M67.5,53.6c0.2-0.8,0.5-1.3,0.9-1.5c0.3-0.1,0.6,0,0.7,0.3l0,0c0.4,0.9,0,1.4-1.2,1.5
		C67.7,54,67.5,53.9,67.5,53.6L67.5,53.6z"/>
	<path class="st7" d="M71,52.3c0.3,0.1,0.4,0.4,0.3,0.7v0.1C69.5,55.7,69.2,51.4,71,52.3z"/>
	<path class="st16" d="M73.4,52.8c-0.6,2.3-2.6-0.4-0.8-0.8C73.2,51.9,73.5,52.3,73.4,52.8z"/>
	<path class="st21" d="M80.2,54.5l-1,0.2C79.2,51.3,79.6,51.3,80.2,54.5z"/>
	<path class="st3" d="M76.8,52.2L77,53l0.2,1.5h-2L76.8,52.2z"/>
	<path class="st21" d="M78,54.5h-0.8L77,53C77.9,52.6,78.2,53.1,78,54.5z"/>
	<path class="st20" d="M67.8,59.7L66.5,60c-0.6-0.3-1.2-0.2-1.7,0.2c-0.2,0.2-0.5,0.2-0.7,0l-1.3-1c-0.2-0.2-0.4-0.5-0.3-0.7
		c0.6-2.1,0-2.2-1.7-0.5c-0.2,0.3-0.6,0.3-0.8,0.2l0,0c-0.1-0.1-0.2-0.4-0.1-0.6c0.2-0.7,0.7-1.4,1.4-1.8c0.3-0.2,0.3-0.3-0.1-0.3
		c-0.5-0.1-1.1,0.1-1.5,0.4c-1.2,0.7-1.6,0.4-1.1-1.1c0.5-1.4,1.5-1.7,2.6-0.7C63.4,55.8,65.6,57.8,67.8,59.7z"/>
	<path class="st22" d="M52.8,53.7l0.5,0.5l-1,1.8c-0.7,0.5-1.2,1.2-1.3,2c0,0.4,0.1,0.7,0.3,0.9l2.9,2.8l1,0.5
		c0.3,1.9,1.2,3.7,2.5,5.4c-1,0.1-1.3,0.7-1,1.6c-2.5,1.6,3.4,1.6,3.6,1.6c0.3,0,0.6,0.2,0.9,0.4l10.6,9.2c-0.8,0.5-1.5,0.4-2.3-0.3
		l-8.6-7.6c-1.7-1.5-2.8-1.7-3.4-0.5c-0.5,0.9-0.2,1.3,0.9,1.2l0.3,0.5c0,0.3,0,0.8,0.3,1l6.7,5.6C65,81,64.2,81,63.5,80.2
		c-2-2.3-5.9-6.3-8.5-3.8L53.5,77l1.7-3c0.7-0.7,1.1-1.6,1-2.6c0-0.4-0.1-0.4-0.4-0.1C55.3,72.1,55,72.9,55,74l-2,1
		c2-2.3,2.5-4.9,1.5-7.7L55,67c0.7,1.6,0.9,0.3,0.7-0.2c-1.3-3.2-3.5-5.8-6.4-7.7c-0.3-0.2-0.4-0.1-0.2,0.2c0.2,0.5,0.6,0.8,1,1.1
		c-2.7-0.8-4.9,0.1-6.4,2.7c-0.1,0.2-0.1,0.6,0.1,0.8c0.8,1.1,0.8,2.1,0.3,3.2c-0.4-2.9-1.1-3.3-2.2-1.2c-1,2.8-0.7,3.3,1,1.5
		l0.8,2.5l1.2,0.7l0.5,1.7l-0.5,0.2c-0.4-0.9-1.3-1.5-2.5-1.6c-9.4-1.2-7.5,11.2,0.8,7.9l0.3,1L42.8,80c-2.1-0.1-4.6-0.7-6.7,0
		c-1.1,0.4-7.2,2.4-6.9,3.7l-1,0.1c-1.9-0.6-1.8-0.3,0.2,1l0.8,0.4l0.2,0.2l-2.2,0.1c-0.3,0-0.5,0.2-0.5,0.5l-0.1,17.1
		c0,0.3,0.1,0.6,0.4,0.8c1.6,1.3,2,1.1,1.4-0.6c-0.1-0.3-0.1-0.6,0.1-0.9c1.1-1.9,0.4-3.8,0.5-5.4c0.4-3.7,0.8-7.4,1.2-11.1l3.2,2.2
		l-2,0.8l-1.1,9c0,0.3,0.1,0.6,0.3,0.9c0.5,0.5,1.2,0.7,1.9,0.6l-0.8,1.8c-3.2,1.2-1.1,5.8,1.3,2.5l-0.3,3.1c-3.8-0.8-2,6.5-1.5,9.8
		c-0.3,1.4-0.1,2.6,0.6,3.8c-0.3,0.7-0.2,1.6,0.7,1.7c1.6,0.1,2.2,0.9,1.8,2.4c-0.1,0.3-0.3,0.5-0.6,0.7c-1.3,0.7-1.5,1.5-0.5,2.5
		c0.2,0.2,0.3,0.5,0.2,0.8c-2.2,8.2-5.5,1.1-4.1-1.9c0.1-0.3,0-0.6-0.2-0.7c-2.2-1.7-2-3,0.7-3.9c0.3-0.1,0.4-0.4,0.4-0.6l-1.6-14.3
		c-0.1-1-1-1.4-1.9-1.8l-1.5-0.7V68.9c0-0.3,0.2-0.6,0.5-0.6l0.5-0.1c-0.5,0.7-0.5,1.3,0,1.8c0.2,0.2,0.3,0.5,0.3,0.8l0.1,2.6
		c0,0.3,0.3,0.4,0.5,0.2c1.5-0.9,1.9-2.1,1.1-3.6c-0.2-0.3-0.3-0.7-0.2-0.9l0.2-0.8c2.2,2,2.2,3.7,0.1,5.3c-0.2,0.2-0.3,0.5-0.2,0.7
		c0.5,0.9,1.2,1.7,2,2.4c0.2,0.2,0.2,0.4,0.1,0.7l-1.8,4.3c-0.2,0.4,0,0.5,0.4,0.3c2.1-0.9,3-2.7,2.9-5.2c0-0.3-0.2-0.6-0.4-0.8
		c-1.3-1.2-1.2-2.3,0.2-3.3c0.3-0.2,0.4-0.5,0.4-0.8c-0.2-2.1-1.2-3.5-2.9-4.3c1-1.5,6.7,3.3,3.9-3.3c-0.3-0.6-0.2-1.2,0.2-1.5
		c0.1,0,0.2-0.1,0.3-0.1c1.2,0,1.5-0.3,0.8-0.8c-0.2-0.2-0.3-0.5-0.2-0.7c0.3-1.1,0.3-2.1-0.2-3.2c1.5-0.8,1.5-1-0.2-0.8
		c-0.6-0.3-1-1.5,0-1.5c3.8,0.8,4.9,3.1,3.4,6.9c-0.1,0.3-0.4,0.4-0.7,0.4c-0.7,0-1.1,0.2-1.4,0.6c-0.1,0.3-0.1,0.6,0.2,0.8
		c1.2,1.3,2.6,1.2,4.3,0C45.8,59.7,50.2,56.1,52.8,53.7z M36.7,60.3c-0.6-4-1.4,1.2-0.2,0.7C36.6,60.9,36.7,60.6,36.7,60.3z
		 M39.8,69.4c0.8-0.4-3.5-1.7-3.9-1.8c-0.2-0.1-0.4,0-0.5,0.2v0.1c0.1,1.6,2.5,1.2,3.8,1.5C39.4,69.5,39.6,69.5,39.8,69.4z
		 M33.8,77.2c-2,3.8-1.2,4.3,2.4,1.6c0.2-0.2,0.3-0.5,0.1-0.7c-1.6-2.2-1.5-4.5,0.3-6.7c0.2-0.2,0.1-0.5-0.1-0.6l0,0
		c-3.9-2.4-4.7-1.9-2.5,1.3c0.6,0.9-0.2,1.8-1,2.2c-0.2,0.1-0.3,0.3-0.3,0.5c0,0,0,0,0,0.1l1,1.6C33.9,76.6,33.9,76.9,33.8,77.2z
		 M28.1,75.5c-0.4-0.6-0.8-0.7-1.3-0.1c-0.2,0.2-0.3,0.5-0.3,0.9l0.3,5c0,0.3,0.2,0.5,0.4,0.5c0.1,0,0.3-0.1,0.4-0.2
		c0.5-0.3,1.1-1.5,1.7-3.5c0.3-0.9,0.1-1.5-0.6-1.9C28.5,76,28.3,75.8,28.1,75.5z M29,124.2c0.2,0.7,0.5,0.9,1,0.5
		c0.3-0.2,0.4-0.5,0.4-0.8c0-1.1-0.4-1.3-1.2-0.6C29,123.6,28.9,123.9,29,124.2z M32.5,124.9c0.7-0.2,1.2-0.6,1.4-1.1
		c0.1-0.3-0.1-0.6-0.4-0.7c-1.3-0.5-1.8,0-1.5,1.5C32,124.8,32.3,125,32.5,124.9L32.5,124.9z M31,126.6c1,1.1,1.3-2.7,0-0.8
		C30.8,126.1,30.8,126.4,31,126.6z"/>
	<path class="st20" d="M75,54.5c0.7,0,2.3,0,3,0l1.2,0.2l1-0.2l5.3,0.5c0.2,0,0.4,0.4,0.4,0.6l-4.1,14.1c0,0.2-0.2,0.2-0.4,0.2
		c0,0-0.1,0-0.1-0.1l-17.1-15c-0.3-0.3-0.3-0.5,0-0.6c0.5-0.1,1.4,0,2.8,0.4c0.6,0.2,1.4,0.3,2.4,0.2L75,54.5z M82,64.5l0.8-1.5
		l1.6-6.3c0.1-0.2-0.2-0.6-0.4-0.5c-5-0.4-10.1-0.3-15.3,0.3c-0.3,0-0.4,0.2-0.1,0.4c3.8,3.9,7.8,7.5,12,10.8
		c0.2,0.2,0.5,0.1,0.7-0.1l0,0C81.9,66.7,82.2,65.7,82,64.5z"/>
	<path class="st23" d="M53.3,54.2c2.4,0.8,4.2,3,6.2,4.5c0.6,1,1.4,1.7,2.4,2.1c0.3,0.1,0.4,0.4,0.3,0.7L62,62.2
		c-2.1-0.4-3.6-1.5-4.2-3.4c-0.4-1.2-0.7-1.2-0.8,0c-0.1,1.6,0.5,2.8,1.9,3.5c0.2,0.1,0.4,0.4,0.3,0.6c-0.8,2.4,2.1,3.4,2.5,1.9
		c0.1-0.2-0.1-0.5-0.4-0.5l0,0c-0.6-0.1-1-0.5-1.2-1c-0.1-0.4,0-0.5,0.4-0.3c3,1.1,3.3,2.5,0.6,4.2c-0.3,0.2-0.6,0.2-0.9,0.1
		c-6.2-2-1.7-12.4-7.9-11.3L53.3,54.2z"/>
	<path class="st17" d="M88,57.7l-1.4,0.5l0.9-2.9c0.1-0.3,0.4-0.5,0.7-0.6c1-0.1,1.4,0.3,1.3,1.3c0,0.3-0.2,0.5-0.6,0.6
		C88.4,56.9,88.1,57.3,88,57.7z"/>
	<path class="st2" d="M52.3,56c6.2-1.1,1.7,9.3,7.8,11.2c0.3,0.1,0.6,0,0.9-0.1c2.6-1.7,2.4-3-0.6-4.2c-0.4-0.1-0.5,0-0.4,0.3
		c0.2,0.6,0.6,0.9,1.2,1c0.3,0.1,0.5,0.3,0.5,0.5l0,0c-0.5,1.5-3.4,0.5-2.5-1.9c0.1-0.3,0-0.5-0.3-0.6c-1.4-0.7-2-1.8-1.9-3.5
		c0.1-1.2,0.4-1.1,0.8,0c0.7,1.9,2.1,3,4.2,3.4c1,0.6,1.8,1.4,2.1,2.6c0.1,0.3,0,0.6-0.2,0.9c-0.8,1.1-0.3,1.6,1.6,1.3h2.2
		c3.5,2.3,1.8,5.4,3.5,8.6c1.1,2,3.7,2.4,3.8-0.7c-0.1-1-1.4-0.7-1.3,0.3c0,0.2-0.3,0.4-0.5,0.4c-2.2-0.7,0.1-2.8,1.8-2.9
		c0.2,0.5,0.7,1,1.5,1.5c-0.4,4.2-2.2,5.2-5.4,3.2c-1.4-0.9-1.6-2.4-1.8-3.9c0-0.7-0.9-0.9-1.5-0.7c-0.4,0.1-0.7,0.2-0.9,0.1
		C66,72.6,65.4,72,65.1,71c-0.1-0.3,0-0.6,0.2-0.9c1.3-1.4,1.8-1.2,1.3,0.6c-0.1,0.3,0,0.6,0.2,0.8c0.9,0.6,1.5,0.4,1.9-0.7
		c0.1-0.4,0.1-0.7,0-1l-0.9-1.3c-0.1-0.2-0.5-0.3-0.9-0.4l-9.2-0.6c-1.3-1.7-2.2-3.5-2.5-5.4c0-1.3-0.4-6.1-2.3-5.1
		c-0.3,0.1-0.4,0.5-0.3,0.8c0.2,0.9,0.6,1.7,1.3,2.2c0.3,0.3,0.5,0.6,0.4,0.8v0.7l-2.9-2.8c-0.3,0-0.4-0.3-0.4-0.7
		C51.1,57.2,51.5,56.5,52.3,56z"/>
	<path class="st24" d="M82.8,63c-0.6,0.1-1-0.1-1.2-0.5c-0.2-0.3-0.4-0.6-0.6-0.5c-0.2,0-0.3,0.1-0.5,0.1c-0.2,0.1-0.2,0.3-0.1,0.6
		c0,0,0,0.1,0.1,0.1l1.6,1.8c0.2,1.1-0.1,2.2-0.7,3.1c-0.2,0.2-0.5,0.3-0.7,0.1l0,0c-4.2-3.3-8.2-6.9-12-10.8
		c-0.2-0.2-0.2-0.4,0.1-0.4c5.1-0.6,10.2-0.7,15.3-0.3c0.2,0,0.4,0.3,0.4,0.5L82.8,63z M70.4,57.3c-0.5,0-0.6,0.2-0.2,0.6
		c0.8,0.8,1.5,0.8,2.2,0c0.3-0.4,0.3-0.5-0.2-0.6H70.4z M79.3,59.2c-1,0.4,3,3.6,0.7,0.2C79.8,59.2,79.5,59.1,79.3,59.2z M79.2,65.5
		c0.3,0.6,0.7,0.9,1.2,1c0.3,0,0.5-0.2,0.5-0.4c0-0.8-0.4-1.1-1.5-1c-1.9-1.6-3.5-3.4-4.6-5.5c-0.1-0.3-0.4-0.3-0.7-0.3
		c-0.2,0.1-0.2,0.3-0.1,0.6c0,0,0,0,0,0.1C75.5,62.1,77.2,63.9,79.2,65.5z"/>
	<path class="st25" d="M66.5,60l-0.3,1c-1.1,0.4-1.4,0.9-1.1,1.7c0.1,0.2,0.4,0.3,0.7,0.2l0,0c1.8-1.1,2.5-1,2,0.3
		c-0.1,0.3-0.1,0.6,0.1,0.9c0.7,0.7,1.6,1,2.6,0.8c0.2,0,0.4,0.1,0.5,0.3v0.1c-0.1,0.9-1.6,2.4,0,2.9c1.1,1.8,2.4,3.3,4,4.7
		c-1.8,0.1-4,2.2-1.8,2.9c0.2,0.1,0.4-0.1,0.5-0.3c0-0.7,0.3-1.1,0.8-1c0.3,0,0.5,0.3,0.5,0.6c-0.1,3.1-2.7,2.7-3.8,0.7
		c-1.8-3.2,0-6.4-3.5-8.6c0.3-1.2-0.3-1.8-1.7-1.8c-1.9,0-2,0.3-0.3,1L65.5,67c-1.9,0.2-2.4-0.2-1.6-1.3c0.2-0.3,0.3-0.6,0.2-0.9
		c-0.4-1.1-1.1-2-2.1-2.6l0.3-0.7c0.1-0.2,0-0.5-0.3-0.7c-1-0.5-1.8-1.2-2.4-2.1l0.4-1.2c-0.2,0.7,0.4,0.9,0.9,0.5l0,0
		c1.7-1.7,2.2-1.6,1.7,0.5c-0.1,0.3,0,0.5,0.3,0.7l1.3,1c0.2,0.2,0.5,0.2,0.7,0C65.3,59.8,65.9,59.7,66.5,60z M71,72.1
		c0.3,0.6,0.8,0.3,1.1-0.2c0.6-1.1,0.3-1.3-0.8-0.4C71,71.6,70.9,71.9,71,72.1z"/>
	<path class="st18" d="M34,58l-0.2-0.8C35.5,57,35.5,57.3,34,58z"/>
	<path class="st23" d="M55.2,62.2l-1-0.5c0-0.6,0.1-0.9-0.4-1.5c-0.7-0.6-1.1-1.3-1.3-2.2c-0.1-0.3,0.1-0.6,0.3-0.8
		C54.8,56.1,55.2,61,55.2,62.2z"/>
	<path class="st16" d="M70.4,57.3h1.8c0.4,0,0.5,0.2,0.2,0.6c-0.7,0.8-1.4,0.8-2.2,0C69.9,57.4,69.9,57.3,70.4,57.3z"/>
	<path class="st25" d="M92,58l-2.3,3.1c-0.2,0.2-0.2,0.6-0.2,0.9l0.4,6h-1.7v-3c0.2-0.5,0-0.8-0.3-1c-0.2-0.1-0.4-0.4-0.3-0.7
		l0.5-2.8l1.5-2C90.2,57,91.1,56.9,92,58z"/>
	<path class="st15" d="M88,57.7l1.5,0.7l-1.5,2c-0.3-0.8-0.9-1.2-1.8-1.2l0.2-1L88,57.7z"/>
	<path class="st2" d="M92,58l1.2,0.2v0.5l-0.7,0.6c-0.3,0.2-0.2,0.4,0.2,0.5c0.7,0.2,0.9,0.5,0.6,1.1c-0.2,0.2-0.5,0.3-0.7,0.2l0,0
		l-0.5-0.4c-0.2-0.2-0.5-0.2-0.7,0c-0.8,1-0.9,2-0.2,3.1c0.2,0.3,0.2,0.6,0.2,0.9c-0.4,1.9-0.1,2.2,1.1,1c0.2-0.2,0.5-0.2,0.6,0
		c0,0,0,0,0,0.1c0.4,0.6,0.2,1.1-0.9,1.5c-0.2,0.1-0.3,0.3-0.3,0.5c0,0,0,0,0,0.1c0.7,1.4,0.8,2.9,0.4,4.4c-0.1,0.3,0,0.6,0.3,0.7
		c1.5,0.8,1.6,1.8,0.5,2.9c-0.2,0.2-0.6,0.4-0.9,0.3c-1.5-0.1-1-2-2.1-2.8l0.2-1.2c1.3-1.6,1.2-2.9-0.5-4l-0.4-6
		c0-0.4,0-0.7,0.2-0.9L92,58z"/>
	<path class="st21" d="M55,67c-0.1-0.8-0.5-1.2-1.2-1v-0.5c1.4-0.7-3.1-4.5-3.8-5.2c-0.4-0.2-0.7-0.6-1-1.1
		c-0.2-0.3-0.1-0.4,0.2-0.2c2.9,1.9,5.1,4.5,6.4,7.7C55.9,67.3,55.6,68.6,55,67z"/>
	<path class="st26" d="M93.2,58.7l1.7,0.5l0.5,2c-0.4,0.6-0.3,1.2,0.3,1.8c-1.1,1.1-1.1,2.2,0,3.3l-0.2,1.9c-1,0.9,0.6,8.7,0.9,10.3
		c0.4,0.7,0.1,1.3-0.7,1.7L93.3,79L93,78.7l-3.4-2.5C89.4,76,89,76,88.7,76.1c-1.2,0.6-2.2,1.5-2.8,2.8c-0.5,0.1-0.9,0-1.2-0.2
		c-0.2-0.2-0.2-0.5,0-0.9c0.5-0.8,0.8-1.7,0.9-2.6l0.8-5.2c0.9-1.6-2.1-1.3-1.2,0l-0.6,0.3c-0.3-1.3,0.3-2.3,1.7-2.8
		c0.3-0.1,0.4-0.4,0.3-0.6c-0.5-1.4,0-2,1.6-1.8v3c-1.2,1.4,1.7,2,1.7,0c1.7,1.1,1.8,2.5,0.5,4L90,72c-0.2-2.6-4.2-0.7-1.8,1.1
		c0.6,1.1,1.2,1.1,2,0.2c1.1,0.8,0.5,2.7,2.1,2.8c0.3,0,0.6-0.1,0.9-0.3c1.1-1.1,1-2.1-0.5-2.9c-0.2-0.1-0.4-0.4-0.3-0.7
		c0.5-1.5,0.3-3-0.4-4.4c-0.1-0.2,0-0.4,0.2-0.5c0,0,0,0,0.1,0c1-0.4,1.3-0.9,0.9-1.5c-0.1-0.2-0.4-0.2-0.6-0.1
		c-1.2,1.2-1.7,1.1-1.2-0.9c0.1-0.3,0-0.6-0.2-0.9c-0.7-1.1-0.6-2.1,0.2-3.1c0.2-0.2,0.5-0.2,0.7,0l0.5,0.4c0.2,0.2,0.5,0.1,0.7-0.1
		l0,0c0.3-0.5,0.1-0.9-0.6-1.1c-0.4-0.1-0.5-0.3-0.2-0.5L93.2,58.7z M92.7,64.4c0.4-0.1,0.6-0.7,0.5-1.3l0,0
		c-0.1-0.7-0.5-1.1-0.9-1.1l0,0c-0.4,0.1-0.6,0.7-0.5,1.3l0,0C91.9,64,92.3,64.4,92.7,64.4z"/>
	<path class="st18" d="M36.4,61c-1.2,0.6-0.4-4.7,0.2-0.7C36.7,60.6,36.6,60.9,36.4,61z"/>
	<path class="st15" d="M79.9,59.4c2.4,3.3-1.7,0.1-0.7-0.2C79.5,59.1,79.8,59.2,79.9,59.4z"/>
	<path class="st19" d="M79.5,65l-0.3,0.5c-2-1.6-3.7-3.4-5-5.6c-0.1-0.2-0.1-0.5,0-0.6l0,0c0.3,0,0.5,0,0.7,0.3
		C76,61.6,77.6,63.5,79.5,65z"/>
	<path class="st20" d="M86.3,59.2c0.9,0,1.4,0.5,1.8,1.2l-0.5,2.8c0,0.3,0.1,0.5,0.3,0.7c0.4,0.2,0.5,0.6,0.3,1
		c-1.5-0.2-2.1,0.4-1.6,1.8c0.1,0.3,0,0.5-0.3,0.6c-1.4,0.5-2,1.5-1.7,2.8c0.7,1.9,0.3,2.2-1.3,0.8c-0.2-0.2-0.3-0.5-0.2-0.8
		L86.3,59.2z"/>
	<path class="st13" d="M50,60.3c0.7,0.7,5.2,4.5,3.8,5.2c-0.6-1.5-1.5-1.5-2.7-0.6c-2.2,1.8-4.3,3.6-6.4,5.6l-1.2-0.7
		C44.1,69,44.3,68,44,67c0.6-1.1,0.5-2.1-0.3-3.2c-0.2-0.3-0.2-0.6-0.1-0.8C45.1,60.4,47.2,59.5,50,60.3z"/>
	<path class="st19" d="M67.8,59.7l0.5,0.5c-0.5,0.6-1.2,0.9-2,0.8l0.2-0.9L67.8,59.7z"/>
	<path class="st6" d="M68.2,60.2l9.5,8.3c-1.8,1.8-6.2,0.5-4.2-0.9c0.2-0.1,0.2-0.3,0.2-0.5c-0.5-1.3-1-2-1.3-2.2
		c-0.3-0.1-0.4,0.1-0.3,0.6c0.1,1-0.3,1.8-1.1,2.5c-1.5-0.5,0-2,0-2.9c0-0.2-0.3-0.4-0.5-0.4c-1,0.2-1.8-0.1-2.6-0.8
		c-0.2-0.2-0.3-0.5-0.1-0.9c0.5-1.4-0.1-1.5-2-0.3c-0.2,0.1-0.5,0.1-0.7-0.1l0,0c-0.3-0.7,0-1.3,1.1-1.7
		C67.1,61.1,67.7,60.8,68.2,60.2z"/>
	<path class="st15" d="M82.8,63L82,64.5l-1.6-1.8c-0.2-0.2-0.2-0.5,0-0.6c0,0,0,0,0.1-0.1c0.4-0.2,0.9-0.1,1.1,0.4
		C81.8,62.9,82.2,63.1,82.8,63z"/>
	<path class="st2" d="M92.3,62c0.9-0.2,1.3,2.2,0.4,2.4C91.8,64.5,91.4,62.2,92.3,62z"/>
	<path class="st8" d="M99.2,62l2.1,0.8c0.1,3.3,1.1,19.4-0.2,21.2l-1-0.8c0.2-0.8-0.2-1.2-1.2-1.2c-0.6,0-1-0.7-1-1.5
		c0.4-3.4,0.8-6.8,1-10.2c0.1-1.8-0.8-3.3,0.8-5.4c0.2-0.2,0.1-0.5-0.1-0.7C98.5,63.3,98.4,62.6,99.2,62z"/>
	<path class="st3" d="M24.3,65.9l1.1-3.5c0.1-0.2,0.3-0.4,0.6-0.3c0.1,0,0.2,0.1,0.3,0.3l1.3,3.5c0.1,0.2,0,0.5-0.3,0.6h-0.1h-2.4
		C24.4,66.5,24.3,66.2,24.3,65.9z"/>
	<path class="st17" d="M95.8,63c2.6,1,2.6,2.1,0,3.3C94.7,65.2,94.7,64.1,95.8,63z"/>
	<path class="st7" d="M44,67c0.3,1,0.2,2-0.5,2.8l-0.8-2.5l-1-1.5C42.8,63.7,43.6,64.1,44,67z"/>
	<path class="st2" d="M53.8,65.5V66c-2.5,0.2-3.8,1.4-4,3.6c0,0.3,0.2,0.5,0.5,0.6l0,0c3.6,0.3,2-3.6,4.2-3c1,2.8,0.5,5.4-1.5,7.7
		L39.1,89.6c-0.2,0.2-0.5,0.3-0.8,0.1l-9.1-6c-0.3-1.3,5.8-3.3,6.9-3.7c1-0.4,2.1-0.5,3.3-0.3c1.1,0.1,2.2,0.3,3.4,0.3
		c-2,8.3,8.9-5.3,0.5-0.2l-0.3-1c1.2-0.7,1.9-1.7,2.1-3.1c0.1-0.3,0.3-0.5,0.5-0.6c2.1-0.6,3.2-1.9,3.3-4.1c0-0.3-0.2-0.4-0.5-0.4
		l-3.3,1.6l-0.5-1.7c2.1-1.9,4.2-3.8,6.4-5.6C52.3,64,53.2,64,53.8,65.5z M48.3,75.9c-0.3,1.6,0.4,2,2,1.1c0.3-0.1,0.5-0.4,0.6-0.7
		c1.5-3.7,0.8-4.1-2.2-1.3C48.5,75.3,48.4,75.6,48.3,75.9z M34.7,85c1.7-0.4,2.5-1.5,2.6-3.3c0-0.3-0.2-0.5-0.4-0.5c0,0,0,0-0.1,0
		c-2.3,0.1-3.2,1.3-2.8,3.4C34.1,84.8,34.4,85,34.7,85z M37.6,85.9c-0.8,7.4,8.8-8,0.4-0.8C37.8,85.3,37.7,85.6,37.6,85.9z"/>
	<path class="st22" d="M77.8,68.5l1,0.7c-0.9-0.1-1.1,0.3-0.8,1.1c0.6,1.4,0.9,2.4,0.9,3c1.2,0.3,1.7,1,1.6,2l0.5,1l-0.7,1.5
		c0.3-0.9,0.2-1.3-0.4-1.4c-0.4-0.1-0.7-0.2-0.8-0.4c-0.8-1-1.7-1.6-2.6-1.7c-0.8-0.4-1.3-0.9-1.5-1.5c-1.6-1.4-3-2.9-4-4.7
		c0.9-0.7,1.2-1.5,1.1-2.5c-0.1-0.5,0-0.8,0.3-0.6c0.4,0.2,0.8,0.9,1.3,2.2c0.1,0.2,0,0.4-0.2,0.5C71.6,69,76,70.3,77.8,68.5z
		 M76.7,70.4c-0.3-0.1-0.6,0.1-0.7,0.4c-0.5,1.2-0.2,1.6,0.7,1.4c0.3-0.1,0.6-0.3,0.7-0.6C77.7,71,77.5,70.6,76.7,70.4z"/>
	<path class="st12" d="M66,65.2l-0.3,1C64,65.5,64.1,65.2,66,65.2z"/>
	<path class="st21" d="M79.5,65c0.9-0.1,1.4,0.2,1.5,0.9c0,0.3-0.2,0.5-0.5,0.5c0,0,0,0-0.1,0c-0.5-0.1-0.9-0.4-1.2-1L79.5,65z"/>
	<path class="st23" d="M66,65.2c1.4,0,1.9,0.6,1.7,1.8h-2.2C65.6,66.6,65.9,65.6,66,65.2z"/>
	<path class="st16" d="M41.7,65.7l1,1.5C41,69.1,40.7,68.6,41.7,65.7z"/>
	<path class="st13" d="M55,67l-0.5,0.2c-2.2-0.6-0.6,3.3-4.2,3c-0.3,0-0.5-0.3-0.5-0.6l0,0c0.2-2.2,1.5-3.4,4-3.6
		C54.5,65.8,54.9,66.2,55,67z"/>
	<path class="st6" d="M35.9,67.6c0.4,0.1,4.8,1.5,3.9,1.8c-0.2,0.1-0.4,0.1-0.6,0c-1.3-0.4-3.7,0-3.8-1.5
		C35.4,67.7,35.5,67.6,35.9,67.6C35.8,67.6,35.9,67.6,35.9,67.6z"/>
	<path class="st23" d="M57.7,67.6l9.2,0.6c0.4,0,0.7,0.2,0.9,0.4l0.9,1.3c0.2,0.2,0.2,0.6,0,1c-0.4,1.1-1,1.3-1.9,0.7
		c-0.2-0.2-0.3-0.5-0.2-0.8c0.4-1.8,0-2-1.3-0.6c-0.2,0.2-0.3,0.6-0.2,0.9c0.3,1,0.9,1.6,1.8,1.9c0.2,0.1,0.5,0,0.9-0.1
		c0.6-0.2,1.5,0,1.5,0.7c0.2,1.5,0.4,3,1.8,3.9c3.2,2,5,1,5.4-3.2c0.9,0.2,1.7,0.7,2.6,1.7c0.2,0.2,0.4,0.3,0.8,0.4
		c0.5,0.1,0.6,0.6,0.4,1.4c-0.1,0.6,0.1,1,0.8,1l2.8,2L83.5,81l-10.8-0.5C69,76.8,65,73.3,60.9,70.1c-0.3-0.2-0.6-0.3-0.9-0.2
		c-1.2,0.1-2.3-0.1-3.3-0.6C56.4,68.3,56.7,67.8,57.7,67.6z M64.3,69.6c0-0.4-0.3-0.6-0.6-0.6c-0.8,0-0.7,1.2,0,1.2
		C64,70.3,64.3,70,64.3,69.6z M77.2,78.5c-0.3-0.7-1-0.4-1.1,0.2c-0.2,1.2,0.5,1.6,2.2,1.3c0.7-0.2,1.1-0.8,1-1.5
		c0-0.1,0-0.1-0.1-0.2c-0.3-0.9-0.9-1.5-1.6-1.8c-0.3-0.1-0.4,0-0.3,0.3c0.2,0.6,0.3,1.2,0.2,1.7C77.4,78.8,77.3,78.8,77.2,78.5z"/>
	<path class="st7" d="M29.2,67.7c1.7,0.8,2.7,2.3,2.9,4.3c0,0.3-0.1,0.6-0.4,0.8c-1.5,1-1.5,2.1-0.2,3.3c0.3,0.2,0.4,0.5,0.4,0.8
		c0.1,2.5-0.8,4.2-2.9,5.2c-0.4,0.2-0.5,0.1-0.4-0.3l1.8-4.3c0.1-0.3,0.1-0.6-0.1-0.7c-0.9-0.7-1.6-1.5-2-2.4
		c-0.1-0.2-0.1-0.6,0.2-0.7c2.1-1.6,2.1-3.4-0.1-5.3L28.2,68L29.2,67.7z"/>
	<path class="st8" d="M26.5,68h1.8l0.2,0.2L28.3,69c-0.1,0.2,0,0.6,0.2,0.9c0.8,1.5,0.5,2.7-1.1,3.6c-0.2,0.1-0.4,0.1-0.5-0.1
		c0,0-0.1-0.1-0.1-0.2l-0.1-2.6c0-0.3-0.1-0.6-0.3-0.8C26,69.3,26,68.7,26.5,68z"/>
	<path class="st2" d="M88.3,68H90C90,70,87.1,69.4,88.3,68z"/>
	<path class="st7" d="M95.5,68.2c3.4,0.5,1.4,8.2,0.9,10.3C96.1,76.9,94.5,69.1,95.5,68.2z"/>
	<path class="st2" d="M63.6,69c0.8,0,0.8,1.2,0,1.2C62.8,70.2,62.8,69,63.6,69z"/>
	<path class="st7" d="M86.5,70h-1.2C84.3,68.7,87.4,68.4,86.5,70z"/>
	<path class="st7" d="M33.7,76.3l-1-1.6c-0.1-0.2,0-0.4,0.2-0.5c0,0,0,0,0.1,0c0.8-0.3,1.6-1.4,1-2.2c-2.2-3.2-1.4-3.6,2.5-1.3
		c0.2,0.1,0.3,0.4,0.1,0.6l0,0c-1.8,2.2-1.9,4.5-0.3,6.7c0.2,0.2,0.1,0.5-0.1,0.7c-3.7,2.7-4.5,2.2-2.4-1.6
		C33.9,76.9,33.9,76.6,33.7,76.3z"/>
	<path class="st17" d="M56.7,69.2c1,0.5,2.1,0.7,3.3,0.6c0.3,0,0.7,0.1,0.9,0.2c4.2,3.2,8.1,6.7,11.8,10.4h-1l-10.6-9.2
		c-0.2-0.2-0.5-0.3-0.9-0.4C60.1,70.9,54.2,70.8,56.7,69.2z"/>
	<path class="st7" d="M78.8,69.2c1.6,0.8,2,2,1.2,3.5l-1.1,0.5c0-0.6-0.3-1.6-0.9-3C77.6,69.5,77.9,69.1,78.8,69.2z"/>
	<path class="st7" d="M76.7,70.4c0.8,0.2,1.1,0.6,0.8,1.2c-0.1,0.3-0.4,0.5-0.7,0.6c-0.9,0.2-1.2-0.2-0.7-1.4
		C76.1,70.5,76.4,70.3,76.7,70.4z"/>
	<path class="st13" d="M43,78.7c0.2-0.9-6.5-1.7,0-1.5c0.3,0,0.7-0.1,0.8-0.4c0.4-0.5,0.2-0.9-0.4-1.1c-0.2-0.1-0.6-0.1-0.9,0
		c-0.4,0.1-0.9,0.1-1.3-0.1c-0.3-0.1-0.2-0.2,0.1-0.3l3.4-0.7c0.2,0,0.4-0.2,0.5-0.4c0.4-1-2.9-0.5-3.3-0.5c-0.3,0-0.6-0.1-0.7-0.3
		c-0.1-0.3,3-0.8,3.5-1.2l0.5-0.2l3.3-1.6c0.3-0.1,0.4,0.1,0.4,0.4c-0.1,2.1-1.2,3.5-3.3,4.1c-0.3,0.1-0.5,0.3-0.5,0.6
		C44.9,77.1,44.2,78.1,43,78.7z"/>
	<path class="st2" d="M44.8,72.5c-0.5,0.4-3.6,0.9-3.5,1.2c0.1,0.2,0.4,0.3,0.7,0.3c0.4-0.1,3.7-0.6,3.3,0.5
		c-0.1,0.2-0.3,0.4-0.5,0.4l-3.4,0.7c-0.3,0.1-0.4,0.2-0.1,0.3c0.6,0.4,1.6-0.1,2.2,0.1c0.6,0.2,0.8,0.6,0.4,1.1
		c-0.2,0.2-0.5,0.4-0.8,0.4c-6.5-0.2,0.1,0.5,0,1.5c-8.3,3.2-10.2-9.1-0.8-7.9C43.5,71,44.3,71.5,44.8,72.5z"/>
	<path class="st2" d="M90,72l-1.8,1C85.8,71.2,89.8,69.4,90,72z"/>
	<path class="st21" d="M55.2,74H55c0-1,0.3-1.9,0.9-2.6c0.3-0.3,0.4-0.3,0.4,0.1C56.3,72.5,56,73.3,55.2,74z"/>
	<path class="st10" d="M71.3,71.4c1.1-0.8,1.4-0.7,0.8,0.4c-0.2,0.3-0.5,0.6-0.7,0.5c-0.2,0-0.3-0.1-0.4-0.3
		C70.9,71.9,71,71.6,71.3,71.4z"/>
	<path class="st6" d="M69.5,80.2l-0.7,0.3c-1.6-1.4-8.5-8.2-10.3-7.2c-1.1,0.1-1.4-0.2-0.9-1.2c0.6-1.1,1.7-1,3.4,0.5L69.5,80.2z"/>
	<path class="st12" d="M90,72l0.5,0.1l-0.2,1.2c-0.8,0.9-1.4,0.9-2-0.2L90,72z"/>
	<path class="st19" d="M80,72.7l1,2.2l-0.5,0.3c0.1-1-0.4-1.6-1.6-2L80,72.7z"/>
	<path class="st5" d="M68.8,80.5c-0.8,0.4-1.6,0.3-2.3-0.3c-2.2-2.5-4.8-4.7-7.7-6.5l-0.3-0.5C60.3,72.3,67.2,79.1,68.8,80.5z"/>
	<path class="st7" d="M82.2,73.3c2.1-2.3-0.3,3.4-0.3,0.8C81.9,73.9,82,73.6,82.2,73.3z"/>
	<path class="st13" d="M48.8,75.1c3-2.8,3.7-2.4,2.2,1.3c-0.1,0.3-0.3,0.6-0.6,0.7c-1.7,0.9-2.3,0.5-2-1.1
		C48.4,75.6,48.5,75.3,48.8,75.1z"/>
	<path class="st21" d="M84.8,73.7c-0.5,1.8-1.4,3.1-2.6,4C82.6,76,83.4,74.7,84.8,73.7z"/>
	<path class="st7" d="M58.8,73.7c2.9,1.8,5.5,3.9,7.7,6.5l-0.8,0.1L59,74.7c-0.2-0.2-0.3-0.4-0.3-0.6L58.8,73.7z"/>
	<path class="st24" d="M55,74l0.2,0.1l-1.7,3l-0.3,0.2c-1.6,0.5-2.7,1.5-3.5,3v0.5l-1.2,1c-2.2,1.4-4.1,3.1-5.8,5.2L39,90.6
		c-0.2,0.2-0.5,0.2-0.8,0.1L30,85.1c-0.2-0.1-0.4-0.2-0.6-0.1c-0.1,0-0.2,0.1-0.2,0.2l-0.8-0.4c0.7-0.4,0.6-0.8-0.2-1l1-0.1l9.1,6
		c0.2,0.2,0.6,0.1,0.8-0.1L53,75L55,74z"/>
	<path class="st24" d="M84.8,73.7c0.1,1,0.4,1.6,0.9,1.6c-0.1,0.9-0.4,1.8-0.9,2.6c-0.5,0.8,0.4,1.5,1.2,1.1
		c-0.3,1.3-1.1,1.9-2.2,1.8l-2.8-2C82.7,77.5,84.2,76,84.8,73.7z"/>
	<path class="st8" d="M28.8,76.2c0.6,0.4,0.8,1.1,0.6,1.9c-0.6,2-1.2,3.2-1.7,3.5c-0.2,0.1-0.3,0.2-0.4,0.2c-0.2,0-0.4-0.2-0.4-0.5
		l0,0l-0.3-5c-0.1-1,1.1-1.8,1.6-0.8C28.3,75.8,28.5,76,28.8,76.2z"/>
	<path class="st18" d="M81,75c1.2,0.1,1.2,0.5,0,1.3l-0.5-1L81,75z"/>
	<path class="st7" d="M63.5,80.2l-0.8,0.2L58.3,77c-0.3-0.2-0.6-0.3-0.9-0.3L55,76.5C57.6,73.9,61.5,77.9,63.5,80.2z"/>
	<path class="st15" d="M93,78.7c-1.2-0.1-2.3-0.5-3.2-1.4c-0.2-0.2-0.6-0.3-0.8-0.2c-1.1,0.4-1.8,1.2-2.2,2.3L86,79
		c0.6-1.3,1.6-2.2,2.8-2.8c0.3-0.1,0.6-0.1,0.9,0.1L93,78.7z"/>
	<path class="st2" d="M77.5,78.5c0.1-0.5,0-1.1-0.2-1.7c-0.1-0.3,0-0.4,0.3-0.3c0.7,0.3,1.3,0.8,1.6,1.8c0.3,0.7-0.1,1.4-0.7,1.7
		c-0.1,0-0.1,0-0.2,0.1c-1.7,0.4-2.4,0-2.2-1.3c0.1-0.7,0.9-0.9,1.1-0.2C77.3,78.8,77.4,78.8,77.5,78.5z"/>
	<path class="st8" d="M55,76.5l2.5,0.2c0.3,0,0.6,0.2,0.9,0.3l4.4,3.4l-13,0.3v-0.5l3.5-3l0.3-0.2L55,76.5z"/>
	<path class="st15" d="M53.2,77.2l-3.5,3C50.5,78.7,51.7,77.7,53.2,77.2z"/>
	<path class="st22" d="M93,78.7l0.2,0.2c-0.3,0.3-0.3,0.6,0,0.8c4.2,2.7,6.8,4.5,8,5.3l-0.2,1.2c-1.1,1.2-1.8,2.6-2.3,4.1
		c-0.1,0.3,0,0.7,0.2,0.9l1.7,1.7l0.2,1.4c-1.9,1.3-2.2,2.9-0.8,4.8h-1c-1.7-2-1.5-3.7,0.6-5c0.2-0.1,0.2-0.4,0.1-0.6c0,0,0,0,0-0.1
		L97.5,91c-0.2-0.2-0.2-0.5,0-0.8l2.1-3.8c0.2-0.3,0.1-0.5-0.3-0.4c-3.4,0.3-3.9,5.1-1.8,7.1c0.7,0.7-0.7,1.8-1.2,2.1
		c-0.3,0.2-0.4,0.5-0.3,0.7c0.3,1.6,1.1,2.9,2.2,4c0.5,0.2,0.6,0.5,0.4,0.8c-0.2,0.2-0.5,0.3-0.8,0.1l-1.7-0.8
		c-0.3-0.2-0.7-0.2-0.9,0c-1.3,0.7-1.4,1.6-0.3,2.9c0.2,0.3,0.3,0.6,0.2,0.8c-0.2,0.5-0.6,1-1.1,1.3c-0.3,0.2-0.4,0.4-0.2,0.7
		l0.2,0.5c0.1,0.3,0.1,0.6,0,0.9c-0.3,0.8-0.2,1.6,0.3,2.3c-1.6,1.4-1.4,1.9,0.5,1.5c2.9,1.7-3.2,1.1-3.3,0.5
		c-1.2-2-1.4-4.1-0.4-6.2c0.1-0.3,0.4-0.4,0.7-0.4c3.1,0.3,0.5-2.4-1-2.6c-0.3,0-0.6,0.1-0.9,0.3l-9.8,7.7l-1-1
		c0.6-0.1,0.7-0.3,0.2-0.8c3.7-0.5,5.5-2.5,5.3-6.1c0.9,2,1.5,1.9,1.9-0.4l0.9-2.5c0.1-0.2,0.3-0.3,0.4-0.2h0.1
		c1.1,0.9,1.8,0.6,2-1.2l1.5-1.2c4.6,3.1,5.5,2.7,2.6-1.3c-0.3-0.4-0.2-0.9,0.2-1.1c0.1,0,0.1-0.1,0.2-0.1c1.6-0.6,1.7-1.4,0.4-2.2
		c-0.3-0.2-0.4-0.5-0.3-0.8l1.3-3.5c0.1-0.3,0-0.4-0.3-0.3l-4,1.5l-0.7,0.5L90,89l0.5-0.7l8.2-3.3c0.5-0.2,0.5-0.5,0.1-0.8L90,78.4
		c-0.5-0.3-1-0.2-1.4,0.1c-4.5,4.8-8.9,9.6-13.4,14.3c-2.1,2.2-2.6,4.8-1.6,7.7L73,101c-0.1-0.6-0.4-0.9-1-0.8l-0.8-0.8v-1.2
		c0.2-0.2,0.2-0.4,0.2-0.6c-0.1-0.2-0.4-0.4-0.8-0.4L67.7,97c-0.3,0-0.6-0.1-0.9-0.4l-9.6-8.5c0.8-0.5,1.5-0.4,2.3,0.3l7.8,6.9
		c0.4,0.5,2.5,0.2,3.1,0.3c0.3,0,0.3-0.2,0.3-0.4c-0.1-0.2-0.3-0.3-0.6-0.2c-3.3,0.3-7.4-4.6-9.9-6.7c0.6-0.4,1.3-0.4,2,0
		c1.8,2.2,4,4.1,6.4,5.6c1.5,0.9,2.5,0.9,2.9,0c0.3-0.6-0.5-0.9-2.4-0.9c-0.4,0-0.8-0.1-1.1-0.4l-5-4.3c0.7-0.4,1.3-0.4,2,0
		c1.7,2.3,4.9,5.4,7.5,3.2l4.4-3.6c-1.7,2.8-3.8,4-5.1,7.2c-0.1,0.3-0.1,0.4,0.1,0.1l5.5-7.2l2.8-2.3l3.2-3.5l3-2.8
		c0.4-1.2,1.1-2,2.2-2.3c0.3-0.1,0.6,0,0.8,0.2C90.7,78.2,91.8,78.7,93,78.7z M90.8,100.1c5,1.3-0.4-3.2-0.5-0.6
		C90.3,99.7,90.5,100,90.8,100.1z M91.7,107.4c-0.4-0.3-0.6-0.2-0.5,0.3c0.1,1.3,0.5,1.6,1,1C92.6,108.1,92,107.8,91.7,107.4z"/>
	<path class="st2" d="M90.5,88.3l-4.8-0.4c-0.2,0-0.4-0.2-0.4-0.4l0,0c1.7-8.2-7.2,4.2-1.7,1.1c0.7-0.4,1.6-0.4,1.4,0.7
		c-1.2,0.6-1.9,1.5-2.1,2.9c0,0.3-0.2,0.5-0.5,0.6c-2.1,0.6-3.3,2-3.6,4.1c0,0.3,0.2,0.4,0.4,0.4c1.1-0.2,2.1-0.7,2.9-1.5
		c0.1-0.1,0.4-0.2,0.5,0l0.1,0.1l0.6,1.2c0.1,0.2,0,0.6-0.2,0.8l-6.8,5.7c-0.4,0.3-0.6,0.3-1,0.3l-0.5-1c-0.4-0.5-0.2-1.1,0.5-1.1
		c1.7-0.3,2.6-1.2,2.9-2.6c0.3-1.3-0.2-1.7-1.5-1.3c-1.5,0.5-2.3,3.6-3.1,2.7c-1-2.9-0.5-5.4,1.6-7.7c4.5-4.8,8.9-9.5,13.4-14.3
		c0.4-0.4,1-0.4,1.4-0.1l8.8,5.8c0.5,0.3,0.5,0.6-0.1,0.8L90.5,88.3z M89.7,80.2c-2.4,0.1-5,6.2-0.4,3c1-0.7,1.4-1.5,1.1-2.5
		C90.3,80.4,90,80.2,89.7,80.2z M91.5,84.1c-1.5,2.5-0.9,3.1,1.9,1.8c0.8-0.4,1.2-1.3,1-2.1c-0.4-1.3-1-1.6-2-0.8
		C92.1,83.3,91.8,83.7,91.5,84.1z M79.7,91.9c-0.6-3.7-3.6,0.4-3.6,2.1c0,0.2,0.3,0.4,0.5,0.4c1.1-0.2,2-0.8,2.8-1.6
		C79.7,92.5,79.8,92.2,79.7,91.9z"/>
	<path class="st13" d="M42.8,80l0.5-0.2C51.7,74.7,40.7,88.3,42.8,80z"/>
	<path class="st21" d="M86,79l0.8,0.5l-3,2.8l-0.3-0.8l0.1-0.5l0.2-0.2C84.9,80.9,85.7,80.3,86,79z"/>
	<path class="st15" d="M93.3,79l2.5,1.3l4.2,2.9l1,0.8c0.6,0.2,0.7,0.6,0.2,1.1c-1.2-0.8-3.8-2.6-8-5.3C93,79.6,93,79.3,93.3,79z"/>
	<path class="st2" d="M63.5,80.2c0.8,0.7,1.5,0.8,2.2,0.1l0.8-0.1c0.7,0.6,1.5,0.7,2.3,0.3l0.7-0.3c0.7,0.7,1.5,0.8,2.3,0.3h1
		L83.5,81l-0.1,0.5l-0.7,0.8l-34.2-0.1v-0.4l1.2-1l13-0.3L63.5,80.2z"/>
	<path class="st13" d="M89.3,83.3c-4.6,3.1-2-2.9,0.4-3C91.1,80.5,90.5,82.7,89.3,83.3z"/>
	<path class="st13" d="M34.1,84.6c-0.4-2.1,0.5-3.2,2.8-3.4c0.3,0,0.5,0.2,0.5,0.4c0,0,0,0,0,0.1c-0.1,1.8-1,2.8-2.6,3.3
		C34.4,85,34.1,84.9,34.1,84.6L34.1,84.6z"/>
	<path class="st16" d="M83.5,81.5l0.3,0.8l-3.2,3.5l-0.3-0.3l2.5-3.2L83.5,81.5z"/>
	<path class="st16" d="M48.5,81.8v0.4c-1.7,1.1-3,2.5-4,4.2l-1,0.5h-0.7C44.4,84.9,46.3,83.2,48.5,81.8z"/>
	<path class="st5" d="M48.5,82.2l34.2,0.1l-2.5,3.2c-1.3,1.6-2.2,1-3.9,1c-10.6,0-21.2,0-31.8,0C45.5,84.7,46.8,83.3,48.5,82.2z"/>
	<path class="st13" d="M91.5,84.1c0.3-0.4,0.6-0.8,0.9-1.1c1-0.8,1.6-0.5,2,0.8c0.2,0.9-0.2,1.8-1,2.1C90.7,87.2,90,86.6,91.5,84.1z
		"/>
	<path class="st16" d="M28.2,83.8c0.9,0.2,0.9,0.6,0.2,1C26.4,83.5,26.4,83.2,28.2,83.8z"/>
	<path class="st13" d="M38.1,85.1c8.3-7.1-1.2,8.2-0.4,0.8C37.7,85.6,37.8,85.3,38.1,85.1z"/>
	<path class="st15" d="M42.8,87h0.7v0.7L42.7,88c-0.1,0-0.4,0.2-0.7,0.6l-3.4,3.2l-5-3.6L30.2,86l-0.8-0.6l-0.2-0.2
		c0.1-0.3,0.6-0.2,0.8-0.1l8.2,5.5c0.2,0.2,0.6,0.1,0.8-0.1L42.8,87z"/>
	<path class="st13" d="M90.5,88.3L90,89c-1.8-0.8-3.4-0.7-5,0.3c0.2-1.2-0.7-1.1-1.4-0.7c-5.5,3.2,3.4-9.3,1.7-1.1
		c0,0.3,0.1,0.4,0.4,0.4L90.5,88.3z"/>
	<path class="st8" d="M29.5,85.5l0.8,0.6c-0.4,3.7-0.8,7.4-1.2,11.1c-0.2,1.6,0.6,3.5-0.5,5.4c-0.2,0.3-0.2,0.6-0.1,0.9
		c0.6,1.7,0.2,1.9-1.4,0.6c-0.2-0.2-0.4-0.5-0.4-0.8l0.1-17.1c0-0.3,0.2-0.5,0.5-0.5L29.5,85.5z"/>
	<path class="st2" d="M80.2,85.5l0.3,0.3L77.8,88l-0.6-0.1l-4.4,3.6h-0.7c-1.6-1.4-3.5-2.5-5.5-3.2h-1.3c-0.7-0.4-1.4-0.4-2,0h-1
		c-0.7-0.4-1.4-0.4-2,0l-0.8,0.2c-0.7-0.7-1.5-0.8-2.3-0.3h-0.7L52.7,88c-0.3,0-0.5,0.2-0.6,0.5c-0.3,1.4-0.7,1.6-1.5,0.5
		c-0.2-0.3-0.4-0.3-0.5,0c-0.3,0.7,0,1.2,0.9,1.4c0.3,0.1,0.6,0.1,0.9-0.1c4-1.6,6.1-0.4,6.5,3.6c0,0.6,0.6,1.1,1.2,1
		c4.9-0.3,2.9,4.5,1.6,3.4c-0.2-0.2-0.2-0.5,0-0.8c0.6-0.9,0.4-1.5-0.7-1.6c-0.3,0-0.6,0.1-0.9,0.3c-0.9,1.1-0.6,2.2,0.9,3.2
		c1.3,0.9,2.6,1,4,0.5c2-0.7,3.9-0.6,5.7,0.4c1.5,1.5,2.2,3.3,2.3,5.5c0,1.8,0.6,3.3,1.7,4.6c0.2,0.2,0.5,0.3,0.8,0.2
		c1.8-1.1-1.1-3-1.5-4.2c0.5-0.4,1.1-0.5,1.3,0.3c0.3,0.8,0.8,1.4,1.6,2c0.3,0.2,0.5,0.5,0.6,0.8c0.3,1.2-0.3,2-1.7,2.5
		c-6.2-0.2-1.2-13.3-9-10.9c-0.3,0.1-0.6,0.3-0.7,0.6c-1.6,3.1,3.2,3.8,1.9,2.2c-0.1-0.2-0.4-0.2-0.7-0.1c-0.6,0.2-0.8-0.9,0-1
		c1.8-0.7,2.6,0.1,2.2,2.2c0,0.3,0.1,0.6,0.3,0.7c1.7,1,2,2.4,1,4l-0.3-0.3c-0.2-2.3-1.5-3.5-4.1-3.6c-0.9-0.7-1.6-1.6-2-2.6
		c-0.1-0.3-0.1-0.6,0.1-0.9c0.5-1.2,0-1.5-1.7-0.8c-1.7-0.6-3.1-1.4-4.2-2.5c0-2.5-0.4-4.8-1.2-6.9c-0.1-0.3-0.3-0.6-0.6-0.7
		c-2-1.2-3.1-0.7-3.3,1.6c0,0.3,0.2,0.6,0.5,0.7c0.5,0.1,0.8-0.2,0.8-0.9c0-0.3,0.2-0.5,0.4-0.4c0,0,0,0,0.1,0
		c1.7,0.4,0.4,2.9-1.5,2.7l-1.5-1.3c0.8-3.4-3.6-1.3-2.9-4.9c0.1-0.3-0.1-0.6-0.3-0.7c-0.3-0.1-0.7-0.1-1,0c-1.4,0.3-2.7,0.2-4-0.3
		v-0.7l1-0.5c10.6,0,21.2,0.1,31.8,0C78.1,86.5,78.9,87.1,80.2,85.5z"/>
	<path class="st7" d="M99,99c-0.1,0.6-0.4,0.8-1,0.8c-1.1-1.1-1.8-2.4-2.2-4c-0.1-0.3,0.1-0.6,0.3-0.7c0.5-0.3,1-0.8,1.3-1.3
		c0.1-0.2,0.1-0.5-0.1-0.8c-2.1-2-1.6-6.8,1.8-7.1c0.4,0,0.5,0.1,0.3,0.4l-2.1,3.8c-0.2,0.3-0.1,0.6,0,0.8l2.2,2.4
		c0.2,0.2,0.2,0.4,0,0.6c0,0,0,0-0.1,0C97.5,95.3,97.3,97,99,99z"/>
	<path class="st8" d="M101,86.2c0.3,0,0.3,0,0.4,0.3l-0.2,5.2c0,0.3-0.1,0.6-0.4,0.8l-0.4,0.3l-1.7-1.7c-0.2-0.2-0.3-0.5-0.2-0.9
		C99.2,88.8,99.9,87.4,101,86.2z"/>
	<path class="st7" d="M91.2,96.7c2.1-2.5,2.2-5.1,0.3-7.7l3.8-1.6c0.3-0.1,0.4,0,0.3,0.3l-1.3,3.5c-0.1,0.3,0,0.6,0.3,0.8
		c1.3,0.9,1.2,1.6-0.4,2.2c-0.4,0.2-0.6,0.6-0.4,1c0,0.1,0.1,0.1,0.1,0.2C96.7,99.4,95.8,99.8,91.2,96.7z"/>
	<path class="st24" d="M43.5,87.7c1.3,0.5,2.6,0.6,4,0.3c-0.3,0.7-0.3,1.4,0.2,2l-1.1,2.1c-0.2,0.3-0.1,0.6,0,0.7
		c0.9,0.7,1.3,0.3,1.4-1.3c1.1,1,2.3,1.8,3.7,2.2l1.5,1.3L53,95.3c-0.2,0.2-0.1,0.5,0.1,0.7c1.5,1.4,3.1,2.4,5,3
		c1.1,1.1,2.5,2,4.2,2.5v0.2l-0.3,1l-3.9-2c-1-0.9-1.9-0.7-2.8,0.5c-1.1-0.2-1.3-0.7-0.6-1.4c0.2-0.2,0.2-0.5,0-0.7l0,0
		c-0.7-0.7-1.6-0.9-2.7-0.9l-0.5-0.8c1.1-2.4,0.7-2.7-1.2-0.8L49.5,97c-0.2-0.4-0.4-0.6-0.1-1.1c0.5-0.8,0.4-1.2-0.3-1.1
		c-0.1,0-0.4,0.2-0.8,0.5l-1.4,1c-0.9-0.1-1.5,0.3-2,1c-0.7-1.1-1.3-1.4-1.7-0.9c-0.2,0.2-0.1,0.5,0.1,0.8c0.4,0.5,0.5,1,0.4,1.4
		c-0.1,0.3-0.3,0.3-0.4,0c-0.4-0.7-1.1-0.8-2-0.3c-0.9-1.8,1.1-4.3,1-6.8c0-0.6-0.3-0.8-0.8-0.4l-1.9,1.6c-0.2,0.2-0.6,0.2-0.8,0
		c-0.2-0.3-0.4-0.6-0.3-1l3.4-3.2c0.4-0.4,0.6-0.6,0.7-0.6L43.5,87.7z M45,90.9c0,3,1.8-1.5,0.3-0.6C45.2,90.5,45.1,90.7,45,90.9z
		 M43.1,94c-0.4,0.6,0.4,0.9,0.6,0.3v-0.1c0.2-0.9,2-2.1,0.8-2.2c-0.6-0.1-1.1,0.7-1.1,1.2C43.4,93.5,43.3,93.8,43.1,94z M45.1,94.3
		c0.3,1.8,1.3,0.4,0.7-0.6C45.2,92.5,44.9,92.7,45.1,94.3z"/>
	<path class="st23" d="M56.5,88.3c4.3,4.5,7.7,7.7,10.3,9.4c0.8,0.6,2.3,0.8,4.4,0.6v1.2l-1,1c-1.8-1-3.7-1.2-5.7-0.4
		c-1.4,0.5-2.7,0.3-4-0.5c-1.5-1-1.8-2.1-0.9-3.2c0.2-0.2,0.5-0.4,0.9-0.3c1.1,0.1,1.3,0.6,0.7,1.6c-0.2,0.3-0.2,0.6,0,0.8
		c1.3,1.1,3.3-3.7-1.6-3.4c-0.6,0-1.2-0.4-1.2-1c-0.3-4.1-2.5-5.3-6.5-3.6c-0.3,0.1-0.7,0.2-0.9,0.1c-0.9-0.3-1.2-0.8-0.9-1.4
		c0.1-0.3,0.3-0.3,0.5,0c0.7,1.1,1.2,1,1.5-0.5c0.1-0.3,0.3-0.6,0.6-0.5L56.5,88.3z M63.8,98.4c-0.1,0.4,0.1,0.6,0.5,0.5
		c0.3,0,0.5-0.3,0.6-0.6c0.1-0.6-0.1-0.9-0.6-0.6C64.1,97.8,63.9,98.1,63.8,98.4z"/>
	<path class="st26" d="M47.5,88c0.4-0.1,0.7-0.1,1,0c0.2,0.1,0.4,0.4,0.3,0.7c-0.7,3.6,3.8,1.5,2.9,4.9c-1.4-0.5-2.6-1.2-3.7-2.2
		L47.7,90C47.2,89.4,47.2,88.8,47.5,88z"/>
	<path class="st17" d="M66.5,88.2c1.4,2,3.2,3,5.5,3.2h0.7c-2.6,2.2-5.8-0.9-7.5-3.2H66.5z"/>
	<path class="st15" d="M77.2,87.9l0.6,0.1l-5.5,7.2c-0.2,0.3-0.2,0.2-0.1-0.1C73.4,91.9,75.5,90.7,77.2,87.9z"/>
	<path class="st26" d="M33.5,88.2l5,3.6c0,0.4,0.1,0.7,0.3,1c0.2,0.2,0.5,0.2,0.8,0l1.9-1.6c0.5-0.4,0.7-0.3,0.8,0.4
		c0.1,2.4-1.9,4.9-1,6.8c0.1,0.6,0.5,0.9,1.1,0.8c0.2,0,0.4,0.1,0.5,0.2c0,0.1,0,0.2,0,0.4c-0.1,0.2-0.4,0.4-0.8,0.5
		c-0.8,0.3-1,0.8-0.6,1.6c0.6,1-0.8,1.4-1.7,1.1c0-0.8,0-3.4,0-4.2c0.8-0.4,1-1,0.5-1.8c0.4-0.8,0.3-1.5-0.3-2
		c-0.2-0.2-0.4-0.4-0.7-0.7c-0.4-0.5-0.8-0.4-1.3,0.2c-0.8-0.1-1.1-0.6-1.1-1.4c0-0.3-0.1-0.6-0.3-0.8c-1.3-0.8-2.1-0.4-2.5,1.2
		c0.2,0.8,0.6,1.2,1.4,1.2l0.4,5.5c0,0.3-0.1,0.5-0.4,0.6c-1.1,0.4-1.2,0.9-0.3,1.7v0.7c-0.7,0.9-0.7,1.8,0.1,2.4
		c0.2,0.2,0.4,0.1,0.6,0c0,0,0-0.1,0.1-0.1c0.3-0.6,0.3-1.3-0.1-2.1c0-0.1,0.1-0.2,0.2-0.3c1.7,3.2,1.5,4.4-0.6,3.6
		c-0.6-0.2-1.3-0.1-1.1,0.6c0,0.2,0.3,0.5,0.6,0.6c0.8,0.3,0.7,0.8-0.3,1.5c-0.2,0.2-0.6,0.3-1.2,0.5L32,120.3
		c-0.7-1.1-0.9-2.4-0.6-3.8c1-3.2,1.5-6.4,1.5-9.8l0.3-3.1c0.1-1.1-0.4-1.9-1.3-2.5l0.8-1.8c0-3.5-0.4-7-1.2-10.5L33.5,88.2z"/>
	<path class="st18" d="M56.5,88.3h0.7l9.6,8.5c0.2,0.2,0.6,0.3,0.9,0.4l2.9,0.2c0.7,0,1.1,0.5,0.6,1c-2.1,0.2-3.6,0-4.4-0.6
		C64.2,95.9,60.8,92.8,56.5,88.3z"/>
	<path class="st18" d="M60.2,88.3c2.4,2.1,6.6,7,9.9,6.7c0.3,0,0.6,0.1,0.6,0.2c0,0.3,0,0.4-0.3,0.4c-0.6-0.1-2.7,0.2-3.1-0.3
		l-7.8-6.9L60.2,88.3z"/>
	<path class="st6" d="M62.2,88.3h1l5,4.3c0.3,0.3,0.7,0.4,1.1,0.4c1.8,0,2.6,0.3,2.4,0.9C70.4,96.7,63.3,89.7,62.2,88.3z"/>
	<path class="st8" d="M66.5,88.2c2,0.7,3.9,1.8,5.5,3.2C69.7,91.3,67.9,90.2,66.5,88.2z"/>
	<path class="st2" d="M90,89l0.8,0.5c2.1,3.2,1.5,5.7-1.8,7.5c-1.3,0.7-2.6,0.7-4,0c-4.5-2.3,1.2-2,1.5-2.2c0.4-0.3,0.3-0.4-0.3-0.5
		l-2.4-0.1c-0.8,0-1.2-0.9-0.5-1.3c0.2-0.2,0.5-0.2,0.9-0.2c0.9,0.1,1.7,0,2.5-0.2c0.3-0.1,0.3-0.2,0-0.2c-2.9,0-3.5-0.5-2-1.7
		c0.2-0.1,0.4-0.2,0.7-0.2c4.8,0.5-0.2-0.6-0.5-1.3C86.6,88.3,88.2,88.2,90,89z"/>
	<path class="st7" d="M31.5,89c0.8,3.5,1.2,7,1.2,10.5c-0.7,0-1.4-0.2-1.9-0.6c-0.2-0.2-0.4-0.5-0.3-0.9L31.5,89z"/>
	<path class="st13" d="M91.5,89c1.9,2.6,1.8,5.2-0.3,7.7L89.7,98c-1,0.5-2.1,0.7-3.2,0.5L84.8,98c-1.5-0.5-0.5,3.8-0.4,4.2
		c0.2,3.6-1.6,5.6-5.3,6.1c-1.6-1.1-3-2.4-4-4l0.3-0.5c0.4,0,0.7,0,1-0.3l6.8-5.7c0.2-0.2,0.3-0.5,0.2-0.8l-0.6-1.2
		c-0.1-0.2-0.3-0.2-0.5-0.2c0,0-0.1,0-0.1,0.1c-0.8,0.8-1.8,1.3-2.9,1.5c-0.3,0-0.4-0.2-0.4-0.4c0.3-2.2,1.5-3.6,3.6-4.1
		c0.3-0.1,0.5-0.3,0.5-0.6c0.1-1.4,0.8-2.3,2.1-2.9c0.3,0.7,5.3,1.8,0.5,1.3c-0.3,0-0.5,0-0.7,0.2c-1.5,1.1-0.9,1.7,2,1.7
		c0.4,0,0.4,0.1,0,0.2c-0.8,0.3-1.7,0.4-2.5,0.2c-0.4-0.1-0.7,0-0.9,0.2c-0.7,0.5-0.3,1.2,0.5,1.3l2.4,0.1c0.6,0,0.7,0.2,0.3,0.5
		C86.2,95,80.4,94.6,85,97c1.4,0.7,2.7,0.7,4,0c3.3-1.8,3.9-4.3,1.8-7.5L91.5,89z"/>
	<path class="st16" d="M47.7,90l0.3,1.5c-0.1,1.6-0.6,2.1-1.4,1.3c-0.2-0.1-0.2-0.5,0-0.7L47.7,90z"/>
	<path class="st15" d="M45.4,90.3c1.5-0.9-0.3,3.6-0.3,0.6C45.1,90.7,45.2,90.5,45.4,90.3z"/>
	<path class="st13" d="M76.1,94c0-1.7,3-5.8,3.6-2.1c0.1,0.3,0,0.6-0.3,0.9c-0.8,0.9-1.7,1.4-2.8,1.6C76.4,94.5,76,94.2,76.1,94z"/>
	<path class="st23" d="M58.1,99c-1.8-0.6-3.5-1.5-5-3c-0.2-0.2-0.2-0.5-0.1-0.7l0.3-0.3c1.9,0.2,3.2-2.3,1.5-2.7
		c-0.2,0-0.4,0.1-0.5,0.4c0,0.7-0.3,1.1-0.8,1C53.2,93.6,53,93.3,53,93c0.2-2.3,1.3-2.9,3.3-1.6c0.3,0.2,0.5,0.4,0.6,0.7
		C57.6,94.2,58,96.5,58.1,99z M56.8,96.6c1.8-3-2.7,0-0.8,0.4C56.3,97,56.6,96.9,56.8,96.6z"/>
	<path class="st2" d="M38,94.5c0.6,0.6,0.6,1,0,1.3c-1.2,0.4-1.6,1.2-1.2,2.4c0.2,0.7,2.2,0.5,2.9,0.5v1.2c-1.6-0.3-2.2,0.3-1.8,1.8
		c0.7,2.5,0.5,4.7-0.5,6.5c-0.7,1.2-1.6,1.6-2.8,1.2c1-0.7,1.1-1.2,0.3-1.5c-0.7-0.2-0.7-0.7-0.4-1.2c0.2-0.1,0.5-0.2,0.9,0
		c2.1,0.8,2.3-0.4,0.6-3.6c1.1-0.6,1.2-1.2,0.3-1.7c-0.2-0.1-0.4,0-0.5,0.2c0,0,0,0,0,0.1c-0.1,0.3-0.4,0.6-0.7,0.7
		c-0.9-0.8-0.8-1.3,0.3-1.7c0.2-0.1,0.4-0.3,0.4-0.6l-0.4-5.5c0.6-1.7,0.1-2.2-1.4-1.2c0.4-1.6,1.2-2,2.5-1.2
		c0.2,0.1,0.4,0.4,0.3,0.8C36.8,93.9,37.2,94.4,38,94.5z"/>
	<path class="st15" d="M43.4,93.2c0-0.3,0.1-0.6,0.3-0.8c0.2-0.3,0.5-0.4,0.8-0.4c1.3,0.1-0.6,1.4-0.8,2.2c0,0.2-0.2,0.4-0.4,0.4
		c0,0,0,0-0.1,0c-0.3-0.1-0.3-0.3-0.1-0.6C43.3,93.8,43.4,93.5,43.4,93.2z"/>
	<path class="st12" d="M35.5,94.7c-0.8,0-1.3-0.4-1.4-1.2C35.6,92.6,36.1,93,35.5,94.7z"/>
	<path class="st20" d="M45.1,94.3c-0.2-1.6,0-1.8,0.7-0.6C46.4,94.7,45.4,96.1,45.1,94.3z"/>
	<path class="st10" d="M40.2,97c-1.4,0.6-2.1,0.3-2.2-1.2c0.5-0.2,0.5-0.7,0-1.3c0.5-0.7,0.9-0.7,1.3-0.2
		C40.1,95.2,40.9,95.6,40.2,97z"/>
	<path class="st8" d="M100.8,94.2c0.6,0.3,0.9,0.8,0.7,1.6c-0.1,0.3,0,0.6,0.2,0.8c0.6,0.7,0.6,1.5-0.1,2.3H100
		C98.6,97.1,98.8,95.5,100.8,94.2z"/>
	<path class="st6" d="M49.5,97c0.3,1.5,1.1,1.9,2.5,1.3c1-0.1,1.9,0.2,2.7,0.9c0.2,0.2,0.2,0.5,0,0.7l0,0c-0.7,0.7-0.4,1.1,0.6,1.4
		l0.2,0.5l-0.8,0.8l-0.5,0.3L47,96.3l1.4-1c0.4-0.3,0.7-0.5,0.8-0.5c0.7-0.1,0.8,0.3,0.3,1.1c-0.2,0.3-0.2,0.6-0.1,0.7L49.5,97z"/>
	<path class="st10" d="M56,97c-1.9-0.4,2.6-3.4,0.8-0.4C56.6,96.9,56.3,97,56,97z"/>
	<path class="st20" d="M51.5,97.5l-1.2-0.8C52.2,94.9,52.6,95.1,51.5,97.5z"/>
	<path class="st23" d="M38,95.8c0.1,1.4,0.9,1.8,2.2,1.2c0.5,0.8,0.3,1.4-0.5,1.8c-0.7,0-2.7,0.2-2.9-0.5C36.4,97,36.8,96.1,38,95.8
		z"/>
	<path class="st20" d="M45,97.2l-4.5,15.5c-0.1,0.3-0.4,0.5-0.7,0.4c-0.8-0.2-1.2-0.7-1.2-1.7c2.2-1.1,2.2-1.8,0-2.2l-0.3-0.7
		c1.5-0.3,2.1-1.2,1.8-2.6c0-0.4,0.4-0.8,0.7-1.1c0.3-0.2,0.2-0.4-0.3-0.5c-0.8-0.1-1-0.5-0.7-1.3c0.9,0.3,2.3-0.1,1.7-1.1
		c-0.5-0.8-0.3-1.4,0.6-1.6c0.4-0.1,0.7-0.3,0.8-0.5c0-0.3,0.1-0.8-0.5-0.6c-0.6,0.1-1-0.2-1.1-0.8c0.9-0.5,1.5-0.4,2,0.3
		c0.2,0.3,0.3,0.3,0.4,0c0.2-0.5,0.1-1-0.4-1.4c-0.2-0.3-0.3-0.6-0.1-0.8C43.7,95.8,44.3,96.1,45,97.2z"/>
	<path class="st5" d="M47,96.3c4.4,4,14.9,13.4,19.4,17.4c0.6,0.7,1.2,1,2,0.7c0.3-0.1,0.5-0.3,0.6-0.7c0.7-1.7-0.1-2-2.1-0.9
		l-0.5-0.8c1.4-0.3,1.9-1.1,1.5-2.5l0.3-0.5c0.5,0.7,1,0.8,1.7,0.5l0.3,0.3c0.9,1.5,2.1,2.7,3.5,3.7c0.3,0.2,0.6,0.2,0.9,0
		c0.4-0.3,0.6-0.8,0.6-1.4c1.4-0.5,2-1.3,1.7-2.5c-0.1-0.3-0.3-0.5-0.6-0.8c-0.7-0.5-1.2-1.2-1.6-2c-0.2-0.7-0.9-0.8-1.3-0.3l-1-0.5
		c-0.1-2.1-0.8-3.9-2.3-5.5l1-1l0.8,0.8c0,0.8,0.3,1.4,0.9,1.8l0.2,0.5l1,2c0.7,0.7,4.9,4.9,5.5,5.5c-3.7,3.4-7.2,7.2-10.3,11.3
		c-0.1,0.2-0.1,0.4,0.1,0.6h0.1l6.4,2.7c0.3,0.1,0.4,0.4,0.3,0.7c-1.2,5.8-1.1,11.6,0.5,17.2c0.1,0.3,0.3,0.5,0.6,0.5
		c4.8,0.1,9.6,0.1,14.3,0.1c1.8,0,1.2,1.1-0.2,1.1c-21.7-0.2-43.4-0.3-65.1-0.1c-0.8,0-1.2-0.4-1-1.2h0.9c4.5,0.4,8.9,0.4,13.4,0.1
		c0.2,0,0.3-0.1,0.3-0.2l0.1-0.2H41l7.5,0.2l1-0.2c0.7,0.5,1.2,0.4,1.5-0.2l2.7-5.8l1.1-1l0.4-1.2l5.3-8.6c0.2-0.3,0.1-0.6-0.1-0.8
		c-3-4.2-7.1-8.2-12.7-7.8l-0.5-0.5l0.1-0.2c1.4-0.1,2-0.7,1.8-2c0-0.3,0.2-0.4,0.4-0.4c0.7,0.2,0.8,0.7,0.3,1.3
		c-0.1,0.2-0.1,0.5,0.1,0.6l0,0c2.6,1.3,4.3,2.3,7.5,2.3c2.1,0,4.2,0.3,6.3,1c0.3,0.1,0.6,0.1,0.9-0.1c0.8-0.5,3.7-4,1.9-3.3
		c-0.2,0.1-0.4,0.4-0.6,0.7c-0.4,1.3-1.5,1.8-3.1,1.5c-0.7-0.1-0.8-0.3-0.6-0.7c0.2-0.2,0.5-0.3,0.9-0.2c0.7,0,2.8-1.3,1.8-1.9
		c-0.2-0.1-0.6,0-0.9,0.2c-2.5,1.6-5.3,2.1-8.4,1.3l1-0.8c0.5,0.4,0.9,0.4,1.2,0.2c0.2-0.2,0.3-0.5,0.3-0.9c-0.2-1.7-0.7-1.7-1.5,0
		c-0.6-0.1-0.8-0.5-0.7-1.2c2.1-0.9,4.3-1.1,6.5-0.5c-1.5,2.3-1,2.5,1.2,0.5c0.3,0,0.7-0.2,0.5-0.6c0,0,0-0.1-0.1-0.1L46.7,98
		c-0.1-0.1-0.3-0.1-0.5,0l-0.1,0.1l-4,13.9c-0.1,0.3,0,0.6,0.3,0.8c0.8,0.5,1.7,0.8,2.8,0.7v0.5c0.4,1.6,0.2,2.1-0.8,1.6
		c-0.3-0.1-0.4-0.4-0.5-0.8c-0.3-1.5-0.6-1.5-1,0c-0.1,0.3,0.1,0.5,0.3,0.7c0.6,0.4,0.9,0.9,1.1,1.8c-1.9-0.7-3.6-1.7-5.2-3
		c-0.7-0.6-0.8-1.6-2.2-1.3c-0.6-1.3-1.8-2.4-3.5-3.1c0.6-0.1,1-0.3,1.2-0.5c1.1,0.4,2.1,0,2.8-1.2l0.8,0.3l0.3,0.7
		c-0.3,0.7-0.3,1.5,0,2.2c0,1,0.4,1.5,1.2,1.7c0.3,0.1,0.6-0.1,0.7-0.4L45,97.2C45.5,96.5,46.1,96.2,47,96.3z M58.9,115.2
		c0.1,2.8,4-3,0.4-0.8C59.1,114.6,58.9,114.9,58.9,115.2z M59.5,121l1.6,3.4c0.2,0.4,0.4,0.4,0.5,0l1.9-3.5c0.1-0.3,0.1-0.6-0.2-0.8
		c-1.1-0.9-2.4-1.1-3.8-0.8l-2.4-0.3c-0.4,0-0.5,0.1-0.3,0.5C57.3,120.5,58.2,121,59.5,121z M59.2,142.7c0.7,0.5,1.5,0.3,1.7-0.5
		c0.3-1.8,1.4-2.4,3.3-1.6c1.7,0.7-0.6-2.5-0.3-3.8c0-0.3,0.3-0.5,0.6-0.7c1.4-0.7,2-1.9,1.8-3.5c0-0.3,0.1-0.6,0.4-0.7
		c1.1-0.5,2.2-0.5,3.4,0c0.7,0.3,0.9-0.2,0.3-0.6c-2.2-1.9-2-3.3,0.7-4.4c0.3-0.1,0.5-0.4,0.5-0.7c0-1.1-0.4-2-1.1-2.8
		c-0.8-1-1.5-1.1-2.1-0.3c-3.6,4.9-7.5,11.2-11.6,19.1c-0.1,0.2,0,0.5,0.2,0.6h0.1C57.8,143.1,58.5,143,59.2,142.7z M68.1,134.3
		c-0.3-0.5-0.3-1.1-0.2-1.6c0-0.2,0-0.3-0.2-0.4c-0.5,0-0.5,0.3-0.5,1l-0.1,2.2c0,0.3-0.3,0.5-0.6,0.6c-2.5,0.9-2.4,1.4,0.4,1.6
		c0.2,0,0.4,0.2,0.4,0.5l0,0c-0.1,1.1,0.2,2.1,0.9,2.9c0.2,0.2,0.2,0.5,0,0.7c-0.6,0.8-0.3,1.2,1,1.2c3.2,0,5.3-0.1,6.5-0.2
		c0.2,0,0.4-0.2,0.4-0.5c0,0,0,0,0-0.1c-1.3-5.1-1.6-10.2-0.3-15.3c0.4-1.7-0.6-2.6-3-2.7c-0.7,0-0.9,0.3-0.4,0.8
		c0.8,1,1.2,2.8-0.3,2.9c-1.4-0.1-1.8,0.1-1.3,0.7c0.2,0.2,0.5,0.3,0.8,0.3c1.1,0,1.5,0.5,1.2,1.5c-0.1,0.3,0,0.6,0.2,0.8
		c1.7,1.9,1.2,2.8-1.6,2.6c-0.3,0-0.6,0.1-0.9,0.3c-0.5,0.3-1,0.5-1.5,0.5C68.5,134.7,68.2,134.6,68.1,134.3z M62.4,142.8
		c0.2,0,0.4-0.2,0.5-0.3c0.1-0.2,0.1-0.4-0.1-0.5l-0.1-0.1c-0.6-0.2-0.9,0-0.9,0.4C61.9,142.6,62.1,142.8,62.4,142.8z M65.3,142
		c-0.4-0.2-1.2,0.2-0.7,0.6l0.1,0.1c0.7,0.4,1.1,0.4,1.1,0C65.9,142.4,65.7,142.1,65.3,142z"/>
	<path class="st15" d="M50.2,96.8l1.2,0.8l0.5,0.8c-1.4,0.6-2.2,0.2-2.5-1.3L50.2,96.8z"/>
	<path class="st2" d="M64.4,97.7c0.5-0.2,0.7,0,0.6,0.6c-0.1,0.3-0.3,0.6-0.6,0.6c-0.4,0.1-0.6-0.1-0.5-0.5
		C63.9,98.1,64.1,97.8,64.4,97.7z"/>
	<path class="st13" d="M74.7,102.7l-1.5-0.2L73,102l0.1-1l0.5-0.5c0.8,0.9,1.7-2.2,3.1-2.7c1.2-0.5,1.7,0,1.5,1.3
		c-0.3,1.4-1.3,2.2-2.9,2.6c-0.4,0.1-0.7,0.3-0.7,0.5C74.5,102.3,74.5,102.5,74.7,102.7z"/>
	<path class="st16" d="M63.8,114l-1.2-0.5c-2.2-0.6-4.4-0.4-6.5,0.5h-1c-0.8-0.1-1.5,0.1-2.1,0.5c-0.2,0.1-0.5,0.1-0.7-0.1
		c-0.9-1.1-1.3-0.9-1.1,0.7c0,0.2,0.3,0.4,0.5,0.4c0.6-0.1,1.1-0.1,1.6,0.1c0.6,1,1.4,1.3,2.5,1.2c3,0.7,5.8,0.3,8.4-1.3
		c0.4-0.2,0.7-0.3,0.9-0.2c1,0.5-1.1,1.9-1.8,1.9c-0.4,0-0.7,0.1-0.9,0.2c-0.3,0.3-0.1,0.5,0.6,0.7c1.6,0.3,2.6-0.2,3.1-1.5
		c0.1-0.4,0.3-0.7,0.6-0.7c1.8-0.7-1.1,2.8-1.9,3.3c-0.3,0.2-0.6,0.2-0.9,0.1c-2-0.7-4.1-1-6.3-1c-3.2,0.1-4.9-1-7.5-2.3
		c-0.2-0.1-0.3-0.4-0.2-0.6l0,0c0.4-0.7,0.3-1.1-0.3-1.3c-0.2-0.1-0.3,0.1-0.4,0.2c0,0,0,0.1,0,0.2c0.2,1.3-0.4,1.9-1.8,2
		c1.3-2.4,0.6-3.3-2-2.7c-1.1,0.1-2.1-0.1-2.8-0.7c-0.2-0.2-0.4-0.5-0.3-0.8l4-13.9c0-0.2,0.2-0.3,0.4-0.2c0,0,0.1,0,0.1,0.1
		l17.5,15.3c0.2,0.1,0.2,0.4,0.1,0.5c0,0,0,0-0.1,0.1C64,114,63.9,114,63.8,114z M56.2,112c0.9,0.3,1.6,0.1,2.2-0.5
		c1.2,0.1,1.5-0.2,0.7-0.9c-3.6-3.5-7.5-6.9-11.6-10.2c-0.4-0.4-1.1-0.1-1.3,0.4l-2.9,10.6c-0.1,0.3,0.1,0.5,0.3,0.6l0,0
		C48,112.7,52.1,112.7,56.2,112z"/>
	<path class="st6" d="M84.8,98l0.5,2.7l1,1c-0.4,2.3-1,2.5-1.9,0.4C84.3,101.9,83.2,97.6,84.8,98z"/>
	<path class="st19" d="M84.8,98l1.8,0.5l-1.2,2.2L84.8,98z"/>
	<path class="st15" d="M89.7,98c-0.2,1.7-0.9,2.1-2,1.2c-0.1-0.1-0.3-0.1-0.4,0.1c0,0,0,0.1-0.1,0.1l-0.9,2.5l-1-1l1.2-2.2
		C87.6,98.7,88.7,98.5,89.7,98z"/>
	<path class="st17" d="M90.3,99.4c0.1-2.6,5.6,2,0.5,0.6C90.5,100,90.3,99.7,90.3,99.4z"/>
	<path class="st25" d="M39.8,100v3c-0.3,0.7,0,1.1,0.7,1.3c0.4,0.1,0.5,0.2,0.3,0.5c-0.2,0.3-0.9,0.7-0.7,1.1
		c0.3,1.5-0.3,2.4-1.8,2.6l-0.8-0.3c1-1.8,1.2-4,0.5-6.5C37.6,100.3,38.2,99.7,39.8,100z"/>
	<path class="st24" d="M58.5,111.5c-0.9-1.5-2.1-2.7-3.6-3.5c-0.3-0.1-0.3-0.1-0.1,0.1c1.1,1.1,1.5,2.4,1.5,3.9
		c-4.1,0.7-8.2,0.7-12.3,0c-0.3,0-0.4-0.3-0.4-0.6l0,0l2.9-10.6c0.1-0.4,0.5-0.6,1-0.5c0.1,0,0.2,0.1,0.3,0.2
		c4.1,3.4,7.9,6.8,11.6,10.2C60,111.3,59.7,111.6,58.5,111.5z M48.9,103.8c0.4,0.7,0.7,0.7,1,0c0.1-0.3-0.1-0.5-0.3-0.7
		c-0.7-0.3-1.2-0.8-1.6-1.4c-0.2-0.3-0.5-0.5-0.7-0.5c-1,0.2,0.3,1.7,0.9,2C48.5,103.3,48.8,103.5,48.9,103.8z M47.8,105.5l-0.8-1.3
		c-0.1-0.2-0.3-0.3-0.5-0.2c0,0-0.1,0-0.1,0.1c-1,1.3,3.3,3.2,4.2,4.2c0.2,0.3,0.5,0.4,0.8,0.4c0.9-0.2-1.4-2.7-1.7-3.1
		c-0.1-0.1-0.3-0.2-0.5-0.1c-0.2,0.2-0.5,0.4-0.7,0.5C48.3,106,47.9,105.9,47.8,105.5z M47.6,107.6c-0.9,0.6,3,2.6,0.6,0.1
		C48.1,107.6,47.8,107.5,47.6,107.6z M48.7,110c-0.4,0-4.7-0.4-4,0.7c0.1,0.2,0.4,0.3,0.8,0.3l9,0.3c0.4,0,0.5-0.2,0.5-0.5
		c-0.1-0.4-0.3-0.6-0.8-0.8c-2.4-0.8-4.1-1-4.9-0.6c-0.1,0.1-0.2,0.1-0.2,0.2C48.9,109.8,48.8,110,48.7,110z"/>
	<path class="st20" d="M58,100.7c-0.9,0.7-1.2,1.5-0.8,2.5c0,0.1,0.2,0.2,0.3,0.1c0,0,0.1,0,0.1-0.1l0.5-0.4c0.1-0.1,0.5,0,0.7,0.2
		l1.3,1.1c0.2,0.2,0.2,0.4,0.1,0.6l0,0c-0.8,0.6-0.2,1.6,0.6,1.1l2-1.4c0.6,1,0.4,1.9-0.7,2.5c-0.4,0.1-0.5,1.1,0.2,0.8
		c0.1,0,0.1-0.1,0.2-0.1c0.8-0.7,1.5-0.6,2.1,0.3c0.1,0.2,0.4,0.4,0.7,0.4c0.5,0,0.7,0.6,0.4,1c-0.6,0.8-0.5,1.4,0.4,1.8
		c0.2,0.4,0.8,1.2,1,1.6l-0.5,0.9l-12.2-10.9l0.5-0.3c1.7,1.3,1.1-0.1,0.6-1.3C56.1,100,57.1,99.9,58,100.7z"/>
	<path class="st16" d="M72,100.2c0.6-0.1,0.9,0.1,1,0.8l-0.1,1C72.3,101.6,72,101.1,72,100.2z"/>
	<path class="st3" d="M102.6,104.8c-0.3,0.9-0.6,0.9-0.9,0.1l-1.3-3.7c-0.1-0.2,0.1-0.5,0.3-0.6c0,0,0,0,0.1,0c1-0.2,1.9-0.2,2.9,0
		c0.2,0.1,0.4,0.3,0.3,0.5l0,0L102.6,104.8z"/>
	<path class="st22" d="M58,100.7l3.9,2l0.3,0.5l0.5,1.2l-2,1.4c-0.8,0.5-1.3-0.4-0.6-1.1c0.1-0.1,0.1-0.4,0-0.6l0,0l-1.3-1.1
		c-0.3-0.2-0.6-0.3-0.7-0.2l-0.5,0.4c-0.1,0.1-0.3,0.1-0.4,0c0,0,0,0,0-0.1C56.9,102.3,57.1,101.5,58,100.7z"/>
	<path class="st23" d="M75.2,112c0,0.6-0.2,1.1-0.6,1.4c-0.2,0.2-0.6,0.2-0.9,0c-1.4-1-2.6-2.2-3.5-3.7c1.1-1.7,0.8-3-1-4
		c-0.3-0.2-0.4-0.4-0.3-0.7c0.3-2.1-0.4-2.9-2.2-2.2c-0.5,0.1-0.8,1.2,0,1c0.3-0.1,0.5-0.1,0.7,0.1c1.3,1.7-3.5,0.9-1.9-2.2
		c0.1-0.3,0.4-0.5,0.7-0.6C74.1,98.7,69,111.9,75.2,112z"/>
	<path class="st15" d="M48.2,103.1c-0.6-0.3-2-1.8-0.9-2c0.2,0,0.5,0.2,0.7,0.5c0.4,0.6,0.9,1.1,1.6,1.4c0.3,0.1,0.4,0.4,0.3,0.7
		c-0.2,0.7-0.5,0.7-1,0C48.8,103.5,48.5,103.3,48.2,103.1z"/>
	<path class="st6" d="M32,101.2c0.9,0.5,1.4,1.3,1.3,2.5C30.9,107,28.8,102.4,32,101.2z"/>
	<path class="st8" d="M36.2,103.2c-0.1,0.1-0.2,0.2-0.2,0.3l-0.7-0.2v-0.7c0.3-0.2,0.6-0.4,0.7-0.7c0.1-0.2,0.3-0.4,0.5-0.3l0,0
		C37.4,102,37.2,102.5,36.2,103.2z"/>
	<path class="st3" d="M65.9,105.8c0.5,1.2,1.2,2.3,2.3,3.2l-0.3,0.5c-1,0.1-1.7,0.7-2,1.7c-0.9-0.4-1-1-0.4-1.8
		c0.3-0.5,0.1-0.9-0.4-1c-0.3-0.1-0.6-0.2-0.7-0.4c-0.6-0.9-1.3-1-2.1-0.3c-0.3,0.3-0.4,0.2-0.6,0c0-0.3,0-0.5,0.3-0.7
		c1.1-0.6,1.3-1.5,0.7-2.5l-0.5-1.2c1.3-0.4,1.3-0.9,0-1.5v-0.2c1.6-0.7,2.2-0.4,1.7,0.8c-0.1,0.3-0.2,0.6-0.1,0.9
		C64.3,104.3,65,105.1,65.9,105.8z"/>
	<path class="st24" d="M55.5,101.7c0.7,1.4,0.4,1.7-0.8,0.8L55.5,101.7z"/>
	<path class="st12" d="M62.3,101.7c1.3,0.6,1.3,1.1,0,1.5l-0.3-0.5L62.3,101.7z"/>
	<path class="st19" d="M74.7,102.7l0.5,1l-0.3,0.5l-0.8,0.2l-1-2L74.7,102.7z"/>
	<path class="st10" d="M35.3,103.2l0.7,0.2c0.4,0.8,0.4,1.4,0.1,2.1c-0.1,0.2-0.4,0.3-0.6,0.2c0,0-0.1,0-0.1-0.1
		C34.6,105,34.6,104.2,35.3,103.2z"/>
	<path class="st3" d="M102.7,105.7c2.5-5.2,8.1-0.4,4.5,5.1c-1.6,2.5-3.2,4.9-4.9,7.3c-0.1,0.2-0.3,0.2-0.5,0.1l-0.1-0.1
		c-1.7-2.6-3.5-5.2-5.2-7.8c-3.2-4.9,2.1-9.9,4.5-5c0.2,0.4,0.4,0.6,0.6,0.7l0.4,0.1C102.3,106.1,102.6,105.9,102.7,105.7z"/>
	<path class="st15" d="M48.6,106c0.3,0,0.7-0.7,1.1-0.5c0,0,0,0,0.1,0.1c0.3,0.5,2.6,3,1.7,3.1c-0.3,0.1-0.6-0.1-0.8-0.4
		c-0.9-1.1-5.2-3-4.2-4.2c0.1-0.1,0.3-0.1,0.5,0l0.1,0.1l0.8,1.3C47.9,105.9,48.3,106,48.6,106z"/>
	<path class="st21" d="M75,104.2c1.1,1.6,2.4,3,4,4c0.4,0.4,0.3,0.7-0.2,0.8l-4.5-4.5L75,104.2z"/>
	<path class="st14" d="M25.5,104.5l1.5,0.7c-0.2,0-0.4,0-0.4,0.3c0.4,12.4,0.3,24.8-0.1,37.2h-0.9C24.9,130,24.9,117.2,25.5,104.5z"
		/>
	<path class="st2" d="M27,105.2c0.6,0.2,1.1,0.4,1.5,0.9c0.2,0.2,0.4,0.5,0.4,0.9l1.6,14.3c0,0.3-0.1,0.5-0.4,0.6
		c-2.7,0.9-3,2.2-0.7,3.9c0.2,0.2,0.3,0.5,0.2,0.7c-1.3,3,2,10,4.1,1.9c0.1-0.3,0-0.6-0.2-0.8c-1-1-0.8-1.8,0.5-2.5
		c0.3-0.2,0.5-0.4,0.6-0.7c0.4-1.5-0.2-2.3-1.8-2.4c-0.4,0-0.6-0.2-0.7-0.4c-0.1-0.4-0.1-0.8,0-1.3l1.5-10.4
		c1.7,0.7,2.9,1.7,3.5,3.1c-0.5,6.9,0.5,13.6,3,20l0.2,9.5l-0.1,0.2c0,0.1-0.2,0.1-0.3,0.2c-4.5,0.3-9,0.3-13.4-0.1
		c0.4-12.4,0.5-24.8,0.1-37.2c0-0.1,0.1-0.3,0.2-0.3L27,105.2z"/>
	<path class="st23" d="M65.9,105.8c2.5,0.1,3.9,1.3,4.1,3.6c-0.7,0.4-1.2,0.2-1.7-0.5C67.2,108.1,66.4,107,65.9,105.8z"/>
	<path class="st23" d="M72.5,106l1,0.5c0.4,1.2,3.3,3.1,1.5,4.2c-0.2,0.2-0.6,0.1-0.8-0.2C73.1,109.3,72.6,107.8,72.5,106z"/>
	<path class="st7" d="M32.9,106.8c0,3.3-0.5,6.6-1.5,9.8C30.9,113.3,29.1,105.9,32.9,106.8z"/>
	<path class="st18" d="M91.7,107.4l0.5,0.4c0.2,0.2,0.2,0.5,0,0.8c-0.6,0.7-0.9,0.3-1-1C91.1,107.2,91.3,107.1,91.7,107.4z"/>
	<path class="st15" d="M48.3,107.8c2.4,2.5-1.5,0.5-0.6-0.1C47.8,107.5,48.1,107.6,48.3,107.8z"/>
	<path class="st15" d="M58.5,111.5c-0.6,0.6-1.4,0.8-2.2,0.5c0.1-1.6-0.4-2.9-1.5-3.9c-0.2-0.2-0.2-0.3,0.1-0.1
		C56.4,108.7,57.6,109.9,58.5,111.5z"/>
	<path class="st19" d="M38.5,109.2c2.2,0.4,2.2,1.2,0,2.2C38.2,110.7,38.2,110,38.5,109.2z"/>
	<path class="st16" d="M94,109.2c0.6,0.4,0.7,0.8,0.5,1.5C92.6,111.1,92.5,110.6,94,109.2z"/>
	<path class="st15" d="M49,109.7c0.1-0.1,0.1-0.1,0.2-0.2c0.9-0.4,2.5-0.2,4.9,0.6c0.5,0.2,0.7,0.4,0.8,0.8c0,0.2-0.2,0.4-0.4,0.5
		h-0.1l-9-0.3c-0.4,0-0.7-0.1-0.8-0.3c-0.6-1.1,3.7-0.6,4-0.7C48.8,110,48.9,109.8,49,109.7z"/>
	<path class="st7" d="M68,109.5c0.4,1.3-0.1,2.2-1.5,2.5l-0.5-0.8C66.3,110.2,67,109.7,68,109.5z"/>
	<path class="st7" d="M66.5,113.7l0.5-0.9c2.1-1.1,2.8-0.7,2.1,0.9c-0.1,0.3-0.4,0.6-0.6,0.7C67.7,114.7,67.1,114.4,66.5,113.7z"/>
	<path class="st13" d="M37,113c1.5-0.3,1.5,0.7,2.2,1.3c1.6,1.3,3.3,2.3,5.2,3l2.3-0.8h0.5l0.5,0.5c-5.2,1.7-6.8,8.8-6.2,13.5
		c1.4,2.6,1.5,2.6,0.2,0c0.7-0.5,1.6-0.7,2.5-0.5v0.7l-0.5,2l-1.2,0.5c-0.5-0.6-1-0.6-1.5,0l-1-0.3C37.5,126.6,36.5,119.9,37,113z"
		/>
	<path class="st24" d="M47.3,116.2l-0.1,0.2h-0.5c-0.1-1.1-0.6-1.9-1.5-2.5v-0.5C47.9,112.9,48.6,113.8,47.3,116.2z"/>
	<path class="st15" d="M62.5,113.5l1.2,0.5C61.5,116,61,115.8,62.5,113.5z"/>
	<path class="st16" d="M45.3,114c0.8,0.5,1.3,1.4,1.5,2.5l-2.3,0.8c-0.2-0.8-0.5-1.4-1.1-1.8c-0.3-0.2-0.4-0.5-0.3-0.7
		c0.3-1.5,0.6-1.5,1,0c0.1,0.3,0.3,0.6,0.5,0.8C45.5,116.1,45.7,115.6,45.3,114z"/>
	<path class="st5" d="M55,114c-0.4,0.7-1,1.2-1.8,1.5c-0.5-0.1-1-0.2-1.6-0.1c-0.3,0-0.5-0.1-0.6-0.4l0,0c-0.2-1.5,0.2-1.8,1.1-0.7
		c0.2,0.2,0.5,0.2,0.7,0.1C53.5,114.1,54.2,114,55,114z"/>
	<path class="st15" d="M55,114h1c-0.1,0.8,0.1,1.2,0.7,1.2v0.7l-1,0.8c-1.1,0.2-1.9-0.2-2.5-1.2C54,115.3,54.6,114.8,55,114z"/>
	<path class="st20" d="M56.8,116v-0.7c0.8-1.7,1.3-1.7,1.5,0c0,0.4-0.1,0.7-0.3,0.9C57.6,116.4,57.2,116.3,56.8,116z"/>
	<path class="st16" d="M59.3,114.4c3.5-2.2-0.4,3.6-0.4,0.8C58.9,114.9,59.1,114.6,59.3,114.4z"/>
	<path class="st2" d="M47.8,117c5.6-0.4,9.7,3.6,12.7,7.8c0.2,0.3,0.2,0.6,0.1,0.8l-5.3,8.6l-4.5-0.4c-0.3,0-0.6-0.1-0.8-0.3
		c-0.8-0.6-0.9-0.3-0.3,0.9c0.1,0.3,0.4,0.4,0.7,0.4c1.6-0.2,3.1,0.1,4.5,0.7l-1.1,1H53c-1.7-1.8-5.1,2-5.9,3.2
		c-0.1,0.1-0.3,0.2-0.4,0.1c0,0,0,0-0.1-0.1l-3-3.4c-0.2-0.2-0.6-0.3-0.8-0.1c-0.7,0.4-0.8,0.9-0.6,1.6L42,138
		c-1-0.5-1.3-1.2-0.8-2.2c0.1-0.3,0.4-0.4,0.8-0.4c1.6,0,2.9-0.5,3.8-1.7c0.2-0.2,0.3-0.6,0.3-0.9c-0.1-0.9-1.2-10.3,1.8-8.2
		c-1.2,1.1,0.2,1.2,0.7,0.5c0.9-0.8,1.5-0.6,1.9,0.7c0.1,0.3,0.2,0.3,0.3,0c0.4-1.6-0.5-2.2-2.7-1.7c-1.9-0.5-2.9,0.2-2.9,1.9
		c0,1.8-0.4,2.5-0.9,4.1c-0.9-0.2-1.8-0.1-2.5,0.5h-0.2C41,125.9,42.5,118.7,47.8,117z M49.3,119.2c-0.6-0.2-1.5,0-2.8,0.6
		c-0.6,0.3-0.5,0.3,0.1,0.2c1.1-0.3,2.1-0.2,3.1,0.2c0.4,0.1,0.5,0.1,0.4-0.3C50,119.6,49.7,119.3,49.3,119.2z M45.2,121.8
		c0,1.2,4.5,0.6,5.3,0.5c0.8-0.1,0.6-1.8-0.3-1.3c-0.4,0.2-0.7,0.3-0.9,0.3h-3.4C45.5,121.3,45.2,121.5,45.2,121.8z M51.1,129.4
		c0.1-0.3,0.2-0.5,0.5-0.6c0.2-0.1,0.4-0.3,0.4-0.5c0-1-0.7,0.1-1.1,0.3c-1.4,0.8-1.9,1.9-1.8,3.4c0,0.3,0.3,0.6,0.6,0.7
		c2.2,0.7,4.3,0.4,6.3-0.7c0.3-0.1,0.2-0.4,0-0.5c-1.3-0.9-2.8-1.4-4.5-1.5C51.3,129.9,51.1,129.7,51.1,129.4
		C51.1,129.5,51.1,129.5,51.1,129.4z"/>
	<path class="st14" d="M59.5,119.3v1.7c-1.3,0-2.2-0.5-2.7-1.5c-0.2-0.4-0.1-0.6,0.3-0.5L59.5,119.3z"/>
	<path class="st11" d="M49.3,119.2c0.4,0.1,0.7,0.4,0.8,0.8c0.1,0.3,0,0.4-0.4,0.3c-1-0.4-2.1-0.5-3.1-0.2c-0.6,0.2-0.6,0.1-0.1-0.2
		C47.8,119.2,48.7,119,49.3,119.2z"/>
	<path class="st9" d="M59.5,121v-1.7c1.4-0.3,2.7-0.1,3.8,0.8c0.2,0.2,0.3,0.5,0.2,0.8l-1.9,3.5c-0.2,0.4-0.4,0.4-0.5,0L59.5,121z"
		/>
	<path class="st4" d="M50.5,122.3c-0.8,0.1-5.3,0.7-5.3-0.5c0-0.3,0.3-0.5,0.6-0.5h3.4c0.2,0,0.5-0.1,0.9-0.3c0.5-0.2,0.7,0,0.8,0.7
		C51,122,50.8,122.2,50.5,122.3z"/>
	<path class="st8" d="M70.5,123.5l-11.2,19.3c-0.7,0.3-1.5,0.4-2.2,0.1c-0.2-0.1-0.3-0.4-0.3-0.6c4.1-7.8,8-14.2,11.6-19.1
		C69,122.4,69.7,122.5,70.5,123.5z"/>
	<path class="st17" d="M29.3,123.3c0.8-0.7,1.1-0.5,1.2,0.6c0,0.3-0.1,0.6-0.4,0.8c-0.5,0.3-0.9,0.1-1-0.5
		C28.9,123.9,29,123.6,29.3,123.3z"/>
	<path class="st17" d="M32.5,124.9c-0.2,0.1-0.4-0.1-0.5-0.3l0,0c-0.3-1.6,0.2-2.1,1.5-1.5c0.3,0.1,0.5,0.4,0.4,0.7
		C33.7,124.3,33.2,124.7,32.5,124.9z"/>
	<path class="st3" d="M109.3,135.8c-0.1,3.7,0.7,9.3-1.3,12.2c-2.5,3.6-8.7,3.5-11.1-0.1c-2.3-3.5-1.2-15.7-1.1-20.2
		c0-0.3-0.2-0.5-0.5-0.5c-1.9-0.1-2.5-1.1-1.6-3c0.1-0.3,0.4-0.4,0.7-0.4c1.1,0.1,2.2,0.3,3.1,0.8c0.3,0.1,0.6,0.1,0.8,0
		c4.9-3.2,11.6,0.4,10.8,6.4c-0.1,0.4,0.1,0.7,0.3,0.8l0.8,0.3c0.4,0.1,0.6,0.3,0.7,0.5c0.6,1.6,0.2,2.5-1.1,2.7
		C109.5,135.3,109.3,135.5,109.3,135.8z M105.6,131.4c0.7-2.6-1.8-5.7-4.4-4.3c-0.2,0.1-0.3,0.4-0.2,0.6c0,0,0,0.1,0.1,0.1l4,3.8
		c0.1,0.1,0.3,0.1,0.5,0C105.6,131.5,105.6,131.4,105.6,131.4z M105.2,135.2c-2.3-1-3.9-2.3-5-4.1c-0.2-0.3-0.4-0.4-0.7-0.4
		c-0.4,0.1-0.3,12-0.3,13.4c0,0.3,0.1,0.7,0.3,0.9c2.1,2.9,4.2,2.9,6.1-0.2c0.2-0.3,0.2-0.6,0.2-0.9V136
		C105.8,135.7,105.5,135.4,105.2,135.2z"/>
	<path class="st11" d="M48,124l-0.2,0.5c-3-2-1.9,7.3-1.8,8.2c0,0.3-0.1,0.7-0.3,0.9c-0.9,1.2-2.2,1.8-3.8,1.7
		c-0.3,0-0.6,0.2-0.8,0.4c-0.5,1-0.2,1.7,0.8,2.2c-2.3,2.2,1,3.6,1.1,2.7c0-0.3-0.2-0.5-0.5-0.7c-0.8-0.4-0.7-0.7,0.4-1
		c0,0.7,0.4,1.1,1,1.3v0.7c-0.6,0.1-1,0.3-1.3,0.8c-0.2,0.2-0.4,0.3-0.7,0.1c-0.4-0.2-0.8,0-1.1,0.6h-0.7L40,133l1,0.3
		c0.2,1.2,0.7,1.3,1.5,0.5c1.7,0.6,2.3,0.2,1.7-1c0.6-0.7,0.6-1.4,0.1-2v-0.7c0.5-1.6,0.9-2.3,0.9-4.1C45.1,124.2,46.1,123.5,48,124
		z"/>
	<path class="st7" d="M70.5,123.5c0.8,0.8,1.1,1.8,1.1,2.8c0,0.3-0.2,0.6-0.5,0.7c-2.7,1-2.9,2.5-0.7,4.4c0.2,0.2,0.3,0.4,0.3,0.6
		c-0.1,0.1-0.3,0.1-0.6,0c-1.2-0.5-2.3-0.5-3.4,0c-0.2,0.1-0.4,0.4-0.4,0.7c0.2,1.6-0.4,2.8-1.8,3.5c-0.3,0.2-0.5,0.4-0.6,0.7
		c-0.2,1.3,2,4.5,0.3,3.8c-1.8-0.8-2.9-0.3-3.3,1.6c-0.1,0.4-0.3,0.7-0.5,0.7c-0.4,0.1-0.8,0.1-1.2-0.2L70.5,123.5z"/>
	<path class="st4" d="M48,124c2.2-0.5,3.1,0.1,2.7,1.7c-0.1,0.3-0.2,0.3-0.3,0c-0.4-1.3-1-1.5-1.9-0.7c-0.3,0.3-0.6,0.4-0.8,0.4
		c-0.6-0.1-0.6-0.4,0.1-0.9L48,124z"/>
	<path class="st6" d="M68.8,134.7c0.6,0,1.1-0.1,1.5-0.5c0.3-0.2,0.6-0.3,0.9-0.3c2.8,0.2,3.3-0.7,1.6-2.6c-0.2-0.2-0.3-0.5-0.2-0.8
		c0.3-1-0.1-1.5-1.2-1.5c-0.4,0-0.7-0.1-0.8-0.3c-0.5-0.6-0.1-0.8,1.3-0.7c0.3,0,0.6-0.1,0.8-0.4c0.4-0.7,0.2-1.6-0.5-2.5
		c-0.5-0.6-0.3-0.9,0.4-0.8c2.5,0,3.5,0.9,3,2.7c-1.3,5.1-0.9,10.2,0.3,15.3c0.1,0.2-0.1,0.5-0.3,0.5c0,0,0,0-0.1,0
		c-1.2,0.1-3.3,0.2-6.5,0.2c-1.3,0-1.7-0.4-1-1.2c0.2-0.2,0.2-0.5,0-0.7c-0.7-0.8-1-1.8-0.9-2.9c0-0.3-0.1-0.5-0.4-0.5l0,0
		c-2.8-0.2-2.9-0.7-0.4-1.6c0.3-0.1,0.6-0.4,0.6-0.6l0.1-2.2c0-0.4,0.1-0.8,0.2-0.9c0.2-0.2,0.5-0.1,0.5,0.2c0,0,0,0,0,0.1
		c-0.1,0.6,0,1.1,0.2,1.6C68.2,134.6,68.5,134.7,68.8,134.7z"/>
	<path class="st15" d="M31,125.9c1.3-1.9,1,1.8,0,0.8C30.8,126.4,30.8,126.1,31,125.9z"/>
	<path class="st2" d="M101.2,127.1c2.7-1.4,5.1,1.7,4.4,4.3c-0.1,0.3-0.4,0.4-0.6,0.2l-4-3.8c-0.2-0.2-0.1-0.4,0-0.6
		C101.1,127.1,101.1,127.1,101.2,127.1z"/>
	<path class="st13" d="M51.6,129.9c1.6,0.1,3.1,0.6,4.5,1.5c0.2,0.2,0.2,0.4,0,0.5c-1.9,1.1-4,1.3-6.3,0.7c-0.3-0.1-0.5-0.4-0.6-0.7
		c-0.2-1.5,0.4-2.6,1.8-3.4c0.4-0.2,1.1-1.3,1.1-0.3c0,0.2-0.2,0.4-0.4,0.5c-0.3,0.1-0.5,0.4-0.5,0.6
		C51,129.7,51.2,129.9,51.6,129.9C51.5,129.9,51.5,129.9,51.6,129.9z M53.1,131.4c-1.1,1.8,3.4-0.5,0.6-0.4
		C53.5,131,53.2,131.2,53.1,131.4z"/>
	<path class="st14" d="M41.5,130.5h0.2C43,133.1,42.9,133.1,41.5,130.5z"/>
	<path class="st14" d="M44.3,130.7c0.5,0.6,0.5,1.3-0.1,2h-0.5L44.3,130.7z"/>
	<path class="st2" d="M105.2,135.2c0.3,0.1,0.6,0.5,0.6,0.9v7.9c0,0.4-0.1,0.7-0.2,0.9c-1.9,3.1-3.9,3.1-6.1,0.2
		c-0.2-0.3-0.3-0.6-0.3-0.9c0-1.4-0.2-13.3,0.3-13.4c0.2-0.1,0.5,0.1,0.7,0.4C101.3,132.9,102.9,134.2,105.2,135.2z"/>
	<path class="st12" d="M53.7,131c2.8-0.1-1.7,2.2-0.6,0.4C53.2,131.2,53.5,131,53.7,131z"/>
	<path class="st2" d="M42.5,133.2v0.5c-0.9,0.9-1.4,0.7-1.5-0.5C41.6,132.7,42.1,132.7,42.5,133.2z"/>
	<path class="st12" d="M43.8,132.7h0.5c0.6,1.2,0,1.6-1.7,1v-0.5L43.8,132.7z"/>
	<path class="st4" d="M55.2,134.2l-0.4,1.2c-1.4-0.7-2.9-0.9-4.5-0.7c-0.3,0-0.6-0.1-0.7-0.4c-0.5-1.2-0.4-1.5,0.3-0.9
		c0.2,0.2,0.5,0.3,0.8,0.3L55.2,134.2z"/>
	<path class="st11" d="M53,136.5c0,0.8-0.3,1.3-1,1.5c-2.2-1.2-2.3-0.9-0.5,0.8c0.5,0.5,0.6,0.9,0.2,1.2c-0.4,0.2-0.6,0.5-0.6,0.7
		l-0.1,0.8c-1.1-0.5-1.2-1.1-0.3-1.7c0.2-0.1,0.3-0.4,0.2-0.6c0,0,0-0.1-0.1-0.1c-0.3-0.3-0.6-0.2-0.7,0.3c-0.1,0.3-0.3,0.4-0.6,0.4
		c-2.7-0.3,0.1,1.3,0.1,2.6l-1,0.2c-0.3-1.6-1-1.9-1.9-0.9c-0.3,0.3-0.5,0.5-0.8,0.5c-1,0.1-1.6-0.3-1.8-1.3c1,0.4,2.8-1.9,0.5-1
		c-1.8-0.3,2.3-1.4-0.5-2.1c-0.3-0.9-0.9-1-1.8-0.2c-0.3-0.7-0.1-1.3,0.6-1.6c0.3-0.2,0.6-0.1,0.8,0.1l3,3.4c0.1,0.1,0.3,0.2,0.4,0
		c0,0,0,0,0.1-0.1C48,138.5,51.4,134.7,53,136.5z"/>
	<path class="st9" d="M53,136.5h0.7l-2.7,5.8l-0.1-0.8l0.1-0.8c0-0.2,0.3-0.4,0.6-0.7c0.4-0.3,0.4-0.7-0.2-1.2L52,138
		C52.7,137.8,53.1,137.3,53,136.5z"/>
	<path class="st10" d="M44,138c-0.7,0-1.1,0.3-1,1c-1.1,0.3-1.2,0.6-0.4,1c0.3,0.2,0.5,0.4,0.5,0.7c-0.1,0.9-3.4-0.5-1.1-2.7
		l0.2-0.2C43.1,137,43.7,137.1,44,138z"/>
	<path class="st10" d="M52,138l-0.5,0.8C49.7,137.1,49.9,136.8,52,138z"/>
	<path class="st9" d="M44,138c2.8,0.7-1.3,1.8,0.5,2.1l-0.5,0.2c-0.7-0.2-1-0.6-1-1.3C42.9,138.3,43.3,137.9,44,138z"/>
	<path class="st10" d="M51,141.5l0.1,0.8c-0.4,0.6-0.9,0.7-1.5,0.2c0-1.3-2.8-2.9-0.1-2.6c0.3,0,0.5-0.1,0.6-0.4
		c0.1-0.5,0.4-0.6,0.7-0.3c0.2,0.1,0.2,0.4,0,0.5l-0.1,0.1C49.8,140.4,49.8,141,51,141.5z"/>
	<path class="st10" d="M44,141v-0.7l0.5-0.2C46.8,139.1,45,141.4,44,141z"/>
	<path class="st10" d="M44,141c0.2,1,0.8,1.4,1.8,1.3c0.3,0,0.6-0.2,0.8-0.5c0.9-1,1.5-0.7,1.9,0.9l-7.5-0.2
		c0.3-0.6,0.6-0.8,1.1-0.6c0.2,0.1,0.5,0,0.7-0.1C43,141.3,43.4,141.1,44,141z"/>
	<path class="st15" d="M61.9,142.3c0-0.4,0.3-0.6,0.9-0.4c0.2,0.1,0.4,0.3,0.3,0.5c0,0,0,0.1-0.1,0.1c-0.1,0.2-0.3,0.3-0.5,0.3
		C62.2,142.9,61.9,142.7,61.9,142.3C61.9,142.4,61.9,142.4,61.9,142.3z"/>
	<path class="st21" d="M65.9,142.7c0,0.5-0.4,0.5-1.1,0c-0.3-0.2-0.3-0.5-0.1-0.6C65.2,141.8,65.9,142.1,65.9,142.7z"/>
</g>
</svg>
