<?xml version="1.0" encoding="utf-8"?>
<!-- Generator: Adobe Illustrator 27.0.1, SVG Export Plug-In . SVG Version: 6.00 Build 0)  -->
<svg version="1.1" id="Слой_1" xmlns="http://www.w3.org/2000/svg" xmlns:xlink="http://www.w3.org/1999/xlink" x="0px" y="0px"
	 viewBox="0 0 128 168" style="enable-background:new 0 0 128 168;" xml:space="preserve">
<style type="text/css">
	.st0{fill:#D8D8D8;}
	.st1{fill:#AAAAAA;}
	.st2{fill:#FFFFFF;}
	.st3{fill:#2D261B;}
</style>
<g>
	<path class="st0" d="M107.9,161.7H20.1c-6.9,0-12.4-5.6-12.4-12.4V18.8c0-6.9,5.6-12.4,12.4-12.4h87.8c6.9,0,12.4,5.6,12.4,12.4
		v130.5C120.3,156.1,114.8,161.7,107.9,161.7z"/>
	<path class="st1" d="M106.9,157.8H21.1c-5.5,0-9.9-4.4-9.9-9.9V19.8c0-5.5,4.4-9.9,9.9-9.9h85.8c5.5,0,9.9,4.4,9.9,9.9v128.1
		C116.8,153.4,112.4,157.8,106.9,157.8z"/>
	<path class="st2" d="M106.6,154.8H21.4c-4.4,0-8-3.6-8-8V20.9c0-4.4,3.6-8,8-8h85.2c4.4,0,8,3.6,8,8v125.9
		C114.6,151.2,111,154.8,106.6,154.8z"/>
</g>
<g>
	<path class="st3" d="M27.7,40.2v-1.9c0-0.3-0.2-0.5-0.5-0.5h-9.4c-0.3,0-0.5-0.2-0.5-0.5c-0.1-1.2-0.2-2.1,0.5-3.1
		c3.4-5.4,6.8-10.7,10.1-16.1c0.2-0.3,0.4-0.5,0.7-0.6c0.7-0.3,1.5-0.3,2.2,0c0.3,0.1,0.4,0.4,0.5,0.7v15.7c0,0.3,0.2,0.4,0.5,0.4
		c2.5-0.4,3.4,0.6,2.6,3.1c-0.1,0.3-0.4,0.4-0.7,0.5L32,37.8c-0.3,0-0.6,0.2-0.7,0.5c-0.5,1.5-0.1,2.3,1.1,2.5
		c0.3,0.1,0.6,0.3,0.5,0.6v2.2c0,0.3-0.3,0.5-0.6,0.5h-6c-0.3,0-0.6-0.2-0.6-0.5c-0.5-1.8,0-2.8,1.5-2.9
		C27.5,40.7,27.7,40.5,27.7,40.2z M27.3,25.4c-1.9,2.3-3.8,5.7-5.3,8.4c-0.1,0.2-0.1,0.3,0.1,0.4c0,0,0.1,0,0.2,0h4.9
		c0.3,0,0.5-0.3,0.5-0.5v-8.1C27.6,25.1,27.5,25.1,27.3,25.4z"/>
	<path class="st2" d="M22,33.7c1.5-2.6,3.4-6,5.3-8.4c0.2-0.3,0.4-0.3,0.4,0.1v8.1c0,0.3-0.2,0.5-0.5,0.5h-4.9
		C22.1,34,22,33.9,22,33.7C22,33.8,22,33.8,22,33.7z"/>
	<path class="st3" d="M48.8,55.2c-0.2-0.3-0.5-0.4-0.8-0.3L47.9,55c-3.6,3.1-5.4,2.3-5.5-2.3c0-0.3,0.1-0.6,0.3-0.9l5.1-7.6
		c0.2-0.2,0.4-0.2,0.5,0l5.1,7.4c1,1.5,0.9,2.9-0.3,4.2C51.4,57.7,49.9,57.5,48.8,55.2z"/>
	<path class="st3" d="M80.8,55.4c-0.4-1.1-0.9-1.1-1.6-0.2c-1.6,2.3-3,2.5-4.4,0.6c-1-1.5-1-3.1,0.1-4.7l4.7-7
		c0.1-0.2,0.3-0.2,0.5-0.1c0,0,0.1,0,0.1,0.1c2,2.9,8.2,9.7,3.7,12.6C83.7,57,83.4,57,83.1,57C81.9,56.9,81.2,56.3,80.8,55.4z"/>
	<path class="st3" d="M32.3,61c-0.7,2.7-2.2,3.3-4.4,2c-0.2-0.1-0.4-0.4-0.6-0.8c-0.3-0.6-0.7-0.9-1.3-1c-0.3,0-0.6,0.1-0.8,0.4
		c-0.6,0.8-1.4,1.4-2.3,1.9c-0.3,0.1-0.6,0.1-0.9,0C15.5,61,23.6,52.2,25.7,49c0.1-0.2,0.3-0.2,0.5-0.1l0.1,0.1l5.3,7.8
		C32.5,58.2,32.7,59.6,32.3,61z"/>
	<path class="st3" d="M47.8,55.8c0.3-0.4,0.5-0.4,0.7,0.1l1,2.8c0.1,0.2,0,0.5-0.3,0.6l0,0C46,60.1,45.5,58.9,47.8,55.8z"/>
	<path class="st3" d="M79.8,55.8c0.3-0.4,0.5-0.4,0.7,0.1l1,2.8c0.1,0.2,0,0.5-0.3,0.6l0,0C78,60.1,77.5,58.9,79.8,55.8z"/>
	<path class="st3" d="M24.4,65.9l1.1-3.5c0.1-0.2,0.3-0.4,0.6-0.3c0.1,0,0.2,0.1,0.3,0.3l1.3,3.5c0.1,0.2,0,0.5-0.3,0.6h-0.1
		l-2.4,0.1c-0.3,0-0.5-0.2-0.5-0.4C24.3,66,24.3,66,24.4,65.9z"/>
	<path class="st3" d="M102.6,104.8c-0.3,0.8-0.6,0.9-0.9,0.1l-1.3-3.7c-0.1-0.2,0.1-0.5,0.3-0.6c0,0,0,0,0.1,0c1-0.2,2.1-0.2,3,0
		c0.2,0,0.3,0.3,0.2,0.5c0,0,0,0,0,0.1L102.6,104.8z"/>
	<path class="st3" d="M102.8,105.5c1.8-4.6,8.4-0.7,4.4,5.3c-1.6,2.4-3.2,4.8-4.9,7.2c-0.1,0.2-0.3,0.2-0.5,0.1l-0.1-0.1
		c-1.9-2.8-7.2-8.9-6.1-12.2c1-3.1,4.1-3.1,5.6-0.3C101.8,106.7,102.3,106.6,102.8,105.5z"/>
	<path class="st3" d="M49.6,109.1l-1.2,3c-0.1,0.3-0.7,0.5-0.9,0l-1-3.1c-0.1-0.2,0.1-0.6,0.4-0.5c0,0,2.2,0,2.2,0
		c0.2,0,0.4,0.2,0.4,0.4C49.6,109,49.6,109.1,49.6,109.1z"/>
	<path class="st3" d="M80.6,111.8c-0.5,0.7-0.8,0.7-1.1-0.2l-0.9-2.4c-0.1-0.2,0-0.5,0.3-0.6l0,0C81.9,107.8,82.5,108.9,80.6,111.8z
		"/>
	<path class="st3" d="M47.1,112.7c0.2,0.4,0.6,0.5,1.1,0.3c0.1,0,0.1-0.1,0.2-0.1l2.5-1.8c0.2-0.2,0.6-0.2,0.9,0
		c4.9,2.9-1.5,9.7-3.5,12.6c-0.1,0.3-0.4,0.2-0.5,0c-1.4-2.2-2.9-4.4-4.4-6.6C40.4,112.7,45.2,108.5,47.1,112.7z"/>
	<path class="st3" d="M79.1,112.7c0.2,0.4,0.7,0.5,1.1,0.3l0.1-0.1l2.6-1.8c0.2-0.2,0.6-0.1,0.9,0.1c4.8,3.3-1.3,9.3-3.5,12.6
		c-0.2,0.2-0.4,0.2-0.5,0c-2-3-8.2-9.5-3.7-12.6c0.3-0.2,0.6-0.3,0.9-0.2C78,111.2,78.7,111.7,79.1,112.7z"/>
	<path class="st3" d="M100.2,127.8l0.1,2c0,0.3,0.3,0.5,0.7,0.5h7.4c2.7,0,3.3,1.2,1.8,3.4l-10.3,16.4c-0.2,0.3-0.4,0.5-0.7,0.6
		c-0.7,0.2-1.4,0.1-2.1-0.1c-0.3-0.1-0.5-0.4-0.5-0.7l-0.1-15.7c0-0.2-0.2-0.4-0.4-0.4c0,0,0,0-0.1,0c-2.6,0.4-3.4-0.7-2.6-3.2
		c0.1-0.3,0.4-0.4,0.6-0.4c2,0.4,2.9-0.4,2.6-2.3c0-0.3-0.3-0.5-0.6-0.6c-1.4-0.4-1.8-1.4-1.1-3.1c0.1-0.3,0.4-0.5,0.7-0.5h5.9
		c0.3,0,0.5,0.2,0.5,0.5v2.4c0,0.3-0.2,0.5-0.5,0.5l-0.9,0.1C100.5,127.3,100.2,127.5,100.2,127.8L100.2,127.8z M100.8,142.8
		l5.1-8.4c0.2-0.3,0.1-0.5-0.2-0.5l-4.8-0.1c-0.3,0-0.5,0.2-0.5,0.6l0,0l-0.1,8.2C100.3,143.3,100.4,143.3,100.8,142.8z"/>
	<path class="st2" d="M100.8,142.8c-0.3,0.5-0.5,0.5-0.5-0.1l0.1-8.2c0-0.3,0.2-0.6,0.5-0.6l4.8,0.1c0.4,0,0.5,0.2,0.2,0.5
		L100.8,142.8z"/>
</g>
</svg>
