<?xml version="1.0" encoding="UTF-8" standalone="no"?>
<svg xmlns="http://www.w3.org/2000/svg" version="1.2" baseProfile="tiny" viewBox="0 0 128 168">
<g stroke-width="0.00" fill="none" stroke-linecap="butt">
<path stroke="#d8d8d8" stroke-opacity="0.592" vector-effect="non-scaling-stroke" d="
  M 17.00 152.96
  Q 19.67 155.18 22.06 155.19
  Q 61.16 155.26 100.25 155.29"
/>
<path stroke="#262117" stroke-opacity="0.592" vector-effect="non-scaling-stroke" d="
  M 100.25 155.29
  Q 102.13 156.35 104.00 155.29"
/>
<path stroke="#d8d8d8" stroke-opacity="0.592" vector-effect="non-scaling-stroke" d="
  M 104.00 155.29
  C 112.41 155.25 114.48 150.01 114.49 142.36
  Q 114.52 83.83 114.49 25.30
  C 114.49 18.36 112.40 12.73 104.75 12.73
  Q 63.62 12.78 22.50 12.71
  Q 17.68 12.70 14.96 17.50"
/>
<path stroke="#96938d" vector-effect="non-scaling-stroke" d="
  M 104.00 155.29
  L 100.25 155.29"
/>
<path stroke="#f9fafa" stroke-opacity="0.988" vector-effect="non-scaling-stroke" d="
  M 17.00 152.96
  Q 14.00 149.05 14.00 146.75
  Q 14.01 84.25 14.00 21.75
  Q 14.00 21.04 14.96 17.50"
/>
<path stroke="#96938d" vector-effect="non-scaling-stroke" d="
  M 34.97 22.87
  A 5.82 5.82 0.0 0 0 29.15 17.05
  L 28.61 17.05
  A 5.82 5.82 0.0 0 0 22.79 22.87
  L 22.79 38.87
  A 5.82 5.82 0.0 0 0 28.61 44.69
  L 29.15 44.69
  A 5.82 5.82 0.0 0 0 34.97 38.87
  L 34.97 22.87"
/>
<path stroke="#96938d" vector-effect="non-scaling-stroke" d="
  M 20.50 17.80
  A 0.53 0.53 0.0 0 0 19.97 17.27
  L 17.29 17.27
  A 0.53 0.53 0.0 0 0 16.76 17.80
  L 16.76 43.74
  A 0.53 0.53 0.0 0 0 17.29 44.27
  L 19.97 44.27
  A 0.53 0.53 0.0 0 0 20.50 43.74
  L 20.50 17.80"
/>
<path stroke="#e2e1de" vector-effect="non-scaling-stroke" d="
  M 46.75 55.96
  L 47.29 56.25"
/>
<path stroke="#96938d" vector-effect="non-scaling-stroke" d="
  M 47.29 56.25
  Q 44.80 60.82 49.22 59.24
  A 0.44 0.41 65.9 0 0 49.43 58.63
  Q 48.81 57.53 48.71 56.25"
/>
<path stroke="#e2e1de" vector-effect="non-scaling-stroke" d="
  M 48.71 56.25
  L 49.00 55.71"
/>
<path stroke="#96938d" vector-effect="non-scaling-stroke" d="
  M 49.00 55.71
  Q 50.47 57.87 52.21 56.69
  C 56.38 53.88 50.09 47.00 48.25 44.18
  A 0.33 0.32 -45.2 0 0 47.70 44.19
  L 42.66 51.79
  Q 41.57 53.43 42.52 55.17
  Q 44.18 58.23 46.75 55.96"
/>
<path stroke="#79756c" vector-effect="non-scaling-stroke" d="
  M 49.00 55.71
  Q 47.78 54.10 46.75 55.96"
/>
<path stroke="#79756c" vector-effect="non-scaling-stroke" d="
  M 48.71 56.25
  Q 48.06 54.84 47.29 56.25"
/>
<path stroke="#96938d" vector-effect="non-scaling-stroke" d="
  M 75.85 56.71
  A 1.66 1.65 -52.4 0 0 78.34 56.38
  C 81.09 52.22 81.37 59.52 84.93 56.15
  Q 86.98 54.22 85.19 51.56
  L 80.25 44.18
  A 0.33 0.32 -45.5 0 0 79.71 44.19
  C 77.59 47.48 71.84 53.13 75.85 56.71"
/>
<path stroke="#96938d" vector-effect="non-scaling-stroke" d="
  M 32.32 61.02
  Q 32.87 58.73 31.44 56.66
  L 26.26 49.14
  A 0.34 0.34 45.5 0 0 25.70 49.13
  C 23.56 52.18 15.52 60.99 22.04 63.56
  A 1.21 1.14 42.2 0 0 22.97 63.54
  Q 24.34 62.92 25.26 61.67
  A 0.85 0.70 -62.0 0 1 26.05 61.34
  Q 27.07 61.60 27.55 62.55
  A 1.61 0.91 76.5 0 0 28.19 63.24
  Q 31.44 64.75 32.32 61.02"
/>
<path stroke="#e2e1de" vector-effect="non-scaling-stroke" d="
  M 62.75 66.71
  L 63.29 67.25"
/>
<path stroke="#96938d" vector-effect="non-scaling-stroke" d="
  M 63.29 67.25
  L 62.58 69.14
  A 0.47 0.39 -69.8 0 0 62.79 69.73
  Q 67.10 71.13 64.46 66.75"
/>
<path stroke="#e2e1de" vector-effect="non-scaling-stroke" d="
  M 64.46 66.75
  L 65.00 66.46"
/>
<path stroke="#96938d" vector-effect="non-scaling-stroke" d="
  M 65.00 66.46
  Q 68.12 69.27 69.64 65.36
  A 3.05 2.77 -53.1 0 0 69.39 62.65
  L 64.28 55.11
  A 0.36 0.35 -45.2 0 0 63.69 55.12
  L 58.91 62.09
  Q 57.54 64.09 58.78 66.31
  Q 60.10 68.67 62.75 66.71"
/>
<path stroke="#79756c" vector-effect="non-scaling-stroke" d="
  M 65.00 66.46
  Q 63.84 64.64 62.75 66.71"
/>
<path stroke="#79756c" vector-effect="non-scaling-stroke" d="
  M 64.46 66.75
  Q 63.61 66.26 63.29 67.25"
/>
<path stroke="#96938d" vector-effect="non-scaling-stroke" d="
  M 79.65 56.24
  Q 76.89 60.47 81.12 59.40
  A 0.47 0.47 73.7 0 0 81.45 58.79
  L 80.57 56.32
  Q 80.23 55.34 79.65 56.24"
/>
<path stroke="#96938d" vector-effect="non-scaling-stroke" d="
  M 25.19 62.92
  L 24.35 65.82
  A 0.49 0.46 -76.2 0 0 24.69 66.42
  Q 25.97 66.69 27.32 66.41
  A 0.45 0.44 -16.3 0 0 27.65 65.82
  L 26.56 62.82
  Q 25.82 60.77 25.19 62.92"
/>
<path stroke="#e2e1de" vector-effect="non-scaling-stroke" d="
  M 46.75 77.46
  L 47.25 77.54"
/>
<path stroke="#96938d" vector-effect="non-scaling-stroke" d="
  M 47.25 77.54
  Q 47.15 78.89 46.51 80.07
  A 0.38 0.38 -68.0 0 0 46.74 80.63
  Q 51.16 81.66 48.50 77.29"
/>
<path stroke="#e2e1de" vector-effect="non-scaling-stroke" d="
  M 48.50 77.29
  L 49.00 76.96"
/>
<path stroke="#96938d" vector-effect="non-scaling-stroke" d="
  M 49.00 76.96
  Q 52.31 80.15 53.59 76.29
  Q 54.21 74.39 53.10 72.78
  L 48.20 65.68
  A 0.34 0.33 -46.7 0 0 47.64 65.70
  C 45.37 69.22 41.51 73.29 42.44 76.24
  Q 43.53 79.71 46.75 77.46"
/>
<path stroke="#79756c" vector-effect="non-scaling-stroke" d="
  M 49.00 76.96
  Q 47.31 75.17 46.75 77.46"
/>
<path stroke="#79756c" vector-effect="non-scaling-stroke" d="
  M 48.50 77.29
  L 47.25 77.54"
/>
<path stroke="#e2e1de" vector-effect="non-scaling-stroke" d="
  M 78.75 77.46
  L 79.21 77.75"
/>
<path stroke="#96938d" vector-effect="non-scaling-stroke" d="
  M 79.21 77.75
  Q 79.10 78.99 78.51 80.07
  A 0.39 0.38 -68.3 0 0 78.74 80.63
  Q 83.16 81.66 80.50 77.29"
/>
<path stroke="#e2e1de" vector-effect="non-scaling-stroke" d="
  M 80.50 77.29
  L 81.00 76.96"
/>
<path stroke="#96938d" vector-effect="non-scaling-stroke" d="
  M 81.00 76.96
  Q 84.31 80.15 85.60 76.26
  Q 86.21 74.41 85.14 72.86
  L 80.20 65.68
  A 0.35 0.34 -45.2 0 0 79.63 65.69
  C 77.89 68.31 73.52 73.33 74.44 76.24
  Q 75.53 79.71 78.75 77.46"
/>
<path stroke="#79756c" vector-effect="non-scaling-stroke" d="
  M 81.00 76.96
  Q 79.31 75.17 78.75 77.46"
/>
<path stroke="#79756c" vector-effect="non-scaling-stroke" d="
  M 80.50 77.29
  Q 79.61 76.74 79.21 77.75"
/>
<path stroke="#e2e1de" vector-effect="non-scaling-stroke" d="
  M 47.29 90.25
  L 46.75 90.54"
/>
<path stroke="#96938d" vector-effect="non-scaling-stroke" d="
  M 46.75 90.54
  Q 43.13 88.32 42.32 92.06
  Q 41.94 93.81 42.92 95.25
  L 47.78 102.31
  A 0.35 0.34 -45.2 0 0 48.35 102.30
  L 53.28 95.02
  Q 55.00 92.50 52.91 90.59
  Q 50.99 88.83 49.25 90.79"
/>
<path stroke="#e2e1de" vector-effect="non-scaling-stroke" d="
  M 49.25 90.79
  L 48.71 90.50"
/>
<path stroke="#96938d" vector-effect="non-scaling-stroke" d="
  M 48.71 90.50
  L 49.52 87.95
  A 0.49 0.40 -73.4 0 0 49.27 87.36
  Q 44.99 86.17 47.29 90.25"
/>
<path stroke="#79756c" vector-effect="non-scaling-stroke" d="
  M 48.71 90.50
  Q 47.77 91.50 47.29 90.25"
/>
<path stroke="#79756c" vector-effect="non-scaling-stroke" d="
  M 46.75 90.54
  Q 47.82 92.82 49.25 90.79"
/>
<path stroke="#e2e1de" vector-effect="non-scaling-stroke" d="
  M 79.29 90.25
  L 78.75 90.54"
/>
<path stroke="#96938d" vector-effect="non-scaling-stroke" d="
  M 78.75 90.54
  Q 75.24 88.72 74.42 91.75
  C 73.63 94.66 78.09 100.11 79.83 102.31
  A 0.36 0.35 41.4 0 0 80.41 102.28
  C 81.82 100.06 85.25 96.10 85.70 93.69
  C 86.13 91.41 83.85 88.22 81.50 90.54"
/>
<path stroke="#e2e1de" vector-effect="non-scaling-stroke" d="
  M 81.50 90.54
  L 80.75 90.46"
/>
<path stroke="#96938d" vector-effect="non-scaling-stroke" d="
  M 80.75 90.46
  L 81.52 87.94
  A 0.48 0.40 -73.8 0 0 81.27 87.36
  Q 76.99 86.17 79.29 90.25"
/>
<path stroke="#79756c" vector-effect="non-scaling-stroke" d="
  M 80.75 90.46
  Q 79.89 91.37 79.29 90.25"
/>
<path stroke="#79756c" vector-effect="non-scaling-stroke" d="
  M 78.75 90.54
  Q 80.05 92.89 81.50 90.54"
/>
<path stroke="#96938d" vector-effect="non-scaling-stroke" d="
  M 64.83 98.07
  L 63.06 97.99
  A 0.46 0.40 83.8 0 0 62.67 98.55
  Q 64.16 104.81 65.23 98.68
  A 0.53 0.45 -82.9 0 0 64.83 98.07"
/>
<path stroke="#96938d" vector-effect="non-scaling-stroke" d="
  M 68.86 105.98
  C 71.27 102.09 67.45 98.42 64.81 101.86
  A 1.07 1.06 -44.6 0 1 63.11 101.85
  Q 60.33 98.15 58.29 102.75
  A 2.57 2.52 -50.3 0 0 58.49 105.21
  L 63.76 113.03
  A 0.34 0.34 45.7 0 0 64.32 113.03
  Q 66.69 109.47 68.86 105.98"
/>
<path stroke="#96938d" vector-effect="non-scaling-stroke" d="
  M 102.56 104.83
  L 103.94 101.19
  A 0.43 0.37 -71.9 0 0 103.71 100.63
  Q 102.24 100.27 100.68 100.59
  A 0.47 0.46 -15.5 0 0 100.33 101.19
  L 101.65 104.92
  Q 102.07 106.10 102.56 104.83"
/>
<path stroke="#96938d" vector-effect="non-scaling-stroke" d="
  M 108.15 109.22
  C 110.02 104.21 104.34 101.34 102.76 105.47
  Q 102.09 107.20 101.22 105.56
  C 99.71 102.71 96.63 102.73 95.61 105.84
  C 94.55 109.08 99.82 115.17 101.71 117.87
  A 0.36 0.35 45.5 0 0 102.29 117.88
  Q 107.54 110.83 108.15 109.22"
/>
<path stroke="#96938d" vector-effect="non-scaling-stroke" d="
  M 48.45 111.98
  Q 51.38 107.67 47.03 108.60
  A 0.49 0.46 -15.4 0 0 46.66 109.20
  L 47.55 111.90
  Q 47.86 112.84 48.45 111.98"
/>
<path stroke="#96938d" vector-effect="non-scaling-stroke" d="
  M 80.45 111.98
  Q 83.38 107.67 79.03 108.60
  A 0.49 0.46 -15.4 0 0 78.66 109.20
  L 79.55 111.90
  Q 79.86 112.84 80.45 111.98"
/>
<path stroke="#96938d" vector-effect="non-scaling-stroke" d="
  M 47.06 112.69
  C 45.24 108.49 40.38 112.75 43.37 117.22
  Q 45.57 120.52 47.73 123.82
  A 0.34 0.33 -44.3 0 0 48.29 123.82
  C 50.26 120.90 56.49 114.19 51.91 111.25
  A 1.12 1.08 52.8 0 0 51.00 111.11
  Q 49.73 111.46 48.96 112.46
  A 1.29 0.92 -42.6 0 1 47.06 112.69"
/>
<path stroke="#96938d" vector-effect="non-scaling-stroke" d="
  M 79.07 112.71
  Q 78.45 111.28 76.95 110.99
  A 1.20 1.07 -55.2 0 0 76.04 111.21
  C 71.58 114.57 77.76 120.68 79.74 123.82
  A 0.32 0.32 44.8 0 0 80.28 123.82
  C 82.49 120.53 88.49 114.47 83.78 111.18
  A 0.86 0.67 42.6 0 0 82.90 111.11
  L 80.30 112.92
  A 0.87 0.73 -30.3 0 1 79.07 112.71"
/>
<path stroke="#96938d" vector-effect="non-scaling-stroke" d="
  M 105.21 129.12
  A 5.82 5.82 0.0 0 0 99.39 123.30
  L 98.85 123.30
  A 5.82 5.82 0.0 0 0 93.03 129.12
  L 93.03 145.12
  A 5.82 5.82 0.0 0 0 98.85 150.94
  L 99.39 150.94
  A 5.82 5.82 0.0 0 0 105.21 145.12
  L 105.21 129.12"
/>
<path stroke="#96938d" vector-effect="non-scaling-stroke" d="
  M 111.24 124.26
  A 0.53 0.53 0.0 0 0 110.71 123.73
  L 108.03 123.73
  A 0.53 0.53 0.0 0 0 107.50 124.26
  L 107.50 150.20
  A 0.53 0.53 0.0 0 0 108.03 150.73
  L 110.71 150.73
  A 0.53 0.53 0.0 0 0 111.24 150.20
  L 111.24 124.26"
/>
<path stroke="#96938d" vector-effect="non-scaling-stroke" d="
  M 31.25 22.82
  A 2.30 2.30 0.0 0 0 28.95 20.52
  L 28.81 20.52
  A 2.30 2.30 0.0 0 0 26.51 22.82
  L 26.51 38.92
  A 2.30 2.30 0.0 0 0 28.81 41.22
  L 28.95 41.22
  A 2.30 2.30 0.0 0 0 31.25 38.92
  L 31.25 22.82"
/>
<path stroke="#96938d" vector-effect="non-scaling-stroke" d="
  M 101.50 129.09
  A 2.30 2.30 0.0 0 0 99.20 126.79
  L 99.06 126.79
  A 2.30 2.30 0.0 0 0 96.76 129.09
  L 96.76 145.17
  A 2.30 2.30 0.0 0 0 99.06 147.47
  L 99.20 147.47
  A 2.30 2.30 0.0 0 0 101.50 145.17
  L 101.50 129.09"
/>
</g>
<path fill="#000001" fill-opacity="0.098" d="
  M 112.28 9.53
  C 114.62 9.01 117.51 14.34 118.12 16.10
  Q 118.24 16.44 118.50 16.63
  A 1.13 0.68 25.6 0 1 118.96 17.33
  Q 119.07 19.49 120.24 21.34
  A 1.80 1.62 31.5 0 1 120.51 22.25
  C 120.57 44.20 120.03 66.25 120.71 88.18
  A 0.66 0.43 -32.8 0 1 120.52 88.60
  C 120.49 88.63 120.58 98.82 120.55 102.25
  Q 120.38 123.71 120.20 145.17
  C 120.19 147.38 119.16 148.83 118.78 151.00
  A 1.68 1.21 -24.4 0 1 118.32 151.80
  C 116.60 153.42 116.58 156.14 113.81 156.90
  A 1.35 1.34 9.5 0 0 113.05 157.44
  Q 111.79 159.32 109.65 159.93
  A 0.37 0.28 76.3 0 0 109.47 160.35
  Q 109.50 160.49 109.43 160.61
  A 0.52 0.31 8.2 0 1 109.02 160.78
  Q 88.89 161.19 68.76 160.93
  C 67.97 160.92 66.84 161.27 65.94 160.87
  Q 65.43 160.65 65.00 160.65
  L 20.57 160.67
  A 0.77 0.56 76.5 0 1 19.98 160.17
  Q 19.73 159.51 18.75 159.64
  A 0.86 0.85 65.5 0 1 17.97 159.34
  Q 17.21 158.44 15.89 158.60
  A 1.28 0.84 52.4 0 1 15.06 158.31
  L 11.97 155.90
  Q 11.63 155.64 11.32 155.23
  L 9.65 153.03
  A 1.46 0.73 41.8 0 1 9.32 152.19
  Q 9.42 150.53 8.29 149.37
  A 1.08 0.99 28.6 0 1 8.00 148.53
  C 8.32 145.99 7.25 144.01 7.25 141.81
  Q 7.25 111.66 7.25 81.53
  C 7.25 79.33 7.85 76.89 7.39 73.82
  C 6.57 68.36 8.31 60.07 7.28 51.85
  C 6.90 48.80 7.98 45.57 8.00 43.13
  Q 8.02 40.77 7.98 38.41
  A 0.43 0.42 -85.9 0 0 7.63 38.00
  L 7.46 37.97
  A 0.22 0.20 5.1 0 1 7.28 37.77
  L 7.27 32.94
  A 0.69 0.45 -19.6 0 1 7.64 32.45
  C 8.33 32.07 7.96 27.63 7.84 26.81
  C 7.56 24.76 7.74 20.29 8.33 18.33
  Q 9.23 15.38 9.49 14.97
  Q 11.66 11.65 14.94 9.41
  C 18.82 6.75 22.39 6.05 27.47 6.05
  Q 66.33 5.97 105.19 6.03
  A 0.56 0.43 3.0 0 1 105.76 6.52
  L 105.70 6.88
  A 0.30 0.24 -82.9 0 0 105.91 7.22
  L 108.79 7.42
  A 0.86 0.73 77.9 0 1 109.45 7.93
  L 109.61 8.33
  A 0.49 0.41 -20.9 0 0 110.19 8.53
  Q 110.73 8.35 110.75 8.82
  Q 110.76 9.12 110.93 8.89
  Q 111.69 7.91 111.80 9.19
  A 0.39 0.38 -8.9 0 0 112.28 9.53
  Z
  M 13.46 146.50
  L 15.29 151.25
  Q 15.10 153.45 14.57 151.71
  A 0.83 0.71 87.2 0 0 14.07 151.18
  C 12.31 150.68 13.21 152.08 13.63 152.59
  Q 16.17 155.66 19.68 157.33
  Q 22.35 158.60 27.04 158.63
  Q 63.55 158.89 100.07 158.79
  C 102.95 158.79 105.17 158.02 107.86 157.25
  A 1.04 0.72 -82.5 0 0 108.43 156.62
  Q 108.59 156.17 109.03 156.31
  A 0.86 0.64 26.1 0 0 109.82 156.16
  C 111.15 154.78 113.18 153.63 114.16 152.12
  Q 114.77 151.18 115.32 150.18
  A 0.58 0.53 32.6 0 0 115.13 149.47
  Q 114.25 148.83 115.31 148.76
  A 0.90 0.79 8.8 0 0 116.02 148.31
  Q 117.10 146.03 117.13 145.07
  C 117.99 105.54 117.51 65.91 117.47 26.37
  C 117.46 19.30 114.87 14.34 109.18 10.49
  A 1.66 1.24 -23.4 0 0 108.26 10.27
  L 103.73 10.53
  A 0.98 0.61 64.9 0 1 103.03 10.08
  Q 102.70 9.62 102.18 10.07
  Q 102.05 10.18 102.03 10.03
  L 102.00 9.85
  A 0.41 0.39 -5.1 0 0 101.60 9.53
  Q 68.59 9.48 35.57 9.52
  C 32.85 9.52 28.13 8.97 24.30 9.49
  Q 23.86 9.55 24.17 9.90
  C 25.01 10.83 22.95 10.41 22.57 10.45
  Q 17.10 11.10 13.05 14.55
  C 11.31 16.04 9.79 21.17 9.78 23.40
  Q 9.63 121.36 9.83 144.44
  Q 9.84 145.70 11.33 146.48
  A 0.87 0.77 -79.0 0 1 11.75 147.19
  L 11.83 149.70
  Q 11.85 150.19 11.99 149.71
  L 12.42 148.26
  A 1.50 0.74 55.9 0 0 12.29 147.31
  Q 11.43 145.37 13.46 146.50
  Z"
/>
<path fill="#020303" fill-opacity="0.184" d="
  M 15.29 151.25
  L 17.00 152.96
  Q 19.67 155.18 22.06 155.19
  Q 61.16 155.26 100.25 155.29
  Q 102.13 156.35 104.00 155.29
  C 112.41 155.25 114.48 150.01 114.49 142.36
  Q 114.52 83.83 114.49 25.30
  C 114.49 18.36 112.40 12.73 104.75 12.73
  Q 63.62 12.78 22.50 12.71
  Q 17.68 12.70 14.96 17.50
  Q 13.50 19.92 13.50 22.00
  Q 13.53 84.25 13.46 146.50
  Q 11.43 145.37 12.29 147.31
  A 1.50 0.74 55.9 0 1 12.42 148.26
  L 11.99 149.71
  Q 11.85 150.19 11.83 149.70
  L 11.75 147.19
  A 0.87 0.77 -79.0 0 0 11.33 146.48
  Q 9.84 145.70 9.83 144.44
  Q 9.63 121.36 9.78 23.40
  C 9.79 21.17 11.31 16.04 13.05 14.55
  Q 17.10 11.10 22.57 10.45
  C 22.95 10.41 25.01 10.83 24.17 9.90
  Q 23.86 9.55 24.30 9.49
  C 28.13 8.97 32.85 9.52 35.57 9.52
  Q 68.59 9.48 101.60 9.53
  A 0.41 0.39 -5.1 0 1 102.00 9.85
  L 102.03 10.03
  Q 102.05 10.18 102.18 10.07
  Q 102.70 9.62 103.03 10.08
  A 0.98 0.61 64.9 0 0 103.73 10.53
  L 108.26 10.27
  A 1.66 1.24 -23.4 0 1 109.18 10.49
  C 114.87 14.34 117.46 19.30 117.47 26.37
  C 117.51 65.91 117.99 105.54 117.13 145.07
  Q 117.10 146.03 116.02 148.31
  A 0.90 0.79 8.8 0 1 115.31 148.76
  Q 114.25 148.83 115.13 149.47
  A 0.58 0.53 32.6 0 1 115.32 150.18
  Q 114.77 151.18 114.16 152.12
  C 113.18 153.63 111.15 154.78 109.82 156.16
  A 0.86 0.64 26.1 0 1 109.03 156.31
  Q 108.59 156.17 108.43 156.62
  A 1.04 0.72 -82.5 0 1 107.86 157.25
  C 105.17 158.02 102.95 158.79 100.07 158.79
  Q 63.55 158.89 27.04 158.63
  Q 22.35 158.60 19.68 157.33
  Q 16.17 155.66 13.63 152.59
  C 13.21 152.08 12.31 150.68 14.07 151.18
  A 0.83 0.71 87.2 0 1 14.57 151.71
  Q 15.10 153.45 15.29 151.25
  Z"
/>
<path fill="#ffffff" d="
  M 104.00 155.29
  L 100.25 155.29
  Q 61.16 155.26 22.06 155.19
  Q 19.67 155.18 17.00 152.96
  Q 14.00 149.05 14.00 146.75
  Q 14.01 84.25 14.00 21.75
  Q 14.00 21.04 14.96 17.50
  Q 17.68 12.70 22.50 12.71
  Q 63.62 12.78 104.75 12.73
  C 112.40 12.73 114.49 18.36 114.49 25.30
  Q 114.52 83.83 114.49 142.36
  C 114.48 150.01 112.41 155.25 104.00 155.29
  Z
  M 34.97 22.87
  A 5.82 5.82 0.0 0 0 29.15 17.05
  L 28.61 17.05
  A 5.82 5.82 0.0 0 0 22.79 22.87
  L 22.79 38.87
  A 5.82 5.82 0.0 0 0 28.61 44.69
  L 29.15 44.69
  A 5.82 5.82 0.0 0 0 34.97 38.87
  L 34.97 22.87
  Z
  M 20.50 17.80
  A 0.53 0.53 0.0 0 0 19.97 17.27
  L 17.29 17.27
  A 0.53 0.53 0.0 0 0 16.76 17.80
  L 16.76 43.74
  A 0.53 0.53 0.0 0 0 17.29 44.27
  L 19.97 44.27
  A 0.53 0.53 0.0 0 0 20.50 43.74
  L 20.50 17.80
  Z
  M 46.75 55.96
  L 47.29 56.25
  Q 44.80 60.82 49.22 59.24
  A 0.44 0.41 65.9 0 0 49.43 58.63
  Q 48.81 57.53 48.71 56.25
  L 49.00 55.71
  Q 50.47 57.87 52.21 56.69
  C 56.38 53.88 50.09 47.00 48.25 44.18
  A 0.33 0.32 -45.2 0 0 47.70 44.19
  L 42.66 51.79
  Q 41.57 53.43 42.52 55.17
  Q 44.18 58.23 46.75 55.96
  Z
  M 75.85 56.71
  A 1.66 1.65 -52.4 0 0 78.34 56.38
  C 81.09 52.22 81.37 59.52 84.93 56.15
  Q 86.98 54.22 85.19 51.56
  L 80.25 44.18
  A 0.33 0.32 -45.5 0 0 79.71 44.19
  C 77.59 47.48 71.84 53.13 75.85 56.71
  Z
  M 32.32 61.02
  Q 32.87 58.73 31.44 56.66
  L 26.26 49.14
  A 0.34 0.34 45.5 0 0 25.70 49.13
  C 23.56 52.18 15.52 60.99 22.04 63.56
  A 1.21 1.14 42.2 0 0 22.97 63.54
  Q 24.34 62.92 25.26 61.67
  A 0.85 0.70 -62.0 0 1 26.05 61.34
  Q 27.07 61.60 27.55 62.55
  A 1.61 0.91 76.5 0 0 28.19 63.24
  Q 31.44 64.75 32.32 61.02
  Z
  M 62.75 66.71
  L 63.29 67.25
  L 62.58 69.14
  A 0.47 0.39 -69.8 0 0 62.79 69.73
  Q 67.10 71.13 64.46 66.75
  L 65.00 66.46
  Q 68.12 69.27 69.64 65.36
  A 3.05 2.77 -53.1 0 0 69.39 62.65
  L 64.28 55.11
  A 0.36 0.35 -45.2 0 0 63.69 55.12
  L 58.91 62.09
  Q 57.54 64.09 58.78 66.31
  Q 60.10 68.67 62.75 66.71
  Z
  M 79.65 56.24
  Q 76.89 60.47 81.12 59.40
  A 0.47 0.47 73.7 0 0 81.45 58.79
  L 80.57 56.32
  Q 80.23 55.34 79.65 56.24
  Z
  M 25.19 62.92
  L 24.35 65.82
  A 0.49 0.46 -76.2 0 0 24.69 66.42
  Q 25.97 66.69 27.32 66.41
  A 0.45 0.44 -16.3 0 0 27.65 65.82
  L 26.56 62.82
  Q 25.82 60.77 25.19 62.92
  Z
  M 46.75 77.46
  L 47.25 77.54
  Q 47.15 78.89 46.51 80.07
  A 0.38 0.38 -68.0 0 0 46.74 80.63
  Q 51.16 81.66 48.50 77.29
  L 49.00 76.96
  Q 52.31 80.15 53.59 76.29
  Q 54.21 74.39 53.10 72.78
  L 48.20 65.68
  A 0.34 0.33 -46.7 0 0 47.64 65.70
  C 45.37 69.22 41.51 73.29 42.44 76.24
  Q 43.53 79.71 46.75 77.46
  Z
  M 78.75 77.46
  L 79.21 77.75
  Q 79.10 78.99 78.51 80.07
  A 0.39 0.38 -68.3 0 0 78.74 80.63
  Q 83.16 81.66 80.50 77.29
  L 81.00 76.96
  Q 84.31 80.15 85.60 76.26
  Q 86.21 74.41 85.14 72.86
  L 80.20 65.68
  A 0.35 0.34 -45.2 0 0 79.63 65.69
  C 77.89 68.31 73.52 73.33 74.44 76.24
  Q 75.53 79.71 78.75 77.46
  Z
  M 47.29 90.25
  L 46.75 90.54
  Q 43.13 88.32 42.32 92.06
  Q 41.94 93.81 42.92 95.25
  L 47.78 102.31
  A 0.35 0.34 -45.2 0 0 48.35 102.30
  L 53.28 95.02
  Q 55.00 92.50 52.91 90.59
  Q 50.99 88.83 49.25 90.79
  L 48.71 90.50
  L 49.52 87.95
  A 0.49 0.40 -73.4 0 0 49.27 87.36
  Q 44.99 86.17 47.29 90.25
  Z
  M 79.29 90.25
  L 78.75 90.54
  Q 75.24 88.72 74.42 91.75
  C 73.63 94.66 78.09 100.11 79.83 102.31
  A 0.36 0.35 41.4 0 0 80.41 102.28
  C 81.82 100.06 85.25 96.10 85.70 93.69
  C 86.13 91.41 83.85 88.22 81.50 90.54
  L 80.75 90.46
  L 81.52 87.94
  A 0.48 0.40 -73.8 0 0 81.27 87.36
  Q 76.99 86.17 79.29 90.25
  Z
  M 64.83 98.07
  L 63.06 97.99
  A 0.46 0.40 83.8 0 0 62.67 98.55
  Q 64.16 104.81 65.23 98.68
  A 0.53 0.45 -82.9 0 0 64.83 98.07
  Z
  M 68.86 105.98
  C 71.27 102.09 67.45 98.42 64.81 101.86
  A 1.07 1.06 -44.6 0 1 63.11 101.85
  Q 60.33 98.15 58.29 102.75
  A 2.57 2.52 -50.3 0 0 58.49 105.21
  L 63.76 113.03
  A 0.34 0.34 45.7 0 0 64.32 113.03
  Q 66.69 109.47 68.86 105.98
  Z
  M 102.56 104.83
  L 103.94 101.19
  A 0.43 0.37 -71.9 0 0 103.71 100.63
  Q 102.24 100.27 100.68 100.59
  A 0.47 0.46 -15.5 0 0 100.33 101.19
  L 101.65 104.92
  Q 102.07 106.10 102.56 104.83
  Z
  M 108.15 109.22
  C 110.02 104.21 104.34 101.34 102.76 105.47
  Q 102.09 107.20 101.22 105.56
  C 99.71 102.71 96.63 102.73 95.61 105.84
  C 94.55 109.08 99.82 115.17 101.71 117.87
  A 0.36 0.35 45.5 0 0 102.29 117.88
  Q 107.54 110.83 108.15 109.22
  Z
  M 48.45 111.98
  Q 51.38 107.67 47.03 108.60
  A 0.49 0.46 -15.4 0 0 46.66 109.20
  L 47.55 111.90
  Q 47.86 112.84 48.45 111.98
  Z
  M 80.45 111.98
  Q 83.38 107.67 79.03 108.60
  A 0.49 0.46 -15.4 0 0 78.66 109.20
  L 79.55 111.90
  Q 79.86 112.84 80.45 111.98
  Z
  M 47.06 112.69
  C 45.24 108.49 40.38 112.75 43.37 117.22
  Q 45.57 120.52 47.73 123.82
  A 0.34 0.33 -44.3 0 0 48.29 123.82
  C 50.26 120.90 56.49 114.19 51.91 111.25
  A 1.12 1.08 52.8 0 0 51.00 111.11
  Q 49.73 111.46 48.96 112.46
  A 1.29 0.92 -42.6 0 1 47.06 112.69
  Z
  M 79.07 112.71
  Q 78.45 111.28 76.95 110.99
  A 1.20 1.07 -55.2 0 0 76.04 111.21
  C 71.58 114.57 77.76 120.68 79.74 123.82
  A 0.32 0.32 44.8 0 0 80.28 123.82
  C 82.49 120.53 88.49 114.47 83.78 111.18
  A 0.86 0.67 42.6 0 0 82.90 111.11
  L 80.30 112.92
  A 0.87 0.73 -30.3 0 1 79.07 112.71
  Z
  M 105.21 129.12
  A 5.82 5.82 0.0 0 0 99.39 123.30
  L 98.85 123.30
  A 5.82 5.82 0.0 0 0 93.03 129.12
  L 93.03 145.12
  A 5.82 5.82 0.0 0 0 98.85 150.94
  L 99.39 150.94
  A 5.82 5.82 0.0 0 0 105.21 145.12
  L 105.21 129.12
  Z
  M 111.24 124.26
  A 0.53 0.53 0.0 0 0 110.71 123.73
  L 108.03 123.73
  A 0.53 0.53 0.0 0 0 107.50 124.26
  L 107.50 150.20
  A 0.53 0.53 0.0 0 0 108.03 150.73
  L 110.71 150.73
  A 0.53 0.53 0.0 0 0 111.24 150.20
  L 111.24 124.26
  Z"
/>
<path fill="#2d261b" d="
  M 34.97 38.87
  A 5.82 5.82 0.0 0 1 29.15 44.69
  L 28.61 44.69
  A 5.82 5.82 0.0 0 1 22.79 38.87
  L 22.79 22.87
  A 5.82 5.82 0.0 0 1 28.61 17.05
  L 29.15 17.05
  A 5.82 5.82 0.0 0 1 34.97 22.87
  L 34.97 38.87
  Z
  M 31.25 22.82
  A 2.30 2.30 0.0 0 0 28.95 20.52
  L 28.81 20.52
  A 2.30 2.30 0.0 0 0 26.51 22.82
  L 26.51 38.92
  A 2.30 2.30 0.0 0 0 28.81 41.22
  L 28.95 41.22
  A 2.30 2.30 0.0 0 0 31.25 38.92
  L 31.25 22.82
  Z"
/>
<rect fill="#2d261b" x="16.76" y="17.27" width="3.74" height="27.00" rx="0.53"/>
<path fill="#f2f4f5" fill-opacity="0.973" d="
  M 14.96 17.50
  Q 14.00 21.04 14.00 21.75
  Q 14.01 84.25 14.00 146.75
  Q 14.00 149.05 17.00 152.96
  L 15.29 151.25
  L 13.46 146.50
  Q 13.53 84.25 13.50 22.00
  Q 13.50 19.92 14.96 17.50
  Z"
/>
<rect fill="#ffffff" x="26.51" y="20.52" width="4.74" height="20.70" rx="2.30"/>
<path fill="#2d261b" d="
  M 49.00 55.71
  Q 47.78 54.10 46.75 55.96
  Q 44.18 58.23 42.52 55.17
  Q 41.57 53.43 42.66 51.79
  L 47.70 44.19
  A 0.33 0.32 -45.2 0 1 48.25 44.18
  C 50.09 47.00 56.38 53.88 52.21 56.69
  Q 50.47 57.87 49.00 55.71
  Z"
/>
<path fill="#2d261b" d="
  M 75.85 56.71
  C 71.84 53.13 77.59 47.48 79.71 44.19
  A 0.33 0.32 -45.5 0 1 80.25 44.18
  L 85.19 51.56
  Q 86.98 54.22 84.93 56.15
  C 81.37 59.52 81.09 52.22 78.34 56.38
  A 1.66 1.65 -52.4 0 1 75.85 56.71
  Z"
/>
<path fill="#2d261b" d="
  M 32.32 61.02
  Q 31.44 64.75 28.19 63.24
  A 1.61 0.91 76.5 0 1 27.55 62.55
  Q 27.07 61.60 26.05 61.34
  A 0.85 0.70 -62.0 0 0 25.26 61.67
  Q 24.34 62.92 22.97 63.54
  A 1.21 1.14 42.2 0 1 22.04 63.56
  C 15.52 60.99 23.56 52.18 25.70 49.13
  A 0.34 0.34 45.5 0 1 26.26 49.14
  L 31.44 56.66
  Q 32.87 58.73 32.32 61.02
  Z"
/>
<path fill="#2d261b" d="
  M 65.00 66.46
  Q 63.84 64.64 62.75 66.71
  Q 60.10 68.67 58.78 66.31
  Q 57.54 64.09 58.91 62.09
  L 63.69 55.12
  A 0.36 0.35 -45.2 0 1 64.28 55.11
  L 69.39 62.65
  A 3.05 2.77 -53.1 0 1 69.64 65.36
  Q 68.12 69.27 65.00 66.46
  Z"
/>
<path fill="#c4c3bd" d="
  M 49.00 55.71
  L 48.71 56.25
  Q 48.06 54.84 47.29 56.25
  L 46.75 55.96
  Q 47.78 54.10 49.00 55.71
  Z"
/>
<path fill="#2d261b" d="
  M 48.71 56.25
  Q 48.81 57.53 49.43 58.63
  A 0.44 0.41 65.9 0 1 49.22 59.24
  Q 44.80 60.82 47.29 56.25
  Q 48.06 54.84 48.71 56.25
  Z"
/>
<path fill="#2d261b" d="
  M 79.65 56.24
  Q 80.23 55.34 80.57 56.32
  L 81.45 58.79
  A 0.47 0.47 73.7 0 1 81.12 59.40
  Q 76.89 60.47 79.65 56.24
  Z"
/>
<path fill="#2d261b" d="
  M 25.19 62.92
  Q 25.82 60.77 26.56 62.82
  L 27.65 65.82
  A 0.45 0.44 -16.3 0 1 27.32 66.41
  Q 25.97 66.69 24.69 66.42
  A 0.49 0.46 -76.2 0 1 24.35 65.82
  L 25.19 62.92
  Z"
/>
<path fill="#2d261b" d="
  M 49.00 76.96
  Q 47.31 75.17 46.75 77.46
  Q 43.53 79.71 42.44 76.24
  C 41.51 73.29 45.37 69.22 47.64 65.70
  A 0.34 0.33 -46.7 0 1 48.20 65.68
  L 53.10 72.78
  Q 54.21 74.39 53.59 76.29
  Q 52.31 80.15 49.00 76.96
  Z"
/>
<path fill="#2d261b" d="
  M 81.00 76.96
  Q 79.31 75.17 78.75 77.46
  Q 75.53 79.71 74.44 76.24
  C 73.52 73.33 77.89 68.31 79.63 65.69
  A 0.35 0.34 -45.2 0 1 80.20 65.68
  L 85.14 72.86
  Q 86.21 74.41 85.60 76.26
  Q 84.31 80.15 81.00 76.96
  Z"
/>
<path fill="#c4c3bd" d="
  M 65.00 66.46
  L 64.46 66.75
  Q 63.61 66.26 63.29 67.25
  L 62.75 66.71
  Q 63.84 64.64 65.00 66.46
  Z"
/>
<path fill="#2d261b" d="
  M 64.46 66.75
  Q 67.10 71.13 62.79 69.73
  A 0.47 0.39 -69.8 0 1 62.58 69.14
  L 63.29 67.25
  Q 63.61 66.26 64.46 66.75
  Z"
/>
<path fill="#c4c3bd" d="
  M 49.00 76.96
  L 48.50 77.29
  L 47.25 77.54
  L 46.75 77.46
  Q 47.31 75.17 49.00 76.96
  Z"
/>
<path fill="#c4c3bd" d="
  M 81.00 76.96
  L 80.50 77.29
  Q 79.61 76.74 79.21 77.75
  L 78.75 77.46
  Q 79.31 75.17 81.00 76.96
  Z"
/>
<path fill="#2d261b" d="
  M 48.50 77.29
  Q 51.16 81.66 46.74 80.63
  A 0.38 0.38 -68.0 0 1 46.51 80.07
  Q 47.15 78.89 47.25 77.54
  L 48.50 77.29
  Z"
/>
<path fill="#2d261b" d="
  M 80.50 77.29
  Q 83.16 81.66 78.74 80.63
  A 0.39 0.38 -68.3 0 1 78.51 80.07
  Q 79.10 78.99 79.21 77.75
  Q 79.61 76.74 80.50 77.29
  Z"
/>
<path fill="#2d261b" d="
  M 48.71 90.50
  Q 47.77 91.50 47.29 90.25
  Q 44.99 86.17 49.27 87.36
  A 0.49 0.40 -73.4 0 1 49.52 87.95
  L 48.71 90.50
  Z"
/>
<path fill="#2d261b" d="
  M 80.75 90.46
  Q 79.89 91.37 79.29 90.25
  Q 76.99 86.17 81.27 87.36
  A 0.48 0.40 -73.8 0 1 81.52 87.94
  L 80.75 90.46
  Z"
/>
<path fill="#2d261b" d="
  M 46.75 90.54
  Q 47.82 92.82 49.25 90.79
  Q 50.99 88.83 52.91 90.59
  Q 55.00 92.50 53.28 95.02
  L 48.35 102.30
  A 0.35 0.34 -45.2 0 1 47.78 102.31
  L 42.92 95.25
  Q 41.94 93.81 42.32 92.06
  Q 43.13 88.32 46.75 90.54
  Z"
/>
<path fill="#2d261b" d="
  M 78.75 90.54
  Q 80.05 92.89 81.50 90.54
  C 83.85 88.22 86.13 91.41 85.70 93.69
  C 85.25 96.10 81.82 100.06 80.41 102.28
  A 0.36 0.35 41.4 0 1 79.83 102.31
  C 78.09 100.11 73.63 94.66 74.42 91.75
  Q 75.24 88.72 78.75 90.54
  Z"
/>
<path fill="#c4c3bd" d="
  M 47.29 90.25
  Q 47.77 91.50 48.71 90.50
  L 49.25 90.79
  Q 47.82 92.82 46.75 90.54
  L 47.29 90.25
  Z"
/>
<path fill="#c4c3bd" d="
  M 79.29 90.25
  Q 79.89 91.37 80.75 90.46
  L 81.50 90.54
  Q 80.05 92.89 78.75 90.54
  L 79.29 90.25
  Z"
/>
<path fill="#2d261b" d="
  M 65.23 98.68
  Q 64.16 104.81 62.67 98.55
  A 0.46 0.40 83.8 0 1 63.06 97.99
  L 64.83 98.07
  A 0.53 0.45 -82.9 0 1 65.23 98.68
  Z"
/>
<path fill="#2d261b" d="
  M 64.81 101.86
  C 67.45 98.42 71.27 102.09 68.86 105.98
  Q 66.69 109.47 64.32 113.03
  A 0.34 0.34 45.2 0 1 63.76 113.03
  L 58.49 105.21
  A 2.57 2.52 -50.3 0 1 58.29 102.75
  Q 60.33 98.15 63.11 101.85
  A 1.07 1.06 -44.6 0 0 64.81 101.86
  Z"
/>
<path fill="#2d261b" d="
  M 102.56 104.83
  Q 102.07 106.10 101.65 104.92
  L 100.33 101.19
  A 0.47 0.46 -15.5 0 1 100.68 100.59
  Q 102.24 100.27 103.71 100.63
  A 0.43 0.37 -71.9 0 1 103.94 101.19
  L 102.56 104.83
  Z"
/>
<path fill="#2d261b" d="
  M 102.76 105.47
  C 104.34 101.34 110.02 104.21 108.15 109.22
  Q 107.54 110.83 102.29 117.88
  A 0.36 0.35 45.5 0 1 101.71 117.87
  C 99.82 115.17 94.55 109.08 95.61 105.84
  C 96.63 102.73 99.71 102.71 101.22 105.56
  Q 102.09 107.20 102.76 105.47
  Z"
/>
<path fill="#2d261b" d="
  M 48.45 111.98
  Q 47.86 112.84 47.55 111.90
  L 46.66 109.20
  A 0.49 0.46 -15.4 0 1 47.03 108.60
  Q 51.38 107.67 48.45 111.98
  Z"
/>
<path fill="#2d261b" d="
  M 80.45 111.98
  Q 79.86 112.84 79.55 111.90
  L 78.66 109.20
  A 0.49 0.46 -15.4 0 1 79.03 108.60
  Q 83.38 107.67 80.45 111.98
  Z"
/>
<path fill="#2d261b" d="
  M 47.06 112.69
  A 1.29 0.92 -42.6 0 0 48.96 112.46
  Q 49.73 111.46 51.00 111.11
  A 1.12 1.08 52.8 0 1 51.91 111.25
  C 56.49 114.19 50.26 120.90 48.29 123.82
  A 0.34 0.33 -44.3 0 1 47.73 123.82
  Q 45.57 120.52 43.37 117.22
  C 40.38 112.75 45.24 108.49 47.06 112.69
  Z"
/>
<path fill="#2d261b" d="
  M 79.07 112.71
  A 0.87 0.73 -30.3 0 0 80.30 112.92
  L 82.90 111.11
  A 0.86 0.67 42.6 0 1 83.78 111.18
  C 88.49 114.47 82.49 120.53 80.28 123.82
  A 0.32 0.32 43.9 0 1 79.74 123.82
  C 77.76 120.68 71.58 114.57 76.04 111.21
  A 1.20 1.07 -55.2 0 1 76.95 110.99
  Q 78.45 111.28 79.07 112.71
  Z"
/>
<path fill="#2d261b" d="
  M 105.21 145.12
  A 5.82 5.82 0.0 0 1 99.39 150.94
  L 98.85 150.94
  A 5.82 5.82 0.0 0 1 93.03 145.12
  L 93.03 129.12
  A 5.82 5.82 0.0 0 1 98.85 123.30
  L 99.39 123.30
  A 5.82 5.82 0.0 0 1 105.21 129.12
  L 105.21 145.12
  Z
  M 101.50 129.09
  A 2.30 2.30 0.0 0 0 99.20 126.79
  L 99.06 126.79
  A 2.30 2.30 0.0 0 0 96.76 129.09
  L 96.76 145.17
  A 2.30 2.30 0.0 0 0 99.06 147.47
  L 99.20 147.47
  A 2.30 2.30 0.0 0 0 101.50 145.17
  L 101.50 129.09
  Z"
/>
<rect fill="#2d261b" x="107.50" y="123.73" width="3.74" height="27.00" rx="0.53"/>
<rect fill="#ffffff" x="96.76" y="126.79" width="4.74" height="20.68" rx="2.30"/>
<path fill="#2d261b" d="
  M 100.25 155.29
  L 104.00 155.29
  Q 102.13 156.35 100.25 155.29
  Z"
/>
</svg>
