<?xml version="1.0" encoding="UTF-8" standalone="no"?>
<svg xmlns="http://www.w3.org/2000/svg" version="1.2" baseProfile="tiny" viewBox="0 0 128 168">
<g stroke-width="0.00" fill="none" stroke-linecap="butt">
<path stroke="#e8e8e8" stroke-opacity="0.549" vector-effect="non-scaling-stroke" d="
  M 109.50 13.79
  Q 106.60 12.76 106.00 12.76
  Q 65.45 12.73 24.92 12.77
  C 19.84 12.77 16.46 13.89 14.46 18.50"
/>
<path stroke="#d6d7d6" stroke-opacity="0.596" vector-effect="non-scaling-stroke" d="
  M 13.79 147.50
  C 15.30 153.84 19.53 155.23 25.83 155.23
  Q 64.67 155.28 103.51 155.23
  C 112.49 155.22 114.50 150.30 114.50 141.91
  Q 114.51 82.96 114.49 24.00
  C 114.49 19.22 113.48 16.16 109.50 13.79"
/>
<path stroke="#f9fafb" stroke-opacity="0.988" vector-effect="non-scaling-stroke" d="
  M 13.79 147.50
  Q 14.16 84.84 14.00 22.17
  C 14.00 20.93 14.48 19.83 14.46 18.50"
/>
<path stroke="#96938d" vector-effect="non-scaling-stroke" d="
  M 27.20 40.71
  Q 24.95 40.94 25.70 43.64
  A 0.71 0.67 82.4 0 0 26.34 44.16
  L 32.34 44.17
  A 0.60 0.55 0.5 0 0 32.94 43.63
  L 32.98 41.47
  A 0.68 0.53 7.4 0 0 32.43 40.91
  Q 30.53 40.55 31.28 38.36
  A 0.82 0.79 -81.9 0 1 31.97 37.82
  L 33.68 37.69
  A 0.81 0.69 5.5 0 0 34.36 37.22
  Q 35.62 33.58 31.80 34.16
  A 0.43 0.42 -4.7 0 1 31.30 33.75
  L 31.25 18.05
  A 0.74 0.65 -81.8 0 0 30.80 17.37
  Q 29.64 16.98 28.55 17.38
  A 1.58 1.12 -76.6 0 0 27.84 18.00
  Q 22.86 26.10 17.74 34.13
  C 17.07 35.18 17.19 36.06 17.27 37.24
  A 0.55 0.52 -1.7 0 0 17.82 37.73
  L 27.19 37.77
  A 0.54 0.50 -0.0 0 1 27.73 38.27
  L 27.73 40.19
  A 0.60 0.51 -3.7 0 1 27.20 40.71"
/>
<path stroke="#96938d" vector-effect="non-scaling-stroke" d="
  M 48.76 55.21
  Q 50.52 58.62 53.07 55.85
  Q 54.87 53.90 53.33 51.64
  L 48.27 44.20
  A 0.33 0.32 45.5 0 0 47.73 44.19
  L 42.63 51.78
  A 1.67 1.46 -31.7 0 0 42.35 52.69
  Q 42.47 59.71 47.81 55.03
  A 0.61 0.61 55.7 0 1 48.76 55.21"
/>
<path stroke="#96938d" vector-effect="non-scaling-stroke" d="
  M 80.83 55.45
  Q 81.33 56.78 83.05 57.01
  A 1.42 1.38 -57.5 0 0 83.98 56.79
  C 88.49 53.84 82.20 47.11 80.24 44.18
  A 0.34 0.33 -45.2 0 0 79.69 44.19
  L 74.97 51.15
  Q 73.33 53.56 74.90 55.81
  Q 76.88 58.66 79.27 55.25
  Q 80.24 53.86 80.83 55.45"
/>
<path stroke="#96938d" vector-effect="non-scaling-stroke" d="
  M 32.31 61.05
  Q 32.92 58.83 31.53 56.80
  L 26.21 48.99
  A 0.33 0.32 -45.5 0 0 25.67 49.00
  C 23.63 52.16 15.52 60.98 22.04 63.56
  A 1.18 1.18 43.7 0 0 22.97 63.54
  Q 24.34 62.92 25.26 61.68
  A 0.94 0.71 -63.6 0 1 26.04 61.29
  Q 26.95 61.44 27.33 62.28
  A 1.75 0.81 76.6 0 0 27.92 63.03
  Q 31.23 65.03 32.31 61.05"
/>
<path stroke="#96938d" vector-effect="non-scaling-stroke" d="
  M 47.79 55.80
  Q 44.40 60.49 49.15 59.36
  A 0.46 0.43 73.9 0 0 49.45 58.77
  L 48.49 55.93
  Q 48.24 55.18 47.79 55.80"
/>
<path stroke="#96938d" vector-effect="non-scaling-stroke" d="
  M 79.79 55.80
  Q 76.40 60.49 81.15 59.36
  A 0.46 0.43 73.9 0 0 81.45 58.77
  L 80.49 55.93
  Q 80.24 55.18 79.79 55.80"
/>
<path stroke="#96938d" vector-effect="non-scaling-stroke" d="
  M 24.35 65.93
  A 0.46 0.46 7.3 0 0 24.80 66.53
  L 27.23 66.47
  A 0.46 0.46 78.2 0 0 27.65 65.85
  L 26.35 62.36
  A 0.46 0.46 0.0 0 0 25.48 62.38
  L 24.35 65.93"
/>
<path stroke="#96938d" vector-effect="non-scaling-stroke" d="
  M 102.56 104.83
  L 103.94 101.19
  A 0.43 0.37 -71.9 0 0 103.71 100.63
  Q 102.24 100.27 100.68 100.59
  A 0.47 0.46 -15.5 0 0 100.33 101.19
  L 101.65 104.92
  Q 102.07 106.10 102.56 104.83"
/>
<path stroke="#96938d" vector-effect="non-scaling-stroke" d="
  M 107.18 110.78
  C 111.13 104.79 104.55 100.89 102.76 105.47
  Q 102.09 107.20 101.22 105.56
  C 99.72 102.72 96.63 102.71 95.63 105.84
  C 94.56 109.15 99.90 115.23 101.76 118.02
  A 0.33 0.33 -44.7 0 0 102.31 118.02
  Q 104.79 114.39 107.18 110.78"
/>
<path stroke="#96938d" vector-effect="non-scaling-stroke" d="
  M 49.58 109.11
  A 0.43 0.43 11.1 0 0 49.18 108.52
  L 46.97 108.48
  A 0.43 0.43 81.5 0 0 46.56 109.05
  L 47.61 112.14
  A 0.43 0.43 -43.8 0 0 48.42 112.15
  L 49.58 109.11"
/>
<path stroke="#96938d" vector-effect="non-scaling-stroke" d="
  M 80.55 111.83
  Q 83.40 107.39 78.85 108.65
  A 0.46 0.45 72.3 0 0 78.55 109.25
  L 79.43 111.66
  Q 79.87 112.89 80.55 111.83"
/>
<path stroke="#96938d" vector-effect="non-scaling-stroke" d="
  M 47.07 112.70
  C 45.23 108.48 40.39 112.75 43.37 117.22
  Q 45.57 120.52 47.73 123.82
  A 0.33 0.32 -45.2 0 0 48.28 123.81
  C 50.24 120.87 56.68 114.03 51.74 111.17
  A 0.93 0.70 39.1 0 0 50.84 111.14
  L 48.29 112.93
  A 0.85 0.74 -30.1 0 1 47.07 112.70"
/>
<path stroke="#96938d" vector-effect="non-scaling-stroke" d="
  M 79.07 112.71
  Q 78.44 111.27 76.98 111.01
  A 1.28 1.21 -55.6 0 0 76.06 111.21
  C 71.51 114.32 77.76 120.76 79.75 123.81
  A 0.33 0.32 45.5 0 0 80.29 123.82
  C 82.43 120.47 88.53 114.49 83.78 111.18
  A 0.86 0.67 42.6 0 0 82.90 111.11
  L 80.31 112.92
  A 0.89 0.74 -30.2 0 1 79.07 112.71"
/>
<path stroke="#96938d" vector-effect="non-scaling-stroke" d="
  M 100.81 127.28
  L 101.71 127.22
  A 0.55 0.52 -1.8 0 0 102.23 126.70
  L 102.23 124.29
  A 0.54 0.52 0.6 0 0 101.70 123.77
  L 95.82 123.76
  A 0.75 0.74 10.1 0 0 95.12 124.24
  Q 94.13 126.76 96.25 127.36
  A 0.85 0.70 5.9 0 1 96.84 127.96
  Q 97.31 130.93 94.27 130.31
  A 0.57 0.56 15.1 0 0 93.62 130.68
  Q 92.36 134.42 96.20 133.84
  A 0.43 0.42 -4.7 0 1 96.70 134.25
  L 96.75 149.95
  A 0.73 0.65 -82.5 0 0 97.21 150.63
  Q 98.26 150.95 99.32 150.70
  A 1.31 1.06 -76.9 0 0 100.05 150.13
  L 110.33 133.72
  Q 112.48 130.29 108.49 130.27
  L 101.04 130.24
  A 0.67 0.51 -1.8 0 1 100.38 129.77
  L 100.23 127.81
  A 0.60 0.49 -3.5 0 1 100.81 127.28"
/>
<path stroke="#96938d" vector-effect="non-scaling-stroke" d="
  M 27.27 25.37
  C 25.37 27.71 23.50 31.08 22.01 33.72
  A 0.32 0.29 -74.3 0 0 22.25 34.20
  L 27.13 34.16
  A 0.55 0.54 89.5 0 0 27.66 33.61
  L 27.63 25.49
  Q 27.63 24.93 27.27 25.37"
/>
<path stroke="#96938d" vector-effect="non-scaling-stroke" d="
  M 100.77 142.78
  L 105.84 134.43
  Q 106.15 133.92 105.59 133.91
  L 100.84 133.84
  A 0.58 0.50 -89.5 0 0 100.33 134.42
  L 100.28 142.65
  Q 100.27 143.60 100.77 142.78"
/>
</g>
<path fill="#010001" fill-opacity="0.098" d="
  M 112.28 9.50
  Q 112.70 9.38 113.02 9.50
  C 116.71 10.94 118.94 15.79 119.88 19.45
  Q 120.44 21.62 120.60 25.59
  Q 121.05 36.67 120.84 47.75
  C 120.30 77.04 120.95 109.14 120.94 139.81
  A 0.80 0.23 -40.1 0 1 120.60 140.32
  Q 120.45 140.46 120.47 140.76
  Q 120.84 145.44 120.30 150.11
  Q 120.27 150.39 120.04 150.16
  Q 119.88 150.00 119.71 150.07
  A 0.56 0.32 89.3 0 0 119.47 150.50
  C 119.17 152.87 116.43 155.52 115.10 157.24
  A 1.13 0.99 15.8 0 1 114.30 157.62
  Q 112.34 157.69 111.13 159.25
  A 1.11 0.96 15.1 0 1 110.34 159.63
  Q 109.36 159.68 108.80 160.40
  A 0.93 0.76 -64.4 0 1 108.05 160.75
  C 104.99 160.41 102.66 161.75 99.98 161.76
  Q 87.89 161.76 75.82 161.73
  A 1.88 1.28 52.0 0 1 74.92 161.44
  Q 73.13 160.29 71.39 161.47
  A 1.75 1.30 -55.3 0 1 70.50 161.77
  L 24.54 161.75
  A 0.72 0.45 75.3 0 1 24.03 161.27
  C 23.65 160.21 18.29 162.09 18.10 160.57
  A 1.04 0.35 87.2 0 0 17.79 159.78
  Q 17.39 159.55 16.94 159.60
  A 0.64 0.60 72.7 0 1 16.32 159.25
  Q 15.99 158.56 15.02 158.71
  A 0.65 0.64 -16.4 0 1 14.34 158.35
  Q 13.70 156.97 12.49 156.03
  Q 10.86 154.76 10.41 154.06
  Q 8.81 151.62 8.03 148.75
  Q 7.00 144.98 7.00 141.06
  Q 6.99 103.03 7.01 61.56
  Q 7.01 60.99 7.49 60.10
  Q 7.73 59.65 7.72 59.18
  Q 7.48 50.22 7.77 41.25
  C 7.81 39.96 7.17 39.07 7.10 37.97
  Q 6.58 29.37 7.63 20.83
  C 8.06 17.35 9.85 15.22 11.79 12.48
  A 1.50 0.51 -11.9 0 1 12.58 12.01
  L 12.93 11.89
  A 1.10 0.60 -73.9 0 0 13.44 11.37
  Q 15.07 8.24 18.61 7.64
  A 0.68 0.39 -76.4 0 0 19.01 7.22
  L 19.08 7.04
  A 0.36 0.21 1.7 0 1 19.37 6.88
  C 22.32 6.60 25.03 5.75 27.90 5.75
  Q 66.57 5.75 105.24 5.75
  A 1.69 1.14 54.3 0 1 106.13 6.08
  C 107.92 7.38 111.50 6.44 111.79 9.18
  A 0.39 0.37 -10.3 0 0 112.28 9.50
  Z
  M 109.50 13.79
  Q 106.60 12.76 106.00 12.76
  Q 65.45 12.73 24.92 12.77
  C 19.84 12.77 16.46 13.89 14.46 18.50
  L 13.71 20.50
  Q 12.91 22.28 11.71 19.84
  Q 11.52 19.45 11.47 19.88
  C 11.32 21.15 11.00 22.45 11.00 23.72
  Q 11.00 83.86 11.00 144.00
  A 1.50 0.67 41.6 0 0 11.38 144.84
  C 11.82 145.39 11.36 148.94 12.06 150.40
  Q 12.72 151.76 14.79 153.87
  C 18.05 157.19 21.54 158.52 26.47 158.59
  C 51.06 158.95 75.40 158.76 99.56 158.81
  C 104.87 158.82 109.03 157.82 112.49 154.20
  Q 114.15 152.45 115.00 151.77
  Q 115.27 151.55 115.55 151.00
  L 117.09 147.91
  Q 117.38 147.33 117.39 147.00
  Q 117.61 131.91 117.60 116.81
  Q 117.56 72.40 117.49 27.97
  C 117.48 24.24 116.47 20.90 115.78 17.22
  Q 115.60 16.26 113.78 14.48
  C 110.66 11.44 107.64 10.53 103.02 10.52
  Q 63.23 10.46 23.44 10.53
  Q 22.23 10.53 21.62 11.09
  Q 21.19 11.48 21.80 11.48
  L 106.60 11.49
  A 4.24 4.24 -29.4 0 1 108.79 12.10
  Q 110.48 13.11 109.50 13.79
  Z"
/>
<path fill="#020403" fill-opacity="0.192" d="
  M 13.71 20.50
  Q 13.13 84.00 13.79 147.50
  C 15.30 153.84 19.53 155.23 25.83 155.23
  Q 64.67 155.28 103.51 155.23
  C 112.49 155.22 114.50 150.30 114.50 141.91
  Q 114.51 82.96 114.49 24.00
  C 114.49 19.22 113.48 16.16 109.50 13.79
  Q 110.48 13.11 108.79 12.10
  A 4.24 4.24 -29.4 0 0 106.60 11.49
  L 21.80 11.48
  Q 21.19 11.48 21.62 11.09
  Q 22.23 10.53 23.44 10.53
  Q 63.23 10.46 103.02 10.52
  C 107.64 10.53 110.66 11.44 113.78 14.48
  Q 115.60 16.26 115.78 17.22
  C 116.47 20.90 117.48 24.24 117.49 27.97
  Q 117.56 72.40 117.60 116.81
  Q 117.61 131.91 117.39 147.00
  Q 117.38 147.33 117.09 147.91
  L 115.55 151.00
  Q 115.27 151.55 115.00 151.77
  Q 114.15 152.45 112.49 154.20
  C 109.03 157.82 104.87 158.82 99.56 158.81
  C 75.40 158.76 51.06 158.95 26.47 158.59
  C 21.54 158.52 18.05 157.19 14.79 153.87
  Q 12.72 151.76 12.06 150.40
  C 11.36 148.94 11.82 145.39 11.38 144.84
  A 1.50 0.67 41.6 0 1 11.00 144.00
  Q 11.00 83.86 11.00 23.72
  C 11.00 22.45 11.32 21.15 11.47 19.88
  Q 11.52 19.45 11.71 19.84
  Q 12.91 22.28 13.71 20.50
  Z
  M 115.01 52.67
  A 0.12 0.12 0.0 0 0 114.89 52.55
  L 114.87 52.55
  A 0.12 0.12 0.0 0 0 114.75 52.67
  L 114.75 99.09
  A 0.12 0.12 0.0 0 0 114.87 99.21
  L 114.89 99.21
  A 0.12 0.12 0.0 0 0 115.01 99.09
  L 115.01 52.67
  Z"
/>
<path fill="#ffffff" d="
  M 109.50 13.79
  C 113.48 16.16 114.49 19.22 114.49 24.00
  Q 114.51 82.96 114.50 141.91
  C 114.50 150.30 112.49 155.22 103.51 155.23
  Q 64.67 155.28 25.83 155.23
  C 19.53 155.23 15.30 153.84 13.79 147.50
  Q 14.16 84.84 14.00 22.17
  C 14.00 20.93 14.48 19.83 14.46 18.50
  C 16.46 13.89 19.84 12.77 24.92 12.77
  Q 65.45 12.73 106.00 12.76
  Q 106.60 12.76 109.50 13.79
  Z
  M 27.20 40.71
  Q 24.95 40.94 25.70 43.64
  A 0.71 0.67 82.4 0 0 26.34 44.16
  L 32.34 44.17
  A 0.60 0.55 0.5 0 0 32.94 43.63
  L 32.98 41.47
  A 0.68 0.53 7.4 0 0 32.43 40.91
  Q 30.53 40.55 31.28 38.36
  A 0.82 0.79 -81.9 0 1 31.97 37.82
  L 33.68 37.69
  A 0.81 0.69 5.5 0 0 34.36 37.22
  Q 35.62 33.58 31.80 34.16
  A 0.43 0.42 -4.7 0 1 31.30 33.75
  L 31.25 18.05
  A 0.74 0.65 -81.8 0 0 30.80 17.37
  Q 29.64 16.98 28.55 17.38
  A 1.58 1.12 -76.6 0 0 27.84 18.00
  Q 22.86 26.10 17.74 34.13
  C 17.07 35.18 17.19 36.06 17.27 37.24
  A 0.55 0.52 -1.7 0 0 17.82 37.73
  L 27.19 37.77
  A 0.54 0.50 -0.0 0 1 27.73 38.27
  L 27.73 40.19
  A 0.60 0.51 -3.7 0 1 27.20 40.71
  Z
  M 48.76 55.21
  Q 50.52 58.62 53.07 55.85
  Q 54.87 53.90 53.33 51.64
  L 48.27 44.20
  A 0.33 0.32 45.5 0 0 47.73 44.19
  L 42.63 51.78
  A 1.67 1.46 -31.7 0 0 42.35 52.69
  Q 42.47 59.71 47.81 55.03
  A 0.61 0.61 55.7 0 1 48.76 55.21
  Z
  M 80.83 55.45
  Q 81.33 56.78 83.05 57.01
  A 1.42 1.38 -57.5 0 0 83.98 56.79
  C 88.49 53.84 82.20 47.11 80.24 44.18
  A 0.34 0.33 -45.2 0 0 79.69 44.19
  L 74.97 51.15
  Q 73.33 53.56 74.90 55.81
  Q 76.88 58.66 79.27 55.25
  Q 80.24 53.86 80.83 55.45
  Z
  M 32.31 61.05
  Q 32.92 58.83 31.53 56.80
  L 26.21 48.99
  A 0.33 0.32 -45.5 0 0 25.67 49.00
  C 23.63 52.16 15.52 60.98 22.04 63.56
  A 1.18 1.18 43.7 0 0 22.97 63.54
  Q 24.34 62.92 25.26 61.68
  A 0.94 0.71 -63.6 0 1 26.04 61.29
  Q 26.95 61.44 27.33 62.28
  A 1.75 0.81 76.6 0 0 27.92 63.03
  Q 31.23 65.03 32.31 61.05
  Z
  M 47.79 55.80
  Q 44.40 60.49 49.15 59.36
  A 0.46 0.43 73.9 0 0 49.45 58.77
  L 48.49 55.93
  Q 48.24 55.18 47.79 55.80
  Z
  M 79.79 55.80
  Q 76.40 60.49 81.15 59.36
  A 0.46 0.43 73.9 0 0 81.45 58.77
  L 80.49 55.93
  Q 80.24 55.18 79.79 55.80
  Z
  M 24.35 65.93
  A 0.46 0.46 7.3 0 0 24.80 66.53
  L 27.23 66.47
  A 0.46 0.46 78.2 0 0 27.65 65.85
  L 26.35 62.36
  A 0.46 0.46 0.0 0 0 25.48 62.38
  L 24.35 65.93
  Z
  M 102.56 104.83
  L 103.94 101.19
  A 0.43 0.37 -71.9 0 0 103.71 100.63
  Q 102.24 100.27 100.68 100.59
  A 0.47 0.46 -15.5 0 0 100.33 101.19
  L 101.65 104.92
  Q 102.07 106.10 102.56 104.83
  Z
  M 107.18 110.78
  C 111.13 104.79 104.55 100.89 102.76 105.47
  Q 102.09 107.20 101.22 105.56
  C 99.72 102.72 96.63 102.71 95.63 105.84
  C 94.56 109.15 99.90 115.23 101.76 118.02
  A 0.33 0.33 -44.7 0 0 102.31 118.02
  Q 104.79 114.39 107.18 110.78
  Z
  M 49.58 109.11
  A 0.43 0.43 11.1 0 0 49.18 108.52
  L 46.97 108.48
  A 0.43 0.43 81.5 0 0 46.56 109.05
  L 47.61 112.14
  A 0.43 0.43 -43.8 0 0 48.42 112.15
  L 49.58 109.11
  Z
  M 80.55 111.83
  Q 83.40 107.39 78.85 108.65
  A 0.46 0.45 72.3 0 0 78.55 109.25
  L 79.43 111.66
  Q 79.87 112.89 80.55 111.83
  Z
  M 47.07 112.70
  C 45.23 108.48 40.39 112.75 43.37 117.22
  Q 45.57 120.52 47.73 123.82
  A 0.33 0.32 -45.2 0 0 48.28 123.81
  C 50.24 120.87 56.68 114.03 51.74 111.17
  A 0.93 0.70 39.1 0 0 50.84 111.14
  L 48.29 112.93
  A 0.85 0.74 -30.1 0 1 47.07 112.70
  Z
  M 79.07 112.71
  Q 78.44 111.27 76.98 111.01
  A 1.28 1.21 -55.6 0 0 76.06 111.21
  C 71.51 114.32 77.76 120.76 79.75 123.81
  A 0.33 0.32 45.5 0 0 80.29 123.82
  C 82.43 120.47 88.53 114.49 83.78 111.18
  A 0.86 0.67 42.6 0 0 82.90 111.11
  L 80.31 112.92
  A 0.89 0.74 -30.2 0 1 79.07 112.71
  Z
  M 100.81 127.28
  L 101.71 127.22
  A 0.55 0.52 -1.8 0 0 102.23 126.70
  L 102.23 124.29
  A 0.54 0.52 0.6 0 0 101.70 123.77
  L 95.82 123.76
  A 0.75 0.74 10.1 0 0 95.12 124.24
  Q 94.13 126.76 96.25 127.36
  A 0.85 0.70 5.9 0 1 96.84 127.96
  Q 97.31 130.93 94.27 130.31
  A 0.57 0.56 15.1 0 0 93.62 130.68
  Q 92.36 134.42 96.20 133.84
  A 0.43 0.42 -4.7 0 1 96.70 134.25
  L 96.75 149.95
  A 0.73 0.65 -82.5 0 0 97.21 150.63
  Q 98.26 150.95 99.32 150.70
  A 1.31 1.06 -76.9 0 0 100.05 150.13
  L 110.33 133.72
  Q 112.48 130.29 108.49 130.27
  L 101.04 130.24
  A 0.67 0.51 -1.8 0 1 100.38 129.77
  L 100.23 127.81
  A 0.60 0.49 -3.5 0 1 100.81 127.28
  Z"
/>
<path fill="#2d261b" d="
  M 27.73 40.19
  L 27.73 38.27
  A 0.54 0.50 -0.0 0 0 27.19 37.77
  L 17.82 37.73
  A 0.55 0.52 -1.7 0 1 17.27 37.24
  C 17.19 36.06 17.07 35.18 17.74 34.13
  Q 22.86 26.10 27.84 18.00
  A 1.58 1.12 -76.6 0 1 28.55 17.38
  Q 29.64 16.98 30.80 17.37
  A 0.74 0.65 -81.8 0 1 31.25 18.05
  L 31.30 33.75
  A 0.43 0.42 -4.7 0 0 31.80 34.16
  Q 35.62 33.58 34.36 37.22
  A 0.81 0.69 5.5 0 1 33.68 37.69
  L 31.97 37.82
  A 0.82 0.79 -81.9 0 0 31.28 38.36
  Q 30.53 40.55 32.43 40.91
  A 0.68 0.53 7.4 0 1 32.98 41.47
  L 32.94 43.63
  A 0.60 0.55 0.5 0 1 32.34 44.17
  L 26.34 44.16
  A 0.71 0.67 82.4 0 1 25.70 43.64
  Q 24.95 40.94 27.20 40.71
  A 0.60 0.51 -3.7 0 0 27.73 40.19
  Z
  M 27.27 25.37
  C 25.37 27.71 23.50 31.08 22.01 33.72
  A 0.32 0.29 -74.3 0 0 22.25 34.20
  L 27.13 34.16
  A 0.55 0.54 89.5 0 0 27.66 33.61
  L 27.63 25.49
  Q 27.63 24.93 27.27 25.37
  Z"
/>
<path fill="#f2f4f6" fill-opacity="0.973" d="
  M 14.46 18.50
  C 14.48 19.83 14.00 20.93 14.00 22.17
  Q 14.16 84.84 13.79 147.50
  Q 13.13 84.00 13.71 20.50
  L 14.46 18.50
  Z"
/>
<path fill="#ffffff" d="
  M 22.01 33.72
  C 23.50 31.08 25.37 27.71 27.27 25.37
  Q 27.63 24.93 27.63 25.49
  L 27.66 33.61
  A 0.55 0.54 89.5 0 1 27.13 34.16
  L 22.25 34.20
  A 0.32 0.29 -74.3 0 1 22.01 33.72
  Z"
/>
<path fill="#2d261b" d="
  M 48.76 55.21
  A 0.61 0.61 55.7 0 0 47.81 55.03
  Q 42.47 59.71 42.35 52.69
  A 1.67 1.46 -31.7 0 1 42.63 51.78
  L 47.73 44.19
  A 0.33 0.32 45.5 0 1 48.27 44.20
  L 53.33 51.64
  Q 54.87 53.90 53.07 55.85
  Q 50.52 58.62 48.76 55.21
  Z"
/>
<path fill="#2d261b" d="
  M 80.83 55.45
  Q 80.24 53.86 79.27 55.25
  Q 76.88 58.66 74.90 55.81
  Q 73.33 53.56 74.97 51.15
  L 79.69 44.19
  A 0.34 0.33 -45.2 0 1 80.24 44.18
  C 82.20 47.11 88.49 53.84 83.98 56.79
  A 1.42 1.38 -57.5 0 1 83.05 57.01
  Q 81.33 56.78 80.83 55.45
  Z"
/>
<path fill="#2d261b" d="
  M 32.31 61.05
  Q 31.23 65.03 27.92 63.03
  A 1.75 0.81 76.6 0 1 27.33 62.28
  Q 26.95 61.44 26.04 61.29
  A 0.94 0.71 -63.6 0 0 25.26 61.68
  Q 24.34 62.92 22.97 63.54
  A 1.18 1.18 43.7 0 1 22.04 63.56
  C 15.52 60.98 23.63 52.16 25.67 49.00
  A 0.33 0.32 -45.5 0 1 26.21 48.99
  L 31.53 56.80
  Q 32.92 58.83 32.31 61.05
  Z"
/>
<rect fill="#010001" fill-opacity="0.098" x="114.75" y="52.55" width="0.26" height="46.66" rx="0.12"/>
<path fill="#2d261b" d="
  M 47.79 55.80
  Q 48.24 55.18 48.49 55.93
  L 49.45 58.77
  A 0.46 0.43 73.9 0 1 49.15 59.36
  Q 44.40 60.49 47.79 55.80
  Z"
/>
<path fill="#2d261b" d="
  M 79.79 55.80
  Q 80.24 55.18 80.49 55.93
  L 81.45 58.77
  A 0.46 0.43 73.9 0 1 81.15 59.36
  Q 76.40 60.49 79.79 55.80
  Z"
/>
<path fill="#2d261b" d="
  M 24.35 65.93
  L 25.48 62.38
  A 0.46 0.46 23.9 0 1 26.35 62.36
  L 27.65 65.85
  A 0.46 0.46 78.5 0 1 27.23 66.47
  L 24.80 66.53
  A 0.46 0.46 4.7 0 1 24.35 65.93
  Z"
/>
<path fill="#2d261b" d="
  M 102.56 104.83
  Q 102.07 106.10 101.65 104.92
  L 100.33 101.19
  A 0.47 0.46 -15.5 0 1 100.68 100.59
  Q 102.24 100.27 103.71 100.63
  A 0.43 0.37 -71.9 0 1 103.94 101.19
  L 102.56 104.83
  Z"
/>
<path fill="#2d261b" d="
  M 102.76 105.47
  C 104.55 100.89 111.13 104.79 107.18 110.78
  Q 104.79 114.39 102.31 118.02
  A 0.33 0.33 -44.7 0 1 101.76 118.02
  C 99.90 115.23 94.56 109.15 95.63 105.84
  C 96.63 102.71 99.72 102.72 101.22 105.56
  Q 102.09 107.20 102.76 105.47
  Z"
/>
<path fill="#2d261b" d="
  M 49.58 109.11
  L 48.42 112.15
  A 0.43 0.43 -44.9 0 1 47.61 112.14
  L 46.56 109.05
  A 0.43 0.43 79.5 0 1 46.97 108.48
  L 49.18 108.52
  A 0.43 0.43 9.9 0 1 49.58 109.11
  Z"
/>
<path fill="#2d261b" d="
  M 80.55 111.83
  Q 79.87 112.89 79.43 111.66
  L 78.55 109.25
  A 0.46 0.45 72.3 0 1 78.85 108.65
  Q 83.40 107.39 80.55 111.83
  Z"
/>
<path fill="#2d261b" d="
  M 47.07 112.70
  A 0.85 0.74 -30.1 0 0 48.29 112.93
  L 50.84 111.14
  A 0.93 0.70 39.1 0 1 51.74 111.17
  C 56.68 114.03 50.24 120.87 48.28 123.81
  A 0.33 0.32 -45.2 0 1 47.73 123.82
  Q 45.57 120.52 43.37 117.22
  C 40.39 112.75 45.23 108.48 47.07 112.70
  Z"
/>
<path fill="#2d261b" d="
  M 79.07 112.71
  A 0.89 0.74 -30.2 0 0 80.31 112.92
  L 82.90 111.11
  A 0.86 0.67 42.6 0 1 83.78 111.18
  C 88.53 114.49 82.43 120.47 80.29 123.82
  A 0.33 0.32 45.5 0 1 79.75 123.81
  C 77.76 120.76 71.51 114.32 76.06 111.21
  A 1.28 1.21 -55.6 0 1 76.98 111.01
  Q 78.44 111.27 79.07 112.71
  Z"
/>
<path fill="#2d261b" d="
  M 100.23 127.81
  L 100.38 129.77
  A 0.67 0.51 -1.8 0 0 101.04 130.24
  L 108.49 130.27
  Q 112.48 130.29 110.33 133.72
  L 100.05 150.13
  A 1.31 1.06 -76.9 0 1 99.32 150.70
  Q 98.26 150.95 97.21 150.63
  A 0.73 0.65 -82.5 0 1 96.75 149.95
  L 96.70 134.25
  A 0.43 0.42 -4.7 0 0 96.20 133.84
  Q 92.36 134.42 93.62 130.68
  A 0.57 0.56 15.1 0 1 94.27 130.31
  Q 97.31 130.93 96.84 127.96
  A 0.85 0.70 5.9 0 0 96.25 127.36
  Q 94.13 126.76 95.12 124.24
  A 0.75 0.74 10.1 0 1 95.82 123.76
  L 101.70 123.77
  A 0.54 0.52 0.6 0 1 102.23 124.29
  L 102.23 126.70
  A 0.55 0.52 -1.8 0 1 101.71 127.22
  L 100.81 127.28
  A 0.60 0.49 -3.5 0 0 100.23 127.81
  Z
  M 100.77 142.78
  L 105.84 134.43
  Q 106.15 133.92 105.59 133.91
  L 100.84 133.84
  A 0.58 0.50 -89.5 0 0 100.33 134.42
  L 100.28 142.65
  Q 100.27 143.60 100.77 142.78
  Z"
/>
<path fill="#ffffff" d="
  M 100.77 142.78
  Q 100.27 143.60 100.28 142.65
  L 100.33 134.42
  A 0.58 0.50 -89.5 0 1 100.84 133.84
  L 105.59 133.91
  Q 106.15 133.92 105.84 134.43
  L 100.77 142.78
  Z"
/>
</svg>
