<?xml version="1.0" encoding="utf-8"?>
<!-- Generator: Adobe Illustrator 27.0.1, SVG Export Plug-In . SVG Version: 6.00 Build 0)  -->
<svg version="1.1" id="Слой_1" xmlns="http://www.w3.org/2000/svg" xmlns:xlink="http://www.w3.org/1999/xlink" x="0px" y="0px"
	 viewBox="0 0 128 168" style="enable-background:new 0 0 128 168;" xml:space="preserve">
<style type="text/css">
	.st0{fill:#D8D8D8;}
	.st1{fill:#AAAAAA;}
	.st2{fill:#FFFFFF;}
	.st3{fill:#2D261B;}
</style>
<g>
	<path class="st0" d="M108,161.7H20.2c-6.9,0-12.4-5.6-12.4-12.4V18.8c0-6.9,5.6-12.4,12.4-12.4H108c6.9,0,12.4,5.6,12.4,12.4v130.5
		C120.4,156.1,114.9,161.7,108,161.7z"/>
	<path class="st1" d="M107,157.8H21.2c-5.5,0-9.9-4.4-9.9-9.9V19.8c0-5.5,4.4-9.9,9.9-9.9H107c5.5,0,9.9,4.4,9.9,9.9v128.1
		C116.9,153.4,112.5,157.8,107,157.8z"/>
	<path class="st2" d="M106.7,154.8H21.5c-4.4,0-8-3.6-8-8V20.9c0-4.4,3.6-8,8-8h85.2c4.4,0,8,3.6,8,8v125.9
		C114.7,151.2,111.1,154.8,106.7,154.8z"/>
</g>
<g>
	<path class="st3" d="M28.3,26c6.9,1.7,8.5,9.6,4.3,14.8c-4.8,5.9-12.8,4.2-15.5-2.6c-0.1-0.3,0-0.6,0.2-0.8
		c0.7-0.5,1.5-0.8,2.3-0.7c0.3,0,0.6,0.2,0.7,0.5c1.6,3.3,4,4.4,7.1,3.3c6.2-2.2,5.2-11.7-2.3-11.1c-0.3,0-0.6,0.1-0.9,0.3
		c-1.6,1-2.8,0.6-3.7-1.2c-0.1-0.3-0.1-0.6,0.2-0.8l6.6-6.5c0.3-0.3,0.2-0.5-0.2-0.5H21c-0.2,0-0.4,0.3-0.4,0.6
		c0.5,2.7-0.5,3.5-3,2.7c-0.3-0.1-0.5-0.4-0.5-0.7l0.1-5.7c0-0.3,0.2-0.5,0.5-0.5h16c0.4,0,0.7,0.2,0.8,0.4l0.1,0.5
		c0,0.2-0.1,0.5-0.4,0.9L28,25.4C27.9,25.8,28,26,28.3,26z"/>
	<path class="st3" d="M64.8,55.4c-0.4-1.1-0.9-1.1-1.6-0.2c-1.6,2.3-3.1,2.5-4.4,0.5c-1-1.5-1-3,0.1-4.6l4.7-7
		c0.1-0.1,0.3-0.2,0.5-0.1l0.1,0.1c2,2.9,8.2,9.7,3.7,12.6C67.7,57,67.4,57,67.1,57C65.9,56.9,65.2,56.3,64.8,55.4z"/>
	<path class="st3" d="M25,61.8c-1.3,2.5-2.9,2.7-4.8,0.7c-1.4-1.5-1.5-3.2-0.4-4.9l5.8-8.5c0.1-0.2,0.3-0.2,0.5-0.1l0.1,0.1l5.8,8.4
		c0.8,1.1,0.9,2.3,0.5,3.5c-1.3,3.5-3.2,3.7-5.7,0.6c-0.4-0.4-1-0.5-1.5-0.1C25.2,61.6,25.1,61.7,25,61.8z"/>
	<path class="st3" d="M63.6,56.2c0.4-0.6,0.7-0.6,1,0.1l0.9,2.5c0.1,0.3,0,0.5-0.3,0.6l0,0C62.3,60.1,61.8,59.1,63.6,56.2z"/>
	<path class="st3" d="M25.2,62.9c0.4-1.4,0.9-1.4,1.4-0.1l1.1,3c0.1,0.2,0,0.5-0.3,0.6c0,0,0,0-0.1,0c-0.9,0.2-1.8,0.2-2.7,0
		c-0.2-0.1-0.4-0.3-0.3-0.6l0,0L25.2,62.9z"/>
	<path class="st3" d="M64.8,87.2c-0.2-0.3-0.6-0.4-0.8-0.2c0,0-0.1,0-0.1,0.1c-3.6,3.1-5.4,2.3-5.5-2.3c0-0.3,0.1-0.6,0.3-0.9
		l5.1-7.6c0.2-0.2,0.4-0.2,0.5,0l4.8,7c1.1,1.6,1.1,3.1,0,4.7C67.6,89.9,66.2,89.7,64.8,87.2z"/>
	<path class="st3" d="M63.7,87.9c0.3-0.7,0.6-0.6,0.8,0.1l1,2.7c0.1,0.2,0,0.4-0.2,0.5c0,0,0,0-0.1,0c-1.1,0.2-2.8,0.6-2.8-0.6
		L63.7,87.9z"/>
	<path class="st3" d="M102.6,104.8c-0.3,0.9-0.6,0.9-0.9,0.1l-1.3-3.7c-0.1-0.2,0-0.5,0.3-0.6c0,0,0,0,0.1,0c1-0.2,2-0.2,3,0
		c0.2,0,0.3,0.3,0.2,0.5c0,0,0,0,0,0.1L102.6,104.8z"/>
	<path class="st3" d="M106.3,103.7c5.5,2.9-0.8,9.8-4,14.2c-0.1,0.2-0.3,0.2-0.5,0.1l-0.1-0.1c-2.3-3.3-8-9.3-5.4-13.4
		c0.2-0.3,0.4-0.5,0.8-0.6c1.9-0.7,3.4-0.1,4.3,1.8c0.1,0.3,0.4,0.4,0.7,0.3c0.9-0.3,1.5-0.7,1.7-1.3
		C104.2,103.3,105.1,103,106.3,103.7z"/>
	<path class="st3" d="M65.6,109.1l-1.2,3c-0.1,0.2-0.3,0.3-0.6,0.2c-0.1,0-0.2-0.1-0.3-0.3l-1-3.1c-0.1-0.3,0.1-0.6,0.5-0.5
		c0,0,2.2,0,2.2,0c0.2,0,0.4,0.2,0.4,0.4C65.6,109,65.6,109.1,65.6,109.1z"/>
	<path class="st3" d="M63.1,112.7c0.3,0.5,1,0.6,1.6,0.2c0.2-0.1,0.3-0.3,0.4-0.4c0.7-1.1,1.6-1.5,2.8-1.3c0.3,0,0.6,0.2,0.8,0.5
		c3.1,3.8-2.2,8.8-4.3,12.1c-0.2,0.2-0.4,0.2-0.5,0l-5.1-7.7c-0.9-1.3-0.8-2.5,0.2-3.8C60.4,110.5,61.8,110.6,63.1,112.7z"/>
	<path class="st3" d="M100.8,147.2l6-0.1c0.2,0,0.4-0.2,0.4-0.5c0,0,0,0,0-0.1c-0.5-2.6,0.5-3.5,3-2.7c0.3,0.1,0.5,0.4,0.5,0.7
		l-0.2,5.7c0,0.3-0.3,0.5-0.6,0.5H94.2c-1.7,0-1.9-0.6-0.8-1.7l6.4-6.4c0.2-0.2,0.1-0.4-0.1-0.5c-4.9-1.9-7.1-5.2-6.6-10
		c1.1-9.7,13.9-12,17.7-2.3c0.1,0.3,0,0.6-0.2,0.8c-0.6,0.5-1.4,0.7-2.1,0.9c-0.3,0-0.6-0.1-0.7-0.4c-4.7-10.8-17.3,2.6-8.3,7.2
		c1.6,0.8,3.3,0.7,5-0.4c0.3-0.2,0.6-0.2,0.9-0.1c0.9,0.4,1.5,1,1.9,1.9c0.1,0.3,0,0.6-0.2,0.8c-2.4,1.9-4.6,4.1-6.5,6.5
		C100.4,147.1,100.4,147.2,100.8,147.2z"/>
</g>
</svg>
