<?xml version="1.0" encoding="utf-8"?>
<!-- Generator: Adobe Illustrator 27.0.1, SVG Export Plug-In . SVG Version: 6.00 Build 0)  -->
<svg version="1.1" id="Слой_1" xmlns="http://www.w3.org/2000/svg" xmlns:xlink="http://www.w3.org/1999/xlink" x="0px" y="0px"
	 viewBox="0 0 128 168" style="enable-background:new 0 0 128 168;" xml:space="preserve">
<style type="text/css">
	.st0{fill:#D8D8D8;}
	.st1{fill:#AAAAAA;}
	.st2{fill:#FFFFFF;}
	.st3{fill:#2D261B;}
</style>
<g>
	<path class="st0" d="M107.9,161.7H20.1c-6.9,0-12.4-5.6-12.4-12.4V18.8c0-6.9,5.6-12.4,12.4-12.4h87.8c6.9,0,12.4,5.6,12.4,12.4
		v130.5C120.3,156.1,114.8,161.7,107.9,161.7z"/>
	<path class="st1" d="M106.9,157.8H21.1c-5.5,0-9.9-4.4-9.9-9.9V19.8c0-5.5,4.4-9.9,9.9-9.9h85.8c5.5,0,9.9,4.4,9.9,9.9v128.1
		C116.8,153.4,112.4,157.8,106.9,157.8z"/>
	<path class="st2" d="M106.6,154.8H21.4c-4.4,0-8-3.6-8-8V20.9c0-4.4,3.6-8,8-8h85.2c4.4,0,8,3.6,8,8v125.9
		C114.6,151.2,111,154.8,106.6,154.8z"/>
</g>
<g>
	<path class="st3" d="M21.8,25.7c12.9-6.8,17.9,16.7,5.4,18.6C15.5,46.2,15.3,24.5,20.6,19c3.5-3.7,9.7-2.1,12.6,1.9
		c0.2,0.2,0.2,0.6,0,0.8c-0.6,0.7-1.3,1.2-2.2,1.4c-0.3,0.1-0.6-0.1-0.8-0.3c-3.1-4.3-8.2-2.4-8.9,2.6
		C21.3,25.8,21.4,25.9,21.8,25.7z M26.3,40.8c6.5-0.6,5.8-12.8-0.6-12.8c-2.7,0.1-4.8,3.1-4.6,6.6C21.2,38.2,23.6,41,26.3,40.8z"/>
	<path class="st2" d="M25.7,28c2.7-0.1,5,2.6,5.2,6.2c0.1,8.5-9.2,8.9-9.8,0.4C20.9,31.1,23,28.1,25.7,28z"/>
	<path class="st3" d="M48.9,55.4c-0.3-0.5-0.8-0.6-1.3-0.3c-0.1,0.1-0.2,0.1-0.3,0.3c-1.8,2.3-3.4,2.2-4.8-0.2
		c-0.6-1-0.6-2.1,0.1-3.1l5.2-7.8c0.1-0.1,0.3-0.2,0.5-0.1c0,0,0.1,0,0.1,0.1l4.8,7c1.1,1.6,1.1,3.1,0.1,4.6
		C51.7,57.9,50.2,57.8,48.9,55.4z"/>
	<path class="st3" d="M80.8,55.2c-0.2-0.3-0.6-0.4-0.8-0.2c0,0-0.1,0-0.1,0.1c-3.6,3.1-5.4,2.3-5.5-2.3c0-0.3,0.1-0.6,0.3-0.9
		l5.1-7.6c0.2-0.2,0.4-0.2,0.5,0l4.8,7c1.1,1.6,1.1,3.1,0,4.7C83.6,57.9,82.2,57.7,80.8,55.2z"/>
	<path class="st3" d="M32.3,61c-0.7,2.7-2.2,3.3-4.4,2c-0.2-0.1-0.4-0.4-0.6-0.8c-0.3-0.6-0.7-0.9-1.3-1c-0.3-0.1-0.6,0.1-0.8,0.4
		c-3.6,5.5-7.7-1.1-4.4-5.6c1.9-2.6,3.5-4.9,4.8-7.1c0.2-0.2,0.4-0.2,0.5,0l5.5,8C32.5,58.3,32.7,59.6,32.3,61z"/>
	<path class="st3" d="M47.7,55.9c0.3-0.7,0.6-0.6,0.8,0.1l1,2.7c0.1,0.2,0,0.4-0.2,0.5c0,0,0,0-0.1,0c-1,0.2-1.8,0.3-2.5,0.1
		c-0.3-0.1-0.4-0.4-0.4-0.7L47.7,55.9z"/>
	<path class="st3" d="M79.6,56.2c0.4-0.6,0.7-0.6,1,0.1l0.9,2.5c0.1,0.3,0,0.5-0.3,0.6l0,0C78.3,60.1,77.8,59.1,79.6,56.2z"/>
	<path class="st3" d="M25.2,62.9c0.4-1.4,0.9-1.4,1.4-0.1l1.1,3c0.1,0.2,0,0.5-0.3,0.6c0,0,0,0-0.1,0c-0.9,0.2-1.8,0.2-2.7,0
		c-0.2-0.1-0.4-0.3-0.3-0.6l0,0L25.2,62.9z"/>
	<path class="st3" d="M48.5,87.1c-0.1-0.2-0.4-0.3-0.6-0.1l0,0c-3.6,3.1-5.4,2.3-5.5-2.3c0-0.3,0.1-0.6,0.3-0.9l5.1-7.4
		c0.1-0.2,0.3-0.2,0.5-0.1l0.1,0.1l4.8,7c0.9,1.4,1,2.8,0.1,4.2C51.8,89.8,50.2,89.7,48.5,87.1z"/>
	<path class="st3" d="M80.8,87.2c-0.2-0.3-0.6-0.4-0.8-0.2c0,0-0.1,0-0.1,0.1c-3.6,3.1-5.4,2.3-5.5-2.3c0-0.3,0.1-0.6,0.3-0.9
		l5.1-7.4c0.1-0.2,0.3-0.2,0.5-0.1l0.1,0.1l4.8,6.9c1.1,1.5,1.1,3.1,0,4.6C83.6,89.9,82.2,89.7,80.8,87.2z"/>
	<path class="st3" d="M47.6,88.2c0.4-0.6,0.7-0.6,1,0.1l0.9,2.5c0.1,0.3,0,0.5-0.3,0.6l0,0C46.3,92.1,45.8,91.1,47.6,88.2z"/>
	<path class="st3" d="M79.7,87.9c0.3-0.7,0.6-0.6,0.8,0.1l1,2.6c0.1,0.3,0,0.6-0.2,0.6l0,0c-0.8,0.3-1.5,0.3-2.4,0.1
		c-0.3-0.1-0.4-0.3-0.4-0.5c0,0,0,0,0-0.1L79.7,87.9z"/>
	<path class="st3" d="M102.6,104.8c-0.3,0.8-0.6,0.9-0.9,0.1l-1.3-3.7c-0.1-0.2,0.1-0.5,0.3-0.6c0,0,0,0,0.1,0c1-0.2,2.1-0.2,3,0
		c0.2,0,0.3,0.3,0.2,0.5l0,0L102.6,104.8z"/>
	<path class="st3" d="M102.8,105.5c1.6-4.2,7.4-1.1,5.3,3.9c-0.5,1.1-2.4,4-5.8,8.5c-0.1,0.2-0.4,0.2-0.5,0.1c0,0-0.1,0-0.1-0.1
		c-1.9-2.7-7.2-8.8-6.1-12c1-3.1,4.1-3.1,5.6-0.3C101.8,106.7,102.3,106.6,102.8,105.5z"/>
	<path class="st3" d="M48.5,112c-0.4,0.6-0.7,0.6-0.9-0.1l-0.9-2.7c-0.1-0.2,0.1-0.5,0.3-0.6l0,0C49.9,108,50.4,109.1,48.5,112z"/>
	<path class="st3" d="M81.6,109.1l-1.2,3c-0.1,0.3-0.7,0.5-0.9,0l-1.1-3.1c-0.1-0.2,0.1-0.6,0.4-0.5c0,0,2.2,0,2.2,0
		c0.2,0,0.4,0.2,0.4,0.4C81.6,109,81.6,109.1,81.6,109.1z"/>
	<path class="st3" d="M47.1,112.7c0.2,0.5,0.9,0.6,1.4,0.2c0.2-0.1,0.3-0.3,0.5-0.4c0.5-0.7,1.2-1.1,2-1.3c0.3-0.1,0.6,0,0.9,0.1
		c4.6,3-1.7,9.6-3.6,12.6c-0.1,0.3-0.4,0.2-0.5,0c-1.4-2.2-2.9-4.4-4.4-6.6C40.4,112.7,45.2,108.5,47.1,112.7z"/>
	<path class="st3" d="M79.1,112.7c0.2,0.4,0.6,0.5,1.1,0.3c0.1,0,0.1-0.1,0.1-0.1l2.6-1.8c0.2-0.2,0.6-0.2,0.9,0
		c5,2.9-1.5,9.7-3.5,12.7c-0.1,0.2-0.3,0.2-0.5,0.1l-0.1-0.1c-2-3.1-8.2-9.5-3.7-12.6c0.3-0.2,0.6-0.3,0.9-0.2
		C78,111.2,78.7,111.7,79.1,112.7z"/>
	<path class="st3" d="M106.3,142.3c-13.4,7.3-18.1-18.7-4.2-18.7c10.7,0,10.7,21.1,4.6,25.9c-3.7,2.9-9.3,1.2-11.9-2.7
		c-0.5-0.9,1.5-1.8,2.2-2c0.3-0.1,0.6,0,0.8,0.3c2.9,4.3,8.4,2.3,8.9-2.6C106.7,142.2,106.6,142.1,106.3,142.3z M102.2,139.9
		c6.4-0.5,6.1-12.7-0.4-12.8l0,0C95.4,127.6,95.7,139.8,102.2,139.9L102.2,139.9z"/>
	<path class="st2" d="M101.8,127.1c2.7-0.1,5,2.7,5.1,6.2c0.1,8.5-9.3,8.8-9.8,0.3C97,130.1,99.1,127.2,101.8,127.1z"/>
</g>
</svg>
