<?xml version="1.0" encoding="utf-8"?>
<!-- Generator: Adobe Illustrator 27.0.1, SVG Export Plug-In . SVG Version: 6.00 Build 0)  -->
<svg version="1.1" id="Слой_1" xmlns="http://www.w3.org/2000/svg" xmlns:xlink="http://www.w3.org/1999/xlink" x="0px" y="0px"
	 viewBox="0 0 128 168" style="enable-background:new 0 0 128 168;" xml:space="preserve">
<style type="text/css">
	.st0{fill:#D8D8D8;}
	.st1{fill:#AAAAAA;}
	.st2{fill:#FFFFFF;}
	.st3{fill:#2D261B;}
</style>
<g>
	<path class="st0" d="M108.1,161.7H20.3c-6.9,0-12.4-5.6-12.4-12.4V18.8c0-6.9,5.6-12.4,12.4-12.4h87.8c6.9,0,12.4,5.6,12.4,12.4
		v130.5C120.5,156.1,114.9,161.7,108.1,161.7z"/>
	<path class="st1" d="M107.1,157.8H21.3c-5.5,0-9.9-4.4-9.9-9.9V19.8c0-5.5,4.4-9.9,9.9-9.9h85.8c5.5,0,9.9,4.4,9.9,9.9v128.1
		C117,153.4,112.5,157.8,107.1,157.8z"/>
	<path class="st2" d="M106.8,154.8H21.6c-4.4,0-8-3.6-8-8V20.9c0-4.4,3.6-8,8-8h85.2c4.4,0,8,3.6,8,8v125.9
		C114.7,151.2,111.2,154.8,106.8,154.8z"/>
</g>
<g>
	<path class="st3" d="M31.7,29.9c4,4.4,4.2,8.4,0.6,11.9C24,49.8,11,38.2,20,30.1c0.2-0.2,0.2-0.5,0.1-0.7
		c-3.6-4.3-2.2-9.5,2.8-11.5c7-2.9,14.7,4.9,8.9,11.3C31.5,29.4,31.5,29.7,31.7,29.9z M30.2,24.5c0-2-1.9-3.7-4.3-3.7
		c-5.7,0.1-5.9,7.2-0.1,7.4C28.3,28.2,30.2,26.6,30.2,24.5z M31.2,36.4c0-2.5-2.4-4.5-5.4-4.5c-7,0.3-7.1,8.9,0.1,9.1
		C28.8,40.9,31.2,38.9,31.2,36.4z"/>
	<path class="st2" d="M21.5,24.5c0.2-4.9,8.6-4.9,8.8,0C30.1,29.4,21.6,29.4,21.5,24.5z"/>
	<path class="st2" d="M25.9,31.9c7,0.1,7.1,8.8,0.1,9C18.9,40.8,18.9,32.1,25.9,31.9z"/>
	<path class="st3" d="M48.7,55.1c-0.2-0.3-0.6-0.4-0.9-0.2c-0.1,0.1-0.2,0.1-0.2,0.2c-0.8,1-1.9,2.1-3.2,1.8
		c-5.1-2.7,1.5-9.8,3.5-12.6c0.1-0.1,0.3-0.2,0.5-0.1c0,0,0.1,0,0.1,0.1l5,7.4c1,1.5,1,3-0.3,4.3C51.4,57.7,49.9,57.4,48.7,55.1z"/>
	<path class="st3" d="M80.8,55.4c-0.4-1.1-0.9-1.1-1.6-0.2c-1.6,2.3-3,2.5-4.3,0.6c-1.1-1.5-1-3.1,0-4.7l4.7-7
		c0.1-0.2,0.3-0.2,0.5-0.1l0.1,0.1c2,2.9,8.2,9.7,3.7,12.6C83.7,57,83.4,57,83.1,57C81.9,56.9,81.2,56.3,80.8,55.4z"/>
	<path class="st3" d="M32.3,61c-0.7,2.7-2.2,3.3-4.4,2c-0.2-0.1-0.4-0.4-0.6-0.8c-0.2-0.5-0.6-0.8-1.1-1c-0.3-0.1-0.6,0-0.8,0.3
		l-1.8,1.8c-0.2,0.2-0.6,0.3-0.9,0.2c-7.9-1.5,1.2-11.8,3-14.6c0.2-0.2,0.4-0.2,0.5,0l5.3,7.7C32.4,58.1,32.7,59.6,32.3,61z"/>
	<path class="st3" d="M47.7,55.9c0.3-0.7,0.6-0.6,0.8,0.1l1,2.7c0.1,0.2,0,0.4-0.2,0.5c0,0,0,0-0.1,0c-1,0.2-1.8,0.3-2.5,0.1
		c-0.3-0.1-0.4-0.4-0.4-0.7L47.7,55.9z"/>
	<path class="st3" d="M79.6,56.2c0.4-0.6,0.7-0.6,1,0.1l0.9,2.5c0.1,0.3,0,0.5-0.3,0.6l0,0C78.3,60.1,77.8,59.1,79.6,56.2z"/>
	<path class="st3" d="M64.8,71.4c-0.4-1.1-0.9-1.1-1.6-0.2c-1.6,2.3-3.1,2.5-4.4,0.6c-1-1.5-1-3.1,0.1-4.7l4.8-7
		c0.1-0.1,0.3-0.2,0.5-0.1c0,0,0.1,0,0.1,0.1c1.9,3,8.2,9.7,3.7,12.6C67.7,73,67.4,73,67.1,73C65.9,72.9,65.2,72.3,64.8,71.4z"/>
	<path class="st3" d="M25.2,62.9c0.4-1.4,0.9-1.4,1.4-0.1l1.1,3c0.1,0.2,0,0.5-0.3,0.6c0,0,0,0-0.1,0c-0.9,0.2-1.8,0.2-2.7,0
		c-0.2-0.1-0.4-0.3-0.3-0.6l0,0L25.2,62.9z"/>
	<path class="st3" d="M63.6,72.2c0.4-0.6,0.7-0.6,1,0.1l0.9,2.5c0.1,0.3,0,0.5-0.3,0.6l0,0C62.3,76.1,61.8,75.1,63.6,72.2z"/>
	<path class="st3" d="M48.8,87.3c-0.2-0.4-0.8-0.6-1.2-0.4c-0.1,0.1-0.2,0.2-0.3,0.3c-1.6,2.3-3,2.5-4.3,0.6c-1.1-1.6-1.1-3.1,0-4.7
		l4.8-6.9c0.2-0.2,0.4-0.2,0.5,0l4.6,6.8c1.3,1.9,1.4,3.4,0.3,4.6C51.4,89.6,50,89.5,48.8,87.3z"/>
	<path class="st3" d="M80.8,87.4c-0.4-1.1-0.9-1.1-1.6-0.2c-1.6,2.3-3.1,2.5-4.4,0.6c-1-1.5-1-3.1,0.1-4.7l4.7-7
		c0.1-0.1,0.3-0.2,0.5-0.1l0.1,0.1c2,2.9,8.2,9.6,3.7,12.6C83.7,89,83.4,89,83.1,89C81.9,88.9,81.2,88.3,80.8,87.4z"/>
	<path class="st3" d="M47.7,87.9c0.3-0.7,0.6-0.6,0.8,0.1l1,2.7c0.1,0.2,0,0.4-0.2,0.5c0,0,0,0-0.1,0c-1,0.2-1.8,0.3-2.5,0.1
		c-0.3-0.1-0.4-0.4-0.4-0.7L47.7,87.9z"/>
	<path class="st3" d="M79.6,88.2c0.4-0.6,0.7-0.6,1,0.1l0.9,2.5c0.1,0.3,0,0.5-0.3,0.6l0,0C78.3,92.1,77.8,91.1,79.6,88.2z"/>
	<path class="st3" d="M65.6,93.1l-1.2,3c-0.1,0.3-0.7,0.5-0.9,0l-1-3.1c-0.1-0.2,0.1-0.6,0.4-0.5c0,0,2.2,0,2.2,0
		c0.2,0,0.4,0.2,0.4,0.4C65.6,93,65.6,93.1,65.6,93.1z"/>
	<path class="st3" d="M62.8,96.1c0.3,0.6,1,1,1.7,0.7c0.2-0.1,0.4-0.2,0.5-0.4c1.6-1.9,3-2,4.1-0.2c1,1.5,0.9,2.9-0.1,4.4l-4.8,7.1
		c-0.2,0.2-0.4,0.2-0.5,0c-2-3.2-7.9-9-3.9-12.5c0.3-0.2,0.6-0.3,0.9-0.3C61.8,95,62.5,95.4,62.8,96.1z"/>
	<path class="st3" d="M102.6,104.8c-0.3,0.8-0.6,0.9-0.9,0.1l-1.3-3.7c-0.1-0.2,0.1-0.5,0.3-0.6c0,0,0,0,0.1,0c1-0.2,2.1-0.2,3,0
		c0.2,0,0.3,0.3,0.2,0.5c0,0,0,0,0,0.1L102.6,104.8z"/>
	<path class="st3" d="M102.8,105.5c1.7-4.4,8.3-0.7,4.5,5.1c-1.6,2.5-3.3,4.9-5,7.4c-0.1,0.2-0.3,0.2-0.5,0.1l-0.1-0.1
		c-1.9-2.8-7.1-8.8-6.1-12.2c0.9-3.1,4.1-3.1,5.6-0.3C101.8,106.7,102.3,106.6,102.8,105.5z"/>
	<path class="st3" d="M49.6,109.1l-1.2,3c-0.1,0.3-0.7,0.5-0.9,0l-1-3.1c-0.1-0.2,0.1-0.6,0.4-0.5c0,0,2.2,0,2.2,0
		c0.2,0,0.4,0.2,0.4,0.4C49.6,109,49.6,109.1,49.6,109.1z"/>
	<path class="st3" d="M80.6,111.8c-0.5,0.7-0.8,0.7-1.1-0.2l-0.9-2.4c-0.1-0.2,0-0.5,0.3-0.6l0,0C81.9,107.8,82.5,108.9,80.6,111.8z
		"/>
	<path class="st3" d="M47.6,112.7c1.1-0.1,2.2-0.5,3.1-1.5c0.2-0.2,0.5-0.3,0.8-0.2c5.5,2.6-1.2,9.9-3.2,12.8
		c-0.1,0.2-0.3,0.2-0.5,0.1l-0.1-0.1c-2-3.1-8.2-9.5-3.7-12.6c0.3-0.2,0.6-0.3,0.9-0.2c0.8,0.1,1.4,0.6,1.9,1.2
		C47,112.5,47.3,112.7,47.6,112.7z"/>
	<path class="st3" d="M79.1,112.7c0.2,0.4,0.7,0.5,1.1,0.3l0.1-0.1l2.6-1.8c0.2-0.2,0.6-0.1,0.9,0.1c4.8,3.3-1.4,9.3-3.5,12.6
		c-0.2,0.2-0.4,0.2-0.5,0c-2-3-8.2-9.5-3.7-12.6c0.3-0.2,0.6-0.3,0.9-0.2C78,111.2,78.7,111.7,79.1,112.7z"/>
	<path class="st3" d="M107.9,138.8c2.7,3.3,2.9,6.2,0.6,8.9c-6.8,7.9-19.4-1.4-12.1-9.1c0.2-0.2,0.2-0.5,0-0.7l0,0
		c-10.1-9,6-20.5,13-10.7c2.4,3.3,1.9,7-1.6,11C107.7,138.3,107.7,138.6,107.9,138.8z M107.5,131.6c0-2.5-2.4-4.5-5.3-4.5
		s-5.3,2.1-5.3,4.6l0,0c0,2.5,2.4,4.5,5.3,4.5C105.1,136.2,107.5,134.1,107.5,131.6L107.5,131.6z M106.4,143.5
		c-0.1-4.9-8.5-4.9-8.7-0.1l0,0c0,2,1.9,3.7,4.3,3.7C104.5,147.2,106.4,145.6,106.4,143.5L106.4,143.5z"/>
	<path class="st2" d="M102.2,127c7,0.2,7,9,0,9.2C95.2,136,95.2,127.2,102.2,127z"/>
	<path class="st2" d="M97.8,143.5c0.2-4.9,8.5-4.8,8.6,0.1C106.2,148.4,97.9,148.4,97.8,143.5z"/>
</g>
</svg>
