<?xml version="1.0" encoding="UTF-8" standalone="no"?>
<svg xmlns="http://www.w3.org/2000/svg" version="1.2" baseProfile="tiny" viewBox="0 0 128 168">
<g stroke-width="0.00" fill="none" stroke-linecap="butt">
<path stroke="#d8d8d8" stroke-opacity="0.592" vector-effect="non-scaling-stroke" d="
  M 13.76 147.50
  C 15.38 153.96 19.64 155.26 26.08 155.23
  Q 62.42 155.08 98.75 155.50"
/>
<path stroke="#d8d8d8" stroke-opacity="0.592" vector-effect="non-scaling-stroke" d="
  M 98.75 155.50
  C 104.85 154.47 110.10 156.64 113.35 150.16
  Q 114.50 147.87 114.50 142.64
  Q 114.51 83.29 114.49 23.94
  C 114.49 15.20 110.18 12.76 101.73 12.75
  Q 63.02 12.73 24.31 12.77
  C 20.36 12.77 17.63 13.65 15.46 16.75"
/>
<path stroke="#f9fafa" stroke-opacity="0.988" vector-effect="non-scaling-stroke" d="
  M 13.76 147.50
  Q 14.18 84.84 14.00 22.17
  C 14.00 20.11 14.86 18.66 15.46 16.75"
/>
<path stroke="#96938d" vector-effect="non-scaling-stroke" d="
  M 30.57 35.55
  Q 28.17 44.64 20.89 38.55
  A 0.89 0.77 52.3 0 0 20.04 38.38
  Q 18.97 38.82 18.48 39.85
  A 0.88 0.78 41.4 0 0 18.59 40.71
  C 22.86 46.40 30.58 45.58 33.06 38.82
  Q 35.71 31.60 33.67 24.23
  C 29.49 9.12 10.07 21.58 19.30 33.05
  Q 23.23 37.92 30.22 35.25
  Q 30.69 35.07 30.57 35.55"
/>
<path stroke="#96938d" vector-effect="non-scaling-stroke" d="
  M 48.48 55.12
  Q 50.66 58.62 52.96 55.95
  Q 54.80 53.81 53.16 51.39
  L 48.26 44.20
  A 0.34 0.32 45.3 0 0 47.72 44.18
  L 42.63 51.78
  A 1.67 1.41 -32.6 0 0 42.35 52.68
  Q 42.47 59.71 47.81 55.03
  A 0.45 0.45 -37.1 0 1 48.48 55.12"
/>
<path stroke="#96938d" vector-effect="non-scaling-stroke" d="
  M 75.85 56.71
  A 1.66 1.65 -52.4 0 0 78.34 56.38
  C 81.09 52.22 81.37 59.52 84.93 56.15
  Q 86.98 54.22 85.19 51.56
  L 80.25 44.18
  A 0.33 0.32 -45.5 0 0 79.71 44.19
  C 77.59 47.48 71.84 53.13 75.85 56.71"
/>
<path stroke="#96938d" vector-effect="non-scaling-stroke" d="
  M 32.33 60.99
  Q 32.86 58.74 31.42 56.64
  L 26.21 49.00
  A 0.33 0.31 44.5 0 0 25.68 48.99
  C 23.86 51.83 14.79 62.09 22.68 63.58
  A 1.03 0.98 27.4 0 0 23.55 63.33
  L 25.38 61.58
  A 0.88 0.72 -54.0 0 1 26.21 61.36
  Q 27.10 61.72 27.55 62.55
  A 1.61 0.91 76.5 0 0 28.19 63.24
  Q 31.44 64.75 32.33 60.99"
/>
<path stroke="#e1e0dd" vector-effect="non-scaling-stroke" d="
  M 62.75 66.71
  L 63.29 67.25"
/>
<path stroke="#96938d" vector-effect="non-scaling-stroke" d="
  M 63.29 67.25
  L 62.58 69.14
  A 0.47 0.39 -69.8 0 0 62.79 69.73
  Q 67.10 71.13 64.46 66.75"
/>
<path stroke="#e1e0dd" vector-effect="non-scaling-stroke" d="
  M 64.46 66.75
  L 65.00 66.46"
/>
<path stroke="#96938d" vector-effect="non-scaling-stroke" d="
  M 65.00 66.46
  Q 68.12 69.27 69.64 65.36
  A 3.05 2.77 -53.1 0 0 69.39 62.65
  L 64.28 55.11
  A 0.36 0.35 -45.2 0 0 63.69 55.12
  L 58.91 62.09
  Q 57.54 64.09 58.78 66.31
  Q 60.10 68.67 62.75 66.71"
/>
<path stroke="#78736b" vector-effect="non-scaling-stroke" d="
  M 65.00 66.46
  Q 63.84 64.64 62.75 66.71"
/>
<path stroke="#78736b" vector-effect="non-scaling-stroke" d="
  M 64.46 66.75
  Q 63.61 66.26 63.29 67.25"
/>
<path stroke="#96938d" vector-effect="non-scaling-stroke" d="
  M 47.70 55.92
  L 46.46 58.75
  A 0.47 0.46 18.5 0 0 46.79 59.39
  Q 47.75 59.63 49.24 59.28
  A 0.41 0.37 73.6 0 0 49.50 58.75
  L 48.52 56.05
  Q 48.13 54.94 47.70 55.92"
/>
<path stroke="#96938d" vector-effect="non-scaling-stroke" d="
  M 79.65 56.24
  Q 76.89 60.47 81.12 59.40
  A 0.47 0.47 73.7 0 0 81.45 58.79
  L 80.57 56.32
  Q 80.23 55.34 79.65 56.24"
/>
<path stroke="#96938d" vector-effect="non-scaling-stroke" d="
  M 25.19 62.92
  L 24.35 65.82
  A 0.49 0.46 -76.2 0 0 24.69 66.42
  Q 25.97 66.69 27.32 66.41
  A 0.45 0.44 -16.3 0 0 27.65 65.82
  L 26.56 62.82
  Q 25.82 60.77 25.19 62.92"
/>
<path stroke="#e1e0dd" vector-effect="non-scaling-stroke" d="
  M 46.75 77.46
  L 47.21 77.75"
/>
<path stroke="#96938d" vector-effect="non-scaling-stroke" d="
  M 47.21 77.75
  Q 47.10 78.99 46.51 80.07
  A 0.39 0.38 -68.3 0 0 46.74 80.63
  Q 51.16 81.66 48.50 77.29"
/>
<path stroke="#e1e0dd" vector-effect="non-scaling-stroke" d="
  M 48.50 77.29
  L 49.00 76.96"
/>
<path stroke="#96938d" vector-effect="non-scaling-stroke" d="
  M 49.00 76.96
  Q 52.31 80.15 53.59 76.29
  Q 54.21 74.39 53.10 72.78
  L 48.20 65.68
  A 0.34 0.33 -46.7 0 0 47.64 65.70
  C 45.37 69.22 41.51 73.29 42.44 76.24
  Q 43.53 79.71 46.75 77.46"
/>
<path stroke="#78736b" vector-effect="non-scaling-stroke" d="
  M 49.00 76.96
  Q 47.31 75.17 46.75 77.46"
/>
<path stroke="#78736b" vector-effect="non-scaling-stroke" d="
  M 48.50 77.29
  Q 47.65 76.86 47.21 77.75"
/>
<path stroke="#e1e0dd" vector-effect="non-scaling-stroke" d="
  M 78.75 77.46
  L 79.21 77.75"
/>
<path stroke="#96938d" vector-effect="non-scaling-stroke" d="
  M 79.21 77.75
  Q 79.10 78.99 78.51 80.07
  A 0.39 0.38 -68.3 0 0 78.74 80.63
  Q 83.16 81.66 80.50 77.29"
/>
<path stroke="#e1e0dd" vector-effect="non-scaling-stroke" d="
  M 80.50 77.29
  L 81.00 76.96"
/>
<path stroke="#96938d" vector-effect="non-scaling-stroke" d="
  M 81.00 76.96
  Q 84.31 80.15 85.60 76.26
  Q 86.21 74.41 85.14 72.86
  L 80.20 65.68
  A 0.35 0.34 -45.2 0 0 79.63 65.69
  C 77.89 68.31 73.52 73.33 74.44 76.24
  Q 75.53 79.71 78.75 77.46"
/>
<path stroke="#78736b" vector-effect="non-scaling-stroke" d="
  M 81.00 76.96
  Q 79.31 75.17 78.75 77.46"
/>
<path stroke="#78736b" vector-effect="non-scaling-stroke" d="
  M 80.50 77.29
  Q 79.61 76.74 79.21 77.75"
/>
<path stroke="#e1e0dd" vector-effect="non-scaling-stroke" d="
  M 47.29 90.25
  L 46.75 90.54"
/>
<path stroke="#96938d" vector-effect="non-scaling-stroke" d="
  M 46.75 90.54
  Q 43.24 88.72 42.42 91.75
  C 41.63 94.66 46.09 100.11 47.84 102.31
  A 0.35 0.35 -47.6 0 0 48.41 102.28
  L 53.20 95.20
  Q 55.03 92.50 52.92 90.59
  Q 50.98 88.83 49.25 90.79"
/>
<path stroke="#e1e0dd" vector-effect="non-scaling-stroke" d="
  M 49.25 90.79
  L 48.71 90.50"
/>
<path stroke="#96938d" vector-effect="non-scaling-stroke" d="
  M 48.71 90.50
  L 49.52 87.95
  A 0.49 0.40 -73.4 0 0 49.27 87.36
  Q 44.99 86.17 47.29 90.25"
/>
<path stroke="#78736b" vector-effect="non-scaling-stroke" d="
  M 48.71 90.50
  Q 47.77 91.50 47.29 90.25"
/>
<path stroke="#78736b" vector-effect="non-scaling-stroke" d="
  M 46.75 90.54
  Q 47.82 92.82 49.25 90.79"
/>
<path stroke="#e1e0dd" vector-effect="non-scaling-stroke" d="
  M 79.29 90.25
  L 78.75 90.54"
/>
<path stroke="#96938d" vector-effect="non-scaling-stroke" d="
  M 78.75 90.54
  Q 75.24 88.72 74.42 91.75
  C 73.63 94.66 78.09 100.11 79.83 102.31
  A 0.36 0.35 41.4 0 0 80.41 102.28
  C 81.82 100.06 85.25 96.10 85.70 93.69
  C 86.13 91.41 83.85 88.22 81.50 90.54"
/>
<path stroke="#e1e0dd" vector-effect="non-scaling-stroke" d="
  M 81.50 90.54
  L 80.75 90.46"
/>
<path stroke="#96938d" vector-effect="non-scaling-stroke" d="
  M 80.75 90.46
  L 81.52 87.94
  A 0.48 0.40 -73.8 0 0 81.27 87.36
  Q 76.99 86.17 79.29 90.25"
/>
<path stroke="#78736b" vector-effect="non-scaling-stroke" d="
  M 80.75 90.46
  Q 79.89 91.37 79.29 90.25"
/>
<path stroke="#78736b" vector-effect="non-scaling-stroke" d="
  M 78.75 90.54
  Q 80.05 92.89 81.50 90.54"
/>
<path stroke="#96938d" vector-effect="non-scaling-stroke" d="
  M 102.56 104.83
  L 103.94 101.19
  A 0.43 0.37 -71.9 0 0 103.71 100.63
  Q 102.23 100.27 100.68 100.59
  A 0.46 0.45 -15.7 0 0 100.34 101.18
  L 101.64 104.91
  Q 102.07 106.12 102.56 104.83"
/>
<path stroke="#96938d" vector-effect="non-scaling-stroke" d="
  M 108.08 109.37
  C 110.12 104.36 104.43 101.19 102.76 105.47
  Q 102.09 107.20 101.22 105.56
  C 99.71 102.70 96.63 102.73 95.61 105.84
  C 94.55 109.08 99.82 115.17 101.71 117.87
  A 0.36 0.35 45.5 0 0 102.29 117.88
  Q 107.44 110.92 108.08 109.37"
/>
<path stroke="#96938d" vector-effect="non-scaling-stroke" d="
  M 49.58 109.11
  A 0.43 0.43 11.1 0 0 49.18 108.52
  L 46.97 108.48
  A 0.43 0.43 81.5 0 0 46.56 109.05
  L 47.61 112.14
  A 0.43 0.43 -43.8 0 0 48.42 112.15
  L 49.58 109.11"
/>
<path stroke="#96938d" vector-effect="non-scaling-stroke" d="
  M 80.45 111.98
  Q 83.38 107.67 79.03 108.60
  A 0.49 0.46 -15.4 0 0 78.66 109.20
  L 79.55 111.90
  Q 79.86 112.84 80.45 111.98"
/>
<path stroke="#96938d" vector-effect="non-scaling-stroke" d="
  M 47.07 112.70
  Q 46.44 111.27 44.98 111.01
  A 1.28 1.21 -55.6 0 0 44.06 111.21
  C 39.52 114.33 45.75 120.74 47.72 123.81
  A 0.33 0.33 45.9 0 0 48.27 123.82
  C 51.02 119.90 56.53 113.73 51.73 111.16
  A 0.94 0.75 38.5 0 0 50.82 111.16
  L 48.28 112.95
  A 0.84 0.75 -30.1 0 1 47.07 112.70"
/>
<path stroke="#96938d" vector-effect="non-scaling-stroke" d="
  M 79.07 112.70
  Q 78.46 111.26 76.93 111.00
  A 1.27 1.08 -55.3 0 0 76.03 111.24
  C 71.62 114.51 77.70 120.62 79.72 123.82
  A 0.33 0.32 45.5 0 0 80.26 123.83
  C 82.24 120.88 88.72 113.99 83.72 111.16
  A 0.93 0.77 40.2 0 0 82.82 111.15
  L 80.27 112.96
  A 0.83 0.75 -29.7 0 1 79.07 112.70"
/>
<path stroke="#96938d" vector-effect="non-scaling-stroke" d="
  M 97.43 132.45
  Q 99.83 123.33 107.12 129.44
  A 0.75 0.56 44.9 0 0 107.94 129.56
  L 109.53 128.34
  A 0.60 0.51 53.6 0 0 109.58 127.56
  C 106.00 122.68 98.61 121.64 95.68 127.70
  Q 91.53 136.26 95.05 145.15
  C 100.37 158.55 117.34 145.38 108.64 134.89
  Q 104.62 130.05 97.77 132.75
  Q 97.31 132.93 97.43 132.45"
/>
<path stroke="#96938d" vector-effect="non-scaling-stroke" d="
  M 26.1770 32.7492
  A 5.94 5.07 85.2 0 0 30.7322 26.4058
  A 5.94 5.07 85.2 0 0 25.1830 20.9108
  A 5.94 5.07 85.2 0 0 20.6278 27.2542
  A 5.94 5.07 85.2 0 0 26.1770 32.7492"
/>
<path stroke="#96938d" vector-effect="non-scaling-stroke" d="
  M 102.8480 147.1065
  A 5.94 5.07 84.9 0 0 107.3699 140.7393
  A 5.94 5.07 84.9 0 0 101.7920 135.2735
  A 5.94 5.07 84.9 0 0 97.2701 141.6407
  A 5.94 5.07 84.9 0 0 102.8480 147.1065"
/>
</g>
<path fill="#010001" fill-opacity="0.094" d="
  M 112.28 9.53
  C 114.62 9.01 117.51 14.34 118.12 16.10
  Q 118.24 16.44 118.50 16.63
  A 1.13 0.68 25.6 0 1 118.96 17.33
  Q 119.06 19.50 120.25 21.34
  A 1.76 1.56 31.4 0 1 120.53 22.25
  Q 120.55 64.93 120.22 107.60
  C 120.16 115.83 120.72 126.81 120.39 136.45
  C 120.30 139.27 119.96 150.78 117.89 152.45
  Q 117.47 152.78 117.30 153.20
  C 116.20 155.85 113.71 157.27 111.97 158.66
  Q 109.31 160.81 105.74 160.81
  Q 105.26 160.81 104.81 161.06
  Q 102.78 162.19 100.00 162.09
  C 75.56 161.21 49.66 162.49 24.44 161.68
  A 0.58 0.38 74.7 0 1 24.02 161.31
  C 23.57 160.15 18.29 162.12 18.10 160.57
  A 1.04 0.35 87.2 0 0 17.79 159.78
  Q 17.39 159.55 16.94 159.60
  A 0.64 0.60 72.7 0 1 16.32 159.25
  Q 15.99 158.56 15.02 158.71
  A 0.65 0.64 -16.4 0 1 14.34 158.35
  Q 13.70 156.97 12.49 156.03
  Q 10.87 154.77 10.41 154.06
  Q 8.88 151.71 8.06 148.99
  Q 7.00 145.44 7.00 141.72
  Q 7.01 112.35 6.99 80.31
  C 6.99 79.29 7.64 77.29 7.33 75.92
  Q 7.05 74.70 7.05 74.15
  Q 7.03 50.08 6.98 26.01
  C 6.98 23.99 7.90 22.23 7.76 20.00
  Q 7.74 19.74 8.04 19.10
  L 10.17 14.55
  Q 10.43 14.00 10.61 13.75
  Q 14.09 9.01 19.76 7.07
  Q 22.80 6.03 24.31 6.03
  L 105.19 6.02
  A 0.56 0.42 3.0 0 1 105.76 6.50
  L 105.71 6.87
  A 0.31 0.23 -82.8 0 0 105.91 7.22
  L 108.79 7.42
  A 0.86 0.73 77.9 0 1 109.45 7.93
  L 109.61 8.33
  A 0.49 0.41 -20.9 0 0 110.19 8.53
  Q 110.73 8.35 110.75 8.82
  Q 110.76 9.12 110.93 8.89
  Q 111.69 7.91 111.80 9.19
  A 0.39 0.38 -8.9 0 0 112.28 9.53
  Z
  M 116.72 20.94
  Q 114.94 12.33 106.40 10.66
  A 0.50 0.47 -89.4 0 1 106.01 10.24
  Q 105.97 9.93 105.91 9.89
  A 3.19 3.17 63.3 0 0 104.00 9.25
  L 23.50 9.25
  A 1.69 1.23 -55.8 0 0 22.61 9.57
  Q 21.45 10.39 19.95 10.26
  A 1.70 0.91 -44.0 0 0 19.07 10.51
  L 16.28 12.13
  A 1.13 0.91 -14.3 0 0 15.77 12.81
  Q 15.54 14.07 14.23 14.26
  A 0.70 0.55 -84.0 0 0 13.76 14.75
  Q 13.69 15.03 13.46 15.14
  Q 12.69 15.52 12.65 15.59
  Q 12.14 16.30 12.53 17.11
  A 0.25 0.22 -17.6 0 1 12.33 17.44
  L 11.94 17.51
  A 0.99 0.56 -80.5 0 0 11.38 18.20
  L 10.76 20.32
  A 0.74 0.72 35.9 0 0 10.87 20.97
  Q 11.47 21.78 10.43 21.40
  A 0.49 0.49 -80.3 0 0 9.78 21.86
  Q 9.70 83.25 9.83 144.44
  Q 9.83 145.44 11.16 146.46
  A 0.34 0.33 -43.9 0 1 11.14 147.00
  Q 10.39 147.51 10.96 147.96
  Q 11.05 148.85 10.99 149.80
  A 1.42 1.33 -62.6 0 0 11.24 150.69
  C 12.85 152.85 13.94 154.85 16.56 155.96
  C 19.51 157.22 21.98 158.50 25.30 158.58
  C 34.91 158.81 41.62 158.34 46.72 158.81
  Q 49.48 159.07 49.70 159.06
  Q 73.10 158.43 96.51 158.79
  Q 100.42 158.85 104.35 158.80
  C 106.31 158.77 107.72 157.78 109.79 157.58
  A 1.54 1.22 15.1 0 0 110.65 157.21
  L 116.22 151.64
  A 1.16 0.96 67.9 0 0 116.49 150.78
  C 116.23 147.98 117.50 145.68 117.50 143.21
  Q 117.50 82.89 117.49 22.56
  Q 117.49 22.07 117.20 21.74
  Q 116.79 21.27 116.72 20.94
  Z"
/>
<path fill="#020302" fill-opacity="0.184" d="
  M 117.20 21.74
  Q 117.49 22.07 117.49 22.56
  Q 117.50 82.89 117.50 143.21
  C 117.50 145.68 116.23 147.98 116.49 150.78
  A 1.16 0.96 67.9 0 1 116.22 151.64
  L 110.65 157.21
  A 1.54 1.22 15.1 0 1 109.79 157.58
  C 107.72 157.78 106.31 158.77 104.35 158.80
  Q 100.42 158.85 96.51 158.79
  Q 73.10 158.43 49.70 159.06
  Q 49.48 159.07 46.72 158.81
  C 41.62 158.34 34.91 158.81 25.30 158.58
  C 21.98 158.50 19.51 157.22 16.56 155.96
  C 13.94 154.85 12.85 152.85 11.24 150.69
  A 1.42 1.33 -62.6 0 1 10.99 149.80
  Q 11.05 148.85 10.96 147.96
  Q 10.39 147.51 11.14 147.00
  A 0.34 0.33 -43.9 0 0 11.16 146.46
  Q 9.83 145.44 9.83 144.44
  Q 9.70 83.25 9.78 21.86
  A 0.49 0.49 -80.3 0 1 10.43 21.40
  Q 11.47 21.78 10.87 20.97
  A 0.74 0.72 35.9 0 1 10.76 20.32
  L 11.38 18.20
  A 0.99 0.56 -80.5 0 1 11.94 17.51
  L 12.33 17.44
  A 0.25 0.22 -17.6 0 0 12.53 17.11
  Q 12.14 16.30 12.65 15.59
  Q 12.69 15.52 13.46 15.14
  Q 13.69 15.03 13.76 14.75
  A 0.70 0.55 -84.0 0 1 14.23 14.26
  Q 15.54 14.07 15.77 12.81
  A 1.13 0.91 -14.3 0 1 16.28 12.13
  L 19.07 10.51
  A 1.70 0.91 -44.0 0 1 19.95 10.26
  Q 21.45 10.39 22.61 9.57
  A 1.69 1.23 -55.8 0 1 23.50 9.25
  L 104.00 9.25
  A 3.19 3.17 63.3 0 1 105.91 9.89
  Q 105.97 9.93 106.01 10.24
  A 0.50 0.47 -89.4 0 0 106.40 10.66
  Q 114.94 12.33 116.72 20.94
  Q 116.79 21.27 117.20 21.74
  Z
  M 15.46 16.75
  Q 13.46 19.38 13.45 22.75
  Q 13.30 85.12 13.76 147.50
  C 15.38 153.96 19.64 155.26 26.08 155.23
  Q 62.42 155.08 98.75 155.50
  Q 101.47 155.59 104.19 155.69
  Q 101.47 155.59 98.75 155.50
  C 104.85 154.47 110.10 156.64 113.35 150.16
  Q 114.50 147.87 114.50 142.64
  Q 114.51 83.29 114.49 23.94
  C 114.49 15.20 110.18 12.76 101.73 12.75
  Q 63.02 12.73 24.31 12.77
  C 20.36 12.77 17.63 13.65 15.46 16.75
  Z
  M 115.01 118.67
  A 0.12 0.12 0.0 0 0 114.89 118.55
  L 114.87 118.55
  A 0.12 0.12 0.0 0 0 114.75 118.67
  L 114.75 145.83
  A 0.12 0.12 0.0 0 0 114.87 145.95
  L 114.89 145.95
  A 0.12 0.12 0.0 0 0 115.01 145.83
  L 115.01 118.67
  Z"
/>
<path fill="#ffffff" d="
  M 98.75 155.50
  Q 62.42 155.08 26.08 155.23
  C 19.64 155.26 15.38 153.96 13.76 147.50
  Q 14.18 84.84 14.00 22.17
  C 14.00 20.11 14.86 18.66 15.46 16.75
  C 17.63 13.65 20.36 12.77 24.31 12.77
  Q 63.02 12.73 101.73 12.75
  C 110.18 12.76 114.49 15.20 114.49 23.94
  Q 114.51 83.29 114.50 142.64
  Q 114.50 147.87 113.35 150.16
  C 110.10 156.64 104.85 154.47 98.75 155.50
  Z
  M 30.57 35.55
  Q 28.17 44.64 20.89 38.55
  A 0.89 0.77 52.3 0 0 20.04 38.38
  Q 18.97 38.82 18.48 39.85
  A 0.88 0.78 41.4 0 0 18.59 40.71
  C 22.86 46.40 30.58 45.58 33.06 38.82
  Q 35.71 31.60 33.67 24.23
  C 29.49 9.12 10.07 21.58 19.30 33.05
  Q 23.23 37.92 30.22 35.25
  Q 30.69 35.07 30.57 35.55
  Z
  M 48.48 55.12
  Q 50.66 58.62 52.96 55.95
  Q 54.80 53.81 53.16 51.39
  L 48.26 44.20
  A 0.34 0.32 45.3 0 0 47.72 44.18
  L 42.63 51.78
  A 1.67 1.41 -32.6 0 0 42.35 52.68
  Q 42.47 59.71 47.81 55.03
  A 0.45 0.45 -37.1 0 1 48.48 55.12
  Z
  M 75.85 56.71
  A 1.66 1.65 -52.4 0 0 78.34 56.38
  C 81.09 52.22 81.37 59.52 84.93 56.15
  Q 86.98 54.22 85.19 51.56
  L 80.25 44.18
  A 0.33 0.32 -45.5 0 0 79.71 44.19
  C 77.59 47.48 71.84 53.13 75.85 56.71
  Z
  M 32.33 60.99
  Q 32.86 58.74 31.42 56.64
  L 26.21 49.00
  A 0.33 0.31 44.5 0 0 25.68 48.99
  C 23.86 51.83 14.79 62.09 22.68 63.58
  A 1.03 0.98 27.4 0 0 23.55 63.33
  L 25.38 61.58
  A 0.88 0.72 -54.0 0 1 26.21 61.36
  Q 27.10 61.72 27.55 62.55
  A 1.61 0.91 76.5 0 0 28.19 63.24
  Q 31.44 64.75 32.33 60.99
  Z
  M 62.75 66.71
  L 63.29 67.25
  L 62.58 69.14
  A 0.47 0.39 -69.8 0 0 62.79 69.73
  Q 67.10 71.13 64.46 66.75
  L 65.00 66.46
  Q 68.12 69.27 69.64 65.36
  A 3.05 2.77 -53.1 0 0 69.39 62.65
  L 64.28 55.11
  A 0.36 0.35 -45.2 0 0 63.69 55.12
  L 58.91 62.09
  Q 57.54 64.09 58.78 66.31
  Q 60.10 68.67 62.75 66.71
  Z
  M 47.70 55.92
  L 46.46 58.75
  A 0.47 0.46 18.5 0 0 46.79 59.39
  Q 47.75 59.63 49.24 59.28
  A 0.41 0.37 73.6 0 0 49.50 58.75
  L 48.52 56.05
  Q 48.13 54.94 47.70 55.92
  Z
  M 79.65 56.24
  Q 76.89 60.47 81.12 59.40
  A 0.47 0.47 73.7 0 0 81.45 58.79
  L 80.57 56.32
  Q 80.23 55.34 79.65 56.24
  Z
  M 25.19 62.92
  L 24.35 65.82
  A 0.49 0.46 -76.2 0 0 24.69 66.42
  Q 25.97 66.69 27.32 66.41
  A 0.45 0.44 -16.3 0 0 27.65 65.82
  L 26.56 62.82
  Q 25.82 60.77 25.19 62.92
  Z
  M 46.75 77.46
  L 47.21 77.75
  Q 47.10 78.99 46.51 80.07
  A 0.39 0.38 -68.3 0 0 46.74 80.63
  Q 51.16 81.66 48.50 77.29
  L 49.00 76.96
  Q 52.31 80.15 53.59 76.29
  Q 54.21 74.39 53.10 72.78
  L 48.20 65.68
  A 0.34 0.33 -46.7 0 0 47.64 65.70
  C 45.37 69.22 41.51 73.29 42.44 76.24
  Q 43.53 79.71 46.75 77.46
  Z
  M 78.75 77.46
  L 79.21 77.75
  Q 79.10 78.99 78.51 80.07
  A 0.39 0.38 -68.3 0 0 78.74 80.63
  Q 83.16 81.66 80.50 77.29
  L 81.00 76.96
  Q 84.31 80.15 85.60 76.26
  Q 86.21 74.41 85.14 72.86
  L 80.20 65.68
  A 0.35 0.34 -45.2 0 0 79.63 65.69
  C 77.89 68.31 73.52 73.33 74.44 76.24
  Q 75.53 79.71 78.75 77.46
  Z
  M 47.29 90.25
  L 46.75 90.54
  Q 43.24 88.72 42.42 91.75
  C 41.63 94.66 46.09 100.11 47.84 102.31
  A 0.35 0.35 -47.6 0 0 48.41 102.28
  L 53.20 95.20
  Q 55.03 92.50 52.92 90.59
  Q 50.98 88.83 49.25 90.79
  L 48.71 90.50
  L 49.52 87.95
  A 0.49 0.40 -73.4 0 0 49.27 87.36
  Q 44.99 86.17 47.29 90.25
  Z
  M 79.29 90.25
  L 78.75 90.54
  Q 75.24 88.72 74.42 91.75
  C 73.63 94.66 78.09 100.11 79.83 102.31
  A 0.36 0.35 41.4 0 0 80.41 102.28
  C 81.82 100.06 85.25 96.10 85.70 93.69
  C 86.13 91.41 83.85 88.22 81.50 90.54
  L 80.75 90.46
  L 81.52 87.94
  A 0.48 0.40 -73.8 0 0 81.27 87.36
  Q 76.99 86.17 79.29 90.25
  Z
  M 102.56 104.83
  L 103.94 101.19
  A 0.43 0.37 -71.9 0 0 103.71 100.63
  Q 102.23 100.27 100.68 100.59
  A 0.46 0.45 -15.7 0 0 100.34 101.18
  L 101.64 104.91
  Q 102.07 106.12 102.56 104.83
  Z
  M 108.08 109.37
  C 110.12 104.36 104.43 101.19 102.76 105.47
  Q 102.09 107.20 101.22 105.56
  C 99.71 102.70 96.63 102.73 95.61 105.84
  C 94.55 109.08 99.82 115.17 101.71 117.87
  A 0.36 0.35 45.5 0 0 102.29 117.88
  Q 107.44 110.92 108.08 109.37
  Z
  M 49.58 109.11
  A 0.43 0.43 11.1 0 0 49.18 108.52
  L 46.97 108.48
  A 0.43 0.43 81.5 0 0 46.56 109.05
  L 47.61 112.14
  A 0.43 0.43 -43.8 0 0 48.42 112.15
  L 49.58 109.11
  Z
  M 80.45 111.98
  Q 83.38 107.67 79.03 108.60
  A 0.49 0.46 -15.4 0 0 78.66 109.20
  L 79.55 111.90
  Q 79.86 112.84 80.45 111.98
  Z
  M 47.07 112.70
  Q 46.44 111.27 44.98 111.01
  A 1.28 1.21 -55.6 0 0 44.06 111.21
  C 39.52 114.33 45.75 120.74 47.72 123.81
  A 0.33 0.33 45.9 0 0 48.27 123.82
  C 51.02 119.90 56.53 113.73 51.73 111.16
  A 0.94 0.75 38.5 0 0 50.82 111.16
  L 48.28 112.95
  A 0.84 0.75 -30.1 0 1 47.07 112.70
  Z
  M 79.07 112.70
  Q 78.46 111.26 76.93 111.00
  A 1.27 1.08 -55.3 0 0 76.03 111.24
  C 71.62 114.51 77.70 120.62 79.72 123.82
  A 0.33 0.32 45.5 0 0 80.26 123.83
  C 82.24 120.88 88.72 113.99 83.72 111.16
  A 0.93 0.77 40.2 0 0 82.82 111.15
  L 80.27 112.96
  A 0.83 0.75 -29.7 0 1 79.07 112.70
  Z
  M 97.43 132.45
  Q 99.83 123.33 107.12 129.44
  A 0.75 0.56 44.9 0 0 107.94 129.56
  L 109.53 128.34
  A 0.60 0.51 53.6 0 0 109.58 127.56
  C 106.00 122.68 98.61 121.64 95.68 127.70
  Q 91.53 136.26 95.05 145.15
  C 100.37 158.55 117.34 145.38 108.64 134.89
  Q 104.62 130.05 97.77 132.75
  Q 97.31 132.93 97.43 132.45
  Z"
/>
<path fill="#f2f4f5" fill-opacity="0.973" d="
  M 15.46 16.75
  C 14.86 18.66 14.00 20.11 14.00 22.17
  Q 14.18 84.84 13.76 147.50
  Q 13.30 85.12 13.45 22.75
  Q 13.46 19.38 15.46 16.75
  Z"
/>
<path fill="#2d261b" d="
  M 30.22 35.25
  Q 23.23 37.92 19.30 33.05
  C 10.07 21.58 29.49 9.12 33.67 24.23
  Q 35.71 31.60 33.06 38.82
  C 30.58 45.58 22.86 46.40 18.59 40.71
  A 0.88 0.78 41.4 0 1 18.48 39.85
  Q 18.97 38.82 20.04 38.38
  A 0.89 0.77 52.3 0 1 20.89 38.55
  Q 28.17 44.64 30.57 35.55
  Q 30.69 35.07 30.22 35.25
  Z
  M 26.1770 32.7492
  A 5.94 5.07 85.2 0 0 30.7322 26.4058
  A 5.94 5.07 85.2 0 0 25.1830 20.9108
  A 5.94 5.07 85.2 0 0 20.6278 27.2542
  A 5.94 5.07 85.2 0 0 26.1770 32.7492
  Z"
/>
<ellipse fill="#ffffff" cx="0.00" cy="0.00" transform="translate(25.68,26.83) rotate(85.2)" rx="5.94" ry="5.07"/>
<path fill="#2d261b" d="
  M 48.48 55.12
  A 0.45 0.45 -37.1 0 0 47.81 55.03
  Q 42.47 59.71 42.35 52.68
  A 1.67 1.41 -32.6 0 1 42.63 51.78
  L 47.72 44.18
  A 0.34 0.32 45.3 0 1 48.26 44.20
  L 53.16 51.39
  Q 54.80 53.81 52.96 55.95
  Q 50.66 58.62 48.48 55.12
  Z"
/>
<path fill="#2d261b" d="
  M 75.85 56.71
  C 71.84 53.13 77.59 47.48 79.71 44.19
  A 0.33 0.32 -45.5 0 1 80.25 44.18
  L 85.19 51.56
  Q 86.98 54.22 84.93 56.15
  C 81.37 59.52 81.09 52.22 78.34 56.38
  A 1.66 1.65 -52.4 0 1 75.85 56.71
  Z"
/>
<path fill="#2d261b" d="
  M 32.33 60.99
  Q 31.44 64.75 28.19 63.24
  A 1.61 0.91 76.5 0 1 27.55 62.55
  Q 27.10 61.72 26.21 61.36
  A 0.88 0.72 -54.0 0 0 25.38 61.58
  L 23.55 63.33
  A 1.03 0.98 27.4 0 1 22.68 63.58
  C 14.79 62.09 23.86 51.83 25.68 48.99
  A 0.33 0.31 44.5 0 1 26.21 49.00
  L 31.42 56.64
  Q 32.86 58.74 32.33 60.99
  Z"
/>
<path fill="#2d261b" d="
  M 65.00 66.46
  Q 63.84 64.64 62.75 66.71
  Q 60.10 68.67 58.78 66.31
  Q 57.54 64.09 58.91 62.09
  L 63.69 55.12
  A 0.36 0.35 -45.2 0 1 64.28 55.11
  L 69.39 62.65
  A 3.05 2.77 -53.1 0 1 69.64 65.36
  Q 68.12 69.27 65.00 66.46
  Z"
/>
<path fill="#2d261b" d="
  M 47.70 55.92
  Q 48.13 54.94 48.52 56.05
  L 49.50 58.75
  A 0.41 0.37 73.6 0 1 49.24 59.28
  Q 47.75 59.63 46.79 59.39
  A 0.47 0.46 18.5 0 1 46.46 58.75
  L 47.70 55.92
  Z"
/>
<path fill="#2d261b" d="
  M 79.65 56.24
  Q 80.23 55.34 80.57 56.32
  L 81.45 58.79
  A 0.47 0.47 73.7 0 1 81.12 59.40
  Q 76.89 60.47 79.65 56.24
  Z"
/>
<path fill="#2d261b" d="
  M 25.19 62.92
  Q 25.82 60.77 26.56 62.82
  L 27.65 65.82
  A 0.45 0.44 -16.3 0 1 27.32 66.41
  Q 25.97 66.69 24.69 66.42
  A 0.49 0.46 -76.2 0 1 24.35 65.82
  L 25.19 62.92
  Z"
/>
<path fill="#2d261b" d="
  M 49.00 76.96
  Q 47.31 75.17 46.75 77.46
  Q 43.53 79.71 42.44 76.24
  C 41.51 73.29 45.37 69.22 47.64 65.70
  A 0.34 0.33 -46.7 0 1 48.20 65.68
  L 53.10 72.78
  Q 54.21 74.39 53.59 76.29
  Q 52.31 80.15 49.00 76.96
  Z"
/>
<path fill="#2d261b" d="
  M 81.00 76.96
  Q 79.31 75.17 78.75 77.46
  Q 75.53 79.71 74.44 76.24
  C 73.52 73.33 77.89 68.31 79.63 65.69
  A 0.35 0.34 -45.2 0 1 80.20 65.68
  L 85.14 72.86
  Q 86.21 74.41 85.60 76.26
  Q 84.31 80.15 81.00 76.96
  Z"
/>
<path fill="#c2c0bb" d="
  M 65.00 66.46
  L 64.46 66.75
  Q 63.61 66.26 63.29 67.25
  L 62.75 66.71
  Q 63.84 64.64 65.00 66.46
  Z"
/>
<path fill="#2d261b" d="
  M 64.46 66.75
  Q 67.10 71.13 62.79 69.73
  A 0.47 0.39 -69.8 0 1 62.58 69.14
  L 63.29 67.25
  Q 63.61 66.26 64.46 66.75
  Z"
/>
<path fill="#c2c0bb" d="
  M 49.00 76.96
  L 48.50 77.29
  Q 47.65 76.86 47.21 77.75
  L 46.75 77.46
  Q 47.31 75.17 49.00 76.96
  Z"
/>
<path fill="#c2c0bb" d="
  M 81.00 76.96
  L 80.50 77.29
  Q 79.61 76.74 79.21 77.75
  L 78.75 77.46
  Q 79.31 75.17 81.00 76.96
  Z"
/>
<path fill="#2d261b" d="
  M 48.50 77.29
  Q 51.16 81.66 46.74 80.63
  A 0.39 0.38 -68.3 0 1 46.51 80.07
  Q 47.10 78.99 47.21 77.75
  Q 47.65 76.86 48.50 77.29
  Z"
/>
<path fill="#2d261b" d="
  M 80.50 77.29
  Q 83.16 81.66 78.74 80.63
  A 0.39 0.38 -68.3 0 1 78.51 80.07
  Q 79.10 78.99 79.21 77.75
  Q 79.61 76.74 80.50 77.29
  Z"
/>
<path fill="#2d261b" d="
  M 48.71 90.50
  Q 47.77 91.50 47.29 90.25
  Q 44.99 86.17 49.27 87.36
  A 0.49 0.40 -73.4 0 1 49.52 87.95
  L 48.71 90.50
  Z"
/>
<path fill="#2d261b" d="
  M 80.75 90.46
  Q 79.89 91.37 79.29 90.25
  Q 76.99 86.17 81.27 87.36
  A 0.48 0.40 -73.8 0 1 81.52 87.94
  L 80.75 90.46
  Z"
/>
<path fill="#2d261b" d="
  M 46.75 90.54
  Q 47.82 92.82 49.25 90.79
  Q 50.98 88.83 52.92 90.59
  Q 55.03 92.50 53.20 95.20
  L 48.41 102.28
  A 0.35 0.35 -47.6 0 1 47.84 102.31
  C 46.09 100.11 41.63 94.66 42.42 91.75
  Q 43.24 88.72 46.75 90.54
  Z"
/>
<path fill="#2d261b" d="
  M 78.75 90.54
  Q 80.05 92.89 81.50 90.54
  C 83.85 88.22 86.13 91.41 85.70 93.69
  C 85.25 96.10 81.82 100.06 80.41 102.28
  A 0.36 0.35 41.4 0 1 79.83 102.31
  C 78.09 100.11 73.63 94.66 74.42 91.75
  Q 75.24 88.72 78.75 90.54
  Z"
/>
<path fill="#c2c0bb" d="
  M 47.29 90.25
  Q 47.77 91.50 48.71 90.50
  L 49.25 90.79
  Q 47.82 92.82 46.75 90.54
  L 47.29 90.25
  Z"
/>
<path fill="#c2c0bb" d="
  M 79.29 90.25
  Q 79.89 91.37 80.75 90.46
  L 81.50 90.54
  Q 80.05 92.89 78.75 90.54
  L 79.29 90.25
  Z"
/>
<path fill="#2d261b" d="
  M 102.56 104.83
  Q 102.07 106.12 101.64 104.91
  L 100.34 101.18
  A 0.46 0.45 -15.7 0 1 100.68 100.59
  Q 102.23 100.27 103.71 100.63
  A 0.43 0.37 -71.9 0 1 103.94 101.19
  L 102.56 104.83
  Z"
/>
<path fill="#2d261b" d="
  M 102.76 105.47
  C 104.43 101.19 110.12 104.36 108.08 109.37
  Q 107.44 110.92 102.29 117.88
  A 0.36 0.35 45.5 0 1 101.71 117.87
  C 99.82 115.17 94.55 109.08 95.61 105.84
  C 96.63 102.73 99.71 102.70 101.22 105.56
  Q 102.09 107.20 102.76 105.47
  Z"
/>
<path fill="#2d261b" d="
  M 49.58 109.11
  L 48.42 112.15
  A 0.43 0.43 -44.9 0 1 47.61 112.14
  L 46.56 109.05
  A 0.43 0.43 79.5 0 1 46.97 108.48
  L 49.18 108.52
  A 0.43 0.43 9.9 0 1 49.58 109.11
  Z"
/>
<path fill="#2d261b" d="
  M 80.45 111.98
  Q 79.86 112.84 79.55 111.90
  L 78.66 109.20
  A 0.49 0.46 -15.4 0 1 79.03 108.60
  Q 83.38 107.67 80.45 111.98
  Z"
/>
<path fill="#2d261b" d="
  M 47.07 112.70
  A 0.84 0.75 -30.1 0 0 48.28 112.95
  L 50.82 111.16
  A 0.94 0.75 38.5 0 1 51.73 111.16
  C 56.53 113.73 51.02 119.90 48.27 123.82
  A 0.33 0.33 45.9 0 1 47.72 123.81
  C 45.75 120.74 39.52 114.33 44.06 111.21
  A 1.28 1.21 -55.6 0 1 44.98 111.01
  Q 46.44 111.27 47.07 112.70
  Z"
/>
<path fill="#2d261b" d="
  M 79.07 112.70
  A 0.83 0.75 -29.7 0 0 80.27 112.96
  L 82.82 111.15
  A 0.93 0.77 40.2 0 1 83.72 111.16
  C 88.72 113.99 82.24 120.88 80.26 123.83
  A 0.33 0.32 45.5 0 1 79.72 123.82
  C 77.70 120.62 71.62 114.51 76.03 111.24
  A 1.27 1.08 -55.3 0 1 76.93 111.00
  Q 78.46 111.26 79.07 112.70
  Z"
/>
<path fill="#2d261b" d="
  M 97.77 132.75
  Q 104.62 130.05 108.64 134.89
  C 117.34 145.38 100.37 158.55 95.05 145.15
  Q 91.53 136.26 95.68 127.70
  C 98.61 121.64 106.00 122.68 109.58 127.56
  A 0.60 0.51 53.6 0 1 109.53 128.34
  L 107.94 129.56
  A 0.75 0.56 44.9 0 1 107.12 129.44
  Q 99.83 123.33 97.43 132.45
  Q 97.31 132.93 97.77 132.75
  Z
  M 102.8480 147.1065
  A 5.94 5.07 84.9 0 0 107.3699 140.7393
  A 5.94 5.07 84.9 0 0 101.7920 135.2735
  A 5.94 5.07 84.9 0 0 97.2701 141.6407
  A 5.94 5.07 84.9 0 0 102.8480 147.1065
  Z"
/>
<ellipse fill="#ffffff" cx="0.00" cy="0.00" transform="translate(102.32,141.19) rotate(84.9)" rx="5.94" ry="5.07"/>
<path fill="#010001" fill-opacity="0.094" d="
  M 98.75 155.50
  Q 101.47 155.59 104.19 155.69
  Q 101.47 155.59 98.75 155.50
  Z"
/>
</svg>
