<?xml version="1.0" encoding="UTF-8" standalone="no"?>
<svg xmlns="http://www.w3.org/2000/svg" version="1.2" baseProfile="tiny" viewBox="0 0 128 168">
<g stroke-width="0.00" fill="none" stroke-linecap="butt">
<path stroke="#dadada" stroke-opacity="0.588" vector-effect="non-scaling-stroke" d="
  M 17.00 152.96
  Q 19.92 155.35 23.75 155.33
  Q 61.30 155.16 98.85 155.35
  C 109.45 155.40 114.54 154.44 114.52 142.24
  Q 114.45 108.23 114.54 74.25"
/>
<path stroke="#dadada" stroke-opacity="0.588" vector-effect="non-scaling-stroke" d="
  M 114.46 46.50
  Q 114.52 35.49 114.51 24.48
  C 114.49 15.37 110.64 12.76 101.61 12.75
  Q 63.27 12.73 24.93 12.77
  C 19.32 12.77 16.09 14.28 13.81 19.24"
/>
<path stroke="#f9f7f6" stroke-opacity="0.949" vector-effect="non-scaling-stroke" d="
  M 114.46 46.50
  Q 113.87 60.38 114.54 74.25"
/>
<path stroke="#f9fafa" stroke-opacity="0.988" vector-effect="non-scaling-stroke" d="
  M 17.00 152.96
  Q 14.00 148.77 14.00 147.25
  Q 14.14 83.25 13.81 19.24"
/>
<path stroke="#96938d" vector-effect="non-scaling-stroke" d="
  M 30.44 40.46
  L 21.54 40.34
  A 0.38 0.37 -79.3 0 1 21.20 39.83
  C 23.74 32.70 36.53 29.53 34.17 22.21
  C 31.57 14.14 14.87 15.60 17.52 25.61
  A 0.70 0.69 84.2 0 0 18.15 26.13
  Q 21.11 26.28 20.78 23.22
  A 1.27 0.99 67.3 0 1 21.02 22.35
  C 24.56 18.22 36.90 21.24 27.13 28.60
  C 21.71 32.69 17.05 35.76 17.21 43.25
  A 0.74 0.72 89.2 0 0 17.93 43.97
  L 33.85 43.93
  A 0.55 0.51 0.5 0 0 34.40 43.43
  L 34.44 37.81
  A 0.75 0.69 9.9 0 0 33.92 37.14
  Q 30.23 35.96 30.85 39.95
  A 0.44 0.41 85.9 0 1 30.44 40.46"
/>
<path stroke="#96938d" vector-effect="non-scaling-stroke" d="
  M 64.83 55.45
  Q 65.33 56.78 67.05 57.01
  A 1.42 1.38 -57.5 0 0 67.98 56.79
  C 72.49 53.84 66.20 47.12 64.24 44.19
  A 0.33 0.32 -44.3 0 0 63.70 44.19
  L 58.96 51.15
  Q 57.33 53.55 58.89 55.80
  Q 60.88 58.66 63.27 55.25
  Q 64.24 53.86 64.83 55.45"
/>
<path stroke="#96938d" vector-effect="non-scaling-stroke" d="
  M 25.31 61.31
  Q 26.11 59.85 27.10 61.92
  C 29.36 66.64 34.64 61.76 31.24 56.54
  Q 28.82 52.83 26.24 49.14
  A 0.34 0.33 44.3 0 0 25.68 49.14
  Q 23.01 53.11 20.27 57.01
  C 17.50 60.95 22.20 67.02 25.31 61.31"
/>
<path stroke="#96938d" vector-effect="non-scaling-stroke" d="
  M 63.79 55.80
  Q 60.40 60.49 65.15 59.36
  A 0.46 0.43 73.9 0 0 65.45 58.77
  L 64.49 55.93
  Q 64.24 55.18 63.79 55.80"
/>
<path stroke="#96938d" vector-effect="non-scaling-stroke" d="
  M 25.19 62.92
  L 24.35 65.82
  A 0.49 0.46 -76.2 0 0 24.69 66.42
  Q 25.97 66.69 27.32 66.41
  A 0.45 0.44 -16.3 0 0 27.65 65.82
  L 26.56 62.82
  Q 25.82 60.77 25.19 62.92"
/>
<path stroke="#96938d" vector-effect="non-scaling-stroke" d="
  M 102.56 104.83
  L 103.94 101.19
  A 0.43 0.37 -71.9 0 0 103.71 100.63
  Q 102.23 100.27 100.68 100.59
  A 0.46 0.45 -15.7 0 0 100.34 101.18
  L 101.64 104.91
  Q 102.07 106.12 102.56 104.83"
/>
<path stroke="#96938d" vector-effect="non-scaling-stroke" d="
  M 106.30 103.68
  Q 104.48 102.77 103.72 104.66
  Q 103.38 105.51 102.01 105.93
  A 0.61 0.57 67.9 0 1 101.32 105.61
  Q 99.93 102.85 97.03 103.83
  A 1.41 1.32 4.1 0 0 96.29 104.43
  C 93.75 108.71 99.25 114.36 101.71 117.87
  A 0.37 0.36 -44.6 0 0 102.30 117.87
  C 104.57 114.81 112.06 106.57 106.30 103.68"
/>
<path stroke="#96938d" vector-effect="non-scaling-stroke" d="
  M 65.58 109.11
  A 0.43 0.43 -79.5 0 0 65.19 108.53
  L 62.98 108.48
  A 0.43 0.43 -7.0 0 0 62.56 109.05
  L 63.60 112.13
  A 0.43 0.43 48.1 0 0 64.41 112.15
  L 65.58 109.11"
/>
<path stroke="#96938d" vector-effect="non-scaling-stroke" d="
  M 63.06 112.69
  Q 61.15 109.51 58.80 112.34
  Q 57.31 114.14 58.61 116.09
  L 63.75 123.80
  A 0.33 0.33 44.7 0 0 64.30 123.80
  Q 66.47 120.37 68.71 117.00
  C 71.19 113.26 67.52 108.53 65.00 112.51
  A 1.22 1.06 -46.4 0 1 63.06 112.69"
/>
<path stroke="#96938d" vector-effect="non-scaling-stroke" d="
  M 106.80 128.04
  C 104.64 134.98 89.25 139.68 94.65 147.37
  C 99.02 153.59 113.21 151.52 110.39 142.26
  A 0.59 0.47 72.1 0 0 109.74 141.83
  L 107.67 142.55
  A 0.82 0.57 80.5 0 0 107.30 143.33
  C 107.92 150.97 92.45 147.14 98.30 141.53
  C 103.46 136.58 110.96 134.20 110.66 124.62
  A 0.54 0.52 88.9 0 0 110.14 124.10
  L 94.15 124.08
  A 0.54 0.53 0.5 0 0 93.61 124.60
  L 93.49 130.05
  A 0.76 0.75 12.1 0 0 93.96 130.76
  Q 97.68 132.32 97.06 128.21
  A 0.46 0.43 84.8 0 1 97.47 127.68
  L 106.43 127.54
  A 0.38 0.38 -81.8 0 1 106.80 128.04"
/>
</g>
<path fill="#010001" fill-opacity="0.094" d="
  M 19.72 159.85
  Q 18.43 160.05 17.78 159.13
  A 0.83 0.73 66.5 0 0 17.05 158.79
  Q 14.82 159.10 13.93 157.28
  Q 13.69 156.79 13.35 156.50
  Q 10.09 153.67 9.05 149.57
  A 1.21 0.21 41.3 0 0 8.49 148.87
  C 8.05 148.44 8.26 145.62 7.52 144.36
  A 1.99 1.63 34.9 0 1 7.26 143.44
  Q 7.23 95.03 7.26 46.62
  Q 7.26 46.25 7.81 42.59
  C 8.13 40.39 7.24 38.77 7.24 36.82
  C 7.25 34.82 6.80 24.66 7.82 23.72
  A 1.25 0.92 -27.6 0 0 8.21 22.92
  Q 8.16 19.39 9.24 15.97
  Q 9.72 14.46 11.00 13.23
  L 15.19 9.18
  A 1.87 0.97 -58.9 0 1 15.99 8.69
  Q 17.45 8.36 18.65 7.48
  A 1.70 1.54 -61.9 0 1 19.54 7.16
  C 22.28 7.05 24.71 6.03 27.28 6.02
  Q 66.23 5.96 105.18 6.06
  A 1.39 1.14 61.8 0 1 106.03 6.41
  Q 107.30 7.55 109.04 7.53
  A 0.37 0.36 -84.3 0 1 109.40 7.98
  Q 109.10 9.40 110.45 9.53
  Q 113.71 9.85 114.17 10.50
  Q 120.12 18.81 119.80 28.62
  C 119.63 33.81 119.95 37.65 119.89 42.20
  Q 119.89 42.41 119.42 44.91
  C 119.18 46.20 119.72 47.44 119.67 48.71
  Q 119.45 55.10 119.44 61.50
  Q 119.38 100.99 119.60 140.48
  Q 119.61 141.01 119.28 144.00
  Q 119.09 145.79 119.49 147.59
  A 0.96 0.85 -31.5 0 1 119.24 148.41
  Q 118.34 149.38 118.47 150.74
  A 1.03 0.96 67.2 0 1 118.17 151.55
  Q 116.91 152.71 116.42 154.28
  A 0.66 0.66 -82.1 0 1 115.80 154.75
  L 115.52 154.76
  A 0.55 0.45 -71.4 0 0 115.10 155.02
  Q 111.60 160.33 105.08 159.78
  A 0.88 0.75 -68.3 0 0 104.34 160.17
  C 103.64 161.22 72.22 160.74 68.48 160.73
  A 1.89 1.10 -48.6 0 0 67.58 161.03
  Q 66.63 161.62 65.60 161.03
  Q 65.12 160.76 64.69 160.76
  L 20.51 160.69
  A 0.52 0.51 -3.8 0 1 20.00 160.25
  L 19.97 160.03
  A 0.22 0.21 -7.9 0 0 19.72 159.85
  Z
  M 12.97 153.82
  Q 13.17 155.48 14.68 155.75
  A 0.69 0.57 88.4 0 1 15.16 156.30
  Q 15.26 156.88 16.01 156.73
  Q 20.89 159.57 24.31 159.69
  Q 30.73 159.91 62.75 159.71
  C 75.55 159.63 88.39 159.76 101.22 159.74
  C 102.90 159.74 110.82 157.92 111.00 156.50
  A 0.91 0.75 85.3 0 1 111.47 155.82
  C 117.89 153.09 118.00 144.69 118.00 138.60
  Q 117.99 81.98 118.03 25.37
  C 118.04 22.11 117.53 16.67 114.24 14.94
  A 1.35 1.23 -88.6 0 1 113.64 14.25
  Q 112.98 12.57 111.31 12.06
  A 1.66 1.58 77.4 0 1 110.52 11.53
  C 109.02 9.71 106.10 10.71 105.60 9.72
  A 0.84 0.67 74.3 0 0 104.94 9.25
  Q 65.59 9.25 26.24 9.25
  C 21.94 9.25 18.68 10.84 14.87 12.46
  A 1.01 0.83 86.9 0 0 14.36 13.16
  Q 14.14 14.28 13.04 14.51
  A 1.36 0.62 -2.9 0 0 12.21 14.94
  Q 11.92 15.38 11.93 15.96
  A 0.55 0.55 85.0 0 1 11.48 16.50
  Q 10.65 16.64 10.80 17.28
  A 0.88 0.68 65.3 0 1 10.62 18.06
  C 9.33 19.24 9.45 27.63 9.46 29.50
  Q 9.70 86.00 8.99 142.50
  Q 8.92 147.77 12.64 152.92
  Q 12.90 153.27 12.97 153.82
  Z"
/>
<path fill="#010202" fill-opacity="0.173" d="
  M 12.64 152.92
  Q 8.92 147.77 8.99 142.50
  Q 9.70 86.00 9.46 29.50
  C 9.45 27.63 9.33 19.24 10.62 18.06
  A 0.88 0.68 65.3 0 0 10.80 17.28
  Q 10.65 16.64 11.48 16.50
  A 0.55 0.55 85.0 0 0 11.93 15.96
  Q 11.92 15.38 12.21 14.94
  A 1.36 0.62 -2.9 0 1 13.04 14.51
  Q 14.14 14.28 14.36 13.16
  A 1.01 0.83 86.9 0 1 14.87 12.46
  C 18.68 10.84 21.94 9.25 26.24 9.25
  Q 65.59 9.25 104.94 9.25
  A 0.84 0.67 74.3 0 1 105.60 9.72
  C 106.10 10.71 109.02 9.71 110.52 11.53
  A 1.66 1.58 77.4 0 0 111.31 12.06
  Q 112.98 12.57 113.64 14.25
  A 1.35 1.23 -88.6 0 0 114.24 14.94
  C 117.53 16.67 118.04 22.11 118.03 25.37
  Q 117.99 81.98 118.00 138.60
  C 118.00 144.69 117.89 153.09 111.47 155.82
  A 0.91 0.75 85.3 0 0 111.00 156.50
  C 110.82 157.92 102.90 159.74 101.22 159.74
  C 88.39 159.76 75.55 159.63 62.75 159.71
  Q 30.73 159.91 24.31 159.69
  Q 20.89 159.57 16.01 156.73
  Q 15.26 156.88 15.16 156.30
  A 0.69 0.57 88.4 0 0 14.68 155.75
  Q 13.17 155.48 12.97 153.82
  Q 12.90 153.27 12.64 152.92
  Z
  M 13.81 19.24
  Q 13.03 108.89 13.52 146.69
  Q 13.56 150.05 17.00 152.96
  Q 19.92 155.35 23.75 155.33
  Q 61.30 155.16 98.85 155.35
  C 109.45 155.40 114.54 154.44 114.52 142.24
  Q 114.45 108.23 114.54 74.25
  Q 115.05 60.37 114.46 46.50
  Q 114.52 35.49 114.51 24.48
  C 114.49 15.37 110.64 12.76 101.61 12.75
  Q 63.27 12.73 24.93 12.77
  C 19.32 12.77 16.09 14.28 13.81 19.24
  Z
  M 115.01 118.67
  A 0.12 0.12 0.0 0 0 114.89 118.55
  L 114.87 118.55
  A 0.12 0.12 0.0 0 0 114.75 118.67
  L 114.75 145.83
  A 0.12 0.12 0.0 0 0 114.87 145.95
  L 114.89 145.95
  A 0.12 0.12 0.0 0 0 115.01 145.83
  L 115.01 118.67
  Z"
/>
<path fill="#ffffff" d="
  M 114.46 46.50
  Q 113.87 60.38 114.54 74.25
  Q 114.45 108.23 114.52 142.24
  C 114.54 154.44 109.45 155.40 98.85 155.35
  Q 61.30 155.16 23.75 155.33
  Q 19.92 155.35 17.00 152.96
  Q 14.00 148.77 14.00 147.25
  Q 14.14 83.25 13.81 19.24
  C 16.09 14.28 19.32 12.77 24.93 12.77
  Q 63.27 12.73 101.61 12.75
  C 110.64 12.76 114.49 15.37 114.51 24.48
  Q 114.52 35.49 114.46 46.50
  Z
  M 30.44 40.46
  L 21.54 40.34
  A 0.38 0.37 -79.3 0 1 21.20 39.83
  C 23.74 32.70 36.53 29.53 34.17 22.21
  C 31.57 14.14 14.87 15.60 17.52 25.61
  A 0.70 0.69 84.2 0 0 18.15 26.13
  Q 21.11 26.28 20.78 23.22
  A 1.27 0.99 67.3 0 1 21.02 22.35
  C 24.56 18.22 36.90 21.24 27.13 28.60
  C 21.71 32.69 17.05 35.76 17.21 43.25
  A 0.74 0.72 89.2 0 0 17.93 43.97
  L 33.85 43.93
  A 0.55 0.51 0.5 0 0 34.40 43.43
  L 34.44 37.81
  A 0.75 0.69 9.9 0 0 33.92 37.14
  Q 30.23 35.96 30.85 39.95
  A 0.44 0.41 85.9 0 1 30.44 40.46
  Z
  M 64.83 55.45
  Q 65.33 56.78 67.05 57.01
  A 1.42 1.38 -57.5 0 0 67.98 56.79
  C 72.49 53.84 66.20 47.12 64.24 44.19
  A 0.33 0.32 -44.3 0 0 63.70 44.19
  L 58.96 51.15
  Q 57.33 53.55 58.89 55.80
  Q 60.88 58.66 63.27 55.25
  Q 64.24 53.86 64.83 55.45
  Z
  M 25.31 61.31
  Q 26.11 59.85 27.10 61.92
  C 29.36 66.64 34.64 61.76 31.24 56.54
  Q 28.82 52.83 26.24 49.14
  A 0.34 0.33 44.3 0 0 25.68 49.14
  Q 23.01 53.11 20.27 57.01
  C 17.50 60.95 22.20 67.02 25.31 61.31
  Z
  M 63.79 55.80
  Q 60.40 60.49 65.15 59.36
  A 0.46 0.43 73.9 0 0 65.45 58.77
  L 64.49 55.93
  Q 64.24 55.18 63.79 55.80
  Z
  M 25.19 62.92
  L 24.35 65.82
  A 0.49 0.46 -76.2 0 0 24.69 66.42
  Q 25.97 66.69 27.32 66.41
  A 0.45 0.44 -16.3 0 0 27.65 65.82
  L 26.56 62.82
  Q 25.82 60.77 25.19 62.92
  Z
  M 102.56 104.83
  L 103.94 101.19
  A 0.43 0.37 -71.9 0 0 103.71 100.63
  Q 102.23 100.27 100.68 100.59
  A 0.46 0.45 -15.7 0 0 100.34 101.18
  L 101.64 104.91
  Q 102.07 106.12 102.56 104.83
  Z
  M 106.30 103.68
  Q 104.48 102.77 103.72 104.66
  Q 103.38 105.51 102.01 105.93
  A 0.61 0.57 67.9 0 1 101.32 105.61
  Q 99.93 102.85 97.03 103.83
  A 1.41 1.32 4.1 0 0 96.29 104.43
  C 93.75 108.71 99.25 114.36 101.71 117.87
  A 0.37 0.36 -44.6 0 0 102.30 117.87
  C 104.57 114.81 112.06 106.57 106.30 103.68
  Z
  M 65.58 109.11
  A 0.43 0.43 -79.5 0 0 65.19 108.53
  L 62.98 108.48
  A 0.43 0.43 -7.0 0 0 62.56 109.05
  L 63.60 112.13
  A 0.43 0.43 48.1 0 0 64.41 112.15
  L 65.58 109.11
  Z
  M 63.06 112.69
  Q 61.15 109.51 58.80 112.34
  Q 57.31 114.14 58.61 116.09
  L 63.75 123.80
  A 0.33 0.33 44.7 0 0 64.30 123.80
  Q 66.47 120.37 68.71 117.00
  C 71.19 113.26 67.52 108.53 65.00 112.51
  A 1.22 1.06 -46.4 0 1 63.06 112.69
  Z
  M 106.80 128.04
  C 104.64 134.98 89.25 139.68 94.65 147.37
  C 99.02 153.59 113.21 151.52 110.39 142.26
  A 0.59 0.47 72.1 0 0 109.74 141.83
  L 107.67 142.55
  A 0.82 0.57 80.5 0 0 107.30 143.33
  C 107.92 150.97 92.45 147.14 98.30 141.53
  C 103.46 136.58 110.96 134.20 110.66 124.62
  A 0.54 0.52 88.9 0 0 110.14 124.10
  L 94.15 124.08
  A 0.54 0.53 0.5 0 0 93.61 124.60
  L 93.49 130.05
  A 0.76 0.75 12.1 0 0 93.96 130.76
  Q 97.68 132.32 97.06 128.21
  A 0.46 0.43 84.8 0 1 97.47 127.68
  L 106.43 127.54
  A 0.38 0.38 -81.8 0 1 106.80 128.04
  Z"
/>
<path fill="#2d261b" d="
  M 30.85 39.95
  Q 30.23 35.96 33.92 37.14
  A 0.75 0.69 9.9 0 1 34.44 37.81
  L 34.40 43.43
  A 0.55 0.51 0.5 0 1 33.85 43.93
  L 17.93 43.97
  A 0.74 0.72 89.2 0 1 17.21 43.25
  C 17.05 35.76 21.71 32.69 27.13 28.60
  C 36.90 21.24 24.56 18.22 21.02 22.35
  A 1.27 0.99 67.3 0 0 20.78 23.22
  Q 21.11 26.28 18.15 26.13
  A 0.70 0.69 84.2 0 1 17.52 25.61
  C 14.87 15.60 31.57 14.14 34.17 22.21
  C 36.53 29.53 23.74 32.70 21.20 39.83
  A 0.38 0.37 -79.3 0 0 21.54 40.34
  L 30.44 40.46
  A 0.44 0.41 85.9 0 0 30.85 39.95
  Z"
/>
<path fill="#f2f4f5" fill-opacity="0.973" d="
  M 13.81 19.24
  Q 14.14 83.25 14.00 147.25
  Q 14.00 148.77 17.00 152.96
  Q 13.56 150.05 13.52 146.69
  Q 13.03 108.89 13.81 19.24
  Z"
/>
<path fill="#2d261b" d="
  M 64.83 55.45
  Q 64.24 53.86 63.27 55.25
  Q 60.88 58.66 58.89 55.80
  Q 57.33 53.55 58.96 51.15
  L 63.70 44.19
  A 0.33 0.32 -44.3 0 1 64.24 44.19
  C 66.20 47.12 72.49 53.84 67.98 56.79
  A 1.42 1.38 -57.5 0 1 67.05 57.01
  Q 65.33 56.78 64.83 55.45
  Z"
/>
<path fill="#f3efed" fill-opacity="0.898" d="
  M 114.46 46.50
  Q 115.05 60.37 114.54 74.25
  Q 113.87 60.38 114.46 46.50
  Z"
/>
<path fill="#2d261b" d="
  M 25.31 61.31
  C 22.20 67.02 17.50 60.95 20.27 57.01
  Q 23.01 53.11 25.68 49.14
  A 0.34 0.33 44.3 0 1 26.24 49.14
  Q 28.82 52.83 31.24 56.54
  C 34.64 61.76 29.36 66.64 27.10 61.92
  Q 26.11 59.85 25.31 61.31
  Z"
/>
<path fill="#2d261b" d="
  M 63.79 55.80
  Q 64.24 55.18 64.49 55.93
  L 65.45 58.77
  A 0.46 0.43 73.9 0 1 65.15 59.36
  Q 60.40 60.49 63.79 55.80
  Z"
/>
<path fill="#2d261b" d="
  M 25.19 62.92
  Q 25.82 60.77 26.56 62.82
  L 27.65 65.82
  A 0.45 0.44 -16.3 0 1 27.32 66.41
  Q 25.97 66.69 24.69 66.42
  A 0.49 0.46 -76.2 0 1 24.35 65.82
  L 25.19 62.92
  Z"
/>
<path fill="#2d261b" d="
  M 102.56 104.83
  Q 102.07 106.12 101.64 104.91
  L 100.34 101.18
  A 0.46 0.45 -15.7 0 1 100.68 100.59
  Q 102.23 100.27 103.71 100.63
  A 0.43 0.37 -71.9 0 1 103.94 101.19
  L 102.56 104.83
  Z"
/>
<path fill="#2d261b" d="
  M 106.30 103.68
  C 112.06 106.57 104.57 114.81 102.30 117.87
  A 0.37 0.36 -44.6 0 1 101.71 117.87
  C 99.25 114.36 93.75 108.71 96.29 104.43
  A 1.41 1.32 4.1 0 1 97.03 103.83
  Q 99.93 102.85 101.32 105.61
  A 0.61 0.57 67.9 0 0 102.01 105.93
  Q 103.38 105.51 103.72 104.66
  Q 104.48 102.77 106.30 103.68
  Z"
/>
<path fill="#2d261b" d="
  M 65.58 109.11
  L 64.41 112.15
  A 0.43 0.43 48.8 0 1 63.60 112.13
  L 62.56 109.05
  A 0.43 0.43 -9.5 0 1 62.98 108.48
  L 65.19 108.53
  A 0.43 0.43 -79.8 0 1 65.58 109.11
  Z"
/>
<path fill="#2d261b" d="
  M 63.06 112.69
  A 1.22 1.06 -46.4 0 0 65.00 112.51
  C 67.52 108.53 71.19 113.26 68.71 117.00
  Q 66.47 120.37 64.30 123.80
  A 0.33 0.33 44.7 0 1 63.75 123.80
  L 58.61 116.09
  Q 57.31 114.14 58.80 112.34
  Q 61.15 109.51 63.06 112.69
  Z"
/>
<rect fill="#010001" fill-opacity="0.094" x="114.75" y="118.55" width="0.26" height="27.40" rx="0.12"/>
<path fill="#2d261b" d="
  M 106.43 127.54
  L 97.47 127.68
  A 0.46 0.43 84.8 0 0 97.06 128.21
  Q 97.68 132.32 93.96 130.76
  A 0.76 0.75 12.1 0 1 93.49 130.05
  L 93.61 124.60
  A 0.54 0.53 0.5 0 1 94.15 124.08
  L 110.14 124.10
  A 0.54 0.52 88.9 0 1 110.66 124.62
  C 110.96 134.20 103.46 136.58 98.30 141.53
  C 92.45 147.14 107.92 150.97 107.30 143.33
  A 0.82 0.57 80.5 0 1 107.67 142.55
  L 109.74 141.83
  A 0.59 0.47 72.1 0 1 110.39 142.26
  C 113.21 151.52 99.02 153.59 94.65 147.37
  C 89.25 139.68 104.64 134.98 106.80 128.04
  A 0.38 0.38 -81.8 0 0 106.43 127.54
  Z"
/>
</svg>
