<?xml version="1.0" encoding="utf-8"?>
<!-- Generator: Adobe Illustrator 27.0.1, SVG Export Plug-In . SVG Version: 6.00 Build 0)  -->
<svg version="1.1" id="Слой_1" xmlns="http://www.w3.org/2000/svg" xmlns:xlink="http://www.w3.org/1999/xlink" x="0px" y="0px"
	 viewBox="0 0 128 168" style="enable-background:new 0 0 128 168;" xml:space="preserve">
<style type="text/css">
	.st0{fill:#D8D8D8;}
	.st1{fill:#AAAAAA;}
	.st2{fill:#FFFFFF;}
	.st3{fill:#2D261B;}
	.st4{fill:#232221;}
	.st5{fill:#7E809C;}
	.st6{fill:#B3181E;}
	.st7{fill:#5B5830;}
	.st8{fill:#D9CA33;}
	.st9{fill:#B4A82A;}
	.st10{fill:#3F456A;}
	.st11{fill:#464821;}
	.st12{fill:#C8BB33;}
	.st13{fill:#15193F;}
	.st14{fill:#2D3260;}
	.st15{fill:#9D922B;}
	.st16{fill:#D4D2D8;}
	.st17{fill:#F2F4F5;fill-opacity:0.973;}
	.st18{fill:#847F48;}
	.st19{fill:#3C3C32;}
	.st20{fill:#89852C;}
	.st21{fill:#8E171C;}
	.st22{fill:#E4D633;}
	.st23{fill:#651D22;}
	.st24{fill:#A01618;}
	.st25{fill:#2D2A4F;}
	.st26{fill:#9090A8;}
	.st27{fill:#050911;}
</style>
<g>
	<path class="st0" d="M108.2,160.9H20.4c-6.9,0-12.4-5.6-12.4-12.4V18c0-6.9,5.6-12.4,12.4-12.4h87.8c6.9,0,12.4,5.6,12.4,12.4
		v130.5C120.6,155.4,115.1,160.9,108.2,160.9z"/>
	<path class="st1" d="M107.2,157.1H21.4c-5.5,0-9.9-4.4-9.9-9.9V19c0-5.5,4.4-9.9,9.9-9.9h85.8c5.5,0,9.9,4.4,9.9,9.9v128.1
		C117.1,152.6,112.7,157.1,107.2,157.1z"/>
	<path class="st2" d="M106.9,154H21.7c-4.4,0-8-3.6-8-8V20.2c0-4.4,3.6-8,8-8h85.2c4.4,0,8,3.6,8,8V146
		C114.8,150.4,111.3,154,106.9,154z"/>
</g>
<g>
	<path class="st3" d="M31.8,21.6c-0.1,4.9,1,15.5-1.1,19.4c-4.1,7.5-14.2,2.7-13.4-5.7c0-0.3,0.3-0.5,0.6-0.5h2.4
		c0.2,0,0.5,0.2,0.5,0.5c0,0,0,0,0,0.1c-0.6,6.7,7.5,7.7,7.5,0.8c0.1-4.9,0-9.7,0-14.6c0-0.2-0.2-0.4-0.5-0.4l0,0
		c-2.4,0.2-3.2-0.9-2.3-3.4c0.1-0.3,0.4-0.5,0.7-0.5h7.7c0.3,0,0.6,0.2,0.7,0.5c0.8,2.3,0.1,3.4-2.1,3.4
		C32,21.1,31.8,21.3,31.8,21.6L31.8,21.6z"/>
	<path class="st4" d="M102.2,24.3l-0.8,0.7l-14.9,0.1c-0.3,0-0.6,0.2-0.8,0.4L80,34l-0.7,0.5c-0.7-1.1-8.1-1.1-9.8-1.2
		c-0.3,0-0.6,0.1-0.7,0.4l-4.7,8.9L64,42v-0.2l3.1-6.5c1-0.6,1.2-1.2,0.7-1.7c-0.3-0.1-0.5-0.1-0.6,0.1L66.8,35h-0.6
		c-0.6-2.4-1-2.4-1.2,0c-0.6-0.2-0.9-0.6-1.1-1.2c-0.2-0.5-0.7-0.7-0.9-0.2c-0.2,0.3-0.5,0.4-0.7,0.4c-1.6,0-1.5,0.9,0.2,2.7L62,37
		c-0.4-0.2-0.8-0.4-0.8-0.9c-0.1-1.1-0.7-1.8-1.7-2.2c-0.3-0.1-0.5,0-0.4,0.3c0.2,0.9,2.1,3.4,1.8,3.7c-0.1,0.3-0.5,0.1-0.7-0.1
		L58,34.4c-0.2-0.3-0.5-0.4-0.7-0.3c-1.4,0.8,3.4,5.3,2.7,6.2c-0.1,0.3-0.5,0-0.7-0.2l-3.4-5.2c-0.1-0.2-0.3-0.3-0.5-0.2
		c-0.4,0.1-0.5,0.5-0.2,1l4.4,7c0.1,0.1,0,0.2-0.1,0.3c0,0,0,0-0.1,0c-1.1,0.2-1.6-0.2-1.5-1.3c0-0.3-0.1-0.6-0.3-0.9l-2.8-4.4
		c-0.1-0.2-0.4-0.3-0.6-0.2l0,0c-0.4,0.4-0.4,0.9,0,1.5c-2.4,2-3.5,4.6-3.2,7.7c0,0.2,0.2,0.5,0.5,0.7l2.3,1.7
		c-1.7,1.4-3.6,6.6-6.2,3.2c-0.2-0.3-0.5-0.5-0.7-0.4c-0.2,0-0.3,0.1-0.5,0.2c-0.5-2.9,2.6-2.2,3.5-4.3c0.1-0.3,0.1-0.6,0.1-1
		c-0.6-2.6,2.7-7.9,4.6-11.4c0.1-0.3,0.1-0.6,0-0.9l-5.2-7.8C49.3,25.2,49,25,48.7,25c-1.1,0-14.6,0.4-13.8-0.7
		c0.2-0.2,0.5-0.4,0.9-0.4C58,24.5,80.2,24,102.2,24.3z M55,25.4c-0.4,0-0.5,0.2-0.3,0.6l1.6,2.8c0.2,0.3,0.4,0.5,0.7,0.6
		c3.3,0.9,4.2-0.1,2.7-3.2c-0.2-0.3-0.4-0.5-0.7-0.5L55,25.4z M82.7,28.1c0.5-0.7,3.1-2.8,0-2.6c-0.3,0-0.6,0.2-0.7,0.5l-2.2,4
		c-0.2,0.3-0.4,0.5-0.7,0.5c-2.1,0.4-4.2,0.3-6.3-0.2c-0.3-0.1-0.5-0.3-0.5-0.6c0-0.8,0.2-1.6,0.5-2.3c1-2.4-1-2.9-1.3-0.4
		c-0.1,0.9-0.3,1.8-0.6,2.8c-0.1,0.3-0.3,0.5-0.6,0.5h-6.4c-0.3,0-0.5-0.2-0.6-0.5l-1-3.7c-0.1-0.3-0.4-0.6-0.6-0.5l0,0
		c-0.6,0.2-0.5,1.4,0.3,3.7c0.2,0.5-0.1,1.1-0.6,1.3c-0.1,0-0.2,0-0.3,0.1L56.5,31c-0.3,0-0.6-0.1-0.8-0.4l-2.5-4.4
		c-0.2-0.3-0.4-0.6-0.7-0.6c-0.4-0.1-0.8-0.1-1.2,0.2c-0.2,0.1-0.3,0.5-0.2,0.7l0,0l4.2,6.2c0.2,0.2,0.5,0.4,0.8,0.3
		c7.4-1.1,14.8-1.2,22.2-0.2c0.3,0,0.6-0.1,0.8-0.3C80.6,31.1,81.7,29.6,82.7,28.1z M70,28.4l0.4-2.3c0-0.4-0.2-0.5-0.5-0.5
		c0,0-6.2,0.1-6.2,0.1c-0.2,0-0.4,0.3-0.4,0.5l0.7,2.6c0.1,0.3,0.4,0.5,0.7,0.5H69C69.5,29.2,70,28.9,70,28.4z M78,29.4
		c0.4-0.1,0.8-0.3,0.9-0.6l1.4-2.8c0.1-0.3-0.1-0.4-0.4-0.4l-5-0.1c-0.3,0-0.6,0.2-0.8,0.4C72.5,28.9,73.8,30,78,29.4z"/>
	<path class="st5" d="M102.2,24.3c0.8,13.8,0.3,27.6,0.5,41.4c0,0.2-0.1,0.7-0.3,1.5l-1.2-0.2l-0.2-0.2c0.6-0.1,0.7-0.4,0.3-0.8
		c-0.2-13.6-0.1-27.3,0.2-40.9L102.2,24.3z"/>
	<path class="st2" d="M101.5,25c-0.3,13.6-0.3,27.3-0.2,40.9c0.4,0.5,0.3,0.8-0.3,0.8l-4.3-2.3c4.7-2.3,3.5-7,1.3-10.6
		c-0.2-0.2-0.1-0.6,0-0.8c2.1-2.6,2-5-0.3-7.4c-0.2-0.2-0.2-0.5-0.1-0.8l2-3.4c0.1-0.2,0.1-0.6-0.1-0.8l-2-3
		c-0.2-0.2-0.1-0.6,0.1-0.8c1.6-1.6,2.1-3.6,1.5-5.9s-1.9-3-4.2-2c-4.5,2-2.2,5.2-0.7,8.2c0.1,0.2,0.1,0.6-0.1,0.8l-1.9,2.7
		c-0.2,0.2-0.1,0.5,0.1,0.8l2,3c0.2,0.2,0.1,0.6-0.1,0.8c-2.1,2.2-2.3,4.6-0.8,7.2c0.1,0.2,0.1,0.5-0.1,0.6l0,0
		c-2.6,1.1-4.5,3-5.7,5.5c-2-1.1-6.2-3.4-8.2-4.5L79,53.5c-0.2-0.3-0.4-0.6-0.3-0.8l1-6.3c0-0.3,0.3-0.5,0.6-0.7
		c1.8-0.8,1.8-2.2,0-4.3c-1-1.2-1.2-2.5-0.7-3.9c0.3-0.7,0.4-2,0.2-3.7l5.8-8.5c0.2-0.3,0.5-0.4,0.8-0.4L101.5,25z"/>
	<path class="st6" d="M55,25.4l4,0.2c0.3,0,0.6,0.2,0.7,0.5c1.6,3.1,0.7,4.2-2.7,3.2c-0.3-0.1-0.6-0.3-0.7-0.6L54.7,26
		C54.5,25.6,54.6,25.4,55,25.4z"/>
	<path class="st6" d="M82.7,28.1c-1,1.5-2.1,3-3.3,4.4c-0.2,0.2-0.5,0.3-0.8,0.3c-7.4-1-14.8-0.9-22.2,0.2c-0.3,0-0.6-0.1-0.8-0.3
		l-4.2-6.2c-0.2-0.2-0.1-0.6,0.1-0.7l0,0c0.4-0.2,0.7-0.3,1.2-0.2c0.2,0.1,0.5,0.3,0.7,0.6l2.5,4.4c0.1,0.3,0.4,0.4,0.8,0.4l4.5-0.3
		c0.6,0,1-0.5,0.9-1.1c0-0.1,0-0.2-0.1-0.3c-0.8-2.3-0.9-3.5-0.3-3.7c0.2-0.1,0.5,0.1,0.6,0.5l0,0l1,3.7c0.1,0.3,0.3,0.5,0.6,0.5
		h6.4c0.3,0,0.5-0.2,0.6-0.5c0.2-1,0.4-1.9,0.6-2.8c0.4-2.5,2.4-2,1.3,0.4c-0.3,0.8-0.5,1.5-0.5,2.3c0,0.3,0.2,0.5,0.5,0.6
		c2.1,0.5,4.2,0.5,6.3,0.2c0.3-0.1,0.6-0.2,0.7-0.5l2.1-3.9c0.1-0.3,0.4-0.5,0.7-0.5C85.8,25.3,83.2,27.4,82.7,28.1z"/>
	<path class="st6" d="M70,28.4c-0.1,0.5-0.5,0.8-1,0.8h-4.3c-0.3,0-0.6-0.2-0.7-0.5l-0.7-2.6c-0.1-0.2,0.2-0.6,0.4-0.5
		c0,0,6.2-0.1,6.2-0.1c0.3,0,0.5,0.2,0.5,0.5c0,0,0,0,0,0.1L70,28.4z"/>
	<path class="st6" d="M78,29.4c-4.2,0.6-5.5-0.6-3.8-3.5c0.2-0.3,0.4-0.4,0.8-0.4l5,0.1c0.3,0,0.3,0.3,0.3,0.5l-1.4,2.8
		C78.8,29.2,78.4,29.4,78,29.4z"/>
	<path class="st7" d="M96.7,64.5c-0.8-0.2-1.4-0.7-1.8-1.5c-0.2-1.1-0.8-2-1.6-2.7c-0.3-0.3-0.5-0.5-0.5-0.8c-0.3-1-0.1-1.9,0.4-2.9
		c0.1-0.3,0.4-0.4,0.8-0.5c2.2-0.4,2.3-1.1,0.5-1.9c-0.3-0.1-0.6-0.1-0.9,0c-2.5,0.9-4.1,2.5-4.8,5.1c-0.6,0.3-0.9,0.2-1-0.5
		c1.2-2.5,3.1-4.4,5.7-5.5c0.2-0.1,0.3-0.4,0.2-0.6l0,0c-1.6-2.6-1.3-5,0.8-7.2c0.2-0.2,0.3-0.6,0.1-0.8l-2-3
		c-0.2-0.3-0.2-0.6-0.1-0.8l1.9-2.7c0.2-0.3,0.2-0.6,0.1-0.8c-1.4-3-3.8-6.2,0.7-8.2c2.2-1,3.6-0.4,4.2,2c0.5,2.3,0,4.2-1.5,5.9
		c-0.2,0.2-0.3,0.6-0.1,0.8l2,3c0.2,0.3,0.2,0.6,0.1,0.8l-2,3.4c-0.1,0.3-0.1,0.6,0.1,0.8c2.2,2.4,2.3,4.9,0.3,7.4
		c-0.2,0.2-0.2,0.5,0,0.8C100.2,57.5,101.4,62.2,96.7,64.5z M96.2,34.7c1.1-0.3,1.5-1.1,1.1-2.6c-0.4-1.4-1-1.7-1.9-0.8
		c-1,1.1-1.1,2.1-0.1,3.1C95.5,34.7,95.9,34.8,96.2,34.7z M95.2,39c-1.5,0.4-2.1,1.3-1.8,2.5c0.1,0.3,0.2,0.3,0.4,0L95.2,39
		c1.5,0,2.4,0.7,2.8,2c0.1,0.3,0,0.6-0.1,0.9c-0.9,1.3-2,1.5-3.3,0.7c-0.3-0.2-0.4-0.1-0.2,0.2c0.3,0.7,0.8,1.2,1.5,1.6
		c0.3,0.1,0.6,0.1,0.8-0.2l2.1-2.6c0.2-0.3,0.2-0.6,0.1-0.8l-2.1-2.5c-0.2-0.3-0.6-0.4-0.9-0.3C95.3,38.1,95.2,38.4,95.2,39z
		 M95.6,41.6c0,0.6,1,0.5,1.2-0.1c0.5-0.8,0.3-1-0.7-0.5C95.8,41.1,95.6,41.4,95.6,41.6z M94.9,49.3c-0.2,0.7,0.2,1.5,0.9,1.7
		c0.1,0,0.2,0,0.3,0.1C99.1,51.1,96.3,44.3,94.9,49.3z M96.8,57.4c0.1-0.3,0.3-0.5,0.5-0.7c0.4-0.2,0.6-0.4,0.6-0.6
		c0.1-0.5-0.1-0.7-0.5-0.8c-0.3-0.1-0.6,0.1-0.9,0.3c-0.7,0.8-0.8,1.7-0.4,2.8c0.1,0.3,0.3,0.5,0.6,0.5l0.4,0.1
		c0.3,0.1,0.6,0.2,0.7,0.3c0.7,0.8,0.8,0.6,0.4-0.6c-0.1-0.3,0-0.6,0.2-0.8c0.3-0.3,0.2-0.5-0.1-0.6c-0.2-0.1-0.5,0.1-0.7,0.4
		c-0.2,0.4-1.1,0.4-1.1-0.2C96.8,57.5,96.8,57.5,96.8,57.4z M96.9,60.7c0.3,0.2,0.6,0.4,0.7,0.7c0.1,0.2,0,0.5-0.3,0.7
		c-0.7,0.3-0.7,0.6,0,0.8c0.3,0.1,0.6,0,0.8-0.3c1-1.4,0.6-2.4-1.3-3c-0.3-0.1-0.7,0-0.9,0.1c-0.5,0.4-0.7,0.9-0.5,1.5
		c0.1,0.3,0.2,0.3,0.4,0l0.3-0.4C96.3,60.7,96.6,60.6,96.9,60.7z"/>
	<path class="st8" d="M95.3,34.5c-1-1-0.9-2,0.1-3.1c0.9-0.9,1.5-0.7,1.9,0.8c0.4,1.5,0,2.3-1.1,2.6C95.9,34.8,95.5,34.7,95.3,34.5z
		"/>
	<path class="st9" d="M65,35c-0.5,2-1.3,3.8-2.5,5.5c-0.7,1.3-0.6,1.7,0.5,1.3h1V42c-1,1.1-1.4,2.3-1.1,3.8c0.1,0.3,0,0.6-0.2,0.8
		c-0.9,1-1.6,2.1-1.9,3.4h-0.5c-0.2-0.3-0.4-0.6-0.5-1.1c0-0.3,0.1-0.5,0.4-0.7c1.4-0.8,2-2.2,1.7-4.2c-0.2-1.5-0.8-1.7-1.9-0.6
		c-0.3,0.3-0.6,0.4-0.8,0.4c-1.6-0.1-3.6-4.3-4.9-6c-0.4-0.6-0.4-1.1,0-1.5c0.2-0.1,0.4-0.1,0.6,0.1c0,0,0,0,0,0.1l2.8,4.4
		c0.2,0.3,0.3,0.6,0.3,0.9c-0.1,1.1,0.4,1.5,1.5,1.3c0.1,0,0.2-0.2,0.2-0.4l-4.4-7c-0.4-0.4-0.2-1,0.2-1.1c0.1-0.1,0.3,0,0.5,0.2
		l3.4,5.2c0.2,0.3,0.5,0.4,0.6,0.3c0,0,0.1,0,0.1-0.1c0.7-0.9-4.2-5.4-2.7-6.2c0.2-0.1,0.5,0,0.7,0.3l2.2,3.4
		c0.1,0.2,0.4,0.3,0.6,0.2l0.1-0.1c0.2-0.4-1.7-2.8-1.8-3.7c-0.1-0.4,0.1-0.5,0.4-0.3c1,0.4,1.6,1.1,1.7,2.2c0,0.3,0.2,0.6,0.4,0.7
		L62,37c-0.2,1.1-0.1,1.6,0.5,1.4c0.3-0.1,0.5-0.4,0.5-0.7c0-0.5-0.1-0.9-0.5-1c-1.8-1.8-1.8-2.7-0.2-2.7c0.3,0,0.5-0.1,0.7-0.4
		c0.1-0.2,0.2-0.2,0.4-0.3c0.2,0,0.4,0.2,0.5,0.5C64.1,34.4,64.4,34.8,65,35z M63,35.8c-0.3,2.2,2-1.1,0.5-0.7
		C63.2,35.2,63,35.5,63,35.8z M61.3,40c0.3,0.1,0.6-0.1,0.7-0.5l0,0c0.3-0.8-0.8-1.2-1-0.3l0,0C60.9,39.6,61,39.9,61.3,40z
		 M60.1,41.9c0.8,2,1.1-4,0-0.8C60,41.4,60,41.7,60.1,41.9z"/>
	<path class="st9" d="M66.2,35L66,35.5L65,35C65.2,32.7,65.6,32.7,66.2,35z"/>
	<path class="st9" d="M67,35.2L66.8,35l0.4-1.2c0-0.2,0.6-0.5,0.6-0.2C68.2,34.1,68,34.6,67,35.2z"/>
	<path class="st2" d="M79.3,34.5c-1.2,3.5-0.7,6.5,1.6,9.1c0.2,0.2,0.3,0.6,0.1,0.8c-0.4,0.7-1,0.7-1.7,0c-0.2-0.2-0.5-0.2-0.7,0
		c-1.3,1.3-1.9,1.1-1.9-0.6c0-0.4-0.2-0.5-0.4-0.3c-0.5,0.3-0.5,0.9-0.1,1.7c0.2,0.3,0.1,0.6-0.1,0.8c-1.3,1.2-2.8,1.8-4.4,1.9
		c-0.4,0.1-0.8-0.4-0.6-0.7C71.2,47,71.6,47,72,47c1.1,0.2,1.3-0.2,0.7-1c-0.2-0.2-0.5-0.4-0.8-0.3c-0.9,0.1-1.3,0.6-1.3,1.5
		c0.1,3.1,3.4,1.2,4.8,0.7l0.3,0.8c-0.4,0.6-0.3,1.1,0.2,1.5l1.5,1.2c0.9,0.7,1.1,1.5,0.5,2.5l-2-0.2c-1.9,0.2-3.7,0-5.5-0.5
		c-2.4-0.6-4.4-1.8-6-3.6v-0.4l2.3-1.8c0.3-0.2,0.5-0.5,0.5-0.8c0.7-2.5-0.3-3.9-3-4.1l4.7-8.9c0.1-0.3,0.4-0.4,0.7-0.4
		C71.2,33.4,78.6,33.4,79.3,34.5z M71.1,36.9c1.5-0.7,3.2-1.1,4.9-1c0.7,0,1.1-0.1,1-0.4c-0.1-0.3-0.4-0.5-0.8-0.5
		c-1.9-0.2-3.7,0.2-5.4,1.2c-0.3,0.2-0.4,0.4-0.3,0.6C70.5,37.1,70.7,37.1,71.1,36.9z M73.8,40.5l0.5,0.5l-0.6,1.3
		c-0.1,0.2,0,0.3,0.2,0.2l2-1.4c0.2-0.2,0.4-0.5,0.3-0.8c-0.1-0.9,0.1-1.7,0.7-2.3c0.1-0.1,0.1-0.4,0-0.5c0,0-0.1,0-0.1-0.1
		c-2.4-0.8-4.4-0.3-5.9,1.4c-0.3,0.2-0.1,0.5,0.1,0.7L73.8,40.5z"/>
	<path class="st10" d="M80,34c0.1,1.7,0.1,2.9-0.2,3.7c-0.6,1.4-0.3,2.7,0.7,3.9c1.8,2.1,1.8,3.6,0,4.3c-0.3,0.1-0.5,0.4-0.6,0.7
		l-1,6.3c0,0.2,0.1,0.5,0.3,0.8l0.4,0.5l-0.3,0.5h-0.9L77.7,54c0.6-1,0.5-1.9-0.5-2.5c1.5-2.4,1-2.8-1.5-1.2
		c-0.5-0.4-0.6-0.9-0.2-1.5c0.7-0.6,1.5-0.8,2.4-0.7c0.3,0,0.6-0.1,0.7-0.3l0.7-2.3c0-0.1,0-0.2-0.1-0.2c-0.3,0-0.5,0-0.8,0.3
		c-0.8,1.1-1.9,1.9-3.2,2.4c-1.4,0.5-4.7,2.4-4.8-0.7c0-0.9,0.4-1.4,1.3-1.5c0.3,0,0.6,0.1,0.8,0.3c0.7,0.8,0.5,1.2-0.7,1
		c-0.4-0.1-0.8,0-0.9,0.2c-0.1,0.1-0.1,0.3,0,0.4c0.1,0.2,0.3,0.3,0.6,0.3c1.7-0.1,3.1-0.7,4.4-1.9c0.2-0.2,0.3-0.5,0.1-0.8
		c-0.5-0.8-0.5-1.4,0.1-1.7c0.3-0.2,0.4-0.1,0.4,0.3c0,1.7,0.7,1.9,1.9,0.6c0.2-0.2,0.5-0.2,0.7,0c0.7,0.7,1.3,0.7,1.7,0
		c0.1-0.2,0.1-0.6-0.1-0.8c-2.3-2.6-2.8-5.6-1.6-9.1L80,34z"/>
	<path class="st11" d="M63.5,35.1c1.5-0.4-0.8,2.9-0.5,0.7C63,35.5,63.2,35.2,63.5,35.1z"/>
	<path class="st11" d="M65,35l1,0.5l-3,5.2l-0.5-0.3C63.7,38.8,64.5,37,65,35z"/>
	<path class="st12" d="M66.2,35l0.5-0.1l0.3,0.3l-3,6.5h-1v-1l3.1-5.2L66.2,35z"/>
	<path class="st13" d="M71.1,36.9c-0.4,0.2-0.6,0.2-0.7-0.1c-0.1-0.2,0.1-0.5,0.3-0.6c1.7-1,3.5-1.4,5.4-1.2c0.9,0,1.3,1.2-0.2,0.9
		C74.3,35.8,72.6,36.2,71.1,36.9z"/>
	<path class="st11" d="M62.5,36.7c0.4,0.1,0.5,0.5,0.5,1c0,0.3-0.2,0.6-0.5,0.7c-0.6,0.2-0.7-0.3-0.5-1.4L62.5,36.7z"/>
	<path class="st14" d="M74.3,41c0.7-2.2,0.3-2.7-1.1-1.7c-0.1,0.1-0.2,0.3,0,0.5c0,0,0,0.1,0.1,0.1c0.2,0.2,0.4,0.4,0.5,0.7l-2.9-1
		c-0.2-0.1-0.3-0.3-0.2-0.5c0-0.1,0.1-0.1,0.1-0.1c1.6-1.7,3.5-2.2,5.9-1.4c0.2,0,0.2,0.2,0.2,0.4c0,0,0,0.1-0.1,0.1
		c-0.5,0.7-0.7,1.4-0.7,2.3c0,0.3-0.1,0.6-0.3,0.8l-2,1.4c-0.2,0.1-0.2,0.1-0.2-0.2L74.3,41z"/>
	<path class="st15" d="M54.2,37.7l-0.1,0.5c-0.1,0.3,0,0.7,0.1,0.9l2.7,4.1H56c-0.6-0.8-1.4-1.3-2.3-1.6c-0.1,0-0.3-0.4-0.1-0.4
		c0.5-0.5,0.5-0.9,0.1-1.2c-0.2-0.1-0.4,0-0.5,0.2v0.1c-0.1,0.6-0.3,1.1-0.6,1.5c-0.3,0.3-0.4,0.6-0.5,0.8c-0.2,1-0.2,1.9,0,3
		c0.1,0.3,0.3,0.4,0.6,0.4c2.1-0.5,2.7,0.3,1.6,2.3l-0.4-0.5l-2.3-1.7c-0.3-0.2-0.5-0.5-0.5-0.7C50.8,42.3,51.9,39.8,54.2,37.7z"/>
	<path class="st11" d="M54.2,37.7c1.4,1.7,3.8,7.5,5.7,5.6c1.1-1.1,1.7-0.9,1.9,0.6c0.3,2-0.3,3.4-1.7,4.2c-0.3,0.2-0.5,0.4-0.4,0.7
		c0.1,0.4,0.2,0.8,0.5,1.1L60,50c-1.4-0.2-1.2-2.4-2.8-1.5c-1.3-0.5-1.4-1.1-0.4-2c1.9,0.9,3.4,0.5,4.3-1.3c0.1-0.3,0.1-0.6-0.2-0.8
		C60.3,44,60,44.2,60,45.1c0,0.3-0.1,0.6-0.4,0.8c-0.9,0.5-1.8,0.4-2.7-0.3v-2.2l-2.7-4.1C54,39,54,38.7,54.1,38.4L54.2,37.7z"/>
	<path class="st9" d="M95.2,39c-0.1-0.6,0.1-0.9,0.5-1c0.3-0.1,0.7,0,0.9,0.3l2.1,2.5c0.2,0.2,0.2,0.5-0.1,0.8l-2.1,2.6
		c-0.2,0.2-0.5,0.3-0.8,0.2c-0.7-0.4-1.2-0.9-1.5-1.6c-0.1-0.3,0-0.4,0.2-0.2c1.3,0.8,2.4,0.6,3.3-0.7c0.2-0.3,0.2-0.6,0.1-0.9
		C97.6,39.7,96.7,39,95.2,39z"/>
	<path class="st11" d="M61,39.2c0.2-0.8,1.2-0.5,1,0.3C61.7,40.3,60.8,40,61,39.2z"/>
	<path class="st16" d="M74.3,41l-0.5-0.5c-0.1-0.3-0.3-0.5-0.5-0.7c-0.2-0.1-0.2-0.3-0.1-0.5c0,0,0,0,0.1-0.1
		C74.6,38.3,75,38.8,74.3,41z"/>
	<path class="st15" d="M95.2,39l-1.4,2.5c-0.2,0.3-0.3,0.3-0.4,0C93.1,40.3,93.7,39.4,95.2,39z"/>
	<path class="st4" d="M56,43.2c-0.4,1-0.4,1.8,0.2,2.5l0.5,0.7c-1,0.9-0.9,1.5,0.4,2l1.4,1.5c0.2,0.3,0.4,0.5,0.3,0.7
		c-0.1,0.1-0.2,0.3-0.4,0.3l-0.8-0.6c-0.5-0.6-1-1-1.7-1.3c-0.3-0.1-0.6,0-0.9,0.2c-1.9,1.8-1.8,3.1,0.6,4c0.4,0.1,0.4,0.3,0.1,0.5
		c-0.4,0.3-1,0.4-1.6,0.1c-0.2-0.1-0.5,0-0.6,0.2c0,0.7,0.4,1.1,1.3,1.1c0,0,4.1,0,4.1,0c0.4,0,0.7,0,0.9-0.1c1-0.5,2.1-0.5,3.2,0
		c0.3,0.1,0.6,0.1,0.9,0c2.3-0.9,4.3-1,6-0.3c1.4,0.6,2.4,0.5,3.1-0.2c0.2-0.2,0.5-0.3,0.8-0.2c0.7,0.1,1.2-0.1,1.6-0.6l2,0.2
		l0.6,0.8l-9.5,14.1c-0.2,0.3-0.3,0.6-0.2,0.9c0.3,0.8,0.8,1.1,1.7,0.9c0.3-0.1,0.5-0.3,0.7-0.6c2.8-4.6,5.7-9.2,8.7-13.7
		c0.5-0.8,0.3-1.3-0.5-1.6l0.3-0.5l4,2.2c-1.3,0.6-1.2,1.2,0.1,2c5.8,3.5,11.6,7,17.4,10.6c1.1,0.9,1.1,1.9,0.2,3L82.1,60.3
		c-0.3-0.2-0.7-0.3-0.9-0.2c-0.3,0.1-0.6,0.4-0.7,0.8c-4.6,6-7.5,10.2-8.6,12.7c-1,2.2-0.1,3.3,2.6,3.3c-0.3,0.8-0.9,1.1-1.8,0.9
		c-0.3-0.1-0.5,0-0.6,0.2c0,0.6,0.2,1.1,0.7,1.3c0.2,0.1,0.6,0.1,0.9,0c1.1-0.4,1.4,0.1,0.9,1.5c-1.4-0.3-4.7-1.5-1.3,1.4
		c0.2,0.2,0.2,0.3-0.1,0.4c-0.4,0.1-0.8,0.3-1,0.6c-0.2,0.2-0.3,0.6-0.2,0.9l1.2,3L70,87.5h-1.2c-1.2-0.5-2.4-0.5-3.6,0.1
		c-0.3,0.1-0.4,0.4-0.4,0.7l-0.2,7.5c0,0.4,0.1,0.7,0.2,0.9c1.4,1.8,2.8,1.8,4.3-0.2h0.5c1.2,2,2.7,2.4,4.6,1.1
		c0.2-0.2,0.5-0.1,0.7,0.1c1.1,1.4,2.2,1.4,3.5,0.1l1.2,1l0.5,0.5v0.7l-0.1,1.2l-0.9,0.5c-0.4-0.8-1.1-0.6-1.1,0.2
		c-0.3,4.1-0.3,8.2,0.1,12.3l0.1,0.2c0,0.1,0,0.3-0.1,0.4c-2,1.2-3.3,2.9-3.7,5.2l-1.3,0.7c-0.8-0.1-1.1-0.6-1-1.4
		c1.6-0.9,2.2-2.2,1.8-4c1-0.4,1.1-0.9,0.3-1.5c-0.3-1-1-1.3-2-1l-0.8-0.5l0.2-1.5c0.3-0.8,0.8-1,1.5-0.6c0.2,0.1,0.3,0.5,0.2,0.8
		c-0.1,0.4,0,0.8,0.3,1c0.2,0.1,0.4,0.1,0.6-0.1c0,0,0-0.1,0.1-0.1c0.4-0.9,0.3-1.7-0.3-2.5c-0.2-0.2-0.5-0.4-0.8-0.4l-17.8,0.5
		l-0.7,1c-0.6,0.3-0.9,0.8-0.8,1.5l-0.2,1l-1.2,1.2c-2.8-0.4-3.3,0.4-1.5,2.3c-0.6,0.3-0.9,0.8-1,1.4c0,0.3,0.2,0.6,0.5,0.7
		c0.7,0.2,1.2-0.1,1.5-0.9c0.6,0.2,0.9,0.6,1,1.2c0,0.2-0.2,0.4-0.6,0.5l-2.9,0.6l-0.5-1l0.4-4.2c0-0.3-0.1-0.6-0.5-0.8l-4.5-2.8
		c2-0.1,2.2-0.6,0.7-1.5c-6-3.6-12-7.2-18-10.8c-0.8-1-0.8-2,0-3L46,107.3c0.7,0.4,1,0.3,1.4-0.3c1.4,0.1,8.2-11.8,9.2-13.6
		c0.4-0.6,0.2-1.4-0.5-1.8c-0.1-0.1-0.3-0.1-0.4-0.2c-16.2-3.1-24-16.9-21.1-32.9c0.1-0.3,0.2-0.6,0.5-0.8c3.5-2.6,7.4-4.6,11.5-6
		c1.4,0.1,2.3,0.8,2.8,2l-0.2,12.5c0,0.2,0.1,0.4,0.3,0.4c0.4,0.2,0.8,0,0.8-0.6L50,53.7c0-0.3,0-0.7,0.3-0.8C52,52,58,44.8,52.7,46
		c-0.3,0.1-0.5-0.1-0.6-0.3l0,0c-0.2-1-0.2-2,0-3c0.1-0.2,0.2-0.5,0.5-0.8c0.3-0.4,0.5-0.9,0.6-1.5c0-0.2,0.2-0.4,0.4-0.3h0.1
		c0.5,0.3,0.4,0.7-0.1,1.2c-0.2,0.2-0.1,0.4,0.1,0.5C54.6,41.9,55.4,42.5,56,43.2z M54.5,43.2c-0.6-0.5-0.9-0.3-0.9,0.7
		c0,0.2,0.3,0.4,0.5,0.4c0.2-0.1,0.4-0.2,0.5-0.4C54.8,43.8,54.7,43.4,54.5,43.2z M43.2,54c-2.5,0.1-0.9,7.8-0.5,9.1
		c-0.8-0.6-1.7-0.8-2.8-0.5c-0.2,0.1-0.5-0.1-0.5-0.3c0-0.5,0-1.1,0.2-1.5c0.7-1.4,0.7-2.9,0.3-4.3c-0.1-0.3-0.4-0.4-0.7-0.4
		c-2.4,0.6-3.6,2.1-3.6,4.6c0,0.3-0.1,0.6-0.3,0.9c-0.4,0.6-0.4,1.1,0,1.6c0.2,0.2,0.3,0.5,0.2,0.8c-0.4,1.2,0,1.4,1.2,0.7
		c0.4-0.2,0.5-0.7,0.3-1c-0.1-0.1-0.1-0.2-0.2-0.2c-0.8-0.6-0.9-1.2-0.2-1.8c0.2-0.2,0.3-0.5,0.2-0.8c-0.5-1.6,0-2,1.4-1
		c-1,7.2,0.4,13.8,4.4,19.8c-2.2,0.3-3.2-0.6-3-2.8c0-0.3-0.1-0.5-0.4-0.7c-0.5-0.3-0.7-0.8-0.7-1.6c0-0.3-0.1-0.6-0.3-0.8
		c-1.3-1-1.8-0.4-1.5,1.7c0.3,1.7,2.7,4.1,3.7,5.6c0.1,0.2,0.2,0.5,0.3,0.9c0.1,0.6,4.5,3.9,5.5,5.5c0.1,0.1,0.2,0.1,0.3,0.1
		l0.2-0.1c0.2-0.2,0.5-0.2,0.7,0c2.4,1.5,5,2.4,7.9,2.8c1.3,0.2,1.5-0.2,0.7-0.9c-0.7-0.7-1.4-0.9-2.1-0.6c-0.3,0.1-0.7,0.1-0.8-0.1
		c-0.5-0.5-0.5-0.9,0.1-1.4l2.1,0.6c0.4,0.1,0.7,0.1,0.9-0.1c0.1-0.2,0.2-0.3,0.2-0.6c0-0.3-0.3-0.5-0.6-0.7
		c-2.2-0.8-2.4-1.3-0.5-1.4c0.3,0,0.5-0.2,0.5-0.5c0,0,0,0,0-0.1L55.2,81l2.5-0.1c0.4,0,9.9,0,10.6,0c0.4,0,0.7-0.3,0.7-0.7l0,0
		v-5.5c0-0.3-0.1-0.7-0.3-0.9C67.4,72,66,72,64.5,73.7c-0.2,0.2-0.3,0.2-0.4-0.1c-0.6-3.4-2.2-4.1-4.9-2.1l-1-0.3
		c-1.6-1.9-3.2-1.9-4.6,0c-0.2,0.2-0.3,0.2-0.4-0.1c-0.5-1.9-1.7-2.2-3.6-1.2l-2.2-2.1c-0.3-0.7-0.2-1,0.3-1.2
		c0.1-3.2,0-6.4-0.4-9.5c-0.1-0.5,0.1-1.1,0.5-1.8c0.2-0.3,0.2-0.6,0.1-0.9c-0.5-2.1-0.9-1.8-1.1,1.1c0,0.2-0.2,0.4-0.4,0.3h-0.1
		c-0.7-0.3-0.9-1-0.8-1.8c0-0.3-0.1-0.4-0.3-0.4L43.2,54z M73,58c0.6-0.3,1.1-0.8,1.3-1.5c0.1-0.2,0-0.4-0.2-0.5
		C73,56,72.7,56.6,73,58c-0.7,0.3-1.3,0.3-2,0.1c-0.3-0.1-0.4-0.4-0.3-0.7c0.3-1.2-0.2-1.7-1.4-1.4c-0.2,0-0.4,0.3-0.4,0.6l0,0
		c0.4,1.5-0.4,2-2.3,1.3c-0.3-0.1-0.4-0.4-0.3-0.6c0.4-1.2,0-1.7-1.2-1.4c-0.2,0.1-0.4,0.3-0.3,0.6l0,0c0.5,1.6-0.2,2.1-2.2,1.4
		c-0.2-0.1-0.4-0.4-0.3-0.6l0,0c0.4-1,0.1-1.5-1-1.4c-0.3,0-0.5,0.3-0.5,0.6c0,2.1-1,2.5-3,1.1c0.4-1.4,0.1-1.8-1-1.4
		c-0.6,0.2-0.6,1-0.2,1.4c-1.6,1-2.2,0.7-1.9-0.8c0.1-0.4,0-0.7-0.2-0.9c-1.3-1-1.1,2.1-0.7,2.8c0.1,0.3,0.4,0.4,0.8,0.4
		C60.4,59,66.1,59,71.9,59C72.5,59,72.8,58.6,73,58z M81.8,56.7c0.2-0.3,0-0.5-0.3-0.6C81.3,56,81.1,56,81,56.2l0,0L71,72
		c-0.2,0.3,0,0.5,0.3,0.6c0.2,0.1,0.4,0.1,0.5-0.1l0,0L81.8,56.7z M61,67.2l0.8,0.1l3.3,1.9c0.2,0.1,0.5,0.1,0.7-0.1l5.7-8.2
		c0.2-0.2,0.1-0.5-0.1-0.7c-0.1,0-0.1-0.1-0.2-0.1c-3-0.5-6-0.4-8.9,0.4l-1.5-0.3c-2.1-0.5-4.2-0.5-6.4-0.2
		c-0.3,0.1-0.5,0.3-0.5,0.6l0.1,6.1c0,0.2,0.3,0.4,0.6,0.4C56.2,66.9,60.1,68.2,61,67.2z M37,66.6c-1-1.4-1.2,1.3-1.7,2.3
		c-0.1,0.2-0.1,0.5,0.1,0.9l1,2.2c0.1,0.3,0.3,0.3,0.5,0.1c0.6-0.8,0.6-1.6-0.1-2.4c-0.2-0.2-0.2-0.5-0.1-0.8l0.5-1.3
		C37.2,67.2,37.2,66.9,37,66.6z M68.2,82.7c-0.1-0.3-0.4-0.6-0.8-0.6c-3.1-0.3-6.1-0.1-9,0.6c-0.3,0.1-0.6,0.3-0.6,0.6
		c-0.4,1.5,0.2,2.3,1.5,2.4c4.2,0.3,7,0.4,8.3,0.3c0.5,0,0.6-0.8,1.3-0.6c1.8,1.1,2.4,0.4,1.9-2.2c-0.1-0.3-0.3-0.6-0.6-0.5L68.7,83
		C68.4,82.9,68.3,82.8,68.2,82.7z M60.2,95.5c4.7,1.9,3.7-5.4,3.5-7.6c0-0.3-0.2-0.6-0.5-0.6h-3.3c-0.3,0-0.5,0.3-0.5,0.6l-0.1,6.3
		C59.3,94.7,59.6,95.2,60.2,95.5z M57.1,96.1c0.1-0.2,0.1-0.5-0.2-0.7l0,0c-0.2-0.1-0.5-0.1-0.7,0.2l-9.9,15.7
		c-0.1,0.2-0.1,0.5,0.2,0.7l0,0c0.2,0.1,0.5,0.1,0.7-0.2L57.1,96.1z M59.6,98.5c0.1-0.2,0.1-0.5-0.1-0.7l-1.1-0.7
		c-0.2-0.1-0.5-0.1-0.7,0.1l-9.6,14.7c-0.1,0.2-0.1,0.5,0.1,0.7l1.1,0.7c0.2,0.1,0.5,0.1,0.7-0.1L59.6,98.5z M66,107.7h1.2
		c2.1,0.6,4.2,0.7,6.4,0.2c0.3-0.1,0.5-0.3,0.5-0.6v-6.2c0-0.2-0.3-0.4-0.5-0.4c-1.6,0.3-3.1,0.1-4.5-0.7c-0.6-0.5-1.3,0.4-2.1,0.8
		l-1.2-0.2l-2.9-2.1c-0.2-0.2-0.5-0.1-0.7,0.1l0,0l-5.9,8.4c-0.1,0.2-0.1,0.4,0.1,0.5c0,0,0.1,0,0.1,0.1
		C59.9,108.5,63,108.5,66,107.7z"/>
	<path class="st3" d="M60.1,41.1c1.1-3.2,0.8,2.8,0,0.8C60,41.7,60,41.4,60.1,41.1z"/>
	<path class="st4" d="M62.5,40.5l0.5,0.3v1C61.9,42.2,61.8,41.7,62.5,40.5z"/>
	<path class="st12" d="M96.1,41c1-0.5,1.2-0.3,0.7,0.5C96.1,42.6,94.9,41.6,96.1,41z"/>
	<path class="st11" d="M64,42l0.1,0.7c2.7,0.2,3.7,1.5,3,4.1c-0.1,0.3-0.3,0.6-0.5,0.8l-2.3,1.8c-0.5,0-4.2,1.2-2,1.5
		c-0.6,0.2-1.1,0.5-1.5,1c-0.2,0.4-0.7,0.1-0.7-0.2c0-0.2,0.3-0.4,0.6-0.5c0.8-0.2,0.9-0.6,0.1-1.2c0.3-1.3,1-2.4,1.9-3.4
		c0.2-0.2,0.3-0.5,0.2-0.8C62.6,44.3,62.9,43.1,64,42z M66.6,45.4c0-0.4-0.1-0.4-0.3-0.1c-0.8,1.1-1.6,1.8-2.6,2
		c-0.3,0.1-0.5,0.2-0.5,0.3C62.7,48.6,66.4,48,66.6,45.4z"/>
	<path class="st15" d="M54.6,44c-0.2,0.4-0.7,0.7-1,0.1c0-1,0.2-1.4,0.9-0.8C54.7,43.4,54.8,43.8,54.6,44z"/>
	<path class="st8" d="M56,43.2h1v2.2l-0.7,0.3C55.7,45.1,55.6,44.2,56,43.2z"/>
	<path class="st15" d="M56.8,46.5l-0.5-0.7l0.7-0.3c0.8,0.7,1.7,0.8,2.7,0.3c0.7-0.3,0-2.2,1.3-1.4c0.2,0.2,0.3,0.5,0.2,0.8
		C60.2,47,58.7,47.4,56.8,46.5z"/>
	<path class="st9" d="M66.6,45.4c-0.1,2.7-3.9,3.2-3.4,2.2c0.1-0.2,0.3-0.3,0.5-0.3c1-0.2,1.8-0.9,2.6-2
		C66.5,44.9,66.6,45,66.6,45.4z"/>
	<path class="st17" d="M75.5,48.7L75.2,48c1.3-0.5,2.4-1.3,3.2-2.4c0.3-0.3,0.5-0.3,0.8-0.3c0.1,0,0.2,0.1,0.2,0.2l0,0l-0.7,2.3
		c-0.1,0.2-0.4,0.4-0.7,0.3C77.1,48,76.3,48.2,75.5,48.7z"/>
	<path class="st8" d="M94.9,49.3c1.4-5,4.1,1.8,1.3,1.7C95.3,51,94.8,50.2,94.9,49.3z"/>
	<path class="st12" d="M53.9,47.8l0.4,0.5c-1,1.8-2.3,3.4-4,4.6C50,53,50,53.4,50,53.7h-0.7c-0.5-1.2-1.4-1.9-2.8-2v-1
		c0.3-0.3,0.9-0.3,1.2,0.2C50.3,54.4,52.2,49.2,53.9,47.8z"/>
	<path class="st18" d="M60,50c-0.4,1.5-1.3,2.5-2.7,3.1c-0.2,0.1-0.5,0.5-0.2,0.6c0.7,0.6,4.3-0.7,5.1-0.9c1.4,0.8,2.9,0.9,4.4,0.2
		c1.3,1.3,2.5,1.3,3.7,0.2c1.8,0.5,3.6,0.7,5.5,0.5c-0.4,0.5-0.9,0.7-1.6,0.6c-0.3-0.1-0.6,0-0.8,0.2c-0.7,0.7-1.8,0.8-3.1,0.2
		c-1.7-0.7-3.7-0.6-6,0.3c-0.3,0.1-0.6,0.1-0.9,0c-1.1-0.4-2.1-0.4-3.2,0c-0.5,0.2-4.4,0-5,0.1c-0.4,0-0.8-0.1-0.9-0.2
		c-0.5-0.3-0.7-1.2,0.2-1.1c0.6,0.2,1.1,0.2,1.6-0.1c0.3-0.2,0.2-0.4-0.1-0.5c-2.3-0.9-2.5-2.2-0.6-4c0.2-0.2,0.6-0.3,0.9-0.2
		c0.6,0.3,1.2,0.7,1.7,1.3c-1.8-0.9-2.7-0.6-2.5,1c0,0.3,0.3,0.6,0.6,0.6c1.1,0.2,2-0.2,2.7-1c0.6-0.3,0.5-0.4,0.1-1l-1.4-1.5
		C58.8,47.7,58.6,49.9,60,50z"/>
	<path class="st3" d="M27,62c-1.1-1-2-0.8-2.8,0.8c-1.1,1-2.2,1.2-3.2,0.5c-4.6-3,2.8-11.3,4.7-14c0.1-0.2,0.3-0.2,0.5-0.1l0.1,0.1
		l5.7,8.2c1.2,1.7,1.2,3.3,0.1,4.9C30.5,64.5,28.8,64.4,27,62z"/>
	<path class="st18" d="M64.2,49.3v0.4l-2,1.1C60.1,50.4,63.7,49.3,64.2,49.3z"/>
	<path class="st16" d="M77.2,51.5l-1.5-1.2C78.3,48.6,78.8,49,77.2,51.5z"/>
	<path class="st19" d="M64.2,49.7c1.6,1.8,3.6,3,6,3.6c-1.2,1.1-2.4,1.1-3.7-0.2c-1.7-2.5-3.2-2.6-4.4-0.2c-0.8,0.2-4.4,1.5-5.1,0.9
		c-0.1-0.1-0.1-0.4,0.1-0.5l0.1-0.1c1.4-0.6,2.3-1.7,2.7-3.1l0.2-0.1h0.5c0.7,0.6,0.7,1-0.1,1.2c-0.6,0.2-0.8,0.5-0.4,0.8
		c0.2,0.1,0.4,0,0.5-0.1c0.4-0.4,0.9-0.8,1.5-1L64.2,49.7z"/>
	<path class="st11" d="M57.8,50.5l0.8,0.6c-0.7,0.8-1.6,1.2-2.7,1c-0.3-0.1-0.5-0.3-0.6-0.6C55.1,49.9,55.9,49.5,57.8,50.5z"/>
	<path class="st2" d="M66.6,53.1c-1.5,0.6-3,0.6-4.4-0.2C63.4,50.5,64.8,50.5,66.6,53.1z"/>
	<path class="st2" d="M47.8,66.5c-1.9-0.1-0.1-3.6-1.9-1.8L45,64.2c0.2-0.5,0.2-1.1,0-1.6c-0.2-0.3-0.1-0.7,0-0.9
		c0.2-0.2,0.4-0.3,0.7-0.3c0.4,0.7,1.3,0.4,1.3-0.3c-0.1-0.6,0.2-2.7-0.3-3.1c-0.3-0.2-0.6-0.1-1,0.4h-0.5c-0.2,0-0.3-0.3-0.3-0.5
		c0.4-1.4,0.2-2.7-0.7-4l-1-0.1l2-0.6c0.2,0,0.3,0.1,0.4,0.3c0,0.1,0,0.1,0,0.2c-0.1,0.9,0.1,1.5,0.8,1.8c0.2,0.1,0.4,0,0.5-0.2
		v-0.1c0.2-2.8,0.6-3.2,1.1-1.1c0.1,0.3,0,0.6-0.1,0.9c-0.4,0.7-0.5,1.4-0.5,1.8C47.8,60.1,47.9,63.3,47.8,66.5z"/>
	<path class="st2" d="M49.3,53.7H50L50.2,66c0,0.5-0.4,0.9-0.8,0.6c-0.2-0.1-0.3-0.2-0.3-0.4L49.3,53.7z"/>
	<path class="st16" d="M43.2,54l1,0.1c-0.2,1.9,0.6,8.2-1,9h-0.5C42.3,61.8,40.7,54,43.2,54z"/>
	<path class="st5" d="M44.2,54c0.9,1.2,1.1,2.6,0.7,4c-0.1,0.2,0,0.4,0.2,0.5c0.1,0,0.5,0,0.6,0v3c-0.6,0-1.1,0.5-0.7,1.2
		c0.2,0.5,0.2,1,0,1.6c-0.9,0.1-1.5-0.3-1.8-1.2C44.8,62.2,44.1,55.9,44.2,54z"/>
	<path class="st2" d="M95,63l-6.2-3.8c0.8-2.5,2.4-4.2,4.8-5.1c0.3-0.1,0.6-0.1,0.9,0c1.8,0.8,1.7,1.4-0.5,1.9
		c-0.3,0.1-0.6,0.3-0.8,0.5c-0.5,0.9-0.6,1.9-0.4,2.9c0.1,0.3,0.3,0.5,0.5,0.8C94.2,61,94.7,61.9,95,63z"/>
	<path class="st8" d="M78.3,54.7h0.9c0.8,0.3,1,0.8,0.5,1.6c-2.9,4.5-5.8,9.1-8.7,13.7c-0.2,0.3-0.5,0.5-0.7,0.6
		c-0.9,0.2-1.4-0.1-1.7-0.9c-0.1-0.3,0-0.6,0.2-0.9L78.3,54.7z"/>
	<path class="st2" d="M97.3,58c0.2,0,0.4-0.1,0.6-0.3c0.2-0.3,0.5-0.5,0.7-0.4c0.7,0.2-0.4,1-0.1,1.4c0.4,1.2,0.3,1.4-0.4,0.6
		C98,59.2,97.7,59,97.4,59l-0.5,0c-0.2,0-0.4-0.2-0.6-0.5c-0.5-1.1-0.3-2,0.4-2.8c0.2-0.3,0.6-0.4,0.9-0.3c0.4,0.1,0.6,0.3,0.5,0.8
		c0,0.4-1.2,0.7-1.1,1.3C96.9,57.8,97.1,58,97.3,58C97.2,58,97.3,58,97.3,58z"/>
	<path class="st20" d="M56.8,57.5H58c2,1.4,3,1,3-1.1c0-0.3,0.2-0.5,0.5-0.6c1.1-0.1,1.4,0.4,1,1.4c-0.1,0.3,0,0.5,0.2,0.6l0,0
		c2,0.7,2.7,0.2,2.2-1.4c-0.1-0.3,0-0.5,0.3-0.6l0,0c1.2-0.2,1.6,0.2,1.2,1.4c-0.1,0.3,0.1,0.6,0.3,0.6c1.9,0.6,2.6,0.2,2.3-1.3
		c-0.1-0.3,0.1-0.5,0.3-0.6l0,0c1.2-0.2,1.7,0.2,1.4,1.4c-0.1,0.3,0.1,0.6,0.3,0.7c0.7,0.2,1.3,0.2,2-0.1c-0.2,0.6-0.5,1-1,1
		c-5.7-0.1-11.5,0-17.3,0.1c-0.3,0-0.6-0.1-0.8-0.4c-0.4-0.6-0.6-3.8,0.7-2.8c0.2,0.2,0.3,0.5,0.2,0.9
		C54.6,58.2,55.2,58.5,56.8,57.5z"/>
	<path class="st6" d="M39.7,60.7c-0.2-0.7-0.7-1-1.4-1c-1.4-1-1.9-0.6-1.4,1c0.1,0.3,0,0.6-0.2,0.8c-0.6,0.7-0.6,1.3,0.2,1.8
		c0.3,0.2,0.4,0.7,0.2,1c-0.1,0.1-0.1,0.2-0.2,0.2c-1.2,0.7-1.6,0.5-1.2-0.7c0.1-0.3,0-0.6-0.2-0.8c-0.5-0.5-0.5-1,0-1.6
		c0.2-0.3,0.3-0.6,0.3-0.9c0-2.5,1.2-4,3.6-4.6c0.3-0.1,0.6,0.1,0.7,0.4C40.5,57.9,40.4,59.3,39.7,60.7z"/>
	<path class="st12" d="M58,57.5h-1.2c-0.4-0.4-0.4-1.2,0.2-1.4C58.1,55.7,58.4,56.1,58,57.5z"/>
	<path class="st8" d="M73,58c-0.3-1.3,0-2,0.9-2c0.2,0,0.4,0.3,0.4,0.5C74.1,57.2,73.6,57.7,73,58z"/>
	<path class="st8" d="M81.5,56.1c0.3,0.1,0.5,0.3,0.3,0.6l-10,15.8c-0.1,0.3-0.5,0.1-0.7,0C71,72.3,70.9,72.1,71,72l10-15.8
		C81.1,56,81.3,55.9,81.5,56.1z"/>
	<path class="st21" d="M83.5,56.5l4.2,2.3c0.1,0.7,0.4,0.8,1,0.5L95,63c0.4,0.8,0.9,1.3,1.8,1.5l4.3,2.3l0.2,0.2
		c0.2,0.8,0.1,1.4-0.2,2c-5.8-3.6-11.6-7.1-17.4-10.6C82.3,57.7,82.2,57,83.5,56.5z"/>
	<path class="st14" d="M45.7,61.5v-3c0.5-0.8,1.5-0.5,1.3,0.5v2.2c0,0.4-0.2,0.7-0.5,0.7C46.2,62,46,61.8,45.7,61.5z"/>
	<path class="st2" d="M96.1,60.9l-0.3,0.4c-0.2,0.3-0.4,0.3-0.4,0c-0.2-0.6,0-1.2,0.5-1.5c0.2-0.2,0.6-0.2,0.9-0.1
		c1.8,0.5,2.2,1.5,1.3,3c-0.2,0.3-0.5,0.4-0.8,0.3c-0.6-0.2-0.6-0.4,0-0.8c0.7-0.3,0.1-1.3-0.4-1.4C96.6,60.6,96.3,60.7,96.1,60.9z"
		/>
	<path class="st12" d="M38.3,59.7c0.7,0,1.2,0.3,1.4,1c-0.2,0.5-0.3,0.9-0.2,1.4c0,0.2,0.3,0.4,0.6,0.4c1.1-0.3,2-0.1,2.8,0.5h0.5
		c0.3,0.9,0.9,1.3,1.8,1.2l0.9,0.5l0.3,3c-0.9,1.1-1.4,2.4-1.8,3.8c-0.6,0.3-1.3,1.5-0.3,1.6c0.6-0.3,0.7-0.8,0.5-1.5
		c0.8-0.5,1.2-1.2,1.1-2c0-0.3,0.1-0.6,0.4-0.8c0.2-0.2,0.3-0.3,0.5-0.6l0.8-0.5l2.2,2.1l0.8,1l1.2,2c0.9,1.4,1.4,2.8,1.6,4.4
		c0,0.6,1.1,0.8,1,1.5c-1.4,0.8-1.3,1.3,0.4,1.5l0.5,0.5l0.6,3.5c0,0.2-0.2,0.5-0.4,0.5c0,0,0,0-0.1,0c-1.8,0.1-1.6,0.6,0.5,1.4
		c0.6,0.2,0.8,0.8,0.4,1.3c-0.2,0.2-0.5,0.2-0.9,0.1L53.3,87l-0.8-0.3l-3.2-1.5l-2.8-1.8L44,81.2l-1.3-1.8
		C38.7,73.5,37.3,67,38.3,59.7z M39.9,66c-0.3-1-0.6-0.9-0.9,0.3c-0.1,0.3,0.1,0.5,0.4,0.6c0.7,0.2,1.3,0.5,1.8,1.1
		c0.4,0.4,0.6,0.1,0.9-0.2c0.1-0.2,0-0.5-0.3-0.6c0,0,0,0-0.1,0l-1.2-0.5C40.2,66.5,40,66.3,39.9,66z M43.8,68.3
		c-0.6-1.2-3.3,6.5-0.1,0.8C43.9,68.9,44,68.6,43.8,68.3z M48.1,69.9c0.3-0.5,0.1-0.8-0.6-1c-0.6-0.1-0.8,0.1-0.5,0.7l2.2,4.9
		c0.1,0.2,0.3,0.3,0.5,0.2c0,0,0.1,0,0.1-0.1c0.3-0.2,0.5-0.5,0.6-0.9c0.1-0.2-0.1-0.5-0.3-0.5c0,0,0,0-0.1,0
		c-1-0.2-1.2-0.7-0.6-1.4c0.2-0.2,0.1-0.4-0.1-0.5c-0.5-0.1-0.9-0.4-1.2-0.7C48,70.5,47.9,70.2,48.1,69.9z M41,72.7
		c-0.2,1.2,0,1.7,0.5,1.5c0.8-0.3,0.4-1.4-0.3-1.6c0.2-1.1,0.1-2.1-0.3-3.2c-0.1-0.3-0.3-0.5-0.6-0.5c-0.7-0.1-0.4,0.8,0,1.3
		C40.9,71,41.1,71.8,41,72.7z M48,75c0.7,1.2,1.6,2.3,2.8,3.1c0.2,0.1,0.3,0.4,0.4,0.8c0.1,0.3,0.4,0.4,1.1,0.1
		c0.1,0,0.1-0.1,0.1-0.2l0,0c-1-0.8-1.3-1.4-1-1.7c2.7-0.5-2.5-4.2,0,0C49.1,77.1,49.3,74.7,48,75l-1.5-3.3
		c-0.2-0.5-0.3-0.4-0.3,0.1C46.2,73.1,46.8,74.2,48,75z M45.5,75.8c3.6,1-1.6-3.1-0.7-0.6C45,75.5,45.2,75.7,45.5,75.8z M46.9,81.2
		c-0.4-1-1.1-1.8-2-2.2c-1.2-0.5-0.8-1.9-1.2-2.8c-0.5-0.5-0.8-0.5-1.2-0.2c-0.2,0.2-0.2,0.6,0,0.8c1.4,2.2,3.2,4.2,5.2,5.8
		c0.5,0.4,2.9,1.3,1.3-0.6c-0.2-0.4-1-0.3-1.4-0.3C47.3,81.8,47,81.6,46.9,81.2z M45.9,77.2c-0.5-0.3-0.8-0.2-0.7,0.3
		c0,0.2,0.3,0.3,0.6,0.3c2.5-0.7,1.1,4.4,3.3,1.3c0.2-0.3,0.2-0.6,0.1-0.9c-0.5-1.3-1.3-1.6-2.4-1C46.5,77.3,46.2,77.3,45.9,77.2z
		 M52.8,81c-0.1,0.8,0.1,1.2,0.6,1c0.3-0.1,0.6-0.4,0.6-0.7C53.9,80.9,53.5,80.8,52.8,81l-1.1-0.7c-0.2-0.1-0.4-0.4-0.5-0.8
		s-0.3-0.5-0.7-0.4c-0.3,0.1-0.5,0.4-0.4,0.7C50.2,81.2,51.1,81.6,52.8,81z M52.8,84.6c-0.6-1.2-4,0-0.2,0.3
		C52.9,84.9,53,84.8,52.8,84.6z"/>
	<path class="st6" d="M60.8,60.2c-0.4,0.5-0.5,1.1-0.4,1.7c0.1,0.3-0.1,0.6-0.3,0.7c-0.4,0.1-1.7,0.4-1.9,0.4
		c-1.8,1.3,0.9,1.7,1.9,1.6c0.2,0,0.3,0.1,0.4,0.3V65c-0.1,0.8,0.1,1.6,0.6,2.2c-0.9,1-4.8-0.3-6.5-0.1c-0.3,0-0.5-0.1-0.6-0.3
		c0,0,0,0,0-0.1l-0.1-6.1c0-0.3,0.2-0.5,0.5-0.6C56.6,59.7,58.7,59.8,60.8,60.2z"/>
	<path class="st6" d="M61.8,67.3c0.4-0.6,0.6-1.4,0.6-2.2c0-0.3,0.2-0.4,0.5-0.4c1.7,0.3,2.4-0.1,2-1.3c-0.1-0.3-0.4-0.4-0.7-0.4
		c-1.7,0.1-2.3-0.7-1.8-2.4c2.9-0.8,5.8-1,8.9-0.4c0.3,0,0.5,0.6,0.3,0.8l-5.7,8.2c-0.1,0.2-0.4,0.2-0.7,0.1L61.8,67.3z"/>
	<path class="st21" d="M101.2,72c0.1,0.3,0.1,0.5,0,0.7c-0.1,0.1-0.5,0.2-0.9,0.1l-1.7-0.3c-0.8-0.3-1.5-0.7-2-1.3
		c-4.8-4-9.9-7.3-15.5-10L80.5,61c0.1-0.4,0.4-0.7,0.7-0.8c0.2-0.1,0.6,0,0.9,0.2L101.2,72z"/>
	<path class="st2" d="M60.8,60.2l1.5,0.3c-0.4,1.7,0.2,2.5,1.8,2.4c0.3,0,0.6,0.1,0.7,0.4c0.4,1.2-0.2,1.7-2,1.3
		c-0.2,0-0.4,0.1-0.5,0.3c0,0.8-0.2,1.7-0.6,2.3l-0.7,0c-0.6-0.6-0.8-1.4-0.6-2.2c0-0.2-0.1-0.3-0.3-0.4H60
		c-0.9,0.2-3.7-0.3-1.9-1.6c0.1-0.1,0.4-0.2,0.9-0.2l1-0.2c0.2,0,0.4-0.3,0.3-0.7C60.3,61.4,60.4,60.8,60.8,60.2z"/>
	<path class="st16" d="M27,62l-0.5,0.3c-0.7-0.2-1.1,0-1.2,0.5h-1C25,61.2,25.9,60.9,27,62z"/>
	<path class="st14" d="M81,61.2c5.6,2.7,10.8,6,15.5,10c-1.6,1.1-2.1,1.1-1.6,0c0.4-0.9-0.7-1.7-1.4-1c-0.9,1-0.1,2.4,1.1,2.7
		c0.5,0.2,0.5,0.5,0.5,0.9c-0.6,0.5-0.7,1.1-0.3,1.7c0.2,0.2,0.5,0.3,0.8,0.3c1,0,1.4,0.4,1.1,1.3c-0.1,0.4-0.1,0.7,0,0.9
		c0.3,0.7,0.9,0.9,1.7,0.8c0.3,0,0.6,0.1,0.7,0.3c0.1,0.3,0.1,0.6,0,0.8c-0.3,1.1,0.5,1.7,1.4,1.8c0.7,0,0.7-0.8,0.3-1.2
		c-0.2-0.2-0.3-0.5-0.1-0.7c0.7-1.2,0.8-2.5,0.3-3.8v-1.2c-2.2-3.6-3.9,1.6-5.2-0.8c1.2-0.1,2.1-0.7,2.6-1.8l1.7,0.3
		c0.4,0.1,0.8,0,0.9-0.1c0.1-0.2,0.1-0.4,0-0.7c0.9-1.1,0.9-2.1-0.2-3c0.3-0.6,0.4-1.2,0.2-2l1.2,0.2v30.8c0,0.7-0.6,1.1-1.2,1
		c-2-0.4-3,0.3-2.8,2.1c0,0.3-0.1,0.6-0.4,0.6l-2,0.5c-0.2,0.1-0.4-0.1-0.5-0.3v-0.1c-0.3-11.6-6-20.2-16.8-25.3l5.5-8.8
		c0.3,0.2,0.4,0.7,0.5,1.3c0.8,10.6,5.9,18.4,15.3,23.4c0.4,0.2,2,0.9,1.7-0.1c-0.1-0.3-0.3-0.5-0.7-0.6c-2.6-1.1-4.8-2.8-6.5-5.1
		c1.3-0.8,2.3-1.8,3-3c0.8,0.2,1.2,0.7,1.4,1.5c-1.5,0.3-2.3,1.2-2.5,2.8c-0.1,1.3,0.3,1.5,1.3,0.6c0.9-0.8,1.5-1.9,1.7-3
		c0.8-0.1,1.2,0.2,1.2,0.9c-4,5.8,2.1,4.4,0.8,0.1c0.4-0.8,0-1.6-0.8-2.1c-5.1-3.6-8.2-8.6-9.1-15.1c-0.1-0.6-0.5-1-1.1-1.1
		C89,67,87.6,66.8,86,67l-0.3-0.8c0.3-1,0-1.7-0.7-2c-0.2-0.1-0.5,0-0.7,0.3L83,66.2l-0.3-2.7c0-0.3-0.3-0.5-0.6-0.4l0,0
		c-1.8,0.3-2.6,1.3-2.3,3.1c0,0.3-0.1,0.5-0.4,0.6c-1.3,0.4-2.1,1.3-2.4,2.6c-0.2,1.2,2.4,0.9,3.1,0.6c0.3-0.1,0.4-0.4,0.3-0.7
		c-0.9-2.4,0-3.4,2.6-3.1L77.5,76l-3.8-0.8c-0.3-0.1-0.5-0.4-0.4-0.8c0-0.1,0.1-0.2,0.1-0.2l7.4-11.6C81,62.3,81,61.6,81,61.2z
		 M77.8,73.3c0.4-7.7-6.8,3.8-0.5,0.7C77.6,73.9,77.8,73.6,77.8,73.3z"/>
	<path class="st3" d="M26.5,62.2l1.2,3.6c0.1,0.2,0,0.5-0.3,0.6l0,0c-0.9,0.2-1.8,0.2-2.7,0c-0.2,0-0.4-0.3-0.3-0.6l0,0l0.8-3.1
		C25.3,62.2,25.8,62,26.5,62.2z"/>
	<path class="st2" d="M83,66.2c-2.6-0.4-3.4,0.7-2.6,3.1c0.1,0.3,0,0.6-0.3,0.7c-0.7,0.4-3.3,0.6-3.1-0.6c0.3-1.4,1.1-2.2,2.4-2.6
		c0.3-0.1,0.4-0.4,0.4-0.6c-0.3-1.8,0.4-2.8,2.3-3.1c0.3,0,0.5,0.1,0.6,0.4l0,0L83,66.2z"/>
	<path class="st8" d="M85.7,66.2L84,67.5l-5.5,8.8l-1-0.2l5.5-9.8l1.3-1.7c0.2-0.3,0.5-0.4,0.7-0.3C85.7,64.6,86,65.3,85.7,66.2z"/>
	<path class="st7" d="M47.8,66.5c-0.5,0.1-0.6,0.5-0.3,1.2l-0.8,0.5l-0.5-0.5l-0.3-3C47.7,62.9,45.9,66.4,47.8,66.5z"/>
	<path class="st14" d="M49.8,91.5l-5.4,8.7c-0.6,0.9-0.9,0.9-0.9-0.2c0-3.8-0.8-7.2-2.2-10.3c-2.8-6.5-7.3-11.2-13.7-14.3
		c-0.6-0.3-0.9-0.2-1,0.2c0,0.3,0.2,0.6,0.5,0.7c4.9,2.5,8.7,6.1,11.4,10.9c-2-0.5-3.2,0.3-3.5,2.5l-6-6.5c1.6-0.2,2.5-1,2.9-2.6
		c0.1-0.3-0.1-0.6-0.4-0.7c-1.4-0.4-2.7,2.1-2.5,3.3c-0.9-0.1-1.4-0.6-1.5-1.5c0.6-0.7,1.1-1.6,1.4-2.6c0.1-0.4,0.1-0.7-0.1-0.9
		c-1.2-1.5-2.2,2.6-2,3.5c-0.4,0.9-0.3,1.6,0.3,1.9c5.7,4,8.9,9.3,9.7,15.9c-1.5,0.7-2.4,0.2-2.8-1.6c3.3-3.2-2.7-2.5-1.2-4
		c0.8-1.6,0.3-2.2-1.4-2.1c-0.3,0-0.3-0.1-0.3-0.3c0.6-1.8,0.1-2.7-1.7-2.7c-0.2,0-0.4-0.2-0.4-0.4c0,0,0,0,0-0.1
		c0.2-0.9-0.1-1.6-0.8-2.2C27.9,86,27.6,86,27.3,86c-1,0.3-1,0.7,0,1.3c0.2,0.1,0.2,0.3,0.1,0.5c0,0,0,0,0,0.1
		c-0.9,0.9-1.1,2.1-0.8,3.5c0.1,0.2,0.3,0.4,0.5,0.3c0,0,0,0,0.1,0c0.7-0.3,1.3-0.8,1.8-1.5c0.1-0.3,0.5-0.2,0.6-0.1
		c0.2,0.1,0.1,0.4-0.1,0.7c-0.6,0.8-1.4,1.5-2.4,2c-0.2,0.1-0.3,0.3-0.2,0.5v0.1c0.7,0.8,1.6,1,2.8,0.8l0.3,0.5l-0.3,1
		c-0.6,0-1.2-0.2-1.7-0.6c-0.3-0.2-0.6-0.3-0.8-0.2C26.8,95,26.7,95.4,27,96c-0.8,1-0.8,2,0,3c-0.5,0.6-0.7,1.2-0.5,2l-0.1,0.2h-0.9
		V68.6c0-0.2,0.2-0.4,0.5-0.4c2.2,0.3,3.4-0.3,3.5-2c0-0.4,0.2-0.7,0.4-0.8l1.9-0.7c0.2-0.1,0.4,0.1,0.5,0.3v0.1
		C33.4,77.5,37.8,86.6,49.8,91.5z M31.3,85c0.4,0.4,1.3,0,2.1-0.8l0,0c0.8-0.8,1.2-1.8,0.8-2.1l0,0c-0.4-0.4-1.3,0-2.1,0.8l0,0
		C31.3,83.7,30.9,84.7,31.3,85L31.3,85z M33.8,87.3c0.7,0.1,1.4-0.1,1.8-0.7c0.7-1,0.9-1.7,0.4-2.3c-0.1-0.2-0.5-0.2-0.7,0l0,0
		L33.4,86c-0.3,0.2-0.4,0.6-0.3,0.8C33.3,87.1,33.5,87.2,33.8,87.3z"/>
	<path class="st20" d="M40.5,66.6l1.2,0.5c0.3,0.1,0.5,0.4,0.4,0.6l0,0c-0.1,0.1-0.2,0.2-0.3,0.3c-0.2,0.1-0.4,0.1-0.6-0.1
		c-0.5-0.5-1.1-0.9-1.8-1.1c-0.3-0.1-0.4-0.3-0.4-0.6c0.3-1.2,0.6-1.3,0.9-0.3C40,66.3,40.2,66.5,40.5,66.6z"/>
	<path class="st6" d="M35.3,68.9c0.5-1,0.7-3.7,1.7-2.3c0.2,0.3,0.3,0.6,0.2,0.9l-0.5,1.3c-0.1,0.3-0.1,0.6,0.1,0.8
		c0.6,0.8,0.6,1.6,0.1,2.4c-0.2,0.2-0.3,0.2-0.5-0.1l-1-2.2C35.2,69.4,35.2,69.1,35.3,68.9z"/>
	<path class="st22" d="M85.7,66.2L86,67c-0.4,0.7-0.4,1.3,0,2c-0.4,0.7-0.4,1.2,0.2,1.5l0.5,1.7c-0.5,0.6-0.5,1.3,0,2l0.5,1
		c-0.1,0.8,0.1,1.4,0.7,2l0.3,1l1.5,2.5c0.7,2.2,2,3.8,4,5l0.5,0.6c1.7,2.3,3.9,3.9,6.5,5.1c0.3,0.2,0.6,0.4,0.7,0.6
		c0.4,1-1.2,0.3-1.7,0.1c-9.4-5-14.5-12.8-15.3-23.4c-0.1-0.6-0.2-1.1-0.5-1.3L85.7,66.2z"/>
	<path class="st16" d="M86,67c1.5-0.2,2.9,0,4.2,0.8l-0.5,1L86,69C85.7,68.3,85.7,67.7,86,67z"/>
	<path class="st15" d="M46.2,67.7l0.5,0.5c-0.2,0.4-0.9,0.8-0.9,1.4c0,0.8-0.3,1.5-1.1,2l-0.2-0.1C44.8,70.1,45.4,68.8,46.2,67.7z"
		/>
	<path class="st8" d="M90.3,67.7c0.7,0.1,1,0.5,1.1,1.1c0.9,6.4,4,11.5,9.1,15.1c0.8,0.5,1.1,1.3,0.8,2.1l-0.8-0.1
		c0-0.8-0.4-1.1-1.2-0.9l-0.5-0.3c-0.2-0.8-0.7-1.3-1.4-1.5L97,83l-3.7-4.5l-0.5-0.8c0-0.8-0.4-1.3-1.2-1.5L91.2,75L91,74l-0.2-1.5
		l-0.8-1l0.2-1.2c0.2-0.7,0.1-1.2-0.5-1.5L90.3,67.7z"/>
	<path class="st7" d="M43.8,69.1c-3.2,5.6-0.6-2,0.1-0.8C44,68.6,43.9,68.9,43.8,69.1z"/>
	<path class="st7" d="M48.1,70.7c0.3,0.3,0.7,0.5,1.2,0.7c0.1,0,0.3,0.4,0.1,0.4C48.8,72.6,49,73,50,73.2c0.3,0.1,0.4,0.3,0.4,0.5
		l0,0c-0.1,0.3-0.3,0.6-0.6,0.9c-0.2,0.1-0.4,0.1-0.6,0l-0.1-0.1L47,69.6c-0.2-0.5-0.1-0.8,0.5-0.7c0.7,0.1,0.9,0.4,0.6,1
		C47.9,70.2,48,70.5,48.1,70.7z"/>
	<path class="st14" d="M89.8,68.7c0.5,0.3,0.7,0.9,0.5,1.5c-1.3-0.3-2.7-0.2-4,0.3c-0.6-0.3-0.7-0.9-0.2-1.5L89.8,68.7z"/>
	<path class="st7" d="M41.2,72.7H41c0.1-0.9-0.2-1.7-0.7-2.4c-0.3-0.4-0.5-1.4,0.1-1.2c0.2,0.1,0.5,0.3,0.6,0.5
		C41.4,70.6,41.5,71.6,41.2,72.7z"/>
	<path class="st6" d="M58.3,71l-0.5,9.7l-2.5,0.1l-0.5-0.5l-0.4-1.5c-0.1-0.3-0.3-0.6-0.5-0.8c-0.3-0.2-0.4-0.5-0.5-0.7
		c-0.2-1.6-0.7-3.1-1.6-4.4c0.7-1.5,0.3-2.2-1.2-2l-0.8-1c1.9-1.1,3.1-0.7,3.6,1.2c0.1,0.3,0.2,0.3,0.4,0.1
		C55.1,69.1,56.7,69.1,58.3,71z M56.8,71.3c-2.7-1.5-1.6,4.8-1.7,6.1c0,0.3,0.1,0.7,0.3,0.9c2.1,2.1,1.6-5.9,1.7-6.5
		C57.1,71.6,57,71.4,56.8,71.3z"/>
	<path class="st6" d="M59,80.7l0.2-9.4c2.7-2,4.3-1.3,4.9,2.1c0.1,0.3,0.2,0.4,0.4,0.1c1.5-1.8,2.9-1.8,4.2,0.1
		c0.2,0.2,0.3,0.6,0.3,0.9V80c0,0.4-0.3,0.8-0.7,0.8L59,80.7z M61.2,78.7c0.5,0.2,1.1-5.2,1.3-5.9c0.1-0.3,0-0.7-0.2-0.9
		c-0.6-0.8-1.2-0.9-1.8,0c-0.1,0.2-0.2,0.5-0.1,0.9l0.5,5.2C60.8,78.3,61,78.6,61.2,78.7z M67.5,73.9c-2-2.7-1.8,3-1.2,4.2
		c0.2,0.3,0.3,0.3,0.5,0C67.4,76.9,68.1,75.3,67.5,73.9z"/>
	<path class="st2" d="M90.2,70.2L90,71.5l-3.2,0.8l-0.5-1.7C87.6,70,88.9,69.9,90.2,70.2z"/>
	<path class="st12" d="M96.6,71.2c0.5,0.6,1.2,1,2,1.3c-0.5,1.1-1.3,1.6-2.6,1.8L95.2,74c0-0.4,0-0.7-0.5-0.9c-1-0.3-1.4-1-1.5-1.9
		c0-0.3,0.1-0.6,0.4-0.8c0.5-0.4,0.9-0.4,1.3,0.1c0.2,0.2,0.2,0.5,0.1,0.9C94.4,72.3,95,72.3,96.6,71.2z"/>
	<path class="st23" d="M50.5,70.8c1.5-0.2,1.9,0.4,1.2,2L50.5,70.8z"/>
	<path class="st2" d="M77.4,74c-6.4,3,0.8-8.5,0.5-0.7C77.8,73.6,77.6,73.9,77.4,74z"/>
	<path class="st4" d="M56.8,71.3c0.2,0.1,0.2,0.3,0.2,0.4c-0.1,0.6,0.4,8.6-1.7,6.5C55.1,78,55,77.7,55,77.3
		C55.2,76.1,54.2,69.9,56.8,71.3z"/>
	<path class="st23" d="M58.3,71l1,0.3L59,80.7h-1.2L58.3,71z"/>
	<path class="st15" d="M48,75c-1.2-0.8-1.8-1.9-1.8-3.2c0-0.5,0.1-0.5,0.3-0.1L48,75z"/>
	<path class="st4" d="M62.4,72.8c-0.1,0.7-0.8,6.1-1.3,5.9c-0.2-0.1-0.4-0.4-0.4-0.8l-0.5-5.2c0-0.4,0-0.7,0.1-0.9
		c0.6-0.8,1.2-0.8,1.8,0C62.4,72.1,62.5,72.4,62.4,72.8z"/>
	<path class="st7" d="M44.5,71.5l0.2,0.1c0.2,0.7,0.1,1.2-0.5,1.5c-0.2,0.1-0.4,0-0.5-0.2C43.7,72.3,44,71.7,44.5,71.5z"/>
	<path class="st14" d="M90,71.5l0.8,1c-1.5,0.2-2.9,0.8-4,1.8c-0.5-0.8-0.6-1.4,0-2L90,71.5z"/>
	<path class="st2" d="M90.8,72.5L91,74l-3.8,1.3l-0.5-1C87.9,73.3,89.2,72.7,90.8,72.5z"/>
	<path class="st11" d="M41,72.7h0.2c0.4,0.2,0.6,0.4,0.7,0.8c0.1,0.3-0.1,0.6-0.4,0.8C41.1,74.5,40.9,74,41,72.7z"/>
	<path class="st24" d="M42.7,79.5l1.3,1.8c-0.6,2.5,0.3,3.3,2.5,2.2l2.8,1.8c-0.1,2.5,1,2.9,3.2,1.5l0.8,0.3
		c-0.8,0.7-0.3,1.8,0.7,1.5c0.7-0.3,1.5-0.1,2.1,0.6c0.8,0.8,0.6,1.1-0.7,0.9c-2.8-0.4-5.5-1.3-7.9-2.8c-0.3-0.1-0.6-0.1-0.9,0.1
		c-0.1,0.1-0.2,0-0.3-0.1l0,0c-1-1.5-5.4-4.8-5.5-5.5c0-0.4-0.1-0.7-0.3-0.9c-1-1.5-3.5-3.9-3.7-5.6c-0.3-2.1,0.2-2.7,1.5-1.7
		c0.2,0.2,0.3,0.5,0.3,0.8c0,0.7,0.2,1.2,0.7,1.6c0.3,0.2,0.4,0.5,0.4,0.7C39.5,78.9,40.5,79.8,42.7,79.5z"/>
	<path class="st4" d="M66.3,78.1c-0.6-1.2-0.8-6.9,1.2-4.2c0.2,0.3,0.3,0.6,0.2,0.9c-0.1,1.1-0.4,2.2-0.9,3.3
		C66.6,78.4,66.5,78.4,66.3,78.1z"/>
	<path class="st8" d="M101.2,75l-2.8,2.1c-0.2,0.1-0.2,0.3-0.2,0.5c0,0.1,0.1,0.2,0.1,0.3c0.2,0.2,0.5,0.1,0.7-0.1l0,0
		c0.6-0.7,1.3-1.2,2.1-1.5c0.4,1.3,0.3,2.6-0.3,3.8c-0.3,0.6,0.5,0.8,0.4,1.4c0,0.3-0.3,0.5-0.6,0.5c-0.9,0-1.7-0.8-1.4-1.8
		c0.2-0.6,0-1.2-0.7-1.1c-1.1,0.2-2.1-0.6-1.7-1.7c0.3-0.9-0.1-1.3-1.1-1.3c-0.4,0-0.7-0.1-0.8-0.3c-0.5-0.6-0.4-1.1,0.3-1.7
		l0.7,0.3C97.3,76.6,99,71.4,101.2,75z"/>
	<path class="st14" d="M91,74l0.2,1c-1.5,0.2-2.5,1-3.2,2.2c-0.6-0.5-0.8-1.2-0.7-2L91,74z"/>
	<path class="st7" d="M44.9,75.2c-0.9-2.5,4.2,1.6,0.7,0.6C45.2,75.7,45,75.5,44.9,75.2z"/>
	<path class="st15" d="M48,75c1.3-0.3,1.1,2.1,3.2,2c-0.3,0.4,0,0.9,1,1.7c0,0,0.1,0.1,0,0.2l0,0c-0.7,0.3-1,0.2-1.1-0.1
		c-0.1-0.4-0.2-0.7-0.4-0.8C49.6,77.3,48.7,76.2,48,75z"/>
	<path class="st7" d="M51.2,77C48.8,72.8,54,76.5,51.2,77z"/>
	<path class="st2" d="M91.2,75l0.3,1.2c-0.9,1-2,1.7-3.2,2l-0.3-1C88.7,76,89.8,75.2,91.2,75z"/>
	<path class="st7" d="M101.2,75v1.2c-0.8,0.3-1.5,0.8-2.1,1.5c-0.2,0.2-0.5,0.3-0.7,0.1l0,0c-0.2-0.2-0.1-0.7,0.1-0.8L101.2,75z"/>
	<path class="st22" d="M41.2,89.7l-1,0.5l-0.5-0.5c0.1-1-0.3-1.9-1.2-2.5c-2.7-4.8-6.5-8.4-11.4-10.9c-0.8-0.4-0.6-1.5,0.5-0.9
		C33.9,78.5,38.5,83.3,41.2,89.7z"/>
	<path class="st11" d="M47.5,81.8c0.4,0,1.3-0.1,1.4,0.3c1.6,1.8-0.8,0.9-1.3,0.6c-2.1-1.6-3.8-3.6-5.2-5.8c-0.2-0.3-0.2-0.6,0-0.8
		c0.4-0.6,1.7,0.2,1.4,1.1c0,0.9,0.2,1.5,1,1.9c0.9,0.5,1.6,1.2,2,2.2C47,81.6,47.3,81.8,47.5,81.8z"/>
	<path class="st14" d="M91.5,76.2c0.8,0.2,1.2,0.6,1.2,1.5c-1.5,0.5-2.5,1.5-3,3l-1.5-2.5C89.6,77.9,90.7,77.2,91.5,76.2z"/>
	<path class="st15" d="M46.8,77.2c1.1-0.6,1.9-0.3,2.4,1c0.1,0.3,0.1,0.6-0.1,0.9c-2.1,3.1-0.8-1.9-3.3-1.3c-0.3,0.1-0.5,0-0.6-0.2
		c0,0,0,0,0-0.1c-0.1-0.5,0.2-0.6,0.7-0.3C46.2,77.3,46.5,77.3,46.8,77.2z"/>
	<path class="st21" d="M74.5,77l1.2,0.2c0,1.6,1,2.5,3.2,2.5l-0.7,0.9c-0.9-0.4-1.6-0.1-2,0.8L74.7,81c0.5-1.4,0.2-1.9-0.9-1.5
		c-0.4,0.1-0.7,0.1-0.9,0c-0.5-0.3-0.8-0.7-0.7-1.2c0-0.2,0.2-0.4,0.5-0.3h0.1C73.6,78.2,74.2,77.9,74.5,77z"/>
	<path class="st25" d="M75.7,77.3c14.8,4.5,20.1,17.7,17.9,32.1c-0.1,0.3-0.2,0.6-0.5,0.8c-3.6,2.7-7.5,4.7-11.7,6.1H81l-0.5-0.1
		l-0.3-1V115c0.9-0.8,1.1-1.8,0.8-3l1.2,0.5c-0.2,2.2,0.4,2.6,2,1.5c0.5,0.1,1,0,1.3-0.2c0.2-0.1,0.4-0.5,0.4-0.8v-7.5
		c0.8,0.4,1.5,0.3,1.9-0.2c0.2-0.2,0.4-0.2,0.6-0.1c0,0,0,0,0,0.1c0.3,0.5,0.3,1-0.1,1.6c-0.9,1.6-1.1,3.3-0.6,5.1
		c0.1,0.2,0.3,0.4,0.5,0.3c0,0,0,0,0.1,0c1.3-0.6,2.5-1.4,3.5-2.5c0.2-0.2,0.3-0.5,0.2-0.9c-0.1-1.1,0.1-2.2,0.6-3.3
		c0.1-0.2,0-0.5-0.2-0.7c-0.4-0.3-0.5-0.7-0.2-1.1c0.2-0.3,0.3-0.7,0.2-0.9c-0.3-0.8-2.2,0.7-1.3,1.9c0.2,0.2,0.2,0.5,0.1,0.8
		l-0.7,2.2c-0.1,0.3-0.3,0.5-0.5,0.4l0,0c-0.3-0.1-0.5-0.4-0.5-0.8c0.4-2.2,0.5-4.5,0.1-6.8c0.6,0.4,1.2,0.7,1.9,0.8
		c0.2,0,0.4-0.2,0.5-0.5l0.3-2c0.1-0.4,0.1-0.7,0-0.9c-0.9-1.9-1.4-4-1.5-6.1c0-0.3-0.1-0.6-0.3-0.9c-2-2.4-3.5-5.5-5.7-7.4
		c-1.9-1.6-3.9-2.9-6-4C76.7,79.7,75.7,78.9,75.7,77.3z"/>
	<path class="st2" d="M92.8,77.7l0.5,0.8c-0.6,1.8-1.7,2.5-3.5,2.2C90.2,79.2,91.2,78.2,92.8,77.7z"/>
	<path class="st2" d="M27.5,81.8h-0.7c-0.2-0.8,0.8-5,2-3.5c0.2,0.2,0.2,0.6,0.1,0.9C28.6,80.2,28.1,81,27.5,81.8z"/>
	<path class="st10" d="M93.3,78.5L97,83c-1.9-0.1-3,0.8-3.2,2.8c-2-1.1-3.3-2.8-4-5C91.5,81,92.7,80.3,93.3,78.5z M94.8,81
		c-1.3-0.5-2.3-0.1-3,1.2c-0.3,0.6-0.3,1.1,0.2,1.4c0.2,0.2,0.6,0.1,0.9-0.1c1-0.6,1.6-1.4,2-2.3C95,81.2,94.9,81.1,94.8,81z"/>
	<path class="st20" d="M54.3,78.7l0.4,1.5C53,80,52.9,79.5,54.3,78.7z"/>
	<path class="st7" d="M52.8,81c-1.6,0.6-2.5,0.2-2.7-1.1c-0.1-0.7,0.8-1,1.1-0.3c0.1,0.4,0.3,0.6,0.5,0.8L52.8,81z"/>
	<path class="st2" d="M29,83.2c-0.2-1.1,1.1-3.7,2.5-3.3c0.3,0.1,0.4,0.4,0.4,0.7C31.5,82.2,30.6,83.1,29,83.2z"/>
	<path class="st24" d="M78.9,79.8c2.1,1.1,4.1,2.4,6,4c2.2,1.8,3.7,5,5.7,7.4c0.2,0.2,0.3,0.6,0.3,0.9c0.1,2.1,0.6,4.2,1.5,6.1
		c0.1,0.2,0.1,0.5,0,0.9l-0.3,2c0,0.3-0.3,0.5-0.5,0.5c-0.7-0.1-1.3-0.3-1.9-0.8L89.5,98c1.1-0.6,1.8-1.9,0.9-2.8
		c-1.3-1.3-2-3-2.2-4.9c0-0.2-0.2-0.5-0.4-0.8l-4-5c-0.2-0.2-0.5-0.4-0.8-0.3c-1.2,0.2-1.9-0.3-2.2-1.3c-0.1-0.3-0.3-0.5-0.6-0.6
		c-0.9-0.2-1.6-0.7-2-1.5L78.9,79.8z"/>
	<path class="st12" d="M74.7,81l1.5,0.5C83.6,84.7,88,90.1,89.5,98l0.2,2.8c0.4,2.3,0.3,4.5-0.1,6.8l-1.2-0.5
		c0.4-0.6,0.4-1.1,0.1-1.6c-0.1-0.2-0.4-0.2-0.6-0.1c0,0-0.1,0-0.1,0.1c-0.5,0.5-1.1,0.5-1.9,0.2l-1.7-1.3l-0.8-0.5l-0.3-0.7l-2-2.9
		L80,100v-0.7c2.1-0.9-0.4-4.4-1.1-5.8c-0.1-0.2-0.4-0.3-0.6-0.2c0,0,0,0-0.1,0c-1.2,0.9,0.8,1.5,0.9,2.8c0,0.3,0.2,0.6,0.5,0.7
		c0.9,0.5,0.9,1.2-0.1,2l-1.2-1L78.2,97l-1.7-2.5l-0.8-1.7c1.3-0.1,1.6-0.7,1-1.8l0.2-1c-0.5-1.2-1.4-1.8-2.7-1.7l-1-1.1l-1.2-3
		c-0.1-0.3-0.1-0.7,0.2-0.9c0.3-0.3,0.6-0.5,1-0.6c0.3-0.1,0.4-0.2,0.1-0.4C70,79.5,73.3,80.6,74.7,81z M78.5,84.7
		c0.3,0.9,0.9,1.3,1.7,1.3c0.4,0,0.7,0.1,0.9,0.3c0.4,0.4,0.6,0.9,0.7,1.6c0.1,0.3,0.3,0.5,0.5,0.6c2.3,0.8,1.4,3.5,2.9,3.5
		c0.2,0,0.4-0.2,0.3-0.4v-0.1c-1.4-3.2-3.7-5.6-6.8-7.1c-0.8-0.8-1.7-1.3-2.7-1.6c-0.4-0.1-0.5,0-0.4,0.4
		C76,84.4,77.5,83.6,78.5,84.7z M74.2,86.5c-0.1,0.4,0.2,0.6,0.8,0.5c0.3,0,0.5-0.3,0.5-0.6l0,0c-0.1-0.3-0.3-0.5-0.6-0.5
		C74.5,86,74.2,86.2,74.2,86.5z M77.2,87.2c-0.6-0.1-0.7,0.1-0.4,0.7c0.4,0.7,0.9,0.9,1.5,0.7c0.2-0.1,0.3-0.4,0.2-0.6
		c0,0,0-0.1-0.1-0.1C78.1,87.4,77.7,87.2,77.2,87.2z M82.6,93.6c0.3,0.3,0.5,0.2,0.4-0.2c-0.1-1.2-0.5-1.7-1.2-1.2
		c-0.2,0.1-0.3,0.4-0.2,0.6c0,0,0,0.1,0.1,0.1L82.6,93.6z M80.3,93.1c-0.9-0.1,2.8,5.5,0.4,0.3C80.6,93.3,80.5,93.2,80.3,93.1z
		 M86.7,97.5c-0.1,0.6,0.1,1.1,0.6,1.4c0.4,0.2,0.6,0.2,0.8,0.1c0.2-0.2,0.1-0.5-0.2-0.9c-0.6-0.9-0.9-1.9-0.7-3
		c0.1-0.3,0-0.7-0.2-0.9c-1-1.4-1.4-1.3-1.1,0.2c0,0.2,0.2,0.5,0.5,0.8C86.9,95.6,87,96.3,86.7,97.5z M84.4,95.2
		c-0.5-2.1-2.2,2.3-2.3,2.9c-0.1,0.3,0.1,0.6,0.4,0.6c0.1,0,0.3-0.3,0.3-0.6c0-1,0.5-1.7,1.3-2.2C84.3,95.8,84.5,95.5,84.4,95.2z
		 M84.7,99.4c0.5-0.2,0.7-0.6,0.8-1.1c0-0.2-0.2-0.6-0.5-0.5c-0.9,0.1-1.2,0.5-0.9,1.3C84.1,99.4,84.4,99.5,84.7,99.4
		C84.6,99.4,84.7,99.4,84.7,99.4z M84.2,101.2c-0.1-3-2,0.5-0.5,0.6C83.9,101.7,84.2,101.5,84.2,101.2L84.2,101.2z M85.3,101.7
		c-0.5,0.4-0.2,1.4,0.5,1.2c0.4-0.1,0.5-0.3,0.4-0.8c-0.1-0.2,0-0.5,0.2-0.8l0.5-0.7c0.3-0.4,0.2-0.6-0.3-0.6s-0.7,0.2-0.8,0.8
		C85.7,101.2,85.5,101.5,85.3,101.7z M88.8,101.9c-1.4-3.1-0.9,1.8,0,0.7C89,102.4,89,102.1,88.8,101.9z"/>
	<path class="st25" d="M78.2,80.7c0.4,0.8,1.1,1.3,2,1.5c0.3,0.1,0.5,0.3,0.6,0.6c0.3,1.1,1,1.5,2.2,1.3c0.3,0,0.6,0.1,0.8,0.3l4,5
		c0.2,0.3,0.4,0.6,0.4,0.8c0.1,1.9,0.9,3.6,2.2,4.9c0.9,1,0.2,2.2-0.9,2.8c-1.6-7.9-6-13.3-13.3-16.5C76.6,80.6,77.3,80.3,78.2,80.7
		z"/>
	<path class="st2" d="M94.8,81c0.1,0,0.2,0.2,0.1,0.3c-0.4,0.9-1,1.7-2,2.3c-0.3,0.2-0.6,0.2-0.9,0.1c-0.5-0.3-0.6-0.8-0.2-1.4
		C92.5,81,93.5,80.6,94.8,81z"/>
	<path class="st7" d="M52.8,81c0.8-0.2,1.2-0.1,1.2,0.3c0,0.3-0.2,0.6-0.6,0.7C52.9,82.2,52.6,81.8,52.8,81z"/>
	<path class="st25" d="M44,81.2l2.5,2.2C44.3,84.5,43.5,83.8,44,81.2z"/>
	<path class="st8" d="M26.8,81.7h0.7c0.1,0.9,0.6,1.4,1.5,1.5l6,6.5l0.3,0.3c0,0.8,0.4,1.4,1.2,1.8l0.3,1c-0.2,0.7-0.1,1.2,0.5,1.5
		l0.3,1C37,96,37.2,96.5,38,96.7V98l0.2,1c-0.6,0.1-0.9,0.4-0.8,1l-0.7-0.3c-0.8-6.6-4-11.9-9.7-15.9C26.5,83.3,26.4,82.7,26.8,81.7
		z"/>
	<path class="st2" d="M32.1,83c2-1.9,3.2-0.7,1.3,1.3C31.4,86.2,30.2,84.9,32.1,83z"/>
	<path class="st8" d="M68.5,82.8l1.5-0.3c0.3-0.1,0.5,0.2,0.6,0.5c0.5,2.6-0.1,3.3-1.9,2.2c-0.2-0.1-0.5-0.1-0.7,0.2v0.3
		c-0.1,0.1-0.2,0.2-0.4,0.2c-1.3,0.1-4,0-8.3-0.3c-1.4-0.1-1.9-0.9-1.5-2.4c0.1-0.3,0.3-0.5,0.6-0.6c2.9-0.7,6-0.9,9-0.6
		c0.3,0,0.6,0.2,0.7,0.4C68.2,82.5,68.3,83,68.5,82.8z"/>
	<path class="st11" d="M78.8,84.5l-0.3,0.3c-1-1.2-2.5-0.4-2.8-1.5c-0.1-0.4,0-0.5,0.4-0.4C77.1,83.2,78,83.7,78.8,84.5z"/>
	<path class="st2" d="M97,83l0.3,0.3c-0.8,1.3-1.8,2.3-3,3l-0.5-0.6C94,83.7,95.1,82.8,97,83z"/>
	<path class="st2" d="M33.8,87.3c-0.3-0.1-0.5-0.2-0.6-0.5c-0.1-0.2,0-0.6,0.3-0.8l1.9-1.7c0.2-0.2,0.5-0.2,0.7,0l0,0
		c0.4,0.6,0.3,1.3-0.4,2.3C35.2,87.2,34.5,87.4,33.8,87.3z"/>
	<path class="st11" d="M52.6,84.9c-3.8-0.3-0.4-1.5,0.2-0.3C53,84.8,52.9,84.9,52.6,84.9z"/>
	<path class="st19" d="M78.8,84.5c3.1,1.5,5.4,3.9,6.8,7.1c0.1,0.2,0,0.4-0.2,0.5c-1.6,0.1-0.8-2.7-3-3.5c-0.3-0.1-0.5-0.3-0.5-0.6
		c-0.2-0.9-0.5-1.9-1.6-1.9c-0.8,0-1.4-0.5-1.7-1.3L78.8,84.5z"/>
	<path class="st2" d="M98.7,84.7l0.5,0.3c-0.2,1.2-0.8,2.2-1.7,3c-1,0.9-1.5,0.8-1.3-0.6C96.4,86,97.2,85,98.7,84.7z"/>
	<path class="st25" d="M49.3,85.2l3.2,1.5C50.3,88.2,49.2,87.7,49.3,85.2z"/>
	<path class="st8" d="M32.8,94l-1-0.3c-0.8-1.4-1.5-1.2-2,0.5c-1.2,0.2-2.1,0-2.8-0.8c-0.1-0.2-0.1-0.4,0.1-0.6c0,0,0.1,0,0.1-0.1
		c1-0.5,1.8-1.2,2.4-2c0.4-0.6,0-1.1-0.5-0.6c-0.4,0.7-1,1.2-1.8,1.5c-0.2,0.1-0.5,0-0.6-0.2c0,0,0,0,0-0.1
		c-0.3-1.4-0.1-2.5,0.8-3.5c0.1-0.2,0.1-0.4,0-0.5c0,0,0,0-0.1,0c-1-0.6-1-1,0-1.3c0.3-0.1,0.7,0,0.9,0.2c0.7,0.5,1,1.3,0.8,2.2
		c0,0.2,0.1,0.4,0.3,0.5c1.8,0,2.4,1,1.8,2.7c-0.1,0.1,0,0.3,0.2,0.4h0.1C33.1,91.8,33.5,92.5,32.8,94z"/>
	<path class="st20" d="M74.8,86c0.3,0,0.6,0.1,0.6,0.5c0.1,0.3-0.1,0.6-0.5,0.6l0,0c-0.6,0.1-0.8-0.1-0.8-0.5
		C74.2,86.2,74.5,86,74.8,86z"/>
	<path class="st2" d="M100.5,86l0.8,0.1C102.6,90.4,96.5,91.8,100.5,86z"/>
	<path class="st2" d="M38.5,87.2c-0.6,1.5-1.6,2.4-3.2,2.8L35,89.7C35.3,87.6,36.5,86.7,38.5,87.2z"/>
	<path class="st7" d="M77.2,87.2c0.6,0.1,1.8,0.6,1.1,1.3c0,0-0.1,0-0.1,0.1c-0.6,0.3-1.1,0.1-1.5-0.7
		C76.5,87.3,76.6,87.1,77.2,87.2z"/>
	<path class="st14" d="M38.5,87.2c0.9,0.6,1.3,1.4,1.2,2.5l-3.3,2c-0.8-0.3-1.2-0.9-1.2-1.8C36.9,89.6,37.9,88.7,38.5,87.2z"/>
	<path class="st6" d="M60.2,95.5c-0.5-0.2-0.9-0.7-0.9-1.3l0.1-6.3c0-0.3,0.2-0.6,0.5-0.6h3.3c0.3,0,0.5,0.3,0.5,0.6
		C63.8,90.1,64.9,97.4,60.2,95.5z M61.4,94.3c0.4,0.1,0.7,0,1-0.2c0.2-0.2,0.3-0.5,0.2-0.9c-0.8-5.2-1.5-5.2-2.1-0.1
		C60.4,93.7,60.8,94.2,61.4,94.3z"/>
	<path class="st6" d="M68.8,87.5l0.2,9c-1.5,2-2.9,2-4.3,0.2c-0.2-0.2-0.3-0.5-0.2-0.9l0.2-7.5c0-0.3,0.2-0.6,0.4-0.7
		C66.4,87,67.6,87,68.8,87.5z M67.6,89.6c-1.3-1.9-1.7,4.8-1.9,5.4c-0.1,0.3-0.1,0.7,0.1,0.9c0.9,1.3,1.6,1.2,2.2-0.2
		c0.1-0.3,0.1-0.6,0-0.9c-0.7-1.4-0.7-2.9-0.2-4.3C67.8,90.2,67.7,89.8,67.6,89.6z"/>
	<path class="st6" d="M73.2,87.2l1,1.1v1l1.2,3l0.3,0.5l0.8,1.7c-1.1,2.3-0.5,3.2,1.7,2.5l0.1,0.8c-1.3,1.3-2.4,1.3-3.5-0.1
		c-0.2-0.2-0.5-0.3-0.7-0.1c-1.9,1.3-3.4,1-4.6-1.1c0.5-3,0.7-5.9,0.5-9L73.2,87.2z M71.2,96.7c2.9,1.6,1.7-7.9,0.5-7.4
		c-0.2,0.1-0.4,0.4-0.4,0.8L71,96.2C70.9,96.4,71.1,96.6,71.2,96.7z"/>
	<path class="st23" d="M68.8,87.5H70c0.2,3,0.1,6-0.5,9H69L68.8,87.5z"/>
	<path class="st15" d="M74.2,88.3c1.3,0,2.2,0.5,2.7,1.7c-0.8-0.8-1.7-1-2.7-0.8V88.3z"/>
	<path class="st8" d="M77,90l-0.2,1l-1.2,1.2l-1.2-3C75.3,89,76.2,89.2,77,90z"/>
	<path class="st4" d="M61.4,94.3c-0.6-0.1-1-0.6-1-1.2c0.7-5.1,1.4-5.1,2.1,0.1C62.7,94,62.2,94.5,61.4,94.3z"/>
	<path class="st4" d="M65.6,95c0.2-0.6,0.6-7.3,1.9-5.4c0.2,0.2,0.2,0.6,0.1,0.9c-0.5,1.4-0.4,2.9,0.2,4.3c0.1,0.3,0.2,0.7,0,0.9
		c-0.6,1.4-1.3,1.5-2.2,0.2C65.6,95.7,65.5,95.3,65.6,95z"/>
	<path class="st4" d="M71.2,96.7c-0.2-0.1-0.3-0.3-0.3-0.5l0.3-6.1c0-0.4,0.2-0.7,0.4-0.8C72.9,88.8,74.2,98.3,71.2,96.7z"/>
	<path class="st2" d="M39.8,89.7l0.5,0.5V91c-0.9,1.1-2.1,1.7-3.5,1.8l-0.3-1L39.8,89.7z"/>
	<path class="st8" d="M41.2,89.7c1.5,3.1,2.2,6.5,2.2,10.3c0,1.1,0.3,1.1,0.9,0.2l5.4-8.7l0.8,0.5c-2,4.1-4.4,8.2-7.2,12.1l-0.8-0.6
		L42,101c1-0.4,1.1-0.9,0.3-1.5c0.1-0.9,0-1.7-0.5-2.5l-0.2-1c0.4-0.7,0.3-1.4-0.2-2l-0.5-1.3c0.3-0.7,0.2-1.2-0.5-1.7v-0.8
		L41.2,89.7z"/>
	<path class="st10" d="M40.3,91c0.6,0.5,0.8,1,0.5,1.7c-1.4,0.2-2.5,0.7-3.5,1.6c-0.5-0.3-0.7-0.9-0.5-1.5
		C38.2,92.6,39.4,92.1,40.3,91z"/>
	<path class="st20" d="M76.7,91c0.6,1.1,0.3,1.7-1,1.8l-0.3-0.5L76.7,91z"/>
	<path class="st14" d="M50.5,92c1.5-0.1,2.8,0.2,4.1,0.9c0.2,0.1,0.3,0.5,0.2,0.7c-2.3,3.7-6.7,9.1-7.8,13.1c-1.8-0.2-3-1.1-3.6-2.7
		C46.1,100.2,48.5,96.1,50.5,92z M48.7,101c1.6-0.4,2.4-1.5,2.4-3.2c0-0.3,0.2-0.5,0.5-0.7c1-0.4,1.6-1.2,1.9-2.3
		c0.1-0.3-0.1-0.6-0.3-0.8c-0.8-0.4-1.7-0.4-2.5,0.2c-0.2,0.2-0.3,0.5-0.2,0.8c0.8,2,0.2,3-1.8,2.9c-0.3,0-0.6,0.2-0.6,0.4l0,0
		l0.1,2.2C48.1,100.8,48.3,101,48.7,101C48.6,101,48.6,101,48.7,101z M45.5,104.5c0.1,0.3,0.4,0.5,0.8,0.5c1.7-0.5,2.3-1.5,1.9-3.1
		c-0.1-0.3-0.4-0.5-0.7-0.4C45.8,101.5,45.2,102.6,45.5,104.5z"/>
	<path class="st7" d="M82.6,93.6l-0.8-0.7c-0.3-0.2-0.1-0.5,0.1-0.7c0.7-0.4,1,0,1.2,1.2C83.1,93.8,82.9,93.9,82.6,93.6z"/>
	<path class="st18" d="M31.8,93.7l-1.8,1l-0.3-0.5C30.3,92.5,31,92.4,31.8,93.7z"/>
	<path class="st2" d="M40.8,92.7l0.5,1.3c-1.1,0.7-2.3,1.1-3.7,1.2l-0.3-1C38.2,93.4,39.4,92.9,40.8,92.7z"/>
	<path class="st7" d="M80,99.3l-0.5-0.5c1-0.8,1-1.5,0.1-2c-0.3-0.2-0.4-0.4-0.5-0.7c-0.2-1.3-2.1-1.9-0.9-2.8
		c0.2-0.1,0.4-0.1,0.6,0.1c0,0,0,0,0,0.1C79.6,94.9,82.1,98.4,80,99.3z"/>
	<path class="st15" d="M80.7,93.4c2.4,5.2-1.3-0.4-0.4-0.3C80.5,93.2,80.6,93.3,80.7,93.4z"/>
	<path class="st11" d="M86.7,97.5c0.3-1.1,0.2-1.9-0.2-2.3c-0.3-0.3-0.5-0.6-0.5-0.8c-0.3-1.5,0-1.6,1.1-0.2
		c0.2,0.2,0.2,0.6,0.2,0.9c-0.2,1.1,0.1,2.2,0.7,3c0.3,0.3,0.3,0.7,0.2,0.9c-0.2,0.2-0.4,0.1-0.8-0.1C86.8,98.6,86.5,98,86.7,97.5z"
		/>
	<path class="st12" d="M31.8,93.7l1,0.3c-1.5,1.5,4.6,0.8,1.2,4l-1-0.5c0.5-1.1,0-1.5-1.2-1.2l-2-0.6l0.3-1L31.8,93.7z"/>
	<path class="st2" d="M48,100.6l-0.1-2.2c0-0.2,0.3-0.4,0.6-0.4c2,0.1,2.6-0.9,1.8-2.9c-0.1-0.3,0-0.6,0.2-0.8
		c0.9-0.6,1.7-0.7,2.5-0.2c0.3,0.1,0.4,0.5,0.3,0.8c-0.3,1.1-0.9,1.9-1.9,2.3c-0.3,0.1-0.4,0.4-0.5,0.7c0,1.8-0.8,2.9-2.4,3.2
		C48.4,101,48.1,100.9,48,100.6L48,100.6z"/>
	<path class="st10" d="M41.2,94c0.6,0.6,0.7,1.3,0.2,2c-1.2-0.1-2.4,0.2-3.5,0.8c-0.8-0.3-0.9-0.8-0.4-1.5
		C38.9,95.1,40.1,94.7,41.2,94z"/>
	<path class="st4" d="M76.5,94.5l1.7,2.5C76,97.7,75.5,96.8,76.5,94.5z"/>
	<path class="st21" d="M29.8,95.7l2,0.6c-0.6,1.2-0.2,1.6,1.2,1.2l1,0.5c0.4,1.7,1.3,2.2,2.8,1.6l0.7,0.3l1,0.8
		c-0.6,0.2-0.7,0.5-0.4,0.8c1.1,1,2.6,1.7,4.3,1.9l0.8,0.6c0.6,1.6,1.8,2.5,3.6,2.7l0.3,0.3c-0.1,0.3-0.2,0.4-0.5,0.5
		c-0.2,0.1-0.6,0.1-0.9-0.2L27,96c-0.3-0.5-0.2-0.9,0.3-1.1c0.2-0.1,0.6,0,0.8,0.2C28.5,95.5,29.1,95.7,29.8,95.7z"/>
	<path class="st20" d="M82.1,98.1c0.2-0.6,1.8-5,2.3-2.9c0.1,0.3-0.1,0.6-0.4,0.7c-0.8,0.5-1.2,1.2-1.3,2.2c0,0.5-0.2,0.8-0.6,0.5
		C82.1,98.5,82,98.3,82.1,98.1z"/>
	<path class="st8" d="M56.9,95.4L56.9,95.4c0.3,0.2,0.3,0.5,0.2,0.7l-9.9,15.7c-0.1,0.2-0.5,0.3-0.7,0.2l0,0
		c-0.2-0.1-0.3-0.5-0.2-0.7l9.9-15.7C56.3,95.3,56.6,95.2,56.9,95.4z"/>
	<path class="st2" d="M41.5,96l0.2,1c-1.1,0.8-2.3,1.1-3.7,1v-1.3C39,96.2,40.2,95.9,41.5,96z"/>
	<path class="st19" d="M31.8,96.3c1.3-0.3,1.7,0.1,1.2,1.2C31.5,97.9,31.1,97.5,31.8,96.3z"/>
	<path class="st10" d="M41.7,97c0.5,0.8,0.7,1.6,0.5,2.5l-4-0.5L38,98C39.4,98.1,40.6,97.8,41.7,97z"/>
	<path class="st8" d="M58.3,97.1l1.1,0.7c0.2,0.1,0.3,0.4,0.1,0.7L50,113.1c-0.1,0.2-0.4,0.3-0.7,0.1l-1.1-0.7
		c-0.2-0.1-0.3-0.4-0.1-0.7l9.6-14.7C57.8,97,58.1,96.9,58.3,97.1z"/>
	<path class="st7" d="M84,99.1c-0.2-0.7,0.1-1.2,0.9-1.3c0.4,0,0.5,0.2,0.5,0.5c-0.1,0.5-0.3,0.9-0.8,1.1
		C84.4,99.5,84.1,99.4,84,99.1L84,99.1z"/>
	<path class="st6" d="M66,100.8c-0.3,0.5-0.3,1-0.2,1.5c0.1,0.4,0.2,0.8,0.1,0.9c-0.2,0.3-0.5,0.4-0.9,0.2c-0.3-0.2-0.6-0.2-0.8-0.1
		c-2,1.2-1.7,1.8,0.9,1.9c0.3,0,0.5,0.2,0.5,0.5l0,0c0,0.7,0.1,1.4,0.4,2c-3,0.7-6.1,0.8-9.2,0.1c-0.2,0.1-0.5-0.5-0.2-0.5l5.9-8.4
		c0.1-0.2,0.4-0.2,0.7-0.1l0,0L66,100.8z"/>
	<path class="st21" d="M27,99c6,3.6,12,7.2,18,10.8c1.5,0.9,1.2,1.4-0.7,1.5l-4-2.3l-1-0.7l-5.9-3.1c-1.1-1.7-5.2-3.2-6.9-4.2
		C26.3,100.2,26.5,99.5,27,99z"/>
	<path class="st16" d="M38.2,99l4,0.5c0.8,0.6,0.7,1.1-0.3,1.5l-3.4-0.2l-1-0.8C37.4,99.4,37.6,99,38.2,99z"/>
	<path class="st6" d="M67.2,107.7c0.4-0.6,0.6-1.2,0.6-1.9c0-0.3,0.2-0.5,0.4-0.6c3.1-0.7,3.1-1.4-0.1-2.1c-0.2-0.1-0.4-0.3-0.4-0.6
		c0.1-0.6-0.1-1.1-0.6-1.5l1.2-0.8c0.2-0.2,0.5-0.1,0.9,0c1.4,0.8,2.9,1,4.5,0.7c0.3,0,0.6,0.1,0.5,0.4c0,0,0,6.2,0,6.2
		c0,0.3-0.2,0.5-0.5,0.6C71.4,108.4,69.3,108.3,67.2,107.7z"/>
	<path class="st2" d="M80,100l1.2,0.1c-0.5,2.8,0.1,3.7,2,2.9l0.3,0.7c-0.6,0.5-0.7,1.2-0.5,2l-0.3,0.5l-1.2-0.2l-0.6-0.8l-1-4
		L80,100z"/>
	<path class="st10" d="M83.2,103c-1.9,0.9-2.5-0.1-2-2.9L83.2,103z"/>
	<path class="st15" d="M83.7,101.7c-1.5-0.1,0.3-3.6,0.5-0.6C84.2,101.5,84,101.7,83.7,101.7L83.7,101.7z"/>
	<path class="st20" d="M85.7,100.9c0.1-0.5,0.3-0.8,0.8-0.8s0.6,0.2,0.3,0.6l-0.5,0.7c-0.2,0.3-0.2,0.5-0.2,0.8
		c0.2,0.4,0,0.7-0.4,0.8c-0.7,0.2-1-0.8-0.5-1.2C85.5,101.5,85.7,101.2,85.7,100.9z"/>
	<path class="st3" d="M102.9,104.3c0,0.5-0.2,0.7-0.6,0.9c-0.3,0.1-0.6-0.1-0.7-0.4l0,0l-1.2-3.5c-0.1-0.3,0.1-0.5,0.3-0.6l0,0
		c3.2-0.9,4,0,2.3,2.7C102.9,103.6,102.9,103.9,102.9,104.3z"/>
	<path class="st25" d="M38.5,100.7L42,101l0.5,2.5c-1.7-0.2-3.2-0.9-4.3-1.9C37.8,101.2,38,101,38.5,100.7z"/>
	<path class="st2" d="M66,100.8l1.2,0.2c0.4,0.4,0.6,0.9,0.6,1.5c0,0.3,0.1,0.5,0.4,0.6c3.2,0.7,3.2,1.3,0.1,2.1
		c-0.3,0.1-0.4,0.3-0.4,0.6c0,0.7-0.2,1.4-0.6,1.9h-1.2c-0.3-0.6-0.4-1.3-0.4-2c0-0.3-0.2-0.5-0.4-0.5l0,0c-2.6-0.1-2.9-0.7-0.9-1.9
		c0.2-0.1,0.5-0.1,0.8,0.1c0.8,0.4,1.2-0.3,0.8-1.1C65.7,101.8,65.7,101.3,66,100.8z"/>
	<path class="st2" d="M26.5,101l4.5,2.3c-4.4,3.5-2.2,7.5-0.8,11.7c-2.4,2.3-2.4,4.7,0,7.1c0.4,0.4,0.4,1,0.1,1.5l-2,2.9
		c-0.2,0.3-0.2,0.6,0,0.8l2,2.9c0.2,0.3,0.2,0.6,0,0.8c-1.8,3.1-3.6,8.2,2.4,7.9c0.3,0,0.6-0.1,0.9-0.4c2.5-2.2,2.5-4.6,0-7.2
		c-0.2-0.2-0.3-0.6-0.2-0.8l2.2-3.5c0.2-0.2,0.1-0.5-0.1-0.7c-0.9-0.8-1.6-1.8-2.1-3c-0.1-0.3-0.1-0.6,0.2-0.8
		c2.3-2.3,2.4-4.7,0.3-7.2c2.9-1.3,5-3.3,6.3-6.2l4,2.3l4.5,2.8c0.3,0.2,0.5,0.5,0.5,0.8l-0.4,4.2l-0.5,2.6c0,0.2-0.3,0.5-0.7,0.6
		c-3.1,1,0.2,4.6,1.1,5.9c0.2,0.2,0.2,0.6,0.2,0.9l-0.8,5c-0.1,0.4-0.2,0.7-0.3,0.9l-5.3,7.6c-0.2,0.3-0.5,0.4-0.8,0.4l-15.2-0.2
		c0.6-13.8,0.6-27.7,0-41.5L26.5,101z"/>
	<path class="st15" d="M88.8,102.6c-0.8,1.1-1.4-3.8,0-0.7C89,102.1,89,102.4,88.8,102.6z"/>
	<path class="st26" d="M25.5,101.2h0.9c0.6,13.8,0.6,27.7,0,41.5h-0.9C24.9,128.9,24.9,115.1,25.5,101.2z"/>
	<path class="st2" d="M45.5,104.5c-0.4-2,0.3-3,1.9-3.1c0.3,0,0.6,0.2,0.7,0.4c0.5,1.6-0.2,2.6-1.9,3.1
		C46,105.1,45.6,104.9,45.5,104.5C45.6,104.6,45.6,104.6,45.5,104.5z"/>
	<path class="st2" d="M79,101.7c0.5,4.2,0.4,8.4-0.3,12.5H78c-0.4-4.1-0.5-8.2-0.1-12.3C77.9,101.1,78.7,101,79,101.7z"/>
	<path class="st10" d="M80,101.2l1,4c-1.1,1.4-1.4,3-0.7,4.8l0.7,0.7v1.2c-1.1,0.7-1.4,1.7-0.8,3v0.2h-0.5c-0.8-0.1-1.2-0.4-1-1
		c0.7-4.1,0.8-8.3,0.3-12.5L80,101.2z"/>
	<path class="st6" d="M88.5,107l1.2,0.5c0,0.4,0.2,0.7,0.5,0.8c0.2,0.1,0.4-0.1,0.5-0.3c0,0,0,0,0-0.1l0.7-2.2
		c0.1-0.3,0-0.6-0.1-0.8c-1.2-1.8,2.2-3.2,1.1-1c-0.3,0.4-0.2,0.8,0.2,1.1c0.2,0.2,0.3,0.5,0.2,0.7c-0.5,1-0.7,2.1-0.6,3.3
		c0,0.3-0.1,0.7-0.2,0.9c-1,1.1-2.1,2-3.5,2.5c-0.2,0.1-0.5,0-0.6-0.2c0,0,0,0,0-0.1C87.4,110.2,87.6,108.5,88.5,107z"/>
	<path class="st10" d="M31,103.3c1,0.5,1.8,1.1,2.4,1.9c0.1,0.9,0.4,1.6,0.8,2.2c1.4,2,2.1,4.4-1.2,4.9c-1.5,0.2-0.7,1.4,0.2,1.4
		c3.6-0.1,5.6-1.8,6.1-5.4l1,0.7c-1.3,2.9-3.4,4.9-6.3,6.2h-0.7c-0.7-0.6-1.5-0.7-2.3-0.2l-0.8-0.1C28.8,110.8,26.6,106.8,31,103.3z
		 M31.2,108c2.9,0.9,3.4,0.7,1.3-0.6c-0.1-0.1-0.2-0.3-0.2-0.4c0.4-1.5,0.2-1.4-0.6,0.3c-0.5,0-0.9-0.2-1.2-0.6
		c-0.1-0.2-0.1-0.4,0.1-0.6c0,0,0.1,0,0.1-0.1c0.6-0.3,0.7-0.6,0.3-0.9c-0.2-0.2-0.6-0.1-0.8,0.1C28.7,106.6,29,107.5,31.2,108z
		 M30.9,110.5c-1.5,2.3-1.2,2.7,1,1.3c0.2-0.1,0.3-0.4,0.2-0.7l-0.4-1.8c-0.1-0.3-0.3-0.5-0.5-0.4c-1.5,0.2-1.7,0.6-0.5,1
		C30.9,110,31,110.2,30.9,110.5C30.9,110.4,30.9,110.4,30.9,110.5z"/>
	<path class="st3" d="M106.3,103.7c5.7,3-1.8,11.1-4,14.3c-0.1,0.2-0.3,0.2-0.5,0.1l-0.1-0.1c-2.2-3.3-7-8.3-5.9-12.4
		c0.5-1.9,2.2-2.6,4-1.8c0.3,0.1,0.5,0.4,0.7,0.7c1.1,2.1,2.2,2.2,3.2,0C104.3,103.3,105.2,103.1,106.3,103.7z"/>
	<path class="st10" d="M83.5,103.7l0.8,0.5l-0.1,1l-1.2,0.5C82.8,104.9,82.9,104.2,83.5,103.7z"/>
	<path class="st2" d="M84.3,104.2l1.7,1.3v7.5c0,0.4-0.1,0.7-0.4,0.8c-0.4,0.2-0.8,0.3-1.3,0.2l-0.1-1.2v-3.5c0.4-1.3,0.4-2.7,0-4
		L84.3,104.2z"/>
	<path class="st2" d="M31.8,107.3c0.4,0.6,0.3,0.8-0.5,0.8c-2.2-0.5-2.6-1.5-1.1-2.8c0.2-0.2,0.6-0.3,0.8-0.1
		c0.4,0.3,0.3,0.6-0.3,0.9c-0.2,0.1-0.3,0.4-0.2,0.5v0.1C30.8,107.1,31.2,107.3,31.8,107.3z"/>
	<path class="st2" d="M33.4,105.2l5.9,3.1c-0.5,3.5-2.5,5.3-6.1,5.4c-0.9,0-1.7-1.1-0.2-1.4c3.3-0.5,2.6-2.9,1.2-4.9
		C33.7,106.8,33.5,106,33.4,105.2z"/>
	<path class="st17" d="M81,105.2l0.6,0.8c-1.1,1.4,0.2,3.5-1.3,4C79.6,108.3,79.8,106.7,81,105.2z"/>
	<path class="st26" d="M84.2,105.2c0.4,1.3,0.4,2.7,0,4l-0.7,0.2c0.2-0.8,0-1.5-0.5-2l-0.3-1.2l0.3-0.5L84.2,105.2z"/>
	<path class="st26" d="M31.2,108c0.8,0.1,0.9-0.2,0.5-0.8c0.8-1.7,1-1.8,0.6-0.3c0,0.2,0,0.3,0.2,0.4C34.6,108.8,34.2,109,31.2,108z
		"/>
	<path class="st5" d="M81.5,106l1.2,0.2l0.3,1.2c-0.4,1.3-1.1,2.4-2.1,3.2l-0.7-0.7C81.7,109.5,80.4,107.4,81.5,106z"/>
	<path class="st2" d="M83,107.5c0.5,0.5,0.7,1.2,0.5,2l-0.5,2.7l-0.8,0.3L81,112v-1.2C82,109.9,82.7,108.8,83,107.5z"/>
	<path class="st2" d="M30.7,109.9c-1.2-0.5-1-0.8,0.5-1c0.2,0,0.4,0.2,0.5,0.4l0.4,1.8c0.1,0.3,0,0.6-0.2,0.7
		c-2.1,1.4-2.5,0.9-1-1.3C31,110.3,31,110.1,30.7,109.9C30.8,109.9,30.7,109.9,30.7,109.9z"/>
	<path class="st15" d="M71.5,110.7c-0.4-0.6-0.9-0.7-1.5-0.2c-1.1-0.9-2-0.8-2.8,0.2l-1.5-0.2c-0.9-0.8-1.9-0.8-2.8,0h-1.2
		c-0.7-0.5-1.5-0.7-2.5-0.5c-0.2,0-0.3,0.3-0.3,0.6c0.5,1.3,0.1,1.7-1.2,1.3c-0.3-0.1-0.4-0.3-0.4-0.7c0-1.1-0.7-1.7-2.2-1.8L73,109
		c0.3,0,0.7,0.1,0.8,0.4c0.6,0.7,0.7,1.6,0.3,2.5c-0.1,0.2-0.4,0.4-0.6,0.3c0,0-0.1,0-0.1-0.1c-0.3-0.2-0.4-0.6-0.3-1
		c0.1-0.3,0-0.7-0.2-0.8C72.3,109.7,71.8,109.9,71.5,110.7z"/>
	<path class="st10" d="M84.2,109.2v3.5l-1.2-0.5l0.5-2.7L84.2,109.2z"/>
	<path class="st3" d="M55.2,109.4c1.5,0.1,2.2,0.7,2.2,1.8c0,0.3,0.2,0.6,0.4,0.7c1.4,0.4,1.8-0.1,1.2-1.3c-0.1-0.2,0-0.4,0.2-0.5
		h0.1c0.9-0.2,1.7,0,2.5,0.5c-0.4,1.1-0.2,1.6,0.7,1.5c0.3,0,0.6-0.3,0.6-0.6c0.1-0.3,0-0.6-0.1-1c0.9-0.8,1.8-0.8,2.8,0
		c-0.4,1.4,0,1.8,1.2,1.3c0.5-0.2,0.7-0.8,0.2-1.2c0.8-1,1.7-1.1,2.8-0.2c-0.3,1.1,0.1,1.7,1.2,1.8l0.8,0.5c-2.5,0.9-5,1-7.5,0.2
		c-0.3-0.1-0.6-0.1-0.9,0.1l-1.9,0.8l-1-0.1c-1.1-0.5-2.2-0.7-3.5-0.5c-0.8-0.6-1.5-0.6-2.1-0.1c-0.3,0.2-0.6,0.3-0.8,0.2l-0.8-0.3
		l0.2-1c1.4,0.1,1.7-0.4,0.8-1.5L55.2,109.4z"/>
	<path class="st8" d="M63,110.5c0.1,0.3,0.2,0.7,0.1,1c0,0.3-0.3,0.5-0.6,0.6c-0.9,0.1-1.1-0.4-0.7-1.5L63,110.5L63,110.5z"/>
	<path class="st22" d="M71.5,110.7l-0.2,1.5c-1.2,0-1.6-0.6-1.2-1.8C70.5,110,71,110.1,71.5,110.7z"/>
	<path class="st22" d="M54.5,110.5c0.9,1.1,0.6,1.7-0.8,1.5C53.6,111.3,53.9,110.8,54.5,110.5z"/>
	<path class="st22" d="M65.8,110.5l1.5,0.2c0.1,0.1,0.2,0.3,0.3,0.5c0.1,0.3-0.2,0.5-0.5,0.7C65.8,112.4,65.4,111.9,65.8,110.5z"/>
	<path class="st17" d="M81,112c0.4,1.2,0.1,2.2-0.8,3C79.6,113.7,79.9,112.7,81,112z"/>
	<path class="st26" d="M83,112.2l1.2,0.5l0.1,1.2c-1.6,1.2-2.3,0.7-2-1.5L83,112.2z"/>
	<path class="st19" d="M57.2,113.2c0.5,0.9,1.4,1.2,2.7,0.8l3.6,2.7c0.3,0.2,0.6,0.2,0.9,0.1c0.6-0.3,1-0.7,1.3-1.3
		c2.6-1.4,5.3-2,8.2-1.8c0.8,0.6,0.7,1.2-0.3,1.5c-2.2-1-3.8-0.5-4.9,1.4c-0.1,0.2-0.3,0.2-0.5,0.1c-0.2-0.3-0.6-0.5-0.9-0.5
		c-0.4,0-0.4,0.1,0,0.3c0.5,0.3,0.7,0.7,0.6,1.3l-0.5,0.3c-0.5-0.1-1-0.3-1.4-0.7c-0.3-0.3-0.6-0.4-0.8-0.3c-0.3,0.1-0.4,0.4-0.2,1
		c-0.3,0.7-0.7,0.7-1.2,0.2c-3-3.5-6.8-4.9-11.5-4.3l1.2-1.2l0.8,0.3c0.3,0.1,0.6,0,0.8-0.2C55.8,112.6,56.5,112.6,57.2,113.2z"/>
	<path class="st18" d="M72,112.8c1.1-0.3,1.8,0,2,1c-2.9-0.2-5.7,0.4-8.2,1.8l-4-1.7l1.9-0.8c0.3-0.1,0.6-0.2,0.9-0.1
		C67,113.8,69.5,113.7,72,112.8z"/>
	<path class="st18" d="M60.8,113.7L60,114c-1.3,0.4-2.2,0.1-2.7-0.8C58.5,113,59.7,113.2,60.8,113.7z"/>
	<path class="st2" d="M60.8,113.7l1,0.1l4,1.7c-0.4,0.8-1.3,1.7-2.2,1.2L60,114L60.8,113.7z"/>
	<path class="st2" d="M52.2,114.2c4.7-0.6,8.6,0.8,11.5,4.3l-2.1,1.9c-0.3,0.3-0.5,0.5-0.6,0.7c-0.7,2.5,0.1,3.7,2.5,3.5
		c0.5,0,0.6,0.2,0.4,0.6l-4.8,8.8c-0.1,0.3-0.4,0.4-0.8,0.4c-3,0.1-6,0-9.1-0.6c-0.3-0.1-0.6-0.3-0.5-0.6l0.6-4.1
		c0.1-0.4,0-0.8,0-0.9l-2-3.3c-0.2-0.4-0.4-0.7-0.4-0.9c-0.1-1.2,0.5-1.5,1.5-0.7c0.2,0.2,0.6,0.1,0.8,0c0.6-0.5,1.3-0.8,2-0.8
		l0.1,1.7c0,0.3,0.1,0.4,0.3,0.1c0.5-0.6,0.4-1.3-0.2-2.1c0.6-0.9,1.5-1.5,2.5-1.8l0.8,0.3c-0.1,0.9,0.2,1.4,1,1.5
		c0.3,0.1,0.6-0.1,0.8-0.3c2.1-2.8-1.1-3.2-2.9-2.3c-1.6,0.8-3.1,1.8-4.5,2.8c-0.8,0.6-1,0.4-0.8-0.6l0.6-1.9l2.9-0.6
		c1.1-0.3,0.5-1.5-0.4-1.7l-1-1.2C49,114.6,49.5,113.8,52.2,114.2z M53.7,126.9c0-0.5,0.1-0.8,0.5-1.1c0.7-0.5,0.8-0.6,0.1-0.4
		c-0.4,0.1-1.1,0.6-2.2,1.5c-0.3,0.2-0.3,0.6-0.2,0.9c0.3,0.7,0.1,1.4-0.6,2.1c-0.2,0.2-0.1,0.4,0.1,0.5c2,0.6,3.9,0.3,5.7-1
		c0.2-0.1,0.3-0.4,0.1-0.6c-0.8-0.8-1.9-1.3-3-1.5C54,127.4,53.7,127.2,53.7,126.9z M52.7,132.1c-0.4,0.1-1.6-0.2-1.5,0.3
		c0,0.3,0.3,0.5,0.6,0.5c2,0.1,3.9-0.3,5.7-1.2c0.1-0.1,0.2-0.2,0.2-0.2C57.8,131.1,53.1,132.1,52.7,132.1z"/>
	<path class="st12" d="M78,114.2h0.7c-0.1,0.6,0.2,0.9,1,1c-2.1,1-3.9,2.6-5.5,4.7c0.5-2.3,1.7-4,3.7-5.2
		C78,114.6,78.1,114.5,78,114.2L78,114.2z"/>
	<path class="st9" d="M33.3,115.2c-0.9,0.8-1.6,0.8-2.3-0.2C31.8,114.6,32.6,114.6,33.3,115.2z"/>
	<path class="st15" d="M73.8,115.3c0.5,1.8-0.1,3.1-1.8,4c-0.3-0.2-1.3-0.9-0.6-1.3h0.1c1.4-0.2,1.8-0.8,1.2-1.8
		c-0.1-0.3-0.4-0.4-0.8-0.4c-3.1,0.3-3.5,1.6-1.2,3.8c-1.1,0.2-1.9-0.3-2.5-1.5L68,118c0.2-0.6,0-1-0.6-1.3c-0.4-0.2-0.4-0.3,0-0.3
		c0.3,0,0.6,0.1,0.8,0.4c0.1,0.1,0.4,0.1,0.5,0c0,0,0,0,0.1-0.1C70,114.8,71.6,114.3,73.8,115.3z"/>
	<path class="st11" d="M30.2,115H31c0.7,1,1.4,1,2.3,0.2H34c2.1,2.5,2,4.9-0.3,7.2c-0.2,0.2-0.3,0.5-0.2,0.8c0.5,1.2,1.2,2.2,2.1,3
		c0.2,0.2,0.2,0.5,0.1,0.7l-2.2,3.5c-0.1,0.2-0.1,0.6,0.2,0.8c2.5,2.6,2.5,5,0,7.2c-0.2,0.2-0.6,0.4-0.9,0.4c-6,0.3-4.2-4.8-2.4-7.9
		c0.1-0.3,0.1-0.6,0-0.8l-2-2.9c-0.2-0.2-0.2-0.6,0-0.8l2-2.9c0.3-0.5,0.3-1.1-0.1-1.5C27.9,119.6,27.9,117.3,30.2,115z M32.9,117.2
		c-2.5-1.7-2.6,1.5-1.6,2.9c0.3,0.4,0.9,0.5,1.3,0.2c0.1-0.1,0.2-0.2,0.3-0.3c0.4-0.7,0.6-1.4,0.5-2.1
		C33.3,117.7,33.1,117.4,32.9,117.2z M34,119.5c-0.7,0.5-1,1-0.8,1.6c0.2,0.4,0.3,0.4,0.5,0l0.7-1.5c0.3-0.5,0.4-1,0.5-1.5
		c0-0.3-0.2-0.5-0.5-0.5C33.6,117.6,33.4,118.2,34,119.5z M31.3,123.5c-0.5,0.5-0.4,1,0.2,1.3c-0.3,0.7-0.8,1.1-1.5,1.2
		c-1.4,0.6-1.4,1,0,1.4l1.5,1.6c-0.7,0.7-0.6,1.1,0.3,1.2c0.4,0,0.7-0.1,0.9-0.3l2.2-3c0.1-0.2,0.1-0.5-0.1-0.8l-1.7-1.9l-0.2-0.5
		C33.5,122.1,30.7,121.9,31.3,123.5z M31.5,136.7c-2,0.5-2,1,0,1.3c2.4,0.4,3.5-0.6,3.2-2.9c0-0.4-0.2-0.7-0.5-0.8
		c-0.2-0.1-0.5,0-0.7,0.2C32.7,130.8,28.7,134.6,31.5,136.7z"/>
	<path class="st11" d="M79.8,115.3h0.5l0.3,1c-0.6,0.6-0.6,1.1-0.2,1.5c0.2,0.1,0.4,0.1,0.6,0l0.1-0.1c0.2-0.4,0.2-0.8,0-1.3h0.5
		c0.6,3-1.6,3.6-3.5,4.7c-0.3-0.8-0.8-1.4-1.5-1.8c-0.4-0.2-0.5-0.1-0.3,0.3c0.3,0.8,0.9,1.4,1.8,1.7c-0.5,5.5-1.9,8-4.7,12.5
		c-0.5-0.6-0.5-1.2,0.1-1.6c0.3-0.2,0.5-0.5,0.7-0.7l2.8-5.8c0.1-0.3,0.1-0.6,0-0.9c-0.2-0.7-0.2-1.3,0-2c0.1-0.3,0-0.7-0.1-0.9
		c-1-1.6-2.1-1.5-3.3,0.3l-0.4-1.5l1.3-0.7C75.8,117.9,77.7,116.3,79.8,115.3z"/>
	<path class="st3" d="M72,119.3c-0.1,0.8,0.2,1.3,1,1.4l0.4,1.5c1.8-0.5,2.6-0.1,2.3,1.4c-0.1,0.3,0,0.6,0.1,0.9
		c0.1,0.4,0.1,0.9,0,1.3c-0.1,0.2-0.4,0.4-0.7,0.3c-0.5-0.1-0.9,0.1-1.2,0.7c-0.7-0.6-1.3-1.2-1.8-2.1c-0.1-0.2-0.1-0.6,0-0.9
		c0.3-0.9,0-1.7-0.7-2.3c0.4-0.9,0.2-1.5-0.7-1.8c-2.3-2.2-1.9-3.5,1.2-3.8c0.3,0,0.6,0.1,0.8,0.4c0.5,1,0.1,1.6-1.2,1.8
		c-0.2,0-0.4,0.2-0.3,0.4v0.1C71.4,118.9,71.7,119.1,72,119.3z M74.2,124.9c1.2-0.4,1.2-0.9,0.1-1.4c-0.3-0.1-0.6-0.1-0.9,0.1
		C72.5,124.2,73.3,125.3,74.2,124.9z"/>
	<path class="st12" d="M80.5,116.2l0.5,0.1c0.1,0.4,0.1,0.9,0,1.3c-0.1,0.2-0.3,0.3-0.5,0.2c0,0-0.1,0-0.1-0.1
		C79.9,117.3,79.9,116.8,80.5,116.2z"/>
	<path class="st17" d="M50.8,116.5l1,1.2C50.6,120,48.6,117.6,50.8,116.5z"/>
	<path class="st8" d="M31.3,120.2c-1-1.4-0.9-4.6,1.6-2.9c0.3,0.2,0.4,0.5,0.5,0.8c0.1,0.7-0.1,1.4-0.5,2.1
		c-0.3,0.4-0.8,0.6-1.2,0.3C31.4,120.4,31.3,120.3,31.3,120.2z"/>
	<path class="st15" d="M34.5,119.5H34c-0.6-1.3-0.5-1.9,0.4-2c0.3,0,0.5,0.2,0.5,0.5l0,0C34.9,118.6,34.8,119.1,34.5,119.5z"/>
	<path class="st20" d="M67.5,118.3l-0.7,1c-0.4-0.6-1-1-1.8-1c-0.2-0.5-0.1-0.9,0.2-1c0.2-0.1,0.5,0.1,0.8,0.3
		C66.5,117.9,67,118.2,67.5,118.3z"/>
	<path class="st9" d="M68,118l0.3,0.3c0,1.1-0.5,2-1.5,2.6s-1.2,2.3,0.4,1c1.4-1.1,2.8-1.2,4.2-0.3c0.7,0.6,1,1.4,0.7,2.3
		c-0.1,0.3-0.1,0.7,0,0.9c0.4,0.8,1,1.5,1.8,2.1c0.2,0.8,0.3,1.2,0.2,1.3c-0.5,0.5-1.5,0.3-1.7-0.3c-1.1-2.2-1.7-3.8-1.7-4.7
		c0-0.9-0.3-1.3-1.1-0.9c-0.2,0.2-0.5,0.3-0.8,0.1c-1.3-0.6-1.5-0.3-0.8,1c0.1,0.2,0.4,0.4,0.8,0.4c0.9,0.1,3.1,4.4,3.8,5.3
		c0.2,0.3,0.2,0.6,0.1,0.9c-0.5,0.9-0.8,0.8-0.9-0.3c-0.1-0.3-0.2-0.6-0.5-0.8c-0.9-0.7-2.1-4.1-2.8-3.8c-0.2,0.1-0.3,0.4-0.2,0.6
		c0,0,0,0,0,0.1l3.7,6c0.1,0.1,0.2,0.2,0.4,0.1l0.1-0.1l2.1-3.6c0.2-0.3,0.3-0.7,0.2-0.9c-0.1-0.4-0.5-0.5-1-0.5
		c0.3-0.6,0.7-0.8,1.2-0.7c0.3,0.1,0.6-0.1,0.7-0.3c0.1-0.4,0.1-0.9,0-1.3c-0.1-0.3-0.1-0.7-0.1-0.9c0.2-1.4-0.5-1.9-2.3-1.4
		c1.2-1.7,2.2-1.8,3.3-0.3c0.2,0.2,0.2,0.6,0.1,0.9c-0.2,0.7-0.1,1.3,0,2c0.1,0.3,0.1,0.7,0,0.9l-2.8,5.8c-0.1,0.2-0.3,0.5-0.7,0.7
		c-0.6,0.4-0.6,0.9-0.1,1.6v0.7c-2.3-2.4-4.1-5.2-5.4-8.2c-0.1-0.2-0.2-0.3-0.4-0.2c-0.1,0-0.2,0.1-0.2,0.2
		c-0.2,0.2-0.1,0.5,0.1,0.9l3.7,5.7c0.2,0.3,0.2,0.6,0.1,0.9c-1,2.1-6-8.5-6.6-10c-0.1-0.3-0.1-0.6,0.1-0.9c0.3-0.5,0.3-1.2,0.2-1.8
		c1.2,0,1.8-0.6,2-1.8l0.7-1L68,118z M67.2,125.4c2-1.1-2.4-2.8-0.8-0.2C66.6,125.4,66.9,125.5,67.2,125.4z"/>
	<path class="st27" d="M65,118.2c0.8,0,1.3,0.4,1.8,1c-0.2,1.1-0.9,1.7-2,1.8c0.4-0.8,0.2-1.2-0.5-1.3c-1.2-0.1-2,0.4-2.3,1.5
		c-0.3,0.8,0.4,1,0.9,0.4c0.5-0.5,1.1-0.7,1.9-0.7c0.1,0.7,0.1,1.3-0.2,1.8c-0.2,0.3-0.2,0.6-0.1,0.9c0.7,1.6,5.6,12.1,6.6,10
		c0.1-0.2,0.1-0.6-0.1-0.9l-3.7-5.7c-0.2-0.3-0.2-0.7-0.1-0.9c0.2-0.2,0.4-0.4,0.6,0c1.4,3,3.2,5.8,5.4,8.2l5.4,8
		c0.2,0.3,0.5,0.4,0.8,0.4c5.1,0.1,14.9-0.3,14.8,0.7c-0.1,0.3-0.3,0.5-0.7,0.4c-28-0.5-45.8-0.6-53.4-0.3c-3.1,0.1-15.2,1.1-14.5-1
		h0.9l15.2,0.2c0.3,0,0.6-0.2,0.8-0.4l5.3-7.6c0.1-0.2,0.2-0.5,0.3-0.9l0.8-5c0.1-0.4,0-0.7-0.2-0.9c-0.9-1.3-4.2-4.9-1.1-5.9
		c0.4-0.1,0.6-0.4,0.7-0.6l0.5-2.6l0.5,1l-0.6,1.9c-0.3,1,0,1.1,0.8,0.6c1.4-1.1,2.9-2,4.5-2.8c1.7-0.9,5-0.5,2.9,2.3
		c-0.2,0.3-0.5,0.4-0.8,0.3c-0.8-0.1-1.1-0.7-1-1.5c0.8,0.9,1.4,1,1.8,0.2c0.1-0.3,0-0.6-0.2-0.7l0,0c-0.7-0.4-1.5-0.3-2.3,0.2
		c-1.1,0.3-1.9,0.9-2.5,1.8l-0.2,0.2c-0.8,0-1.4,0.3-2,0.8c-0.2,0.2-0.6,0.2-0.8,0c-1.1-0.7-1.6-0.5-1.5,0.7c0,0.2,0.1,0.5,0.4,0.9
		l2,3.3c0.1,0.1,0.1,0.5,0,0.9l-0.6,4.1c0,0.3,0.2,0.5,0.5,0.6c3,0.5,6.1,0.7,9.1,0.6c0.3,0,0.6-0.2,0.8-0.4l4.8-8.8
		c0.2-0.4,0.1-0.6-0.4-0.6c-2.4,0.2-3.3-1-2.5-3.5c0.1-0.2,0.3-0.5,0.6-0.7l2.1-1.9C64.4,119,64.8,118.9,65,118.2z M62.8,122.5
		c-3,2.4,2.5,0.7,0.9-0.1C63.5,122.3,63.1,122.3,62.8,122.5z M62,133.2c-0.2,0.8-0.1,1.2,0.3,1.4c0.3,0.1,0.6,0,0.8-0.3l0,0l2-4.3
		c0.6-0.6,1.1,0.2,0.7,0.8l-1.8,3.1c-0.1,0.2-0.1,0.5,0.1,0.6l0,0c0.5,0.2,0.9,0,1.1-0.6c0.1-0.2,0.2-0.2,0.3,0
		c0.3,0.8,0.7,0.9,1.2,0.3c0.2-0.2,0.1-0.5-0.1-0.7l0,0c-0.4-0.3-0.6-0.7-0.5-1.1c0.1-0.3,0.3-0.3,0.5,0l1.1,1.4
		c0.2,0.3,0.5,0.5,0.8,0.4c0.7,0,0.3-1-0.1-1.4c-1.7-1.5-2.2-3.9-3.8-6.5c-0.2-0.2-0.4-0.2-0.5,0c-1.4,2.5-2.7,4.9-4,7.4
		c-0.2,0.4-0.6,1.8,0.4,1.1c0.2-0.1,0.3-0.5,0.4-0.8C61.1,133.5,61.4,133.2,62,133.2z M72.1,135.2c-7.7,0.7-15.4,0.7-23.1,0
		c-0.3,0-0.6,0.1-0.8,0.4l-4.2,6.1c-0.6,1,0.8,1.4,1.6,1c0.2-0.1,0.5-0.3,0.7-0.7l2.6-4.2c0.2-0.3,0.5-0.5,0.8-0.4l5.5,0.3
		c0.3,0,0.5,0.3,0.5,0.5l0,0l-0.6,3.7c0,0.3,0.1,0.6,0.3,0.7l0,0c0.7,0.1,1.3-1.2,1.9-3.7c0.2-0.8,0.8-1.3,1.5-1.3l5.3,0.1
		c0.3,0,0.6,0.2,0.7,0.5c0.2,0.8,0.8,5.2,2.2,4.5c0.3-0.1,0.4-0.5,0.3-0.8l-1-2.7c-0.3-0.7,0-1.5,0.7-1.8c0.1-0.2,4.3,0,4.6-0.1
		c0.3,0,0.6,0.2,0.8,0.4L75,142c0.2,0.3,0.4,0.5,0.7,0.6c4.1,1.5-2.5-6.8-2.6-7C72.7,135.3,72.4,135.2,72.1,135.2z M70.6,138.1
		c-3.2-0.2-3.9,1.1-2.1,3.9c0.2,0.3,0.5,0.4,0.8,0.5c4.8,0.7,5.5-0.6,2.2-4C71.2,138.3,70.9,138.2,70.6,138.1z M49.3,139l-1.9,3.3
		c-0.2,0.3-0.1,0.5,0.3,0.5l5.3-0.1c0.3,0,0.6-0.2,0.8-0.4c1.9-3.4,0.7-4.6-3.7-3.7C49.7,138.5,49.4,138.7,49.3,139z M64.3,142.6
		c0.2,0,0.4-0.2,0.4-0.3c0,0,0,0,0-0.1l-0.7-3.1c-0.1-0.3-0.4-0.5-0.7-0.5h-4.5c-0.3,0-0.6,0.2-0.8,0.5c-0.3,0.5-1.5,3.5-0.3,3.6
		L64.3,142.6z"/>
	<path class="st4" d="M68.3,118.2c0.5,1.1,1.4,1.6,2.5,1.5c0.9,0.3,1.1,0.9,0.7,1.8c-1.4-0.9-2.8-0.8-4.2,0.3
		c-1.7,1.3-1.5-0.4-0.4-1C67.8,120.2,68.2,119.4,68.3,118.2z"/>
	<path class="st9" d="M78,121l-0.1,0.2c-0.9-0.3-1.5-0.8-1.8-1.7c-0.1-0.4,0-0.5,0.3-0.3C77.3,119.6,77.8,120.2,78,121z"/>
	<path class="st7" d="M34,119.5h0.5l-0.7,1.5c-0.2,0.4-0.4,0.4-0.5,0C33.1,120.5,33.3,120,34,119.5z"/>
	<path class="st12" d="M64.8,121c-0.8-0.1-1.4,0.1-1.9,0.7c-0.3,0.3-0.6,0.4-0.8,0.3c-0.1-0.1-0.2-0.4-0.1-0.7
		c0.3-1.1,1.1-1.6,2.3-1.5C65,119.8,65.2,120.2,64.8,121z"/>
	<path class="st17" d="M55,120.7l-0.8-0.3c0.8-0.5,1.6-0.6,2.3-0.2c0.3,0.1,0.4,0.4,0.3,0.7l0,0C56.4,121.7,55.8,121.6,55,120.7z"/>
	<path class="st3" d="M74,126.7c0.5,0,0.8,0.2,1,0.5c0.1,0.2,0,0.6-0.2,0.9l-2.1,3.6c-0.1,0.1-0.2,0.2-0.4,0.1l-0.1-0.1l-3.7-6
		c-0.2-0.2-0.1-0.6,0.1-0.7c0,0,0,0,0.1,0c0.7-0.3,1.9,3.1,2.8,3.8c0.2,0.2,0.4,0.5,0.5,0.8c0.2,1.1,0.5,1.2,0.9,0.3
		c0.1-0.3,0.1-0.6-0.1-0.9c-0.6-1-2.9-5.2-3.8-5.3c-0.4,0-0.7-0.2-0.8-0.4c-0.8-1.3-0.5-1.6,0.8-1c0.2,0.1,0.6,0.1,0.8-0.1
		c0.3-0.3,0.6-0.3,0.9,0c0.1,0.1,0.2,0.5,0.2,0.9c0,0.9,0.5,2.5,1.7,4.7c0.3,0.5,0.9,0.7,1.4,0.5c0.1-0.1,0.2-0.1,0.3-0.2
		C74.3,128,74.2,127.6,74,126.7z"/>
	<path class="st25" d="M51.7,122.2c0.6,0.8,0.7,1.5,0.2,2.1c-0.2,0.2-0.3,0.2-0.3-0.1l-0.1-1.7L51.7,122.2z"/>
	<path class="st18" d="M63.7,122.4c1.6,0.8-3.9,2.5-0.9,0.1C63.1,122.3,63.5,122.3,63.7,122.4z"/>
	<path class="st20" d="M32.8,123.7c-0.4-0.7-0.9-0.8-1.5-0.2C30.7,121.9,33.5,122.1,32.8,123.7z"/>
	<path class="st12" d="M32.8,123.7l0.2,0.5l-0.3,0.8l-1.2-0.2c-0.6-0.3-0.7-0.8-0.2-1.3C31.9,123,32.4,123.1,32.8,123.7z"/>
	<path class="st15" d="M73.3,124.8c-0.7-0.6,0.2-1.7,1-1.3c1.1,0.5,1.1,1-0.1,1.4C73.8,125,73.5,125,73.3,124.8z"/>
	<path class="st3" d="M100.3,146.9c2.3-0.3,3.1,0.8,2.4,3.3c-0.1,0.3-0.4,0.5-0.7,0.5h-7.8c-0.3,0-0.6-0.2-0.7-0.5
		c-0.8-2.3,0-3.4,2.2-3.2c0.3,0,0.5-0.2,0.5-0.4l0,0c0-4.7-1.1-16.1,1.3-19.8c4.2-6.5,13.5-2.3,13.3,4.9c-0.1,1.9-1.1,2.5-3.2,1.6
		c-0.3-0.1-0.4-0.4-0.4-0.7c1-6.2-7.4-7.6-7.5-0.6c0,4.9,0,9.7,0,14.6C99.8,146.7,100,146.9,100.3,146.9z"/>
	<path class="st4" d="M66.4,125.1c-1.7-2.6,2.8-0.8,0.8,0.2C66.9,125.5,66.6,125.4,66.4,125.1z"/>
	<path class="st8" d="M33,124.2l1.7,1.9c0.2,0.3,0.3,0.6,0.1,0.8l-2.2,3c-0.2,0.2-0.5,0.4-0.9,0.3c-0.9-0.1-1-0.5-0.3-1.2
		c2.7-0.8,3.1-2.1,1.2-4L33,124.2z"/>
	<path class="st4" d="M31.5,124.8l1.2,0.2c1.9,1.9,1.5,3.2-1.2,4l-1.5-1.6V126C30.7,125.9,31.2,125.5,31.5,124.8z M31.5,127.2
		c0.4,0.5,0.9,0.5,1.3,0c0.2-0.2,0.2-0.6,0-0.8c-0.6-0.7-1.1-0.7-1.4,0C31.2,126.6,31.3,127,31.5,127.2z"/>
	<path class="st13" d="M54.3,127.5c1.1,0.1,2.1,0.6,2.9,1.4c0.2,0.2,0.2,0.4,0,0.6c0,0,0,0-0.1,0.1c-1.8,1.3-3.7,1.6-5.7,1
		c-0.1,0-0.3-0.5-0.1-0.5c0.7-0.7,0.9-1.3,0.6-2.1c-0.1-0.3,0-0.7,0.2-0.9c1.1-0.9,1.8-1.4,2.2-1.5c0.7-0.2,0.7-0.1-0.1,0.4
		c-0.4,0.2-0.5,0.6-0.5,1.1C53.7,127.2,54,127.4,54.3,127.5z M54.8,128.2c-0.2-0.2-0.4-0.3-0.7-0.3c-0.3,0.1-0.5,0.4-0.4,0.7
		c0.1,0.8,0.4,0.9,1,0.4C55,128.8,55,128.5,54.8,128.2z"/>
	<path class="st9" d="M30,126v1.4C28.6,127.1,28.6,126.6,30,126z"/>
	<path class="st12" d="M31.3,126.3c0.3-0.7,0.8-0.7,1.4,0c0.2,0.2,0.2,0.6,0,0.8C32.2,127.9,31,127.3,31.3,126.3z"/>
	<path class="st9" d="M65,130l-0.1-0.2c0.2-0.6,0.2-1.1-0.1-1.4c-0.1-0.2-0.4-0.2-0.6-0.1l-0.1,0.1c-0.4,0.5-0.2,0.9,0.3,1.3L64,130
		c-0.1-0.1-0.1-0.2-0.2-0.3c-0.2-0.1-0.4,0.1-0.5,0.3l-1.3,3.2c-0.6,0-0.9,0.3-0.9,0.8c0,0.4-0.2,0.7-0.4,0.8
		c-1,0.7-0.6-0.7-0.4-1.1c1.3-2.5,2.6-5,4-7.4c0.2-0.2,0.4-0.2,0.5,0c1.6,2.5,2.1,4.9,3.8,6.5c0.4,0.3,0.8,1.3,0.1,1.4
		c-0.3,0-0.6-0.2-0.8-0.4l-1.1-1.4c-0.3-0.3-0.4-0.3-0.5,0c-0.1,0.4,0,0.8,0.5,1.1c0.2,0.2,0.3,0.5,0.1,0.7l0,0
		c-0.5,0.6-0.9,0.5-1.2-0.3c-0.1-0.3-0.2-0.3-0.3,0c-0.2,0.6-0.6,0.8-1.1,0.6c-0.2-0.1-0.3-0.4-0.2-0.6c0,0,0,0,0-0.1l1.8-3.1
		c0.2-0.3,0.2-0.7,0-0.9C65.6,129.7,65.3,129.7,65,130z"/>
	<path class="st17" d="M54.7,129.1c-0.6,0.6-0.9,0.4-1-0.4c-0.1-0.6,0.7-1.1,1.1-0.4C55,128.5,55,128.8,54.7,129.1z"/>
	<path class="st3" d="M65,129.7h-0.5c-0.6-0.4-0.7-0.9-0.3-1.3c0.1-0.3,0.5-0.3,0.7,0C65.1,128.7,65.1,129.2,65,129.7z"/>
	<path class="st3" d="M64,130c-0.3,1.3-1,2.4-2,3.2l1.3-3.2c0.1-0.2,0.3-0.3,0.5-0.3C63.9,129.8,64,129.9,64,130z"/>
	<path class="st12" d="M64.5,129.7H65v0.3l-2,4.3c-0.1,0.3-0.5,0.5-0.8,0.3l0,0c-0.4-0.2-0.5-0.7-0.3-1.4c1-0.8,1.7-1.9,2-3.2
		L64.5,129.7z"/>
	<path class="st13" d="M52.7,132.1c0.4-0.1,5.1-1,5-0.6c0,0.1-0.1,0.2-0.2,0.2c-1.8,0.9-3.7,1.3-5.7,1.2c-0.4,0-0.6-0.2-0.6-0.5
		C51.1,131.9,52.3,132.2,52.7,132.1z"/>
	<path class="st8" d="M33.5,134.5c0.3,1.8-0.4,2.6-2,2.2C28.7,134.6,32.7,130.8,33.5,134.5z"/>
	<path class="st20" d="M31.5,136.7c1.7,0.4,2.3-0.4,2-2.2c0.6-0.5,1-0.1,1.2,0.6c0.3,2.3-0.8,3.3-3.2,2.9
		C29.5,137.7,29.5,137.2,31.5,136.7z"/>
	<path class="st6" d="M72.9,135.6c0.1,0.2,6.8,8.5,2.6,7c-0.3-0.1-0.5-0.3-0.7-0.6l-2.6-4.3c-0.2-0.3-0.4-0.4-0.8-0.4h-4.1
		c-0.9,0-1.5,1.1-1.1,1.9l1,2.7c0.1,0.3,0,0.6-0.3,0.8c-1.4,0.7-2-3.7-2.2-4.5c-0.1-0.3-0.4-0.5-0.7-0.5l-5.3-0.1
		c-0.7,0-1.4,0.5-1.5,1.3c-0.6,2.5-1.2,3.7-1.9,3.7c-0.2,0-0.3-0.3-0.3-0.6l0,0l0.6-3.7c0-0.3-0.2-0.5-0.5-0.6c0,0,0,0-0.1,0
		l-5.5-0.3c-0.3,0-0.6,0.2-0.8,0.4l-2.6,4.2c-0.2,0.3-0.4,0.6-0.7,0.7c-0.9,0.5-2.2-0.1-1.6-1l4.2-6.1c0.2-0.2,0.5-0.4,0.8-0.4
		c7.7,0.7,15.4,0.7,23.1,0C72.4,135.2,72.7,135.3,72.9,135.6z"/>
	<path class="st6" d="M71.4,138.5c3.4,3.4,2.7,4.8-2.2,4c-0.3-0.1-0.6-0.2-0.8-0.5c-1.8-2.8-1.1-4.1,2.1-3.9
		C70.9,138.2,71.2,138.3,71.4,138.5z"/>
	<path class="st6" d="M49.3,139c0.1-0.2,0.4-0.4,0.8-0.5c4.4-0.9,5.7,0.3,3.7,3.7c-0.1,0.3-0.4,0.4-0.8,0.4l-5.3,0.1
		c-0.4,0-0.5-0.2-0.3-0.5L49.3,139z"/>
	<path class="st6" d="M64.3,142.6l-6.4,0.1c-0.3,0-0.5-0.2-0.5-0.5l0,0c0-1.2,0.2-2.2,0.8-3.1c0.2-0.3,0.4-0.5,0.8-0.5h4.5
		c0.3,0,0.6,0.2,0.7,0.5l0.7,3.1C64.8,142.3,64.6,142.5,64.3,142.6C64.4,142.6,64.4,142.6,64.3,142.6z"/>
</g>
</svg>
