<?xml version="1.0" encoding="utf-8"?>
<!-- Generator: Adobe Illustrator 27.0.1, SVG Export Plug-In . SVG Version: 6.00 Build 0)  -->
<svg version="1.1" id="Слой_1" xmlns="http://www.w3.org/2000/svg" xmlns:xlink="http://www.w3.org/1999/xlink" x="0px" y="0px"
	 viewBox="0 0 128 168" style="enable-background:new 0 0 128 168;" xml:space="preserve">
<style type="text/css">
	.st0{fill:#D8D8D8;}
	.st1{fill:#AAAAAA;}
	.st2{fill:#FFFFFF;}
	.st3{fill:#2D261B;}
	.st4{fill:#C4C3BD;}
</style>
<g>
	<path class="st0" d="M107.8,161.7H19.9c-6.9,0-12.4-5.6-12.4-12.4V18.8c0-6.9,5.6-12.4,12.4-12.4h87.8c6.9,0,12.4,5.6,12.4,12.4
		v130.5C120.2,156.1,114.6,161.7,107.8,161.7z"/>
	<path class="st1" d="M106.7,157.8H20.9c-5.5,0-9.9-4.4-9.9-9.9V19.8c0-5.5,4.4-9.9,9.9-9.9h85.8c5.5,0,9.9,4.4,9.9,9.9v128.1
		C116.7,153.4,112.2,157.8,106.7,157.8z"/>
	<path class="st2" d="M106.4,154.8H21.2c-4.4,0-8-3.6-8-8V20.9c0-4.4,3.6-8,8-8h85.2c4.4,0,8,3.6,8,8v125.9
		C114.4,151.2,110.8,154.8,106.4,154.8z"/>
</g>
<g>
	<path class="st3" d="M35,38.9c0,3.2-2.6,5.8-5.8,5.8c-3.4,0.3-6.4-2.7-6.3-5.8c0-0.5,0-16,0-16.1c0.1-3.1,2.6-5.7,5.8-5.7
		c3.4-0.2,6.3,2.4,6.3,5.8l0,0V38.9z M31.2,22.8c0-3.1-4.7-3.1-4.7,0c0,0,0,16.1,0,16.1c0,1.3,1,2.3,2.3,2.3
		c1.4,0.1,2.5-0.9,2.5-2.3l0,0L31.2,22.8L31.2,22.8z"/>
	<path class="st3" d="M17.3,17.3H20c0.3,0,0.5,0.2,0.5,0.5v25.9c0,0.3-0.2,0.5-0.5,0.5h-2.7c-0.3,0-0.5-0.2-0.5-0.5V17.8
		C16.8,17.5,17,17.3,17.3,17.3z"/>
	<path class="st2" d="M28.8,20.5c1.4-0.1,2.5,0.9,2.5,2.3c0,0,0,16.1,0,16.1c0,3.1-4.7,3.1-4.7,0c0,0,0-16.1,0-16.1
		C26.5,21.5,27.5,20.5,28.8,20.5z"/>
	<path class="st3" d="M49,55.7c-0.8-1.1-1.6-1-2.2,0.2c-1.7,1.5-3.1,1.3-4.2-0.8c-0.6-1.2-0.6-2.3,0.1-3.4l5-7.6
		c0.1-0.3,0.4-0.2,0.5,0c1.8,2.8,8.1,9.7,4,12.5C51,57.5,50,57.1,49,55.7z"/>
	<path class="st3" d="M75.8,56.7c-4-3.6,1.7-9.2,3.9-12.5c0.1-0.2,0.3-0.2,0.5-0.1l0.1,0.1l4.9,7.4c1.2,1.8,1.1,3.3-0.3,4.6
		c-3.6,3.4-3.8-3.9-6.6,0.2c-0.5,0.8-1.5,1-2.3,0.5C76,56.8,75.9,56.8,75.8,56.7z"/>
	<path class="st3" d="M32.3,61c-0.6,2.5-2,3.2-4.1,2.2c-0.2-0.1-0.5-0.4-0.6-0.7c-0.3-0.6-0.8-1-1.5-1.2c-0.3-0.1-0.6,0.1-0.8,0.3
		c-0.6,0.8-1.4,1.5-2.3,1.9c-0.3,0.1-0.6,0.1-0.9,0c-6.5-2.6,1.5-11.4,3.7-14.4c0.1-0.2,0.3-0.2,0.5-0.1l0.1,0.1l5.2,7.5
		C32.4,58,32.7,59.5,32.3,61z"/>
	<path class="st3" d="M65,66.5c-0.8-1.2-1.5-1.1-2.2,0.2c-1.8,1.3-3.1,1.2-4-0.4c-0.8-1.5-0.8-2.9,0.1-4.2l4.8-7
		c0.1-0.2,0.3-0.2,0.5-0.1l0.1,0.1l5.1,7.5c0.5,0.8,0.6,1.8,0.2,2.7C68.6,68,67.1,68.3,65,66.5z"/>
	<path class="st4" d="M49,55.7l-0.3,0.5c-0.4-0.9-0.9-0.9-1.4,0L46.8,56C47.4,54.7,48.2,54.6,49,55.7z"/>
	<path class="st3" d="M48.7,56.2c0.1,0.9,0.3,1.6,0.7,2.4c0.1,0.2,0,0.5-0.2,0.6c0,0,0,0-0.1,0c-2.9,1.1-3.6,0.1-1.9-3
		C47.8,55.3,48.3,55.3,48.7,56.2z"/>
	<path class="st3" d="M79.7,56.2c0.4-0.6,0.7-0.6,0.9,0.1l0.9,2.5c0.1,0.2,0,0.5-0.3,0.6l0,0C78.3,60.1,77.8,59.1,79.7,56.2z"/>
	<path class="st3" d="M25.2,62.9c0.4-1.4,0.9-1.5,1.4-0.1l1.1,3c0.1,0.2,0,0.5-0.3,0.6c0,0,0,0-0.1,0c-0.9,0.2-1.8,0.2-2.6,0
		c-0.2-0.1-0.4-0.3-0.3-0.6l0,0L25.2,62.9z"/>
	<path class="st3" d="M49,77c-1.1-1.2-1.9-1-2.2,0.5c-2.1,1.5-3.6,1.1-4.3-1.2c-0.9-2.9,2.9-7,5.2-10.5c0.1-0.2,0.3-0.2,0.5-0.1
		l0.1,0.1l4.9,7.1c0.7,1.1,0.9,2.2,0.5,3.5C52.7,78.9,51.2,79.1,49,77z"/>
	<path class="st3" d="M81,77c-1.1-1.2-1.9-1-2.2,0.5c-2.1,1.5-3.6,1.1-4.3-1.2c-0.9-2.9,3.4-7.9,5.2-10.5c0.1-0.2,0.3-0.2,0.5-0.1
		l0.1,0.1l4.9,7.2c0.7,1,0.9,2.2,0.5,3.4C84.7,78.9,83.2,79.1,81,77z"/>
	<path class="st4" d="M65,66.5l-0.5,0.3c-0.6-0.3-1-0.2-1.2,0.5l-0.5-0.5C63.5,65.3,64.2,65.2,65,66.5z"/>
	<path class="st3" d="M64.5,66.7c1.8,2.9,1.2,3.9-1.7,3c-0.2-0.1-0.3-0.3-0.2-0.6l0,0l0.7-1.9C63.5,66.6,63.9,66.4,64.5,66.7z"/>
	<path class="st4" d="M49,77l-0.5,0.3l-1.2,0.2l-0.5-0.1C47.1,75.9,47.9,75.8,49,77z"/>
	<path class="st4" d="M81,77l-0.5,0.3c-0.6-0.4-1-0.2-1.3,0.5l-0.5-0.3C79.1,75.9,79.9,75.8,81,77z"/>
	<path class="st3" d="M48.5,77.3c1.8,2.9,1.2,4-1.8,3.3c-0.2-0.1-0.3-0.4-0.3-0.6c0.4-0.8,0.7-1.6,0.7-2.5L48.5,77.3z"/>
	<path class="st3" d="M80.5,77.3c1.8,2.9,1.2,4-1.8,3.3c-0.2-0.1-0.3-0.4-0.3-0.6c0.4-0.7,0.6-1.5,0.7-2.3
		C79.5,77.1,79.9,76.9,80.5,77.3z"/>
	<path class="st3" d="M48.7,90.5c-0.6,0.7-1.1,0.6-1.4-0.2c-1.5-2.7-0.9-3.7,2-2.9c0.2,0.1,0.3,0.3,0.3,0.6l0,0L48.7,90.5z"/>
	<path class="st3" d="M80.8,90.5c-0.6,0.6-1.1,0.5-1.5-0.2c-1.5-2.7-0.9-3.7,2-2.9c0.2,0.1,0.3,0.3,0.3,0.6l0,0L80.8,90.5z"/>
	<path class="st3" d="M46.8,90.5c0.7,1.5,1.5,1.6,2.5,0.2c1.2-1.3,2.4-1.4,3.7-0.2c1.4,1.3,1.5,2.8,0.4,4.4l-4.9,7.3
		c-0.1,0.2-0.3,0.2-0.5,0.1l-0.1-0.1L43,95.1c-0.7-1-0.9-2-0.6-3.2C42.9,89.6,44.3,89.1,46.8,90.5z"/>
	<path class="st3" d="M78.8,90.5c0.9,1.6,1.8,1.6,2.8,0c2.3-2.3,4.6,0.9,4.2,3.2c-0.4,2.4-3.9,6.4-5.3,8.6c-0.1,0.2-0.3,0.2-0.5,0.1
		c0,0-0.1,0-0.1-0.1c-1.7-2.2-6.2-7.6-5.4-10.6C75,89.7,76.4,89.3,78.8,90.5z"/>
	<path class="st4" d="M47.3,90.2c0.3,0.8,0.8,0.9,1.4,0.2l0.5,0.3c-1,1.4-1.8,1.3-2.5-0.2L47.3,90.2z"/>
	<path class="st4" d="M79.3,90.2c0.4,0.7,0.9,0.8,1.5,0.2l0.8,0.1c-1,1.6-1.9,1.6-2.8,0L79.3,90.2z"/>
	<path class="st3" d="M65.2,98.7c-0.7,4.1-1.6,4-2.6-0.1c-0.1-0.2,0.2-0.6,0.4-0.5l1.8,0.1C65.1,98.1,65.3,98.3,65.2,98.7
		C65.2,98.6,65.2,98.7,65.2,98.7z"/>
	<path class="st3" d="M64.8,101.9c2.6-3.4,6.5,0.2,4.1,4.1c-1.4,2.3-3,4.7-4.5,7c-0.1,0.2-0.3,0.2-0.5,0.1l-0.1-0.1l-5.3-7.8
		c-0.5-0.7-0.6-1.7-0.2-2.5c1.4-3.1,3-3.4,4.8-0.9c0.3,0.5,1,0.6,1.5,0.2C64.7,102,64.7,101.9,64.8,101.9z"/>
	<path class="st3" d="M102.6,104.8c-0.3,0.8-0.6,0.9-0.9,0.1l-1.3-3.7c-0.1-0.2,0.1-0.5,0.3-0.6c0,0,0,0,0.1,0c1-0.2,2.1-0.2,3,0
		c0.2,0,0.3,0.3,0.2,0.5c0,0,0,0,0,0.1L102.6,104.8z"/>
	<path class="st3" d="M102.8,105.5c1.6-4.1,7.3-1.3,5.4,3.8c-0.4,1.1-2.4,4-5.9,8.7c-0.1,0.2-0.3,0.2-0.5,0.1l-0.1-0.1
		c-1.9-2.7-7.2-8.8-6.1-12c1-3.1,4.1-3.1,5.6-0.3C101.8,106.7,102.3,106.6,102.8,105.5z"/>
	<path class="st3" d="M48.5,112c-0.4,0.6-0.7,0.5-0.9-0.1l-0.9-2.7c-0.1-0.2,0.1-0.5,0.3-0.6l0,0C49.9,108,50.4,109.1,48.5,112z"/>
	<path class="st3" d="M80.4,112c-0.4,0.6-0.7,0.5-0.9-0.1l-0.9-2.7c-0.1-0.2,0.1-0.5,0.3-0.6l0,0C81.9,108,82.4,109.1,80.4,112z"/>
	<path class="st3" d="M47.1,112.7c0.2,0.5,0.9,0.6,1.4,0.2c0.2-0.1,0.3-0.3,0.5-0.4c0.5-0.7,1.2-1.1,2-1.3c0.3-0.1,0.6,0,0.9,0.1
		c4.6,2.9-1.7,9.7-3.6,12.6c-0.1,0.2-0.3,0.2-0.5,0.1l-0.1-0.1c-1.4-2.2-2.9-4.4-4.4-6.6C40.4,112.7,45.2,108.5,47.1,112.7z"/>
	<path class="st3" d="M79.1,112.7c0.2,0.4,0.6,0.5,1.1,0.3c0.1,0,0.1-0.1,0.2-0.1l2.6-1.8c0.2-0.2,0.6-0.1,0.9,0.1
		c4.7,3.3-1.3,9.3-3.5,12.6c-0.2,0.2-0.4,0.2-0.5,0c-2-3.1-8.2-9.2-3.7-12.6c0.3-0.2,0.6-0.3,0.9-0.2
		C77.9,111.2,78.7,111.8,79.1,112.7z"/>
	<path class="st3" d="M105.2,145.1c0,3.2-2.6,5.8-5.8,5.8c-3.4,0.2-6.3-2.4-6.3-5.8l0,0v-16c0-3.4,2.9-6,6.3-5.8
		c3.2,0,5.8,2.6,5.8,5.8V145.1z M101.5,129.1c0-3.1-4.7-3.1-4.7,0c0,0,0,16.1,0,16.1c0,3.1,4.7,3.1,4.7,0l0,0V129.1z"/>
	<path class="st3" d="M108,123.7h2.7c0.3,0,0.5,0.2,0.5,0.5v25.9c0,0.3-0.2,0.5-0.5,0.5H108c-0.3,0-0.5-0.2-0.5-0.5v-25.9
		C107.5,124,107.7,123.7,108,123.7z"/>
	<path class="st2" d="M99.1,126.8c1.3-0.1,2.4,1,2.4,2.3c0,0,0,16.1,0,16.1c0,1.3-1.1,2.4-2.4,2.3c-1.3,0-2.3-1-2.3-2.3v-16.1
		C96.8,127.8,97.8,126.8,99.1,126.8z"/>
</g>
</svg>
