<?xml version="1.0" encoding="utf-8"?>
<!-- Generator: Adobe Illustrator 27.0.1, SVG Export Plug-In . SVG Version: 6.00 Build 0)  -->
<svg version="1.1" id="Слой_1" xmlns="http://www.w3.org/2000/svg" xmlns:xlink="http://www.w3.org/1999/xlink" x="0px" y="0px"
	 viewBox="0 0 128 168" style="enable-background:new 0 0 128 168;" xml:space="preserve">
<style type="text/css">
	.st0{fill:#D8D8D8;}
	.st1{fill:#AAAAAA;}
	.st2{fill:#FFFFFF;}
	.st3{fill:#2D261B;}
</style>
<g>
	<path class="st0" d="M107.8,161.7H19.9c-6.9,0-12.4-5.6-12.4-12.4V18.8c0-6.9,5.6-12.4,12.4-12.4h87.8c6.9,0,12.4,5.6,12.4,12.4
		v130.5C120.2,156.1,114.6,161.7,107.8,161.7z"/>
	<path class="st1" d="M106.7,157.8H20.9c-5.5,0-9.9-4.4-9.9-9.9V19.8c0-5.5,4.4-9.9,9.9-9.9h85.8c5.5,0,9.9,4.4,9.9,9.9v128.1
		C116.7,153.4,112.2,157.8,106.7,157.8z"/>
	<path class="st2" d="M106.4,154.8H21.3c-4.4,0-8-3.6-8-8V20.9c0-4.4,3.6-8,8-8h85.2c4.4,0,8,3.6,8,8v125.9
		C114.4,151.2,110.9,154.8,106.4,154.8z"/>
</g>
<g>
	<path class="st3" d="M20.9,21.8c0.4,2.7-0.6,3.6-3.1,2.9c-0.3-0.1-0.5-0.4-0.5-0.6l0.1-5.9c0-0.3,0.2-0.5,0.5-0.5h14.3
		c0.4,0,0.7,0.1,0.8,0.4l1.3,2.3c0.1,0.2,0.1,0.6-0.1,0.9c-4.3,6.9-7.2,14.4-8.5,22.4c-0.1,0.3-0.3,0.6-0.6,0.6l-2.8,0.1
		c-0.2,0-0.4-0.3-0.4-0.5c1.3-7.4,3.8-14.7,7.4-21.8c0.1-0.2,0-0.5-0.2-0.6c-0.1,0-0.1-0.1-0.2,0h-7.6
		C21.1,21.3,20.9,21.5,20.9,21.8L20.9,21.8z"/>
	<path class="st3" d="M48.9,55.4c-0.2-0.5-0.8-0.6-1.3-0.4c-0.1,0.1-0.2,0.2-0.3,0.3c-1.8,2.3-3.4,2.2-4.8-0.2
		c-0.6-1-0.6-2.1,0.1-3.1l5.2-7.8c0.1-0.2,0.3-0.2,0.5-0.1l0.1,0.1l4.6,6.9c1.3,1.9,1.4,3.5,0.3,4.6C51.4,57.6,50,57.5,48.9,55.4z"
		/>
	<path class="st3" d="M80.8,55.4c-0.4-1.1-0.9-1.1-1.6-0.2c-1.6,2.3-3,2.5-4.3,0.6c-1.1-1.5-1-3.1,0-4.7l4.7-7
		c0.1-0.2,0.3-0.2,0.5-0.1l0.1,0.1c2,2.9,8.2,9.7,3.7,12.6C83.7,57,83.4,57,83.1,57C81.9,56.9,81.2,56.3,80.8,55.4z"/>
	<path class="st3" d="M32.3,60.9c-0.6,2.6-2,3.3-4.2,2.3c-0.2-0.1-0.5-0.4-0.6-0.7c-0.3-0.6-0.8-1-1.5-1.2c-0.3-0.1-0.6,0.1-0.8,0.3
		c-0.6,0.8-1.4,1.5-2.3,1.9c-0.3,0.1-0.6,0.1-0.9,0c-6.5-2.6,1.5-11.4,3.7-14.4c0.1-0.2,0.3-0.2,0.5-0.1l0.1,0.1l5.3,7.8
		C32.4,58.1,32.7,59.5,32.3,60.9z"/>
	<path class="st3" d="M47.7,55.9c0.3-0.7,0.6-0.6,0.8,0.1l1,2.7c0.1,0.2,0,0.4-0.2,0.5c0,0,0,0-0.1,0c-1,0.2-1.8,0.3-2.5,0.1
		c-0.3-0.1-0.4-0.4-0.4-0.7L47.7,55.9z"/>
	<path class="st3" d="M79.6,56.2c0.4-0.6,0.7-0.6,1,0.1l0.9,2.5c0.1,0.3,0,0.5-0.3,0.6l0,0C78.3,60.1,77.8,59.1,79.6,56.2z"/>
	<path class="st3" d="M64.8,71.4c-0.4-1.1-0.9-1.1-1.6-0.2c-1.6,2.3-3.1,2.5-4.4,0.6c-1-1.5-1-3.1,0.1-4.7l4.8-7
		c0.1-0.1,0.3-0.2,0.5-0.1c0,0,0.1,0,0.1,0.1c1.9,3,8.2,9.7,3.7,12.6C67.7,73,67.4,73,67.1,73C65.9,72.9,65.2,72.3,64.8,71.4z"/>
	<path class="st3" d="M25.2,62.9c0.4-1.4,0.9-1.4,1.4-0.1l1.1,3c0.1,0.2,0,0.5-0.3,0.6c0,0,0,0-0.1,0c-0.9,0.2-1.8,0.2-2.7,0
		c-0.2-0.1-0.4-0.3-0.3-0.6l0,0L25.2,62.9z"/>
	<path class="st3" d="M63,72.8c1.2-1.9,1.9-1.2,2.2,2.2c0,0.2-0.1,0.3-0.2,0.3C62.2,76.1,61.5,75.2,63,72.8z"/>
	<path class="st3" d="M80.8,87.4c-0.4-1.1-0.9-1.1-1.6-0.2c-1.6,2.3-3,2.5-4.4,0.6c-1.1-1.5-1-3.1,0-4.7l4.7-7
		c0.1-0.2,0.3-0.2,0.5-0.1l0.1,0.1c1.9,2.9,8.2,9.6,3.7,12.6C83.7,89,83.4,89,83.1,89C81.9,88.9,81.2,88.3,80.8,87.4z"/>
	<path class="st3" d="M48.8,87.3c-0.2-0.4-0.8-0.6-1.2-0.4c-0.1,0.1-0.2,0.2-0.3,0.3c-1.6,2.3-3.1,2.5-4.3,0.6
		c-1.1-1.5-1.1-3.1,0-4.6l4.8-6.9c0.1-0.2,0.3-0.2,0.5-0.1l0.1,0.1l5,7.3c1,1.5,0.9,2.9-0.3,4.2C51.4,89.7,50,89.5,48.8,87.3z"/>
	<path class="st3" d="M47.7,87.9c0.3-0.7,0.6-0.6,0.8,0.1l1,2.7c0.1,0.2,0,0.4-0.2,0.5c0,0,0,0-0.1,0c-1,0.2-1.8,0.3-2.5,0.1
		c-0.3-0.1-0.4-0.4-0.4-0.7L47.7,87.9z"/>
	<path class="st3" d="M79.7,87.9c0.3-0.7,0.6-0.6,0.8,0.1l1,2.7c0.1,0.2,0,0.4-0.2,0.5c0,0,0,0-0.1,0c-1.1,0.2-2.8,0.6-2.8-0.6
		L79.7,87.9z"/>
	<path class="st3" d="M102.6,104.8c-0.3,0.8-0.6,0.9-0.9,0.1l-1.3-3.7c-0.1-0.2,0.1-0.5,0.3-0.6c0,0,0,0,0.1,0c1-0.2,2.1-0.2,3,0
		c0.2,0,0.3,0.3,0.2,0.5l0,0L102.6,104.8z"/>
	<path class="st3" d="M106.1,103.7c6.3,2.7-1.6,11.2-3.8,14.4c-0.2,0.2-0.4,0.2-0.5,0c-2.4-3.7-8-9.2-5.4-13.6
		c0.2-0.3,0.4-0.5,0.7-0.6c1.9-0.6,3.4-0.1,4.3,1.8c0.1,0.3,0.4,0.4,0.7,0.4c0.9-0.2,1.4-0.6,1.6-1.2
		C104.1,103.5,104.9,103.2,106.1,103.7z"/>
	<path class="st3" d="M48.5,112c-0.4,0.6-0.7,0.6-0.9-0.1l-0.9-2.7c-0.1-0.2,0.1-0.5,0.3-0.6l0,0C49.9,108,50.4,109.1,48.5,112z"/>
	<path class="st3" d="M81.6,109.1l-1.2,3c-0.1,0.3-0.7,0.5-0.9,0l-1.1-3.1c-0.1-0.2,0.1-0.6,0.4-0.5c0,0,2.2,0,2.2,0
		c0.2,0,0.4,0.2,0.4,0.4C81.6,109,81.6,109.1,81.6,109.1z"/>
	<path class="st3" d="M47.1,112.7c0.2,0.5,0.9,0.6,1.4,0.2c0.2-0.1,0.3-0.3,0.5-0.4c0.5-0.7,1.2-1.1,2-1.3c0.3-0.1,0.6,0,0.9,0.1
		c4.6,3-1.7,9.6-3.6,12.6c-0.1,0.3-0.4,0.2-0.5,0c-1.4-2.2-2.9-4.4-4.4-6.6C40.4,112.7,45.2,108.5,47.1,112.7z"/>
	<path class="st3" d="M79.1,112.7c0.2,0.4,0.6,0.5,1.1,0.3c0.1,0,0.1-0.1,0.1-0.1l2.5-1.8c0.2-0.2,0.6-0.2,0.9,0
		c5,2.8-1.5,9.8-3.4,12.7c-0.1,0.2-0.3,0.2-0.5,0.1l-0.1-0.1c-2-3.1-8.2-9.5-3.7-12.6c0.3-0.2,0.6-0.3,0.9-0.2
		C78,111.2,78.7,111.7,79.1,112.7z"/>
	<path class="st3" d="M99.1,146.7l7.8-0.1c0.2,0,0.4-0.2,0.4-0.5c0,0,0,0,0-0.1c-0.5-2.7,0.5-3.6,3-2.7c0.3,0.1,0.5,0.4,0.5,0.7
		l-0.1,5.8c0,0.3-0.2,0.5-0.5,0.5H95.9c-0.4,0-0.7-0.2-0.8-0.4l-1.3-2.2c-0.1-0.2-0.1-0.6,0-0.9c4.3-7,7.2-14.5,8.6-22.6
		c0.1-0.3,0.3-0.5,0.6-0.6c1-0.2,1.9-0.2,2.8,0c0.3,0.1,0.4,0.3,0.4,0.6c-1.5,7.6-4,14.8-7.3,21.8c-0.1,0.2,0,0.4,0.2,0.4
		C99,146.7,99,146.7,99.1,146.7z"/>
</g>
</svg>
