<?xml version="1.0" encoding="utf-8"?>
<!-- Generator: Adobe Illustrator 27.0.1, SVG Export Plug-In . SVG Version: 6.00 Build 0)  -->
<svg version="1.1" id="Слой_1" xmlns="http://www.w3.org/2000/svg" xmlns:xlink="http://www.w3.org/1999/xlink" x="0px" y="0px"
	 viewBox="0 0 128 168" style="enable-background:new 0 0 128 168;" xml:space="preserve">
<style type="text/css">
	.st0{fill:#D8D8D8;}
	.st1{fill:#AAAAAA;}
	.st2{fill:#FFFFFF;}
	.st3{fill:#2D261B;}
</style>
<g>
	<path class="st0" d="M107.9,161.7H20.1c-6.9,0-12.4-5.6-12.4-12.4V18.7c0-6.9,5.6-12.4,12.4-12.4h87.8c6.9,0,12.4,5.6,12.4,12.4
		v130.5C120.3,156.1,114.8,161.7,107.9,161.7z"/>
	<path class="st1" d="M106.9,157.8H21.1c-5.5,0-9.9-4.4-9.9-9.9V19.8c0-5.5,4.4-9.9,9.9-9.9h85.8c5.5,0,9.9,4.4,9.9,9.9v128.1
		C116.8,153.4,112.4,157.8,106.9,157.8z"/>
	<path class="st2" d="M106.6,154.8H21.4c-4.4,0-8-3.6-8-8V20.9c0-4.4,3.6-8,8-8h85.2c4.4,0,8,3.6,8,8v125.9
		C114.6,151.2,111,154.8,106.6,154.8z"/>
</g>
<g>
	<path class="st3" d="M30.9,39.9c-0.4-2.7,0.6-3.6,3.1-2.8c0.3,0.1,0.5,0.4,0.5,0.7v5.6c0,0.3-0.3,0.5-0.6,0.5H18
		c-0.4,0-0.7-0.3-0.7-0.7c-0.2-7.5,4.5-10.6,9.9-14.6c9.8-7.4-2.6-10.4-6.1-6.2c-0.2,0.2-0.3,0.5-0.2,0.9c0.2,2-0.7,3-2.6,2.9
		c-0.3,0-0.6-0.2-0.6-0.5c-2.7-10,14-11.5,16.6-3.4c2.4,7.3-10.4,10.5-13,17.6c-0.1,0.2,0,0.4,0.2,0.5h0.1l8.9,0.1
		C30.7,40.5,30.9,40.3,30.9,39.9C30.9,40,30.9,40,30.9,39.9z"/>
	<path class="st3" d="M64.8,55.4c-0.4-1.1-0.9-1.1-1.6-0.2c-1.6,2.3-3.1,2.5-4.4,0.5c-1-1.5-1-3,0.1-4.6l4.7-7
		c0.1-0.1,0.3-0.2,0.5-0.1l0.1,0.1c2,2.9,8.2,9.7,3.7,12.6C67.7,57,67.4,57,67.1,57C65.9,56.9,65.2,56.3,64.8,55.4z"/>
	<path class="st3" d="M25.3,61.3c-3.1,5.7-7.8-0.4-5-4.3c1.8-2.6,3.6-5.2,5.4-7.9c0.1-0.2,0.3-0.2,0.5-0.1l0.1,0.1
		c1.7,2.5,3.4,4.9,5,7.4c3.4,5.2-1.9,10.1-4.1,5.4C26.4,60.5,25.8,60.3,25.3,61.3z"/>
	<path class="st3" d="M63.8,55.8c0.3-0.4,0.5-0.4,0.7,0.1l1,2.8c0.1,0.2,0,0.5-0.3,0.6l0,0C62,60.1,61.5,58.9,63.8,55.8z"/>
	<path class="st3" d="M25.2,62.9c0.4-1.4,0.9-1.5,1.4-0.1l1.1,3c0.1,0.2,0,0.5-0.3,0.6c0,0,0,0-0.1,0c-0.9,0.2-1.8,0.2-2.6,0
		c-0.2-0.1-0.4-0.3-0.3-0.6l0,0L25.2,62.9z"/>
	<path class="st3" d="M102.6,104.8c-0.3,0.9-0.6,0.9-0.9,0.1l-1.3-3.7c-0.1-0.2,0-0.5,0.3-0.6c0,0,0,0,0.1,0c1-0.2,2-0.2,3,0
		c0.2,0,0.3,0.3,0.2,0.5c0,0,0,0,0,0.1L102.6,104.8z"/>
	<path class="st3" d="M106.3,103.7c5.8,2.9-1.7,11.1-4,14.2c-0.1,0.2-0.4,0.2-0.5,0.1c0,0-0.1,0-0.1-0.1c-2.5-3.5-8-9.2-5.4-13.4
		c0.2-0.3,0.4-0.5,0.7-0.6c1.9-0.7,3.4-0.1,4.3,1.8c0.1,0.3,0.4,0.4,0.7,0.3c0.9-0.3,1.5-0.7,1.7-1.3
		C104.2,103.4,105.1,103.1,106.3,103.7z"/>
	<path class="st3" d="M65.6,109.1l-1.2,3c-0.1,0.2-0.3,0.3-0.6,0.2c-0.1,0-0.2-0.1-0.3-0.3l-1-3.1c-0.1-0.3,0.1-0.6,0.5-0.5
		c0,0,2.2,0,2.2,0c0.2,0,0.4,0.2,0.4,0.4C65.6,109,65.6,109.1,65.6,109.1z"/>
	<path class="st3" d="M63.1,112.7c0.3,0.5,1,0.6,1.5,0.2c0.2-0.1,0.3-0.2,0.4-0.4c2.5-4,6.2,0.8,3.7,4.5c-1.5,2.2-3,4.5-4.4,6.8
		c-0.1,0.2-0.3,0.2-0.5,0.1l-0.1-0.1l-5.1-7.7c-0.9-1.3-0.8-2.5,0.2-3.8C60.4,110.5,61.8,110.6,63.1,112.7z"/>
	<path class="st3" d="M106.4,127.5l-9,0.1c-0.2,0-0.4,0.2-0.4,0.5c0,0,0,0,0,0.1c0.4,2.7-0.6,3.6-3.1,2.5c-0.3-0.1-0.5-0.4-0.5-0.7
		l0.1-5.5c0-0.3,0.2-0.5,0.5-0.5h16c0.3,0,0.5,0.2,0.5,0.5c0.3,9.6-7.2,12-12.4,16.9c-5.9,5.6,9.6,9.4,9,1.8c0-0.4,0.1-0.7,0.4-0.8
		l2.1-0.7c0.2-0.1,0.5,0.1,0.6,0.4l0,0c2.8,9.3-11.4,11.3-15.7,5.1c-5.4-7.7,10-12.4,12.2-19.3C106.8,127.7,106.7,127.5,106.4,127.5
		C106.5,127.5,106.5,127.5,106.4,127.5z"/>
</g>
</svg>
