<?xml version="1.0" encoding="UTF-8" standalone="no"?>
<svg xmlns="http://www.w3.org/2000/svg" version="1.2" baseProfile="tiny" viewBox="0 0 128 168">
<g stroke-width="0.00" fill="none" stroke-linecap="butt">
<path stroke="#e7e7e7" stroke-opacity="0.553" vector-effect="non-scaling-stroke" d="
  M 13.46 146.50
  L 15.29 151.25"
/>
<path stroke="#e7e7e7" stroke-opacity="0.553" vector-effect="non-scaling-stroke" d="
  M 114.21 148.25
  L 114.54 146.50"
/>
<path stroke="#d7d7d7" stroke-opacity="0.596" vector-effect="non-scaling-stroke" d="
  M 114.54 146.50
  Q 114.46 85.49 114.51 24.48
  C 114.52 15.38 110.61 12.76 101.61 12.75
  Q 63.00 12.74 24.37 12.76
  C 15.97 12.76 13.49 17.45 13.50 25.47
  Q 13.53 85.98 13.46 146.50"
/>
<path stroke="#d7d7d7" stroke-opacity="0.596" vector-effect="non-scaling-stroke" d="
  M 114.21 148.25
  C 112.27 154.02 108.43 155.24 102.41 155.24
  Q 63.55 155.26 24.69 155.24
  C 20.51 155.24 17.77 154.37 15.29 151.25"
/>
<path stroke="#96938d" vector-effect="non-scaling-stroke" d="
  M 31.66 29.20
  C 37.53 22.78 29.81 14.96 22.79 17.88
  C 17.84 19.93 16.42 25.06 20.01 29.40
  A 0.51 0.50 -41.2 0 1 19.96 30.10
  C 10.97 38.23 23.97 49.82 32.23 41.82
  Q 37.67 36.55 31.66 29.94
  A 0.55 0.55 0.0 0 1 31.66 29.20"
/>
<path stroke="#96938d" vector-effect="non-scaling-stroke" d="
  M 48.69 55.06
  Q 50.55 58.59 53.04 55.88
  Q 54.86 53.90 53.30 51.60
  L 48.28 44.20
  A 0.33 0.33 45.9 0 0 47.74 44.20
  C 45.81 47.05 39.21 54.16 44.27 56.84
  A 1.08 1.05 47.2 0 0 45.18 56.89
  Q 46.66 56.29 47.53 55.04
  A 0.70 0.66 -42.4 0 1 48.69 55.06"
/>
<path stroke="#96938d" vector-effect="non-scaling-stroke" d="
  M 80.83 55.45
  Q 81.33 56.78 83.05 57.01
  A 1.42 1.38 -57.5 0 0 83.98 56.79
  C 88.49 53.84 82.20 47.12 80.24 44.18
  A 0.34 0.33 -44.6 0 0 79.69 44.18
  L 74.96 51.16
  Q 73.34 53.56 74.92 55.84
  Q 76.88 58.66 79.27 55.25
  Q 80.24 53.86 80.83 55.45"
/>
<path stroke="#96938d" vector-effect="non-scaling-stroke" d="
  M 32.31 61.05
  Q 32.92 58.82 31.49 56.72
  L 26.22 49.00
  A 0.33 0.32 44.8 0 0 25.68 48.99
  C 23.85 51.82 14.82 62.12 22.68 63.58
  A 1.06 0.98 26.9 0 0 23.56 63.33
  L 25.38 61.57
  A 0.95 0.69 -53.8 0 1 26.20 61.31
  Q 27.00 61.56 27.34 62.28
  A 1.71 0.81 77.6 0 0 27.92 63.03
  Q 31.23 65.04 32.31 61.05"
/>
<path stroke="#96938d" vector-effect="non-scaling-stroke" d="
  M 47.70 55.92
  L 46.46 58.75
  A 0.47 0.46 18.5 0 0 46.79 59.39
  Q 47.75 59.63 49.24 59.28
  A 0.41 0.37 73.6 0 0 49.50 58.75
  L 48.52 56.05
  Q 48.13 54.94 47.70 55.92"
/>
<path stroke="#96938d" vector-effect="non-scaling-stroke" d="
  M 79.63 56.24
  Q 76.93 60.46 81.10 59.41
  A 0.48 0.48 -16.7 0 0 81.44 58.79
  L 80.58 56.32
  Q 80.23 55.31 79.63 56.24"
/>
<path stroke="#96938d" vector-effect="non-scaling-stroke" d="
  M 64.83 71.45
  Q 65.33 72.78 67.05 73.01
  A 1.37 1.36 -58.3 0 0 67.97 72.79
  C 72.49 69.84 66.20 63.13 64.26 60.18
  A 0.33 0.33 0.0 0 0 63.72 60.18
  L 58.96 67.15
  Q 57.33 69.55 58.89 71.81
  Q 60.88 74.66 63.27 71.25
  Q 64.24 69.86 64.83 71.45"
/>
<path stroke="#96938d" vector-effect="non-scaling-stroke" d="
  M 25.19 62.92
  L 24.33 65.81
  A 0.48 0.45 -75.6 0 0 24.66 66.41
  Q 25.96 66.70 27.33 66.41
  A 0.44 0.44 73.5 0 0 27.65 65.82
  L 26.57 62.84
  Q 25.83 60.80 25.19 62.92"
/>
<path stroke="#96938d" vector-effect="non-scaling-stroke" d="
  M 63.63 72.24
  Q 60.93 76.46 65.10 75.41
  A 0.48 0.48 -16.7 0 0 65.44 74.79
  L 64.58 72.32
  Q 64.23 71.31 63.63 72.24"
/>
<path stroke="#96938d" vector-effect="non-scaling-stroke" d="
  M 48.83 87.35
  Q 50.52 90.62 53.21 87.70
  Q 54.84 85.93 52.91 83.07
  L 48.31 76.24
  A 0.33 0.32 45.5 0 0 47.77 76.23
  L 42.97 83.18
  Q 41.33 85.54 42.94 87.87
  Q 44.88 90.66 47.28 87.24
  A 0.91 0.91 48.9 0 1 48.83 87.35"
/>
<path stroke="#96938d" vector-effect="non-scaling-stroke" d="
  M 80.83 87.45
  Q 81.33 88.78 83.05 89.01
  A 1.42 1.38 -57.5 0 0 83.98 88.79
  C 88.49 85.84 82.20 79.12 80.24 76.19
  A 0.33 0.32 -44.3 0 0 79.70 76.19
  L 74.96 83.15
  Q 73.33 85.55 74.89 87.80
  Q 76.88 90.66 79.27 87.25
  Q 80.24 85.86 80.83 87.45"
/>
<path stroke="#96938d" vector-effect="non-scaling-stroke" d="
  M 47.70 87.92
  L 46.46 90.75
  A 0.47 0.46 18.5 0 0 46.79 91.39
  Q 47.75 91.63 49.24 91.28
  A 0.41 0.37 73.6 0 0 49.50 90.75
  L 48.52 88.05
  Q 48.13 86.94 47.70 87.92"
/>
<path stroke="#96938d" vector-effect="non-scaling-stroke" d="
  M 79.63 88.24
  Q 76.93 92.46 81.10 91.41
  A 0.48 0.48 -16.7 0 0 81.44 90.79
  L 80.58 88.32
  Q 80.23 87.31 79.63 88.24"
/>
<path stroke="#96938d" vector-effect="non-scaling-stroke" d="
  M 65.58 93.11
  A 0.43 0.43 11.2 0 0 65.18 92.52
  L 62.97 92.48
  A 0.43 0.43 80.9 0 0 62.56 93.05
  L 63.61 96.14
  A 0.43 0.43 45.5 0 0 64.42 96.15
  L 65.58 93.11"
/>
<path stroke="#96938d" vector-effect="non-scaling-stroke" d="
  M 62.84 96.15
  Q 62.39 95.06 60.75 95.00
  A 1.35 1.25 -63.3 0 0 59.87 95.33
  C 55.84 98.78 61.71 104.59 63.73 107.82
  A 0.32 0.31 45.9 0 0 64.26 107.83
  L 69.07 100.71
  Q 70.58 98.49 69.13 96.29
  Q 67.36 93.62 65.00 96.47
  A 1.27 1.27 -36.5 0 1 62.84 96.15"
/>
<path stroke="#96938d" vector-effect="non-scaling-stroke" d="
  M 102.56 104.83
  L 103.94 101.19
  A 0.43 0.37 -71.9 0 0 103.71 100.63
  Q 102.24 100.27 100.68 100.59
  A 0.47 0.46 -15.5 0 0 100.33 101.19
  L 101.65 104.92
  Q 102.07 106.10 102.56 104.83"
/>
<path stroke="#96938d" vector-effect="non-scaling-stroke" d="
  M 107.29 110.60
  C 111.12 104.78 104.46 101.01 102.78 105.46
  Q 102.11 107.24 101.22 105.56
  C 99.73 102.74 96.60 102.69 95.65 105.84
  C 94.61 109.26 99.86 115.17 101.75 118.02
  A 0.33 0.33 -44.7 0 0 102.30 118.02
  Q 104.85 114.31 107.29 110.60"
/>
<path stroke="#96938d" vector-effect="non-scaling-stroke" d="
  M 49.58 109.11
  A 0.43 0.43 11.1 0 0 49.18 108.52
  L 46.97 108.48
  A 0.43 0.43 81.5 0 0 46.56 109.05
  L 47.61 112.14
  A 0.43 0.43 -43.8 0 0 48.42 112.15
  L 49.58 109.11"
/>
<path stroke="#96938d" vector-effect="non-scaling-stroke" d="
  M 80.55 111.83
  Q 83.40 107.39 78.85 108.65
  A 0.46 0.45 72.3 0 0 78.55 109.25
  L 79.43 111.66
  Q 79.87 112.89 80.55 111.83"
/>
<path stroke="#96938d" vector-effect="non-scaling-stroke" d="
  M 46.84 112.25
  Q 46.20 111.23 44.98 111.01
  A 1.28 1.21 -55.6 0 0 44.06 111.21
  C 39.52 114.32 45.75 120.74 47.72 123.82
  A 0.33 0.33 45.9 0 0 48.27 123.83
  C 50.24 120.92 56.95 113.68 51.46 111.06
  A 0.73 0.65 -53.2 0 0 50.67 111.22
  Q 49.29 112.61 47.57 112.69
  A 0.91 0.74 70.3 0 1 46.84 112.25"
/>
<path stroke="#96938d" vector-effect="non-scaling-stroke" d="
  M 79.07 112.71
  Q 78.44 111.27 76.98 111.01
  A 1.28 1.21 -55.6 0 0 76.06 111.21
  C 71.51 114.32 77.76 120.76 79.75 123.81
  A 0.33 0.32 45.5 0 0 80.29 123.82
  C 82.40 120.45 88.55 114.51 83.78 111.18
  A 0.86 0.67 42.6 0 0 82.90 111.11
  L 80.31 112.92
  A 0.89 0.74 -30.2 0 1 79.07 112.71"
/>
<path stroke="#96938d" vector-effect="non-scaling-stroke" d="
  M 107.89 138.78
  A 0.48 0.48 0.0 0 1 107.89 138.16
  Q 113.06 132.22 109.45 127.20
  C 102.43 117.43 86.28 128.88 96.40 137.93
  A 0.48 0.47 -47.0 0 1 96.42 138.62
  C 89.06 146.34 101.71 155.62 108.50 147.69
  Q 111.95 143.66 107.89 138.78"
/>
<path stroke="#96938d" vector-effect="non-scaling-stroke" d="
  M 30.2200 24.5176
  A 4.35 3.69 0.1 0 0 25.8764 20.8200
  A 4.35 3.69 0.1 0 0 21.5200 24.5024
  A 4.35 3.69 0.1 0 0 25.8636 28.2000
  A 4.35 3.69 0.1 0 0 30.2200 24.5176"
/>
<path stroke="#96938d" vector-effect="non-scaling-stroke" d="
  M 31.1699 36.3529
  A 5.32 4.54 -0.4 0 0 25.8183 31.8501
  A 5.32 4.54 -0.4 0 0 20.5301 36.4271
  A 5.32 4.54 -0.4 0 0 25.8817 40.9299
  A 5.32 4.54 -0.4 0 0 31.1699 36.3529"
/>
<path stroke="#96938d" vector-effect="non-scaling-stroke" d="
  M 107.4600 131.6115
  A 5.30 4.55 -0.2 0 0 102.1441 127.0800
  A 5.30 4.55 -0.2 0 0 96.8600 131.6485
  A 5.30 4.55 -0.2 0 0 102.1759 136.1800
  A 5.30 4.55 -0.2 0 0 107.4600 131.6115"
/>
<path stroke="#96938d" vector-effect="non-scaling-stroke" d="
  M 106.4499 143.5303
  A 4.34 3.66 0.4 0 0 102.1356 139.8401
  A 4.34 3.66 0.4 0 0 97.7701 143.4697
  A 4.34 3.66 0.4 0 0 102.0844 147.1599
  A 4.34 3.66 0.4 0 0 106.4499 143.5303"
/>
</g>
<path fill="#000001" fill-opacity="0.106" d="
  M 120.41 77.06
  Q 120.68 109.34 120.41 141.62
  C 120.36 146.55 119.20 151.48 116.04 155.35
  A 1.00 0.77 17.8 0 1 115.23 155.64
  Q 114.36 155.55 114.24 156.25
  A 0.90 0.68 88.9 0 1 113.76 156.91
  Q 112.03 157.56 111.07 159.21
  A 0.95 0.84 11.4 0 1 110.33 159.64
  Q 109.42 159.70 108.82 160.34
  A 1.28 0.94 -62.3 0 1 108.00 160.74
  Q 68.68 160.88 29.38 160.18
  C 20.28 160.02 14.39 158.46 9.85 150.83
  C 9.55 150.33 9.53 149.29 8.80 149.03
  A 0.78 0.61 11.6 0 1 8.30 148.44
  Q 8.20 146.66 7.31 145.11
  Q 7.04 144.66 7.04 144.19
  Q 6.87 112.29 7.12 80.39
  C 7.17 74.05 7.42 64.04 7.20 56.04
  Q 6.76 40.16 7.22 24.26
  Q 7.48 15.51 14.06 10.18
  C 14.42 9.89 15.07 9.92 15.32 9.13
  A 1.07 0.99 -4.3 0 1 15.89 8.52
  L 19.56 6.94
  A 1.67 0.74 -33.8 0 1 20.47 6.78
  Q 22.15 7.12 23.38 6.09
  A 1.49 1.15 -59.1 0 1 24.24 5.75
  L 105.25 5.75
  A 1.52 1.12 58.4 0 1 106.12 6.10
  Q 107.36 7.14 109.03 7.00
  A 1.76 0.98 -19.5 0 1 109.98 7.16
  L 111.39 8.00
  A 0.75 0.62 -70.4 0 1 111.67 8.77
  Q 111.37 10.21 112.41 9.69
  A 1.58 1.41 -29.1 0 1 114.37 10.13
  L 118.93 17.28
  Q 120.34 19.50 120.39 21.56
  C 120.82 40.08 120.26 58.79 120.41 77.06
  Z
  M 13.46 146.50
  L 15.29 151.25
  Q 15.10 153.45 14.57 151.71
  A 0.83 0.71 87.2 0 0 14.07 151.18
  C 12.31 150.68 13.21 152.08 13.63 152.59
  Q 16.20 155.68 19.77 157.38
  Q 22.42 158.64 26.97 158.65
  Q 63.91 158.69 100.85 158.58
  C 103.52 158.57 106.18 157.26 109.09 156.41
  Q 113.41 155.14 115.34 149.94
  A 0.87 0.57 39.0 0 0 115.10 149.19
  L 114.21 148.25
  L 114.54 146.50
  L 115.17 148.26
  A 0.45 0.42 65.9 0 0 115.78 148.52
  Q 116.75 147.97 116.85 146.94
  C 117.01 145.32 117.49 143.84 117.49 142.22
  Q 117.52 84.48 117.48 26.75
  C 117.48 23.65 116.19 20.43 115.83 17.20
  Q 115.74 16.40 113.78 14.49
  C 110.65 11.41 107.67 10.56 103.01 10.54
  Q 63.58 10.37 24.14 10.62
  C 19.23 10.66 16.08 12.40 13.29 16.08
  A 1.52 1.06 69.5 0 0 13.06 16.98
  Q 13.13 18.28 12.17 18.99
  A 1.10 0.95 -19.9 0 0 11.74 19.76
  C 11.68 21.57 11.01 23.46 11.01 25.11
  Q 10.98 84.05 11.01 142.98
  C 11.01 144.85 12.00 146.81 11.75 149.00
  A 1.31 0.96 -67.8 0 0 11.97 149.89
  Q 12.56 150.62 12.87 149.98
  A 0.75 0.50 35.6 0 0 12.59 149.24
  Q 12.12 148.84 12.32 148.23
  A 1.30 0.87 -56.3 0 0 12.32 147.34
  Q 11.39 145.36 13.46 146.50
  Z"
/>
<path fill="#020404" fill-opacity="0.188" d="
  M 114.54 146.50
  Q 114.46 85.49 114.51 24.48
  C 114.52 15.38 110.61 12.76 101.61 12.75
  Q 63.00 12.74 24.37 12.76
  C 15.97 12.76 13.49 17.45 13.50 25.47
  Q 13.53 85.98 13.46 146.50
  Q 11.39 145.36 12.32 147.34
  A 1.30 0.87 -56.3 0 1 12.32 148.23
  Q 12.12 148.84 12.59 149.24
  A 0.75 0.50 35.6 0 1 12.87 149.98
  Q 12.56 150.62 11.97 149.89
  A 1.31 0.96 -67.8 0 1 11.75 149.00
  C 12.00 146.81 11.01 144.85 11.01 142.98
  Q 10.98 84.05 11.01 25.11
  C 11.01 23.46 11.68 21.57 11.74 19.76
  A 1.10 0.95 -19.9 0 1 12.17 18.99
  Q 13.13 18.28 13.06 16.98
  A 1.52 1.06 69.5 0 1 13.29 16.08
  C 16.08 12.40 19.23 10.66 24.14 10.62
  Q 63.58 10.37 103.01 10.54
  C 107.67 10.56 110.65 11.41 113.78 14.49
  Q 115.74 16.40 115.83 17.20
  C 116.19 20.43 117.48 23.65 117.48 26.75
  Q 117.52 84.48 117.49 142.22
  C 117.49 143.84 117.01 145.32 116.85 146.94
  Q 116.75 147.97 115.78 148.52
  A 0.45 0.42 65.9 0 1 115.17 148.26
  L 114.54 146.50
  Z"
/>
<path fill="#ffffff" d="
  M 114.54 146.50
  L 114.21 148.25
  C 112.27 154.02 108.43 155.24 102.41 155.24
  Q 63.55 155.26 24.69 155.24
  C 20.51 155.24 17.77 154.37 15.29 151.25
  L 13.46 146.50
  Q 13.53 85.98 13.50 25.47
  C 13.49 17.45 15.97 12.76 24.37 12.76
  Q 63.00 12.74 101.61 12.75
  C 110.61 12.76 114.52 15.38 114.51 24.48
  Q 114.46 85.49 114.54 146.50
  Z
  M 31.66 29.20
  C 37.53 22.78 29.81 14.96 22.79 17.88
  C 17.84 19.93 16.42 25.06 20.01 29.40
  A 0.51 0.50 -41.2 0 1 19.96 30.10
  C 10.97 38.23 23.97 49.82 32.23 41.82
  Q 37.67 36.55 31.66 29.94
  A 0.55 0.55 0.0 0 1 31.66 29.20
  Z
  M 48.69 55.06
  Q 50.55 58.59 53.04 55.88
  Q 54.86 53.90 53.30 51.60
  L 48.28 44.20
  A 0.33 0.33 45.9 0 0 47.74 44.20
  C 45.81 47.05 39.21 54.16 44.27 56.84
  A 1.08 1.05 47.2 0 0 45.18 56.89
  Q 46.66 56.29 47.53 55.04
  A 0.70 0.66 -42.4 0 1 48.69 55.06
  Z
  M 80.83 55.45
  Q 81.33 56.78 83.05 57.01
  A 1.42 1.38 -57.5 0 0 83.98 56.79
  C 88.49 53.84 82.20 47.12 80.24 44.18
  A 0.34 0.33 -44.6 0 0 79.69 44.18
  L 74.96 51.16
  Q 73.34 53.56 74.92 55.84
  Q 76.88 58.66 79.27 55.25
  Q 80.24 53.86 80.83 55.45
  Z
  M 32.31 61.05
  Q 32.92 58.82 31.49 56.72
  L 26.22 49.00
  A 0.33 0.32 44.8 0 0 25.68 48.99
  C 23.85 51.82 14.82 62.12 22.68 63.58
  A 1.06 0.98 26.9 0 0 23.56 63.33
  L 25.38 61.57
  A 0.95 0.69 -53.8 0 1 26.20 61.31
  Q 27.00 61.56 27.34 62.28
  A 1.71 0.81 77.6 0 0 27.92 63.03
  Q 31.23 65.04 32.31 61.05
  Z
  M 47.70 55.92
  L 46.46 58.75
  A 0.47 0.46 18.5 0 0 46.79 59.39
  Q 47.75 59.63 49.24 59.28
  A 0.41 0.37 73.6 0 0 49.50 58.75
  L 48.52 56.05
  Q 48.13 54.94 47.70 55.92
  Z
  M 79.63 56.24
  Q 76.93 60.46 81.10 59.41
  A 0.48 0.48 -16.7 0 0 81.44 58.79
  L 80.58 56.32
  Q 80.23 55.31 79.63 56.24
  Z
  M 64.83 71.45
  Q 65.33 72.78 67.05 73.01
  A 1.37 1.36 -58.3 0 0 67.97 72.79
  C 72.49 69.84 66.20 63.13 64.26 60.18
  A 0.33 0.33 0.0 0 0 63.72 60.18
  L 58.96 67.15
  Q 57.33 69.55 58.89 71.81
  Q 60.88 74.66 63.27 71.25
  Q 64.24 69.86 64.83 71.45
  Z
  M 25.19 62.92
  L 24.33 65.81
  A 0.48 0.45 -75.6 0 0 24.66 66.41
  Q 25.96 66.70 27.33 66.41
  A 0.44 0.44 73.5 0 0 27.65 65.82
  L 26.57 62.84
  Q 25.83 60.80 25.19 62.92
  Z
  M 63.63 72.24
  Q 60.93 76.46 65.10 75.41
  A 0.48 0.48 -16.7 0 0 65.44 74.79
  L 64.58 72.32
  Q 64.23 71.31 63.63 72.24
  Z
  M 48.83 87.35
  Q 50.52 90.62 53.21 87.70
  Q 54.84 85.93 52.91 83.07
  L 48.31 76.24
  A 0.33 0.32 45.5 0 0 47.77 76.23
  L 42.97 83.18
  Q 41.33 85.54 42.94 87.87
  Q 44.88 90.66 47.28 87.24
  A 0.91 0.91 48.9 0 1 48.83 87.35
  Z
  M 80.83 87.45
  Q 81.33 88.78 83.05 89.01
  A 1.42 1.38 -57.5 0 0 83.98 88.79
  C 88.49 85.84 82.20 79.12 80.24 76.19
  A 0.33 0.32 -44.3 0 0 79.70 76.19
  L 74.96 83.15
  Q 73.33 85.55 74.89 87.80
  Q 76.88 90.66 79.27 87.25
  Q 80.24 85.86 80.83 87.45
  Z
  M 47.70 87.92
  L 46.46 90.75
  A 0.47 0.46 18.5 0 0 46.79 91.39
  Q 47.75 91.63 49.24 91.28
  A 0.41 0.37 73.6 0 0 49.50 90.75
  L 48.52 88.05
  Q 48.13 86.94 47.70 87.92
  Z
  M 79.63 88.24
  Q 76.93 92.46 81.10 91.41
  A 0.48 0.48 -16.7 0 0 81.44 90.79
  L 80.58 88.32
  Q 80.23 87.31 79.63 88.24
  Z
  M 65.58 93.11
  A 0.43 0.43 11.2 0 0 65.18 92.52
  L 62.97 92.48
  A 0.43 0.43 80.9 0 0 62.56 93.05
  L 63.61 96.14
  A 0.43 0.43 45.5 0 0 64.42 96.15
  L 65.58 93.11
  Z
  M 62.84 96.15
  Q 62.39 95.06 60.75 95.00
  A 1.35 1.25 -63.3 0 0 59.87 95.33
  C 55.84 98.78 61.71 104.59 63.73 107.82
  A 0.32 0.31 45.9 0 0 64.26 107.83
  L 69.07 100.71
  Q 70.58 98.49 69.13 96.29
  Q 67.36 93.62 65.00 96.47
  A 1.27 1.27 -36.5 0 1 62.84 96.15
  Z
  M 102.56 104.83
  L 103.94 101.19
  A 0.43 0.37 -71.9 0 0 103.71 100.63
  Q 102.24 100.27 100.68 100.59
  A 0.47 0.46 -15.5 0 0 100.33 101.19
  L 101.65 104.92
  Q 102.07 106.10 102.56 104.83
  Z
  M 107.29 110.60
  C 111.12 104.78 104.46 101.01 102.78 105.46
  Q 102.11 107.24 101.22 105.56
  C 99.73 102.74 96.60 102.69 95.65 105.84
  C 94.61 109.26 99.86 115.17 101.75 118.02
  A 0.33 0.33 -44.7 0 0 102.30 118.02
  Q 104.85 114.31 107.29 110.60
  Z
  M 49.58 109.11
  A 0.43 0.43 11.1 0 0 49.18 108.52
  L 46.97 108.48
  A 0.43 0.43 81.5 0 0 46.56 109.05
  L 47.61 112.14
  A 0.43 0.43 -43.8 0 0 48.42 112.15
  L 49.58 109.11
  Z
  M 80.55 111.83
  Q 83.40 107.39 78.85 108.65
  A 0.46 0.45 72.3 0 0 78.55 109.25
  L 79.43 111.66
  Q 79.87 112.89 80.55 111.83
  Z
  M 46.84 112.25
  Q 46.20 111.23 44.98 111.01
  A 1.28 1.21 -55.6 0 0 44.06 111.21
  C 39.52 114.32 45.75 120.74 47.72 123.82
  A 0.33 0.33 45.9 0 0 48.27 123.83
  C 50.24 120.92 56.95 113.68 51.46 111.06
  A 0.73 0.65 -53.2 0 0 50.67 111.22
  Q 49.29 112.61 47.57 112.69
  A 0.91 0.74 70.3 0 1 46.84 112.25
  Z
  M 79.07 112.71
  Q 78.44 111.27 76.98 111.01
  A 1.28 1.21 -55.6 0 0 76.06 111.21
  C 71.51 114.32 77.76 120.76 79.75 123.81
  A 0.33 0.32 45.5 0 0 80.29 123.82
  C 82.40 120.45 88.55 114.51 83.78 111.18
  A 0.86 0.67 42.6 0 0 82.90 111.11
  L 80.31 112.92
  A 0.89 0.74 -30.2 0 1 79.07 112.71
  Z
  M 107.89 138.78
  A 0.48 0.48 0.0 0 1 107.89 138.16
  Q 113.06 132.22 109.45 127.20
  C 102.43 117.43 86.28 128.88 96.40 137.93
  A 0.48 0.47 -47.0 0 1 96.42 138.62
  C 89.06 146.34 101.71 155.62 108.50 147.69
  Q 111.95 143.66 107.89 138.78
  Z"
/>
<path fill="#2d261b" d="
  M 31.66 29.94
  Q 37.67 36.55 32.23 41.82
  C 23.97 49.82 10.97 38.23 19.96 30.10
  A 0.51 0.50 -41.2 0 0 20.01 29.40
  C 16.42 25.06 17.84 19.93 22.79 17.88
  C 29.81 14.96 37.53 22.78 31.66 29.20
  A 0.55 0.55 0.0 0 0 31.66 29.94
  Z
  M 30.2200 24.5176
  A 4.35 3.69 0.1 0 0 25.8764 20.8200
  A 4.35 3.69 0.1 0 0 21.5200 24.5024
  A 4.35 3.69 0.1 0 0 25.8636 28.2000
  A 4.35 3.69 0.1 0 0 30.2200 24.5176
  Z
  M 31.1699 36.3529
  A 5.32 4.54 -0.4 0 0 25.8183 31.8501
  A 5.32 4.54 -0.4 0 0 20.5301 36.4271
  A 5.32 4.54 -0.4 0 0 25.8817 40.9299
  A 5.32 4.54 -0.4 0 0 31.1699 36.3529
  Z"
/>
<ellipse fill="#ffffff" cx="0.00" cy="0.00" transform="translate(25.87,24.51) rotate(0.1)" rx="4.35" ry="3.69"/>
<ellipse fill="#ffffff" cx="0.00" cy="0.00" transform="translate(25.85,36.39) rotate(-0.4)" rx="5.32" ry="4.54"/>
<path fill="#2d261b" d="
  M 48.69 55.06
  A 0.70 0.66 -42.4 0 0 47.53 55.04
  Q 46.66 56.29 45.18 56.89
  A 1.08 1.05 47.2 0 1 44.27 56.84
  C 39.21 54.16 45.81 47.05 47.74 44.20
  A 0.33 0.33 51.6 0 1 48.28 44.20
  L 53.30 51.60
  Q 54.86 53.90 53.04 55.88
  Q 50.55 58.59 48.69 55.06
  Z"
/>
<path fill="#2d261b" d="
  M 80.83 55.45
  Q 80.24 53.86 79.27 55.25
  Q 76.88 58.66 74.92 55.84
  Q 73.34 53.56 74.96 51.16
  L 79.69 44.18
  A 0.34 0.33 -44.6 0 1 80.24 44.18
  C 82.20 47.12 88.49 53.84 83.98 56.79
  A 1.42 1.38 -57.5 0 1 83.05 57.01
  Q 81.33 56.78 80.83 55.45
  Z"
/>
<path fill="#2d261b" d="
  M 32.31 61.05
  Q 31.23 65.04 27.92 63.03
  A 1.71 0.81 77.6 0 1 27.34 62.28
  Q 27.00 61.56 26.20 61.31
  A 0.95 0.69 -53.8 0 0 25.38 61.57
  L 23.56 63.33
  A 1.06 0.98 26.9 0 1 22.68 63.58
  C 14.82 62.12 23.85 51.82 25.68 48.99
  A 0.33 0.32 44.8 0 1 26.22 49.00
  L 31.49 56.72
  Q 32.92 58.82 32.31 61.05
  Z"
/>
<path fill="#2d261b" d="
  M 47.70 55.92
  Q 48.13 54.94 48.52 56.05
  L 49.50 58.75
  A 0.41 0.37 73.6 0 1 49.24 59.28
  Q 47.75 59.63 46.79 59.39
  A 0.47 0.46 18.5 0 1 46.46 58.75
  L 47.70 55.92
  Z"
/>
<path fill="#2d261b" d="
  M 79.63 56.24
  Q 80.23 55.31 80.58 56.32
  L 81.44 58.79
  A 0.48 0.48 -16.7 0 1 81.10 59.41
  Q 76.93 60.46 79.63 56.24
  Z"
/>
<path fill="#2d261b" d="
  M 64.83 71.45
  Q 64.24 69.86 63.27 71.25
  Q 60.88 74.66 58.89 71.81
  Q 57.33 69.55 58.96 67.15
  L 63.72 60.18
  A 0.33 0.33 -0.0 0 1 64.26 60.18
  C 66.20 63.13 72.49 69.84 67.97 72.79
  A 1.37 1.36 -58.3 0 1 67.05 73.01
  Q 65.33 72.78 64.83 71.45
  Z"
/>
<path fill="#2d261b" d="
  M 25.19 62.92
  Q 25.83 60.80 26.57 62.84
  L 27.65 65.82
  A 0.44 0.44 73.5 0 1 27.33 66.41
  Q 25.96 66.70 24.66 66.41
  A 0.48 0.45 -75.6 0 1 24.33 65.81
  L 25.19 62.92
  Z"
/>
<path fill="#2d261b" d="
  M 63.63 72.24
  Q 64.23 71.31 64.58 72.32
  L 65.44 74.79
  A 0.48 0.48 -16.7 0 1 65.10 75.41
  Q 60.93 76.46 63.63 72.24
  Z"
/>
<path fill="#2d261b" d="
  M 48.83 87.35
  A 0.91 0.91 48.9 0 0 47.28 87.24
  Q 44.88 90.66 42.94 87.87
  Q 41.33 85.54 42.97 83.18
  L 47.77 76.23
  A 0.33 0.32 45.5 0 1 48.31 76.24
  L 52.91 83.07
  Q 54.84 85.93 53.21 87.70
  Q 50.52 90.62 48.83 87.35
  Z"
/>
<path fill="#2d261b" d="
  M 80.83 87.45
  Q 80.24 85.86 79.27 87.25
  Q 76.88 90.66 74.89 87.80
  Q 73.33 85.55 74.96 83.15
  L 79.70 76.19
  A 0.33 0.32 -44.3 0 1 80.24 76.19
  C 82.20 79.12 88.49 85.84 83.98 88.79
  A 1.42 1.38 -57.5 0 1 83.05 89.01
  Q 81.33 88.78 80.83 87.45
  Z"
/>
<path fill="#2d261b" d="
  M 47.70 87.92
  Q 48.13 86.94 48.52 88.05
  L 49.50 90.75
  A 0.41 0.37 73.6 0 1 49.24 91.28
  Q 47.75 91.63 46.79 91.39
  A 0.47 0.46 18.5 0 1 46.46 90.75
  L 47.70 87.92
  Z"
/>
<path fill="#2d261b" d="
  M 79.63 88.24
  Q 80.23 87.31 80.58 88.32
  L 81.44 90.79
  A 0.48 0.48 -16.7 0 1 81.10 91.41
  Q 76.93 92.46 79.63 88.24
  Z"
/>
<path fill="#2d261b" d="
  M 65.58 93.11
  L 64.42 96.15
  A 0.43 0.43 45.9 0 1 63.61 96.14
  L 62.56 93.05
  A 0.43 0.43 80.5 0 1 62.97 92.48
  L 65.18 92.52
  A 0.43 0.43 11.9 0 1 65.58 93.11
  Z"
/>
<path fill="#2d261b" d="
  M 62.84 96.15
  A 1.27 1.27 -36.5 0 0 65.00 96.47
  Q 67.36 93.62 69.13 96.29
  Q 70.58 98.49 69.07 100.71
  L 64.26 107.83
  A 0.32 0.31 45.9 0 1 63.73 107.82
  C 61.71 104.59 55.84 98.78 59.87 95.33
  A 1.35 1.25 -63.3 0 1 60.75 95.00
  Q 62.39 95.06 62.84 96.15
  Z"
/>
<path fill="#2d261b" d="
  M 102.56 104.83
  Q 102.07 106.10 101.65 104.92
  L 100.33 101.19
  A 0.47 0.46 -15.5 0 1 100.68 100.59
  Q 102.24 100.27 103.71 100.63
  A 0.43 0.37 -71.9 0 1 103.94 101.19
  L 102.56 104.83
  Z"
/>
<path fill="#2d261b" d="
  M 102.78 105.46
  C 104.46 101.01 111.12 104.78 107.29 110.60
  Q 104.85 114.31 102.30 118.02
  A 0.33 0.33 -44.7 0 1 101.75 118.02
  C 99.86 115.17 94.61 109.26 95.65 105.84
  C 96.60 102.69 99.73 102.74 101.22 105.56
  Q 102.11 107.24 102.78 105.46
  Z"
/>
<path fill="#2d261b" d="
  M 49.58 109.11
  L 48.42 112.15
  A 0.43 0.43 -44.9 0 1 47.61 112.14
  L 46.56 109.05
  A 0.43 0.43 79.5 0 1 46.97 108.48
  L 49.18 108.52
  A 0.43 0.43 9.9 0 1 49.58 109.11
  Z"
/>
<path fill="#2d261b" d="
  M 80.55 111.83
  Q 79.87 112.89 79.43 111.66
  L 78.55 109.25
  A 0.46 0.45 72.3 0 1 78.85 108.65
  Q 83.40 107.39 80.55 111.83
  Z"
/>
<path fill="#2d261b" d="
  M 47.57 112.69
  Q 49.29 112.61 50.67 111.22
  A 0.73 0.65 -53.2 0 1 51.46 111.06
  C 56.95 113.68 50.24 120.92 48.27 123.83
  A 0.33 0.33 45.9 0 1 47.72 123.82
  C 45.75 120.74 39.52 114.32 44.06 111.21
  A 1.28 1.21 -55.6 0 1 44.98 111.01
  Q 46.20 111.23 46.84 112.25
  A 0.91 0.74 70.3 0 0 47.57 112.69
  Z"
/>
<path fill="#2d261b" d="
  M 79.07 112.71
  A 0.89 0.74 -30.2 0 0 80.31 112.92
  L 82.90 111.11
  A 0.86 0.67 42.6 0 1 83.78 111.18
  C 88.55 114.51 82.40 120.45 80.29 123.82
  A 0.33 0.32 45.5 0 1 79.75 123.81
  C 77.76 120.76 71.51 114.32 76.06 111.21
  A 1.28 1.21 -55.6 0 1 76.98 111.01
  Q 78.44 111.27 79.07 112.71
  Z"
/>
<path fill="#2d261b" d="
  M 107.89 138.78
  Q 111.95 143.66 108.50 147.69
  C 101.71 155.62 89.06 146.34 96.42 138.62
  A 0.48 0.47 -47.0 0 0 96.40 137.93
  C 86.28 128.88 102.43 117.43 109.45 127.20
  Q 113.06 132.22 107.89 138.16
  A 0.48 0.48 90.0 0 0 107.89 138.78
  Z
  M 107.4600 131.6115
  A 5.30 4.55 -0.2 0 0 102.1441 127.0800
  A 5.30 4.55 -0.2 0 0 96.8600 131.6485
  A 5.30 4.55 -0.2 0 0 102.1759 136.1800
  A 5.30 4.55 -0.2 0 0 107.4600 131.6115
  Z
  M 106.4499 143.5303
  A 4.34 3.66 0.4 0 0 102.1356 139.8401
  A 4.34 3.66 0.4 0 0 97.7701 143.4697
  A 4.34 3.66 0.4 0 0 102.0844 147.1599
  A 4.34 3.66 0.4 0 0 106.4499 143.5303
  Z"
/>
<ellipse fill="#ffffff" cx="0.00" cy="0.00" transform="translate(102.16,131.63) rotate(-0.2)" rx="5.30" ry="4.55"/>
<ellipse fill="#ffffff" cx="0.00" cy="0.00" transform="translate(102.11,143.50) rotate(0.4)" rx="4.34" ry="3.66"/>
<path fill="#020404" fill-opacity="0.188" d="
  M 114.21 148.25
  L 115.10 149.19
  A 0.87 0.57 39.0 0 1 115.34 149.94
  Q 113.41 155.14 109.09 156.41
  C 106.18 157.26 103.52 158.57 100.85 158.58
  Q 63.91 158.69 26.97 158.65
  Q 22.42 158.64 19.77 157.38
  Q 16.20 155.68 13.63 152.59
  C 13.21 152.08 12.31 150.68 14.07 151.18
  A 0.83 0.71 87.2 0 1 14.57 151.71
  Q 15.10 153.45 15.29 151.25
  C 17.77 154.37 20.51 155.24 24.69 155.24
  Q 63.55 155.26 102.41 155.24
  C 108.43 155.24 112.27 154.02 114.21 148.25
  Z"
/>
</svg>
