<?xml version="1.0" encoding="utf-8"?>
<!-- Generator: Adobe Illustrator 27.0.1, SVG Export Plug-In . SVG Version: 6.00 Build 0)  -->
<svg version="1.1" id="Слой_1" xmlns="http://www.w3.org/2000/svg" xmlns:xlink="http://www.w3.org/1999/xlink" x="0px" y="0px"
	 viewBox="0 0 128 168" style="enable-background:new 0 0 128 168;" xml:space="preserve">
<style type="text/css">
	.st0{fill:#D8D8D8;}
	.st1{fill:#AAAAAA;}
	.st2{fill:#FFFFFF;}
	.st3{fill:#2D261B;}
</style>
<g>
	<path class="st0" d="M107.9,161.7H20.1c-6.9,0-12.4-5.6-12.4-12.4V18.8c0-6.9,5.6-12.4,12.4-12.4h87.8c6.9,0,12.4,5.6,12.4,12.4
		v130.5C120.3,156.1,114.8,161.7,107.9,161.7z"/>
	<path class="st1" d="M106.9,157.8H21.1c-5.5,0-9.9-4.4-9.9-9.9V19.8c0-5.5,4.4-9.9,9.9-9.9h85.8c5.5,0,9.9,4.4,9.9,9.9v128.1
		C116.8,153.4,112.4,157.8,106.9,157.8z"/>
	<path class="st2" d="M106.6,154.8H21.4c-4.4,0-8-3.6-8-8V20.9c0-4.4,3.6-8,8-8h85.2c4.4,0,8,3.6,8,8v125.9
		C114.6,151.2,111,154.8,106.6,154.8z"/>
</g>
<g>
	<path class="st3" d="M22.2,21.3l0.2,2.4c0,0.2,0.2,0.4,0.5,0.3H23c3.6-1.2,6.8-0.1,9.1,2.9c8.8,11.5-7.4,25.7-14.7,12
		c-0.6-1.1,2.8-2.6,3.2-1.3c1.8,3.5,5.6,4.8,8.5,1.6c5.4-5.7-1-16.9-7.5-10.2c-0.2,0.2-0.5,0.3-0.8,0.2c-0.9-0.5-2.1-0.9-2.1-2.1
		c0,0,0-9.2,0-9.2c0-0.3,0.2-0.5,0.5-0.5h11.9c0.3,0,0.5,0.2,0.5,0.5v2.4c0,0.3-0.2,0.5-0.5,0.5l-8.4,0.1
		C22.5,20.8,22.2,21,22.2,21.3L22.2,21.3z"/>
	<path class="st3" d="M48,55.2l-2.6,1.6C45,57,44.7,57,44.5,56.9c-5.6-2.6,1.3-9.8,3.2-12.8c0.2-0.2,0.4-0.2,0.5,0l5,7.4
		c0.7,1,0.8,2.1,0.4,3.2c-1.2,2.9-2.8,3.1-4.8,0.7C48.5,55.2,48.2,55.1,48,55.2z"/>
	<path class="st3" d="M80.8,55.4c-0.4-1.1-0.9-1.1-1.6-0.2c-1.6,2.3-3,2.5-4.4,0.6c-1-1.5-1-3.1,0.1-4.7l4.7-7
		c0.1-0.2,0.3-0.2,0.5-0.1c0,0,0.1,0,0.1,0.1c2,2.9,8.2,9.7,3.7,12.6C83.7,57,83.4,57,83.1,57C81.9,56.9,81.2,56.3,80.8,55.4z"/>
	<path class="st3" d="M32.4,60.9c-0.8,2.8-2.2,3.5-4.4,2.2c-0.2-0.1-0.4-0.4-0.6-0.8c-0.2-0.5-0.6-0.8-1.1-1c-0.3-0.1-0.6,0-0.8,0.3
		l-1.8,1.8c-0.2,0.2-0.6,0.3-0.9,0.2c-7.9-1.5,1.1-11.6,3-14.4c0.1-0.2,0.3-0.2,0.5-0.1l0.1,0.1l5.6,8.2
		C32.5,58.4,32.7,59.6,32.4,60.9z"/>
	<path class="st3" d="M47.7,55.9c0.3-0.7,0.6-0.6,0.8,0.1l1,2.7c0.1,0.2,0,0.4-0.2,0.5c0,0,0,0-0.1,0c-1,0.2-1.8,0.3-2.5,0.1
		c-0.3-0.1-0.4-0.4-0.4-0.7L47.7,55.9z"/>
	<path class="st3" d="M79.7,55.9c0.3-0.7,0.6-0.6,0.8,0.1l1,2.7c0.1,0.2,0,0.4-0.2,0.5c0,0,0,0-0.1,0c-1.1,0.2-2.8,0.6-2.8-0.6
		L79.7,55.9z"/>
	<path class="st3" d="M25.2,62.9c0.4-1.4,0.9-1.5,1.4-0.1l1.1,3c0.1,0.2,0,0.5-0.3,0.6c0,0,0,0-0.1,0c-0.9,0.2-1.8,0.2-2.6,0
		c-0.2-0.1-0.4-0.3-0.3-0.6l0,0L25.2,62.9z"/>
	<path class="st3" d="M62.8,87.1l-2.7,1.8c-0.3,0.2-0.6,0.2-0.9,0c-5-3.1,1.5-9.6,3.4-12.7c0.2-0.2,0.4-0.2,0.5,0l4.9,7.4
		c1.1,1.6,1,3.1-0.3,4.5c-1.5,1.6-2.9,1.3-4.4-0.8C63.3,87,63,87,62.8,87.1z"/>
	<path class="st3" d="M62.7,88.2c0.3-0.5,0.6-0.5,0.8,0l0.9,2.5c0.1,0.2-0.1,0.5-0.3,0.6l0,0C61.2,92.2,60.7,91.2,62.7,88.2z"/>
	<path class="st3" d="M102.6,104.8c-0.3,0.8-0.6,0.9-0.9,0.1l-1.3-3.7c-0.1-0.2,0.1-0.5,0.3-0.6c0,0,0,0,0.1,0c1-0.2,2.1-0.2,3,0
		c0.2,0,0.3,0.3,0.2,0.5c0,0,0,0,0,0.1L102.6,104.8z"/>
	<path class="st3" d="M102.8,105.5c1.8-4.6,8.4-0.7,4.4,5.3c-1.6,2.4-3.2,4.9-4.9,7.3c-0.1,0.2-0.3,0.2-0.5,0.1l-0.1-0.1
		c-1.8-2.8-7.2-8.9-6.1-12.2c1-3.1,4.1-3.1,5.6-0.3C101.8,106.7,102.3,106.6,102.8,105.5z"/>
	<path class="st3" d="M49.6,109.1l-1.2,3c-0.1,0.3-0.7,0.5-0.9,0l-1-3.1c-0.1-0.2,0.1-0.6,0.4-0.5c0,0,2.2,0,2.2,0
		c0.2,0,0.4,0.2,0.4,0.4C49.6,109,49.6,109.1,49.6,109.1z"/>
	<path class="st3" d="M80.6,111.8c-0.5,0.7-0.8,0.7-1.1-0.2l-0.9-2.4c-0.1-0.2,0-0.5,0.3-0.6l0,0C81.9,107.8,82.5,108.9,80.6,111.8z
		"/>
	<path class="st3" d="M47.1,112.7c0.2,0.4,0.6,0.5,1.1,0.3c0.1,0,0.1-0.1,0.1-0.1l2.6-1.8c0.2-0.2,0.6-0.2,0.9,0
		c5,2.9-1.5,9.7-3.5,12.7c-0.1,0.2-0.3,0.2-0.5,0.1l-0.1-0.1c-2-3.1-8.2-9.5-3.7-12.6c0.3-0.2,0.6-0.3,0.9-0.2
		C46,111.2,46.6,111.7,47.1,112.7z"/>
	<path class="st3" d="M79.1,112.7c0.2,0.4,0.6,0.5,1.1,0.3c0.1,0,0.1-0.1,0.1-0.1l2.5-1.8c0.2-0.2,0.6-0.2,0.9,0
		c5,2.7-1.5,9.8-3.4,12.7c-0.1,0.2-0.3,0.2-0.5,0.1l-0.1-0.1c-2-3.1-8.2-9.5-3.7-12.6c0.3-0.2,0.6-0.3,0.9-0.2
		C78,111.2,78.7,111.7,79.1,112.7z"/>
	<path class="st3" d="M105.2,144c-10.9,3.2-15.5-11.4-8.3-18.1c4.8-4.4,11-2.2,13.7,3.2c0.1,0.3,0.1,0.6-0.1,0.8
		c-0.5,0.5-1.2,0.9-2,1.1c-0.3,0.1-0.6-0.1-0.8-0.3c-6.9-11.1-16.1,5.4-7.2,9.9c2,1,3.9,0.5,5.8-1.4c0.2-0.2,0.6-0.3,0.8-0.3
		c3.4,0.9,2.2,8.6,2.2,11.3c0,0.3-0.2,0.5-0.5,0.5H97.1c-1.2-0.1-1-2.3-0.7-3c0.1-0.3,0.4-0.5,0.7-0.5h8.2c0.3,0,0.5-0.2,0.5-0.5
		l0,0v-2.4C105.8,144,105.3,143.7,105.2,144z"/>
</g>
</svg>
