<?xml version="1.0" encoding="utf-8"?>
<!-- Generator: Adobe Illustrator 27.0.1, SVG Export Plug-In . SVG Version: 6.00 Build 0)  -->
<svg version="1.1" id="Слой_1" xmlns="http://www.w3.org/2000/svg" xmlns:xlink="http://www.w3.org/1999/xlink" x="0px" y="0px"
	 viewBox="0 0 128 168" style="enable-background:new 0 0 128 168;" xml:space="preserve">
<style type="text/css">
	.st0{fill:#D8D8D8;}
	.st1{fill:#AAAAAA;}
	.st2{fill:#FFFFFF;}
	.st3{fill:#2D261B;}
	.st4{fill:#F4F0EE;fill-opacity:0.91;}
</style>
<g>
	<path class="st0" d="M107.9,161.7H20.1c-6.9,0-12.4-5.6-12.4-12.4V18.8c0-6.9,5.6-12.4,12.4-12.4h87.8c6.9,0,12.4,5.6,12.4,12.4
		v130.5C120.3,156.1,114.8,161.7,107.9,161.7z"/>
	<path class="st1" d="M106.9,157.8H21.1c-5.5,0-9.9-4.4-9.9-9.9V19.8c0-5.5,4.4-9.9,9.9-9.9h85.8c5.5,0,9.9,4.4,9.9,9.9v128.1
		C116.8,153.4,112.4,157.8,106.9,157.8z"/>
	<path class="st2" d="M106.6,154.8H21.4c-4.4,0-8-3.6-8-8V20.9c0-4.4,3.6-8,8-8h85.2c4.4,0,8,3.6,8,8v125.9
		C114.6,151.2,111,154.8,106.6,154.8z"/>
</g>
<g>
	<path class="st3" d="M23.3,41.1c1.2,0.5,1.5,1.5,0.8,2.9c-0.1,0.3-0.4,0.5-0.7,0.5l-5.7-0.1c-0.3,0-0.6-0.2-0.7-0.5
		c-0.7-2-0.1-3,1.8-3.1c0.3,0,0.5-0.2,0.6-0.5l4.1-22.2c0.1-0.3,0.3-0.6,0.6-0.7c1.1-0.4,2.1-0.4,3.2-0.1c0.3,0.1,0.5,0.3,0.6,0.6
		l4.2,22.4c0.1,0.3,0.3,0.5,0.6,0.5c1.9,0.1,2.5,1.1,1.8,3.2c-0.1,0.3-0.4,0.5-0.7,0.5L28,44.4c-0.3,0-0.6-0.2-0.6-0.5v-2.1
		c0-0.3,0.2-0.5,0.5-0.7c1.1-0.5,1.3-1.4,0.5-2.5c-0.2-0.2-0.5-0.4-0.8-0.4h-3.7c-0.4,0-0.6,0.2-0.7,0.5l-0.3,1.7
		C22.7,40.7,23,41,23.3,41.1z M25.7,25.2c-0.2,0-1.6,8-1.8,9c-0.1,0.3,0.1,0.6,0.4,0.6c1,0.3,2,0.3,3,0c0.3-0.1,0.4-0.4,0.4-0.6
		L26,25.6C26,25.4,25.9,25.2,25.7,25.2z"/>
	<path class="st2" d="M23.9,34.2c0.2-1,1.6-9.1,1.8-9c0.2,0,0.3,0.2,0.3,0.4l1.6,8.6c0.1,0.3-0.1,0.6-0.4,0.6c-1,0.3-2,0.3-3,0
		C24,34.8,23.8,34.5,23.9,34.2z"/>
	<path class="st3" d="M27,61.2c-0.8-1-1.4-0.9-2,0.2c-1.9,2.4-3.5,2.6-4.9,0.4c-1.1-1.7-1.1-3.4,0-5.1l5.5-8
		c0.1-0.2,0.3-0.2,0.5-0.1c0,0,0.1,0,0.1,0.1c3.1,4.2,9.4,11.3,4.2,14.2c-0.3,0.2-0.6,0.2-0.9,0.2C28.3,63,27.5,62.4,27,61.2z"/>
	<path class="st4" d="M27,61.2h-0.7l-0.7,0.5L25,61.5C25.5,60.3,26.2,60.2,27,61.2z"/>
	<path class="st3" d="M26.2,61.3l1.4,3.9c0.1,0.3,0,0.5-0.3,0.6l0,0c-1,0.3-1.9,0.3-2.8-0.1c-0.2-0.1-0.3-0.4-0.2-0.7l1.3-3.4
		L26.2,61.3z"/>
	<path class="st3" d="M64,87.7L63.2,88c-0.3,0.1-0.5,0.3-0.7,0.7c-2.8,5.1-8.2-1.2-5.2-5.7c2.1-3.1,4.2-6.2,6.4-9.4
		c0.1-0.2,0.3-0.2,0.5-0.1l0.1,0.1c2.8,4.2,8.9,10.3,6.7,15.4c-0.1,0.3-0.4,0.5-0.7,0.7c-2.4,1.3-4.2,0.7-5.5-1.9
		C64.6,87.7,64.3,87.6,64,87.7z"/>
	<path class="st3" d="M63.4,88.7c0.7-2.5,2.2,3.6,2.5,4.2c0.5,0.9-0.4,1.4-1.3,1.2c-0.4-0.1-0.7-0.1-1,0c-0.6,0.1-1.2,0-1.8-0.1
		c-0.2-0.1-0.3-0.3-0.3-0.6c0,0,0,0,0-0.1C62.3,92.2,62.8,90.7,63.4,88.7z"/>
	<path class="st3" d="M102.8,104.5l-1.2,0.3l-1.2-3.8c-0.1-0.3,0-0.5,0.3-0.6l0,0c1-0.2,1.9-0.2,2.8,0c0.2,0.1,0.3,0.3,0.2,0.6l0,0
		L102.8,104.5z"/>
	<path class="st3" d="M101,105c0.9,0.8,1.7,0.7,2.2-0.5c1.9-2.2,3.5-2.2,4.8,0c1,1.7,0.9,3.4-0.2,5.1l-5.4,7.9
		c-0.1,0.2-0.3,0.2-0.5,0.1l-0.1-0.1c-2.4-3.5-9-10.4-4.6-14.2C98.7,102.5,100.5,103.5,101,105z"/>
	<path class="st4" d="M102.8,104.5l0.5,0.1c-0.6,1.1-1.3,1.3-2.2,0.5l0.5-0.2L102.8,104.5z"/>
	<path class="st3" d="M99.3,127.6c0.1,0.7,0,2.1,1,2.2c0,0,3.9,0,3.9,0c0.4,0,0.7-0.2,0.7-0.5l0.3-1.5c0-0.2-0.1-0.5-0.5-0.7
		c-1.1-0.6-1.4-1.6-0.9-3c0.1-0.3,0.4-0.5,0.7-0.5h5.8c0.3,0,0.6,0.2,0.7,0.5c0.7,2,0.1,3-1.8,3c-0.3,0-0.5,0.2-0.6,0.5l-4.2,22.3
		c-0.1,0.5-0.5,0.8-0.9,0.8h-2.7c-0.3,0-0.5-0.2-0.6-0.5L96,127.6c-0.1-0.3-0.3-0.5-0.6-0.5c-1.9-0.1-2.5-1.1-1.7-3.2
		c0.1-0.3,0.4-0.5,0.7-0.5l5.7,0.1c0.3,0,0.6,0.2,0.7,0.5c0.5,1.5,0.2,2.5-0.9,2.9C99.5,127,99.3,127.3,99.3,127.6z M102.9,140.7
		c-0.2-1.8,0.8-5,1.2-6.9c0.1-0.3-0.1-0.6-0.4-0.6c-1-0.3-2-0.3-3,0c-0.3,0.1-0.4,0.4-0.4,0.6l1.4,7.5c0.1,0.4,0.2,0.7,0.5,0.8
		C102.8,142.4,103,142,102.9,140.7z"/>
	<path class="st2" d="M102.9,140.7c0.1,1.3-0.1,1.7-0.7,1.4c-0.2-0.1-0.4-0.4-0.5-0.8l-1.4-7.5c-0.1-0.3,0.1-0.6,0.4-0.6
		c1-0.3,2-0.3,3,0c0.3,0.1,0.4,0.4,0.4,0.6C103.7,135.7,102.7,138.9,102.9,140.7z"/>
</g>
</svg>
