<?xml version="1.0" encoding="UTF-8" standalone="no"?>
<svg xmlns="http://www.w3.org/2000/svg" version="1.2" baseProfile="tiny" viewBox="0 0 128 168">
<g stroke-width="0.00" fill="none" stroke-linecap="butt">
<path stroke="#d9d9d9" stroke-opacity="0.588" vector-effect="non-scaling-stroke" d="
  M 17.00 152.96
  Q 19.86 155.30 23.00 155.29
  Q 61.90 155.11 100.77 155.43
  C 108.29 155.50 113.30 154.09 114.71 146.26"
/>
<path stroke="#d9d9d9" stroke-opacity="0.588" vector-effect="non-scaling-stroke" d="
  M 114.54 124.75
  L 114.54 74.25"
/>
<path stroke="#d9d9d9" stroke-opacity="0.588" vector-effect="non-scaling-stroke" d="
  M 114.46 46.50
  Q 114.52 35.49 114.51 24.48
  C 114.49 15.37 110.65 12.76 101.63 12.76
  Q 63.44 12.73 25.25 12.77
  C 19.53 12.78 16.17 14.18 13.81 19.24"
/>
<path stroke="#f9f7f6" stroke-opacity="0.949" vector-effect="non-scaling-stroke" d="
  M 114.46 46.50
  Q 113.87 60.38 114.54 74.25"
/>
<path stroke="#eaeaea" stroke-opacity="0.545" vector-effect="non-scaling-stroke" d="
  M 114.54 124.75
  L 114.71 146.26"
/>
<path stroke="#f9fafb" stroke-opacity="0.988" vector-effect="non-scaling-stroke" d="
  M 17.00 152.96
  Q 14.00 148.77 14.00 147.25
  Q 14.15 83.26 13.81 19.24"
/>
<path stroke="#96938d" vector-effect="non-scaling-stroke" d="
  M 28.16 25.57
  L 34.41 19.11
  A 1.15 0.56 -39.3 0 0 34.80 18.26
  L 34.69 17.72
  A 0.80 0.54 -3.6 0 0 33.94 17.28
  L 17.90 17.32
  A 0.54 0.51 0.5 0 0 17.36 17.82
  L 17.27 23.48
  A 0.71 0.67 10.7 0 0 17.75 24.14
  Q 21.59 25.45 20.77 21.47
  A 0.46 0.40 83.1 0 1 21.15 20.91
  L 27.29 20.90
  Q 27.90 20.90 27.45 21.35
  L 20.81 27.84
  A 0.74 0.65 -36.4 0 0 20.64 28.63
  Q 21.95 31.29 24.29 29.80
  Q 24.76 29.49 25.20 29.46
  C 32.66 28.81 33.66 38.35 27.48 40.54
  Q 22.84 42.19 20.37 37.22
  A 0.99 0.83 76.2 0 0 19.65 36.69
  Q 18.39 36.61 17.32 37.43
  A 0.69 0.65 61.4 0 0 17.11 38.23
  C 19.81 45.02 27.84 46.80 32.61 40.87
  C 36.79 35.67 35.18 27.74 28.30 26.05
  Q 27.82 25.93 28.16 25.57"
/>
<path stroke="#96938d" vector-effect="non-scaling-stroke" d="
  M 64.83 55.45
  Q 65.33 56.78 67.05 57.01
  A 1.42 1.38 -57.5 0 0 67.98 56.79
  C 72.49 53.84 66.20 47.12 64.24 44.19
  A 0.33 0.32 -44.3 0 0 63.70 44.19
  L 58.96 51.15
  Q 57.33 53.55 58.89 55.80
  Q 60.88 58.66 63.27 55.25
  Q 64.24 53.86 64.83 55.45"
/>
<path stroke="#96938d" vector-effect="non-scaling-stroke" d="
  M 25.03 61.83
  A 1.04 1.03 39.5 0 1 26.74 61.67
  Q 30.55 66.26 32.46 61.03
  Q 33.14 59.19 32.00 57.53
  L 26.25 49.15
  A 0.34 0.33 44.8 0 0 25.69 49.14
  L 19.91 57.65
  Q 18.17 60.22 20.28 62.54
  Q 23.01 65.53 25.03 61.83"
/>
<path stroke="#96938d" vector-effect="non-scaling-stroke" d="
  M 63.63 56.24
  Q 60.93 60.46 65.10 59.41
  A 0.48 0.48 -16.7 0 0 65.44 58.79
  L 64.58 56.32
  Q 64.23 55.31 63.63 56.24"
/>
<path stroke="#96938d" vector-effect="non-scaling-stroke" d="
  M 25.19 62.92
  L 24.33 65.81
  A 0.48 0.45 -75.6 0 0 24.66 66.41
  Q 25.96 66.70 27.33 66.41
  A 0.44 0.44 73.5 0 0 27.65 65.82
  L 26.57 62.84
  Q 25.83 60.80 25.19 62.92"
/>
<path stroke="#96938d" vector-effect="non-scaling-stroke" d="
  M 64.76 87.18
  Q 66.92 90.95 69.06 87.85
  Q 70.63 85.57 69.01 83.18
  L 64.25 76.19
  A 0.33 0.32 45.5 0 0 63.71 76.18
  L 58.63 83.78
  A 1.67 1.46 -31.7 0 0 58.35 84.69
  Q 58.47 91.71 63.82 87.03
  A 0.62 0.61 54.0 0 1 64.76 87.18"
/>
<path stroke="#96938d" vector-effect="non-scaling-stroke" d="
  M 63.70 87.92
  L 62.46 90.75
  A 0.47 0.46 18.5 0 0 62.79 91.39
  Q 63.75 91.63 65.24 91.28
  A 0.41 0.37 73.6 0 0 65.50 90.75
  L 64.52 88.05
  Q 64.13 86.94 63.70 87.92"
/>
<path stroke="#96938d" vector-effect="non-scaling-stroke" d="
  M 102.56 104.83
  L 103.94 101.19
  A 0.43 0.37 -71.9 0 0 103.71 100.63
  Q 102.23 100.27 100.68 100.59
  A 0.46 0.45 -15.7 0 0 100.34 101.18
  L 101.64 104.91
  Q 102.07 106.12 102.56 104.83"
/>
<path stroke="#96938d" vector-effect="non-scaling-stroke" d="
  M 106.30 103.68
  Q 104.50 102.72 103.74 104.61
  Q 103.38 105.50 102.01 105.93
  A 0.61 0.57 67.9 0 1 101.32 105.61
  Q 99.92 102.85 97.03 103.83
  A 1.42 1.38 -82.8 0 0 96.28 104.43
  C 93.70 108.56 99.37 114.54 101.71 117.87
  A 0.36 0.35 45.5 0 0 102.29 117.88
  C 105.54 113.50 111.76 106.58 106.30 103.68"
/>
<path stroke="#96938d" vector-effect="non-scaling-stroke" d="
  M 65.58 109.11
  A 0.43 0.43 -79.5 0 0 65.19 108.53
  L 62.98 108.48
  A 0.43 0.43 -7.0 0 0 62.56 109.05
  L 63.60 112.13
  A 0.43 0.43 48.1 0 0 64.41 112.15
  L 65.58 109.11"
/>
<path stroke="#96938d" vector-effect="non-scaling-stroke" d="
  M 63.06 112.69
  Q 61.15 109.51 58.80 112.34
  Q 57.31 114.14 58.61 116.09
  L 63.75 123.81
  A 0.32 0.32 44.3 0 0 64.29 123.81
  C 66.34 120.51 71.64 115.46 68.58 111.66
  A 1.36 1.20 72.2 0 0 67.77 111.18
  Q 65.99 110.92 65.01 112.51
  A 1.22 1.07 -46.5 0 1 63.06 112.69"
/>
<path stroke="#96938d" vector-effect="non-scaling-stroke" d="
  M 100.62 146.80
  Q 103.50 143.22 107.14 140.30
  A 0.71 0.63 -31.1 0 0 107.38 139.53
  Q 106.82 138.18 105.48 137.65
  A 1.09 0.85 -45.7 0 0 104.59 137.77
  Q 101.96 139.40 99.54 138.18
  C 90.54 133.63 103.08 120.21 107.80 131.02
  A 0.69 0.63 73.5 0 0 108.49 131.44
  Q 109.66 131.27 110.63 130.58
  A 0.68 0.67 61.7 0 0 110.86 129.80
  C 107.11 120.16 94.29 122.43 93.21 132.15
  Q 92.41 139.32 99.79 142.10
  A 0.32 0.30 -57.4 0 1 99.89 142.61
  L 93.47 149.00
  Q 91.73 150.73 94.22 150.73
  L 109.98 150.73
  A 0.57 0.50 0.5 0 0 110.55 150.24
  L 110.74 144.52
  A 0.75 0.67 11.5 0 0 110.23 143.84
  Q 106.52 142.61 107.23 146.56
  A 0.46 0.43 84.3 0 1 106.82 147.10
  L 100.81 147.22
  Q 100.27 147.23 100.62 146.80"
/>
</g>
<path fill="#010001" fill-opacity="0.090" d="
  M 19.29 160.19
  Q 18.28 160.13 17.86 159.21
  A 0.65 0.63 73.7 0 0 17.20 158.83
  Q 14.88 159.13 13.94 157.27
  Q 13.79 156.98 13.36 156.50
  L 8.99 151.75
  A 3.65 1.00 86.6 0 1 8.23 149.51
  C 7.78 146.61 6.99 144.04 6.99 141.13
  Q 7.00 110.66 7.01 80.19
  C 7.01 78.18 7.53 75.89 7.12 73.07
  Q 6.61 69.61 6.98 63.13
  C 7.69 50.63 6.87 37.90 7.03 25.35
  C 7.05 23.55 7.97 22.05 7.78 19.98
  A 1.12 1.03 -28.3 0 1 8.07 19.14
  Q 9.04 18.05 9.06 16.56
  A 1.80 1.18 71.6 0 1 9.30 15.65
  Q 12.04 11.48 16.02 8.52
  Q 18.10 6.97 19.76 7.04
  C 22.47 7.16 24.70 6.03 27.18 6.03
  Q 66.18 5.97 105.18 6.06
  A 1.43 1.11 60.3 0 1 106.03 6.41
  Q 107.33 7.54 109.12 7.28
  A 0.48 0.45 81.0 0 1 109.63 7.68
  Q 109.74 8.34 110.37 8.25
  A 1.57 0.72 -19.1 0 1 111.27 8.34
  Q 114.98 10.38 117.22 13.84
  C 118.45 15.75 120.11 20.12 120.15 22.57
  Q 120.79 65.55 120.24 108.53
  C 120.16 115.19 120.53 124.95 120.12 133.17
  C 119.89 137.59 120.45 145.02 118.93 151.02
  A 1.27 1.07 -12.1 0 1 118.37 151.74
  C 116.06 153.16 117.04 155.81 114.21 156.65
  Q 113.67 156.81 113.36 157.10
  L 110.86 159.41
  A 1.51 0.99 13.0 0 1 109.99 159.73
  Q 109.21 159.76 108.77 160.42
  A 0.74 0.64 -66.8 0 1 108.07 160.76
  Q 105.65 160.30 103.68 161.48
  A 1.87 1.40 -53.2 0 1 102.76 161.75
  Q 88.74 161.63 74.75 162.01
  C 71.66 162.09 68.45 161.61 65.65 161.64
  Q 45.33 161.85 25.00 161.73
  A 1.86 1.46 55.7 0 1 24.08 161.44
  Q 22.33 160.33 20.23 160.97
  A 1.32 0.88 -31.1 0 1 19.35 160.93
  Q 18.68 160.58 19.29 160.32
  Q 19.54 160.21 19.29 160.19
  Z
  M 10.44 144.31
  Q 10.51 145.60 11.27 146.60
  A 1.16 1.04 33.1 0 1 11.50 147.46
  Q 10.95 150.53 13.07 152.43
  A 1.42 0.91 -82.1 0 1 13.45 153.25
  C 13.75 155.61 19.63 158.05 21.56 158.60
  C 24.21 159.35 27.28 159.03 30.19 159.08
  Q 30.41 159.09 31.10 159.37
  Q 31.50 159.53 31.80 159.20
  A 0.95 0.66 -57.6 0 1 32.56 158.88
  C 36.02 159.53 39.84 158.85 42.57 158.90
  Q 54.64 159.15 66.72 158.78
  C 68.53 158.73 70.48 159.75 72.00 159.75
  Q 87.87 159.75 103.75 159.75
  A 1.80 1.30 -54.2 0 0 104.65 159.45
  Q 105.68 158.74 106.94 158.71
  A 1.27 1.19 21.6 0 0 107.80 158.37
  C 108.96 157.25 110.60 156.97 111.64 156.15
  Q 117.88 151.22 117.97 144.00
  Q 118.31 116.15 117.99 24.25
  Q 117.97 19.13 115.25 15.18
  C 114.23 13.71 112.11 12.74 110.82 11.15
  A 1.40 0.88 64.9 0 0 110.03 10.64
  L 106.19 10.15
  A 0.62 0.32 -1.6 0 1 105.77 9.95
  L 105.63 9.73
  A 0.99 0.65 67.6 0 0 104.94 9.26
  Q 64.88 9.23 24.81 9.27
  Q 21.57 9.27 16.47 12.05
  A 1.94 1.50 -82.6 0 0 15.79 12.73
  Q 14.79 14.45 13.03 15.38
  Q 11.97 15.94 12.49 16.94
  A 0.34 0.34 69.8 0 1 12.27 17.42
  C 10.53 17.84 10.74 20.50 10.94 21.86
  A 0.43 0.34 86.2 0 1 10.60 22.36
  Q 10.30 22.34 10.23 21.99
  Q 10.18 21.76 10.15 21.98
  Q 9.77 24.85 9.77 27.75
  Q 9.76 85.63 9.83 143.50
  Q 9.83 144.44 10.44 144.31
  Z"
/>
<path fill="#010202" fill-opacity="0.176" d="
  M 10.44 144.31
  Q 9.83 144.44 9.83 143.50
  Q 9.76 85.63 9.77 27.75
  Q 9.77 24.85 10.15 21.98
  Q 10.18 21.76 10.23 21.99
  Q 10.30 22.34 10.60 22.36
  A 0.43 0.34 86.2 0 0 10.94 21.86
  C 10.74 20.50 10.53 17.84 12.27 17.42
  A 0.34 0.34 69.8 0 0 12.49 16.94
  Q 11.97 15.94 13.03 15.38
  Q 14.79 14.45 15.79 12.73
  A 1.94 1.50 -82.6 0 1 16.47 12.05
  Q 21.57 9.27 24.81 9.27
  Q 64.88 9.23 104.94 9.26
  A 0.99 0.65 67.6 0 1 105.63 9.73
  L 105.77 9.95
  A 0.62 0.32 -1.6 0 0 106.19 10.15
  L 110.03 10.64
  A 1.40 0.88 64.9 0 1 110.82 11.15
  C 112.11 12.74 114.23 13.71 115.25 15.18
  Q 117.97 19.13 117.99 24.25
  Q 118.31 116.15 117.97 144.00
  Q 117.88 151.22 111.64 156.15
  C 110.60 156.97 108.96 157.25 107.80 158.37
  A 1.27 1.19 21.6 0 1 106.94 158.71
  Q 105.68 158.74 104.65 159.45
  A 1.80 1.30 -54.2 0 1 103.75 159.75
  Q 87.87 159.75 72.00 159.75
  C 70.48 159.75 68.53 158.73 66.72 158.78
  Q 54.64 159.15 42.57 158.90
  C 39.84 158.85 36.02 159.53 32.56 158.88
  A 0.95 0.66 -57.6 0 0 31.80 159.20
  Q 31.50 159.53 31.10 159.37
  Q 30.41 159.09 30.19 159.08
  C 27.28 159.03 24.21 159.35 21.56 158.60
  C 19.63 158.05 13.75 155.61 13.45 153.25
  A 1.42 0.91 -82.1 0 0 13.07 152.43
  Q 10.95 150.53 11.50 147.46
  A 1.16 1.04 33.1 0 0 11.27 146.60
  Q 10.51 145.60 10.44 144.31
  Z
  M 13.81 19.24
  Q 13.03 109.08 13.52 146.69
  Q 13.56 150.05 17.00 152.96
  Q 19.86 155.30 23.00 155.29
  Q 61.90 155.11 100.77 155.43
  C 108.29 155.50 113.30 154.09 114.71 146.26
  L 114.93 117.05
  Q 114.94 116.32 114.90 117.06
  L 114.54 124.75
  L 114.54 74.25
  Q 115.05 60.37 114.46 46.50
  Q 114.52 35.49 114.51 24.48
  C 114.49 15.37 110.65 12.76 101.63 12.76
  Q 63.44 12.73 25.25 12.77
  C 19.53 12.78 16.17 14.18 13.81 19.24
  Z"
/>
<path fill="#ffffff" d="
  M 114.46 46.50
  Q 113.87 60.38 114.54 74.25
  L 114.54 124.75
  L 114.71 146.26
  C 113.30 154.09 108.29 155.50 100.77 155.43
  Q 61.90 155.11 23.00 155.29
  Q 19.86 155.30 17.00 152.96
  Q 14.00 148.77 14.00 147.25
  Q 14.15 83.26 13.81 19.24
  C 16.17 14.18 19.53 12.78 25.25 12.77
  Q 63.44 12.73 101.63 12.76
  C 110.65 12.76 114.49 15.37 114.51 24.48
  Q 114.52 35.49 114.46 46.50
  Z
  M 28.16 25.57
  L 34.41 19.11
  A 1.15 0.56 -39.3 0 0 34.80 18.26
  L 34.69 17.72
  A 0.80 0.54 -3.6 0 0 33.94 17.28
  L 17.90 17.32
  A 0.54 0.51 0.5 0 0 17.36 17.82
  L 17.27 23.48
  A 0.71 0.67 10.7 0 0 17.75 24.14
  Q 21.59 25.45 20.77 21.47
  A 0.46 0.40 83.1 0 1 21.15 20.91
  L 27.29 20.90
  Q 27.90 20.90 27.45 21.35
  L 20.81 27.84
  A 0.74 0.65 -36.4 0 0 20.64 28.63
  Q 21.95 31.29 24.29 29.80
  Q 24.76 29.49 25.20 29.46
  C 32.66 28.81 33.66 38.35 27.48 40.54
  Q 22.84 42.19 20.37 37.22
  A 0.99 0.83 76.2 0 0 19.65 36.69
  Q 18.39 36.61 17.32 37.43
  A 0.69 0.65 61.4 0 0 17.11 38.23
  C 19.81 45.02 27.84 46.80 32.61 40.87
  C 36.79 35.67 35.18 27.74 28.30 26.05
  Q 27.82 25.93 28.16 25.57
  Z
  M 64.83 55.45
  Q 65.33 56.78 67.05 57.01
  A 1.42 1.38 -57.5 0 0 67.98 56.79
  C 72.49 53.84 66.20 47.12 64.24 44.19
  A 0.33 0.32 -44.3 0 0 63.70 44.19
  L 58.96 51.15
  Q 57.33 53.55 58.89 55.80
  Q 60.88 58.66 63.27 55.25
  Q 64.24 53.86 64.83 55.45
  Z
  M 25.03 61.83
  A 1.04 1.03 39.5 0 1 26.74 61.67
  Q 30.55 66.26 32.46 61.03
  Q 33.14 59.19 32.00 57.53
  L 26.25 49.15
  A 0.34 0.33 44.8 0 0 25.69 49.14
  L 19.91 57.65
  Q 18.17 60.22 20.28 62.54
  Q 23.01 65.53 25.03 61.83
  Z
  M 63.63 56.24
  Q 60.93 60.46 65.10 59.41
  A 0.48 0.48 -16.7 0 0 65.44 58.79
  L 64.58 56.32
  Q 64.23 55.31 63.63 56.24
  Z
  M 25.19 62.92
  L 24.33 65.81
  A 0.48 0.45 -75.6 0 0 24.66 66.41
  Q 25.96 66.70 27.33 66.41
  A 0.44 0.44 73.5 0 0 27.65 65.82
  L 26.57 62.84
  Q 25.83 60.80 25.19 62.92
  Z
  M 64.76 87.18
  Q 66.92 90.95 69.06 87.85
  Q 70.63 85.57 69.01 83.18
  L 64.25 76.19
  A 0.33 0.32 45.5 0 0 63.71 76.18
  L 58.63 83.78
  A 1.67 1.46 -31.7 0 0 58.35 84.69
  Q 58.47 91.71 63.82 87.03
  A 0.62 0.61 54.0 0 1 64.76 87.18
  Z
  M 63.70 87.92
  L 62.46 90.75
  A 0.47 0.46 18.5 0 0 62.79 91.39
  Q 63.75 91.63 65.24 91.28
  A 0.41 0.37 73.6 0 0 65.50 90.75
  L 64.52 88.05
  Q 64.13 86.94 63.70 87.92
  Z
  M 102.56 104.83
  L 103.94 101.19
  A 0.43 0.37 -71.9 0 0 103.71 100.63
  Q 102.23 100.27 100.68 100.59
  A 0.46 0.45 -15.7 0 0 100.34 101.18
  L 101.64 104.91
  Q 102.07 106.12 102.56 104.83
  Z
  M 106.30 103.68
  Q 104.50 102.72 103.74 104.61
  Q 103.38 105.50 102.01 105.93
  A 0.61 0.57 67.9 0 1 101.32 105.61
  Q 99.92 102.85 97.03 103.83
  A 1.42 1.38 -82.8 0 0 96.28 104.43
  C 93.70 108.56 99.37 114.54 101.71 117.87
  A 0.36 0.35 45.5 0 0 102.29 117.88
  C 105.54 113.50 111.76 106.58 106.30 103.68
  Z
  M 65.58 109.11
  A 0.43 0.43 -79.5 0 0 65.19 108.53
  L 62.98 108.48
  A 0.43 0.43 -7.0 0 0 62.56 109.05
  L 63.60 112.13
  A 0.43 0.43 48.1 0 0 64.41 112.15
  L 65.58 109.11
  Z
  M 63.06 112.69
  Q 61.15 109.51 58.80 112.34
  Q 57.31 114.14 58.61 116.09
  L 63.75 123.81
  A 0.32 0.32 44.3 0 0 64.29 123.81
  C 66.34 120.51 71.64 115.46 68.58 111.66
  A 1.36 1.20 72.2 0 0 67.77 111.18
  Q 65.99 110.92 65.01 112.51
  A 1.22 1.07 -46.5 0 1 63.06 112.69
  Z
  M 100.62 146.80
  Q 103.50 143.22 107.14 140.30
  A 0.71 0.63 -31.1 0 0 107.38 139.53
  Q 106.82 138.18 105.48 137.65
  A 1.09 0.85 -45.7 0 0 104.59 137.77
  Q 101.96 139.40 99.54 138.18
  C 90.54 133.63 103.08 120.21 107.80 131.02
  A 0.69 0.63 73.5 0 0 108.49 131.44
  Q 109.66 131.27 110.63 130.58
  A 0.68 0.67 61.7 0 0 110.86 129.80
  C 107.11 120.16 94.29 122.43 93.21 132.15
  Q 92.41 139.32 99.79 142.10
  A 0.32 0.30 -57.4 0 1 99.89 142.61
  L 93.47 149.00
  Q 91.73 150.73 94.22 150.73
  L 109.98 150.73
  A 0.57 0.50 0.5 0 0 110.55 150.24
  L 110.74 144.52
  A 0.75 0.67 11.5 0 0 110.23 143.84
  Q 106.52 142.61 107.23 146.56
  A 0.46 0.43 84.3 0 1 106.82 147.10
  L 100.81 147.22
  Q 100.27 147.23 100.62 146.80
  Z"
/>
<path fill="#2d261b" d="
  M 28.30 26.05
  C 35.18 27.74 36.79 35.67 32.61 40.87
  C 27.84 46.80 19.81 45.02 17.11 38.23
  A 0.69 0.65 61.4 0 1 17.32 37.43
  Q 18.39 36.61 19.65 36.69
  A 0.99 0.83 76.2 0 1 20.37 37.22
  Q 22.84 42.19 27.48 40.54
  C 33.66 38.35 32.66 28.81 25.20 29.46
  Q 24.76 29.49 24.29 29.80
  Q 21.95 31.29 20.64 28.63
  A 0.74 0.65 -36.4 0 1 20.81 27.84
  L 27.45 21.35
  Q 27.90 20.90 27.29 20.90
  L 21.15 20.91
  A 0.46 0.40 83.1 0 0 20.77 21.47
  Q 21.59 25.45 17.75 24.14
  A 0.71 0.67 10.7 0 1 17.27 23.48
  L 17.36 17.82
  A 0.54 0.51 0.5 0 1 17.90 17.32
  L 33.94 17.28
  A 0.80 0.54 -3.6 0 1 34.69 17.72
  L 34.80 18.26
  A 1.15 0.56 -39.3 0 1 34.41 19.11
  L 28.16 25.57
  Q 27.82 25.93 28.30 26.05
  Z"
/>
<path fill="#f2f4f6" fill-opacity="0.973" d="
  M 13.81 19.24
  Q 14.15 83.26 14.00 147.25
  Q 14.00 148.77 17.00 152.96
  Q 13.56 150.05 13.52 146.69
  Q 13.03 109.08 13.81 19.24
  Z"
/>
<path fill="#2d261b" d="
  M 64.83 55.45
  Q 64.24 53.86 63.27 55.25
  Q 60.88 58.66 58.89 55.80
  Q 57.33 53.55 58.96 51.15
  L 63.70 44.19
  A 0.33 0.32 -44.3 0 1 64.24 44.19
  C 66.20 47.12 72.49 53.84 67.98 56.79
  A 1.42 1.38 -57.5 0 1 67.05 57.01
  Q 65.33 56.78 64.83 55.45
  Z"
/>
<path fill="#f3efed" fill-opacity="0.898" d="
  M 114.46 46.50
  Q 115.05 60.37 114.54 74.25
  Q 113.87 60.38 114.46 46.50
  Z"
/>
<path fill="#2d261b" d="
  M 25.03 61.83
  Q 23.01 65.53 20.28 62.54
  Q 18.17 60.22 19.91 57.65
  L 25.69 49.14
  A 0.34 0.33 44.8 0 1 26.25 49.15
  L 32.00 57.53
  Q 33.14 59.19 32.46 61.03
  Q 30.55 66.26 26.74 61.67
  A 1.04 1.03 39.5 0 0 25.03 61.83
  Z"
/>
<path fill="#2d261b" d="
  M 63.63 56.24
  Q 64.23 55.31 64.58 56.32
  L 65.44 58.79
  A 0.48 0.48 -16.7 0 1 65.10 59.41
  Q 60.93 60.46 63.63 56.24
  Z"
/>
<path fill="#2d261b" d="
  M 25.19 62.92
  Q 25.83 60.80 26.57 62.84
  L 27.65 65.82
  A 0.44 0.44 73.5 0 1 27.33 66.41
  Q 25.96 66.70 24.66 66.41
  A 0.48 0.45 -75.6 0 1 24.33 65.81
  L 25.19 62.92
  Z"
/>
<path fill="#2d261b" d="
  M 64.76 87.18
  A 0.62 0.61 54.0 0 0 63.82 87.03
  Q 58.47 91.71 58.35 84.69
  A 1.67 1.46 -31.7 0 1 58.63 83.78
  L 63.71 76.18
  A 0.33 0.32 45.5 0 1 64.25 76.19
  L 69.01 83.18
  Q 70.63 85.57 69.06 87.85
  Q 66.92 90.95 64.76 87.18
  Z"
/>
<path fill="#2d261b" d="
  M 63.70 87.92
  Q 64.13 86.94 64.52 88.05
  L 65.50 90.75
  A 0.41 0.37 73.6 0 1 65.24 91.28
  Q 63.75 91.63 62.79 91.39
  A 0.47 0.46 18.5 0 1 62.46 90.75
  L 63.70 87.92
  Z"
/>
<path fill="#2d261b" d="
  M 102.56 104.83
  Q 102.07 106.12 101.64 104.91
  L 100.34 101.18
  A 0.46 0.45 -15.7 0 1 100.68 100.59
  Q 102.23 100.27 103.71 100.63
  A 0.43 0.37 -71.9 0 1 103.94 101.19
  L 102.56 104.83
  Z"
/>
<path fill="#2d261b" d="
  M 106.30 103.68
  C 111.76 106.58 105.54 113.50 102.29 117.88
  A 0.36 0.35 45.5 0 1 101.71 117.87
  C 99.37 114.54 93.70 108.56 96.28 104.43
  A 1.42 1.38 -82.8 0 1 97.03 103.83
  Q 99.92 102.85 101.32 105.61
  A 0.61 0.57 67.9 0 0 102.01 105.93
  Q 103.38 105.50 103.74 104.61
  Q 104.50 102.72 106.30 103.68
  Z"
/>
<path fill="#2d261b" d="
  M 65.58 109.11
  L 64.41 112.15
  A 0.43 0.43 48.8 0 1 63.60 112.13
  L 62.56 109.05
  A 0.43 0.43 -9.5 0 1 62.98 108.48
  L 65.19 108.53
  A 0.43 0.43 -79.8 0 1 65.58 109.11
  Z"
/>
<path fill="#2d261b" d="
  M 63.06 112.69
  A 1.22 1.07 -46.5 0 0 65.01 112.51
  Q 65.99 110.92 67.77 111.18
  A 1.36 1.20 72.2 0 1 68.58 111.66
  C 71.64 115.46 66.34 120.51 64.29 123.81
  A 0.32 0.32 44.3 0 1 63.75 123.81
  L 58.61 116.09
  Q 57.31 114.14 58.80 112.34
  Q 61.15 109.51 63.06 112.69
  Z"
/>
<path fill="#010001" fill-opacity="0.090" d="
  M 114.71 146.26
  L 114.54 124.75
  L 114.90 117.06
  Q 114.94 116.32 114.93 117.05
  L 114.71 146.26
  Z"
/>
<path fill="#2d261b" d="
  M 100.81 147.22
  L 106.82 147.10
  A 0.46 0.43 84.3 0 0 107.23 146.56
  Q 106.52 142.61 110.23 143.84
  A 0.75 0.67 11.5 0 1 110.74 144.52
  L 110.55 150.24
  A 0.57 0.50 0.5 0 1 109.98 150.73
  L 94.22 150.73
  Q 91.73 150.73 93.47 149.00
  L 99.89 142.61
  A 0.32 0.30 -57.4 0 0 99.79 142.10
  Q 92.41 139.32 93.21 132.15
  C 94.29 122.43 107.11 120.16 110.86 129.80
  A 0.68 0.67 61.7 0 1 110.63 130.58
  Q 109.66 131.27 108.49 131.44
  A 0.69 0.63 73.5 0 1 107.80 131.02
  C 103.08 120.21 90.54 133.63 99.54 138.18
  Q 101.96 139.40 104.59 137.77
  A 1.09 0.85 -45.7 0 1 105.48 137.65
  Q 106.82 138.18 107.38 139.53
  A 0.71 0.63 -31.1 0 1 107.14 140.30
  Q 103.50 143.22 100.62 146.80
  Q 100.27 147.23 100.81 147.22
  Z"
/>
</svg>
