<?xml version="1.0" encoding="utf-8"?>
<!-- Generator: Adobe Illustrator 27.0.1, SVG Export Plug-In . SVG Version: 6.00 Build 0)  -->
<svg version="1.1" id="Слой_1" xmlns="http://www.w3.org/2000/svg" xmlns:xlink="http://www.w3.org/1999/xlink" x="0px" y="0px"
	 viewBox="0 0 128 168" style="enable-background:new 0 0 128 168;" xml:space="preserve">
<style type="text/css">
	.st0{fill:#D8D8D8;}
	.st1{fill:#AAAAAA;}
	.st2{fill:#FFFFFF;}
	.st3{fill:#2D261B;}
	.st4{fill:#C2C0BB;}
	.st5{fill:#010001;fill-opacity:9.400000e-02;}
</style>
<g>
	<path class="st0" d="M107.8,161.7H20c-6.9,0-12.4-5.6-12.4-12.4V18.8c0-6.9,5.6-12.4,12.4-12.4h87.8c6.9,0,12.4,5.6,12.4,12.4
		v130.5C120.2,156.1,114.7,161.7,107.8,161.7z"/>
	<path class="st1" d="M106.8,157.8H21c-5.5,0-9.9-4.4-9.9-9.9V19.8c0-5.5,4.4-9.9,9.9-9.9h85.8c5.5,0,9.9,4.4,9.9,9.9v128.1
		C116.7,153.4,112.3,157.8,106.8,157.8z"/>
	<path class="st2" d="M106.5,154.8H21.3c-4.4,0-8-3.6-8-8V20.9c0-4.4,3.6-8,8-8h85.2c4.4,0,8,3.6,8,8v125.9
		C114.5,151.2,110.9,154.8,106.5,154.8z"/>
</g>
<g>
	<path class="st3" d="M30.2,35.2c-4.7,1.8-8.3,1-10.9-2.2c-9.2-11.5,10.2-23.9,14.4-8.8c1.4,4.9,1.2,9.8-0.6,14.6
		c-2.5,6.8-10.2,7.6-14.5,1.9c-0.2-0.3-0.2-0.6-0.1-0.9c0.3-0.7,0.8-1.2,1.6-1.5c0.3-0.1,0.6,0,0.8,0.2c4.9,4.1,8.1,3.1,9.7-3
		C30.6,35.2,30.5,35.1,30.2,35.2z M26.2,32.7c2.8-0.2,4.8-3.1,4.6-6.3l0,0c-1-7.8-10.4-7-10.1,0.8l0,0C20.9,30.5,23.4,33,26.2,32.7z
		"/>
	<path class="st2" d="M25.2,20.9c2.8-0.2,5.3,2.2,5.6,5.5c0.4,7.8-9.3,8.6-10.2,0.9C20.3,24,22.4,21.2,25.2,20.9z"/>
	<path class="st3" d="M48.5,55.1c-0.1-0.2-0.4-0.3-0.6-0.1l0,0c-3.6,3.1-5.4,2.3-5.5-2.3c0-0.3,0.1-0.6,0.3-0.9l5.1-7.6
		c0.1-0.1,0.3-0.2,0.5-0.1l0.1,0.1l4.9,7.2c1.1,1.6,1,3.1-0.2,4.6C51.4,57.7,49.9,57.5,48.5,55.1z"/>
	<path class="st3" d="M75.8,56.7c-4-3.6,1.7-9.2,3.9-12.5c0.1-0.2,0.3-0.2,0.5-0.1l0.1,0.1l4.9,7.4c1.2,1.8,1.1,3.3-0.3,4.6
		c-3.6,3.4-3.8-3.9-6.6,0.2c-0.5,0.8-1.5,1-2.3,0.5C76,56.8,75.9,56.8,75.8,56.7z"/>
	<path class="st3" d="M32.3,61c-0.6,2.5-2,3.3-4.1,2.2c-0.2-0.1-0.5-0.4-0.6-0.7c-0.3-0.6-0.7-0.9-1.3-1.2c-0.3-0.1-0.6,0-0.8,0.2
		l-1.8,1.8c-0.2,0.2-0.5,0.3-0.9,0.2c-7.9-1.5,1.2-11.8,3-14.6c0.2-0.2,0.4-0.2,0.5,0l5.2,7.6C32.4,58,32.7,59.5,32.3,61z"/>
	<path class="st3" d="M65,66.5c-0.8-1.2-1.5-1.1-2.2,0.2c-1.8,1.3-3.1,1.2-4-0.4c-0.8-1.5-0.8-2.9,0.1-4.2l4.8-7
		c0.1-0.2,0.3-0.2,0.5-0.1l0.1,0.1l5.1,7.5c0.5,0.8,0.6,1.8,0.2,2.7C68.6,68,67.1,68.3,65,66.5z"/>
	<path class="st3" d="M47.7,55.9c0.3-0.7,0.6-0.6,0.8,0.1l1,2.7c0.1,0.2,0,0.4-0.2,0.5c0,0,0,0-0.1,0c-1,0.2-1.8,0.3-2.5,0.1
		c-0.3-0.1-0.4-0.4-0.4-0.7L47.7,55.9z"/>
	<path class="st3" d="M79.7,56.2c0.4-0.6,0.7-0.6,0.9,0.1l0.9,2.5c0.1,0.2,0,0.5-0.3,0.6l0,0C78.3,60.1,77.8,59.1,79.7,56.2z"/>
	<path class="st3" d="M25.2,62.9c0.4-1.4,0.9-1.5,1.4-0.1l1.1,3c0.1,0.2,0,0.5-0.3,0.6c0,0,0,0-0.1,0c-0.9,0.2-1.8,0.2-2.6,0
		c-0.2-0.1-0.4-0.3-0.3-0.6l0,0L25.2,62.9z"/>
	<path class="st3" d="M49,77c-1.1-1.2-1.9-1-2.2,0.5c-2.1,1.5-3.6,1.1-4.3-1.2c-0.9-2.9,2.9-7,5.2-10.5c0.1-0.2,0.3-0.2,0.5-0.1
		l0.1,0.1l4.9,7.1c0.7,1.1,0.9,2.2,0.5,3.5C52.7,78.9,51.2,79.1,49,77z"/>
	<path class="st3" d="M81,77c-1.1-1.2-1.9-1-2.2,0.5c-2.1,1.5-3.6,1.1-4.3-1.2c-0.9-2.9,3.4-7.9,5.2-10.5c0.1-0.2,0.3-0.2,0.5-0.1
		l0.1,0.1l4.9,7.2c0.7,1,0.9,2.2,0.5,3.4C84.7,78.9,83.2,79.1,81,77z"/>
	<path class="st4" d="M65,66.5l-0.5,0.3c-0.6-0.3-1-0.2-1.2,0.5l-0.5-0.5C63.5,65.3,64.2,65.2,65,66.5z"/>
	<path class="st3" d="M64.5,66.7c1.8,2.9,1.2,3.9-1.7,3c-0.2-0.1-0.3-0.3-0.2-0.6l0,0l0.7-1.9C63.5,66.6,63.9,66.4,64.5,66.7z"/>
	<path class="st4" d="M49,77l-0.5,0.3c-0.6-0.3-1-0.1-1.3,0.5l-0.5-0.3C47.1,75.9,47.9,75.8,49,77z"/>
	<path class="st4" d="M81,77l-0.5,0.3c-0.6-0.4-1-0.2-1.3,0.5l-0.5-0.3C79.1,75.9,79.9,75.8,81,77z"/>
	<path class="st3" d="M48.5,77.3c1.8,2.9,1.2,4-1.8,3.3c-0.2-0.1-0.3-0.4-0.3-0.6c0.4-0.7,0.6-1.5,0.7-2.3
		C47.5,77.2,47.9,77,48.5,77.3z"/>
	<path class="st3" d="M80.5,77.3c1.8,2.9,1.2,4-1.8,3.3c-0.2-0.1-0.3-0.4-0.3-0.6c0.4-0.7,0.6-1.5,0.7-2.3
		C79.5,77.1,79.9,76.9,80.5,77.3z"/>
	<path class="st3" d="M48.7,90.5c-0.6,0.7-1.1,0.6-1.4-0.2c-1.5-2.7-0.9-3.7,2-2.9c0.2,0.1,0.3,0.3,0.3,0.6l0,0L48.7,90.5z"/>
	<path class="st3" d="M80.8,90.5c-0.6,0.6-1.1,0.5-1.5-0.2c-1.5-2.7-0.9-3.7,2-2.9c0.2,0.1,0.3,0.3,0.3,0.6l0,0L80.8,90.5z"/>
	<path class="st3" d="M46.8,90.5c0.7,1.5,1.5,1.6,2.5,0.2c1.2-1.3,2.4-1.4,3.7-0.2c1.4,1.3,1.5,2.8,0.3,4.6l-4.8,7.1
		c-0.1,0.2-0.3,0.2-0.5,0.1c0,0-0.1,0-0.1-0.1c-1.8-2.2-6.2-7.6-5.4-10.6C43,89.7,44.4,89.3,46.8,90.5z"/>
	<path class="st3" d="M78.8,90.5c0.9,1.6,1.8,1.6,2.8,0c2.3-2.3,4.6,0.9,4.2,3.2c-0.4,2.4-3.9,6.4-5.3,8.6c-0.1,0.2-0.3,0.2-0.5,0.1
		c0,0-0.1,0-0.1-0.1c-1.7-2.2-6.2-7.6-5.4-10.6C75,89.7,76.4,89.3,78.8,90.5z"/>
	<path class="st4" d="M47.3,90.2c0.3,0.8,0.8,0.9,1.4,0.2l0.5,0.3c-1,1.4-1.8,1.3-2.5-0.2L47.3,90.2z"/>
	<path class="st4" d="M79.3,90.2c0.4,0.7,0.9,0.8,1.5,0.2l0.8,0.1c-1,1.6-1.9,1.6-2.8,0L79.3,90.2z"/>
	<path class="st3" d="M102.6,104.8c-0.3,0.9-0.6,0.9-0.9,0.1l-1.3-3.7c-0.1-0.2,0-0.5,0.3-0.6c0,0,0,0,0.1,0c1-0.2,2-0.2,3,0
		c0.2,0,0.3,0.3,0.2,0.5c0,0,0,0,0,0.1L102.6,104.8z"/>
	<path class="st3" d="M102.8,105.5c1.7-4.3,7.4-1.1,5.3,3.9c-0.4,1-2.4,3.9-5.8,8.5c-0.1,0.2-0.3,0.2-0.5,0.1l-0.1-0.1
		c-1.9-2.7-7.2-8.8-6.1-12c1-3.1,4.1-3.1,5.6-0.3C101.8,106.7,102.3,106.6,102.8,105.5z"/>
	<path class="st3" d="M49.6,109.1l-1.2,3c-0.1,0.3-0.7,0.5-0.9,0l-1-3.1c-0.1-0.2,0.1-0.6,0.4-0.5c0,0,2.2,0,2.2,0
		c0.2,0,0.4,0.2,0.4,0.4C49.6,109,49.6,109.1,49.6,109.1z"/>
	<path class="st3" d="M80.4,112c-0.4,0.6-0.7,0.5-0.9-0.1l-0.9-2.7c-0.1-0.2,0.1-0.5,0.3-0.6l0,0C81.9,108,82.4,109.1,80.4,112z"/>
	<path class="st3" d="M47.1,112.7c0.2,0.4,0.6,0.5,1.1,0.3c0.1,0,0.1-0.1,0.1-0.1l2.5-1.8c0.2-0.2,0.6-0.2,0.9,0
		c4.8,2.6-0.7,8.7-3.5,12.7c-0.1,0.2-0.3,0.2-0.5,0.1l-0.1-0.1c-2-3.1-8.2-9.5-3.7-12.6c0.3-0.2,0.6-0.3,0.9-0.2
		C46,111.2,46.6,111.7,47.1,112.7z"/>
	<path class="st3" d="M79.1,112.7c0.2,0.4,0.6,0.5,1.1,0.3c0.1,0,0.1-0.1,0.1-0.1l2.6-1.8c0.2-0.2,0.6-0.2,0.9,0
		c5,2.8-1.5,9.7-3.5,12.7c-0.2,0.2-0.4,0.2-0.5,0c-2-3.2-8.1-9.3-3.7-12.6c0.3-0.2,0.6-0.3,0.9-0.2C78,111.2,78.7,111.7,79.1,112.7z
		"/>
	<path class="st3" d="M97.8,132.7c4.6-1.8,8.2-1.1,10.9,2.1c8.7,10.5-8.3,23.7-13.6,10.3c-2.3-5.9-2.1-11.7,0.6-17.4
		c2.9-6.1,10.3-5,13.9-0.1c0.2,0.3,0.2,0.6-0.1,0.8l-1.6,1.2c-0.2,0.2-0.6,0.1-0.8-0.1c-4.9-4.1-8.1-3.1-9.7,3
		C97.3,132.8,97.5,132.9,97.8,132.7z M102.8,147.1c2.8-0.2,4.8-3.1,4.5-6.4l0,0c-0.9-7.8-10.6-7.1-10.1,0.9l0,0
		C97.6,144.9,100.1,147.4,102.8,147.1z"/>
	<path class="st2" d="M101.8,135.3c2.8-0.3,5.3,2.2,5.6,5.4c0.5,7.8-9.2,8.7-10.2,0.9C96.9,138.4,99,135.6,101.8,135.3z"/>
	<path class="st5" d="M98.8,155.5c1.8,0.1,3.6,0.1,5.4,0.2C102.4,155.6,100.6,155.6,98.8,155.5z"/>
</g>
</svg>
