<?xml version="1.0" encoding="UTF-8" standalone="no"?>
<svg xmlns="http://www.w3.org/2000/svg" version="1.2" baseProfile="tiny" viewBox="0 0 128 168">
<g stroke-width="0.00" fill="none" stroke-linecap="butt">
<path stroke="#e2e2e2" stroke-opacity="0.565" vector-effect="non-scaling-stroke" d="
  M 13.46 146.50
  Q 14.43 152.06 19.87 155.09"
/>
<path stroke="#e2e2e2" stroke-opacity="0.565" vector-effect="non-scaling-stroke" d="
  M 114.43 148.25
  Q 114.56 86.10 114.50 23.95
  C 114.49 15.19 110.19 12.76 101.72 12.75
  Q 63.54 12.74 25.36 12.76
  C 19.00 12.77 14.85 14.55 13.71 21.00"
/>
<path stroke="#cdcdcd" stroke-opacity="0.624" vector-effect="non-scaling-stroke" d="
  M 114.43 148.25
  C 112.12 153.95 108.53 155.24 102.34 155.26
  Q 61.09 155.36 19.87 155.09"
/>
<path stroke="#d6d7d7" stroke-opacity="0.596" vector-effect="non-scaling-stroke" d="
  M 13.46 146.50
  L 13.71 21.00"
/>
<path stroke="#e29996" vector-effect="non-scaling-stroke" d="
  M 19.89 30.09
  C 16.08 33.77 15.94 39.35 20.24 42.58
  C 28.99 49.14 40.61 37.35 31.62 30.09
  A 0.48 0.47 41.3 0 1 31.57 29.41
  C 37.27 23.01 30.37 15.17 23.21 17.71
  C 18.03 19.54 16.35 24.87 19.92 29.36
  A 0.55 0.53 48.3 0 1 19.89 30.09"
/>
<path stroke="#e29996" vector-effect="non-scaling-stroke" d="
  M 47.69 44.86
  C 46.07 46.76 43.44 49.33 42.18 51.55
  A 0.78 0.66 42.5 0 0 42.28 52.35
  L 47.70 59.10
  A 0.37 0.35 44.3 0 0 48.27 59.11
  L 53.76 51.92
  A 0.62 0.59 43.5 0 0 53.72 51.16
  L 48.32 44.87
  A 0.43 0.40 44.3 0 0 47.69 44.86"
/>
<path stroke="#e29996" vector-effect="non-scaling-stroke" d="
  M 79.78 44.76
  L 74.22 51.38
  A 0.60 0.57 46.4 0 0 74.22 52.13
  L 79.71 59.10
  A 0.37 0.37 0.0 0 0 80.29 59.10
  L 85.78 51.93
  A 0.60 0.58 43.0 0 0 85.74 51.18
  L 80.22 44.77
  A 0.30 0.28 44.5 0 0 79.78 44.76"
/>
<path stroke="#e29996" vector-effect="non-scaling-stroke" d="
  M 32.98 57.62
  A 0.18 0.18 -47.8 0 0 32.97 57.39
  L 26.29 49.84
  A 0.43 0.40 44.3 0 0 25.66 49.83
  L 19.36 57.33
  A 0.62 0.58 46.8 0 0 19.36 58.09
  L 25.70 66.12
  A 0.37 0.37 -43.6 0 0 26.28 66.12
  L 32.98 57.62"
/>
<path stroke="#e29996" vector-effect="non-scaling-stroke" d="
  M 63.77 60.76
  L 58.22 67.38
  A 0.61 0.58 46.4 0 0 58.22 68.13
  L 63.71 75.10
  A 0.37 0.37 -45.4 0 0 64.29 75.10
  L 69.78 67.93
  A 0.60 0.58 43.0 0 0 69.74 67.18
  L 64.22 60.77
  A 0.31 0.29 45.1 0 0 63.77 60.76"
/>
<path stroke="#e29996" vector-effect="non-scaling-stroke" d="
  M 47.69 76.85
  C 46.05 78.82 43.53 81.31 42.22 83.50
  A 0.75 0.67 41.8 0 0 42.31 84.30
  L 47.73 91.05
  A 0.38 0.37 44.6 0 0 48.32 91.05
  L 53.76 83.91
  A 0.61 0.57 43.9 0 0 53.72 83.16
  L 48.31 76.87
  A 0.42 0.39 45.1 0 0 47.69 76.85"
/>
<path stroke="#e29996" vector-effect="non-scaling-stroke" d="
  M 79.78 76.76
  L 74.22 83.38
  A 0.60 0.57 46.4 0 0 74.22 84.13
  L 79.71 91.10
  A 0.37 0.37 0.0 0 0 80.29 91.10
  L 85.78 83.93
  A 0.60 0.58 43.0 0 0 85.74 83.18
  L 80.22 76.77
  A 0.30 0.28 44.5 0 0 79.78 76.76"
/>
<path stroke="#e29996" vector-effect="non-scaling-stroke" d="
  M 63.84 92.85
  L 58.24 100.10
  A 0.62 0.57 43.6 0 0 58.29 100.85
  L 63.71 107.13
  A 0.42 0.42 44.6 0 0 64.34 107.13
  L 69.78 100.62
  A 0.61 0.58 46.0 0 0 69.77 99.87
  L 64.29 92.86
  A 0.29 0.28 45.2 0 0 63.84 92.85"
/>
<path stroke="#e29996" vector-effect="non-scaling-stroke" d="
  M 101.74 101.75
  L 95.25 110.11
  A 0.58 0.57 43.7 0 0 95.27 110.84
  L 101.71 118.15
  A 0.42 0.42 44.6 0 0 102.34 118.15
  L 108.69 110.62
  A 0.61 0.57 46.9 0 0 108.69 109.88
  L 102.30 101.75
  A 0.35 0.35 90.0 0 0 101.74 101.75"
/>
<path stroke="#e29996" vector-effect="non-scaling-stroke" d="
  M 47.75 108.93
  C 45.89 111.13 43.87 113.73 42.22 116.09
  A 0.66 0.61 41.9 0 0 42.29 116.86
  L 47.72 123.14
  A 0.42 0.42 44.6 0 0 48.35 123.14
  L 53.78 116.62
  A 0.61 0.58 46.0 0 0 53.77 115.87
  L 48.36 108.97
  A 0.41 0.38 46.5 0 0 47.75 108.93"
/>
<path stroke="#e29996" vector-effect="non-scaling-stroke" d="
  M 79.83 108.85
  L 74.23 116.09
  A 0.61 0.57 43.9 0 0 74.27 116.84
  L 79.72 123.13
  A 0.42 0.41 44.6 0 0 80.35 123.13
  L 85.79 116.61
  A 0.61 0.58 46.0 0 0 85.78 115.86
  L 80.29 108.86
  A 0.29 0.29 45.6 0 0 79.83 108.85"
/>
<path stroke="#e29996" vector-effect="non-scaling-stroke" d="
  M 96.40 138.61
  C 89.22 146.34 101.36 155.31 108.17 148.04
  Q 112.00 143.95 108.00 138.62
  A 0.54 0.53 50.0 0 1 108.06 137.90
  C 115.51 130.92 107.46 120.91 98.99 124.15
  C 92.70 126.55 91.22 133.21 96.38 137.92
  A 0.49 0.48 -47.1 0 1 96.40 138.61"
/>
<path stroke="#e29996" vector-effect="non-scaling-stroke" d="
  M 30.24 24.50
  A 4.36 3.71 0.0 0 0 25.88 20.79
  A 4.36 3.71 0.0 0 0 21.52 24.50
  A 4.36 3.71 0.0 0 0 25.88 28.21
  A 4.36 3.71 0.0 0 0 30.24 24.50"
/>
<path stroke="#e29996" vector-effect="non-scaling-stroke" d="
  M 31.2084 36.2595
  A 5.34 4.55 -1.4 0 0 25.7588 31.8414
  A 5.34 4.55 -1.4 0 0 20.5316 36.5205
  A 5.34 4.55 -1.4 0 0 25.9812 40.9386
  A 5.34 4.55 -1.4 0 0 31.2084 36.2595"
/>
<path stroke="#e29996" vector-effect="non-scaling-stroke" d="
  M 107.4798 131.5634
  A 5.34 4.55 -0.5 0 0 102.1003 127.0602
  A 5.34 4.55 -0.5 0 0 96.8002 131.6566
  A 5.34 4.55 -0.5 0 0 102.1797 136.1598
  A 5.34 4.55 -0.5 0 0 107.4798 131.5634"
/>
<path stroke="#e29996" vector-effect="non-scaling-stroke" d="
  M 106.4500 143.4824
  A 4.34 3.69 -0.1 0 0 102.1036 139.8000
  A 4.34 3.69 -0.1 0 0 97.7700 143.4976
  A 4.34 3.69 -0.1 0 0 102.1164 147.1800
  A 4.34 3.69 -0.1 0 0 106.4500 143.4824"
/>
</g>
<path fill="#010000" fill-opacity="0.129" d="
  M 112.31 9.66
  C 115.33 9.60 115.36 12.05 116.30 13.82
  C 118.23 17.45 119.59 20.36 119.55 24.69
  C 119.41 37.79 119.65 49.77 119.53 64.03
  Q 119.48 71.23 119.44 78.43
  Q 119.28 109.03 119.61 139.62
  C 119.64 142.07 119.20 145.26 119.46 148.17
  A 0.64 0.57 -12.5 0 1 119.02 148.78
  L 118.64 148.91
  A 0.48 0.41 74.3 0 0 118.39 149.45
  Q 118.62 150.38 118.46 151.32
  A 1.27 0.90 -18.6 0 1 117.92 152.06
  Q 116.58 152.95 116.48 154.50
  A 1.09 0.95 76.5 0 1 116.07 155.29
  L 108.45 160.77
  A 1.26 0.90 26.6 0 1 107.56 160.91
  Q 106.70 160.73 104.81 160.73
  Q 86.94 160.74 69.07 160.69
  C 68.82 160.69 67.95 160.28 67.54 160.29
  Q 44.05 161.06 20.55 160.63
  A 0.82 0.54 74.7 0 1 19.97 160.12
  Q 19.70 159.53 18.74 159.65
  A 0.91 0.86 66.1 0 1 17.97 159.33
  Q 17.16 158.38 15.74 158.65
  A 1.04 0.89 -26.8 0 1 14.89 158.44
  Q 11.79 155.49 9.50 151.94
  A 1.57 1.28 -64.2 0 1 9.28 151.02
  Q 9.38 149.45 8.62 149.56
  A 1.40 1.39 85.8 0 1 7.02 148.17
  Q 6.98 86.09 7.15 26.00
  Q 7.17 19.92 10.11 14.67
  C 12.40 10.60 18.13 6.59 23.16 7.05
  A 1.29 1.08 -58.1 0 0 24.01 6.77
  Q 24.93 6.03 26.56 6.03
  Q 65.87 5.99 105.18 6.02
  A 0.57 0.41 3.6 0 1 105.77 6.50
  L 105.71 6.83
  A 0.32 0.24 -80.6 0 0 105.89 7.18
  C 106.22 7.22 109.85 7.12 109.85 7.78
  A 0.36 0.32 84.8 0 0 110.24 8.14
  Q 111.67 7.84 111.80 9.20
  A 0.51 0.50 86.3 0 0 112.31 9.66
  Z
  M 13.71 21.00
  Q 12.90 21.06 12.42 20.33
  A 0.89 0.57 -56.5 0 1 12.43 19.57
  Q 12.61 19.15 12.35 19.10
  A 0.64 0.45 -74.9 0 0 11.79 19.57
  Q 11.06 21.84 11.06 24.25
  Q 10.99 83.57 11.01 142.88
  C 11.01 144.84 11.99 146.93 11.77 149.26
  A 0.70 0.65 -77.0 0 0 12.17 149.96
  Q 13.71 150.59 12.53 149.14
  A 0.88 0.72 -55.7 0 1 12.46 148.32
  Q 12.69 147.78 12.35 147.35
  A 1.07 0.59 43.2 0 1 12.09 146.53
  Q 12.47 145.39 13.46 146.50
  Q 14.43 152.06 19.87 155.09
  Q 17.76 156.04 20.06 156.25
  A 0.46 0.44 76.7 0 1 20.41 156.48
  L 20.52 156.68
  A 0.60 0.56 -21.0 0 0 21.20 156.96
  C 22.95 156.47 24.12 157.28 25.61 157.27
  Q 62.38 157.17 99.14 157.33
  C 105.92 157.36 111.45 156.76 115.19 150.61
  A 0.99 0.83 -46.8 0 0 115.24 149.71
  L 114.43 148.25
  Q 114.56 86.10 114.50 23.95
  C 114.49 15.19 110.19 12.76 101.72 12.75
  Q 63.54 12.74 25.36 12.76
  C 19.00 12.77 14.85 14.55 13.71 21.00
  Z
  M 115.01 41.67
  A 0.12 0.12 0.0 0 0 114.89 41.55
  L 114.87 41.55
  A 0.12 0.12 0.0 0 0 114.75 41.67
  L 114.75 95.09
  A 0.12 0.12 0.0 0 0 114.87 95.21
  L 114.89 95.21
  A 0.12 0.12 0.0 0 0 115.01 95.09
  L 115.01 41.67
  Z
  M 114.81 127.80
  Q 114.81 146.45 115.00 128.07
  C 115.00 127.92 115.01 128.02 114.91 127.78
  Q 114.81 127.56 114.81 127.80
  Z"
/>
<path fill="#ffffff" d="
  M 114.43 148.25
  C 112.12 153.95 108.53 155.24 102.34 155.26
  Q 61.09 155.36 19.87 155.09
  Q 14.43 152.06 13.46 146.50
  L 13.71 21.00
  C 14.85 14.55 19.00 12.77 25.36 12.76
  Q 63.54 12.74 101.72 12.75
  C 110.19 12.76 114.49 15.19 114.50 23.95
  Q 114.56 86.10 114.43 148.25
  Z
  M 19.89 30.09
  C 16.08 33.77 15.94 39.35 20.24 42.58
  C 28.99 49.14 40.61 37.35 31.62 30.09
  A 0.48 0.47 41.3 0 1 31.57 29.41
  C 37.27 23.01 30.37 15.17 23.21 17.71
  C 18.03 19.54 16.35 24.87 19.92 29.36
  A 0.55 0.53 48.3 0 1 19.89 30.09
  Z
  M 47.69 44.86
  C 46.07 46.76 43.44 49.33 42.18 51.55
  A 0.78 0.66 42.5 0 0 42.28 52.35
  L 47.70 59.10
  A 0.37 0.35 44.3 0 0 48.27 59.11
  L 53.76 51.92
  A 0.62 0.59 43.5 0 0 53.72 51.16
  L 48.32 44.87
  A 0.43 0.40 44.3 0 0 47.69 44.86
  Z
  M 79.78 44.76
  L 74.22 51.38
  A 0.60 0.57 46.4 0 0 74.22 52.13
  L 79.71 59.10
  A 0.37 0.37 0.0 0 0 80.29 59.10
  L 85.78 51.93
  A 0.60 0.58 43.0 0 0 85.74 51.18
  L 80.22 44.77
  A 0.30 0.28 44.5 0 0 79.78 44.76
  Z
  M 32.98 57.62
  A 0.18 0.18 -47.8 0 0 32.97 57.39
  L 26.29 49.84
  A 0.43 0.40 44.3 0 0 25.66 49.83
  L 19.36 57.33
  A 0.62 0.58 46.8 0 0 19.36 58.09
  L 25.70 66.12
  A 0.37 0.37 -43.6 0 0 26.28 66.12
  L 32.98 57.62
  Z
  M 63.77 60.76
  L 58.22 67.38
  A 0.61 0.58 46.4 0 0 58.22 68.13
  L 63.71 75.10
  A 0.37 0.37 -45.4 0 0 64.29 75.10
  L 69.78 67.93
  A 0.60 0.58 43.0 0 0 69.74 67.18
  L 64.22 60.77
  A 0.31 0.29 45.1 0 0 63.77 60.76
  Z
  M 47.69 76.85
  C 46.05 78.82 43.53 81.31 42.22 83.50
  A 0.75 0.67 41.8 0 0 42.31 84.30
  L 47.73 91.05
  A 0.38 0.37 44.6 0 0 48.32 91.05
  L 53.76 83.91
  A 0.61 0.57 43.9 0 0 53.72 83.16
  L 48.31 76.87
  A 0.42 0.39 45.1 0 0 47.69 76.85
  Z
  M 79.78 76.76
  L 74.22 83.38
  A 0.60 0.57 46.4 0 0 74.22 84.13
  L 79.71 91.10
  A 0.37 0.37 0.0 0 0 80.29 91.10
  L 85.78 83.93
  A 0.60 0.58 43.0 0 0 85.74 83.18
  L 80.22 76.77
  A 0.30 0.28 44.5 0 0 79.78 76.76
  Z
  M 63.84 92.85
  L 58.24 100.10
  A 0.62 0.57 43.6 0 0 58.29 100.85
  L 63.71 107.13
  A 0.42 0.42 44.6 0 0 64.34 107.13
  L 69.78 100.62
  A 0.61 0.58 46.0 0 0 69.77 99.87
  L 64.29 92.86
  A 0.29 0.28 45.2 0 0 63.84 92.85
  Z
  M 101.74 101.75
  L 95.25 110.11
  A 0.58 0.57 43.7 0 0 95.27 110.84
  L 101.71 118.15
  A 0.42 0.42 44.6 0 0 102.34 118.15
  L 108.69 110.62
  A 0.61 0.57 46.9 0 0 108.69 109.88
  L 102.30 101.75
  A 0.35 0.35 90.0 0 0 101.74 101.75
  Z
  M 47.75 108.93
  C 45.89 111.13 43.87 113.73 42.22 116.09
  A 0.66 0.61 41.9 0 0 42.29 116.86
  L 47.72 123.14
  A 0.42 0.42 44.6 0 0 48.35 123.14
  L 53.78 116.62
  A 0.61 0.58 46.0 0 0 53.77 115.87
  L 48.36 108.97
  A 0.41 0.38 46.5 0 0 47.75 108.93
  Z
  M 79.83 108.85
  L 74.23 116.09
  A 0.61 0.57 43.9 0 0 74.27 116.84
  L 79.72 123.13
  A 0.42 0.41 44.6 0 0 80.35 123.13
  L 85.79 116.61
  A 0.61 0.58 46.0 0 0 85.78 115.86
  L 80.29 108.86
  A 0.29 0.29 45.6 0 0 79.83 108.85
  Z
  M 96.40 138.61
  C 89.22 146.34 101.36 155.31 108.17 148.04
  Q 112.00 143.95 108.00 138.62
  A 0.54 0.53 50.0 0 1 108.06 137.90
  C 115.51 130.92 107.46 120.91 98.99 124.15
  C 92.70 126.55 91.22 133.21 96.38 137.92
  A 0.49 0.48 -47.1 0 1 96.40 138.61
  Z"
/>
<path fill="#c4332c" d="
  M 19.92 29.36
  C 16.35 24.87 18.03 19.54 23.21 17.71
  C 30.37 15.17 37.27 23.01 31.57 29.41
  A 0.48 0.47 41.3 0 0 31.62 30.09
  C 40.61 37.35 28.99 49.14 20.24 42.58
  C 15.94 39.35 16.08 33.77 19.89 30.09
  A 0.55 0.53 48.3 0 0 19.92 29.36
  Z
  M 30.24 24.50
  A 4.36 3.71 0.0 0 0 25.88 20.79
  A 4.36 3.71 0.0 0 0 21.52 24.50
  A 4.36 3.71 0.0 0 0 25.88 28.21
  A 4.36 3.71 0.0 0 0 30.24 24.50
  Z
  M 31.2084 36.2595
  A 5.34 4.55 -1.4 0 0 25.7588 31.8414
  A 5.34 4.55 -1.4 0 0 20.5316 36.5205
  A 5.34 4.55 -1.4 0 0 25.9812 40.9386
  A 5.34 4.55 -1.4 0 0 31.2084 36.2595
  Z"
/>
<path fill="#030605" fill-opacity="0.192" d="
  M 13.71 21.00
  L 13.46 146.50
  Q 12.47 145.39 12.09 146.53
  A 1.07 0.59 43.2 0 0 12.35 147.35
  Q 12.69 147.78 12.46 148.32
  A 0.88 0.72 -55.7 0 0 12.53 149.14
  Q 13.71 150.59 12.17 149.96
  A 0.70 0.65 -77.0 0 1 11.77 149.26
  C 11.99 146.93 11.01 144.84 11.01 142.88
  Q 10.99 83.57 11.06 24.25
  Q 11.06 21.84 11.79 19.57
  A 0.64 0.45 -74.9 0 1 12.35 19.10
  Q 12.61 19.15 12.43 19.57
  A 0.89 0.57 -56.5 0 0 12.42 20.33
  Q 12.90 21.06 13.71 21.00
  Z"
/>
<ellipse fill="#ffffff" cx="25.88" cy="24.50" rx="4.36" ry="3.71"/>
<ellipse fill="#ffffff" cx="0.00" cy="0.00" transform="translate(25.87,36.39) rotate(-1.4)" rx="5.34" ry="4.55"/>
<path fill="#c4332c" d="
  M 42.18 51.55
  C 43.44 49.33 46.07 46.76 47.69 44.86
  A 0.43 0.40 44.3 0 1 48.32 44.87
  L 53.72 51.16
  A 0.62 0.59 43.5 0 1 53.76 51.92
  L 48.27 59.11
  A 0.37 0.35 44.3 0 1 47.70 59.10
  L 42.28 52.35
  A 0.78 0.66 42.5 0 1 42.18 51.55
  Z"
/>
<path fill="#c4332c" d="
  M 79.78 44.76
  A 0.30 0.28 44.5 0 1 80.22 44.77
  L 85.74 51.18
  A 0.60 0.58 43.0 0 1 85.78 51.93
  L 80.29 59.10
  A 0.37 0.37 0.0 0 1 79.71 59.10
  L 74.22 52.13
  A 0.60 0.57 46.4 0 1 74.22 51.38
  L 79.78 44.76
  Z"
/>
<path fill="#c4332c" d="
  M 32.98 57.62
  L 26.28 66.12
  A 0.37 0.37 -41.8 0 1 25.70 66.12
  L 19.36 58.09
  A 0.62 0.58 46.8 0 1 19.36 57.33
  L 25.66 49.83
  A 0.43 0.40 44.3 0 1 26.29 49.84
  L 32.97 57.39
  A 0.18 0.18 -47.8 0 1 32.98 57.62
  Z"
/>
<path fill="#c4332c" d="
  M 63.77 60.76
  A 0.31 0.29 45.1 0 1 64.22 60.77
  L 69.74 67.18
  A 0.60 0.58 43.0 0 1 69.78 67.93
  L 64.29 75.10
  A 0.37 0.37 -47.0 0 1 63.71 75.10
  L 58.22 68.13
  A 0.61 0.58 46.4 0 1 58.22 67.38
  L 63.77 60.76
  Z"
/>
<path fill="#c4332c" d="
  M 42.22 83.50
  C 43.53 81.31 46.05 78.82 47.69 76.85
  A 0.42 0.39 45.1 0 1 48.31 76.87
  L 53.72 83.16
  A 0.61 0.57 43.9 0 1 53.76 83.91
  L 48.32 91.05
  A 0.38 0.37 44.6 0 1 47.73 91.05
  L 42.31 84.30
  A 0.75 0.67 41.8 0 1 42.22 83.50
  Z"
/>
<path fill="#c4332c" d="
  M 79.78 76.76
  A 0.30 0.28 44.5 0 1 80.22 76.77
  L 85.74 83.18
  A 0.60 0.58 43.0 0 1 85.78 83.93
  L 80.29 91.10
  A 0.37 0.37 -0.0 0 1 79.71 91.10
  L 74.22 84.13
  A 0.60 0.57 46.4 0 1 74.22 83.38
  L 79.78 76.76
  Z"
/>
<path fill="#c4332c" d="
  M 63.84 92.85
  A 0.29 0.28 45.2 0 1 64.29 92.86
  L 69.77 99.87
  A 0.61 0.58 46.0 0 1 69.78 100.62
  L 64.34 107.13
  A 0.42 0.42 44.6 0 1 63.71 107.13
  L 58.29 100.85
  A 0.62 0.57 43.6 0 1 58.24 100.10
  L 63.84 92.85
  Z"
/>
<path fill="#c4332c" d="
  M 101.74 101.75
  A 0.35 0.35 -90.0 0 1 102.30 101.75
  L 108.69 109.88
  A 0.61 0.57 46.9 0 1 108.69 110.62
  L 102.34 118.15
  A 0.42 0.42 44.6 0 1 101.71 118.15
  L 95.27 110.84
  A 0.58 0.57 43.7 0 1 95.25 110.11
  L 101.74 101.75
  Z"
/>
<path fill="#c4332c" d="
  M 42.22 116.09
  C 43.87 113.73 45.89 111.13 47.75 108.93
  A 0.41 0.38 46.5 0 1 48.36 108.97
  L 53.77 115.87
  A 0.61 0.58 46.0 0 1 53.78 116.62
  L 48.35 123.14
  A 0.42 0.42 44.6 0 1 47.72 123.14
  L 42.29 116.86
  A 0.66 0.61 41.9 0 1 42.22 116.09
  Z"
/>
<path fill="#c4332c" d="
  M 79.83 108.85
  A 0.29 0.29 45.6 0 1 80.29 108.86
  L 85.78 115.86
  A 0.61 0.58 46.0 0 1 85.79 116.61
  L 80.35 123.13
  A 0.42 0.41 44.6 0 1 79.72 123.13
  L 74.27 116.84
  A 0.61 0.57 43.9 0 1 74.23 116.09
  L 79.83 108.85
  Z"
/>
<path fill="#c4332c" d="
  M 96.38 137.92
  C 91.22 133.21 92.70 126.55 98.99 124.15
  C 107.46 120.91 115.51 130.92 108.06 137.90
  A 0.54 0.53 50.0 0 0 108.00 138.62
  Q 112.00 143.95 108.17 148.04
  C 101.36 155.31 89.22 146.34 96.40 138.61
  A 0.49 0.48 -47.1 0 0 96.38 137.92
  Z
  M 107.4798 131.5634
  A 5.34 4.55 -0.5 0 0 102.1003 127.0602
  A 5.34 4.55 -0.5 0 0 96.8002 131.6566
  A 5.34 4.55 -0.5 0 0 102.1797 136.1598
  A 5.34 4.55 -0.5 0 0 107.4798 131.5634
  Z
  M 106.4500 143.4824
  A 4.34 3.69 -0.1 0 0 102.1036 139.8000
  A 4.34 3.69 -0.1 0 0 97.7700 143.4976
  A 4.34 3.69 -0.1 0 0 102.1164 147.1800
  A 4.34 3.69 -0.1 0 0 106.4500 143.4824
  Z"
/>
<ellipse fill="#ffffff" cx="0.00" cy="0.00" transform="translate(102.14,131.61) rotate(-0.5)" rx="5.34" ry="4.55"/>
<ellipse fill="#ffffff" cx="0.00" cy="0.00" transform="translate(102.11,143.49) rotate(-0.1)" rx="4.34" ry="3.69"/>
<path fill="#020101" fill-opacity="0.247" d="
  M 114.43 148.25
  L 115.24 149.71
  A 0.99 0.83 -46.8 0 1 115.19 150.61
  C 111.45 156.76 105.92 157.36 99.14 157.33
  Q 62.38 157.17 25.61 157.27
  C 24.12 157.28 22.95 156.47 21.20 156.96
  A 0.60 0.56 -21.0 0 1 20.52 156.68
  L 20.41 156.48
  A 0.46 0.44 76.7 0 0 20.06 156.25
  Q 17.76 156.04 19.87 155.09
  Q 61.09 155.36 102.34 155.26
  C 108.53 155.24 112.12 153.95 114.43 148.25
  Z"
/>
</svg>
