<?xml version="1.0" encoding="UTF-8" standalone="no"?>
<svg xmlns="http://www.w3.org/2000/svg" version="1.2" baseProfile="tiny" viewBox="0 0 128 168">
<g stroke-width="0.00" fill="none" stroke-linecap="butt">
<path stroke="#e0e0e0" stroke-opacity="0.573" vector-effect="non-scaling-stroke" d="
  M 13.76 147.50
  Q 14.88 152.35 19.88 155.09"
/>
<path stroke="#e0e0e0" stroke-opacity="0.573" vector-effect="non-scaling-stroke" d="
  M 109.75 154.04
  Q 114.50 150.96 114.50 145.75
  Q 114.51 84.85 114.49 23.95
  C 114.49 15.20 110.19 12.76 101.73 12.75
  Q 61.77 12.74 21.81 12.76
  Q 19.35 12.77 16.46 15.50"
/>
<path stroke="#cccccc" stroke-opacity="0.627" vector-effect="non-scaling-stroke" d="
  M 109.75 154.04
  Q 107.00 155.28 104.05 155.41"
/>
<path stroke="#949495" stroke-opacity="0.941" vector-effect="non-scaling-stroke" d="
  M 104.05 155.41
  L 96.25 155.29"
/>
<path stroke="#cccccc" stroke-opacity="0.627" vector-effect="non-scaling-stroke" d="
  M 96.25 155.29
  L 96.00 155.29"
/>
<path stroke="#949495" stroke-opacity="0.941" vector-effect="non-scaling-stroke" d="
  M 96.00 155.29
  L 91.25 155.29"
/>
<path stroke="#cccccc" stroke-opacity="0.627" vector-effect="non-scaling-stroke" d="
  M 91.25 155.29
  L 19.88 155.09"
/>
<path stroke="#f9fafa" stroke-opacity="0.988" vector-effect="non-scaling-stroke" d="
  M 13.76 147.50
  Q 14.18 84.25 14.00 21.00
  Q 14.00 19.38 16.46 15.50"
/>
<path stroke="#e29996" vector-effect="non-scaling-stroke" d="
  M 21.36 25.45
  C 21.98 20.41 27.06 18.54 30.25 22.87
  A 0.76 0.68 62.1 0 0 31.03 23.16
  Q 32.28 22.81 33.18 21.87
  A 0.63 0.61 50.2 0 0 33.24 21.08
  C 30.53 17.07 24.45 15.41 20.83 18.82
  C 15.85 23.50 16.79 34.32 19.21 39.97
  C 21.39 45.07 27.93 45.80 31.44 42.11
  C 38.39 34.83 31.91 20.00 21.75 25.68
  Q 21.30 25.94 21.36 25.45"
/>
<path stroke="#e29996" vector-effect="non-scaling-stroke" d="
  M 47.66 44.86
  C 45.87 46.80 43.69 49.38 42.20 51.55
  A 0.67 0.61 43.3 0 0 42.26 52.32
  L 47.69 59.10
  A 0.38 0.36 43.9 0 0 48.27 59.11
  L 53.76 51.92
  A 0.62 0.59 43.5 0 0 53.72 51.16
  L 48.30 44.89
  A 0.44 0.42 46.3 0 0 47.66 44.86"
/>
<path stroke="#e29996" vector-effect="non-scaling-stroke" d="
  M 79.78 44.76
  L 74.20 51.39
  A 0.61 0.58 46.0 0 0 74.21 52.14
  L 79.71 59.10
  A 0.37 0.37 0.0 0 0 80.29 59.10
  L 85.78 51.93
  A 0.60 0.58 43.0 0 0 85.74 51.18
  L 80.22 44.77
  A 0.30 0.28 44.5 0 0 79.78 44.76"
/>
<path stroke="#e29996" vector-effect="non-scaling-stroke" d="
  M 32.81 57.82
  A 0.48 0.47 43.0 0 0 32.78 57.21
  L 26.28 49.83
  A 0.41 0.40 44.2 0 0 25.66 49.83
  L 19.36 57.33
  A 0.62 0.58 46.8 0 0 19.36 58.09
  L 25.70 66.12
  A 0.37 0.37 -43.6 0 0 26.28 66.12
  L 32.81 57.82"
/>
<path stroke="#e29996" vector-effect="non-scaling-stroke" d="
  M 47.67 76.87
  C 46.04 78.83 43.54 81.30 42.22 83.51
  A 0.73 0.65 42.6 0 0 42.30 84.30
  L 47.70 91.10
  A 0.37 0.36 44.2 0 0 48.28 91.10
  L 53.77 83.93
  A 0.60 0.60 43.8 0 0 53.75 83.18
  L 48.30 76.89
  A 0.43 0.40 44.7 0 0 47.67 76.87"
/>
<path stroke="#e29996" vector-effect="non-scaling-stroke" d="
  M 79.78 76.76
  L 74.21 83.39
  A 0.60 0.57 46.4 0 0 74.21 84.14
  L 79.71 91.10
  A 0.37 0.37 0.0 0 0 80.29 91.10
  L 85.78 83.93
  A 0.60 0.58 43.0 0 0 85.74 83.18
  L 80.22 76.77
  A 0.29 0.29 45.7 0 0 79.78 76.76"
/>
<path stroke="#e29996" vector-effect="non-scaling-stroke" d="
  M 101.75 101.74
  L 95.29 110.06
  A 0.58 0.57 -47.2 0 0 95.31 110.79
  L 101.71 118.14
  A 0.42 0.41 45.1 0 0 102.34 118.15
  L 108.69 110.62
  A 0.61 0.57 46.9 0 0 108.69 109.88
  L 102.29 101.75
  A 0.34 0.34 45.5 0 0 101.75 101.74"
/>
<path stroke="#e29996" vector-effect="non-scaling-stroke" d="
  M 47.75 108.93
  C 45.90 111.11 43.85 113.74 42.24 116.10
  A 0.68 0.62 42.4 0 0 42.31 116.88
  L 47.72 123.14
  A 0.41 0.40 43.8 0 0 48.34 123.13
  L 53.78 116.62
  A 0.61 0.58 46.0 0 0 53.77 115.87
  L 48.36 108.97
  A 0.41 0.38 46.5 0 0 47.75 108.93"
/>
<path stroke="#e29996" vector-effect="non-scaling-stroke" d="
  M 79.84 108.85
  L 74.22 116.08
  A 0.64 0.58 44.1 0 0 74.27 116.84
  L 79.72 123.13
  A 0.41 0.40 44.2 0 0 80.34 123.13
  L 85.79 116.61
  A 0.60 0.57 46.4 0 0 85.79 115.86
  L 80.30 108.86
  A 0.30 0.28 44.7 0 0 79.84 108.85"
/>
<path stroke="#e29996" vector-effect="non-scaling-stroke" d="
  M 106.65 142.57
  C 106.16 147.65 100.79 149.40 97.76 145.14
  A 0.75 0.68 64.2 0 0 97.00 144.83
  Q 95.73 145.18 94.81 146.14
  A 0.63 0.59 50.3 0 0 94.76 146.92
  C 97.50 150.92 103.49 152.57 107.09 149.24
  C 112.99 143.79 112.33 120.65 100.20 123.80
  C 88.21 126.92 93.82 148.86 106.25 142.30
  Q 106.70 142.06 106.65 142.57"
/>
<path stroke="#e29996" vector-effect="non-scaling-stroke" d="
  M 26.2596 40.8539
  A 6.41 4.93 87.5 0 0 30.9053 34.2350
  A 6.41 4.93 87.5 0 0 25.7004 28.0461
  A 6.41 4.93 87.5 0 0 21.0547 34.6650
  A 6.41 4.93 87.5 0 0 26.2596 40.8539"
/>
<path stroke="#e29996" vector-effect="non-scaling-stroke" d="
  M 104.26 127.88
  Q 102.20 125.90 99.96 127.69
  C 92.23 133.85 101.78 145.89 106.50 136.59
  C 107.91 133.81 106.33 129.86 104.26 127.88"
/>
</g>
<path fill="#020101" fill-opacity="0.039" d="
  M 10.10 157.94
  C 8.28 155.20 5.48 150.48 5.40 147.16
  Q 5.03 130.87 5.05 114.56
  Q 5.13 71.66 5.37 28.75
  Q 5.39 25.11 5.69 23.28
  A 1.22 0.58 -25.5 0 1 6.24 22.60
  L 6.65 22.31
  A 1.15 0.67 80.7 0 0 6.98 21.45
  C 6.98 19.80 6.26 14.91 8.45 14.49
  A 0.67 0.55 -5.4 0 0 8.99 13.95
  L 9.01 13.23
  A 1.56 0.93 -34.3 0 1 9.39 12.41
  L 11.44 10.05
  Q 11.82 9.62 12.18 9.45
  L 15.72 7.78
  Q 17.71 6.85 18.45 6.70
  C 21.51 6.08 24.36 5.51 27.56 5.51
  Q 65.76 5.49 103.96 5.51
  C 106.33 5.51 108.07 6.86 110.75 6.51
  A 0.56 0.55 78.5 0 1 111.35 6.92
  Q 111.72 8.29 113.06 8.61
  Q 113.64 8.75 113.94 9.00
  Q 117.06 11.48 118.87 15.03
  Q 118.96 15.21 119.10 15.96
  Q 119.21 16.57 119.86 16.51
  A 0.33 0.30 2.9 0 1 120.22 16.87
  C 119.74 18.90 120.99 20.17 121.18 21.78
  Q 121.46 24.23 121.51 26.75
  A 1.28 0.93 27.1 0 0 121.92 27.55
  Q 123.02 28.60 121.71 30.77
  A 1.38 1.29 62.5 0 0 121.51 31.48
  L 121.21 140.66
  A 1.59 1.07 -38.9 0 1 120.98 141.40
  L 120.88 141.57
  A 0.41 0.39 49.8 0 0 120.86 141.93
  C 122.42 145.67 120.29 146.72 120.37 149.83
  A 0.64 0.63 -10.1 0 1 119.94 150.44
  Q 118.93 150.79 119.34 152.07
  A 1.13 0.64 63.6 0 1 119.29 152.98
  L 118.64 153.81
  A 0.88 0.80 -37.2 0 0 118.49 154.61
  Q 118.78 155.43 118.03 155.51
  A 1.51 0.96 9.3 0 0 117.18 155.87
  Q 115.65 157.42 113.56 157.96
  A 1.04 0.96 -83.0 0 0 112.89 158.53
  Q 112.44 159.51 111.51 159.84
  A 0.42 0.41 69.3 0 0 111.27 160.39
  C 112.13 162.38 107.21 161.70 106.49 161.68
  A 0.74 0.64 74.9 0 1 105.91 161.29
  Q 105.52 160.56 105.34 161.42
  A 0.37 0.36 12.1 0 1 104.89 161.70
  Q 103.71 161.43 103.39 162.36
  A 0.69 0.57 -77.5 0 1 102.79 162.82
  Q 99.87 162.69 91.31 163.04
  Q 87.95 163.17 69.82 162.99
  Q 69.37 162.99 68.89 163.24
  C 68.79 163.29 68.22 163.47 68.10 163.47
  Q 55.65 162.83 43.19 163.20
  C 37.41 163.37 31.16 163.46 25.35 163.35
  C 23.05 163.30 20.92 162.25 18.46 162.02
  C 15.78 161.77 13.38 160.18 11.02 158.97
  Q 10.67 158.79 10.10 157.94
  Z
  M 111.80 9.20
  Q 111.67 7.84 110.24 8.14
  A 0.36 0.32 84.8 0 1 109.85 7.78
  C 109.85 7.12 106.22 7.22 105.89 7.18
  A 0.32 0.24 -80.6 0 1 105.71 6.83
  L 105.77 6.50
  A 0.57 0.41 3.6 0 0 105.18 6.02
  L 23.81 6.01
  Q 23.37 6.01 22.88 6.27
  Q 21.34 7.08 19.50 6.72
  Q 18.54 6.53 15.77 8.78
  C 11.41 12.32 7.53 17.05 7.96 23.15
  A 0.97 0.70 -24.9 0 1 7.55 23.88
  C 6.71 24.49 7.33 131.88 7.33 142.62
  C 7.33 144.45 8.35 146.21 8.28 148.28
  A 0.98 0.80 22.7 0 0 8.68 149.03
  Q 9.59 149.73 9.34 151.04
  A 1.22 0.74 -68.3 0 0 9.49 151.94
  L 14.89 158.44
  A 0.99 0.67 -20.2 0 0 15.74 158.65
  Q 17.16 158.38 17.97 159.34
  A 0.86 0.86 -24.6 0 0 18.75 159.63
  Q 19.74 159.49 19.98 160.20
  A 0.74 0.56 77.2 0 0 20.56 160.69
  C 48.47 160.73 76.53 161.51 104.42 160.70
  A 0.53 0.34 -69.2 0 0 104.77 160.44
  L 104.91 160.21
  A 1.05 0.68 8.5 0 1 105.73 159.84
  Q 109.73 159.75 115.77 155.59
  A 1.53 1.50 -11.9 0 0 116.40 154.64
  Q 116.72 153.12 118.24 151.85
  A 0.75 0.71 62.4 0 0 118.46 151.08
  Q 118.04 149.61 119.11 148.77
  A 0.87 0.75 -26.0 0 0 119.44 148.00
  C 118.96 145.29 119.76 142.68 119.71 140.33
  C 119.49 128.35 119.93 116.35 119.73 104.39
  C 119.60 96.96 119.14 92.71 119.42 87.04
  Q 119.68 81.65 119.66 80.35
  C 119.31 62.25 119.36 43.24 119.55 24.70
  C 119.59 20.36 118.24 17.46 116.30 13.82
  C 115.36 12.05 115.33 9.60 112.31 9.66
  A 0.51 0.50 86.3 0 1 111.80 9.20
  Z"
/>
<path fill="#010101" fill-opacity="0.141" d="
  M 112.31 9.66
  C 115.33 9.60 115.36 12.05 116.30 13.82
  C 118.24 17.46 119.59 20.36 119.55 24.70
  C 119.36 43.24 119.31 62.25 119.66 80.35
  Q 119.68 81.65 119.42 87.04
  C 119.14 92.71 119.60 96.96 119.73 104.39
  C 119.93 116.35 119.49 128.35 119.71 140.33
  C 119.76 142.68 118.96 145.29 119.44 148.00
  A 0.87 0.75 -26.0 0 1 119.11 148.77
  Q 118.04 149.61 118.46 151.08
  A 0.75 0.71 62.4 0 1 118.24 151.85
  Q 116.72 153.12 116.40 154.64
  A 1.53 1.50 -11.9 0 1 115.77 155.59
  Q 109.73 159.75 105.73 159.84
  A 1.05 0.68 8.5 0 0 104.91 160.21
  L 104.77 160.44
  A 0.53 0.34 -69.2 0 1 104.42 160.70
  C 76.53 161.51 48.47 160.73 20.56 160.69
  A 0.74 0.56 77.2 0 1 19.98 160.20
  Q 19.74 159.49 18.75 159.63
  A 0.86 0.86 -24.6 0 1 17.97 159.34
  Q 17.16 158.38 15.74 158.65
  A 0.99 0.67 -20.2 0 1 14.89 158.44
  L 9.49 151.94
  A 1.22 0.74 -68.3 0 1 9.34 151.04
  Q 9.59 149.73 8.68 149.03
  A 0.98 0.80 22.7 0 1 8.28 148.28
  C 8.35 146.21 7.33 144.45 7.33 142.62
  C 7.33 131.88 6.71 24.49 7.55 23.88
  A 0.97 0.70 -24.9 0 0 7.96 23.15
  C 7.53 17.05 11.41 12.32 15.77 8.78
  Q 18.54 6.53 19.50 6.72
  Q 21.34 7.08 22.88 6.27
  Q 23.37 6.01 23.81 6.01
  L 105.18 6.02
  A 0.57 0.41 3.6 0 1 105.77 6.50
  L 105.71 6.83
  A 0.32 0.24 -80.6 0 0 105.89 7.18
  C 106.22 7.22 109.85 7.12 109.85 7.78
  A 0.36 0.32 84.8 0 0 110.24 8.14
  Q 111.67 7.84 111.80 9.20
  A 0.51 0.50 86.3 0 0 112.31 9.66
  Z
  M 16.46 15.50
  Q 13.55 18.40 13.51 21.32
  Q 13.10 57.58 13.76 147.50
  Q 14.88 152.35 19.88 155.09
  Q 18.55 155.59 19.08 156.03
  A 1.19 0.25 -2.6 0 0 20.00 156.18
  Q 20.39 156.18 20.52 156.53
  A 0.57 0.46 74.4 0 0 21.07 156.92
  C 22.92 156.61 24.38 157.26 25.97 157.26
  Q 63.26 157.22 100.57 157.24
  Q 105.41 157.24 109.90 155.69
  A 1.29 1.27 8.5 0 0 110.53 155.23
  Q 111.70 153.63 110.04 154.77
  Q 109.60 155.07 109.58 154.63
  Q 109.57 154.36 109.75 154.04
  Q 114.50 150.96 114.50 145.75
  Q 114.51 84.85 114.49 23.95
  C 114.49 15.20 110.19 12.76 101.73 12.75
  Q 61.77 12.74 21.81 12.76
  Q 19.35 12.77 16.46 15.50
  Z
  M 115.01 41.67
  A 0.12 0.12 0.0 0 0 114.89 41.55
  L 114.87 41.55
  A 0.12 0.12 0.0 0 0 114.75 41.67
  L 114.75 97.09
  A 0.12 0.12 0.0 0 0 114.87 97.21
  L 114.89 97.21
  A 0.12 0.12 0.0 0 0 115.01 97.09
  L 115.01 41.67
  Z
  M 114.80 125.07
  L 114.80 140.69
  Q 114.80 141.38 114.84 140.69
  Q 115.25 132.88 114.84 125.07
  Q 114.80 124.37 114.80 125.07
  Z"
/>
<path fill="#ffffff" d="
  M 109.75 154.04
  Q 107.00 155.28 104.05 155.41
  L 96.25 155.29
  L 96.00 155.29
  L 91.25 155.29
  L 19.88 155.09
  Q 14.88 152.35 13.76 147.50
  Q 14.18 84.25 14.00 21.00
  Q 14.00 19.38 16.46 15.50
  Q 19.35 12.77 21.81 12.76
  Q 61.77 12.74 101.73 12.75
  C 110.19 12.76 114.49 15.20 114.49 23.95
  Q 114.51 84.85 114.50 145.75
  Q 114.50 150.96 109.75 154.04
  Z
  M 21.36 25.45
  C 21.98 20.41 27.06 18.54 30.25 22.87
  A 0.76 0.68 62.1 0 0 31.03 23.16
  Q 32.28 22.81 33.18 21.87
  A 0.63 0.61 50.2 0 0 33.24 21.08
  C 30.53 17.07 24.45 15.41 20.83 18.82
  C 15.85 23.50 16.79 34.32 19.21 39.97
  C 21.39 45.07 27.93 45.80 31.44 42.11
  C 38.39 34.83 31.91 20.00 21.75 25.68
  Q 21.30 25.94 21.36 25.45
  Z
  M 47.66 44.86
  C 45.87 46.80 43.69 49.38 42.20 51.55
  A 0.67 0.61 43.3 0 0 42.26 52.32
  L 47.69 59.10
  A 0.38 0.36 43.9 0 0 48.27 59.11
  L 53.76 51.92
  A 0.62 0.59 43.5 0 0 53.72 51.16
  L 48.30 44.89
  A 0.44 0.42 46.3 0 0 47.66 44.86
  Z
  M 79.78 44.76
  L 74.20 51.39
  A 0.61 0.58 46.0 0 0 74.21 52.14
  L 79.71 59.10
  A 0.37 0.37 0.0 0 0 80.29 59.10
  L 85.78 51.93
  A 0.60 0.58 43.0 0 0 85.74 51.18
  L 80.22 44.77
  A 0.30 0.28 44.5 0 0 79.78 44.76
  Z
  M 32.81 57.82
  A 0.48 0.47 43.0 0 0 32.78 57.21
  L 26.28 49.83
  A 0.41 0.40 44.2 0 0 25.66 49.83
  L 19.36 57.33
  A 0.62 0.58 46.8 0 0 19.36 58.09
  L 25.70 66.12
  A 0.37 0.37 -43.6 0 0 26.28 66.12
  L 32.81 57.82
  Z
  M 47.67 76.87
  C 46.04 78.83 43.54 81.30 42.22 83.51
  A 0.73 0.65 42.6 0 0 42.30 84.30
  L 47.70 91.10
  A 0.37 0.36 44.2 0 0 48.28 91.10
  L 53.77 83.93
  A 0.60 0.60 43.8 0 0 53.75 83.18
  L 48.30 76.89
  A 0.43 0.40 44.7 0 0 47.67 76.87
  Z
  M 79.78 76.76
  L 74.21 83.39
  A 0.60 0.57 46.4 0 0 74.21 84.14
  L 79.71 91.10
  A 0.37 0.37 0.0 0 0 80.29 91.10
  L 85.78 83.93
  A 0.60 0.58 43.0 0 0 85.74 83.18
  L 80.22 76.77
  A 0.29 0.29 45.7 0 0 79.78 76.76
  Z
  M 101.75 101.74
  L 95.29 110.06
  A 0.58 0.57 -47.2 0 0 95.31 110.79
  L 101.71 118.14
  A 0.42 0.41 45.1 0 0 102.34 118.15
  L 108.69 110.62
  A 0.61 0.57 46.9 0 0 108.69 109.88
  L 102.29 101.75
  A 0.34 0.34 45.5 0 0 101.75 101.74
  Z
  M 47.75 108.93
  C 45.90 111.11 43.85 113.74 42.24 116.10
  A 0.68 0.62 42.4 0 0 42.31 116.88
  L 47.72 123.14
  A 0.41 0.40 43.8 0 0 48.34 123.13
  L 53.78 116.62
  A 0.61 0.58 46.0 0 0 53.77 115.87
  L 48.36 108.97
  A 0.41 0.38 46.5 0 0 47.75 108.93
  Z
  M 79.84 108.85
  L 74.22 116.08
  A 0.64 0.58 44.1 0 0 74.27 116.84
  L 79.72 123.13
  A 0.41 0.40 44.2 0 0 80.34 123.13
  L 85.79 116.61
  A 0.60 0.57 46.4 0 0 85.79 115.86
  L 80.30 108.86
  A 0.30 0.28 44.7 0 0 79.84 108.85
  Z
  M 106.65 142.57
  C 106.16 147.65 100.79 149.40 97.76 145.14
  A 0.75 0.68 64.2 0 0 97.00 144.83
  Q 95.73 145.18 94.81 146.14
  A 0.63 0.59 50.3 0 0 94.76 146.92
  C 97.50 150.92 103.49 152.57 107.09 149.24
  C 112.99 143.79 112.33 120.65 100.20 123.80
  C 88.21 126.92 93.82 148.86 106.25 142.30
  Q 106.70 142.06 106.65 142.57
  Z"
/>
<path fill="#f2f4f5" fill-opacity="0.973" d="
  M 16.46 15.50
  Q 14.00 19.38 14.00 21.00
  Q 14.18 84.25 13.76 147.50
  Q 13.10 57.58 13.51 21.32
  Q 13.55 18.40 16.46 15.50
  Z"
/>
<path fill="#c4332c" d="
  M 21.75 25.68
  C 31.91 20.00 38.39 34.83 31.44 42.11
  C 27.93 45.80 21.39 45.07 19.21 39.97
  C 16.79 34.32 15.85 23.50 20.83 18.82
  C 24.45 15.41 30.53 17.07 33.24 21.08
  A 0.63 0.61 50.2 0 1 33.18 21.87
  Q 32.28 22.81 31.03 23.16
  A 0.76 0.68 62.1 0 1 30.25 22.87
  C 27.06 18.54 21.98 20.41 21.36 25.45
  Q 21.30 25.94 21.75 25.68
  Z
  M 26.2596 40.8539
  A 6.41 4.93 87.5 0 0 30.9053 34.2350
  A 6.41 4.93 87.5 0 0 25.7004 28.0461
  A 6.41 4.93 87.5 0 0 21.0547 34.6650
  A 6.41 4.93 87.5 0 0 26.2596 40.8539
  Z"
/>
<ellipse fill="#ffffff" cx="0.00" cy="0.00" transform="translate(25.98,34.45) rotate(87.5)" rx="6.41" ry="4.93"/>
<rect fill="#020101" fill-opacity="0.039" x="114.75" y="41.55" width="0.26" height="55.66" rx="0.12"/>
<path fill="#c4332c" d="
  M 42.20 51.55
  C 43.69 49.38 45.87 46.80 47.66 44.86
  A 0.44 0.42 46.3 0 1 48.30 44.89
  L 53.72 51.16
  A 0.62 0.59 43.5 0 1 53.76 51.92
  L 48.27 59.11
  A 0.38 0.36 43.9 0 1 47.69 59.10
  L 42.26 52.32
  A 0.67 0.61 43.3 0 1 42.20 51.55
  Z"
/>
<path fill="#c4332c" d="
  M 79.78 44.76
  A 0.30 0.28 44.5 0 1 80.22 44.77
  L 85.74 51.18
  A 0.60 0.58 43.0 0 1 85.78 51.93
  L 80.29 59.10
  A 0.37 0.37 0.0 0 1 79.71 59.10
  L 74.21 52.14
  A 0.61 0.58 46.0 0 1 74.20 51.39
  L 79.78 44.76
  Z"
/>
<path fill="#c4332c" d="
  M 32.81 57.82
  L 26.28 66.12
  A 0.37 0.37 -41.8 0 1 25.70 66.12
  L 19.36 58.09
  A 0.62 0.58 46.8 0 1 19.36 57.33
  L 25.66 49.83
  A 0.41 0.40 44.2 0 1 26.28 49.83
  L 32.78 57.21
  A 0.48 0.47 43.0 0 1 32.81 57.82
  Z"
/>
<path fill="#c4332c" d="
  M 42.22 83.51
  C 43.54 81.30 46.04 78.83 47.67 76.87
  A 0.43 0.40 44.7 0 1 48.30 76.89
  L 53.75 83.18
  A 0.60 0.60 43.8 0 1 53.77 83.93
  L 48.28 91.10
  A 0.37 0.36 44.2 0 1 47.70 91.10
  L 42.30 84.30
  A 0.73 0.65 42.6 0 1 42.22 83.51
  Z"
/>
<path fill="#c4332c" d="
  M 79.78 76.76
  A 0.29 0.29 45.7 0 1 80.22 76.77
  L 85.74 83.18
  A 0.60 0.58 43.0 0 1 85.78 83.93
  L 80.29 91.10
  A 0.37 0.37 -0.0 0 1 79.71 91.10
  L 74.21 84.14
  A 0.60 0.57 46.4 0 1 74.21 83.39
  L 79.78 76.76
  Z"
/>
<path fill="#c4332c" d="
  M 101.75 101.74
  A 0.34 0.34 45.5 0 1 102.29 101.75
  L 108.69 109.88
  A 0.61 0.57 46.9 0 1 108.69 110.62
  L 102.34 118.15
  A 0.42 0.41 45.1 0 1 101.71 118.14
  L 95.31 110.79
  A 0.58 0.57 -47.2 0 1 95.29 110.06
  L 101.75 101.74
  Z"
/>
<path fill="#c4332c" d="
  M 42.24 116.10
  C 43.85 113.74 45.90 111.11 47.75 108.93
  A 0.41 0.38 46.5 0 1 48.36 108.97
  L 53.77 115.87
  A 0.61 0.58 46.0 0 1 53.78 116.62
  L 48.34 123.13
  A 0.41 0.40 43.8 0 1 47.72 123.14
  L 42.31 116.88
  A 0.68 0.62 42.4 0 1 42.24 116.10
  Z"
/>
<path fill="#c4332c" d="
  M 79.84 108.85
  A 0.30 0.28 44.7 0 1 80.30 108.86
  L 85.79 115.86
  A 0.60 0.57 46.4 0 1 85.79 116.61
  L 80.34 123.13
  A 0.41 0.40 44.2 0 1 79.72 123.13
  L 74.27 116.84
  A 0.64 0.58 44.1 0 1 74.22 116.08
  L 79.84 108.85
  Z"
/>
<path fill="#c4332c" d="
  M 106.25 142.30
  C 93.82 148.86 88.21 126.92 100.20 123.80
  C 112.33 120.65 112.99 143.79 107.09 149.24
  C 103.49 152.57 97.50 150.92 94.76 146.92
  A 0.63 0.59 50.3 0 1 94.81 146.14
  Q 95.73 145.18 97.00 144.83
  A 0.75 0.68 64.2 0 1 97.76 145.14
  C 100.79 149.40 106.16 147.65 106.65 142.57
  Q 106.70 142.06 106.25 142.30
  Z
  M 104.26 127.88
  Q 102.20 125.90 99.96 127.69
  C 92.23 133.85 101.78 145.89 106.50 136.59
  C 107.91 133.81 106.33 129.86 104.26 127.88
  Z"
/>
<path fill="#020101" fill-opacity="0.039" d="
  M 114.84 125.07
  Q 115.25 132.88 114.84 140.69
  Q 114.80 141.38 114.80 140.69
  L 114.80 125.07
  Q 114.80 124.37 114.84 125.07
  Z"
/>
<path fill="#ffffff" d="
  M 104.26 127.88
  C 106.33 129.86 107.91 133.81 106.50 136.59
  C 101.78 145.89 92.23 133.85 99.96 127.69
  Q 102.20 125.90 104.26 127.88
  Z"
/>
<path fill="#020101" fill-opacity="0.251" d="
  M 109.75 154.04
  Q 109.57 154.36 109.58 154.63
  Q 109.60 155.07 110.04 154.77
  Q 111.70 153.63 110.53 155.23
  A 1.29 1.27 8.5 0 1 109.90 155.69
  Q 105.41 157.24 100.57 157.24
  Q 63.26 157.22 25.97 157.26
  C 24.38 157.26 22.92 156.61 21.07 156.92
  A 0.57 0.46 74.4 0 1 20.52 156.53
  Q 20.39 156.18 20.00 156.18
  A 1.19 0.25 -2.6 0 1 19.08 156.03
  Q 18.55 155.59 19.88 155.09
  L 91.25 155.29
  Q 93.63 156.39 96.00 155.29
  L 96.25 155.29
  Q 100.09 156.35 104.05 155.41
  Q 107.00 155.28 109.75 154.04
  Z"
/>
<path fill="#1b1b1d" fill-opacity="0.882" d="
  M 91.25 155.29
  L 96.00 155.29
  Q 93.63 156.39 91.25 155.29
  Z"
/>
<path fill="#1b1b1d" fill-opacity="0.882" d="
  M 96.25 155.29
  L 104.05 155.41
  Q 100.09 156.35 96.25 155.29
  Z"
/>
</svg>
