<?xml version="1.0" encoding="UTF-8" standalone="no"?>
<svg xmlns="http://www.w3.org/2000/svg" version="1.2" baseProfile="tiny" viewBox="0 0 128 168">
<g stroke-width="0.00" fill="none" stroke-linecap="butt">
<path stroke="#e7e7e7" stroke-opacity="0.553" vector-effect="non-scaling-stroke" d="
  M 13.75 147.71
  L 15.29 151.25"
/>
<path stroke="#d7d7d7" stroke-opacity="0.596" vector-effect="non-scaling-stroke" d="
  M 15.29 151.25
  Q 18.43 155.24 22.75 155.24
  Q 63.18 155.26 103.62 155.24
  C 112.10 155.23 114.49 150.62 114.49 142.53
  Q 114.51 83.23 114.49 23.94
  C 114.49 15.18 110.18 12.76 101.72 12.76
  Q 63.08 12.73 24.45 12.77
  C 19.81 12.77 16.68 13.92 14.71 18.00"
/>
<path stroke="#d7d7d7" stroke-opacity="0.596" vector-effect="non-scaling-stroke" d="
  M 13.75 147.71
  L 13.76 147.50"
/>
<path stroke="#f9fafa" stroke-opacity="0.988" vector-effect="non-scaling-stroke" d="
  M 13.76 147.50
  Q 14.18 84.93 14.00 22.36
  C 14.00 20.83 14.44 19.50 14.71 18.00"
/>
<path stroke="#e29996" vector-effect="non-scaling-stroke" d="
  M 34.97 22.88
  A 5.83 5.83 0.0 0 0 29.14 17.05
  L 28.60 17.05
  A 5.83 5.83 0.0 0 0 22.77 22.88
  L 22.77 38.86
  A 5.83 5.83 0.0 0 0 28.60 44.69
  L 29.14 44.69
  A 5.83 5.83 0.0 0 0 34.97 38.86
  L 34.97 22.88"
/>
<path stroke="#e29996" vector-effect="non-scaling-stroke" d="
  M 20.50 17.80
  A 0.53 0.53 0.0 0 0 19.97 17.27
  L 17.29 17.27
  A 0.53 0.53 0.0 0 0 16.76 17.80
  L 16.76 43.74
  A 0.53 0.53 0.0 0 0 17.29 44.27
  L 19.97 44.27
  A 0.53 0.53 0.0 0 0 20.50 43.74
  L 20.50 17.80"
/>
<path stroke="#e29996" vector-effect="non-scaling-stroke" d="
  M 47.68 44.84
  C 45.87 46.88 43.71 49.33 42.19 51.56
  A 0.70 0.60 43.9 0 0 42.26 52.33
  L 47.70 59.10
  A 0.37 0.35 44.3 0 0 48.27 59.11
  L 53.75 51.91
  A 0.62 0.60 43.9 0 0 53.72 51.15
  L 48.32 44.87
  A 0.44 0.41 45.6 0 0 47.68 44.84"
/>
<path stroke="#e29996" vector-effect="non-scaling-stroke" d="
  M 79.78 44.76
  L 74.21 51.39
  A 0.60 0.57 46.4 0 0 74.21 52.14
  L 79.71 59.10
  A 0.37 0.37 0.0 0 0 80.29 59.10
  L 85.78 51.93
  A 0.60 0.58 43.0 0 0 85.74 51.18
  L 80.22 44.77
  A 0.29 0.29 45.7 0 0 79.78 44.76"
/>
<path stroke="#e29996" vector-effect="non-scaling-stroke" d="
  M 32.98 57.61
  A 0.17 0.16 43.7 0 0 32.97 57.39
  L 26.29 49.85
  A 0.42 0.40 44.7 0 0 25.67 49.84
  L 19.36 57.33
  A 0.61 0.59 45.9 0 0 19.36 58.09
  L 25.71 66.14
  A 0.38 0.37 44.6 0 0 26.30 66.14
  L 32.98 57.61"
/>
<path stroke="#e29996" vector-effect="non-scaling-stroke" d="
  M 63.76 55.45
  L 58.24 61.94
  A 0.62 0.59 46.8 0 0 58.23 62.69
  L 63.73 69.84
  A 0.37 0.37 -45.5 0 0 64.31 69.84
  L 69.77 62.67
  A 0.60 0.59 43.4 0 0 69.74 61.92
  L 64.18 55.45
  A 0.28 0.28 44.5 0 0 63.76 55.45"
/>
<path stroke="#e29996" vector-effect="non-scaling-stroke" d="
  M 47.64 66.29
  C 45.89 68.14 43.64 70.73 42.23 72.83
  A 0.72 0.63 44.0 0 0 42.30 73.62
  L 47.70 80.39
  A 0.37 0.37 0.0 0 0 48.28 80.39
  L 53.74 73.56
  A 0.63 0.57 -46.1 0 0 53.76 72.80
  L 48.32 66.32
  A 0.46 0.46 47.0 0 0 47.64 66.29"
/>
<path stroke="#e29996" vector-effect="non-scaling-stroke" d="
  M 79.70 66.09
  L 74.26 72.67
  A 0.60 0.60 -43.8 0 0 74.24 73.42
  L 79.70 80.39
  A 0.37 0.37 -45.2 0 0 80.28 80.39
  L 85.77 73.40
  A 0.59 0.59 43.8 0 0 85.75 72.65
  L 80.13 66.09
  A 0.29 0.28 -44.4 0 0 79.70 66.09"
/>
<path stroke="#e29996" vector-effect="non-scaling-stroke" d="
  M 47.69 87.61
  C 45.78 89.88 44.32 92.29 42.24 94.41
  A 0.75 0.72 46.5 0 0 42.23 95.41
  L 47.75 101.81
  A 0.41 0.39 44.7 0 0 48.37 101.82
  L 53.76 95.18
  A 0.61 0.57 45.6 0 0 53.74 94.43
  L 48.30 87.63
  A 0.40 0.38 45.6 0 0 47.69 87.61"
/>
<path stroke="#e29996" vector-effect="non-scaling-stroke" d="
  M 79.74 87.52
  L 74.21 94.60
  A 0.60 0.59 -46.3 0 0 74.22 95.36
  L 79.81 101.82
  A 0.43 0.40 -46.0 0 0 80.44 101.79
  L 85.75 95.34
  A 0.61 0.60 46.3 0 0 85.76 94.58
  L 80.28 87.52
  A 0.34 0.34 -44.3 0 0 79.74 87.52"
/>
<path stroke="#e29996" vector-effect="non-scaling-stroke" d="
  M 63.80 98.10
  L 58.24 105.34
  A 0.61 0.58 43.9 0 0 58.27 106.10
  L 63.73 112.41
  A 0.41 0.40 -45.5 0 0 64.35 112.40
  L 69.74 106.07
  A 0.60 0.60 46.7 0 0 69.76 105.31
  L 64.27 98.11
  A 0.29 0.29 46.1 0 0 63.80 98.10"
/>
<path stroke="#e29996" vector-effect="non-scaling-stroke" d="
  M 101.74 101.75
  L 95.25 110.11
  A 0.58 0.57 43.7 0 0 95.27 110.84
  L 101.70 118.14
  A 0.42 0.41 45.1 0 0 102.33 118.15
  L 108.69 110.63
  A 0.61 0.58 46.4 0 0 108.69 109.88
  L 102.30 101.75
  A 0.35 0.35 90.0 0 0 101.74 101.75"
/>
<path stroke="#e29996" vector-effect="non-scaling-stroke" d="
  M 47.77 108.92
  C 45.92 111.08 43.80 113.74 42.22 116.09
  A 0.66 0.61 41.9 0 0 42.29 116.86
  L 47.72 123.14
  A 0.42 0.42 44.6 0 0 48.35 123.14
  L 53.78 116.62
  A 0.61 0.58 46.0 0 0 53.77 115.87
  L 48.37 108.96
  A 0.40 0.37 46.9 0 0 47.77 108.92"
/>
<path stroke="#e29996" vector-effect="non-scaling-stroke" d="
  M 79.85 108.83
  L 74.22 116.08
  A 0.64 0.58 44.1 0 0 74.27 116.84
  L 79.72 123.13
  A 0.41 0.38 44.7 0 0 80.33 123.15
  L 85.78 116.63
  A 0.63 0.59 46.9 0 0 85.78 115.87
  L 80.31 108.84
  A 0.30 0.28 44.7 0 0 79.85 108.83"
/>
<path stroke="#e29996" vector-effect="non-scaling-stroke" d="
  M 105.22 129.14
  A 5.83 5.83 0.0 0 0 99.39 123.31
  L 98.85 123.31
  A 5.83 5.83 0.0 0 0 93.02 129.14
  L 93.02 145.12
  A 5.83 5.83 0.0 0 0 98.85 150.95
  L 99.39 150.95
  A 5.83 5.83 0.0 0 0 105.22 145.12
  L 105.22 129.14"
/>
<path stroke="#e29996" vector-effect="non-scaling-stroke" d="
  M 111.24 124.26
  A 0.53 0.53 0.0 0 0 110.71 123.73
  L 108.03 123.73
  A 0.53 0.53 0.0 0 0 107.50 124.26
  L 107.50 150.20
  A 0.53 0.53 0.0 0 0 108.03 150.73
  L 110.71 150.73
  A 0.53 0.53 0.0 0 0 111.24 150.20
  L 111.24 124.26"
/>
<path stroke="#e29996" vector-effect="non-scaling-stroke" d="
  M 31.24 22.83
  A 2.31 2.31 0.0 0 0 28.93 20.52
  L 28.81 20.52
  A 2.31 2.31 0.0 0 0 26.50 22.83
  L 26.50 38.91
  A 2.31 2.31 0.0 0 0 28.81 41.22
  L 28.93 41.22
  A 2.31 2.31 0.0 0 0 31.24 38.91
  L 31.24 22.83"
/>
<path stroke="#e29996" vector-effect="non-scaling-stroke" d="
  M 101.49 129.06
  A 2.30 2.30 0.0 0 0 99.19 126.76
  L 99.05 126.76
  A 2.30 2.30 0.0 0 0 96.75 129.06
  L 96.75 145.18
  A 2.30 2.30 0.0 0 0 99.05 147.48
  L 99.19 147.48
  A 2.30 2.30 0.0 0 0 101.49 145.18
  L 101.49 129.06"
/>
</g>
<path fill="#000001" fill-opacity="0.106" d="
  M 112.31 9.65
  Q 114.13 9.66 115.56 11.74
  Q 117.81 15.02 119.00 18.09
  C 120.77 22.64 120.25 28.47 120.28 33.56
  Q 120.52 73.09 120.49 112.61
  C 120.49 120.96 119.96 132.96 120.22 143.18
  C 120.30 146.17 119.51 148.74 118.64 151.48
  A 1.68 1.24 -17.0 0 1 118.07 152.25
  Q 117.01 153.06 116.68 154.34
  A 1.79 1.53 -18.9 0 1 116.21 155.14
  L 114.51 156.79
  A 1.44 0.87 10.4 0 1 113.69 157.10
  Q 113.05 157.14 112.98 157.98
  A 0.85 0.80 -11.5 0 1 112.51 158.64
  L 108.68 160.56
  A 1.54 0.96 -42.8 0 1 107.79 160.73
  Q 105.61 160.28 103.90 161.45
  A 1.76 1.36 -56.1 0 1 103.00 161.75
  L 24.71 161.76
  A 0.86 0.76 -12.9 0 1 23.99 161.37
  L 23.87 161.17
  A 0.40 0.34 71.7 0 0 23.54 160.97
  L 18.51 161.23
  A 0.40 0.39 -86.9 0 1 18.11 160.77
  Q 18.52 158.18 15.77 158.68
  A 1.06 0.95 -26.9 0 1 14.91 158.45
  Q 11.78 155.49 9.50 151.94
  A 1.67 1.32 -65.0 0 1 9.28 151.02
  Q 9.37 149.45 8.62 149.56
  A 1.40 1.39 85.8 0 1 7.02 148.17
  Q 6.98 85.72 7.02 25.25
  Q 7.02 18.81 11.25 12.21
  A 1.64 0.99 -3.9 0 1 12.02 11.67
  Q 12.93 11.36 13.11 10.40
  A 1.03 0.85 -11.8 0 1 13.63 9.75
  L 19.20 6.90
  Q 20.93 6.02 23.56 6.02
  L 105.19 6.02
  A 0.56 0.41 3.7 0 1 105.77 6.50
  L 105.71 6.83
  A 0.32 0.24 -80.6 0 0 105.89 7.18
  C 106.22 7.22 109.85 7.12 109.85 7.78
  A 0.36 0.32 84.8 0 0 110.24 8.14
  Q 111.67 7.84 111.80 9.20
  A 0.51 0.51 -3.1 0 0 112.31 9.65
  Z
  M 13.96 19.50
  L 13.50 21.29
  Q 12.82 20.91 12.03 20.84
  A 0.49 0.45 -86.1 0 0 11.53 21.31
  C 11.48 23.45 11.00 25.56 11.00 27.57
  Q 10.99 85.24 11.01 142.90
  C 11.01 144.85 11.99 146.94 11.77 149.26
  A 0.70 0.65 -77.0 0 0 12.17 149.96
  Q 13.72 150.59 12.52 149.12
  A 0.86 0.63 -57.3 0 1 12.47 148.32
  Q 12.70 147.78 12.32 147.32
  A 0.85 0.60 42.7 0 1 12.15 146.53
  C 13.18 144.47 12.86 147.95 13.75 147.71
  L 15.29 151.25
  Q 15.20 153.52 14.63 151.77
  A 0.69 0.65 86.5 0 0 14.14 151.31
  C 11.45 150.74 13.97 152.64 14.33 153.13
  C 18.30 158.65 23.03 159.34 29.48 159.04
  Q 36.10 158.74 38.14 158.76
  Q 47.63 158.86 57.12 158.72
  C 63.10 158.63 70.29 159.12 76.89 158.88
  C 77.99 158.84 78.88 159.49 80.07 158.97
  Q 80.60 158.74 81.01 158.75
  Q 91.22 159.04 101.45 158.83
  C 103.78 158.78 105.32 157.66 107.73 157.52
  A 1.59 0.96 10.8 0 0 108.63 157.19
  L 112.51 153.49
  Q 113.43 152.60 113.53 152.57
  Q 116.44 151.69 115.10 149.39
  A 0.40 0.39 64.8 0 1 115.30 148.82
  Q 117.49 148.04 117.49 145.00
  Q 117.51 84.97 117.50 24.94
  C 117.50 22.53 116.81 20.62 116.27 18.30
  A 1.72 1.56 17.4 0 0 115.79 17.48
  Q 114.54 16.30 113.88 14.75
  A 1.86 1.65 -86.6 0 0 113.29 14.00
  L 108.84 10.79
  A 1.53 1.51 62.6 0 0 107.95 10.50
  Q 64.72 10.50 21.49 10.50
  C 18.26 10.49 13.20 15.16 12.82 17.93
  A 0.57 0.48 10.9 0 0 13.26 18.47
  Q 13.95 18.65 13.96 19.50
  Z"
/>
<path fill="#010101" fill-opacity="0.188" d="
  M 15.29 151.25
  Q 18.43 155.24 22.75 155.24
  Q 63.18 155.26 103.62 155.24
  C 112.10 155.23 114.49 150.62 114.49 142.53
  Q 114.51 83.23 114.49 23.94
  C 114.49 15.18 110.18 12.76 101.72 12.76
  Q 63.08 12.73 24.45 12.77
  C 19.81 12.77 16.68 13.92 14.71 18.00
  L 13.96 19.50
  Q 13.95 18.65 13.26 18.47
  A 0.57 0.48 10.9 0 1 12.82 17.93
  C 13.20 15.16 18.26 10.49 21.49 10.50
  Q 64.72 10.50 107.95 10.50
  A 1.53 1.51 62.6 0 1 108.84 10.79
  L 113.29 14.00
  A 1.86 1.65 -86.6 0 1 113.88 14.75
  Q 114.54 16.30 115.79 17.48
  A 1.72 1.56 17.4 0 1 116.27 18.30
  C 116.81 20.62 117.50 22.53 117.50 24.94
  Q 117.51 84.97 117.49 145.00
  Q 117.49 148.04 115.30 148.82
  A 0.40 0.39 64.8 0 0 115.10 149.39
  Q 116.44 151.69 113.53 152.57
  Q 113.43 152.60 112.51 153.49
  L 108.63 157.19
  A 1.59 0.96 10.8 0 1 107.73 157.52
  C 105.32 157.66 103.78 158.78 101.45 158.83
  Q 91.22 159.04 81.01 158.75
  Q 80.60 158.74 80.07 158.97
  C 78.88 159.49 77.99 158.84 76.89 158.88
  C 70.29 159.12 63.10 158.63 57.12 158.72
  Q 47.63 158.86 38.14 158.76
  Q 36.10 158.74 29.48 159.04
  C 23.03 159.34 18.30 158.65 14.33 153.13
  C 13.97 152.64 11.45 150.74 14.14 151.31
  A 0.69 0.65 86.5 0 1 14.63 151.77
  Q 15.20 153.52 15.29 151.25
  Z
  M 115.01 41.67
  A 0.12 0.12 0.0 0 0 114.89 41.55
  L 114.87 41.55
  A 0.12 0.12 0.0 0 0 114.75 41.67
  L 114.75 91.09
  A 0.12 0.12 0.0 0 0 114.87 91.21
  L 114.89 91.21
  A 0.12 0.12 0.0 0 0 115.01 91.09
  L 115.01 41.67
  Z"
/>
<path fill="#ffffff" d="
  M 15.29 151.25
  L 13.75 147.71
  L 13.76 147.50
  Q 14.18 84.93 14.00 22.36
  C 14.00 20.83 14.44 19.50 14.71 18.00
  C 16.68 13.92 19.81 12.77 24.45 12.77
  Q 63.08 12.73 101.72 12.76
  C 110.18 12.76 114.49 15.18 114.49 23.94
  Q 114.51 83.23 114.49 142.53
  C 114.49 150.62 112.10 155.23 103.62 155.24
  Q 63.18 155.26 22.75 155.24
  Q 18.43 155.24 15.29 151.25
  Z
  M 34.97 22.88
  A 5.83 5.83 0.0 0 0 29.14 17.05
  L 28.60 17.05
  A 5.83 5.83 0.0 0 0 22.77 22.88
  L 22.77 38.86
  A 5.83 5.83 0.0 0 0 28.60 44.69
  L 29.14 44.69
  A 5.83 5.83 0.0 0 0 34.97 38.86
  L 34.97 22.88
  Z
  M 20.50 17.80
  A 0.53 0.53 0.0 0 0 19.97 17.27
  L 17.29 17.27
  A 0.53 0.53 0.0 0 0 16.76 17.80
  L 16.76 43.74
  A 0.53 0.53 0.0 0 0 17.29 44.27
  L 19.97 44.27
  A 0.53 0.53 0.0 0 0 20.50 43.74
  L 20.50 17.80
  Z
  M 47.68 44.84
  C 45.87 46.88 43.71 49.33 42.19 51.56
  A 0.70 0.60 43.9 0 0 42.26 52.33
  L 47.70 59.10
  A 0.37 0.35 44.3 0 0 48.27 59.11
  L 53.75 51.91
  A 0.62 0.60 43.9 0 0 53.72 51.15
  L 48.32 44.87
  A 0.44 0.41 45.6 0 0 47.68 44.84
  Z
  M 79.78 44.76
  L 74.21 51.39
  A 0.60 0.57 46.4 0 0 74.21 52.14
  L 79.71 59.10
  A 0.37 0.37 0.0 0 0 80.29 59.10
  L 85.78 51.93
  A 0.60 0.58 43.0 0 0 85.74 51.18
  L 80.22 44.77
  A 0.29 0.29 45.7 0 0 79.78 44.76
  Z
  M 32.98 57.61
  A 0.17 0.16 43.7 0 0 32.97 57.39
  L 26.29 49.85
  A 0.42 0.40 44.7 0 0 25.67 49.84
  L 19.36 57.33
  A 0.61 0.59 45.9 0 0 19.36 58.09
  L 25.71 66.14
  A 0.38 0.37 44.6 0 0 26.30 66.14
  L 32.98 57.61
  Z
  M 63.76 55.45
  L 58.24 61.94
  A 0.62 0.59 46.8 0 0 58.23 62.69
  L 63.73 69.84
  A 0.37 0.37 -45.5 0 0 64.31 69.84
  L 69.77 62.67
  A 0.60 0.59 43.4 0 0 69.74 61.92
  L 64.18 55.45
  A 0.28 0.28 44.5 0 0 63.76 55.45
  Z
  M 47.64 66.29
  C 45.89 68.14 43.64 70.73 42.23 72.83
  A 0.72 0.63 44.0 0 0 42.30 73.62
  L 47.70 80.39
  A 0.37 0.37 0.0 0 0 48.28 80.39
  L 53.74 73.56
  A 0.63 0.57 -46.1 0 0 53.76 72.80
  L 48.32 66.32
  A 0.46 0.46 47.0 0 0 47.64 66.29
  Z
  M 79.70 66.09
  L 74.26 72.67
  A 0.60 0.60 -43.8 0 0 74.24 73.42
  L 79.70 80.39
  A 0.37 0.37 -45.2 0 0 80.28 80.39
  L 85.77 73.40
  A 0.59 0.59 43.8 0 0 85.75 72.65
  L 80.13 66.09
  A 0.29 0.28 -44.4 0 0 79.70 66.09
  Z
  M 47.69 87.61
  C 45.78 89.88 44.32 92.29 42.24 94.41
  A 0.75 0.72 46.5 0 0 42.23 95.41
  L 47.75 101.81
  A 0.41 0.39 44.7 0 0 48.37 101.82
  L 53.76 95.18
  A 0.61 0.57 45.6 0 0 53.74 94.43
  L 48.30 87.63
  A 0.40 0.38 45.6 0 0 47.69 87.61
  Z
  M 79.74 87.52
  L 74.21 94.60
  A 0.60 0.59 -46.3 0 0 74.22 95.36
  L 79.81 101.82
  A 0.43 0.40 -46.0 0 0 80.44 101.79
  L 85.75 95.34
  A 0.61 0.60 46.3 0 0 85.76 94.58
  L 80.28 87.52
  A 0.34 0.34 -44.3 0 0 79.74 87.52
  Z
  M 63.80 98.10
  L 58.24 105.34
  A 0.61 0.58 43.9 0 0 58.27 106.10
  L 63.73 112.41
  A 0.41 0.40 -45.5 0 0 64.35 112.40
  L 69.74 106.07
  A 0.60 0.60 46.7 0 0 69.76 105.31
  L 64.27 98.11
  A 0.29 0.29 46.1 0 0 63.80 98.10
  Z
  M 101.74 101.75
  L 95.25 110.11
  A 0.58 0.57 43.7 0 0 95.27 110.84
  L 101.70 118.14
  A 0.42 0.41 45.1 0 0 102.33 118.15
  L 108.69 110.63
  A 0.61 0.58 46.4 0 0 108.69 109.88
  L 102.30 101.75
  A 0.35 0.35 90.0 0 0 101.74 101.75
  Z
  M 47.77 108.92
  C 45.92 111.08 43.80 113.74 42.22 116.09
  A 0.66 0.61 41.9 0 0 42.29 116.86
  L 47.72 123.14
  A 0.42 0.42 44.6 0 0 48.35 123.14
  L 53.78 116.62
  A 0.61 0.58 46.0 0 0 53.77 115.87
  L 48.37 108.96
  A 0.40 0.37 46.9 0 0 47.77 108.92
  Z
  M 79.85 108.83
  L 74.22 116.08
  A 0.64 0.58 44.1 0 0 74.27 116.84
  L 79.72 123.13
  A 0.41 0.38 44.7 0 0 80.33 123.15
  L 85.78 116.63
  A 0.63 0.59 46.9 0 0 85.78 115.87
  L 80.31 108.84
  A 0.30 0.28 44.7 0 0 79.85 108.83
  Z
  M 105.22 129.14
  A 5.83 5.83 0.0 0 0 99.39 123.31
  L 98.85 123.31
  A 5.83 5.83 0.0 0 0 93.02 129.14
  L 93.02 145.12
  A 5.83 5.83 0.0 0 0 98.85 150.95
  L 99.39 150.95
  A 5.83 5.83 0.0 0 0 105.22 145.12
  L 105.22 129.14
  Z
  M 111.24 124.26
  A 0.53 0.53 0.0 0 0 110.71 123.73
  L 108.03 123.73
  A 0.53 0.53 0.0 0 0 107.50 124.26
  L 107.50 150.20
  A 0.53 0.53 0.0 0 0 108.03 150.73
  L 110.71 150.73
  A 0.53 0.53 0.0 0 0 111.24 150.20
  L 111.24 124.26
  Z"
/>
<path fill="#c4332c" d="
  M 34.97 38.86
  A 5.83 5.83 0.0 0 1 29.14 44.69
  L 28.60 44.69
  A 5.83 5.83 0.0 0 1 22.77 38.86
  L 22.77 22.88
  A 5.83 5.83 0.0 0 1 28.60 17.05
  L 29.14 17.05
  A 5.83 5.83 0.0 0 1 34.97 22.88
  L 34.97 38.86
  Z
  M 31.24 22.83
  A 2.31 2.31 0.0 0 0 28.93 20.52
  L 28.81 20.52
  A 2.31 2.31 0.0 0 0 26.50 22.83
  L 26.50 38.91
  A 2.31 2.31 0.0 0 0 28.81 41.22
  L 28.93 41.22
  A 2.31 2.31 0.0 0 0 31.24 38.91
  L 31.24 22.83
  Z"
/>
<rect fill="#c4332c" x="16.76" y="17.27" width="3.74" height="27.00" rx="0.53"/>
<path fill="#f2f4f5" fill-opacity="0.973" d="
  M 14.71 18.00
  C 14.44 19.50 14.00 20.83 14.00 22.36
  Q 14.18 84.93 13.76 147.50
  L 13.50 21.29
  L 13.96 19.50
  L 14.71 18.00
  Z"
/>
<rect fill="#ffffff" x="26.50" y="20.52" width="4.74" height="20.70" rx="2.31"/>
<path fill="#010101" fill-opacity="0.188" d="
  M 13.50 21.29
  L 13.76 147.50
  L 13.75 147.71
  C 12.86 147.95 13.18 144.47 12.15 146.53
  A 0.85 0.60 42.7 0 0 12.32 147.32
  Q 12.70 147.78 12.47 148.32
  A 0.86 0.63 -57.3 0 0 12.52 149.12
  Q 13.72 150.59 12.17 149.96
  A 0.70 0.65 -77.0 0 1 11.77 149.26
  C 11.99 146.94 11.01 144.85 11.01 142.90
  Q 10.99 85.24 11.00 27.57
  C 11.00 25.56 11.48 23.45 11.53 21.31
  A 0.49 0.45 -86.1 0 1 12.03 20.84
  Q 12.82 20.91 13.50 21.29
  Z"
/>
<rect fill="#000001" fill-opacity="0.106" x="114.75" y="41.55" width="0.26" height="49.66" rx="0.12"/>
<path fill="#c4332c" d="
  M 42.19 51.56
  C 43.71 49.33 45.87 46.88 47.68 44.84
  A 0.44 0.41 45.6 0 1 48.32 44.87
  L 53.72 51.15
  A 0.62 0.60 43.9 0 1 53.75 51.91
  L 48.27 59.11
  A 0.37 0.35 44.3 0 1 47.70 59.10
  L 42.26 52.33
  A 0.70 0.60 43.9 0 1 42.19 51.56
  Z"
/>
<path fill="#c4332c" d="
  M 79.78 44.76
  A 0.29 0.29 45.7 0 1 80.22 44.77
  L 85.74 51.18
  A 0.60 0.58 43.0 0 1 85.78 51.93
  L 80.29 59.10
  A 0.37 0.37 0.0 0 1 79.71 59.10
  L 74.21 52.14
  A 0.60 0.57 46.4 0 1 74.21 51.39
  L 79.78 44.76
  Z"
/>
<path fill="#c4332c" d="
  M 32.98 57.61
  L 26.30 66.14
  A 0.38 0.37 44.6 0 1 25.71 66.14
  L 19.36 58.09
  A 0.61 0.59 45.9 0 1 19.36 57.33
  L 25.67 49.84
  A 0.42 0.40 44.7 0 1 26.29 49.85
  L 32.97 57.39
  A 0.17 0.16 43.7 0 1 32.98 57.61
  Z"
/>
<path fill="#c4332c" d="
  M 63.76 55.45
  A 0.28 0.28 44.6 0 1 64.18 55.45
  L 69.74 61.92
  A 0.60 0.59 43.4 0 1 69.77 62.67
  L 64.31 69.84
  A 0.37 0.37 -46.5 0 1 63.73 69.84
  L 58.23 62.69
  A 0.62 0.59 46.8 0 1 58.24 61.94
  L 63.76 55.45
  Z"
/>
<path fill="#c4332c" d="
  M 42.23 72.83
  C 43.64 70.73 45.89 68.14 47.64 66.29
  A 0.46 0.46 47.0 0 1 48.32 66.32
  L 53.76 72.80
  A 0.63 0.57 -46.1 0 1 53.74 73.56
  L 48.28 80.39
  A 0.37 0.37 -90.0 0 1 47.70 80.39
  L 42.30 73.62
  A 0.72 0.63 44.0 0 1 42.23 72.83
  Z"
/>
<path fill="#c4332c" d="
  M 79.70 66.09
  A 0.29 0.28 -44.4 0 1 80.13 66.09
  L 85.75 72.65
  A 0.59 0.59 43.8 0 1 85.77 73.40
  L 80.28 80.39
  A 0.37 0.37 -45.7 0 1 79.70 80.39
  L 74.24 73.42
  A 0.60 0.60 -43.8 0 1 74.26 72.67
  L 79.70 66.09
  Z"
/>
<path fill="#c4332c" d="
  M 42.24 94.41
  C 44.32 92.29 45.78 89.88 47.69 87.61
  A 0.40 0.38 45.6 0 1 48.30 87.63
  L 53.74 94.43
  A 0.61 0.57 45.6 0 1 53.76 95.18
  L 48.37 101.82
  A 0.41 0.39 44.7 0 1 47.75 101.81
  L 42.23 95.41
  A 0.75 0.72 46.5 0 1 42.24 94.41
  Z"
/>
<path fill="#c4332c" d="
  M 79.74 87.52
  A 0.34 0.34 -44.3 0 1 80.28 87.52
  L 85.76 94.58
  A 0.61 0.60 46.3 0 1 85.75 95.34
  L 80.44 101.79
  A 0.43 0.40 -46.0 0 1 79.81 101.82
  L 74.22 95.36
  A 0.60 0.59 -46.3 0 1 74.21 94.60
  L 79.74 87.52
  Z"
/>
<path fill="#c4332c" d="
  M 63.80 98.10
  A 0.29 0.29 46.1 0 1 64.27 98.11
  L 69.76 105.31
  A 0.60 0.60 46.7 0 1 69.74 106.07
  L 64.35 112.40
  A 0.41 0.40 -45.5 0 1 63.73 112.41
  L 58.27 106.10
  A 0.61 0.58 43.9 0 1 58.24 105.34
  L 63.80 98.10
  Z"
/>
<path fill="#c4332c" d="
  M 101.74 101.75
  A 0.35 0.35 -90.0 0 1 102.30 101.75
  L 108.69 109.88
  A 0.61 0.58 46.4 0 1 108.69 110.63
  L 102.33 118.15
  A 0.42 0.41 45.1 0 1 101.70 118.14
  L 95.27 110.84
  A 0.58 0.57 43.7 0 1 95.25 110.11
  L 101.74 101.75
  Z"
/>
<path fill="#c4332c" d="
  M 42.22 116.09
  C 43.80 113.74 45.92 111.08 47.77 108.92
  A 0.40 0.37 46.9 0 1 48.37 108.96
  L 53.77 115.87
  A 0.61 0.58 46.0 0 1 53.78 116.62
  L 48.35 123.14
  A 0.42 0.42 44.6 0 1 47.72 123.14
  L 42.29 116.86
  A 0.66 0.61 41.9 0 1 42.22 116.09
  Z"
/>
<path fill="#c4332c" d="
  M 79.85 108.83
  A 0.30 0.28 44.7 0 1 80.31 108.84
  L 85.78 115.87
  A 0.63 0.59 46.9 0 1 85.78 116.63
  L 80.33 123.15
  A 0.41 0.38 44.7 0 1 79.72 123.13
  L 74.27 116.84
  A 0.64 0.58 44.1 0 1 74.22 116.08
  L 79.85 108.83
  Z"
/>
<path fill="#c4332c" d="
  M 105.22 145.12
  A 5.83 5.83 0.0 0 1 99.39 150.95
  L 98.85 150.95
  A 5.83 5.83 0.0 0 1 93.02 145.12
  L 93.02 129.14
  A 5.83 5.83 0.0 0 1 98.85 123.31
  L 99.39 123.31
  A 5.83 5.83 0.0 0 1 105.22 129.14
  L 105.22 145.12
  Z
  M 101.49 129.06
  A 2.30 2.30 0.0 0 0 99.19 126.76
  L 99.05 126.76
  A 2.30 2.30 0.0 0 0 96.75 129.06
  L 96.75 145.18
  A 2.30 2.30 0.0 0 0 99.05 147.48
  L 99.19 147.48
  A 2.30 2.30 0.0 0 0 101.49 145.18
  L 101.49 129.06
  Z"
/>
<rect fill="#c4332c" x="107.50" y="123.73" width="3.74" height="27.00" rx="0.53"/>
<rect fill="#ffffff" x="96.75" y="126.76" width="4.74" height="20.72" rx="2.30"/>
</svg>
