<?xml version="1.0" encoding="UTF-8" standalone="no"?>
<svg xmlns="http://www.w3.org/2000/svg" version="1.2" baseProfile="tiny" viewBox="0 0 128 168">
<g stroke-width="0.00" fill="none" stroke-linecap="butt">
<path stroke="#d9d9d9" stroke-opacity="0.588" vector-effect="non-scaling-stroke" d="
  M 103.75 155.29
  C 111.62 155.42 114.48 150.73 114.49 143.45
  Q 114.53 83.81 114.50 24.18
  C 114.49 15.26 110.38 12.76 101.67 12.75
  Q 63.03 12.74 24.38 12.76
  C 15.96 12.77 13.50 17.43 13.50 25.45
  Q 13.49 84.17 13.50 142.88
  C 13.50 152.44 17.18 155.27 26.79 155.25
  Q 56.52 155.22 86.25 155.29"
/>
<path stroke="#a4a0a4" stroke-opacity="0.933" vector-effect="non-scaling-stroke" d="
  M 103.75 155.29
  L 86.25 155.29"
/>
<path stroke="#e29996" vector-effect="non-scaling-stroke" d="
  M 22.81 20.80
  L 30.98 20.74
  A 0.67 0.62 6.7 0 0 31.62 20.27
  Q 31.97 19.01 31.67 17.72
  A 0.67 0.63 -6.7 0 0 31.03 17.24
  L 19.26 17.25
  A 0.50 0.49 -0.0 0 0 18.76 17.74
  L 18.78 27.18
  A 1.35 1.17 -69.6 0 0 19.11 28.06
  Q 19.88 28.86 20.94 29.13
  A 0.89 0.78 -59.7 0 0 21.76 28.86
  C 25.00 25.46 29.00 26.98 30.62 30.86
  C 33.42 37.56 25.61 45.88 20.54 37.52
  A 0.92 0.77 69.9 0 0 19.78 37.08
  Q 18.58 37.16 17.58 37.92
  A 0.66 0.62 59.7 0 0 17.40 38.71
  C 24.00 52.43 40.90 39.21 32.29 27.11
  C 30.03 23.93 26.66 22.78 23.02 24.01
  A 0.48 0.40 -13.1 0 1 22.40 23.70
  L 22.23 21.30
  A 0.58 0.47 -1.9 0 1 22.81 20.80"
/>
<path stroke="#e29996" vector-effect="non-scaling-stroke" d="
  M 47.68 44.85
  C 46.07 46.76 43.44 49.33 42.18 51.55
  A 0.78 0.66 42.5 0 0 42.28 52.35
  L 47.70 59.10
  A 0.37 0.35 44.3 0 0 48.27 59.11
  L 53.75 51.91
  A 0.62 0.60 43.9 0 0 53.72 51.15
  L 48.31 44.87
  A 0.42 0.40 45.5 0 0 47.68 44.85"
/>
<path stroke="#e29996" vector-effect="non-scaling-stroke" d="
  M 79.79 44.76
  L 74.21 51.39
  A 0.62 0.58 46.8 0 0 74.21 52.15
  L 79.71 59.10
  A 0.37 0.37 0.0 0 0 80.29 59.10
  L 85.76 51.91
  A 0.61 0.59 43.0 0 0 85.72 51.16
  L 80.22 44.77
  A 0.29 0.28 45.1 0 0 79.79 44.76"
/>
<path stroke="#e29996" vector-effect="non-scaling-stroke" d="
  M 32.98 57.61
  A 0.17 0.16 43.7 0 0 32.97 57.39
  L 26.29 49.84
  A 0.43 0.40 44.3 0 0 25.66 49.83
  L 19.37 57.33
  A 0.60 0.59 46.3 0 0 19.36 58.09
  L 25.71 66.14
  A 0.38 0.37 44.6 0 0 26.30 66.14
  L 32.98 57.61"
/>
<path stroke="#e29996" vector-effect="non-scaling-stroke" d="
  M 62.78 76.76
  L 57.21 83.38
  A 0.61 0.59 45.9 0 0 57.21 84.14
  L 62.74 91.06
  A 0.38 0.37 -45.9 0 0 63.33 91.05
  L 68.74 83.90
  A 0.60 0.59 43.4 0 0 68.71 83.15
  L 63.21 76.76
  A 0.29 0.28 44.4 0 0 62.78 76.76"
/>
<path stroke="#e29996" vector-effect="non-scaling-stroke" d="
  M 101.74 101.75
  L 95.25 110.11
  A 0.58 0.57 43.7 0 0 95.27 110.84
  L 101.70 118.14
  A 0.42 0.41 45.1 0 0 102.33 118.15
  L 108.69 110.63
  A 0.61 0.58 46.4 0 0 108.69 109.88
  L 102.30 101.75
  A 0.35 0.35 90.0 0 0 101.74 101.75"
/>
<path stroke="#e29996" vector-effect="non-scaling-stroke" d="
  M 47.75 108.93
  C 45.89 111.13 43.87 113.73 42.22 116.09
  A 0.66 0.61 41.9 0 0 42.29 116.86
  L 47.72 123.14
  A 0.41 0.40 43.8 0 0 48.34 123.13
  L 53.78 116.62
  A 0.61 0.58 46.0 0 0 53.77 115.87
  L 48.36 108.97
  A 0.41 0.38 46.5 0 0 47.75 108.93"
/>
<path stroke="#e29996" vector-effect="non-scaling-stroke" d="
  M 79.83 108.85
  L 74.22 116.09
  A 0.63 0.56 44.5 0 0 74.27 116.84
  L 79.71 123.14
  A 0.42 0.40 44.7 0 0 80.33 123.15
  L 85.79 116.61
  A 0.61 0.58 46.0 0 0 85.78 115.86
  L 80.30 108.86
  A 0.31 0.29 45.1 0 0 79.83 108.85"
/>
<path stroke="#e29996" vector-effect="non-scaling-stroke" d="
  M 105.19 147.20
  L 97.02 147.26
  A 0.67 0.62 6.7 0 0 96.38 147.73
  Q 96.03 148.99 96.33 150.28
  A 0.67 0.63 -6.7 0 0 96.97 150.76
  L 108.74 150.75
  A 0.50 0.49 -0.0 0 0 109.24 150.26
  L 109.22 140.82
  A 1.42 1.14 -71.7 0 0 108.89 139.94
  Q 108.14 139.14 107.01 138.85
  A 0.91 0.78 -60.3 0 0 106.19 139.14
  C 100.44 145.60 92.49 134.73 100.03 127.64
  A 1.67 1.60 -70.3 0 1 100.89 127.21
  Q 105.56 126.49 107.63 130.71
  A 0.63 0.50 64.5 0 0 108.34 131.06
  L 110.40 130.09
  A 0.63 0.51 66.1 0 0 110.61 129.32
  C 108.23 123.84 102.03 121.60 97.05 125.54
  C 89.61 131.44 94.18 147.73 105.02 143.97
  A 0.46 0.39 -12.5 0 1 105.62 144.29
  L 105.76 146.69
  A 0.58 0.48 -2.0 0 1 105.19 147.20"
/>
</g>
<path fill="#010001" fill-opacity="0.090" d="
  M 110.80 159.46
  C 111.09 160.29 108.57 158.96 108.42 160.43
  A 0.60 0.46 -86.4 0 1 107.96 160.96
  L 104.91 161.02
  A 0.42 0.35 -0.1 0 0 104.50 161.36
  L 104.49 161.53
  A 0.30 0.24 83.0 0 1 104.34 161.78
  C 101.06 163.22 98.12 162.01 95.66 162.01
  Q 85.28 162.05 74.90 162.28
  C 69.73 162.40 62.99 161.56 56.31 162.00
  Q 49.43 162.45 25.01 161.73
  Q 24.55 161.72 24.07 161.44
  C 23.07 160.87 19.30 160.96 19.18 160.75
  A 0.49 0.35 -26.0 0 1 19.48 160.19
  Q 19.94 159.98 18.76 159.93
  A 0.95 0.79 73.3 0 1 18.06 159.47
  Q 17.38 158.30 15.70 158.70
  A 0.79 0.75 -25.5 0 1 14.91 158.44
  Q 13.68 156.92 11.95 156.19
  A 1.82 0.99 8.0 0 1 11.17 155.61
  L 9.21 152.69
  A 1.46 0.98 -65.9 0 1 9.05 151.77
  Q 9.27 150.13 8.53 149.89
  A 2.24 2.23 -80.8 0 1 7.01 147.77
  L 7.00 23.00
  Q 7.00 19.86 8.00 18.26
  Q 9.13 16.47 10.14 14.63
  C 11.44 12.27 13.41 11.32 15.19 9.36
  A 1.13 0.83 18.2 0 1 16.02 9.09
  Q 16.78 9.15 17.11 8.49
  A 0.72 0.69 -74.9 0 1 17.77 8.09
  Q 18.65 8.13 19.09 7.50
  A 1.23 0.86 -69.0 0 1 19.83 7.00
  C 22.48 6.69 25.17 5.96 27.75 5.94
  Q 66.49 5.59 105.24 5.80
  A 1.52 1.27 60.4 0 1 106.12 6.13
  Q 107.36 7.10 109.03 7.00
  A 1.76 0.92 -17.4 0 1 109.98 7.17
  L 111.39 8.00
  A 0.75 0.62 -70.4 0 1 111.67 8.77
  Q 111.37 10.21 112.42 9.68
  A 1.57 1.42 -29.3 0 1 114.38 10.13
  L 118.95 17.27
  Q 119.84 18.66 120.05 21.45
  C 120.45 26.82 120.05 32.56 120.26 37.50
  Q 120.64 46.47 120.33 55.44
  Q 120.17 59.98 120.57 65.67
  A 1.04 1.03 59.5 0 1 120.40 66.33
  Q 120.09 66.81 120.47 66.97
  A 0.73 0.49 17.1 0 1 120.90 67.50
  Q 120.91 77.44 120.87 87.39
  C 120.85 94.44 120.31 104.51 120.53 113.10
  Q 120.55 113.82 120.20 117.00
  C 120.02 118.56 120.46 120.89 120.48 122.32
  Q 120.63 131.29 120.95 140.22
  C 121.03 142.52 120.08 145.15 120.38 147.82
  A 1.57 0.94 69.4 0 1 120.21 148.75
  L 117.29 153.29
  Q 116.99 153.75 116.87 154.17
  Q 116.46 155.60 115.04 155.76
  A 1.22 1.06 12.4 0 0 114.25 156.19
  Q 112.93 157.94 110.98 158.88
  A 0.50 0.40 68.7 0 0 110.80 159.46
  Z
  M 10.97 146.02
  A 1.00 1.00 -58.4 0 1 11.16 146.83
  Q 10.39 150.48 13.73 152.79
  Q 14.37 153.24 16.50 155.54
  C 20.97 160.39 33.00 159.18 39.17 159.02
  C 45.91 158.84 52.72 159.21 59.51 158.99
  C 60.57 158.95 62.10 159.75 63.53 159.75
  Q 82.08 159.80 100.63 159.72
  C 102.86 159.71 104.92 158.79 107.26 158.57
  Q 107.78 158.52 108.18 158.25
  Q 110.77 156.49 113.30 154.60
  C 115.10 153.26 115.64 151.68 116.95 149.91
  A 1.78 1.70 -25.3 0 0 117.30 149.00
  C 117.56 146.20 118.01 143.43 118.01 140.65
  Q 118.01 82.82 117.97 25.01
  C 117.97 20.71 116.66 17.28 113.65 14.28
  C 111.33 11.95 110.33 9.86 106.41 10.21
  A 0.70 0.46 -13.1 0 1 105.83 10.00
  L 105.63 9.71
  A 1.02 0.67 66.6 0 0 104.93 9.25
  L 23.31 9.25
  Q 22.95 9.25 22.39 9.52
  L 20.98 10.18
  A 1.57 0.55 18.1 0 1 20.02 10.20
  Q 19.05 10.01 18.63 10.70
  A 1.72 1.36 -80.1 0 1 17.96 11.30
  L 15.17 12.57
  A 0.84 0.69 81.6 0 0 14.77 13.24
  L 14.74 13.69
  A 0.72 0.62 -6.7 0 1 14.21 14.27
  Q 12.68 14.67 12.40 16.20
  A 1.39 0.37 60.0 0 0 12.64 17.10
  Q 12.92 17.69 11.41 17.35
  A 0.19 0.19 -82.5 0 0 11.18 17.53
  L 11.03 21.62
  A 0.83 0.81 -15.2 0 1 10.65 22.27
  L 10.31 22.49
  A 0.92 0.90 -16.7 0 0 9.89 23.25
  Q 9.61 83.45 9.83 143.63
  C 9.84 144.76 10.34 145.19 10.97 146.02
  Z"
/>
<path fill="#010202" fill-opacity="0.176" d="
  M 10.97 146.02
  C 10.34 145.19 9.84 144.76 9.83 143.63
  Q 9.61 83.45 9.89 23.25
  A 0.92 0.90 -16.7 0 1 10.31 22.49
  L 10.65 22.27
  A 0.83 0.81 -15.2 0 0 11.03 21.62
  L 11.18 17.53
  A 0.19 0.19 -82.5 0 1 11.41 17.35
  Q 12.92 17.69 12.64 17.10
  A 1.39 0.37 60.0 0 1 12.40 16.20
  Q 12.68 14.67 14.21 14.27
  A 0.72 0.62 -6.7 0 0 14.74 13.69
  L 14.77 13.24
  A 0.84 0.69 81.6 0 1 15.17 12.57
  L 17.96 11.30
  A 1.72 1.36 -80.1 0 0 18.63 10.70
  Q 19.05 10.01 20.02 10.20
  A 1.57 0.55 18.1 0 0 20.98 10.18
  L 22.39 9.52
  Q 22.95 9.25 23.31 9.25
  L 104.93 9.25
  A 1.02 0.67 66.6 0 1 105.63 9.71
  L 105.83 10.00
  A 0.70 0.46 -13.1 0 0 106.41 10.21
  C 110.33 9.86 111.33 11.95 113.65 14.28
  C 116.66 17.28 117.97 20.71 117.97 25.01
  Q 118.01 82.82 118.01 140.65
  C 118.01 143.43 117.56 146.20 117.30 149.00
  A 1.78 1.70 -25.3 0 1 116.95 149.91
  C 115.64 151.68 115.10 153.26 113.30 154.60
  Q 110.77 156.49 108.18 158.25
  Q 107.78 158.52 107.26 158.57
  C 104.92 158.79 102.86 159.71 100.63 159.72
  Q 82.08 159.80 63.53 159.75
  C 62.10 159.75 60.57 158.95 59.51 158.99
  C 52.72 159.21 45.91 158.84 39.17 159.02
  C 33.00 159.18 20.97 160.39 16.50 155.54
  Q 14.37 153.24 13.73 152.79
  Q 10.39 150.48 11.16 146.83
  A 1.00 1.00 -58.4 0 0 10.97 146.02
  Z
  M 86.25 155.29
  Q 95.00 156.40 103.75 155.29
  C 111.62 155.42 114.48 150.73 114.49 143.45
  Q 114.53 83.81 114.50 24.18
  C 114.49 15.26 110.38 12.76 101.67 12.75
  Q 63.03 12.74 24.38 12.76
  C 15.96 12.77 13.50 17.43 13.50 25.45
  Q 13.49 84.17 13.50 142.88
  C 13.50 152.44 17.18 155.27 26.79 155.25
  Q 56.52 155.22 86.25 155.29
  Z
  M 115.01 117.67
  A 0.12 0.12 0.0 0 0 114.89 117.55
  L 114.87 117.55
  A 0.12 0.12 0.0 0 0 114.75 117.67
  L 114.75 145.09
  A 0.12 0.12 0.0 0 0 114.87 145.21
  L 114.89 145.21
  A 0.12 0.12 0.0 0 0 115.01 145.09
  L 115.01 117.67
  Z"
/>
<path fill="#ffffff" d="
  M 103.75 155.29
  L 86.25 155.29
  Q 56.52 155.22 26.79 155.25
  C 17.18 155.27 13.50 152.44 13.50 142.88
  Q 13.49 84.17 13.50 25.45
  C 13.50 17.43 15.96 12.77 24.38 12.76
  Q 63.03 12.74 101.67 12.75
  C 110.38 12.76 114.49 15.26 114.50 24.18
  Q 114.53 83.81 114.49 143.45
  C 114.48 150.73 111.62 155.42 103.75 155.29
  Z
  M 22.81 20.80
  L 30.98 20.74
  A 0.67 0.62 6.7 0 0 31.62 20.27
  Q 31.97 19.01 31.67 17.72
  A 0.67 0.63 -6.7 0 0 31.03 17.24
  L 19.26 17.25
  A 0.50 0.49 -0.0 0 0 18.76 17.74
  L 18.78 27.18
  A 1.35 1.17 -69.6 0 0 19.11 28.06
  Q 19.88 28.86 20.94 29.13
  A 0.89 0.78 -59.7 0 0 21.76 28.86
  C 25.00 25.46 29.00 26.98 30.62 30.86
  C 33.42 37.56 25.61 45.88 20.54 37.52
  A 0.92 0.77 69.9 0 0 19.78 37.08
  Q 18.58 37.16 17.58 37.92
  A 0.66 0.62 59.7 0 0 17.40 38.71
  C 24.00 52.43 40.90 39.21 32.29 27.11
  C 30.03 23.93 26.66 22.78 23.02 24.01
  A 0.48 0.40 -13.1 0 1 22.40 23.70
  L 22.23 21.30
  A 0.58 0.47 -1.9 0 1 22.81 20.80
  Z
  M 47.68 44.85
  C 46.07 46.76 43.44 49.33 42.18 51.55
  A 0.78 0.66 42.5 0 0 42.28 52.35
  L 47.70 59.10
  A 0.37 0.35 44.3 0 0 48.27 59.11
  L 53.75 51.91
  A 0.62 0.60 43.9 0 0 53.72 51.15
  L 48.31 44.87
  A 0.42 0.40 45.5 0 0 47.68 44.85
  Z
  M 79.79 44.76
  L 74.21 51.39
  A 0.62 0.58 46.8 0 0 74.21 52.15
  L 79.71 59.10
  A 0.37 0.37 0.0 0 0 80.29 59.10
  L 85.76 51.91
  A 0.61 0.59 43.0 0 0 85.72 51.16
  L 80.22 44.77
  A 0.29 0.28 45.1 0 0 79.79 44.76
  Z
  M 32.98 57.61
  A 0.17 0.16 43.7 0 0 32.97 57.39
  L 26.29 49.84
  A 0.43 0.40 44.3 0 0 25.66 49.83
  L 19.37 57.33
  A 0.60 0.59 46.3 0 0 19.36 58.09
  L 25.71 66.14
  A 0.38 0.37 44.6 0 0 26.30 66.14
  L 32.98 57.61
  Z
  M 62.78 76.76
  L 57.21 83.38
  A 0.61 0.59 45.9 0 0 57.21 84.14
  L 62.74 91.06
  A 0.38 0.37 -45.9 0 0 63.33 91.05
  L 68.74 83.90
  A 0.60 0.59 43.4 0 0 68.71 83.15
  L 63.21 76.76
  A 0.29 0.28 44.4 0 0 62.78 76.76
  Z
  M 101.74 101.75
  L 95.25 110.11
  A 0.58 0.57 43.7 0 0 95.27 110.84
  L 101.70 118.14
  A 0.42 0.41 45.1 0 0 102.33 118.15
  L 108.69 110.63
  A 0.61 0.58 46.4 0 0 108.69 109.88
  L 102.30 101.75
  A 0.35 0.35 90.0 0 0 101.74 101.75
  Z
  M 47.75 108.93
  C 45.89 111.13 43.87 113.73 42.22 116.09
  A 0.66 0.61 41.9 0 0 42.29 116.86
  L 47.72 123.14
  A 0.41 0.40 43.8 0 0 48.34 123.13
  L 53.78 116.62
  A 0.61 0.58 46.0 0 0 53.77 115.87
  L 48.36 108.97
  A 0.41 0.38 46.5 0 0 47.75 108.93
  Z
  M 79.83 108.85
  L 74.22 116.09
  A 0.63 0.56 44.5 0 0 74.27 116.84
  L 79.71 123.14
  A 0.42 0.40 44.7 0 0 80.33 123.15
  L 85.79 116.61
  A 0.61 0.58 46.0 0 0 85.78 115.86
  L 80.30 108.86
  A 0.31 0.29 45.1 0 0 79.83 108.85
  Z
  M 105.19 147.20
  L 97.02 147.26
  A 0.67 0.62 6.7 0 0 96.38 147.73
  Q 96.03 148.99 96.33 150.28
  A 0.67 0.63 -6.7 0 0 96.97 150.76
  L 108.74 150.75
  A 0.50 0.49 -0.0 0 0 109.24 150.26
  L 109.22 140.82
  A 1.42 1.14 -71.7 0 0 108.89 139.94
  Q 108.14 139.14 107.01 138.85
  A 0.91 0.78 -60.3 0 0 106.19 139.14
  C 100.44 145.60 92.49 134.73 100.03 127.64
  A 1.67 1.60 -70.3 0 1 100.89 127.21
  Q 105.56 126.49 107.63 130.71
  A 0.63 0.50 64.5 0 0 108.34 131.06
  L 110.40 130.09
  A 0.63 0.51 66.1 0 0 110.61 129.32
  C 108.23 123.84 102.03 121.60 97.05 125.54
  C 89.61 131.44 94.18 147.73 105.02 143.97
  A 0.46 0.39 -12.5 0 1 105.62 144.29
  L 105.76 146.69
  A 0.58 0.48 -2.0 0 1 105.19 147.20
  Z"
/>
<path fill="#c4332c" d="
  M 22.23 21.30
  L 22.40 23.70
  A 0.48 0.40 -13.1 0 0 23.02 24.01
  C 26.66 22.78 30.03 23.93 32.29 27.11
  C 40.90 39.21 24.00 52.43 17.40 38.71
  A 0.66 0.62 59.7 0 1 17.58 37.92
  Q 18.58 37.16 19.78 37.08
  A 0.92 0.77 69.9 0 1 20.54 37.52
  C 25.61 45.88 33.42 37.56 30.62 30.86
  C 29.00 26.98 25.00 25.46 21.76 28.86
  A 0.89 0.78 -59.7 0 1 20.94 29.13
  Q 19.88 28.86 19.11 28.06
  A 1.35 1.17 -69.6 0 1 18.78 27.18
  L 18.76 17.74
  A 0.50 0.49 -0.0 0 1 19.26 17.25
  L 31.03 17.24
  A 0.67 0.63 -6.7 0 1 31.67 17.72
  Q 31.97 19.01 31.62 20.27
  A 0.67 0.62 6.7 0 1 30.98 20.74
  L 22.81 20.80
  A 0.58 0.47 -1.9 0 0 22.23 21.30
  Z"
/>
<path fill="#c4332c" d="
  M 42.18 51.55
  C 43.44 49.33 46.07 46.76 47.68 44.85
  A 0.42 0.40 45.5 0 1 48.31 44.87
  L 53.72 51.15
  A 0.62 0.60 43.9 0 1 53.75 51.91
  L 48.27 59.11
  A 0.37 0.35 44.3 0 1 47.70 59.10
  L 42.28 52.35
  A 0.78 0.66 42.5 0 1 42.18 51.55
  Z"
/>
<path fill="#c4332c" d="
  M 79.79 44.76
  A 0.29 0.28 45.1 0 1 80.22 44.77
  L 85.72 51.16
  A 0.61 0.59 43.0 0 1 85.76 51.91
  L 80.29 59.10
  A 0.37 0.37 0.0 0 1 79.71 59.10
  L 74.21 52.15
  A 0.62 0.58 46.8 0 1 74.21 51.39
  L 79.79 44.76
  Z"
/>
<path fill="#c4332c" d="
  M 32.98 57.61
  L 26.30 66.14
  A 0.38 0.37 44.6 0 1 25.71 66.14
  L 19.36 58.09
  A 0.60 0.59 46.3 0 1 19.37 57.33
  L 25.66 49.83
  A 0.43 0.40 44.3 0 1 26.29 49.84
  L 32.97 57.39
  A 0.17 0.16 43.7 0 1 32.98 57.61
  Z"
/>
<path fill="#c4332c" d="
  M 62.78 76.76
  A 0.29 0.28 44.4 0 1 63.21 76.76
  L 68.71 83.15
  A 0.60 0.59 43.4 0 1 68.74 83.90
  L 63.33 91.05
  A 0.38 0.37 -45.9 0 1 62.74 91.06
  L 57.21 84.14
  A 0.61 0.59 45.9 0 1 57.21 83.38
  L 62.78 76.76
  Z"
/>
<path fill="#c4332c" d="
  M 101.74 101.75
  A 0.35 0.35 -90.0 0 1 102.30 101.75
  L 108.69 109.88
  A 0.61 0.58 46.4 0 1 108.69 110.63
  L 102.33 118.15
  A 0.42 0.41 45.1 0 1 101.70 118.14
  L 95.27 110.84
  A 0.58 0.57 43.7 0 1 95.25 110.11
  L 101.74 101.75
  Z"
/>
<path fill="#c4332c" d="
  M 42.22 116.09
  C 43.87 113.73 45.89 111.13 47.75 108.93
  A 0.41 0.38 46.5 0 1 48.36 108.97
  L 53.77 115.87
  A 0.61 0.58 46.0 0 1 53.78 116.62
  L 48.34 123.13
  A 0.41 0.40 43.8 0 1 47.72 123.14
  L 42.29 116.86
  A 0.66 0.61 41.9 0 1 42.22 116.09
  Z"
/>
<path fill="#c4332c" d="
  M 79.83 108.85
  A 0.31 0.29 45.1 0 1 80.30 108.86
  L 85.78 115.86
  A 0.61 0.58 46.0 0 1 85.79 116.61
  L 80.33 123.15
  A 0.42 0.40 44.7 0 1 79.71 123.14
  L 74.27 116.84
  A 0.63 0.56 44.5 0 1 74.22 116.09
  L 79.83 108.85
  Z"
/>
<path fill="#c4332c" d="
  M 105.76 146.69
  L 105.62 144.29
  A 0.46 0.39 -12.5 0 0 105.02 143.97
  C 94.18 147.73 89.61 131.44 97.05 125.54
  C 102.03 121.60 108.23 123.84 110.61 129.32
  A 0.63 0.51 66.1 0 1 110.40 130.09
  L 108.34 131.06
  A 0.63 0.50 64.5 0 1 107.63 130.71
  Q 105.56 126.49 100.89 127.21
  A 1.67 1.60 -70.3 0 0 100.03 127.64
  C 92.49 134.73 100.44 145.60 106.19 139.14
  A 0.91 0.78 -60.3 0 1 107.01 138.85
  Q 108.14 139.14 108.89 139.94
  A 1.42 1.14 -71.7 0 1 109.22 140.82
  L 109.24 150.26
  A 0.50 0.49 -0.0 0 1 108.74 150.75
  L 96.97 150.76
  A 0.67 0.63 -6.7 0 1 96.33 150.28
  Q 96.03 148.99 96.38 147.73
  A 0.67 0.62 6.7 0 1 97.02 147.26
  L 105.19 147.20
  A 0.58 0.48 -2.0 0 0 105.76 146.69
  Z"
/>
<path fill="#3b333c" fill-opacity="0.867" d="
  M 86.25 155.29
  L 103.75 155.29
  Q 95.00 156.40 86.25 155.29
  Z"
/>
</svg>
