<?xml version="1.0" encoding="UTF-8" standalone="no"?>
<svg xmlns="http://www.w3.org/2000/svg" version="1.2" baseProfile="tiny" viewBox="0 0 128 168">
<g stroke-width="0.00" fill="none" stroke-linecap="butt">
<path stroke="#e7e7e7" stroke-opacity="0.553" vector-effect="non-scaling-stroke" d="
  M 13.68 147.75
  Q 15.02 152.50 19.50 154.54"
/>
<path stroke="#e7e7e7" stroke-opacity="0.553" vector-effect="non-scaling-stroke" d="
  M 114.50 21.04
  Q 112.71 12.80 104.50 12.75
  Q 91.31 12.67 21.75 12.79"
/>
<path stroke="#cfcfcf" stroke-opacity="0.616" vector-effect="non-scaling-stroke" d="
  M 21.75 12.79
  Q 15.55 13.95 13.96 20.00"
/>
<path stroke="#d6d6d6" stroke-opacity="0.600" vector-effect="non-scaling-stroke" d="
  M 114.50 21.04
  Q 114.51 82.61 114.49 144.17
  C 114.49 152.04 110.58 155.23 102.69 155.24
  Q 62.59 155.27 22.50 155.24
  Q 21.60 155.24 19.50 154.54"
/>
<path stroke="#d6d6d6" stroke-opacity="0.600" vector-effect="non-scaling-stroke" d="
  M 13.68 147.75
  L 13.79 147.50"
/>
<path stroke="#f9fafa" stroke-opacity="0.988" vector-effect="non-scaling-stroke" d="
  M 13.79 147.50
  L 13.96 20.00"
/>
<path stroke="#e29996" vector-effect="non-scaling-stroke" d="
  M 30.65 35.31
  C 30.14 40.47 25.03 43.23 21.25 38.69
  A 0.82 0.76 62.2 0 0 20.45 38.41
  Q 16.42 39.40 19.98 42.28
  C 24.44 45.88 30.10 45.10 32.55 39.77
  Q 36.42 31.38 32.87 22.67
  C 27.41 9.30 10.19 23.09 19.73 33.56
  Q 23.74 37.96 30.24 35.02
  A 0.29 0.29 -9.5 0 1 30.65 35.31"
/>
<path stroke="#e29996" vector-effect="non-scaling-stroke" d="
  M 47.66 44.86
  C 45.87 46.80 43.69 49.38 42.20 51.55
  A 0.67 0.61 43.3 0 0 42.26 52.32
  L 47.69 59.10
  A 0.38 0.36 43.9 0 0 48.27 59.11
  L 53.76 51.92
  A 0.62 0.59 43.5 0 0 53.72 51.16
  L 48.30 44.89
  A 0.44 0.42 46.3 0 0 47.66 44.86"
/>
<path stroke="#e29996" vector-effect="non-scaling-stroke" d="
  M 79.78 44.76
  L 74.21 51.39
  A 0.60 0.57 46.4 0 0 74.21 52.14
  L 79.71 59.10
  A 0.37 0.37 0.0 0 0 80.29 59.10
  L 85.78 51.93
  A 0.60 0.58 43.0 0 0 85.74 51.18
  L 80.22 44.77
  A 0.29 0.29 45.7 0 0 79.78 44.76"
/>
<path stroke="#e29996" vector-effect="non-scaling-stroke" d="
  M 32.98 57.61
  A 0.17 0.16 43.7 0 0 32.97 57.39
  L 26.29 49.85
  A 0.42 0.40 44.7 0 0 25.67 49.84
  L 19.36 57.33
  A 0.61 0.59 45.9 0 0 19.36 58.09
  L 25.71 66.14
  A 0.38 0.37 44.6 0 0 26.30 66.14
  L 32.98 57.61"
/>
<path stroke="#e29996" vector-effect="non-scaling-stroke" d="
  M 63.76 55.45
  L 58.24 61.94
  A 0.62 0.59 46.8 0 0 58.23 62.69
  L 63.73 69.84
  A 0.37 0.37 -45.5 0 0 64.31 69.84
  L 69.77 62.67
  A 0.60 0.59 43.4 0 0 69.74 61.92
  L 64.18 55.45
  A 0.28 0.28 44.5 0 0 63.76 55.45"
/>
<path stroke="#e29996" vector-effect="non-scaling-stroke" d="
  M 47.62 66.18
  C 45.89 68.26 43.68 70.62 42.23 72.82
  A 0.71 0.64 43.0 0 0 42.30 73.61
  L 47.69 80.39
  A 0.38 0.36 44.7 0 0 48.27 80.40
  L 53.76 73.40
  A 0.58 0.58 -45.8 0 0 53.75 72.65
  L 48.25 66.18
  A 0.42 0.41 44.6 0 0 47.62 66.18"
/>
<path stroke="#e29996" vector-effect="non-scaling-stroke" d="
  M 79.70 66.11
  L 74.24 72.82
  A 0.61 0.58 45.6 0 0 74.25 73.56
  L 79.68 80.38
  A 0.39 0.36 44.8 0 0 80.27 80.40
  L 85.76 73.40
  A 0.58 0.58 -45.8 0 0 85.75 72.65
  L 80.15 66.11
  A 0.30 0.29 44.5 0 0 79.70 66.11"
/>
<path stroke="#e29996" vector-effect="non-scaling-stroke" d="
  M 47.70 87.58
  C 45.80 89.88 44.33 92.29 42.24 94.41
  A 0.75 0.72 46.5 0 0 42.23 95.41
  L 47.75 101.80
  A 0.40 0.40 0.0 0 0 48.37 101.80
  L 53.75 95.33
  A 0.60 0.59 45.9 0 0 53.76 94.58
  L 48.31 87.60
  A 0.40 0.39 46.3 0 0 47.70 87.58"
/>
<path stroke="#e29996" vector-effect="non-scaling-stroke" d="
  M 79.74 87.51
  L 74.22 94.60
  A 0.60 0.58 -46.8 0 0 74.23 95.35
  L 79.76 101.82
  A 0.41 0.40 -45.5 0 0 80.38 101.81
  L 85.77 95.18
  A 0.63 0.57 46.6 0 0 85.75 94.43
  L 80.35 87.52
  A 0.39 0.38 45.1 0 0 79.74 87.51"
/>
<path stroke="#e29996" vector-effect="non-scaling-stroke" d="
  M 101.75 101.74
  L 95.29 110.06
  A 0.58 0.57 -47.2 0 0 95.31 110.79
  L 101.71 118.14
  A 0.42 0.41 44.6 0 0 102.34 118.14
  L 108.69 110.63
  A 0.61 0.58 46.4 0 0 108.69 109.88
  L 102.29 101.75
  A 0.34 0.34 45.5 0 0 101.75 101.74"
/>
<path stroke="#e29996" vector-effect="non-scaling-stroke" d="
  M 47.75 108.93
  C 45.89 111.13 43.87 113.73 42.22 116.09
  A 0.66 0.61 41.9 0 0 42.29 116.86
  L 47.72 123.14
  A 0.41 0.40 43.8 0 0 48.34 123.13
  L 53.78 116.62
  A 0.61 0.58 46.0 0 0 53.77 115.87
  L 48.36 108.97
  A 0.41 0.38 46.5 0 0 47.75 108.93"
/>
<path stroke="#e29996" vector-effect="non-scaling-stroke" d="
  M 79.83 108.85
  L 74.22 116.09
  A 0.63 0.56 44.5 0 0 74.27 116.84
  L 79.72 123.13
  A 0.42 0.41 44.6 0 0 80.35 123.13
  L 85.79 116.61
  A 0.61 0.58 46.4 0 0 85.79 115.86
  L 80.33 108.87
  A 0.32 0.31 46.1 0 0 79.83 108.85"
/>
<path stroke="#e29996" vector-effect="non-scaling-stroke" d="
  M 97.43 132.46
  Q 99.76 123.42 106.94 129.34
  A 1.04 0.85 52.9 0 0 107.82 129.55
  Q 108.82 129.24 109.57 128.35
  A 0.67 0.64 47.6 0 0 109.59 127.55
  Q 105.49 121.80 99.32 124.26
  C 92.18 127.10 92.88 139.92 95.14 145.36
  C 100.54 158.42 117.31 145.29 108.63 134.88
  Q 104.61 130.06 97.77 132.75
  Q 97.31 132.93 97.43 132.46"
/>
<path stroke="#e29996" vector-effect="non-scaling-stroke" d="
  M 26.1787 32.7591
  A 5.96 5.07 85.2 0 0 30.7322 26.3958
  A 5.96 5.07 85.2 0 0 25.1813 20.8809
  A 5.96 5.07 85.2 0 0 20.6278 27.2442
  A 5.96 5.07 85.2 0 0 26.1787 32.7591"
/>
<path stroke="#e29996" vector-effect="non-scaling-stroke" d="
  M 102.8059 147.0901
  A 5.93 5.06 85.3 0 0 107.3630 140.7654
  A 5.93 5.06 85.3 0 0 101.8341 135.2699
  A 5.93 5.06 85.3 0 0 97.2770 141.5946
  A 5.93 5.06 85.3 0 0 102.8059 147.0901"
/>
</g>
<path fill="#010001" fill-opacity="0.106" d="
  M 78.38 162.33
  Q 78.54 163.09 77.96 162.26
  A 0.66 0.61 -16.7 0 0 77.41 161.99
  C 76.61 162.01 73.19 161.20 72.90 161.44
  A 0.95 0.46 -50.7 0 1 72.36 161.69
  L 25.00 161.75
  A 1.94 1.38 52.5 0 1 24.09 161.47
  C 23.02 160.83 19.33 160.98 19.20 160.78
  A 0.53 0.36 -28.9 0 1 19.51 160.17
  Q 19.92 159.96 18.70 159.96
  A 0.82 0.75 76.3 0 1 18.02 159.50
  Q 17.45 158.30 15.71 158.68
  A 0.88 0.77 -25.6 0 1 14.89 158.45
  L 10.52 153.68
  A 1.71 0.71 -89.0 0 1 10.18 152.82
  Q 10.07 152.14 9.46 151.90
  A 0.99 0.73 8.7 0 1 8.86 151.30
  C 8.07 148.02 7.01 144.87 7.01 141.48
  Q 6.99 84.77 7.01 28.06
  C 7.01 21.27 8.53 13.91 14.49 9.97
  Q 14.79 9.76 15.09 9.23
  Q 15.50 8.49 16.49 8.64
  A 0.68 0.63 -71.6 0 0 17.15 8.28
  Q 17.58 7.46 18.56 7.49
  A 0.83 0.69 13.4 0 0 19.25 7.15
  L 19.36 6.95
  A 0.41 0.41 -74.3 0 1 19.71 6.75
  C 21.91 6.83 23.88 6.02 25.87 6.02
  Q 65.53 6.00 105.19 6.02
  A 0.56 0.42 3.7 0 1 105.77 6.51
  L 105.71 6.83
  A 0.31 0.20 -82.3 0 0 105.88 7.18
  L 109.02 7.31
  A 0.99 0.94 72.5 0 1 109.76 7.72
  Q 110.25 8.40 111.25 8.32
  A 0.36 0.35 2.4 0 1 111.64 8.73
  Q 111.40 10.06 112.27 9.65
  A 1.64 1.64 -32.5 0 1 114.22 10.08
  Q 120.19 17.25 120.15 25.20
  C 120.13 29.07 120.48 32.16 120.48 34.69
  C 120.50 71.55 120.82 108.47 120.35 145.33
  C 120.32 147.90 119.10 149.47 118.64 152.05
  A 1.53 0.92 -24.6 0 1 118.12 152.81
  Q 117.58 153.25 117.02 154.24
  Q 115.73 156.51 112.80 157.63
  A 1.91 1.69 -78.0 0 0 112.03 158.20
  Q 111.15 159.33 109.77 159.67
  A 1.63 1.53 -75.2 0 0 108.97 160.17
  Q 107.91 161.38 106.32 160.57
  A 1.24 1.08 46.0 0 0 105.42 160.49
  C 98.73 162.77 90.66 162.57 83.47 161.84
  C 81.77 161.66 80.23 161.86 78.59 162.03
  A 0.25 0.24 80.5 0 0 78.38 162.33
  Z
  M 13.24 21.24
  L 12.19 19.80
  Q 11.55 18.91 11.53 20.07
  C 11.48 22.69 11.00 25.44 11.00 27.98
  Q 10.99 85.44 11.01 142.89
  C 11.01 144.85 11.99 146.93 11.77 149.26
  A 0.70 0.65 -77.0 0 0 12.17 149.96
  Q 13.72 150.59 12.52 149.12
  A 0.86 0.63 -57.3 0 1 12.47 148.32
  Q 12.70 147.78 12.32 147.32
  A 0.70 0.53 45.4 0 1 12.22 146.55
  Q 13.09 145.42 13.68 147.75
  Q 15.02 152.50 19.50 154.54
  Q 19.33 155.33 18.44 155.47
  Q 17.95 155.55 18.25 155.88
  Q 20.02 157.83 22.81 157.25
  A 0.80 0.72 64.7 0 1 23.56 157.56
  Q 24.10 158.29 24.75 158.28
  Q 57.63 158.14 90.50 158.31
  C 95.06 158.33 99.76 158.62 104.20 157.51
  Q 106.96 156.82 109.69 156.04
  Q 110.05 155.94 110.47 155.52
  L 112.13 153.83
  A 1.34 0.46 2.8 0 1 113.02 153.57
  Q 113.42 153.54 113.49 153.25
  A 1.19 0.54 -84.5 0 1 113.91 152.52
  Q 115.87 151.45 115.20 149.24
  A 0.43 0.35 -15.4 0 1 115.53 148.78
  L 116.64 148.50
  A 0.84 0.61 87.6 0 0 117.12 147.77
  Q 117.34 143.52 117.34 139.25
  Q 117.37 81.91 117.18 24.56
  Q 117.18 23.84 116.19 22.18
  A 1.31 1.11 -57.3 0 1 116.07 21.27
  Q 116.32 20.18 115.77 19.78
  Q 115.33 19.45 115.34 20.08
  Q 115.34 21.45 114.50 21.04
  Q 112.71 12.80 104.50 12.75
  Q 91.31 12.67 21.75 12.79
  Q 20.51 12.98 20.50 12.00
  A 0.56 0.49 -0.0 0 1 21.06 11.51
  L 107.41 11.51
  Q 109.93 11.51 107.45 11.07
  Q 104.66 10.57 100.50 10.56
  Q 63.41 10.50 26.30 10.50
  Q 20.03 10.50 17.45 11.97
  Q 12.73 14.66 13.24 21.24
  Z"
/>
<path fill="#000102" fill-opacity="0.231" d="
  M 21.75 12.79
  Q 15.55 13.95 13.96 20.00
  Q 13.50 21.34 13.50 21.75
  Q 13.53 83.62 13.46 145.50
  L 13.24 21.24
  Q 12.73 14.66 17.45 11.97
  Q 20.03 10.50 26.30 10.50
  Q 63.41 10.50 100.50 10.56
  Q 104.66 10.57 107.45 11.07
  Q 109.93 11.51 107.41 11.51
  L 21.06 11.51
  A 0.56 0.49 0.0 0 0 20.50 12.00
  Q 20.51 12.98 21.75 12.79
  Z"
/>
<path fill="#ffffff" d="
  M 21.75 12.79
  Q 91.31 12.67 104.50 12.75
  Q 112.71 12.80 114.50 21.04
  Q 114.51 82.61 114.49 144.17
  C 114.49 152.04 110.58 155.23 102.69 155.24
  Q 62.59 155.27 22.50 155.24
  Q 21.60 155.24 19.50 154.54
  Q 15.02 152.50 13.68 147.75
  L 13.79 147.50
  L 13.96 20.00
  Q 15.55 13.95 21.75 12.79
  Z
  M 30.65 35.31
  C 30.14 40.47 25.03 43.23 21.25 38.69
  A 0.82 0.76 62.2 0 0 20.45 38.41
  Q 16.42 39.40 19.98 42.28
  C 24.44 45.88 30.10 45.10 32.55 39.77
  Q 36.42 31.38 32.87 22.67
  C 27.41 9.30 10.19 23.09 19.73 33.56
  Q 23.74 37.96 30.24 35.02
  A 0.29 0.29 -9.5 0 1 30.65 35.31
  Z
  M 47.66 44.86
  C 45.87 46.80 43.69 49.38 42.20 51.55
  A 0.67 0.61 43.3 0 0 42.26 52.32
  L 47.69 59.10
  A 0.38 0.36 43.9 0 0 48.27 59.11
  L 53.76 51.92
  A 0.62 0.59 43.5 0 0 53.72 51.16
  L 48.30 44.89
  A 0.44 0.42 46.3 0 0 47.66 44.86
  Z
  M 79.78 44.76
  L 74.21 51.39
  A 0.60 0.57 46.4 0 0 74.21 52.14
  L 79.71 59.10
  A 0.37 0.37 0.0 0 0 80.29 59.10
  L 85.78 51.93
  A 0.60 0.58 43.0 0 0 85.74 51.18
  L 80.22 44.77
  A 0.29 0.29 45.7 0 0 79.78 44.76
  Z
  M 32.98 57.61
  A 0.17 0.16 43.7 0 0 32.97 57.39
  L 26.29 49.85
  A 0.42 0.40 44.7 0 0 25.67 49.84
  L 19.36 57.33
  A 0.61 0.59 45.9 0 0 19.36 58.09
  L 25.71 66.14
  A 0.38 0.37 44.6 0 0 26.30 66.14
  L 32.98 57.61
  Z
  M 63.76 55.45
  L 58.24 61.94
  A 0.62 0.59 46.8 0 0 58.23 62.69
  L 63.73 69.84
  A 0.37 0.37 -45.5 0 0 64.31 69.84
  L 69.77 62.67
  A 0.60 0.59 43.4 0 0 69.74 61.92
  L 64.18 55.45
  A 0.28 0.28 44.5 0 0 63.76 55.45
  Z
  M 47.62 66.18
  C 45.89 68.26 43.68 70.62 42.23 72.82
  A 0.71 0.64 43.0 0 0 42.30 73.61
  L 47.69 80.39
  A 0.38 0.36 44.7 0 0 48.27 80.40
  L 53.76 73.40
  A 0.58 0.58 -45.8 0 0 53.75 72.65
  L 48.25 66.18
  A 0.42 0.41 44.6 0 0 47.62 66.18
  Z
  M 79.70 66.11
  L 74.24 72.82
  A 0.61 0.58 45.6 0 0 74.25 73.56
  L 79.68 80.38
  A 0.39 0.36 44.8 0 0 80.27 80.40
  L 85.76 73.40
  A 0.58 0.58 -45.8 0 0 85.75 72.65
  L 80.15 66.11
  A 0.30 0.29 44.5 0 0 79.70 66.11
  Z
  M 47.70 87.58
  C 45.80 89.88 44.33 92.29 42.24 94.41
  A 0.75 0.72 46.5 0 0 42.23 95.41
  L 47.75 101.80
  A 0.40 0.40 0.0 0 0 48.37 101.80
  L 53.75 95.33
  A 0.60 0.59 45.9 0 0 53.76 94.58
  L 48.31 87.60
  A 0.40 0.39 46.3 0 0 47.70 87.58
  Z
  M 79.74 87.51
  L 74.22 94.60
  A 0.60 0.58 -46.8 0 0 74.23 95.35
  L 79.76 101.82
  A 0.41 0.40 -45.5 0 0 80.38 101.81
  L 85.77 95.18
  A 0.63 0.57 46.6 0 0 85.75 94.43
  L 80.35 87.52
  A 0.39 0.38 45.1 0 0 79.74 87.51
  Z
  M 101.75 101.74
  L 95.29 110.06
  A 0.58 0.57 -47.2 0 0 95.31 110.79
  L 101.71 118.14
  A 0.42 0.41 44.6 0 0 102.34 118.14
  L 108.69 110.63
  A 0.61 0.58 46.4 0 0 108.69 109.88
  L 102.29 101.75
  A 0.34 0.34 45.5 0 0 101.75 101.74
  Z
  M 47.75 108.93
  C 45.89 111.13 43.87 113.73 42.22 116.09
  A 0.66 0.61 41.9 0 0 42.29 116.86
  L 47.72 123.14
  A 0.41 0.40 43.8 0 0 48.34 123.13
  L 53.78 116.62
  A 0.61 0.58 46.0 0 0 53.77 115.87
  L 48.36 108.97
  A 0.41 0.38 46.5 0 0 47.75 108.93
  Z
  M 79.83 108.85
  L 74.22 116.09
  A 0.63 0.56 44.5 0 0 74.27 116.84
  L 79.72 123.13
  A 0.42 0.41 44.6 0 0 80.35 123.13
  L 85.79 116.61
  A 0.61 0.58 46.4 0 0 85.79 115.86
  L 80.33 108.87
  A 0.32 0.31 46.1 0 0 79.83 108.85
  Z
  M 97.43 132.46
  Q 99.76 123.42 106.94 129.34
  A 1.04 0.85 52.9 0 0 107.82 129.55
  Q 108.82 129.24 109.57 128.35
  A 0.67 0.64 47.6 0 0 109.59 127.55
  Q 105.49 121.80 99.32 124.26
  C 92.18 127.10 92.88 139.92 95.14 145.36
  C 100.54 158.42 117.31 145.29 108.63 134.88
  Q 104.61 130.06 97.77 132.75
  Q 97.31 132.93 97.43 132.46
  Z"
/>
<path fill="#c4332c" d="
  M 30.24 35.02
  Q 23.74 37.96 19.73 33.56
  C 10.19 23.09 27.41 9.30 32.87 22.67
  Q 36.42 31.38 32.55 39.77
  C 30.10 45.10 24.44 45.88 19.98 42.28
  Q 16.42 39.40 20.45 38.41
  A 0.82 0.76 62.2 0 1 21.25 38.69
  C 25.03 43.23 30.14 40.47 30.65 35.31
  A 0.29 0.29 -9.5 0 0 30.24 35.02
  Z
  M 26.1787 32.7591
  A 5.96 5.07 85.2 0 0 30.7322 26.3958
  A 5.96 5.07 85.2 0 0 25.1813 20.8809
  A 5.96 5.07 85.2 0 0 20.6278 27.2442
  A 5.96 5.07 85.2 0 0 26.1787 32.7591
  Z"
/>
<path fill="#020302" fill-opacity="0.196" d="
  M 13.24 21.24
  L 13.46 145.50
  L 13.79 147.50
  L 13.68 147.75
  Q 13.09 145.42 12.22 146.55
  A 0.70 0.53 45.4 0 0 12.32 147.32
  Q 12.70 147.78 12.47 148.32
  A 0.86 0.63 -57.3 0 0 12.52 149.12
  Q 13.72 150.59 12.17 149.96
  A 0.70 0.65 -77.0 0 1 11.77 149.26
  C 11.99 146.93 11.01 144.85 11.01 142.89
  Q 10.99 85.44 11.00 27.98
  C 11.00 25.44 11.48 22.69 11.53 20.07
  Q 11.55 18.91 12.19 19.80
  L 13.24 21.24
  Z"
/>
<path fill="#020302" fill-opacity="0.196" d="
  M 19.50 154.54
  Q 21.60 155.24 22.50 155.24
  Q 62.59 155.27 102.69 155.24
  C 110.58 155.23 114.49 152.04 114.49 144.17
  Q 114.51 82.61 114.50 21.04
  Q 115.34 21.45 115.34 20.08
  Q 115.33 19.45 115.77 19.78
  Q 116.32 20.18 116.07 21.27
  A 1.31 1.11 -57.3 0 0 116.19 22.18
  Q 117.18 23.84 117.18 24.56
  Q 117.37 81.91 117.34 139.25
  Q 117.34 143.52 117.12 147.77
  A 0.84 0.61 87.6 0 1 116.64 148.50
  L 115.53 148.78
  A 0.43 0.35 -15.4 0 0 115.20 149.24
  Q 115.87 151.45 113.91 152.52
  A 1.19 0.54 -84.5 0 0 113.49 153.25
  Q 113.42 153.54 113.02 153.57
  A 1.34 0.46 2.8 0 0 112.13 153.83
  L 110.47 155.52
  Q 110.05 155.94 109.69 156.04
  Q 106.96 156.82 104.20 157.51
  C 99.76 158.62 95.06 158.33 90.50 158.31
  Q 57.63 158.14 24.75 158.28
  Q 24.10 158.29 23.56 157.56
  A 0.80 0.72 64.7 0 0 22.81 157.25
  Q 20.02 157.83 18.25 155.88
  Q 17.95 155.55 18.44 155.47
  Q 19.33 155.33 19.50 154.54
  Z
  M 115.01 41.67
  A 0.12 0.12 0.0 0 0 114.89 41.55
  L 114.87 41.55
  A 0.12 0.12 0.0 0 0 114.75 41.67
  L 114.75 96.09
  A 0.12 0.12 0.0 0 0 114.87 96.21
  L 114.89 96.21
  A 0.12 0.12 0.0 0 0 115.01 96.09
  L 115.01 41.67
  Z
  M 114.81 124.69
  Q 114.81 161.62 115.00 124.82
  A 0.17 0.17 22.8 0 0 114.95 124.70
  L 114.91 124.66
  Q 114.81 124.56 114.81 124.69
  Z"
/>
<path fill="#f2f4f5" fill-opacity="0.973" d="
  M 13.96 20.00
  L 13.79 147.50
  L 13.46 145.50
  Q 13.53 83.62 13.50 21.75
  Q 13.50 21.34 13.96 20.00
  Z"
/>
<ellipse fill="#ffffff" cx="0.00" cy="0.00" transform="translate(25.68,26.82) rotate(85.2)" rx="5.96" ry="5.07"/>
<rect fill="#010001" fill-opacity="0.106" x="114.75" y="41.55" width="0.26" height="54.66" rx="0.12"/>
<path fill="#c4332c" d="
  M 42.20 51.55
  C 43.69 49.38 45.87 46.80 47.66 44.86
  A 0.44 0.42 46.3 0 1 48.30 44.89
  L 53.72 51.16
  A 0.62 0.59 43.5 0 1 53.76 51.92
  L 48.27 59.11
  A 0.38 0.36 43.9 0 1 47.69 59.10
  L 42.26 52.32
  A 0.67 0.61 43.3 0 1 42.20 51.55
  Z"
/>
<path fill="#c4332c" d="
  M 79.78 44.76
  A 0.29 0.29 45.7 0 1 80.22 44.77
  L 85.74 51.18
  A 0.60 0.58 43.0 0 1 85.78 51.93
  L 80.29 59.10
  A 0.37 0.37 0.0 0 1 79.71 59.10
  L 74.21 52.14
  A 0.60 0.57 46.4 0 1 74.21 51.39
  L 79.78 44.76
  Z"
/>
<path fill="#c4332c" d="
  M 32.98 57.61
  L 26.30 66.14
  A 0.38 0.37 44.6 0 1 25.71 66.14
  L 19.36 58.09
  A 0.61 0.59 45.9 0 1 19.36 57.33
  L 25.67 49.84
  A 0.42 0.40 44.7 0 1 26.29 49.85
  L 32.97 57.39
  A 0.17 0.16 43.7 0 1 32.98 57.61
  Z"
/>
<path fill="#c4332c" d="
  M 63.76 55.45
  A 0.28 0.28 44.6 0 1 64.18 55.45
  L 69.74 61.92
  A 0.60 0.59 43.4 0 1 69.77 62.67
  L 64.31 69.84
  A 0.37 0.37 -46.5 0 1 63.73 69.84
  L 58.23 62.69
  A 0.62 0.59 46.8 0 1 58.24 61.94
  L 63.76 55.45
  Z"
/>
<path fill="#c4332c" d="
  M 42.23 72.82
  C 43.68 70.62 45.89 68.26 47.62 66.18
  A 0.42 0.41 44.6 0 1 48.25 66.18
  L 53.75 72.65
  A 0.58 0.58 -45.8 0 1 53.76 73.40
  L 48.27 80.40
  A 0.38 0.36 44.7 0 1 47.69 80.39
  L 42.30 73.61
  A 0.71 0.64 43.0 0 1 42.23 72.82
  Z"
/>
<path fill="#c4332c" d="
  M 79.70 66.11
  A 0.30 0.29 44.5 0 1 80.15 66.11
  L 85.75 72.65
  A 0.58 0.58 -45.8 0 1 85.76 73.40
  L 80.27 80.40
  A 0.39 0.36 44.8 0 1 79.68 80.38
  L 74.25 73.56
  A 0.61 0.58 45.6 0 1 74.24 72.82
  L 79.70 66.11
  Z"
/>
<path fill="#c4332c" d="
  M 42.24 94.41
  C 44.33 92.29 45.80 89.88 47.70 87.58
  A 0.40 0.39 46.3 0 1 48.31 87.60
  L 53.76 94.58
  A 0.60 0.59 45.9 0 1 53.75 95.33
  L 48.37 101.80
  A 0.40 0.40 47.8 0 1 47.75 101.80
  L 42.23 95.41
  A 0.75 0.72 46.5 0 1 42.24 94.41
  Z"
/>
<path fill="#c4332c" d="
  M 79.74 87.51
  A 0.39 0.38 45.1 0 1 80.35 87.52
  L 85.75 94.43
  A 0.63 0.57 46.6 0 1 85.77 95.18
  L 80.38 101.81
  A 0.41 0.40 -45.5 0 1 79.76 101.82
  L 74.23 95.35
  A 0.60 0.58 -46.8 0 1 74.22 94.60
  L 79.74 87.51
  Z"
/>
<path fill="#c4332c" d="
  M 101.75 101.74
  A 0.34 0.34 45.5 0 1 102.29 101.75
  L 108.69 109.88
  A 0.61 0.58 46.4 0 1 108.69 110.63
  L 102.34 118.14
  A 0.42 0.41 44.6 0 1 101.71 118.14
  L 95.31 110.79
  A 0.58 0.57 -47.2 0 1 95.29 110.06
  L 101.75 101.74
  Z"
/>
<path fill="#c4332c" d="
  M 42.22 116.09
  C 43.87 113.73 45.89 111.13 47.75 108.93
  A 0.41 0.38 46.5 0 1 48.36 108.97
  L 53.77 115.87
  A 0.61 0.58 46.0 0 1 53.78 116.62
  L 48.34 123.13
  A 0.41 0.40 43.8 0 1 47.72 123.14
  L 42.29 116.86
  A 0.66 0.61 41.9 0 1 42.22 116.09
  Z"
/>
<path fill="#c4332c" d="
  M 79.83 108.85
  A 0.32 0.31 46.1 0 1 80.33 108.87
  L 85.79 115.86
  A 0.61 0.58 46.4 0 1 85.79 116.61
  L 80.35 123.13
  A 0.42 0.41 44.6 0 1 79.72 123.13
  L 74.27 116.84
  A 0.63 0.56 44.5 0 1 74.22 116.09
  L 79.83 108.85
  Z"
/>
<path fill="#c4332c" d="
  M 97.77 132.75
  Q 104.61 130.06 108.63 134.88
  C 117.31 145.29 100.54 158.42 95.14 145.36
  C 92.88 139.92 92.18 127.10 99.32 124.26
  Q 105.49 121.80 109.59 127.55
  A 0.67 0.64 47.6 0 1 109.57 128.35
  Q 108.82 129.24 107.82 129.55
  A 1.04 0.85 52.9 0 1 106.94 129.34
  Q 99.76 123.42 97.43 132.46
  Q 97.31 132.93 97.77 132.75
  Z
  M 102.8059 147.0901
  A 5.93 5.06 85.3 0 0 107.3630 140.7654
  A 5.93 5.06 85.3 0 0 101.8341 135.2699
  A 5.93 5.06 85.3 0 0 97.2770 141.5946
  A 5.93 5.06 85.3 0 0 102.8059 147.0901
  Z"
/>
<path fill="#010001" fill-opacity="0.106" d="
  M 114.91 124.66
  L 114.95 124.70
  A 0.17 0.17 22.8 0 1 115.00 124.82
  Q 114.81 161.62 114.81 124.69
  Q 114.81 124.56 114.91 124.66
  Z"
/>
<ellipse fill="#ffffff" cx="0.00" cy="0.00" transform="translate(102.32,141.18) rotate(85.3)" rx="5.93" ry="5.06"/>
</svg>
