<?xml version="1.0" encoding="UTF-8" standalone="no"?>
<svg xmlns="http://www.w3.org/2000/svg" version="1.2" baseProfile="tiny" viewBox="0 0 128 168">
<g stroke-width="0.00" fill="none" stroke-linecap="butt">
<path stroke="#e0e0e0" stroke-opacity="0.569" vector-effect="non-scaling-stroke" d="
  M 17.00 152.96
  Q 19.77 155.23 22.06 155.23
  Q 62.84 155.28 103.62 155.23
  C 112.09 155.23 114.49 150.63 114.49 142.55
  Q 114.51 83.24 114.49 23.94
  C 114.49 15.18 110.18 12.76 101.72 12.76
  Q 63.14 12.73 24.58 12.77
  Q 20.70 12.77 18.74 13.81
  Q 16.15 15.19 14.16 17.98"
/>
<path stroke="#f9fafa" stroke-opacity="0.988" vector-effect="non-scaling-stroke" d="
  M 17.00 152.96
  Q 14.00 148.78 14.00 147.25
  Q 13.88 82.63 14.16 17.98"
/>
<path stroke="#e29996" vector-effect="non-scaling-stroke" d="
  M 34.98 22.88
  A 5.83 5.83 0.0 0 0 29.15 17.05
  L 28.61 17.05
  A 5.83 5.83 0.0 0 0 22.78 22.88
  L 22.78 38.86
  A 5.83 5.83 0.0 0 0 28.61 44.69
  L 29.15 44.69
  A 5.83 5.83 0.0 0 0 34.98 38.86
  L 34.98 22.88"
/>
<path stroke="#e29996" vector-effect="non-scaling-stroke" d="
  M 20.50 17.80
  A 0.53 0.53 0.0 0 0 19.97 17.27
  L 17.29 17.27
  A 0.53 0.53 0.0 0 0 16.76 17.80
  L 16.76 43.74
  A 0.53 0.53 0.0 0 0 17.29 44.27
  L 19.97 44.27
  A 0.53 0.53 0.0 0 0 20.50 43.74
  L 20.50 17.80"
/>
<path stroke="#e29996" vector-effect="non-scaling-stroke" d="
  M 48.22 46.59
  Q 47.16 46.82 46.64 45.67
  A 0.92 0.76 76.8 0 0 45.95 45.15
  C 36.93 44.57 45.86 56.55 47.63 58.67
  A 0.41 0.41 -45.8 0 0 48.26 58.66
  C 50.91 55.34 57.33 46.78 51.79 45.02
  Q 49.98 44.44 48.94 46.00
  A 1.38 0.73 -67.3 0 1 48.22 46.59"
/>
<path stroke="#e29996" vector-effect="non-scaling-stroke" d="
  M 85.36 46.20
  C 82.57 42.09 80.12 49.04 78.61 45.60
  A 0.78 0.68 76.0 0 0 77.94 45.13
  C 69.43 45.33 77.02 55.54 79.63 58.67
  A 0.41 0.37 42.7 0 0 80.26 58.67
  L 85.54 50.52
  Q 86.88 48.45 85.36 46.20"
/>
<path stroke="#e29996" vector-effect="non-scaling-stroke" d="
  M 25.53 52.03
  Q 22.69 48.03 19.92 51.43
  Q 18.38 53.30 19.35 55.53
  Q 21.73 61.03 25.59 65.61
  A 0.42 0.41 -45.4 0 0 26.23 65.60
  C 29.21 61.95 37.11 51.93 29.72 49.82
  A 1.10 0.81 29.0 0 0 28.82 49.94
  L 26.15 52.08
  A 0.45 0.40 -37.5 0 1 25.53 52.03"
/>
<path stroke="#e29996" vector-effect="non-scaling-stroke" d="
  M 63.55 57.42
  Q 61.89 54.96 59.85 56.04
  C 54.82 58.68 62.02 67.33 63.62 69.35
  A 0.38 0.38 42.7 0 0 64.24 69.33
  L 69.52 61.30
  Q 70.62 59.64 69.74 57.62
  Q 67.81 53.17 64.19 57.46
  A 0.40 0.40 48.1 0 1 63.55 57.42"
/>
<path stroke="#e29996" vector-effect="non-scaling-stroke" d="
  M 47.57 68.02
  C 45.01 64.14 40.62 67.90 42.43 71.84
  Q 44.23 75.76 47.60 80.09
  A 0.38 0.36 42.5 0 0 48.20 80.08
  L 53.59 71.81
  Q 55.10 69.51 53.15 67.29
  Q 50.72 64.51 48.10 68.03
  A 0.32 0.32 -43.3 0 1 47.57 68.02"
/>
<path stroke="#e29996" vector-effect="non-scaling-stroke" d="
  M 79.54 68.01
  Q 77.73 65.34 75.38 66.92
  Q 73.07 68.47 74.14 71.03
  Q 76.16 75.90 79.61 79.96
  A 0.43 0.42 -46.2 0 0 80.26 79.94
  C 83.08 76.38 90.01 67.25 82.76 66.21
  A 1.10 1.06 -61.8 0 0 81.88 66.49
  L 80.17 68.09
  A 0.43 0.42 51.4 0 1 79.54 68.01"
/>
<path stroke="#e29996" vector-effect="non-scaling-stroke" d="
  M 48.51 99.94
  C 50.51 103.59 55.10 100.48 53.89 96.90
  Q 52.63 93.19 48.38 87.91
  A 0.39 0.37 42.5 0 0 47.76 87.92
  L 42.45 96.11
  Q 41.03 98.30 42.74 100.59
  Q 45.02 103.63 47.68 99.90
  A 0.49 0.49 -42.1 0 1 48.51 99.94"
/>
<path stroke="#e29996" vector-effect="non-scaling-stroke" d="
  M 76.46 101.68
  A 1.84 1.84 27.1 0 0 78.79 100.93
  Q 80.09 98.74 81.15 100.81
  Q 82.00 102.47 83.78 101.53
  C 88.99 98.79 83.08 91.39 80.45 87.93
  A 0.40 0.39 -44.3 0 0 79.83 87.93
  C 76.91 91.59 70.81 99.20 76.46 101.68"
/>
<path stroke="#e29996" vector-effect="non-scaling-stroke" d="
  M 59.69 112.06
  Q 61.77 113.57 62.73 111.75
  Q 63.95 109.44 65.07 111.39
  A 1.13 0.91 75.5 0 0 65.79 111.93
  C 74.75 113.31 67.00 101.87 64.47 98.64
  A 0.41 0.41 45.8 0 0 63.84 98.63
  C 61.15 102.00 55.36 108.92 59.69 112.06"
/>
<path stroke="#e29996" vector-effect="non-scaling-stroke" d="
  M 95.46 112.47
  C 93.73 116.83 99.06 120.71 101.51 116.04
  A 0.59 0.59 40.5 0 1 102.52 115.96
  Q 104.81 119.10 107.22 117.37
  C 111.79 114.06 104.94 105.54 102.51 102.34
  A 0.41 0.40 -43.5 0 0 101.88 102.33
  Q 97.39 107.61 95.46 112.47"
/>
<path stroke="#e29996" vector-effect="non-scaling-stroke" d="
  M 48.75 121.70
  Q 51.05 124.36 53.09 122.03
  Q 55.03 119.82 53.66 117.60
  L 48.59 109.40
  A 0.57 0.53 -42.5 0 0 47.69 109.39
  C 45.86 111.76 37.30 122.55 45.46 123.05
  A 1.12 0.91 -63.0 0 0 46.27 122.69
  Q 47.04 121.87 47.96 121.48
  A 0.73 0.65 57.0 0 1 48.75 121.70"
/>
<path stroke="#e29996" vector-effect="non-scaling-stroke" d="
  M 74.54 117.72
  C 72.48 121.94 77.14 125.15 79.70 121.51
  A 0.48 0.45 35.2 0 1 80.36 121.42
  L 82.16 122.75
  A 1.18 1.09 -31.7 0 0 83.07 122.93
  C 89.96 121.47 82.63 112.04 80.61 109.53
  A 0.67 0.66 -45.5 0 0 79.56 109.54
  Q 76.63 113.41 74.54 117.72"
/>
<path stroke="#e29996" vector-effect="non-scaling-stroke" d="
  M 105.22 129.14
  A 5.83 5.83 0.0 0 0 99.39 123.31
  L 98.85 123.31
  A 5.83 5.83 0.0 0 0 93.02 129.14
  L 93.02 145.12
  A 5.83 5.83 0.0 0 0 98.85 150.95
  L 99.39 150.95
  A 5.83 5.83 0.0 0 0 105.22 145.12
  L 105.22 129.14"
/>
<path stroke="#e29996" vector-effect="non-scaling-stroke" d="
  M 111.24 124.26
  A 0.53 0.53 0.0 0 0 110.71 123.73
  L 108.03 123.73
  A 0.53 0.53 0.0 0 0 107.50 124.26
  L 107.50 150.20
  A 0.53 0.53 0.0 0 0 108.03 150.73
  L 110.71 150.73
  A 0.53 0.53 0.0 0 0 111.24 150.20
  L 111.24 124.26"
/>
<path stroke="#e29996" vector-effect="non-scaling-stroke" d="
  M 31.2260 22.8259
  A 2.31 2.31 0.0 0 0 28.9119 20.5199
  L 28.7919 20.5201
  A 2.31 2.31 0.0 0 0 26.4860 22.8341
  L 26.5140 38.9141
  A 2.31 2.31 0.0 0 0 28.8281 41.2201
  L 28.9481 41.2199
  A 2.31 2.31 0.0 0 0 31.2540 38.9059
  L 31.2260 22.8259"
/>
<path stroke="#e29996" vector-effect="non-scaling-stroke" d="
  M 101.50 129.07
  A 2.30 2.30 0.0 0 0 99.20 126.77
  L 99.06 126.77
  A 2.30 2.30 0.0 0 0 96.76 129.07
  L 96.76 145.17
  A 2.30 2.30 0.0 0 0 99.06 147.47
  L 99.20 147.47
  A 2.30 2.30 0.0 0 0 101.50 145.17
  L 101.50 129.07"
/>
</g>
<path fill="#000001" fill-opacity="0.137" d="
  M 112.31 9.65
  Q 115.00 9.59 115.82 12.52
  C 116.56 15.16 118.40 16.53 118.87 19.00
  Q 119.47 22.17 119.76 27.55
  Q 119.94 31.03 119.46 32.85
  A 0.94 0.69 35.0 0 0 119.72 33.62
  Q 120.11 34.03 119.83 34.64
  Q 119.56 35.20 119.56 35.57
  Q 119.47 65.78 119.57 95.98
  C 119.62 112.01 119.01 128.32 119.84 144.32
  Q 119.99 147.13 119.56 148.24
  Q 119.34 148.81 118.92 149.11
  A 0.82 0.67 -24.0 0 0 118.56 149.82
  Q 118.87 152.11 116.91 153.21
  A 0.73 0.67 73.0 0 0 116.57 153.92
  Q 116.67 154.65 116.05 154.78
  A 0.75 0.64 -1.6 0 0 115.49 155.29
  Q 115.18 156.86 113.54 156.85
  A 0.95 0.86 15.6 0 0 112.78 157.23
  C 111.18 159.59 109.04 160.83 106.01 160.87
  Q 86.66 161.09 67.31 160.55
  A 0.73 0.56 -75.9 0 0 66.72 161.02
  Q 66.55 161.44 66.11 161.08
  A 1.57 0.99 54.4 0 0 65.25 160.73
  L 20.56 160.68
  A 0.84 0.61 73.4 0 1 19.93 160.20
  Q 19.62 159.56 18.72 159.66
  A 0.81 0.81 69.7 0 1 17.99 159.32
  Q 17.33 158.38 15.93 158.69
  A 1.08 0.94 -28.8 0 1 15.06 158.50
  C 8.50 152.95 7.02 147.17 7.02 138.14
  Q 6.98 82.82 7.01 27.50
  Q 7.01 20.88 9.31 15.37
  C 10.18 13.28 12.03 12.23 13.24 10.16
  A 1.16 1.11 -80.7 0 1 13.96 9.62
  Q 17.13 8.88 19.73 6.99
  Q 21.06 6.02 23.56 6.02
  L 105.19 6.02
  A 0.56 0.42 3.0 0 1 105.76 6.50
  L 105.71 6.87
  A 0.31 0.23 -82.8 0 0 105.91 7.22
  L 108.79 7.42
  A 0.86 0.73 77.9 0 1 109.45 7.93
  L 109.61 8.33
  A 0.49 0.41 -20.9 0 0 110.19 8.53
  Q 110.73 8.35 110.75 8.82
  Q 110.76 9.12 110.94 8.89
  Q 111.69 7.91 111.80 9.19
  A 0.50 0.50 87.0 0 0 112.31 9.65
  Z
  M 14.16 17.98
  Q 14.26 19.39 13.71 21.00
  Q 12.40 21.05 12.03 20.31
  Q 11.86 19.98 11.80 20.32
  C 11.49 21.96 11.00 23.61 11.00 25.25
  Q 10.99 84.10 11.01 142.95
  A 0.60 0.55 5.6 0 0 11.50 143.50
  Q 13.08 143.81 12.82 145.48
  A 0.75 0.58 25.1 0 0 13.15 146.12
  Q 13.37 146.27 13.46 146.50
  Q 14.09 150.40 17.00 152.96
  Q 19.77 155.23 22.06 155.23
  Q 62.84 155.28 103.62 155.23
  C 112.09 155.23 114.49 150.63 114.49 142.55
  Q 114.51 83.24 114.49 23.94
  C 114.49 15.18 110.18 12.76 101.72 12.76
  Q 63.14 12.73 24.58 12.77
  Q 20.70 12.77 18.74 13.81
  Q 16.15 15.19 14.16 17.98
  Z
  M 114.81 47.80
  Q 114.81 62.44 115.00 48.08
  C 115.00 47.92 115.01 48.02 114.91 47.78
  Q 114.81 47.56 114.81 47.80
  Z"
/>
<path fill="#ffffff" d="
  M 17.00 152.96
  Q 14.00 148.78 14.00 147.25
  Q 13.88 82.63 14.16 17.98
  Q 16.15 15.19 18.74 13.81
  Q 20.70 12.77 24.58 12.77
  Q 63.14 12.73 101.72 12.76
  C 110.18 12.76 114.49 15.18 114.49 23.94
  Q 114.51 83.24 114.49 142.55
  C 114.49 150.63 112.09 155.23 103.62 155.23
  Q 62.84 155.28 22.06 155.23
  Q 19.77 155.23 17.00 152.96
  Z
  M 34.98 22.88
  A 5.83 5.83 0.0 0 0 29.15 17.05
  L 28.61 17.05
  A 5.83 5.83 0.0 0 0 22.78 22.88
  L 22.78 38.86
  A 5.83 5.83 0.0 0 0 28.61 44.69
  L 29.15 44.69
  A 5.83 5.83 0.0 0 0 34.98 38.86
  L 34.98 22.88
  Z
  M 20.50 17.80
  A 0.53 0.53 0.0 0 0 19.97 17.27
  L 17.29 17.27
  A 0.53 0.53 0.0 0 0 16.76 17.80
  L 16.76 43.74
  A 0.53 0.53 0.0 0 0 17.29 44.27
  L 19.97 44.27
  A 0.53 0.53 0.0 0 0 20.50 43.74
  L 20.50 17.80
  Z
  M 48.22 46.59
  Q 47.16 46.82 46.64 45.67
  A 0.92 0.76 76.8 0 0 45.95 45.15
  C 36.93 44.57 45.86 56.55 47.63 58.67
  A 0.41 0.41 -45.8 0 0 48.26 58.66
  C 50.91 55.34 57.33 46.78 51.79 45.02
  Q 49.98 44.44 48.94 46.00
  A 1.38 0.73 -67.3 0 1 48.22 46.59
  Z
  M 85.36 46.20
  C 82.57 42.09 80.12 49.04 78.61 45.60
  A 0.78 0.68 76.0 0 0 77.94 45.13
  C 69.43 45.33 77.02 55.54 79.63 58.67
  A 0.41 0.37 42.7 0 0 80.26 58.67
  L 85.54 50.52
  Q 86.88 48.45 85.36 46.20
  Z
  M 25.53 52.03
  Q 22.69 48.03 19.92 51.43
  Q 18.38 53.30 19.35 55.53
  Q 21.73 61.03 25.59 65.61
  A 0.42 0.41 -45.4 0 0 26.23 65.60
  C 29.21 61.95 37.11 51.93 29.72 49.82
  A 1.10 0.81 29.0 0 0 28.82 49.94
  L 26.15 52.08
  A 0.45 0.40 -37.5 0 1 25.53 52.03
  Z
  M 63.55 57.42
  Q 61.89 54.96 59.85 56.04
  C 54.82 58.68 62.02 67.33 63.62 69.35
  A 0.38 0.38 42.7 0 0 64.24 69.33
  L 69.52 61.30
  Q 70.62 59.64 69.74 57.62
  Q 67.81 53.17 64.19 57.46
  A 0.40 0.40 48.1 0 1 63.55 57.42
  Z
  M 47.57 68.02
  C 45.01 64.14 40.62 67.90 42.43 71.84
  Q 44.23 75.76 47.60 80.09
  A 0.38 0.36 42.5 0 0 48.20 80.08
  L 53.59 71.81
  Q 55.10 69.51 53.15 67.29
  Q 50.72 64.51 48.10 68.03
  A 0.32 0.32 -43.3 0 1 47.57 68.02
  Z
  M 79.54 68.01
  Q 77.73 65.34 75.38 66.92
  Q 73.07 68.47 74.14 71.03
  Q 76.16 75.90 79.61 79.96
  A 0.43 0.42 -46.2 0 0 80.26 79.94
  C 83.08 76.38 90.01 67.25 82.76 66.21
  A 1.10 1.06 -61.8 0 0 81.88 66.49
  L 80.17 68.09
  A 0.43 0.42 51.4 0 1 79.54 68.01
  Z
  M 48.51 99.94
  C 50.51 103.59 55.10 100.48 53.89 96.90
  Q 52.63 93.19 48.38 87.91
  A 0.39 0.37 42.5 0 0 47.76 87.92
  L 42.45 96.11
  Q 41.03 98.30 42.74 100.59
  Q 45.02 103.63 47.68 99.90
  A 0.49 0.49 -42.1 0 1 48.51 99.94
  Z
  M 76.46 101.68
  A 1.84 1.84 27.1 0 0 78.79 100.93
  Q 80.09 98.74 81.15 100.81
  Q 82.00 102.47 83.78 101.53
  C 88.99 98.79 83.08 91.39 80.45 87.93
  A 0.40 0.39 -44.3 0 0 79.83 87.93
  C 76.91 91.59 70.81 99.20 76.46 101.68
  Z
  M 59.69 112.06
  Q 61.77 113.57 62.73 111.75
  Q 63.95 109.44 65.07 111.39
  A 1.13 0.91 75.5 0 0 65.79 111.93
  C 74.75 113.31 67.00 101.87 64.47 98.64
  A 0.41 0.41 45.8 0 0 63.84 98.63
  C 61.15 102.00 55.36 108.92 59.69 112.06
  Z
  M 95.46 112.47
  C 93.73 116.83 99.06 120.71 101.51 116.04
  A 0.59 0.59 40.5 0 1 102.52 115.96
  Q 104.81 119.10 107.22 117.37
  C 111.79 114.06 104.94 105.54 102.51 102.34
  A 0.41 0.40 -43.5 0 0 101.88 102.33
  Q 97.39 107.61 95.46 112.47
  Z
  M 48.75 121.70
  Q 51.05 124.36 53.09 122.03
  Q 55.03 119.82 53.66 117.60
  L 48.59 109.40
  A 0.57 0.53 -42.5 0 0 47.69 109.39
  C 45.86 111.76 37.30 122.55 45.46 123.05
  A 1.12 0.91 -63.0 0 0 46.27 122.69
  Q 47.04 121.87 47.96 121.48
  A 0.73 0.65 57.0 0 1 48.75 121.70
  Z
  M 74.54 117.72
  C 72.48 121.94 77.14 125.15 79.70 121.51
  A 0.48 0.45 35.2 0 1 80.36 121.42
  L 82.16 122.75
  A 1.18 1.09 -31.7 0 0 83.07 122.93
  C 89.96 121.47 82.63 112.04 80.61 109.53
  A 0.67 0.66 -45.5 0 0 79.56 109.54
  Q 76.63 113.41 74.54 117.72
  Z
  M 105.22 129.14
  A 5.83 5.83 0.0 0 0 99.39 123.31
  L 98.85 123.31
  A 5.83 5.83 0.0 0 0 93.02 129.14
  L 93.02 145.12
  A 5.83 5.83 0.0 0 0 98.85 150.95
  L 99.39 150.95
  A 5.83 5.83 0.0 0 0 105.22 145.12
  L 105.22 129.14
  Z
  M 111.24 124.26
  A 0.53 0.53 0.0 0 0 110.71 123.73
  L 108.03 123.73
  A 0.53 0.53 0.0 0 0 107.50 124.26
  L 107.50 150.20
  A 0.53 0.53 0.0 0 0 108.03 150.73
  L 110.71 150.73
  A 0.53 0.53 0.0 0 0 111.24 150.20
  L 111.24 124.26
  Z"
/>
<path fill="#c4332c" d="
  M 34.98 38.86
  A 5.83 5.83 0.0 0 1 29.15 44.69
  L 28.61 44.69
  A 5.83 5.83 0.0 0 1 22.78 38.86
  L 22.78 22.88
  A 5.83 5.83 0.0 0 1 28.61 17.05
  L 29.15 17.05
  A 5.83 5.83 0.0 0 1 34.98 22.88
  L 34.98 38.86
  Z
  M 31.2260 22.8259
  A 2.31 2.31 0.0 0 0 28.9119 20.5199
  L 28.7919 20.5201
  A 2.31 2.31 0.0 0 0 26.4860 22.8341
  L 26.5140 38.9141
  A 2.31 2.31 0.0 0 0 28.8281 41.2201
  L 28.9481 41.2199
  A 2.31 2.31 0.0 0 0 31.2540 38.9059
  L 31.2260 22.8259
  Z"
/>
<rect fill="#c4332c" x="16.76" y="17.27" width="3.74" height="27.00" rx="0.53"/>
<path fill="#f2f4f5" fill-opacity="0.973" d="
  M 14.16 17.98
  Q 13.88 82.63 14.00 147.25
  Q 14.00 148.78 17.00 152.96
  Q 14.09 150.40 13.46 146.50
  L 13.71 21.00
  Q 14.26 19.39 14.16 17.98
  Z"
/>
<path fill="#030605" fill-opacity="0.192" d="
  M 13.71 21.00
  L 13.46 146.50
  Q 13.37 146.27 13.15 146.12
  A 0.75 0.58 25.1 0 1 12.82 145.48
  Q 13.08 143.81 11.50 143.50
  A 0.60 0.55 5.6 0 1 11.01 142.95
  Q 10.99 84.10 11.00 25.25
  C 11.00 23.61 11.49 21.96 11.80 20.32
  Q 11.86 19.98 12.03 20.31
  Q 12.40 21.05 13.71 21.00
  Z"
/>
<rect fill="#ffffff" x="-2.37" y="-10.35" transform="translate(28.87,30.87) rotate(-0.1)" width="4.74" height="20.70" rx="2.31"/>
<path fill="#c4332c" d="
  M 48.94 46.00
  Q 49.98 44.44 51.79 45.02
  C 57.33 46.78 50.91 55.34 48.26 58.66
  A 0.41 0.41 -45.8 0 1 47.63 58.67
  C 45.86 56.55 36.93 44.57 45.95 45.15
  A 0.92 0.76 76.8 0 1 46.64 45.67
  Q 47.16 46.82 48.22 46.59
  A 1.38 0.73 -67.3 0 0 48.94 46.00
  Z"
/>
<path fill="#c4332c" d="
  M 78.61 45.60
  C 80.12 49.04 82.57 42.09 85.36 46.20
  Q 86.88 48.45 85.54 50.52
  L 80.26 58.67
  A 0.41 0.37 42.7 0 1 79.63 58.67
  C 77.02 55.54 69.43 45.33 77.94 45.13
  A 0.78 0.68 76.0 0 1 78.61 45.60
  Z"
/>
<path fill="#c4332c" d="
  M 26.15 52.08
  L 28.82 49.94
  A 1.10 0.81 29.0 0 1 29.72 49.82
  C 37.11 51.93 29.21 61.95 26.23 65.60
  A 0.42 0.41 -45.4 0 1 25.59 65.61
  Q 21.73 61.03 19.35 55.53
  Q 18.38 53.30 19.92 51.43
  Q 22.69 48.03 25.53 52.03
  A 0.45 0.40 -37.5 0 0 26.15 52.08
  Z"
/>
<path fill="#c4332c" d="
  M 63.55 57.42
  A 0.40 0.40 48.1 0 0 64.19 57.46
  Q 67.81 53.17 69.74 57.62
  Q 70.62 59.64 69.52 61.30
  L 64.24 69.33
  A 0.38 0.38 42.7 0 1 63.62 69.35
  C 62.02 67.33 54.82 58.68 59.85 56.04
  Q 61.89 54.96 63.55 57.42
  Z"
/>
<path fill="#c4332c" d="
  M 48.10 68.03
  Q 50.72 64.51 53.15 67.29
  Q 55.10 69.51 53.59 71.81
  L 48.20 80.08
  A 0.38 0.36 42.5 0 1 47.60 80.09
  Q 44.23 75.76 42.43 71.84
  C 40.62 67.90 45.01 64.14 47.57 68.02
  A 0.32 0.32 -43.3 0 0 48.10 68.03
  Z"
/>
<path fill="#c4332c" d="
  M 80.17 68.09
  L 81.88 66.49
  A 1.10 1.06 -61.8 0 1 82.76 66.21
  C 90.01 67.25 83.08 76.38 80.26 79.94
  A 0.43 0.42 -46.2 0 1 79.61 79.96
  Q 76.16 75.90 74.14 71.03
  Q 73.07 68.47 75.38 66.92
  Q 77.73 65.34 79.54 68.01
  A 0.43 0.42 51.4 0 0 80.17 68.09
  Z"
/>
<path fill="#c4332c" d="
  M 48.51 99.94
  A 0.49 0.49 -42.1 0 0 47.68 99.90
  Q 45.02 103.63 42.74 100.59
  Q 41.03 98.30 42.45 96.11
  L 47.76 87.92
  A 0.39 0.37 42.5 0 1 48.38 87.91
  Q 52.63 93.19 53.89 96.90
  C 55.10 100.48 50.51 103.59 48.51 99.94
  Z"
/>
<path fill="#c4332c" d="
  M 76.46 101.68
  C 70.81 99.20 76.91 91.59 79.83 87.93
  A 0.40 0.39 -44.3 0 1 80.45 87.93
  C 83.08 91.39 88.99 98.79 83.78 101.53
  Q 82.00 102.47 81.15 100.81
  Q 80.09 98.74 78.79 100.93
  A 1.84 1.84 27.1 0 1 76.46 101.68
  Z"
/>
<path fill="#c4332c" d="
  M 59.69 112.06
  C 55.36 108.92 61.15 102.00 63.84 98.63
  A 0.41 0.41 45.8 0 1 64.47 98.64
  C 67.00 101.87 74.75 113.31 65.79 111.93
  A 1.13 0.91 75.5 0 1 65.07 111.39
  Q 63.95 109.44 62.73 111.75
  Q 61.77 113.57 59.69 112.06
  Z"
/>
<path fill="#c4332c" d="
  M 101.51 116.04
  C 99.06 120.71 93.73 116.83 95.46 112.47
  Q 97.39 107.61 101.88 102.33
  A 0.41 0.40 -43.5 0 1 102.51 102.34
  C 104.94 105.54 111.79 114.06 107.22 117.37
  Q 104.81 119.10 102.52 115.96
  A 0.59 0.59 40.5 0 0 101.51 116.04
  Z"
/>
<path fill="#c4332c" d="
  M 47.96 121.48
  Q 47.04 121.87 46.27 122.69
  A 1.12 0.91 -63.0 0 1 45.46 123.05
  C 37.30 122.55 45.86 111.76 47.69 109.39
  A 0.57 0.53 -42.5 0 1 48.59 109.40
  L 53.66 117.60
  Q 55.03 119.82 53.09 122.03
  Q 51.05 124.36 48.75 121.70
  A 0.73 0.65 57.0 0 0 47.96 121.48
  Z"
/>
<path fill="#c4332c" d="
  M 79.70 121.51
  C 77.14 125.15 72.48 121.94 74.54 117.72
  Q 76.63 113.41 79.56 109.54
  A 0.67 0.66 -45.5 0 1 80.61 109.53
  C 82.63 112.04 89.96 121.47 83.07 122.93
  A 1.18 1.09 -31.7 0 1 82.16 122.75
  L 80.36 121.42
  A 0.48 0.45 35.2 0 0 79.70 121.51
  Z"
/>
<path fill="#c4332c" d="
  M 105.22 145.12
  A 5.83 5.83 0.0 0 1 99.39 150.95
  L 98.85 150.95
  A 5.83 5.83 0.0 0 1 93.02 145.12
  L 93.02 129.14
  A 5.83 5.83 0.0 0 1 98.85 123.31
  L 99.39 123.31
  A 5.83 5.83 0.0 0 1 105.22 129.14
  L 105.22 145.12
  Z
  M 101.50 129.07
  A 2.30 2.30 0.0 0 0 99.20 126.77
  L 99.06 126.77
  A 2.30 2.30 0.0 0 0 96.76 129.07
  L 96.76 145.17
  A 2.30 2.30 0.0 0 0 99.06 147.47
  L 99.20 147.47
  A 2.30 2.30 0.0 0 0 101.50 145.17
  L 101.50 129.07
  Z"
/>
<rect fill="#c4332c" x="107.50" y="123.73" width="3.74" height="27.00" rx="0.53"/>
<rect fill="#ffffff" x="96.76" y="126.77" width="4.74" height="20.70" rx="2.30"/>
</svg>
