<?xml version="1.0" encoding="UTF-8" standalone="no"?>
<svg xmlns="http://www.w3.org/2000/svg" version="1.2" baseProfile="tiny" viewBox="0 0 128 168">
<g stroke-width="0.00" fill="none" stroke-linecap="butt">
<path stroke="#e6e6e6" stroke-opacity="0.557" vector-effect="non-scaling-stroke" d="
  M 114.21 148.25
  L 114.54 144.25"
/>
<path stroke="#e6e6e6" stroke-opacity="0.557" vector-effect="non-scaling-stroke" d="
  M 114.50 21.04
  Q 111.98 11.53 101.75 12.71"
/>
<path stroke="#d2d2d2" stroke-opacity="0.608" vector-effect="non-scaling-stroke" d="
  M 101.75 12.71
  Q 62.13 12.78 22.50 12.75
  Q 17.78 12.75 14.96 17.50"
/>
<path stroke="#d2d2d2" stroke-opacity="0.608" vector-effect="non-scaling-stroke" d="
  M 114.50 21.04
  C 114.65 62.11 114.29 103.18 114.54 144.25"
/>
<path stroke="#d2d2d2" stroke-opacity="0.608" vector-effect="non-scaling-stroke" d="
  M 114.21 148.25
  Q 111.60 155.12 104.47 155.46"
/>
<path stroke="#96938d" vector-effect="non-scaling-stroke" d="
  M 104.47 155.46
  L 99.21 155.50"
/>
<path stroke="#d2d2d2" stroke-opacity="0.608" vector-effect="non-scaling-stroke" d="
  M 99.21 155.50
  L 96.00 155.29"
/>
<path stroke="#96938d" vector-effect="non-scaling-stroke" d="
  M 96.00 155.29
  L 84.25 155.29"
/>
<path stroke="#d2d2d2" stroke-opacity="0.608" vector-effect="non-scaling-stroke" d="
  M 84.25 155.29
  Q 53.75 155.22 23.25 155.21
  Q 19.70 155.21 17.00 152.96"
/>
<path stroke="#f9fafb" stroke-opacity="0.988" vector-effect="non-scaling-stroke" d="
  M 17.00 152.96
  Q 14.00 148.78 14.00 147.25
  Q 14.00 84.77 14.00 22.30
  C 14.00 20.62 14.70 19.17 14.96 17.50"
/>
<path stroke="#251f16" stroke-opacity="0.608" vector-effect="non-scaling-stroke" d="
  M 84.25 155.29
  Q 90.14 156.15 96.00 155.29"
/>
<path stroke="#251f16" stroke-opacity="0.608" vector-effect="non-scaling-stroke" d="
  M 99.21 155.50
  Q 101.68 156.17 104.47 155.46"
/>
<path stroke="#96938d" vector-effect="non-scaling-stroke" d="
  M 22.79 40.44
  L 23.09 38.74
  A 0.74 0.57 3.6 0 1 23.78 38.27
  L 27.51 38.22
  A 1.02 0.89 -15.2 0 1 28.31 38.61
  Q 29.52 40.38 27.82 41.15
  A 0.91 0.62 -16.8 0 0 27.27 41.83
  L 27.31 43.91
  A 0.60 0.53 0.1 0 0 27.90 44.43
  L 33.74 44.50
  A 0.71 0.69 -79.5 0 0 34.41 44.03
  Q 35.51 40.97 32.68 40.85
  A 0.66 0.60 -3.2 0 1 32.08 40.36
  L 27.89 17.97
  A 0.82 0.76 -89.3 0 0 27.32 17.34
  Q 25.71 16.93 24.11 17.48
  A 0.90 0.82 86.6 0 0 23.56 18.16
  L 19.43 40.37
  A 0.62 0.57 3.9 0 1 18.84 40.84
  Q 16.07 40.89 17.04 43.88
  A 0.75 0.69 80.1 0 0 17.71 44.40
  L 23.68 44.40
  A 0.71 0.65 -82.6 0 0 24.32 43.86
  Q 24.89 41.62 23.29 41.06
  A 0.70 0.49 16.3 0 1 22.79 40.44"
/>
<path stroke="#96938d" vector-effect="non-scaling-stroke" d="
  M 28.41 56.33
  Q 30.74 53.78 28.99 51.13
  C 26.21 46.93 19.33 51.64 23.57 56.22
  Q 24.60 57.32 23.25 56.65
  Q 19.09 54.56 17.22 59.00
  Q 16.24 61.31 18.41 62.58
  Q 22.44 64.93 24.60 61.14
  A 0.97 0.64 -72.0 0 1 25.18 60.68
  C 26.40 60.53 24.06 65.34 23.86 65.81
  A 0.42 0.35 -77.8 0 0 24.16 66.38
  L 27.84 66.38
  A 0.41 0.36 77.9 0 0 28.15 65.82
  C 27.99 65.45 25.55 60.42 26.84 60.69
  A 0.89 0.61 77.1 0 1 27.35 61.16
  C 30.17 67.17 38.49 60.44 33.06 56.75
  Q 31.13 55.43 28.52 56.49
  Q 28.12 56.65 28.41 56.33"
/>
<path stroke="#96938d" vector-effect="non-scaling-stroke" d="
  M 61.45 82.62
  Q 60.73 82.49 60.06 82.20
  C 55.99 80.49 52.41 84.46 54.40 88.21
  C 56.08 91.39 60.79 90.97 62.34 87.72
  A 0.50 0.41 -60.1 0 1 62.99 87.47
  C 63.92 88.12 61.91 92.29 61.47 93.22
  A 0.34 0.33 -77.2 0 0 61.76 93.70
  L 66.26 93.70
  A 0.34 0.32 76.6 0 0 66.54 93.22
  C 66.21 92.55 63.83 87.56 65.04 87.37
  A 0.94 0.57 63.6 0 1 65.79 87.85
  Q 68.44 92.00 72.07 89.61
  C 77.29 86.17 71.98 79.05 66.62 82.88
  A 0.31 0.18 -41.2 0 1 66.33 82.94
  L 66.20 82.84
  A 0.29 0.24 -45.3 0 1 66.24 82.42
  C 72.22 77.70 64.36 70.65 60.43 76.16
  Q 58.24 79.23 61.57 82.35
  Q 61.94 82.71 61.45 82.62"
/>
<path stroke="#96938d" vector-effect="non-scaling-stroke" d="
  M 103.99 111.48
  Q 103.96 111.36 103.98 111.27
  A 0.39 0.26 24.7 0 1 104.50 111.19
  Q 108.67 113.54 110.74 109.20
  Q 111.85 106.87 109.58 105.44
  C 105.91 103.12 105.62 105.13 103.25 106.87
  C 101.39 108.23 104.11 102.19 104.12 102.17
  A 0.41 0.35 -77.3 0 0 103.82 101.61
  L 100.19 101.61
  A 0.41 0.35 77.3 0 0 99.89 102.17
  C 99.92 102.23 102.35 109.24 100.54 106.60
  Q 98.18 103.14 94.43 105.45
  Q 91.59 107.20 93.54 109.93
  C 95.88 113.19 99.81 111.14 99.92 111.27
  A 0.38 0.28 -41.4 0 1 99.82 111.73
  C 94.46 116.43 103.82 122.07 105.71 115.49
  Q 106.35 113.25 104.24 111.80
  A 0.61 0.39 19.4 0 1 103.99 111.48"
/>
<path stroke="#96938d" vector-effect="non-scaling-stroke" d="
  M 99.78 126.93
  Q 101.53 126.29 100.71 124.04
  A 0.74 0.72 -9.5 0 0 100.02 123.56
  L 94.28 123.50
  A 0.72 0.71 10.1 0 0 93.59 123.97
  Q 92.49 127.03 95.32 127.15
  A 0.64 0.60 -3.9 0 1 95.92 127.64
  L 100.17 150.21
  A 0.63 0.61 84.2 0 0 100.77 150.72
  L 103.45 150.76
  A 0.98 0.94 -84.2 0 0 104.39 149.96
  L 108.58 127.63
  A 0.61 0.57 4.0 0 1 109.16 127.16
  Q 111.93 127.10 110.95 124.12
  A 0.75 0.69 80.1 0 0 110.28 123.60
  L 104.45 123.58
  A 0.75 0.69 -80.1 0 0 103.78 124.10
  Q 103.11 126.22 104.70 127.08
  A 0.84 0.55 23.3 0 1 105.17 127.79
  L 104.88 129.25
  A 0.74 0.58 4.1 0 1 104.17 129.73
  L 100.30 129.73
  A 0.80 0.77 -11.1 0 1 99.57 129.26
  Q 99.23 128.43 99.26 127.56
  A 0.79 0.66 -10.6 0 1 99.78 126.93"
/>
<path stroke="#96938d" vector-effect="non-scaling-stroke" d="
  M 25.70 25.22
  C 25.51 25.20 24.08 33.23 23.88 34.24
  A 0.55 0.53 -76.5 0 0 24.26 34.88
  Q 25.73 35.27 27.26 34.84
  A 0.56 0.52 76.8 0 0 27.62 34.20
  L 26.03 25.60
  A 0.47 0.35 86.2 0 0 25.70 25.22"
/>
<path stroke="#96938d" vector-effect="non-scaling-stroke" d="
  M 102.49 141.43
  L 104.13 133.77
  A 0.54 0.54 -76.6 0 0 103.74 133.13
  Q 102.27 132.73 100.76 133.14
  A 0.56 0.52 76.8 0 0 100.40 133.78
  L 101.77 141.39
  Q 102.10 143.24 102.49 141.43"
/>
</g>
<path fill="#010000" fill-opacity="0.110" d="
  M 19.44 159.89
  Q 18.35 159.96 17.78 159.12
  A 0.73 0.66 66.5 0 0 17.07 158.80
  C 14.65 159.27 14.54 157.68 13.36 156.60
  Q 10.92 154.37 8.97 151.76
  Q 8.46 151.09 8.23 149.51
  C 7.79 146.61 6.99 144.03 6.99 141.12
  Q 7.01 93.64 6.99 46.16
  C 6.99 43.85 7.70 40.15 7.21 37.00
  Q 7.14 36.51 7.29 36.02
  C 8.44 32.44 6.84 30.00 7.01 26.93
  C 7.22 23.11 7.39 17.93 10.08 15.28
  Q 10.91 14.47 11.17 12.99
  A 1.57 1.28 79.5 0 1 11.63 12.15
  Q 15.26 9.07 19.53 6.93
  A 1.92 1.34 25.8 0 1 20.47 6.78
  Q 22.08 6.93 23.35 6.05
  A 1.75 1.30 -55.3 0 1 24.24 5.75
  Q 64.62 5.75 105.00 5.75
  Q 106.28 5.75 111.94 8.05
  Q 113.88 8.84 116.16 11.74
  C 117.95 14.01 120.53 19.68 120.52 22.72
  Q 120.44 43.86 120.46 65.00
  Q 120.46 68.11 119.82 75.99
  C 119.50 79.91 120.47 84.46 120.47 88.10
  Q 120.52 116.29 120.50 144.50
  C 120.49 147.80 118.47 152.88 116.32 154.94
  Q 114.90 156.31 112.28 158.11
  Q 109.09 160.29 105.15 160.65
  A 0.77 0.63 -82.1 0 0 104.57 161.19
  Q 104.29 162.06 103.15 161.80
  A 0.86 0.47 19.9 0 0 102.42 161.91
  Q 102.29 162.04 102.32 162.20
  A 0.17 0.14 83.7 0 1 102.18 162.41
  C 99.68 162.21 78.28 162.41 78.03 162.11
  A 1.21 0.81 61.9 0 0 77.25 161.69
  Q 53.01 161.76 28.78 161.75
  C 28.04 161.75 19.98 160.54 19.94 160.32
  A 0.53 0.46 81.9 0 0 19.44 159.89
  Z
  M 14.04 19.25
  L 13.71 20.25
  Q 13.31 21.68 11.88 20.29
  Q 11.30 19.73 11.44 20.52
  Q 11.71 21.98 11.23 23.06
  Q 11.00 23.59 11.00 24.00
  Q 11.00 83.43 11.00 142.85
  C 11.00 145.00 11.77 147.05 11.83 149.37
  A 0.72 0.66 -82.8 0 0 12.30 150.03
  Q 13.87 150.49 12.24 148.94
  A 2.42 0.84 -78.5 0 1 11.98 147.00
  Q 12.22 145.17 13.46 146.50
  Q 14.12 149.88 16.29 152.50
  Q 16.29 153.27 15.61 153.75
  A 0.34 0.31 -44.1 0 0 15.58 154.29
  L 19.32 156.86
  A 1.74 1.29 -21.4 0 0 20.25 157.11
  C 23.15 157.04 25.30 158.19 27.94 158.21
  Q 62.94 158.39 97.94 158.01
  C 103.36 157.95 108.89 156.68 113.10 153.80
  A 1.14 0.73 83.3 0 0 113.48 153.02
  Q 113.53 152.47 114.04 152.31
  A 1.46 0.55 -9.6 0 0 114.83 151.85
  Q 116.22 149.84 114.21 148.25
  L 114.54 144.25
  Q 115.28 145.39 114.93 146.79
  A 0.37 0.29 -70.3 0 0 115.06 147.18
  Q 115.18 147.24 115.31 147.25
  A 0.50 0.39 -88.7 0 0 115.73 146.73
  C 115.63 143.26 116.47 139.85 116.40 136.67
  C 115.65 100.20 116.54 63.47 115.73 26.82
  Q 115.67 24.18 115.45 21.50
  A 0.26 0.21 -17.0 0 0 115.09 21.36
  Q 114.78 21.50 114.50 21.04
  Q 111.98 11.53 101.75 12.71
  L 21.06 12.56
  A 0.52 0.36 -5.5 0 1 20.59 12.30
  Q 20.54 12.13 20.59 11.95
  A 0.78 0.57 5.0 0 1 21.31 11.51
  Q 63.62 11.48 105.91 11.52
  C 106.38 11.52 111.18 13.01 108.21 11.19
  C 107.33 10.65 101.71 10.50 100.55 10.50
  Q 62.37 10.50 24.20 10.50
  C 18.35 10.50 17.17 12.20 13.30 15.83
  A 1.54 1.22 -23.1 0 0 12.85 16.66
  Q 12.64 18.32 14.04 19.25
  Z"
/>
<path fill="#020101" fill-opacity="0.216" d="
  M 101.75 12.71
  Q 62.13 12.78 22.50 12.75
  Q 17.78 12.75 14.96 17.50
  L 14.04 19.25
  Q 12.64 18.32 12.85 16.66
  A 1.54 1.22 -23.1 0 1 13.30 15.83
  C 17.17 12.20 18.35 10.50 24.20 10.50
  Q 62.37 10.50 100.55 10.50
  C 101.71 10.50 107.33 10.65 108.21 11.19
  C 111.18 13.01 106.38 11.52 105.91 11.52
  Q 63.62 11.48 21.31 11.51
  A 0.78 0.57 5.0 0 0 20.59 11.95
  Q 20.54 12.13 20.59 12.30
  A 0.52 0.36 -5.5 0 0 21.06 12.56
  L 101.75 12.71
  Z"
/>
<path fill="#ffffff" d="
  M 101.75 12.71
  Q 111.98 11.53 114.50 21.04
  C 114.65 62.11 114.29 103.18 114.54 144.25
  L 114.21 148.25
  Q 111.60 155.12 104.47 155.46
  L 99.21 155.50
  L 96.00 155.29
  L 84.25 155.29
  Q 53.75 155.22 23.25 155.21
  Q 19.70 155.21 17.00 152.96
  Q 14.00 148.78 14.00 147.25
  Q 14.00 84.77 14.00 22.30
  C 14.00 20.62 14.70 19.17 14.96 17.50
  Q 17.78 12.75 22.50 12.75
  Q 62.13 12.78 101.75 12.71
  Z
  M 22.79 40.44
  L 23.09 38.74
  A 0.74 0.57 3.6 0 1 23.78 38.27
  L 27.51 38.22
  A 1.02 0.89 -15.2 0 1 28.31 38.61
  Q 29.52 40.38 27.82 41.15
  A 0.91 0.62 -16.8 0 0 27.27 41.83
  L 27.31 43.91
  A 0.60 0.53 0.1 0 0 27.90 44.43
  L 33.74 44.50
  A 0.71 0.69 -79.5 0 0 34.41 44.03
  Q 35.51 40.97 32.68 40.85
  A 0.66 0.60 -3.2 0 1 32.08 40.36
  L 27.89 17.97
  A 0.82 0.76 -89.3 0 0 27.32 17.34
  Q 25.71 16.93 24.11 17.48
  A 0.90 0.82 86.6 0 0 23.56 18.16
  L 19.43 40.37
  A 0.62 0.57 3.9 0 1 18.84 40.84
  Q 16.07 40.89 17.04 43.88
  A 0.75 0.69 80.1 0 0 17.71 44.40
  L 23.68 44.40
  A 0.71 0.65 -82.6 0 0 24.32 43.86
  Q 24.89 41.62 23.29 41.06
  A 0.70 0.49 16.3 0 1 22.79 40.44
  Z
  M 28.41 56.33
  Q 30.74 53.78 28.99 51.13
  C 26.21 46.93 19.33 51.64 23.57 56.22
  Q 24.60 57.32 23.25 56.65
  Q 19.09 54.56 17.22 59.00
  Q 16.24 61.31 18.41 62.58
  Q 22.44 64.93 24.60 61.14
  A 0.97 0.64 -72.0 0 1 25.18 60.68
  C 26.40 60.53 24.06 65.34 23.86 65.81
  A 0.42 0.35 -77.8 0 0 24.16 66.38
  L 27.84 66.38
  A 0.41 0.36 77.9 0 0 28.15 65.82
  C 27.99 65.45 25.55 60.42 26.84 60.69
  A 0.89 0.61 77.1 0 1 27.35 61.16
  C 30.17 67.17 38.49 60.44 33.06 56.75
  Q 31.13 55.43 28.52 56.49
  Q 28.12 56.65 28.41 56.33
  Z
  M 61.45 82.62
  Q 60.73 82.49 60.06 82.20
  C 55.99 80.49 52.41 84.46 54.40 88.21
  C 56.08 91.39 60.79 90.97 62.34 87.72
  A 0.50 0.41 -60.1 0 1 62.99 87.47
  C 63.92 88.12 61.91 92.29 61.47 93.22
  A 0.34 0.33 -77.2 0 0 61.76 93.70
  L 66.26 93.70
  A 0.34 0.32 76.6 0 0 66.54 93.22
  C 66.21 92.55 63.83 87.56 65.04 87.37
  A 0.94 0.57 63.6 0 1 65.79 87.85
  Q 68.44 92.00 72.07 89.61
  C 77.29 86.17 71.98 79.05 66.62 82.88
  A 0.31 0.18 -41.2 0 1 66.33 82.94
  L 66.20 82.84
  A 0.29 0.24 -45.3 0 1 66.24 82.42
  C 72.22 77.70 64.36 70.65 60.43 76.16
  Q 58.24 79.23 61.57 82.35
  Q 61.94 82.71 61.45 82.62
  Z
  M 103.99 111.48
  Q 103.96 111.36 103.98 111.27
  A 0.39 0.26 24.7 0 1 104.50 111.19
  Q 108.67 113.54 110.74 109.20
  Q 111.85 106.87 109.58 105.44
  C 105.91 103.12 105.62 105.13 103.25 106.87
  C 101.39 108.23 104.11 102.19 104.12 102.17
  A 0.41 0.35 -77.3 0 0 103.82 101.61
  L 100.19 101.61
  A 0.41 0.35 77.3 0 0 99.89 102.17
  C 99.92 102.23 102.35 109.24 100.54 106.60
  Q 98.18 103.14 94.43 105.45
  Q 91.59 107.20 93.54 109.93
  C 95.88 113.19 99.81 111.14 99.92 111.27
  A 0.38 0.28 -41.4 0 1 99.82 111.73
  C 94.46 116.43 103.82 122.07 105.71 115.49
  Q 106.35 113.25 104.24 111.80
  A 0.61 0.39 19.4 0 1 103.99 111.48
  Z
  M 99.78 126.93
  Q 101.53 126.29 100.71 124.04
  A 0.74 0.72 -9.5 0 0 100.02 123.56
  L 94.28 123.50
  A 0.72 0.71 10.1 0 0 93.59 123.97
  Q 92.49 127.03 95.32 127.15
  A 0.64 0.60 -3.9 0 1 95.92 127.64
  L 100.17 150.21
  A 0.63 0.61 84.2 0 0 100.77 150.72
  L 103.45 150.76
  A 0.98 0.94 -84.2 0 0 104.39 149.96
  L 108.58 127.63
  A 0.61 0.57 4.0 0 1 109.16 127.16
  Q 111.93 127.10 110.95 124.12
  A 0.75 0.69 80.1 0 0 110.28 123.60
  L 104.45 123.58
  A 0.75 0.69 -80.1 0 0 103.78 124.10
  Q 103.11 126.22 104.70 127.08
  A 0.84 0.55 23.3 0 1 105.17 127.79
  L 104.88 129.25
  A 0.74 0.58 4.1 0 1 104.17 129.73
  L 100.30 129.73
  A 0.80 0.77 -11.1 0 1 99.57 129.26
  Q 99.23 128.43 99.26 127.56
  A 0.79 0.66 -10.6 0 1 99.78 126.93
  Z"
/>
<path fill="#2d261b" d="
  M 23.29 41.06
  Q 24.89 41.62 24.32 43.86
  A 0.71 0.65 -82.6 0 1 23.68 44.40
  L 17.71 44.40
  A 0.75 0.69 80.1 0 1 17.04 43.88
  Q 16.07 40.89 18.84 40.84
  A 0.62 0.57 3.9 0 0 19.43 40.37
  L 23.56 18.16
  A 0.90 0.82 86.6 0 1 24.11 17.48
  Q 25.71 16.93 27.32 17.34
  A 0.82 0.76 -89.3 0 1 27.89 17.97
  L 32.08 40.36
  A 0.66 0.60 -3.2 0 0 32.68 40.85
  Q 35.51 40.97 34.41 44.03
  A 0.71 0.69 -79.5 0 1 33.74 44.50
  L 27.90 44.43
  A 0.60 0.53 0.1 0 1 27.31 43.91
  L 27.27 41.83
  A 0.91 0.62 -16.8 0 1 27.82 41.15
  Q 29.52 40.38 28.31 38.61
  A 1.02 0.89 -15.2 0 0 27.51 38.22
  L 23.78 38.27
  A 0.74 0.57 3.6 0 0 23.09 38.74
  L 22.79 40.44
  A 0.70 0.49 16.3 0 0 23.29 41.06
  Z
  M 25.70 25.22
  C 25.51 25.20 24.08 33.23 23.88 34.24
  A 0.55 0.53 -76.5 0 0 24.26 34.88
  Q 25.73 35.27 27.26 34.84
  A 0.56 0.52 76.8 0 0 27.62 34.20
  L 26.03 25.60
  A 0.47 0.35 86.2 0 0 25.70 25.22
  Z"
/>
<path fill="#f2f4f6" fill-opacity="0.973" d="
  M 14.96 17.50
  C 14.70 19.17 14.00 20.62 14.00 22.30
  Q 14.00 84.77 14.00 147.25
  Q 14.00 148.78 17.00 152.96
  L 16.29 152.50
  Q 14.12 149.88 13.46 146.50
  L 13.71 20.25
  L 14.04 19.25
  L 14.96 17.50
  Z"
/>
<path fill="#020101" fill-opacity="0.216" d="
  M 13.71 20.25
  L 13.46 146.50
  Q 12.22 145.17 11.98 147.00
  A 2.42 0.84 -78.5 0 0 12.24 148.94
  Q 13.87 150.49 12.30 150.03
  A 0.72 0.66 -82.8 0 1 11.83 149.37
  C 11.77 147.05 11.00 145.00 11.00 142.85
  Q 11.00 83.43 11.00 24.00
  Q 11.00 23.59 11.23 23.06
  Q 11.71 21.98 11.44 20.52
  Q 11.30 19.73 11.88 20.29
  Q 13.31 21.68 13.71 20.25
  Z"
/>
<path fill="#020101" fill-opacity="0.216" d="
  M 114.50 21.04
  Q 114.78 21.50 115.09 21.36
  A 0.26 0.21 -17.0 0 1 115.45 21.50
  Q 115.67 24.18 115.73 26.82
  C 116.54 63.47 115.65 100.20 116.40 136.67
  C 116.47 139.85 115.63 143.26 115.73 146.73
  A 0.50 0.39 -88.7 0 1 115.31 147.25
  Q 115.18 147.24 115.06 147.18
  A 0.37 0.29 -70.3 0 1 114.93 146.79
  Q 115.28 145.39 114.54 144.25
  C 114.29 103.18 114.65 62.11 114.50 21.04
  Z"
/>
<path fill="#ffffff" d="
  M 23.88 34.24
  C 24.08 33.23 25.51 25.20 25.70 25.22
  A 0.47 0.35 86.2 0 1 26.03 25.60
  L 27.62 34.20
  A 0.56 0.52 76.8 0 1 27.26 34.84
  Q 25.73 35.27 24.26 34.88
  A 0.55 0.53 -76.5 0 1 23.88 34.24
  Z"
/>
<path fill="#2d261b" d="
  M 28.52 56.49
  Q 31.13 55.43 33.06 56.75
  C 38.49 60.44 30.17 67.17 27.35 61.16
  A 0.89 0.61 77.1 0 0 26.84 60.69
  C 25.55 60.42 27.99 65.45 28.15 65.82
  A 0.41 0.36 77.9 0 1 27.84 66.38
  L 24.16 66.38
  A 0.42 0.35 -77.8 0 1 23.86 65.81
  C 24.06 65.34 26.40 60.53 25.18 60.68
  A 0.97 0.64 -72.0 0 0 24.60 61.14
  Q 22.44 64.93 18.41 62.58
  Q 16.24 61.31 17.22 59.00
  Q 19.09 54.56 23.25 56.65
  Q 24.60 57.32 23.57 56.22
  C 19.33 51.64 26.21 46.93 28.99 51.13
  Q 30.74 53.78 28.41 56.33
  Q 28.12 56.65 28.52 56.49
  Z"
/>
<path fill="#2d261b" d="
  M 61.57 82.35
  Q 58.24 79.23 60.43 76.16
  C 64.36 70.65 72.22 77.70 66.24 82.42
  A 0.29 0.24 -45.3 0 0 66.20 82.84
  L 66.33 82.94
  A 0.31 0.18 -41.2 0 0 66.62 82.88
  C 71.98 79.05 77.29 86.17 72.07 89.61
  Q 68.44 92.00 65.79 87.85
  A 0.94 0.57 63.6 0 0 65.04 87.37
  C 63.83 87.56 66.21 92.55 66.54 93.22
  A 0.34 0.32 76.6 0 1 66.26 93.70
  L 61.76 93.70
  A 0.34 0.33 -77.2 0 1 61.47 93.22
  C 61.91 92.29 63.92 88.12 62.99 87.47
  A 0.50 0.41 -60.1 0 0 62.34 87.72
  C 60.79 90.97 56.08 91.39 54.40 88.21
  C 52.41 84.46 55.99 80.49 60.06 82.20
  Q 60.73 82.49 61.45 82.62
  Q 61.94 82.71 61.57 82.35
  Z"
/>
<path fill="#2d261b" d="
  M 104.24 111.80
  Q 106.35 113.25 105.71 115.49
  C 103.82 122.07 94.46 116.43 99.82 111.73
  A 0.38 0.28 -41.4 0 0 99.92 111.27
  C 99.81 111.14 95.88 113.19 93.54 109.93
  Q 91.59 107.20 94.43 105.45
  Q 98.18 103.14 100.54 106.60
  C 102.35 109.24 99.92 102.23 99.89 102.17
  A 0.41 0.35 77.3 0 1 100.19 101.61
  L 103.82 101.61
  A 0.41 0.35 -77.3 0 1 104.12 102.17
  C 104.11 102.19 101.39 108.23 103.25 106.87
  C 105.62 105.13 105.91 103.12 109.58 105.44
  Q 111.85 106.87 110.74 109.20
  Q 108.67 113.54 104.50 111.19
  A 0.39 0.26 24.7 0 0 103.98 111.27
  Q 103.96 111.36 103.99 111.48
  A 0.61 0.39 19.4 0 0 104.24 111.80
  Z"
/>
<path fill="#2d261b" d="
  M 99.26 127.56
  Q 99.23 128.43 99.57 129.26
  A 0.80 0.77 -11.1 0 0 100.30 129.73
  L 104.17 129.73
  A 0.74 0.58 4.1 0 0 104.88 129.25
  L 105.17 127.79
  A 0.84 0.55 23.3 0 0 104.70 127.08
  Q 103.11 126.22 103.78 124.10
  A 0.75 0.69 -80.1 0 1 104.45 123.58
  L 110.28 123.60
  A 0.75 0.69 80.1 0 1 110.95 124.12
  Q 111.93 127.10 109.16 127.16
  A 0.61 0.57 4.0 0 0 108.58 127.63
  L 104.39 149.96
  A 0.98 0.94 -84.2 0 1 103.45 150.76
  L 100.77 150.72
  A 0.63 0.61 84.2 0 1 100.17 150.21
  L 95.92 127.64
  A 0.64 0.60 -3.9 0 0 95.32 127.15
  Q 92.49 127.03 93.59 123.97
  A 0.72 0.71 10.1 0 1 94.28 123.50
  L 100.02 123.56
  A 0.74 0.72 -9.5 0 1 100.71 124.04
  Q 101.53 126.29 99.78 126.93
  A 0.79 0.66 -10.6 0 0 99.26 127.56
  Z
  M 102.49 141.43
  L 104.13 133.77
  A 0.54 0.54 -76.6 0 0 103.74 133.13
  Q 102.27 132.73 100.76 133.14
  A 0.56 0.52 76.8 0 0 100.40 133.78
  L 101.77 141.39
  Q 102.10 143.24 102.49 141.43
  Z"
/>
<path fill="#ffffff" d="
  M 102.49 141.43
  Q 102.10 143.24 101.77 141.39
  L 100.40 133.78
  A 0.56 0.52 76.8 0 1 100.76 133.14
  Q 102.27 132.73 103.74 133.13
  A 0.54 0.54 -76.6 0 1 104.13 133.77
  L 102.49 141.43
  Z"
/>
<path fill="#020101" fill-opacity="0.216" d="
  M 114.21 148.25
  Q 116.22 149.84 114.83 151.85
  A 1.46 0.55 -9.6 0 1 114.04 152.31
  Q 113.53 152.47 113.48 153.02
  A 1.14 0.73 83.3 0 1 113.10 153.80
  C 108.89 156.68 103.36 157.95 97.94 158.01
  Q 62.94 158.39 27.94 158.21
  C 25.30 158.19 23.15 157.04 20.25 157.11
  A 1.74 1.29 -21.4 0 1 19.32 156.86
  L 15.58 154.29
  A 0.34 0.31 -44.1 0 1 15.61 153.75
  Q 16.29 153.27 16.29 152.50
  L 17.00 152.96
  Q 19.70 155.21 23.25 155.21
  Q 53.75 155.22 84.25 155.29
  Q 90.14 156.15 96.00 155.29
  L 99.21 155.50
  Q 101.68 156.17 104.47 155.46
  Q 111.60 155.12 114.21 148.25
  Z"
/>
<path fill="#2d261b" d="
  M 84.25 155.29
  L 96.00 155.29
  Q 90.14 156.15 84.25 155.29
  Z"
/>
<path fill="#2d261b" d="
  M 104.47 155.46
  Q 101.68 156.17 99.21 155.50
  L 104.47 155.46
  Z"
/>
</svg>
