<?xml version="1.0" encoding="UTF-8" standalone="no"?>
<svg xmlns="http://www.w3.org/2000/svg" version="1.2" baseProfile="tiny" viewBox="0 0 128 168">
<g stroke-width="0.00" fill="none" stroke-linecap="butt">
<path stroke="#d9d9d9" stroke-opacity="0.588" vector-effect="non-scaling-stroke" d="
  M 17.00 152.96
  Q 19.89 155.29 22.06 155.28
  Q 60.63 155.11 99.19 155.31
  C 109.65 155.36 114.51 154.24 114.51 142.49
  Q 114.50 83.22 114.49 23.95
  C 114.49 15.21 110.18 12.75 101.73 12.75
  Q 62.36 12.75 23.01 12.75
  Q 16.75 12.75 13.81 19.24"
/>
<path stroke="#f9fafa" stroke-opacity="0.988" vector-effect="non-scaling-stroke" d="
  M 17.00 152.96
  Q 14.00 148.77 14.00 147.25
  Q 14.14 83.25 13.81 19.24"
/>
<path stroke="#96938d" vector-effect="non-scaling-stroke" d="
  M 22.81 20.80
  L 31.19 20.73
  A 0.54 0.50 0.0 0 0 31.73 20.23
  L 31.73 17.78
  A 0.54 0.52 -0.5 0 0 31.19 17.27
  L 19.30 17.28
  A 0.52 0.51 0.0 0 0 18.78 17.79
  L 18.79 27.16
  A 1.41 1.22 -68.9 0 0 19.11 28.05
  Q 19.97 29.02 21.16 29.04
  A 1.32 0.97 -60.8 0 0 22.01 28.65
  C 25.27 25.51 28.97 27.11 30.57 30.80
  C 33.48 37.50 25.54 45.94 20.57 37.53
  A 0.99 0.81 72.2 0 0 19.83 37.05
  Q 18.29 37.00 17.54 38.16
  A 0.91 0.85 48.4 0 0 17.52 39.05
  C 20.20 44.27 25.88 46.21 30.78 42.48
  C 38.54 36.57 34.48 21.66 22.92 23.90
  A 0.50 0.41 -6.8 0 1 22.33 23.52
  L 22.25 21.31
  A 0.57 0.50 -1.1 0 1 22.81 20.80"
/>
<path stroke="#96938d" vector-effect="non-scaling-stroke" d="
  M 45.94 50.88
  L 43.96 50.35
  A 1.58 0.57 23.0 0 0 43.03 50.30
  Q 39.26 51.55 40.82 55.30
  A 1.51 1.49 4.6 0 0 41.45 56.03
  Q 44.71 57.99 46.77 54.96
  A 1.24 0.92 -71.4 0 1 47.52 54.44
  Q 49.05 54.26 49.77 55.54
  A 1.69 0.87 74.0 0 0 50.42 56.23
  C 55.53 58.72 57.91 51.52 52.76 50.26
  A 1.68 1.38 -44.9 0 0 51.81 50.35
  Q 48.17 51.83 50.69 49.87
  A 1.23 1.11 -18.1 0 0 51.15 49.07
  Q 51.64 43.90 46.75 44.88
  A 1.56 1.45 13.5 0 0 45.91 45.35
  Q 43.44 48.16 46.07 50.61
  Q 46.53 51.04 45.94 50.88"
/>
<path stroke="#96938d" vector-effect="non-scaling-stroke" d="
  M 81.96 50.63
  C 86.50 46.72 78.82 41.37 76.82 47.07
  Q 76.13 49.06 77.72 50.27
  Q 79.27 51.44 77.44 50.77
  Q 73.28 49.23 72.27 53.29
  A 1.48 1.37 41.2 0 0 72.37 54.24
  Q 74.74 59.17 78.94 54.89
  Q 80.61 53.19 79.60 55.36
  L 78.01 58.78
  A 0.42 0.42 -70.7 0 0 78.29 59.37
  Q 79.99 59.78 81.76 59.35
  A 0.42 0.38 70.7 0 0 81.99 58.79
  L 80.42 55.03
  Q 80.18 54.44 80.77 54.65
  Q 81.44 54.88 81.81 55.55
  A 1.68 0.93 76.4 0 0 82.44 56.24
  Q 85.81 57.90 87.55 54.59
  A 1.45 1.39 54.1 0 0 87.68 53.65
  Q 86.68 49.00 82.03 50.75
  Q 81.64 50.90 81.96 50.63"
/>
<path stroke="#96938d" vector-effect="non-scaling-stroke" d="
  M 28.41 56.33
  Q 30.38 54.16 29.42 51.91
  C 27.28 46.87 19.50 50.48 23.44 56.31
  Q 23.69 56.68 23.26 56.52
  C 17.12 54.18 14.93 61.91 20.11 63.32
  Q 22.92 64.09 24.60 61.14
  A 0.97 0.64 -72.0 0 1 25.18 60.68
  C 26.41 60.52 24.05 65.34 23.86 65.81
  A 0.42 0.36 -77.3 0 0 24.16 66.38
  L 27.82 66.39
  A 0.42 0.36 77.7 0 0 28.12 65.82
  L 26.44 61.46
  A 0.55 0.41 73.5 0 1 26.70 60.75
  C 27.50 60.63 28.69 64.29 31.79 63.41
  C 35.92 62.24 35.79 57.16 31.25 56.00
  A 1.83 0.73 -26.7 0 0 30.30 56.08
  L 28.55 56.61
  Q 28.01 56.77 28.41 56.33"
/>
<path stroke="#96938d" vector-effect="non-scaling-stroke" d="
  M 46.37 59.18
  Q 47.87 59.92 49.67 59.42
  A 0.45 0.44 -20.1 0 0 49.96 58.81
  L 48.24 55.12
  Q 48.01 54.62 47.76 55.13
  L 46.14 58.48
  A 0.53 0.52 -63.7 0 0 46.37 59.18"
/>
<path stroke="#96938d" vector-effect="non-scaling-stroke" d="
  M 65.17 82.58
  Q 67.27 80.29 65.45 77.58
  Q 63.52 74.71 61.05 77.25
  Q 58.23 80.15 61.16 82.68
  A 0.20 0.13 35.4 0 1 61.24 82.87
  Q 61.21 82.93 61.14 82.97
  A 0.45 0.23 35.1 0 1 60.78 82.92
  Q 56.51 80.89 55.29 85.27
  A 1.36 1.27 41.5 0 0 55.38 86.22
  C 58.87 93.50 62.57 83.06 64.93 87.67
  A 1.51 1.05 80.3 0 0 65.58 88.33
  C 72.20 91.13 72.35 79.92 65.27 82.74
  Q 64.87 82.90 65.17 82.58"
/>
<path stroke="#96938d" vector-effect="non-scaling-stroke" d="
  M 62.77 87.67
  Q 58.82 92.84 64.53 91.33
  A 0.44 0.43 -19.1 0 0 64.82 90.74
  L 63.54 87.77
  A 0.45 0.45 -37.6 0 0 62.77 87.67"
/>
<path stroke="#96938d" vector-effect="non-scaling-stroke" d="
  M 103.99 111.48
  Q 103.95 111.34 103.99 111.25
  A 0.44 0.25 25.5 0 1 104.53 111.21
  C 111.97 115.20 113.20 102.56 105.25 104.85
  A 1.77 1.28 -71.4 0 0 104.48 105.40
  L 103.50 106.61
  A 1.04 0.63 -59.9 0 1 102.75 107.02
  C 101.97 106.92 103.89 102.72 104.12 102.17
  A 0.41 0.35 -77.3 0 0 103.82 101.61
  L 100.19 101.61
  A 0.41 0.35 77.3 0 0 99.89 102.17
  C 99.92 102.24 102.36 109.29 100.52 106.57
  Q 98.35 103.38 94.79 105.14
  A 1.56 1.56 0.5 0 0 94.11 105.82
  Q 91.41 111.20 97.44 112.03
  A 1.38 0.92 -50.6 0 0 98.32 111.76
  Q 98.87 111.37 99.52 111.40
  Q 100.05 111.42 99.65 111.80
  C 94.75 116.42 103.46 121.97 105.68 115.68
  Q 106.50 113.37 104.25 111.81
  A 0.64 0.38 21.2 0 1 103.99 111.48"
/>
<path stroke="#96938d" vector-effect="non-scaling-stroke" d="
  M 50.05 117.13
  L 52.05 117.68
  A 1.62 0.68 25.4 0 0 52.98 117.72
  C 59.22 115.52 53.28 107.64 49.22 112.99
  Q 49.02 113.25 48.76 113.28
  A 0.39 0.34 -78.8 0 1 48.45 112.73
  L 49.95 109.21
  A 0.43 0.38 -70.5 0 0 49.72 108.64
  Q 48.02 108.21 46.23 108.65
  A 0.44 0.36 72.1 0 0 46.01 109.21
  L 47.42 112.95
  Q 47.68 113.63 47.02 113.31
  Q 46.63 113.13 46.40 112.70
  Q 46.07 112.11 45.82 111.93
  C 41.66 108.89 37.10 115.95 43.51 117.79
  A 1.46 0.42 -24.3 0 0 44.43 117.66
  L 45.99 117.14
  Q 46.63 116.92 46.09 117.39
  C 41.99 120.96 47.74 125.61 50.46 122.44
  Q 52.77 119.74 49.96 117.38
  Q 49.47 116.96 50.05 117.13"
/>
<path stroke="#96938d" vector-effect="non-scaling-stroke" d="
  M 82.05 117.13
  L 84.05 117.68
  A 1.62 0.68 25.4 0 0 84.98 117.72
  C 91.35 115.48 85.02 107.58 81.27 113.02
  Q 80.98 113.44 80.71 113.44
  A 0.53 0.38 -74.6 0 1 80.45 112.72
  L 81.95 109.21
  A 0.43 0.38 -70.5 0 0 81.72 108.64
  Q 80.02 108.21 78.23 108.65
  A 0.44 0.36 72.1 0 0 78.01 109.21
  L 79.42 112.95
  Q 79.68 113.63 79.02 113.31
  Q 78.63 113.13 78.40 112.70
  Q 78.07 112.11 77.83 111.93
  C 73.77 108.98 69.20 115.60 75.26 117.77
  A 1.47 0.54 -25.0 0 0 76.18 117.69
  L 77.98 117.13
  Q 78.60 116.94 78.09 117.39
  C 74.00 120.97 79.74 125.61 82.46 122.44
  Q 84.77 119.74 81.96 117.38
  Q 81.47 116.96 82.05 117.13"
/>
<path stroke="#96938d" vector-effect="non-scaling-stroke" d="
  M 105.73 144.30
  L 105.73 146.73
  A 0.54 0.50 -0.0 0 1 105.19 147.23
  L 97.03 147.26
  A 0.73 0.69 7.8 0 0 96.36 147.74
  Q 95.99 148.98 96.38 150.26
  A 0.70 0.66 -7.8 0 0 97.04 150.73
  L 108.71 150.72
  A 0.51 0.50 0.0 0 0 109.22 150.22
  L 109.25 141.00
  A 1.51 1.21 -69.7 0 0 108.95 140.10
  Q 108.20 139.20 107.04 138.87
  A 0.86 0.74 -59.0 0 0 106.23 139.14
  C 103.12 142.49 99.21 141.08 97.45 137.38
  C 94.39 130.98 102.12 121.75 107.62 130.65
  A 0.81 0.71 68.6 0 0 108.37 131.04
  Q 109.72 130.82 110.44 129.83
  A 0.85 0.79 50.0 0 0 110.48 128.96
  C 107.21 122.45 98.98 121.38 95.05 128.02
  C 90.64 135.47 95.41 146.65 105.20 143.95
  A 0.42 0.38 -8.2 0 1 105.73 144.30"
/>
</g>
<path fill="#010001" fill-opacity="0.090" d="
  M 120.34 69.26
  L 120.46 69.38
  A 0.36 0.21 -70.0 0 1 120.51 69.67
  C 119.28 76.87 120.49 84.56 120.49 90.53
  C 120.47 107.39 120.05 124.23 120.19 141.08
  C 120.24 147.32 119.58 150.23 116.30 155.05
  Q 115.31 156.52 114.04 156.76
  A 1.84 1.03 4.5 0 0 113.17 157.16
  Q 112.33 157.97 111.53 158.87
  C 109.65 160.98 107.65 161.36 104.79 160.91
  Q 104.29 160.83 104.19 161.21
  A 0.64 0.48 -81.2 0 1 103.69 161.70
  Q 88.06 161.81 72.44 162.03
  Q 70.83 162.05 69.91 162.29
  A 1.89 1.38 -35.5 0 1 68.96 162.28
  C 66.41 161.43 63.94 162.00 61.80 162.02
  Q 43.27 162.17 24.74 161.73
  A 1.31 0.61 53.8 0 1 23.98 161.31
  C 23.29 160.62 20.38 161.14 18.48 161.22
  A 0.38 0.37 -85.2 0 1 18.10 160.76
  Q 18.58 158.45 16.21 158.74
  A 1.17 0.87 -21.2 0 1 15.33 158.50
  L 9.54 152.90
  A 1.14 0.82 -70.7 0 1 9.29 152.04
  Q 9.44 150.63 8.51 149.65
  A 1.62 1.18 27.1 0 1 8.09 148.82
  C 7.79 146.35 7.00 144.12 7.00 141.69
  Q 7.00 87.35 7.00 33.01
  C 7.00 31.40 7.84 29.97 7.53 28.43
  Q 7.12 26.38 7.71 22.83
  Q 9.64 11.16 18.72 7.46
  Q 22.32 6.00 30.50 6.00
  Q 67.84 6.02 105.20 6.01
  A 0.56 0.43 3.8 0 1 105.77 6.51
  L 105.71 6.84
  A 0.30 0.20 -82.2 0 0 105.88 7.18
  L 109.20 7.32
  A 0.60 0.56 84.5 0 1 109.73 7.79
  Q 109.86 8.37 110.53 8.27
  A 1.56 0.85 -21.0 0 1 111.45 8.39
  Q 117.33 11.87 119.06 18.26
  C 119.49 19.84 120.24 21.19 120.23 22.73
  Q 120.12 45.62 120.44 68.50
  A 0.47 0.26 -36.1 0 1 120.30 68.80
  L 120.19 68.92
  A 0.34 0.15 42.6 0 0 120.34 69.26
  Z
  M 105.73 9.98
  Q 103.87 9.19 101.75 9.19
  Q 64.12 9.22 26.49 9.26
  Q 23.94 9.26 21.62 9.99
  C 17.53 11.27 15.25 12.31 12.11 15.13
  A 0.84 0.69 64.2 0 0 11.92 15.93
  Q 12.16 16.83 10.89 16.89
  A 2.51 1.08 -89.0 0 0 9.80 19.31
  C 9.27 38.60 9.68 58.14 9.71 77.07
  Q 9.77 110.91 9.80 144.75
  A 1.10 1.07 20.6 0 0 10.19 145.58
  L 10.92 146.21
  A 0.92 0.85 -66.7 0 1 11.21 147.03
  Q 10.65 150.52 13.25 152.47
  A 1.70 1.44 -85.3 0 1 13.80 153.24
  Q 14.36 154.85 16.07 155.37
  A 1.52 1.29 77.8 0 1 16.80 155.93
  L 17.65 157.17
  A 1.11 0.77 -10.2 0 0 18.46 157.54
  Q 19.71 157.59 20.66 158.51
  A 1.41 1.12 62.5 0 0 21.51 158.89
  Q 29.18 159.05 36.85 159.39
  C 58.49 160.36 80.40 159.74 102.29 159.75
  Q 103.38 159.75 104.37 159.31
  Q 105.87 158.66 107.01 158.71
  A 1.46 1.13 22.2 0 0 107.91 158.46
  C 110.95 156.13 114.35 154.81 115.80 150.95
  A 1.65 1.33 -11.6 0 1 116.39 150.23
  L 117.10 149.74
  A 0.95 0.83 73.0 0 0 117.46 148.94
  C 117.35 146.74 118.00 144.63 118.00 142.68
  Q 118.01 83.94 117.99 25.19
  C 117.99 23.99 116.86 16.76 115.61 16.71
  A 0.76 0.47 -6.2 0 1 115.02 16.43
  C 113.46 13.48 110.28 9.82 106.69 10.13
  Q 106.18 10.17 105.73 9.98
  Z"
/>
<path fill="#010202" fill-opacity="0.176" d="
  M 106.69 10.13
  C 110.28 9.82 113.46 13.48 115.02 16.43
  A 0.76 0.47 -6.2 0 0 115.61 16.71
  C 116.86 16.76 117.99 23.99 117.99 25.19
  Q 118.01 83.94 118.00 142.68
  C 118.00 144.63 117.35 146.74 117.46 148.94
  A 0.95 0.83 73.0 0 1 117.10 149.74
  L 116.39 150.23
  A 1.65 1.33 -11.6 0 0 115.80 150.95
  C 114.35 154.81 110.95 156.13 107.91 158.46
  A 1.46 1.13 22.2 0 1 107.01 158.71
  Q 105.87 158.66 104.37 159.31
  Q 103.38 159.75 102.29 159.75
  C 80.40 159.74 58.49 160.36 36.85 159.39
  Q 29.18 159.05 21.51 158.89
  A 1.41 1.12 62.5 0 1 20.66 158.51
  Q 19.71 157.59 18.46 157.54
  A 1.11 0.77 -10.2 0 1 17.65 157.17
  L 16.80 155.93
  A 1.52 1.29 77.8 0 0 16.07 155.37
  Q 14.36 154.85 13.80 153.24
  A 1.70 1.44 -85.3 0 0 13.25 152.47
  Q 10.65 150.52 11.21 147.03
  A 0.92 0.85 -66.7 0 0 10.92 146.21
  L 10.19 145.58
  A 1.10 1.07 20.6 0 1 9.80 144.75
  Q 9.77 110.91 9.71 77.07
  C 9.68 58.14 9.27 38.60 9.80 19.31
  A 2.51 1.08 -89.0 0 1 10.89 16.89
  Q 12.16 16.83 11.92 15.93
  A 0.84 0.69 64.2 0 1 12.11 15.13
  C 15.25 12.31 17.53 11.27 21.62 9.99
  Q 23.94 9.26 26.49 9.26
  Q 64.12 9.22 101.75 9.19
  Q 103.87 9.19 105.73 9.98
  Q 106.18 10.17 106.69 10.13
  Z
  M 13.81 19.24
  Q 13.02 108.78 13.52 146.69
  Q 13.56 150.05 17.00 152.96
  Q 19.89 155.29 22.06 155.28
  Q 60.63 155.11 99.19 155.31
  C 109.65 155.36 114.51 154.24 114.51 142.49
  Q 114.50 83.22 114.49 23.95
  C 114.49 15.21 110.18 12.75 101.73 12.75
  Q 62.36 12.75 23.01 12.75
  Q 16.75 12.75 13.81 19.24
  Z
  M 114.81 72.55
  Q 114.81 87.69 115.00 72.84
  C 115.00 72.67 115.01 72.77 114.91 72.53
  Q 114.81 72.31 114.81 72.55
  Z
  M 115.01 105.67
  A 0.12 0.12 0.0 0 0 114.89 105.55
  L 114.87 105.55
  A 0.12 0.12 0.0 0 0 114.75 105.67
  L 114.75 129.33
  A 0.12 0.12 0.0 0 0 114.87 129.45
  L 114.89 129.45
  A 0.12 0.12 0.0 0 0 115.01 129.33
  L 115.01 105.67
  Z"
/>
<path fill="#ffffff" d="
  M 17.00 152.96
  Q 14.00 148.77 14.00 147.25
  Q 14.14 83.25 13.81 19.24
  Q 16.75 12.75 23.01 12.75
  Q 62.36 12.75 101.73 12.75
  C 110.18 12.75 114.49 15.21 114.49 23.95
  Q 114.50 83.22 114.51 142.49
  C 114.51 154.24 109.65 155.36 99.19 155.31
  Q 60.63 155.11 22.06 155.28
  Q 19.89 155.29 17.00 152.96
  Z
  M 22.81 20.80
  L 31.19 20.73
  A 0.54 0.50 0.0 0 0 31.73 20.23
  L 31.73 17.78
  A 0.54 0.52 -0.5 0 0 31.19 17.27
  L 19.30 17.28
  A 0.52 0.51 0.0 0 0 18.78 17.79
  L 18.79 27.16
  A 1.41 1.22 -68.9 0 0 19.11 28.05
  Q 19.97 29.02 21.16 29.04
  A 1.32 0.97 -60.8 0 0 22.01 28.65
  C 25.27 25.51 28.97 27.11 30.57 30.80
  C 33.48 37.50 25.54 45.94 20.57 37.53
  A 0.99 0.81 72.2 0 0 19.83 37.05
  Q 18.29 37.00 17.54 38.16
  A 0.91 0.85 48.4 0 0 17.52 39.05
  C 20.20 44.27 25.88 46.21 30.78 42.48
  C 38.54 36.57 34.48 21.66 22.92 23.90
  A 0.50 0.41 -6.8 0 1 22.33 23.52
  L 22.25 21.31
  A 0.57 0.50 -1.1 0 1 22.81 20.80
  Z
  M 45.94 50.88
  L 43.96 50.35
  A 1.58 0.57 23.0 0 0 43.03 50.30
  Q 39.26 51.55 40.82 55.30
  A 1.51 1.49 4.6 0 0 41.45 56.03
  Q 44.71 57.99 46.77 54.96
  A 1.24 0.92 -71.4 0 1 47.52 54.44
  Q 49.05 54.26 49.77 55.54
  A 1.69 0.87 74.0 0 0 50.42 56.23
  C 55.53 58.72 57.91 51.52 52.76 50.26
  A 1.68 1.38 -44.9 0 0 51.81 50.35
  Q 48.17 51.83 50.69 49.87
  A 1.23 1.11 -18.1 0 0 51.15 49.07
  Q 51.64 43.90 46.75 44.88
  A 1.56 1.45 13.5 0 0 45.91 45.35
  Q 43.44 48.16 46.07 50.61
  Q 46.53 51.04 45.94 50.88
  Z
  M 81.96 50.63
  C 86.50 46.72 78.82 41.37 76.82 47.07
  Q 76.13 49.06 77.72 50.27
  Q 79.27 51.44 77.44 50.77
  Q 73.28 49.23 72.27 53.29
  A 1.48 1.37 41.2 0 0 72.37 54.24
  Q 74.74 59.17 78.94 54.89
  Q 80.61 53.19 79.60 55.36
  L 78.01 58.78
  A 0.42 0.42 -70.7 0 0 78.29 59.37
  Q 79.99 59.78 81.76 59.35
  A 0.42 0.38 70.7 0 0 81.99 58.79
  L 80.42 55.03
  Q 80.18 54.44 80.77 54.65
  Q 81.44 54.88 81.81 55.55
  A 1.68 0.93 76.4 0 0 82.44 56.24
  Q 85.81 57.90 87.55 54.59
  A 1.45 1.39 54.1 0 0 87.68 53.65
  Q 86.68 49.00 82.03 50.75
  Q 81.64 50.90 81.96 50.63
  Z
  M 28.41 56.33
  Q 30.38 54.16 29.42 51.91
  C 27.28 46.87 19.50 50.48 23.44 56.31
  Q 23.69 56.68 23.26 56.52
  C 17.12 54.18 14.93 61.91 20.11 63.32
  Q 22.92 64.09 24.60 61.14
  A 0.97 0.64 -72.0 0 1 25.18 60.68
  C 26.41 60.52 24.05 65.34 23.86 65.81
  A 0.42 0.36 -77.3 0 0 24.16 66.38
  L 27.82 66.39
  A 0.42 0.36 77.7 0 0 28.12 65.82
  L 26.44 61.46
  A 0.55 0.41 73.5 0 1 26.70 60.75
  C 27.50 60.63 28.69 64.29 31.79 63.41
  C 35.92 62.24 35.79 57.16 31.25 56.00
  A 1.83 0.73 -26.7 0 0 30.30 56.08
  L 28.55 56.61
  Q 28.01 56.77 28.41 56.33
  Z
  M 46.37 59.18
  Q 47.87 59.92 49.67 59.42
  A 0.45 0.44 -20.1 0 0 49.96 58.81
  L 48.24 55.12
  Q 48.01 54.62 47.76 55.13
  L 46.14 58.48
  A 0.53 0.52 -63.7 0 0 46.37 59.18
  Z
  M 65.17 82.58
  Q 67.27 80.29 65.45 77.58
  Q 63.52 74.71 61.05 77.25
  Q 58.23 80.15 61.16 82.68
  A 0.20 0.13 35.4 0 1 61.24 82.87
  Q 61.21 82.93 61.14 82.97
  A 0.45 0.23 35.1 0 1 60.78 82.92
  Q 56.51 80.89 55.29 85.27
  A 1.36 1.27 41.5 0 0 55.38 86.22
  C 58.87 93.50 62.57 83.06 64.93 87.67
  A 1.51 1.05 80.3 0 0 65.58 88.33
  C 72.20 91.13 72.35 79.92 65.27 82.74
  Q 64.87 82.90 65.17 82.58
  Z
  M 62.77 87.67
  Q 58.82 92.84 64.53 91.33
  A 0.44 0.43 -19.1 0 0 64.82 90.74
  L 63.54 87.77
  A 0.45 0.45 -37.6 0 0 62.77 87.67
  Z
  M 103.99 111.48
  Q 103.95 111.34 103.99 111.25
  A 0.44 0.25 25.5 0 1 104.53 111.21
  C 111.97 115.20 113.20 102.56 105.25 104.85
  A 1.77 1.28 -71.4 0 0 104.48 105.40
  L 103.50 106.61
  A 1.04 0.63 -59.9 0 1 102.75 107.02
  C 101.97 106.92 103.89 102.72 104.12 102.17
  A 0.41 0.35 -77.3 0 0 103.82 101.61
  L 100.19 101.61
  A 0.41 0.35 77.3 0 0 99.89 102.17
  C 99.92 102.24 102.36 109.29 100.52 106.57
  Q 98.35 103.38 94.79 105.14
  A 1.56 1.56 0.5 0 0 94.11 105.82
  Q 91.41 111.20 97.44 112.03
  A 1.38 0.92 -50.6 0 0 98.32 111.76
  Q 98.87 111.37 99.52 111.40
  Q 100.05 111.42 99.65 111.80
  C 94.75 116.42 103.46 121.97 105.68 115.68
  Q 106.50 113.37 104.25 111.81
  A 0.64 0.38 21.2 0 1 103.99 111.48
  Z
  M 50.05 117.13
  L 52.05 117.68
  A 1.62 0.68 25.4 0 0 52.98 117.72
  C 59.22 115.52 53.28 107.64 49.22 112.99
  Q 49.02 113.25 48.76 113.28
  A 0.39 0.34 -78.8 0 1 48.45 112.73
  L 49.95 109.21
  A 0.43 0.38 -70.5 0 0 49.72 108.64
  Q 48.02 108.21 46.23 108.65
  A 0.44 0.36 72.1 0 0 46.01 109.21
  L 47.42 112.95
  Q 47.68 113.63 47.02 113.31
  Q 46.63 113.13 46.40 112.70
  Q 46.07 112.11 45.82 111.93
  C 41.66 108.89 37.10 115.95 43.51 117.79
  A 1.46 0.42 -24.3 0 0 44.43 117.66
  L 45.99 117.14
  Q 46.63 116.92 46.09 117.39
  C 41.99 120.96 47.74 125.61 50.46 122.44
  Q 52.77 119.74 49.96 117.38
  Q 49.47 116.96 50.05 117.13
  Z
  M 82.05 117.13
  L 84.05 117.68
  A 1.62 0.68 25.4 0 0 84.98 117.72
  C 91.35 115.48 85.02 107.58 81.27 113.02
  Q 80.98 113.44 80.71 113.44
  A 0.53 0.38 -74.6 0 1 80.45 112.72
  L 81.95 109.21
  A 0.43 0.38 -70.5 0 0 81.72 108.64
  Q 80.02 108.21 78.23 108.65
  A 0.44 0.36 72.1 0 0 78.01 109.21
  L 79.42 112.95
  Q 79.68 113.63 79.02 113.31
  Q 78.63 113.13 78.40 112.70
  Q 78.07 112.11 77.83 111.93
  C 73.77 108.98 69.20 115.60 75.26 117.77
  A 1.47 0.54 -25.0 0 0 76.18 117.69
  L 77.98 117.13
  Q 78.60 116.94 78.09 117.39
  C 74.00 120.97 79.74 125.61 82.46 122.44
  Q 84.77 119.74 81.96 117.38
  Q 81.47 116.96 82.05 117.13
  Z
  M 105.73 144.30
  L 105.73 146.73
  A 0.54 0.50 -0.0 0 1 105.19 147.23
  L 97.03 147.26
  A 0.73 0.69 7.8 0 0 96.36 147.74
  Q 95.99 148.98 96.38 150.26
  A 0.70 0.66 -7.8 0 0 97.04 150.73
  L 108.71 150.72
  A 0.51 0.50 0.0 0 0 109.22 150.22
  L 109.25 141.00
  A 1.51 1.21 -69.7 0 0 108.95 140.10
  Q 108.20 139.20 107.04 138.87
  A 0.86 0.74 -59.0 0 0 106.23 139.14
  C 103.12 142.49 99.21 141.08 97.45 137.38
  C 94.39 130.98 102.12 121.75 107.62 130.65
  A 0.81 0.71 68.6 0 0 108.37 131.04
  Q 109.72 130.82 110.44 129.83
  A 0.85 0.79 50.0 0 0 110.48 128.96
  C 107.21 122.45 98.98 121.38 95.05 128.02
  C 90.64 135.47 95.41 146.65 105.20 143.95
  A 0.42 0.38 -8.2 0 1 105.73 144.30
  Z"
/>
<path fill="#2d261b" d="
  M 22.25 21.31
  L 22.33 23.52
  A 0.50 0.41 -6.8 0 0 22.92 23.90
  C 34.48 21.66 38.54 36.57 30.78 42.48
  C 25.88 46.21 20.20 44.27 17.52 39.05
  A 0.91 0.85 48.4 0 1 17.54 38.16
  Q 18.29 37.00 19.83 37.05
  A 0.99 0.81 72.2 0 1 20.57 37.53
  C 25.54 45.94 33.48 37.50 30.57 30.80
  C 28.97 27.11 25.27 25.51 22.01 28.65
  A 1.32 0.97 -60.8 0 1 21.16 29.04
  Q 19.97 29.02 19.11 28.05
  A 1.41 1.22 -68.9 0 1 18.79 27.16
  L 18.78 17.79
  A 0.52 0.51 -0.0 0 1 19.30 17.28
  L 31.19 17.27
  A 0.54 0.52 -0.5 0 1 31.73 17.78
  L 31.73 20.23
  A 0.54 0.50 0.0 0 1 31.19 20.73
  L 22.81 20.80
  A 0.57 0.50 -1.1 0 0 22.25 21.31
  Z"
/>
<path fill="#f2f4f5" fill-opacity="0.973" d="
  M 13.81 19.24
  Q 14.14 83.25 14.00 147.25
  Q 14.00 148.77 17.00 152.96
  Q 13.56 150.05 13.52 146.69
  Q 13.02 108.78 13.81 19.24
  Z"
/>
<path fill="#2d261b" d="
  M 46.07 50.61
  Q 43.44 48.16 45.91 45.35
  A 1.56 1.45 13.5 0 1 46.75 44.88
  Q 51.64 43.90 51.15 49.07
  A 1.23 1.11 -18.1 0 1 50.69 49.87
  Q 48.17 51.83 51.81 50.35
  A 1.68 1.38 -44.9 0 1 52.76 50.26
  C 57.91 51.52 55.53 58.72 50.42 56.23
  A 1.69 0.87 74.0 0 1 49.77 55.54
  Q 49.05 54.26 47.52 54.44
  A 1.24 0.92 -71.4 0 0 46.77 54.96
  Q 44.71 57.99 41.45 56.03
  A 1.51 1.49 4.6 0 1 40.82 55.30
  Q 39.26 51.55 43.03 50.30
  A 1.58 0.57 23.0 0 1 43.96 50.35
  L 45.94 50.88
  Q 46.53 51.04 46.07 50.61
  Z"
/>
<path fill="#2d261b" d="
  M 82.03 50.75
  Q 86.68 49.00 87.68 53.65
  A 1.45 1.39 54.1 0 1 87.55 54.59
  Q 85.81 57.90 82.44 56.24
  A 1.68 0.93 76.4 0 1 81.81 55.55
  Q 81.44 54.88 80.77 54.65
  Q 80.18 54.44 80.42 55.03
  L 81.99 58.79
  A 0.42 0.38 70.7 0 1 81.76 59.35
  Q 79.99 59.78 78.29 59.37
  A 0.42 0.42 -70.7 0 1 78.01 58.78
  L 79.60 55.36
  Q 80.61 53.19 78.94 54.89
  Q 74.74 59.17 72.37 54.24
  A 1.48 1.37 41.2 0 1 72.27 53.29
  Q 73.28 49.23 77.44 50.77
  Q 79.27 51.44 77.72 50.27
  Q 76.13 49.06 76.82 47.07
  C 78.82 41.37 86.50 46.72 81.96 50.63
  Q 81.64 50.90 82.03 50.75
  Z"
/>
<path fill="#2d261b" d="
  M 28.55 56.61
  L 30.30 56.08
  A 1.83 0.73 -26.7 0 1 31.25 56.00
  C 35.79 57.16 35.92 62.24 31.79 63.41
  C 28.69 64.29 27.50 60.63 26.70 60.75
  A 0.55 0.41 73.5 0 0 26.44 61.46
  L 28.12 65.82
  A 0.42 0.36 77.7 0 1 27.82 66.39
  L 24.16 66.38
  A 0.42 0.36 -77.3 0 1 23.86 65.81
  C 24.05 65.34 26.41 60.52 25.18 60.68
  A 0.97 0.64 -72.0 0 0 24.60 61.14
  Q 22.92 64.09 20.11 63.32
  C 14.93 61.91 17.12 54.18 23.26 56.52
  Q 23.69 56.68 23.44 56.31
  C 19.50 50.48 27.28 46.87 29.42 51.91
  Q 30.38 54.16 28.41 56.33
  Q 28.01 56.77 28.55 56.61
  Z"
/>
<path fill="#2d261b" d="
  M 46.14 58.48
  L 47.76 55.13
  Q 48.01 54.62 48.24 55.12
  L 49.96 58.81
  A 0.45 0.44 -20.1 0 1 49.67 59.42
  Q 47.87 59.92 46.37 59.18
  A 0.53 0.52 -63.7 0 1 46.14 58.48
  Z"
/>
<path fill="#010001" fill-opacity="0.090" d="
  M 114.91 72.53
  C 115.01 72.77 115.00 72.67 115.00 72.84
  Q 114.81 87.69 114.81 72.55
  Q 114.81 72.31 114.91 72.53
  Z"
/>
<path fill="#2d261b" d="
  M 65.27 82.74
  C 72.35 79.92 72.20 91.13 65.58 88.33
  A 1.51 1.05 80.3 0 1 64.93 87.67
  C 62.57 83.06 58.87 93.50 55.38 86.22
  A 1.36 1.27 41.5 0 1 55.29 85.27
  Q 56.51 80.89 60.78 82.92
  A 0.45 0.23 35.1 0 0 61.14 82.97
  Q 61.21 82.93 61.24 82.87
  A 0.20 0.13 35.4 0 0 61.16 82.68
  Q 58.23 80.15 61.05 77.25
  Q 63.52 74.71 65.45 77.58
  Q 67.27 80.29 65.17 82.58
  Q 64.87 82.90 65.27 82.74
  Z"
/>
<path fill="#2d261b" d="
  M 62.77 87.67
  A 0.45 0.45 -37.6 0 1 63.54 87.77
  L 64.82 90.74
  A 0.44 0.43 -19.1 0 1 64.53 91.33
  Q 58.82 92.84 62.77 87.67
  Z"
/>
<path fill="#2d261b" d="
  M 104.25 111.81
  Q 106.50 113.37 105.68 115.68
  C 103.46 121.97 94.75 116.42 99.65 111.80
  Q 100.05 111.42 99.52 111.40
  Q 98.87 111.37 98.32 111.76
  A 1.38 0.92 -50.6 0 1 97.44 112.03
  Q 91.41 111.20 94.11 105.82
  A 1.56 1.56 -1.8 0 1 94.79 105.14
  Q 98.35 103.38 100.52 106.57
  C 102.36 109.29 99.92 102.24 99.89 102.17
  A 0.41 0.35 77.3 0 1 100.19 101.61
  L 103.82 101.61
  A 0.41 0.35 -77.3 0 1 104.12 102.17
  C 103.89 102.72 101.97 106.92 102.75 107.02
  A 1.04 0.63 -59.9 0 0 103.50 106.61
  L 104.48 105.40
  A 1.77 1.28 -71.4 0 1 105.25 104.85
  C 113.20 102.56 111.97 115.20 104.53 111.21
  A 0.44 0.25 25.5 0 0 103.99 111.25
  Q 103.95 111.34 103.99 111.48
  A 0.64 0.38 21.2 0 0 104.25 111.81
  Z"
/>
<rect fill="#010001" fill-opacity="0.090" x="114.75" y="105.55" width="0.26" height="23.90" rx="0.12"/>
<path fill="#2d261b" d="
  M 49.96 117.38
  Q 52.77 119.74 50.46 122.44
  C 47.74 125.61 41.99 120.96 46.09 117.39
  Q 46.63 116.92 45.99 117.14
  L 44.43 117.66
  A 1.46 0.42 -24.3 0 1 43.51 117.79
  C 37.10 115.95 41.66 108.89 45.82 111.93
  Q 46.07 112.11 46.40 112.70
  Q 46.63 113.13 47.02 113.31
  Q 47.68 113.63 47.42 112.95
  L 46.01 109.21
  A 0.44 0.36 72.1 0 1 46.23 108.65
  Q 48.02 108.21 49.72 108.64
  A 0.43 0.38 -70.5 0 1 49.95 109.21
  L 48.45 112.73
  A 0.39 0.34 -78.8 0 0 48.76 113.28
  Q 49.02 113.25 49.22 112.99
  C 53.28 107.64 59.22 115.52 52.98 117.72
  A 1.62 0.68 25.4 0 1 52.05 117.68
  L 50.05 117.13
  Q 49.47 116.96 49.96 117.38
  Z"
/>
<path fill="#2d261b" d="
  M 81.96 117.38
  Q 84.77 119.74 82.46 122.44
  C 79.74 125.61 74.00 120.97 78.09 117.39
  Q 78.60 116.94 77.98 117.13
  L 76.18 117.69
  A 1.47 0.54 -25.0 0 1 75.26 117.77
  C 69.20 115.60 73.77 108.98 77.83 111.93
  Q 78.07 112.11 78.40 112.70
  Q 78.63 113.13 79.02 113.31
  Q 79.68 113.63 79.42 112.95
  L 78.01 109.21
  A 0.44 0.36 72.1 0 1 78.23 108.65
  Q 80.02 108.21 81.72 108.64
  A 0.43 0.38 -70.5 0 1 81.95 109.21
  L 80.45 112.72
  A 0.53 0.38 -74.6 0 0 80.71 113.44
  Q 80.98 113.44 81.27 113.02
  C 85.02 107.58 91.35 115.48 84.98 117.72
  A 1.62 0.68 25.4 0 1 84.05 117.68
  L 82.05 117.13
  Q 81.47 116.96 81.96 117.38
  Z"
/>
<path fill="#2d261b" d="
  M 105.20 143.95
  C 95.41 146.65 90.64 135.47 95.05 128.02
  C 98.98 121.38 107.21 122.45 110.48 128.96
  A 0.85 0.79 50.0 0 1 110.44 129.83
  Q 109.72 130.82 108.37 131.04
  A 0.81 0.71 68.6 0 1 107.62 130.65
  C 102.12 121.75 94.39 130.98 97.45 137.38
  C 99.21 141.08 103.12 142.49 106.23 139.14
  A 0.86 0.74 -59.0 0 1 107.04 138.87
  Q 108.20 139.20 108.95 140.10
  A 1.51 1.21 -69.7 0 1 109.25 141.00
  L 109.22 150.22
  A 0.51 0.50 -0.0 0 1 108.71 150.72
  L 97.04 150.73
  A 0.70 0.66 -7.8 0 1 96.38 150.26
  Q 95.99 148.98 96.36 147.74
  A 0.73 0.69 7.8 0 1 97.03 147.26
  L 105.19 147.23
  A 0.54 0.50 0.0 0 0 105.73 146.73
  L 105.73 144.30
  A 0.42 0.38 -8.2 0 0 105.20 143.95
  Z"
/>
</svg>
