<?xml version="1.0" encoding="UTF-8" standalone="no"?>
<svg xmlns="http://www.w3.org/2000/svg" version="1.2" baseProfile="tiny" viewBox="0 0 128 168">
<g stroke-width="0.00" fill="none" stroke-linecap="butt">
<path stroke="#dadada" stroke-opacity="0.588" vector-effect="non-scaling-stroke" d="
  M 16.94 153.28
  Q 25.34 156.40 34.80 155.32"
/>
<path stroke="#dadada" stroke-opacity="0.588" vector-effect="non-scaling-stroke" d="
  M 99.98 155.18
  Q 109.63 156.93 113.09 150.18
  Q 114.50 147.45 114.50 141.58
  Q 114.51 82.76 114.49 23.95
  C 114.49 15.20 110.19 12.76 101.73 12.75
  Q 63.37 12.73 25.01 12.77
  C 19.70 12.77 16.63 14.01 14.11 18.49"
/>
<path stroke="#cbcbcb" stroke-opacity="0.631" vector-effect="non-scaling-stroke" d="
  M 99.98 155.18
  L 34.80 155.32"
/>
<path stroke="#f9fafb" stroke-opacity="0.988" vector-effect="non-scaling-stroke" d="
  M 16.94 153.28
  Q 15.78 151.20 14.89 149.29
  Q 14.00 147.37 14.00 145.02
  Q 13.92 81.76 14.11 18.49"
/>
<path stroke="#96938d" vector-effect="non-scaling-stroke" d="
  M 27.20 40.71
  Q 24.95 40.94 25.70 43.64
  A 0.71 0.67 82.4 0 0 26.34 44.16
  L 32.34 44.17
  A 0.60 0.55 0.5 0 0 32.94 43.63
  L 32.98 41.47
  A 0.68 0.53 7.4 0 0 32.43 40.91
  Q 30.53 40.55 31.28 38.36
  A 0.80 0.79 -82.7 0 1 31.97 37.82
  L 33.67 37.69
  A 0.82 0.72 6.2 0 0 34.36 37.21
  Q 35.65 33.69 31.85 34.09
  A 0.45 0.44 -2.9 0 1 31.35 33.65
  L 31.26 18.05
  A 0.73 0.64 -82.6 0 0 30.81 17.37
  Q 29.64 16.98 28.55 17.38
  A 1.58 1.12 -76.6 0 0 27.84 18.00
  Q 22.86 26.10 17.74 34.13
  C 17.07 35.18 17.19 36.06 17.27 37.24
  A 0.55 0.52 -1.7 0 0 17.82 37.73
  L 27.19 37.77
  A 0.54 0.50 -0.0 0 1 27.73 38.27
  L 27.73 40.19
  A 0.60 0.51 -3.7 0 1 27.20 40.71"
/>
<path stroke="#96938d" vector-effect="non-scaling-stroke" d="
  M 45.94 50.88
  L 43.96 50.35
  A 1.58 0.57 23.0 0 0 43.03 50.30
  C 36.59 52.44 43.00 60.51 46.77 54.96
  A 1.20 0.89 -70.9 0 1 47.52 54.45
  Q 49.05 54.27 49.78 55.54
  A 1.77 0.97 75.0 0 0 50.44 56.23
  C 55.58 58.79 57.88 51.51 52.76 50.26
  A 1.68 1.38 -44.9 0 0 51.81 50.35
  Q 48.17 51.83 50.69 49.87
  A 1.23 1.11 -18.1 0 0 51.15 49.07
  Q 51.64 43.90 46.75 44.88
  A 1.56 1.45 13.5 0 0 45.91 45.35
  Q 43.44 48.16 46.07 50.61
  Q 46.53 51.04 45.94 50.88"
/>
<path stroke="#96938d" vector-effect="non-scaling-stroke" d="
  M 81.96 50.63
  C 86.50 46.72 78.82 41.37 76.82 47.07
  Q 76.13 49.06 77.72 50.27
  Q 79.26 51.44 77.44 50.77
  Q 73.28 49.24 72.26 53.28
  A 1.43 1.36 40.3 0 0 72.36 54.22
  C 75.85 61.50 79.49 51.22 81.80 55.55
  A 1.76 1.03 77.5 0 0 82.44 56.24
  Q 85.83 57.93 87.54 54.59
  A 1.43 1.40 52.8 0 0 87.66 53.64
  Q 86.69 49.00 82.03 50.75
  Q 81.64 50.90 81.96 50.63"
/>
<path stroke="#96938d" vector-effect="non-scaling-stroke" d="
  M 28.41 56.33
  Q 30.39 54.16 29.42 51.90
  C 27.20 46.76 19.39 50.66 23.43 56.30
  Q 23.69 56.66 23.28 56.51
  C 17.09 54.23 14.94 61.88 20.08 63.31
  Q 22.91 64.10 24.60 61.14
  A 0.97 0.64 -72.0 0 1 25.18 60.68
  C 26.41 60.52 24.05 65.34 23.86 65.81
  A 0.42 0.36 -77.3 0 0 24.16 66.38
  L 27.83 66.39
  A 0.42 0.35 77.5 0 0 28.12 65.82
  L 26.36 61.24
  A 0.40 0.32 65.0 0 1 26.47 60.80
  Q 26.60 60.72 26.74 60.71
  A 0.88 0.52 69.9 0 1 27.39 61.24
  C 30.23 67.15 38.47 60.38 33.08 56.73
  Q 31.14 55.42 28.53 56.48
  Q 28.12 56.65 28.41 56.33"
/>
<path stroke="#96938d" vector-effect="non-scaling-stroke" d="
  M 46.37 59.18
  Q 47.97 59.96 49.75 59.37
  A 0.45 0.44 67.7 0 0 50.00 58.75
  L 48.29 55.19
  Q 48.05 54.70 47.81 55.18
  L 46.13 58.47
  A 0.53 0.52 26.8 0 0 46.37 59.18"
/>
<path stroke="#96938d" vector-effect="non-scaling-stroke" d="
  M 78.89 56.84
  Q 76.05 60.79 81.60 59.35
  A 0.45 0.44 -18.8 0 0 81.90 58.75
  L 80.40 55.23
  A 0.41 0.39 58.6 0 0 79.78 55.06
  Q 79.35 55.42 79.23 55.94
  Q 79.10 56.55 78.89 56.84"
/>
<path stroke="#96938d" vector-effect="non-scaling-stroke" d="
  M 103.99 111.48
  Q 103.95 111.34 103.99 111.25
  A 0.44 0.25 25.5 0 1 104.53 111.21
  C 111.97 115.20 113.20 102.56 105.25 104.85
  A 1.77 1.28 -71.4 0 0 104.48 105.40
  L 103.50 106.61
  A 1.04 0.63 -59.9 0 1 102.75 107.02
  C 101.97 106.92 103.89 102.72 104.12 102.17
  A 0.41 0.35 -77.3 0 0 103.82 101.61
  L 100.19 101.61
  A 0.41 0.35 77.3 0 0 99.89 102.17
  C 99.92 102.23 102.35 109.25 100.53 106.59
  Q 98.24 103.23 94.55 105.32
  Q 91.64 106.97 93.56 109.92
  Q 95.39 112.73 99.42 111.49
  Q 100.50 111.15 99.62 111.86
  C 94.65 115.84 103.38 122.29 105.68 115.68
  Q 106.47 113.39 104.25 111.82
  A 0.68 0.38 23.1 0 1 103.99 111.48"
/>
<path stroke="#96938d" vector-effect="non-scaling-stroke" d="
  M 50.05 117.13
  L 52.05 117.68
  A 1.62 0.68 25.4 0 0 52.98 117.72
  C 59.35 115.48 53.02 107.58 49.27 113.02
  Q 48.98 113.44 48.71 113.44
  A 0.55 0.38 -75.0 0 1 48.45 112.71
  L 49.95 109.21
  A 0.43 0.38 -70.5 0 0 49.72 108.64
  Q 48.02 108.20 46.20 108.67
  A 0.36 0.34 64.6 0 0 46.03 109.22
  Q 47.20 110.94 47.29 113.04
  Q 47.31 113.52 47.02 113.11
  Q 45.22 110.58 42.14 111.51
  A 1.51 1.43 -80.3 0 0 41.38 112.08
  Q 38.49 116.35 43.51 117.79
  A 1.38 0.41 -24.4 0 0 44.43 117.66
  L 45.99 117.14
  Q 46.63 116.92 46.09 117.39
  C 41.99 120.96 47.74 125.61 50.46 122.44
  Q 52.77 119.74 49.96 117.38
  Q 49.47 116.96 50.05 117.13"
/>
<path stroke="#96938d" vector-effect="non-scaling-stroke" d="
  M 82.05 117.13
  L 84.05 117.68
  A 1.66 0.74 26.5 0 0 84.98 117.72
  C 91.23 115.54 85.23 107.47 81.18 113.17
  Q 80.92 113.53 80.65 113.45
  A 0.54 0.42 -69.0 0 1 80.44 112.77
  L 81.95 109.22
  A 0.44 0.38 -70.7 0 0 81.72 108.64
  Q 80.02 108.21 78.23 108.65
  A 0.44 0.36 72.1 0 0 78.01 109.21
  L 79.42 112.95
  Q 79.68 113.63 79.02 113.31
  Q 78.63 113.13 78.40 112.70
  Q 78.07 112.11 77.82 111.93
  C 73.66 108.89 69.10 115.95 75.51 117.79
  A 1.46 0.42 -24.3 0 0 76.43 117.66
  L 77.99 117.14
  Q 78.63 116.92 78.09 117.39
  C 73.99 120.96 79.74 125.61 82.46 122.44
  Q 84.77 119.74 81.96 117.38
  Q 81.47 116.96 82.05 117.13"
/>
<path stroke="#96938d" vector-effect="non-scaling-stroke" d="
  M 100.81 127.28
  L 101.71 127.22
  A 0.55 0.52 -1.8 0 0 102.23 126.70
  L 102.23 124.29
  A 0.54 0.52 0.6 0 0 101.70 123.77
  L 95.82 123.76
  A 0.75 0.74 10.1 0 0 95.12 124.24
  Q 94.13 126.76 96.25 127.36
  A 0.85 0.70 5.9 0 1 96.84 127.96
  Q 97.31 130.93 94.27 130.31
  A 0.57 0.56 15.1 0 0 93.62 130.68
  Q 92.36 134.42 96.20 133.84
  A 0.43 0.42 -4.7 0 1 96.70 134.25
  L 96.75 149.95
  A 0.73 0.65 -82.5 0 0 97.21 150.63
  Q 98.26 150.95 99.32 150.70
  A 1.31 1.06 -76.9 0 0 100.05 150.13
  L 110.33 133.72
  Q 112.48 130.29 108.49 130.27
  L 101.04 130.24
  A 0.67 0.51 -1.8 0 1 100.38 129.77
  L 100.23 127.81
  A 0.60 0.49 -3.5 0 1 100.81 127.28"
/>
<path stroke="#96938d" vector-effect="non-scaling-stroke" d="
  M 27.28 25.37
  C 25.37 27.70 23.50 31.08 22.00 33.73
  A 0.32 0.31 -75.0 0 0 22.26 34.20
  L 27.19 34.22
  A 0.52 0.52 89.5 0 0 27.71 33.69
  L 27.63 25.48
  Q 27.63 24.94 27.28 25.37"
/>
<path stroke="#96938d" vector-effect="non-scaling-stroke" d="
  M 100.77 142.78
  L 105.84 134.43
  Q 106.15 133.92 105.59 133.91
  L 100.84 133.84
  A 0.58 0.50 -89.5 0 0 100.33 134.42
  L 100.28 142.65
  Q 100.27 143.60 100.77 142.78"
/>
</g>
<path fill="#010001" fill-opacity="0.086" d="
  M 108.92 160.45
  C 108.76 160.91 105.46 160.76 104.87 160.82
  A 0.68 0.43 -82.7 0 0 104.43 161.35
  L 104.37 161.61
  A 0.43 0.26 -0.7 0 1 104.00 161.84
  Q 89.79 162.91 75.58 161.74
  A 1.55 1.00 60.5 0 1 74.76 161.31
  Q 73.92 160.48 73.01 161.37
  A 1.58 1.07 -60.9 0 1 72.18 161.79
  Q 68.94 162.13 67.70 162.09
  Q 66.72 162.07 61.81 162.03
  L 24.74 161.74
  A 1.36 0.94 59.8 0 1 23.91 161.35
  C 23.13 160.61 19.67 161.16 18.49 161.22
  A 0.39 0.38 -85.8 0 1 18.10 160.76
  Q 18.57 158.45 16.21 158.74
  A 1.17 0.87 -21.2 0 1 15.33 158.50
  L 9.54 152.90
  A 1.14 0.82 -70.7 0 1 9.29 152.04
  Q 9.44 150.63 8.51 149.65
  A 1.62 1.18 27.1 0 1 8.09 148.82
  C 7.80 146.35 7.00 144.12 7.00 141.69
  Q 7.00 94.15 7.00 46.60
  C 7.00 44.26 7.23 42.74 6.94 40.07
  C 6.39 35.01 5.82 20.42 9.13 15.53
  Q 10.18 13.96 11.16 12.36
  A 1.75 1.57 0.3 0 1 11.87 11.73
  Q 13.93 10.76 15.28 8.95
  A 1.22 0.95 10.2 0 1 16.06 8.54
  Q 16.67 8.47 17.14 8.06
  A 1.04 1.04 28.9 0 1 17.97 7.82
  Q 18.82 7.94 19.13 7.21
  A 0.65 0.57 -74.2 0 1 19.75 6.81
  Q 21.46 7.00 22.89 6.26
  Q 23.37 6.02 23.82 6.02
  L 105.19 6.02
  A 0.56 0.42 3.7 0 1 105.77 6.51
  L 105.71 6.83
  A 0.31 0.20 -82.3 0 0 105.88 7.18
  L 109.19 7.30
  A 0.67 0.52 79.0 0 1 109.71 7.75
  L 109.81 8.04
  A 0.44 0.27 -13.9 0 0 110.27 8.19
  Q 111.37 7.93 111.98 8.81
  A 1.66 1.26 76.0 0 0 112.70 9.39
  C 115.32 10.30 117.40 14.18 118.35 16.40
  A 0.66 0.55 -3.9 0 0 118.82 16.74
  L 118.98 16.76
  A 0.28 0.24 89.2 0 1 119.18 16.99
  C 119.44 19.02 120.50 20.39 120.51 22.40
  Q 120.55 43.09 120.49 63.78
  Q 120.48 65.85 119.97 73.57
  C 119.55 79.90 120.73 85.93 120.50 92.05
  C 119.81 110.02 120.22 128.18 120.32 146.18
  Q 120.32 146.65 120.08 147.11
  Q 118.94 149.31 118.95 151.94
  Q 118.95 152.90 116.45 155.17
  Q 113.19 158.13 109.19 159.90
  A 0.70 0.09 -71.5 0 0 108.92 160.45
  Z
  M 105.73 9.98
  Q 103.87 9.19 101.75 9.20
  Q 64.21 9.23 26.67 9.26
  C 24.18 9.26 21.97 10.25 19.32 10.30
  A 1.39 1.02 -61.4 0 0 18.49 10.69
  Q 17.81 11.36 16.83 11.33
  A 1.31 1.13 -62.2 0 0 15.99 11.66
  L 12.00 15.25
  Q 11.69 15.53 10.99 16.76
  L 10.07 18.39
  Q 9.80 18.87 9.79 19.31
  C 9.27 39.40 9.73 59.42 9.73 79.51
  Q 9.74 112.13 9.81 144.76
  A 1.10 1.10 20.6 0 0 10.19 145.59
  L 10.92 146.21
  A 0.91 0.88 -65.6 0 1 11.21 147.03
  Q 10.64 150.52 13.25 152.47
  A 1.83 1.56 -85.3 0 1 13.81 153.25
  Q 14.43 154.99 16.23 155.42
  A 1.07 0.88 81.6 0 1 16.86 155.99
  C 17.97 158.46 23.27 159.12 25.22 159.05
  C 31.98 158.80 38.86 159.72 45.46 159.73
  Q 74.48 159.75 103.50 159.75
  A 1.90 1.75 -58.3 0 0 104.43 159.49
  C 106.74 158.13 109.34 157.63 111.27 156.32
  Q 115.12 153.70 116.86 149.58
  Q 118.00 146.86 118.00 141.26
  Q 118.00 84.74 118.00 28.20
  Q 118.00 21.67 116.60 18.50
  C 115.22 15.35 110.69 9.73 106.68 10.12
  Q 106.18 10.17 105.73 9.98
  Z"
/>
<path fill="#010202" fill-opacity="0.173" d="
  M 106.68 10.12
  C 110.69 9.73 115.22 15.35 116.60 18.50
  Q 118.00 21.67 118.00 28.20
  Q 118.00 84.74 118.00 141.26
  Q 118.00 146.86 116.86 149.58
  Q 115.12 153.70 111.27 156.32
  C 109.34 157.63 106.74 158.13 104.43 159.49
  A 1.90 1.75 -58.3 0 1 103.50 159.75
  Q 74.48 159.75 45.46 159.73
  C 38.86 159.72 31.98 158.80 25.22 159.05
  C 23.27 159.12 17.97 158.46 16.86 155.99
  A 1.07 0.88 81.6 0 0 16.23 155.42
  Q 14.43 154.99 13.81 153.25
  A 1.83 1.56 -85.3 0 0 13.25 152.47
  Q 10.64 150.52 11.21 147.03
  A 0.91 0.88 -65.6 0 0 10.92 146.21
  L 10.19 145.59
  A 1.10 1.10 20.6 0 1 9.81 144.76
  Q 9.74 112.13 9.73 79.51
  C 9.73 59.42 9.27 39.40 9.79 19.31
  Q 9.80 18.87 10.07 18.39
  L 10.99 16.76
  Q 11.69 15.53 12.00 15.25
  L 15.99 11.66
  A 1.31 1.13 -62.2 0 1 16.83 11.33
  Q 17.81 11.36 18.49 10.69
  A 1.39 1.02 -61.4 0 1 19.32 10.30
  C 21.97 10.25 24.18 9.26 26.67 9.26
  Q 64.21 9.23 101.75 9.20
  Q 103.87 9.19 105.73 9.98
  Q 106.18 10.17 106.68 10.12
  Z
  M 14.11 18.49
  C 14.01 20.00 13.51 21.34 13.51 22.85
  Q 13.48 84.77 13.52 146.69
  Q 13.52 149.56 16.94 153.28
  Q 25.34 156.40 34.80 155.32
  Q 28.83 156.47 22.81 156.18
  Q 21.76 156.13 21.79 156.50
  A 0.78 0.47 -1.4 0 0 22.55 156.93
  L 106.36 156.91
  A 0.64 0.44 4.8 0 0 106.95 156.58
  C 107.18 155.68 100.85 155.99 100.22 155.98
  A 0.39 0.30 8.4 0 1 99.82 155.57
  L 99.98 155.18
  Q 109.63 156.93 113.09 150.18
  Q 114.50 147.45 114.50 141.58
  Q 114.51 82.76 114.49 23.95
  C 114.49 15.20 110.19 12.76 101.73 12.75
  Q 63.37 12.73 25.01 12.77
  C 19.70 12.77 16.63 14.01 14.11 18.49
  Z
  M 114.81 72.55
  Q 114.81 89.69 115.00 72.83
  C 115.00 72.67 115.01 72.77 114.91 72.53
  Q 114.81 72.31 114.81 72.55
  Z
  M 114.81 105.79
  Q 114.81 122.45 115.00 106.08
  C 115.00 105.92 115.01 106.02 114.91 105.78
  Q 114.81 105.56 114.81 105.79
  Z"
/>
<path fill="#ffffff" d="
  M 99.98 155.18
  L 34.80 155.32
  Q 25.34 156.40 16.94 153.28
  Q 15.78 151.20 14.89 149.29
  Q 14.00 147.37 14.00 145.02
  Q 13.92 81.76 14.11 18.49
  C 16.63 14.01 19.70 12.77 25.01 12.77
  Q 63.37 12.73 101.73 12.75
  C 110.19 12.76 114.49 15.20 114.49 23.95
  Q 114.51 82.76 114.50 141.58
  Q 114.50 147.45 113.09 150.18
  Q 109.63 156.93 99.98 155.18
  Z
  M 27.20 40.71
  Q 24.95 40.94 25.70 43.64
  A 0.71 0.67 82.4 0 0 26.34 44.16
  L 32.34 44.17
  A 0.60 0.55 0.5 0 0 32.94 43.63
  L 32.98 41.47
  A 0.68 0.53 7.4 0 0 32.43 40.91
  Q 30.53 40.55 31.28 38.36
  A 0.80 0.79 -82.7 0 1 31.97 37.82
  L 33.67 37.69
  A 0.82 0.72 6.2 0 0 34.36 37.21
  Q 35.65 33.69 31.85 34.09
  A 0.45 0.44 -2.9 0 1 31.35 33.65
  L 31.26 18.05
  A 0.73 0.64 -82.6 0 0 30.81 17.37
  Q 29.64 16.98 28.55 17.38
  A 1.58 1.12 -76.6 0 0 27.84 18.00
  Q 22.86 26.10 17.74 34.13
  C 17.07 35.18 17.19 36.06 17.27 37.24
  A 0.55 0.52 -1.7 0 0 17.82 37.73
  L 27.19 37.77
  A 0.54 0.50 -0.0 0 1 27.73 38.27
  L 27.73 40.19
  A 0.60 0.51 -3.7 0 1 27.20 40.71
  Z
  M 45.94 50.88
  L 43.96 50.35
  A 1.58 0.57 23.0 0 0 43.03 50.30
  C 36.59 52.44 43.00 60.51 46.77 54.96
  A 1.20 0.89 -70.9 0 1 47.52 54.45
  Q 49.05 54.27 49.78 55.54
  A 1.77 0.97 75.0 0 0 50.44 56.23
  C 55.58 58.79 57.88 51.51 52.76 50.26
  A 1.68 1.38 -44.9 0 0 51.81 50.35
  Q 48.17 51.83 50.69 49.87
  A 1.23 1.11 -18.1 0 0 51.15 49.07
  Q 51.64 43.90 46.75 44.88
  A 1.56 1.45 13.5 0 0 45.91 45.35
  Q 43.44 48.16 46.07 50.61
  Q 46.53 51.04 45.94 50.88
  Z
  M 81.96 50.63
  C 86.50 46.72 78.82 41.37 76.82 47.07
  Q 76.13 49.06 77.72 50.27
  Q 79.26 51.44 77.44 50.77
  Q 73.28 49.24 72.26 53.28
  A 1.43 1.36 40.3 0 0 72.36 54.22
  C 75.85 61.50 79.49 51.22 81.80 55.55
  A 1.76 1.03 77.5 0 0 82.44 56.24
  Q 85.83 57.93 87.54 54.59
  A 1.43 1.40 52.8 0 0 87.66 53.64
  Q 86.69 49.00 82.03 50.75
  Q 81.64 50.90 81.96 50.63
  Z
  M 28.41 56.33
  Q 30.39 54.16 29.42 51.90
  C 27.20 46.76 19.39 50.66 23.43 56.30
  Q 23.69 56.66 23.28 56.51
  C 17.09 54.23 14.94 61.88 20.08 63.31
  Q 22.91 64.10 24.60 61.14
  A 0.97 0.64 -72.0 0 1 25.18 60.68
  C 26.41 60.52 24.05 65.34 23.86 65.81
  A 0.42 0.36 -77.3 0 0 24.16 66.38
  L 27.83 66.39
  A 0.42 0.35 77.5 0 0 28.12 65.82
  L 26.36 61.24
  A 0.40 0.32 65.0 0 1 26.47 60.80
  Q 26.60 60.72 26.74 60.71
  A 0.88 0.52 69.9 0 1 27.39 61.24
  C 30.23 67.15 38.47 60.38 33.08 56.73
  Q 31.14 55.42 28.53 56.48
  Q 28.12 56.65 28.41 56.33
  Z
  M 46.37 59.18
  Q 47.97 59.96 49.75 59.37
  A 0.45 0.44 67.7 0 0 50.00 58.75
  L 48.29 55.19
  Q 48.05 54.70 47.81 55.18
  L 46.13 58.47
  A 0.53 0.52 26.8 0 0 46.37 59.18
  Z
  M 78.89 56.84
  Q 76.05 60.79 81.60 59.35
  A 0.45 0.44 -18.8 0 0 81.90 58.75
  L 80.40 55.23
  A 0.41 0.39 58.6 0 0 79.78 55.06
  Q 79.35 55.42 79.23 55.94
  Q 79.10 56.55 78.89 56.84
  Z
  M 103.99 111.48
  Q 103.95 111.34 103.99 111.25
  A 0.44 0.25 25.5 0 1 104.53 111.21
  C 111.97 115.20 113.20 102.56 105.25 104.85
  A 1.77 1.28 -71.4 0 0 104.48 105.40
  L 103.50 106.61
  A 1.04 0.63 -59.9 0 1 102.75 107.02
  C 101.97 106.92 103.89 102.72 104.12 102.17
  A 0.41 0.35 -77.3 0 0 103.82 101.61
  L 100.19 101.61
  A 0.41 0.35 77.3 0 0 99.89 102.17
  C 99.92 102.23 102.35 109.25 100.53 106.59
  Q 98.24 103.23 94.55 105.32
  Q 91.64 106.97 93.56 109.92
  Q 95.39 112.73 99.42 111.49
  Q 100.50 111.15 99.62 111.86
  C 94.65 115.84 103.38 122.29 105.68 115.68
  Q 106.47 113.39 104.25 111.82
  A 0.68 0.38 23.1 0 1 103.99 111.48
  Z
  M 50.05 117.13
  L 52.05 117.68
  A 1.62 0.68 25.4 0 0 52.98 117.72
  C 59.35 115.48 53.02 107.58 49.27 113.02
  Q 48.98 113.44 48.71 113.44
  A 0.55 0.38 -75.0 0 1 48.45 112.71
  L 49.95 109.21
  A 0.43 0.38 -70.5 0 0 49.72 108.64
  Q 48.02 108.20 46.20 108.67
  A 0.36 0.34 64.6 0 0 46.03 109.22
  Q 47.20 110.94 47.29 113.04
  Q 47.31 113.52 47.02 113.11
  Q 45.22 110.58 42.14 111.51
  A 1.51 1.43 -80.3 0 0 41.38 112.08
  Q 38.49 116.35 43.51 117.79
  A 1.38 0.41 -24.4 0 0 44.43 117.66
  L 45.99 117.14
  Q 46.63 116.92 46.09 117.39
  C 41.99 120.96 47.74 125.61 50.46 122.44
  Q 52.77 119.74 49.96 117.38
  Q 49.47 116.96 50.05 117.13
  Z
  M 82.05 117.13
  L 84.05 117.68
  A 1.66 0.74 26.5 0 0 84.98 117.72
  C 91.23 115.54 85.23 107.47 81.18 113.17
  Q 80.92 113.53 80.65 113.45
  A 0.54 0.42 -69.0 0 1 80.44 112.77
  L 81.95 109.22
  A 0.44 0.38 -70.7 0 0 81.72 108.64
  Q 80.02 108.21 78.23 108.65
  A 0.44 0.36 72.1 0 0 78.01 109.21
  L 79.42 112.95
  Q 79.68 113.63 79.02 113.31
  Q 78.63 113.13 78.40 112.70
  Q 78.07 112.11 77.82 111.93
  C 73.66 108.89 69.10 115.95 75.51 117.79
  A 1.46 0.42 -24.3 0 0 76.43 117.66
  L 77.99 117.14
  Q 78.63 116.92 78.09 117.39
  C 73.99 120.96 79.74 125.61 82.46 122.44
  Q 84.77 119.74 81.96 117.38
  Q 81.47 116.96 82.05 117.13
  Z
  M 100.81 127.28
  L 101.71 127.22
  A 0.55 0.52 -1.8 0 0 102.23 126.70
  L 102.23 124.29
  A 0.54 0.52 0.6 0 0 101.70 123.77
  L 95.82 123.76
  A 0.75 0.74 10.1 0 0 95.12 124.24
  Q 94.13 126.76 96.25 127.36
  A 0.85 0.70 5.9 0 1 96.84 127.96
  Q 97.31 130.93 94.27 130.31
  A 0.57 0.56 15.1 0 0 93.62 130.68
  Q 92.36 134.42 96.20 133.84
  A 0.43 0.42 -4.7 0 1 96.70 134.25
  L 96.75 149.95
  A 0.73 0.65 -82.5 0 0 97.21 150.63
  Q 98.26 150.95 99.32 150.70
  A 1.31 1.06 -76.9 0 0 100.05 150.13
  L 110.33 133.72
  Q 112.48 130.29 108.49 130.27
  L 101.04 130.24
  A 0.67 0.51 -1.8 0 1 100.38 129.77
  L 100.23 127.81
  A 0.60 0.49 -3.5 0 1 100.81 127.28
  Z"
/>
<path fill="#2d261b" d="
  M 27.73 40.19
  L 27.73 38.27
  A 0.54 0.50 -0.0 0 0 27.19 37.77
  L 17.82 37.73
  A 0.55 0.52 -1.7 0 1 17.27 37.24
  C 17.19 36.06 17.07 35.18 17.74 34.13
  Q 22.86 26.10 27.84 18.00
  A 1.58 1.12 -76.6 0 1 28.55 17.38
  Q 29.64 16.98 30.81 17.37
  A 0.73 0.64 -82.6 0 1 31.26 18.05
  L 31.35 33.65
  A 0.45 0.44 -2.9 0 0 31.85 34.09
  Q 35.65 33.69 34.36 37.21
  A 0.82 0.72 6.2 0 1 33.67 37.69
  L 31.97 37.82
  A 0.80 0.79 -82.7 0 0 31.28 38.36
  Q 30.53 40.55 32.43 40.91
  A 0.68 0.53 7.4 0 1 32.98 41.47
  L 32.94 43.63
  A 0.60 0.55 0.5 0 1 32.34 44.17
  L 26.34 44.16
  A 0.71 0.67 82.4 0 1 25.70 43.64
  Q 24.95 40.94 27.20 40.71
  A 0.60 0.51 -3.7 0 0 27.73 40.19
  Z
  M 27.28 25.37
  C 25.37 27.70 23.50 31.08 22.00 33.73
  A 0.32 0.31 -75.0 0 0 22.26 34.20
  L 27.19 34.22
  A 0.52 0.52 89.5 0 0 27.71 33.69
  L 27.63 25.48
  Q 27.63 24.94 27.28 25.37
  Z"
/>
<path fill="#f2f4f6" fill-opacity="0.973" d="
  M 14.11 18.49
  Q 13.92 81.76 14.00 145.02
  Q 14.00 147.37 14.89 149.29
  Q 15.78 151.20 16.94 153.28
  Q 13.52 149.56 13.52 146.69
  Q 13.48 84.77 13.51 22.85
  C 13.51 21.34 14.01 20.00 14.11 18.49
  Z"
/>
<path fill="#ffffff" d="
  M 22.00 33.73
  C 23.50 31.08 25.37 27.70 27.28 25.37
  Q 27.63 24.94 27.63 25.48
  L 27.71 33.69
  A 0.52 0.52 89.5 0 1 27.19 34.22
  L 22.26 34.20
  A 0.32 0.31 -75.0 0 1 22.00 33.73
  Z"
/>
<path fill="#2d261b" d="
  M 46.07 50.61
  Q 43.44 48.16 45.91 45.35
  A 1.56 1.45 13.5 0 1 46.75 44.88
  Q 51.64 43.90 51.15 49.07
  A 1.23 1.11 -18.1 0 1 50.69 49.87
  Q 48.17 51.83 51.81 50.35
  A 1.68 1.38 -44.9 0 1 52.76 50.26
  C 57.88 51.51 55.58 58.79 50.44 56.23
  A 1.77 0.97 75.0 0 1 49.78 55.54
  Q 49.05 54.27 47.52 54.45
  A 1.20 0.89 -70.9 0 0 46.77 54.96
  C 43.00 60.51 36.59 52.44 43.03 50.30
  A 1.58 0.57 23.0 0 1 43.96 50.35
  L 45.94 50.88
  Q 46.53 51.04 46.07 50.61
  Z"
/>
<path fill="#2d261b" d="
  M 82.03 50.75
  Q 86.69 49.00 87.66 53.64
  A 1.43 1.40 52.8 0 1 87.54 54.59
  Q 85.83 57.93 82.44 56.24
  A 1.76 1.03 77.5 0 1 81.80 55.55
  C 79.49 51.22 75.85 61.50 72.36 54.22
  A 1.43 1.36 40.3 0 1 72.26 53.28
  Q 73.28 49.24 77.44 50.77
  Q 79.26 51.44 77.72 50.27
  Q 76.13 49.06 76.82 47.07
  C 78.82 41.37 86.50 46.72 81.96 50.63
  Q 81.64 50.90 82.03 50.75
  Z"
/>
<path fill="#2d261b" d="
  M 28.53 56.48
  Q 31.14 55.42 33.08 56.73
  C 38.47 60.38 30.23 67.15 27.39 61.24
  A 0.88 0.52 69.9 0 0 26.74 60.71
  Q 26.60 60.72 26.47 60.80
  A 0.40 0.32 65.0 0 0 26.36 61.24
  L 28.12 65.82
  A 0.42 0.35 77.5 0 1 27.83 66.39
  L 24.16 66.38
  A 0.42 0.36 -77.3 0 1 23.86 65.81
  C 24.05 65.34 26.41 60.52 25.18 60.68
  A 0.97 0.64 -72.0 0 0 24.60 61.14
  Q 22.91 64.10 20.08 63.31
  C 14.94 61.88 17.09 54.23 23.28 56.51
  Q 23.69 56.66 23.43 56.30
  C 19.39 50.66 27.20 46.76 29.42 51.90
  Q 30.39 54.16 28.41 56.33
  Q 28.12 56.65 28.53 56.48
  Z"
/>
<path fill="#2d261b" d="
  M 46.13 58.47
  L 47.81 55.18
  Q 48.05 54.70 48.29 55.19
  L 50.00 58.75
  A 0.45 0.44 67.7 0 1 49.75 59.37
  Q 47.97 59.96 46.37 59.18
  A 0.53 0.52 26.8 0 1 46.13 58.47
  Z"
/>
<path fill="#2d261b" d="
  M 79.23 55.94
  Q 79.35 55.42 79.78 55.06
  A 0.41 0.39 58.6 0 1 80.40 55.23
  L 81.90 58.75
  A 0.45 0.44 -18.8 0 1 81.60 59.35
  Q 76.05 60.79 78.89 56.84
  Q 79.10 56.55 79.23 55.94
  Z"
/>
<path fill="#010001" fill-opacity="0.086" d="
  M 114.91 72.53
  C 115.01 72.77 115.00 72.67 115.00 72.83
  Q 114.81 89.69 114.81 72.55
  Q 114.81 72.31 114.91 72.53
  Z"
/>
<path fill="#2d261b" d="
  M 104.25 111.82
  Q 106.47 113.39 105.68 115.68
  C 103.38 122.29 94.65 115.84 99.62 111.86
  Q 100.50 111.15 99.42 111.49
  Q 95.39 112.73 93.56 109.92
  Q 91.64 106.97 94.55 105.32
  Q 98.24 103.23 100.53 106.59
  C 102.35 109.25 99.92 102.23 99.89 102.17
  A 0.41 0.35 77.3 0 1 100.19 101.61
  L 103.82 101.61
  A 0.41 0.35 -77.3 0 1 104.12 102.17
  C 103.89 102.72 101.97 106.92 102.75 107.02
  A 1.04 0.63 -59.9 0 0 103.50 106.61
  L 104.48 105.40
  A 1.77 1.28 -71.4 0 1 105.25 104.85
  C 113.20 102.56 111.97 115.20 104.53 111.21
  A 0.44 0.25 25.5 0 0 103.99 111.25
  Q 103.95 111.34 103.99 111.48
  A 0.68 0.38 23.1 0 0 104.25 111.82
  Z"
/>
<path fill="#010001" fill-opacity="0.086" d="
  M 114.91 105.78
  C 115.01 106.02 115.00 105.92 115.00 106.08
  Q 114.81 122.45 114.81 105.79
  Q 114.81 105.56 114.91 105.78
  Z"
/>
<path fill="#2d261b" d="
  M 49.96 117.38
  Q 52.77 119.74 50.46 122.44
  C 47.74 125.61 41.99 120.96 46.09 117.39
  Q 46.63 116.92 45.99 117.14
  L 44.43 117.66
  A 1.38 0.41 -24.4 0 1 43.51 117.79
  Q 38.49 116.35 41.38 112.08
  A 1.51 1.43 -80.3 0 1 42.14 111.51
  Q 45.22 110.58 47.02 113.11
  Q 47.31 113.52 47.29 113.04
  Q 47.20 110.94 46.03 109.22
  A 0.36 0.34 64.6 0 1 46.20 108.67
  Q 48.02 108.20 49.72 108.64
  A 0.43 0.38 -70.5 0 1 49.95 109.21
  L 48.45 112.71
  A 0.55 0.38 -75.0 0 0 48.71 113.44
  Q 48.98 113.44 49.27 113.02
  C 53.02 107.58 59.35 115.48 52.98 117.72
  A 1.62 0.68 25.4 0 1 52.05 117.68
  L 50.05 117.13
  Q 49.47 116.96 49.96 117.38
  Z"
/>
<path fill="#2d261b" d="
  M 81.96 117.38
  Q 84.77 119.74 82.46 122.44
  C 79.74 125.61 73.99 120.96 78.09 117.39
  Q 78.63 116.92 77.99 117.14
  L 76.43 117.66
  A 1.46 0.42 -24.3 0 1 75.51 117.79
  C 69.10 115.95 73.66 108.89 77.82 111.93
  Q 78.07 112.11 78.40 112.70
  Q 78.63 113.13 79.02 113.31
  Q 79.68 113.63 79.42 112.95
  L 78.01 109.21
  A 0.44 0.36 72.1 0 1 78.23 108.65
  Q 80.02 108.21 81.72 108.64
  A 0.44 0.38 -70.7 0 1 81.95 109.22
  L 80.44 112.77
  A 0.54 0.42 -69.0 0 0 80.65 113.45
  Q 80.92 113.53 81.18 113.17
  C 85.23 107.47 91.23 115.54 84.98 117.72
  A 1.66 0.74 26.5 0 1 84.05 117.68
  L 82.05 117.13
  Q 81.47 116.96 81.96 117.38
  Z"
/>
<path fill="#2d261b" d="
  M 100.23 127.81
  L 100.38 129.77
  A 0.67 0.51 -1.8 0 0 101.04 130.24
  L 108.49 130.27
  Q 112.48 130.29 110.33 133.72
  L 100.05 150.13
  A 1.31 1.06 -76.9 0 1 99.32 150.70
  Q 98.26 150.95 97.21 150.63
  A 0.73 0.65 -82.5 0 1 96.75 149.95
  L 96.70 134.25
  A 0.43 0.42 -4.7 0 0 96.20 133.84
  Q 92.36 134.42 93.62 130.68
  A 0.57 0.56 15.1 0 1 94.27 130.31
  Q 97.31 130.93 96.84 127.96
  A 0.85 0.70 5.9 0 0 96.25 127.36
  Q 94.13 126.76 95.12 124.24
  A 0.75 0.74 10.1 0 1 95.82 123.76
  L 101.70 123.77
  A 0.54 0.52 0.6 0 1 102.23 124.29
  L 102.23 126.70
  A 0.55 0.52 -1.8 0 1 101.71 127.22
  L 100.81 127.28
  A 0.60 0.49 -3.5 0 0 100.23 127.81
  Z
  M 100.77 142.78
  L 105.84 134.43
  Q 106.15 133.92 105.59 133.91
  L 100.84 133.84
  A 0.58 0.50 -89.5 0 0 100.33 134.42
  L 100.28 142.65
  Q 100.27 143.60 100.77 142.78
  Z"
/>
<path fill="#ffffff" d="
  M 100.77 142.78
  Q 100.27 143.60 100.28 142.65
  L 100.33 134.42
  A 0.58 0.50 -89.5 0 1 100.84 133.84
  L 105.59 133.91
  Q 106.15 133.92 105.84 134.43
  L 100.77 142.78
  Z"
/>
<path fill="#020101" fill-opacity="0.259" d="
  M 34.80 155.32
  L 99.98 155.18
  L 99.82 155.57
  A 0.39 0.30 8.4 0 0 100.22 155.98
  C 100.85 155.99 107.18 155.68 106.95 156.58
  A 0.64 0.44 4.8 0 1 106.36 156.91
  L 22.55 156.93
  A 0.78 0.47 -1.4 0 1 21.79 156.50
  Q 21.76 156.13 22.81 156.18
  Q 28.83 156.47 34.80 155.32
  Z"
/>
</svg>
