<?xml version="1.0" encoding="UTF-8" standalone="no"?>
<svg xmlns="http://www.w3.org/2000/svg" version="1.2" baseProfile="tiny" viewBox="0 0 128 168">
<g stroke-width="0.00" fill="none" stroke-linecap="butt">
<path stroke="#e3e3e3" stroke-opacity="0.565" vector-effect="non-scaling-stroke" d="
  M 17.00 152.96
  Q 19.66 155.18 22.06 155.19
  Q 37.40 155.25 52.75 155.31"
/>
<path stroke="#e3e3e3" stroke-opacity="0.565" vector-effect="non-scaling-stroke" d="
  M 109.71 154.25
  Q 114.42 151.01 114.42 145.25
  Q 114.50 84.60 114.49 23.94
  C 114.49 15.20 110.18 12.76 101.73 12.75
  Q 61.78 12.74 21.81 12.76
  Q 20.11 12.76 17.25 14.79"
/>
<path stroke="#cacaca" stroke-opacity="0.635" vector-effect="non-scaling-stroke" d="
  M 109.71 154.25
  C 107.99 154.71 106.54 155.25 104.73 155.25
  Q 78.74 155.20 52.75 155.31"
/>
<path stroke="#f9f9fa" stroke-opacity="0.984" vector-effect="non-scaling-stroke" d="
  M 17.00 152.96
  Q 14.00 148.78 14.00 147.25
  Q 14.00 84.00 14.00 20.75
  Q 14.00 18.61 17.25 14.79"
/>
<path stroke="#96938d" vector-effect="non-scaling-stroke" d="
  M 21.32 21.28
  L 29.08 21.43
  A 0.34 0.32 -75.2 0 1 29.34 21.92
  Q 23.96 32.24 21.92 43.70
  A 0.46 0.41 -85.4 0 0 22.33 44.24
  L 25.14 44.16
  A 0.67 0.59 -85.3 0 0 25.72 43.60
  Q 27.72 31.52 34.21 21.16
  A 1.02 0.66 -49.5 0 0 34.33 20.26
  L 33.01 17.92
  A 1.04 0.72 -9.7 0 0 32.17 17.53
  L 17.89 17.57
  A 0.54 0.51 -0.6 0 0 17.36 18.08
  L 17.28 24.00
  A 0.71 0.67 8.7 0 0 17.79 24.65
  Q 21.50 25.78 20.90 21.80
  A 0.45 0.42 85.9 0 1 21.32 21.28"
/>
<path stroke="#96938d" vector-effect="non-scaling-stroke" d="
  M 45.94 50.88
  L 43.96 50.35
  A 1.61 0.56 22.8 0 0 43.03 50.29
  C 36.68 52.43 42.85 60.38 46.65 55.08
  A 1.55 1.03 -70.8 0 1 47.40 54.51
  Q 48.94 54.11 49.65 55.42
  A 1.79 0.94 75.8 0 0 50.29 56.13
  C 55.44 58.90 57.98 51.54 52.76 50.26
  A 1.71 1.32 -43.1 0 0 51.81 50.35
  Q 48.12 51.83 50.74 49.86
  A 1.10 1.00 -18.9 0 0 51.17 49.07
  Q 51.37 43.05 45.95 45.30
  A 1.33 1.30 1.6 0 0 45.26 45.94
  Q 43.93 48.68 46.06 50.62
  Q 46.52 51.04 45.94 50.88"
/>
<path stroke="#96938d" vector-effect="non-scaling-stroke" d="
  M 77.94 50.88
  L 75.96 50.35
  A 1.61 0.56 22.8 0 0 75.03 50.29
  C 68.68 52.43 74.85 60.38 78.65 55.08
  A 1.55 1.03 -70.8 0 1 79.40 54.51
  Q 80.94 54.11 81.65 55.42
  A 1.88 0.96 75.6 0 0 82.28 56.13
  C 87.45 58.92 90.03 51.55 84.76 50.26
  A 1.71 1.32 -43.1 0 0 83.81 50.35
  Q 80.12 51.83 82.74 49.86
  A 1.07 0.98 -19.5 0 0 83.16 49.07
  Q 83.38 43.05 77.94 45.29
  A 1.39 1.31 0.5 0 0 77.24 45.94
  Q 75.89 48.70 78.05 50.62
  Q 78.53 51.04 77.94 50.88"
/>
<path stroke="#96938d" vector-effect="non-scaling-stroke" d="
  M 28.41 56.33
  Q 30.38 54.17 29.43 51.91
  C 27.29 46.85 19.43 50.47 23.43 56.31
  Q 23.69 56.69 23.26 56.53
  Q 18.05 54.59 17.17 60.02
  A 1.33 1.30 -57.3 0 0 17.36 60.94
  Q 20.72 66.18 24.90 61.11
  C 26.57 59.10 23.93 65.65 23.86 65.82
  A 0.41 0.35 -77.3 0 0 24.16 66.38
  L 27.82 66.39
  A 0.42 0.36 77.7 0 0 28.12 65.82
  L 26.44 61.46
  A 0.55 0.41 73.5 0 1 26.70 60.75
  C 27.50 60.63 28.69 64.29 31.79 63.41
  C 35.92 62.24 35.79 57.16 31.25 56.00
  A 1.83 0.73 -26.7 0 0 30.30 56.08
  L 28.55 56.61
  Q 28.01 56.77 28.41 56.33"
/>
<path stroke="#96938d" vector-effect="non-scaling-stroke" d="
  M 46.37 59.18
  Q 47.87 59.92 49.67 59.42
  A 0.45 0.44 -20.1 0 0 49.96 58.81
  L 48.24 55.12
  Q 48.01 54.62 47.76 55.13
  L 46.14 58.48
  A 0.53 0.52 -63.7 0 0 46.37 59.18"
/>
<path stroke="#96938d" vector-effect="non-scaling-stroke" d="
  M 79.71 55.14
  L 78.02 58.71
  A 0.45 0.42 -68.9 0 0 78.27 59.32
  Q 79.98 59.82 81.75 59.36
  A 0.45 0.40 70.4 0 0 81.99 58.77
  L 80.41 55.18
  Q 80.07 54.39 79.71 55.14"
/>
<path stroke="#96938d" vector-effect="non-scaling-stroke" d="
  M 61.94 66.88
  L 59.96 66.35
  A 1.61 0.56 22.8 0 0 59.03 66.29
  C 52.68 68.43 58.86 76.39 62.65 71.07
  A 1.45 1.08 -72.4 0 1 63.41 70.52
  Q 65.05 70.15 65.79 71.54
  A 1.78 1.04 77.0 0 0 66.45 72.24
  C 71.53 74.71 73.90 67.52 68.76 66.26
  A 1.71 1.32 -43.1 0 0 67.81 66.35
  Q 64.12 67.83 66.74 65.86
  A 1.07 0.98 -19.5 0 0 67.16 65.07
  Q 67.38 59.05 61.94 61.29
  A 1.39 1.31 0.5 0 0 61.24 61.94
  Q 59.89 64.70 62.05 66.62
  Q 62.53 67.04 61.94 66.88"
/>
<path stroke="#96938d" vector-effect="non-scaling-stroke" d="
  M 63.69 71.17
  L 62.02 74.71
  A 0.45 0.42 -68.9 0 0 62.27 75.32
  Q 63.98 75.82 65.76 75.35
  A 0.44 0.38 70.5 0 0 65.98 74.77
  L 64.43 71.22
  Q 64.07 70.39 63.69 71.17"
/>
<path stroke="#96938d" vector-effect="non-scaling-stroke" d="
  M 45.93 82.90
  L 44.20 82.41
  Q 43.52 82.22 43.27 82.27
  C 38.07 83.38 40.55 90.32 44.92 88.52
  C 46.31 87.94 47.32 85.25 49.19 86.92
  C 55.21 92.30 58.20 83.59 52.76 82.26
  A 1.71 1.32 -43.1 0 0 51.81 82.35
  Q 48.12 83.83 50.74 81.86
  A 1.06 1.01 -17.7 0 0 51.17 81.07
  Q 51.36 75.04 45.95 77.30
  A 1.38 1.34 0.9 0 0 45.26 77.95
  Q 43.88 80.70 46.05 82.62
  Q 46.57 83.08 45.93 82.90"
/>
<path stroke="#96938d" vector-effect="non-scaling-stroke" d="
  M 77.95 82.83
  L 75.51 82.31
  A 1.53 1.33 34.9 0 0 74.57 82.41
  C 68.89 85.20 75.22 92.07 78.65 87.07
  A 1.15 0.59 -63.6 0 1 79.40 86.52
  L 80.61 86.52
  A 1.14 0.57 63.6 0 1 81.35 87.08
  C 83.94 91.09 90.14 87.42 86.48 83.05
  A 2.44 2.19 57.8 0 0 83.84 82.30
  Q 80.31 83.78 82.74 81.87
  A 1.17 1.04 -20.5 0 0 83.17 81.06
  Q 83.36 75.05 77.95 77.30
  A 1.38 1.34 0.9 0 0 77.26 77.95
  Q 75.88 80.70 78.05 82.62
  Q 78.39 82.92 77.95 82.83"
/>
<path stroke="#96938d" vector-effect="non-scaling-stroke" d="
  M 46.37 91.18
  Q 47.87 91.92 49.68 91.41
  A 0.45 0.44 69.6 0 0 49.95 90.79
  L 48.29 87.20
  Q 48.06 86.69 47.81 87.18
  L 46.13 90.47
  A 0.53 0.52 26.8 0 0 46.37 91.18"
/>
<path stroke="#96938d" vector-effect="non-scaling-stroke" d="
  M 78.89 88.84
  Q 76.05 92.79 81.60 91.35
  A 0.45 0.44 -18.8 0 0 81.90 90.75
  L 80.42 87.23
  A 0.42 0.38 59.4 0 0 79.81 87.04
  Q 79.34 87.41 79.23 87.95
  Q 79.09 88.55 78.89 88.84"
/>
<path stroke="#96938d" vector-effect="non-scaling-stroke" d="
  M 102.93 118.47
  C 108.63 115.58 103.80 111.43 103.94 111.22
  A 0.47 0.31 30.4 0 1 104.50 111.19
  Q 108.67 113.54 110.74 109.20
  Q 111.92 106.73 109.45 105.32
  Q 105.77 103.24 103.56 106.47
  A 1.32 0.67 -66.2 0 1 102.90 107.01
  C 101.78 107.24 103.94 102.61 104.12 102.17
  A 0.41 0.35 -77.3 0 0 103.82 101.61
  L 100.17 101.61
  A 0.42 0.35 77.1 0 0 99.88 102.18
  C 100.24 103.05 102.38 109.27 100.51 106.56
  C 96.39 100.57 88.98 109.10 96.28 111.94
  A 1.56 1.49 -40.7 0 0 97.23 111.99
  L 99.47 111.40
  Q 99.94 111.28 99.65 111.67
  Q 95.87 116.87 102.00 118.56
  A 1.35 1.29 38.2 0 0 102.93 118.47"
/>
<path stroke="#96938d" vector-effect="non-scaling-stroke" d="
  M 50.05 117.13
  L 52.05 117.68
  A 1.66 0.74 26.5 0 0 52.98 117.72
  C 59.23 115.54 53.23 107.47 49.18 113.17
  Q 48.92 113.53 48.65 113.45
  A 0.54 0.42 -69.0 0 1 48.44 112.77
  L 49.95 109.22
  A 0.44 0.38 -70.7 0 0 49.72 108.64
  Q 48.02 108.20 46.20 108.67
  A 0.36 0.34 64.6 0 0 46.03 109.22
  Q 47.20 110.94 47.29 113.04
  Q 47.31 113.53 47.03 113.13
  Q 45.22 110.58 42.16 111.52
  A 1.52 1.40 -78.6 0 0 41.39 112.08
  Q 38.53 116.07 43.25 117.77
  A 1.51 0.57 -25.4 0 0 44.18 117.69
  L 45.98 117.13
  Q 46.60 116.94 46.09 117.39
  C 42.00 120.97 47.74 125.61 50.46 122.44
  Q 52.77 119.74 49.96 117.38
  Q 49.47 116.96 50.05 117.13"
/>
<path stroke="#96938d" vector-effect="non-scaling-stroke" d="
  M 82.05 117.13
  L 84.05 117.68
  A 1.62 0.68 25.4 0 0 84.98 117.72
  C 91.35 115.48 85.02 107.58 81.27 113.02
  Q 80.98 113.44 80.71 113.44
  A 0.53 0.38 -74.6 0 1 80.45 112.72
  L 81.95 109.21
  A 0.43 0.38 -70.5 0 0 81.72 108.64
  Q 80.02 108.21 78.23 108.65
  A 0.44 0.36 72.1 0 0 78.01 109.21
  L 79.42 112.95
  Q 79.68 113.63 79.02 113.31
  Q 78.63 113.13 78.40 112.70
  Q 78.07 112.11 77.83 111.93
  C 73.77 108.98 69.20 115.60 75.26 117.77
  A 1.47 0.54 -25.0 0 0 76.18 117.69
  L 77.98 117.13
  Q 78.60 116.94 78.09 117.39
  C 74.00 120.97 79.74 125.61 82.46 122.44
  Q 84.77 119.74 81.96 117.38
  Q 81.47 116.96 82.05 117.13"
/>
<path stroke="#96938d" vector-effect="non-scaling-stroke" d="
  M 98.78 146.24
  Q 103.79 135.86 106.08 124.55
  A 0.58 0.55 -76.6 0 0 105.70 123.89
  Q 104.24 123.46 102.80 123.89
  A 0.84 0.79 87.5 0 0 102.24 124.54
  Q 100.26 136.55 93.79 146.83
  A 1.04 0.69 -49.0 0 0 93.67 147.74
  L 94.99 150.08
  A 1.04 0.72 -9.7 0 0 95.83 150.47
  L 110.11 150.43
  A 0.55 0.52 -0.0 0 0 110.65 149.92
  L 110.71 144.08
  A 0.76 0.72 10.3 0 0 110.21 143.39
  Q 106.50 142.07 107.22 146.08
  A 0.45 0.42 83.7 0 1 106.82 146.61
  L 99.07 146.72
  A 0.34 0.33 -76.9 0 1 98.78 146.24"
/>
</g>
<path fill="#010000" fill-opacity="0.125" d="
  M 19.71 159.85
  Q 18.41 160.04 17.82 159.16
  A 0.77 0.68 67.7 0 0 17.11 158.81
  C 14.90 159.13 11.11 154.59 9.63 153.05
  A 1.22 1.00 -69.2 0 1 9.34 152.19
  Q 9.43 150.73 8.51 149.67
  A 1.85 1.30 29.2 0 1 8.10 148.82
  C 7.79 146.43 7.07 144.31 7.05 141.94
  Q 6.81 110.87 7.23 79.80
  C 7.25 78.76 7.95 76.99 7.43 75.39
  Q 7.03 74.18 7.02 73.52
  Q 6.70 51.32 7.26 45.50
  C 8.41 33.79 4.21 22.39 11.60 11.81
  Q 12.64 10.32 13.05 10.08
  L 16.60 7.99
  A 1.32 1.08 -50.8 0 1 17.48 7.81
  Q 18.67 8.03 19.22 7.12
  A 0.73 0.66 -68.3 0 1 19.93 6.77
  Q 22.02 7.15 23.60 6.05
  A 1.75 1.30 -55.3 0 1 24.49 5.75
  L 105.25 5.75
  A 1.43 1.11 60.3 0 1 106.10 6.10
  C 107.77 7.56 109.80 6.34 111.38 8.07
  Q 112.35 9.13 112.75 9.37
  C 115.90 11.23 117.52 14.23 118.86 17.52
  Q 120.06 20.45 120.15 25.07
  Q 120.64 49.87 120.46 74.68
  C 120.44 77.47 120.88 81.33 120.78 85.00
  Q 120.28 103.74 120.53 117.00
  Q 120.54 117.45 120.43 117.76
  Q 120.16 118.57 120.17 118.69
  L 120.60 140.94
  A 1.95 1.43 -38.4 0 1 120.35 141.85
  C 118.88 144.46 122.22 146.08 119.85 148.67
  Q 119.61 148.94 119.43 149.51
  L 118.03 153.93
  Q 117.28 156.32 114.35 156.81
  Q 112.96 157.04 110.81 159.41
  A 0.91 0.80 25.1 0 1 110.00 159.65
  Q 108.77 159.39 108.39 160.31
  A 0.80 0.63 -76.8 0 1 107.77 160.81
  C 94.76 161.06 81.10 160.17 68.23 161.32
  C 66.33 161.49 64.32 160.89 62.66 160.88
  Q 41.59 160.68 20.51 160.71
  A 0.53 0.50 84.8 0 1 20.00 160.26
  L 19.97 160.03
  A 0.23 0.21 -7.7 0 0 19.71 159.85
  Z
  M 17.25 14.79
  Q 14.20 17.14 13.71 21.00
  Q 12.44 21.74 12.01 20.22
  Q 11.91 19.87 11.87 20.24
  Q 11.76 21.25 11.28 22.09
  Q 11.01 22.56 11.01 23.00
  L 11.00 142.75
  A 1.61 1.25 -69.7 0 0 11.29 143.67
  L 13.46 146.50
  Q 14.07 150.42 17.00 152.96
  Q 19.66 155.18 22.06 155.19
  Q 37.40 155.25 52.75 155.31
  Q 48.65 155.33 44.58 155.60
  C 42.26 155.74 21.66 155.98 21.73 156.55
  A 0.86 0.39 -1.1 0 0 22.56 156.91
  Q 76.30 157.25 107.50 156.84
  Q 109.43 156.81 110.73 155.17
  A 0.30 0.27 22.9 0 0 110.52 154.73
  Q 109.98 154.64 109.71 154.25
  Q 114.42 151.01 114.42 145.25
  Q 114.50 84.60 114.49 23.94
  C 114.49 15.20 110.18 12.76 101.73 12.75
  Q 61.78 12.74 21.81 12.76
  Q 20.11 12.76 17.25 14.79
  Z
  M 114.81 47.80
  Q 114.81 62.44 115.00 48.08
  C 115.00 47.92 115.01 48.02 114.91 47.78
  Q 114.81 47.56 114.81 47.80
  Z
  M 114.81 104.70
  Q 114.81 143.62 115.00 104.83
  A 0.20 0.16 -71.0 0 0 114.95 104.70
  L 114.91 104.66
  Q 114.81 104.56 114.81 104.70
  Z"
/>
<path fill="#ffffff" d="
  M 109.71 154.25
  C 107.99 154.71 106.54 155.25 104.73 155.25
  Q 78.74 155.20 52.75 155.31
  Q 37.40 155.25 22.06 155.19
  Q 19.66 155.18 17.00 152.96
  Q 14.00 148.78 14.00 147.25
  Q 14.00 84.00 14.00 20.75
  Q 14.00 18.61 17.25 14.79
  Q 20.11 12.76 21.81 12.76
  Q 61.78 12.74 101.73 12.75
  C 110.18 12.76 114.49 15.20 114.49 23.94
  Q 114.50 84.60 114.42 145.25
  Q 114.42 151.01 109.71 154.25
  Z
  M 21.32 21.28
  L 29.08 21.43
  A 0.34 0.32 -75.2 0 1 29.34 21.92
  Q 23.96 32.24 21.92 43.70
  A 0.46 0.41 -85.4 0 0 22.33 44.24
  L 25.14 44.16
  A 0.67 0.59 -85.3 0 0 25.72 43.60
  Q 27.72 31.52 34.21 21.16
  A 1.02 0.66 -49.5 0 0 34.33 20.26
  L 33.01 17.92
  A 1.04 0.72 -9.7 0 0 32.17 17.53
  L 17.89 17.57
  A 0.54 0.51 -0.6 0 0 17.36 18.08
  L 17.28 24.00
  A 0.71 0.67 8.7 0 0 17.79 24.65
  Q 21.50 25.78 20.90 21.80
  A 0.45 0.42 85.9 0 1 21.32 21.28
  Z
  M 45.94 50.88
  L 43.96 50.35
  A 1.61 0.56 22.8 0 0 43.03 50.29
  C 36.68 52.43 42.85 60.38 46.65 55.08
  A 1.55 1.03 -70.8 0 1 47.40 54.51
  Q 48.94 54.11 49.65 55.42
  A 1.79 0.94 75.8 0 0 50.29 56.13
  C 55.44 58.90 57.98 51.54 52.76 50.26
  A 1.71 1.32 -43.1 0 0 51.81 50.35
  Q 48.12 51.83 50.74 49.86
  A 1.10 1.00 -18.9 0 0 51.17 49.07
  Q 51.37 43.05 45.95 45.30
  A 1.33 1.30 1.6 0 0 45.26 45.94
  Q 43.93 48.68 46.06 50.62
  Q 46.52 51.04 45.94 50.88
  Z
  M 77.94 50.88
  L 75.96 50.35
  A 1.61 0.56 22.8 0 0 75.03 50.29
  C 68.68 52.43 74.85 60.38 78.65 55.08
  A 1.55 1.03 -70.8 0 1 79.40 54.51
  Q 80.94 54.11 81.65 55.42
  A 1.88 0.96 75.6 0 0 82.28 56.13
  C 87.45 58.92 90.03 51.55 84.76 50.26
  A 1.71 1.32 -43.1 0 0 83.81 50.35
  Q 80.12 51.83 82.74 49.86
  A 1.07 0.98 -19.5 0 0 83.16 49.07
  Q 83.38 43.05 77.94 45.29
  A 1.39 1.31 0.5 0 0 77.24 45.94
  Q 75.89 48.70 78.05 50.62
  Q 78.53 51.04 77.94 50.88
  Z
  M 28.41 56.33
  Q 30.38 54.17 29.43 51.91
  C 27.29 46.85 19.43 50.47 23.43 56.31
  Q 23.69 56.69 23.26 56.53
  Q 18.05 54.59 17.17 60.02
  A 1.33 1.30 -57.3 0 0 17.36 60.94
  Q 20.72 66.18 24.90 61.11
  C 26.57 59.10 23.93 65.65 23.86 65.82
  A 0.41 0.35 -77.3 0 0 24.16 66.38
  L 27.82 66.39
  A 0.42 0.36 77.7 0 0 28.12 65.82
  L 26.44 61.46
  A 0.55 0.41 73.5 0 1 26.70 60.75
  C 27.50 60.63 28.69 64.29 31.79 63.41
  C 35.92 62.24 35.79 57.16 31.25 56.00
  A 1.83 0.73 -26.7 0 0 30.30 56.08
  L 28.55 56.61
  Q 28.01 56.77 28.41 56.33
  Z
  M 46.37 59.18
  Q 47.87 59.92 49.67 59.42
  A 0.45 0.44 -20.1 0 0 49.96 58.81
  L 48.24 55.12
  Q 48.01 54.62 47.76 55.13
  L 46.14 58.48
  A 0.53 0.52 -63.7 0 0 46.37 59.18
  Z
  M 79.71 55.14
  L 78.02 58.71
  A 0.45 0.42 -68.9 0 0 78.27 59.32
  Q 79.98 59.82 81.75 59.36
  A 0.45 0.40 70.4 0 0 81.99 58.77
  L 80.41 55.18
  Q 80.07 54.39 79.71 55.14
  Z
  M 61.94 66.88
  L 59.96 66.35
  A 1.61 0.56 22.8 0 0 59.03 66.29
  C 52.68 68.43 58.86 76.39 62.65 71.07
  A 1.45 1.08 -72.4 0 1 63.41 70.52
  Q 65.05 70.15 65.79 71.54
  A 1.78 1.04 77.0 0 0 66.45 72.24
  C 71.53 74.71 73.90 67.52 68.76 66.26
  A 1.71 1.32 -43.1 0 0 67.81 66.35
  Q 64.12 67.83 66.74 65.86
  A 1.07 0.98 -19.5 0 0 67.16 65.07
  Q 67.38 59.05 61.94 61.29
  A 1.39 1.31 0.5 0 0 61.24 61.94
  Q 59.89 64.70 62.05 66.62
  Q 62.53 67.04 61.94 66.88
  Z
  M 63.69 71.17
  L 62.02 74.71
  A 0.45 0.42 -68.9 0 0 62.27 75.32
  Q 63.98 75.82 65.76 75.35
  A 0.44 0.38 70.5 0 0 65.98 74.77
  L 64.43 71.22
  Q 64.07 70.39 63.69 71.17
  Z
  M 45.93 82.90
  L 44.20 82.41
  Q 43.52 82.22 43.27 82.27
  C 38.07 83.38 40.55 90.32 44.92 88.52
  C 46.31 87.94 47.32 85.25 49.19 86.92
  C 55.21 92.30 58.20 83.59 52.76 82.26
  A 1.71 1.32 -43.1 0 0 51.81 82.35
  Q 48.12 83.83 50.74 81.86
  A 1.06 1.01 -17.7 0 0 51.17 81.07
  Q 51.36 75.04 45.95 77.30
  A 1.38 1.34 0.9 0 0 45.26 77.95
  Q 43.88 80.70 46.05 82.62
  Q 46.57 83.08 45.93 82.90
  Z
  M 77.95 82.83
  L 75.51 82.31
  A 1.53 1.33 34.9 0 0 74.57 82.41
  C 68.89 85.20 75.22 92.07 78.65 87.07
  A 1.15 0.59 -63.6 0 1 79.40 86.52
  L 80.61 86.52
  A 1.14 0.57 63.6 0 1 81.35 87.08
  C 83.94 91.09 90.14 87.42 86.48 83.05
  A 2.44 2.19 57.8 0 0 83.84 82.30
  Q 80.31 83.78 82.74 81.87
  A 1.17 1.04 -20.5 0 0 83.17 81.06
  Q 83.36 75.05 77.95 77.30
  A 1.38 1.34 0.9 0 0 77.26 77.95
  Q 75.88 80.70 78.05 82.62
  Q 78.39 82.92 77.95 82.83
  Z
  M 46.37 91.18
  Q 47.87 91.92 49.68 91.41
  A 0.45 0.44 69.6 0 0 49.95 90.79
  L 48.29 87.20
  Q 48.06 86.69 47.81 87.18
  L 46.13 90.47
  A 0.53 0.52 26.8 0 0 46.37 91.18
  Z
  M 78.89 88.84
  Q 76.05 92.79 81.60 91.35
  A 0.45 0.44 -18.8 0 0 81.90 90.75
  L 80.42 87.23
  A 0.42 0.38 59.4 0 0 79.81 87.04
  Q 79.34 87.41 79.23 87.95
  Q 79.09 88.55 78.89 88.84
  Z
  M 102.93 118.47
  C 108.63 115.58 103.80 111.43 103.94 111.22
  A 0.47 0.31 30.4 0 1 104.50 111.19
  Q 108.67 113.54 110.74 109.20
  Q 111.92 106.73 109.45 105.32
  Q 105.77 103.24 103.56 106.47
  A 1.32 0.67 -66.2 0 1 102.90 107.01
  C 101.78 107.24 103.94 102.61 104.12 102.17
  A 0.41 0.35 -77.3 0 0 103.82 101.61
  L 100.17 101.61
  A 0.42 0.35 77.1 0 0 99.88 102.18
  C 100.24 103.05 102.38 109.27 100.51 106.56
  C 96.39 100.57 88.98 109.10 96.28 111.94
  A 1.56 1.49 -40.7 0 0 97.23 111.99
  L 99.47 111.40
  Q 99.94 111.28 99.65 111.67
  Q 95.87 116.87 102.00 118.56
  A 1.35 1.29 38.2 0 0 102.93 118.47
  Z
  M 50.05 117.13
  L 52.05 117.68
  A 1.66 0.74 26.5 0 0 52.98 117.72
  C 59.23 115.54 53.23 107.47 49.18 113.17
  Q 48.92 113.53 48.65 113.45
  A 0.54 0.42 -69.0 0 1 48.44 112.77
  L 49.95 109.22
  A 0.44 0.38 -70.7 0 0 49.72 108.64
  Q 48.02 108.20 46.20 108.67
  A 0.36 0.34 64.6 0 0 46.03 109.22
  Q 47.20 110.94 47.29 113.04
  Q 47.31 113.53 47.03 113.13
  Q 45.22 110.58 42.16 111.52
  A 1.52 1.40 -78.6 0 0 41.39 112.08
  Q 38.53 116.07 43.25 117.77
  A 1.51 0.57 -25.4 0 0 44.18 117.69
  L 45.98 117.13
  Q 46.60 116.94 46.09 117.39
  C 42.00 120.97 47.74 125.61 50.46 122.44
  Q 52.77 119.74 49.96 117.38
  Q 49.47 116.96 50.05 117.13
  Z
  M 82.05 117.13
  L 84.05 117.68
  A 1.62 0.68 25.4 0 0 84.98 117.72
  C 91.35 115.48 85.02 107.58 81.27 113.02
  Q 80.98 113.44 80.71 113.44
  A 0.53 0.38 -74.6 0 1 80.45 112.72
  L 81.95 109.21
  A 0.43 0.38 -70.5 0 0 81.72 108.64
  Q 80.02 108.21 78.23 108.65
  A 0.44 0.36 72.1 0 0 78.01 109.21
  L 79.42 112.95
  Q 79.68 113.63 79.02 113.31
  Q 78.63 113.13 78.40 112.70
  Q 78.07 112.11 77.83 111.93
  C 73.77 108.98 69.20 115.60 75.26 117.77
  A 1.47 0.54 -25.0 0 0 76.18 117.69
  L 77.98 117.13
  Q 78.60 116.94 78.09 117.39
  C 74.00 120.97 79.74 125.61 82.46 122.44
  Q 84.77 119.74 81.96 117.38
  Q 81.47 116.96 82.05 117.13
  Z
  M 98.78 146.24
  Q 103.79 135.86 106.08 124.55
  A 0.58 0.55 -76.6 0 0 105.70 123.89
  Q 104.24 123.46 102.80 123.89
  A 0.84 0.79 87.5 0 0 102.24 124.54
  Q 100.26 136.55 93.79 146.83
  A 1.04 0.69 -49.0 0 0 93.67 147.74
  L 94.99 150.08
  A 1.04 0.72 -9.7 0 0 95.83 150.47
  L 110.11 150.43
  A 0.55 0.52 -0.0 0 0 110.65 149.92
  L 110.71 144.08
  A 0.76 0.72 10.3 0 0 110.21 143.39
  Q 106.50 142.07 107.22 146.08
  A 0.45 0.42 83.7 0 1 106.82 146.61
  L 99.07 146.72
  A 0.34 0.33 -76.9 0 1 98.78 146.24
  Z"
/>
<path fill="#f2f3f5" fill-opacity="0.969" d="
  M 17.25 14.79
  Q 14.00 18.61 14.00 20.75
  Q 14.00 84.00 14.00 147.25
  Q 14.00 148.78 17.00 152.96
  Q 14.07 150.42 13.46 146.50
  L 13.71 21.00
  Q 14.20 17.14 17.25 14.79
  Z"
/>
<path fill="#2d261b" d="
  M 20.90 21.80
  Q 21.50 25.78 17.79 24.65
  A 0.71 0.67 8.7 0 1 17.28 24.00
  L 17.36 18.08
  A 0.54 0.51 -0.6 0 1 17.89 17.57
  L 32.17 17.53
  A 1.04 0.72 -9.7 0 1 33.01 17.92
  L 34.33 20.26
  A 1.02 0.66 -49.5 0 1 34.21 21.16
  Q 27.72 31.52 25.72 43.60
  A 0.67 0.59 -85.3 0 1 25.14 44.16
  L 22.33 44.24
  A 0.46 0.41 -85.4 0 1 21.92 43.70
  Q 23.96 32.24 29.34 21.92
  A 0.34 0.32 -75.2 0 0 29.08 21.43
  L 21.32 21.28
  A 0.45 0.42 85.9 0 0 20.90 21.80
  Z"
/>
<path fill="#030605" fill-opacity="0.192" d="
  M 13.71 21.00
  L 13.46 146.50
  L 11.29 143.67
  A 1.61 1.25 -69.7 0 1 11.00 142.75
  L 11.01 23.00
  Q 11.01 22.56 11.28 22.09
  Q 11.76 21.25 11.87 20.24
  Q 11.91 19.87 12.01 20.22
  Q 12.44 21.74 13.71 21.00
  Z"
/>
<path fill="#2d261b" d="
  M 46.06 50.62
  Q 43.93 48.68 45.26 45.94
  A 1.33 1.30 1.6 0 1 45.95 45.30
  Q 51.37 43.05 51.17 49.07
  A 1.10 1.00 -18.9 0 1 50.74 49.86
  Q 48.12 51.83 51.81 50.35
  A 1.71 1.32 -43.1 0 1 52.76 50.26
  C 57.98 51.54 55.44 58.90 50.29 56.13
  A 1.79 0.94 75.8 0 1 49.65 55.42
  Q 48.94 54.11 47.40 54.51
  A 1.55 1.03 -70.8 0 0 46.65 55.08
  C 42.85 60.38 36.68 52.43 43.03 50.29
  A 1.61 0.56 22.8 0 1 43.96 50.35
  L 45.94 50.88
  Q 46.52 51.04 46.06 50.62
  Z"
/>
<path fill="#2d261b" d="
  M 78.05 50.62
  Q 75.89 48.70 77.24 45.94
  A 1.39 1.31 0.5 0 1 77.94 45.29
  Q 83.38 43.05 83.16 49.07
  A 1.07 0.98 -19.5 0 1 82.74 49.86
  Q 80.12 51.83 83.81 50.35
  A 1.71 1.32 -43.1 0 1 84.76 50.26
  C 90.03 51.55 87.45 58.92 82.28 56.13
  A 1.88 0.96 75.6 0 1 81.65 55.42
  Q 80.94 54.11 79.40 54.51
  A 1.55 1.03 -70.8 0 0 78.65 55.08
  C 74.85 60.38 68.68 52.43 75.03 50.29
  A 1.61 0.56 22.8 0 1 75.96 50.35
  L 77.94 50.88
  Q 78.53 51.04 78.05 50.62
  Z"
/>
<path fill="#2d261b" d="
  M 28.55 56.61
  L 30.30 56.08
  A 1.83 0.73 -26.7 0 1 31.25 56.00
  C 35.79 57.16 35.92 62.24 31.79 63.41
  C 28.69 64.29 27.50 60.63 26.70 60.75
  A 0.55 0.41 73.5 0 0 26.44 61.46
  L 28.12 65.82
  A 0.42 0.36 77.7 0 1 27.82 66.39
  L 24.16 66.38
  A 0.41 0.35 -77.3 0 1 23.86 65.82
  C 23.93 65.65 26.57 59.10 24.90 61.11
  Q 20.72 66.18 17.36 60.94
  A 1.33 1.30 -57.3 0 1 17.17 60.02
  Q 18.05 54.59 23.26 56.53
  Q 23.69 56.69 23.43 56.31
  C 19.43 50.47 27.29 46.85 29.43 51.91
  Q 30.38 54.17 28.41 56.33
  Q 28.01 56.77 28.55 56.61
  Z"
/>
<path fill="#2d261b" d="
  M 46.14 58.48
  L 47.76 55.13
  Q 48.01 54.62 48.24 55.12
  L 49.96 58.81
  A 0.45 0.44 -20.1 0 1 49.67 59.42
  Q 47.87 59.92 46.37 59.18
  A 0.53 0.52 -63.7 0 1 46.14 58.48
  Z"
/>
<path fill="#2d261b" d="
  M 79.71 55.14
  Q 80.07 54.39 80.41 55.18
  L 81.99 58.77
  A 0.45 0.40 70.4 0 1 81.75 59.36
  Q 79.98 59.82 78.27 59.32
  A 0.45 0.42 -68.9 0 1 78.02 58.71
  L 79.71 55.14
  Z"
/>
<path fill="#2d261b" d="
  M 62.05 66.62
  Q 59.89 64.70 61.24 61.94
  A 1.39 1.31 0.5 0 1 61.94 61.29
  Q 67.38 59.05 67.16 65.07
  A 1.07 0.98 -19.5 0 1 66.74 65.86
  Q 64.12 67.83 67.81 66.35
  A 1.71 1.32 -43.1 0 1 68.76 66.26
  C 73.90 67.52 71.53 74.71 66.45 72.24
  A 1.78 1.04 77.0 0 1 65.79 71.54
  Q 65.05 70.15 63.41 70.52
  A 1.45 1.08 -72.4 0 0 62.65 71.07
  C 58.86 76.39 52.68 68.43 59.03 66.29
  A 1.61 0.56 22.8 0 1 59.96 66.35
  L 61.94 66.88
  Q 62.53 67.04 62.05 66.62
  Z"
/>
<path fill="#2d261b" d="
  M 63.69 71.17
  Q 64.07 70.39 64.43 71.22
  L 65.98 74.77
  A 0.44 0.38 70.5 0 1 65.76 75.35
  Q 63.98 75.82 62.27 75.32
  A 0.45 0.42 -68.9 0 1 62.02 74.71
  L 63.69 71.17
  Z"
/>
<path fill="#2d261b" d="
  M 46.05 82.62
  Q 43.88 80.70 45.26 77.95
  A 1.38 1.34 0.9 0 1 45.95 77.30
  Q 51.36 75.04 51.17 81.07
  A 1.06 1.01 -17.7 0 1 50.74 81.86
  Q 48.12 83.83 51.81 82.35
  A 1.71 1.32 -43.1 0 1 52.76 82.26
  C 58.20 83.59 55.21 92.30 49.19 86.92
  C 47.32 85.25 46.31 87.94 44.92 88.52
  C 40.55 90.32 38.07 83.38 43.27 82.27
  Q 43.52 82.22 44.20 82.41
  L 45.93 82.90
  Q 46.57 83.08 46.05 82.62
  Z"
/>
<path fill="#2d261b" d="
  M 78.05 82.62
  Q 75.88 80.70 77.26 77.95
  A 1.38 1.34 0.9 0 1 77.95 77.30
  Q 83.36 75.05 83.17 81.06
  A 1.17 1.04 -20.5 0 1 82.74 81.87
  Q 80.31 83.78 83.84 82.30
  A 2.44 2.19 57.8 0 1 86.48 83.05
  C 90.14 87.42 83.94 91.09 81.35 87.08
  A 1.14 0.57 63.6 0 0 80.61 86.52
  L 79.40 86.52
  A 1.15 0.59 -63.6 0 0 78.65 87.07
  C 75.22 92.07 68.89 85.20 74.57 82.41
  A 1.53 1.33 34.9 0 1 75.51 82.31
  L 77.95 82.83
  Q 78.39 82.92 78.05 82.62
  Z"
/>
<path fill="#2d261b" d="
  M 46.13 90.47
  L 47.81 87.18
  Q 48.06 86.69 48.29 87.20
  L 49.95 90.79
  A 0.45 0.44 69.6 0 1 49.68 91.41
  Q 47.87 91.92 46.37 91.18
  A 0.53 0.52 26.8 0 1 46.13 90.47
  Z"
/>
<path fill="#2d261b" d="
  M 79.23 87.95
  Q 79.34 87.41 79.81 87.04
  A 0.42 0.38 59.4 0 1 80.42 87.23
  L 81.90 90.75
  A 0.45 0.44 -18.8 0 1 81.60 91.35
  Q 76.05 92.79 78.89 88.84
  Q 79.09 88.55 79.23 87.95
  Z"
/>
<path fill="#2d261b" d="
  M 103.94 111.22
  C 103.80 111.43 108.63 115.58 102.93 118.47
  A 1.35 1.29 38.2 0 1 102.00 118.56
  Q 95.87 116.87 99.65 111.67
  Q 99.94 111.28 99.47 111.40
  L 97.23 111.99
  A 1.56 1.49 -40.7 0 1 96.28 111.94
  C 88.98 109.10 96.39 100.57 100.51 106.56
  C 102.38 109.27 100.24 103.05 99.88 102.18
  A 0.42 0.35 77.1 0 1 100.17 101.61
  L 103.82 101.61
  A 0.41 0.35 -77.3 0 1 104.12 102.17
  C 103.94 102.61 101.78 107.24 102.90 107.01
  A 1.32 0.67 -66.2 0 0 103.56 106.47
  Q 105.77 103.24 109.45 105.32
  Q 111.92 106.73 110.74 109.20
  Q 108.67 113.54 104.50 111.19
  A 0.47 0.31 30.4 0 0 103.94 111.22
  Z"
/>
<path fill="#2d261b" d="
  M 49.96 117.38
  Q 52.77 119.74 50.46 122.44
  C 47.74 125.61 42.00 120.97 46.09 117.39
  Q 46.60 116.94 45.98 117.13
  L 44.18 117.69
  A 1.51 0.57 -25.4 0 1 43.25 117.77
  Q 38.53 116.07 41.39 112.08
  A 1.52 1.40 -78.6 0 1 42.16 111.52
  Q 45.22 110.58 47.03 113.13
  Q 47.31 113.53 47.29 113.04
  Q 47.20 110.94 46.03 109.22
  A 0.36 0.34 64.6 0 1 46.20 108.67
  Q 48.02 108.20 49.72 108.64
  A 0.44 0.38 -70.7 0 1 49.95 109.22
  L 48.44 112.77
  A 0.54 0.42 -69.0 0 0 48.65 113.45
  Q 48.92 113.53 49.18 113.17
  C 53.23 107.47 59.23 115.54 52.98 117.72
  A 1.66 0.74 26.5 0 1 52.05 117.68
  L 50.05 117.13
  Q 49.47 116.96 49.96 117.38
  Z"
/>
<path fill="#2d261b" d="
  M 81.96 117.38
  Q 84.77 119.74 82.46 122.44
  C 79.74 125.61 74.00 120.97 78.09 117.39
  Q 78.60 116.94 77.98 117.13
  L 76.18 117.69
  A 1.47 0.54 -25.0 0 1 75.26 117.77
  C 69.20 115.60 73.77 108.98 77.83 111.93
  Q 78.07 112.11 78.40 112.70
  Q 78.63 113.13 79.02 113.31
  Q 79.68 113.63 79.42 112.95
  L 78.01 109.21
  A 0.44 0.36 72.1 0 1 78.23 108.65
  Q 80.02 108.21 81.72 108.64
  A 0.43 0.38 -70.5 0 1 81.95 109.21
  L 80.45 112.72
  A 0.53 0.38 -74.6 0 0 80.71 113.44
  Q 80.98 113.44 81.27 113.02
  C 85.02 107.58 91.35 115.48 84.98 117.72
  A 1.62 0.68 25.4 0 1 84.05 117.68
  L 82.05 117.13
  Q 81.47 116.96 81.96 117.38
  Z"
/>
<path fill="#2d261b" d="
  M 99.07 146.72
  L 106.82 146.61
  A 0.45 0.42 83.7 0 0 107.22 146.08
  Q 106.50 142.07 110.21 143.39
  A 0.76 0.72 10.3 0 1 110.71 144.08
  L 110.65 149.92
  A 0.55 0.52 -0.0 0 1 110.11 150.43
  L 95.83 150.47
  A 1.04 0.72 -9.7 0 1 94.99 150.08
  L 93.67 147.74
  A 1.04 0.69 -49.0 0 1 93.79 146.83
  Q 100.26 136.55 102.24 124.54
  A 0.84 0.79 87.5 0 1 102.80 123.89
  Q 104.24 123.46 105.70 123.89
  A 0.58 0.55 -76.6 0 1 106.08 124.55
  Q 103.79 135.86 98.78 146.24
  A 0.34 0.33 -76.9 0 0 99.07 146.72
  Z"
/>
<path fill="#020102" fill-opacity="0.267" d="
  M 109.71 154.25
  Q 109.98 154.64 110.52 154.73
  A 0.30 0.27 22.9 0 1 110.73 155.17
  Q 109.43 156.81 107.50 156.84
  Q 76.30 157.25 22.56 156.91
  A 0.86 0.39 -1.1 0 1 21.73 156.55
  C 21.66 155.98 42.26 155.74 44.58 155.60
  Q 48.65 155.33 52.75 155.31
  Q 78.74 155.20 104.73 155.25
  C 106.54 155.25 107.99 154.71 109.71 154.25
  Z"
/>
</svg>
