<?xml version="1.0" encoding="UTF-8" standalone="no"?>
<svg xmlns="http://www.w3.org/2000/svg" version="1.2" baseProfile="tiny" viewBox="0 0 128 168">
<g stroke-width="0.00" fill="none" stroke-linecap="butt">
<path stroke="#d9d9d9" stroke-opacity="0.588" vector-effect="non-scaling-stroke" d="
  M 17.00 152.96
  Q 19.70 155.20 23.25 155.21
  Q 63.16 155.24 103.07 155.26
  C 111.93 155.26 114.49 151.07 114.50 142.42
  Q 114.51 83.19 114.49 23.95
  C 114.49 15.20 110.19 12.76 101.73 12.75
  Q 63.16 12.73 24.59 12.77
  C 20.13 12.77 17.12 13.76 14.96 17.50"
/>
<path stroke="#f9f9fa" stroke-opacity="0.984" vector-effect="non-scaling-stroke" d="
  M 17.00 152.96
  Q 14.00 148.78 14.00 147.25
  Q 14.00 84.77 14.00 22.30
  C 14.00 20.62 14.70 19.17 14.96 17.50"
/>
<path stroke="#96938d" vector-effect="non-scaling-stroke" d="
  M 30.56 35.54
  Q 28.15 44.62 20.90 38.55
  A 0.89 0.77 52.3 0 0 20.05 38.38
  Q 18.97 38.82 18.48 39.85
  A 0.88 0.78 41.4 0 0 18.59 40.71
  C 22.86 46.40 30.58 45.58 33.06 38.82
  Q 35.70 31.60 33.67 24.23
  C 29.73 10.00 11.42 20.15 18.55 31.99
  Q 22.25 38.13 30.22 35.24
  Q 30.69 35.07 30.56 35.54"
/>
<path stroke="#96938d" vector-effect="non-scaling-stroke" d="
  M 45.94 50.89
  L 43.96 50.35
  A 1.56 0.57 23.8 0 0 43.03 50.29
  C 36.77 52.41 42.70 60.16 46.46 55.30
  C 47.12 54.44 47.58 54.27 48.63 54.51
  A 1.38 0.84 70.1 0 1 49.35 55.09
  C 51.99 59.13 58.74 55.36 53.86 50.47
  A 1.49 1.48 56.0 0 0 52.23 50.15
  Q 48.34 51.76 50.74 49.87
  A 1.17 1.04 -20.5 0 0 51.17 49.06
  Q 51.36 43.05 45.95 45.30
  A 1.38 1.34 0.9 0 0 45.26 45.95
  Q 43.88 48.70 46.05 50.62
  Q 46.53 51.04 45.94 50.89"
/>
<path stroke="#96938d" vector-effect="non-scaling-stroke" d="
  M 77.94 50.88
  L 75.96 50.35
  A 1.61 0.56 22.8 0 0 75.03 50.29
  C 68.68 52.43 74.85 60.38 78.65 55.08
  A 1.55 1.03 -70.8 0 1 79.40 54.51
  Q 80.94 54.12 81.66 55.42
  A 1.87 1.01 76.2 0 0 82.30 56.13
  C 87.50 58.97 89.95 51.53 84.76 50.26
  A 1.71 1.32 -43.1 0 0 83.81 50.35
  Q 80.12 51.83 82.74 49.86
  A 1.07 0.98 -19.5 0 0 83.16 49.07
  Q 83.38 43.05 77.94 45.29
  A 1.39 1.31 0.5 0 0 77.24 45.94
  Q 75.89 48.70 78.05 50.62
  Q 78.53 51.04 77.94 50.88"
/>
<path stroke="#96938d" vector-effect="non-scaling-stroke" d="
  M 28.41 56.33
  Q 30.39 54.16 29.42 51.89
  C 27.24 46.78 19.47 50.62 23.43 56.31
  Q 23.69 56.69 23.26 56.53
  Q 18.05 54.59 17.17 60.02
  A 1.33 1.30 -57.3 0 0 17.36 60.94
  Q 20.72 66.18 24.90 61.11
  C 26.57 59.10 23.93 65.65 23.86 65.82
  A 0.41 0.35 -77.3 0 0 24.16 66.38
  L 27.82 66.39
  A 0.43 0.34 77.7 0 0 28.10 65.82
  L 26.37 61.23
  A 0.39 0.33 65.2 0 1 26.49 60.79
  Q 26.61 60.72 26.75 60.71
  A 0.87 0.50 69.6 0 1 27.39 61.24
  C 30.23 67.13 38.47 60.42 33.07 56.74
  Q 31.14 55.42 28.53 56.48
  Q 28.12 56.65 28.41 56.33"
/>
<path stroke="#96938d" vector-effect="non-scaling-stroke" d="
  M 46.37 59.18
  Q 47.96 59.97 49.75 59.36
  A 0.46 0.42 67.9 0 0 49.98 58.74
  L 48.33 55.21
  Q 48.11 54.72 47.87 55.17
  L 46.12 58.48
  A 0.53 0.51 26.8 0 0 46.37 59.18"
/>
<path stroke="#96938d" vector-effect="non-scaling-stroke" d="
  M 78.89 56.84
  Q 76.05 60.79 81.60 59.35
  A 0.45 0.44 -18.8 0 0 81.90 58.75
  L 80.40 55.23
  A 0.41 0.39 58.6 0 0 79.78 55.06
  Q 79.35 55.42 79.23 55.94
  Q 79.10 56.55 78.89 56.84"
/>
<path stroke="#96938d" vector-effect="non-scaling-stroke" d="
  M 61.71 61.27
  Q 57.62 59.92 56.33 63.76
  A 1.37 1.32 42.4 0 0 56.39 64.71
  C 59.68 72.24 63.36 62.08 65.84 66.24
  A 1.89 0.92 73.0 0 0 66.49 66.94
  C 72.47 70.18 74.00 58.79 66.26 61.37
  Q 65.84 61.51 66.14 61.19
  C 68.14 59.08 67.49 55.95 64.52 55.35
  C 61.43 54.71 59.36 58.75 61.81 61.10
  Q 62.13 61.40 61.71 61.27"
/>
<path stroke="#96938d" vector-effect="non-scaling-stroke" d="
  M 62.18 69.73
  Q 63.92 70.27 65.50 69.86
  A 0.47 0.43 -19.3 0 0 65.83 69.24
  L 64.26 66.08
  Q 64.00 65.56 63.74 66.11
  L 62.08 69.53
  A 0.15 0.14 20.4 0 0 62.18 69.73"
/>
<path stroke="#96938d" vector-effect="non-scaling-stroke" d="
  M 45.72 72.00
  C 38.81 69.43 38.84 79.96 45.13 77.84
  A 1.69 1.10 -72.6 0 0 45.86 77.24
  Q 46.69 76.01 48.24 75.76
  A 0.88 0.77 65.1 0 1 49.03 76.11
  Q 52.19 80.35 55.33 76.21
  A 1.24 1.18 -31.6 0 0 55.57 75.31
  Q 54.86 69.94 49.99 72.25
  Q 49.62 72.42 49.92 72.15
  C 52.19 70.06 51.37 65.88 48.20 65.93
  C 44.91 65.98 43.74 69.36 45.84 71.81
  Q 46.14 72.15 45.72 72.00"
/>
<path stroke="#96938d" vector-effect="non-scaling-stroke" d="
  M 77.73 71.99
  Q 73.65 70.43 72.32 74.56
  A 1.24 1.23 40.3 0 0 72.40 75.49
  Q 75.21 80.92 79.08 76.12
  A 1.29 1.28 45.4 0 1 81.09 76.14
  Q 84.39 80.36 87.37 76.19
  A 1.31 1.30 59.3 0 0 87.60 75.28
  Q 86.92 70.01 81.98 72.25
  Q 81.58 72.44 81.89 72.11
  Q 85.15 68.66 81.20 66.06
  A 1.18 1.15 -34.4 0 0 80.28 65.90
  Q 74.65 67.27 77.89 71.79
  Q 78.16 72.16 77.73 71.99"
/>
<path stroke="#96938d" vector-effect="non-scaling-stroke" d="
  M 47.88 76.56
  Q 43.92 82.13 49.48 80.59
  A 0.47 0.46 -18.9 0 0 49.79 79.97
  L 48.38 76.61
  Q 48.18 76.14 47.88 76.56"
/>
<path stroke="#96938d" vector-effect="non-scaling-stroke" d="
  M 79.88 76.56
  Q 75.92 82.13 81.48 80.59
  A 0.47 0.46 -18.9 0 0 81.79 79.97
  L 80.38 76.61
  Q 80.18 76.14 79.88 76.56"
/>
<path stroke="#96938d" vector-effect="non-scaling-stroke" d="
  M 48.56 91.08
  L 49.84 87.92
  A 0.42 0.34 -77.0 0 0 49.56 87.35
  L 46.44 87.35
  A 0.42 0.35 76.8 0 0 46.16 87.92
  L 47.36 91.02
  Q 47.95 92.55 48.56 91.08"
/>
<path stroke="#96938d" vector-effect="non-scaling-stroke" d="
  M 80.56 91.08
  L 81.84 87.92
  A 0.42 0.34 -77.0 0 0 81.56 87.35
  L 78.44 87.35
  A 0.42 0.35 76.8 0 0 78.16 87.92
  L 79.36 91.02
  Q 79.95 92.55 80.56 91.08"
/>
<path stroke="#96938d" vector-effect="non-scaling-stroke" d="
  M 46.32 95.90
  C 45.56 96.62 45.04 96.95 44.87 98.07
  C 43.89 104.50 54.58 102.36 50.30 96.21
  Q 50.04 95.84 50.47 96.00
  C 56.85 98.42 57.37 88.66 51.13 89.97
  A 1.36 0.98 -72.3 0 0 50.39 90.52
  Q 49.39 92.06 47.57 91.99
  A 1.33 1.05 65.1 0 1 46.74 91.57
  Q 42.83 87.43 40.41 92.60
  A 1.22 1.19 -42.7 0 0 40.36 93.53
  Q 41.88 97.85 46.25 95.78
  Q 46.64 95.60 46.32 95.90"
/>
<path stroke="#96938d" vector-effect="non-scaling-stroke" d="
  M 78.09 95.93
  Q 74.87 99.50 79.03 101.95
  A 1.23 1.22 52.9 0 0 79.94 102.08
  Q 85.13 100.80 82.30 96.19
  Q 82.06 95.80 82.49 95.97
  Q 86.26 97.50 87.63 93.69
  A 1.34 1.23 45.6 0 0 87.60 92.75
  Q 85.32 87.14 80.90 91.92
  A 1.27 1.18 -43.6 0 1 79.05 91.94
  Q 75.18 87.28 72.46 92.38
  A 1.30 1.29 -38.6 0 0 72.35 93.32
  Q 73.61 97.88 78.00 95.79
  Q 78.39 95.60 78.09 95.93"
/>
<path stroke="#96938d" vector-effect="non-scaling-stroke" d="
  M 103.99 111.48
  Q 103.96 111.36 103.98 111.27
  A 0.41 0.25 24.0 0 1 104.51 111.20
  Q 107.71 112.98 109.64 110.88
  C 113.55 106.61 106.45 101.63 103.57 106.45
  A 1.23 0.70 -70.3 0 1 102.92 107.01
  C 101.77 107.25 103.94 102.62 104.12 102.17
  A 0.41 0.35 -77.3 0 0 103.82 101.61
  L 100.19 101.61
  A 0.41 0.35 77.3 0 0 99.89 102.17
  C 99.92 102.23 102.35 109.24 100.54 106.60
  Q 98.18 103.14 94.43 105.45
  Q 91.59 107.20 93.54 109.93
  C 96.05 113.43 99.45 110.89 99.93 111.32
  A 0.32 0.22 -41.8 0 1 99.84 111.71
  C 94.53 116.21 103.42 122.08 105.68 115.68
  Q 106.50 113.36 104.24 111.81
  A 0.65 0.40 21.4 0 1 103.99 111.48"
/>
<path stroke="#96938d" vector-effect="non-scaling-stroke" d="
  M 50.05 117.13
  L 52.05 117.68
  A 1.66 0.74 26.5 0 0 52.98 117.72
  C 59.24 115.54 53.22 107.47 49.18 113.17
  Q 48.93 113.53 48.65 113.44
  A 0.54 0.42 -69.4 0 1 48.44 112.75
  L 49.96 109.22
  A 0.44 0.39 -70.0 0 0 49.73 108.64
  Q 48.03 108.20 46.20 108.67
  A 0.36 0.34 64.6 0 0 46.03 109.22
  Q 47.20 110.94 47.29 113.04
  Q 47.31 113.52 47.02 113.11
  Q 45.22 110.58 42.14 111.51
  A 1.51 1.43 -80.3 0 0 41.38 112.08
  Q 38.49 116.35 43.51 117.79
  A 1.38 0.41 -24.4 0 0 44.43 117.66
  L 45.99 117.14
  Q 46.63 116.92 46.09 117.39
  C 41.99 120.96 47.74 125.61 50.46 122.44
  Q 52.77 119.74 49.96 117.38
  Q 49.47 116.96 50.05 117.13"
/>
<path stroke="#96938d" vector-effect="non-scaling-stroke" d="
  M 82.05 117.13
  L 84.05 117.68
  A 1.66 0.74 26.5 0 0 84.98 117.72
  C 91.24 115.54 85.22 107.47 81.18 113.17
  Q 80.93 113.53 80.65 113.44
  A 0.54 0.42 -69.4 0 1 80.44 112.75
  L 81.96 109.22
  A 0.44 0.39 -70.0 0 0 81.73 108.64
  Q 80.03 108.20 78.20 108.67
  A 0.36 0.34 64.6 0 0 78.03 109.22
  Q 79.20 110.94 79.29 113.04
  Q 79.31 113.53 79.03 113.13
  Q 77.22 110.58 74.16 111.52
  A 1.52 1.40 -78.6 0 0 73.39 112.08
  Q 70.53 116.07 75.25 117.77
  A 1.51 0.57 -25.4 0 0 76.18 117.69
  L 77.98 117.13
  Q 78.60 116.94 78.09 117.39
  C 74.00 120.97 79.74 125.61 82.46 122.44
  Q 84.77 119.74 81.96 117.38
  Q 81.47 116.96 82.05 117.13"
/>
<path stroke="#96938d" vector-effect="non-scaling-stroke" d="
  M 97.43 132.46
  Q 99.75 123.42 106.95 129.33
  A 0.91 0.83 53.0 0 0 107.82 129.49
  C 111.68 128.02 108.15 125.39 106.38 124.62
  C 93.18 118.87 91.93 137.75 95.13 145.39
  C 100.47 158.11 116.69 145.89 109.02 135.38
  Q 105.08 129.97 97.79 132.75
  Q 97.31 132.93 97.43 132.46"
/>
<path stroke="#96938d" vector-effect="non-scaling-stroke" d="
  M 26.1457 32.7525
  A 5.94 5.07 85.6 0 0 30.7451 26.4410
  A 5.94 5.07 85.6 0 0 25.2343 20.9075
  A 5.94 5.07 85.6 0 0 20.6349 27.2190
  A 5.94 5.07 85.6 0 0 26.1457 32.7525"
/>
<path stroke="#96938d" vector-effect="non-scaling-stroke" d="
  M 102.8374 147.0983
  A 5.94 5.07 85.1 0 0 107.3815 140.7469
  A 5.94 5.07 85.1 0 0 101.8226 135.2617
  A 5.94 5.07 85.1 0 0 97.2785 141.6131
  A 5.94 5.07 85.1 0 0 102.8374 147.0983"
/>
</g>
<path fill="#010001" fill-opacity="0.090" d="
  M 108.48 160.40
  Q 108.48 160.51 108.41 160.63
  A 0.49 0.40 12.4 0 1 108.01 160.83
  Q 87.48 161.13 66.97 160.97
  Q 66.01 160.96 63.16 161.60
  C 60.82 162.12 58.63 161.05 56.59 161.03
  Q 38.58 160.84 20.56 160.64
  A 0.76 0.55 76.2 0 1 19.98 160.15
  Q 19.72 159.50 18.70 159.66
  A 0.74 0.67 68.2 0 1 18.00 159.32
  Q 17.42 158.41 16.18 158.70
  A 1.02 0.76 -24.2 0 1 15.32 158.51
  L 9.54 152.90
  A 1.12 0.82 -70.2 0 1 9.29 152.05
  Q 9.44 150.63 8.51 149.65
  A 1.62 1.18 27.1 0 1 8.09 148.82
  C 7.79 146.35 7.00 144.12 7.00 141.69
  Q 7.00 83.69 7.00 25.69
  C 7.00 23.79 7.94 22.13 7.77 20.00
  A 1.24 1.16 -27.6 0 1 8.07 19.14
  Q 9.04 18.04 9.07 16.55
  A 1.96 1.30 71.2 0 1 9.31 15.64
  Q 11.92 11.63 15.73 8.71
  Q 16.05 8.46 17.50 7.83
  C 20.48 6.52 23.16 6.05 26.66 6.04
  Q 65.92 5.98 105.19 6.02
  A 0.57 0.41 4.2 0 1 105.77 6.51
  L 105.71 6.83
  A 0.31 0.20 -82.3 0 0 105.88 7.18
  L 109.02 7.31
  A 0.99 0.96 72.5 0 1 109.76 7.71
  Q 110.25 8.39 111.25 8.34
  A 0.38 0.36 2.9 0 1 111.65 8.76
  Q 111.41 10.25 112.41 9.70
  A 1.55 1.54 -33.0 0 1 114.37 10.11
  Q 116.07 12.32 117.41 14.48
  Q 118.64 16.50 119.09 19.42
  C 119.51 22.22 120.21 24.81 120.22 27.64
  Q 120.30 39.90 120.70 52.16
  A 0.69 0.57 -27.1 0 1 120.50 52.63
  L 120.40 52.72
  A 0.34 0.30 70.2 0 0 120.31 52.95
  Q 120.05 87.26 120.41 121.57
  C 120.47 127.44 119.94 134.70 120.12 141.28
  C 120.22 144.63 119.33 147.73 118.82 151.01
  A 1.72 1.47 74.7 0 1 118.41 151.88
  L 117.17 153.21
  A 1.55 1.43 71.9 0 0 116.78 154.06
  Q 116.57 155.66 114.91 155.84
  A 1.21 1.07 13.9 0 0 114.11 156.26
  Q 111.97 159.02 108.69 159.96
  A 0.49 0.27 86.1 0 0 108.48 160.40
  Z
  M 104.78 9.64
  Q 103.34 9.19 101.75 9.19
  Q 62.62 9.23 23.50 9.26
  A 1.80 1.30 -54.2 0 0 22.60 9.56
  Q 21.34 10.40 19.78 10.30
  A 1.16 1.11 25.3 0 0 18.92 10.59
  Q 17.56 11.80 15.78 12.22
  Q 15.50 12.28 15.00 12.71
  L 12.53 14.83
  Q 12.17 15.14 12.01 15.57
  L 10.50 19.68
  Q 9.40 22.70 9.41 23.73
  Q 9.84 83.71 9.76 143.67
  C 9.76 144.68 10.34 145.66 10.95 146.38
  A 1.09 1.07 -61.7 0 1 11.20 147.24
  Q 10.70 150.60 13.26 152.48
  A 1.70 1.44 -85.3 0 1 13.81 153.25
  Q 14.43 154.99 16.23 155.43
  A 1.04 0.85 80.9 0 1 16.86 155.99
  C 17.71 157.85 23.99 159.74 24.49 159.74
  Q 44.21 159.75 63.93 159.74
  Q 64.33 159.74 64.87 159.50
  Q 65.82 159.08 66.80 159.51
  Q 67.35 159.75 67.75 159.75
  Q 84.42 159.75 101.13 159.75
  C 102.70 159.74 103.92 159.02 105.55 158.84
  C 109.23 158.42 111.34 156.81 113.81 154.28
  Q 115.73 152.31 116.77 149.16
  Q 118.01 145.38 118.01 143.25
  Q 118.00 84.62 117.99 26.01
  C 117.99 19.79 115.82 15.65 111.41 11.82
  C 109.29 9.98 107.17 10.37 104.78 9.64
  Z"
/>
<path fill="#010202" fill-opacity="0.176" d="
  M 104.78 9.64
  C 107.17 10.37 109.29 9.98 111.41 11.82
  C 115.82 15.65 117.99 19.79 117.99 26.01
  Q 118.00 84.62 118.01 143.25
  Q 118.01 145.38 116.77 149.16
  Q 115.73 152.31 113.81 154.28
  C 111.34 156.81 109.23 158.42 105.55 158.84
  C 103.92 159.02 102.70 159.74 101.13 159.75
  Q 84.42 159.75 67.75 159.75
  Q 67.35 159.75 66.80 159.51
  Q 65.82 159.08 64.87 159.50
  Q 64.33 159.74 63.93 159.74
  Q 44.21 159.75 24.49 159.74
  C 23.99 159.74 17.71 157.85 16.86 155.99
  A 1.04 0.85 80.9 0 0 16.23 155.43
  Q 14.43 154.99 13.81 153.25
  A 1.70 1.44 -85.3 0 0 13.26 152.48
  Q 10.70 150.60 11.20 147.24
  A 1.09 1.07 -61.7 0 0 10.95 146.38
  C 10.34 145.66 9.76 144.68 9.76 143.67
  Q 9.84 83.71 9.41 23.73
  Q 9.40 22.70 10.50 19.68
  L 12.01 15.57
  Q 12.17 15.14 12.53 14.83
  L 15.00 12.71
  Q 15.50 12.28 15.78 12.22
  Q 17.56 11.80 18.92 10.59
  A 1.16 1.11 25.3 0 1 19.78 10.30
  Q 21.34 10.40 22.60 9.56
  A 1.80 1.30 -54.2 0 1 23.50 9.26
  Q 62.62 9.23 101.75 9.19
  Q 103.34 9.19 104.78 9.64
  Z
  M 14.96 17.50
  Q 13.51 19.90 13.51 22.00
  Q 13.48 84.35 13.52 146.69
  Q 13.52 150.01 17.00 152.96
  Q 19.70 155.20 23.25 155.21
  Q 63.16 155.24 103.07 155.26
  C 111.93 155.26 114.49 151.07 114.50 142.42
  Q 114.51 83.19 114.49 23.95
  C 114.49 15.20 110.19 12.76 101.73 12.75
  Q 63.16 12.73 24.59 12.77
  C 20.13 12.77 17.12 13.76 14.96 17.50
  Z
  M 115.01 105.67
  A 0.12 0.12 0.0 0 0 114.89 105.55
  L 114.87 105.55
  A 0.12 0.12 0.0 0 0 114.75 105.67
  L 114.75 145.83
  A 0.12 0.12 0.0 0 0 114.87 145.95
  L 114.89 145.95
  A 0.12 0.12 0.0 0 0 115.01 145.83
  L 115.01 105.67
  Z"
/>
<path fill="#ffffff" d="
  M 17.00 152.96
  Q 14.00 148.78 14.00 147.25
  Q 14.00 84.77 14.00 22.30
  C 14.00 20.62 14.70 19.17 14.96 17.50
  C 17.12 13.76 20.13 12.77 24.59 12.77
  Q 63.16 12.73 101.73 12.75
  C 110.19 12.76 114.49 15.20 114.49 23.95
  Q 114.51 83.19 114.50 142.42
  C 114.49 151.07 111.93 155.26 103.07 155.26
  Q 63.16 155.24 23.25 155.21
  Q 19.70 155.20 17.00 152.96
  Z
  M 30.56 35.54
  Q 28.15 44.62 20.90 38.55
  A 0.89 0.77 52.3 0 0 20.05 38.38
  Q 18.97 38.82 18.48 39.85
  A 0.88 0.78 41.4 0 0 18.59 40.71
  C 22.86 46.40 30.58 45.58 33.06 38.82
  Q 35.70 31.60 33.67 24.23
  C 29.73 10.00 11.42 20.15 18.55 31.99
  Q 22.25 38.13 30.22 35.24
  Q 30.69 35.07 30.56 35.54
  Z
  M 45.94 50.89
  L 43.96 50.35
  A 1.56 0.57 23.8 0 0 43.03 50.29
  C 36.77 52.41 42.70 60.16 46.46 55.30
  C 47.12 54.44 47.58 54.27 48.63 54.51
  A 1.38 0.84 70.1 0 1 49.35 55.09
  C 51.99 59.13 58.74 55.36 53.86 50.47
  A 1.49 1.48 56.0 0 0 52.23 50.15
  Q 48.34 51.76 50.74 49.87
  A 1.17 1.04 -20.5 0 0 51.17 49.06
  Q 51.36 43.05 45.95 45.30
  A 1.38 1.34 0.9 0 0 45.26 45.95
  Q 43.88 48.70 46.05 50.62
  Q 46.53 51.04 45.94 50.89
  Z
  M 77.94 50.88
  L 75.96 50.35
  A 1.61 0.56 22.8 0 0 75.03 50.29
  C 68.68 52.43 74.85 60.38 78.65 55.08
  A 1.55 1.03 -70.8 0 1 79.40 54.51
  Q 80.94 54.12 81.66 55.42
  A 1.87 1.01 76.2 0 0 82.30 56.13
  C 87.50 58.97 89.95 51.53 84.76 50.26
  A 1.71 1.32 -43.1 0 0 83.81 50.35
  Q 80.12 51.83 82.74 49.86
  A 1.07 0.98 -19.5 0 0 83.16 49.07
  Q 83.38 43.05 77.94 45.29
  A 1.39 1.31 0.5 0 0 77.24 45.94
  Q 75.89 48.70 78.05 50.62
  Q 78.53 51.04 77.94 50.88
  Z
  M 28.41 56.33
  Q 30.39 54.16 29.42 51.89
  C 27.24 46.78 19.47 50.62 23.43 56.31
  Q 23.69 56.69 23.26 56.53
  Q 18.05 54.59 17.17 60.02
  A 1.33 1.30 -57.3 0 0 17.36 60.94
  Q 20.72 66.18 24.90 61.11
  C 26.57 59.10 23.93 65.65 23.86 65.82
  A 0.41 0.35 -77.3 0 0 24.16 66.38
  L 27.82 66.39
  A 0.43 0.34 77.7 0 0 28.10 65.82
  L 26.37 61.23
  A 0.39 0.33 65.2 0 1 26.49 60.79
  Q 26.61 60.72 26.75 60.71
  A 0.87 0.50 69.6 0 1 27.39 61.24
  C 30.23 67.13 38.47 60.42 33.07 56.74
  Q 31.14 55.42 28.53 56.48
  Q 28.12 56.65 28.41 56.33
  Z
  M 46.37 59.18
  Q 47.96 59.97 49.75 59.36
  A 0.46 0.42 67.9 0 0 49.98 58.74
  L 48.33 55.21
  Q 48.11 54.72 47.87 55.17
  L 46.12 58.48
  A 0.53 0.51 26.8 0 0 46.37 59.18
  Z
  M 78.89 56.84
  Q 76.05 60.79 81.60 59.35
  A 0.45 0.44 -18.8 0 0 81.90 58.75
  L 80.40 55.23
  A 0.41 0.39 58.6 0 0 79.78 55.06
  Q 79.35 55.42 79.23 55.94
  Q 79.10 56.55 78.89 56.84
  Z
  M 61.71 61.27
  Q 57.62 59.92 56.33 63.76
  A 1.37 1.32 42.4 0 0 56.39 64.71
  C 59.68 72.24 63.36 62.08 65.84 66.24
  A 1.89 0.92 73.0 0 0 66.49 66.94
  C 72.47 70.18 74.00 58.79 66.26 61.37
  Q 65.84 61.51 66.14 61.19
  C 68.14 59.08 67.49 55.95 64.52 55.35
  C 61.43 54.71 59.36 58.75 61.81 61.10
  Q 62.13 61.40 61.71 61.27
  Z
  M 62.18 69.73
  Q 63.92 70.27 65.50 69.86
  A 0.47 0.43 -19.3 0 0 65.83 69.24
  L 64.26 66.08
  Q 64.00 65.56 63.74 66.11
  L 62.08 69.53
  A 0.15 0.14 20.4 0 0 62.18 69.73
  Z
  M 45.72 72.00
  C 38.81 69.43 38.84 79.96 45.13 77.84
  A 1.69 1.10 -72.6 0 0 45.86 77.24
  Q 46.69 76.01 48.24 75.76
  A 0.88 0.77 65.1 0 1 49.03 76.11
  Q 52.19 80.35 55.33 76.21
  A 1.24 1.18 -31.6 0 0 55.57 75.31
  Q 54.86 69.94 49.99 72.25
  Q 49.62 72.42 49.92 72.15
  C 52.19 70.06 51.37 65.88 48.20 65.93
  C 44.91 65.98 43.74 69.36 45.84 71.81
  Q 46.14 72.15 45.72 72.00
  Z
  M 77.73 71.99
  Q 73.65 70.43 72.32 74.56
  A 1.24 1.23 40.3 0 0 72.40 75.49
  Q 75.21 80.92 79.08 76.12
  A 1.29 1.28 45.4 0 1 81.09 76.14
  Q 84.39 80.36 87.37 76.19
  A 1.31 1.30 59.3 0 0 87.60 75.28
  Q 86.92 70.01 81.98 72.25
  Q 81.58 72.44 81.89 72.11
  Q 85.15 68.66 81.20 66.06
  A 1.18 1.15 -34.4 0 0 80.28 65.90
  Q 74.65 67.27 77.89 71.79
  Q 78.16 72.16 77.73 71.99
  Z
  M 47.88 76.56
  Q 43.92 82.13 49.48 80.59
  A 0.47 0.46 -18.9 0 0 49.79 79.97
  L 48.38 76.61
  Q 48.18 76.14 47.88 76.56
  Z
  M 79.88 76.56
  Q 75.92 82.13 81.48 80.59
  A 0.47 0.46 -18.9 0 0 81.79 79.97
  L 80.38 76.61
  Q 80.18 76.14 79.88 76.56
  Z
  M 48.56 91.08
  L 49.84 87.92
  A 0.42 0.34 -77.0 0 0 49.56 87.35
  L 46.44 87.35
  A 0.42 0.35 76.8 0 0 46.16 87.92
  L 47.36 91.02
  Q 47.95 92.55 48.56 91.08
  Z
  M 80.56 91.08
  L 81.84 87.92
  A 0.42 0.34 -77.0 0 0 81.56 87.35
  L 78.44 87.35
  A 0.42 0.35 76.8 0 0 78.16 87.92
  L 79.36 91.02
  Q 79.95 92.55 80.56 91.08
  Z
  M 46.32 95.90
  C 45.56 96.62 45.04 96.95 44.87 98.07
  C 43.89 104.50 54.58 102.36 50.30 96.21
  Q 50.04 95.84 50.47 96.00
  C 56.85 98.42 57.37 88.66 51.13 89.97
  A 1.36 0.98 -72.3 0 0 50.39 90.52
  Q 49.39 92.06 47.57 91.99
  A 1.33 1.05 65.1 0 1 46.74 91.57
  Q 42.83 87.43 40.41 92.60
  A 1.22 1.19 -42.7 0 0 40.36 93.53
  Q 41.88 97.85 46.25 95.78
  Q 46.64 95.60 46.32 95.90
  Z
  M 78.09 95.93
  Q 74.87 99.50 79.03 101.95
  A 1.23 1.22 52.9 0 0 79.94 102.08
  Q 85.13 100.80 82.30 96.19
  Q 82.06 95.80 82.49 95.97
  Q 86.26 97.50 87.63 93.69
  A 1.34 1.23 45.6 0 0 87.60 92.75
  Q 85.32 87.14 80.90 91.92
  A 1.27 1.18 -43.6 0 1 79.05 91.94
  Q 75.18 87.28 72.46 92.38
  A 1.30 1.29 -38.6 0 0 72.35 93.32
  Q 73.61 97.88 78.00 95.79
  Q 78.39 95.60 78.09 95.93
  Z
  M 103.99 111.48
  Q 103.96 111.36 103.98 111.27
  A 0.41 0.25 24.0 0 1 104.51 111.20
  Q 107.71 112.98 109.64 110.88
  C 113.55 106.61 106.45 101.63 103.57 106.45
  A 1.23 0.70 -70.3 0 1 102.92 107.01
  C 101.77 107.25 103.94 102.62 104.12 102.17
  A 0.41 0.35 -77.3 0 0 103.82 101.61
  L 100.19 101.61
  A 0.41 0.35 77.3 0 0 99.89 102.17
  C 99.92 102.23 102.35 109.24 100.54 106.60
  Q 98.18 103.14 94.43 105.45
  Q 91.59 107.20 93.54 109.93
  C 96.05 113.43 99.45 110.89 99.93 111.32
  A 0.32 0.22 -41.8 0 1 99.84 111.71
  C 94.53 116.21 103.42 122.08 105.68 115.68
  Q 106.50 113.36 104.24 111.81
  A 0.65 0.40 21.4 0 1 103.99 111.48
  Z
  M 50.05 117.13
  L 52.05 117.68
  A 1.66 0.74 26.5 0 0 52.98 117.72
  C 59.24 115.54 53.22 107.47 49.18 113.17
  Q 48.93 113.53 48.65 113.44
  A 0.54 0.42 -69.4 0 1 48.44 112.75
  L 49.96 109.22
  A 0.44 0.39 -70.0 0 0 49.73 108.64
  Q 48.03 108.20 46.20 108.67
  A 0.36 0.34 64.6 0 0 46.03 109.22
  Q 47.20 110.94 47.29 113.04
  Q 47.31 113.52 47.02 113.11
  Q 45.22 110.58 42.14 111.51
  A 1.51 1.43 -80.3 0 0 41.38 112.08
  Q 38.49 116.35 43.51 117.79
  A 1.38 0.41 -24.4 0 0 44.43 117.66
  L 45.99 117.14
  Q 46.63 116.92 46.09 117.39
  C 41.99 120.96 47.74 125.61 50.46 122.44
  Q 52.77 119.74 49.96 117.38
  Q 49.47 116.96 50.05 117.13
  Z
  M 82.05 117.13
  L 84.05 117.68
  A 1.66 0.74 26.5 0 0 84.98 117.72
  C 91.24 115.54 85.22 107.47 81.18 113.17
  Q 80.93 113.53 80.65 113.44
  A 0.54 0.42 -69.4 0 1 80.44 112.75
  L 81.96 109.22
  A 0.44 0.39 -70.0 0 0 81.73 108.64
  Q 80.03 108.20 78.20 108.67
  A 0.36 0.34 64.6 0 0 78.03 109.22
  Q 79.20 110.94 79.29 113.04
  Q 79.31 113.53 79.03 113.13
  Q 77.22 110.58 74.16 111.52
  A 1.52 1.40 -78.6 0 0 73.39 112.08
  Q 70.53 116.07 75.25 117.77
  A 1.51 0.57 -25.4 0 0 76.18 117.69
  L 77.98 117.13
  Q 78.60 116.94 78.09 117.39
  C 74.00 120.97 79.74 125.61 82.46 122.44
  Q 84.77 119.74 81.96 117.38
  Q 81.47 116.96 82.05 117.13
  Z
  M 97.43 132.46
  Q 99.75 123.42 106.95 129.33
  A 0.91 0.83 53.0 0 0 107.82 129.49
  C 111.68 128.02 108.15 125.39 106.38 124.62
  C 93.18 118.87 91.93 137.75 95.13 145.39
  C 100.47 158.11 116.69 145.89 109.02 135.38
  Q 105.08 129.97 97.79 132.75
  Q 97.31 132.93 97.43 132.46
  Z"
/>
<path fill="#2d261b" d="
  M 30.22 35.24
  Q 22.25 38.13 18.55 31.99
  C 11.42 20.15 29.73 10.00 33.67 24.23
  Q 35.70 31.60 33.06 38.82
  C 30.58 45.58 22.86 46.40 18.59 40.71
  A 0.88 0.78 41.4 0 1 18.48 39.85
  Q 18.97 38.82 20.05 38.38
  A 0.89 0.77 52.3 0 1 20.90 38.55
  Q 28.15 44.62 30.56 35.54
  Q 30.69 35.07 30.22 35.24
  Z
  M 26.1457 32.7525
  A 5.94 5.07 85.6 0 0 30.7451 26.4410
  A 5.94 5.07 85.6 0 0 25.2343 20.9075
  A 5.94 5.07 85.6 0 0 20.6349 27.2190
  A 5.94 5.07 85.6 0 0 26.1457 32.7525
  Z"
/>
<path fill="#f2f3f5" fill-opacity="0.969" d="
  M 14.96 17.50
  C 14.70 19.17 14.00 20.62 14.00 22.30
  Q 14.00 84.77 14.00 147.25
  Q 14.00 148.78 17.00 152.96
  Q 13.52 150.01 13.52 146.69
  Q 13.48 84.35 13.51 22.00
  Q 13.51 19.90 14.96 17.50
  Z"
/>
<ellipse fill="#ffffff" cx="0.00" cy="0.00" transform="translate(25.69,26.83) rotate(85.6)" rx="5.94" ry="5.07"/>
<path fill="#2d261b" d="
  M 46.05 50.62
  Q 43.88 48.70 45.26 45.95
  A 1.38 1.34 0.9 0 1 45.95 45.30
  Q 51.36 43.05 51.17 49.06
  A 1.17 1.04 -20.5 0 1 50.74 49.87
  Q 48.34 51.76 52.23 50.15
  A 1.49 1.48 56.0 0 1 53.86 50.47
  C 58.74 55.36 51.99 59.13 49.35 55.09
  A 1.38 0.84 70.1 0 0 48.63 54.51
  C 47.58 54.27 47.12 54.44 46.46 55.30
  C 42.70 60.16 36.77 52.41 43.03 50.29
  A 1.56 0.57 23.8 0 1 43.96 50.35
  L 45.94 50.89
  Q 46.53 51.04 46.05 50.62
  Z"
/>
<path fill="#2d261b" d="
  M 78.05 50.62
  Q 75.89 48.70 77.24 45.94
  A 1.39 1.31 0.5 0 1 77.94 45.29
  Q 83.38 43.05 83.16 49.07
  A 1.07 0.98 -19.5 0 1 82.74 49.86
  Q 80.12 51.83 83.81 50.35
  A 1.71 1.32 -43.1 0 1 84.76 50.26
  C 89.95 51.53 87.50 58.97 82.30 56.13
  A 1.87 1.01 76.2 0 1 81.66 55.42
  Q 80.94 54.12 79.40 54.51
  A 1.55 1.03 -70.8 0 0 78.65 55.08
  C 74.85 60.38 68.68 52.43 75.03 50.29
  A 1.61 0.56 22.8 0 1 75.96 50.35
  L 77.94 50.88
  Q 78.53 51.04 78.05 50.62
  Z"
/>
<path fill="#2d261b" d="
  M 28.53 56.48
  Q 31.14 55.42 33.07 56.74
  C 38.47 60.42 30.23 67.13 27.39 61.24
  A 0.87 0.50 69.6 0 0 26.75 60.71
  Q 26.61 60.72 26.49 60.79
  A 0.39 0.33 65.2 0 0 26.37 61.23
  L 28.10 65.82
  A 0.43 0.34 77.7 0 1 27.82 66.39
  L 24.16 66.38
  A 0.41 0.35 -77.3 0 1 23.86 65.82
  C 23.93 65.65 26.57 59.10 24.90 61.11
  Q 20.72 66.18 17.36 60.94
  A 1.33 1.30 -57.3 0 1 17.17 60.02
  Q 18.05 54.59 23.26 56.53
  Q 23.69 56.69 23.43 56.31
  C 19.47 50.62 27.24 46.78 29.42 51.89
  Q 30.39 54.16 28.41 56.33
  Q 28.12 56.65 28.53 56.48
  Z"
/>
<path fill="#2d261b" d="
  M 46.12 58.48
  L 47.87 55.17
  Q 48.11 54.72 48.33 55.21
  L 49.98 58.74
  A 0.46 0.42 67.9 0 1 49.75 59.36
  Q 47.96 59.97 46.37 59.18
  A 0.53 0.51 26.8 0 1 46.12 58.48
  Z"
/>
<path fill="#2d261b" d="
  M 79.23 55.94
  Q 79.35 55.42 79.78 55.06
  A 0.41 0.39 58.6 0 1 80.40 55.23
  L 81.90 58.75
  A 0.45 0.44 -18.8 0 1 81.60 59.35
  Q 76.05 60.79 78.89 56.84
  Q 79.10 56.55 79.23 55.94
  Z"
/>
<path fill="#2d261b" d="
  M 61.81 61.10
  C 59.36 58.75 61.43 54.71 64.52 55.35
  C 67.49 55.95 68.14 59.08 66.14 61.19
  Q 65.84 61.51 66.26 61.37
  C 74.00 58.79 72.47 70.18 66.49 66.94
  A 1.89 0.92 73.0 0 1 65.84 66.24
  C 63.36 62.08 59.68 72.24 56.39 64.71
  A 1.37 1.32 42.4 0 1 56.33 63.76
  Q 57.62 59.92 61.71 61.27
  Q 62.13 61.40 61.81 61.10
  Z"
/>
<path fill="#2d261b" d="
  M 62.18 69.73
  A 0.15 0.14 20.4 0 1 62.08 69.53
  L 63.74 66.11
  Q 64.00 65.56 64.26 66.08
  L 65.83 69.24
  A 0.47 0.43 -19.3 0 1 65.50 69.86
  Q 63.92 70.27 62.18 69.73
  Z"
/>
<path fill="#2d261b" d="
  M 45.84 71.81
  C 43.74 69.36 44.91 65.98 48.20 65.93
  C 51.37 65.88 52.19 70.06 49.92 72.15
  Q 49.62 72.42 49.99 72.25
  Q 54.86 69.94 55.57 75.31
  A 1.24 1.18 -31.6 0 1 55.33 76.21
  Q 52.19 80.35 49.03 76.11
  A 0.88 0.77 65.1 0 0 48.24 75.76
  Q 46.69 76.01 45.86 77.24
  A 1.69 1.10 -72.6 0 1 45.13 77.84
  C 38.84 79.96 38.81 69.43 45.72 72.00
  Q 46.14 72.15 45.84 71.81
  Z"
/>
<path fill="#2d261b" d="
  M 77.89 71.79
  Q 74.65 67.27 80.28 65.90
  A 1.18 1.15 -34.4 0 1 81.20 66.06
  Q 85.15 68.66 81.89 72.11
  Q 81.58 72.44 81.98 72.25
  Q 86.92 70.01 87.60 75.28
  A 1.31 1.30 59.3 0 1 87.37 76.19
  Q 84.39 80.36 81.09 76.14
  A 1.29 1.28 45.4 0 0 79.08 76.12
  Q 75.21 80.92 72.40 75.49
  A 1.24 1.23 40.3 0 1 72.32 74.56
  Q 73.65 70.43 77.73 71.99
  Q 78.16 72.16 77.89 71.79
  Z"
/>
<path fill="#2d261b" d="
  M 47.88 76.56
  Q 48.18 76.14 48.38 76.61
  L 49.79 79.97
  A 0.47 0.46 -18.9 0 1 49.48 80.59
  Q 43.92 82.13 47.88 76.56
  Z"
/>
<path fill="#2d261b" d="
  M 79.88 76.56
  Q 80.18 76.14 80.38 76.61
  L 81.79 79.97
  A 0.47 0.46 -18.9 0 1 81.48 80.59
  Q 75.92 82.13 79.88 76.56
  Z"
/>
<path fill="#2d261b" d="
  M 48.56 91.08
  Q 47.95 92.55 47.36 91.02
  L 46.16 87.92
  A 0.42 0.35 76.8 0 1 46.44 87.35
  L 49.56 87.35
  A 0.42 0.34 -77.0 0 1 49.84 87.92
  L 48.56 91.08
  Z"
/>
<path fill="#2d261b" d="
  M 80.56 91.08
  Q 79.95 92.55 79.36 91.02
  L 78.16 87.92
  A 0.42 0.35 76.8 0 1 78.44 87.35
  L 81.56 87.35
  A 0.42 0.34 -77.0 0 1 81.84 87.92
  L 80.56 91.08
  Z"
/>
<path fill="#2d261b" d="
  M 46.25 95.78
  Q 41.88 97.85 40.36 93.53
  A 1.22 1.19 -42.7 0 1 40.41 92.60
  Q 42.83 87.43 46.74 91.57
  A 1.33 1.05 65.1 0 0 47.57 91.99
  Q 49.39 92.06 50.39 90.52
  A 1.36 0.98 -72.3 0 1 51.13 89.97
  C 57.37 88.66 56.85 98.42 50.47 96.00
  Q 50.04 95.84 50.30 96.21
  C 54.58 102.36 43.89 104.50 44.87 98.07
  C 45.04 96.95 45.56 96.62 46.32 95.90
  Q 46.64 95.60 46.25 95.78
  Z"
/>
<path fill="#2d261b" d="
  M 78.00 95.79
  Q 73.61 97.88 72.35 93.32
  A 1.30 1.29 -38.6 0 1 72.46 92.38
  Q 75.18 87.28 79.05 91.94
  A 1.27 1.18 -43.6 0 0 80.90 91.92
  Q 85.32 87.14 87.60 92.75
  A 1.34 1.23 45.6 0 1 87.63 93.69
  Q 86.26 97.50 82.49 95.97
  Q 82.06 95.80 82.30 96.19
  Q 85.13 100.80 79.94 102.08
  A 1.23 1.22 52.9 0 1 79.03 101.95
  Q 74.87 99.50 78.09 95.93
  Q 78.39 95.60 78.00 95.79
  Z"
/>
<path fill="#2d261b" d="
  M 104.24 111.81
  Q 106.50 113.36 105.68 115.68
  C 103.42 122.08 94.53 116.21 99.84 111.71
  A 0.32 0.22 -41.8 0 0 99.93 111.32
  C 99.45 110.89 96.05 113.43 93.54 109.93
  Q 91.59 107.20 94.43 105.45
  Q 98.18 103.14 100.54 106.60
  C 102.35 109.24 99.92 102.23 99.89 102.17
  A 0.41 0.35 77.3 0 1 100.19 101.61
  L 103.82 101.61
  A 0.41 0.35 -77.3 0 1 104.12 102.17
  C 103.94 102.62 101.77 107.25 102.92 107.01
  A 1.23 0.70 -70.3 0 0 103.57 106.45
  C 106.45 101.63 113.55 106.61 109.64 110.88
  Q 107.71 112.98 104.51 111.20
  A 0.41 0.25 24.0 0 0 103.98 111.27
  Q 103.96 111.36 103.99 111.48
  A 0.65 0.40 21.4 0 0 104.24 111.81
  Z"
/>
<rect fill="#010001" fill-opacity="0.090" x="114.75" y="105.55" width="0.26" height="40.40" rx="0.12"/>
<path fill="#2d261b" d="
  M 49.96 117.38
  Q 52.77 119.74 50.46 122.44
  C 47.74 125.61 41.99 120.96 46.09 117.39
  Q 46.63 116.92 45.99 117.14
  L 44.43 117.66
  A 1.38 0.41 -24.4 0 1 43.51 117.79
  Q 38.49 116.35 41.38 112.08
  A 1.51 1.43 -80.3 0 1 42.14 111.51
  Q 45.22 110.58 47.02 113.11
  Q 47.31 113.52 47.29 113.04
  Q 47.20 110.94 46.03 109.22
  A 0.36 0.34 64.6 0 1 46.20 108.67
  Q 48.03 108.20 49.73 108.64
  A 0.44 0.39 -70.0 0 1 49.96 109.22
  L 48.44 112.75
  A 0.54 0.42 -69.4 0 0 48.65 113.44
  Q 48.93 113.53 49.18 113.17
  C 53.22 107.47 59.24 115.54 52.98 117.72
  A 1.66 0.74 26.5 0 1 52.05 117.68
  L 50.05 117.13
  Q 49.47 116.96 49.96 117.38
  Z"
/>
<path fill="#2d261b" d="
  M 81.96 117.38
  Q 84.77 119.74 82.46 122.44
  C 79.74 125.61 74.00 120.97 78.09 117.39
  Q 78.60 116.94 77.98 117.13
  L 76.18 117.69
  A 1.51 0.57 -25.4 0 1 75.25 117.77
  Q 70.53 116.07 73.39 112.08
  A 1.52 1.40 -78.6 0 1 74.16 111.52
  Q 77.22 110.58 79.03 113.13
  Q 79.31 113.53 79.29 113.04
  Q 79.20 110.94 78.03 109.22
  A 0.36 0.34 64.6 0 1 78.20 108.67
  Q 80.03 108.20 81.73 108.64
  A 0.44 0.39 -70.0 0 1 81.96 109.22
  L 80.44 112.75
  A 0.54 0.42 -69.4 0 0 80.65 113.44
  Q 80.93 113.53 81.18 113.17
  C 85.22 107.47 91.24 115.54 84.98 117.72
  A 1.66 0.74 26.5 0 1 84.05 117.68
  L 82.05 117.13
  Q 81.47 116.96 81.96 117.38
  Z"
/>
<path fill="#2d261b" d="
  M 97.79 132.75
  Q 105.08 129.97 109.02 135.38
  C 116.69 145.89 100.47 158.11 95.13 145.39
  C 91.93 137.75 93.18 118.87 106.38 124.62
  C 108.15 125.39 111.68 128.02 107.82 129.49
  A 0.91 0.83 53.0 0 1 106.95 129.33
  Q 99.75 123.42 97.43 132.46
  Q 97.31 132.93 97.79 132.75
  Z
  M 102.8374 147.0983
  A 5.94 5.07 85.1 0 0 107.3815 140.7469
  A 5.94 5.07 85.1 0 0 101.8226 135.2617
  A 5.94 5.07 85.1 0 0 97.2785 141.6131
  A 5.94 5.07 85.1 0 0 102.8374 147.0983
  Z"
/>
<ellipse fill="#ffffff" cx="0.00" cy="0.00" transform="translate(102.33,141.18) rotate(85.1)" rx="5.94" ry="5.07"/>
</svg>
