<?xml version="1.0" encoding="UTF-8" standalone="no"?>
<svg xmlns="http://www.w3.org/2000/svg" version="1.2" baseProfile="tiny" viewBox="0 0 128 168">
<g stroke-width="0.00" fill="none" stroke-linecap="butt">
<path stroke="#e4e4e4" stroke-opacity="0.561" vector-effect="non-scaling-stroke" d="
  M 17.00 152.96
  Q 19.78 155.24 22.06 155.24
  Q 60.14 155.26 98.21 155.25
  A 0.58 0.33 57.0 0 1 98.56 155.43
  Q 98.64 155.52 98.75 155.54"
/>
<path stroke="#282218" stroke-opacity="0.561" vector-effect="non-scaling-stroke" d="
  M 98.75 155.54
  Q 101.43 156.22 104.00 155.29"
/>
<path stroke="#e4e4e4" stroke-opacity="0.561" vector-effect="non-scaling-stroke" d="
  M 104.00 155.29
  C 112.90 155.19 114.50 149.61 114.50 141.63
  Q 114.50 83.37 114.50 25.09
  C 114.49 18.26 112.79 13.82 105.75 12.71"
/>
<path stroke="#d6d6d6" stroke-opacity="0.600" vector-effect="non-scaling-stroke" d="
  M 105.75 12.71
  Q 64.13 12.78 22.50 12.75
  Q 17.73 12.75 14.96 17.50"
/>
<path stroke="#96938d" vector-effect="non-scaling-stroke" d="
  M 104.00 155.29
  L 98.75 155.54"
/>
<path stroke="#f9f9fa" stroke-opacity="0.988" vector-effect="non-scaling-stroke" d="
  M 17.00 152.96
  Q 14.00 148.78 14.00 147.25
  Q 14.00 84.15 14.00 21.06
  Q 14.00 20.98 14.24 20.13
  L 14.96 17.50"
/>
<path stroke="#96938d" vector-effect="non-scaling-stroke" d="
  M 21.36 25.44
  C 21.99 20.41 27.16 18.54 30.24 22.86
  A 0.75 0.66 63.9 0 0 30.99 23.17
  Q 32.27 22.82 33.20 21.87
  A 0.65 0.62 50.0 0 0 33.25 21.08
  C 30.51 17.09 24.51 15.40 20.89 18.74
  C 15.85 23.40 15.73 39.90 22.28 43.47
  C 26.12 45.55 29.94 44.31 32.47 40.78
  C 37.69 33.51 31.59 20.47 21.75 25.70
  Q 21.30 25.94 21.36 25.44"
/>
<path stroke="#96938d" vector-effect="non-scaling-stroke" d="
  M 45.94 50.88
  L 43.96 50.35
  A 1.58 0.57 23.0 0 0 43.03 50.30
  Q 39.26 51.55 40.82 55.30
  A 1.51 1.49 4.6 0 0 41.45 56.03
  Q 44.71 57.99 46.77 54.96
  A 1.24 0.92 -71.4 0 1 47.52 54.44
  Q 49.05 54.26 49.77 55.54
  A 1.69 0.87 74.0 0 0 50.42 56.23
  C 55.53 58.72 57.91 51.52 52.76 50.26
  A 1.68 1.38 -44.9 0 0 51.81 50.35
  Q 48.17 51.83 50.69 49.87
  A 1.23 1.11 -18.1 0 0 51.15 49.07
  Q 51.64 43.90 46.75 44.88
  A 1.56 1.45 13.5 0 0 45.91 45.35
  Q 43.44 48.16 46.07 50.61
  Q 46.53 51.04 45.94 50.88"
/>
<path stroke="#96938d" vector-effect="non-scaling-stroke" d="
  M 77.94 50.88
  L 75.96 50.35
  A 1.61 0.56 22.8 0 0 75.03 50.29
  C 68.68 52.43 74.85 60.38 78.65 55.08
  A 1.55 1.03 -70.8 0 1 79.40 54.51
  Q 80.94 54.11 81.65 55.42
  A 1.79 0.94 75.8 0 0 82.29 56.13
  C 87.44 58.90 89.98 51.54 84.76 50.26
  A 1.71 1.32 -43.1 0 0 83.81 50.35
  Q 80.12 51.83 82.74 49.86
  A 1.10 1.00 -18.9 0 0 83.17 49.07
  Q 83.37 43.05 77.95 45.30
  A 1.33 1.30 1.6 0 0 77.26 45.94
  Q 75.93 48.68 78.06 50.62
  Q 78.52 51.04 77.94 50.88"
/>
<path stroke="#96938d" vector-effect="non-scaling-stroke" d="
  M 28.41 56.33
  C 35.35 48.73 17.27 46.59 23.44 56.32
  Q 23.68 56.71 23.26 56.54
  Q 19.04 54.80 17.22 58.97
  Q 16.21 61.29 18.41 62.58
  Q 22.44 64.93 24.60 61.14
  A 0.97 0.64 -72.0 0 1 25.18 60.68
  C 26.41 60.53 24.05 65.34 23.86 65.81
  A 0.42 0.36 -77.3 0 0 24.16 66.38
  L 27.82 66.39
  A 0.42 0.36 77.7 0 0 28.12 65.82
  L 26.43 61.44
  A 0.63 0.47 68.8 0 1 26.64 60.68
  C 27.14 60.48 29.02 64.96 33.21 62.84
  A 1.53 1.47 -88.8 0 0 33.89 62.16
  Q 36.50 56.93 30.74 55.96
  A 1.35 1.03 -51.2 0 0 29.85 56.18
  Q 29.24 56.57 28.57 56.66
  Q 28.04 56.73 28.41 56.33"
/>
<path stroke="#96938d" vector-effect="non-scaling-stroke" d="
  M 46.37 59.18
  Q 47.87 59.92 49.67 59.42
  A 0.45 0.45 -20.9 0 0 49.95 58.80
  L 48.24 55.13
  Q 48.01 54.64 47.77 55.13
  L 46.14 58.47
  A 0.53 0.52 -63.7 0 0 46.37 59.18"
/>
<path stroke="#96938d" vector-effect="non-scaling-stroke" d="
  M 78.89 56.84
  Q 76.05 60.79 81.60 59.35
  A 0.45 0.44 -18.8 0 0 81.90 58.75
  L 80.40 55.23
  A 0.41 0.39 58.6 0 0 79.78 55.06
  Q 79.35 55.42 79.23 55.94
  Q 79.10 56.55 78.89 56.84"
/>
<path stroke="#96938d" vector-effect="non-scaling-stroke" d="
  M 49.96 82.62
  C 53.88 79.25 48.46 74.36 45.59 77.60
  Q 43.43 80.04 45.91 82.61
  Q 46.22 82.93 45.80 82.78
  C 41.85 81.35 38.31 84.76 41.31 87.84
  C 44.93 91.55 46.68 84.70 49.18 86.92
  C 51.42 88.93 53.68 90.06 55.55 86.58
  A 1.45 1.39 54.1 0 0 55.68 85.64
  Q 54.68 81.01 50.03 82.75
  Q 49.65 82.90 49.96 82.62"
/>
<path stroke="#96938d" vector-effect="non-scaling-stroke" d="
  M 77.94 82.88
  L 75.96 82.35
  A 1.61 0.56 22.8 0 0 75.03 82.29
  C 68.68 84.43 74.85 92.38 78.65 87.08
  A 1.55 1.03 -70.8 0 1 79.40 86.51
  Q 80.94 86.11 81.65 87.42
  A 1.79 0.94 75.8 0 0 82.29 88.13
  C 87.44 90.90 89.98 83.54 84.76 82.26
  A 1.71 1.32 -43.1 0 0 83.81 82.35
  Q 80.12 83.83 82.74 81.86
  A 1.10 1.00 -18.9 0 0 83.17 81.07
  Q 83.37 75.05 77.95 77.30
  A 1.33 1.30 1.6 0 0 77.26 77.94
  Q 75.93 80.68 78.06 82.62
  Q 78.52 83.04 77.94 82.88"
/>
<path stroke="#96938d" vector-effect="non-scaling-stroke" d="
  M 79.71 87.14
  L 78.02 90.71
  A 0.45 0.42 -68.9 0 0 78.27 91.32
  Q 79.98 91.82 81.75 91.36
  A 0.45 0.40 70.4 0 0 81.99 90.77
  L 80.41 87.18
  Q 80.07 86.39 79.71 87.14"
/>
<path stroke="#96938d" vector-effect="non-scaling-stroke" d="
  M 46.36 91.19
  Q 47.80 91.92 49.82 91.32
  A 0.42 0.37 68.9 0 0 50.03 90.75
  L 48.56 87.55
  A 0.85 0.43 68.4 0 0 47.94 87.00
  C 47.55 87.05 46.23 90.34 46.16 90.48
  A 0.56 0.50 -64.0 0 0 46.36 91.19"
/>
<path stroke="#96938d" vector-effect="non-scaling-stroke" d="
  M 103.99 111.48
  Q 103.96 111.36 103.98 111.27
  A 0.41 0.25 24.0 0 1 104.51 111.20
  Q 108.80 113.58 110.80 109.01
  Q 111.68 107.00 109.83 105.67
  Q 106.06 102.96 103.61 106.47
  C 103.42 106.74 102.41 107.78 102.77 106.36
  Q 103.28 104.28 104.12 102.17
  A 0.41 0.35 -77.3 0 0 103.82 101.61
  L 100.19 101.61
  A 0.41 0.35 77.3 0 0 99.89 102.17
  C 99.92 102.23 102.35 109.24 100.54 106.60
  Q 98.18 103.14 94.43 105.45
  Q 91.59 107.20 93.54 109.93
  C 96.05 113.43 99.45 110.89 99.93 111.32
  A 0.32 0.22 -41.8 0 1 99.84 111.71
  C 94.53 116.21 103.42 122.08 105.68 115.68
  Q 106.50 113.36 104.24 111.81
  A 0.65 0.40 21.4 0 1 103.99 111.48"
/>
<path stroke="#96938d" vector-effect="non-scaling-stroke" d="
  M 50.05 117.13
  L 52.05 117.68
  A 1.66 0.74 26.5 0 0 52.98 117.72
  C 59.23 115.54 53.23 107.47 49.18 113.17
  Q 48.92 113.53 48.65 113.45
  A 0.54 0.42 -69.0 0 1 48.44 112.77
  L 49.95 109.22
  A 0.44 0.38 -70.7 0 0 49.72 108.64
  Q 48.02 108.20 46.20 108.67
  A 0.36 0.34 64.6 0 0 46.03 109.22
  Q 47.20 110.94 47.29 113.04
  Q 47.31 113.53 47.03 113.13
  Q 45.22 110.58 42.16 111.52
  A 1.52 1.40 -78.6 0 0 41.39 112.08
  Q 38.53 116.07 43.25 117.77
  A 1.51 0.57 -25.4 0 0 44.18 117.69
  L 45.98 117.13
  Q 46.60 116.94 46.09 117.39
  C 42.00 120.97 47.74 125.61 50.46 122.44
  Q 52.77 119.74 49.96 117.38
  Q 49.47 116.96 50.05 117.13"
/>
<path stroke="#96938d" vector-effect="non-scaling-stroke" d="
  M 82.05 117.13
  L 84.05 117.68
  A 1.62 0.68 25.4 0 0 84.98 117.72
  C 91.35 115.48 85.02 107.58 81.27 113.02
  Q 80.98 113.44 80.71 113.44
  A 0.55 0.38 -75.0 0 1 80.45 112.71
  L 81.95 109.21
  A 0.43 0.38 -70.5 0 0 81.72 108.64
  Q 80.02 108.20 78.20 108.67
  A 0.36 0.34 65.0 0 0 78.02 109.21
  Q 79.20 110.92 79.28 113.05
  Q 79.30 113.56 79.01 113.14
  C 75.15 107.72 68.75 115.04 74.79 117.66
  A 1.53 1.35 -37.9 0 0 75.73 117.72
  L 77.98 117.17
  Q 78.44 117.06 78.09 117.37
  C 74.01 121.00 79.74 125.61 82.46 122.44
  Q 84.77 119.74 81.96 117.38
  Q 81.47 116.96 82.05 117.13"
/>
<path stroke="#96938d" vector-effect="non-scaling-stroke" d="
  M 106.66 142.55
  C 106.22 147.67 100.78 149.23 97.72 145.24
  A 0.80 0.76 64.4 0 0 96.93 144.94
  Q 92.89 145.91 96.33 148.65
  C 100.80 152.20 106.61 151.96 108.97 146.37
  Q 112.82 137.24 108.76 128.19
  C 107.04 124.37 103.29 122.54 99.43 124.04
  C 88.29 128.36 94.36 148.59 106.25 142.30
  Q 106.70 142.07 106.66 142.55"
/>
<path stroke="#96938d" vector-effect="non-scaling-stroke" d="
  M 26.2812 40.8534
  A 6.42 4.91 87.4 0 0 30.8949 34.2173
  A 6.42 4.91 87.4 0 0 25.6988 28.0266
  A 6.42 4.91 87.4 0 0 21.0851 34.6627
  A 6.42 4.91 87.4 0 0 26.2812 40.8534"
/>
<path stroke="#96938d" vector-effect="non-scaling-stroke" d="
  M 102.2445 139.9457
  A 6.40 4.90 87.9 0 0 106.9067 133.3704
  A 6.40 4.90 87.9 0 0 101.7755 127.1543
  A 6.40 4.90 87.9 0 0 97.1133 133.7296
  A 6.40 4.90 87.9 0 0 102.2445 139.9457"
/>
</g>
<path fill="#010001" fill-opacity="0.118" d="
  M 105.92 7.22
  L 109.20 7.32
  A 0.64 0.54 82.2 0 1 109.73 7.80
  Q 109.86 8.36 110.53 8.27
  A 1.56 0.85 -21.0 0 1 111.45 8.39
  Q 117.41 11.92 119.07 18.25
  Q 119.48 19.84 119.95 20.76
  Q 120.19 21.24 120.19 21.69
  C 120.13 33.20 120.63 45.37 120.52 56.19
  Q 120.08 99.47 120.51 142.75
  Q 120.54 145.14 120.32 147.54
  A 1.55 0.83 -34.2 0 1 119.89 148.36
  L 119.00 149.32
  A 1.67 0.74 86.6 0 0 118.66 150.23
  Q 118.44 152.10 117.12 153.41
  A 1.63 1.40 76.4 0 0 116.69 154.25
  Q 116.45 155.64 115.06 155.96
  A 0.92 0.81 -84.6 0 0 114.45 156.53
  L 114.29 156.97
  A 1.07 0.67 -5.9 0 1 113.62 157.49
  Q 112.07 157.94 111.26 159.33
  A 0.83 0.78 15.9 0 1 110.53 159.71
  Q 109.45 159.66 108.79 160.44
  A 1.17 0.87 -64.4 0 1 108.01 160.85
  Q 64.28 161.25 20.56 160.63
  A 0.80 0.55 74.5 0 1 19.97 160.13
  Q 19.71 159.51 18.72 159.66
  A 0.75 0.70 69.1 0 1 18.00 159.31
  Q 17.42 158.41 16.18 158.70
  A 1.02 0.76 -24.2 0 1 15.32 158.51
  L 9.54 152.90
  A 1.12 0.82 -70.2 0 1 9.29 152.05
  Q 9.44 150.63 8.51 149.65
  A 1.62 1.18 27.1 0 1 8.09 148.82
  C 7.80 146.35 7.00 144.12 7.00 141.69
  Q 7.01 116.44 6.99 91.19
  C 6.99 87.34 7.80 82.41 7.66 79.44
  Q 6.62 57.01 7.13 34.56
  Q 7.14 34.01 7.42 33.60
  A 1.65 0.65 -46.0 0 0 7.77 32.75
  Q 7.90 28.33 6.91 23.99
  A 1.44 1.33 -39.2 0 1 7.04 23.07
  Q 7.87 21.49 7.82 19.82
  A 0.96 0.87 -20.8 0 1 8.21 19.05
  Q 9.19 18.32 9.07 17.05
  A 1.73 1.53 -37.4 0 1 9.25 16.13
  L 11.14 12.52
  A 1.69 1.29 -84.2 0 1 11.78 11.84
  Q 13.67 10.85 15.04 9.19
  A 1.11 0.89 15.9 0 1 15.84 8.85
  Q 16.72 8.86 17.24 8.15
  A 0.80 0.79 21.0 0 1 17.97 7.83
  Q 18.81 7.93 19.12 7.22
  A 0.69 0.57 -72.7 0 1 19.75 6.81
  Q 21.46 6.99 22.89 6.27
  Q 23.37 6.02 23.82 6.02
  L 105.19 6.02
  A 0.56 0.44 3.1 0 1 105.76 6.52
  L 105.71 6.87
  A 0.31 0.23 -83.9 0 0 105.92 7.22
  Z
  M 14.04 19.25
  L 13.71 21.00
  Q 12.88 21.22 11.80 20.05
  Q 11.54 19.76 11.55 20.15
  C 11.60 22.35 11.00 24.54 11.00 26.63
  Q 11.00 84.69 11.00 142.75
  A 1.63 1.27 -69.2 0 0 11.28 143.66
  L 13.46 146.50
  Q 14.07 150.42 17.00 152.96
  Q 19.78 155.24 22.06 155.24
  Q 60.14 155.26 98.21 155.25
  A 0.58 0.33 57.0 0 1 98.56 155.43
  Q 98.64 155.52 98.75 155.54
  Q 101.43 156.22 104.00 155.29
  C 112.90 155.19 114.50 149.61 114.50 141.63
  Q 114.50 83.37 114.50 25.09
  C 114.49 18.26 112.79 13.82 105.75 12.71
  Q 73.44 12.39 21.00 12.57
  Q 20.37 12.57 20.43 12.00
  A 0.64 0.54 2.4 0 1 21.06 11.51
  L 107.52 11.52
  Q 110.49 11.52 107.56 11.07
  Q 104.57 10.61 100.50 10.60
  Q 63.15 10.51 25.80 10.50
  C 20.16 10.50 16.25 11.70 13.26 16.24
  Q 11.99 18.16 14.04 19.25
  Z
  M 115.27 147.89
  C 118.12 148.45 116.96 118.70 116.84 116.16
  A 0.14 0.12 81.4 0 1 116.92 116.03
  L 117.01 116.00
  A 0.28 0.25 -12.0 0 0 117.19 115.76
  C 117.40 108.96 117.01 101.70 117.13 95.41
  Q 117.37 82.86 117.14 70.30
  C 116.87 55.59 117.37 41.27 117.24 26.74
  C 117.22 24.31 116.04 22.47 115.95 19.94
  A 0.58 0.43 -85.7 0 0 115.63 19.44
  Q 115.29 19.34 115.28 19.75
  Q 114.83 33.70 114.82 55.19
  Q 114.80 101.19 114.82 147.19
  A 0.74 0.54 -86.5 0 0 115.27 147.89
  Z"
/>
<path fill="#020303" fill-opacity="0.196" d="
  M 105.75 12.71
  Q 64.13 12.78 22.50 12.75
  Q 17.73 12.75 14.96 17.50
  L 14.04 19.25
  Q 11.99 18.16 13.26 16.24
  C 16.25 11.70 20.16 10.50 25.80 10.50
  Q 63.15 10.51 100.50 10.60
  Q 104.57 10.61 107.56 11.07
  Q 110.49 11.52 107.52 11.52
  L 21.06 11.51
  A 0.64 0.54 2.4 0 0 20.43 12.00
  Q 20.37 12.57 21.00 12.57
  Q 73.44 12.39 105.75 12.71
  Z"
/>
<path fill="#ffffff" d="
  M 105.75 12.71
  C 112.79 13.82 114.49 18.26 114.50 25.09
  Q 114.50 83.37 114.50 141.63
  C 114.50 149.61 112.90 155.19 104.00 155.29
  L 98.75 155.54
  Q 98.64 155.52 98.56 155.43
  A 0.58 0.33 57.0 0 0 98.21 155.25
  Q 60.14 155.26 22.06 155.24
  Q 19.78 155.24 17.00 152.96
  Q 14.00 148.78 14.00 147.25
  Q 14.00 84.15 14.00 21.06
  Q 14.00 20.98 14.24 20.13
  L 14.96 17.50
  Q 17.73 12.75 22.50 12.75
  Q 64.13 12.78 105.75 12.71
  Z
  M 21.36 25.44
  C 21.99 20.41 27.16 18.54 30.24 22.86
  A 0.75 0.66 63.9 0 0 30.99 23.17
  Q 32.27 22.82 33.20 21.87
  A 0.65 0.62 50.0 0 0 33.25 21.08
  C 30.51 17.09 24.51 15.40 20.89 18.74
  C 15.85 23.40 15.73 39.90 22.28 43.47
  C 26.12 45.55 29.94 44.31 32.47 40.78
  C 37.69 33.51 31.59 20.47 21.75 25.70
  Q 21.30 25.94 21.36 25.44
  Z
  M 45.94 50.88
  L 43.96 50.35
  A 1.58 0.57 23.0 0 0 43.03 50.30
  Q 39.26 51.55 40.82 55.30
  A 1.51 1.49 4.6 0 0 41.45 56.03
  Q 44.71 57.99 46.77 54.96
  A 1.24 0.92 -71.4 0 1 47.52 54.44
  Q 49.05 54.26 49.77 55.54
  A 1.69 0.87 74.0 0 0 50.42 56.23
  C 55.53 58.72 57.91 51.52 52.76 50.26
  A 1.68 1.38 -44.9 0 0 51.81 50.35
  Q 48.17 51.83 50.69 49.87
  A 1.23 1.11 -18.1 0 0 51.15 49.07
  Q 51.64 43.90 46.75 44.88
  A 1.56 1.45 13.5 0 0 45.91 45.35
  Q 43.44 48.16 46.07 50.61
  Q 46.53 51.04 45.94 50.88
  Z
  M 77.94 50.88
  L 75.96 50.35
  A 1.61 0.56 22.8 0 0 75.03 50.29
  C 68.68 52.43 74.85 60.38 78.65 55.08
  A 1.55 1.03 -70.8 0 1 79.40 54.51
  Q 80.94 54.11 81.65 55.42
  A 1.79 0.94 75.8 0 0 82.29 56.13
  C 87.44 58.90 89.98 51.54 84.76 50.26
  A 1.71 1.32 -43.1 0 0 83.81 50.35
  Q 80.12 51.83 82.74 49.86
  A 1.10 1.00 -18.9 0 0 83.17 49.07
  Q 83.37 43.05 77.95 45.30
  A 1.33 1.30 1.6 0 0 77.26 45.94
  Q 75.93 48.68 78.06 50.62
  Q 78.52 51.04 77.94 50.88
  Z
  M 28.41 56.33
  C 35.35 48.73 17.27 46.59 23.44 56.32
  Q 23.68 56.71 23.26 56.54
  Q 19.04 54.80 17.22 58.97
  Q 16.21 61.29 18.41 62.58
  Q 22.44 64.93 24.60 61.14
  A 0.97 0.64 -72.0 0 1 25.18 60.68
  C 26.41 60.53 24.05 65.34 23.86 65.81
  A 0.42 0.36 -77.3 0 0 24.16 66.38
  L 27.82 66.39
  A 0.42 0.36 77.7 0 0 28.12 65.82
  L 26.43 61.44
  A 0.63 0.47 68.8 0 1 26.64 60.68
  C 27.14 60.48 29.02 64.96 33.21 62.84
  A 1.53 1.47 -88.8 0 0 33.89 62.16
  Q 36.50 56.93 30.74 55.96
  A 1.35 1.03 -51.2 0 0 29.85 56.18
  Q 29.24 56.57 28.57 56.66
  Q 28.04 56.73 28.41 56.33
  Z
  M 46.37 59.18
  Q 47.87 59.92 49.67 59.42
  A 0.45 0.45 -20.9 0 0 49.95 58.80
  L 48.24 55.13
  Q 48.01 54.64 47.77 55.13
  L 46.14 58.47
  A 0.53 0.52 -63.7 0 0 46.37 59.18
  Z
  M 78.89 56.84
  Q 76.05 60.79 81.60 59.35
  A 0.45 0.44 -18.8 0 0 81.90 58.75
  L 80.40 55.23
  A 0.41 0.39 58.6 0 0 79.78 55.06
  Q 79.35 55.42 79.23 55.94
  Q 79.10 56.55 78.89 56.84
  Z
  M 49.96 82.62
  C 53.88 79.25 48.46 74.36 45.59 77.60
  Q 43.43 80.04 45.91 82.61
  Q 46.22 82.93 45.80 82.78
  C 41.85 81.35 38.31 84.76 41.31 87.84
  C 44.93 91.55 46.68 84.70 49.18 86.92
  C 51.42 88.93 53.68 90.06 55.55 86.58
  A 1.45 1.39 54.1 0 0 55.68 85.64
  Q 54.68 81.01 50.03 82.75
  Q 49.65 82.90 49.96 82.62
  Z
  M 77.94 82.88
  L 75.96 82.35
  A 1.61 0.56 22.8 0 0 75.03 82.29
  C 68.68 84.43 74.85 92.38 78.65 87.08
  A 1.55 1.03 -70.8 0 1 79.40 86.51
  Q 80.94 86.11 81.65 87.42
  A 1.79 0.94 75.8 0 0 82.29 88.13
  C 87.44 90.90 89.98 83.54 84.76 82.26
  A 1.71 1.32 -43.1 0 0 83.81 82.35
  Q 80.12 83.83 82.74 81.86
  A 1.10 1.00 -18.9 0 0 83.17 81.07
  Q 83.37 75.05 77.95 77.30
  A 1.33 1.30 1.6 0 0 77.26 77.94
  Q 75.93 80.68 78.06 82.62
  Q 78.52 83.04 77.94 82.88
  Z
  M 79.71 87.14
  L 78.02 90.71
  A 0.45 0.42 -68.9 0 0 78.27 91.32
  Q 79.98 91.82 81.75 91.36
  A 0.45 0.40 70.4 0 0 81.99 90.77
  L 80.41 87.18
  Q 80.07 86.39 79.71 87.14
  Z
  M 46.36 91.19
  Q 47.80 91.92 49.82 91.32
  A 0.42 0.37 68.9 0 0 50.03 90.75
  L 48.56 87.55
  A 0.85 0.43 68.4 0 0 47.94 87.00
  C 47.55 87.05 46.23 90.34 46.16 90.48
  A 0.56 0.50 -64.0 0 0 46.36 91.19
  Z
  M 103.99 111.48
  Q 103.96 111.36 103.98 111.27
  A 0.41 0.25 24.0 0 1 104.51 111.20
  Q 108.80 113.58 110.80 109.01
  Q 111.68 107.00 109.83 105.67
  Q 106.06 102.96 103.61 106.47
  C 103.42 106.74 102.41 107.78 102.77 106.36
  Q 103.28 104.28 104.12 102.17
  A 0.41 0.35 -77.3 0 0 103.82 101.61
  L 100.19 101.61
  A 0.41 0.35 77.3 0 0 99.89 102.17
  C 99.92 102.23 102.35 109.24 100.54 106.60
  Q 98.18 103.14 94.43 105.45
  Q 91.59 107.20 93.54 109.93
  C 96.05 113.43 99.45 110.89 99.93 111.32
  A 0.32 0.22 -41.8 0 1 99.84 111.71
  C 94.53 116.21 103.42 122.08 105.68 115.68
  Q 106.50 113.36 104.24 111.81
  A 0.65 0.40 21.4 0 1 103.99 111.48
  Z
  M 50.05 117.13
  L 52.05 117.68
  A 1.66 0.74 26.5 0 0 52.98 117.72
  C 59.23 115.54 53.23 107.47 49.18 113.17
  Q 48.92 113.53 48.65 113.45
  A 0.54 0.42 -69.0 0 1 48.44 112.77
  L 49.95 109.22
  A 0.44 0.38 -70.7 0 0 49.72 108.64
  Q 48.02 108.20 46.20 108.67
  A 0.36 0.34 64.6 0 0 46.03 109.22
  Q 47.20 110.94 47.29 113.04
  Q 47.31 113.53 47.03 113.13
  Q 45.22 110.58 42.16 111.52
  A 1.52 1.40 -78.6 0 0 41.39 112.08
  Q 38.53 116.07 43.25 117.77
  A 1.51 0.57 -25.4 0 0 44.18 117.69
  L 45.98 117.13
  Q 46.60 116.94 46.09 117.39
  C 42.00 120.97 47.74 125.61 50.46 122.44
  Q 52.77 119.74 49.96 117.38
  Q 49.47 116.96 50.05 117.13
  Z
  M 82.05 117.13
  L 84.05 117.68
  A 1.62 0.68 25.4 0 0 84.98 117.72
  C 91.35 115.48 85.02 107.58 81.27 113.02
  Q 80.98 113.44 80.71 113.44
  A 0.55 0.38 -75.0 0 1 80.45 112.71
  L 81.95 109.21
  A 0.43 0.38 -70.5 0 0 81.72 108.64
  Q 80.02 108.20 78.20 108.67
  A 0.36 0.34 65.0 0 0 78.02 109.21
  Q 79.20 110.92 79.28 113.05
  Q 79.30 113.56 79.01 113.14
  C 75.15 107.72 68.75 115.04 74.79 117.66
  A 1.53 1.35 -37.9 0 0 75.73 117.72
  L 77.98 117.17
  Q 78.44 117.06 78.09 117.37
  C 74.01 121.00 79.74 125.61 82.46 122.44
  Q 84.77 119.74 81.96 117.38
  Q 81.47 116.96 82.05 117.13
  Z
  M 106.66 142.55
  C 106.22 147.67 100.78 149.23 97.72 145.24
  A 0.80 0.76 64.4 0 0 96.93 144.94
  Q 92.89 145.91 96.33 148.65
  C 100.80 152.20 106.61 151.96 108.97 146.37
  Q 112.82 137.24 108.76 128.19
  C 107.04 124.37 103.29 122.54 99.43 124.04
  C 88.29 128.36 94.36 148.59 106.25 142.30
  Q 106.70 142.07 106.66 142.55
  Z"
/>
<path fill="#2d261b" d="
  M 21.75 25.70
  C 31.59 20.47 37.69 33.51 32.47 40.78
  C 29.94 44.31 26.12 45.55 22.28 43.47
  C 15.73 39.90 15.85 23.40 20.89 18.74
  C 24.51 15.40 30.51 17.09 33.25 21.08
  A 0.65 0.62 50.0 0 1 33.20 21.87
  Q 32.27 22.82 30.99 23.17
  A 0.75 0.66 63.9 0 1 30.24 22.86
  C 27.16 18.54 21.99 20.41 21.36 25.44
  Q 21.30 25.94 21.75 25.70
  Z
  M 26.2812 40.8534
  A 6.42 4.91 87.4 0 0 30.8949 34.2173
  A 6.42 4.91 87.4 0 0 25.6988 28.0266
  A 6.42 4.91 87.4 0 0 21.0851 34.6627
  A 6.42 4.91 87.4 0 0 26.2812 40.8534
  Z"
/>
<path fill="#f2f3f5" fill-opacity="0.973" d="
  M 14.96 17.50
  L 14.24 20.13
  Q 14.00 20.98 14.00 21.06
  Q 14.00 84.15 14.00 147.25
  Q 14.00 148.78 17.00 152.96
  Q 14.07 150.42 13.46 146.50
  L 13.71 21.00
  L 14.04 19.25
  L 14.96 17.50
  Z"
/>
<path fill="#020303" fill-opacity="0.196" d="
  M 13.71 21.00
  L 13.46 146.50
  L 11.28 143.66
  A 1.63 1.27 -69.2 0 1 11.00 142.75
  Q 11.00 84.69 11.00 26.63
  C 11.00 24.54 11.60 22.35 11.55 20.15
  Q 11.54 19.76 11.80 20.05
  Q 12.88 21.22 13.71 21.00
  Z"
/>
<path fill="#020303" fill-opacity="0.196" d="
  M 116.84 116.16
  C 116.96 118.70 118.12 148.45 115.27 147.89
  A 0.74 0.54 -86.5 0 1 114.82 147.19
  Q 114.80 101.19 114.82 55.19
  Q 114.83 33.70 115.28 19.75
  Q 115.29 19.34 115.63 19.44
  A 0.58 0.43 -85.7 0 1 115.95 19.94
  C 116.04 22.47 117.22 24.31 117.24 26.74
  C 117.37 41.27 116.87 55.59 117.14 70.30
  Q 117.37 82.86 117.13 95.41
  C 117.01 101.70 117.40 108.96 117.19 115.76
  A 0.28 0.25 -12.0 0 1 117.01 116.00
  L 116.92 116.03
  A 0.14 0.12 81.4 0 0 116.84 116.16
  Z"
/>
<ellipse fill="#ffffff" cx="0.00" cy="0.00" transform="translate(25.99,34.44) rotate(87.4)" rx="6.42" ry="4.91"/>
<path fill="#2d261b" d="
  M 46.07 50.61
  Q 43.44 48.16 45.91 45.35
  A 1.56 1.45 13.5 0 1 46.75 44.88
  Q 51.64 43.90 51.15 49.07
  A 1.23 1.11 -18.1 0 1 50.69 49.87
  Q 48.17 51.83 51.81 50.35
  A 1.68 1.38 -44.9 0 1 52.76 50.26
  C 57.91 51.52 55.53 58.72 50.42 56.23
  A 1.69 0.87 74.0 0 1 49.77 55.54
  Q 49.05 54.26 47.52 54.44
  A 1.24 0.92 -71.4 0 0 46.77 54.96
  Q 44.71 57.99 41.45 56.03
  A 1.51 1.49 4.6 0 1 40.82 55.30
  Q 39.26 51.55 43.03 50.30
  A 1.58 0.57 23.0 0 1 43.96 50.35
  L 45.94 50.88
  Q 46.53 51.04 46.07 50.61
  Z"
/>
<path fill="#2d261b" d="
  M 78.06 50.62
  Q 75.93 48.68 77.26 45.94
  A 1.33 1.30 1.6 0 1 77.95 45.30
  Q 83.37 43.05 83.17 49.07
  A 1.10 1.00 -18.9 0 1 82.74 49.86
  Q 80.12 51.83 83.81 50.35
  A 1.71 1.32 -43.1 0 1 84.76 50.26
  C 89.98 51.54 87.44 58.90 82.29 56.13
  A 1.79 0.94 75.8 0 1 81.65 55.42
  Q 80.94 54.11 79.40 54.51
  A 1.55 1.03 -70.8 0 0 78.65 55.08
  C 74.85 60.38 68.68 52.43 75.03 50.29
  A 1.61 0.56 22.8 0 1 75.96 50.35
  L 77.94 50.88
  Q 78.52 51.04 78.06 50.62
  Z"
/>
<path fill="#2d261b" d="
  M 28.57 56.66
  Q 29.24 56.57 29.85 56.18
  A 1.35 1.03 -51.2 0 1 30.74 55.96
  Q 36.50 56.93 33.89 62.16
  A 1.53 1.47 -88.8 0 1 33.21 62.84
  C 29.02 64.96 27.14 60.48 26.64 60.68
  A 0.63 0.47 68.8 0 0 26.43 61.44
  L 28.12 65.82
  A 0.42 0.36 77.7 0 1 27.82 66.39
  L 24.16 66.38
  A 0.42 0.36 -77.3 0 1 23.86 65.81
  C 24.05 65.34 26.41 60.53 25.18 60.68
  A 0.97 0.64 -72.0 0 0 24.60 61.14
  Q 22.44 64.93 18.41 62.58
  Q 16.21 61.29 17.22 58.97
  Q 19.04 54.80 23.26 56.54
  Q 23.68 56.71 23.44 56.32
  C 17.27 46.59 35.35 48.73 28.41 56.33
  Q 28.04 56.73 28.57 56.66
  Z"
/>
<path fill="#2d261b" d="
  M 46.14 58.47
  L 47.77 55.13
  Q 48.01 54.64 48.24 55.13
  L 49.95 58.80
  A 0.45 0.45 -20.9 0 1 49.67 59.42
  Q 47.87 59.92 46.37 59.18
  A 0.53 0.52 -63.7 0 1 46.14 58.47
  Z"
/>
<path fill="#2d261b" d="
  M 79.23 55.94
  Q 79.35 55.42 79.78 55.06
  A 0.41 0.39 58.6 0 1 80.40 55.23
  L 81.90 58.75
  A 0.45 0.44 -18.8 0 1 81.60 59.35
  Q 76.05 60.79 78.89 56.84
  Q 79.10 56.55 79.23 55.94
  Z"
/>
<path fill="#2d261b" d="
  M 50.03 82.75
  Q 54.68 81.01 55.68 85.64
  A 1.45 1.39 54.1 0 1 55.55 86.58
  C 53.68 90.06 51.42 88.93 49.18 86.92
  C 46.68 84.70 44.93 91.55 41.31 87.84
  C 38.31 84.76 41.85 81.35 45.80 82.78
  Q 46.22 82.93 45.91 82.61
  Q 43.43 80.04 45.59 77.60
  C 48.46 74.36 53.88 79.25 49.96 82.62
  Q 49.65 82.90 50.03 82.75
  Z"
/>
<path fill="#2d261b" d="
  M 78.06 82.62
  Q 75.93 80.68 77.26 77.94
  A 1.33 1.30 1.6 0 1 77.95 77.30
  Q 83.37 75.05 83.17 81.07
  A 1.10 1.00 -18.9 0 1 82.74 81.86
  Q 80.12 83.83 83.81 82.35
  A 1.71 1.32 -43.1 0 1 84.76 82.26
  C 89.98 83.54 87.44 90.90 82.29 88.13
  A 1.79 0.94 75.8 0 1 81.65 87.42
  Q 80.94 86.11 79.40 86.51
  A 1.55 1.03 -70.8 0 0 78.65 87.08
  C 74.85 92.38 68.68 84.43 75.03 82.29
  A 1.61 0.56 22.8 0 1 75.96 82.35
  L 77.94 82.88
  Q 78.52 83.04 78.06 82.62
  Z"
/>
<path fill="#2d261b" d="
  M 79.71 87.14
  Q 80.07 86.39 80.41 87.18
  L 81.99 90.77
  A 0.45 0.40 70.4 0 1 81.75 91.36
  Q 79.98 91.82 78.27 91.32
  A 0.45 0.42 -68.9 0 1 78.02 90.71
  L 79.71 87.14
  Z"
/>
<path fill="#2d261b" d="
  M 46.16 90.48
  C 46.23 90.34 47.55 87.05 47.94 87.00
  A 0.85 0.43 68.4 0 1 48.56 87.55
  L 50.03 90.75
  A 0.42 0.37 68.9 0 1 49.82 91.32
  Q 47.80 91.92 46.36 91.19
  A 0.56 0.50 -64.0 0 1 46.16 90.48
  Z"
/>
<path fill="#2d261b" d="
  M 104.24 111.81
  Q 106.50 113.36 105.68 115.68
  C 103.42 122.08 94.53 116.21 99.84 111.71
  A 0.32 0.22 -41.8 0 0 99.93 111.32
  C 99.45 110.89 96.05 113.43 93.54 109.93
  Q 91.59 107.20 94.43 105.45
  Q 98.18 103.14 100.54 106.60
  C 102.35 109.24 99.92 102.23 99.89 102.17
  A 0.41 0.35 77.3 0 1 100.19 101.61
  L 103.82 101.61
  A 0.41 0.35 -77.3 0 1 104.12 102.17
  Q 103.28 104.28 102.77 106.36
  C 102.41 107.78 103.42 106.74 103.61 106.47
  Q 106.06 102.96 109.83 105.67
  Q 111.68 107.00 110.80 109.01
  Q 108.80 113.58 104.51 111.20
  A 0.41 0.25 24.0 0 0 103.98 111.27
  Q 103.96 111.36 103.99 111.48
  A 0.65 0.40 21.4 0 0 104.24 111.81
  Z"
/>
<path fill="#2d261b" d="
  M 49.96 117.38
  Q 52.77 119.74 50.46 122.44
  C 47.74 125.61 42.00 120.97 46.09 117.39
  Q 46.60 116.94 45.98 117.13
  L 44.18 117.69
  A 1.51 0.57 -25.4 0 1 43.25 117.77
  Q 38.53 116.07 41.39 112.08
  A 1.52 1.40 -78.6 0 1 42.16 111.52
  Q 45.22 110.58 47.03 113.13
  Q 47.31 113.53 47.29 113.04
  Q 47.20 110.94 46.03 109.22
  A 0.36 0.34 64.6 0 1 46.20 108.67
  Q 48.02 108.20 49.72 108.64
  A 0.44 0.38 -70.7 0 1 49.95 109.22
  L 48.44 112.77
  A 0.54 0.42 -69.0 0 0 48.65 113.45
  Q 48.92 113.53 49.18 113.17
  C 53.23 107.47 59.23 115.54 52.98 117.72
  A 1.66 0.74 26.5 0 1 52.05 117.68
  L 50.05 117.13
  Q 49.47 116.96 49.96 117.38
  Z"
/>
<path fill="#2d261b" d="
  M 81.96 117.38
  Q 84.77 119.74 82.46 122.44
  C 79.74 125.61 74.01 121.00 78.09 117.37
  Q 78.44 117.06 77.98 117.17
  L 75.73 117.72
  A 1.53 1.35 -37.9 0 1 74.79 117.66
  C 68.75 115.04 75.15 107.72 79.01 113.14
  Q 79.30 113.56 79.28 113.05
  Q 79.20 110.92 78.02 109.21
  A 0.36 0.34 65.0 0 1 78.20 108.67
  Q 80.02 108.20 81.72 108.64
  A 0.43 0.38 -70.5 0 1 81.95 109.21
  L 80.45 112.71
  A 0.55 0.38 -75.0 0 0 80.71 113.44
  Q 80.98 113.44 81.27 113.02
  C 85.02 107.58 91.35 115.48 84.98 117.72
  A 1.62 0.68 25.4 0 1 84.05 117.68
  L 82.05 117.13
  Q 81.47 116.96 81.96 117.38
  Z"
/>
<path fill="#2d261b" d="
  M 106.25 142.30
  C 94.36 148.59 88.29 128.36 99.43 124.04
  C 103.29 122.54 107.04 124.37 108.76 128.19
  Q 112.82 137.24 108.97 146.37
  C 106.61 151.96 100.80 152.20 96.33 148.65
  Q 92.89 145.91 96.93 144.94
  A 0.80 0.76 64.4 0 1 97.72 145.24
  C 100.78 149.23 106.22 147.67 106.66 142.55
  Q 106.70 142.07 106.25 142.30
  Z
  M 102.2445 139.9457
  A 6.40 4.90 87.9 0 0 106.9067 133.3704
  A 6.40 4.90 87.9 0 0 101.7755 127.1543
  A 6.40 4.90 87.9 0 0 97.1133 133.7296
  A 6.40 4.90 87.9 0 0 102.2445 139.9457
  Z"
/>
<ellipse fill="#ffffff" cx="0.00" cy="0.00" transform="translate(102.01,133.55) rotate(87.9)" rx="6.40" ry="4.90"/>
<path fill="#2d261b" d="
  M 104.00 155.29
  Q 101.43 156.22 98.75 155.54
  L 104.00 155.29
  Z"
/>
</svg>
