<?xml version="1.0" encoding="UTF-8" standalone="no"?>
<svg xmlns="http://www.w3.org/2000/svg" version="1.2" baseProfile="tiny" viewBox="0 0 128 168">
<g stroke-width="0.00" fill="none" stroke-linecap="butt">
<path stroke="#e7e7e7" stroke-opacity="0.553" vector-effect="non-scaling-stroke" d="
  M 109.78 154.24
  Q 113.81 151.23 114.54 146.50"
/>
<path stroke="#e7e7e7" stroke-opacity="0.553" vector-effect="non-scaling-stroke" d="
  M 114.50 21.04
  Q 112.71 12.80 104.50 12.75
  Q 91.28 12.67 21.50 12.79"
/>
<path stroke="#d6d6d6" stroke-opacity="0.600" vector-effect="non-scaling-stroke" d="
  M 21.50 12.79
  Q 17.47 13.62 15.21 17.00"
/>
<path stroke="#d6d6d6" stroke-opacity="0.600" vector-effect="non-scaling-stroke" d="
  M 114.50 21.04
  L 114.46 43.50"
/>
<path stroke="#faf9f9" stroke-opacity="0.961" vector-effect="non-scaling-stroke" d="
  M 114.46 43.50
  Q 113.78 72.25 114.28 101.00"
/>
<path stroke="#d6d6d6" stroke-opacity="0.600" vector-effect="non-scaling-stroke" d="
  M 114.28 101.00
  L 114.54 146.50"
/>
<path stroke="#d6d6d6" stroke-opacity="0.600" vector-effect="non-scaling-stroke" d="
  M 109.78 154.24
  Q 102.88 155.78 95.84 155.53
  C 71.34 154.65 46.59 155.27 22.07 155.23
  Q 19.76 155.23 17.00 152.96"
/>
<path stroke="#f9fafb" stroke-opacity="0.988" vector-effect="non-scaling-stroke" d="
  M 17.00 152.96
  Q 14.00 148.78 14.00 147.25
  Q 14.00 84.53 14.00 21.82
  C 14.00 20.07 14.93 18.74 15.21 17.00"
/>
<path stroke="#96938d" vector-effect="non-scaling-stroke" d="
  M 30.44 40.45
  L 21.53 40.45
  A 0.37 0.36 9.1 0 1 21.18 39.97
  C 23.64 32.56 36.79 29.38 34.23 22.22
  C 31.31 14.09 14.89 15.67 17.52 25.61
  A 0.70 0.69 84.2 0 0 18.15 26.13
  Q 21.11 26.28 20.78 23.22
  A 1.27 0.99 67.3 0 1 21.02 22.35
  C 24.62 18.15 36.96 21.40 27.11 28.58
  C 21.39 32.74 17.04 36.11 17.22 43.25
  A 0.74 0.72 89.2 0 0 17.94 43.97
  L 33.85 43.93
  A 0.55 0.51 0.5 0 0 34.40 43.43
  L 34.44 37.81
  A 0.75 0.69 9.9 0 0 33.92 37.14
  Q 30.23 35.96 30.85 39.95
  A 0.43 0.42 85.3 0 1 30.44 40.45"
/>
<path stroke="#96938d" vector-effect="non-scaling-stroke" d="
  M 65.95 50.63
  Q 68.31 48.60 66.56 45.71
  Q 64.75 42.73 62.18 45.15
  Q 59.13 48.00 61.81 50.33
  Q 62.95 51.33 61.53 50.80
  Q 57.29 49.24 56.26 53.28
  A 1.43 1.36 40.3 0 0 56.36 54.22
  C 59.84 61.50 63.50 51.22 65.80 55.55
  A 1.69 1.06 79.2 0 0 66.44 56.24
  Q 69.85 57.95 71.55 54.60
  A 1.52 1.47 53.0 0 0 71.67 53.65
  Q 70.69 49.00 66.03 50.75
  Q 65.64 50.90 65.95 50.63"
/>
<path stroke="#96938d" vector-effect="non-scaling-stroke" d="
  M 28.41 56.33
  Q 30.58 53.95 29.21 51.49
  C 26.53 46.69 19.31 51.53 23.47 56.14
  Q 23.85 56.56 23.33 56.57
  Q 22.70 56.58 22.10 56.24
  A 1.77 0.95 43.3 0 0 21.17 55.99
  Q 16.62 56.40 17.39 61.01
  A 1.58 1.56 17.2 0 0 17.84 61.85
  Q 21.53 65.49 24.46 61.37
  A 1.22 0.66 -64.1 0 1 25.22 60.82
  L 26.67 60.73
  A 1.02 0.64 67.8 0 1 27.41 61.26
  Q 29.42 64.71 33.21 62.84
  A 1.53 1.47 -88.8 0 0 33.89 62.16
  Q 36.48 56.94 30.74 55.96
  A 1.41 1.07 -51.1 0 0 29.85 56.18
  Q 29.24 56.57 28.57 56.66
  Q 28.04 56.73 28.41 56.33"
/>
<path stroke="#96938d" vector-effect="non-scaling-stroke" d="
  M 62.89 56.84
  Q 60.05 60.79 65.60 59.35
  A 0.45 0.44 -18.8 0 0 65.90 58.75
  L 64.40 55.23
  A 0.41 0.39 58.6 0 0 63.78 55.06
  Q 63.35 55.42 63.23 55.94
  Q 63.10 56.55 62.89 56.84"
/>
<path stroke="#96938d" vector-effect="non-scaling-stroke" d="
  M 23.77 66.07
  A 0.31 0.31 -78.8 0 0 24.06 66.50
  L 27.94 66.50
  A 0.31 0.31 78.8 0 0 28.23 66.07
  L 26.29 61.38
  A 0.31 0.31 -37.0 0 0 25.71 61.38
  L 23.77 66.07"
/>
<path stroke="#96938d" vector-effect="non-scaling-stroke" d="
  M 103.99 111.48
  Q 103.96 111.36 103.98 111.27
  A 0.39 0.26 24.7 0 1 104.50 111.19
  Q 108.67 113.54 110.74 109.20
  Q 111.92 106.73 109.45 105.32
  Q 105.77 103.24 103.56 106.47
  A 1.32 0.67 -66.2 0 1 102.90 107.01
  C 101.78 107.24 103.94 102.61 104.12 102.17
  A 0.41 0.35 -77.3 0 0 103.82 101.61
  L 100.19 101.61
  A 0.41 0.35 77.3 0 0 99.89 102.17
  C 99.92 102.23 102.35 109.24 100.54 106.60
  Q 98.18 103.14 94.43 105.45
  Q 91.59 107.20 93.54 109.93
  C 96.05 113.43 99.45 110.89 99.93 111.32
  A 0.32 0.22 -41.8 0 1 99.84 111.71
  C 94.53 116.21 103.42 122.08 105.68 115.68
  Q 106.50 113.36 104.23 111.80
  A 0.62 0.41 19.5 0 1 103.99 111.48"
/>
<path stroke="#96938d" vector-effect="non-scaling-stroke" d="
  M 62.09 117.43
  Q 58.64 121.28 63.31 123.39
  A 1.35 1.33 -40.8 0 0 64.26 123.45
  Q 69.29 121.88 66.13 117.39
  Q 65.87 117.02 66.28 117.21
  Q 69.18 118.62 71.17 116.22
  Q 73.31 113.63 70.68 112.03
  Q 67.33 109.99 65.31 113.00
  A 0.56 0.35 -68.6 0 1 64.97 113.25
  L 64.75 113.27
  A 0.38 0.33 -79.5 0 1 64.44 112.75
  L 65.95 109.22
  A 0.44 0.38 -70.7 0 0 65.72 108.64
  Q 64.02 108.20 62.20 108.67
  A 0.36 0.34 64.6 0 0 62.03 109.22
  Q 63.20 110.94 63.29 113.04
  Q 63.31 113.52 63.02 113.11
  Q 61.22 110.58 58.14 111.51
  A 1.51 1.43 -80.3 0 0 57.38 112.08
  Q 54.49 116.39 59.50 117.78
  A 1.54 0.59 -27.8 0 0 60.43 117.67
  L 61.94 117.14
  Q 62.55 116.92 62.09 117.43"
/>
<path stroke="#96938d" vector-effect="non-scaling-stroke" d="
  M 106.80 128.05
  C 104.68 135.15 92.66 137.65 93.68 144.86
  C 94.87 153.39 112.68 153.44 110.47 142.37
  A 0.63 0.61 83.8 0 0 109.86 141.86
  Q 108.71 141.89 107.66 142.55
  A 0.90 0.77 73.9 0 0 107.30 143.34
  C 107.91 150.97 92.44 147.13 98.30 141.53
  C 103.45 136.60 110.88 134.10 110.79 124.77
  A 0.75 0.73 89.6 0 0 110.06 124.03
  L 94.14 124.07
  A 0.54 0.53 -0.0 0 0 93.61 124.59
  L 93.49 130.06
  A 0.76 0.73 12.3 0 0 93.96 130.76
  Q 97.68 132.32 97.06 128.21
  A 0.46 0.43 84.8 0 1 97.47 127.68
  L 106.43 127.54
  A 0.40 0.38 -82.2 0 1 106.80 128.05"
/>
</g>
<path fill="#000001" fill-opacity="0.106" d="
  M 19.29 160.18
  Q 18.29 160.10 17.90 159.28
  A 0.87 0.66 74.6 0 0 17.25 158.78
  L 15.77 158.73
  A 1.32 0.88 -13.1 0 1 14.90 158.40
  L 8.96 151.77
  A 3.50 0.83 85.4 0 1 8.23 149.51
  C 7.78 146.61 7.01 144.05 7.00 141.13
  Q 6.97 83.76 7.03 26.40
  C 7.04 21.15 8.06 17.28 10.85 13.24
  C 11.95 11.64 13.89 10.83 15.21 9.18
  Q 15.37 8.97 15.99 8.68
  L 19.10 7.23
  A 1.50 0.59 -34.1 0 1 19.98 7.03
  Q 21.86 7.36 23.35 6.31
  A 1.75 1.30 -55.3 0 1 24.24 6.01
  L 104.99 6.04
  A 1.55 1.20 58.9 0 1 105.87 6.38
  Q 107.22 7.49 109.03 7.51
  A 0.42 0.39 -84.8 0 1 109.40 7.99
  C 109.10 10.02 112.83 10.51 113.93 10.53
  A 0.67 0.63 81.4 0 1 114.54 11.01
  Q 114.92 12.26 116.19 12.57
  Q 117.86 12.99 118.43 15.83
  C 118.96 18.51 120.16 20.43 120.19 23.14
  Q 120.40 43.99 120.49 64.84
  C 120.52 70.19 119.12 77.07 119.82 82.74
  Q 120.28 86.54 120.28 87.50
  Q 120.19 99.09 120.22 110.68
  C 120.25 118.33 119.73 132.03 120.47 142.75
  C 120.75 146.76 118.85 148.30 118.72 151.46
  Q 118.68 152.36 116.57 154.80
  C 113.88 157.89 111.90 157.95 108.44 159.60
  A 1.62 1.42 33.9 0 1 107.50 159.72
  Q 105.30 159.32 103.64 160.63
  A 1.55 1.20 -58.9 0 1 102.76 160.97
  L 67.56 160.85
  A 1.16 0.16 -32.6 0 0 66.75 161.22
  Q 66.51 161.36 66.27 161.11
  A 1.19 0.66 56.1 0 0 65.56 160.75
  L 19.68 160.83
  A 0.84 0.43 -6.9 0 1 19.02 160.59
  Q 18.89 160.39 19.31 160.26
  Q 19.53 160.20 19.29 160.18
  Z
  M 14.04 19.25
  L 13.54 21.25
  L 12.68 20.93
  A 0.62 0.58 14.2 0 1 12.28 20.30
  Q 12.50 18.57 11.75 19.43
  A 3.00 2.99 -24.4 0 0 11.00 21.41
  Q 10.99 82.94 11.01 143.17
  C 11.01 145.04 11.59 147.15 11.55 149.22
  A 1.64 1.49 -63.7 0 0 11.81 150.13
  Q 13.42 152.52 15.46 154.51
  Q 18.73 157.70 23.22 157.28
  A 1.22 1.18 61.1 0 1 24.10 157.55
  Q 25.09 158.33 26.00 158.32
  Q 62.17 158.08 98.34 158.10
  Q 101.45 158.10 104.42 157.28
  C 106.74 156.64 111.32 155.69 110.98 154.64
  A 0.39 0.34 -29.7 0 0 110.39 154.52
  Q 109.15 155.52 109.78 154.24
  Q 113.81 151.23 114.54 146.50
  L 115.29 148.57
  A 0.61 0.54 72.3 0 0 115.95 148.96
  Q 116.43 148.83 116.37 148.54
  A 1.11 0.38 73.4 0 1 116.40 147.72
  C 116.82 147.10 117.48 145.65 117.48 144.91
  Q 117.51 84.87 117.50 24.80
  A 1.62 1.35 30.8 0 0 117.19 23.91
  Q 115.94 22.25 115.97 20.27
  A 0.82 0.56 -83.1 0 0 115.59 19.53
  C 114.80 19.23 115.63 22.23 114.50 21.04
  Q 112.71 12.80 104.50 12.75
  Q 91.28 12.67 21.50 12.79
  Q 20.31 12.92 20.44 12.00
  A 0.64 0.55 3.0 0 1 21.07 11.52
  Q 63.86 11.46 106.64 11.54
  Q 107.05 11.54 107.46 11.66
  Q 110.53 12.58 108.26 11.19
  C 107.26 10.57 101.17 10.50 99.79 10.50
  Q 61.05 10.49 22.31 10.51
  Q 20.99 10.51 17.20 12.04
  Q 16.87 12.17 16.46 12.63
  L 13.41 15.98
  A 1.51 0.55 -39.7 0 0 12.94 16.78
  Q 12.78 18.32 14.04 19.25
  Z"
/>
<path fill="#030505" fill-opacity="0.196" d="
  M 21.50 12.79
  Q 17.47 13.62 15.21 17.00
  L 14.04 19.25
  Q 12.78 18.32 12.94 16.78
  A 1.51 0.55 -39.7 0 1 13.41 15.98
  L 16.46 12.63
  Q 16.87 12.17 17.20 12.04
  Q 20.99 10.51 22.31 10.51
  Q 61.05 10.49 99.79 10.50
  C 101.17 10.50 107.26 10.57 108.26 11.19
  Q 110.53 12.58 107.46 11.66
  Q 107.05 11.54 106.64 11.54
  Q 63.86 11.46 21.07 11.52
  A 0.64 0.55 3.0 0 0 20.44 12.00
  Q 20.31 12.92 21.50 12.79
  Z"
/>
<path fill="#ffffff" d="
  M 21.50 12.79
  Q 91.28 12.67 104.50 12.75
  Q 112.71 12.80 114.50 21.04
  L 114.46 43.50
  Q 113.78 72.25 114.28 101.00
  L 114.54 146.50
  Q 113.81 151.23 109.78 154.24
  Q 102.88 155.78 95.84 155.53
  C 71.34 154.65 46.59 155.27 22.07 155.23
  Q 19.76 155.23 17.00 152.96
  Q 14.00 148.78 14.00 147.25
  Q 14.00 84.53 14.00 21.82
  C 14.00 20.07 14.93 18.74 15.21 17.00
  Q 17.47 13.62 21.50 12.79
  Z
  M 30.44 40.45
  L 21.53 40.45
  A 0.37 0.36 9.1 0 1 21.18 39.97
  C 23.64 32.56 36.79 29.38 34.23 22.22
  C 31.31 14.09 14.89 15.67 17.52 25.61
  A 0.70 0.69 84.2 0 0 18.15 26.13
  Q 21.11 26.28 20.78 23.22
  A 1.27 0.99 67.3 0 1 21.02 22.35
  C 24.62 18.15 36.96 21.40 27.11 28.58
  C 21.39 32.74 17.04 36.11 17.22 43.25
  A 0.74 0.72 89.2 0 0 17.94 43.97
  L 33.85 43.93
  A 0.55 0.51 0.5 0 0 34.40 43.43
  L 34.44 37.81
  A 0.75 0.69 9.9 0 0 33.92 37.14
  Q 30.23 35.96 30.85 39.95
  A 0.43 0.42 85.3 0 1 30.44 40.45
  Z
  M 65.95 50.63
  Q 68.31 48.60 66.56 45.71
  Q 64.75 42.73 62.18 45.15
  Q 59.13 48.00 61.81 50.33
  Q 62.95 51.33 61.53 50.80
  Q 57.29 49.24 56.26 53.28
  A 1.43 1.36 40.3 0 0 56.36 54.22
  C 59.84 61.50 63.50 51.22 65.80 55.55
  A 1.69 1.06 79.2 0 0 66.44 56.24
  Q 69.85 57.95 71.55 54.60
  A 1.52 1.47 53.0 0 0 71.67 53.65
  Q 70.69 49.00 66.03 50.75
  Q 65.64 50.90 65.95 50.63
  Z
  M 28.41 56.33
  Q 30.58 53.95 29.21 51.49
  C 26.53 46.69 19.31 51.53 23.47 56.14
  Q 23.85 56.56 23.33 56.57
  Q 22.70 56.58 22.10 56.24
  A 1.77 0.95 43.3 0 0 21.17 55.99
  Q 16.62 56.40 17.39 61.01
  A 1.58 1.56 17.2 0 0 17.84 61.85
  Q 21.53 65.49 24.46 61.37
  A 1.22 0.66 -64.1 0 1 25.22 60.82
  L 26.67 60.73
  A 1.02 0.64 67.8 0 1 27.41 61.26
  Q 29.42 64.71 33.21 62.84
  A 1.53 1.47 -88.8 0 0 33.89 62.16
  Q 36.48 56.94 30.74 55.96
  A 1.41 1.07 -51.1 0 0 29.85 56.18
  Q 29.24 56.57 28.57 56.66
  Q 28.04 56.73 28.41 56.33
  Z
  M 62.89 56.84
  Q 60.05 60.79 65.60 59.35
  A 0.45 0.44 -18.8 0 0 65.90 58.75
  L 64.40 55.23
  A 0.41 0.39 58.6 0 0 63.78 55.06
  Q 63.35 55.42 63.23 55.94
  Q 63.10 56.55 62.89 56.84
  Z
  M 23.77 66.07
  A 0.31 0.31 -78.8 0 0 24.06 66.50
  L 27.94 66.50
  A 0.31 0.31 78.8 0 0 28.23 66.07
  L 26.29 61.38
  A 0.31 0.31 -37.0 0 0 25.71 61.38
  L 23.77 66.07
  Z
  M 103.99 111.48
  Q 103.96 111.36 103.98 111.27
  A 0.39 0.26 24.7 0 1 104.50 111.19
  Q 108.67 113.54 110.74 109.20
  Q 111.92 106.73 109.45 105.32
  Q 105.77 103.24 103.56 106.47
  A 1.32 0.67 -66.2 0 1 102.90 107.01
  C 101.78 107.24 103.94 102.61 104.12 102.17
  A 0.41 0.35 -77.3 0 0 103.82 101.61
  L 100.19 101.61
  A 0.41 0.35 77.3 0 0 99.89 102.17
  C 99.92 102.23 102.35 109.24 100.54 106.60
  Q 98.18 103.14 94.43 105.45
  Q 91.59 107.20 93.54 109.93
  C 96.05 113.43 99.45 110.89 99.93 111.32
  A 0.32 0.22 -41.8 0 1 99.84 111.71
  C 94.53 116.21 103.42 122.08 105.68 115.68
  Q 106.50 113.36 104.23 111.80
  A 0.62 0.41 19.5 0 1 103.99 111.48
  Z
  M 62.09 117.43
  Q 58.64 121.28 63.31 123.39
  A 1.35 1.33 -40.8 0 0 64.26 123.45
  Q 69.29 121.88 66.13 117.39
  Q 65.87 117.02 66.28 117.21
  Q 69.18 118.62 71.17 116.22
  Q 73.31 113.63 70.68 112.03
  Q 67.33 109.99 65.31 113.00
  A 0.56 0.35 -68.6 0 1 64.97 113.25
  L 64.75 113.27
  A 0.38 0.33 -79.5 0 1 64.44 112.75
  L 65.95 109.22
  A 0.44 0.38 -70.7 0 0 65.72 108.64
  Q 64.02 108.20 62.20 108.67
  A 0.36 0.34 64.6 0 0 62.03 109.22
  Q 63.20 110.94 63.29 113.04
  Q 63.31 113.52 63.02 113.11
  Q 61.22 110.58 58.14 111.51
  A 1.51 1.43 -80.3 0 0 57.38 112.08
  Q 54.49 116.39 59.50 117.78
  A 1.54 0.59 -27.8 0 0 60.43 117.67
  L 61.94 117.14
  Q 62.55 116.92 62.09 117.43
  Z
  M 106.80 128.05
  C 104.68 135.15 92.66 137.65 93.68 144.86
  C 94.87 153.39 112.68 153.44 110.47 142.37
  A 0.63 0.61 83.8 0 0 109.86 141.86
  Q 108.71 141.89 107.66 142.55
  A 0.90 0.77 73.9 0 0 107.30 143.34
  C 107.91 150.97 92.44 147.13 98.30 141.53
  C 103.45 136.60 110.88 134.10 110.79 124.77
  A 0.75 0.73 89.6 0 0 110.06 124.03
  L 94.14 124.07
  A 0.54 0.53 -0.0 0 0 93.61 124.59
  L 93.49 130.06
  A 0.76 0.73 12.3 0 0 93.96 130.76
  Q 97.68 132.32 97.06 128.21
  A 0.46 0.43 84.8 0 1 97.47 127.68
  L 106.43 127.54
  A 0.40 0.38 -82.2 0 1 106.80 128.05
  Z"
/>
<path fill="#f2f4f6" fill-opacity="0.973" d="
  M 15.21 17.00
  C 14.93 18.74 14.00 20.07 14.00 21.82
  Q 14.00 84.53 14.00 147.25
  Q 14.00 148.78 17.00 152.96
  Q 13.56 150.03 13.56 146.69
  Q 13.55 83.97 13.54 21.25
  L 14.04 19.25
  L 15.21 17.00
  Z"
/>
<path fill="#2d261b" d="
  M 30.85 39.95
  Q 30.23 35.96 33.92 37.14
  A 0.75 0.69 9.9 0 1 34.44 37.81
  L 34.40 43.43
  A 0.55 0.51 0.5 0 1 33.85 43.93
  L 17.94 43.97
  A 0.74 0.72 89.2 0 1 17.22 43.25
  C 17.04 36.11 21.39 32.74 27.11 28.58
  C 36.96 21.40 24.62 18.15 21.02 22.35
  A 1.27 0.99 67.3 0 0 20.78 23.22
  Q 21.11 26.28 18.15 26.13
  A 0.70 0.69 84.2 0 1 17.52 25.61
  C 14.89 15.67 31.31 14.09 34.23 22.22
  C 36.79 29.38 23.64 32.56 21.18 39.97
  A 0.37 0.36 9.1 0 0 21.53 40.45
  L 30.44 40.45
  A 0.43 0.42 85.3 0 0 30.85 39.95
  Z"
/>
<path fill="#030505" fill-opacity="0.196" d="
  M 13.54 21.25
  Q 13.55 83.97 13.56 146.69
  Q 13.56 150.03 17.00 152.96
  Q 19.76 155.23 22.07 155.23
  C 46.59 155.27 71.34 154.65 95.84 155.53
  Q 102.88 155.78 109.78 154.24
  Q 109.15 155.52 110.39 154.52
  A 0.39 0.34 -29.7 0 1 110.98 154.64
  C 111.32 155.69 106.74 156.64 104.42 157.28
  Q 101.45 158.10 98.34 158.10
  Q 62.17 158.08 26.00 158.32
  Q 25.09 158.33 24.10 157.55
  A 1.22 1.18 61.1 0 0 23.22 157.28
  Q 18.73 157.70 15.46 154.51
  Q 13.42 152.52 11.81 150.13
  A 1.64 1.49 -63.7 0 1 11.55 149.22
  C 11.59 147.15 11.01 145.04 11.01 143.17
  Q 10.99 82.94 11.00 21.41
  A 3.00 2.99 -24.4 0 1 11.75 19.43
  Q 12.50 18.57 12.28 20.30
  A 0.62 0.58 14.2 0 0 12.68 20.93
  L 13.54 21.25
  Z"
/>
<path fill="#030505" fill-opacity="0.196" d="
  M 114.54 146.50
  L 114.28 101.00
  Q 115.00 72.24 114.46 43.50
  L 114.50 21.04
  C 115.63 22.23 114.80 19.23 115.59 19.53
  A 0.82 0.56 -83.1 0 1 115.97 20.27
  Q 115.94 22.25 117.19 23.91
  A 1.62 1.35 30.8 0 1 117.50 24.80
  Q 117.51 84.87 117.48 144.91
  C 117.48 145.65 116.82 147.10 116.40 147.72
  A 1.11 0.38 73.4 0 0 116.37 148.54
  Q 116.43 148.83 115.95 148.96
  A 0.61 0.54 72.3 0 1 115.29 148.57
  L 114.54 146.50
  Z
  M 115.01 120.67
  A 0.12 0.12 0.0 0 0 114.89 120.55
  L 114.87 120.55
  A 0.12 0.12 0.0 0 0 114.75 120.67
  L 114.75 145.09
  A 0.12 0.12 0.0 0 0 114.87 145.21
  L 114.89 145.21
  A 0.12 0.12 0.0 0 0 115.01 145.09
  L 115.01 120.67
  Z"
/>
<path fill="#f5f3f2" fill-opacity="0.922" d="
  M 114.46 43.50
  Q 115.00 72.24 114.28 101.00
  Q 113.78 72.25 114.46 43.50
  Z"
/>
<path fill="#2d261b" d="
  M 66.03 50.75
  Q 70.69 49.00 71.67 53.65
  A 1.52 1.47 53.0 0 1 71.55 54.60
  Q 69.85 57.95 66.44 56.24
  A 1.69 1.06 79.2 0 1 65.80 55.55
  C 63.50 51.22 59.84 61.50 56.36 54.22
  A 1.43 1.36 40.3 0 1 56.26 53.28
  Q 57.29 49.24 61.53 50.80
  Q 62.95 51.33 61.81 50.33
  Q 59.13 48.00 62.18 45.15
  Q 64.75 42.73 66.56 45.71
  Q 68.31 48.60 65.95 50.63
  Q 65.64 50.90 66.03 50.75
  Z"
/>
<path fill="#2d261b" d="
  M 28.57 56.66
  Q 29.24 56.57 29.85 56.18
  A 1.41 1.07 -51.1 0 1 30.74 55.96
  Q 36.48 56.94 33.89 62.16
  A 1.53 1.47 -88.8 0 1 33.21 62.84
  Q 29.42 64.71 27.41 61.26
  A 1.02 0.64 67.8 0 0 26.67 60.73
  L 25.22 60.82
  A 1.22 0.66 -64.1 0 0 24.46 61.37
  Q 21.53 65.49 17.84 61.85
  A 1.58 1.56 17.2 0 1 17.39 61.01
  Q 16.62 56.40 21.17 55.99
  A 1.77 0.95 43.3 0 1 22.10 56.24
  Q 22.70 56.58 23.33 56.57
  Q 23.85 56.56 23.47 56.14
  C 19.31 51.53 26.53 46.69 29.21 51.49
  Q 30.58 53.95 28.41 56.33
  Q 28.04 56.73 28.57 56.66
  Z"
/>
<path fill="#2d261b" d="
  M 63.23 55.94
  Q 63.35 55.42 63.78 55.06
  A 0.41 0.39 58.6 0 1 64.40 55.23
  L 65.90 58.75
  A 0.45 0.44 -18.8 0 1 65.60 59.35
  Q 60.05 60.79 62.89 56.84
  Q 63.10 56.55 63.23 55.94
  Z"
/>
<path fill="#2d261b" d="
  M 23.77 66.07
  L 25.71 61.38
  A 0.31 0.31 -34.3 0 1 26.29 61.38
  L 28.23 66.07
  A 0.31 0.31 81.4 0 1 27.94 66.50
  L 24.06 66.50
  A 0.31 0.31 -75.9 0 1 23.77 66.07
  Z"
/>
<path fill="#2d261b" d="
  M 104.23 111.80
  Q 106.50 113.36 105.68 115.68
  C 103.42 122.08 94.53 116.21 99.84 111.71
  A 0.32 0.22 -41.8 0 0 99.93 111.32
  C 99.45 110.89 96.05 113.43 93.54 109.93
  Q 91.59 107.20 94.43 105.45
  Q 98.18 103.14 100.54 106.60
  C 102.35 109.24 99.92 102.23 99.89 102.17
  A 0.41 0.35 77.3 0 1 100.19 101.61
  L 103.82 101.61
  A 0.41 0.35 -77.3 0 1 104.12 102.17
  C 103.94 102.61 101.78 107.24 102.90 107.01
  A 1.32 0.67 -66.2 0 0 103.56 106.47
  Q 105.77 103.24 109.45 105.32
  Q 111.92 106.73 110.74 109.20
  Q 108.67 113.54 104.50 111.19
  A 0.39 0.26 24.7 0 0 103.98 111.27
  Q 103.96 111.36 103.99 111.48
  A 0.62 0.41 19.5 0 0 104.23 111.80
  Z"
/>
<path fill="#2d261b" d="
  M 61.94 117.14
  L 60.43 117.67
  A 1.54 0.59 -27.8 0 1 59.50 117.78
  Q 54.49 116.39 57.38 112.08
  A 1.51 1.43 -80.3 0 1 58.14 111.51
  Q 61.22 110.58 63.02 113.11
  Q 63.31 113.52 63.29 113.04
  Q 63.20 110.94 62.03 109.22
  A 0.36 0.34 64.6 0 1 62.20 108.67
  Q 64.02 108.20 65.72 108.64
  A 0.44 0.38 -70.7 0 1 65.95 109.22
  L 64.44 112.75
  A 0.38 0.33 -79.5 0 0 64.75 113.27
  L 64.97 113.25
  A 0.56 0.35 -68.6 0 0 65.31 113.00
  Q 67.33 109.99 70.68 112.03
  Q 73.31 113.63 71.17 116.22
  Q 69.18 118.62 66.28 117.21
  Q 65.87 117.02 66.13 117.39
  Q 69.29 121.88 64.26 123.45
  A 1.35 1.33 -40.8 0 1 63.31 123.39
  Q 58.64 121.28 62.09 117.43
  Q 62.55 116.92 61.94 117.14
  Z"
/>
<rect fill="#000001" fill-opacity="0.106" x="114.75" y="120.55" width="0.26" height="24.66" rx="0.12"/>
<path fill="#2d261b" d="
  M 106.43 127.54
  L 97.47 127.68
  A 0.46 0.43 84.8 0 0 97.06 128.21
  Q 97.68 132.32 93.96 130.76
  A 0.76 0.73 12.3 0 1 93.49 130.06
  L 93.61 124.59
  A 0.54 0.53 -0.0 0 1 94.14 124.07
  L 110.06 124.03
  A 0.75 0.73 89.6 0 1 110.79 124.77
  C 110.88 134.10 103.45 136.60 98.30 141.53
  C 92.44 147.13 107.91 150.97 107.30 143.34
  A 0.90 0.77 73.9 0 1 107.66 142.55
  Q 108.71 141.89 109.86 141.86
  A 0.63 0.61 83.8 0 1 110.47 142.37
  C 112.68 153.44 94.87 153.39 93.68 144.86
  C 92.66 137.65 104.68 135.15 106.80 128.05
  A 0.40 0.38 -82.2 0 0 106.43 127.54
  Z"
/>
</svg>
