<?xml version="1.0" encoding="UTF-8" standalone="no"?>
<svg xmlns="http://www.w3.org/2000/svg" version="1.2" baseProfile="tiny" viewBox="0 0 128 168">
<g stroke-width="0.00" fill="none" stroke-linecap="butt">
<path stroke="#e9e9e9" stroke-opacity="0.549" vector-effect="non-scaling-stroke" d="
  M 114.21 148.25
  L 114.54 146.50"
/>
<path stroke="#d8d8d8" stroke-opacity="0.592" vector-effect="non-scaling-stroke" d="
  M 114.54 146.50
  Q 114.46 85.49 114.51 24.48
  C 114.52 15.38 110.62 12.76 101.63 12.75
  Q 63.10 12.73 24.58 12.77
  C 20.13 12.77 17.12 13.76 14.96 17.50"
/>
<path stroke="#d8d8d8" stroke-opacity="0.592" vector-effect="non-scaling-stroke" d="
  M 13.76 147.50
  C 15.32 153.82 19.52 155.24 25.85 155.24
  Q 64.28 155.24 102.72 155.28
  C 108.57 155.28 112.32 153.78 114.21 148.25"
/>
<path stroke="#f9fafa" stroke-opacity="0.984" vector-effect="non-scaling-stroke" d="
  M 13.76 147.50
  Q 14.18 84.85 14.00 22.20
  C 14.00 20.51 14.71 19.19 14.96 17.50"
/>
<path stroke="#96938d" vector-effect="non-scaling-stroke" d="
  M 21.36 25.44
  C 22.00 20.42 27.17 18.53 30.23 22.86
  A 0.75 0.68 64.2 0 0 30.99 23.17
  Q 32.33 22.81 33.18 21.76
  A 0.67 0.65 46.7 0 0 33.19 20.95
  C 30.27 16.95 24.06 15.36 20.58 19.02
  C 15.31 24.55 15.48 46.17 27.16 44.33
  C 39.68 42.36 34.66 18.89 21.75 25.70
  Q 21.30 25.94 21.36 25.44"
/>
<path stroke="#96938d" vector-effect="non-scaling-stroke" d="
  M 48.86 55.36
  Q 50.93 58.95 53.10 55.78
  Q 54.62 53.55 53.03 51.20
  L 48.26 44.19
  A 0.33 0.33 0.0 0 0 47.72 44.19
  L 42.56 51.94
  Q 41.55 53.45 42.46 55.02
  Q 44.65 58.75 47.28 55.27
  A 0.95 0.95 -41.7 0 1 48.86 55.36"
/>
<path stroke="#96938d" vector-effect="non-scaling-stroke" d="
  M 80.76 55.18
  Q 82.92 58.95 85.06 55.85
  Q 86.63 53.57 85.01 51.18
  L 80.25 44.19
  A 0.33 0.32 45.5 0 0 79.71 44.18
  L 74.63 51.78
  A 1.67 1.46 -31.7 0 0 74.35 52.69
  Q 74.47 59.71 79.82 55.03
  A 0.62 0.61 54.0 0 1 80.76 55.18"
/>
<path stroke="#96938d" vector-effect="non-scaling-stroke" d="
  M 32.32 61.05
  Q 32.90 58.89 31.61 57.00
  L 26.15 48.98
  A 0.32 0.31 43.4 0 0 25.62 48.99
  Q 23.73 52.23 20.85 56.09
  C 17.53 60.53 21.65 67.11 25.25 61.65
  A 0.83 0.67 -65.3 0 1 26.01 61.27
  Q 26.95 61.45 27.34 62.28
  A 1.71 0.81 77.6 0 0 27.92 63.03
  Q 31.23 65.04 32.32 61.05"
/>
<path stroke="#96938d" vector-effect="non-scaling-stroke" d="
  M 47.70 55.92
  L 46.46 58.75
  A 0.47 0.46 18.5 0 0 46.79 59.39
  Q 47.75 59.63 49.24 59.28
  A 0.41 0.37 73.6 0 0 49.50 58.75
  L 48.52 56.05
  Q 48.13 54.94 47.70 55.92"
/>
<path stroke="#96938d" vector-effect="non-scaling-stroke" d="
  M 79.63 56.24
  Q 76.93 60.46 81.10 59.41
  A 0.48 0.48 -16.7 0 0 81.44 58.79
  L 80.58 56.32
  Q 80.23 55.31 79.63 56.24"
/>
<path stroke="#96938d" vector-effect="non-scaling-stroke" d="
  M 25.19 62.92
  L 24.33 65.81
  A 0.48 0.45 -75.6 0 0 24.66 66.41
  Q 25.96 66.70 27.33 66.41
  A 0.44 0.44 73.5 0 0 27.65 65.82
  L 26.57 62.84
  Q 25.83 60.80 25.19 62.92"
/>
<path stroke="#96938d" vector-effect="non-scaling-stroke" d="
  M 48.47 87.12
  Q 51.08 90.95 53.19 87.59
  Q 54.52 85.47 53.12 83.42
  L 48.29 76.39
  A 0.35 0.34 44.7 0 0 47.72 76.39
  L 42.64 83.78
  A 1.62 1.60 62.5 0 0 42.36 84.69
  Q 42.46 91.70 47.82 87.03
  A 0.44 0.43 52.4 0 1 48.47 87.12"
/>
<path stroke="#96938d" vector-effect="non-scaling-stroke" d="
  M 80.76 87.18
  Q 82.92 90.95 85.04 87.88
  Q 86.64 85.56 85.03 83.25
  L 80.27 76.39
  A 0.35 0.35 -45.4 0 0 79.69 76.39
  L 74.64 83.78
  A 1.53 1.52 -28.1 0 0 74.36 84.69
  Q 74.46 91.70 79.82 87.03
  A 0.62 0.62 54.1 0 1 80.76 87.18"
/>
<path stroke="#96938d" vector-effect="non-scaling-stroke" d="
  M 47.63 88.24
  Q 44.93 92.46 49.10 91.41
  A 0.48 0.48 -16.7 0 0 49.44 90.79
  L 48.58 88.32
  Q 48.23 87.31 47.63 88.24"
/>
<path stroke="#96938d" vector-effect="non-scaling-stroke" d="
  M 79.70 87.92
  L 78.49 90.84
  A 0.50 0.44 17.0 0 0 78.87 91.45
  Q 80.10 91.74 81.24 91.34
  A 0.53 0.43 71.2 0 0 81.48 90.70
  L 80.53 88.06
  Q 80.12 86.91 79.70 87.92"
/>
<path stroke="#96938d" vector-effect="non-scaling-stroke" d="
  M 102.56 104.83
  L 103.94 101.19
  A 0.44 0.37 -72.3 0 0 103.71 100.63
  Q 102.24 100.27 100.68 100.59
  A 0.47 0.46 -15.5 0 0 100.33 101.19
  L 101.66 104.93
  Q 102.08 106.10 102.56 104.83"
/>
<path stroke="#96938d" vector-effect="non-scaling-stroke" d="
  M 108.08 109.35
  C 110.19 104.38 104.36 101.28 102.78 105.46
  Q 102.11 107.23 101.22 105.56
  C 99.71 102.71 96.63 102.72 95.62 105.84
  C 94.55 109.08 99.82 115.17 101.71 117.87
  A 0.37 0.36 -44.7 0 0 102.30 117.87
  Q 107.37 111.04 108.08 109.35"
/>
<path stroke="#96938d" vector-effect="non-scaling-stroke" d="
  M 48.45 111.98
  Q 51.37 107.68 47.04 108.60
  A 0.49 0.47 -14.2 0 0 46.66 109.20
  L 47.54 111.91
  Q 47.85 112.86 48.45 111.98"
/>
<path stroke="#96938d" vector-effect="non-scaling-stroke" d="
  M 81.58 109.11
  A 0.43 0.43 12.1 0 0 81.18 108.52
  L 78.97 108.48
  A 0.43 0.43 81.1 0 0 78.56 109.05
  L 79.61 112.14
  A 0.43 0.43 -44.6 0 0 80.42 112.15
  L 81.58 109.11"
/>
<path stroke="#96938d" vector-effect="non-scaling-stroke" d="
  M 47.06 112.69
  C 45.24 108.49 40.38 112.75 43.37 117.22
  Q 45.57 120.52 47.73 123.82
  A 0.33 0.32 -45.2 0 0 48.28 123.81
  C 50.22 120.85 56.51 114.22 51.91 111.25
  A 1.12 1.08 52.8 0 0 51.00 111.11
  Q 49.73 111.46 48.96 112.46
  A 1.29 0.92 -42.6 0 1 47.06 112.69"
/>
<path stroke="#96938d" vector-effect="non-scaling-stroke" d="
  M 79.07 112.70
  Q 78.44 111.27 76.98 111.01
  A 1.28 1.21 -55.6 0 0 76.06 111.21
  C 71.52 114.32 77.75 120.74 79.72 123.81
  A 0.33 0.33 45.9 0 0 80.27 123.82
  C 82.24 120.87 88.69 114.02 83.72 111.16
  A 0.88 0.75 40.8 0 0 82.83 111.15
  L 80.28 112.95
  A 0.84 0.75 -30.1 0 1 79.07 112.70"
/>
<path stroke="#96938d" vector-effect="non-scaling-stroke" d="
  M 106.65 142.56
  C 106.13 147.50 100.66 149.52 97.72 145.18
  A 0.71 0.66 64.4 0 0 96.96 144.88
  Q 95.74 145.24 94.84 146.12
  A 0.61 0.60 51.4 0 0 94.76 146.90
  C 97.36 150.75 102.96 152.49 106.68 149.57
  C 112.79 144.78 112.76 123.68 102.07 123.64
  C 88.19 123.60 92.85 149.63 106.26 142.31
  Q 106.70 142.07 106.65 142.56"
/>
<path stroke="#96938d" vector-effect="non-scaling-stroke" d="
  M 26.2696 40.8439
  A 6.41 4.91 87.5 0 0 30.8953 34.2258
  A 6.41 4.91 87.5 0 0 25.7104 28.0361
  A 6.41 4.91 87.5 0 0 21.0847 34.6542
  A 6.41 4.91 87.5 0 0 26.2696 40.8439"
/>
<path stroke="#96938d" vector-effect="non-scaling-stroke" d="
  M 102.2334 139.9361
  A 6.40 4.90 88.0 0 0 106.9070 133.3690
  A 6.40 4.90 88.0 0 0 101.7866 127.1439
  A 6.40 4.90 88.0 0 0 97.1130 133.7110
  A 6.40 4.90 88.0 0 0 102.2334 139.9361"
/>
</g>
<path fill="#010001" fill-opacity="0.094" d="
  M 120.52 57.07
  C 120.08 85.18 120.63 113.34 120.38 141.47
  C 120.35 144.68 119.41 148.19 119.04 151.50
  C 118.65 155.12 111.24 158.80 108.42 160.54
  A 1.28 1.08 31.4 0 1 107.52 160.68
  Q 105.59 160.26 104.35 161.40
  A 1.38 1.10 -61.2 0 1 103.51 161.75
  L 65.24 161.72
  A 1.28 0.67 -55.5 0 0 64.47 162.13
  Q 64.24 162.36 64.01 162.24
  Q 63.56 161.99 63.39 161.99
  L 24.67 161.73
  A 0.83 0.68 -12.1 0 1 23.99 161.38
  L 23.88 161.20
  A 0.44 0.35 70.5 0 0 23.55 160.99
  C 22.68 160.97 18.24 161.62 18.10 160.57
  A 1.06 0.34 86.2 0 0 17.79 159.78
  Q 17.39 159.55 16.94 159.60
  A 0.64 0.60 72.7 0 1 16.32 159.25
  Q 15.99 158.56 15.02 158.71
  A 0.65 0.64 -16.4 0 1 14.34 158.35
  Q 13.70 156.97 12.49 156.03
  Q 10.88 154.77 10.41 154.06
  Q 8.88 151.71 8.06 148.98
  Q 7.03 145.62 7.02 142.10
  C 6.94 116.55 7.53 90.03 6.95 63.50
  C 6.91 61.69 7.76 59.96 7.76 58.15
  Q 7.74 49.95 7.76 41.75
  A 1.54 0.69 42.6 0 0 7.40 40.91
  L 7.25 40.71
  A 0.80 0.41 -76.1 0 1 7.14 40.24
  L 7.81 27.51
  Q 7.83 27.07 7.59 26.56
  Q 6.74 24.77 7.69 23.11
  Q 7.98 22.61 7.98 22.19
  L 7.99 19.18
  A 0.81 0.72 76.8 0 1 8.36 18.50
  L 8.56 18.39
  A 0.41 0.40 -16.5 0 0 8.75 18.05
  Q 8.67 16.01 10.13 14.80
  A 1.78 1.36 -17.8 0 0 10.67 14.02
  C 11.30 11.88 13.82 10.88 15.21 9.14
  A 1.08 0.86 15.2 0 1 16.00 8.80
  Q 16.83 8.81 17.26 8.15
  A 0.75 0.73 -68.9 0 1 17.97 7.82
  Q 18.79 7.93 19.13 7.23
  A 0.75 0.63 -73.3 0 1 19.78 6.80
  Q 21.83 6.94 23.57 6.00
  Q 24.03 5.75 24.49 5.75
  L 105.25 5.75
  A 1.52 1.12 58.4 0 1 106.12 6.10
  Q 107.36 7.13 109.03 7.00
  A 1.66 0.86 -17.7 0 1 109.97 7.16
  L 111.39 8.00
  A 0.82 0.64 -72.3 0 1 111.68 8.78
  Q 111.50 9.95 112.74 9.61
  A 1.07 0.85 -29.4 0 1 113.61 9.75
  Q 116.80 12.31 118.12 16.09
  Q 118.24 16.44 118.50 16.63
  A 1.13 0.68 25.6 0 1 118.96 17.33
  Q 119.06 19.37 120.13 21.15
  Q 120.39 21.59 120.40 22.06
  Q 120.80 39.57 120.52 57.07
  Z
  M 114.21 148.25
  L 114.54 146.50
  L 115.29 148.55
  A 0.56 0.49 70.0 0 0 115.94 148.91
  Q 116.44 148.74 116.32 148.37
  A 0.50 0.42 68.7 0 1 116.51 147.80
  Q 117.49 147.31 117.49 145.69
  Q 117.51 86.84 117.50 27.98
  C 117.50 24.26 116.46 20.90 115.78 17.22
  Q 115.63 16.40 113.77 14.50
  Q 110.76 11.42 106.57 10.74
  A 1.10 0.44 63.0 0 1 105.95 10.20
  L 105.62 9.70
  A 1.11 0.67 -8.8 0 0 104.76 9.35
  Q 67.06 9.14 29.36 9.30
  C 22.11 9.33 16.40 10.22 12.20 15.67
  Q 11.48 16.60 12.22 17.02
  A 0.25 0.24 43.6 0 1 12.24 17.44
  Q 10.48 18.53 10.96 20.83
  Q 11.33 22.61 10.46 22.30
  A 0.32 0.28 10.0 0 0 10.04 22.56
  C 10.11 24.58 9.78 26.80 9.78 28.56
  Q 9.65 117.69 9.87 144.44
  Q 9.88 145.51 11.16 146.45
  A 0.33 0.33 -43.2 0 1 11.14 146.99
  Q 10.39 147.51 10.95 147.96
  Q 11.05 148.85 10.99 149.80
  A 1.42 1.33 -62.6 0 0 11.24 150.69
  C 12.86 152.85 13.94 154.85 16.56 155.96
  C 19.50 157.20 22.01 158.53 25.31 158.59
  Q 43.82 158.91 54.93 158.67
  C 66.76 158.42 78.26 159.10 91.44 158.82
  C 102.71 158.59 109.07 159.19 115.16 150.59
  A 0.86 0.62 -48.3 0 0 115.25 149.71
  L 114.21 148.25
  Z"
/>
<path fill="#020303" fill-opacity="0.184" d="
  M 114.54 146.50
  Q 114.46 85.49 114.51 24.48
  C 114.52 15.38 110.62 12.76 101.63 12.75
  Q 63.10 12.73 24.58 12.77
  C 20.13 12.77 17.12 13.76 14.96 17.50
  Q 13.51 19.90 13.50 22.00
  Q 13.20 70.24 13.76 147.50
  C 15.32 153.82 19.52 155.24 25.85 155.24
  Q 64.28 155.24 102.72 155.28
  C 108.57 155.28 112.32 153.78 114.21 148.25
  L 115.25 149.71
  A 0.86 0.62 -48.3 0 1 115.16 150.59
  C 109.07 159.19 102.71 158.59 91.44 158.82
  C 78.26 159.10 66.76 158.42 54.93 158.67
  Q 43.82 158.91 25.31 158.59
  C 22.01 158.53 19.50 157.20 16.56 155.96
  C 13.94 154.85 12.86 152.85 11.24 150.69
  A 1.42 1.33 -62.6 0 1 10.99 149.80
  Q 11.05 148.85 10.95 147.96
  Q 10.39 147.51 11.14 146.99
  A 0.33 0.33 -43.2 0 0 11.16 146.45
  Q 9.88 145.51 9.87 144.44
  Q 9.65 117.69 9.78 28.56
  C 9.78 26.80 10.11 24.58 10.04 22.56
  A 0.32 0.28 10.0 0 1 10.46 22.30
  Q 11.33 22.61 10.96 20.83
  Q 10.48 18.53 12.24 17.44
  A 0.25 0.24 43.6 0 0 12.22 17.02
  Q 11.48 16.60 12.20 15.67
  C 16.40 10.22 22.11 9.33 29.36 9.30
  Q 67.06 9.14 104.76 9.35
  A 1.11 0.67 -8.8 0 1 105.62 9.70
  L 105.95 10.20
  A 1.10 0.44 63.0 0 0 106.57 10.74
  Q 110.76 11.42 113.77 14.50
  Q 115.63 16.40 115.78 17.22
  C 116.46 20.90 117.50 24.26 117.50 27.98
  Q 117.51 86.84 117.49 145.69
  Q 117.49 147.31 116.51 147.80
  A 0.50 0.42 68.7 0 0 116.32 148.37
  Q 116.44 148.74 115.94 148.91
  A 0.56 0.49 70.0 0 1 115.29 148.55
  L 114.54 146.50
  Z"
/>
<path fill="#ffffff" d="
  M 114.54 146.50
  L 114.21 148.25
  C 112.32 153.78 108.57 155.28 102.72 155.28
  Q 64.28 155.24 25.85 155.24
  C 19.52 155.24 15.32 153.82 13.76 147.50
  Q 14.18 84.85 14.00 22.20
  C 14.00 20.51 14.71 19.19 14.96 17.50
  C 17.12 13.76 20.13 12.77 24.58 12.77
  Q 63.10 12.73 101.63 12.75
  C 110.62 12.76 114.52 15.38 114.51 24.48
  Q 114.46 85.49 114.54 146.50
  Z
  M 21.36 25.44
  C 22.00 20.42 27.17 18.53 30.23 22.86
  A 0.75 0.68 64.2 0 0 30.99 23.17
  Q 32.33 22.81 33.18 21.76
  A 0.67 0.65 46.7 0 0 33.19 20.95
  C 30.27 16.95 24.06 15.36 20.58 19.02
  C 15.31 24.55 15.48 46.17 27.16 44.33
  C 39.68 42.36 34.66 18.89 21.75 25.70
  Q 21.30 25.94 21.36 25.44
  Z
  M 48.86 55.36
  Q 50.93 58.95 53.10 55.78
  Q 54.62 53.55 53.03 51.20
  L 48.26 44.19
  A 0.33 0.33 0.0 0 0 47.72 44.19
  L 42.56 51.94
  Q 41.55 53.45 42.46 55.02
  Q 44.65 58.75 47.28 55.27
  A 0.95 0.95 -41.7 0 1 48.86 55.36
  Z
  M 80.76 55.18
  Q 82.92 58.95 85.06 55.85
  Q 86.63 53.57 85.01 51.18
  L 80.25 44.19
  A 0.33 0.32 45.5 0 0 79.71 44.18
  L 74.63 51.78
  A 1.67 1.46 -31.7 0 0 74.35 52.69
  Q 74.47 59.71 79.82 55.03
  A 0.62 0.61 54.0 0 1 80.76 55.18
  Z
  M 32.32 61.05
  Q 32.90 58.89 31.61 57.00
  L 26.15 48.98
  A 0.32 0.31 43.4 0 0 25.62 48.99
  Q 23.73 52.23 20.85 56.09
  C 17.53 60.53 21.65 67.11 25.25 61.65
  A 0.83 0.67 -65.3 0 1 26.01 61.27
  Q 26.95 61.45 27.34 62.28
  A 1.71 0.81 77.6 0 0 27.92 63.03
  Q 31.23 65.04 32.32 61.05
  Z
  M 47.70 55.92
  L 46.46 58.75
  A 0.47 0.46 18.5 0 0 46.79 59.39
  Q 47.75 59.63 49.24 59.28
  A 0.41 0.37 73.6 0 0 49.50 58.75
  L 48.52 56.05
  Q 48.13 54.94 47.70 55.92
  Z
  M 79.63 56.24
  Q 76.93 60.46 81.10 59.41
  A 0.48 0.48 -16.7 0 0 81.44 58.79
  L 80.58 56.32
  Q 80.23 55.31 79.63 56.24
  Z
  M 25.19 62.92
  L 24.33 65.81
  A 0.48 0.45 -75.6 0 0 24.66 66.41
  Q 25.96 66.70 27.33 66.41
  A 0.44 0.44 73.5 0 0 27.65 65.82
  L 26.57 62.84
  Q 25.83 60.80 25.19 62.92
  Z
  M 48.47 87.12
  Q 51.08 90.95 53.19 87.59
  Q 54.52 85.47 53.12 83.42
  L 48.29 76.39
  A 0.35 0.34 44.7 0 0 47.72 76.39
  L 42.64 83.78
  A 1.62 1.60 62.5 0 0 42.36 84.69
  Q 42.46 91.70 47.82 87.03
  A 0.44 0.43 52.4 0 1 48.47 87.12
  Z
  M 80.76 87.18
  Q 82.92 90.95 85.04 87.88
  Q 86.64 85.56 85.03 83.25
  L 80.27 76.39
  A 0.35 0.35 -45.4 0 0 79.69 76.39
  L 74.64 83.78
  A 1.53 1.52 -28.1 0 0 74.36 84.69
  Q 74.46 91.70 79.82 87.03
  A 0.62 0.62 54.1 0 1 80.76 87.18
  Z
  M 47.63 88.24
  Q 44.93 92.46 49.10 91.41
  A 0.48 0.48 -16.7 0 0 49.44 90.79
  L 48.58 88.32
  Q 48.23 87.31 47.63 88.24
  Z
  M 79.70 87.92
  L 78.49 90.84
  A 0.50 0.44 17.0 0 0 78.87 91.45
  Q 80.10 91.74 81.24 91.34
  A 0.53 0.43 71.2 0 0 81.48 90.70
  L 80.53 88.06
  Q 80.12 86.91 79.70 87.92
  Z
  M 102.56 104.83
  L 103.94 101.19
  A 0.44 0.37 -72.3 0 0 103.71 100.63
  Q 102.24 100.27 100.68 100.59
  A 0.47 0.46 -15.5 0 0 100.33 101.19
  L 101.66 104.93
  Q 102.08 106.10 102.56 104.83
  Z
  M 108.08 109.35
  C 110.19 104.38 104.36 101.28 102.78 105.46
  Q 102.11 107.23 101.22 105.56
  C 99.71 102.71 96.63 102.72 95.62 105.84
  C 94.55 109.08 99.82 115.17 101.71 117.87
  A 0.37 0.36 -44.7 0 0 102.30 117.87
  Q 107.37 111.04 108.08 109.35
  Z
  M 48.45 111.98
  Q 51.37 107.68 47.04 108.60
  A 0.49 0.47 -14.2 0 0 46.66 109.20
  L 47.54 111.91
  Q 47.85 112.86 48.45 111.98
  Z
  M 81.58 109.11
  A 0.43 0.43 12.1 0 0 81.18 108.52
  L 78.97 108.48
  A 0.43 0.43 81.1 0 0 78.56 109.05
  L 79.61 112.14
  A 0.43 0.43 -44.6 0 0 80.42 112.15
  L 81.58 109.11
  Z
  M 47.06 112.69
  C 45.24 108.49 40.38 112.75 43.37 117.22
  Q 45.57 120.52 47.73 123.82
  A 0.33 0.32 -45.2 0 0 48.28 123.81
  C 50.22 120.85 56.51 114.22 51.91 111.25
  A 1.12 1.08 52.8 0 0 51.00 111.11
  Q 49.73 111.46 48.96 112.46
  A 1.29 0.92 -42.6 0 1 47.06 112.69
  Z
  M 79.07 112.70
  Q 78.44 111.27 76.98 111.01
  A 1.28 1.21 -55.6 0 0 76.06 111.21
  C 71.52 114.32 77.75 120.74 79.72 123.81
  A 0.33 0.33 45.9 0 0 80.27 123.82
  C 82.24 120.87 88.69 114.02 83.72 111.16
  A 0.88 0.75 40.8 0 0 82.83 111.15
  L 80.28 112.95
  A 0.84 0.75 -30.1 0 1 79.07 112.70
  Z
  M 106.65 142.56
  C 106.13 147.50 100.66 149.52 97.72 145.18
  A 0.71 0.66 64.4 0 0 96.96 144.88
  Q 95.74 145.24 94.84 146.12
  A 0.61 0.60 51.4 0 0 94.76 146.90
  C 97.36 150.75 102.96 152.49 106.68 149.57
  C 112.79 144.78 112.76 123.68 102.07 123.64
  C 88.19 123.60 92.85 149.63 106.26 142.31
  Q 106.70 142.07 106.65 142.56
  Z"
/>
<path fill="#2d261b" d="
  M 21.75 25.70
  C 34.66 18.89 39.68 42.36 27.16 44.33
  C 15.48 46.17 15.31 24.55 20.58 19.02
  C 24.06 15.36 30.27 16.95 33.19 20.95
  A 0.67 0.65 46.7 0 1 33.18 21.76
  Q 32.33 22.81 30.99 23.17
  A 0.75 0.68 64.2 0 1 30.23 22.86
  C 27.17 18.53 22.00 20.42 21.36 25.44
  Q 21.30 25.94 21.75 25.70
  Z
  M 26.2696 40.8439
  A 6.41 4.91 87.5 0 0 30.8953 34.2258
  A 6.41 4.91 87.5 0 0 25.7104 28.0361
  A 6.41 4.91 87.5 0 0 21.0847 34.6542
  A 6.41 4.91 87.5 0 0 26.2696 40.8439
  Z"
/>
<path fill="#f2f4f5" fill-opacity="0.969" d="
  M 14.96 17.50
  C 14.71 19.19 14.00 20.51 14.00 22.20
  Q 14.18 84.85 13.76 147.50
  Q 13.20 70.24 13.50 22.00
  Q 13.51 19.90 14.96 17.50
  Z"
/>
<ellipse fill="#ffffff" cx="0.00" cy="0.00" transform="translate(25.99,34.44) rotate(87.5)" rx="6.41" ry="4.91"/>
<path fill="#2d261b" d="
  M 48.86 55.36
  A 0.95 0.95 -41.7 0 0 47.28 55.27
  Q 44.65 58.75 42.46 55.02
  Q 41.55 53.45 42.56 51.94
  L 47.72 44.19
  A 0.33 0.33 -39.9 0 1 48.26 44.19
  L 53.03 51.20
  Q 54.62 53.55 53.10 55.78
  Q 50.93 58.95 48.86 55.36
  Z"
/>
<path fill="#2d261b" d="
  M 80.76 55.18
  A 0.62 0.61 54.0 0 0 79.82 55.03
  Q 74.47 59.71 74.35 52.69
  A 1.67 1.46 -31.7 0 1 74.63 51.78
  L 79.71 44.18
  A 0.33 0.32 45.5 0 1 80.25 44.19
  L 85.01 51.18
  Q 86.63 53.57 85.06 55.85
  Q 82.92 58.95 80.76 55.18
  Z"
/>
<path fill="#2d261b" d="
  M 32.32 61.05
  Q 31.23 65.04 27.92 63.03
  A 1.71 0.81 77.6 0 1 27.34 62.28
  Q 26.95 61.45 26.01 61.27
  A 0.83 0.67 -65.3 0 0 25.25 61.65
  C 21.65 67.11 17.53 60.53 20.85 56.09
  Q 23.73 52.23 25.62 48.99
  A 0.32 0.31 43.4 0 1 26.15 48.98
  L 31.61 57.00
  Q 32.90 58.89 32.32 61.05
  Z"
/>
<path fill="#2d261b" d="
  M 47.70 55.92
  Q 48.13 54.94 48.52 56.05
  L 49.50 58.75
  A 0.41 0.37 73.6 0 1 49.24 59.28
  Q 47.75 59.63 46.79 59.39
  A 0.47 0.46 18.5 0 1 46.46 58.75
  L 47.70 55.92
  Z"
/>
<path fill="#2d261b" d="
  M 79.63 56.24
  Q 80.23 55.31 80.58 56.32
  L 81.44 58.79
  A 0.48 0.48 -16.7 0 1 81.10 59.41
  Q 76.93 60.46 79.63 56.24
  Z"
/>
<path fill="#2d261b" d="
  M 25.19 62.92
  Q 25.83 60.80 26.57 62.84
  L 27.65 65.82
  A 0.44 0.44 73.5 0 1 27.33 66.41
  Q 25.96 66.70 24.66 66.41
  A 0.48 0.45 -75.6 0 1 24.33 65.81
  L 25.19 62.92
  Z"
/>
<path fill="#2d261b" d="
  M 48.47 87.12
  A 0.44 0.43 52.4 0 0 47.82 87.03
  Q 42.46 91.70 42.36 84.69
  A 1.62 1.60 62.5 0 1 42.64 83.78
  L 47.72 76.39
  A 0.35 0.34 44.7 0 1 48.29 76.39
  L 53.12 83.42
  Q 54.52 85.47 53.19 87.59
  Q 51.08 90.95 48.47 87.12
  Z"
/>
<path fill="#2d261b" d="
  M 80.76 87.18
  A 0.62 0.62 54.1 0 0 79.82 87.03
  Q 74.46 91.70 74.36 84.69
  A 1.53 1.52 -28.1 0 1 74.64 83.78
  L 79.69 76.39
  A 0.35 0.35 -44.8 0 1 80.27 76.39
  L 85.03 83.25
  Q 86.64 85.56 85.04 87.88
  Q 82.92 90.95 80.76 87.18
  Z"
/>
<path fill="#2d261b" d="
  M 47.63 88.24
  Q 48.23 87.31 48.58 88.32
  L 49.44 90.79
  A 0.48 0.48 -16.7 0 1 49.10 91.41
  Q 44.93 92.46 47.63 88.24
  Z"
/>
<path fill="#2d261b" d="
  M 79.70 87.92
  Q 80.12 86.91 80.53 88.06
  L 81.48 90.70
  A 0.53 0.43 71.2 0 1 81.24 91.34
  Q 80.10 91.74 78.87 91.45
  A 0.50 0.44 17.0 0 1 78.49 90.84
  L 79.70 87.92
  Z"
/>
<path fill="#2d261b" d="
  M 102.56 104.83
  Q 102.08 106.10 101.66 104.93
  L 100.33 101.19
  A 0.47 0.46 -15.5 0 1 100.68 100.59
  Q 102.24 100.27 103.71 100.63
  A 0.44 0.37 -72.3 0 1 103.94 101.19
  L 102.56 104.83
  Z"
/>
<path fill="#2d261b" d="
  M 102.78 105.46
  C 104.36 101.28 110.19 104.38 108.08 109.35
  Q 107.37 111.04 102.30 117.87
  A 0.37 0.36 -44.7 0 1 101.71 117.87
  C 99.82 115.17 94.55 109.08 95.62 105.84
  C 96.63 102.72 99.71 102.71 101.22 105.56
  Q 102.11 107.23 102.78 105.46
  Z"
/>
<path fill="#2d261b" d="
  M 48.45 111.98
  Q 47.85 112.86 47.54 111.91
  L 46.66 109.20
  A 0.49 0.47 -14.2 0 1 47.04 108.60
  Q 51.37 107.68 48.45 111.98
  Z"
/>
<path fill="#2d261b" d="
  M 81.58 109.11
  L 80.42 112.15
  A 0.43 0.43 -45.6 0 1 79.61 112.14
  L 78.56 109.05
  A 0.43 0.43 76.9 0 1 78.97 108.48
  L 81.18 108.52
  A 0.43 0.43 13.8 0 1 81.58 109.11
  Z"
/>
<path fill="#2d261b" d="
  M 47.06 112.69
  A 1.29 0.92 -42.6 0 0 48.96 112.46
  Q 49.73 111.46 51.00 111.11
  A 1.12 1.08 52.8 0 1 51.91 111.25
  C 56.51 114.22 50.22 120.85 48.28 123.81
  A 0.33 0.32 -45.2 0 1 47.73 123.82
  Q 45.57 120.52 43.37 117.22
  C 40.38 112.75 45.24 108.49 47.06 112.69
  Z"
/>
<path fill="#2d261b" d="
  M 79.07 112.70
  A 0.84 0.75 -30.1 0 0 80.28 112.95
  L 82.83 111.15
  A 0.88 0.75 40.8 0 1 83.72 111.16
  C 88.69 114.02 82.24 120.87 80.27 123.82
  A 0.33 0.33 45.9 0 1 79.72 123.81
  C 77.75 120.74 71.52 114.32 76.06 111.21
  A 1.28 1.21 -55.6 0 1 76.98 111.01
  Q 78.44 111.27 79.07 112.70
  Z"
/>
<path fill="#2d261b" d="
  M 106.26 142.31
  C 92.85 149.63 88.19 123.60 102.07 123.64
  C 112.76 123.68 112.79 144.78 106.68 149.57
  C 102.96 152.49 97.36 150.75 94.76 146.90
  A 0.61 0.60 51.4 0 1 94.84 146.12
  Q 95.74 145.24 96.96 144.88
  A 0.71 0.66 64.4 0 1 97.72 145.18
  C 100.66 149.52 106.13 147.50 106.65 142.56
  Q 106.70 142.07 106.26 142.31
  Z
  M 102.2334 139.9361
  A 6.40 4.90 88.0 0 0 106.9070 133.3690
  A 6.40 4.90 88.0 0 0 101.7866 127.1439
  A 6.40 4.90 88.0 0 0 97.1130 133.7110
  A 6.40 4.90 88.0 0 0 102.2334 139.9361
  Z"
/>
<ellipse fill="#ffffff" cx="0.00" cy="0.00" transform="translate(102.01,133.54) rotate(88.0)" rx="6.40" ry="4.90"/>
</svg>
