<?xml version="1.0" encoding="utf-8"?>
<!-- Generator: Adobe Illustrator 27.0.1, SVG Export Plug-In . SVG Version: 6.00 Build 0)  -->
<svg version="1.1" id="Слой_1" xmlns="http://www.w3.org/2000/svg" xmlns:xlink="http://www.w3.org/1999/xlink" x="0px" y="0px"
	 viewBox="0 0 128 168" style="enable-background:new 0 0 128 168;" xml:space="preserve">
<style type="text/css">
	.st0{fill:none;}
	.st1{fill:#010001;fill-opacity:9.400000e-02;}
	.st2{fill:#010202;fill-opacity:0.173;}
	.st3{fill:#FFFFFF;}
	.st4{fill:#2D261B;}
	.st5{fill:#F2F4F5;fill-opacity:0.973;}
	.st6{fill:#F3EFED;fill-opacity:0.898;}
	.st7{fill:#D8D8D8;}
	.st8{fill:#AAAAAA;}
</style>
<g>
	<path vector-effect="non-scaling-stroke" class="st0" d="M17,153c1.9,1.6,4.2,2.4,6.8,2.4c25-0.1,50.1-0.1,75.1,0
		c10.6,0,15.7-0.9,15.7-13.1c0-22.7,0-45.3,0-68"/>
	<path vector-effect="non-scaling-stroke" class="st0" d="M114.5,46.5c0-7.3,0.1-14.7,0.1-22c0-9.1-3.9-11.7-12.9-11.7
		c-25.6,0-51.1,0-76.7,0c-5.6,0-8.8,1.5-11.1,6.5"/>
	<path vector-effect="non-scaling-stroke" class="st0" d="M114.5,46.5c-0.4,9.3-0.4,18.5,0.1,27.8"/>
	<path vector-effect="non-scaling-stroke" class="st0" d="M17,153c-2-2.8-3-4.7-3-5.7c0.1-42.7,0-85.3-0.2-128"/>
	<path vector-effect="non-scaling-stroke" class="st0" d="M30.4,40.5l-8.9-0.1c-0.2,0-0.4-0.2-0.4-0.4c0,0,0-0.1,0-0.1
		c2.5-7.1,15.3-10.3,13-17.6c-2.6-8.1-19.3-6.6-16.6,3.4c0.1,0.3,0.3,0.5,0.6,0.5c2,0.1,2.9-0.9,2.6-2.9c0-0.3,0.1-0.7,0.2-0.9
		c3.5-4.1,15.9-1.1,6.1,6.2c-5.4,4.1-10.1,7.2-9.9,14.6c0,0.4,0.3,0.7,0.7,0.7l15.9,0c0.3,0,0.5-0.2,0.6-0.5l0-5.6
		c0-0.3-0.2-0.6-0.5-0.7c-2.5-0.8-3.5,0.1-3.1,2.8C30.9,40.2,30.7,40.4,30.4,40.5C30.5,40.5,30.5,40.5,30.4,40.5"/>
	<path vector-effect="non-scaling-stroke" class="st0" d="M64.8,55.4c0.3,0.9,1.1,1.4,2.2,1.6c0.3,0,0.7,0,0.9-0.2
		c4.5-3-1.8-9.7-3.7-12.6c-0.1-0.1-0.3-0.2-0.4-0.1c0,0-0.1,0.1-0.1,0.1l-4.7,7c-1.1,1.6-1.1,3.1-0.1,4.6c1.3,1.9,2.8,1.7,4.4-0.5
		C63.9,54.3,64.4,54.4,64.8,55.4"/>
	<path vector-effect="non-scaling-stroke" class="st0" d="M25.3,61.3c0.5-1,1.1-0.8,1.8,0.6c2.3,4.7,7.5-0.2,4.1-5.4
		c-1.6-2.5-3.3-4.9-5-7.4c-0.1-0.2-0.3-0.2-0.5-0.1c0,0-0.1,0.1-0.1,0.1c-1.8,2.6-3.6,5.3-5.4,7.9C17.5,60.9,22.2,67,25.3,61.3"/>
	<path vector-effect="non-scaling-stroke" class="st0" d="M63.8,55.8c-2.3,3.1-1.8,4.3,1.4,3.6c0.2-0.1,0.4-0.3,0.3-0.5c0,0,0,0,0,0
		l-1-2.8C64.3,55.4,64.1,55.4,63.8,55.8"/>
	<path vector-effect="non-scaling-stroke" class="st0" d="M25.2,62.9l-0.8,2.9c-0.1,0.3,0.1,0.5,0.3,0.6c0,0,0,0,0,0
		c0.9,0.2,1.7,0.2,2.6,0c0.2-0.1,0.4-0.3,0.3-0.5c0,0,0,0,0-0.1l-1.1-3C26.1,61.5,25.6,61.5,25.2,62.9"/>
	<path vector-effect="non-scaling-stroke" class="st0" d="M102.6,104.8l1.4-3.6c0.1-0.2,0-0.5-0.2-0.5c0,0,0,0,0,0c-1-0.2-2-0.3-3,0
		c-0.2,0.1-0.4,0.3-0.4,0.5c0,0,0,0,0,0.1l1.3,3.7C101.9,105.7,102.2,105.7,102.6,104.8"/>
	<path vector-effect="non-scaling-stroke" class="st0" d="M106.3,103.7c-1.2-0.6-2.1-0.3-2.6,1c-0.2,0.6-0.8,1-1.7,1.3
		c-0.3,0.1-0.6-0.1-0.7-0.3c-0.9-1.8-2.4-2.4-4.3-1.8c-0.3,0.1-0.6,0.3-0.7,0.6c-2.5,4.3,3,9.9,5.4,13.4c0.1,0.2,0.3,0.2,0.5,0.1
		c0,0,0.1,0,0.1-0.1C104.6,114.8,112.1,106.6,106.3,103.7"/>
	<path vector-effect="non-scaling-stroke" class="st0" d="M65.6,109.1c0.1-0.2,0-0.5-0.3-0.6c0,0-0.1,0-0.1,0l-2.2,0
		c-0.2,0-0.4,0.2-0.4,0.4c0,0.1,0,0.1,0,0.2l1,3.1c0.1,0.2,0.3,0.3,0.5,0.3c0.1,0,0.2-0.1,0.3-0.3L65.6,109.1"/>
	<path vector-effect="non-scaling-stroke" class="st0" d="M63.1,112.7c-1.3-2.1-2.7-2.2-4.3-0.4c-1,1.2-1.1,2.5-0.2,3.8l5.1,7.7
		c0.1,0.2,0.3,0.2,0.5,0.1c0,0,0.1-0.1,0.1-0.1c1.4-2.3,2.9-4.6,4.4-6.8c2.5-3.7-1.2-8.5-3.7-4.5c-0.4,0.6-1.1,0.8-1.6,0.5
		C63.3,113,63.1,112.8,63.1,112.7"/>
	<path vector-effect="non-scaling-stroke" class="st0" d="M106.8,128c-2.2,6.9-17.6,11.6-12.2,19.3c4.4,6.2,18.6,4.2,15.7-5.1
		c-0.1-0.3-0.4-0.5-0.6-0.4c0,0,0,0,0,0l-2.1,0.7c-0.2,0.1-0.4,0.4-0.4,0.8c0.6,7.6-14.9,3.8-9-1.8c5.2-4.9,12.7-7.3,12.4-16.9
		c0-0.3-0.2-0.5-0.5-0.5l-16,0c-0.3,0-0.5,0.2-0.5,0.5l-0.1,5.5c0,0.3,0.2,0.6,0.5,0.7c2.5,1,3.5,0.2,3.1-2.5c0-0.3,0.1-0.5,0.4-0.5
		c0,0,0,0,0.1,0l9-0.1c0.2,0,0.4,0.2,0.4,0.4C106.8,128,106.8,128,106.8,128"/>
</g>
<path class="st1" d="M19.7,159.8c-0.9,0.1-1.5-0.1-1.9-0.7c-0.2-0.2-0.5-0.4-0.7-0.3c-1.5,0.2-2.5-0.3-3.1-1.5
	c-0.2-0.3-0.4-0.6-0.6-0.8c-2.2-1.9-3.6-4.2-4.3-6.9c0-0.1-0.2-0.4-0.6-0.7c-0.4-0.4-0.2-3.2-1-4.5c-0.2-0.3-0.3-0.6-0.3-0.9
	c0-32.3,0-64.5,0-96.8c0-0.2,0.2-1.6,0.5-4c0.3-2.2-0.6-3.8-0.6-5.8c0-2-0.4-12.2,0.6-13.1c0.2-0.2,0.4-0.5,0.4-0.8
	c0-2.4,0.3-4.7,1-6.9c0.3-1,0.9-1.9,1.8-2.7l4.2-4c0.3-0.3,0.5-0.4,0.8-0.5c1-0.2,1.9-0.6,2.7-1.2c0.3-0.2,0.6-0.3,0.9-0.3
	C22.3,7,24.7,6,27.3,6c26,0,51.9,0,77.9,0c0.3,0,0.6,0.1,0.8,0.3c0.8,0.8,1.9,1.1,3,1.1c0.2,0,0.4,0.2,0.4,0.4c0,0,0,0.1,0,0.1
	c-0.2,0.9,0.1,1.5,1,1.6c2.2,0.2,3.4,0.5,3.7,1c4,5.5,5.8,11.6,5.6,18.1c-0.2,5.2,0.1,9,0.1,13.6c0,0.1-0.2,1-0.5,2.7
	c-0.2,1.3,0.3,2.5,0.2,3.8c-0.1,4.3-0.2,8.5-0.2,12.8c0,26.3,0,52.7,0.2,79c0,0.4-0.1,1.5-0.3,3.5c-0.1,1.2-0.1,2.4,0.2,3.6
	c0.1,0.3,0,0.6-0.2,0.8c-0.6,0.6-0.9,1.4-0.8,2.3c0,0.3-0.1,0.6-0.3,0.8c-0.8,0.8-1.4,1.7-1.8,2.7c-0.1,0.3-0.3,0.5-0.6,0.5l-0.3,0
	c-0.2,0-0.3,0.1-0.4,0.3c-2.3,3.5-5.7,5.1-10,4.8c-0.3,0-0.6,0.1-0.7,0.4c-0.7,1.1-32.1,0.6-35.9,0.6c-0.3,0-0.6,0.1-0.9,0.3
	c-0.6,0.4-1.3,0.4-2,0c-0.3-0.2-0.6-0.3-0.9-0.3l-44.2-0.1c-0.3,0-0.5-0.2-0.5-0.4l0-0.2C20,159.9,19.8,159.8,19.7,159.8
	C19.7,159.8,19.7,159.8,19.7,159.8z M13,153.8c0.1,1.1,0.7,1.7,1.7,1.9c0.2,0,0.4,0.3,0.5,0.6c0.1,0.4,0.3,0.5,0.9,0.4
	c3.3,1.9,6,2.9,8.3,3c4.3,0.1,17.1,0.2,38.4,0c12.8-0.1,25.6,0,38.5,0c1.7,0,9.6-1.8,9.8-3.2c0-0.3,0.2-0.6,0.5-0.7
	c6.4-2.7,6.5-11.1,6.5-17.2c0-37.7,0-75.5,0-113.2c0-3.3-0.5-8.7-3.8-10.4c-0.3-0.1-0.5-0.4-0.6-0.7c-0.4-1.1-1.2-1.8-2.3-2.2
	c-0.3-0.1-0.6-0.3-0.8-0.5c-1.5-1.8-4.4-0.8-4.9-1.8c-0.1-0.3-0.4-0.5-0.7-0.5c-26.2,0-52.5,0-78.7,0c-4.3,0-7.6,1.6-11.4,3.2
	c-0.3,0.1-0.4,0.4-0.5,0.7c-0.1,0.7-0.6,1.2-1.3,1.4c-0.4,0.1-0.7,0.2-0.8,0.4c-0.2,0.3-0.3,0.6-0.3,1c0,0.3-0.2,0.5-0.5,0.5
	c-0.6,0.1-0.8,0.4-0.7,0.8c0.1,0.3,0,0.6-0.2,0.8c-1.3,1.2-1.2,9.6-1.2,11.4c0.2,37.7,0,75.3-0.5,113c0,3.5,1.2,7,3.7,10.4
	C12.8,153.2,12.9,153.5,13,153.8z"/>
<path class="st2" d="M12.6,152.9c-2.5-3.4-3.7-6.9-3.7-10.4c0.5-37.7,0.6-75.3,0.5-113c0-1.9-0.1-10.3,1.2-11.4
	c0.2-0.2,0.3-0.5,0.2-0.8c-0.1-0.4,0.1-0.7,0.7-0.8c0.3,0,0.4-0.3,0.5-0.5c0-0.4,0.1-0.7,0.3-1c0.1-0.2,0.4-0.3,0.8-0.4
	c0.7-0.2,1.2-0.6,1.3-1.4c0.1-0.3,0.3-0.6,0.5-0.7c3.8-1.6,7.1-3.2,11.4-3.2c26.2,0,52.5,0,78.7,0c0.3,0,0.5,0.2,0.7,0.5
	c0.5,1,3.4,0,4.9,1.8c0.2,0.3,0.5,0.4,0.8,0.5c1.1,0.3,1.9,1.1,2.3,2.2c0.1,0.3,0.3,0.5,0.6,0.7c3.3,1.7,3.8,7.2,3.8,10.4
	c0,37.7,0,75.5,0,113.2c0,6.1-0.1,14.5-6.5,17.2c-0.2,0.1-0.4,0.4-0.5,0.7c-0.2,1.4-8.1,3.2-9.8,3.2c-12.8,0-25.7-0.1-38.5,0
	c-21.3,0.1-34.2,0.1-38.4,0c-2.3-0.1-5-1.1-8.3-3c-0.5,0.1-0.8,0-0.9-0.4c0-0.3-0.2-0.5-0.5-0.6c-1-0.2-1.6-0.8-1.7-1.9
	C12.9,153.5,12.8,153.2,12.6,152.9z M13.8,19.2c-0.5,59.8-0.6,102.2-0.3,127.5c0,2.2,1.2,4.3,3.5,6.3c1.9,1.6,4.2,2.4,6.8,2.4
	c25-0.1,50.1-0.1,75.1,0c10.6,0,15.7-0.9,15.7-13.1c0-22.7,0-45.3,0-68c0.3-9.3,0.3-18.5-0.1-27.8c0-7.3,0.1-14.7,0.1-22
	c0-9.1-3.9-11.7-12.9-11.7c-25.6,0-51.1,0-76.7,0C19.3,12.8,16.1,14.3,13.8,19.2z M115,118.7c0-0.1-0.1-0.1-0.1-0.1h0
	c-0.1,0-0.1,0.1-0.1,0.1v27.2c0,0.1,0.1,0.1,0.1,0.1h0c0.1,0,0.1-0.1,0.1-0.1V118.7z"/>
<path class="st3" d="M114.5,46.5c-0.4,9.3-0.4,18.5,0.1,27.8c-0.1,22.7-0.1,45.3,0,68c0,12.2-5.1,13.2-15.7,13.1
	c-25-0.1-50.1-0.1-75.1,0c-2.6,0-4.8-0.8-6.8-2.4c-2-2.8-3-4.7-3-5.7c0.1-42.7,0-85.3-0.2-128c2.3-5,5.5-6.5,11.1-6.5
	c25.6,0,51.1,0,76.7,0c9,0,12.9,2.6,12.9,11.7C114.5,31.8,114.5,39.2,114.5,46.5z M30.4,40.5l-8.9-0.1c-0.2,0-0.4-0.2-0.4-0.4
	c0,0,0-0.1,0-0.1c2.5-7.1,15.3-10.3,13-17.6c-2.6-8.1-19.3-6.6-16.6,3.4c0.1,0.3,0.3,0.5,0.6,0.5c2,0.1,2.9-0.9,2.6-2.9
	c0-0.3,0.1-0.7,0.2-0.9c3.5-4.1,15.9-1.1,6.1,6.2c-5.4,4.1-10.1,7.2-9.9,14.6c0,0.4,0.3,0.7,0.7,0.7l15.9,0c0.3,0,0.5-0.2,0.6-0.5
	l0-5.6c0-0.3-0.2-0.6-0.5-0.7c-2.5-0.8-3.5,0.1-3.1,2.8C30.9,40.2,30.7,40.4,30.4,40.5C30.5,40.5,30.5,40.5,30.4,40.5z M64.8,55.4
	c0.3,0.9,1.1,1.4,2.2,1.6c0.3,0,0.7,0,0.9-0.2c4.5-3-1.8-9.7-3.7-12.6c-0.1-0.1-0.3-0.2-0.4-0.1c0,0-0.1,0.1-0.1,0.1l-4.7,7
	c-1.1,1.6-1.1,3.1-0.1,4.6c1.3,1.9,2.8,1.7,4.4-0.5C63.9,54.3,64.4,54.4,64.8,55.4z M25.3,61.3c0.5-1,1.1-0.8,1.8,0.6
	c2.3,4.7,7.5-0.2,4.1-5.4c-1.6-2.5-3.3-4.9-5-7.4c-0.1-0.2-0.3-0.2-0.5-0.1c0,0-0.1,0.1-0.1,0.1c-1.8,2.6-3.6,5.3-5.4,7.9
	C17.5,60.9,22.2,67,25.3,61.3z M63.8,55.8c-2.3,3.1-1.8,4.3,1.4,3.6c0.2-0.1,0.4-0.3,0.3-0.5c0,0,0,0,0,0l-1-2.8
	C64.3,55.4,64.1,55.4,63.8,55.8z M25.2,62.9l-0.8,2.9c-0.1,0.3,0.1,0.5,0.3,0.6c0,0,0,0,0,0c0.9,0.2,1.7,0.2,2.6,0
	c0.2-0.1,0.4-0.3,0.3-0.5c0,0,0,0,0-0.1l-1.1-3C26.1,61.5,25.6,61.5,25.2,62.9z M102.6,104.8l1.4-3.6c0.1-0.2,0-0.5-0.2-0.5
	c0,0,0,0,0,0c-1-0.2-2-0.3-3,0c-0.2,0.1-0.4,0.3-0.4,0.5c0,0,0,0,0,0.1l1.3,3.7C101.9,105.7,102.2,105.7,102.6,104.8z M106.3,103.7
	c-1.2-0.6-2.1-0.3-2.6,1c-0.2,0.6-0.8,1-1.7,1.3c-0.3,0.1-0.6-0.1-0.7-0.3c-0.9-1.8-2.4-2.4-4.3-1.8c-0.3,0.1-0.6,0.3-0.7,0.6
	c-2.5,4.3,3,9.9,5.4,13.4c0.1,0.2,0.3,0.2,0.5,0.1c0,0,0.1,0,0.1-0.1C104.6,114.8,112.1,106.6,106.3,103.7z M65.6,109.1
	c0.1-0.2,0-0.5-0.3-0.6c0,0-0.1,0-0.1,0l-2.2,0c-0.2,0-0.4,0.2-0.4,0.4c0,0.1,0,0.1,0,0.2l1,3.1c0.1,0.2,0.3,0.3,0.5,0.3
	c0.1,0,0.2-0.1,0.3-0.3L65.6,109.1z M63.1,112.7c-1.3-2.1-2.7-2.2-4.3-0.4c-1,1.2-1.1,2.5-0.2,3.8l5.1,7.7c0.1,0.2,0.3,0.2,0.5,0.1
	c0,0,0.1-0.1,0.1-0.1c1.4-2.3,2.9-4.6,4.4-6.8c2.5-3.7-1.2-8.5-3.7-4.5c-0.4,0.6-1.1,0.8-1.6,0.5C63.3,113,63.1,112.8,63.1,112.7z
	 M106.8,128c-2.2,6.9-17.6,11.6-12.2,19.3c4.4,6.2,18.6,4.2,15.7-5.1c-0.1-0.3-0.4-0.5-0.6-0.4c0,0,0,0,0,0l-2.1,0.7
	c-0.2,0.1-0.4,0.4-0.4,0.8c0.6,7.6-14.9,3.8-9-1.8c5.2-4.9,12.7-7.3,12.4-16.9c0-0.3-0.2-0.5-0.5-0.5l-16,0c-0.3,0-0.5,0.2-0.5,0.5
	l-0.1,5.5c0,0.3,0.2,0.6,0.5,0.7c2.5,1,3.5,0.2,3.1-2.5c0-0.3,0.1-0.5,0.4-0.5c0,0,0,0,0.1,0l9-0.1c0.2,0,0.4,0.2,0.4,0.4
	C106.8,128,106.8,128,106.8,128z"/>
<path class="st4" d="M30.9,39.9c-0.4-2.7,0.6-3.6,3.1-2.8c0.3,0.1,0.5,0.4,0.5,0.7l0,5.6c0,0.3-0.3,0.5-0.6,0.5l-15.9,0
	c-0.4,0-0.7-0.3-0.7-0.7c-0.2-7.5,4.5-10.6,9.9-14.6c9.8-7.4-2.6-10.4-6.1-6.2c-0.2,0.2-0.3,0.5-0.2,0.9c0.2,2-0.7,3-2.6,2.9
	c-0.3,0-0.6-0.2-0.6-0.5c-2.7-10,14-11.5,16.6-3.4c2.4,7.3-10.4,10.5-13,17.6c-0.1,0.2,0,0.4,0.2,0.5c0,0,0.1,0,0.1,0l8.9,0.1
	C30.7,40.5,30.9,40.3,30.9,39.9C30.9,40,30.9,40,30.9,39.9z"/>
<path class="st5" d="M13.8,19.2c0.2,42.7,0.3,85.3,0.2,128c0,1,1,2.9,3,5.7c-2.3-1.9-3.5-4-3.5-6.3C13.2,121.5,13.3,79,13.8,19.2z"
	/>
<path class="st4" d="M64.8,55.4c-0.4-1.1-0.9-1.1-1.6-0.2c-1.6,2.3-3.1,2.5-4.4,0.5c-1-1.5-1-3,0.1-4.6l4.7-7
	c0.1-0.1,0.3-0.2,0.5-0.1c0,0,0.1,0.1,0.1,0.1c2,2.9,8.2,9.7,3.7,12.6C67.7,57,67.4,57,67.1,57C65.9,56.9,65.2,56.3,64.8,55.4z"/>
<path class="st6" d="M114.5,46.5c0.4,9.2,0.4,18.5,0.1,27.8C114.1,65,114.1,55.8,114.5,46.5z"/>
<path class="st4" d="M25.3,61.3c-3.1,5.7-7.8-0.4-5-4.3c1.8-2.6,3.6-5.2,5.4-7.9c0.1-0.2,0.3-0.2,0.5-0.1c0,0,0.1,0.1,0.1,0.1
	c1.7,2.5,3.4,4.9,5,7.4c3.4,5.2-1.9,10.1-4.1,5.4C26.4,60.5,25.8,60.3,25.3,61.3z"/>
<path class="st4" d="M63.8,55.8c0.3-0.4,0.5-0.4,0.7,0.1l1,2.8c0.1,0.2,0,0.5-0.3,0.6c0,0,0,0,0,0C62,60.1,61.5,58.9,63.8,55.8z"/>
<path class="st4" d="M25.2,62.9c0.4-1.4,0.9-1.5,1.4-0.1l1.1,3c0.1,0.2,0,0.5-0.3,0.6c0,0,0,0-0.1,0c-0.9,0.2-1.8,0.2-2.6,0
	c-0.2-0.1-0.4-0.3-0.3-0.6c0,0,0,0,0,0L25.2,62.9z"/>
<path class="st4" d="M102.6,104.8c-0.3,0.9-0.6,0.9-0.9,0.1l-1.3-3.7c-0.1-0.2,0-0.5,0.3-0.6c0,0,0,0,0.1,0c1-0.2,2-0.2,3,0
	c0.2,0,0.3,0.3,0.2,0.5c0,0,0,0,0,0.1L102.6,104.8z"/>
<path class="st4" d="M106.3,103.7c5.8,2.9-1.7,11.1-4,14.2c-0.1,0.2-0.4,0.2-0.5,0.1c0,0-0.1,0-0.1-0.1c-2.5-3.5-8-9.2-5.4-13.4
	c0.2-0.3,0.4-0.5,0.7-0.6c1.9-0.7,3.4-0.1,4.3,1.8c0.1,0.3,0.4,0.4,0.7,0.3c0.9-0.3,1.5-0.7,1.7-1.3
	C104.2,103.4,105.1,103.1,106.3,103.7z"/>
<path class="st4" d="M65.6,109.1l-1.2,3c-0.1,0.2-0.3,0.3-0.6,0.2c-0.1,0-0.2-0.1-0.3-0.3l-1-3.1c-0.1-0.2,0-0.5,0.3-0.5
	c0,0,0.1,0,0.2,0l2.2,0c0.2,0,0.4,0.2,0.4,0.4C65.6,109,65.6,109.1,65.6,109.1z"/>
<path class="st4" d="M63.1,112.7c0.3,0.5,1,0.6,1.5,0.2c0.2-0.1,0.3-0.2,0.4-0.4c2.5-4,6.2,0.8,3.7,4.5c-1.5,2.2-3,4.5-4.4,6.8
	c-0.1,0.2-0.3,0.2-0.5,0.1c0,0-0.1-0.1-0.1-0.1l-5.1-7.7c-0.9-1.3-0.8-2.5,0.2-3.8C60.4,110.5,61.8,110.6,63.1,112.7z"/>
<path class="st1" d="M114.9,118.5L114.9,118.5c0.1,0,0.1,0.1,0.1,0.1v27.2c0,0.1-0.1,0.1-0.1,0.1h0c-0.1,0-0.1-0.1-0.1-0.1v-27.2
	C114.8,118.6,114.8,118.5,114.9,118.5z"/>
<path class="st4" d="M106.4,127.5l-9,0.1c-0.2,0-0.4,0.2-0.4,0.5c0,0,0,0,0,0.1c0.4,2.7-0.6,3.6-3.1,2.5c-0.3-0.1-0.5-0.4-0.5-0.7
	l0.1-5.5c0-0.3,0.2-0.5,0.5-0.5l16,0c0.3,0,0.5,0.2,0.5,0.5c0.3,9.6-7.2,12-12.4,16.9c-5.9,5.6,9.6,9.4,9,1.8c0-0.4,0.1-0.7,0.4-0.8
	l2.1-0.7c0.2-0.1,0.5,0.1,0.6,0.4c0,0,0,0,0,0c2.8,9.3-11.4,11.3-15.7,5.1c-5.4-7.7,10-12.4,12.2-19.3c0.1-0.2,0-0.4-0.2-0.5
	C106.5,127.5,106.5,127.5,106.4,127.5z"/>
<g>
	<path class="st7" d="M107.9,162.1H20.1c-6.9,0-12.4-5.6-12.4-12.4V19.1c0-6.9,5.6-12.4,12.4-12.4h87.8c6.9,0,12.4,5.6,12.4,12.4
		v130.5C120.3,156.5,114.8,162.1,107.9,162.1z"/>
	<path class="st8" d="M106.9,158.2H21.1c-5.5,0-9.9-4.4-9.9-9.9V20.2c0-5.5,4.4-9.9,9.9-9.9h85.8c5.5,0,9.9,4.4,9.9,9.9v128.1
		C116.8,153.8,112.4,158.2,106.9,158.2z"/>
	<path class="st3" d="M106.6,155.2H21.4c-4.4,0-8-3.6-8-8V21.3c0-4.4,3.6-8,8-8h85.2c4.4,0,8,3.6,8,8v125.9
		C114.6,151.6,111,155.2,106.6,155.2z"/>
</g>
</svg>
