<?xml version="1.0" encoding="UTF-8" standalone="no"?>
<svg xmlns="http://www.w3.org/2000/svg" version="1.2" baseProfile="tiny" viewBox="0 0 128 168">
<g stroke-width="0.00" fill="none" stroke-linecap="butt">
<path stroke="#d7d7d7" stroke-opacity="0.596" vector-effect="non-scaling-stroke" d="
  M 17.00 152.96
  Q 19.67 155.18 22.06 155.19
  Q 54.03 155.26 86.00 155.29"
/>
<path stroke="#262017" stroke-opacity="0.596" vector-effect="non-scaling-stroke" d="
  M 86.00 155.29
  Q 87.20 156.28 88.75 155.54"
/>
<path stroke="#d7d7d7" stroke-opacity="0.596" vector-effect="non-scaling-stroke" d="
  M 88.75 155.54
  C 101.46 155.65 114.51 158.50 114.51 143.11
  Q 114.50 83.53 114.50 23.95
  C 114.49 15.21 110.18 12.75 101.73 12.75
  Q 62.36 12.75 23.00 12.75
  Q 16.97 12.75 14.46 18.50"
/>
<path stroke="#96938d" vector-effect="non-scaling-stroke" d="
  M 88.75 155.54
  L 86.00 155.29"
/>
<path stroke="#f9fafa" stroke-opacity="0.988" vector-effect="non-scaling-stroke" d="
  M 17.00 152.96
  Q 14.00 149.05 14.00 146.75
  Q 14.00 84.29 14.00 21.85
  C 14.00 20.73 14.55 19.73 14.46 18.50"
/>
<path stroke="#96938d" vector-effect="non-scaling-stroke" d="
  M 22.81 20.80
  L 31.19 20.73
  A 0.54 0.50 0.0 0 0 31.73 20.23
  L 31.72 17.78
  A 0.53 0.51 0.0 0 0 31.19 17.27
  L 19.29 17.28
  A 0.51 0.50 -0.0 0 0 18.78 17.78
  L 18.75 27.01
  A 1.37 1.13 -69.6 0 0 19.06 27.90
  Q 19.77 28.70 20.82 29.14
  A 0.75 0.69 -55.4 0 0 21.62 28.96
  C 28.17 22.31 34.50 33.46 29.14 39.19
  C 26.20 42.33 22.34 41.05 20.59 37.55
  A 0.86 0.76 74.8 0 0 19.88 37.08
  Q 18.48 37.09 17.52 38.05
  A 0.74 0.67 54.5 0 0 17.42 38.88
  C 24.80 52.58 40.92 38.46 32.15 26.91
  C 29.85 23.89 26.57 22.80 23.01 24.00
  A 0.47 0.39 -12.6 0 1 22.40 23.69
  L 22.24 21.30
  A 0.57 0.46 -2.4 0 1 22.81 20.80"
/>
<path stroke="#96938d" vector-effect="non-scaling-stroke" d="
  M 48.75 55.45
  Q 51.81 59.08 53.58 54.80
  Q 54.28 53.12 53.22 51.55
  L 48.25 44.18
  A 0.32 0.32 44.6 0 0 47.72 44.18
  C 45.83 47.09 38.96 54.37 44.52 56.94
  A 1.02 0.62 -40.8 0 0 45.35 56.80
  L 47.97 55.23
  A 0.70 0.53 52.9 0 1 48.75 55.45"
/>
<path stroke="#96938d" vector-effect="non-scaling-stroke" d="
  M 80.83 55.45
  Q 81.33 56.78 83.05 57.01
  A 1.42 1.38 -57.5 0 0 83.98 56.79
  C 88.49 53.84 82.20 47.11 80.24 44.18
  A 0.34 0.33 -45.2 0 0 79.69 44.19
  L 74.97 51.15
  Q 73.33 53.56 74.90 55.81
  Q 76.88 58.66 79.27 55.25
  Q 80.24 53.86 80.83 55.45"
/>
<path stroke="#96938d" vector-effect="non-scaling-stroke" d="
  M 32.37 60.86
  Q 32.89 58.95 31.83 57.40
  L 26.22 49.20
  A 0.36 0.34 -44.8 0 0 25.64 49.21
  C 23.76 51.94 14.82 62.12 22.68 63.58
  A 1.06 0.98 26.9 0 0 23.56 63.33
  L 25.38 61.57
  A 0.95 0.69 -53.8 0 1 26.20 61.31
  Q 27.00 61.56 27.34 62.28
  A 1.71 0.81 77.6 0 0 27.92 63.03
  Q 31.23 65.02 32.37 60.86"
/>
<path stroke="#96938d" vector-effect="non-scaling-stroke" d="
  M 47.70 55.92
  L 46.46 58.75
  A 0.47 0.46 18.5 0 0 46.79 59.39
  Q 47.75 59.63 49.24 59.28
  A 0.41 0.37 73.6 0 0 49.50 58.75
  L 48.52 56.05
  Q 48.13 54.94 47.70 55.92"
/>
<path stroke="#96938d" vector-effect="non-scaling-stroke" d="
  M 79.70 55.92
  L 78.46 58.75
  A 0.47 0.46 18.5 0 0 78.79 59.39
  Q 79.75 59.63 81.24 59.28
  A 0.41 0.37 73.6 0 0 81.50 58.75
  L 80.52 56.05
  Q 80.13 54.94 79.70 55.92"
/>
<path stroke="#96938d" vector-effect="non-scaling-stroke" d="
  M 25.19 62.92
  L 24.35 65.82
  A 0.49 0.46 -76.2 0 0 24.69 66.42
  Q 25.97 66.69 27.32 66.41
  A 0.45 0.44 -16.3 0 0 27.65 65.82
  L 26.56 62.82
  Q 25.82 60.77 25.19 62.92"
/>
<path stroke="#96938d" vector-effect="non-scaling-stroke" d="
  M 63.46 87.23
  Q 65.67 90.39 67.87 88.03
  Q 69.81 85.96 68.20 83.57
  L 63.25 76.18
  A 0.33 0.32 44.3 0 0 62.71 76.18
  C 60.74 79.29 54.29 85.81 59.27 88.89
  A 0.82 0.78 43.5 0 0 60.14 88.89
  L 62.79 87.11
  A 0.49 0.48 -34.4 0 1 63.46 87.23"
/>
<path stroke="#96938d" vector-effect="non-scaling-stroke" d="
  M 62.66 88.22
  Q 59.76 92.62 64.02 91.38
  A 0.53 0.48 -17.9 0 0 64.39 90.74
  L 63.47 88.25
  Q 63.18 87.44 62.66 88.22"
/>
<path stroke="#96938d" vector-effect="non-scaling-stroke" d="
  M 102.56 104.83
  L 103.94 101.19
  A 0.43 0.37 -71.9 0 0 103.71 100.63
  Q 102.24 100.27 100.68 100.59
  A 0.47 0.46 -15.5 0 0 100.33 101.19
  L 101.65 104.92
  Q 102.07 106.10 102.56 104.83"
/>
<path stroke="#96938d" vector-effect="non-scaling-stroke" d="
  M 107.18 110.77
  C 111.12 104.79 104.55 100.89 102.76 105.47
  Q 102.09 107.20 101.22 105.56
  C 99.72 102.71 96.64 102.71 95.63 105.84
  C 94.56 109.12 99.91 115.24 101.72 118.07
  A 0.33 0.33 -44.7 0 0 102.27 118.07
  Q 104.77 114.43 107.18 110.77"
/>
<path stroke="#96938d" vector-effect="non-scaling-stroke" d="
  M 49.58 109.11
  A 0.43 0.43 11.1 0 0 49.18 108.52
  L 46.97 108.48
  A 0.43 0.43 81.5 0 0 46.56 109.05
  L 47.61 112.14
  A 0.43 0.43 -43.8 0 0 48.42 112.15
  L 49.58 109.11"
/>
<path stroke="#96938d" vector-effect="non-scaling-stroke" d="
  M 80.55 111.83
  Q 83.40 107.39 78.85 108.65
  A 0.46 0.45 72.3 0 0 78.55 109.25
  L 79.43 111.66
  Q 79.87 112.89 80.55 111.83"
/>
<path stroke="#96938d" vector-effect="non-scaling-stroke" d="
  M 47.07 112.70
  Q 46.44 111.27 44.98 111.01
  A 1.28 1.21 -55.6 0 0 44.06 111.21
  C 39.52 114.32 45.75 120.74 47.72 123.81
  A 0.33 0.33 45.9 0 0 48.27 123.82
  C 50.24 120.87 56.69 114.02 51.72 111.16
  A 0.88 0.75 40.8 0 0 50.83 111.15
  L 48.28 112.95
  A 0.84 0.75 -30.1 0 1 47.07 112.70"
/>
<path stroke="#96938d" vector-effect="non-scaling-stroke" d="
  M 79.07 112.70
  Q 78.44 111.27 76.98 111.01
  A 1.28 1.21 -55.6 0 0 76.06 111.21
  C 71.52 114.33 77.75 120.74 79.72 123.81
  A 0.33 0.33 45.9 0 0 80.27 123.82
  C 82.23 120.96 88.74 113.87 83.71 111.16
  A 0.95 0.73 38.2 0 0 82.81 111.15
  L 80.29 112.93
  A 0.86 0.74 -30.0 0 1 79.07 112.70"
/>
<path stroke="#96938d" vector-effect="non-scaling-stroke" d="
  M 105.73 144.30
  L 105.73 146.73
  A 0.54 0.50 -0.0 0 1 105.19 147.23
  L 97.03 147.26
  A 0.73 0.69 7.8 0 0 96.36 147.74
  Q 95.99 148.98 96.38 150.26
  A 0.68 0.66 -8.0 0 0 97.03 150.73
  L 108.71 150.72
  A 0.52 0.51 -89.4 0 0 109.22 150.21
  C 109.26 147.47 110.49 139.81 107.07 138.90
  A 0.94 0.82 -58.1 0 0 106.23 139.16
  Q 103.36 142.00 100.41 140.53
  C 91.53 136.11 100.70 119.60 107.64 130.68
  A 0.74 0.67 66.6 0 0 108.39 131.02
  Q 109.60 130.75 110.41 129.97
  A 0.74 0.70 55.4 0 0 110.54 129.15
  C 107.87 123.65 101.65 121.49 96.88 125.90
  C 89.72 132.52 94.26 147.17 105.21 143.96
  A 0.41 0.37 -8.9 0 1 105.73 144.30"
/>
</g>
<path fill="#010001" fill-opacity="0.098" d="
  M 112.31 9.62
  Q 113.85 9.52 115.08 11.16
  Q 117.62 14.53 119.08 17.70
  Q 120.41 20.55 120.59 25.05
  C 121.04 36.20 120.38 47.40 120.98 58.50
  Q 121.31 64.56 121.21 68.00
  C 120.69 85.64 121.58 103.41 120.52 121.00
  Q 120.46 121.86 121.01 123.06
  A 1.31 1.23 43.1 0 1 121.07 123.98
  Q 120.09 127.02 120.18 128.75
  Q 120.74 139.13 120.34 149.51
  A 1.07 0.80 -20.2 0 1 119.87 150.24
  Q 119.06 150.77 119.20 151.78
  A 1.39 0.54 74.8 0 1 119.10 152.72
  L 118.57 153.52
  A 1.11 0.85 62.9 0 0 118.44 154.25
  Q 118.49 154.60 117.95 154.43
  A 0.57 0.53 21.3 0 0 117.31 154.68
  Q 116.17 156.76 113.93 157.53
  A 0.76 0.70 83.7 0 0 113.46 158.17
  Q 113.41 158.83 113.02 159.30
  A 1.55 0.56 -6.3 0 1 112.17 159.72
  Q 111.12 159.98 110.47 160.87
  A 1.07 0.90 -70.5 0 1 109.72 161.31
  C 105.89 161.46 102.17 162.01 98.42 161.87
  C 88.09 161.49 79.89 162.35 71.25 161.98
  Q 70.79 161.96 70.30 162.16
  Q 68.56 162.87 66.95 162.08
  Q 66.45 161.84 66.01 161.85
  Q 45.28 162.32 24.56 161.69
  A 0.93 0.41 63.9 0 1 23.98 161.20
  C 23.76 160.83 19.51 161.11 18.69 161.02
  A 0.62 0.56 -88.5 0 1 18.20 160.45
  Q 18.05 157.90 15.04 158.74
  A 0.56 0.56 70.8 0 1 14.38 158.42
  Q 13.59 156.54 11.80 155.62
  Q 11.31 155.37 11.05 155.00
  Q 9.09 152.27 8.06 149.00
  Q 7.00 145.63 7.00 144.50
  Q 7.00 105.63 7.00 66.76
  Q 7.00 64.80 7.46 59.77
  C 7.80 56.11 7.43 52.58 7.62 48.65
  C 7.72 46.67 7.01 44.87 7.01 43.09
  C 7.01 36.39 6.28 28.49 7.42 21.94
  Q 8.20 17.48 8.97 16.48
  C 12.01 12.50 13.56 9.26 18.66 7.59
  A 0.80 0.43 -76.8 0 0 19.03 7.17
  L 19.09 7.02
  A 0.33 0.26 4.9 0 1 19.35 6.85
  C 22.27 6.53 25.07 5.76 27.92 5.75
  Q 66.58 5.74 105.24 5.76
  A 1.69 1.14 54.3 0 1 106.13 6.09
  C 107.92 7.37 111.50 6.44 111.79 9.18
  A 0.50 0.49 -4.3 0 0 112.31 9.62
  Z
  M 32.04 9.71
  L 31.93 9.46
  A 0.51 0.27 -3.4 0 0 31.50 9.26
  Q 29.01 9.16 26.51 9.39
  C 24.88 9.54 23.54 10.56 21.50 10.31
  A 1.97 1.23 25.4 0 0 20.54 10.42
  Q 18.59 11.31 14.05 14.28
  Q 12.01 15.62 12.61 17.35
  A 0.28 0.26 77.1 0 1 12.40 17.72
  L 12.03 17.76
  A 0.56 0.55 -2.3 0 0 11.53 18.30
  C 11.52 20.74 10.75 22.99 10.75 25.25
  Q 10.75 83.24 10.74 141.22
  C 10.74 143.88 11.91 146.33 11.75 149.27
  A 1.80 1.47 -63.3 0 0 11.96 150.21
  Q 14.81 155.01 19.65 157.30
  Q 22.37 158.59 27.08 158.62
  Q 63.57 158.82 100.06 158.82
  Q 104.33 158.82 107.89 156.53
  A 1.43 1.01 25.8 0 1 108.78 156.38
  Q 109.77 156.55 110.32 155.69
  A 1.42 0.97 -73.1 0 1 111.03 155.12
  L 112.40 154.75
  Q 113.92 154.35 115.21 151.52
  C 116.60 148.48 117.50 146.17 117.50 142.69
  Q 117.50 85.34 117.50 27.99
  C 117.51 24.26 116.45 20.90 115.78 17.22
  Q 115.62 16.30 113.77 14.48
  Q 109.61 10.38 103.75 10.51
  A 1.02 0.70 65.5 0 1 103.03 10.08
  Q 102.70 9.63 102.18 10.06
  A 0.08 0.07 65.3 0 1 102.06 10.00
  L 102.02 9.82
  A 0.61 0.35 -2.1 0 0 101.46 9.53
  Q 67.22 9.44 32.98 9.57
  C 32.81 9.57 32.51 9.73 32.39 9.83
  A 0.25 0.21 59.6 0 1 32.04 9.71
  Z"
/>
<path fill="#020303" fill-opacity="0.188" d="
  M 32.39 9.83
  C 32.51 9.73 32.81 9.57 32.98 9.57
  Q 67.22 9.44 101.46 9.53
  A 0.61 0.35 -2.1 0 1 102.02 9.82
  L 102.06 10.00
  A 0.08 0.07 65.3 0 0 102.18 10.06
  Q 102.70 9.63 103.03 10.08
  A 1.02 0.70 65.5 0 0 103.75 10.51
  Q 109.61 10.38 113.77 14.48
  Q 115.62 16.30 115.78 17.22
  C 116.45 20.90 117.51 24.26 117.50 27.99
  Q 117.50 85.34 117.50 142.69
  C 117.50 146.17 116.60 148.48 115.21 151.52
  Q 113.92 154.35 112.40 154.75
  L 111.03 155.12
  A 1.42 0.97 -73.1 0 0 110.32 155.69
  Q 109.77 156.55 108.78 156.38
  A 1.43 1.01 25.8 0 0 107.89 156.53
  Q 104.33 158.82 100.06 158.82
  Q 63.57 158.82 27.08 158.62
  Q 22.37 158.59 19.65 157.30
  Q 14.81 155.01 11.96 150.21
  A 1.80 1.47 -63.3 0 1 11.75 149.27
  C 11.91 146.33 10.74 143.88 10.74 141.22
  Q 10.75 83.24 10.75 25.25
  C 10.75 22.99 11.52 20.74 11.53 18.30
  A 0.56 0.55 -2.3 0 1 12.03 17.76
  L 12.40 17.72
  A 0.28 0.26 77.1 0 0 12.61 17.35
  Q 12.01 15.62 14.05 14.28
  Q 18.59 11.31 20.54 10.42
  A 1.97 1.23 25.4 0 1 21.50 10.31
  C 23.54 10.56 24.88 9.54 26.51 9.39
  Q 29.01 9.16 31.50 9.26
  A 0.51 0.27 -3.4 0 1 31.93 9.46
  L 32.04 9.71
  A 0.25 0.21 59.6 0 0 32.39 9.83
  Z
  M 14.46 18.50
  Q 13.51 20.55 13.51 21.75
  Q 13.48 84.22 13.52 146.69
  Q 13.52 149.92 17.00 152.96
  Q 19.67 155.18 22.06 155.19
  Q 54.03 155.26 86.00 155.29
  Q 87.20 156.28 88.75 155.54
  C 101.46 155.65 114.51 158.50 114.51 143.11
  Q 114.50 83.53 114.50 23.95
  C 114.49 15.21 110.18 12.75 101.73 12.75
  Q 62.36 12.75 23.00 12.75
  Q 16.97 12.75 14.46 18.50
  Z
  M 114.81 117.79
  Q 114.81 138.94 115.00 118.08
  C 115.00 117.92 115.01 118.02 114.91 117.78
  Q 114.81 117.56 114.81 117.79
  Z"
/>
<path fill="#ffffff" d="
  M 88.75 155.54
  L 86.00 155.29
  Q 54.03 155.26 22.06 155.19
  Q 19.67 155.18 17.00 152.96
  Q 14.00 149.05 14.00 146.75
  Q 14.00 84.29 14.00 21.85
  C 14.00 20.73 14.55 19.73 14.46 18.50
  Q 16.97 12.75 23.00 12.75
  Q 62.36 12.75 101.73 12.75
  C 110.18 12.75 114.49 15.21 114.50 23.95
  Q 114.50 83.53 114.51 143.11
  C 114.51 158.50 101.46 155.65 88.75 155.54
  Z
  M 22.81 20.80
  L 31.19 20.73
  A 0.54 0.50 0.0 0 0 31.73 20.23
  L 31.72 17.78
  A 0.53 0.51 0.0 0 0 31.19 17.27
  L 19.29 17.28
  A 0.51 0.50 -0.0 0 0 18.78 17.78
  L 18.75 27.01
  A 1.37 1.13 -69.6 0 0 19.06 27.90
  Q 19.77 28.70 20.82 29.14
  A 0.75 0.69 -55.4 0 0 21.62 28.96
  C 28.17 22.31 34.50 33.46 29.14 39.19
  C 26.20 42.33 22.34 41.05 20.59 37.55
  A 0.86 0.76 74.8 0 0 19.88 37.08
  Q 18.48 37.09 17.52 38.05
  A 0.74 0.67 54.5 0 0 17.42 38.88
  C 24.80 52.58 40.92 38.46 32.15 26.91
  C 29.85 23.89 26.57 22.80 23.01 24.00
  A 0.47 0.39 -12.6 0 1 22.40 23.69
  L 22.24 21.30
  A 0.57 0.46 -2.4 0 1 22.81 20.80
  Z
  M 48.75 55.45
  Q 51.81 59.08 53.58 54.80
  Q 54.28 53.12 53.22 51.55
  L 48.25 44.18
  A 0.32 0.32 44.6 0 0 47.72 44.18
  C 45.83 47.09 38.96 54.37 44.52 56.94
  A 1.02 0.62 -40.8 0 0 45.35 56.80
  L 47.97 55.23
  A 0.70 0.53 52.9 0 1 48.75 55.45
  Z
  M 80.83 55.45
  Q 81.33 56.78 83.05 57.01
  A 1.42 1.38 -57.5 0 0 83.98 56.79
  C 88.49 53.84 82.20 47.11 80.24 44.18
  A 0.34 0.33 -45.2 0 0 79.69 44.19
  L 74.97 51.15
  Q 73.33 53.56 74.90 55.81
  Q 76.88 58.66 79.27 55.25
  Q 80.24 53.86 80.83 55.45
  Z
  M 32.37 60.86
  Q 32.89 58.95 31.83 57.40
  L 26.22 49.20
  A 0.36 0.34 -44.8 0 0 25.64 49.21
  C 23.76 51.94 14.82 62.12 22.68 63.58
  A 1.06 0.98 26.9 0 0 23.56 63.33
  L 25.38 61.57
  A 0.95 0.69 -53.8 0 1 26.20 61.31
  Q 27.00 61.56 27.34 62.28
  A 1.71 0.81 77.6 0 0 27.92 63.03
  Q 31.23 65.02 32.37 60.86
  Z
  M 47.70 55.92
  L 46.46 58.75
  A 0.47 0.46 18.5 0 0 46.79 59.39
  Q 47.75 59.63 49.24 59.28
  A 0.41 0.37 73.6 0 0 49.50 58.75
  L 48.52 56.05
  Q 48.13 54.94 47.70 55.92
  Z
  M 79.70 55.92
  L 78.46 58.75
  A 0.47 0.46 18.5 0 0 78.79 59.39
  Q 79.75 59.63 81.24 59.28
  A 0.41 0.37 73.6 0 0 81.50 58.75
  L 80.52 56.05
  Q 80.13 54.94 79.70 55.92
  Z
  M 25.19 62.92
  L 24.35 65.82
  A 0.49 0.46 -76.2 0 0 24.69 66.42
  Q 25.97 66.69 27.32 66.41
  A 0.45 0.44 -16.3 0 0 27.65 65.82
  L 26.56 62.82
  Q 25.82 60.77 25.19 62.92
  Z
  M 63.46 87.23
  Q 65.67 90.39 67.87 88.03
  Q 69.81 85.96 68.20 83.57
  L 63.25 76.18
  A 0.33 0.32 44.3 0 0 62.71 76.18
  C 60.74 79.29 54.29 85.81 59.27 88.89
  A 0.82 0.78 43.5 0 0 60.14 88.89
  L 62.79 87.11
  A 0.49 0.48 -34.4 0 1 63.46 87.23
  Z
  M 62.66 88.22
  Q 59.76 92.62 64.02 91.38
  A 0.53 0.48 -17.9 0 0 64.39 90.74
  L 63.47 88.25
  Q 63.18 87.44 62.66 88.22
  Z
  M 102.56 104.83
  L 103.94 101.19
  A 0.43 0.37 -71.9 0 0 103.71 100.63
  Q 102.24 100.27 100.68 100.59
  A 0.47 0.46 -15.5 0 0 100.33 101.19
  L 101.65 104.92
  Q 102.07 106.10 102.56 104.83
  Z
  M 107.18 110.77
  C 111.12 104.79 104.55 100.89 102.76 105.47
  Q 102.09 107.20 101.22 105.56
  C 99.72 102.71 96.64 102.71 95.63 105.84
  C 94.56 109.12 99.91 115.24 101.72 118.07
  A 0.33 0.33 -44.7 0 0 102.27 118.07
  Q 104.77 114.43 107.18 110.77
  Z
  M 49.58 109.11
  A 0.43 0.43 11.1 0 0 49.18 108.52
  L 46.97 108.48
  A 0.43 0.43 81.5 0 0 46.56 109.05
  L 47.61 112.14
  A 0.43 0.43 -43.8 0 0 48.42 112.15
  L 49.58 109.11
  Z
  M 80.55 111.83
  Q 83.40 107.39 78.85 108.65
  A 0.46 0.45 72.3 0 0 78.55 109.25
  L 79.43 111.66
  Q 79.87 112.89 80.55 111.83
  Z
  M 47.07 112.70
  Q 46.44 111.27 44.98 111.01
  A 1.28 1.21 -55.6 0 0 44.06 111.21
  C 39.52 114.32 45.75 120.74 47.72 123.81
  A 0.33 0.33 45.9 0 0 48.27 123.82
  C 50.24 120.87 56.69 114.02 51.72 111.16
  A 0.88 0.75 40.8 0 0 50.83 111.15
  L 48.28 112.95
  A 0.84 0.75 -30.1 0 1 47.07 112.70
  Z
  M 79.07 112.70
  Q 78.44 111.27 76.98 111.01
  A 1.28 1.21 -55.6 0 0 76.06 111.21
  C 71.52 114.33 77.75 120.74 79.72 123.81
  A 0.33 0.33 45.9 0 0 80.27 123.82
  C 82.23 120.96 88.74 113.87 83.71 111.16
  A 0.95 0.73 38.2 0 0 82.81 111.15
  L 80.29 112.93
  A 0.86 0.74 -30.0 0 1 79.07 112.70
  Z
  M 105.73 144.30
  L 105.73 146.73
  A 0.54 0.50 -0.0 0 1 105.19 147.23
  L 97.03 147.26
  A 0.73 0.69 7.8 0 0 96.36 147.74
  Q 95.99 148.98 96.38 150.26
  A 0.68 0.66 -8.0 0 0 97.03 150.73
  L 108.71 150.72
  A 0.52 0.51 -89.4 0 0 109.22 150.21
  C 109.26 147.47 110.49 139.81 107.07 138.90
  A 0.94 0.82 -58.1 0 0 106.23 139.16
  Q 103.36 142.00 100.41 140.53
  C 91.53 136.11 100.70 119.60 107.64 130.68
  A 0.74 0.67 66.6 0 0 108.39 131.02
  Q 109.60 130.75 110.41 129.97
  A 0.74 0.70 55.4 0 0 110.54 129.15
  C 107.87 123.65 101.65 121.49 96.88 125.90
  C 89.72 132.52 94.26 147.17 105.21 143.96
  A 0.41 0.37 -8.9 0 1 105.73 144.30
  Z"
/>
<path fill="#2d261b" d="
  M 22.24 21.30
  L 22.40 23.69
  A 0.47 0.39 -12.6 0 0 23.01 24.00
  C 26.57 22.80 29.85 23.89 32.15 26.91
  C 40.92 38.46 24.80 52.58 17.42 38.88
  A 0.74 0.67 54.5 0 1 17.52 38.05
  Q 18.48 37.09 19.88 37.08
  A 0.86 0.76 74.8 0 1 20.59 37.55
  C 22.34 41.05 26.20 42.33 29.14 39.19
  C 34.50 33.46 28.17 22.31 21.62 28.96
  A 0.75 0.69 -55.4 0 1 20.82 29.14
  Q 19.77 28.70 19.06 27.90
  A 1.37 1.13 -69.6 0 1 18.75 27.01
  L 18.78 17.78
  A 0.51 0.50 -0.0 0 1 19.29 17.28
  L 31.19 17.27
  A 0.53 0.51 -0.0 0 1 31.72 17.78
  L 31.73 20.23
  A 0.54 0.50 0.0 0 1 31.19 20.73
  L 22.81 20.80
  A 0.57 0.46 -2.4 0 0 22.24 21.30
  Z"
/>
<path fill="#f2f4f5" fill-opacity="0.973" d="
  M 14.46 18.50
  C 14.55 19.73 14.00 20.73 14.00 21.85
  Q 14.00 84.29 14.00 146.75
  Q 14.00 149.05 17.00 152.96
  Q 13.52 149.92 13.52 146.69
  Q 13.48 84.22 13.51 21.75
  Q 13.51 20.55 14.46 18.50
  Z"
/>
<path fill="#2d261b" d="
  M 47.97 55.23
  L 45.35 56.80
  A 1.02 0.62 -40.8 0 1 44.52 56.94
  C 38.96 54.37 45.83 47.09 47.72 44.18
  A 0.32 0.32 44.6 0 1 48.25 44.18
  L 53.22 51.55
  Q 54.28 53.12 53.58 54.80
  Q 51.81 59.08 48.75 55.45
  A 0.70 0.53 52.9 0 0 47.97 55.23
  Z"
/>
<path fill="#2d261b" d="
  M 80.83 55.45
  Q 80.24 53.86 79.27 55.25
  Q 76.88 58.66 74.90 55.81
  Q 73.33 53.56 74.97 51.15
  L 79.69 44.19
  A 0.34 0.33 -45.2 0 1 80.24 44.18
  C 82.20 47.11 88.49 53.84 83.98 56.79
  A 1.42 1.38 -57.5 0 1 83.05 57.01
  Q 81.33 56.78 80.83 55.45
  Z"
/>
<path fill="#2d261b" d="
  M 32.37 60.86
  Q 31.23 65.02 27.92 63.03
  A 1.71 0.81 77.6 0 1 27.34 62.28
  Q 27.00 61.56 26.20 61.31
  A 0.95 0.69 -53.8 0 0 25.38 61.57
  L 23.56 63.33
  A 1.06 0.98 26.9 0 1 22.68 63.58
  C 14.82 62.12 23.76 51.94 25.64 49.21
  A 0.36 0.34 -44.8 0 1 26.22 49.20
  L 31.83 57.40
  Q 32.89 58.95 32.37 60.86
  Z"
/>
<path fill="#2d261b" d="
  M 47.70 55.92
  Q 48.13 54.94 48.52 56.05
  L 49.50 58.75
  A 0.41 0.37 73.6 0 1 49.24 59.28
  Q 47.75 59.63 46.79 59.39
  A 0.47 0.46 18.5 0 1 46.46 58.75
  L 47.70 55.92
  Z"
/>
<path fill="#2d261b" d="
  M 79.70 55.92
  Q 80.13 54.94 80.52 56.05
  L 81.50 58.75
  A 0.41 0.37 73.6 0 1 81.24 59.28
  Q 79.75 59.63 78.79 59.39
  A 0.47 0.46 18.5 0 1 78.46 58.75
  L 79.70 55.92
  Z"
/>
<path fill="#2d261b" d="
  M 25.19 62.92
  Q 25.82 60.77 26.56 62.82
  L 27.65 65.82
  A 0.45 0.44 -16.3 0 1 27.32 66.41
  Q 25.97 66.69 24.69 66.42
  A 0.49 0.46 -76.2 0 1 24.35 65.82
  L 25.19 62.92
  Z"
/>
<path fill="#2d261b" d="
  M 62.79 87.11
  L 60.14 88.89
  A 0.82 0.78 43.5 0 1 59.27 88.89
  C 54.29 85.81 60.74 79.29 62.71 76.18
  A 0.33 0.32 44.3 0 1 63.25 76.18
  L 68.20 83.57
  Q 69.81 85.96 67.87 88.03
  Q 65.67 90.39 63.46 87.23
  A 0.49 0.48 -34.4 0 0 62.79 87.11
  Z"
/>
<path fill="#2d261b" d="
  M 62.66 88.22
  Q 63.18 87.44 63.47 88.25
  L 64.39 90.74
  A 0.53 0.48 -17.9 0 1 64.02 91.38
  Q 59.76 92.62 62.66 88.22
  Z"
/>
<path fill="#2d261b" d="
  M 102.56 104.83
  Q 102.07 106.10 101.65 104.92
  L 100.33 101.19
  A 0.47 0.46 -15.5 0 1 100.68 100.59
  Q 102.24 100.27 103.71 100.63
  A 0.43 0.37 -71.9 0 1 103.94 101.19
  L 102.56 104.83
  Z"
/>
<path fill="#2d261b" d="
  M 102.76 105.47
  C 104.55 100.89 111.12 104.79 107.18 110.77
  Q 104.77 114.43 102.27 118.07
  A 0.33 0.33 -44.7 0 1 101.72 118.07
  C 99.91 115.24 94.56 109.12 95.63 105.84
  C 96.64 102.71 99.72 102.71 101.22 105.56
  Q 102.09 107.20 102.76 105.47
  Z"
/>
<path fill="#2d261b" d="
  M 49.58 109.11
  L 48.42 112.15
  A 0.43 0.43 -44.9 0 1 47.61 112.14
  L 46.56 109.05
  A 0.43 0.43 79.5 0 1 46.97 108.48
  L 49.18 108.52
  A 0.43 0.43 9.9 0 1 49.58 109.11
  Z"
/>
<path fill="#2d261b" d="
  M 80.55 111.83
  Q 79.87 112.89 79.43 111.66
  L 78.55 109.25
  A 0.46 0.45 72.3 0 1 78.85 108.65
  Q 83.40 107.39 80.55 111.83
  Z"
/>
<path fill="#2d261b" d="
  M 47.07 112.70
  A 0.84 0.75 -30.1 0 0 48.28 112.95
  L 50.83 111.15
  A 0.88 0.75 40.8 0 1 51.72 111.16
  C 56.69 114.02 50.24 120.87 48.27 123.82
  A 0.33 0.33 45.9 0 1 47.72 123.81
  C 45.75 120.74 39.52 114.32 44.06 111.21
  A 1.28 1.21 -55.6 0 1 44.98 111.01
  Q 46.44 111.27 47.07 112.70
  Z"
/>
<path fill="#2d261b" d="
  M 79.07 112.70
  A 0.86 0.74 -30.0 0 0 80.29 112.93
  L 82.81 111.15
  A 0.95 0.73 38.2 0 1 83.71 111.16
  C 88.74 113.87 82.23 120.96 80.27 123.82
  A 0.33 0.33 45.9 0 1 79.72 123.81
  C 77.75 120.74 71.52 114.33 76.06 111.21
  A 1.28 1.21 -55.6 0 1 76.98 111.01
  Q 78.44 111.27 79.07 112.70
  Z"
/>
<path fill="#2d261b" d="
  M 105.21 143.96
  C 94.26 147.17 89.72 132.52 96.88 125.90
  C 101.65 121.49 107.87 123.65 110.54 129.15
  A 0.74 0.70 55.4 0 1 110.41 129.97
  Q 109.60 130.75 108.39 131.02
  A 0.74 0.67 66.6 0 1 107.64 130.68
  C 100.70 119.60 91.53 136.11 100.41 140.53
  Q 103.36 142.00 106.23 139.16
  A 0.94 0.82 -58.1 0 1 107.07 138.90
  C 110.49 139.81 109.26 147.47 109.22 150.21
  A 0.52 0.51 -89.4 0 1 108.71 150.72
  L 97.03 150.73
  A 0.68 0.66 -8.0 0 1 96.38 150.26
  Q 95.99 148.98 96.36 147.74
  A 0.73 0.69 7.8 0 1 97.03 147.26
  L 105.19 147.23
  A 0.54 0.50 0.0 0 0 105.73 146.73
  L 105.73 144.30
  A 0.41 0.37 -8.9 0 0 105.21 143.96
  Z"
/>
<path fill="#2d261b" d="
  M 86.00 155.29
  L 88.75 155.54
  Q 87.20 156.28 86.00 155.29
  Z"
/>
</svg>
