<?xml version="1.0" encoding="UTF-8" standalone="no"?>
<svg xmlns="http://www.w3.org/2000/svg" version="1.2" baseProfile="tiny" viewBox="0 0 128 168">
<g stroke-width="0.00" fill="none" stroke-linecap="butt">
<path stroke="#d8d8d8" stroke-opacity="0.592" vector-effect="non-scaling-stroke" d="
  M 13.76 147.50
  C 15.32 153.88 19.49 155.18 25.84 155.20
  Q 62.96 155.26 99.94 155.30"
/>
<path stroke="#262117" stroke-opacity="0.592" vector-effect="non-scaling-stroke" d="
  M 99.94 155.30
  Q 102.11 156.45 104.25 155.29"
/>
<path stroke="#d8d8d8" stroke-opacity="0.592" vector-effect="non-scaling-stroke" d="
  M 104.25 155.29
  C 112.83 155.11 114.50 149.76 114.50 141.99
  Q 114.50 82.97 114.49 23.96
  C 114.49 15.20 110.19 12.76 101.73 12.75
  Q 61.78 12.74 21.81 12.76
  Q 20.11 12.76 17.25 14.79"
/>
<path stroke="#96938d" vector-effect="non-scaling-stroke" d="
  M 104.25 155.29
  L 99.94 155.30"
/>
<path stroke="#f9fafa" stroke-opacity="0.988" vector-effect="non-scaling-stroke" d="
  M 13.76 147.50
  Q 14.17 85.25 14.01 23.01
  C 14.00 19.51 15.13 17.29 17.25 14.79"
/>
<path stroke="#96938d" vector-effect="non-scaling-stroke" d="
  M 21.30 21.30
  L 28.93 21.25
  A 0.47 0.46 -76.9 0 1 29.34 21.93
  Q 23.90 32.58 21.92 43.71
  A 0.45 0.41 -85.4 0 0 22.33 44.24
  L 25.14 44.16
  A 0.67 0.58 -85.2 0 0 25.71 43.60
  Q 27.73 31.52 34.22 21.16
  A 1.03 0.70 -48.9 0 0 34.33 20.26
  L 33.01 17.92
  A 1.04 0.72 -9.7 0 0 32.17 17.53
  L 17.89 17.57
  A 0.54 0.51 -0.6 0 0 17.36 18.08
  L 17.28 24.00
  A 0.71 0.67 8.7 0 0 17.79 24.65
  Q 21.50 25.78 20.90 21.80
  A 0.43 0.41 85.2 0 1 21.30 21.30"
/>
<path stroke="#96938d" vector-effect="non-scaling-stroke" d="
  M 48.86 55.40
  Q 50.52 58.62 53.21 55.70
  Q 54.84 53.93 52.92 51.07
  L 48.28 44.20
  A 0.34 0.33 44.6 0 0 47.73 44.20
  L 42.55 51.95
  Q 41.55 53.45 42.46 55.02
  Q 44.65 58.75 47.28 55.27
  A 0.94 0.93 -40.1 0 1 48.86 55.40"
/>
<path stroke="#96938d" vector-effect="non-scaling-stroke" d="
  M 80.83 55.45
  Q 81.33 56.78 83.05 57.01
  A 1.42 1.38 -57.5 0 0 83.98 56.79
  C 88.49 53.84 82.20 47.12 80.24 44.18
  A 0.34 0.33 -44.6 0 0 79.69 44.18
  L 74.96 51.16
  Q 73.34 53.56 74.92 55.84
  Q 76.88 58.66 79.27 55.25
  Q 80.24 53.86 80.83 55.45"
/>
<path stroke="#96938d" vector-effect="non-scaling-stroke" d="
  M 32.35 60.91
  Q 32.86 58.76 31.58 56.89
  L 26.26 49.14
  A 0.34 0.34 45.5 0 0 25.70 49.13
  C 23.56 52.18 15.52 60.99 22.04 63.56
  A 1.21 1.14 42.2 0 0 22.97 63.54
  Q 24.34 62.92 25.26 61.67
  A 0.85 0.70 -62.0 0 1 26.05 61.34
  Q 27.07 61.60 27.55 62.55
  A 1.61 0.91 76.5 0 0 28.19 63.24
  Q 31.44 64.74 32.35 60.91"
/>
<path stroke="#96938d" vector-effect="non-scaling-stroke" d="
  M 47.70 55.92
  L 46.46 58.75
  A 0.47 0.46 18.5 0 0 46.79 59.39
  Q 47.75 59.63 49.24 59.28
  A 0.41 0.37 73.6 0 0 49.50 58.75
  L 48.52 56.05
  Q 48.13 54.94 47.70 55.92"
/>
<path stroke="#96938d" vector-effect="non-scaling-stroke" d="
  M 79.63 56.24
  Q 76.93 60.46 81.10 59.41
  A 0.48 0.48 -16.7 0 0 81.44 58.79
  L 80.58 56.32
  Q 80.23 55.31 79.63 56.24"
/>
<path stroke="#96938d" vector-effect="non-scaling-stroke" d="
  M 64.83 71.45
  Q 65.33 72.78 67.05 73.01
  A 1.37 1.36 -58.3 0 0 67.97 72.79
  C 72.49 69.84 66.20 63.13 64.26 60.18
  A 0.33 0.33 0.0 0 0 63.72 60.18
  L 58.96 67.15
  Q 57.33 69.55 58.89 71.81
  Q 60.88 74.66 63.27 71.25
  Q 64.24 69.86 64.83 71.45"
/>
<path stroke="#96938d" vector-effect="non-scaling-stroke" d="
  M 25.19 62.92
  L 24.33 65.81
  A 0.48 0.45 -75.6 0 0 24.66 66.41
  Q 25.96 66.70 27.33 66.41
  A 0.44 0.44 73.5 0 0 27.65 65.82
  L 26.57 62.84
  Q 25.83 60.80 25.19 62.92"
/>
<path stroke="#96938d" vector-effect="non-scaling-stroke" d="
  M 63.01 72.82
  Q 60.79 76.45 64.93 75.40
  A 0.33 0.31 81.7 0 0 65.17 75.06
  Q 64.75 69.97 63.01 72.82"
/>
<path stroke="#96938d" vector-effect="non-scaling-stroke" d="
  M 80.83 87.45
  Q 81.33 88.78 83.05 89.01
  A 1.42 1.38 -57.5 0 0 83.98 88.79
  C 88.49 85.84 82.20 79.12 80.25 76.19
  A 0.33 0.33 -44.7 0 0 79.70 76.19
  L 74.96 83.16
  Q 73.33 85.56 74.91 87.83
  Q 76.88 90.66 79.27 87.25
  Q 80.24 85.86 80.83 87.45"
/>
<path stroke="#96938d" vector-effect="non-scaling-stroke" d="
  M 48.83 87.34
  Q 50.53 90.62 53.01 87.91
  Q 54.84 85.91 53.32 83.71
  L 48.27 76.37
  A 0.36 0.35 -45.5 0 0 47.69 76.38
  L 42.93 83.27
  Q 41.34 85.57 42.94 87.87
  Q 44.87 90.66 47.28 87.24
  A 0.91 0.91 -41.3 0 1 48.83 87.34"
/>
<path stroke="#96938d" vector-effect="non-scaling-stroke" d="
  M 47.70 87.92
  L 46.46 90.75
  A 0.47 0.46 18.5 0 0 46.79 91.39
  Q 47.75 91.63 49.24 91.28
  A 0.41 0.37 73.6 0 0 49.50 90.75
  L 48.52 88.05
  Q 48.13 86.94 47.70 87.92"
/>
<path stroke="#96938d" vector-effect="non-scaling-stroke" d="
  M 79.70 87.92
  L 78.46 90.75
  A 0.47 0.46 18.5 0 0 78.79 91.39
  Q 79.75 91.63 81.24 91.28
  A 0.41 0.37 73.6 0 0 81.50 90.75
  L 80.52 88.05
  Q 80.13 86.94 79.70 87.92"
/>
<path stroke="#96938d" vector-effect="non-scaling-stroke" d="
  M 102.56 104.83
  L 103.94 101.19
  A 0.44 0.37 -72.3 0 0 103.71 100.63
  Q 102.24 100.27 100.68 100.59
  A 0.47 0.46 -15.5 0 0 100.33 101.19
  L 101.66 104.93
  Q 102.08 106.10 102.56 104.83"
/>
<path stroke="#96938d" vector-effect="non-scaling-stroke" d="
  M 106.05 103.68
  Q 104.30 102.95 103.64 104.72
  Q 103.32 105.59 102.01 105.94
  A 0.65 0.58 68.2 0 1 101.31 105.59
  Q 99.92 102.86 97.02 103.83
  A 1.39 1.35 4.5 0 0 96.29 104.43
  C 93.77 108.82 99.33 114.35 101.72 118.04
  A 0.33 0.32 46.4 0 0 102.27 118.06
  C 104.42 114.92 112.34 106.33 106.05 103.68"
/>
<path stroke="#96938d" vector-effect="non-scaling-stroke" d="
  M 48.45 111.98
  Q 51.37 107.68 47.04 108.60
  A 0.49 0.47 -14.2 0 0 46.66 109.20
  L 47.54 111.91
  Q 47.85 112.86 48.45 111.98"
/>
<path stroke="#96938d" vector-effect="non-scaling-stroke" d="
  M 81.58 109.11
  A 0.43 0.43 12.1 0 0 81.18 108.52
  L 78.97 108.48
  A 0.43 0.43 81.1 0 0 78.56 109.05
  L 79.61 112.14
  A 0.43 0.43 -44.6 0 0 80.42 112.15
  L 81.58 109.11"
/>
<path stroke="#96938d" vector-effect="non-scaling-stroke" d="
  M 47.06 112.69
  C 45.24 108.49 40.38 112.75 43.37 117.22
  Q 45.57 120.52 47.73 123.82
  A 0.33 0.32 -45.2 0 0 48.28 123.81
  C 50.22 120.85 56.51 114.22 51.91 111.25
  A 1.12 1.08 52.8 0 0 51.00 111.11
  Q 49.73 111.46 48.96 112.46
  A 1.29 0.92 -42.6 0 1 47.06 112.69"
/>
<path stroke="#96938d" vector-effect="non-scaling-stroke" d="
  M 79.07 112.70
  Q 78.44 111.27 76.98 111.01
  A 1.28 1.21 -55.6 0 0 76.06 111.21
  C 71.52 114.32 77.75 120.74 79.73 123.82
  A 0.33 0.33 -44.7 0 0 80.28 123.82
  C 82.26 120.91 88.70 113.98 83.72 111.16
  A 0.91 0.73 39.4 0 0 82.82 111.15
  L 80.29 112.93
  A 0.86 0.74 -30.0 0 1 79.07 112.70"
/>
<path stroke="#96938d" vector-effect="non-scaling-stroke" d="
  M 98.78 146.24
  Q 103.80 135.83 106.10 124.47
  A 0.53 0.51 -77.6 0 0 105.72 123.85
  Q 104.36 123.54 102.89 123.84
  A 0.77 0.71 89.9 0 0 102.33 124.45
  Q 100.18 136.60 93.71 147.04
  A 0.92 0.73 -48.2 0 0 93.66 147.91
  L 95.00 150.07
  A 1.03 0.82 -12.7 0 0 95.82 150.47
  L 110.11 150.43
  A 0.55 0.52 -0.0 0 0 110.65 149.92
  L 110.71 144.08
  A 0.76 0.72 10.3 0 0 110.21 143.39
  Q 106.50 142.07 107.22 146.08
  A 0.45 0.42 83.7 0 1 106.82 146.61
  L 99.07 146.72
  A 0.34 0.33 -76.9 0 1 98.78 146.24"
/>
</g>
<path fill="#010001" fill-opacity="0.102" d="
  M 120.09 95.52
  L 120.20 95.63
  A 0.31 0.16 -71.9 0 1 120.24 95.89
  Q 120.02 96.93 119.94 100.69
  Q 119.68 114.00 120.03 122.25
  C 120.13 124.84 119.83 127.33 119.95 129.49
  Q 120.32 135.99 119.91 142.48
  C 119.80 144.35 120.82 146.11 119.87 147.97
  Q 118.93 149.80 118.45 151.82
  A 1.33 1.03 -14.0 0 1 117.89 152.53
  Q 116.70 153.25 116.70 154.70
  Q 116.71 156.35 114.50 156.81
  Q 112.15 157.29 110.93 159.32
  A 0.71 0.69 19.6 0 1 110.21 159.65
  Q 108.91 159.44 108.26 160.35
  A 1.07 0.85 -68.8 0 1 107.51 160.79
  Q 87.85 161.32 68.24 160.71
  A 1.29 0.93 -60.1 0 0 67.42 161.08
  Q 66.80 161.70 66.29 161.16
  A 1.26 0.76 58.9 0 0 65.51 160.75
  L 20.56 160.69
  A 0.71 0.56 78.9 0 1 19.99 160.20
  Q 19.74 159.47 18.71 159.65
  A 0.72 0.69 67.9 0 1 18.00 159.33
  Q 17.43 158.42 16.20 158.68
  A 1.01 0.89 -27.3 0 1 15.36 158.47
  C 13.82 157.09 11.95 156.07 10.79 154.53
  Q 8.70 151.80 7.96 148.27
  Q 7.25 144.90 7.25 143.51
  C 7.25 118.62 6.47 93.35 7.43 68.52
  Q 7.54 65.78 7.36 63.04
  C 7.12 59.28 8.27 55.80 7.21 51.74
  A 1.43 1.41 -41.1 0 1 7.28 50.80
  C 8.32 48.42 7.20 47.15 7.51 45.08
  C 8.10 41.09 7.74 36.60 7.77 32.54
  C 7.79 29.16 6.00 26.70 7.79 22.94
  A 1.89 1.78 56.9 0 0 7.96 22.00
  Q 7.59 17.72 10.57 14.75
  A 1.54 1.19 76.5 0 0 10.95 13.90
  Q 11.08 12.67 12.25 12.13
  A 1.98 1.37 -4.4 0 0 12.99 11.53
  Q 14.95 8.67 18.45 8.01
  A 0.67 0.57 88.8 0 0 18.92 7.43
  C 18.97 6.89 25.02 6.02 25.77 6.02
  Q 65.48 6.01 105.19 6.02
  A 0.56 0.42 3.0 0 1 105.76 6.50
  L 105.71 6.87
  A 0.31 0.26 -82.2 0 0 105.93 7.22
  L 108.95 7.46
  A 0.60 0.57 -89.0 0 1 109.48 8.03
  L 109.52 8.98
  A 0.56 0.52 1.3 0 0 110.03 9.48
  Q 110.99 9.55 111.67 10.16
  A 1.12 0.96 59.3 0 0 112.50 10.44
  C 115.15 10.07 116.68 13.01 117.84 15.18
  C 119.30 17.89 119.87 22.96 119.99 26.15
  C 120.52 40.45 119.01 54.60 119.60 68.82
  C 119.75 72.41 119.47 78.13 119.98 83.51
  Q 120.22 85.98 119.83 95.16
  A 0.52 0.11 42.0 0 0 120.09 95.52
  Z
  M 116.79 22.93
  L 115.47 16.81
  A 4.23 0.93 41.7 0 0 113.79 14.49
  Q 110.72 11.39 106.46 10.73
  A 0.59 0.51 85.0 0 1 106.03 10.31
  L 105.93 9.93
  A 2.11 0.82 -2.0 0 0 103.99 9.25
  Q 63.23 9.25 25.06 9.25
  C 21.78 9.25 16.15 11.42 14.06 14.05
  Q 13.76 14.42 13.28 14.63
  Q 11.52 15.43 12.41 17.02
  A 0.38 0.37 -22.8 0 1 12.18 17.55
  C 9.81 18.33 12.05 21.31 10.26 21.35
  A 0.50 0.47 -0.6 0 0 9.77 21.82
  Q 9.68 119.90 9.86 144.44
  Q 9.87 145.51 11.17 146.46
  A 0.33 0.32 -43.0 0 1 11.14 146.99
  Q 10.39 147.51 10.95 147.96
  Q 11.05 148.85 10.99 149.80
  A 1.42 1.33 -62.6 0 0 11.24 150.69
  C 12.86 152.85 13.93 154.85 16.58 155.96
  C 19.47 157.17 22.07 158.59 25.32 158.62
  Q 44.59 158.79 63.86 158.61
  C 69.49 158.55 76.72 159.09 83.19 158.83
  Q 86.67 158.69 104.51 158.81
  A 1.75 1.30 -55.3 0 0 105.40 158.51
  Q 106.88 157.50 108.77 157.77
  A 2.31 1.47 -64.7 0 0 110.59 156.62
  Q 110.75 156.36 110.70 156.11
  A 0.42 0.33 76.6 0 1 110.92 155.63
  Q 113.42 154.97 114.39 152.45
  A 0.67 0.55 11.3 0 1 115.04 152.10
  Q 115.84 152.17 115.57 150.95
  A 1.10 1.05 57.8 0 1 115.75 150.07
  Q 117.50 147.66 117.50 144.25
  Q 117.50 84.37 117.50 24.50
  Q 117.50 24.05 117.22 23.74
  Q 116.88 23.37 116.79 22.93
  Z"
/>
<path fill="#020302" fill-opacity="0.184" d="
  M 117.22 23.74
  Q 117.50 24.05 117.50 24.50
  Q 117.50 84.37 117.50 144.25
  Q 117.50 147.66 115.75 150.07
  A 1.10 1.05 57.8 0 0 115.57 150.95
  Q 115.84 152.17 115.04 152.10
  A 0.67 0.55 11.3 0 0 114.39 152.45
  Q 113.42 154.97 110.92 155.63
  A 0.42 0.33 76.6 0 0 110.70 156.11
  Q 110.75 156.36 110.59 156.62
  A 2.31 1.47 -64.7 0 1 108.77 157.77
  Q 106.88 157.50 105.40 158.51
  A 1.75 1.30 -55.3 0 1 104.51 158.81
  Q 86.67 158.69 83.19 158.83
  C 76.72 159.09 69.49 158.55 63.86 158.61
  Q 44.59 158.79 25.32 158.62
  C 22.07 158.59 19.47 157.17 16.58 155.96
  C 13.93 154.85 12.86 152.85 11.24 150.69
  A 1.42 1.33 -62.6 0 1 10.99 149.80
  Q 11.05 148.85 10.95 147.96
  Q 10.39 147.51 11.14 146.99
  A 0.33 0.32 -43.0 0 0 11.17 146.46
  Q 9.87 145.51 9.86 144.44
  Q 9.68 119.90 9.77 21.82
  A 0.50 0.47 -0.6 0 1 10.26 21.35
  C 12.05 21.31 9.81 18.33 12.18 17.55
  A 0.38 0.37 -22.8 0 0 12.41 17.02
  Q 11.52 15.43 13.28 14.63
  Q 13.76 14.42 14.06 14.05
  C 16.15 11.42 21.78 9.25 25.06 9.25
  Q 63.23 9.25 103.99 9.25
  A 2.11 0.82 -2.0 0 1 105.93 9.93
  L 106.03 10.31
  A 0.59 0.51 85.0 0 0 106.46 10.73
  Q 110.72 11.39 113.79 14.49
  A 4.23 0.93 41.7 0 1 115.47 16.81
  L 116.79 22.93
  Q 116.88 23.37 117.22 23.74
  Z
  M 17.25 14.79
  Q 13.53 17.81 13.50 22.25
  Q 13.20 70.53 13.76 147.50
  C 15.32 153.88 19.49 155.18 25.84 155.20
  Q 62.96 155.26 99.94 155.30
  Q 102.11 156.45 104.25 155.29
  C 112.83 155.11 114.50 149.76 114.50 141.99
  Q 114.50 82.97 114.49 23.96
  C 114.49 15.20 110.19 12.76 101.73 12.75
  Q 61.78 12.74 21.81 12.76
  Q 20.11 12.76 17.25 14.79
  Z"
/>
<path fill="#ffffff" d="
  M 104.25 155.29
  L 99.94 155.30
  Q 62.96 155.26 25.84 155.20
  C 19.49 155.18 15.32 153.88 13.76 147.50
  Q 14.17 85.25 14.01 23.01
  C 14.00 19.51 15.13 17.29 17.25 14.79
  Q 20.11 12.76 21.81 12.76
  Q 61.78 12.74 101.73 12.75
  C 110.19 12.76 114.49 15.20 114.49 23.96
  Q 114.50 82.97 114.50 141.99
  C 114.50 149.76 112.83 155.11 104.25 155.29
  Z
  M 21.30 21.30
  L 28.93 21.25
  A 0.47 0.46 -76.9 0 1 29.34 21.93
  Q 23.90 32.58 21.92 43.71
  A 0.45 0.41 -85.4 0 0 22.33 44.24
  L 25.14 44.16
  A 0.67 0.58 -85.2 0 0 25.71 43.60
  Q 27.73 31.52 34.22 21.16
  A 1.03 0.70 -48.9 0 0 34.33 20.26
  L 33.01 17.92
  A 1.04 0.72 -9.7 0 0 32.17 17.53
  L 17.89 17.57
  A 0.54 0.51 -0.6 0 0 17.36 18.08
  L 17.28 24.00
  A 0.71 0.67 8.7 0 0 17.79 24.65
  Q 21.50 25.78 20.90 21.80
  A 0.43 0.41 85.2 0 1 21.30 21.30
  Z
  M 48.86 55.40
  Q 50.52 58.62 53.21 55.70
  Q 54.84 53.93 52.92 51.07
  L 48.28 44.20
  A 0.34 0.33 44.6 0 0 47.73 44.20
  L 42.55 51.95
  Q 41.55 53.45 42.46 55.02
  Q 44.65 58.75 47.28 55.27
  A 0.94 0.93 -40.1 0 1 48.86 55.40
  Z
  M 80.83 55.45
  Q 81.33 56.78 83.05 57.01
  A 1.42 1.38 -57.5 0 0 83.98 56.79
  C 88.49 53.84 82.20 47.12 80.24 44.18
  A 0.34 0.33 -44.6 0 0 79.69 44.18
  L 74.96 51.16
  Q 73.34 53.56 74.92 55.84
  Q 76.88 58.66 79.27 55.25
  Q 80.24 53.86 80.83 55.45
  Z
  M 32.35 60.91
  Q 32.86 58.76 31.58 56.89
  L 26.26 49.14
  A 0.34 0.34 45.5 0 0 25.70 49.13
  C 23.56 52.18 15.52 60.99 22.04 63.56
  A 1.21 1.14 42.2 0 0 22.97 63.54
  Q 24.34 62.92 25.26 61.67
  A 0.85 0.70 -62.0 0 1 26.05 61.34
  Q 27.07 61.60 27.55 62.55
  A 1.61 0.91 76.5 0 0 28.19 63.24
  Q 31.44 64.74 32.35 60.91
  Z
  M 47.70 55.92
  L 46.46 58.75
  A 0.47 0.46 18.5 0 0 46.79 59.39
  Q 47.75 59.63 49.24 59.28
  A 0.41 0.37 73.6 0 0 49.50 58.75
  L 48.52 56.05
  Q 48.13 54.94 47.70 55.92
  Z
  M 79.63 56.24
  Q 76.93 60.46 81.10 59.41
  A 0.48 0.48 -16.7 0 0 81.44 58.79
  L 80.58 56.32
  Q 80.23 55.31 79.63 56.24
  Z
  M 64.83 71.45
  Q 65.33 72.78 67.05 73.01
  A 1.37 1.36 -58.3 0 0 67.97 72.79
  C 72.49 69.84 66.20 63.13 64.26 60.18
  A 0.33 0.33 0.0 0 0 63.72 60.18
  L 58.96 67.15
  Q 57.33 69.55 58.89 71.81
  Q 60.88 74.66 63.27 71.25
  Q 64.24 69.86 64.83 71.45
  Z
  M 25.19 62.92
  L 24.33 65.81
  A 0.48 0.45 -75.6 0 0 24.66 66.41
  Q 25.96 66.70 27.33 66.41
  A 0.44 0.44 73.5 0 0 27.65 65.82
  L 26.57 62.84
  Q 25.83 60.80 25.19 62.92
  Z
  M 63.01 72.82
  Q 60.79 76.45 64.93 75.40
  A 0.33 0.31 81.7 0 0 65.17 75.06
  Q 64.75 69.97 63.01 72.82
  Z
  M 80.83 87.45
  Q 81.33 88.78 83.05 89.01
  A 1.42 1.38 -57.5 0 0 83.98 88.79
  C 88.49 85.84 82.20 79.12 80.25 76.19
  A 0.33 0.33 -44.7 0 0 79.70 76.19
  L 74.96 83.16
  Q 73.33 85.56 74.91 87.83
  Q 76.88 90.66 79.27 87.25
  Q 80.24 85.86 80.83 87.45
  Z
  M 48.83 87.34
  Q 50.53 90.62 53.01 87.91
  Q 54.84 85.91 53.32 83.71
  L 48.27 76.37
  A 0.36 0.35 -45.5 0 0 47.69 76.38
  L 42.93 83.27
  Q 41.34 85.57 42.94 87.87
  Q 44.87 90.66 47.28 87.24
  A 0.91 0.91 -41.3 0 1 48.83 87.34
  Z
  M 47.70 87.92
  L 46.46 90.75
  A 0.47 0.46 18.5 0 0 46.79 91.39
  Q 47.75 91.63 49.24 91.28
  A 0.41 0.37 73.6 0 0 49.50 90.75
  L 48.52 88.05
  Q 48.13 86.94 47.70 87.92
  Z
  M 79.70 87.92
  L 78.46 90.75
  A 0.47 0.46 18.5 0 0 78.79 91.39
  Q 79.75 91.63 81.24 91.28
  A 0.41 0.37 73.6 0 0 81.50 90.75
  L 80.52 88.05
  Q 80.13 86.94 79.70 87.92
  Z
  M 102.56 104.83
  L 103.94 101.19
  A 0.44 0.37 -72.3 0 0 103.71 100.63
  Q 102.24 100.27 100.68 100.59
  A 0.47 0.46 -15.5 0 0 100.33 101.19
  L 101.66 104.93
  Q 102.08 106.10 102.56 104.83
  Z
  M 106.05 103.68
  Q 104.30 102.95 103.64 104.72
  Q 103.32 105.59 102.01 105.94
  A 0.65 0.58 68.2 0 1 101.31 105.59
  Q 99.92 102.86 97.02 103.83
  A 1.39 1.35 4.5 0 0 96.29 104.43
  C 93.77 108.82 99.33 114.35 101.72 118.04
  A 0.33 0.32 46.4 0 0 102.27 118.06
  C 104.42 114.92 112.34 106.33 106.05 103.68
  Z
  M 48.45 111.98
  Q 51.37 107.68 47.04 108.60
  A 0.49 0.47 -14.2 0 0 46.66 109.20
  L 47.54 111.91
  Q 47.85 112.86 48.45 111.98
  Z
  M 81.58 109.11
  A 0.43 0.43 12.1 0 0 81.18 108.52
  L 78.97 108.48
  A 0.43 0.43 81.1 0 0 78.56 109.05
  L 79.61 112.14
  A 0.43 0.43 -44.6 0 0 80.42 112.15
  L 81.58 109.11
  Z
  M 47.06 112.69
  C 45.24 108.49 40.38 112.75 43.37 117.22
  Q 45.57 120.52 47.73 123.82
  A 0.33 0.32 -45.2 0 0 48.28 123.81
  C 50.22 120.85 56.51 114.22 51.91 111.25
  A 1.12 1.08 52.8 0 0 51.00 111.11
  Q 49.73 111.46 48.96 112.46
  A 1.29 0.92 -42.6 0 1 47.06 112.69
  Z
  M 79.07 112.70
  Q 78.44 111.27 76.98 111.01
  A 1.28 1.21 -55.6 0 0 76.06 111.21
  C 71.52 114.32 77.75 120.74 79.73 123.82
  A 0.33 0.33 -44.7 0 0 80.28 123.82
  C 82.26 120.91 88.70 113.98 83.72 111.16
  A 0.91 0.73 39.4 0 0 82.82 111.15
  L 80.29 112.93
  A 0.86 0.74 -30.0 0 1 79.07 112.70
  Z
  M 98.78 146.24
  Q 103.80 135.83 106.10 124.47
  A 0.53 0.51 -77.6 0 0 105.72 123.85
  Q 104.36 123.54 102.89 123.84
  A 0.77 0.71 89.9 0 0 102.33 124.45
  Q 100.18 136.60 93.71 147.04
  A 0.92 0.73 -48.2 0 0 93.66 147.91
  L 95.00 150.07
  A 1.03 0.82 -12.7 0 0 95.82 150.47
  L 110.11 150.43
  A 0.55 0.52 -0.0 0 0 110.65 149.92
  L 110.71 144.08
  A 0.76 0.72 10.3 0 0 110.21 143.39
  Q 106.50 142.07 107.22 146.08
  A 0.45 0.42 83.7 0 1 106.82 146.61
  L 99.07 146.72
  A 0.34 0.33 -76.9 0 1 98.78 146.24
  Z"
/>
<path fill="#f2f4f5" fill-opacity="0.973" d="
  M 17.25 14.79
  C 15.13 17.29 14.00 19.51 14.01 23.01
  Q 14.17 85.25 13.76 147.50
  Q 13.20 70.53 13.50 22.25
  Q 13.53 17.81 17.25 14.79
  Z"
/>
<path fill="#2d261b" d="
  M 20.90 21.80
  Q 21.50 25.78 17.79 24.65
  A 0.71 0.67 8.7 0 1 17.28 24.00
  L 17.36 18.08
  A 0.54 0.51 -0.6 0 1 17.89 17.57
  L 32.17 17.53
  A 1.04 0.72 -9.7 0 1 33.01 17.92
  L 34.33 20.26
  A 1.03 0.70 -48.9 0 1 34.22 21.16
  Q 27.73 31.52 25.71 43.60
  A 0.67 0.58 -85.2 0 1 25.14 44.16
  L 22.33 44.24
  A 0.45 0.41 -85.4 0 1 21.92 43.71
  Q 23.90 32.58 29.34 21.93
  A 0.47 0.46 -76.9 0 0 28.93 21.25
  L 21.30 21.30
  A 0.43 0.41 85.2 0 0 20.90 21.80
  Z"
/>
<path fill="#2d261b" d="
  M 48.86 55.40
  A 0.94 0.93 -40.1 0 0 47.28 55.27
  Q 44.65 58.75 42.46 55.02
  Q 41.55 53.45 42.55 51.95
  L 47.73 44.20
  A 0.34 0.33 44.6 0 1 48.28 44.20
  L 52.92 51.07
  Q 54.84 53.93 53.21 55.70
  Q 50.52 58.62 48.86 55.40
  Z"
/>
<path fill="#2d261b" d="
  M 80.83 55.45
  Q 80.24 53.86 79.27 55.25
  Q 76.88 58.66 74.92 55.84
  Q 73.34 53.56 74.96 51.16
  L 79.69 44.18
  A 0.34 0.33 -44.6 0 1 80.24 44.18
  C 82.20 47.12 88.49 53.84 83.98 56.79
  A 1.42 1.38 -57.5 0 1 83.05 57.01
  Q 81.33 56.78 80.83 55.45
  Z"
/>
<path fill="#2d261b" d="
  M 32.35 60.91
  Q 31.44 64.74 28.19 63.24
  A 1.61 0.91 76.5 0 1 27.55 62.55
  Q 27.07 61.60 26.05 61.34
  A 0.85 0.70 -62.0 0 0 25.26 61.67
  Q 24.34 62.92 22.97 63.54
  A 1.21 1.14 42.2 0 1 22.04 63.56
  C 15.52 60.99 23.56 52.18 25.70 49.13
  A 0.34 0.34 45.5 0 1 26.26 49.14
  L 31.58 56.89
  Q 32.86 58.76 32.35 60.91
  Z"
/>
<path fill="#2d261b" d="
  M 47.70 55.92
  Q 48.13 54.94 48.52 56.05
  L 49.50 58.75
  A 0.41 0.37 73.6 0 1 49.24 59.28
  Q 47.75 59.63 46.79 59.39
  A 0.47 0.46 18.5 0 1 46.46 58.75
  L 47.70 55.92
  Z"
/>
<path fill="#2d261b" d="
  M 79.63 56.24
  Q 80.23 55.31 80.58 56.32
  L 81.44 58.79
  A 0.48 0.48 -16.7 0 1 81.10 59.41
  Q 76.93 60.46 79.63 56.24
  Z"
/>
<path fill="#2d261b" d="
  M 64.83 71.45
  Q 64.24 69.86 63.27 71.25
  Q 60.88 74.66 58.89 71.81
  Q 57.33 69.55 58.96 67.15
  L 63.72 60.18
  A 0.33 0.33 -0.0 0 1 64.26 60.18
  C 66.20 63.13 72.49 69.84 67.97 72.79
  A 1.37 1.36 -58.3 0 1 67.05 73.01
  Q 65.33 72.78 64.83 71.45
  Z"
/>
<path fill="#2d261b" d="
  M 25.19 62.92
  Q 25.83 60.80 26.57 62.84
  L 27.65 65.82
  A 0.44 0.44 73.5 0 1 27.33 66.41
  Q 25.96 66.70 24.66 66.41
  A 0.48 0.45 -75.6 0 1 24.33 65.81
  L 25.19 62.92
  Z"
/>
<path fill="#2d261b" d="
  M 63.01 72.82
  Q 64.75 69.97 65.17 75.06
  A 0.33 0.31 81.7 0 1 64.93 75.40
  Q 60.79 76.45 63.01 72.82
  Z"
/>
<path fill="#2d261b" d="
  M 80.83 87.45
  Q 80.24 85.86 79.27 87.25
  Q 76.88 90.66 74.91 87.83
  Q 73.33 85.56 74.96 83.16
  L 79.70 76.19
  A 0.33 0.33 -44.7 0 1 80.25 76.19
  C 82.20 79.12 88.49 85.84 83.98 88.79
  A 1.42 1.38 -57.5 0 1 83.05 89.01
  Q 81.33 88.78 80.83 87.45
  Z"
/>
<path fill="#2d261b" d="
  M 48.83 87.34
  A 0.91 0.91 -41.3 0 0 47.28 87.24
  Q 44.87 90.66 42.94 87.87
  Q 41.34 85.57 42.93 83.27
  L 47.69 76.38
  A 0.36 0.35 -45.5 0 1 48.27 76.37
  L 53.32 83.71
  Q 54.84 85.91 53.01 87.91
  Q 50.53 90.62 48.83 87.34
  Z"
/>
<path fill="#2d261b" d="
  M 47.70 87.92
  Q 48.13 86.94 48.52 88.05
  L 49.50 90.75
  A 0.41 0.37 73.6 0 1 49.24 91.28
  Q 47.75 91.63 46.79 91.39
  A 0.47 0.46 18.5 0 1 46.46 90.75
  L 47.70 87.92
  Z"
/>
<path fill="#2d261b" d="
  M 79.70 87.92
  Q 80.13 86.94 80.52 88.05
  L 81.50 90.75
  A 0.41 0.37 73.6 0 1 81.24 91.28
  Q 79.75 91.63 78.79 91.39
  A 0.47 0.46 18.5 0 1 78.46 90.75
  L 79.70 87.92
  Z"
/>
<path fill="#2d261b" d="
  M 102.56 104.83
  Q 102.08 106.10 101.66 104.93
  L 100.33 101.19
  A 0.47 0.46 -15.5 0 1 100.68 100.59
  Q 102.24 100.27 103.71 100.63
  A 0.44 0.37 -72.3 0 1 103.94 101.19
  L 102.56 104.83
  Z"
/>
<path fill="#2d261b" d="
  M 106.05 103.68
  C 112.34 106.33 104.42 114.92 102.27 118.06
  A 0.33 0.32 46.4 0 1 101.72 118.04
  C 99.33 114.35 93.77 108.82 96.29 104.43
  A 1.39 1.35 4.5 0 1 97.02 103.83
  Q 99.92 102.86 101.31 105.59
  A 0.65 0.58 68.2 0 0 102.01 105.94
  Q 103.32 105.59 103.64 104.72
  Q 104.30 102.95 106.05 103.68
  Z"
/>
<path fill="#2d261b" d="
  M 48.45 111.98
  Q 47.85 112.86 47.54 111.91
  L 46.66 109.20
  A 0.49 0.47 -14.2 0 1 47.04 108.60
  Q 51.37 107.68 48.45 111.98
  Z"
/>
<path fill="#2d261b" d="
  M 81.58 109.11
  L 80.42 112.15
  A 0.43 0.43 -45.6 0 1 79.61 112.14
  L 78.56 109.05
  A 0.43 0.43 76.9 0 1 78.97 108.48
  L 81.18 108.52
  A 0.43 0.43 13.8 0 1 81.58 109.11
  Z"
/>
<path fill="#2d261b" d="
  M 47.06 112.69
  A 1.29 0.92 -42.6 0 0 48.96 112.46
  Q 49.73 111.46 51.00 111.11
  A 1.12 1.08 52.8 0 1 51.91 111.25
  C 56.51 114.22 50.22 120.85 48.28 123.81
  A 0.33 0.32 -45.2 0 1 47.73 123.82
  Q 45.57 120.52 43.37 117.22
  C 40.38 112.75 45.24 108.49 47.06 112.69
  Z"
/>
<path fill="#2d261b" d="
  M 79.07 112.70
  A 0.86 0.74 -30.0 0 0 80.29 112.93
  L 82.82 111.15
  A 0.91 0.73 39.4 0 1 83.72 111.16
  C 88.70 113.98 82.26 120.91 80.28 123.82
  A 0.33 0.33 -44.7 0 1 79.73 123.82
  C 77.75 120.74 71.52 114.32 76.06 111.21
  A 1.28 1.21 -55.6 0 1 76.98 111.01
  Q 78.44 111.27 79.07 112.70
  Z"
/>
<path fill="#2d261b" d="
  M 99.07 146.72
  L 106.82 146.61
  A 0.45 0.42 83.7 0 0 107.22 146.08
  Q 106.50 142.07 110.21 143.39
  A 0.76 0.72 10.3 0 1 110.71 144.08
  L 110.65 149.92
  A 0.55 0.52 -0.0 0 1 110.11 150.43
  L 95.82 150.47
  A 1.03 0.82 -12.7 0 1 95.00 150.07
  L 93.66 147.91
  A 0.92 0.73 -48.2 0 1 93.71 147.04
  Q 100.18 136.60 102.33 124.45
  A 0.77 0.71 89.9 0 1 102.89 123.84
  Q 104.36 123.54 105.72 123.85
  A 0.53 0.51 -77.6 0 1 106.10 124.47
  Q 103.80 135.83 98.78 146.24
  A 0.34 0.33 -76.9 0 0 99.07 146.72
  Z"
/>
<path fill="#2d261b" d="
  M 99.94 155.30
  L 104.25 155.29
  Q 102.11 156.45 99.94 155.30
  Z"
/>
</svg>
