<?xml version="1.0" encoding="UTF-8" standalone="no"?>
<svg xmlns="http://www.w3.org/2000/svg" version="1.2" baseProfile="tiny" viewBox="0 0 128 168">
<g stroke-width="0.00" fill="none" stroke-linecap="butt">
<path stroke="#e6e6e6" stroke-opacity="0.557" vector-effect="non-scaling-stroke" d="
  M 17.00 152.96
  Q 19.67 155.18 22.06 155.19
  Q 51.66 155.25 81.24 155.31"
/>
<path stroke="#292218" stroke-opacity="0.557" vector-effect="non-scaling-stroke" d="
  M 81.24 155.31
  Q 88.14 156.04 95.08 155.75
  A 1.10 0.92 20.2 0 0 95.72 155.52
  L 96.00 155.29"
/>
<path stroke="#e6e6e6" stroke-opacity="0.557" vector-effect="non-scaling-stroke" d="
  M 96.00 155.29
  L 99.21 155.50"
/>
<path stroke="#292218" stroke-opacity="0.557" vector-effect="non-scaling-stroke" d="
  M 99.21 155.50
  Q 102.12 156.19 105.05 155.42"
/>
<path stroke="#e6e6e6" stroke-opacity="0.557" vector-effect="non-scaling-stroke" d="
  M 105.05 155.42
  Q 113.27 154.45 114.54 146.25"
/>
<path stroke="#e6e6e6" stroke-opacity="0.557" vector-effect="non-scaling-stroke" d="
  M 114.50 21.04
  Q 111.98 11.53 101.75 12.71"
/>
<path stroke="#d7d8d7" stroke-opacity="0.596" vector-effect="non-scaling-stroke" d="
  M 101.75 12.71
  Q 63.81 12.78 25.86 12.75
  C 19.77 12.75 16.15 13.91 13.80 19.49"
/>
<path stroke="#d7d8d7" stroke-opacity="0.596" vector-effect="non-scaling-stroke" d="
  M 114.50 21.04
  L 114.46 28.50"
/>
<path stroke="#faf8f7" stroke-opacity="0.957" vector-effect="non-scaling-stroke" d="
  M 114.46 28.50
  Q 113.94 58.25 114.46 88.00"
/>
<path stroke="#d7d8d7" stroke-opacity="0.596" vector-effect="non-scaling-stroke" d="
  M 114.46 88.00
  L 114.54 146.25"
/>
<path stroke="#96938d" vector-effect="non-scaling-stroke" d="
  M 105.05 155.42
  L 99.21 155.50"
/>
<path stroke="#96938d" vector-effect="non-scaling-stroke" d="
  M 96.00 155.29
  L 81.24 155.31"
/>
<path stroke="#f9fafa" stroke-opacity="0.988" vector-effect="non-scaling-stroke" d="
  M 17.00 152.96
  Q 14.00 148.77 14.00 147.25
  Q 14.15 83.38 13.80 19.49"
/>
<path stroke="#96938d" vector-effect="non-scaling-stroke" d="
  M 22.79 40.44
  L 23.09 38.74
  A 0.74 0.57 3.6 0 1 23.78 38.27
  L 27.51 38.22
  A 1.02 0.89 -15.2 0 1 28.31 38.61
  Q 29.52 40.38 27.82 41.15
  A 0.91 0.62 -16.8 0 0 27.27 41.83
  L 27.31 43.91
  A 0.60 0.53 0.1 0 0 27.90 44.43
  L 33.73 44.50
  A 0.72 0.71 -78.9 0 0 34.41 44.03
  Q 35.53 40.96 32.65 40.85
  A 0.63 0.60 -4.0 0 1 32.06 40.36
  L 27.89 17.97
  A 0.80 0.76 -88.6 0 0 27.32 17.34
  Q 25.71 16.93 24.11 17.48
  A 0.92 0.84 87.2 0 0 23.55 18.16
  L 19.44 40.37
  A 0.62 0.58 4.6 0 1 18.85 40.84
  Q 16.06 40.88 17.05 43.90
  A 0.72 0.68 80.7 0 0 17.71 44.40
  L 23.42 44.50
  A 0.78 0.77 -77.3 0 0 24.14 44.04
  Q 25.07 41.83 23.30 41.10
  A 0.78 0.52 18.4 0 1 22.79 40.44"
/>
<path stroke="#faf8f7" stroke-opacity="0.957" vector-effect="non-scaling-stroke" d="
  M 25.00 61.46
  L 25.54 61.75"
/>
<path stroke="#96938d" vector-effect="non-scaling-stroke" d="
  M 25.54 61.75
  L 24.25 65.13
  A 0.54 0.45 -68.2 0 0 24.46 65.78
  Q 25.78 66.33 27.29 65.87
  A 0.50 0.49 71.9 0 0 27.61 65.23
  L 26.25 61.29"
/>
<path stroke="#faf8f7" stroke-opacity="0.957" vector-effect="non-scaling-stroke" d="
  M 26.25 61.29
  L 26.96 61.25"
/>
<path stroke="#96938d" vector-effect="non-scaling-stroke" d="
  M 26.96 61.25
  Q 27.73 62.91 29.55 63.24
  A 1.42 1.33 -53.4 0 0 30.49 63.07
  C 35.67 60.11 29.36 53.02 26.27 48.85
  A 0.37 0.36 44.0 0 0 25.68 48.85
  L 20.17 56.82
  Q 18.46 59.28 20.13 61.90
  Q 22.19 65.13 25.00 61.46"
/>
<path stroke="#8c8680" stroke-opacity="0.957" vector-effect="non-scaling-stroke" d="
  M 26.96 61.25
  Q 25.78 59.73 25.00 61.46"
/>
<path stroke="#8c8680" stroke-opacity="0.957" vector-effect="non-scaling-stroke" d="
  M 26.25 61.29
  L 25.54 61.75"
/>
<path stroke="#96938d" vector-effect="non-scaling-stroke" d="
  M 64.72 87.95
  Q 66.68 91.73 70.25 89.80
  A 1.47 1.43 -2.9 0 0 70.90 89.10
  C 73.11 83.96 67.06 77.83 64.22 73.66
  A 0.35 0.34 -45.2 0 0 63.65 73.67
  Q 60.44 78.36 57.30 83.04
  C 54.29 87.53 59.72 93.82 62.53 88.71
  A 1.61 1.02 -77.7 0 1 63.19 88.04
  L 64.03 87.67
  A 0.58 0.52 64.1 0 1 64.72 87.95"
/>
<path stroke="#96938d" vector-effect="non-scaling-stroke" d="
  M 63.44 88.69
  Q 62.55 91.69 61.77 93.26
  A 0.45 0.42 -67.3 0 0 62.00 93.88
  Q 62.86 94.14 63.77 94.01
  Q 64.21 93.95 64.74 94.06
  Q 65.60 94.23 66.02 93.73
  A 0.83 0.60 52.2 0 0 65.99 92.87
  C 65.61 92.25 64.16 86.23 63.44 88.69"
/>
<path stroke="#faf8f7" stroke-opacity="0.957" vector-effect="non-scaling-stroke" d="
  M 101.54 104.75
  L 101.04 105.00"
/>
<path stroke="#96938d" vector-effect="non-scaling-stroke" d="
  M 101.04 105.00
  Q 100.18 103.00 98.02 102.98
  A 1.39 1.32 -64.4 0 0 97.13 103.32
  C 92.72 107.18 99.36 114.09 101.77 117.55
  A 0.35 0.34 -45.1 0 0 102.34 117.54
  L 107.76 109.61
  Q 109.45 107.12 108.00 104.55
  Q 106.13 101.26 103.25 104.54"
/>
<path stroke="#faf8f7" stroke-opacity="0.957" vector-effect="non-scaling-stroke" d="
  M 103.25 104.54
  L 102.75 104.46"
/>
<path stroke="#96938d" vector-effect="non-scaling-stroke" d="
  M 102.75 104.46
  L 103.73 100.97
  A 0.50 0.39 -74.5 0 0 103.49 100.38
  Q 102.11 100.01 100.67 100.34
  A 0.49 0.45 74.8 0 0 100.36 100.95
  L 101.54 104.75"
/>
<path stroke="#8c8680" stroke-opacity="0.957" vector-effect="non-scaling-stroke" d="
  M 102.75 104.46
  L 101.54 104.75"
/>
<path stroke="#8c8680" stroke-opacity="0.957" vector-effect="non-scaling-stroke" d="
  M 101.04 105.00
  Q 102.42 106.21 103.25 104.54"
/>
<path stroke="#96938d" vector-effect="non-scaling-stroke" d="
  M 99.78 126.93
  Q 101.53 126.29 100.71 124.04
  A 0.74 0.72 -9.5 0 0 100.02 123.56
  L 94.28 123.50
  A 0.72 0.71 10.1 0 0 93.59 123.97
  Q 92.49 127.03 95.32 127.15
  A 0.64 0.60 -3.9 0 1 95.92 127.64
  L 100.17 150.21
  A 0.63 0.61 84.2 0 0 100.77 150.72
  L 103.45 150.76
  A 0.98 0.94 -84.2 0 0 104.39 149.96
  L 108.58 127.63
  A 0.61 0.57 4.0 0 1 109.16 127.16
  Q 111.93 127.10 110.95 124.12
  A 0.75 0.69 80.1 0 0 110.28 123.60
  L 104.45 123.58
  A 0.75 0.69 -80.1 0 0 103.78 124.10
  Q 103.11 126.22 104.70 127.08
  A 0.84 0.55 23.3 0 1 105.17 127.79
  L 104.88 129.25
  A 0.74 0.58 4.1 0 1 104.17 129.73
  L 100.30 129.73
  A 0.80 0.77 -11.1 0 1 99.57 129.26
  Q 99.23 128.43 99.26 127.56
  A 0.79 0.66 -10.6 0 1 99.78 126.93"
/>
<path stroke="#96938d" vector-effect="non-scaling-stroke" d="
  M 25.70 25.22
  C 25.47 25.19 24.09 33.22 23.88 34.24
  A 0.53 0.53 -76.4 0 0 24.26 34.87
  Q 25.73 35.27 27.26 34.84
  A 0.56 0.52 76.8 0 0 27.62 34.20
  L 26.03 25.60
  A 0.47 0.35 86.2 0 0 25.70 25.22"
/>
<path stroke="#96938d" vector-effect="non-scaling-stroke" d="
  M 102.89 140.71
  C 102.73 138.89 103.74 135.68 104.12 133.77
  A 0.56 0.54 -77.1 0 0 103.73 133.13
  Q 102.26 132.72 100.77 133.14
  A 0.57 0.54 77.4 0 0 100.39 133.78
  L 101.78 141.27
  A 1.29 0.76 -89.0 0 0 102.24 142.08
  Q 103.05 142.60 102.89 140.71"
/>
</g>
<path fill="#010000" fill-opacity="0.110" d="
  M 120.73 68.74
  L 120.82 68.78
  A 0.15 0.12 -83.7 0 1 120.89 68.89
  C 121.13 94.26 121.25 119.62 121.26 145.00
  A 1.29 0.93 -28.5 0 1 120.87 145.81
  Q 120.43 146.24 120.40 146.82
  Q 120.35 147.58 120.26 147.78
  L 117.17 154.98
  A 1.69 0.73 -21.7 0 1 116.50 155.65
  L 108.41 160.78
  A 1.34 0.97 -49.5 0 1 107.54 160.99
  C 104.93 160.53 102.97 161.72 100.73 161.71
  Q 84.23 161.67 67.74 161.86
  Q 67.32 161.86 66.79 161.64
  C 65.31 161.04 64.39 161.76 63.09 161.76
  Q 45.77 161.75 28.48 161.74
  Q 27.06 161.74 24.68 160.97
  C 23.83 160.69 20.05 160.76 19.94 160.23
  A 0.50 0.46 79.9 0 0 19.43 159.84
  Q 18.33 159.98 17.77 159.12
  A 0.73 0.65 66.7 0 0 17.06 158.79
  Q 14.99 159.22 14.17 157.52
  Q 13.92 157.01 13.59 156.74
  Q 10.85 154.48 8.92 151.55
  Q 8.43 150.81 8.22 149.51
  C 7.75 146.60 7.04 144.08 7.03 141.13
  Q 6.85 89.91 7.17 38.69
  C 7.18 36.78 8.26 34.07 7.78 31.98
  C 6.92 28.24 6.34 26.31 7.36 22.55
  C 7.83 20.78 7.53 19.32 8.38 17.70
  C 8.87 16.75 11.23 11.41 12.05 11.43
  A 0.79 0.67 13.0 0 0 12.75 11.07
  C 13.85 9.01 17.38 8.36 19.32 6.98
  A 1.38 1.22 28.4 0 1 20.22 6.77
  Q 21.96 6.98 23.35 6.05
  A 1.76 1.36 -56.1 0 1 24.25 5.75
  Q 64.62 5.75 105.00 5.75
  Q 106.00 5.75 109.68 7.15
  C 116.29 9.68 120.50 17.15 120.51 23.58
  Q 120.52 35.91 120.45 48.24
  C 120.41 53.66 121.11 61.71 120.58 68.51
  A 0.23 0.21 13.4 0 0 120.73 68.74
  Z
  M 13.46 146.50
  Q 14.07 150.42 17.00 152.96
  Q 19.67 155.18 22.06 155.19
  Q 51.66 155.25 81.24 155.31
  Q 88.14 156.04 95.08 155.75
  A 1.10 0.92 20.2 0 0 95.72 155.52
  L 96.00 155.29
  L 99.21 155.50
  Q 102.12 156.19 105.05 155.42
  Q 113.27 154.45 114.54 146.25
  Q 114.91 146.39 115.08 146.72
  Q 115.25 147.06 115.34 146.71
  Q 117.33 138.91 116.32 133.01
  C 115.82 130.11 116.51 128.66 116.51 126.60
  C 116.56 93.11 116.82 59.92 116.48 26.06
  C 116.47 25.26 116.90 24.14 115.93 23.61
  A 0.65 0.58 22.0 0 1 115.60 22.94
  Q 116.01 21.12 114.50 21.04
  Q 111.98 11.53 101.75 12.71
  Q 87.44 12.56 21.00 12.57
  Q 20.19 12.57 20.53 11.92
  A 0.94 0.76 11.3 0 1 21.31 11.51
  Q 63.62 11.48 105.91 11.52
  C 106.38 11.52 111.18 13.00 108.21 11.19
  C 107.26 10.61 101.48 10.50 100.22 10.50
  Q 61.11 10.49 22.00 10.51
  C 19.21 10.51 13.17 14.40 11.45 16.99
  Q 9.75 19.54 9.75 21.31
  L 9.74 143.18
  A 1.57 1.48 28.3 0 0 10.04 144.08
  Q 11.72 146.41 11.85 149.39
  A 0.71 0.67 -84.0 0 0 12.34 150.04
  Q 13.86 150.46 12.23 148.94
  A 2.41 0.81 -78.8 0 1 11.98 147.00
  Q 12.22 145.17 13.46 146.50
  Z
  M 106.13 156.26
  A 0.26 0.26 0.0 0 0 105.87 156.00
  L 22.79 156.00
  A 0.26 0.26 0.0 0 0 22.53 156.26
  L 22.53 156.48
  A 0.26 0.26 0.0 0 0 22.79 156.74
  L 105.87 156.74
  A 0.26 0.26 0.0 0 0 106.13 156.48
  L 106.13 156.26
  Z"
/>
<path fill="#030605" fill-opacity="0.188" d="
  M 101.75 12.71
  Q 63.81 12.78 25.86 12.75
  C 19.77 12.75 16.15 13.91 13.80 19.49
  L 13.46 146.50
  Q 12.22 145.17 11.98 147.00
  A 2.41 0.81 -78.8 0 0 12.23 148.94
  Q 13.86 150.46 12.34 150.04
  A 0.71 0.67 -84.0 0 1 11.85 149.39
  Q 11.72 146.41 10.04 144.08
  A 1.57 1.48 28.3 0 1 9.74 143.18
  L 9.75 21.31
  Q 9.75 19.54 11.45 16.99
  C 13.17 14.40 19.21 10.51 22.00 10.51
  Q 61.11 10.49 100.22 10.50
  C 101.48 10.50 107.26 10.61 108.21 11.19
  C 111.18 13.00 106.38 11.52 105.91 11.52
  Q 63.62 11.48 21.31 11.51
  A 0.94 0.76 11.3 0 0 20.53 11.92
  Q 20.19 12.57 21.00 12.57
  Q 87.44 12.56 101.75 12.71
  Z"
/>
<path fill="#ffffff" d="
  M 101.75 12.71
  Q 111.98 11.53 114.50 21.04
  L 114.46 28.50
  Q 113.94 58.25 114.46 88.00
  L 114.54 146.25
  Q 113.27 154.45 105.05 155.42
  L 99.21 155.50
  L 96.00 155.29
  L 81.24 155.31
  Q 51.66 155.25 22.06 155.19
  Q 19.67 155.18 17.00 152.96
  Q 14.00 148.77 14.00 147.25
  Q 14.15 83.38 13.80 19.49
  C 16.15 13.91 19.77 12.75 25.86 12.75
  Q 63.81 12.78 101.75 12.71
  Z
  M 22.79 40.44
  L 23.09 38.74
  A 0.74 0.57 3.6 0 1 23.78 38.27
  L 27.51 38.22
  A 1.02 0.89 -15.2 0 1 28.31 38.61
  Q 29.52 40.38 27.82 41.15
  A 0.91 0.62 -16.8 0 0 27.27 41.83
  L 27.31 43.91
  A 0.60 0.53 0.1 0 0 27.90 44.43
  L 33.73 44.50
  A 0.72 0.71 -78.9 0 0 34.41 44.03
  Q 35.53 40.96 32.65 40.85
  A 0.63 0.60 -4.0 0 1 32.06 40.36
  L 27.89 17.97
  A 0.80 0.76 -88.6 0 0 27.32 17.34
  Q 25.71 16.93 24.11 17.48
  A 0.92 0.84 87.2 0 0 23.55 18.16
  L 19.44 40.37
  A 0.62 0.58 4.6 0 1 18.85 40.84
  Q 16.06 40.88 17.05 43.90
  A 0.72 0.68 80.7 0 0 17.71 44.40
  L 23.42 44.50
  A 0.78 0.77 -77.3 0 0 24.14 44.04
  Q 25.07 41.83 23.30 41.10
  A 0.78 0.52 18.4 0 1 22.79 40.44
  Z
  M 25.00 61.46
  L 25.54 61.75
  L 24.25 65.13
  A 0.54 0.45 -68.2 0 0 24.46 65.78
  Q 25.78 66.33 27.29 65.87
  A 0.50 0.49 71.9 0 0 27.61 65.23
  L 26.25 61.29
  L 26.96 61.25
  Q 27.73 62.91 29.55 63.24
  A 1.42 1.33 -53.4 0 0 30.49 63.07
  C 35.67 60.11 29.36 53.02 26.27 48.85
  A 0.37 0.36 44.0 0 0 25.68 48.85
  L 20.17 56.82
  Q 18.46 59.28 20.13 61.90
  Q 22.19 65.13 25.00 61.46
  Z
  M 64.72 87.95
  Q 66.68 91.73 70.25 89.80
  A 1.47 1.43 -2.9 0 0 70.90 89.10
  C 73.11 83.96 67.06 77.83 64.22 73.66
  A 0.35 0.34 -45.2 0 0 63.65 73.67
  Q 60.44 78.36 57.30 83.04
  C 54.29 87.53 59.72 93.82 62.53 88.71
  A 1.61 1.02 -77.7 0 1 63.19 88.04
  L 64.03 87.67
  A 0.58 0.52 64.1 0 1 64.72 87.95
  Z
  M 63.44 88.69
  Q 62.55 91.69 61.77 93.26
  A 0.45 0.42 -67.3 0 0 62.00 93.88
  Q 62.86 94.14 63.77 94.01
  Q 64.21 93.95 64.74 94.06
  Q 65.60 94.23 66.02 93.73
  A 0.83 0.60 52.2 0 0 65.99 92.87
  C 65.61 92.25 64.16 86.23 63.44 88.69
  Z
  M 101.54 104.75
  L 101.04 105.00
  Q 100.18 103.00 98.02 102.98
  A 1.39 1.32 -64.4 0 0 97.13 103.32
  C 92.72 107.18 99.36 114.09 101.77 117.55
  A 0.35 0.34 -45.1 0 0 102.34 117.54
  L 107.76 109.61
  Q 109.45 107.12 108.00 104.55
  Q 106.13 101.26 103.25 104.54
  L 102.75 104.46
  L 103.73 100.97
  A 0.50 0.39 -74.5 0 0 103.49 100.38
  Q 102.11 100.01 100.67 100.34
  A 0.49 0.45 74.8 0 0 100.36 100.95
  L 101.54 104.75
  Z
  M 99.78 126.93
  Q 101.53 126.29 100.71 124.04
  A 0.74 0.72 -9.5 0 0 100.02 123.56
  L 94.28 123.50
  A 0.72 0.71 10.1 0 0 93.59 123.97
  Q 92.49 127.03 95.32 127.15
  A 0.64 0.60 -3.9 0 1 95.92 127.64
  L 100.17 150.21
  A 0.63 0.61 84.2 0 0 100.77 150.72
  L 103.45 150.76
  A 0.98 0.94 -84.2 0 0 104.39 149.96
  L 108.58 127.63
  A 0.61 0.57 4.0 0 1 109.16 127.16
  Q 111.93 127.10 110.95 124.12
  A 0.75 0.69 80.1 0 0 110.28 123.60
  L 104.45 123.58
  A 0.75 0.69 -80.1 0 0 103.78 124.10
  Q 103.11 126.22 104.70 127.08
  A 0.84 0.55 23.3 0 1 105.17 127.79
  L 104.88 129.25
  A 0.74 0.58 4.1 0 1 104.17 129.73
  L 100.30 129.73
  A 0.80 0.77 -11.1 0 1 99.57 129.26
  Q 99.23 128.43 99.26 127.56
  A 0.79 0.66 -10.6 0 1 99.78 126.93
  Z"
/>
<path fill="#2d261b" d="
  M 23.30 41.10
  Q 25.07 41.83 24.14 44.04
  A 0.78 0.77 -77.3 0 1 23.42 44.50
  L 17.71 44.40
  A 0.72 0.68 80.7 0 1 17.05 43.90
  Q 16.06 40.88 18.85 40.84
  A 0.62 0.58 4.6 0 0 19.44 40.37
  L 23.55 18.16
  A 0.92 0.84 87.2 0 1 24.11 17.48
  Q 25.71 16.93 27.32 17.34
  A 0.80 0.76 -88.6 0 1 27.89 17.97
  L 32.06 40.36
  A 0.63 0.60 -4.0 0 0 32.65 40.85
  Q 35.53 40.96 34.41 44.03
  A 0.72 0.71 -78.9 0 1 33.73 44.50
  L 27.90 44.43
  A 0.60 0.53 0.1 0 1 27.31 43.91
  L 27.27 41.83
  A 0.91 0.62 -16.8 0 1 27.82 41.15
  Q 29.52 40.38 28.31 38.61
  A 1.02 0.89 -15.2 0 0 27.51 38.22
  L 23.78 38.27
  A 0.74 0.57 3.6 0 0 23.09 38.74
  L 22.79 40.44
  A 0.78 0.52 18.4 0 0 23.30 41.10
  Z
  M 25.70 25.22
  C 25.47 25.19 24.09 33.22 23.88 34.24
  A 0.53 0.53 -76.4 0 0 24.26 34.87
  Q 25.73 35.27 27.26 34.84
  A 0.56 0.52 76.8 0 0 27.62 34.20
  L 26.03 25.60
  A 0.47 0.35 86.2 0 0 25.70 25.22
  Z"
/>
<path fill="#f2f4f5" fill-opacity="0.973" d="
  M 13.80 19.49
  Q 14.15 83.38 14.00 147.25
  Q 14.00 148.77 17.00 152.96
  Q 14.07 150.42 13.46 146.50
  L 13.80 19.49
  Z"
/>
<path fill="#030605" fill-opacity="0.188" d="
  M 114.50 21.04
  Q 116.01 21.12 115.60 22.94
  A 0.65 0.58 22.0 0 0 115.93 23.61
  C 116.90 24.14 116.47 25.26 116.48 26.06
  C 116.82 59.92 116.56 93.11 116.51 126.60
  C 116.51 128.66 115.82 130.11 116.32 133.01
  Q 117.33 138.91 115.34 146.71
  Q 115.25 147.06 115.08 146.72
  Q 114.91 146.39 114.54 146.25
  L 114.46 88.00
  L 114.46 28.50
  L 114.50 21.04
  Z"
/>
<path fill="#ffffff" d="
  M 23.88 34.24
  C 24.09 33.22 25.47 25.19 25.70 25.22
  A 0.47 0.35 86.2 0 1 26.03 25.60
  L 27.62 34.20
  A 0.56 0.52 76.8 0 1 27.26 34.84
  Q 25.73 35.27 24.26 34.87
  A 0.53 0.53 -76.4 0 1 23.88 34.24
  Z"
/>
<path fill="#f4f0ee" fill-opacity="0.910" d="
  M 114.46 28.50
  L 114.46 88.00
  Q 113.94 58.25 114.46 28.50
  Z"
/>
<path fill="#2d261b" d="
  M 26.96 61.25
  Q 25.78 59.73 25.00 61.46
  Q 22.19 65.13 20.13 61.90
  Q 18.46 59.28 20.17 56.82
  L 25.68 48.85
  A 0.37 0.36 44.0 0 1 26.27 48.85
  C 29.36 53.02 35.67 60.11 30.49 63.07
  A 1.42 1.33 -53.4 0 1 29.55 63.24
  Q 27.73 62.91 26.96 61.25
  Z"
/>
<path fill="#f4f0ee" fill-opacity="0.910" d="
  M 26.96 61.25
  L 26.25 61.29
  L 25.54 61.75
  L 25.00 61.46
  Q 25.78 59.73 26.96 61.25
  Z"
/>
<path fill="#2d261b" d="
  M 26.25 61.29
  L 27.61 65.23
  A 0.50 0.49 71.9 0 1 27.29 65.87
  Q 25.78 66.33 24.46 65.78
  A 0.54 0.45 -68.2 0 1 24.25 65.13
  L 25.54 61.75
  L 26.25 61.29
  Z"
/>
<path fill="#2d261b" d="
  M 64.03 87.67
  L 63.19 88.04
  A 1.61 1.02 -77.7 0 0 62.53 88.71
  C 59.72 93.82 54.29 87.53 57.30 83.04
  Q 60.44 78.36 63.65 73.67
  A 0.35 0.34 -45.2 0 1 64.22 73.66
  C 67.06 77.83 73.11 83.96 70.90 89.10
  A 1.47 1.43 -2.9 0 1 70.25 89.80
  Q 66.68 91.73 64.72 87.95
  A 0.58 0.52 64.1 0 0 64.03 87.67
  Z"
/>
<path fill="#2d261b" d="
  M 63.44 88.69
  C 64.16 86.23 65.61 92.25 65.99 92.87
  A 0.83 0.60 52.2 0 1 66.02 93.73
  Q 65.60 94.23 64.74 94.06
  Q 64.21 93.95 63.77 94.01
  Q 62.86 94.14 62.00 93.88
  A 0.45 0.42 -67.3 0 1 61.77 93.26
  Q 62.55 91.69 63.44 88.69
  Z"
/>
<path fill="#2d261b" d="
  M 102.75 104.46
  L 101.54 104.75
  L 100.36 100.95
  A 0.49 0.45 74.8 0 1 100.67 100.34
  Q 102.11 100.01 103.49 100.38
  A 0.50 0.39 -74.5 0 1 103.73 100.97
  L 102.75 104.46
  Z"
/>
<path fill="#2d261b" d="
  M 101.04 105.00
  Q 102.42 106.21 103.25 104.54
  Q 106.13 101.26 108.00 104.55
  Q 109.45 107.12 107.76 109.61
  L 102.34 117.54
  A 0.35 0.34 -45.1 0 1 101.77 117.55
  C 99.36 114.09 92.72 107.18 97.13 103.32
  A 1.39 1.32 -64.4 0 1 98.02 102.98
  Q 100.18 103.00 101.04 105.00
  Z"
/>
<path fill="#f4f0ee" fill-opacity="0.910" d="
  M 102.75 104.46
  L 103.25 104.54
  Q 102.42 106.21 101.04 105.00
  L 101.54 104.75
  L 102.75 104.46
  Z"
/>
<path fill="#2d261b" d="
  M 99.26 127.56
  Q 99.23 128.43 99.57 129.26
  A 0.80 0.77 -11.1 0 0 100.30 129.73
  L 104.17 129.73
  A 0.74 0.58 4.1 0 0 104.88 129.25
  L 105.17 127.79
  A 0.84 0.55 23.3 0 0 104.70 127.08
  Q 103.11 126.22 103.78 124.10
  A 0.75 0.69 -80.1 0 1 104.45 123.58
  L 110.28 123.60
  A 0.75 0.69 80.1 0 1 110.95 124.12
  Q 111.93 127.10 109.16 127.16
  A 0.61 0.57 4.0 0 0 108.58 127.63
  L 104.39 149.96
  A 0.98 0.94 -84.2 0 1 103.45 150.76
  L 100.77 150.72
  A 0.63 0.61 84.2 0 1 100.17 150.21
  L 95.92 127.64
  A 0.64 0.60 -3.9 0 0 95.32 127.15
  Q 92.49 127.03 93.59 123.97
  A 0.72 0.71 10.1 0 1 94.28 123.50
  L 100.02 123.56
  A 0.74 0.72 -9.5 0 1 100.71 124.04
  Q 101.53 126.29 99.78 126.93
  A 0.79 0.66 -10.6 0 0 99.26 127.56
  Z
  M 102.89 140.71
  C 102.73 138.89 103.74 135.68 104.12 133.77
  A 0.56 0.54 -77.1 0 0 103.73 133.13
  Q 102.26 132.72 100.77 133.14
  A 0.57 0.54 77.4 0 0 100.39 133.78
  L 101.78 141.27
  A 1.29 0.76 -89.0 0 0 102.24 142.08
  Q 103.05 142.60 102.89 140.71
  Z"
/>
<path fill="#ffffff" d="
  M 102.89 140.71
  Q 103.05 142.60 102.24 142.08
  A 1.29 0.76 -89.0 0 1 101.78 141.27
  L 100.39 133.78
  A 0.57 0.54 77.4 0 1 100.77 133.14
  Q 102.26 132.72 103.73 133.13
  A 0.56 0.54 -77.1 0 1 104.12 133.77
  C 103.74 135.68 102.73 138.89 102.89 140.71
  Z"
/>
<path fill="#2d261b" d="
  M 81.24 155.31
  L 96.00 155.29
  L 95.72 155.52
  A 1.10 0.92 20.2 0 1 95.08 155.75
  Q 88.14 156.04 81.24 155.31
  Z"
/>
<path fill="#2d261b" d="
  M 105.05 155.42
  Q 102.12 156.19 99.21 155.50
  L 105.05 155.42
  Z"
/>
<rect fill="#020102" fill-opacity="0.278" x="22.53" y="156.00" width="83.60" height="0.74" rx="0.26"/>
</svg>
